<?xml version="1.0" encoding="utf-8"?>
<!-- Generator: Adobe Illustrator 16.0.4, SVG Export Plug-In . SVG Version: 6.00 Build 0)  -->
<!DOCTYPE svg PUBLIC "-//W3C//DTD SVG 1.1//EN" "http://www.w3.org/Graphics/SVG/1.1/DTD/svg11.dtd">
<svg version="1.1" id="Capa_1" xmlns="http://www.w3.org/2000/svg" xmlns:xlink="http://www.w3.org/1999/xlink" x="0px" y="0px"
	 width="512px" height="512px" viewBox="0 0 512 512" enable-background="new 0 0 512 512" xml:space="preserve">
<path d="M421.006,294.74c-6.824-6.723-21.957-10.283-44.986-10.586c-15.589-0.172-34.351,1.201-54.085,3.964
	c-8.837-5.099-17.945-10.647-25.094-17.329c-19.231-17.958-35.284-42.886-45.288-70.297c0.652-2.56,1.207-4.81,1.724-7.106
	c0,0,10.833-61.53,7.965-82.333c-0.395-2.853-0.637-3.681-1.404-5.898l-0.941-2.417c-2.947-6.796-8.724-13.997-17.782-13.604
	l-5.312-0.169l-0.146-0.003c-10.1,0-18.332,5.166-20.493,12.887c-6.569,24.217,0.209,60.446,12.491,107.369l-3.144,7.643
	c-8.794,21.438-19.815,43.03-29.539,62.079l-1.264,2.477c-10.23,20.02-19.512,37.014-27.927,51.411l-8.688,4.594
	c-0.632,0.334-15.522,8.209-19.014,10.322c-29.628,17.69-49.261,37.771-52.518,53.708c-1.036,5.085-0.265,11.593,5.007,14.606
	l8.403,4.229c3.645,1.826,7.489,2.751,11.427,2.751c21.102,0,45.6-26.286,79.348-85.183c38.965-12.685,83.327-23.229,122.207-29.045
	c29.629,16.684,66.071,28.272,89.071,28.272c4.084,0,7.605-0.39,10.466-1.147c4.411-1.168,8.129-3.684,10.396-7.097
	c4.463-6.716,5.367-15.966,4.156-25.438C425.68,300.589,423.435,297.113,421.006,294.74z M105.823,407.024
	c3.848-10.521,19.08-31.322,41.602-49.778c1.416-1.148,4.904-4.416,8.097-7.451C131.971,387.357,116.199,402.328,105.823,407.024z
	 M239.217,99.843c6.783,0,10.642,17.097,10.962,33.127c0.32,16.03-3.429,27.28-8.079,35.604c-3.851-12.324-5.713-31.75-5.713-44.452
	C236.387,124.122,236.104,99.843,239.217,99.843z M199.426,318.747c4.725-8.458,9.641-17.378,14.665-26.839
	c12.246-23.158,19.979-41.278,25.739-56.173c11.455,20.842,25.722,38.56,42.493,52.756c2.092,1.771,4.309,3.551,6.637,5.325
	C254.855,300.564,225.378,308.771,199.426,318.747z M414.452,316.826c-2.077,1.299-8.027,2.05-11.854,2.05
	c-12.353,0-27.636-5.647-49.062-14.833c8.233-0.609,15.781-0.919,22.55-0.919c12.391,0,16.06-0.054,28.175,3.036
	S416.529,315.527,414.452,316.826z M451.716,99.715l-71.432-71.431C364.728,12.728,334,0,312,0H72C50,0,32,18,32,40v432
	c0,22,18,40,40,40h368c22,0,40-18,40-40V168C480,146,467.272,115.271,451.716,99.715z M429.089,122.343
	c1.565,1.565,3.125,3.487,4.64,5.657H352V46.272c2.17,1.515,4.092,3.075,5.657,4.64L429.089,122.343z M448,472c0,4.336-3.664,8-8,8
	H72c-4.336,0-8-3.664-8-8V40c0-4.336,3.664-8,8-8h240c2.416,0,5.127,0.305,8,0.852V160h127.148c0.547,2.873,0.852,5.583,0.852,8V472
	z"/>
</svg>
