<?xml version="1.0" encoding="utf-8" standalone="no"?>
<!DOCTYPE svg PUBLIC "-//W3C//DTD SVG 1.1//EN"
  "http://www.w3.org/Graphics/SVG/1.1/DTD/svg11.dtd">
<svg xmlns:xlink="http://www.w3.org/1999/xlink" width="460.8pt" height="345.6pt" viewBox="0 0 460.8 345.6" xmlns="http://www.w3.org/2000/svg" version="1.1">
 <metadata>
  <rdf:RDF xmlns:dc="http://purl.org/dc/elements/1.1/" xmlns:cc="http://creativecommons.org/ns#" xmlns:rdf="http://www.w3.org/1999/02/22-rdf-syntax-ns#">
   <cc:Work>
    <dc:type rdf:resource="http://purl.org/dc/dcmitype/StillImage"/>
    <dc:date>2023-09-20T13:17:01.035256</dc:date>
    <dc:format>image/svg+xml</dc:format>
    <dc:creator>
     <cc:Agent>
      <dc:title>Matplotlib v3.8.0, https://matplotlib.org/</dc:title>
     </cc:Agent>
    </dc:creator>
   </cc:Work>
  </rdf:RDF>
 </metadata>
 <defs>
  <style type="text/css">*{stroke-linejoin: round; stroke-linecap: butt}</style>
 </defs>
 <g id="figure_1">
  <g id="patch_1">
   <path d="M 0 345.6 
L 460.8 345.6 
L 460.8 0 
L 0 0 
z
" style="fill: #ffffff"/>
  </g>
  <g id="axes_1">
   <g id="patch_2">
    <path d="M 63.290625 304.44375 
L 450 304.44375 
L 450 25.918125 
L 63.290625 25.918125 
z
" style="fill: #ffffff"/>
   </g>
   <g id="matplotlib.axis_1">
    <g id="xtick_1">
     <g id="line2d_1">
      <defs>
       <path id="mc998c4ee49" d="M 0 0 
L 0 3.5 
" style="stroke: #000000; stroke-width: 0.8"/>
      </defs>
      <g>
       <use xlink:href="#mc998c4ee49" x="114.252127" y="304.44375" style="stroke: #000000; stroke-width: 0.8"/>
      </g>
     </g>
     <g id="text_1">
      <!-- 2015 -->
      <g transform="translate(101.527127 319.042187) scale(0.1 -0.1)">
       <defs>
        <path id="DejaVuSans-32" d="M 1228 531 
L 3431 531 
L 3431 0 
L 469 0 
L 469 531 
Q 828 903 1448 1529 
Q 2069 2156 2228 2338 
Q 2531 2678 2651 2914 
Q 2772 3150 2772 3378 
Q 2772 3750 2511 3984 
Q 2250 4219 1831 4219 
Q 1534 4219 1204 4116 
Q 875 4013 500 3803 
L 500 4441 
Q 881 4594 1212 4672 
Q 1544 4750 1819 4750 
Q 2544 4750 2975 4387 
Q 3406 4025 3406 3419 
Q 3406 3131 3298 2873 
Q 3191 2616 2906 2266 
Q 2828 2175 2409 1742 
Q 1991 1309 1228 531 
z
" transform="scale(0.015625)"/>
        <path id="DejaVuSans-30" d="M 2034 4250 
Q 1547 4250 1301 3770 
Q 1056 3291 1056 2328 
Q 1056 1369 1301 889 
Q 1547 409 2034 409 
Q 2525 409 2770 889 
Q 3016 1369 3016 2328 
Q 3016 3291 2770 3770 
Q 2525 4250 2034 4250 
z
M 2034 4750 
Q 2819 4750 3233 4129 
Q 3647 3509 3647 2328 
Q 3647 1150 3233 529 
Q 2819 -91 2034 -91 
Q 1250 -91 836 529 
Q 422 1150 422 2328 
Q 422 3509 836 4129 
Q 1250 4750 2034 4750 
z
" transform="scale(0.015625)"/>
        <path id="DejaVuSans-31" d="M 794 531 
L 1825 531 
L 1825 4091 
L 703 3866 
L 703 4441 
L 1819 4666 
L 2450 4666 
L 2450 531 
L 3481 531 
L 3481 0 
L 794 0 
L 794 531 
z
" transform="scale(0.015625)"/>
        <path id="DejaVuSans-35" d="M 691 4666 
L 3169 4666 
L 3169 4134 
L 1269 4134 
L 1269 2991 
Q 1406 3038 1543 3061 
Q 1681 3084 1819 3084 
Q 2600 3084 3056 2656 
Q 3513 2228 3513 1497 
Q 3513 744 3044 326 
Q 2575 -91 1722 -91 
Q 1428 -91 1123 -41 
Q 819 9 494 109 
L 494 744 
Q 775 591 1075 516 
Q 1375 441 1709 441 
Q 2250 441 2565 725 
Q 2881 1009 2881 1497 
Q 2881 1984 2565 2268 
Q 2250 2553 1709 2553 
Q 1456 2553 1204 2497 
Q 953 2441 691 2322 
L 691 4666 
z
" transform="scale(0.015625)"/>
       </defs>
       <use xlink:href="#DejaVuSans-32"/>
       <use xlink:href="#DejaVuSans-30" x="63.623047"/>
       <use xlink:href="#DejaVuSans-31" x="127.246094"/>
       <use xlink:href="#DejaVuSans-35" x="190.869141"/>
      </g>
     </g>
    </g>
    <g id="xtick_2">
     <g id="line2d_2">
      <g>
       <use xlink:href="#mc998c4ee49" x="151.629698" y="304.44375" style="stroke: #000000; stroke-width: 0.8"/>
      </g>
     </g>
     <g id="text_2">
      <!-- 2016 -->
      <g transform="translate(138.904698 319.042187) scale(0.1 -0.1)">
       <defs>
        <path id="DejaVuSans-36" d="M 2113 2584 
Q 1688 2584 1439 2293 
Q 1191 2003 1191 1497 
Q 1191 994 1439 701 
Q 1688 409 2113 409 
Q 2538 409 2786 701 
Q 3034 994 3034 1497 
Q 3034 2003 2786 2293 
Q 2538 2584 2113 2584 
z
M 3366 4563 
L 3366 3988 
Q 3128 4100 2886 4159 
Q 2644 4219 2406 4219 
Q 1781 4219 1451 3797 
Q 1122 3375 1075 2522 
Q 1259 2794 1537 2939 
Q 1816 3084 2150 3084 
Q 2853 3084 3261 2657 
Q 3669 2231 3669 1497 
Q 3669 778 3244 343 
Q 2819 -91 2113 -91 
Q 1303 -91 875 529 
Q 447 1150 447 2328 
Q 447 3434 972 4092 
Q 1497 4750 2381 4750 
Q 2619 4750 2861 4703 
Q 3103 4656 3366 4563 
z
" transform="scale(0.015625)"/>
       </defs>
       <use xlink:href="#DejaVuSans-32"/>
       <use xlink:href="#DejaVuSans-30" x="63.623047"/>
       <use xlink:href="#DejaVuSans-31" x="127.246094"/>
       <use xlink:href="#DejaVuSans-36" x="190.869141"/>
      </g>
     </g>
    </g>
    <g id="xtick_3">
     <g id="line2d_3">
      <g>
       <use xlink:href="#mc998c4ee49" x="189.109674" y="304.44375" style="stroke: #000000; stroke-width: 0.8"/>
      </g>
     </g>
     <g id="text_3">
      <!-- 2017 -->
      <g transform="translate(176.384674 319.042187) scale(0.1 -0.1)">
       <defs>
        <path id="DejaVuSans-37" d="M 525 4666 
L 3525 4666 
L 3525 4397 
L 1831 0 
L 1172 0 
L 2766 4134 
L 525 4134 
L 525 4666 
z
" transform="scale(0.015625)"/>
       </defs>
       <use xlink:href="#DejaVuSans-32"/>
       <use xlink:href="#DejaVuSans-30" x="63.623047"/>
       <use xlink:href="#DejaVuSans-31" x="127.246094"/>
       <use xlink:href="#DejaVuSans-37" x="190.869141"/>
      </g>
     </g>
    </g>
    <g id="xtick_4">
     <g id="line2d_4">
      <g>
       <use xlink:href="#mc998c4ee49" x="226.487245" y="304.44375" style="stroke: #000000; stroke-width: 0.8"/>
      </g>
     </g>
     <g id="text_4">
      <!-- 2018 -->
      <g transform="translate(213.762245 319.042187) scale(0.1 -0.1)">
       <defs>
        <path id="DejaVuSans-38" d="M 2034 2216 
Q 1584 2216 1326 1975 
Q 1069 1734 1069 1313 
Q 1069 891 1326 650 
Q 1584 409 2034 409 
Q 2484 409 2743 651 
Q 3003 894 3003 1313 
Q 3003 1734 2745 1975 
Q 2488 2216 2034 2216 
z
M 1403 2484 
Q 997 2584 770 2862 
Q 544 3141 544 3541 
Q 544 4100 942 4425 
Q 1341 4750 2034 4750 
Q 2731 4750 3128 4425 
Q 3525 4100 3525 3541 
Q 3525 3141 3298 2862 
Q 3072 2584 2669 2484 
Q 3125 2378 3379 2068 
Q 3634 1759 3634 1313 
Q 3634 634 3220 271 
Q 2806 -91 2034 -91 
Q 1263 -91 848 271 
Q 434 634 434 1313 
Q 434 1759 690 2068 
Q 947 2378 1403 2484 
z
M 1172 3481 
Q 1172 3119 1398 2916 
Q 1625 2713 2034 2713 
Q 2441 2713 2670 2916 
Q 2900 3119 2900 3481 
Q 2900 3844 2670 4047 
Q 2441 4250 2034 4250 
Q 1625 4250 1398 4047 
Q 1172 3844 1172 3481 
z
" transform="scale(0.015625)"/>
       </defs>
       <use xlink:href="#DejaVuSans-32"/>
       <use xlink:href="#DejaVuSans-30" x="63.623047"/>
       <use xlink:href="#DejaVuSans-31" x="127.246094"/>
       <use xlink:href="#DejaVuSans-38" x="190.869141"/>
      </g>
     </g>
    </g>
    <g id="xtick_5">
     <g id="line2d_5">
      <g>
       <use xlink:href="#mc998c4ee49" x="263.864816" y="304.44375" style="stroke: #000000; stroke-width: 0.8"/>
      </g>
     </g>
     <g id="text_5">
      <!-- 2019 -->
      <g transform="translate(251.139816 319.042187) scale(0.1 -0.1)">
       <defs>
        <path id="DejaVuSans-39" d="M 703 97 
L 703 672 
Q 941 559 1184 500 
Q 1428 441 1663 441 
Q 2288 441 2617 861 
Q 2947 1281 2994 2138 
Q 2813 1869 2534 1725 
Q 2256 1581 1919 1581 
Q 1219 1581 811 2004 
Q 403 2428 403 3163 
Q 403 3881 828 4315 
Q 1253 4750 1959 4750 
Q 2769 4750 3195 4129 
Q 3622 3509 3622 2328 
Q 3622 1225 3098 567 
Q 2575 -91 1691 -91 
Q 1453 -91 1209 -44 
Q 966 3 703 97 
z
M 1959 2075 
Q 2384 2075 2632 2365 
Q 2881 2656 2881 3163 
Q 2881 3666 2632 3958 
Q 2384 4250 1959 4250 
Q 1534 4250 1286 3958 
Q 1038 3666 1038 3163 
Q 1038 2656 1286 2365 
Q 1534 2075 1959 2075 
z
" transform="scale(0.015625)"/>
       </defs>
       <use xlink:href="#DejaVuSans-32"/>
       <use xlink:href="#DejaVuSans-30" x="63.623047"/>
       <use xlink:href="#DejaVuSans-31" x="127.246094"/>
       <use xlink:href="#DejaVuSans-39" x="190.869141"/>
      </g>
     </g>
    </g>
    <g id="xtick_6">
     <g id="line2d_6">
      <g>
       <use xlink:href="#mc998c4ee49" x="300.730366" y="304.44375" style="stroke: #000000; stroke-width: 0.8"/>
      </g>
     </g>
     <g id="text_6">
      <!-- 2020 -->
      <g transform="translate(288.005366 319.042187) scale(0.1 -0.1)">
       <use xlink:href="#DejaVuSans-32"/>
       <use xlink:href="#DejaVuSans-30" x="63.623047"/>
       <use xlink:href="#DejaVuSans-32" x="127.246094"/>
       <use xlink:href="#DejaVuSans-30" x="190.869141"/>
      </g>
     </g>
    </g>
    <g id="xtick_7">
     <g id="line2d_7">
      <g>
       <use xlink:href="#mc998c4ee49" x="336.367064" y="304.44375" style="stroke: #000000; stroke-width: 0.8"/>
      </g>
     </g>
     <g id="text_7">
      <!-- 2021 -->
      <g transform="translate(323.642064 319.042187) scale(0.1 -0.1)">
       <use xlink:href="#DejaVuSans-32"/>
       <use xlink:href="#DejaVuSans-30" x="63.623047"/>
       <use xlink:href="#DejaVuSans-32" x="127.246094"/>
       <use xlink:href="#DejaVuSans-31" x="190.869141"/>
      </g>
     </g>
    </g>
    <g id="xtick_8">
     <g id="line2d_8">
      <g>
       <use xlink:href="#mc998c4ee49" x="368.419611" y="304.44375" style="stroke: #000000; stroke-width: 0.8"/>
      </g>
     </g>
     <g id="text_8">
      <!-- 2022 -->
      <g transform="translate(355.694611 319.042187) scale(0.1 -0.1)">
       <use xlink:href="#DejaVuSans-32"/>
       <use xlink:href="#DejaVuSans-30" x="63.623047"/>
       <use xlink:href="#DejaVuSans-32" x="127.246094"/>
       <use xlink:href="#DejaVuSans-32" x="190.869141"/>
      </g>
     </g>
    </g>
    <g id="xtick_9">
     <g id="line2d_9">
      <g>
       <use xlink:href="#mc998c4ee49" x="405.797182" y="304.44375" style="stroke: #000000; stroke-width: 0.8"/>
      </g>
     </g>
     <g id="text_9">
      <!-- 2023 -->
      <g transform="translate(393.072182 319.042187) scale(0.1 -0.1)">
       <defs>
        <path id="DejaVuSans-33" d="M 2597 2516 
Q 3050 2419 3304 2112 
Q 3559 1806 3559 1356 
Q 3559 666 3084 287 
Q 2609 -91 1734 -91 
Q 1441 -91 1130 -33 
Q 819 25 488 141 
L 488 750 
Q 750 597 1062 519 
Q 1375 441 1716 441 
Q 2309 441 2620 675 
Q 2931 909 2931 1356 
Q 2931 1769 2642 2001 
Q 2353 2234 1838 2234 
L 1294 2234 
L 1294 2753 
L 1863 2753 
Q 2328 2753 2575 2939 
Q 2822 3125 2822 3475 
Q 2822 3834 2567 4026 
Q 2313 4219 1838 4219 
Q 1578 4219 1281 4162 
Q 984 4106 628 3988 
L 628 4550 
Q 988 4650 1302 4700 
Q 1616 4750 1894 4750 
Q 2613 4750 3031 4423 
Q 3450 4097 3450 3541 
Q 3450 3153 3228 2886 
Q 3006 2619 2597 2516 
z
" transform="scale(0.015625)"/>
       </defs>
       <use xlink:href="#DejaVuSans-32"/>
       <use xlink:href="#DejaVuSans-30" x="63.623047"/>
       <use xlink:href="#DejaVuSans-32" x="127.246094"/>
       <use xlink:href="#DejaVuSans-33" x="190.869141"/>
      </g>
     </g>
    </g>
    <g id="text_10">
     <!-- Year -->
     <g transform="translate(244.25 332.720312) scale(0.1 -0.1)">
      <defs>
       <path id="DejaVuSans-Bold-59" d="M -63 4666 
L 1253 4666 
L 2316 3003 
L 3378 4666 
L 4697 4666 
L 2919 1966 
L 2919 0 
L 1716 0 
L 1716 1966 
L -63 4666 
z
" transform="scale(0.015625)"/>
       <path id="DejaVuSans-Bold-65" d="M 4031 1759 
L 4031 1441 
L 1416 1441 
Q 1456 1047 1700 850 
Q 1944 653 2381 653 
Q 2734 653 3104 758 
Q 3475 863 3866 1075 
L 3866 213 
Q 3469 63 3072 -14 
Q 2675 -91 2278 -91 
Q 1328 -91 801 392 
Q 275 875 275 1747 
Q 275 2603 792 3093 
Q 1309 3584 2216 3584 
Q 3041 3584 3536 3087 
Q 4031 2591 4031 1759 
z
M 2881 2131 
Q 2881 2450 2695 2645 
Q 2509 2841 2209 2841 
Q 1884 2841 1681 2658 
Q 1478 2475 1428 2131 
L 2881 2131 
z
" transform="scale(0.015625)"/>
       <path id="DejaVuSans-Bold-61" d="M 2106 1575 
Q 1756 1575 1579 1456 
Q 1403 1338 1403 1106 
Q 1403 894 1545 773 
Q 1688 653 1941 653 
Q 2256 653 2472 879 
Q 2688 1106 2688 1447 
L 2688 1575 
L 2106 1575 
z
M 3816 1997 
L 3816 0 
L 2688 0 
L 2688 519 
Q 2463 200 2181 54 
Q 1900 -91 1497 -91 
Q 953 -91 614 226 
Q 275 544 275 1050 
Q 275 1666 698 1953 
Q 1122 2241 2028 2241 
L 2688 2241 
L 2688 2328 
Q 2688 2594 2478 2717 
Q 2269 2841 1825 2841 
Q 1466 2841 1156 2769 
Q 847 2697 581 2553 
L 581 3406 
Q 941 3494 1303 3539 
Q 1666 3584 2028 3584 
Q 2975 3584 3395 3211 
Q 3816 2838 3816 1997 
z
" transform="scale(0.015625)"/>
       <path id="DejaVuSans-Bold-72" d="M 3138 2547 
Q 2991 2616 2845 2648 
Q 2700 2681 2553 2681 
Q 2122 2681 1889 2404 
Q 1656 2128 1656 1613 
L 1656 0 
L 538 0 
L 538 3500 
L 1656 3500 
L 1656 2925 
Q 1872 3269 2151 3426 
Q 2431 3584 2822 3584 
Q 2878 3584 2943 3579 
Q 3009 3575 3134 3559 
L 3138 2547 
z
" transform="scale(0.015625)"/>
      </defs>
      <use xlink:href="#DejaVuSans-Bold-59"/>
      <use xlink:href="#DejaVuSans-Bold-65" x="63.287109"/>
      <use xlink:href="#DejaVuSans-Bold-61" x="131.109375"/>
      <use xlink:href="#DejaVuSans-Bold-72" x="198.589844"/>
     </g>
    </g>
   </g>
   <g id="matplotlib.axis_2">
    <g id="ytick_1">
     <g id="line2d_10">
      <defs>
       <path id="m8341a3349e" d="M 0 0 
L -3.5 0 
" style="stroke: #000000; stroke-width: 0.8"/>
      </defs>
      <g>
       <use xlink:href="#m8341a3349e" x="63.290625" y="292.539806" style="stroke: #000000; stroke-width: 0.8"/>
      </g>
     </g>
     <g id="text_11">
      <!-- 0 -->
      <g transform="translate(49.928125 296.339025) scale(0.1 -0.1)">
       <use xlink:href="#DejaVuSans-30"/>
      </g>
     </g>
    </g>
    <g id="ytick_2">
     <g id="line2d_11">
      <g>
       <use xlink:href="#m8341a3349e" x="63.290625" y="252.73394" style="stroke: #000000; stroke-width: 0.8"/>
      </g>
     </g>
     <g id="text_12">
      <!-- 2000 -->
      <g transform="translate(30.840625 256.533159) scale(0.1 -0.1)">
       <use xlink:href="#DejaVuSans-32"/>
       <use xlink:href="#DejaVuSans-30" x="63.623047"/>
       <use xlink:href="#DejaVuSans-30" x="127.246094"/>
       <use xlink:href="#DejaVuSans-30" x="190.869141"/>
      </g>
     </g>
    </g>
    <g id="ytick_3">
     <g id="line2d_12">
      <g>
       <use xlink:href="#m8341a3349e" x="63.290625" y="212.928074" style="stroke: #000000; stroke-width: 0.8"/>
      </g>
     </g>
     <g id="text_13">
      <!-- 4000 -->
      <g transform="translate(30.840625 216.727293) scale(0.1 -0.1)">
       <defs>
        <path id="DejaVuSans-34" d="M 2419 4116 
L 825 1625 
L 2419 1625 
L 2419 4116 
z
M 2253 4666 
L 3047 4666 
L 3047 1625 
L 3713 1625 
L 3713 1100 
L 3047 1100 
L 3047 0 
L 2419 0 
L 2419 1100 
L 313 1100 
L 313 1709 
L 2253 4666 
z
" transform="scale(0.015625)"/>
       </defs>
       <use xlink:href="#DejaVuSans-34"/>
       <use xlink:href="#DejaVuSans-30" x="63.623047"/>
       <use xlink:href="#DejaVuSans-30" x="127.246094"/>
       <use xlink:href="#DejaVuSans-30" x="190.869141"/>
      </g>
     </g>
    </g>
    <g id="ytick_4">
     <g id="line2d_13">
      <g>
       <use xlink:href="#m8341a3349e" x="63.290625" y="173.122208" style="stroke: #000000; stroke-width: 0.8"/>
      </g>
     </g>
     <g id="text_14">
      <!-- 6000 -->
      <g transform="translate(30.840625 176.921427) scale(0.1 -0.1)">
       <use xlink:href="#DejaVuSans-36"/>
       <use xlink:href="#DejaVuSans-30" x="63.623047"/>
       <use xlink:href="#DejaVuSans-30" x="127.246094"/>
       <use xlink:href="#DejaVuSans-30" x="190.869141"/>
      </g>
     </g>
    </g>
    <g id="ytick_5">
     <g id="line2d_14">
      <g>
       <use xlink:href="#m8341a3349e" x="63.290625" y="133.316342" style="stroke: #000000; stroke-width: 0.8"/>
      </g>
     </g>
     <g id="text_15">
      <!-- 8000 -->
      <g transform="translate(30.840625 137.115561) scale(0.1 -0.1)">
       <use xlink:href="#DejaVuSans-38"/>
       <use xlink:href="#DejaVuSans-30" x="63.623047"/>
       <use xlink:href="#DejaVuSans-30" x="127.246094"/>
       <use xlink:href="#DejaVuSans-30" x="190.869141"/>
      </g>
     </g>
    </g>
    <g id="ytick_6">
     <g id="line2d_15">
      <g>
       <use xlink:href="#m8341a3349e" x="63.290625" y="93.510476" style="stroke: #000000; stroke-width: 0.8"/>
      </g>
     </g>
     <g id="text_16">
      <!-- 10000 -->
      <g transform="translate(24.478125 97.309695) scale(0.1 -0.1)">
       <use xlink:href="#DejaVuSans-31"/>
       <use xlink:href="#DejaVuSans-30" x="63.623047"/>
       <use xlink:href="#DejaVuSans-30" x="127.246094"/>
       <use xlink:href="#DejaVuSans-30" x="190.869141"/>
       <use xlink:href="#DejaVuSans-30" x="254.492188"/>
      </g>
     </g>
    </g>
    <g id="ytick_7">
     <g id="line2d_16">
      <g>
       <use xlink:href="#m8341a3349e" x="63.290625" y="53.70461" style="stroke: #000000; stroke-width: 0.8"/>
      </g>
     </g>
     <g id="text_17">
      <!-- 12000 -->
      <g transform="translate(24.478125 57.503829) scale(0.1 -0.1)">
       <use xlink:href="#DejaVuSans-31"/>
       <use xlink:href="#DejaVuSans-32" x="63.623047"/>
       <use xlink:href="#DejaVuSans-30" x="127.246094"/>
       <use xlink:href="#DejaVuSans-30" x="190.869141"/>
       <use xlink:href="#DejaVuSans-30" x="254.492188"/>
      </g>
     </g>
    </g>
    <g id="text_18">
     <!-- # Starts -->
     <g transform="translate(18.398438 188.3075) rotate(-90) scale(0.1 -0.1)">
      <defs>
       <path id="DejaVuSans-Bold-23" d="M 2847 4594 
L 2547 3391 
L 3372 3391 
L 3675 4594 
L 4366 4594 
L 4063 3391 
L 4928 3391 
L 4928 2725 
L 3897 2725 
L 3681 1869 
L 4569 1869 
L 4569 1197 
L 3519 1197 
L 3219 0 
L 2528 0 
L 2828 1197 
L 2003 1197 
L 1703 0 
L 1006 0 
L 1306 1197 
L 434 1197 
L 434 1869 
L 1459 1869 
L 1678 2725 
L 794 2725 
L 794 3391 
L 1850 3391 
L 2150 4594 
L 2847 4594 
z
M 3200 2725 
L 2375 2725 
L 2156 1869 
L 2981 1869 
L 3200 2725 
z
" transform="scale(0.015625)"/>
       <path id="DejaVuSans-Bold-20" transform="scale(0.015625)"/>
       <path id="DejaVuSans-Bold-53" d="M 3834 4519 
L 3834 3531 
Q 3450 3703 3084 3790 
Q 2719 3878 2394 3878 
Q 1963 3878 1756 3759 
Q 1550 3641 1550 3391 
Q 1550 3203 1689 3098 
Q 1828 2994 2194 2919 
L 2706 2816 
Q 3484 2659 3812 2340 
Q 4141 2022 4141 1434 
Q 4141 663 3683 286 
Q 3225 -91 2284 -91 
Q 1841 -91 1394 -6 
Q 947 78 500 244 
L 500 1259 
Q 947 1022 1364 901 
Q 1781 781 2169 781 
Q 2563 781 2772 912 
Q 2981 1044 2981 1288 
Q 2981 1506 2839 1625 
Q 2697 1744 2272 1838 
L 1806 1941 
Q 1106 2091 782 2419 
Q 459 2747 459 3303 
Q 459 4000 909 4375 
Q 1359 4750 2203 4750 
Q 2588 4750 2994 4692 
Q 3400 4634 3834 4519 
z
" transform="scale(0.015625)"/>
       <path id="DejaVuSans-Bold-74" d="M 1759 4494 
L 1759 3500 
L 2913 3500 
L 2913 2700 
L 1759 2700 
L 1759 1216 
Q 1759 972 1856 886 
Q 1953 800 2241 800 
L 2816 800 
L 2816 0 
L 1856 0 
Q 1194 0 917 276 
Q 641 553 641 1216 
L 641 2700 
L 84 2700 
L 84 3500 
L 641 3500 
L 641 4494 
L 1759 4494 
z
" transform="scale(0.015625)"/>
       <path id="DejaVuSans-Bold-73" d="M 3272 3391 
L 3272 2541 
Q 2913 2691 2578 2766 
Q 2244 2841 1947 2841 
Q 1628 2841 1473 2761 
Q 1319 2681 1319 2516 
Q 1319 2381 1436 2309 
Q 1553 2238 1856 2203 
L 2053 2175 
Q 2913 2066 3209 1816 
Q 3506 1566 3506 1031 
Q 3506 472 3093 190 
Q 2681 -91 1863 -91 
Q 1516 -91 1145 -36 
Q 775 19 384 128 
L 384 978 
Q 719 816 1070 734 
Q 1422 653 1784 653 
Q 2113 653 2278 743 
Q 2444 834 2444 1013 
Q 2444 1163 2330 1236 
Q 2216 1309 1875 1350 
L 1678 1375 
Q 931 1469 631 1722 
Q 331 1975 331 2491 
Q 331 3047 712 3315 
Q 1094 3584 1881 3584 
Q 2191 3584 2531 3537 
Q 2872 3491 3272 3391 
z
" transform="scale(0.015625)"/>
      </defs>
      <use xlink:href="#DejaVuSans-Bold-23"/>
      <use xlink:href="#DejaVuSans-Bold-20" x="83.789062"/>
      <use xlink:href="#DejaVuSans-Bold-53" x="118.603516"/>
      <use xlink:href="#DejaVuSans-Bold-74" x="190.625"/>
      <use xlink:href="#DejaVuSans-Bold-61" x="238.427734"/>
      <use xlink:href="#DejaVuSans-Bold-72" x="305.908203"/>
      <use xlink:href="#DejaVuSans-Bold-74" x="355.224609"/>
      <use xlink:href="#DejaVuSans-Bold-73" x="403.027344"/>
     </g>
    </g>
   </g>
   <g id="line2d_17">
    <path d="M 80.868324 291.126698 
L 80.970728 288.419899 
L 81.073132 289.693686 
L 81.380345 289.375239 
L 81.585154 291.783494 
L 81.789963 288.738346 
L 81.994771 279.184938 
L 82.19958 285.892226 
L 82.301984 285.613585 
L 82.404388 275.662119 
L 82.506793 275.900954 
L 82.711601 274.328622 
L 82.91641 286.827664 
L 83.018814 283.822321 
L 83.223623 272.199008 
L 83.530836 275.900954 
L 83.63324 283.424262 
L 83.735644 283.324748 
L 83.838049 269.63153 
L 83.940453 271.900464 
L 84.042857 267.581528 
L 84.145262 267.700945 
L 84.247666 271.363085 
L 84.35007 281.732513 
L 84.452475 280.000958 
L 84.657283 268.218422 
L 84.759687 266.904828 
L 84.862092 267.601431 
L 85.0669 282.52863 
L 85.169305 280.578143 
L 85.374113 266.745605 
L 85.476518 266.865022 
L 85.578922 267.203372 
L 85.681326 268.656286 
L 85.78373 283.085913 
L 85.886135 279.184938 
L 86.090943 267.581528 
L 86.193348 264.874729 
L 86.295752 265.63104 
L 86.500561 282.230086 
L 86.602965 280.677658 
L 86.807774 262.307251 
L 86.910178 262.486377 
L 87.114986 270.328133 
L 87.217391 284.757759 
L 87.319795 281.414066 
L 87.524604 265.232982 
L 87.729412 267.223275 
L 87.934221 283.683001 
L 88.036625 279.762123 
L 88.241434 264.874729 
L 88.343838 264.596088 
L 88.446242 265.889778 
L 88.548647 269.472306 
L 88.651051 282.946592 
L 88.958264 256.734429 
L 89.367881 279.981055 
L 89.470285 276.27911 
L 89.675094 256.973264 
L 89.982307 266.944634 
L 90.084711 278.72717 
L 90.187116 275.383478 
L 90.28952 255.52035 
L 90.596733 261.869386 
L 90.699137 267.342693 
L 90.801541 281.851931 
L 90.903946 275.960663 
L 91.00635 257.729576 
L 91.108754 258.585402 
L 91.211159 258.02812 
L 91.313563 259.421325 
L 91.415967 264.018903 
L 91.518372 279.105326 
L 91.620776 278.050471 
L 91.825584 259.122781 
L 91.927989 259.839287 
L 92.132797 263.680553 
L 92.235202 280.000958 
L 92.337606 278.269403 
L 92.542415 254.346077 
L 92.644819 254.326174 
L 92.747223 252.634425 
L 92.952032 283.304845 
L 93.054436 277.791732 
L 93.259245 261.670357 
L 93.361649 254.963068 
L 93.464053 257.311614 
L 93.668862 281.991251 
L 93.771266 280.279599 
L 93.976075 260.356763 
L 94.078479 255.400933 
L 94.180883 258.247052 
L 94.283288 265.073758 
L 94.385692 283.921836 
L 94.692905 256.794138 
L 94.795309 261.212589 
L 95.000118 264.596088 
L 95.102522 282.05096 
L 95.204926 277.871344 
L 95.307331 262.804824 
L 95.409735 263.242688 
L 95.512139 258.485887 
L 95.614544 262.287348 
L 95.819352 281.115522 
L 95.921757 277.513091 
L 96.126565 255.301418 
L 96.22897 259.819384 
L 96.331374 254.445592 
L 96.433778 261.749968 
L 96.536182 283.324748 
L 96.638587 277.612606 
L 96.843395 252.932969 
L 96.9458 252.634425 
L 97.048204 254.624718 
L 97.253013 282.886883 
L 97.66263 253.709183 
L 97.867438 264.118417 
L 97.969843 281.175231 
L 98.072247 275.701924 
L 98.174651 258.525693 
L 98.277056 260.277151 
L 98.481864 253.808698 
L 98.686673 282.72766 
L 98.789077 276.916003 
L 98.891481 256.654818 
L 98.993886 260.973754 
L 99.09629 253.271319 
L 99.198694 255.540253 
L 99.403503 283.046107 
L 99.505907 275.084934 
L 99.608312 255.699477 
L 99.81312 264.615991 
L 99.915524 262.50628 
L 100.120333 283.603389 
L 100.222737 278.448529 
L 100.427546 257.530547 
L 100.52995 261.332007 
L 100.632355 260.316957 
L 100.837163 282.508728 
L 100.939568 277.493188 
L 101.041972 257.709673 
L 101.144376 259.301908 
L 101.349185 259.063072 
L 101.451589 266.128614 
L 101.553993 282.488825 
L 101.656398 277.5728 
L 101.963611 254.843651 
L 102.066015 258.684917 
L 102.270823 282.886883 
L 102.373228 277.194644 
L 102.578036 257.649964 
L 102.680441 253.987825 
L 102.885249 262.685406 
L 102.987654 282.110669 
L 103.090058 275.980566 
L 103.294867 254.36598 
L 103.397271 256.555303 
L 103.499675 255.480545 
L 103.602079 261.172783 
L 103.704484 281.57329 
L 103.806888 275.124739 
L 104.011697 252.87326 
L 104.114101 258.008217 
L 104.216505 257.431032 
L 104.421314 281.23494 
L 104.523718 274.527651 
L 104.626123 255.679574 
L 104.728527 258.326664 
L 104.830931 257.01307 
L 104.933335 258.784431 
L 105.03574 258.306761 
L 105.138144 280.41892 
L 105.240548 279.722317 
L 105.445357 248.73345 
L 105.854974 278.647559 
L 105.957378 276.378624 
L 106.162187 254.584913 
L 106.264591 256.316468 
L 106.366996 250.703841 
L 106.571804 278.209694 
L 106.674209 275.204351 
L 106.879017 247.91743 
L 107.083826 253.052387 
L 107.18623 258.446082 
L 107.288634 281.055813 
L 107.391039 275.124739 
L 107.595847 245.668399 
L 107.698252 247.459663 
L 107.800656 244.25529 
L 108.005465 279.284452 
L 108.107869 271.422794 
L 108.312677 244.912087 
L 108.517486 242.901891 
L 108.722295 278.906297 
L 109.131912 241.190239 
L 109.234316 242.165482 
L 109.439125 277.612606 
L 109.541529 269.372792 
L 109.643933 240.414024 
L 109.746338 241.26985 
L 109.848742 241.667909 
L 109.951146 238.861595 
L 110.155955 273.811146 
L 110.258359 267.302887 
L 110.463168 239.319363 
L 110.565572 243.518882 
L 110.872785 272.457746 
L 110.975189 266.865022 
L 111.077594 243.43927 
L 111.179998 247.200924 
L 111.282402 246.066457 
L 111.384807 247.399954 
L 111.487211 256.694623 
L 111.589615 276.119886 
L 111.69202 270.009686 
L 111.794424 245.867428 
L 111.896828 246.564031 
L 111.999232 245.94704 
L 112.101637 247.121313 
L 112.204041 254.943165 
L 112.306445 275.502895 
L 112.40885 266.526672 
L 112.511254 241.508686 
L 112.613658 245.051408 
L 112.716063 244.713058 
L 112.818467 250.027141 
L 113.023275 279.901443 
L 113.228084 259.799481 
L 113.330488 264.994146 
L 113.432893 274.866001 
L 113.535297 274.766487 
L 113.740106 278.966005 
L 114.047319 265.869876 
L 114.252127 278.985908 
L 114.354531 273.353378 
L 114.456936 273.831049 
L 114.55934 269.213568 
L 114.764149 250.265976 
L 114.866553 248.295586 
L 114.968957 248.315489 
L 115.173766 276.41843 
L 115.27617 269.850462 
L 115.378574 247.200924 
L 115.480979 247.499468 
L 115.583383 245.787816 
L 115.685787 238.682469 
L 115.890596 273.512602 
L 115.993 265.073758 
L 116.197809 241.488783 
L 116.300213 240.831986 
L 116.402618 236.254311 
L 116.607426 275.662119 
L 116.70983 269.273277 
L 116.812235 240.732471 
L 116.914639 241.26985 
L 117.017043 236.632467 
L 117.119448 237.727128 
L 117.324256 274.866001 
L 117.426661 265.790264 
L 117.631469 238.085381 
L 117.733873 235.15965 
L 117.836278 235.179553 
L 118.041086 274.049981 
L 118.143491 267.183469 
L 118.245895 243.001406 
L 118.348299 244.155776 
L 118.553108 238.841693 
L 118.655512 249.947529 
L 118.757917 276.060177 
L 118.860321 271.960173 
L 119.065129 248.753353 
L 119.167534 249.848014 
L 119.269938 244.613543 
L 119.372342 251.619376 
L 119.474747 276.299012 
L 119.577151 269.094151 
L 119.679555 238.981013 
L 119.78196 240.433927 
L 119.884364 239.816936 
L 119.986768 239.876645 
L 120.089172 250.962579 
L 120.191577 276.000468 
L 120.293981 267.700945 
L 120.49879 237.209652 
L 120.806003 245.728107 
L 120.908407 270.925221 
L 121.010811 265.372302 
L 121.113216 234.801397 
L 121.21562 238.662566 
L 121.420428 233.487804 
L 121.625237 272.736387 
L 121.727641 263.441718 
L 121.830046 229.387799 
L 122.137259 237.149943 
L 122.239663 247.837818 
L 122.342067 274.806292 
L 122.444471 267.044149 
L 122.64928 232.532463 
L 122.751684 233.209162 
L 122.854089 236.254311 
L 122.956493 245.429563 
L 123.058897 273.452893 
L 123.161302 265.531526 
L 123.36611 227.775662 
L 123.468515 227.875176 
L 123.775727 272.577164 
L 123.878132 266.447061 
L 124.08294 235.080038 
L 124.287749 230.223723 
L 124.492558 272.61697 
L 124.902175 229.148964 
L 125.004579 227.735856 
L 125.106983 240.652859 
L 125.209388 270.1092 
L 125.311792 260.655307 
L 125.516601 227.198477 
L 125.619005 227.914982 
L 125.721409 231.039743 
L 125.823814 240.394121 
L 125.926218 269.213568 
L 126.028622 259.85919 
L 126.233431 228.392653 
L 126.335835 230.800908 
L 126.643048 270.905318 
L 126.745452 264.795117 
L 126.950261 232.233919 
L 127.052665 231.656734 
L 127.155069 235.318873 
L 127.257474 246.066457 
L 127.359878 271.960173 
L 127.462282 264.397059 
L 127.564687 228.770808 
L 127.667091 230.900422 
L 127.8719 237.965963 
L 128.076708 272.577164 
L 128.179113 262.307251 
L 128.281517 230.084402 
L 128.383921 233.706736 
L 128.486325 226.083912 
L 128.58873 230.124208 
L 128.793538 273.09464 
L 128.895943 265.173273 
L 129.203156 228.432459 
L 129.30556 231.318384 
L 129.510368 271.084444 
L 129.612773 260.496084 
L 129.817581 226.183427 
L 130.124794 252.793649 
L 130.227199 276.517945 
L 130.329603 266.228128 
L 130.534412 228.51207 
L 130.636816 223.496531 
L 130.73922 230.940228 
L 130.944029 275.881051 
L 131.046433 266.526672 
L 131.251242 229.208673 
L 131.45605 232.452851 
L 131.558455 243.359658 
L 131.660859 273.353378 
L 131.763263 271.064541 
L 131.968072 232.333433 
L 132.070476 230.044596 
L 132.17288 233.030036 
L 132.275285 243.817426 
L 132.377689 272.497552 
L 132.480093 265.033952 
L 132.684902 226.700903 
L 133.094519 275.74173 
L 133.196923 266.188322 
L 133.299328 238.941207 
L 133.401732 240.334413 
L 133.504136 237.448487 
L 133.606541 238.085381 
L 133.811349 274.308719 
L 133.913754 267.899975 
L 134.118562 239.259654 
L 134.220966 230.920325 
L 134.323371 238.125187 
L 134.528179 278.946103 
L 134.630584 274.746584 
L 134.835392 231.616928 
L 135.142605 250.066947 
L 135.24501 276.438333 
L 135.347414 270.1092 
L 135.449818 233.248968 
L 135.654627 242.085871 
L 135.757031 239.558198 
L 135.96184 278.627656 
L 136.064244 269.989783 
L 136.269053 239.558198 
L 136.473861 241.667909 
L 136.67867 277.23445 
L 136.781074 268.238325 
L 136.883478 242.881988 
L 136.985883 245.966943 
L 137.190691 240.11548 
L 137.3955 274.388331 
L 137.497904 269.671336 
L 137.600309 240.394121 
L 137.702713 243.77762 
L 137.805117 241.648006 
L 137.907521 243.91694 
L 138.009926 252.554813 
L 138.11233 275.60241 
L 138.214734 267.979586 
L 138.419543 233.089745 
L 138.624352 242.862085 
L 138.726756 253.669378 
L 138.82916 277.413577 
L 138.931565 268.755801 
L 139.136373 239.518392 
L 139.341182 239.120334 
L 139.443586 249.728597 
L 139.54599 273.930563 
L 139.648395 265.96939 
L 139.853203 239.060625 
L 139.955608 239.259654 
L 140.058012 241.588297 
L 140.160416 249.848014 
L 140.26282 275.244157 
L 140.365225 266.16842 
L 140.570033 233.209162 
L 140.672438 232.492657 
L 140.774842 233.030036 
L 140.979651 273.691728 
L 141.082055 267.820363 
L 141.286864 232.831007 
L 141.389268 236.413535 
L 141.491672 234.363533 
L 141.696481 277.353868 
L 141.798885 266.805313 
L 142.003694 234.363533 
L 142.106098 234.443144 
L 142.208502 237.348973 
L 142.413311 273.572311 
L 142.515715 269.412598 
L 142.720524 237.428584 
L 142.822928 235.597514 
L 142.925332 237.567905 
L 143.130141 273.850952 
L 143.232545 264.556282 
L 143.437354 232.552366 
L 143.539758 227.755759 
L 143.642163 232.910619 
L 143.744567 246.305292 
L 143.846971 275.562604 
L 143.949375 264.317447 
L 144.154184 229.925179 
L 144.256588 238.781984 
L 144.358993 233.149454 
L 144.563801 274.527651 
L 144.666206 264.6757 
L 144.871014 227.994594 
L 144.973418 225.486824 
L 145.075823 231.397996 
L 145.280631 272.577164 
L 145.690249 219.714974 
L 145.895057 241.648006 
L 145.997462 268.895121 
L 146.099866 258.84414 
L 146.20227 224.113522 
L 146.304674 224.531484 
L 146.407079 231.437801 
L 146.509483 223.377114 
L 146.714292 274.408234 
L 146.816696 261.292201 
L 146.9191 222.680511 
L 147.021505 226.760612 
L 147.123909 220.749926 
L 147.226313 224.113522 
L 147.431122 268.735898 
L 147.533526 253.231513 
L 147.738335 216.132446 
L 147.840739 220.5708 
L 148.147952 266.98444 
L 148.250356 253.092193 
L 148.455165 222.660608 
L 148.557569 220.073227 
L 148.762378 242.941697 
L 148.864782 265.471817 
L 148.967186 255.779089 
L 149.171995 225.904786 
L 149.376804 227.098962 
L 149.581612 269.611627 
L 149.786421 219.456236 
L 149.888825 220.351868 
L 150.093634 228.969838 
L 150.298442 271.4626 
L 150.503251 244.235387 
L 150.605655 247.758207 
L 150.70806 253.88831 
L 150.912868 276.139789 
L 151.015272 278.229597 
L 151.220081 258.286858 
L 151.322485 258.585402 
L 151.42489 260.894142 
L 151.629698 278.349015 
L 151.732103 277.672315 
L 151.834507 268.13881 
L 152.039315 243.897038 
L 152.244124 235.099941 
L 152.448933 267.482013 
L 152.551337 262.287348 
L 152.653741 229.765955 
L 152.756146 229.86547 
L 152.85855 229.109158 
L 152.960954 226.083912 
L 153.165763 271.80095 
L 153.268167 263.18298 
L 153.472976 225.029057 
L 153.57538 224.511581 
L 153.677784 229.328091 
L 153.882593 271.582017 
L 153.984997 261.192686 
L 154.189806 223.118375 
L 154.29221 222.859637 
L 154.394614 226.243136 
L 154.497019 239.140237 
L 154.599423 271.183959 
L 154.701827 264.13832 
L 154.906636 228.810614 
L 155.00904 229.268382 
L 155.111445 233.865959 
L 155.316253 276.8961 
L 155.418658 269.930074 
L 155.623466 233.766445 
L 155.72587 238.642663 
L 155.828275 235.219359 
L 155.930679 246.524225 
L 156.033083 272.796096 
L 156.135488 264.596088 
L 156.340296 225.626145 
L 156.647509 237.965963 
L 156.749913 269.014539 
L 156.852318 256.794138 
L 156.954722 224.71061 
L 157.057126 226.521777 
L 157.159531 227.158671 
L 157.261935 226.362554 
L 157.466744 268.497063 
L 157.569148 260.177637 
L 157.773957 224.630998 
L 157.978765 226.700903 
L 158.183574 270.666482 
L 158.285978 258.864043 
L 158.490787 222.262549 
L 158.695595 220.292159 
L 158.900404 266.228128 
L 159.002808 264.596088 
L 159.105212 222.222743 
L 159.207617 223.814978 
L 159.310021 220.371771 
L 159.412425 225.785368 
L 159.51483 238.383925 
L 159.617234 270.825706 
L 159.719638 260.476181 
L 159.822043 225.904786 
L 159.924447 230.243625 
L 160.026851 226.521777 
L 160.129256 235.97567 
L 160.334064 271.94027 
L 160.436468 266.128614 
L 160.641277 225.626145 
L 160.743681 223.277599 
L 160.846086 225.586339 
L 160.94849 237.149943 
L 161.050894 272.855805 
L 161.153299 263.780068 
L 161.358107 221.347014 
L 161.460511 215.177105 
L 161.562916 215.595067 
L 161.767724 266.267934 
L 161.870129 256.674721 
L 161.972533 218.640216 
L 162.074937 223.456725 
L 162.177342 221.108179 
L 162.279746 225.347504 
L 162.38215 236.413535 
L 162.484555 264.257738 
L 162.586959 257.331517 
L 162.791767 217.227107 
L 162.996576 221.366917 
L 163.201385 263.939291 
L 163.303789 252.73394 
L 163.406193 218.06303 
L 163.508598 221.904297 
L 163.611002 218.242157 
L 163.713406 219.097983 
L 163.918215 269.611627 
L 164.020619 263.999 
L 164.123023 226.54168 
L 164.225428 226.88003 
L 164.430236 234.701882 
L 164.635045 270.427647 
L 164.737449 259.04317 
L 164.942258 213.206715 
L 165.044662 213.087297 
L 165.147066 213.365938 
L 165.249471 229.805761 
L 165.351875 268.357742 
L 165.454279 260.217443 
L 165.556684 220.929053 
L 165.659088 222.40187 
L 165.761492 223.715463 
L 165.863897 217.266913 
L 165.966301 233.428095 
L 166.068705 269.133957 
L 166.171109 259.202393 
L 166.375918 214.062541 
L 166.580727 223.576143 
L 166.683131 237.985866 
L 166.785535 272.557261 
L 166.88794 259.003364 
L 167.092748 219.097983 
L 167.297557 222.262549 
L 167.399961 234.104794 
L 167.502365 267.064052 
L 167.60477 258.326664 
L 167.809578 210.738751 
L 168.014387 224.57129 
L 168.116791 229.885373 
L 168.219196 263.780068 
L 168.3216 256.515497 
L 168.424004 210.758654 
L 168.526408 212.748947 
L 168.628813 217.465942 
L 168.731217 212.350889 
L 168.936026 273.43299 
L 169.03843 256.933459 
L 169.243239 221.645558 
L 169.345643 223.058667 
L 169.448047 221.546044 
L 169.652856 271.303376 
L 169.75526 258.36647 
L 169.960069 217.864001 
L 170.062473 218.660118 
L 170.267282 244.772767 
L 170.369686 272.577164 
L 170.47209 264.078612 
L 170.676899 226.20333 
L 170.779303 231.35819 
L 170.881707 229.069352 
L 170.984112 242.742667 
L 171.086516 272.656776 
L 171.18892 260.297054 
L 171.393729 221.625655 
L 171.700942 239.518392 
L 171.803346 272.597067 
L 171.905751 264.198029 
L 172.008155 223.695561 
L 172.110559 225.765466 
L 172.212963 224.810125 
L 172.315368 222.242646 
L 172.520176 271.4626 
L 172.622581 262.685406 
L 172.827389 222.700414 
L 172.929794 219.157692 
L 173.134602 244.613543 
L 173.237007 270.009686 
L 173.339411 261.929095 
L 173.544219 229.586829 
L 173.646624 230.144111 
L 173.749028 224.471775 
L 173.953837 276.119886 
L 174.056241 267.004343 
L 174.158645 227.795565 
L 174.26105 229.566926 
L 174.363454 228.591682 
L 174.465858 231.577122 
L 174.670667 275.283963 
L 174.773071 267.342693 
L 174.97788 224.909639 
L 175.080284 223.775172 
L 175.182688 229.18877 
L 175.387497 265.650943 
L 175.489901 262.446571 
L 175.69471 226.501874 
L 175.797114 226.700903 
L 175.899518 224.193134 
L 176.104327 262.565989 
L 176.206731 252.455299 
L 176.309136 219.953809 
L 176.41154 234.721785 
L 176.616349 224.272746 
L 176.718753 235.876156 
L 176.821157 266.248031 
L 177.12837 219.814489 
L 177.230774 214.918367 
L 177.333179 215.654776 
L 177.537987 260.754822 
L 177.640392 248.514518 
L 177.742796 217.406234 
L 177.8452 218.162545 
L 178.050009 226.939739 
L 178.152413 237.567905 
L 178.254817 261.053366 
L 178.357222 251.818405 
L 178.56203 216.848952 
L 178.664435 213.982929 
L 178.766839 216.709631 
L 178.971648 265.014049 
L 179.381265 210.440207 
L 179.483669 212.410598 
L 179.688478 263.680553 
L 179.790882 255.878603 
L 179.995691 210.778557 
L 180.098095 214.858658 
L 180.302904 234.8213 
L 180.405308 266.148517 
L 180.507712 256.05773 
L 180.712521 212.390695 
L 180.814925 216.669825 
L 180.917329 211.793607 
L 181.122138 258.784431 
L 181.224542 249.250926 
L 181.429351 207.116417 
L 181.736564 232.353336 
L 181.838968 263.760165 
L 181.941372 249.509665 
L 182.043777 209.723702 
L 182.146181 218.719827 
L 182.248585 210.400401 
L 182.35099 214.440697 
L 182.555798 264.6757 
L 182.760607 218.06303 
L 182.863011 221.506238 
L 182.965415 211.654286 
L 183.06782 217.645069 
L 183.272628 258.784431 
L 183.477437 209.882925 
L 183.579841 210.619334 
L 183.682246 208.469817 
L 183.78465 201.463984 
L 183.989458 260.834434 
L 184.296671 203.215442 
L 184.399076 203.81253 
L 184.50148 190.318342 
L 184.706289 242.523735 
L 184.808693 182.496489 
L 184.911097 188.26834 
L 185.013502 178.436291 
L 185.115906 136.679937 
L 185.525523 246.006748 
L 185.627927 210.101857 
L 185.730332 212.092151 
L 185.832736 212.868365 
L 185.93514 216.052834 
L 186.139949 262.287348 
L 186.242353 246.822769 
L 186.344757 204.389716 
L 186.447162 209.524672 
L 186.549566 208.469817 
L 186.65197 213.1072 
L 186.856779 266.546575 
L 187.163992 218.321769 
L 187.266396 215.75429 
L 187.368801 217.92371 
L 187.573609 267.024246 
L 187.778418 221.04847 
L 187.880822 231.49751 
L 187.983226 231.975181 
L 188.188035 262.625697 
L 188.290439 273.174252 
L 188.495248 254.724233 
L 188.700056 247.598983 
L 189.007269 274.666972 
L 189.109674 270.805803 
L 189.314482 237.428584 
L 189.519291 233.587318 
L 189.7241 267.263081 
L 190.133717 212.390695 
L 190.236121 214.26157 
L 190.44093 261.968901 
L 190.748143 216.669825 
L 190.850547 219.794586 
L 190.952951 224.869834 
L 191.15776 265.83007 
L 191.260164 255.122292 
L 191.464973 224.770319 
L 191.87459 273.532505 
L 191.976994 265.15337 
L 192.181803 228.0344 
L 192.489016 240.812083 
L 192.59142 271.363085 
L 192.693824 258.187343 
L 192.898633 218.023225 
L 193.001037 218.699924 
L 193.103442 210.758654 
L 193.30825 267.103857 
L 193.717867 210.022246 
L 193.820272 211.61448 
L 194.02508 262.187833 
L 194.332293 214.480503 
L 194.434698 215.037785 
L 194.537102 218.421283 
L 194.74191 266.606284 
L 195.151528 213.147006 
L 195.253932 211.037295 
L 195.458741 262.068415 
L 195.561145 246.842672 
L 195.765953 205.882435 
L 195.868358 204.15088 
L 195.970762 208.310593 
L 196.175571 262.685406 
L 196.277975 248.295586 
L 196.380379 201.185343 
L 196.482784 204.250395 
L 196.585188 208.310593 
L 196.687592 207.594088 
L 196.892401 258.903849 
L 196.994805 244.474223 
L 197.199614 198.956215 
L 197.302018 198.37903 
L 197.404422 202.837287 
L 197.609231 255.420836 
L 197.711635 241.747521 
L 197.916444 201.483887 
L 198.018848 196.68728 
L 198.223657 220.789732 
L 198.326061 259.262102 
L 198.428465 250.863064 
L 198.633274 210.380498 
L 198.735678 200.34942 
L 198.838083 207.693602 
L 199.042891 263.123271 
L 199.452508 197.36398 
L 199.554913 211.395548 
L 199.759721 263.382009 
L 200.169339 199.015924 
L 200.271743 201.722722 
L 200.476551 259.938802 
L 200.578956 242.822279 
L 200.783764 201.663014 
L 200.886169 191.751353 
L 201.193382 263.441718 
L 201.295786 257.530547 
L 201.602999 201.284858 
L 201.705403 208.589234 
L 201.910212 258.804334 
L 202.012616 248.892674 
L 202.11502 203.872239 
L 202.217425 207.016903 
L 202.422233 193.22417 
L 202.627042 260.575695 
L 202.729446 248.992188 
L 202.83185 197.622718 
L 202.934255 204.15088 
L 203.036659 200.309614 
L 203.139063 202.140684 
L 203.343872 265.29269 
L 203.651085 195.453299 
L 203.753489 197.582912 
L 203.958298 224.909639 
L 204.060702 264.018903 
L 204.163106 260.376666 
L 204.470319 207.47467 
L 204.572724 203.991657 
L 204.777532 266.148517 
L 204.879937 253.052387 
L 205.084745 205.822727 
L 205.289554 201.70282 
L 205.494362 266.725702 
L 205.596767 248.076653 
L 205.699171 202.916898 
L 205.801575 205.822727 
L 206.006384 209.624187 
L 206.211193 265.929584 
L 206.313597 249.987335 
L 206.518405 206.340203 
L 206.62081 212.112054 
L 206.723214 204.34991 
L 206.928023 268.317936 
L 207.030427 254.70433 
L 207.235236 208.370302 
L 207.440044 204.648454 
L 207.644853 267.004343 
L 208.05447 207.673699 
L 208.156874 212.271277 
L 208.361683 265.710652 
L 208.464087 250.962579 
L 208.668896 204.270298 
L 208.7713 210.101857 
L 208.873704 208.668846 
L 209.078513 261.252395 
L 209.48813 203.215442 
L 209.692939 225.287795 
L 209.795343 262.327153 
L 209.897748 253.908213 
L 210.102556 211.514966 
L 210.20496 214.59992 
L 210.307365 210.499916 
L 210.512173 251.71889 
L 210.614578 250.445102 
L 210.716982 214.838755 
L 210.819386 215.396037 
L 210.921791 214.878561 
L 211.024195 218.879051 
L 211.126599 231.49751 
L 211.229003 268.596577 
L 211.331408 257.928605 
L 211.433812 220.590703 
L 211.536216 221.526141 
L 211.638621 211.355742 
L 211.843429 232.492657 
L 211.945834 265.451914 
L 212.048238 256.993167 
L 212.253047 224.949445 
L 212.355451 219.456236 
L 212.457855 220.789732 
L 212.662664 257.68977 
L 212.765068 255.978118 
L 212.969877 217.465942 
L 213.072281 212.569821 
L 213.174685 217.92371 
L 213.379494 257.052876 
L 213.481898 251.818405 
L 213.584302 218.122739 
L 213.686707 219.953809 
L 213.789111 214.779047 
L 213.891515 217.406234 
L 214.096324 265.332496 
L 214.505941 203.752822 
L 214.71075 234.00528 
L 214.813154 264.695603 
L 214.915558 249.290732 
L 215.120367 211.873218 
L 215.325176 204.986804 
L 215.529984 257.669867 
L 215.632389 249.031994 
L 215.837197 203.056219 
L 215.939601 208.947487 
L 216.042006 204.708162 
L 216.246814 257.271808 
L 216.349219 247.419857 
L 216.554027 209.44506 
L 216.656432 208.430011 
L 216.758836 202.65816 
L 216.963645 263.620844 
L 217.066049 260.595598 
L 217.270857 228.293138 
L 217.475666 230.164014 
L 217.57807 235.279068 
L 217.680475 261.073269 
L 217.782879 247.141216 
L 217.987688 204.529036 
L 218.090092 189.203778 
L 218.2949 226.402359 
L 218.397305 260.834434 
L 218.704518 191.492615 
L 218.806922 198.478544 
L 218.909326 201.304761 
L 219.114135 259.162587 
L 219.216539 245.966943 
L 219.318944 200.448935 
L 219.421348 202.51884 
L 219.523752 209.086808 
L 219.626156 198.737283 
L 219.830965 260.754822 
L 219.933369 241.508686 
L 220.138178 198.876603 
L 220.240582 206.579038 
L 220.342987 203.255248 
L 220.445391 220.013518 
L 220.547795 258.70482 
L 220.752604 197.881456 
L 220.855008 199.175147 
L 220.957412 199.812041 
L 221.059817 191.612033 
L 221.264625 254.863554 
L 221.36703 240.354315 
L 221.571838 198.478544 
L 221.674243 196.090192 
L 221.776647 190.139215 
L 221.981455 252.39559 
L 222.288668 196.408639 
L 222.391073 198.896506 
L 222.595881 230.562072 
L 222.698286 256.376177 
L 222.80069 237.169846 
L 222.903094 193.70184 
L 223.005498 196.388736 
L 223.210307 191.910577 
L 223.415116 256.893653 
L 223.722329 192.169315 
L 223.824733 194.756696 
L 223.927137 207.215932 
L 224.131946 257.291711 
L 224.23435 245.449466 
L 224.439159 197.264465 
L 224.643967 205.703309 
L 224.848776 259.301908 
L 225.053585 206.300397 
L 225.155989 208.171273 
L 225.258393 211.355742 
L 225.360797 221.625655 
L 225.565606 266.964537 
L 225.975223 236.632467 
L 226.180032 253.987825 
L 226.384841 271.900464 
L 226.794458 221.426626 
L 226.999266 259.779578 
L 227.306479 202.080975 
L 227.408884 208.589234 
L 227.511288 205.086318 
L 227.818501 241.648006 
L 228.023309 205.146027 
L 228.228118 194.259123 
L 228.330522 214.958173 
L 228.432927 258.247052 
L 228.535331 242.006259 
L 228.637735 197.403786 
L 228.74014 199.891653 
L 228.842544 196.926116 
L 228.944948 200.846993 
L 229.149757 257.888799 
L 229.45697 198.418836 
L 229.661778 205.98195 
L 229.866587 259.242199 
L 229.968991 245.170825 
L 230.1738 206.280494 
L 230.276204 207.693602 
L 230.378608 213.326132 
L 230.583417 253.569863 
L 230.685821 249.867917 
L 230.788226 219.973712 
L 230.993034 231.039743 
L 231.197843 235.478097 
L 231.300247 266.049002 
L 231.402651 262.665503 
L 231.60746 226.183427 
L 231.709864 219.257206 
L 231.812269 220.670315 
L 231.914673 232.811104 
L 232.017077 259.023267 
L 232.32429 203.772725 
L 232.631503 233.408192 
L 232.733907 255.978118 
L 232.836312 239.060625 
L 232.938716 202.061072 
L 233.04112 202.439228 
L 233.143525 197.543107 
L 233.245929 200.846993 
L 233.450738 256.415982 
L 233.553142 246.42471 
L 233.75795 200.2101 
L 233.860355 195.413493 
L 233.962759 197.941165 
L 234.167568 254.186854 
L 234.269972 238.48344 
L 234.474781 194.597472 
L 234.577185 198.199903 
L 234.679589 193.323685 
L 234.884398 241.906744 
L 234.986802 241.787327 
L 235.191611 191.293586 
L 235.396419 201.006217 
L 235.601228 254.883457 
L 235.703632 247.57908 
L 235.908441 199.851847 
L 236.318058 244.195582 
L 236.420462 228.7111 
L 236.522867 184.506685 
L 236.625271 187.790669 
L 236.83008 197.781942 
L 237.034888 255.500447 
L 237.137292 238.702372 
L 237.342101 189.124166 
L 237.444505 187.910087 
L 237.54691 193.920773 
L 237.751718 251.619376 
L 237.854123 240.772277 
L 237.956527 185.919794 
L 238.161336 196.607669 
L 238.26374 193.22417 
L 238.468548 254.883457 
L 238.570953 253.131998 
L 238.775761 218.958662 
L 238.878166 197.961068 
L 238.98057 202.399422 
L 239.082974 218.799439 
L 239.185379 253.948019 
L 239.287783 241.986356 
L 239.492591 199.593109 
L 239.594996 189.064457 
L 239.902209 242.901891 
L 240.004613 238.403828 
L 240.107017 189.044554 
L 240.209422 189.800866 
L 240.41423 196.607669 
L 240.619039 258.645111 
L 241.028656 192.388247 
L 241.13106 201.483887 
L 241.335869 251.71889 
L 241.438273 240.752374 
L 241.643082 195.672231 
L 241.745486 193.781452 
L 241.847891 200.269808 
L 242.052699 257.510644 
L 242.257508 195.930969 
L 242.359912 196.408639 
L 242.462316 200.628061 
L 242.564721 198.37903 
L 242.769529 261.451424 
L 242.871934 246.265487 
L 243.076742 196.329028 
L 243.179146 193.920773 
L 243.281551 203.235345 
L 243.486359 263.600941 
L 243.588764 258.485887 
L 243.793572 203.096025 
L 243.895977 201.822237 
L 243.998381 204.34991 
L 244.20319 258.943655 
L 244.305594 243.479076 
L 244.510402 198.18 
L 244.612807 198.697477 
L 244.715211 205.583891 
L 244.92002 253.251416 
L 245.022424 250.484908 
L 245.227233 213.545065 
L 245.329637 222.182938 
L 245.432041 211.156713 
L 245.63685 261.610648 
L 245.739254 248.136362 
L 245.944063 209.365449 
L 246.046467 211.037295 
L 246.251276 227.457215 
L 246.35368 257.271808 
L 246.456084 247.738304 
L 246.660893 205.424668 
L 246.865701 210.081954 
L 247.07051 255.04268 
L 247.172914 247.479565 
L 247.275319 203.772725 
L 247.377723 206.499426 
L 247.480127 202.737772 
L 247.582532 207.912535 
L 247.78734 259.620355 
L 247.889744 248.156265 
L 248.094553 202.021266 
L 248.196957 206.539232 
L 248.401766 237.189749 
L 248.50417 259.938802 
L 248.606575 252.116949 
L 248.811383 209.723702 
L 248.913788 208.867875 
L 249.016192 210.917878 
L 249.221 256.05773 
L 249.323405 252.136852 
L 249.528213 214.619823 
L 249.630618 214.898464 
L 249.733022 217.724681 
L 249.937831 253.171804 
L 250.040235 246.882477 
L 250.245043 214.062541 
L 250.347448 210.619334 
L 250.449852 218.102836 
L 250.654661 259.102878 
L 250.757065 244.872281 
L 250.961874 208.768361 
L 251.064278 201.324664 
L 251.269087 225.009154 
L 251.371491 257.530547 
L 251.781108 194.418346 
L 251.883512 199.5334 
L 252.088321 252.375687 
L 252.190725 243.021308 
L 252.395534 195.771746 
L 252.497938 203.67321 
L 252.600342 195.19456 
L 252.805151 252.236366 
L 252.907555 241.309656 
L 253.00996 200.667867 
L 253.112364 201.384373 
L 253.214768 198.498447 
L 253.317173 201.264955 
L 253.521981 258.883946 
L 253.624386 252.714037 
L 253.829194 204.82758 
L 253.931598 195.592619 
L 254.136407 213.744094 
L 254.341216 249.947529 
L 254.44362 220.451382 
L 254.546024 222.003811 
L 254.648429 212.569821 
L 254.750833 217.426137 
L 254.955641 252.077143 
L 255.058046 239.936354 
L 255.262854 192.428053 
L 255.365259 192.089703 
L 255.467663 200.090682 
L 255.672472 251.440249 
L 255.979685 194.57757 
L 256.082089 198.020777 
L 256.184493 194.497958 
L 256.389302 248.653839 
L 256.696515 185.203288 
L 256.901323 196.946019 
L 257.003728 211.753801 
L 257.106132 242.862085 
L 257.208536 234.980524 
L 257.31094 187.213484 
L 257.413345 195.274172 
L 257.515749 192.308635 
L 257.720558 217.406234 
L 257.822962 241.747521 
L 257.925366 224.630998 
L 258.027771 182.138236 
L 258.334984 191.572227 
L 258.539792 247.817915 
L 258.847005 186.855232 
L 258.949409 193.124655 
L 259.051814 183.551345 
L 259.256622 246.504322 
L 259.359027 230.601878 
L 259.461431 186.417367 
L 259.563835 187.870281 
L 259.768644 197.045533 
L 259.973452 246.146069 
L 260.280665 186.118823 
L 260.485474 190.09941 
L 260.690283 250.584423 
L 260.895091 183.969306 
L 260.997495 188.586787 
L 261.202304 177.859106 
L 261.407113 245.94704 
L 261.611921 193.681938 
L 261.714326 195.990678 
L 261.81673 187.770766 
L 262.021538 208.031952 
L 262.123943 250.166461 
L 262.328751 192.846014 
L 262.431156 192.88582 
L 262.635964 202.916898 
L 262.840773 252.913066 
L 263.045582 235.418388 
L 263.147986 238.443634 
L 263.352794 227.098962 
L 263.660007 258.306761 
L 263.762412 262.068415 
L 264.069625 210.897975 
L 264.172029 213.624676 
L 264.274433 231.776151 
L 264.376837 230.164014 
L 264.581646 181.660566 
L 264.68405 177.839203 
L 264.786455 183.332412 
L 264.991263 239.598004 
L 265.298476 182.874645 
L 265.400881 184.685812 
L 265.503285 177.242115 
L 265.708093 240.274704 
L 266.015306 177.879009 
L 266.117711 180.605711 
L 266.220115 189.004748 
L 266.424924 247.897527 
L 266.527328 232.154307 
L 266.732136 197.861553 
L 266.834541 201.384373 
L 267.039349 229.885373 
L 267.141754 260.715016 
L 267.244158 255.182001 
L 267.448967 218.242157 
L 267.551371 218.978565 
L 267.653775 212.072248 
L 267.858584 261.988804 
L 267.960988 248.036848 
L 268.165797 202.697966 
L 268.268201 204.708162 
L 268.370605 191.273683 
L 268.47301 205.902338 
L 268.575414 249.529568 
L 268.985031 181.342119 
L 269.087435 176.107648 
L 269.292244 238.005769 
L 269.394648 225.705757 
L 269.497053 174.117354 
L 269.599457 174.455704 
L 269.701861 171.868323 
L 269.804266 180.028526 
L 270.009074 242.145579 
L 270.111479 222.799929 
L 270.316287 172.286285 
L 270.418691 172.962984 
L 270.521096 177.759591 
L 270.725904 237.289264 
L 270.828309 227.337797 
L 271.033117 171.987741 
L 271.135522 167.947445 
L 271.237926 179.112991 
L 271.442734 231.039743 
L 271.545139 225.148475 
L 271.749947 160.623166 
L 272.05716 199.991167 
L 272.159565 235.259165 
L 272.261969 225.785368 
L 272.466778 171.888226 
L 272.569182 172.027546 
L 272.671586 163.767829 
L 272.876395 236.075185 
L 272.978799 215.654776 
L 273.183608 164.424626 
L 273.286012 165.937249 
L 273.593225 246.603836 
L 274.002842 161.857148 
L 274.105246 165.161035 
L 274.310055 227.815468 
L 274.412459 217.207204 
L 274.617268 154.930927 
L 274.924481 215.41594 
L 275.026885 235.716932 
L 275.231694 195.831454 
L 275.436502 176.645027 
L 275.538907 177.879009 
L 275.743715 233.706736 
L 275.84612 220.113033 
L 275.948524 180.068331 
L 276.050928 192.40815 
L 276.153333 218.560604 
L 276.255737 200.628061 
L 276.460545 238.762081 
L 276.767758 173.759102 
L 276.870163 177.441144 
L 276.972567 176.445998 
L 277.177376 236.513049 
L 277.27978 221.347014 
L 277.484588 168.584339 
L 277.689397 173.201819 
L 277.894206 237.647517 
L 277.99661 226.223233 
L 278.201419 172.306188 
L 278.303823 171.430458 
L 278.406227 171.888226 
L 278.611036 240.195092 
L 278.71344 229.726149 
L 278.918249 178.336776 
L 279.123057 192.0698 
L 279.327866 241.13053 
L 279.43027 229.805761 
L 279.532675 182.118333 
L 279.635079 184.745521 
L 279.737483 181.222701 
L 280.044696 245.688301 
L 280.1471 235.776641 
L 280.351909 182.197945 
L 280.454313 187.472222 
L 280.556718 181.799887 
L 280.761526 244.354805 
L 281.068739 183.312509 
L 281.171143 185.203288 
L 281.273548 190.656692 
L 281.478356 237.946061 
L 281.580761 226.601389 
L 281.785569 180.426584 
L 281.887974 183.193092 
L 281.990378 189.263486 
L 282.195186 237.508196 
L 282.297591 228.074206 
L 282.502399 183.690665 
L 282.604804 185.501832 
L 282.912017 243.737814 
L 283.014421 225.287795 
L 283.116825 176.32658 
L 283.21923 182.357169 
L 283.321634 181.003769 
L 283.424038 188.367854 
L 283.628847 231.855763 
L 283.731251 221.128082 
L 283.93606 177.779494 
L 284.038464 177.00328 
L 284.140868 182.675616 
L 284.345677 232.51256 
L 284.448081 221.307209 
L 284.65289 171.967838 
L 284.755294 173.659587 
L 284.857698 179.929011 
L 285.062507 236.274214 
L 285.164911 228.233429 
L 285.36972 182.516392 
L 285.472124 184.208141 
L 285.574529 193.681938 
L 285.779337 246.006748 
L 285.881741 231.079549 
L 286.08655 193.662035 
L 286.188954 194.478055 
L 286.291359 190.358148 
L 286.496167 244.673252 
L 286.598572 238.125187 
L 286.80338 197.841651 
L 287.110593 219.914003 
L 287.212997 247.857721 
L 287.315402 233.428095 
L 287.52021 189.701351 
L 287.622615 184.646006 
L 287.725019 190.119313 
L 287.929828 256.654818 
L 288.032232 215.595067 
L 288.134636 243.021308 
L 288.23704 231.517413 
L 288.544253 177.1426 
L 288.749062 205.802824 
L 288.851466 239.797033 
L 289.261083 180.207652 
L 289.568296 246.703351 
L 289.977914 165.618802 
L 290.080318 171.51007 
L 290.285127 232.373239 
L 290.387531 216.649922 
L 290.592339 175.012986 
L 290.797148 177.759591 
L 291.001957 233.965474 
L 291.104361 227.01935 
L 291.206765 209.285837 
L 291.30917 210.440207 
L 291.411574 206.519329 
L 291.513978 208.549429 
L 291.616382 213.186812 
L 291.718787 242.583444 
L 291.821191 232.333433 
L 292.026 175.112501 
L 292.128404 176.127551 
L 292.230808 178.476097 
L 292.333213 196.707183 
L 292.435617 236.134894 
L 292.538021 222.899443 
L 292.74283 167.429969 
L 292.845234 175.012986 
L 292.947638 173.699393 
L 293.152447 223.735366 
L 293.254851 211.674189 
L 293.45966 172.724149 
L 293.562064 165.87754 
L 293.664469 170.156671 
L 293.869277 229.288285 
L 293.971681 220.5708 
L 294.17649 166.733366 
L 294.278894 174.634831 
L 294.381299 173.540169 
L 294.586107 234.283921 
L 294.89332 164.345014 
L 294.995725 165.001811 
L 295.098129 162.951809 
L 295.302937 220.610606 
L 295.405342 213.147006 
L 295.61015 162.75278 
L 295.712555 163.409576 
L 295.814959 165.439676 
L 296.019768 229.925179 
L 296.224576 166.21589 
L 296.32698 170.992594 
L 296.531789 166.454725 
L 296.736598 232.17421 
L 296.839002 214.420794 
L 297.043811 160.563457 
L 297.248619 174.117354 
L 297.453428 232.890716 
L 297.555832 208.469817 
L 297.658236 155.070248 
L 297.760641 158.354231 
L 297.863045 156.841609 
L 297.965449 165.87754 
L 298.170258 229.387799 
L 298.579875 144.700819 
L 298.784684 197.801845 
L 298.887088 230.382946 
L 298.989492 211.61448 
L 299.091897 168.504727 
L 299.194301 168.604242 
L 299.296705 179.471243 
L 299.39911 174.993083 
L 299.603918 229.547023 
L 299.808727 196.468348 
L 300.013535 209.683896 
L 300.11594 200.787285 
L 300.320748 225.944592 
L 300.525557 203.474181 
L 300.627961 239.279557 
L 300.83277 195.095046 
L 301.037578 220.670315 
L 301.139983 209.843119 
L 301.344791 151.527525 
L 301.5496 164.345014 
L 301.754409 227.875176 
L 301.856813 210.12176 
L 302.061622 167.489678 
L 302.164026 167.410066 
L 302.26643 173.918325 
L 302.471239 231.238772 
L 302.573643 224.511581 
L 302.676047 193.482908 
L 302.880856 209.663993 
L 302.98326 216.649922 
L 303.188069 263.561135 
L 303.290473 249.648985 
L 303.495282 203.832433 
L 303.70009 187.332902 
L 303.904899 230.303334 
L 304.007303 222.481482 
L 304.109708 175.908618 
L 304.212112 178.137747 
L 304.314516 172.166867 
L 304.416921 174.35619 
L 304.519325 188.666398 
L 304.621729 223.834881 
L 304.724133 211.13681 
L 304.928942 166.375113 
L 305.031346 162.653265 
L 305.236155 220.411577 
L 305.338559 135.565373 
L 305.440964 139.625572 
L 305.645772 206.180979 
L 305.748176 199.951361 
L 305.952985 133.09741 
L 306.157794 148.382862 
L 306.362602 199.334371 
L 306.465007 194.796502 
L 306.669815 151.049855 
L 306.77222 149.636747 
L 306.874624 157.796949 
L 307.079432 200.608158 
L 307.181837 188.168825 
L 307.386645 143.048876 
L 307.48905 136.69984 
L 307.591454 140.103242 
L 307.796263 196.229513 
L 307.898667 181.28241 
L 308.001071 140.342077 
L 308.103476 141.775088 
L 308.20588 134.490615 
L 308.308284 143.606158 
L 308.513093 199.175147 
L 308.615497 190.676595 
L 308.820306 136.480908 
L 308.92271 134.3911 
L 309.025114 143.486741 
L 309.229923 188.646496 
L 309.332327 178.655223 
L 309.537136 130.310999 
L 309.63954 130.868281 
L 309.844349 151.447914 
L 309.946753 181.95911 
L 310.35637 116.040596 
L 310.458775 115.960984 
L 310.663583 181.342119 
L 310.868392 113.532826 
L 310.970796 114.50807 
L 311.0732 118.64788 
L 311.175605 137.197414 
L 311.380413 188.666398 
L 311.482818 174.933375 
L 311.687626 127.106627 
L 311.79003 112.139621 
L 311.892435 115.244479 
L 311.994839 131.226534 
L 312.097243 176.087745 
L 312.199648 170.01735 
L 312.404456 116.995937 
L 312.506861 116.219722 
L 312.609265 107.880393 
L 312.814074 183.412024 
L 312.916478 169.599389 
L 313.018882 115.025546 
L 313.121286 115.224576 
L 313.428499 151.029952 
L 313.530904 191.771256 
L 313.838117 132.918283 
L 314.042925 137.635278 
L 314.247734 196.528057 
L 314.350138 180.46639 
L 314.554947 133.7144 
L 314.657351 129.713911 
L 314.759755 135.386247 
L 314.964564 200.727576 
L 315.066968 179.511049 
L 315.169373 126.648859 
L 315.271777 134.3911 
L 315.374181 128.539638 
L 315.476585 135.903723 
L 315.681394 192.666888 
L 315.783798 187.213484 
L 315.988607 140.103242 
L 316.193416 141.715379 
L 316.398224 204.310104 
L 316.603033 144.143537 
L 316.705437 151.268787 
L 316.807841 166.992104 
L 316.910246 166.21589 
L 317.115054 198.219806 
L 317.217459 183.710568 
L 317.422267 142.571206 
L 317.627076 149.676553 
L 317.831884 212.609627 
L 317.934289 190.776109 
L 318.036693 142.551303 
L 318.139097 145.098878 
L 318.343906 142.033826 
L 318.548715 205.424668 
L 318.651119 191.134362 
L 318.855927 147.785774 
L 318.958332 143.526546 
L 319.060736 148.561988 
L 319.265545 203.912045 
L 319.367949 192.368344 
L 319.572758 146.113928 
L 319.675162 150.154223 
L 319.777566 145.596451 
L 319.982375 211.296033 
L 320.084779 195.552813 
L 320.289588 148.183833 
L 320.391992 156.125103 
L 320.494396 154.035295 
L 320.699205 215.057688 
L 321.006418 158.851805 
L 321.108822 160.483845 
L 321.211226 160.862001 
L 321.416035 219.8941 
L 321.723248 161.100836 
L 321.825652 161.140642 
L 321.928057 156.44355 
L 322.132865 217.963516 
L 322.23527 201.901849 
L 322.337674 165.578996 
L 322.440078 166.056667 
L 322.542482 161.877051 
L 322.644887 165.260549 
L 322.849695 217.625166 
L 323.054504 163.728023 
L 323.259313 164.962005 
L 323.361717 168.942592 
L 323.566525 218.222254 
L 323.66893 205.782921 
L 323.771334 167.37026 
L 323.873738 173.918325 
L 323.976143 158.314426 
L 324.078547 164.862491 
L 324.283356 223.018861 
L 324.590569 158.433843 
L 324.692973 166.036764 
L 324.795377 164.38482 
L 325.000186 215.137299 
L 325.10259 200.448935 
L 325.307399 154.61248 
L 325.512207 160.225107 
L 325.717016 230.402849 
L 325.921824 157.100347 
L 326.024229 161.837245 
L 326.229037 148.681406 
L 326.433846 206.917388 
L 326.53625 191.552324 
L 326.638655 157.359085 
L 326.741059 165.101326 
L 326.945868 201.324664 
L 327.048272 204.529036 
L 327.150676 230.044596 
L 327.25308 213.405744 
L 327.457889 163.668315 
L 327.560293 156.005685 
L 327.662698 156.125103 
L 327.867506 203.474181 
L 327.969911 186.696008 
L 328.072315 141.994021 
L 328.174719 145.138684 
L 328.379528 137.495958 
L 328.584336 208.62904 
L 328.891549 132.75906 
L 328.993954 137.85421 
L 329.096358 140.501301 
L 329.301167 198.37903 
L 329.710784 140.143048 
L 329.813188 139.327028 
L 330.017997 209.44506 
L 330.222805 144.879946 
L 330.32521 142.272662 
L 330.427614 133.7144 
L 330.530018 135.625082 
L 330.734827 213.963026 
L 330.939635 139.665377 
L 331.04204 143.088682 
L 331.144444 141.058583 
L 331.246848 145.397422 
L 331.451657 208.350399 
L 331.656466 133.495468 
L 331.75887 140.262465 
L 331.861274 125.673615 
L 331.963678 140.103242 
L 332.168487 202.001364 
L 332.4757 139.864407 
L 332.578104 146.412472 
L 332.680509 141.237709 
L 332.885317 203.772725 
L 333.090126 130.609543 
L 333.19253 132.181875 
L 333.294934 139.386736 
L 333.397339 133.91343 
L 333.602147 198.836797 
L 333.90936 130.171678 
L 334.011765 130.92799 
L 334.114169 143.844993 
L 334.318977 205.822727 
L 334.523786 144.959558 
L 334.62619 150.930437 
L 334.728595 144.481887 
L 334.830999 147.109074 
L 335.035808 207.375155 
L 335.240616 156.483356 
L 335.34302 160.424137 
L 335.445425 169.400359 
L 335.650233 225.18828 
L 335.752638 217.983419 
L 335.957446 173.540169 
L 336.059851 175.391142 
L 336.162255 183.312509 
L 336.264659 240.871792 
L 336.469468 221.008665 
L 336.776681 155.985782 
L 336.879085 155.28918 
L 336.981489 147.328007 
L 337.186298 200.926605 
L 337.391107 135.784305 
L 337.493511 141.277515 
L 337.595915 128.659055 
L 337.698319 137.416346 
L 337.903128 190.119313 
L 338.107937 133.475565 
L 338.312745 137.794502 
L 338.41515 126.429927 
L 338.619958 192.865917 
L 338.722363 173.460558 
L 338.824767 131.127019 
L 338.927171 135.306635 
L 339.029575 133.654692 
L 339.13198 127.405171 
L 339.336788 195.612522 
L 339.644001 132.918283 
L 339.746406 142.949361 
L 339.84881 142.053729 
L 339.951214 155.96588 
L 340.053618 197.244563 
L 340.156023 183.511539 
L 340.258427 150.771214 
L 340.463236 188.308146 
L 340.770449 230.68149 
L 341.28247 145.138684 
L 341.384874 158.991125 
L 341.487279 253.251416 
L 341.589683 235.318873 
L 341.794492 122.071185 
L 341.896896 118.150307 
L 341.9993 129.037211 
L 342.204109 194.020287 
L 342.306513 171.529973 
L 342.511322 116.577975 
L 342.613726 117.772151 
L 342.920939 190.537274 
L 343.228152 110.84593 
L 343.330556 106.447382 
L 343.432961 111.204183 
L 343.637769 187.750864 
L 343.740173 162.434333 
L 343.842578 96.436207 
L 343.944982 99.939123 
L 344.047386 87.738625 
L 344.354599 180.983866 
L 344.764217 99.401744 
L 344.969025 147.467327 
L 345.071429 196.269319 
L 345.276238 117.413898 
L 345.378642 119.364386 
L 345.481047 117.274578 
L 345.583451 134.311488 
L 345.78826 208.808167 
L 345.890664 197.941165 
L 346.197877 99.620676 
L 346.300281 97.849315 
L 346.50509 187.372708 
L 346.709898 95.560478 
L 346.812303 97.769703 
L 347.017111 109.114375 
L 347.22192 176.784347 
L 347.324324 158.792096 
L 347.529133 107.362917 
L 347.733941 238.941207 
L 347.93875 133.694497 
L 348.143559 142.611011 
L 348.348367 206.180979 
L 348.553176 133.057604 
L 348.65558 136.580423 
L 348.757984 141.775088 
L 348.860389 130.987699 
L 349.065197 213.545065 
L 349.37241 139.486251 
L 349.474815 141.615865 
L 349.577219 135.0678 
L 349.782027 201.722722 
L 349.884432 186.118823 
L 350.08924 131.465369 
L 350.294049 139.526057 
L 350.498858 203.633404 
L 350.601262 185.541638 
L 350.80607 132.639642 
L 350.908475 134.948382 
L 351.010879 125.832839 
L 351.215688 199.692623 
L 351.420496 136.958579 
L 351.522901 138.491104 
L 351.625305 143.267808 
L 351.727709 142.750332 
L 351.932518 198.916409 
L 352.034922 183.431927 
L 352.137326 138.650328 
L 352.239731 139.247416 
L 352.342135 142.093535 
L 352.444539 133.415856 
L 352.649348 206.698456 
L 352.751752 194.657181 
L 352.956561 138.411493 
L 353.058965 139.824601 
L 353.161369 146.253248 
L 353.366178 204.369813 
L 353.468582 190.358148 
L 353.570987 142.770235 
L 353.673391 147.089171 
L 353.8782 135.40615 
L 354.083008 208.867875 
L 354.287817 135.306635 
L 354.390221 135.346441 
L 354.492625 137.874113 
L 354.59503 143.964411 
L 354.799838 203.553792 
L 355.004647 142.133341 
L 355.107051 142.431885 
L 355.209456 135.983335 
L 355.31186 145.894995 
L 355.516668 203.135831 
L 355.926286 130.11197 
L 356.02869 143.00907 
L 356.233499 209.186322 
L 356.540712 134.311488 
L 356.643116 130.768766 
L 356.74552 133.813915 
L 356.950329 204.529036 
L 357.257542 129.09692 
L 357.359946 129.932843 
L 357.46235 133.475565 
L 357.564755 157.876561 
L 357.769563 213.286327 
L 358.076776 133.91343 
L 358.17918 129.972649 
L 358.383989 183.212995 
L 358.486393 165.857637 
L 358.588798 119.66293 
L 358.691202 124.658566 
L 358.793606 137.495958 
L 359.100819 220.690218 
L 359.203223 208.688749 
L 359.408032 148.621697 
L 359.612841 139.088192 
L 359.715245 143.128488 
L 359.817649 191.3931 
L 359.920054 175.17221 
L 360.124862 132.161972 
L 360.227266 115.781858 
L 360.329671 118.707589 
L 360.534479 193.005238 
L 360.636884 172.843567 
L 360.841692 107.223597 
L 360.944097 116.538169 
L 361.046501 116.120208 
L 361.25131 197.264465 
L 361.660927 99.262423 
L 361.763331 108.53719 
L 361.96814 192.109606 
L 362.377757 107.462432 
L 362.480161 117.652733 
L 362.68497 186.596493 
L 362.889778 88.017266 
L 362.992183 100.93427 
L 363.094587 98.844462 
L 363.196991 112.139621 
L 363.4018 180.187749 
L 363.709013 94.923584 
L 363.811417 93.430864 
L 363.913821 102.208057 
L 364.11863 176.32658 
L 364.221034 150.910535 
L 364.425843 94.366302 
L 364.630652 114.687196 
L 364.83546 187.133873 
L 364.937864 149.159076 
L 365.040269 68.313363 
L 365.245077 107.601752 
L 365.347482 95.182322 
L 365.55229 185.979502 
L 365.859503 98.486209 
L 365.961908 104.297865 
L 366.064312 95.401254 
L 366.26912 193.204267 
L 366.473929 99.083297 
L 366.576333 107.263402 
L 366.781142 124.658566 
L 366.985951 199.812041 
L 367.190759 131.485272 
L 367.395568 141.615865 
L 367.497972 157.816852 
L 367.702781 212.828559 
L 367.907589 151.189176 
L 368.009994 148.462474 
L 368.214802 174.555219 
L 368.317207 234.701882 
L 368.419611 224.193134 
L 368.726824 123.862449 
L 368.829228 130.271193 
L 368.931632 111.960495 
L 369.238845 120.319727 
L 369.34125 103.302719 
L 369.443654 110.885736 
L 369.546058 108.417773 
L 369.648462 109.55224 
L 369.853271 167.907639 
L 370.05808 58.52112 
L 370.262888 111.443018 
L 370.365293 97.849315 
L 370.570101 178.078038 
L 370.877314 88.455131 
L 370.979718 134.132362 
L 371.082123 50.241499 
L 371.286931 204.708162 
L 371.389336 219.973712 
L 371.594144 183.810083 
L 371.798953 173.301334 
L 372.003761 210.79846 
L 372.310974 129.315852 
L 372.413379 133.256633 
L 372.515783 127.6042 
L 372.720592 184.765424 
L 372.822996 168.823174 
L 373.027805 125.514392 
L 373.232613 110.010007 
L 373.437422 174.336287 
L 373.847039 83.917262 
L 373.949443 101.013882 
L 374.154252 178.396485 
L 374.461465 92.296397 
L 374.666273 81.688134 
L 374.871082 166.375113 
L 375.075891 77.687644 
L 375.178295 90.00756 
L 375.280699 72.254143 
L 375.383104 77.229877 
L 375.587912 153.736751 
L 375.690316 142.710526 
L 375.895125 65.984719 
L 375.997529 57.147817 
L 376.099934 66.442487 
L 376.304742 147.706162 
L 376.71436 50.360917 
L 376.816764 63.855106 
L 377.021572 145.99451 
L 377.123977 118.707589 
L 377.328785 61.347336 
L 377.43119 71.637152 
L 377.533594 55.475971 
L 377.738403 143.108585 
L 377.840807 136.082849 
L 378.045615 67.258507 
L 378.14802 68.213848 
L 378.250424 65.905108 
L 378.455233 137.71489 
L 378.557637 115.343993 
L 378.660041 61.665783 
L 378.762446 65.905108 
L 378.86485 66.621613 
L 378.967254 72.791523 
L 379.172063 139.744989 
L 379.274467 123.285264 
L 379.479276 56.889079 
L 379.58168 57.386652 
L 379.684084 50.977908 
L 379.888893 143.466838 
L 380.196106 59.775004 
L 380.29851 68.213848 
L 380.400914 66.900254 
L 380.605723 159.667825 
L 380.708127 154.114907 
L 380.912936 100.794949 
L 381.117745 76.7124 
L 381.220149 82.68328 
L 381.322553 147.666356 
L 381.527362 61.30753 
L 381.629766 61.606074 
L 381.73217 59.615781 
L 381.834575 70.383268 
L 382.039383 157.100347 
L 382.141788 138.112949 
L 382.346596 69.189092 
L 382.551405 84.156097 
L 382.756213 165.20084 
L 382.961022 81.05124 
L 383.063426 82.762892 
L 383.165831 87.141537 
L 383.268235 99.461453 
L 383.473044 173.142111 
L 383.677852 97.311936 
L 383.780257 110.826027 
L 383.882661 109.651754 
L 384.189874 198.538253 
L 384.599491 104.536701 
L 384.701895 108.696414 
L 384.906704 194.338734 
L 385.009108 173.540169 
L 385.213917 113.871176 
L 385.316321 117.692539 
L 385.418725 130.151775 
L 385.623534 196.269319 
L 385.930747 113.950788 
L 386.033151 120.578465 
L 386.135556 120.498853 
L 386.340364 188.347952 
L 386.442768 170.395506 
L 386.545173 114.36875 
L 386.852386 129.455173 
L 387.057194 199.453788 
L 387.466811 116.040596 
L 387.569216 122.688176 
L 387.774024 201.105732 
L 387.876429 178.356679 
L 388.081237 120.558562 
L 388.183642 118.130404 
L 388.286046 122.628467 
L 388.490855 199.19505 
L 388.593259 177.202309 
L 388.798067 121.434291 
L 388.900472 120.996426 
L 389.002876 117.672636 
L 389.207685 198.438739 
L 389.514898 124.021672 
L 389.719706 139.406639 
L 389.924515 205.345056 
L 390.231728 140.003727 
L 390.334132 142.133341 
L 390.436536 148.243542 
L 390.641345 209.962537 
L 390.743749 188.347952 
L 390.846154 141.456641 
L 390.948558 142.272662 
L 391.050962 136.441102 
L 391.153366 142.67072 
L 391.358175 204.608648 
L 391.767792 140.939165 
L 391.870197 147.546939 
L 392.075005 208.867875 
L 392.484622 117.83186 
L 392.587027 128.838182 
L 392.791835 190.935333 
L 392.89424 172.724149 
L 393.099048 126.410024 
L 393.201453 127.982356 
L 393.303857 120.060988 
L 393.508665 189.920283 
L 393.61107 174.714442 
L 393.815878 120.857106 
L 393.918283 123.145943 
L 394.020687 135.087703 
L 394.225496 219.535848 
L 394.3279 189.621739 
L 394.532708 107.522141 
L 394.635113 114.289138 
L 394.737517 109.990104 
L 394.942326 173.301334 
L 395.147134 104.676021 
L 395.249539 108.358064 
L 395.351943 106.467285 
L 395.454347 111.582339 
L 395.659156 189.343098 
L 395.966369 108.139132 
L 396.068773 101.571164 
L 396.171177 105.850294 
L 396.375986 208.250885 
L 396.47839 192.726597 
L 396.683199 128.559541 
L 396.785603 126.947403 
L 396.888007 115.921178 
L 397.092816 148.30325 
L 397.19522 148.024609 
L 397.400029 84.315321 
L 397.502433 97.232324 
L 397.604838 88.952704 
L 397.809646 174.853763 
L 397.912051 149.537232 
L 398.014455 87.937655 
L 398.116859 95.998342 
L 398.219263 82.125998 
L 398.321668 93.510476 
L 398.526476 171.151817 
L 398.628881 149.815873 
L 398.833689 85.827944 
L 399.038498 94.207078 
L 399.243306 165.53919 
L 399.550519 90.863386 
L 399.755328 75.140069 
L 399.960137 158.175105 
L 400.164945 78.384247 
L 400.26735 78.40415 
L 400.472158 90.743968 
L 400.676967 162.991615 
L 400.98418 90.684259 
L 401.188988 80.931822 
L 401.393797 180.207652 
L 401.496201 146.989657 
L 401.598605 67.517245 
L 401.70101 69.029868 
L 402.110627 163.548897 
L 402.213031 140.978971 
L 402.315436 80.016287 
L 402.41784 85.051729 
L 402.622649 99.640579 
L 402.827457 173.918325 
L 403.032266 87.141537 
L 403.13467 92.694456 
L 403.237074 95.739604 
L 403.441883 140.561009 
L 403.544287 188.845525 
L 403.749096 112.53768 
L 403.8515 123.822643 
L 404.056309 144.02412 
L 404.261117 213.604773 
L 404.465926 164.225597 
L 404.56833 172.127061 
L 404.670735 176.028036 
L 404.875543 213.186812 
L 404.977948 230.482461 
L 405.28516 191.751353 
L 405.387565 192.129509 
L 405.489969 188.765913 
L 405.694778 234.900912 
L 405.797182 224.849931 
L 406.001991 156.065394 
L 406.104395 147.467327 
L 406.206799 148.084318 
L 406.411608 202.399422 
L 406.514012 189.203778 
L 406.718821 132.361001 
L 406.821225 137.37654 
L 406.923629 132.142069 
L 407.128438 204.409618 
L 407.333247 146.054219 
L 407.435651 146.392569 
L 407.538055 151.48772 
L 407.742864 197.662524 
L 407.845268 253.151901 
L 407.947672 230.482461 
L 408.152481 182.357169 
L 408.254885 176.306677 
L 408.35729 177.580465 
L 408.459694 183.232898 
L 408.562098 204.469327 
L 408.664502 185.103773 
L 408.869311 121.135747 
L 409.07412 111.741562 
L 409.278928 187.372708 
L 409.688546 96.555625 
L 409.79095 93.231835 
L 409.995758 174.01784 
L 410.200567 78.225023 
L 410.302971 89.450277 
L 410.405376 68.910451 
L 410.50778 77.488615 
L 410.712589 170.753759 
L 410.917397 63.357532 
L 411.019802 68.731324 
L 411.122206 67.95511 
L 411.22461 81.847357 
L 411.429419 164.962005 
L 411.634227 54.978397 
L 411.736632 59.197819 
L 411.839036 60.093451 
L 411.94144 57.108011 
L 412.146249 155.62753 
L 412.351057 41.185665 
L 412.453462 54.341504 
L 412.555866 62.740541 
L 412.65827 46.141495 
L 412.863079 155.070248 
L 412.965483 128.798376 
L 413.170292 38.578381 
L 413.477505 103.959516 
L 413.579909 154.731898 
L 413.887122 51.017714 
L 413.989526 56.530826 
L 414.091931 69.009965 
L 414.296739 153.955683 
L 414.399144 124.539148 
L 414.603952 53.087619 
L 414.808761 65.825496 
L 415.013569 171.748905 
L 415.218378 72.254143 
L 415.320782 86.385226 
L 415.525591 73.607543 
L 415.7304 156.423647 
L 416.140017 50.122082 
L 416.242421 57.008497 
L 416.44723 156.44355 
L 416.754443 56.69005 
L 416.856847 49.485188 
L 416.959251 60.312384 
L 417.16406 147.288201 
L 417.471273 53.824027 
L 417.573677 62.641027 
L 417.676081 88.395422 
L 417.88089 200.628061 
L 417.983294 201.802334 
L 418.392911 80.792502 
L 418.495316 100.854658 
L 418.59772 153.020245 
L 418.802529 73.806572 
L 418.904933 137.774599 
L 419.109742 75.637642 
L 419.31455 177.799397 
L 419.621763 67.576954 
L 419.826572 96.913877 
L 420.03138 180.824643 
L 420.236189 82.782795 
L 420.338593 87.280858 
L 420.440998 87.260955 
L 420.543402 94.107564 
L 420.74821 189.681448 
L 421.055423 89.430374 
L 421.362636 146.452278 
L 421.465041 194.71689 
L 421.669849 100.556114 
L 421.772253 101.710484 
L 421.874658 106.22845 
L 421.977062 118.369239 
L 422.181871 197.443592 
L 422.284275 174.595025 
L 422.489084 99.91922 
L 422.693892 119.543512 
L 422.898701 209.584381 
L 423.205914 120.857106 
L 423.410722 174.177063 
L 423.513127 179.132894 
L 423.615531 191.373197 
L 423.82034 129.236241 
L 423.922744 134.590129 
L 424.025148 130.310999 
L 424.127552 133.774109 
L 424.332361 210.022246 
L 424.741978 116.995937 
L 424.844383 119.483803 
L 425.049191 203.235345 
L 425.151596 178.615417 
L 425.254 117.175063 
L 425.356404 118.010986 
L 425.458808 113.771662 
L 425.561213 102.387184 
L 425.766021 195.572716 
L 426.073234 117.851763 
L 426.175639 115.32409 
L 426.278043 126.569247 
L 426.585256 249.350441 
L 426.68766 247.877624 
L 426.790064 140.919262 
L 426.994873 203.633404 
L 427.302086 137.894016 
L 427.40449 130.271193 
L 427.506895 133.833818 
L 427.711703 206.479523 
L 428.12132 139.366833 
L 428.223725 143.904702 
L 428.428533 207.315447 
L 428.83815 138.590619 
L 428.940555 140.342077 
L 429.145363 213.286327 
L 429.554981 127.922647 
L 429.657385 136.500811 
L 429.862194 205.006706 
L 430.271811 116.378946 
L 430.374215 127.26585 
L 430.579024 194.37854 
L 430.886237 106.606606 
L 430.988641 108.079423 
L 431.091045 126.290606 
L 431.295854 197.483398 
L 431.705471 103.362428 
L 431.807875 118.090598 
L 432.012684 191.73145 
L 432.319897 92.813873 
L 432.422301 182.396975 
L 432.422301 182.396975 
" clip-path="url(#pd83b825b85)" style="fill: none; stroke: #1f77b4; stroke-width: 1.5; stroke-linecap: square"/>
   </g>
   <g id="patch_3">
    <path d="M 63.290625 304.44375 
L 63.290625 25.918125 
" style="fill: none; stroke: #000000; stroke-width: 0.8; stroke-linejoin: miter; stroke-linecap: square"/>
   </g>
   <g id="patch_4">
    <path d="M 450 304.44375 
L 450 25.918125 
" style="fill: none; stroke: #000000; stroke-width: 0.8; stroke-linejoin: miter; stroke-linecap: square"/>
   </g>
   <g id="patch_5">
    <path d="M 63.290625 304.44375 
L 450 304.44375 
" style="fill: none; stroke: #000000; stroke-width: 0.8; stroke-linejoin: miter; stroke-linecap: square"/>
   </g>
   <g id="patch_6">
    <path d="M 63.290625 25.918125 
L 450 25.918125 
" style="fill: none; stroke: #000000; stroke-width: 0.8; stroke-linejoin: miter; stroke-linecap: square"/>
   </g>
   <g id="text_19">
    <!-- Total Starts by Day (16,017,592) -->
    <g transform="translate(146.86125 19.918125) scale(0.12 -0.12)">
     <defs>
      <path id="DejaVuSans-Bold-54" d="M 31 4666 
L 4331 4666 
L 4331 3756 
L 2784 3756 
L 2784 0 
L 1581 0 
L 1581 3756 
L 31 3756 
L 31 4666 
z
" transform="scale(0.015625)"/>
      <path id="DejaVuSans-Bold-6f" d="M 2203 2784 
Q 1831 2784 1636 2517 
Q 1441 2250 1441 1747 
Q 1441 1244 1636 976 
Q 1831 709 2203 709 
Q 2569 709 2762 976 
Q 2956 1244 2956 1747 
Q 2956 2250 2762 2517 
Q 2569 2784 2203 2784 
z
M 2203 3584 
Q 3106 3584 3614 3096 
Q 4122 2609 4122 1747 
Q 4122 884 3614 396 
Q 3106 -91 2203 -91 
Q 1297 -91 786 396 
Q 275 884 275 1747 
Q 275 2609 786 3096 
Q 1297 3584 2203 3584 
z
" transform="scale(0.015625)"/>
      <path id="DejaVuSans-Bold-6c" d="M 538 4863 
L 1656 4863 
L 1656 0 
L 538 0 
L 538 4863 
z
" transform="scale(0.015625)"/>
      <path id="DejaVuSans-Bold-62" d="M 2400 722 
Q 2759 722 2948 984 
Q 3138 1247 3138 1747 
Q 3138 2247 2948 2509 
Q 2759 2772 2400 2772 
Q 2041 2772 1848 2508 
Q 1656 2244 1656 1747 
Q 1656 1250 1848 986 
Q 2041 722 2400 722 
z
M 1656 2988 
Q 1888 3294 2169 3439 
Q 2450 3584 2816 3584 
Q 3463 3584 3878 3070 
Q 4294 2556 4294 1747 
Q 4294 938 3878 423 
Q 3463 -91 2816 -91 
Q 2450 -91 2169 54 
Q 1888 200 1656 506 
L 1656 0 
L 538 0 
L 538 4863 
L 1656 4863 
L 1656 2988 
z
" transform="scale(0.015625)"/>
      <path id="DejaVuSans-Bold-79" d="M 78 3500 
L 1197 3500 
L 2138 1125 
L 2938 3500 
L 4056 3500 
L 2584 -331 
Q 2363 -916 2067 -1148 
Q 1772 -1381 1288 -1381 
L 641 -1381 
L 641 -647 
L 991 -647 
Q 1275 -647 1404 -556 
Q 1534 -466 1606 -231 
L 1638 -134 
L 78 3500 
z
" transform="scale(0.015625)"/>
      <path id="DejaVuSans-Bold-44" d="M 1791 3756 
L 1791 909 
L 2222 909 
Q 2959 909 3348 1275 
Q 3738 1641 3738 2338 
Q 3738 3031 3350 3393 
Q 2963 3756 2222 3756 
L 1791 3756 
z
M 588 4666 
L 1856 4666 
Q 2919 4666 3439 4514 
Q 3959 4363 4331 4000 
Q 4659 3684 4818 3271 
Q 4978 2859 4978 2338 
Q 4978 1809 4818 1395 
Q 4659 981 4331 666 
Q 3956 303 3431 151 
Q 2906 0 1856 0 
L 588 0 
L 588 4666 
z
" transform="scale(0.015625)"/>
      <path id="DejaVuSans-Bold-28" d="M 2413 -844 
L 1484 -844 
Q 1006 -72 778 623 
Q 550 1319 550 2003 
Q 550 2688 779 3389 
Q 1009 4091 1484 4856 
L 2413 4856 
Q 2013 4116 1813 3408 
Q 1613 2700 1613 2009 
Q 1613 1319 1811 609 
Q 2009 -100 2413 -844 
z
" transform="scale(0.015625)"/>
      <path id="DejaVuSans-Bold-31" d="M 750 831 
L 1813 831 
L 1813 3847 
L 722 3622 
L 722 4441 
L 1806 4666 
L 2950 4666 
L 2950 831 
L 4013 831 
L 4013 0 
L 750 0 
L 750 831 
z
" transform="scale(0.015625)"/>
      <path id="DejaVuSans-Bold-36" d="M 2316 2303 
Q 2000 2303 1842 2098 
Q 1684 1894 1684 1484 
Q 1684 1075 1842 870 
Q 2000 666 2316 666 
Q 2634 666 2792 870 
Q 2950 1075 2950 1484 
Q 2950 1894 2792 2098 
Q 2634 2303 2316 2303 
z
M 3803 4544 
L 3803 3681 
Q 3506 3822 3243 3889 
Q 2981 3956 2731 3956 
Q 2194 3956 1894 3657 
Q 1594 3359 1544 2772 
Q 1750 2925 1990 3001 
Q 2231 3078 2516 3078 
Q 3231 3078 3670 2659 
Q 4109 2241 4109 1563 
Q 4109 813 3618 361 
Q 3128 -91 2303 -91 
Q 1394 -91 895 523 
Q 397 1138 397 2266 
Q 397 3422 980 4083 
Q 1563 4744 2578 4744 
Q 2900 4744 3203 4694 
Q 3506 4644 3803 4544 
z
" transform="scale(0.015625)"/>
      <path id="DejaVuSans-Bold-2c" d="M 653 1209 
L 1778 1209 
L 1778 256 
L 1006 -909 
L 341 -909 
L 653 256 
L 653 1209 
z
" transform="scale(0.015625)"/>
      <path id="DejaVuSans-Bold-30" d="M 2944 2338 
Q 2944 3213 2780 3570 
Q 2616 3928 2228 3928 
Q 1841 3928 1675 3570 
Q 1509 3213 1509 2338 
Q 1509 1453 1675 1090 
Q 1841 728 2228 728 
Q 2613 728 2778 1090 
Q 2944 1453 2944 2338 
z
M 4147 2328 
Q 4147 1169 3647 539 
Q 3147 -91 2228 -91 
Q 1306 -91 806 539 
Q 306 1169 306 2328 
Q 306 3491 806 4120 
Q 1306 4750 2228 4750 
Q 3147 4750 3647 4120 
Q 4147 3491 4147 2328 
z
" transform="scale(0.015625)"/>
      <path id="DejaVuSans-Bold-37" d="M 428 4666 
L 3944 4666 
L 3944 3988 
L 2125 0 
L 953 0 
L 2675 3781 
L 428 3781 
L 428 4666 
z
" transform="scale(0.015625)"/>
      <path id="DejaVuSans-Bold-35" d="M 678 4666 
L 3669 4666 
L 3669 3781 
L 1638 3781 
L 1638 3059 
Q 1775 3097 1914 3117 
Q 2053 3138 2203 3138 
Q 3056 3138 3531 2711 
Q 4006 2284 4006 1522 
Q 4006 766 3489 337 
Q 2972 -91 2053 -91 
Q 1656 -91 1267 -14 
Q 878 63 494 219 
L 494 1166 
Q 875 947 1217 837 
Q 1559 728 1863 728 
Q 2300 728 2551 942 
Q 2803 1156 2803 1522 
Q 2803 1891 2551 2103 
Q 2300 2316 1863 2316 
Q 1603 2316 1309 2248 
Q 1016 2181 678 2041 
L 678 4666 
z
" transform="scale(0.015625)"/>
      <path id="DejaVuSans-Bold-39" d="M 641 103 
L 641 966 
Q 928 831 1190 764 
Q 1453 697 1709 697 
Q 2247 697 2547 995 
Q 2847 1294 2900 1881 
Q 2688 1725 2447 1647 
Q 2206 1569 1925 1569 
Q 1209 1569 770 1986 
Q 331 2403 331 3084 
Q 331 3838 820 4291 
Q 1309 4744 2131 4744 
Q 3044 4744 3544 4128 
Q 4044 3513 4044 2388 
Q 4044 1231 3459 570 
Q 2875 -91 1856 -91 
Q 1528 -91 1228 -42 
Q 928 6 641 103 
z
M 2125 2350 
Q 2441 2350 2600 2554 
Q 2759 2759 2759 3169 
Q 2759 3575 2600 3781 
Q 2441 3988 2125 3988 
Q 1809 3988 1650 3781 
Q 1491 3575 1491 3169 
Q 1491 2759 1650 2554 
Q 1809 2350 2125 2350 
z
" transform="scale(0.015625)"/>
      <path id="DejaVuSans-Bold-32" d="M 1844 884 
L 3897 884 
L 3897 0 
L 506 0 
L 506 884 
L 2209 2388 
Q 2438 2594 2547 2791 
Q 2656 2988 2656 3200 
Q 2656 3528 2436 3728 
Q 2216 3928 1850 3928 
Q 1569 3928 1234 3808 
Q 900 3688 519 3450 
L 519 4475 
Q 925 4609 1322 4679 
Q 1719 4750 2100 4750 
Q 2938 4750 3402 4381 
Q 3866 4013 3866 3353 
Q 3866 2972 3669 2642 
Q 3472 2313 2841 1759 
L 1844 884 
z
" transform="scale(0.015625)"/>
      <path id="DejaVuSans-Bold-29" d="M 513 -844 
Q 913 -100 1113 609 
Q 1313 1319 1313 2009 
Q 1313 2700 1113 3408 
Q 913 4116 513 4856 
L 1441 4856 
Q 1916 4091 2145 3389 
Q 2375 2688 2375 2003 
Q 2375 1319 2147 623 
Q 1919 -72 1441 -844 
L 513 -844 
z
" transform="scale(0.015625)"/>
     </defs>
     <use xlink:href="#DejaVuSans-Bold-54"/>
     <use xlink:href="#DejaVuSans-Bold-6f" x="54.962891"/>
     <use xlink:href="#DejaVuSans-Bold-74" x="123.664062"/>
     <use xlink:href="#DejaVuSans-Bold-61" x="171.466797"/>
     <use xlink:href="#DejaVuSans-Bold-6c" x="238.947266"/>
     <use xlink:href="#DejaVuSans-Bold-20" x="273.224609"/>
     <use xlink:href="#DejaVuSans-Bold-53" x="308.039062"/>
     <use xlink:href="#DejaVuSans-Bold-74" x="380.060547"/>
     <use xlink:href="#DejaVuSans-Bold-61" x="427.863281"/>
     <use xlink:href="#DejaVuSans-Bold-72" x="495.34375"/>
     <use xlink:href="#DejaVuSans-Bold-74" x="544.660156"/>
     <use xlink:href="#DejaVuSans-Bold-73" x="592.462891"/>
     <use xlink:href="#DejaVuSans-Bold-20" x="651.984375"/>
     <use xlink:href="#DejaVuSans-Bold-62" x="686.798828"/>
     <use xlink:href="#DejaVuSans-Bold-79" x="758.380859"/>
     <use xlink:href="#DejaVuSans-Bold-20" x="823.566406"/>
     <use xlink:href="#DejaVuSans-Bold-44" x="858.380859"/>
     <use xlink:href="#DejaVuSans-Bold-61" x="941.388672"/>
     <use xlink:href="#DejaVuSans-Bold-79" x="1005.744141"/>
     <use xlink:href="#DejaVuSans-Bold-20" x="1070.929688"/>
     <use xlink:href="#DejaVuSans-Bold-28" x="1105.744141"/>
     <use xlink:href="#DejaVuSans-Bold-31" x="1151.447266"/>
     <use xlink:href="#DejaVuSans-Bold-36" x="1221.027344"/>
     <use xlink:href="#DejaVuSans-Bold-2c" x="1290.607422"/>
     <use xlink:href="#DejaVuSans-Bold-30" x="1328.595703"/>
     <use xlink:href="#DejaVuSans-Bold-31" x="1398.175781"/>
     <use xlink:href="#DejaVuSans-Bold-37" x="1467.755859"/>
     <use xlink:href="#DejaVuSans-Bold-2c" x="1537.335938"/>
     <use xlink:href="#DejaVuSans-Bold-35" x="1575.324219"/>
     <use xlink:href="#DejaVuSans-Bold-39" x="1644.904297"/>
     <use xlink:href="#DejaVuSans-Bold-32" x="1714.484375"/>
     <use xlink:href="#DejaVuSans-Bold-29" x="1784.064453"/>
    </g>
   </g>
  </g>
  <g id="patch_7">
   <path d="M 0 345.6 
L 460.8 345.6 
L 460.8 0 
L 0 0 
L 0 345.6 
z
" style="fill: none; stroke: #000000; stroke-width: 2; stroke-linejoin: miter"/>
  </g>
 </g>
 <defs>
  <clipPath id="pd83b825b85">
   <rect x="63.290625" y="25.918125" width="386.709375" height="278.525625"/>
  </clipPath>
 </defs>
</svg>
