<?xml version="1.0" encoding="utf-8" standalone="no"?>
<!DOCTYPE svg PUBLIC "-//W3C//DTD SVG 1.1//EN"
  "http://www.w3.org/Graphics/SVG/1.1/DTD/svg11.dtd">
<svg xmlns:xlink="http://www.w3.org/1999/xlink" width="460.8pt" height="345.6pt" viewBox="0 0 460.8 345.6" xmlns="http://www.w3.org/2000/svg" version="1.1">
 <metadata>
  <rdf:RDF xmlns:dc="http://purl.org/dc/elements/1.1/" xmlns:cc="http://creativecommons.org/ns#" xmlns:rdf="http://www.w3.org/1999/02/22-rdf-syntax-ns#">
   <cc:Work>
    <dc:type rdf:resource="http://purl.org/dc/dcmitype/StillImage"/>
    <dc:date>2023-09-15T14:12:03.709547</dc:date>
    <dc:format>image/svg+xml</dc:format>
    <dc:creator>
     <cc:Agent>
      <dc:title>Matplotlib v3.8.0, https://matplotlib.org/</dc:title>
     </cc:Agent>
    </dc:creator>
   </cc:Work>
  </rdf:RDF>
 </metadata>
 <defs>
  <style type="text/css">*{stroke-linejoin: round; stroke-linecap: butt}</style>
 </defs>
 <g id="figure_1">
  <g id="patch_1">
   <path d="M 0 345.6 
L 460.8 345.6 
L 460.8 0 
L 0 0 
z
" style="fill: #ffffff"/>
  </g>
  <g id="axes_1">
   <g id="patch_2">
    <path d="M 63.290625 304.44375 
L 450 304.44375 
L 450 25.918125 
L 63.290625 25.918125 
z
" style="fill: #ffffff"/>
   </g>
   <g id="matplotlib.axis_1">
    <g id="xtick_1">
     <g id="line2d_1">
      <defs>
       <path id="mc10e56ef27" d="M 0 0 
L 0 3.5 
" style="stroke: #000000; stroke-width: 0.8"/>
      </defs>
      <g>
       <use xlink:href="#mc10e56ef27" x="130.302154" y="304.44375" style="stroke: #000000; stroke-width: 0.8"/>
      </g>
     </g>
     <g id="text_1">
      <!-- 2017 -->
      <g transform="translate(117.577154 319.042187) scale(0.1 -0.1)">
       <defs>
        <path id="DejaVuSans-32" d="M 1228 531 
L 3431 531 
L 3431 0 
L 469 0 
L 469 531 
Q 828 903 1448 1529 
Q 2069 2156 2228 2338 
Q 2531 2678 2651 2914 
Q 2772 3150 2772 3378 
Q 2772 3750 2511 3984 
Q 2250 4219 1831 4219 
Q 1534 4219 1204 4116 
Q 875 4013 500 3803 
L 500 4441 
Q 881 4594 1212 4672 
Q 1544 4750 1819 4750 
Q 2544 4750 2975 4387 
Q 3406 4025 3406 3419 
Q 3406 3131 3298 2873 
Q 3191 2616 2906 2266 
Q 2828 2175 2409 1742 
Q 1991 1309 1228 531 
z
" transform="scale(0.015625)"/>
        <path id="DejaVuSans-30" d="M 2034 4250 
Q 1547 4250 1301 3770 
Q 1056 3291 1056 2328 
Q 1056 1369 1301 889 
Q 1547 409 2034 409 
Q 2525 409 2770 889 
Q 3016 1369 3016 2328 
Q 3016 3291 2770 3770 
Q 2525 4250 2034 4250 
z
M 2034 4750 
Q 2819 4750 3233 4129 
Q 3647 3509 3647 2328 
Q 3647 1150 3233 529 
Q 2819 -91 2034 -91 
Q 1250 -91 836 529 
Q 422 1150 422 2328 
Q 422 3509 836 4129 
Q 1250 4750 2034 4750 
z
" transform="scale(0.015625)"/>
        <path id="DejaVuSans-31" d="M 794 531 
L 1825 531 
L 1825 4091 
L 703 3866 
L 703 4441 
L 1819 4666 
L 2450 4666 
L 2450 531 
L 3481 531 
L 3481 0 
L 794 0 
L 794 531 
z
" transform="scale(0.015625)"/>
        <path id="DejaVuSans-37" d="M 525 4666 
L 3525 4666 
L 3525 4397 
L 1831 0 
L 1172 0 
L 2766 4134 
L 525 4134 
L 525 4666 
z
" transform="scale(0.015625)"/>
       </defs>
       <use xlink:href="#DejaVuSans-32"/>
       <use xlink:href="#DejaVuSans-30" x="63.623047"/>
       <use xlink:href="#DejaVuSans-31" x="127.246094"/>
       <use xlink:href="#DejaVuSans-37" x="190.869141"/>
      </g>
     </g>
    </g>
    <g id="xtick_2">
     <g id="line2d_2">
      <g>
       <use xlink:href="#mc10e56ef27" x="210.852814" y="304.44375" style="stroke: #000000; stroke-width: 0.8"/>
      </g>
     </g>
     <g id="text_2">
      <!-- 2018 -->
      <g transform="translate(198.127814 319.042187) scale(0.1 -0.1)">
       <defs>
        <path id="DejaVuSans-38" d="M 2034 2216 
Q 1584 2216 1326 1975 
Q 1069 1734 1069 1313 
Q 1069 891 1326 650 
Q 1584 409 2034 409 
Q 2484 409 2743 651 
Q 3003 894 3003 1313 
Q 3003 1734 2745 1975 
Q 2488 2216 2034 2216 
z
M 1403 2484 
Q 997 2584 770 2862 
Q 544 3141 544 3541 
Q 544 4100 942 4425 
Q 1341 4750 2034 4750 
Q 2731 4750 3128 4425 
Q 3525 4100 3525 3541 
Q 3525 3141 3298 2862 
Q 3072 2584 2669 2484 
Q 3125 2378 3379 2068 
Q 3634 1759 3634 1313 
Q 3634 634 3220 271 
Q 2806 -91 2034 -91 
Q 1263 -91 848 271 
Q 434 634 434 1313 
Q 434 1759 690 2068 
Q 947 2378 1403 2484 
z
M 1172 3481 
Q 1172 3119 1398 2916 
Q 1625 2713 2034 2713 
Q 2441 2713 2670 2916 
Q 2900 3119 2900 3481 
Q 2900 3844 2670 4047 
Q 2441 4250 2034 4250 
Q 1625 4250 1398 4047 
Q 1172 3844 1172 3481 
z
" transform="scale(0.015625)"/>
       </defs>
       <use xlink:href="#DejaVuSans-32"/>
       <use xlink:href="#DejaVuSans-30" x="63.623047"/>
       <use xlink:href="#DejaVuSans-31" x="127.246094"/>
       <use xlink:href="#DejaVuSans-38" x="190.869141"/>
      </g>
     </g>
    </g>
    <g id="xtick_3">
     <g id="line2d_3">
      <g>
       <use xlink:href="#mc10e56ef27" x="295.596522" y="304.44375" style="stroke: #000000; stroke-width: 0.8"/>
      </g>
     </g>
     <g id="text_3">
      <!-- 2022 -->
      <g transform="translate(282.871522 319.042187) scale(0.1 -0.1)">
       <use xlink:href="#DejaVuSans-32"/>
       <use xlink:href="#DejaVuSans-30" x="63.623047"/>
       <use xlink:href="#DejaVuSans-32" x="127.246094"/>
       <use xlink:href="#DejaVuSans-32" x="190.869141"/>
      </g>
     </g>
    </g>
    <g id="xtick_4">
     <g id="line2d_4">
      <g>
       <use xlink:href="#mc10e56ef27" x="376.147182" y="304.44375" style="stroke: #000000; stroke-width: 0.8"/>
      </g>
     </g>
     <g id="text_4">
      <!-- 2023 -->
      <g transform="translate(363.422182 319.042187) scale(0.1 -0.1)">
       <defs>
        <path id="DejaVuSans-33" d="M 2597 2516 
Q 3050 2419 3304 2112 
Q 3559 1806 3559 1356 
Q 3559 666 3084 287 
Q 2609 -91 1734 -91 
Q 1441 -91 1130 -33 
Q 819 25 488 141 
L 488 750 
Q 750 597 1062 519 
Q 1375 441 1716 441 
Q 2309 441 2620 675 
Q 2931 909 2931 1356 
Q 2931 1769 2642 2001 
Q 2353 2234 1838 2234 
L 1294 2234 
L 1294 2753 
L 1863 2753 
Q 2328 2753 2575 2939 
Q 2822 3125 2822 3475 
Q 2822 3834 2567 4026 
Q 2313 4219 1838 4219 
Q 1578 4219 1281 4162 
Q 984 4106 628 3988 
L 628 4550 
Q 988 4650 1302 4700 
Q 1616 4750 1894 4750 
Q 2613 4750 3031 4423 
Q 3450 4097 3450 3541 
Q 3450 3153 3228 2886 
Q 3006 2619 2597 2516 
z
" transform="scale(0.015625)"/>
       </defs>
       <use xlink:href="#DejaVuSans-32"/>
       <use xlink:href="#DejaVuSans-30" x="63.623047"/>
       <use xlink:href="#DejaVuSans-32" x="127.246094"/>
       <use xlink:href="#DejaVuSans-33" x="190.869141"/>
      </g>
     </g>
    </g>
    <g id="text_5">
     <!-- Year -->
     <g transform="translate(244.25 332.720312) scale(0.1 -0.1)">
      <defs>
       <path id="DejaVuSans-Bold-59" d="M -63 4666 
L 1253 4666 
L 2316 3003 
L 3378 4666 
L 4697 4666 
L 2919 1966 
L 2919 0 
L 1716 0 
L 1716 1966 
L -63 4666 
z
" transform="scale(0.015625)"/>
       <path id="DejaVuSans-Bold-65" d="M 4031 1759 
L 4031 1441 
L 1416 1441 
Q 1456 1047 1700 850 
Q 1944 653 2381 653 
Q 2734 653 3104 758 
Q 3475 863 3866 1075 
L 3866 213 
Q 3469 63 3072 -14 
Q 2675 -91 2278 -91 
Q 1328 -91 801 392 
Q 275 875 275 1747 
Q 275 2603 792 3093 
Q 1309 3584 2216 3584 
Q 3041 3584 3536 3087 
Q 4031 2591 4031 1759 
z
M 2881 2131 
Q 2881 2450 2695 2645 
Q 2509 2841 2209 2841 
Q 1884 2841 1681 2658 
Q 1478 2475 1428 2131 
L 2881 2131 
z
" transform="scale(0.015625)"/>
       <path id="DejaVuSans-Bold-61" d="M 2106 1575 
Q 1756 1575 1579 1456 
Q 1403 1338 1403 1106 
Q 1403 894 1545 773 
Q 1688 653 1941 653 
Q 2256 653 2472 879 
Q 2688 1106 2688 1447 
L 2688 1575 
L 2106 1575 
z
M 3816 1997 
L 3816 0 
L 2688 0 
L 2688 519 
Q 2463 200 2181 54 
Q 1900 -91 1497 -91 
Q 953 -91 614 226 
Q 275 544 275 1050 
Q 275 1666 698 1953 
Q 1122 2241 2028 2241 
L 2688 2241 
L 2688 2328 
Q 2688 2594 2478 2717 
Q 2269 2841 1825 2841 
Q 1466 2841 1156 2769 
Q 847 2697 581 2553 
L 581 3406 
Q 941 3494 1303 3539 
Q 1666 3584 2028 3584 
Q 2975 3584 3395 3211 
Q 3816 2838 3816 1997 
z
" transform="scale(0.015625)"/>
       <path id="DejaVuSans-Bold-72" d="M 3138 2547 
Q 2991 2616 2845 2648 
Q 2700 2681 2553 2681 
Q 2122 2681 1889 2404 
Q 1656 2128 1656 1613 
L 1656 0 
L 538 0 
L 538 3500 
L 1656 3500 
L 1656 2925 
Q 1872 3269 2151 3426 
Q 2431 3584 2822 3584 
Q 2878 3584 2943 3579 
Q 3009 3575 3134 3559 
L 3138 2547 
z
" transform="scale(0.015625)"/>
      </defs>
      <use xlink:href="#DejaVuSans-Bold-59"/>
      <use xlink:href="#DejaVuSans-Bold-65" x="63.287109"/>
      <use xlink:href="#DejaVuSans-Bold-61" x="131.109375"/>
      <use xlink:href="#DejaVuSans-Bold-72" x="198.589844"/>
     </g>
    </g>
   </g>
   <g id="matplotlib.axis_2">
    <g id="ytick_1">
     <g id="line2d_5">
      <defs>
       <path id="m8f3476dfbf" d="M 0 0 
L -3.5 0 
" style="stroke: #000000; stroke-width: 0.8"/>
      </defs>
      <g>
       <use xlink:href="#m8f3476dfbf" x="63.290625" y="297.963195" style="stroke: #000000; stroke-width: 0.8"/>
      </g>
     </g>
     <g id="text_6">
      <!-- 0 -->
      <g transform="translate(49.928125 301.762414) scale(0.1 -0.1)">
       <use xlink:href="#DejaVuSans-30"/>
      </g>
     </g>
    </g>
    <g id="ytick_2">
     <g id="line2d_6">
      <g>
       <use xlink:href="#m8f3476dfbf" x="63.290625" y="257.307268" style="stroke: #000000; stroke-width: 0.8"/>
      </g>
     </g>
     <g id="text_7">
      <!-- 2000 -->
      <g transform="translate(30.840625 261.106487) scale(0.1 -0.1)">
       <use xlink:href="#DejaVuSans-32"/>
       <use xlink:href="#DejaVuSans-30" x="63.623047"/>
       <use xlink:href="#DejaVuSans-30" x="127.246094"/>
       <use xlink:href="#DejaVuSans-30" x="190.869141"/>
      </g>
     </g>
    </g>
    <g id="ytick_3">
     <g id="line2d_7">
      <g>
       <use xlink:href="#m8f3476dfbf" x="63.290625" y="216.651341" style="stroke: #000000; stroke-width: 0.8"/>
      </g>
     </g>
     <g id="text_8">
      <!-- 4000 -->
      <g transform="translate(30.840625 220.45056) scale(0.1 -0.1)">
       <defs>
        <path id="DejaVuSans-34" d="M 2419 4116 
L 825 1625 
L 2419 1625 
L 2419 4116 
z
M 2253 4666 
L 3047 4666 
L 3047 1625 
L 3713 1625 
L 3713 1100 
L 3047 1100 
L 3047 0 
L 2419 0 
L 2419 1100 
L 313 1100 
L 313 1709 
L 2253 4666 
z
" transform="scale(0.015625)"/>
       </defs>
       <use xlink:href="#DejaVuSans-34"/>
       <use xlink:href="#DejaVuSans-30" x="63.623047"/>
       <use xlink:href="#DejaVuSans-30" x="127.246094"/>
       <use xlink:href="#DejaVuSans-30" x="190.869141"/>
      </g>
     </g>
    </g>
    <g id="ytick_4">
     <g id="line2d_8">
      <g>
       <use xlink:href="#m8f3476dfbf" x="63.290625" y="175.995414" style="stroke: #000000; stroke-width: 0.8"/>
      </g>
     </g>
     <g id="text_9">
      <!-- 6000 -->
      <g transform="translate(30.840625 179.794633) scale(0.1 -0.1)">
       <defs>
        <path id="DejaVuSans-36" d="M 2113 2584 
Q 1688 2584 1439 2293 
Q 1191 2003 1191 1497 
Q 1191 994 1439 701 
Q 1688 409 2113 409 
Q 2538 409 2786 701 
Q 3034 994 3034 1497 
Q 3034 2003 2786 2293 
Q 2538 2584 2113 2584 
z
M 3366 4563 
L 3366 3988 
Q 3128 4100 2886 4159 
Q 2644 4219 2406 4219 
Q 1781 4219 1451 3797 
Q 1122 3375 1075 2522 
Q 1259 2794 1537 2939 
Q 1816 3084 2150 3084 
Q 2853 3084 3261 2657 
Q 3669 2231 3669 1497 
Q 3669 778 3244 343 
Q 2819 -91 2113 -91 
Q 1303 -91 875 529 
Q 447 1150 447 2328 
Q 447 3434 972 4092 
Q 1497 4750 2381 4750 
Q 2619 4750 2861 4703 
Q 3103 4656 3366 4563 
z
" transform="scale(0.015625)"/>
       </defs>
       <use xlink:href="#DejaVuSans-36"/>
       <use xlink:href="#DejaVuSans-30" x="63.623047"/>
       <use xlink:href="#DejaVuSans-30" x="127.246094"/>
       <use xlink:href="#DejaVuSans-30" x="190.869141"/>
      </g>
     </g>
    </g>
    <g id="ytick_5">
     <g id="line2d_9">
      <g>
       <use xlink:href="#m8f3476dfbf" x="63.290625" y="135.339487" style="stroke: #000000; stroke-width: 0.8"/>
      </g>
     </g>
     <g id="text_10">
      <!-- 8000 -->
      <g transform="translate(30.840625 139.138706) scale(0.1 -0.1)">
       <use xlink:href="#DejaVuSans-38"/>
       <use xlink:href="#DejaVuSans-30" x="63.623047"/>
       <use xlink:href="#DejaVuSans-30" x="127.246094"/>
       <use xlink:href="#DejaVuSans-30" x="190.869141"/>
      </g>
     </g>
    </g>
    <g id="ytick_6">
     <g id="line2d_10">
      <g>
       <use xlink:href="#m8f3476dfbf" x="63.290625" y="94.68356" style="stroke: #000000; stroke-width: 0.8"/>
      </g>
     </g>
     <g id="text_11">
      <!-- 10000 -->
      <g transform="translate(24.478125 98.482779) scale(0.1 -0.1)">
       <use xlink:href="#DejaVuSans-31"/>
       <use xlink:href="#DejaVuSans-30" x="63.623047"/>
       <use xlink:href="#DejaVuSans-30" x="127.246094"/>
       <use xlink:href="#DejaVuSans-30" x="190.869141"/>
       <use xlink:href="#DejaVuSans-30" x="254.492188"/>
      </g>
     </g>
    </g>
    <g id="ytick_7">
     <g id="line2d_11">
      <g>
       <use xlink:href="#m8f3476dfbf" x="63.290625" y="54.027633" style="stroke: #000000; stroke-width: 0.8"/>
      </g>
     </g>
     <g id="text_12">
      <!-- 12000 -->
      <g transform="translate(24.478125 57.826852) scale(0.1 -0.1)">
       <use xlink:href="#DejaVuSans-31"/>
       <use xlink:href="#DejaVuSans-32" x="63.623047"/>
       <use xlink:href="#DejaVuSans-30" x="127.246094"/>
       <use xlink:href="#DejaVuSans-30" x="190.869141"/>
       <use xlink:href="#DejaVuSans-30" x="254.492188"/>
      </g>
     </g>
    </g>
    <g id="text_13">
     <!-- # Starts -->
     <g transform="translate(18.398438 188.3075) rotate(-90) scale(0.1 -0.1)">
      <defs>
       <path id="DejaVuSans-Bold-23" d="M 2847 4594 
L 2547 3391 
L 3372 3391 
L 3675 4594 
L 4366 4594 
L 4063 3391 
L 4928 3391 
L 4928 2725 
L 3897 2725 
L 3681 1869 
L 4569 1869 
L 4569 1197 
L 3519 1197 
L 3219 0 
L 2528 0 
L 2828 1197 
L 2003 1197 
L 1703 0 
L 1006 0 
L 1306 1197 
L 434 1197 
L 434 1869 
L 1459 1869 
L 1678 2725 
L 794 2725 
L 794 3391 
L 1850 3391 
L 2150 4594 
L 2847 4594 
z
M 3200 2725 
L 2375 2725 
L 2156 1869 
L 2981 1869 
L 3200 2725 
z
" transform="scale(0.015625)"/>
       <path id="DejaVuSans-Bold-20" transform="scale(0.015625)"/>
       <path id="DejaVuSans-Bold-53" d="M 3834 4519 
L 3834 3531 
Q 3450 3703 3084 3790 
Q 2719 3878 2394 3878 
Q 1963 3878 1756 3759 
Q 1550 3641 1550 3391 
Q 1550 3203 1689 3098 
Q 1828 2994 2194 2919 
L 2706 2816 
Q 3484 2659 3812 2340 
Q 4141 2022 4141 1434 
Q 4141 663 3683 286 
Q 3225 -91 2284 -91 
Q 1841 -91 1394 -6 
Q 947 78 500 244 
L 500 1259 
Q 947 1022 1364 901 
Q 1781 781 2169 781 
Q 2563 781 2772 912 
Q 2981 1044 2981 1288 
Q 2981 1506 2839 1625 
Q 2697 1744 2272 1838 
L 1806 1941 
Q 1106 2091 782 2419 
Q 459 2747 459 3303 
Q 459 4000 909 4375 
Q 1359 4750 2203 4750 
Q 2588 4750 2994 4692 
Q 3400 4634 3834 4519 
z
" transform="scale(0.015625)"/>
       <path id="DejaVuSans-Bold-74" d="M 1759 4494 
L 1759 3500 
L 2913 3500 
L 2913 2700 
L 1759 2700 
L 1759 1216 
Q 1759 972 1856 886 
Q 1953 800 2241 800 
L 2816 800 
L 2816 0 
L 1856 0 
Q 1194 0 917 276 
Q 641 553 641 1216 
L 641 2700 
L 84 2700 
L 84 3500 
L 641 3500 
L 641 4494 
L 1759 4494 
z
" transform="scale(0.015625)"/>
       <path id="DejaVuSans-Bold-73" d="M 3272 3391 
L 3272 2541 
Q 2913 2691 2578 2766 
Q 2244 2841 1947 2841 
Q 1628 2841 1473 2761 
Q 1319 2681 1319 2516 
Q 1319 2381 1436 2309 
Q 1553 2238 1856 2203 
L 2053 2175 
Q 2913 2066 3209 1816 
Q 3506 1566 3506 1031 
Q 3506 472 3093 190 
Q 2681 -91 1863 -91 
Q 1516 -91 1145 -36 
Q 775 19 384 128 
L 384 978 
Q 719 816 1070 734 
Q 1422 653 1784 653 
Q 2113 653 2278 743 
Q 2444 834 2444 1013 
Q 2444 1163 2330 1236 
Q 2216 1309 1875 1350 
L 1678 1375 
Q 931 1469 631 1722 
Q 331 1975 331 2491 
Q 331 3047 712 3315 
Q 1094 3584 1881 3584 
Q 2191 3584 2531 3537 
Q 2872 3491 3272 3391 
z
" transform="scale(0.015625)"/>
      </defs>
      <use xlink:href="#DejaVuSans-Bold-23"/>
      <use xlink:href="#DejaVuSans-Bold-20" x="83.789062"/>
      <use xlink:href="#DejaVuSans-Bold-53" x="118.603516"/>
      <use xlink:href="#DejaVuSans-Bold-74" x="190.625"/>
      <use xlink:href="#DejaVuSans-Bold-61" x="238.427734"/>
      <use xlink:href="#DejaVuSans-Bold-72" x="305.908203"/>
      <use xlink:href="#DejaVuSans-Bold-74" x="355.224609"/>
      <use xlink:href="#DejaVuSans-Bold-73" x="403.027344"/>
     </g>
    </g>
   </g>
   <g id="line2d_12">
    <path d="M 80.868324 268.650272 
L 81.089011 220.65595 
L 81.309697 217.810035 
L 81.751071 227.526802 
L 81.971758 242.244247 
L 82.192444 277.55392 
L 82.413131 263.710577 
L 82.633818 233.442239 
L 82.854505 222.95301 
L 83.075191 225.880237 
L 83.295878 226.185156 
L 83.516565 238.280294 
L 83.737251 271.943402 
L 83.957938 263.019426 
L 84.178625 219.802175 
L 84.399312 214.415265 
L 84.619998 225.900565 
L 84.840685 228.5432 
L 85.061372 233.970766 
L 85.282059 268.589288 
L 85.502745 261.169581 
L 85.723432 214.435593 
L 85.944119 216.468389 
L 86.164806 221.286117 
L 86.385492 216.06183 
L 86.606179 236.450778 
L 86.826866 278.44835 
L 87.047553 261.596468 
L 87.268239 225.676957 
L 87.488926 225.554989 
L 87.709613 226.998275 
L 87.9303 225.453349 
L 88.150986 242.772774 
L 88.371673 276.273258 
L 88.59236 263.060082 
L 88.813047 232.425841 
L 89.033733 221.692676 
L 89.25442 222.505795 
L 89.695793 249.176083 
L 89.91648 277.574248 
L 90.137167 268.894207 
L 90.357854 236.694713 
L 90.57854 230.210093 
L 90.799227 235.475035 
L 91.019914 233.13732 
L 91.240601 247.10263 
L 91.461287 277.65556 
L 91.681974 265.031894 
L 91.902661 229.945829 
L 92.123348 225.534661 
L 92.344034 230.596324 
L 92.564721 230.494684 
L 92.785408 243.8095 
L 93.006095 277.594576 
L 93.226781 269.016175 
L 93.447468 227.648769 
L 93.668155 229.762878 
L 93.888842 228.787135 
L 94.109528 226.164828 
L 94.330215 246.10656 
L 94.550902 276.435882 
L 94.771589 267.47125 
L 94.992275 228.705824 
L 95.212962 226.632371 
L 95.433649 223.013994 
L 95.654335 232.019282 
L 95.875022 249.013459 
L 96.095709 274.951941 
L 96.316396 266.698787 
L 96.537082 235.353068 
L 96.757769 233.665847 
L 96.978456 234.23503 
L 97.199143 228.44156 
L 97.419829 246.51312 
L 97.640516 281.192625 
L 97.861203 271.882418 
L 98.08189 231.83633 
L 98.302576 233.645519 
L 98.523263 232.649448 
L 98.74395 235.698643 
L 99.185323 280.338851 
L 99.40601 272.227993 
L 99.847384 228.888775 
L 100.06807 227.730081 
L 100.288757 233.259287 
L 100.73013 270.500117 
L 100.950817 267.227314 
L 101.171504 231.958298 
L 101.392191 230.515012 
L 101.612877 230.718292 
L 101.833564 228.156968 
L 102.054251 241.410801 
L 102.274938 267.349282 
L 102.495624 257.022677 
L 102.716311 223.827112 
L 102.936998 238.910461 
L 103.157685 230.393044 
L 103.378371 228.23828 
L 103.599058 240.089483 
L 103.819745 271.109955 
L 104.481805 223.684817 
L 104.702492 218.684137 
L 104.923179 219.436272 
L 105.143865 234.539949 
L 105.364552 265.499437 
L 105.585239 252.99774 
L 105.805926 221.225133 
L 106.026612 221.997596 
L 106.247299 225.107774 
L 106.467986 230.962227 
L 106.688672 241.81736 
L 106.909359 265.804357 
L 107.130046 256.372182 
L 107.350733 224.274327 
L 107.792106 217.728723 
L 108.012793 220.513654 
L 108.23348 240.048827 
L 108.454166 269.849622 
L 108.674853 252.99774 
L 108.89554 223.013994 
L 109.116227 215.472319 
L 109.336913 214.110346 
L 109.5576 216.122814 
L 109.778287 236.958977 
L 109.998974 268.487648 
L 110.21966 260.519086 
L 110.440347 220.75759 
L 110.661034 214.455921 
L 110.881721 218.623154 
L 111.323094 239.012101 
L 111.543781 271.008316 
L 111.764468 260.702038 
L 111.985154 225.25007 
L 112.205841 216.102486 
L 112.426528 220.472998 
L 112.647214 215.492647 
L 112.867901 232.080265 
L 113.088588 263.486969 
L 113.309275 253.749875 
L 113.529961 214.516905 
L 113.750648 210.715576 
L 113.971335 218.521514 
L 114.192022 222.302515 
L 114.412708 236.491434 
L 114.633395 268.56896 
L 114.854082 254.014138 
L 115.074769 213.378539 
L 115.295455 222.566779 
L 115.516142 214.06969 
L 115.736829 218.196266 
L 115.957516 238.32095 
L 116.178202 269.504046 
L 116.398889 250.721008 
L 116.619576 221.895956 
L 116.840263 225.412693 
L 117.060949 215.350351 
L 117.281636 221.469068 
L 117.502323 235.109132 
L 117.723009 263.486969 
L 118.164383 213.541163 
L 118.38507 214.293297 
L 118.605756 212.097877 
L 118.826443 204.942434 
L 119.267817 265.580749 
L 119.488503 245.130818 
L 119.70919 213.520835 
L 119.929877 206.731295 
L 120.150564 207.341134 
L 120.37125 193.558775 
L 120.591937 229.356318 
L 120.812624 246.879023 
L 121.033311 185.569885 
L 121.253997 191.464994 
L 121.474684 181.42298 
L 121.695371 138.774913 
L 121.916058 168.45374 
L 122.136744 173.230811 
L 122.578118 250.436417 
L 122.798805 213.76477 
L 123.019491 215.797567 
L 123.240178 216.590357 
L 123.460865 219.842831 
L 123.902238 267.064691 
L 124.122925 251.269863 
L 124.343612 207.930645 
L 124.564298 213.175259 
L 124.784985 212.097877 
L 125.005672 216.834293 
L 125.447045 271.414875 
L 125.667732 253.058724 
L 125.888419 223.379897 
L 126.109106 222.160219 
L 126.329792 219.537912 
L 126.550479 221.75366 
L 126.991853 271.902746 
L 127.212539 255.050864 
L 127.433226 224.94515 
L 127.653913 235.617331 
L 127.8746 236.105202 
L 128.095286 246.289512 
L 128.53666 278.184087 
L 128.978033 259.340065 
L 129.19872 256.921037 
L 129.419407 252.062654 
L 129.640093 259.218097 
L 130.081467 279.708684 
L 130.302154 275.765059 
L 130.743527 241.675064 
L 130.964214 237.812751 
L 131.184901 237.751767 
L 131.405587 250.721008 
L 131.626274 272.146682 
L 131.846961 256.270542 
L 132.067648 224.091376 
L 132.288334 223.644161 
L 132.509021 216.102486 
L 132.729708 218.013315 
L 133.171081 266.739443 
L 133.391768 252.265933 
L 133.612455 226.164828 
L 133.833142 220.472998 
L 134.053828 223.664489 
L 134.274515 228.848119 
L 134.495202 244.947866 
L 134.715888 270.683068 
L 134.936575 259.746624 
L 135.157262 229.620582 
L 135.377949 228.746479 
L 135.598635 240.861946 
L 135.819322 241.126209 
L 136.040009 255.782671 
L 136.260696 278.54999 
L 136.481382 269.991917 
L 136.702069 236.654057 
L 136.922756 232.080265 
L 137.584816 245.130818 
L 137.805503 276.334242 
L 138.02619 262.87713 
L 138.246876 224.619903 
L 138.467563 221.8553 
L 138.68825 222.546451 
L 138.908937 214.435593 
L 139.35031 271.984058 
L 139.570997 253.444955 
L 139.791684 216.36675 
L 140.01237 216.305766 
L 140.233057 213.683458 
L 140.453744 215.309696 
L 140.895117 266.963051 
L 141.115804 252.204949 
L 141.336491 222.912354 
L 141.557177 218.236922 
L 141.777864 218.806105 
L 141.998551 222.261859 
L 142.439924 271.475859 
L 142.660611 252.977412 
L 142.881298 223.278257 
L 143.543358 214.720185 
L 143.984732 266.841083 
L 144.205418 251.290191 
L 144.426105 211.853942 
L 144.867479 207.686709 
L 145.088165 211.935254 
L 145.308852 233.970766 
L 145.529539 267.47125 
L 145.750226 252.774132 
L 145.970912 204.657843 
L 146.412286 211.935254 
L 146.632972 211.203447 
L 146.853659 232.059937 
L 147.074346 263.608937 
L 147.295033 248.871163 
L 147.515719 205.836865 
L 147.736406 202.381111 
L 147.957093 201.7916 
L 148.17778 206.345064 
L 148.398466 224.924822 
L 148.619153 260.051543 
L 148.83984 246.086232 
L 149.060527 208.418516 
L 149.5019 200.063723 
L 149.722587 208.804747 
L 149.943274 224.680887 
L 150.16396 263.97484 
L 150.384647 255.39644 
L 150.605334 217.26118 
L 150.826021 214.049362 
L 151.046707 203.804068 
L 151.267394 211.305087 
L 151.488081 230.149109 
L 151.708767 267.918465 
L 151.929454 246.675743 
L 152.150141 212.362141 
L 152.370828 201.263073 
L 152.591514 200.754874 
L 152.812201 215.086088 
L 153.253575 268.182729 
L 153.474261 253.058724 
L 153.694948 222.64809 
L 154.136322 202.442095 
L 154.357008 205.206698 
L 154.798382 264.665991 
L 155.019069 247.183942 
L 155.239755 207.361462 
L 155.460442 205.145714 
L 155.681129 195.022388 
L 156.122502 234.702573 
L 156.343189 268.243713 
L 156.563876 262.206307 
L 157.005249 218.216594 
L 157.225936 204.759482 
L 157.446623 212.219845 
L 157.887996 263.507297 
L 158.108683 253.383971 
L 158.32937 207.402118 
L 158.550056 210.613936 
L 158.99143 196.526657 
L 159.432803 265.316486 
L 159.65349 253.485611 
L 159.874177 201.019137 
L 160.094864 207.686709 
L 160.31555 203.763412 
L 160.536237 205.633585 
L 160.756924 229.803534 
L 160.977611 270.134213 
L 161.198297 248.444276 
L 161.418984 208.438844 
L 161.639671 198.803389 
L 161.860358 200.978481 
L 162.301731 228.888775 
L 162.522418 268.833224 
L 162.743105 265.113206 
L 163.184478 215.736583 
L 163.625851 207.524086 
L 163.846538 229.986485 
L 164.067225 271.008316 
L 164.287912 257.632516 
L 164.508598 222.058579 
L 164.729285 209.394258 
L 165.170659 205.18637 
L 165.612032 271.597827 
L 165.832719 252.550525 
L 166.053406 206.426375 
L 166.494779 211.894598 
L 166.715466 213.276899 
L 167.156839 270.784708 
L 167.377526 254.502009 
L 167.598213 210.593608 
L 167.8189 209.922785 
L 168.039586 215.817895 
L 168.260273 207.889989 
L 168.701646 273.224064 
L 168.922333 259.319737 
L 169.14302 216.610685 
L 169.363707 211.996237 
L 169.584393 210.67492 
L 169.80508 208.194908 
L 170.246454 271.882418 
L 170.46714 256.08759 
L 170.687827 229.275006 
L 170.908514 227.201554 
L 171.129201 211.284759 
L 171.349887 215.980518 
L 171.570574 237.182584 
L 171.791261 270.5611 
L 172.011948 255.498079 
L 172.232634 213.541163 
L 172.453321 207.808677 
L 172.674008 213.76477 
L 172.894695 212.301157 
L 173.336068 266.007637 
L 173.556755 248.200341 
L 173.777442 213.76477 
L 173.998128 214.354281 
L 174.218815 206.731295 
L 174.660188 229.275006 
L 174.880875 267.105347 
L 175.101562 258.506618 
L 175.322249 219.334632 
L 175.542935 215.208056 
L 175.763622 218.35889 
L 175.984309 214.17133 
L 176.204996 230.047469 
L 176.425682 256.270542 
L 176.646369 254.969552 
L 176.867056 218.602826 
L 177.087743 219.172009 
L 177.308429 218.643482 
L 177.529116 222.729402 
L 177.749803 235.617331 
L 177.97049 273.508655 
L 178.191176 262.612867 
L 178.411863 224.477607 
L 178.63255 225.433021 
L 178.853237 215.045432 
L 179.073923 222.302515 
L 179.29461 236.633729 
L 179.515297 270.296837 
L 179.735984 261.657452 
L 179.95667 234.13339 
L 180.398044 223.318913 
L 180.61873 224.680887 
L 180.839417 239.41866 
L 181.060104 262.368931 
L 181.280791 260.620726 
L 181.501477 226.205484 
L 181.942851 216.285438 
L 182.163538 221.75366 
L 182.604911 261.718436 
L 182.825598 256.372182 
L 183.046285 221.95694 
L 183.266971 223.827112 
L 183.487658 218.541842 
L 183.708345 221.225133 
L 184.149718 270.174869 
L 184.370405 256.921037 
L 184.591092 230.210093 
L 185.032465 207.28015 
L 185.253152 219.375288 
L 185.473839 238.178655 
L 185.694525 269.524374 
L 185.915212 253.79053 
L 186.135899 218.277578 
L 186.577272 211.77263 
L 186.797959 208.540484 
L 187.239333 262.348603 
L 187.460019 253.526267 
L 187.680706 210.288689 
L 187.901393 206.568671 
L 188.12208 212.585748 
L 188.342766 208.255892 
L 188.78414 261.942044 
L 189.004827 251.879702 
L 189.225513 215.411335 
L 189.4462 213.093948 
L 189.666887 212.057221 
L 189.887574 206.162112 
L 190.10826 229.681566 
L 190.328947 268.426664 
L 190.549634 265.336814 
L 190.770321 235.597003 
L 190.991007 232.344529 
L 191.211694 233.767486 
L 191.432381 234.255358 
L 191.653067 239.479644 
L 191.873754 265.824685 
L 192.094441 251.59511 
L 192.315128 215.492647 
L 192.535814 208.072941 
L 192.756501 192.420409 
L 193.197875 230.413372 
L 193.418561 265.580749 
L 193.639248 246.370824 
L 193.859935 206.995558 
L 194.080622 194.758124 
L 194.301308 201.89324 
L 194.521995 204.77981 
L 194.742682 225.697285 
L 194.963369 263.8732 
L 195.184055 250.395761 
L 195.404742 203.905708 
L 195.625429 206.019816 
L 195.846116 212.728044 
L 196.066802 202.157503 
L 196.287489 226.083516 
L 196.508176 265.499437 
L 196.728863 245.842297 
L 196.949549 203.539805 
L 197.170236 202.299799 
L 197.390923 210.166721 
L 197.611609 206.771951 
L 197.832296 223.888096 
L 198.052983 263.405657 
L 198.27367 241.288833 
L 198.494356 201.283401 
L 198.93573 203.255213 
L 199.156417 194.880092 
L 199.59779 259.48236 
L 199.818477 244.663275 
L 200.039164 206.792279 
L 200.701224 193.375823 
L 201.142597 256.961693 
L 201.363284 235.02782 
L 201.583971 201.89324 
L 201.804658 199.779131 
L 202.025344 202.320127 
L 202.246031 214.984448 
L 202.687405 261.027286 
L 202.908091 241.410801 
L 203.128778 197.014528 
L 203.349465 199.758803 
L 203.570151 195.306979 
L 203.790838 195.185012 
L 204.232212 261.555813 
L 204.452898 237.751767 
L 204.673585 197.055184 
L 204.894272 195.449275 
L 205.114959 198.09191 
L 205.335645 210.817216 
L 205.777019 261.962372 
L 205.997706 249.867234 
L 206.218392 210.979839 
L 206.439079 200.653234 
L 206.659766 203.499149 
L 206.880453 209.27229 
L 207.321826 264.015496 
L 207.542513 246.045576 
L 207.7632 209.882129 
L 207.983886 211.792958 
L 208.204573 215.045432 
L 208.42526 225.534661 
L 208.866633 271.841762 
L 209.74938 240.861946 
L 209.970067 246.879023 
L 210.632127 276.883097 
L 211.294187 229.457958 
L 211.514874 225.331382 
L 211.956248 264.503367 
L 212.176934 246.167544 
L 212.397621 214.110346 
L 212.618308 205.572601 
L 212.838995 212.219845 
L 213.059681 208.642124 
L 213.501055 243.240317 
L 213.721742 245.984593 
L 213.942428 210.430984 
L 214.163115 208.703107 
L 214.604488 197.583711 
L 214.825175 218.724793 
L 215.045862 262.938114 
L 215.266549 246.350496 
L 215.487235 200.79553 
L 215.707922 203.336525 
L 215.928609 200.307658 
L 216.149296 204.312267 
L 216.369982 223.989736 
L 216.590669 262.572211 
L 216.811356 241.71572 
L 217.032043 202.076191 
L 217.252729 201.832256 
L 217.473416 204.840794 
L 217.694103 209.556882 
L 218.135476 263.954512 
L 218.356163 249.582642 
L 218.57685 214.354281 
L 218.797537 209.861801 
L 219.018223 211.305087 
L 219.23891 217.0579 
L 219.680284 258.161043 
L 219.90097 254.380041 
L 220.121657 223.84744 
L 220.342344 231.53141 
L 220.783717 237.629799 
L 221.004404 239.682924 
L 221.225091 270.906676 
L 221.445777 267.450922 
L 221.666464 237.080944 
L 222.107838 223.115634 
L 222.328524 224.558919 
L 222.549211 236.958977 
L 222.769898 263.730905 
L 222.990585 245.984593 
L 223.211271 210.67492 
L 223.431958 207.300478 
L 223.652645 216.509045 
L 223.873332 215.777239 
L 224.314705 260.620726 
L 224.535392 243.341957 
L 224.756079 205.552273 
L 224.976765 205.938504 
L 225.197452 200.937825 
L 225.418139 204.312267 
L 225.638825 226.632371 
L 225.859512 261.067941 
L 226.080199 250.863304 
L 226.300886 206.975231 
L 226.742259 198.762733 
L 226.962946 201.344385 
L 227.183633 220.45267 
L 227.404319 258.79121 
L 227.625006 242.752446 
L 227.845693 203.438165 
L 228.06638 197.929287 
L 228.287066 201.608648 
L 228.507753 196.628297 
L 228.949127 246.248856 
L 229.169813 246.126888 
L 229.3905 200.571922 
L 229.611187 194.554845 
L 230.05256 204.474891 
L 230.493934 259.502688 
L 230.714621 252.042326 
L 230.935307 218.135282 
L 231.155994 203.295869 
L 231.376681 213.907066 
L 231.597367 217.0579 
L 231.818054 229.33599 
L 232.038741 248.586572 
L 232.259428 232.771416 
L 232.480114 187.623009 
L 232.700801 190.977123 
L 233.142175 201.181761 
L 233.362861 221.794316 
L 233.583548 260.132855 
L 233.804235 242.976054 
L 234.024922 198.29519 
L 234.245608 192.339097 
L 234.466295 191.099091 
L 234.686982 197.238136 
L 234.907669 218.318234 
L 235.128355 256.168902 
L 235.349042 245.090162 
L 235.569729 189.066295 
L 236.011102 199.982411 
L 236.231789 196.526657 
L 236.452476 217.972659 
L 236.673163 259.502688 
L 236.893849 257.713827 
L 237.114536 225.94122 
L 237.335223 222.810714 
L 237.555909 201.364713 
L 237.776596 205.897848 
L 237.997283 222.64809 
L 238.21797 258.547274 
L 238.438656 246.330168 
L 238.659343 205.735225 
L 238.88003 203.031606 
L 239.100717 192.278113 
L 239.54209 223.257929 
L 239.762777 247.265254 
L 239.983464 242.671134 
L 240.20415 192.257785 
L 240.424837 193.030248 
L 240.866211 199.982411 
L 241.307584 263.344673 
L 241.528271 246.126888 
L 241.969644 196.09977 
L 242.190331 195.672883 
L 242.411018 204.962762 
L 242.852391 256.270542 
L 243.073078 245.069834 
L 243.293765 212.66706 
L 243.514451 199.026997 
L 243.735138 197.09584 
L 243.955825 203.722756 
L 244.176512 226.754339 
L 244.397198 262.185979 
L 244.617885 240.597682 
L 244.838572 199.29126 
L 245.059259 199.779131 
L 245.279945 204.08866 
L 245.500632 201.7916 
L 245.721319 226.876307 
L 245.942006 266.210916 
L 246.162692 250.70068 
L 246.383379 207.219166 
L 246.604066 199.69782 
L 246.824753 197.238136 
L 247.045439 206.751623 
L 247.486813 268.406336 
L 247.7075 263.18205 
L 247.928186 219.944471 
L 248.148873 206.609327 
L 248.36956 205.308337 
L 248.590246 207.889989 
L 249.03162 263.649593 
L 249.252307 247.854765 
L 249.472993 212.219845 
L 249.69368 201.58832 
L 249.914367 202.116847 
L 250.135054 209.150323 
L 250.576427 257.835795 
L 250.797114 291.783494 
L 251.017801 243.219989 
L 251.238487 156.805817 
L 251.459174 135.725718 
L 251.679861 142.230667 
L 251.900548 144.832646 
L 252.341921 209.760162 
L 252.562608 184.939718 
L 252.783295 135.075224 
L 253.224668 143.978872 
L 253.445355 132.961115 
L 253.886728 217.281508 
L 254.548788 141.641156 
L 254.769475 143.816248 
L 254.990162 137.128348 
L 255.431535 205.206698 
L 255.652222 189.269574 
L 255.872909 141.254924 
L 256.093596 133.448986 
L 256.534969 141.681812 
L 256.976343 207.158182 
L 257.197029 188.680063 
L 257.417716 137.514579 
L 257.638403 134.648336 
L 257.85909 137.00638 
L 258.079776 127.696173 
L 258.52115 203.133245 
L 258.741837 181.707572 
L 258.962523 139.059504 
L 259.18321 140.624758 
L 259.403897 145.503469 
L 259.624583 144.974942 
L 260.065957 202.340455 
L 260.286644 186.525299 
L 260.50733 140.787381 
L 260.728017 141.39722 
L 260.948704 144.304119 
L 261.169391 135.441127 
L 261.610764 210.288689 
L 261.831451 197.990271 
L 262.052138 151.520546 
L 262.272824 140.543446 
L 262.493511 141.986731 
L 262.714198 148.552663 
L 263.155571 207.910317 
L 263.376258 193.599431 
L 263.596945 144.99527 
L 263.817632 149.406438 
L 264.259005 137.473923 
L 264.700379 212.504437 
L 264.921065 187.155466 
L 265.141752 137.372283 
L 265.362439 137.412939 
L 265.583125 139.994591 
L 265.803812 146.214948 
L 266.024499 169.24653 
L 266.245186 207.07687 
L 266.686559 144.344775 
L 266.907246 144.649694 
L 267.127933 138.063434 
L 267.348619 148.18676 
L 267.569306 170.54752 
L 267.789993 206.649983 
L 268.01068 183.049217 
L 268.231366 138.876553 
L 268.452053 137.595891 
L 268.67274 132.066685 
L 268.893427 145.239205 
L 269.3348 212.829684 
L 269.776174 146.031996 
L 269.99686 136.355885 
L 270.217547 132.737508 
L 270.438234 135.847686 
L 270.879607 208.072941 
L 271.100294 180.813141 
L 271.320981 131.070615 
L 271.541667 131.029959 
L 271.762354 131.883733 
L 271.983041 135.502111 
L 272.203728 160.424194 
L 272.424414 212.910996 
L 272.645101 217.017244 
L 272.865788 178.821001 
L 273.086475 163.351421 
L 273.307161 135.949326 
L 273.527848 131.924389 
L 273.969222 186.301692 
L 274.189908 168.575707 
L 274.410595 121.394504 
L 274.631282 126.496823 
L 274.851969 139.608359 
L 275.514029 224.579247 
L 275.734716 212.321485 
L 275.955402 157.862871 
L 276.176089 150.971691 
L 276.396776 147.617577 
L 276.617462 141.234596 
L 276.838149 145.361173 
L 277.058836 194.656485 
L 277.279523 178.089194 
L 277.500209 134.343417 
L 277.720896 134.160465 
L 277.941583 117.430551 
L 278.16227 120.418762 
L 278.382956 150.219556 
L 278.603643 196.30305 
L 278.82433 175.710823 
L 279.045017 115.723002 
L 279.265703 108.689527 
L 279.48639 118.203014 
L 279.707077 117.776127 
L 279.927764 150.138244 
L 280.14845 200.653234 
L 280.369137 168.921283 
L 280.589824 116.007594 
L 280.810511 104.217375 
L 281.031197 100.558341 
L 281.251884 110.031172 
L 281.693258 195.388291 
L 281.913944 173.515403 
L 282.134631 129.180114 
L 282.355318 122.146639 
L 282.576004 108.933462 
L 282.796691 119.34138 
L 283.017378 144.629366 
L 283.238065 189.757445 
L 283.679438 89.073042 
L 283.900125 102.26589 
L 284.120812 100.131454 
L 284.341498 113.710534 
L 284.782872 183.211841 
L 285.003559 150.463492 
L 285.224245 96.391109 
L 285.444932 96.126845 
L 285.665619 94.602248 
L 285.886306 103.56688 
L 286.327679 179.268216 
L 286.548366 153.309407 
L 286.769053 96.736684 
L 286.989739 95.557662 
L 287.431113 116.312513 
L 287.872486 190.3063 
L 288.093173 151.520546 
L 288.31386 68.948358 
L 288.534546 100.781949 
L 288.755233 109.075758 
L 288.97592 96.391109 
L 289.417293 189.127279 
L 289.63798 157.17172 
L 289.858667 103.810816 
L 290.079354 99.765551 
L 290.30004 105.701316 
L 290.520727 96.614717 
L 290.962101 196.506329 
L 291.403474 100.37539 
L 292.065534 126.496823 
L 292.506908 203.255213 
L 292.948281 133.469314 
L 293.389655 143.816248 
L 293.610341 160.36321 
L 293.831028 214.008706 
L 294.051715 216.549701 
L 294.493088 153.593998 
L 294.713775 150.809067 
L 295.155149 177.459027 
L 295.375835 238.890133 
L 295.596522 228.156968 
L 295.817209 198.60011 
L 296.258582 125.683704 
L 296.479269 132.229309 
L 296.699956 113.527582 
L 296.920643 116.414153 
L 297.141329 121.516472 
L 297.362016 122.065327 
L 297.582703 104.684918 
L 297.80339 112.429872 
L 298.024076 109.909205 
L 298.244763 111.067899 
L 298.686137 170.669488 
L 298.906823 94.866512 
L 299.12751 58.947 
L 299.348197 97.77341 
L 299.568883 112.999055 
L 299.78957 99.115056 
L 300.230944 181.057077 
L 300.672317 118.101374 
L 300.893004 89.520257 
L 301.113691 136.172934 
L 301.334377 50.490567 
L 301.555064 162.070759 
L 301.775751 208.255892 
L 301.996438 223.84744 
L 302.217124 197.929287 
L 302.658498 178.394114 
L 302.879185 176.178366 
L 303.320558 214.476249 
L 303.541245 192.644016 
L 303.761932 148.044464 
L 303.982618 131.253566 
L 304.203305 135.278503 
L 304.423992 129.505362 
L 304.865365 187.887273 
L 305.086052 171.604574 
L 305.306739 130.155856 
L 305.527425 127.370925 
L 305.968799 111.535442 
L 306.410172 177.23542 
L 306.630859 149.18283 
L 306.851546 103.018025 
L 307.072233 98.525545 
L 307.292919 84.885482 
L 307.513606 102.347202 
L 307.95498 181.382324 
L 308.396353 96.472421 
L 308.61704 93.443554 
L 308.837727 83.645476 
L 309.058413 82.60875 
L 309.499787 169.104234 
L 309.720474 133.794562 
L 309.94116 78.522829 
L 310.161847 91.105838 
L 310.382534 72.973295 
L 310.60322 78.055286 
L 311.044594 156.195978 
L 311.265281 144.934286 
L 311.485967 77.608071 
L 311.927341 57.544371 
L 312.148028 67.03753 
L 312.589401 150.036605 
L 312.810088 123.102053 
L 313.030775 71.997553 
L 313.472148 50.612535 
L 313.692835 64.394894 
L 314.134208 148.2884 
L 314.354895 120.418762 
L 314.575582 62.199474 
L 314.796269 61.833571 
L 315.016955 72.343128 
L 315.237642 55.836822 
L 315.679016 145.340845 
L 315.899702 138.165074 
L 316.341076 67.870976 
L 316.561762 68.846718 
L 316.782449 66.488675 
L 317.003136 95.212087 
L 317.223823 139.831967 
L 317.444509 116.983336 
L 317.665196 62.158818 
L 317.885883 66.488675 
L 318.10657 67.220481 
L 318.327256 73.52215 
L 318.76863 141.905419 
L 318.989317 125.094193 
L 319.43069 57.280107 
L 319.651377 57.788306 
L 319.872064 51.242702 
L 320.313437 145.706748 
L 320.754811 62.036851 
L 320.975497 60.227662 
L 321.196184 68.846718 
L 321.416871 67.505073 
L 321.858244 162.253711 
L 322.078931 156.582209 
L 322.299618 107.225913 
L 322.520304 102.123595 
L 322.961678 77.526759 
L 323.182365 83.625148 
L 323.403051 149.995949 
L 323.623738 118.853509 
L 323.844425 61.792915 
L 324.065112 62.097834 
L 324.285798 60.065038 
L 324.506485 71.062466 
L 324.947859 159.631403 
L 325.168545 140.238526 
L 325.389232 75.839538 
L 325.609919 69.842789 
L 325.830606 80.230378 
L 326.051292 85.129417 
L 326.492666 167.904885 
L 326.713353 139.30344 
L 326.934039 81.958255 
L 327.154726 83.70646 
L 327.375413 88.178612 
L 327.5961 100.761621 
L 328.037473 176.015742 
L 328.25816 146.621507 
L 328.478846 98.566201 
L 328.699533 112.368888 
L 328.92022 111.169538 
L 329.58228 201.954224 
L 329.802967 173.169827 
L 330.023654 125.358457 
L 330.24434 110.214124 
L 330.465027 105.945252 
L 330.685714 110.193796 
L 331.127087 197.665023 
L 331.347774 176.422301 
L 331.568461 116.312513 
L 331.789148 115.479067 
L 332.009834 119.382036 
L 332.230521 132.107341 
L 332.671895 199.636836 
L 332.892581 171.177687 
L 333.113268 122.105983 
L 333.333955 115.560379 
L 333.554641 122.32959 
L 333.775328 122.248279 
L 334.216702 191.546306 
L 334.437388 173.210483 
L 334.658075 115.987266 
L 335.099449 128.834539 
L 335.320135 131.395862 
L 335.761509 202.88931 
L 335.982196 179.491824 
L 336.202882 133.103411 
L 336.423569 134.60768 
L 336.644256 117.694815 
L 336.864943 124.484355 
L 337.306316 204.576531 
L 337.527003 181.341669 
L 337.74769 125.419441 
L 338.189063 119.829251 
L 338.40975 124.423371 
L 338.851123 202.625046 
L 339.07181 180.162647 
L 339.292497 127.492893 
L 339.513183 123.203693 
L 339.73387 122.756478 
L 339.954557 119.361708 
L 340.175244 150.077261 
L 340.39593 201.852584 
L 340.616617 174.999344 
L 340.837304 131.050287 
L 341.057991 125.846328 
L 341.499364 141.559844 
L 341.940738 208.906387 
L 342.161424 185.02103 
L 342.382111 147.231346 
L 342.602798 142.169683 
L 342.823485 144.344775 
L 343.044171 150.58546 
L 343.485545 213.622475 
L 343.706232 191.546306 
L 343.926918 143.653624 
L 344.147605 144.487071 
L 344.368292 138.530977 
L 344.588979 144.89363 
L 345.030352 208.154252 
L 345.251039 187.236778 
L 345.471725 152.67924 
L 345.913099 143.125097 
L 346.133786 149.873981 
L 346.575159 212.504437 
L 347.237219 132.574884 
L 347.457906 119.524331 
L 347.678593 130.765695 
L 348.119966 194.188941 
L 348.340653 175.588855 
L 348.56134 130.135528 
L 348.782027 128.285684 
L 349.002713 129.891593 
L 349.2234 121.801063 
L 349.664774 193.152215 
L 349.88546 177.621651 
L 350.106147 136.11195 
L 350.326834 122.614182 
L 350.54752 124.951898 
L 350.768207 137.148676 
L 351.209581 223.400225 
L 351.430267 192.847296 
L 351.650954 127.757157 
L 351.871641 108.994446 
L 352.092328 115.905954 
L 352.313014 111.515114 
L 352.533701 135.888342 
L 352.754388 176.178366 
L 352.975075 151.906777 
L 353.195761 106.087548 
L 353.416448 109.848221 
L 353.637135 107.917064 
L 353.857822 113.141351 
L 354.078508 142.271323 
L 354.299195 192.562704 
L 354.740569 110.641011 
L 354.961255 109.624613 
L 355.181942 102.916385 
L 355.402629 107.286897 
L 355.844002 211.87427 
L 356.064689 196.018458 
L 356.285376 144.182151 
L 356.506062 130.481104 
L 356.726749 128.834539 
L 356.947436 117.572847 
L 357.168123 130.6234 
L 357.388809 150.646444 
L 357.609496 150.361852 
L 358.05087 85.292041 
L 358.271556 98.484889 
L 358.492243 90.028456 
L 358.933617 177.763947 
L 359.154303 151.906777 
L 359.37499 88.99173 
L 359.595677 97.224555 
L 359.816364 83.055965 
L 360.03705 94.68356 
L 360.478424 173.982946 
L 360.699111 152.191369 
L 360.919797 102.225234 
L 361.140484 86.836966 
L 361.361171 92.772731 
L 361.581858 95.395039 
L 362.023231 168.25046 
L 362.464604 99.37932 
L 363.126665 75.92085 
L 363.568038 160.729113 
L 364.009412 79.234308 
L 364.230098 79.254636 
L 364.450785 91.573382 
L 364.671472 91.857973 
L 365.112845 165.648481 
L 365.774906 91.796989 
L 365.995592 84.133347 
L 366.216279 81.836287 
L 366.657653 183.232169 
L 366.878339 149.304798 
L 367.099026 68.13524 
L 367.319713 69.680165 
L 367.761086 111.901345 
L 368.20246 166.217664 
L 368.423146 143.165753 
L 368.643833 80.901201 
L 368.86452 86.044176 
L 369.305893 100.944573 
L 369.747267 176.808533 
L 370.18864 88.178612 
L 370.630014 96.960292 
L 370.850701 111.962329 
L 371.071387 142.738866 
L 371.292074 192.054505 
L 371.733448 114.117093 
L 372.395508 146.275931 
L 372.836881 217.342492 
L 373.057568 199.29126 
L 373.278255 166.908814 
L 373.498941 174.979016 
L 373.719628 178.963297 
L 373.940315 191.464994 
L 374.381688 234.580605 
L 374.823062 203.438165 
L 375.043749 195.022388 
L 375.264435 195.408619 
L 375.485122 191.973193 
L 375.926496 239.093413 
L 376.147182 228.827791 
L 376.367869 181.361996 
L 376.588556 158.574349 
L 376.809243 149.792669 
L 377.029929 150.422836 
L 377.471303 205.897848 
L 377.69199 192.420409 
L 377.912676 137.412939 
L 378.133363 134.363745 
L 378.35405 139.486392 
L 378.574737 134.140137 
L 379.01611 207.950973 
L 379.236797 184.91939 
L 379.457483 148.349384 
L 379.67817 148.694959 
L 379.898857 153.898918 
L 380.119544 172.295725 
L 380.34023 201.059793 
L 380.560917 257.734155 
L 380.781604 234.580605 
L 381.002291 185.752837 
L 381.222977 185.427589 
L 381.443664 179.247888 
L 381.664351 180.548878 
L 381.885038 186.32202 
L 382.105724 208.011957 
L 382.326411 188.232848 
L 382.547098 135.989982 
L 382.767785 122.898773 
L 382.988471 119.605643 
L 383.209158 113.303975 
L 383.650532 190.550236 
L 383.871218 162.050431 
L 384.091905 107.835752 
L 384.312592 99.135384 
L 384.533278 97.793738 
L 384.753965 94.398969 
L 385.195339 176.910172 
L 385.416025 139.242456 
L 385.636712 79.071684 
L 385.857399 90.536655 
L 386.078086 69.558197 
L 386.298772 78.319549 
L 386.740146 173.576386 
L 387.181519 63.886695 
L 387.402206 69.375245 
L 387.622893 68.582455 
L 387.84358 82.771373 
L 388.284953 167.660949 
L 388.726327 55.328623 
L 388.947013 59.638151 
L 389.1677 60.552909 
L 389.388387 57.503715 
L 389.82976 158.127134 
L 390.271134 41.241344 
L 390.712507 63.256528 
L 390.933194 46.303007 
L 391.374567 157.557951 
L 391.595254 130.725039 
L 391.815941 39.859042 
L 392.036628 38.578381 
L 392.257314 56.995516 
L 392.478001 57.259779 
L 392.919375 157.212376 
L 393.360748 56.406005 
L 393.581435 51.283358 
L 393.802122 56.914204 
L 394.022808 69.659837 
L 394.464182 156.419585 
L 394.684869 126.374855 
L 394.905555 61.833571 
L 395.126242 53.397466 
L 395.346929 65.553588 
L 395.567616 66.407363 
L 396.008989 174.592785 
L 396.450362 72.973295 
L 396.671049 87.406149 
L 397.112423 74.355596 
L 397.553796 158.940253 
L 397.774483 129.078474 
L 397.99517 74.477564 
L 398.215856 66.326051 
L 398.436543 50.3686 
L 398.65723 57.402075 
L 399.098603 158.960581 
L 399.539977 62.179146 
L 399.98135 49.718105 
L 400.202037 60.776517 
L 400.643411 149.609717 
L 401.305471 54.149601 
L 401.526157 63.154889 
L 401.746844 89.459273 
L 402.188218 204.08866 
L 402.408904 205.28801 
L 403.291651 81.693991 
L 403.512338 102.184579 
L 403.733025 155.464171 
L 403.953712 125.521081 
L 404.174398 74.558876 
L 404.395085 139.892951 
L 404.615772 80.474314 
L 404.836459 76.429049 
L 405.057145 115.601034 
L 405.277832 180.772486 
L 405.719206 76.103801 
L 405.939892 68.196224 
L 406.381266 98.159642 
L 406.822639 183.862336 
L 407.043326 148.207088 
L 407.264013 83.726788 
L 407.484699 88.320907 
L 407.705386 88.300579 
L 407.926073 95.293399 
L 408.367446 192.90828 
L 409.029507 90.516327 
L 409.250193 109.035102 
L 409.47088 114.828572 
L 409.912254 198.051255 
L 410.13294 161.054361 
L 410.353627 101.879659 
L 410.574314 103.058681 
L 410.795001 107.673129 
L 411.015687 120.073186 
L 411.457061 200.836186 
L 411.677748 177.499683 
L 411.898434 116.271857 
L 412.119121 101.229164 
L 412.560495 121.272536 
L 413.001868 213.236243 
L 413.443241 124.972226 
L 413.663928 122.614182 
L 413.884615 160.302226 
L 414.105302 177.072796 
L 414.325988 182.134459 
L 414.546675 194.636157 
L 414.767362 171.218343 
L 414.988049 131.172255 
L 415.208735 136.640477 
L 415.429422 132.269965 
L 415.650109 135.80703 
L 416.091482 213.683458 
L 416.312169 183.679384 
L 416.532856 134.60768 
L 416.974229 118.670557 
L 417.194916 121.211552 
L 417.63629 206.751623 
L 417.856976 181.605932 
L 418.077663 118.853509 
L 418.29835 119.707283 
L 418.519036 115.377427 
L 418.739723 103.749832 
L 419.181097 198.925357 
L 419.401783 169.266858 
L 419.62247 121.740079 
L 420.063844 116.963008 
L 420.28453 128.448307 
L 420.725904 205.003418 
L 420.946591 253.851514 
L 421.167277 252.347245 
L 421.387964 143.104769 
L 421.608651 166.664879 
L 421.829338 207.158182 
L 422.491398 140.014919 
L 422.712085 132.229309 
L 422.932771 135.868014 
L 423.374145 210.065081 
L 423.594832 186.565955 
L 423.815518 143.369033 
L 424.036205 143.69428 
L 424.256892 141.519188 
L 424.477578 146.153964 
L 424.918952 210.918855 
L 425.139639 189.452526 
L 425.360325 147.942824 
L 425.581012 149.772341 
L 425.801699 140.726397 
L 426.022386 142.515258 
L 426.463759 217.017244 
L 426.684446 189.737117 
L 426.905133 141.071973 
L 427.125819 146.377571 
L 427.346506 129.830609 
L 427.567193 138.591961 
L 428.008566 208.560812 
L 428.229253 179.817071 
L 428.44994 129.993233 
L 428.670627 119.829251 
L 428.891313 118.04039 
L 429.112 129.159786 
L 429.553374 197.705679 
L 430.215434 108.05936 
L 430.43612 109.563629 
L 430.656807 128.163716 
L 431.098181 200.876841 
L 431.318867 173.210483 
L 431.539554 116.210873 
L 431.760241 108.140672 
L 431.980928 104.745902 
L 432.201614 119.788595 
L 432.422301 191.952865 
L 432.422301 191.952865 
" clip-path="url(#p81980175e5)" style="fill: none; stroke: #1f77b4; stroke-width: 1.5; stroke-linecap: square"/>
   </g>
   <g id="patch_3">
    <path d="M 63.290625 304.44375 
L 63.290625 25.918125 
" style="fill: none; stroke: #000000; stroke-width: 0.8; stroke-linejoin: miter; stroke-linecap: square"/>
   </g>
   <g id="patch_4">
    <path d="M 450 304.44375 
L 450 25.918125 
" style="fill: none; stroke: #000000; stroke-width: 0.8; stroke-linejoin: miter; stroke-linecap: square"/>
   </g>
   <g id="patch_5">
    <path d="M 63.290625 304.44375 
L 450 304.44375 
" style="fill: none; stroke: #000000; stroke-width: 0.8; stroke-linejoin: miter; stroke-linecap: square"/>
   </g>
   <g id="patch_6">
    <path d="M 63.290625 25.918125 
L 450 25.918125 
" style="fill: none; stroke: #000000; stroke-width: 0.8; stroke-linejoin: miter; stroke-linecap: square"/>
   </g>
   <g id="text_14">
    <!-- Total Starts by Day (9,037,574) -->
    <g transform="translate(151.035937 19.918125) scale(0.12 -0.12)">
     <defs>
      <path id="DejaVuSans-Bold-54" d="M 31 4666 
L 4331 4666 
L 4331 3756 
L 2784 3756 
L 2784 0 
L 1581 0 
L 1581 3756 
L 31 3756 
L 31 4666 
z
" transform="scale(0.015625)"/>
      <path id="DejaVuSans-Bold-6f" d="M 2203 2784 
Q 1831 2784 1636 2517 
Q 1441 2250 1441 1747 
Q 1441 1244 1636 976 
Q 1831 709 2203 709 
Q 2569 709 2762 976 
Q 2956 1244 2956 1747 
Q 2956 2250 2762 2517 
Q 2569 2784 2203 2784 
z
M 2203 3584 
Q 3106 3584 3614 3096 
Q 4122 2609 4122 1747 
Q 4122 884 3614 396 
Q 3106 -91 2203 -91 
Q 1297 -91 786 396 
Q 275 884 275 1747 
Q 275 2609 786 3096 
Q 1297 3584 2203 3584 
z
" transform="scale(0.015625)"/>
      <path id="DejaVuSans-Bold-6c" d="M 538 4863 
L 1656 4863 
L 1656 0 
L 538 0 
L 538 4863 
z
" transform="scale(0.015625)"/>
      <path id="DejaVuSans-Bold-62" d="M 2400 722 
Q 2759 722 2948 984 
Q 3138 1247 3138 1747 
Q 3138 2247 2948 2509 
Q 2759 2772 2400 2772 
Q 2041 2772 1848 2508 
Q 1656 2244 1656 1747 
Q 1656 1250 1848 986 
Q 2041 722 2400 722 
z
M 1656 2988 
Q 1888 3294 2169 3439 
Q 2450 3584 2816 3584 
Q 3463 3584 3878 3070 
Q 4294 2556 4294 1747 
Q 4294 938 3878 423 
Q 3463 -91 2816 -91 
Q 2450 -91 2169 54 
Q 1888 200 1656 506 
L 1656 0 
L 538 0 
L 538 4863 
L 1656 4863 
L 1656 2988 
z
" transform="scale(0.015625)"/>
      <path id="DejaVuSans-Bold-79" d="M 78 3500 
L 1197 3500 
L 2138 1125 
L 2938 3500 
L 4056 3500 
L 2584 -331 
Q 2363 -916 2067 -1148 
Q 1772 -1381 1288 -1381 
L 641 -1381 
L 641 -647 
L 991 -647 
Q 1275 -647 1404 -556 
Q 1534 -466 1606 -231 
L 1638 -134 
L 78 3500 
z
" transform="scale(0.015625)"/>
      <path id="DejaVuSans-Bold-44" d="M 1791 3756 
L 1791 909 
L 2222 909 
Q 2959 909 3348 1275 
Q 3738 1641 3738 2338 
Q 3738 3031 3350 3393 
Q 2963 3756 2222 3756 
L 1791 3756 
z
M 588 4666 
L 1856 4666 
Q 2919 4666 3439 4514 
Q 3959 4363 4331 4000 
Q 4659 3684 4818 3271 
Q 4978 2859 4978 2338 
Q 4978 1809 4818 1395 
Q 4659 981 4331 666 
Q 3956 303 3431 151 
Q 2906 0 1856 0 
L 588 0 
L 588 4666 
z
" transform="scale(0.015625)"/>
      <path id="DejaVuSans-Bold-28" d="M 2413 -844 
L 1484 -844 
Q 1006 -72 778 623 
Q 550 1319 550 2003 
Q 550 2688 779 3389 
Q 1009 4091 1484 4856 
L 2413 4856 
Q 2013 4116 1813 3408 
Q 1613 2700 1613 2009 
Q 1613 1319 1811 609 
Q 2009 -100 2413 -844 
z
" transform="scale(0.015625)"/>
      <path id="DejaVuSans-Bold-39" d="M 641 103 
L 641 966 
Q 928 831 1190 764 
Q 1453 697 1709 697 
Q 2247 697 2547 995 
Q 2847 1294 2900 1881 
Q 2688 1725 2447 1647 
Q 2206 1569 1925 1569 
Q 1209 1569 770 1986 
Q 331 2403 331 3084 
Q 331 3838 820 4291 
Q 1309 4744 2131 4744 
Q 3044 4744 3544 4128 
Q 4044 3513 4044 2388 
Q 4044 1231 3459 570 
Q 2875 -91 1856 -91 
Q 1528 -91 1228 -42 
Q 928 6 641 103 
z
M 2125 2350 
Q 2441 2350 2600 2554 
Q 2759 2759 2759 3169 
Q 2759 3575 2600 3781 
Q 2441 3988 2125 3988 
Q 1809 3988 1650 3781 
Q 1491 3575 1491 3169 
Q 1491 2759 1650 2554 
Q 1809 2350 2125 2350 
z
" transform="scale(0.015625)"/>
      <path id="DejaVuSans-Bold-2c" d="M 653 1209 
L 1778 1209 
L 1778 256 
L 1006 -909 
L 341 -909 
L 653 256 
L 653 1209 
z
" transform="scale(0.015625)"/>
      <path id="DejaVuSans-Bold-30" d="M 2944 2338 
Q 2944 3213 2780 3570 
Q 2616 3928 2228 3928 
Q 1841 3928 1675 3570 
Q 1509 3213 1509 2338 
Q 1509 1453 1675 1090 
Q 1841 728 2228 728 
Q 2613 728 2778 1090 
Q 2944 1453 2944 2338 
z
M 4147 2328 
Q 4147 1169 3647 539 
Q 3147 -91 2228 -91 
Q 1306 -91 806 539 
Q 306 1169 306 2328 
Q 306 3491 806 4120 
Q 1306 4750 2228 4750 
Q 3147 4750 3647 4120 
Q 4147 3491 4147 2328 
z
" transform="scale(0.015625)"/>
      <path id="DejaVuSans-Bold-33" d="M 2981 2516 
Q 3453 2394 3698 2092 
Q 3944 1791 3944 1325 
Q 3944 631 3412 270 
Q 2881 -91 1863 -91 
Q 1503 -91 1142 -33 
Q 781 25 428 141 
L 428 1069 
Q 766 900 1098 814 
Q 1431 728 1753 728 
Q 2231 728 2486 893 
Q 2741 1059 2741 1369 
Q 2741 1688 2480 1852 
Q 2219 2016 1709 2016 
L 1228 2016 
L 1228 2791 
L 1734 2791 
Q 2188 2791 2409 2933 
Q 2631 3075 2631 3366 
Q 2631 3634 2415 3781 
Q 2200 3928 1806 3928 
Q 1516 3928 1219 3862 
Q 922 3797 628 3669 
L 628 4550 
Q 984 4650 1334 4700 
Q 1684 4750 2022 4750 
Q 2931 4750 3382 4451 
Q 3834 4153 3834 3553 
Q 3834 3144 3618 2883 
Q 3403 2622 2981 2516 
z
" transform="scale(0.015625)"/>
      <path id="DejaVuSans-Bold-37" d="M 428 4666 
L 3944 4666 
L 3944 3988 
L 2125 0 
L 953 0 
L 2675 3781 
L 428 3781 
L 428 4666 
z
" transform="scale(0.015625)"/>
      <path id="DejaVuSans-Bold-35" d="M 678 4666 
L 3669 4666 
L 3669 3781 
L 1638 3781 
L 1638 3059 
Q 1775 3097 1914 3117 
Q 2053 3138 2203 3138 
Q 3056 3138 3531 2711 
Q 4006 2284 4006 1522 
Q 4006 766 3489 337 
Q 2972 -91 2053 -91 
Q 1656 -91 1267 -14 
Q 878 63 494 219 
L 494 1166 
Q 875 947 1217 837 
Q 1559 728 1863 728 
Q 2300 728 2551 942 
Q 2803 1156 2803 1522 
Q 2803 1891 2551 2103 
Q 2300 2316 1863 2316 
Q 1603 2316 1309 2248 
Q 1016 2181 678 2041 
L 678 4666 
z
" transform="scale(0.015625)"/>
      <path id="DejaVuSans-Bold-34" d="M 2356 3675 
L 1038 1722 
L 2356 1722 
L 2356 3675 
z
M 2156 4666 
L 3494 4666 
L 3494 1722 
L 4159 1722 
L 4159 850 
L 3494 850 
L 3494 0 
L 2356 0 
L 2356 850 
L 288 850 
L 288 1881 
L 2156 4666 
z
" transform="scale(0.015625)"/>
      <path id="DejaVuSans-Bold-29" d="M 513 -844 
Q 913 -100 1113 609 
Q 1313 1319 1313 2009 
Q 1313 2700 1113 3408 
Q 913 4116 513 4856 
L 1441 4856 
Q 1916 4091 2145 3389 
Q 2375 2688 2375 2003 
Q 2375 1319 2147 623 
Q 1919 -72 1441 -844 
L 513 -844 
z
" transform="scale(0.015625)"/>
     </defs>
     <use xlink:href="#DejaVuSans-Bold-54"/>
     <use xlink:href="#DejaVuSans-Bold-6f" x="54.962891"/>
     <use xlink:href="#DejaVuSans-Bold-74" x="123.664062"/>
     <use xlink:href="#DejaVuSans-Bold-61" x="171.466797"/>
     <use xlink:href="#DejaVuSans-Bold-6c" x="238.947266"/>
     <use xlink:href="#DejaVuSans-Bold-20" x="273.224609"/>
     <use xlink:href="#DejaVuSans-Bold-53" x="308.039062"/>
     <use xlink:href="#DejaVuSans-Bold-74" x="380.060547"/>
     <use xlink:href="#DejaVuSans-Bold-61" x="427.863281"/>
     <use xlink:href="#DejaVuSans-Bold-72" x="495.34375"/>
     <use xlink:href="#DejaVuSans-Bold-74" x="544.660156"/>
     <use xlink:href="#DejaVuSans-Bold-73" x="592.462891"/>
     <use xlink:href="#DejaVuSans-Bold-20" x="651.984375"/>
     <use xlink:href="#DejaVuSans-Bold-62" x="686.798828"/>
     <use xlink:href="#DejaVuSans-Bold-79" x="758.380859"/>
     <use xlink:href="#DejaVuSans-Bold-20" x="823.566406"/>
     <use xlink:href="#DejaVuSans-Bold-44" x="858.380859"/>
     <use xlink:href="#DejaVuSans-Bold-61" x="941.388672"/>
     <use xlink:href="#DejaVuSans-Bold-79" x="1005.744141"/>
     <use xlink:href="#DejaVuSans-Bold-20" x="1070.929688"/>
     <use xlink:href="#DejaVuSans-Bold-28" x="1105.744141"/>
     <use xlink:href="#DejaVuSans-Bold-39" x="1151.447266"/>
     <use xlink:href="#DejaVuSans-Bold-2c" x="1221.027344"/>
     <use xlink:href="#DejaVuSans-Bold-30" x="1259.015625"/>
     <use xlink:href="#DejaVuSans-Bold-33" x="1328.595703"/>
     <use xlink:href="#DejaVuSans-Bold-37" x="1398.175781"/>
     <use xlink:href="#DejaVuSans-Bold-2c" x="1467.755859"/>
     <use xlink:href="#DejaVuSans-Bold-35" x="1505.744141"/>
     <use xlink:href="#DejaVuSans-Bold-37" x="1575.324219"/>
     <use xlink:href="#DejaVuSans-Bold-34" x="1644.904297"/>
     <use xlink:href="#DejaVuSans-Bold-29" x="1714.484375"/>
    </g>
   </g>
  </g>
  <g id="patch_7">
   <path d="M 0 345.6 
L 460.8 345.6 
L 460.8 0 
L 0 0 
L 0 345.6 
z
" style="fill: none; stroke: #000000; stroke-width: 2; stroke-linejoin: miter"/>
  </g>
 </g>
 <defs>
  <clipPath id="p81980175e5">
   <rect x="63.290625" y="25.918125" width="386.709375" height="278.525625"/>
  </clipPath>
 </defs>
</svg>
