<?xml version="1.0" encoding="utf-8" standalone="no"?>
<!DOCTYPE svg PUBLIC "-//W3C//DTD SVG 1.1//EN"
  "http://www.w3.org/Graphics/SVG/1.1/DTD/svg11.dtd">
<svg xmlns:xlink="http://www.w3.org/1999/xlink" width="460.8pt" height="345.6pt" viewBox="0 0 460.8 345.6" xmlns="http://www.w3.org/2000/svg" version="1.1">
 <metadata>
  <rdf:RDF xmlns:dc="http://purl.org/dc/elements/1.1/" xmlns:cc="http://creativecommons.org/ns#" xmlns:rdf="http://www.w3.org/1999/02/22-rdf-syntax-ns#">
   <cc:Work>
    <dc:type rdf:resource="http://purl.org/dc/dcmitype/StillImage"/>
    <dc:date>2023-09-15T11:37:32.356286</dc:date>
    <dc:format>image/svg+xml</dc:format>
    <dc:creator>
     <cc:Agent>
      <dc:title>Matplotlib v3.8.0, https://matplotlib.org/</dc:title>
     </cc:Agent>
    </dc:creator>
   </cc:Work>
  </rdf:RDF>
 </metadata>
 <defs>
  <style type="text/css">*{stroke-linejoin: round; stroke-linecap: butt}</style>
 </defs>
 <g id="figure_1">
  <g id="patch_1">
   <path d="M 0 345.6 
L 460.8 345.6 
L 460.8 0 
L 0 0 
z
" style="fill: #ffffff"/>
  </g>
  <g id="axes_1">
   <g id="patch_2">
    <path d="M 56.928125 216.748437 
L 450 216.748437 
L 450 39.44925 
L 56.928125 39.44925 
z
" style="fill: #ffffff"/>
   </g>
   <g id="patch_3">
    <path d="M 63.479323 216.748437 
L 76.581719 216.748437 
L 76.581719 47.892068 
L 63.479323 47.892068 
z
" clip-path="url(#p90457677e1)" style="fill: #1f77b4"/>
   </g>
   <g id="patch_4">
    <path d="M 89.684115 216.748437 
L 102.78651 216.748437 
L 102.78651 81.449431 
L 89.684115 81.449431 
z
" clip-path="url(#p90457677e1)" style="fill: #1f77b4"/>
   </g>
   <g id="patch_5">
    <path d="M 115.888906 216.748437 
L 128.991302 216.748437 
L 128.991302 130.916459 
L 115.888906 130.916459 
z
" clip-path="url(#p90457677e1)" style="fill: #1f77b4"/>
   </g>
   <g id="patch_6">
    <path d="M 142.093698 216.748437 
L 155.196094 216.748437 
L 155.196094 140.542475 
L 142.093698 140.542475 
z
" clip-path="url(#p90457677e1)" style="fill: #1f77b4"/>
   </g>
   <g id="patch_7">
    <path d="M 168.29849 216.748437 
L 181.400885 216.748437 
L 181.400885 147.628293 
L 168.29849 147.628293 
z
" clip-path="url(#p90457677e1)" style="fill: #1f77b4"/>
   </g>
   <g id="patch_8">
    <path d="M 194.503281 216.748437 
L 207.605677 216.748437 
L 207.605677 158.323866 
L 194.503281 158.323866 
z
" clip-path="url(#p90457677e1)" style="fill: #1f77b4"/>
   </g>
   <g id="patch_9">
    <path d="M 220.708073 216.748437 
L 233.810469 216.748437 
L 233.810469 166.078157 
L 220.708073 166.078157 
z
" clip-path="url(#p90457677e1)" style="fill: #1f77b4"/>
   </g>
   <g id="patch_10">
    <path d="M 246.912865 216.748437 
L 260.01526 216.748437 
L 260.01526 167.816188 
L 246.912865 167.816188 
z
" clip-path="url(#p90457677e1)" style="fill: #1f77b4"/>
   </g>
   <g id="patch_11">
    <path d="M 273.117656 216.748437 
L 286.220052 216.748437 
L 286.220052 175.570479 
L 273.117656 175.570479 
z
" clip-path="url(#p90457677e1)" style="fill: #1f77b4"/>
   </g>
   <g id="patch_12">
    <path d="M 299.322448 216.748437 
L 312.424844 216.748437 
L 312.424844 175.704174 
L 299.322448 175.704174 
z
" clip-path="url(#p90457677e1)" style="fill: #1f77b4"/>
   </g>
   <g id="patch_13">
    <path d="M 325.52724 216.748437 
L 338.629635 216.748437 
L 338.629635 179.581319 
L 325.52724 179.581319 
z
" clip-path="url(#p90457677e1)" style="fill: #1f77b4"/>
   </g>
   <g id="patch_14">
    <path d="M 351.732031 216.748437 
L 364.834427 216.748437 
L 364.834427 183.458465 
L 351.732031 183.458465 
z
" clip-path="url(#p90457677e1)" style="fill: #1f77b4"/>
   </g>
   <g id="patch_15">
    <path d="M 377.936823 216.748437 
L 391.039219 216.748437 
L 391.039219 186.667137 
L 377.936823 186.667137 
z
" clip-path="url(#p90457677e1)" style="fill: #1f77b4"/>
   </g>
   <g id="patch_16">
    <path d="M 404.141615 216.748437 
L 417.24401 216.748437 
L 417.24401 186.800831 
L 404.141615 186.800831 
z
" clip-path="url(#p90457677e1)" style="fill: #1f77b4"/>
   </g>
   <g id="patch_17">
    <path d="M 430.346406 216.748437 
L 443.448802 216.748437 
L 443.448802 188.271473 
L 430.346406 188.271473 
z
" clip-path="url(#p90457677e1)" style="fill: #1f77b4"/>
   </g>
   <g id="matplotlib.axis_1">
    <g id="xtick_1">
     <g id="line2d_1">
      <defs>
       <path id="m6565cfb528" d="M 0 0 
L 0 3.5 
" style="stroke: #000000; stroke-width: 0.8"/>
      </defs>
      <g>
       <use xlink:href="#m6565cfb528" x="70.030521" y="216.748437" style="stroke: #000000; stroke-width: 0.8"/>
      </g>
     </g>
     <g id="text_1">
      <!-- Sci Rep -->
      <g transform="translate(72.789896 260.551562) rotate(-90) scale(0.1 -0.1)">
       <defs>
        <path id="DejaVuSans-53" d="M 3425 4513 
L 3425 3897 
Q 3066 4069 2747 4153 
Q 2428 4238 2131 4238 
Q 1616 4238 1336 4038 
Q 1056 3838 1056 3469 
Q 1056 3159 1242 3001 
Q 1428 2844 1947 2747 
L 2328 2669 
Q 3034 2534 3370 2195 
Q 3706 1856 3706 1288 
Q 3706 609 3251 259 
Q 2797 -91 1919 -91 
Q 1588 -91 1214 -16 
Q 841 59 441 206 
L 441 856 
Q 825 641 1194 531 
Q 1563 422 1919 422 
Q 2459 422 2753 634 
Q 3047 847 3047 1241 
Q 3047 1584 2836 1778 
Q 2625 1972 2144 2069 
L 1759 2144 
Q 1053 2284 737 2584 
Q 422 2884 422 3419 
Q 422 4038 858 4394 
Q 1294 4750 2059 4750 
Q 2388 4750 2728 4690 
Q 3069 4631 3425 4513 
z
" transform="scale(0.015625)"/>
        <path id="DejaVuSans-63" d="M 3122 3366 
L 3122 2828 
Q 2878 2963 2633 3030 
Q 2388 3097 2138 3097 
Q 1578 3097 1268 2742 
Q 959 2388 959 1747 
Q 959 1106 1268 751 
Q 1578 397 2138 397 
Q 2388 397 2633 464 
Q 2878 531 3122 666 
L 3122 134 
Q 2881 22 2623 -34 
Q 2366 -91 2075 -91 
Q 1284 -91 818 406 
Q 353 903 353 1747 
Q 353 2603 823 3093 
Q 1294 3584 2113 3584 
Q 2378 3584 2631 3529 
Q 2884 3475 3122 3366 
z
" transform="scale(0.015625)"/>
        <path id="DejaVuSans-69" d="M 603 3500 
L 1178 3500 
L 1178 0 
L 603 0 
L 603 3500 
z
M 603 4863 
L 1178 4863 
L 1178 4134 
L 603 4134 
L 603 4863 
z
" transform="scale(0.015625)"/>
        <path id="DejaVuSans-20" transform="scale(0.015625)"/>
        <path id="DejaVuSans-52" d="M 2841 2188 
Q 3044 2119 3236 1894 
Q 3428 1669 3622 1275 
L 4263 0 
L 3584 0 
L 2988 1197 
Q 2756 1666 2539 1819 
Q 2322 1972 1947 1972 
L 1259 1972 
L 1259 0 
L 628 0 
L 628 4666 
L 2053 4666 
Q 2853 4666 3247 4331 
Q 3641 3997 3641 3322 
Q 3641 2881 3436 2590 
Q 3231 2300 2841 2188 
z
M 1259 4147 
L 1259 2491 
L 2053 2491 
Q 2509 2491 2742 2702 
Q 2975 2913 2975 3322 
Q 2975 3731 2742 3939 
Q 2509 4147 2053 4147 
L 1259 4147 
z
" transform="scale(0.015625)"/>
        <path id="DejaVuSans-65" d="M 3597 1894 
L 3597 1613 
L 953 1613 
Q 991 1019 1311 708 
Q 1631 397 2203 397 
Q 2534 397 2845 478 
Q 3156 559 3463 722 
L 3463 178 
Q 3153 47 2828 -22 
Q 2503 -91 2169 -91 
Q 1331 -91 842 396 
Q 353 884 353 1716 
Q 353 2575 817 3079 
Q 1281 3584 2069 3584 
Q 2775 3584 3186 3129 
Q 3597 2675 3597 1894 
z
M 3022 2063 
Q 3016 2534 2758 2815 
Q 2500 3097 2075 3097 
Q 1594 3097 1305 2825 
Q 1016 2553 972 2059 
L 3022 2063 
z
" transform="scale(0.015625)"/>
        <path id="DejaVuSans-70" d="M 1159 525 
L 1159 -1331 
L 581 -1331 
L 581 3500 
L 1159 3500 
L 1159 2969 
Q 1341 3281 1617 3432 
Q 1894 3584 2278 3584 
Q 2916 3584 3314 3078 
Q 3713 2572 3713 1747 
Q 3713 922 3314 415 
Q 2916 -91 2278 -91 
Q 1894 -91 1617 61 
Q 1341 213 1159 525 
z
M 3116 1747 
Q 3116 2381 2855 2742 
Q 2594 3103 2138 3103 
Q 1681 3103 1420 2742 
Q 1159 2381 1159 1747 
Q 1159 1113 1420 752 
Q 1681 391 2138 391 
Q 2594 391 2855 752 
Q 3116 1113 3116 1747 
z
" transform="scale(0.015625)"/>
       </defs>
       <use xlink:href="#DejaVuSans-53"/>
       <use xlink:href="#DejaVuSans-63" x="63.476562"/>
       <use xlink:href="#DejaVuSans-69" x="118.457031"/>
       <use xlink:href="#DejaVuSans-20" x="146.240234"/>
       <use xlink:href="#DejaVuSans-52" x="178.027344"/>
       <use xlink:href="#DejaVuSans-65" x="243.009766"/>
       <use xlink:href="#DejaVuSans-70" x="304.533203"/>
      </g>
     </g>
    </g>
    <g id="xtick_2">
     <g id="line2d_2">
      <g>
       <use xlink:href="#m6565cfb528" x="96.235313" y="216.748437" style="stroke: #000000; stroke-width: 0.8"/>
      </g>
     </g>
     <g id="text_2">
      <!-- PLoS One -->
      <g transform="translate(98.994687 271.182812) rotate(-90) scale(0.1 -0.1)">
       <defs>
        <path id="DejaVuSans-50" d="M 1259 4147 
L 1259 2394 
L 2053 2394 
Q 2494 2394 2734 2622 
Q 2975 2850 2975 3272 
Q 2975 3691 2734 3919 
Q 2494 4147 2053 4147 
L 1259 4147 
z
M 628 4666 
L 2053 4666 
Q 2838 4666 3239 4311 
Q 3641 3956 3641 3272 
Q 3641 2581 3239 2228 
Q 2838 1875 2053 1875 
L 1259 1875 
L 1259 0 
L 628 0 
L 628 4666 
z
" transform="scale(0.015625)"/>
        <path id="DejaVuSans-4c" d="M 628 4666 
L 1259 4666 
L 1259 531 
L 3531 531 
L 3531 0 
L 628 0 
L 628 4666 
z
" transform="scale(0.015625)"/>
        <path id="DejaVuSans-6f" d="M 1959 3097 
Q 1497 3097 1228 2736 
Q 959 2375 959 1747 
Q 959 1119 1226 758 
Q 1494 397 1959 397 
Q 2419 397 2687 759 
Q 2956 1122 2956 1747 
Q 2956 2369 2687 2733 
Q 2419 3097 1959 3097 
z
M 1959 3584 
Q 2709 3584 3137 3096 
Q 3566 2609 3566 1747 
Q 3566 888 3137 398 
Q 2709 -91 1959 -91 
Q 1206 -91 779 398 
Q 353 888 353 1747 
Q 353 2609 779 3096 
Q 1206 3584 1959 3584 
z
" transform="scale(0.015625)"/>
        <path id="DejaVuSans-4f" d="M 2522 4238 
Q 1834 4238 1429 3725 
Q 1025 3213 1025 2328 
Q 1025 1447 1429 934 
Q 1834 422 2522 422 
Q 3209 422 3611 934 
Q 4013 1447 4013 2328 
Q 4013 3213 3611 3725 
Q 3209 4238 2522 4238 
z
M 2522 4750 
Q 3503 4750 4090 4092 
Q 4678 3434 4678 2328 
Q 4678 1225 4090 567 
Q 3503 -91 2522 -91 
Q 1538 -91 948 565 
Q 359 1222 359 2328 
Q 359 3434 948 4092 
Q 1538 4750 2522 4750 
z
" transform="scale(0.015625)"/>
        <path id="DejaVuSans-6e" d="M 3513 2113 
L 3513 0 
L 2938 0 
L 2938 2094 
Q 2938 2591 2744 2837 
Q 2550 3084 2163 3084 
Q 1697 3084 1428 2787 
Q 1159 2491 1159 1978 
L 1159 0 
L 581 0 
L 581 3500 
L 1159 3500 
L 1159 2956 
Q 1366 3272 1645 3428 
Q 1925 3584 2291 3584 
Q 2894 3584 3203 3211 
Q 3513 2838 3513 2113 
z
" transform="scale(0.015625)"/>
       </defs>
       <use xlink:href="#DejaVuSans-50"/>
       <use xlink:href="#DejaVuSans-4c" x="60.302734"/>
       <use xlink:href="#DejaVuSans-6f" x="114.265625"/>
       <use xlink:href="#DejaVuSans-53" x="175.447266"/>
       <use xlink:href="#DejaVuSans-20" x="238.923828"/>
       <use xlink:href="#DejaVuSans-4f" x="270.710938"/>
       <use xlink:href="#DejaVuSans-6e" x="349.421875"/>
       <use xlink:href="#DejaVuSans-65" x="412.800781"/>
      </g>
     </g>
    </g>
    <g id="xtick_3">
     <g id="line2d_3">
      <g>
       <use xlink:href="#m6565cfb528" x="122.440104" y="216.748437" style="stroke: #000000; stroke-width: 0.8"/>
      </g>
     </g>
     <g id="text_3">
      <!-- Int J Mol Sci -->
      <g transform="translate(125.199479 281.590625) rotate(-90) scale(0.1 -0.1)">
       <defs>
        <path id="DejaVuSans-49" d="M 628 4666 
L 1259 4666 
L 1259 0 
L 628 0 
L 628 4666 
z
" transform="scale(0.015625)"/>
        <path id="DejaVuSans-74" d="M 1172 4494 
L 1172 3500 
L 2356 3500 
L 2356 3053 
L 1172 3053 
L 1172 1153 
Q 1172 725 1289 603 
Q 1406 481 1766 481 
L 2356 481 
L 2356 0 
L 1766 0 
Q 1100 0 847 248 
Q 594 497 594 1153 
L 594 3053 
L 172 3053 
L 172 3500 
L 594 3500 
L 594 4494 
L 1172 4494 
z
" transform="scale(0.015625)"/>
        <path id="DejaVuSans-4a" d="M 628 4666 
L 1259 4666 
L 1259 325 
Q 1259 -519 939 -900 
Q 619 -1281 -91 -1281 
L -331 -1281 
L -331 -750 
L -134 -750 
Q 284 -750 456 -515 
Q 628 -281 628 325 
L 628 4666 
z
" transform="scale(0.015625)"/>
        <path id="DejaVuSans-4d" d="M 628 4666 
L 1569 4666 
L 2759 1491 
L 3956 4666 
L 4897 4666 
L 4897 0 
L 4281 0 
L 4281 4097 
L 3078 897 
L 2444 897 
L 1241 4097 
L 1241 0 
L 628 0 
L 628 4666 
z
" transform="scale(0.015625)"/>
        <path id="DejaVuSans-6c" d="M 603 4863 
L 1178 4863 
L 1178 0 
L 603 0 
L 603 4863 
z
" transform="scale(0.015625)"/>
       </defs>
       <use xlink:href="#DejaVuSans-49"/>
       <use xlink:href="#DejaVuSans-6e" x="29.492188"/>
       <use xlink:href="#DejaVuSans-74" x="92.871094"/>
       <use xlink:href="#DejaVuSans-20" x="132.080078"/>
       <use xlink:href="#DejaVuSans-4a" x="163.867188"/>
       <use xlink:href="#DejaVuSans-20" x="193.359375"/>
       <use xlink:href="#DejaVuSans-4d" x="225.146484"/>
       <use xlink:href="#DejaVuSans-6f" x="311.425781"/>
       <use xlink:href="#DejaVuSans-6c" x="372.607422"/>
       <use xlink:href="#DejaVuSans-20" x="400.390625"/>
       <use xlink:href="#DejaVuSans-53" x="432.177734"/>
       <use xlink:href="#DejaVuSans-63" x="495.654297"/>
       <use xlink:href="#DejaVuSans-69" x="550.634766"/>
      </g>
     </g>
    </g>
    <g id="xtick_4">
     <g id="line2d_4">
      <g>
       <use xlink:href="#m6565cfb528" x="148.644896" y="216.748437" style="stroke: #000000; stroke-width: 0.8"/>
      </g>
     </g>
     <g id="text_4">
      <!-- Front Genet -->
      <g transform="translate(151.404271 282.528125) rotate(-90) scale(0.1 -0.1)">
       <defs>
        <path id="DejaVuSans-46" d="M 628 4666 
L 3309 4666 
L 3309 4134 
L 1259 4134 
L 1259 2759 
L 3109 2759 
L 3109 2228 
L 1259 2228 
L 1259 0 
L 628 0 
L 628 4666 
z
" transform="scale(0.015625)"/>
        <path id="DejaVuSans-72" d="M 2631 2963 
Q 2534 3019 2420 3045 
Q 2306 3072 2169 3072 
Q 1681 3072 1420 2755 
Q 1159 2438 1159 1844 
L 1159 0 
L 581 0 
L 581 3500 
L 1159 3500 
L 1159 2956 
Q 1341 3275 1631 3429 
Q 1922 3584 2338 3584 
Q 2397 3584 2469 3576 
Q 2541 3569 2628 3553 
L 2631 2963 
z
" transform="scale(0.015625)"/>
        <path id="DejaVuSans-47" d="M 3809 666 
L 3809 1919 
L 2778 1919 
L 2778 2438 
L 4434 2438 
L 4434 434 
Q 4069 175 3628 42 
Q 3188 -91 2688 -91 
Q 1594 -91 976 548 
Q 359 1188 359 2328 
Q 359 3472 976 4111 
Q 1594 4750 2688 4750 
Q 3144 4750 3555 4637 
Q 3966 4525 4313 4306 
L 4313 3634 
Q 3963 3931 3569 4081 
Q 3175 4231 2741 4231 
Q 1884 4231 1454 3753 
Q 1025 3275 1025 2328 
Q 1025 1384 1454 906 
Q 1884 428 2741 428 
Q 3075 428 3337 486 
Q 3600 544 3809 666 
z
" transform="scale(0.015625)"/>
       </defs>
       <use xlink:href="#DejaVuSans-46"/>
       <use xlink:href="#DejaVuSans-72" x="50.269531"/>
       <use xlink:href="#DejaVuSans-6f" x="89.132812"/>
       <use xlink:href="#DejaVuSans-6e" x="150.314453"/>
       <use xlink:href="#DejaVuSans-74" x="213.693359"/>
       <use xlink:href="#DejaVuSans-20" x="252.902344"/>
       <use xlink:href="#DejaVuSans-47" x="284.689453"/>
       <use xlink:href="#DejaVuSans-65" x="362.179688"/>
       <use xlink:href="#DejaVuSans-6e" x="423.703125"/>
       <use xlink:href="#DejaVuSans-65" x="487.082031"/>
       <use xlink:href="#DejaVuSans-74" x="548.605469"/>
      </g>
     </g>
    </g>
    <g id="xtick_5">
     <g id="line2d_5">
      <g>
       <use xlink:href="#m6565cfb528" x="174.849687" y="216.748437" style="stroke: #000000; stroke-width: 0.8"/>
      </g>
     </g>
     <g id="text_5">
      <!-- BMC Genomics -->
      <g transform="translate(177.609062 298.982812) rotate(-90) scale(0.1 -0.1)">
       <defs>
        <path id="DejaVuSans-42" d="M 1259 2228 
L 1259 519 
L 2272 519 
Q 2781 519 3026 730 
Q 3272 941 3272 1375 
Q 3272 1813 3026 2020 
Q 2781 2228 2272 2228 
L 1259 2228 
z
M 1259 4147 
L 1259 2741 
L 2194 2741 
Q 2656 2741 2882 2914 
Q 3109 3088 3109 3444 
Q 3109 3797 2882 3972 
Q 2656 4147 2194 4147 
L 1259 4147 
z
M 628 4666 
L 2241 4666 
Q 2963 4666 3353 4366 
Q 3744 4066 3744 3513 
Q 3744 3084 3544 2831 
Q 3344 2578 2956 2516 
Q 3422 2416 3680 2098 
Q 3938 1781 3938 1306 
Q 3938 681 3513 340 
Q 3088 0 2303 0 
L 628 0 
L 628 4666 
z
" transform="scale(0.015625)"/>
        <path id="DejaVuSans-43" d="M 4122 4306 
L 4122 3641 
Q 3803 3938 3442 4084 
Q 3081 4231 2675 4231 
Q 1875 4231 1450 3742 
Q 1025 3253 1025 2328 
Q 1025 1406 1450 917 
Q 1875 428 2675 428 
Q 3081 428 3442 575 
Q 3803 722 4122 1019 
L 4122 359 
Q 3791 134 3420 21 
Q 3050 -91 2638 -91 
Q 1578 -91 968 557 
Q 359 1206 359 2328 
Q 359 3453 968 4101 
Q 1578 4750 2638 4750 
Q 3056 4750 3426 4639 
Q 3797 4528 4122 4306 
z
" transform="scale(0.015625)"/>
        <path id="DejaVuSans-6d" d="M 3328 2828 
Q 3544 3216 3844 3400 
Q 4144 3584 4550 3584 
Q 5097 3584 5394 3201 
Q 5691 2819 5691 2113 
L 5691 0 
L 5113 0 
L 5113 2094 
Q 5113 2597 4934 2840 
Q 4756 3084 4391 3084 
Q 3944 3084 3684 2787 
Q 3425 2491 3425 1978 
L 3425 0 
L 2847 0 
L 2847 2094 
Q 2847 2600 2669 2842 
Q 2491 3084 2119 3084 
Q 1678 3084 1418 2786 
Q 1159 2488 1159 1978 
L 1159 0 
L 581 0 
L 581 3500 
L 1159 3500 
L 1159 2956 
Q 1356 3278 1631 3431 
Q 1906 3584 2284 3584 
Q 2666 3584 2933 3390 
Q 3200 3197 3328 2828 
z
" transform="scale(0.015625)"/>
        <path id="DejaVuSans-73" d="M 2834 3397 
L 2834 2853 
Q 2591 2978 2328 3040 
Q 2066 3103 1784 3103 
Q 1356 3103 1142 2972 
Q 928 2841 928 2578 
Q 928 2378 1081 2264 
Q 1234 2150 1697 2047 
L 1894 2003 
Q 2506 1872 2764 1633 
Q 3022 1394 3022 966 
Q 3022 478 2636 193 
Q 2250 -91 1575 -91 
Q 1294 -91 989 -36 
Q 684 19 347 128 
L 347 722 
Q 666 556 975 473 
Q 1284 391 1588 391 
Q 1994 391 2212 530 
Q 2431 669 2431 922 
Q 2431 1156 2273 1281 
Q 2116 1406 1581 1522 
L 1381 1569 
Q 847 1681 609 1914 
Q 372 2147 372 2553 
Q 372 3047 722 3315 
Q 1072 3584 1716 3584 
Q 2034 3584 2315 3537 
Q 2597 3491 2834 3397 
z
" transform="scale(0.015625)"/>
       </defs>
       <use xlink:href="#DejaVuSans-42"/>
       <use xlink:href="#DejaVuSans-4d" x="68.603516"/>
       <use xlink:href="#DejaVuSans-43" x="154.882812"/>
       <use xlink:href="#DejaVuSans-20" x="224.707031"/>
       <use xlink:href="#DejaVuSans-47" x="256.494141"/>
       <use xlink:href="#DejaVuSans-65" x="333.984375"/>
       <use xlink:href="#DejaVuSans-6e" x="395.507812"/>
       <use xlink:href="#DejaVuSans-6f" x="458.886719"/>
       <use xlink:href="#DejaVuSans-6d" x="520.068359"/>
       <use xlink:href="#DejaVuSans-69" x="617.480469"/>
       <use xlink:href="#DejaVuSans-63" x="645.263672"/>
       <use xlink:href="#DejaVuSans-73" x="700.244141"/>
      </g>
     </g>
    </g>
    <g id="xtick_6">
     <g id="line2d_6">
      <g>
       <use xlink:href="#m6565cfb528" x="201.054479" y="216.748437" style="stroke: #000000; stroke-width: 0.8"/>
      </g>
     </g>
     <g id="text_6">
      <!-- Front Microbiol -->
      <g transform="translate(203.813854 297.148437) rotate(-90) scale(0.1 -0.1)">
       <defs>
        <path id="DejaVuSans-62" d="M 3116 1747 
Q 3116 2381 2855 2742 
Q 2594 3103 2138 3103 
Q 1681 3103 1420 2742 
Q 1159 2381 1159 1747 
Q 1159 1113 1420 752 
Q 1681 391 2138 391 
Q 2594 391 2855 752 
Q 3116 1113 3116 1747 
z
M 1159 2969 
Q 1341 3281 1617 3432 
Q 1894 3584 2278 3584 
Q 2916 3584 3314 3078 
Q 3713 2572 3713 1747 
Q 3713 922 3314 415 
Q 2916 -91 2278 -91 
Q 1894 -91 1617 61 
Q 1341 213 1159 525 
L 1159 0 
L 581 0 
L 581 4863 
L 1159 4863 
L 1159 2969 
z
" transform="scale(0.015625)"/>
       </defs>
       <use xlink:href="#DejaVuSans-46"/>
       <use xlink:href="#DejaVuSans-72" x="50.269531"/>
       <use xlink:href="#DejaVuSans-6f" x="89.132812"/>
       <use xlink:href="#DejaVuSans-6e" x="150.314453"/>
       <use xlink:href="#DejaVuSans-74" x="213.693359"/>
       <use xlink:href="#DejaVuSans-20" x="252.902344"/>
       <use xlink:href="#DejaVuSans-4d" x="284.689453"/>
       <use xlink:href="#DejaVuSans-69" x="370.96875"/>
       <use xlink:href="#DejaVuSans-63" x="398.751953"/>
       <use xlink:href="#DejaVuSans-72" x="453.732422"/>
       <use xlink:href="#DejaVuSans-6f" x="492.595703"/>
       <use xlink:href="#DejaVuSans-62" x="553.777344"/>
       <use xlink:href="#DejaVuSans-69" x="617.253906"/>
       <use xlink:href="#DejaVuSans-6f" x="645.037109"/>
       <use xlink:href="#DejaVuSans-6c" x="706.21875"/>
      </g>
     </g>
    </g>
    <g id="xtick_7">
     <g id="line2d_7">
      <g>
       <use xlink:href="#m6565cfb528" x="227.259271" y="216.748437" style="stroke: #000000; stroke-width: 0.8"/>
      </g>
     </g>
     <g id="text_7">
      <!-- Front Plant Sci -->
      <g transform="translate(230.018646 295.2125) rotate(-90) scale(0.1 -0.1)">
       <defs>
        <path id="DejaVuSans-61" d="M 2194 1759 
Q 1497 1759 1228 1600 
Q 959 1441 959 1056 
Q 959 750 1161 570 
Q 1363 391 1709 391 
Q 2188 391 2477 730 
Q 2766 1069 2766 1631 
L 2766 1759 
L 2194 1759 
z
M 3341 1997 
L 3341 0 
L 2766 0 
L 2766 531 
Q 2569 213 2275 61 
Q 1981 -91 1556 -91 
Q 1019 -91 701 211 
Q 384 513 384 1019 
Q 384 1609 779 1909 
Q 1175 2209 1959 2209 
L 2766 2209 
L 2766 2266 
Q 2766 2663 2505 2880 
Q 2244 3097 1772 3097 
Q 1472 3097 1187 3025 
Q 903 2953 641 2809 
L 641 3341 
Q 956 3463 1253 3523 
Q 1550 3584 1831 3584 
Q 2591 3584 2966 3190 
Q 3341 2797 3341 1997 
z
" transform="scale(0.015625)"/>
       </defs>
       <use xlink:href="#DejaVuSans-46"/>
       <use xlink:href="#DejaVuSans-72" x="50.269531"/>
       <use xlink:href="#DejaVuSans-6f" x="89.132812"/>
       <use xlink:href="#DejaVuSans-6e" x="150.314453"/>
       <use xlink:href="#DejaVuSans-74" x="213.693359"/>
       <use xlink:href="#DejaVuSans-20" x="252.902344"/>
       <use xlink:href="#DejaVuSans-50" x="284.689453"/>
       <use xlink:href="#DejaVuSans-6c" x="344.992188"/>
       <use xlink:href="#DejaVuSans-61" x="372.775391"/>
       <use xlink:href="#DejaVuSans-6e" x="434.054688"/>
       <use xlink:href="#DejaVuSans-74" x="497.433594"/>
       <use xlink:href="#DejaVuSans-20" x="536.642578"/>
       <use xlink:href="#DejaVuSans-53" x="568.429688"/>
       <use xlink:href="#DejaVuSans-63" x="631.90625"/>
       <use xlink:href="#DejaVuSans-69" x="686.886719"/>
      </g>
     </g>
    </g>
    <g id="xtick_8">
     <g id="line2d_8">
      <g>
       <use xlink:href="#m6565cfb528" x="253.464062" y="216.748437" style="stroke: #000000; stroke-width: 0.8"/>
      </g>
     </g>
     <g id="text_8">
      <!-- Nat Commun -->
      <g transform="translate(256.223437 289.714062) rotate(-90) scale(0.1 -0.1)">
       <defs>
        <path id="DejaVuSans-4e" d="M 628 4666 
L 1478 4666 
L 3547 763 
L 3547 4666 
L 4159 4666 
L 4159 0 
L 3309 0 
L 1241 3903 
L 1241 0 
L 628 0 
L 628 4666 
z
" transform="scale(0.015625)"/>
        <path id="DejaVuSans-75" d="M 544 1381 
L 544 3500 
L 1119 3500 
L 1119 1403 
Q 1119 906 1312 657 
Q 1506 409 1894 409 
Q 2359 409 2629 706 
Q 2900 1003 2900 1516 
L 2900 3500 
L 3475 3500 
L 3475 0 
L 2900 0 
L 2900 538 
Q 2691 219 2414 64 
Q 2138 -91 1772 -91 
Q 1169 -91 856 284 
Q 544 659 544 1381 
z
M 1991 3584 
L 1991 3584 
z
" transform="scale(0.015625)"/>
       </defs>
       <use xlink:href="#DejaVuSans-4e"/>
       <use xlink:href="#DejaVuSans-61" x="74.804688"/>
       <use xlink:href="#DejaVuSans-74" x="136.083984"/>
       <use xlink:href="#DejaVuSans-20" x="175.292969"/>
       <use xlink:href="#DejaVuSans-43" x="207.080078"/>
       <use xlink:href="#DejaVuSans-6f" x="276.904297"/>
       <use xlink:href="#DejaVuSans-6d" x="338.085938"/>
       <use xlink:href="#DejaVuSans-6d" x="435.498047"/>
       <use xlink:href="#DejaVuSans-75" x="532.910156"/>
       <use xlink:href="#DejaVuSans-6e" x="596.289062"/>
      </g>
     </g>
    </g>
    <g id="xtick_9">
     <g id="line2d_9">
      <g>
       <use xlink:href="#m6565cfb528" x="279.668854" y="216.748437" style="stroke: #000000; stroke-width: 0.8"/>
      </g>
     </g>
     <g id="text_9">
      <!-- BMC Bioinformatics -->
      <g transform="translate(282.428229 321.121875) rotate(-90) scale(0.1 -0.1)">
       <defs>
        <path id="DejaVuSans-66" d="M 2375 4863 
L 2375 4384 
L 1825 4384 
Q 1516 4384 1395 4259 
Q 1275 4134 1275 3809 
L 1275 3500 
L 2222 3500 
L 2222 3053 
L 1275 3053 
L 1275 0 
L 697 0 
L 697 3053 
L 147 3053 
L 147 3500 
L 697 3500 
L 697 3744 
Q 697 4328 969 4595 
Q 1241 4863 1831 4863 
L 2375 4863 
z
" transform="scale(0.015625)"/>
       </defs>
       <use xlink:href="#DejaVuSans-42"/>
       <use xlink:href="#DejaVuSans-4d" x="68.603516"/>
       <use xlink:href="#DejaVuSans-43" x="154.882812"/>
       <use xlink:href="#DejaVuSans-20" x="224.707031"/>
       <use xlink:href="#DejaVuSans-42" x="256.494141"/>
       <use xlink:href="#DejaVuSans-69" x="325.097656"/>
       <use xlink:href="#DejaVuSans-6f" x="352.880859"/>
       <use xlink:href="#DejaVuSans-69" x="414.0625"/>
       <use xlink:href="#DejaVuSans-6e" x="441.845703"/>
       <use xlink:href="#DejaVuSans-66" x="505.224609"/>
       <use xlink:href="#DejaVuSans-6f" x="540.429688"/>
       <use xlink:href="#DejaVuSans-72" x="601.611328"/>
       <use xlink:href="#DejaVuSans-6d" x="640.974609"/>
       <use xlink:href="#DejaVuSans-61" x="738.386719"/>
       <use xlink:href="#DejaVuSans-74" x="799.666016"/>
       <use xlink:href="#DejaVuSans-69" x="838.875"/>
       <use xlink:href="#DejaVuSans-63" x="866.658203"/>
       <use xlink:href="#DejaVuSans-73" x="921.638672"/>
      </g>
     </g>
    </g>
    <g id="xtick_10">
     <g id="line2d_10">
      <g>
       <use xlink:href="#m6565cfb528" x="305.873646" y="216.748437" style="stroke: #000000; stroke-width: 0.8"/>
      </g>
     </g>
     <g id="text_10">
      <!-- Nucleic Acids Res -->
      <g transform="translate(308.633021 310.990625) rotate(-90) scale(0.1 -0.1)">
       <defs>
        <path id="DejaVuSans-41" d="M 2188 4044 
L 1331 1722 
L 3047 1722 
L 2188 4044 
z
M 1831 4666 
L 2547 4666 
L 4325 0 
L 3669 0 
L 3244 1197 
L 1141 1197 
L 716 0 
L 50 0 
L 1831 4666 
z
" transform="scale(0.015625)"/>
        <path id="DejaVuSans-64" d="M 2906 2969 
L 2906 4863 
L 3481 4863 
L 3481 0 
L 2906 0 
L 2906 525 
Q 2725 213 2448 61 
Q 2172 -91 1784 -91 
Q 1150 -91 751 415 
Q 353 922 353 1747 
Q 353 2572 751 3078 
Q 1150 3584 1784 3584 
Q 2172 3584 2448 3432 
Q 2725 3281 2906 2969 
z
M 947 1747 
Q 947 1113 1208 752 
Q 1469 391 1925 391 
Q 2381 391 2643 752 
Q 2906 1113 2906 1747 
Q 2906 2381 2643 2742 
Q 2381 3103 1925 3103 
Q 1469 3103 1208 2742 
Q 947 2381 947 1747 
z
" transform="scale(0.015625)"/>
       </defs>
       <use xlink:href="#DejaVuSans-4e"/>
       <use xlink:href="#DejaVuSans-75" x="74.804688"/>
       <use xlink:href="#DejaVuSans-63" x="138.183594"/>
       <use xlink:href="#DejaVuSans-6c" x="193.164062"/>
       <use xlink:href="#DejaVuSans-65" x="220.947266"/>
       <use xlink:href="#DejaVuSans-69" x="282.470703"/>
       <use xlink:href="#DejaVuSans-63" x="310.253906"/>
       <use xlink:href="#DejaVuSans-20" x="365.234375"/>
       <use xlink:href="#DejaVuSans-41" x="397.021484"/>
       <use xlink:href="#DejaVuSans-63" x="463.679688"/>
       <use xlink:href="#DejaVuSans-69" x="518.660156"/>
       <use xlink:href="#DejaVuSans-64" x="546.443359"/>
       <use xlink:href="#DejaVuSans-73" x="609.919922"/>
       <use xlink:href="#DejaVuSans-20" x="662.019531"/>
       <use xlink:href="#DejaVuSans-52" x="693.806641"/>
       <use xlink:href="#DejaVuSans-65" x="758.789062"/>
       <use xlink:href="#DejaVuSans-73" x="820.3125"/>
      </g>
     </g>
    </g>
    <g id="xtick_11">
     <g id="line2d_11">
      <g>
       <use xlink:href="#m6565cfb528" x="332.078437" y="216.748437" style="stroke: #000000; stroke-width: 0.8"/>
      </g>
     </g>
     <g id="text_11">
      <!-- Front Immunol -->
      <g transform="translate(334.837812 296.21875) rotate(-90) scale(0.1 -0.1)">
       <use xlink:href="#DejaVuSans-46"/>
       <use xlink:href="#DejaVuSans-72" x="50.269531"/>
       <use xlink:href="#DejaVuSans-6f" x="89.132812"/>
       <use xlink:href="#DejaVuSans-6e" x="150.314453"/>
       <use xlink:href="#DejaVuSans-74" x="213.693359"/>
       <use xlink:href="#DejaVuSans-20" x="252.902344"/>
       <use xlink:href="#DejaVuSans-49" x="284.689453"/>
       <use xlink:href="#DejaVuSans-6d" x="314.181641"/>
       <use xlink:href="#DejaVuSans-6d" x="411.59375"/>
       <use xlink:href="#DejaVuSans-75" x="509.005859"/>
       <use xlink:href="#DejaVuSans-6e" x="572.384766"/>
       <use xlink:href="#DejaVuSans-6f" x="635.763672"/>
       <use xlink:href="#DejaVuSans-6c" x="696.945312"/>
      </g>
     </g>
    </g>
    <g id="xtick_12">
     <g id="line2d_12">
      <g>
       <use xlink:href="#m6565cfb528" x="358.283229" y="216.748437" style="stroke: #000000; stroke-width: 0.8"/>
      </g>
     </g>
     <g id="text_12">
      <!-- Biomed Res Int -->
      <g transform="translate(361.042604 299.173437) rotate(-90) scale(0.1 -0.1)">
       <use xlink:href="#DejaVuSans-42"/>
       <use xlink:href="#DejaVuSans-69" x="68.603516"/>
       <use xlink:href="#DejaVuSans-6f" x="96.386719"/>
       <use xlink:href="#DejaVuSans-6d" x="157.568359"/>
       <use xlink:href="#DejaVuSans-65" x="254.980469"/>
       <use xlink:href="#DejaVuSans-64" x="316.503906"/>
       <use xlink:href="#DejaVuSans-20" x="379.980469"/>
       <use xlink:href="#DejaVuSans-52" x="411.767578"/>
       <use xlink:href="#DejaVuSans-65" x="476.75"/>
       <use xlink:href="#DejaVuSans-73" x="538.273438"/>
       <use xlink:href="#DejaVuSans-20" x="590.373047"/>
       <use xlink:href="#DejaVuSans-49" x="622.160156"/>
       <use xlink:href="#DejaVuSans-6e" x="651.652344"/>
       <use xlink:href="#DejaVuSans-74" x="715.03125"/>
      </g>
     </g>
    </g>
    <g id="xtick_13">
     <g id="line2d_13">
      <g>
       <use xlink:href="#m6565cfb528" x="384.488021" y="216.748437" style="stroke: #000000; stroke-width: 0.8"/>
      </g>
     </g>
     <g id="text_13">
      <!-- PeerJ -->
      <g transform="translate(387.247396 248.782812) rotate(-90) scale(0.1 -0.1)">
       <use xlink:href="#DejaVuSans-50"/>
       <use xlink:href="#DejaVuSans-65" x="56.677734"/>
       <use xlink:href="#DejaVuSans-65" x="118.201172"/>
       <use xlink:href="#DejaVuSans-72" x="179.724609"/>
       <use xlink:href="#DejaVuSans-4a" x="220.837891"/>
      </g>
     </g>
    </g>
    <g id="xtick_14">
     <g id="line2d_14">
      <g>
       <use xlink:href="#m6565cfb528" x="410.692812" y="216.748437" style="stroke: #000000; stroke-width: 0.8"/>
      </g>
     </g>
     <g id="text_14">
      <!-- Genes (Basel) -->
      <g transform="translate(413.452187 293.460937) rotate(-90) scale(0.1 -0.1)">
       <defs>
        <path id="DejaVuSans-28" d="M 1984 4856 
Q 1566 4138 1362 3434 
Q 1159 2731 1159 2009 
Q 1159 1288 1364 580 
Q 1569 -128 1984 -844 
L 1484 -844 
Q 1016 -109 783 600 
Q 550 1309 550 2009 
Q 550 2706 781 3412 
Q 1013 4119 1484 4856 
L 1984 4856 
z
" transform="scale(0.015625)"/>
        <path id="DejaVuSans-29" d="M 513 4856 
L 1013 4856 
Q 1481 4119 1714 3412 
Q 1947 2706 1947 2009 
Q 1947 1309 1714 600 
Q 1481 -109 1013 -844 
L 513 -844 
Q 928 -128 1133 580 
Q 1338 1288 1338 2009 
Q 1338 2731 1133 3434 
Q 928 4138 513 4856 
z
" transform="scale(0.015625)"/>
       </defs>
       <use xlink:href="#DejaVuSans-47"/>
       <use xlink:href="#DejaVuSans-65" x="77.490234"/>
       <use xlink:href="#DejaVuSans-6e" x="139.013672"/>
       <use xlink:href="#DejaVuSans-65" x="202.392578"/>
       <use xlink:href="#DejaVuSans-73" x="263.916016"/>
       <use xlink:href="#DejaVuSans-20" x="316.015625"/>
       <use xlink:href="#DejaVuSans-28" x="347.802734"/>
       <use xlink:href="#DejaVuSans-42" x="386.816406"/>
       <use xlink:href="#DejaVuSans-61" x="455.419922"/>
       <use xlink:href="#DejaVuSans-73" x="516.699219"/>
       <use xlink:href="#DejaVuSans-65" x="568.798828"/>
       <use xlink:href="#DejaVuSans-6c" x="630.322266"/>
       <use xlink:href="#DejaVuSans-29" x="658.105469"/>
      </g>
     </g>
    </g>
    <g id="xtick_15">
     <g id="line2d_15">
      <g>
       <use xlink:href="#m6565cfb528" x="436.897604" y="216.748437" style="stroke: #000000; stroke-width: 0.8"/>
      </g>
     </g>
     <g id="text_15">
      <!-- Front Oncol -->
      <g transform="translate(439.656979 280.820312) rotate(-90) scale(0.1 -0.1)">
       <use xlink:href="#DejaVuSans-46"/>
       <use xlink:href="#DejaVuSans-72" x="50.269531"/>
       <use xlink:href="#DejaVuSans-6f" x="89.132812"/>
       <use xlink:href="#DejaVuSans-6e" x="150.314453"/>
       <use xlink:href="#DejaVuSans-74" x="213.693359"/>
       <use xlink:href="#DejaVuSans-20" x="252.902344"/>
       <use xlink:href="#DejaVuSans-4f" x="284.689453"/>
       <use xlink:href="#DejaVuSans-6e" x="363.400391"/>
       <use xlink:href="#DejaVuSans-63" x="426.779297"/>
       <use xlink:href="#DejaVuSans-6f" x="481.759766"/>
       <use xlink:href="#DejaVuSans-6c" x="542.941406"/>
      </g>
     </g>
    </g>
    <g id="text_16">
     <!-- Citation Venue -->
     <g transform="translate(216.869531 332.720312) scale(0.1 -0.1)">
      <defs>
       <path id="DejaVuSans-56" d="M 1831 0 
L 50 4666 
L 709 4666 
L 2188 738 
L 3669 4666 
L 4325 4666 
L 2547 0 
L 1831 0 
z
" transform="scale(0.015625)"/>
      </defs>
      <use xlink:href="#DejaVuSans-43"/>
      <use xlink:href="#DejaVuSans-69" x="69.824219"/>
      <use xlink:href="#DejaVuSans-74" x="97.607422"/>
      <use xlink:href="#DejaVuSans-61" x="136.816406"/>
      <use xlink:href="#DejaVuSans-74" x="198.095703"/>
      <use xlink:href="#DejaVuSans-69" x="237.304688"/>
      <use xlink:href="#DejaVuSans-6f" x="265.087891"/>
      <use xlink:href="#DejaVuSans-6e" x="326.269531"/>
      <use xlink:href="#DejaVuSans-20" x="389.648438"/>
      <use xlink:href="#DejaVuSans-56" x="421.435547"/>
      <use xlink:href="#DejaVuSans-65" x="482.09375"/>
      <use xlink:href="#DejaVuSans-6e" x="543.617188"/>
      <use xlink:href="#DejaVuSans-75" x="606.996094"/>
      <use xlink:href="#DejaVuSans-65" x="670.375"/>
     </g>
    </g>
   </g>
   <g id="matplotlib.axis_2">
    <g id="ytick_1">
     <g id="line2d_16">
      <defs>
       <path id="m894efad0cc" d="M 0 0 
L -3.5 0 
" style="stroke: #000000; stroke-width: 0.8"/>
      </defs>
      <g>
       <use xlink:href="#m894efad0cc" x="56.928125" y="216.748437" style="stroke: #000000; stroke-width: 0.8"/>
      </g>
     </g>
     <g id="text_17">
      <!-- 0 -->
      <g transform="translate(43.565625 220.547656) scale(0.1 -0.1)">
       <defs>
        <path id="DejaVuSans-30" d="M 2034 4250 
Q 1547 4250 1301 3770 
Q 1056 3291 1056 2328 
Q 1056 1369 1301 889 
Q 1547 409 2034 409 
Q 2525 409 2770 889 
Q 3016 1369 3016 2328 
Q 3016 3291 2770 3770 
Q 2525 4250 2034 4250 
z
M 2034 4750 
Q 2819 4750 3233 4129 
Q 3647 3509 3647 2328 
Q 3647 1150 3233 529 
Q 2819 -91 2034 -91 
Q 1250 -91 836 529 
Q 422 1150 422 2328 
Q 422 3509 836 4129 
Q 1250 4750 2034 4750 
z
" transform="scale(0.015625)"/>
       </defs>
       <use xlink:href="#DejaVuSans-30"/>
      </g>
     </g>
    </g>
    <g id="ytick_2">
     <g id="line2d_17">
      <g>
       <use xlink:href="#m894efad0cc" x="56.928125" y="190.009503" style="stroke: #000000; stroke-width: 0.8"/>
      </g>
     </g>
     <g id="text_18">
      <!-- 200 -->
      <g transform="translate(30.840625 193.808722) scale(0.1 -0.1)">
       <defs>
        <path id="DejaVuSans-32" d="M 1228 531 
L 3431 531 
L 3431 0 
L 469 0 
L 469 531 
Q 828 903 1448 1529 
Q 2069 2156 2228 2338 
Q 2531 2678 2651 2914 
Q 2772 3150 2772 3378 
Q 2772 3750 2511 3984 
Q 2250 4219 1831 4219 
Q 1534 4219 1204 4116 
Q 875 4013 500 3803 
L 500 4441 
Q 881 4594 1212 4672 
Q 1544 4750 1819 4750 
Q 2544 4750 2975 4387 
Q 3406 4025 3406 3419 
Q 3406 3131 3298 2873 
Q 3191 2616 2906 2266 
Q 2828 2175 2409 1742 
Q 1991 1309 1228 531 
z
" transform="scale(0.015625)"/>
       </defs>
       <use xlink:href="#DejaVuSans-32"/>
       <use xlink:href="#DejaVuSans-30" x="63.623047"/>
       <use xlink:href="#DejaVuSans-30" x="127.246094"/>
      </g>
     </g>
    </g>
    <g id="ytick_3">
     <g id="line2d_18">
      <g>
       <use xlink:href="#m894efad0cc" x="56.928125" y="163.270569" style="stroke: #000000; stroke-width: 0.8"/>
      </g>
     </g>
     <g id="text_19">
      <!-- 400 -->
      <g transform="translate(30.840625 167.069788) scale(0.1 -0.1)">
       <defs>
        <path id="DejaVuSans-34" d="M 2419 4116 
L 825 1625 
L 2419 1625 
L 2419 4116 
z
M 2253 4666 
L 3047 4666 
L 3047 1625 
L 3713 1625 
L 3713 1100 
L 3047 1100 
L 3047 0 
L 2419 0 
L 2419 1100 
L 313 1100 
L 313 1709 
L 2253 4666 
z
" transform="scale(0.015625)"/>
       </defs>
       <use xlink:href="#DejaVuSans-34"/>
       <use xlink:href="#DejaVuSans-30" x="63.623047"/>
       <use xlink:href="#DejaVuSans-30" x="127.246094"/>
      </g>
     </g>
    </g>
    <g id="ytick_4">
     <g id="line2d_19">
      <g>
       <use xlink:href="#m894efad0cc" x="56.928125" y="136.531635" style="stroke: #000000; stroke-width: 0.8"/>
      </g>
     </g>
     <g id="text_20">
      <!-- 600 -->
      <g transform="translate(30.840625 140.330854) scale(0.1 -0.1)">
       <defs>
        <path id="DejaVuSans-36" d="M 2113 2584 
Q 1688 2584 1439 2293 
Q 1191 2003 1191 1497 
Q 1191 994 1439 701 
Q 1688 409 2113 409 
Q 2538 409 2786 701 
Q 3034 994 3034 1497 
Q 3034 2003 2786 2293 
Q 2538 2584 2113 2584 
z
M 3366 4563 
L 3366 3988 
Q 3128 4100 2886 4159 
Q 2644 4219 2406 4219 
Q 1781 4219 1451 3797 
Q 1122 3375 1075 2522 
Q 1259 2794 1537 2939 
Q 1816 3084 2150 3084 
Q 2853 3084 3261 2657 
Q 3669 2231 3669 1497 
Q 3669 778 3244 343 
Q 2819 -91 2113 -91 
Q 1303 -91 875 529 
Q 447 1150 447 2328 
Q 447 3434 972 4092 
Q 1497 4750 2381 4750 
Q 2619 4750 2861 4703 
Q 3103 4656 3366 4563 
z
" transform="scale(0.015625)"/>
       </defs>
       <use xlink:href="#DejaVuSans-36"/>
       <use xlink:href="#DejaVuSans-30" x="63.623047"/>
       <use xlink:href="#DejaVuSans-30" x="127.246094"/>
      </g>
     </g>
    </g>
    <g id="ytick_5">
     <g id="line2d_20">
      <g>
       <use xlink:href="#m894efad0cc" x="56.928125" y="109.792701" style="stroke: #000000; stroke-width: 0.8"/>
      </g>
     </g>
     <g id="text_21">
      <!-- 800 -->
      <g transform="translate(30.840625 113.59192) scale(0.1 -0.1)">
       <defs>
        <path id="DejaVuSans-38" d="M 2034 2216 
Q 1584 2216 1326 1975 
Q 1069 1734 1069 1313 
Q 1069 891 1326 650 
Q 1584 409 2034 409 
Q 2484 409 2743 651 
Q 3003 894 3003 1313 
Q 3003 1734 2745 1975 
Q 2488 2216 2034 2216 
z
M 1403 2484 
Q 997 2584 770 2862 
Q 544 3141 544 3541 
Q 544 4100 942 4425 
Q 1341 4750 2034 4750 
Q 2731 4750 3128 4425 
Q 3525 4100 3525 3541 
Q 3525 3141 3298 2862 
Q 3072 2584 2669 2484 
Q 3125 2378 3379 2068 
Q 3634 1759 3634 1313 
Q 3634 634 3220 271 
Q 2806 -91 2034 -91 
Q 1263 -91 848 271 
Q 434 634 434 1313 
Q 434 1759 690 2068 
Q 947 2378 1403 2484 
z
M 1172 3481 
Q 1172 3119 1398 2916 
Q 1625 2713 2034 2713 
Q 2441 2713 2670 2916 
Q 2900 3119 2900 3481 
Q 2900 3844 2670 4047 
Q 2441 4250 2034 4250 
Q 1625 4250 1398 4047 
Q 1172 3844 1172 3481 
z
" transform="scale(0.015625)"/>
       </defs>
       <use xlink:href="#DejaVuSans-38"/>
       <use xlink:href="#DejaVuSans-30" x="63.623047"/>
       <use xlink:href="#DejaVuSans-30" x="127.246094"/>
      </g>
     </g>
    </g>
    <g id="ytick_6">
     <g id="line2d_21">
      <g>
       <use xlink:href="#m894efad0cc" x="56.928125" y="83.053767" style="stroke: #000000; stroke-width: 0.8"/>
      </g>
     </g>
     <g id="text_22">
      <!-- 1000 -->
      <g transform="translate(24.478125 86.852986) scale(0.1 -0.1)">
       <defs>
        <path id="DejaVuSans-31" d="M 794 531 
L 1825 531 
L 1825 4091 
L 703 3866 
L 703 4441 
L 1819 4666 
L 2450 4666 
L 2450 531 
L 3481 531 
L 3481 0 
L 794 0 
L 794 531 
z
" transform="scale(0.015625)"/>
       </defs>
       <use xlink:href="#DejaVuSans-31"/>
       <use xlink:href="#DejaVuSans-30" x="63.623047"/>
       <use xlink:href="#DejaVuSans-30" x="127.246094"/>
       <use xlink:href="#DejaVuSans-30" x="190.869141"/>
      </g>
     </g>
    </g>
    <g id="ytick_7">
     <g id="line2d_22">
      <g>
       <use xlink:href="#m894efad0cc" x="56.928125" y="56.314833" style="stroke: #000000; stroke-width: 0.8"/>
      </g>
     </g>
     <g id="text_23">
      <!-- 1200 -->
      <g transform="translate(24.478125 60.114051) scale(0.1 -0.1)">
       <use xlink:href="#DejaVuSans-31"/>
       <use xlink:href="#DejaVuSans-32" x="63.623047"/>
       <use xlink:href="#DejaVuSans-30" x="127.246094"/>
       <use xlink:href="#DejaVuSans-30" x="190.869141"/>
      </g>
     </g>
    </g>
    <g id="text_24">
     <!-- # Citations -->
     <g transform="translate(18.398438 155.964469) rotate(-90) scale(0.1 -0.1)">
      <defs>
       <path id="DejaVuSans-23" d="M 3272 2816 
L 2363 2816 
L 2100 1772 
L 3016 1772 
L 3272 2816 
z
M 2803 4594 
L 2478 3297 
L 3391 3297 
L 3719 4594 
L 4219 4594 
L 3897 3297 
L 4872 3297 
L 4872 2816 
L 3775 2816 
L 3519 1772 
L 4513 1772 
L 4513 1294 
L 3397 1294 
L 3072 0 
L 2572 0 
L 2894 1294 
L 1978 1294 
L 1656 0 
L 1153 0 
L 1478 1294 
L 494 1294 
L 494 1772 
L 1594 1772 
L 1856 2816 
L 850 2816 
L 850 3297 
L 1978 3297 
L 2297 4594 
L 2803 4594 
z
" transform="scale(0.015625)"/>
      </defs>
      <use xlink:href="#DejaVuSans-23"/>
      <use xlink:href="#DejaVuSans-20" x="83.789062"/>
      <use xlink:href="#DejaVuSans-43" x="115.576172"/>
      <use xlink:href="#DejaVuSans-69" x="185.400391"/>
      <use xlink:href="#DejaVuSans-74" x="213.183594"/>
      <use xlink:href="#DejaVuSans-61" x="252.392578"/>
      <use xlink:href="#DejaVuSans-74" x="313.671875"/>
      <use xlink:href="#DejaVuSans-69" x="352.880859"/>
      <use xlink:href="#DejaVuSans-6f" x="380.664062"/>
      <use xlink:href="#DejaVuSans-6e" x="441.845703"/>
      <use xlink:href="#DejaVuSans-73" x="505.224609"/>
     </g>
    </g>
   </g>
   <g id="patch_18">
    <path d="M 56.928125 216.748437 
L 56.928125 39.44925 
" style="fill: none; stroke: #000000; stroke-width: 0.8; stroke-linejoin: miter; stroke-linecap: square"/>
   </g>
   <g id="patch_19">
    <path d="M 450 216.748437 
L 450 39.44925 
" style="fill: none; stroke: #000000; stroke-width: 0.8; stroke-linejoin: miter; stroke-linecap: square"/>
   </g>
   <g id="patch_20">
    <path d="M 56.928125 216.748437 
L 450 216.748437 
" style="fill: none; stroke: #000000; stroke-width: 0.8; stroke-linejoin: miter; stroke-linecap: square"/>
   </g>
   <g id="patch_21">
    <path d="M 56.928125 39.44925 
L 450 39.44925 
" style="fill: none; stroke: #000000; stroke-width: 0.8; stroke-linejoin: miter; stroke-linecap: square"/>
   </g>
   <g id="text_25">
    <!-- Top 15 of 1,695 Cytoscape Citation Venues -->
    <g transform="translate(109.049687 19.918125) scale(0.12 -0.12)">
     <defs>
      <path id="DejaVuSans-Bold-54" d="M 31 4666 
L 4331 4666 
L 4331 3756 
L 2784 3756 
L 2784 0 
L 1581 0 
L 1581 3756 
L 31 3756 
L 31 4666 
z
" transform="scale(0.015625)"/>
      <path id="DejaVuSans-Bold-6f" d="M 2203 2784 
Q 1831 2784 1636 2517 
Q 1441 2250 1441 1747 
Q 1441 1244 1636 976 
Q 1831 709 2203 709 
Q 2569 709 2762 976 
Q 2956 1244 2956 1747 
Q 2956 2250 2762 2517 
Q 2569 2784 2203 2784 
z
M 2203 3584 
Q 3106 3584 3614 3096 
Q 4122 2609 4122 1747 
Q 4122 884 3614 396 
Q 3106 -91 2203 -91 
Q 1297 -91 786 396 
Q 275 884 275 1747 
Q 275 2609 786 3096 
Q 1297 3584 2203 3584 
z
" transform="scale(0.015625)"/>
      <path id="DejaVuSans-Bold-70" d="M 1656 506 
L 1656 -1331 
L 538 -1331 
L 538 3500 
L 1656 3500 
L 1656 2988 
Q 1888 3294 2169 3439 
Q 2450 3584 2816 3584 
Q 3463 3584 3878 3070 
Q 4294 2556 4294 1747 
Q 4294 938 3878 423 
Q 3463 -91 2816 -91 
Q 2450 -91 2169 54 
Q 1888 200 1656 506 
z
M 2400 2772 
Q 2041 2772 1848 2508 
Q 1656 2244 1656 1747 
Q 1656 1250 1848 986 
Q 2041 722 2400 722 
Q 2759 722 2948 984 
Q 3138 1247 3138 1747 
Q 3138 2247 2948 2509 
Q 2759 2772 2400 2772 
z
" transform="scale(0.015625)"/>
      <path id="DejaVuSans-Bold-20" transform="scale(0.015625)"/>
      <path id="DejaVuSans-Bold-31" d="M 750 831 
L 1813 831 
L 1813 3847 
L 722 3622 
L 722 4441 
L 1806 4666 
L 2950 4666 
L 2950 831 
L 4013 831 
L 4013 0 
L 750 0 
L 750 831 
z
" transform="scale(0.015625)"/>
      <path id="DejaVuSans-Bold-35" d="M 678 4666 
L 3669 4666 
L 3669 3781 
L 1638 3781 
L 1638 3059 
Q 1775 3097 1914 3117 
Q 2053 3138 2203 3138 
Q 3056 3138 3531 2711 
Q 4006 2284 4006 1522 
Q 4006 766 3489 337 
Q 2972 -91 2053 -91 
Q 1656 -91 1267 -14 
Q 878 63 494 219 
L 494 1166 
Q 875 947 1217 837 
Q 1559 728 1863 728 
Q 2300 728 2551 942 
Q 2803 1156 2803 1522 
Q 2803 1891 2551 2103 
Q 2300 2316 1863 2316 
Q 1603 2316 1309 2248 
Q 1016 2181 678 2041 
L 678 4666 
z
" transform="scale(0.015625)"/>
      <path id="DejaVuSans-Bold-66" d="M 2841 4863 
L 2841 4128 
L 2222 4128 
Q 1984 4128 1890 4042 
Q 1797 3956 1797 3744 
L 1797 3500 
L 2753 3500 
L 2753 2700 
L 1797 2700 
L 1797 0 
L 678 0 
L 678 2700 
L 122 2700 
L 122 3500 
L 678 3500 
L 678 3744 
Q 678 4316 997 4589 
Q 1316 4863 1984 4863 
L 2841 4863 
z
" transform="scale(0.015625)"/>
      <path id="DejaVuSans-Bold-2c" d="M 653 1209 
L 1778 1209 
L 1778 256 
L 1006 -909 
L 341 -909 
L 653 256 
L 653 1209 
z
" transform="scale(0.015625)"/>
      <path id="DejaVuSans-Bold-36" d="M 2316 2303 
Q 2000 2303 1842 2098 
Q 1684 1894 1684 1484 
Q 1684 1075 1842 870 
Q 2000 666 2316 666 
Q 2634 666 2792 870 
Q 2950 1075 2950 1484 
Q 2950 1894 2792 2098 
Q 2634 2303 2316 2303 
z
M 3803 4544 
L 3803 3681 
Q 3506 3822 3243 3889 
Q 2981 3956 2731 3956 
Q 2194 3956 1894 3657 
Q 1594 3359 1544 2772 
Q 1750 2925 1990 3001 
Q 2231 3078 2516 3078 
Q 3231 3078 3670 2659 
Q 4109 2241 4109 1563 
Q 4109 813 3618 361 
Q 3128 -91 2303 -91 
Q 1394 -91 895 523 
Q 397 1138 397 2266 
Q 397 3422 980 4083 
Q 1563 4744 2578 4744 
Q 2900 4744 3203 4694 
Q 3506 4644 3803 4544 
z
" transform="scale(0.015625)"/>
      <path id="DejaVuSans-Bold-39" d="M 641 103 
L 641 966 
Q 928 831 1190 764 
Q 1453 697 1709 697 
Q 2247 697 2547 995 
Q 2847 1294 2900 1881 
Q 2688 1725 2447 1647 
Q 2206 1569 1925 1569 
Q 1209 1569 770 1986 
Q 331 2403 331 3084 
Q 331 3838 820 4291 
Q 1309 4744 2131 4744 
Q 3044 4744 3544 4128 
Q 4044 3513 4044 2388 
Q 4044 1231 3459 570 
Q 2875 -91 1856 -91 
Q 1528 -91 1228 -42 
Q 928 6 641 103 
z
M 2125 2350 
Q 2441 2350 2600 2554 
Q 2759 2759 2759 3169 
Q 2759 3575 2600 3781 
Q 2441 3988 2125 3988 
Q 1809 3988 1650 3781 
Q 1491 3575 1491 3169 
Q 1491 2759 1650 2554 
Q 1809 2350 2125 2350 
z
" transform="scale(0.015625)"/>
      <path id="DejaVuSans-Bold-43" d="M 4288 256 
Q 3956 84 3597 -3 
Q 3238 -91 2847 -91 
Q 1681 -91 1000 561 
Q 319 1213 319 2328 
Q 319 3447 1000 4098 
Q 1681 4750 2847 4750 
Q 3238 4750 3597 4662 
Q 3956 4575 4288 4403 
L 4288 3438 
Q 3953 3666 3628 3772 
Q 3303 3878 2944 3878 
Q 2300 3878 1931 3465 
Q 1563 3053 1563 2328 
Q 1563 1606 1931 1193 
Q 2300 781 2944 781 
Q 3303 781 3628 887 
Q 3953 994 4288 1222 
L 4288 256 
z
" transform="scale(0.015625)"/>
      <path id="DejaVuSans-Bold-79" d="M 78 3500 
L 1197 3500 
L 2138 1125 
L 2938 3500 
L 4056 3500 
L 2584 -331 
Q 2363 -916 2067 -1148 
Q 1772 -1381 1288 -1381 
L 641 -1381 
L 641 -647 
L 991 -647 
Q 1275 -647 1404 -556 
Q 1534 -466 1606 -231 
L 1638 -134 
L 78 3500 
z
" transform="scale(0.015625)"/>
      <path id="DejaVuSans-Bold-74" d="M 1759 4494 
L 1759 3500 
L 2913 3500 
L 2913 2700 
L 1759 2700 
L 1759 1216 
Q 1759 972 1856 886 
Q 1953 800 2241 800 
L 2816 800 
L 2816 0 
L 1856 0 
Q 1194 0 917 276 
Q 641 553 641 1216 
L 641 2700 
L 84 2700 
L 84 3500 
L 641 3500 
L 641 4494 
L 1759 4494 
z
" transform="scale(0.015625)"/>
      <path id="DejaVuSans-Bold-73" d="M 3272 3391 
L 3272 2541 
Q 2913 2691 2578 2766 
Q 2244 2841 1947 2841 
Q 1628 2841 1473 2761 
Q 1319 2681 1319 2516 
Q 1319 2381 1436 2309 
Q 1553 2238 1856 2203 
L 2053 2175 
Q 2913 2066 3209 1816 
Q 3506 1566 3506 1031 
Q 3506 472 3093 190 
Q 2681 -91 1863 -91 
Q 1516 -91 1145 -36 
Q 775 19 384 128 
L 384 978 
Q 719 816 1070 734 
Q 1422 653 1784 653 
Q 2113 653 2278 743 
Q 2444 834 2444 1013 
Q 2444 1163 2330 1236 
Q 2216 1309 1875 1350 
L 1678 1375 
Q 931 1469 631 1722 
Q 331 1975 331 2491 
Q 331 3047 712 3315 
Q 1094 3584 1881 3584 
Q 2191 3584 2531 3537 
Q 2872 3491 3272 3391 
z
" transform="scale(0.015625)"/>
      <path id="DejaVuSans-Bold-63" d="M 3366 3391 
L 3366 2478 
Q 3138 2634 2908 2709 
Q 2678 2784 2431 2784 
Q 1963 2784 1702 2511 
Q 1441 2238 1441 1747 
Q 1441 1256 1702 982 
Q 1963 709 2431 709 
Q 2694 709 2930 787 
Q 3166 866 3366 1019 
L 3366 103 
Q 3103 6 2833 -42 
Q 2563 -91 2291 -91 
Q 1344 -91 809 395 
Q 275 881 275 1747 
Q 275 2613 809 3098 
Q 1344 3584 2291 3584 
Q 2566 3584 2833 3536 
Q 3100 3488 3366 3391 
z
" transform="scale(0.015625)"/>
      <path id="DejaVuSans-Bold-61" d="M 2106 1575 
Q 1756 1575 1579 1456 
Q 1403 1338 1403 1106 
Q 1403 894 1545 773 
Q 1688 653 1941 653 
Q 2256 653 2472 879 
Q 2688 1106 2688 1447 
L 2688 1575 
L 2106 1575 
z
M 3816 1997 
L 3816 0 
L 2688 0 
L 2688 519 
Q 2463 200 2181 54 
Q 1900 -91 1497 -91 
Q 953 -91 614 226 
Q 275 544 275 1050 
Q 275 1666 698 1953 
Q 1122 2241 2028 2241 
L 2688 2241 
L 2688 2328 
Q 2688 2594 2478 2717 
Q 2269 2841 1825 2841 
Q 1466 2841 1156 2769 
Q 847 2697 581 2553 
L 581 3406 
Q 941 3494 1303 3539 
Q 1666 3584 2028 3584 
Q 2975 3584 3395 3211 
Q 3816 2838 3816 1997 
z
" transform="scale(0.015625)"/>
      <path id="DejaVuSans-Bold-65" d="M 4031 1759 
L 4031 1441 
L 1416 1441 
Q 1456 1047 1700 850 
Q 1944 653 2381 653 
Q 2734 653 3104 758 
Q 3475 863 3866 1075 
L 3866 213 
Q 3469 63 3072 -14 
Q 2675 -91 2278 -91 
Q 1328 -91 801 392 
Q 275 875 275 1747 
Q 275 2603 792 3093 
Q 1309 3584 2216 3584 
Q 3041 3584 3536 3087 
Q 4031 2591 4031 1759 
z
M 2881 2131 
Q 2881 2450 2695 2645 
Q 2509 2841 2209 2841 
Q 1884 2841 1681 2658 
Q 1478 2475 1428 2131 
L 2881 2131 
z
" transform="scale(0.015625)"/>
      <path id="DejaVuSans-Bold-69" d="M 538 3500 
L 1656 3500 
L 1656 0 
L 538 0 
L 538 3500 
z
M 538 4863 
L 1656 4863 
L 1656 3950 
L 538 3950 
L 538 4863 
z
" transform="scale(0.015625)"/>
      <path id="DejaVuSans-Bold-6e" d="M 4056 2131 
L 4056 0 
L 2931 0 
L 2931 347 
L 2931 1631 
Q 2931 2084 2911 2256 
Q 2891 2428 2841 2509 
Q 2775 2619 2662 2680 
Q 2550 2741 2406 2741 
Q 2056 2741 1856 2470 
Q 1656 2200 1656 1722 
L 1656 0 
L 538 0 
L 538 3500 
L 1656 3500 
L 1656 2988 
Q 1909 3294 2193 3439 
Q 2478 3584 2822 3584 
Q 3428 3584 3742 3212 
Q 4056 2841 4056 2131 
z
" transform="scale(0.015625)"/>
      <path id="DejaVuSans-Bold-56" d="M 31 4666 
L 1241 4666 
L 2478 1222 
L 3713 4666 
L 4922 4666 
L 3194 0 
L 1759 0 
L 31 4666 
z
" transform="scale(0.015625)"/>
      <path id="DejaVuSans-Bold-75" d="M 500 1363 
L 500 3500 
L 1625 3500 
L 1625 3150 
Q 1625 2866 1622 2436 
Q 1619 2006 1619 1863 
Q 1619 1441 1641 1255 
Q 1663 1069 1716 984 
Q 1784 875 1895 815 
Q 2006 756 2150 756 
Q 2500 756 2700 1025 
Q 2900 1294 2900 1772 
L 2900 3500 
L 4019 3500 
L 4019 0 
L 2900 0 
L 2900 506 
Q 2647 200 2364 54 
Q 2081 -91 1741 -91 
Q 1134 -91 817 281 
Q 500 653 500 1363 
z
" transform="scale(0.015625)"/>
     </defs>
     <use xlink:href="#DejaVuSans-Bold-54"/>
     <use xlink:href="#DejaVuSans-Bold-6f" x="54.962891"/>
     <use xlink:href="#DejaVuSans-Bold-70" x="123.664062"/>
     <use xlink:href="#DejaVuSans-Bold-20" x="195.246094"/>
     <use xlink:href="#DejaVuSans-Bold-31" x="230.060547"/>
     <use xlink:href="#DejaVuSans-Bold-35" x="299.640625"/>
     <use xlink:href="#DejaVuSans-Bold-20" x="369.220703"/>
     <use xlink:href="#DejaVuSans-Bold-6f" x="404.035156"/>
     <use xlink:href="#DejaVuSans-Bold-66" x="472.736328"/>
     <use xlink:href="#DejaVuSans-Bold-20" x="516.242188"/>
     <use xlink:href="#DejaVuSans-Bold-31" x="551.056641"/>
     <use xlink:href="#DejaVuSans-Bold-2c" x="620.636719"/>
     <use xlink:href="#DejaVuSans-Bold-36" x="658.625"/>
     <use xlink:href="#DejaVuSans-Bold-39" x="728.205078"/>
     <use xlink:href="#DejaVuSans-Bold-35" x="797.785156"/>
     <use xlink:href="#DejaVuSans-Bold-20" x="867.365234"/>
     <use xlink:href="#DejaVuSans-Bold-43" x="902.179688"/>
     <use xlink:href="#DejaVuSans-Bold-79" x="975.568359"/>
     <use xlink:href="#DejaVuSans-Bold-74" x="1040.753906"/>
     <use xlink:href="#DejaVuSans-Bold-6f" x="1088.556641"/>
     <use xlink:href="#DejaVuSans-Bold-73" x="1157.257812"/>
     <use xlink:href="#DejaVuSans-Bold-63" x="1216.779297"/>
     <use xlink:href="#DejaVuSans-Bold-61" x="1276.056641"/>
     <use xlink:href="#DejaVuSans-Bold-70" x="1343.537109"/>
     <use xlink:href="#DejaVuSans-Bold-65" x="1415.119141"/>
     <use xlink:href="#DejaVuSans-Bold-20" x="1482.941406"/>
     <use xlink:href="#DejaVuSans-Bold-43" x="1517.755859"/>
     <use xlink:href="#DejaVuSans-Bold-69" x="1591.144531"/>
     <use xlink:href="#DejaVuSans-Bold-74" x="1625.421875"/>
     <use xlink:href="#DejaVuSans-Bold-61" x="1673.224609"/>
     <use xlink:href="#DejaVuSans-Bold-74" x="1740.705078"/>
     <use xlink:href="#DejaVuSans-Bold-69" x="1788.507812"/>
     <use xlink:href="#DejaVuSans-Bold-6f" x="1822.785156"/>
     <use xlink:href="#DejaVuSans-Bold-6e" x="1891.486328"/>
     <use xlink:href="#DejaVuSans-Bold-20" x="1962.677734"/>
     <use xlink:href="#DejaVuSans-Bold-56" x="1997.492188"/>
     <use xlink:href="#DejaVuSans-Bold-65" x="2069.384766"/>
     <use xlink:href="#DejaVuSans-Bold-6e" x="2137.207031"/>
     <use xlink:href="#DejaVuSans-Bold-75" x="2208.398438"/>
     <use xlink:href="#DejaVuSans-Bold-65" x="2279.589844"/>
     <use xlink:href="#DejaVuSans-Bold-73" x="2347.412109"/>
    </g>
    <!-- (6,990 of 21,777 citations) -->
    <g transform="translate(163.43125 33.44925) scale(0.12 -0.12)">
     <defs>
      <path id="DejaVuSans-Bold-28" d="M 2413 -844 
L 1484 -844 
Q 1006 -72 778 623 
Q 550 1319 550 2003 
Q 550 2688 779 3389 
Q 1009 4091 1484 4856 
L 2413 4856 
Q 2013 4116 1813 3408 
Q 1613 2700 1613 2009 
Q 1613 1319 1811 609 
Q 2009 -100 2413 -844 
z
" transform="scale(0.015625)"/>
      <path id="DejaVuSans-Bold-30" d="M 2944 2338 
Q 2944 3213 2780 3570 
Q 2616 3928 2228 3928 
Q 1841 3928 1675 3570 
Q 1509 3213 1509 2338 
Q 1509 1453 1675 1090 
Q 1841 728 2228 728 
Q 2613 728 2778 1090 
Q 2944 1453 2944 2338 
z
M 4147 2328 
Q 4147 1169 3647 539 
Q 3147 -91 2228 -91 
Q 1306 -91 806 539 
Q 306 1169 306 2328 
Q 306 3491 806 4120 
Q 1306 4750 2228 4750 
Q 3147 4750 3647 4120 
Q 4147 3491 4147 2328 
z
" transform="scale(0.015625)"/>
      <path id="DejaVuSans-Bold-32" d="M 1844 884 
L 3897 884 
L 3897 0 
L 506 0 
L 506 884 
L 2209 2388 
Q 2438 2594 2547 2791 
Q 2656 2988 2656 3200 
Q 2656 3528 2436 3728 
Q 2216 3928 1850 3928 
Q 1569 3928 1234 3808 
Q 900 3688 519 3450 
L 519 4475 
Q 925 4609 1322 4679 
Q 1719 4750 2100 4750 
Q 2938 4750 3402 4381 
Q 3866 4013 3866 3353 
Q 3866 2972 3669 2642 
Q 3472 2313 2841 1759 
L 1844 884 
z
" transform="scale(0.015625)"/>
      <path id="DejaVuSans-Bold-37" d="M 428 4666 
L 3944 4666 
L 3944 3988 
L 2125 0 
L 953 0 
L 2675 3781 
L 428 3781 
L 428 4666 
z
" transform="scale(0.015625)"/>
      <path id="DejaVuSans-Bold-29" d="M 513 -844 
Q 913 -100 1113 609 
Q 1313 1319 1313 2009 
Q 1313 2700 1113 3408 
Q 913 4116 513 4856 
L 1441 4856 
Q 1916 4091 2145 3389 
Q 2375 2688 2375 2003 
Q 2375 1319 2147 623 
Q 1919 -72 1441 -844 
L 513 -844 
z
" transform="scale(0.015625)"/>
     </defs>
     <use xlink:href="#DejaVuSans-Bold-28"/>
     <use xlink:href="#DejaVuSans-Bold-36" x="45.703125"/>
     <use xlink:href="#DejaVuSans-Bold-2c" x="115.283203"/>
     <use xlink:href="#DejaVuSans-Bold-39" x="153.271484"/>
     <use xlink:href="#DejaVuSans-Bold-39" x="222.851562"/>
     <use xlink:href="#DejaVuSans-Bold-30" x="292.431641"/>
     <use xlink:href="#DejaVuSans-Bold-20" x="362.011719"/>
     <use xlink:href="#DejaVuSans-Bold-6f" x="396.826172"/>
     <use xlink:href="#DejaVuSans-Bold-66" x="465.527344"/>
     <use xlink:href="#DejaVuSans-Bold-20" x="509.033203"/>
     <use xlink:href="#DejaVuSans-Bold-32" x="543.847656"/>
     <use xlink:href="#DejaVuSans-Bold-31" x="613.427734"/>
     <use xlink:href="#DejaVuSans-Bold-2c" x="683.007812"/>
     <use xlink:href="#DejaVuSans-Bold-37" x="720.996094"/>
     <use xlink:href="#DejaVuSans-Bold-37" x="790.576172"/>
     <use xlink:href="#DejaVuSans-Bold-37" x="860.15625"/>
     <use xlink:href="#DejaVuSans-Bold-20" x="929.736328"/>
     <use xlink:href="#DejaVuSans-Bold-63" x="964.550781"/>
     <use xlink:href="#DejaVuSans-Bold-69" x="1023.828125"/>
     <use xlink:href="#DejaVuSans-Bold-74" x="1058.105469"/>
     <use xlink:href="#DejaVuSans-Bold-61" x="1105.908203"/>
     <use xlink:href="#DejaVuSans-Bold-74" x="1173.388672"/>
     <use xlink:href="#DejaVuSans-Bold-69" x="1221.191406"/>
     <use xlink:href="#DejaVuSans-Bold-6f" x="1255.46875"/>
     <use xlink:href="#DejaVuSans-Bold-6e" x="1324.169922"/>
     <use xlink:href="#DejaVuSans-Bold-73" x="1395.361328"/>
     <use xlink:href="#DejaVuSans-Bold-29" x="1454.882812"/>
    </g>
   </g>
  </g>
  <g id="patch_22">
   <path d="M 0 345.6 
L 460.8 345.6 
L 460.8 0 
L 0 0 
L 0 345.6 
z
" style="fill: none; stroke: #000000; stroke-width: 2; stroke-linejoin: miter"/>
  </g>
 </g>
 <defs>
  <clipPath id="p90457677e1">
   <rect x="56.928125" y="39.44925" width="393.071875" height="177.299187"/>
  </clipPath>
 </defs>
</svg>
