<?xml version="1.0" standalone="no"?>
<svg xml:space="preserve" width="100%" height="100%" viewBox="0 0 4897 6337" preserveAspectRatio="xMidYMid"
  fill-rule="nonzero" stroke-linecap="round" stroke-linejoin="round"
  xmlns="http://www.w3.org/2000/svg"
  xmlns:xlink="http://www.w3.org/1999/xlink"
  xmlns:svgmaker="http://www.svgmaker.com/svgns">
<svgmaker:init width="215.9mm" height="279.4mm" viewBox="0 0 4897 6337" view="fit"
  crop="none" cropWidth="180.3mm" cropHeight="160.6mm" cropBox="404 1348 4090 3642"/>
<title>Untitled</title>
<desc>
  Generated by SVGmaker V3 Version 3.61.E702.64
  FEB-24-2015, 18:08
</desc>
<defs><clipPath id="page_clip"><rect x="0" y="0" width="4897" height="6337"/></clipPath></defs>
<g id="Page_1" clip-path="url(#page_clip)" svgmaker:mediaBox="0 0 4897 6337">
<rect x="407" y="1352" width="4083" height="3634" fill="#FFFFFF" stroke="none"/>
<path fill="#4572A7" stroke="none" d="M 2448,3438 l 1242,45 1,-64 -3,-63 -5,-63 -9,-61 -12,-61 -14,-59 -18,-59 -20,-57 -23,-56 -25,-54 -28,-53 -31,-52 -33,-50 -35,-48 -37,-47 -40,-44 -41,-43 -44,-41 -46,-38 -47,-36 -49,-34 -51,-32 -53,-30 -54,-26 -56,-25 -57,-21 -58,-19 -60,-16 -60,-13 -62,-10 -63,-7 -64,-4 -22,-1 -23,0 0,1242 z"/>
<path fill="#AA4643" stroke="none" d="M 2448,3438 l 1040,680 23,-36 21,-36 20,-37 19,-38 17,-38 16,-39 15,-40 14,-40 12,-40 20,-82 8,-41 6,-42 5,-42 4,-42 2,-42 -1242,-45 z"/>
<path fill="#89A54E" stroke="none" d="M 2448,3438 l 591,1094 34,-19 33,-20 64,-43 61,-47 58,-50 55,-54 52,-57 48,-61 44,-63 -1040,-680 z"/>
<path fill="#71588F" stroke="none" d="M 2448,3438 l 145,1234 58,-8 58,-11 57,-14 57,-16 55,-19 55,-21 54,-24 52,-27 -591,-1094 z"/>
<path fill="#4198AF" stroke="none" d="M 2448,3438 l -320,1201 57,14 57,11 58,8 59,6 58,2 59,1 58,-3 59,-6 -145,-1234 z"/>
<path fill="#DB843D" stroke="none" d="M 2448,3438 l -692,1032 43,28 45,25 45,24 46,23 47,20 48,18 49,17 49,14 320,-1201 z"/>
<path fill="#93A9CF" stroke="none" d="M 2448,3438 l -909,847 50,51 53,48 56,45 58,41 692,-1032 z"/>
<path fill="#D19392" stroke="none" d="M 2448,3438 l -1057,652 34,52 36,50 38,48 40,45 909,-847 z"/>
<path fill="#B9CD96" stroke="none" d="M 2448,3438 l -1162,439 22,56 25,54 28,52 30,51 1057,-652 z"/>
<path fill="#A99BBD" stroke="none" d="M 2448,3438 l -1221,225 11,55 14,54 16,53 18,52 1162,-439 z"/>
<path fill="#91C3D5" stroke="none" d="M 2448,3438 l 0,-1242 -64,2 -63,4 -62,8 -61,11 -60,14 -59,17 -58,19 -56,23 -55,24 -54,28 -52,30 -50,32 -49,35 -47,37 -45,39 -43,41 -41,43 -39,45 -37,47 -35,49 -32,50 -30,52 -28,54 -24,55 -23,56 -19,58 -17,59 -14,60 -11,61 -8,62 -4,63 -2,64 1,57 4,56 7,56 9,56 1221,-225 z"/>
<path fill="#000000" stroke="none" d="M 3340,2573 l 181,-262 1,0 1,-1 45,0 0,7 -45,0 3,-2 -181,262 -5,-4 z m -1877,1621 l -194,217 -1,1 -48,0 0,-7 46,0 -2,1 194,-217 5,5 z m 1361,426 l 277,158 -2,0 46,0 0,7 -47,0 -277,-158 3,-7 z m -1179,-234 l -129,171 -1,1 -48,0 0,-7 46,0 -2,1 129,-171 5,5 z m 293,185 l -96,209 -4,2 -45,0 0,-7 45,0 -3,2 96,-209 7,3 z m -447,-1925 l -181,-125 2,1 -46,0 0,-7 47,0 1,1 181,125 -4,5 z m -156,1343 l -177,106 -1,1 -47,0 0,-7 46,0 -1,0 177,-106 3,6 z m 2299,-178 l 202,81 -2,0 46,0 0,7 -47,0 -202,-81 3,-7 z m -342,540 l 64,96 -3,-2 46,0 0,7 -46,0 -2,-2 -64,-96 5,-3 z m -2039,-577 l -58,41 -1,1 -47,0 0,-7 46,0 -2,1 58,-41 4,5 z"/>
<text font-family="Calibri" font-size="102" fill="#000000"><tspan x="3586,3651,3704,3727,3761,3812,3865" y="2314">United </tspan><tspan x="3888,3935,3970,4018,4052,4103" y="2314">States</tspan><tspan x="3775,3827,3879" y="2438">25%</tspan><tspan x="3896,3951,4004,4027,4081" y="3896">China</tspan><tspan x="3951,4003" y="4020">9%</tspan><tspan x="3415,3462,3498,3546,3600,3643" y="4448">France</tspan><tspan x="3493,3545" y="4573">8%</tspan><tspan x="3163,3188,3242,3295,3318" y="4782">India</tspan><tspan x="3202,3254" y="4907">6%</tspan><tspan x="1779,1844,1897,1920,1955,2005,2059" y="4813">United </tspan><tspan x="2082,2135,2158,2211,2260,2313,2367" y="4813">Kingdom</tspan><tspan x="2051,2103" y="4938">6%</tspan><tspan x="1400,1463,1514,1550,1631,1680,1733" y="4779">Germany</tspan><tspan x="1527,1579" y="4903">5%</tspan><tspan x="1276,1301,1335,1384,1407" y="4554">Italy</tspan><tspan x="1302,1354" y="4679">4%</tspan><tspan x="970,1003,1051,1105,1153" y="4408">Japan</tspan><tspan x="1026,1078" y="4533">3%</tspan><tspan x="789,844,892,946,994,1048" y="4092">Canada</tspan><tspan x="881,933" y="4217">3%</tspan><tspan x="627,675,728,781,816,869" y="3812">South </tspan><tspan x="892,945,999,1034,1085" y="3812">Korea</tspan><tspan x="818,870" y="3937">3%</tspan><tspan x="1044,1112,1146,1199,1250" y="2394">Other</tspan><tspan x="1076,1128,1180" y="2519">28%</tspan></text>
<text font-family="Calibri" font-size="184" fill="#000000" font-weight="700"><tspan x="1498,1608,1706,1804" y="1602">App </tspan><tspan x="1846,1932,1995,2093,2155,2248" y="1602">Store </tspan><tspan x="2290,2398,2442,2515,2559,2623,2695" y="1602">Visits </tspan><tspan x="2739,2796,2889,2982,3074,3121,3214,3307,3400" y="1602">(218,731)</tspan><tspan x="1314,1372,1464" y="1826">(6/</tspan><tspan x="1543,1636" y="1826">1/</tspan><tspan x="1715,1808,1901,1993,2086" y="1826">2012 </tspan><tspan x="2127,2191,2289,2351,2449,2547,2633,2731" y="1826">through </tspan><tspan x="2776,2868" y="1826">2/</tspan><tspan x="2947,3040,3133" y="1826">22/</tspan><tspan x="3212,3305,3397,3490,3583" y="1826">2015)</tspan></text>
<path fill="#868686" stroke="none" d="M 404,1352 l 1,-3 3,-1 4082,0 3,1 1,3 0,3634 -1,3 -3,1 -4082,0 -3,-1 -1,-3 0,-3634 z m 8,3634 l -4,-4 4082,0 -3,4 0,-3634 3,4 -4082,0 4,-4 0,3634 z"/>
</g>
</svg>
