<?xml version="1.0" standalone="no"?>
<svg xml:space="preserve" width="100%" height="100%" viewBox="0 0 2448 3168" preserveAspectRatio="xMidYMid"
  fill-rule="nonzero" stroke-linecap="round" stroke-linejoin="round"
  xmlns="http://www.w3.org/2000/svg"
  xmlns:xlink="http://www.w3.org/1999/xlink"
  xmlns:svgmaker="http://www.svgmaker.com/svgns">
<svgmaker:init width="215.9mm" height="279.4mm" viewBox="0 0 2448 3168" view="fit"
  crop="none" cropWidth="180.3mm" cropHeight="132.0mm" cropBox="203 836 2044 1497"/>
<title>Untitled</title>
<desc>
  Generated by SVGmaker V3 Version 3.61.E702.64
  FEB-24-2015, 18:09
</desc>
<defs><clipPath id="page_clip"><rect x="0" y="0" width="2448" height="3168"/></clipPath></defs>
<g id="Page_1" clip-path="url(#page_clip)" svgmaker:mediaBox="0 0 2448 3168">
<rect x="204" y="837" width="2042" height="1494" fill="#FFFFFF" stroke="none"/>
<path fill="#4572A7" stroke="none" d="M 1225,1681 l 297,431 22,-16 21,-17 19,-17 19,-19 17,-19 17,-20 15,-21 14,-21 13,-22 12,-22 11,-23 10,-23 9,-24 7,-24 6,-24 5,-25 4,-25 3,-25 2,-50 -1,-25 -2,-25 -8,-50 -6,-25 -7,-25 -8,-24 -10,-24 -11,-24 -12,-24 -13,-22 -15,-23 -19,-26 -42,-48 -23,-21 -25,-20 -25,-19 -26,-17 -28,-15 -28,-14 -29,-12 -29,-10 -30,-9 -31,-6 -31,-5 -32,-3 -32,-1 0,523 z"/>
<path fill="#AA4643" stroke="none" d="M 1225,1681 l -504,-141 -7,26 -5,26 -4,26 -2,26 -1,26 0,26 1,26 6,50 5,25 7,25 7,24 8,23 10,24 11,22 12,23 12,21 14,21 31,40 34,37 38,33 42,30 22,14 22,12 24,12 24,10 25,9 26,8 28,7 29,6 28,3 29,3 57,0 29,-3 28,-4 28,-5 27,-7 28,-9 27,-10 26,-11 26,-13 25,-14 24,-16 -297,-431 z"/>
<path fill="#89A54E" stroke="none" d="M 1225,1681 l -292,-434 -37,28 -35,30 -32,33 -28,36 -26,39 -21,40 -19,43 -14,44 504,141 z"/>
<path fill="#71588F" stroke="none" d="M 1225,1681 l -260,-454 -32,20 292,434 z"/>
<path fill="#4198AF" stroke="none" d="M 1225,1681 l -242,-464 -18,10 260,454 z"/>
<path fill="#DB843D" stroke="none" d="M 1225,1681 l -223,-473 -19,9 242,464 z"/>
<path fill="#93A9CF" stroke="none" d="M 1225,1681 l -208,-480 -15,7 223,473 z"/>
<path fill="#D19392" stroke="none" d="M 1225,1681 l -194,-486 -14,6 208,480 z"/>
<path fill="#B9CD96" stroke="none" d="M 1225,1681 l -185,-490 -9,4 194,486 z"/>
<path fill="#A99BBD" stroke="none" d="M 1225,1681 l -175,-493 -10,3 185,490 z"/>
<path fill="#91C3D5" stroke="none" d="M 1225,1681 l 0,-523 -45,2 -44,6 -43,9 -43,13 175,493 z"/>
<path fill="#000000" stroke="none" d="M 1045,1188 l 503,-187 19,0 0,3 -19,0 1,0 -503,187 -1,-3 z m 91,-24 l 300,-60 18,0 0,3 -18,0 1,0 -300,60 -1,-3 z m -335,212 l -371,216 -20,0 0,-3 19,0 371,-216 1,3 z m 223,-177 l -506,-131 -18,0 0,-3 19,0 506,131 -1,3 z m -75,39 l -335,189 -19,0 0,-3 18,0 335,-189 1,3 z m 60,-32 l -453,-80 -19,0 0,-3 20,0 453,80 -1,3 z m -34,17 l -278,53 -19,0 0,-3 18,0 278,-53 1,3 z m 59,-29 l -77,-153 1,1 -18,0 0,-3 18,0 2,1 77,153 -3,1 z m -41,20 l -457,10 -19,0 0,-3 18,0 457,-10 1,3 z m 732,310 l 85,41 -1,0 18,0 0,3 -18,0 -85,-41 1,-3 z m -804,585 l -176,10 -19,0 0,-3 18,0 176,-10 1,3 z"/>
<text font-family="Calibri" font-size="41" fill="#000000"><tspan x="1834,1852,1870,1883,1904,1921,1938,1957,1979,1999,2009,2031,2045" y="1568">cytoscape.org</tspan><tspan x="1915,1935,1955" y="1618">40%</tspan><tspan x="610,630,651,672,692,701" y="2119">google</tspan><tspan x="631,651,671" y="2169">39%</tspan><tspan x="285,297,318,327,342,362,379,393" y="1592">(direct)</tspan><tspan x="310,331,351" y="1642">11%</tspan><tspan x="216,238,257,270,291,321,340,359,376,397,430,462,484,505,521,532,553,567" y="1427">pathwaycommons.org</tspan><tspan x="377,397" y="1477">1%</tspan><tspan x="580,602,621,630,651" y="1276">baidu</tspan><tspan x="602,622" y="1326">1%</tspan><tspan x="217,236,257,278,298,320,341,354,376,385,406,425,444,454,475,490" y="1224">geneontology.org</tspan><tspan x="338,358" y="1274">1%</tspan><tspan x="261,278,300,309,328,350,363,372,382,404,421,437,458,469,489,510" y="1125">chianti.ucsd.edu</tspan><tspan x="372,392" y="1175">1%</tspan><tspan x="434,456,465,486" y="1018">bing</tspan><tspan x="446,466" y="1068">1%</tspan><tspan x="629,658,667,686,695,705,722,741,754,775,792,809,828,849,870,880,901,916" y="1042">wiki.cytoscape.org</tspan><tspan x="757,777" y="1092">0%</tspan><tspan x="1574,1596,1605,1626,1635,1657,1669,1690,1705,1737,1756,1770,1779,1796,1812,1823,1844,1861,1873,1895,1909,1930" y="1004">bioinformatics.oxfordj</tspan><tspan x="1664,1685,1707,1721,1742,1762,1771,1787,1797,1818,1833" y="1054">ournals.org</tspan><tspan x="1733,1753" y="1103">0%</tspan><tspan x="1461,1483,1496,1517,1538" y="1107">other</tspan><tspan x="1482,1502" y="1157">5%</tspan></text>
<text font-family="Calibri" font-size="66" fill="#000000" font-weight="700"><tspan x="524,564,598,633" y="906">App </tspan><tspan x="648,679,700,735,757,789" y="906">Store </tspan><tspan x="806,841,874,893,926,949,972,1004,1020" y="906">Referral </tspan><tspan x="1034,1064,1099,1133,1156,1183,1216,1242" y="906">Sources </tspan><tspan x="1257,1278,1310,1343,1375,1393,1425,1458,1490,1511" y="906">(218,731) </tspan><tspan x="605,626,658" y="985">(6/</tspan><tspan x="687,719" y="985">1/</tspan><tspan x="748,780,813,845,878" y="985">2012 </tspan><tspan x="894,917,951,974,1008,1043,1073,1108" y="985">through </tspan><tspan x="1124,1157" y="985">2/</tspan><tspan x="1185,1218,1250" y="985">22/</tspan><tspan x="1279,1311,1344,1376,1409" y="985">2015)</tspan></text>
<path fill="#868686" stroke="none" d="M 2246,836 l 0,1 1,0 0,2 -2041,0 0,1491 -3,0 0,-1492 1,0 0,-2 2042,0 z"/>
<path fill="#868686" stroke="none" d="M 2247,839 l 0,1494 -2044,0 0,-3 2041,0 0,-1491 3,0 z"/>
</g>
</svg>
