<?xml version="1.0" standalone="no"?>
<svg xml:space="preserve" width="100%" height="100%" viewBox="0 0 4897 6337" preserveAspectRatio="xMidYMid"
  fill-rule="nonzero" stroke-linecap="round" stroke-linejoin="round"
  xmlns="http://www.w3.org/2000/svg"
  xmlns:xlink="http://www.w3.org/1999/xlink"
  xmlns:svgmaker="http://www.svgmaker.com/svgns">
<svgmaker:init width="215.9mm" height="279.4mm" viewBox="0 0 4897 6337" view="fit"
  crop="none" cropWidth="180.4mm" cropHeight="110.6mm" cropBox="403 1914 4091 2509"/>
<title>Untitled</title>
<desc>
  Generated by SVGmaker V3 Version 3.61.E702.64
  FEB-24-2015, 18:15
</desc>
<defs><clipPath id="page_clip"><rect x="0" y="0" width="4897" height="6337"/></clipPath></defs>
<g id="Page_1" clip-path="url(#page_clip)" svgmaker:mediaBox="0 0 4897 6337">
<rect x="406" y="1917" width="4086" height="2504" fill="#FFFFFF" stroke="none"/>
<rect x="802" y="2236" width="2727" height="1599" fill="#FFFFFF" stroke="none"/>
<path fill="#868686" stroke="none" d="M 801,3655 l 2728,0 0,5 -2728,0 0,-5 z m 0,-178 l 2728,0 0,5 -2728,0 0,-5 z m 0,-178 l 2728,0 0,5 -2728,0 0,-5 z m 0,-177 l 2728,0 0,5 -2728,0 0,-5 z m 0,-178 l 2728,0 0,5 -2728,0 0,-5 z m 0,-178 l 2728,0 0,5 -2728,0 0,-5 z m 0,-177 l 2728,0 0,5 -2728,0 0,-5 z m 0,-178 l 2728,0 0,5 -2728,0 0,-5 z m 0,-178 l 2728,0 0,5 -2728,0 0,-5 z"/>
<rect x="3527" y="2235" width="5" height="1600" fill="#868686" stroke="none"/>
<path fill="#868686" stroke="none" d="M 3529,3833 l 24,0 0,5 -24,0 0,-5 z m 0,-267 l 24,0 0,5 -24,0 0,-5 z m 0,-267 l 24,0 0,5 -24,0 0,-5 z m 0,-266 l 24,0 0,5 -24,0 0,-5 z m 0,-267 l 24,0 0,5 -24,0 0,-5 z m 0,-266 l 24,0 0,5 -24,0 0,-5 z m 0,-267 l 24,0 0,5 -24,0 0,-5 z"/>
<rect x="799" y="2235" width="5" height="1600" fill="#868686" stroke="none"/>
<path fill="#868686" stroke="none" d="M 777,3833 l 24,0 0,5 -24,0 0,-5 z m 0,-178 l 24,0 0,5 -24,0 0,-5 z m 0,-178 l 24,0 0,5 -24,0 0,-5 z m 0,-178 l 24,0 0,5 -24,0 0,-5 z m 0,-177 l 24,0 0,5 -24,0 0,-5 z m 0,-178 l 24,0 0,5 -24,0 0,-5 z m 0,-178 l 24,0 0,5 -24,0 0,-5 z m 0,-177 l 24,0 0,5 -24,0 0,-5 z m 0,-178 l 24,0 0,5 -24,0 0,-5 z m 0,-178 l 24,0 0,5 -24,0 0,-5 z"/>
<rect x="801" y="3833" width="2728" height="5" fill="#868686" stroke="none"/>
<path fill="#868686" stroke="none" d="M 804,3835 l 0,24 -5,0 0,-24 5,0 z m 120,0 l 0,24 -5,0 0,-24 5,0 z m 120,0 l 0,24 -5,0 0,-24 5,0 z m 120,0 l 0,24 -5,0 0,-24 5,0 z m 120,0 l 0,24 -5,0 0,-24 5,0 z m 120,0 l 0,24 -5,0 0,-24 5,0 z m 120,0 l 0,24 -5,0 0,-24 5,0 z m 120,0 l 0,24 -5,0 0,-24 5,0 z m 119,0 l 0,24 -5,0 0,-24 5,0 z m 120,0 l 0,24 -5,0 0,-24 5,0 z m 120,0 l 0,24 -5,0 0,-24 5,0 z m 120,0 l 0,24 -5,0 0,-24 5,0 z m 120,0 l 0,24 -5,0 0,-24 5,0 z m 120,0 l 0,24 -5,0 0,-24 5,0 z m 120,0 l 0,24 -5,0 0,-24 5,0 z m 120,0 l 0,24 -5,0 0,-24 5,0 z m 119,0 l 0,24 -5,0 0,-24 5,0 z m 120,0 l 0,24 -5,0 0,-24 5,0 z m 120,0 l 0,24 -5,0 0,-24 5,0 z m 120,0 l 0,24 -5,0 0,-24 5,0 z m
 120,0 l 0,24 -5,0 0,-24 5,0 z m 120,0 l 0,24 -5,0 0,-24 5,0 z m 120,0 l 0,24 -5,0 0,-24 5,0 z"/>
<path fill="#376092" stroke="none" d="M 814,3809 l 30,-9 182,0 -2,0 30,-9 -2,1 60,-36 1,0 1,-1 30,-8 32,0 -5,2 30,-27 -1,1 30,-36 2,-2 30,-17 2,-1 62,0 -2,0 90,-27 -2,1 30,-18 2,-1 62,0 -4,1 30,-18 2,-1 32,0 -2,0 30,-8 -4,3 30,-36 2,-1 2,-2 30,-9 -2,1 30,-18 2,-1 32,0 -4,1 29,-17 1,0 1,-1 90,-27 -2,1 30,-18 -1,1 30,-27 1,0 0,-1 30,-17 30,-18 -3,3 30,-44 3,-2 2,-2 30,-9 -5,4 30,-45 30,-44 2,-2 30,-27 1,0 0,-1 30,-18 -2,2 30,-35 2,-2 30,-18 1,0 1,-1 30,-9 32,0 -7,4 30,-44 30,-45 2,-2 30,-26 -2,2 30,-45 3,-3 30,-18 1,0 1,-1 30,-8 -2,1 30,-18 -2,2 30,-36 2,-2 30,-18 2,-1 32,0 -6,3 30,-35 -2,3 30,-89 4,-4 4,-2
 29,0 -2,0 30,-9 -3,2 30,-26 30,-27 2,-1 1,-1 60,-18 -2,1 30,-18 -2,2 30,-35 30,-36 -1,2 30,-62 2,-2 1,-2 30,-18 -1,1 30,-26 -2,2 30,-54 3,-3 4,-1 60,0 -2,0 30,-9 30,-8 60,-18 32,0 -2,0 30,-9 -2,1 30,-18 1,0 1,-1 30,-9 -2,1 30,-18 1,0 1,-1 30,-8 62,0 -2,0 30,-9 62,0 4,1 4,4 1,3 -1,4 -4,4 -4,1 -60,0 3,0 -30,9 -63,0 3,0 -30,8 2,-1 -30,18 -1,0 -1,1 -30,9 2,-1 -30,18 -1,0 -1,1 -30,9 -33,0 3,0 -60,18 -30,8 -30,9 -63,0 8,-4 -30,54 -2,2 -30,26 0,1 -1,0 -30,18 3,-4 -30,62 0,1 -1,1 -30,36 -30,35 -2,2 -30,18 -1,0 -1,1 -60,18 3,-2 -30,27 -30,26 -1,1 -2,1 -30,9 -32,0
 9,-6 -30,89 -1,2 -1,1 -30,35 -3,2 -4,1 -30,0 5,-1 -30,18 2,-2 -30,36 -2,2 -30,18 -1,0 -1,1 -30,8 2,-1 -30,18 3,-3 -30,45 -2,2 -30,26 2,-2 -31,45 -30,44 -3,3 -4,1 -30,0 3,0 -30,9 2,-1 -30,18 2,-2 -30,35 -2,2 -30,18 1,-1 -30,27 1,-2 -29,44 -30,45 -2,2 -3,2 -30,9 4,-4 -30,44 -1,2 -1,1 -30,18 -30,17 1,-1 -30,27 -1,1 -30,18 -1,0 -1,1 -90,27 2,-1 -29,17 -2,1 -33,0 5,-1 -30,18 -1,0 -1,1 -30,9 4,-3 -30,36 -2,2 -2,1 -30,8 -33,0 5,-1 -30,18 -2,1 -63,0 5,-1 -30,18 -1,0 -1,1 -90,27 -63,0 5,-1 -30,17 2,-2 -30,36 0,1 -1,0 -30,27 -2,1 -4,1 -30,0 3,0 -30,8 2,-1 -60,36 -1,0 -1,1 -30,9
 -183,0 3,0 -30,9 -4,0 -3,-1 -4,-5 0,-4 1,-3 5,-4 z"/>
<path fill="#C00000" stroke="none" d="M 2585,3818 l 30,0 -6,3 29,-36 3,-2 3,-1 30,0 -4,1 30,-18 -3,3 30,-44 4,-3 3,-1 90,0 -4,1 30,-18 2,-1 32,0 -2,0 30,-9 -2,1 30,-18 -3,3 30,-44 2,-2 30,-27 -2,2 30,-44 3,-2 2,-2 30,-9 -3,2 30,-27 1,0 0,-1 30,-17 30,-18 -3,3 30,-45 2,-2 30,-26 -1,1 30,-36 30,-35 -1,2 30,-71 0,-1 1,-1 30,-36 2,-2 30,-18 30,-17 1,0 1,-1 60,-18 -2,1 60,-36 3,-1 3,0 6,4 1,3 0,3 -4,6 -60,36 -1,0 -1,1 -60,18 2,-1 -30,17 -30,18 2,-2 -30,36 1,-2 -30,71 0,1 -1,1 -30,35 -30,36 0,1 -1,0 -30,26 2,-2 -30,45 -3,3 -30,18 -30,17 1,-1 -30,27 -1,1 -2,1 -30,9 4,-4 -30,44 0,1 -1,1 -30,27 1,-2 -30,44 -1,2 -1,1
 -30,18 -1,0 -1,1 -30,9 -33,0 5,-1 -30,18 -2,1 -93,0 7,-4 -30,44 -1,2 -1,1 -30,18 -2,1 -33,0 7,-3 -29,36 -3,2 -4,1 -30,0 -3,-1 -4,-4 -1,-4 1,-3 4,-4 3,-1 z"/>
<path fill="#4A7EBB" stroke="none" d="M 823,3592 l 2,5 -2,2 -1,-1 -2,-6 1,-2 2,2 z m 21,93 l 2,6 -1,2 -2,-1 -2,-6 2,-2 1,1 z m 216,-7 l 2,-6 1,-1 2,2 -2,5 -2,2 -1,-2 z m 21,-94 l 2,-6 2,-1 1,2 -2,6 -1,1 -2,-2 z m 45,21 l 2,6 -2,2 -1,-2 -2,-5 1,-2 2,1 z m 84,-193 l 2,-6 1,-1 2,2 -2,5 -2,2 -1,-2 z m 13,-59 l 2,-6 1,-1 2,2 -2,6 -1,1 -2,-2 z m 197,325 l 2,-6 1,-1 2,2 -2,5 -2,2 -1,-2 z m 21,-94 l 2,-6 2,-1 1,2 -2,6 -1,1 -2,-2 z m 214,115 l 2,-5 2,-2 1,2 -2,6 -1,1 -2,-2 z m 8,-35 l 2,-6 1,-1 2,2 -2,6 -2,1 -1,-2 z m 8,-35 l 2,-6 1,-1 2,2 -2,6 -2,1 -1,-2 z m 81,-37 l 2,5 -2,2 -1,-1 -2,-6 1,-2 2,2 z m 21,93 l 2,6 -1,2 -2,-1 -2,-6 2,-2 1,1 z m 65,-3 l 2,-6
 1,-1 2,2 -2,6 -2,1 -1,-2 z m 8,-35 l 2,-6 1,-1 2,2 -2,6 -2,1 -1,-2 z m 13,-59 l 2,-6 2,-1 1,2 -2,6 -1,1 -2,-2 z m 8,-35 l 2,-6 2,-1 1,2 -2,6 -1,1 -2,-2 z m 8,-35 l 2,-6 1,-1 2,2 -2,6 -2,1 -1,-2 z m 24,-72 l 2,6 -1,2 -2,-2 -2,-5 2,-2 1,1 z m 8,35 l 2,6 -2,2 -1,-2 -2,-5 1,-2 2,1 z m 8,35 l 2,6 -2,2 -1,-1 -2,-6 1,-2 2,1 z m 199,-49 l 2,6 -2,2 -1,-1 -2,-6 1,-2 2,1 z m 21,94 l 2,6 -1,2 -2,-1 -2,-6 2,-2 1,1 z m 66,26 l 2,6 -2,2 -1,-1 -2,-6 1,-2 2,1 z m 209,-4 l 2,6 -1,2 -2,-1 -2,-6 2,-2 1,1 z m 8,35 l 2,6 -2,2 -1,-1 -2,-6 1,-2 2,1 z m 8,36 l 2,5 -2,2 -1,-1 -2,-6 1,-2 2,2 z m 10,36 l 2,-6 2,-1 1,2
 -2,6 -1,1 -2,-2 z m 8,-35 l 2,-6 2,-1 1,2 -2,6 -1,1 -2,-2 z m 8,-35 l 2,-6 1,-1 2,2 -2,6 -2,1 -1,-2 z m 347,53 l 2,-6 1,-1 2,2 -2,6 -2,1 -1,-2 z m 147,-119 l 2,-6 1,-1 2,2 -2,5 -2,2 -1,-2 z m 13,-59 l 2,-6 2,-1 1,2 -2,6 -1,1 -2,-2 z m 8,-35 l 2,-6 2,-1 1,2 -2,6 -1,1 -2,-2 z m 281,218 l 2,-6 1,-1 2,2 -2,5 -2,2 -1,-2 z m 21,-94 l 2,-6 2,-1 1,2 -2,6 -1,1 -2,-2 z m 11,3 l 2,6 -2,2 -1,-1 -2,-6 1,-2 2,1 z m 8,35 l 2,6 -2,2 -1,-1 -2,-6 1,-2 2,1 z m 13,59 l 2,6 -1,2 -2,-2 -2,-5 2,-2 1,1 z m 5,5 l 2,-6 2,-1 1,2 -2,6 -1,1 -2,-2 z m 8,-35 l 2,-6 1,-1 2,2 -2,6 -2,1 -1,-2 z m 24,-72 l 2,6 -1,2 -2,-2 -2,-5 2,-2
 1,1 z m 8,35 l 2,6 -2,2 -1,-2 -2,-5 1,-2 2,1 z m 8,35 l 2,6 -2,2 -1,-1 -2,-6 1,-2 2,1 z m -1578,48 l 1,4 -2,-1 2,0 2,1 -2,2 -2,0 -1,-1 -1,-4 1,-2 2,1 z m -692,-125 l 1,-4 1,-1 2,0 2,1 -2,2 -2,0 2,-1 -1,4 -2,1 -1,-2 z m 842,-9 l 1,5 -2,-1 1,0 2,1 -2,2 -1,0 -1,-1 -1,-5 1,-2 2,1 z m 296,118 l 2,6 -1,1 -2,-1 -2,-6 2,-1 1,1 z m -1104,-111 l 2,6 -1,1 -2,-1 -2,-6 2,-1 1,1 z m 1702,10 l 2,-6 2,-1 1,1 -2,6 -1,1 -2,-1 z m -1580,-260 l 1,6 -2,2 -1,-2 -1,-6 1,-1 2,1 z m 1,12 l 1,6 -1,1 -2,-1 -1,-6 2,-2 1,2 z m 3,24 l 1,6 -2,1 -1,-1 -1,-6 1,-2 2,2 z m 1,12 l 1,6 -1,1 -2,-1 -1,-6 2,-2 1,2 z m 3,23 l 1,6 -2,2
 -1,-1 -1,-6 1,-2 2,1 z m 1,12 l 1,6 -1,2 -2,-1 -1,-6 2,-2 1,1 z m 3,24 l 1,6 -2,2 -1,-1 -1,-6 1,-2 2,1 z m 1,12 l 1,6 -1,2 -2,-2 -1,-6 2,-1 1,1 z m 3,24 l 1,6 -2,2 -1,-2 -1,-6 1,-1 2,1 z m 4,36 l 1,6 -1,1 -2,-1 -1,-6 2,-2 1,2 z m 3,24 l 1,6 -2,1 -1,-1 -1,-6 1,-2 2,2 z m 1,12 l 1,6 -1,1 -2,-1 -1,-6 2,-2 1,2 z m 3,23 l 1,6 -2,2 -1,-1 -1,-6 1,-2 2,1 z m 148,143 l 1,-6 2,-1 1,2 -1,6 -2,1 -1,-2 z m 3,-12 l 1,-5 2,-2 1,2 -1,6 -2,1 -1,-2 z m -582,-39 l 2,6 -1,2 -2,-1 -1,-6 1,-2 1,1 z m 587,16 l 1,-6 2,-1 1,2 -1,6 -2,1 -1,-2 z m 3,-12 l 1,-6 2,-1 1,2 -1,6 -2,1 -1,-2 z m 5,-23 l 1,-6 2,-1 1,2 -1,6
 -2,1 -1,-2 z m 3,-12 l 1,-6 2,-1 1,2 -2,6 -1,1 -1,-2 z m 5,-23 l 1,-6 2,-1 1,2 -1,5 -2,2 -1,-2 z m 160,46 l 1,-6 2,-2 1,2 -1,6 -1,1 -2,-1 z m 1,-12 l 1,-6 1,-2 2,2 -1,6 -1,1 -2,-1 z m 1,-12 l 1,-6 1,-2 2,2 -1,6 -1,1 -2,-1 z m 1,-12 l 1,-6 1,-2 2,2 -1,6 -1,1 -2,-1 z m 1,-12 l 1,-6 1,-2 2,2 -1,6 -2,1 -1,-1 z m 6,-84 l 1,-6 1,-1 2,1 -1,6 -1,2 -2,-2 z m 1,-12 l 1,-6 1,-1 2,1 -1,6 -1,2 -2,-2 z m 1,-12 l 1,-6 1,-1 2,1 -1,6 -1,2 -2,-2 z m 6,-84 l 1,-6 1,-1 2,1 -1,6 -1,2 -2,-2 z m 1,-12 l 1,-6 1,-1 2,1 -1,6 -1,2 -2,-2 z m 1,-12 l 1,-6 1,-1 2,2 -1,6 -1,1 -2,-2 z m 1,-12 l 1,-6 1,-1 2,2 -1,6 -1,1 -2,-2 z m
 9,-46 l 1,6 -2,2 -1,-2 -1,-6 2,-1 1,1 z m 1,12 l 1,6 -2,2 -1,-2 -1,-6 2,-1 1,1 z m 1,12 l 1,6 -2,2 -1,-2 -1,-6 2,-1 1,1 z m 1,12 l 1,6 -2,2 -1,-2 -1,-6 1,-1 2,1 z m 6,84 l 1,6 -2,1 -1,-1 -1,-6 2,-2 1,2 z m 1,12 l 1,6 -2,1 -1,-1 -1,-6 2,-2 1,2 z m 1,12 l 1,6 -2,1 -1,-1 -1,-6 2,-2 1,2 z m 1,12 l 1,6 -2,1 -1,-1 -1,-6 1,-2 2,2 z m 5,72 l 1,6 -1,1 -2,-1 -1,-6 2,-2 1,2 z m 1,12 l 1,6 -2,1 -1,-1 -1,-6 2,-2 1,2 z m 1,11 l 1,6 -2,2 -1,-1 -1,-6 2,-2 1,1 z m 1,12 l 1,6 -2,2 -1,-1 -1,-6 2,-2 1,1 z m 6,84 l 1,6 -2,2 -1,-2 -1,-6 2,-1 1,1 z m 1,12 l 1,6 -2,2 -1,-2 -1,-6 2,-1 1,1 z m 1,12 l 1,6
 -2,2 -1,-2 -1,-6 2,-1 1,1 z m -815,-17 l 1,5 -1,2 -2,-1 -1,-6 1,-2 2,2 z m 816,14 l 1,-6 2,-1 1,2 -1,5 -2,2 -1,-2 z m 3,-12 l 1,-6 2,-1 1,2 -1,6 -2,1 -1,-2 z m -840,-96 l 1,6 -1,2 -2,-2 -1,-5 1,-2 2,1 z m 848,61 l 1,-6 2,-1 1,2 -1,6 -2,1 -1,-2 z m 8,-35 l 1,-6 2,-1 1,2 -2,5 -1,2 -1,-2 z m 2,-12 l 1,-6 2,-1 1,2 -1,6 -2,1 -1,-2 z m 3,-12 l 1,-5 2,-2 1,2 -1,6 -2,1 -1,-2 z m 65,-14 l 1,6 -1,2 -2,-1 -1,-6 1,-2 2,1 z m 3,12 l 1,6 -1,2 -2,-2 -1,-5 1,-2 2,1 z m -695,121 l 1,-6 2,-1 1,2 -1,6 -2,1 -1,-2 z m 700,-98 l 1,6 -1,2 -2,-1 -1,-6 1,-2 2,1 z m 3,12 l 1,6 -1,2 -2,-2 -1,-5 1,-2 2,1 z m 5,23 l 1,6 -1,2 -2,-1
 -1,-6 1,-2 2,1 z m 2,12 l 2,6 -1,2 -2,-1 -1,-6 1,-2 1,1 z m 6,24 l 1,5 -1,2 -2,-1 -1,-6 1,-2 2,2 z m -713,15 l 1,-5 2,-2 1,2 -1,6 -2,1 -1,-2 z m -224,-51 l 1,6 -1,2 -2,-1 -1,-6 1,-2 2,1 z m -16,-70 l 1,6 -1,2 -2,-1 -1,-6 1,-2 2,1 z m 1023,102 l 1,-6 2,-1 1,2 -1,6 -2,1 -1,-2 z m -778,-4 l 1,-6 2,-1 1,2 -1,6 -2,1 -1,-2 z m 786,-31 l 1,-6 2,-1 1,2 -1,6 -2,1 -1,-2 z m 3,-12 l 1,-5 2,-2 1,2 -2,6 -1,1 -1,-2 z m 2,-11 l 2,-6 1,-1 1,2 -1,5 -2,2 -1,-2 z m 3,-12 l 1,-6 2,-1 1,2 -1,6 -2,1 -1,-2 z m -791,54 l 1,-6 2,-1 1,2 -1,6 -2,1 -1,-2 z m 799,-89 l 1,-6 2,-1 1,2 -1,6 -2,1 -1,-2 z m 8,-35 l 1,-6 2,-1 1,2 -1,5 -2,2
 -1,-2 z m -802,101 l 1,-6 2,-1 1,2 -1,6 -2,1 -1,-2 z m 807,-125 l 1,-5 2,-2 1,2 -1,6 -2,1 -1,-2 z m 5,-23 l 2,-6 1,-1 1,2 -1,6 -2,1 -1,-2 z m 3,-12 l 1,-6 2,-1 1,2 -1,6 -2,1 -1,-2 z m 5,-23 l 1,-6 2,-1 1,2 -1,6 -2,1 -1,-2 z m -817,171 l 1,-6 2,-1 1,2 -2,6 -1,1 -1,-2 z m 828,-161 l 1,5 -1,2 -2,-1 -1,-6 1,-2 2,2 z m 3,11 l 1,6 -1,2 -2,-1 -1,-6 1,-2 2,1 z m 8,35 l 1,6 -1,2 -2,-1 -1,-6 1,-2 2,1 z m -834,92 l 1,-6 2,-1 1,2 -1,5 -2,2 -1,-2 z m 841,-56 l 2,5 -1,2 -2,-1 -1,-6 1,-2 1,2 z m 3,11 l 1,6 -1,2 -1,-1 -2,-6 1,-2 2,1 z m -694,-221 l 1,-6 2,-1 1,2 -1,5 -2,2 -1,-2 z m 730,166 l 1,-6 1,-1 2,1 -1,6 -1,2 -2,-2 z m 1,-12 l
 1,-6 1,-1 2,1 -1,6 -1,2 -2,-2 z m 1,-12 l 1,-6 1,-1 2,1 -1,6 -1,2 -2,-2 z m 1,-12 l 1,-6 1,-1 2,1 -1,6 -1,2 -2,-2 z m 6,-84 l 1,-6 1,-1 2,2 -1,6 -1,1 -2,-2 z m 1,-12 l 1,-6 1,-1 2,2 -1,6 -1,1 -2,-2 z m 1,-12 l 1,-6 1,-1 2,2 -1,6 -1,1 -2,-2 z m 1,-12 l 1,-6 1,-1 2,2 -1,6 -2,1 -1,-2 z m 5,-71 l 1,-6 2,-2 1,2 -1,6 -1,1 -2,-1 z m 1,-12 l 1,-6 1,-2 2,2 -1,6 -1,1 -2,-1 z m 1,-12 l 1,-6 1,-2 2,2 -1,6 -1,1 -2,-1 z m 1,-12 l 1,-6 1,-2 2,2 -1,6 -1,1 -2,-1 z m 1,-12 l 1,-6 1,-2 2,2 -1,6 -2,1 -1,-1 z m 7,-45 l 1,6 -2,1 -1,-1 -1,-6 2,-2 1,2 z m 2,36 l 1,6 -2,1 -1,-1 -1,-6 2,-2 1,2 z m 2,36 l 1,6 -2,1
 -1,-1 -1,-6 2,-2 1,2 z m 2,36 l 1,6 -2,1 -1,-1 -1,-6 2,-2 1,2 z m 3,48 l 1,6 -2,1 -1,-1 -1,-6 2,-2 1,2 z m 2,36 l 1,6 -2,1 -1,-1 -1,-6 2,-2 1,2 z m 2,36 l 1,6 -2,1 -1,-1 -1,-6 2,-2 1,2 z m 2,35 l 1,6 -2,2 -1,-1 -1,-6 2,-2 1,1 z m 2,36 l 1,6 -2,2 -1,-1 -1,-6 2,-2 1,1 z m 2,36 l 1,6 -2,2 -1,-1 -1,-6 2,-2 1,1 z m 2,36 l 1,6 -2,2 -1,-2 -1,-6 2,-1 1,1 z m 2,36 l 1,6 -2,2 -1,-2 -1,-6 2,-1 1,1 z m 2,36 l 1,6 -2,2 -1,-2 -1,-6 2,-1 1,1 z m 2,36 l 1,6 -2,2 -1,-2 -1,-6 2,-1 1,1 z m 2,36 l 1,6 -2,2 -1,-2 -1,-6 2,-1 1,1 z m -1,-15 l 1,-6 1,-2 2,2 -1,6 -1,1 -2,-1 z m 2,-36 l 1,-6 1,-2 2,2 -1,6
 -1,1 -2,-1 z m 2,-36 l 1,-6 1,-2 2,2 -1,6 -1,1 -2,-1 z m 3,-48 l 1,-6 1,-1 2,1 -1,6 -1,2 -2,-2 z m 2,-36 l 1,-6 1,-1 2,1 -1,6 -1,2 -2,-2 z m 2,-36 l 1,-6 1,-1 2,1 -1,6 -1,2 -2,-2 z m 2,-36 l 1,-6 1,-1 2,1 -1,6 -1,2 -2,-2 z m 2,-36 l 1,-6 1,-1 2,1 -1,6 -1,2 -2,-2 z m 2,-36 l 1,-6 1,-1 2,1 -1,6 -1,2 -2,-2 z m 2,-36 l 1,-6 1,-1 2,1 -1,6 -1,2 -2,-2 z m 2,-36 l 1,-6 1,-1 2,2 -1,6 -1,1 -2,-2 z m 2,-36 l 1,-6 1,-1 2,2 -1,6 -1,1 -2,-2 z m 2,-36 l 1,-6 1,-1 2,2 -1,6 -1,1 -2,-2 z m 2,-35 l 1,-6 1,-2 2,2 -1,6 -1,1 -2,-1 z m 35,-27 l 1,6 -1,2 -2,-2 -1,-6 2,-1 1,1 z m 3,24 l 1,6 -2,2 -1,-2 -1,-6 1,-1 2,1 z m
 1,12 l 1,6 -1,2 -2,-2 -1,-6 2,-1 1,1 z m 3,24 l 1,6 -2,1 -1,-1 -1,-6 1,-2 2,2 z m 1,12 l 1,6 -1,1 -2,-1 -1,-6 2,-2 1,2 z m 3,24 l 1,5 -2,2 -1,-1 -1,-6 1,-2 2,2 z m 1,11 l 1,6 -1,2 -2,-1 -1,-6 2,-2 1,1 z m 3,24 l 1,6 -2,2 -1,-1 -1,-6 1,-2 2,1 z m 1,12 l 1,6 -1,2 -2,-1 -1,-6 2,-2 1,1 z m 3,24 l 1,6 -2,2 -1,-2 -1,-6 1,-1 2,1 z m 1,12 l 1,6 -1,2 -2,-2 -1,-6 2,-1 1,1 z m 4,36 l 1,6 -1,1 -2,-1 -1,-6 2,-2 1,2 z m 3,24 l 1,6 -2,1 -1,-1 -1,-6 1,-2 2,2 z m 1,12 l 1,6 -1,1 -2,-1 -1,-6 2,-2 1,2 z m 2,11 l 0,3 1,3 -1,2 -2,-1 -1,-3 0,-3 1,-2 2,1 z m 2,12 l 1,6 -1,2 -2,-1 -1,-6 1,-2 2,1 z m
 -1283,159 l 1,6 -1,2 -2,-1 -1,-6 1,-2 2,1 z m 1291,-124 l 1,6 -1,2 -2,-1 -1,-6 1,-2 2,1 z m 3,12 l 1,6 -1,2 -2,-2 -1,-5 1,-2 2,1 z m 2,12 l 1,5 -1,2 -1,-1 -2,-6 1,-2 2,2 z m 3,11 l 1,6 -1,2 -2,-1 -1,-6 1,-2 2,1 z m 2,12 l 2,6 -1,2 -2,-1 -1,-6 1,-2 1,1 z m 6,23 l 1,6 -1,2 -2,-1 -1,-6 1,-2 2,1 z m -907,-208 l 1,-5 2,-2 1,2 -1,6 -2,1 -1,-2 z m 910,211 l 1,-6 1,-2 2,2 -1,6 -2,1 -1,-1 z m 1,-12 l 1,-6 2,-2 1,2 -1,6 -1,1 -2,-1 z m 3,-24 l 1,-6 1,-1 2,1 -1,6 -2,2 -1,-2 z m 1,-12 l 1,-6 2,-1 1,1 -1,6 -1,2 -2,-2 z m 3,-24 l 1,-6 1,-1 2,1 -1,6 -2,2 -1,-2 z m 1,-12 l 1,-6 2,-1 1,2 -1,5 -1,2 -2,-2 z m 3,-24 l 1,-6
 1,-1 2,2 -1,6 -2,1 -1,-2 z m 1,-12 l 1,-6 2,-1 1,2 -1,6 -1,1 -2,-2 z m 3,-23 l 1,-6 1,-2 2,2 -1,6 -2,1 -1,-1 z m 1,-12 l 1,-6 2,-2 1,2 -1,6 -1,1 -2,-1 z m 3,-24 l 1,-6 1,-2 2,2 -1,6 -2,1 -1,-1 z m 4,-36 l 1,-6 1,-1 2,1 -1,6 -2,2 -1,-2 z m 1,-12 l 1,-6 2,-1 1,1 -1,6 -1,2 -2,-2 z m 6,-24 l 1,6 -2,2 -1,-1 -1,-6 1,-2 2,1 z m 1,12 l 1,6 -1,2 -2,-1 -1,-6 2,-2 1,1 z m 3,24 l 1,6 -2,2 -1,-1 -1,-6 1,-2 2,1 z m 1,12 l 1,6 -1,2 -2,-2 -1,-6 2,-1 1,1 z m 3,24 l 1,6 -2,2 -1,-2 -1,-6 1,-1 2,1 z m 1,12 l 1,6 -1,2 -2,-2 -1,-6 2,-1 1,1 z m 3,24 l 1,6 -2,1 -1,-1 -1,-6 1,-2 2,2 z m 1,12 l 1,6 -1,1 -2,-1
 -1,-6 2,-2 1,2 z m 3,24 l 1,6 -2,1 -1,-1 -1,-6 1,-2 2,2 z m 1,11 l 1,6 -1,2 -2,-1 -1,-6 2,-2 1,1 z m 3,24 l 1,6 -2,2 -1,-1 -1,-6 1,-2 2,1 z m 1,12 l 1,6 -1,2 -2,-1 -1,-6 2,-2 1,1 z m 3,24 l 1,6 -2,2 -1,-2 -1,-6 1,-1 2,1 z m 1,12 l 1,6 -1,2 -2,-2 -1,-6 2,-1 1,1 z m 4,36 l 1,4 0,2 -1,1 -2,-1 0,-1 -1,-5 2,-2 1,2 z m 3,11 l 1,6 -1,2 -2,-1 -1,-6 1,-2 2,1 z m 8,36 l 1,5 -1,2 -2,-1 -1,-6 1,-2 2,2 z m 2,11 l 1,6 -1,2 -1,-1 -2,-6 1,-2 2,1 z m 3,12 l 1,6 -1,2 -2,-2 -1,-5 1,-2 2,1 z m 5,23 l 1,6 -1,2 -2,-1 -1,-6 1,-2 2,1 z m 3,12 l 1,6 -1,2 -2,-1 -1,-6 1,-2 2,1 z m -989,-351 l 2,-6 1,-1 1,2
 -1,6 -2,1 -1,-2 z m 994,374 l 1,6 -1,2 -2,-1 -1,-6 1,-2 2,1 z m 94,-506 l 1,6 -2,2 -1,-1 -1,-6 1,-2 2,1 z m 1,12 l 1,6 -1,2 -2,-2 -1,-6 2,-1 1,1 z m 3,24 l 1,6 -2,2 -1,-2 -1,-6 1,-1 2,1 z m 1,12 l 1,6 -1,2 -2,-2 -1,-6 2,-1 1,1 z m 3,24 l 1,6 -2,1 -1,-1 -1,-6 1,-2 2,2 z m 1,12 l 1,6 -1,1 -2,-1 -1,-6 2,-2 1,2 z m 3,24 l 1,5 -2,2 -1,-1 -1,-6 1,-2 2,2 z m 1,11 l 1,6 -1,2 -2,-1 -1,-6 2,-2 1,1 z m 3,24 l 1,6 -2,2 -1,-1 -1,-6 1,-2 2,1 z m 1,12 l 1,6 -1,2 -2,-1 -1,-6 2,-2 1,1 z m 3,24 l 1,6 -2,2 -1,-2 -1,-6 1,-1 2,1 z m 1,12 l 1,6 -1,2 -2,-2 -1,-6 2,-1 1,1 z m 4,36 l 1,6 -1,1 -2,-1 -1,-6 2,-2
 1,2 z m 0,21 l 1,-6 1,-1 2,1 -1,6 -2,2 -1,-2 z m 1,-12 l 1,-6 2,-1 1,1 -1,6 -1,2 -2,-2 z m 3,-24 l 1,-6 1,-1 2,2 -1,6 -2,1 -1,-2 z m 4,-36 l 1,-6 2,-1 1,2 -1,6 -1,1 -2,-2 z m 3,-23 l 1,-6 1,-2 2,2 -1,6 -2,1 -1,-1 z m 1,-12 l 1,-6 2,-2 1,2 -1,6 -1,1 -2,-1 z m 4,-36 l 1,-6 2,-1 1,1 -1,6 -1,2 -2,-2 z m 3,-24 l 1,-6 1,-1 2,1 -1,6 -2,2 -1,-2 z m 1,-12 l 1,-6 2,-1 1,2 -1,5 -1,2 -2,-2 z m 3,-24 l 1,-6 1,-1 2,2 -1,6 -2,1 -1,-2 z m 1,-12 l 1,-6 2,-1 1,2 -1,6 -1,1 -2,-2 z m 3,-23 l 1,-6 1,-2 2,2 -1,6 -2,1 -1,-1 z m 1,-12 l 1,-6 2,-2 1,2 -1,6 -1,1 -2,-1 z m 7,17 l 1,6 -2,2 -1,-2 -1,-6 2,-1 1,1 z m 2,24 l
 1,6 -2,1 -1,-1 -1,-6 2,-2 1,2 z m 1,12 l 1,6 -2,1 -1,-1 -1,-6 2,-2 1,2 z m 6,84 l 1,6 -2,1 -1,-1 -1,-6 2,-2 1,2 z m 1,12 l 1,6 -2,1 -1,-1 -1,-6 2,-2 1,2 z m 1,12 l 1,6 -2,1 -1,-1 -1,-6 2,-2 1,2 z m 1,11 l 1,6 -2,2 -1,-1 -1,-6 1,-2 2,1 z m 5,72 l 1,6 -1,2 -2,-2 -1,-5 2,-2 1,1 z m 1,12 l 1,6 -2,2 -1,-2 -1,-6 2,-1 1,1 z m 1,12 l 1,6 -2,2 -1,-2 -1,-6 2,-1 1,1 z m 1,12 l 1,6 -2,2 -1,-2 -1,-6 2,-1 1,1 z m 1,12 l 1,6 -2,2 -1,-2 -1,-6 1,-1 2,1 z m 5,72 l 1,6 -1,2 -2,-2 -1,-6 2,-1 1,1 z m 1,12 l 1,6 -2,2 -1,-2 -1,-6 2,-1 1,1 z m 2,12 l 1,5 -1,2 -2,-1 -1,-6 1,-2 2,2 z m 5,23 l 1,6 -1,2
 -2,-1 -1,-6 1,-2 2,1 z m 8,35 l 1,6 -1,2 -2,-1 -1,-6 1,-2 2,1 z m -1300,-49 l 1,6 -1,2 -2,-1 -1,-6 1,-2 2,1 z m 1308,84 l 1,6 -1,2 -2,-1 -1,-6 1,-2 2,1 z m 2,12 l 2,6 -1,2 -2,-2 -1,-5 1,-2 1,1 z m -1307,-84 l 1,6 -1,2 -2,-1 -1,-6 1,-2 2,1 z m 1318,74 l 1,-6 2,-1 1,2 -1,6 -2,1 -1,-2 z m -1613,-52 l 1,6 -1,2 -2,-2 -1,-5 1,-2 2,1 z m 1618,28 l 1,-5 2,-2 1,2 -1,6 -2,1 -1,-2 z m 3,-11 l 1,-6 2,-1 1,2 -1,5 -2,2 -1,-2 z m -1321,-15 l 1,5 -1,2 -2,-1 -1,-6 1,-2 2,2 z m 1326,-9 l 1,-6 2,-1 1,2 -1,6 -2,1 -1,-2 z m 5,-23 l 2,-6 1,-1 1,2 -1,6 -2,1 -1,-2 z m 3,-12 l 1,-5 0,-1 2,-1 1,2 0,1 -1,5 -2,1 -1,-2 z m 3,-23 l 1,-6 1,-2
 2,2 -1,6 -2,1 -1,-1 z m 1,-12 l 1,-6 2,-2 1,2 -1,6 -1,1 -2,-1 z m 4,-36 l 1,-6 2,-1 1,1 -1,6 -1,2 -2,-2 z m 3,-24 l 1,-6 1,-1 2,1 -1,6 -2,2 -1,-2 z m 1,-12 l 1,-6 2,-1 1,2 -1,5 -1,2 -2,-2 z m 3,-24 l 1,-6 1,-1 2,2 -1,6 -2,1 -1,-2 z m 4,-35 l 1,-6 2,-2 1,2 -1,6 -1,1 -2,-1 z m 3,-24 l 1,-6 1,-2 2,2 -1,6 -2,1 -1,-1 z m 1,-12 l 1,-6 2,-2 1,2 -1,6 -1,1 -2,-1 z m 3,-24 l 1,-6 1,-1 2,1 -1,6 -2,2 -1,-2 z m 1,-12 l 1,-6 2,-1 1,1 -1,6 -1,2 -2,-2 z m 3,-24 l 1,-6 1,-1 2,1 -1,6 -2,2 -1,-2 z m 4,-8 l 1,6 -1,2 -2,-1 -1,-6 2,-2 1,1 z m 3,24 l 1,6 -2,2 -1,-1 -1,-6 1,-2 2,1 z m 1,12 l 1,6 -1,2 -2,-1 -1,-6
 2,-2 1,1 z m 3,24 l 1,6 -2,2 -1,-2 -1,-6 1,-1 2,1 z m 1,12 l 1,6 -1,2 -2,-2 -1,-6 2,-1 1,1 z m 4,36 l 1,6 -1,1 -2,-1 -1,-6 2,-2 1,2 z m 3,24 l 1,6 -2,1 -1,-1 -1,-6 1,-2 2,2 z m 1,12 l 1,6 -1,1 -2,-1 -1,-6 2,-2 1,2 z m 3,23 l 1,6 -2,2 -1,-1 -1,-6 1,-2 2,1 z m 1,12 l 1,6 -1,2 -2,-1 -1,-6 2,-2 1,1 z m 3,24 l 1,6 -2,2 -1,-2 -1,-5 1,-2 2,1 z m 1,12 l 1,6 -1,2 -2,-2 -1,-6 2,-1 1,1 z m 3,24 l 1,6 -2,2 -1,-2 -1,-6 1,-1 2,1 z m 1,12 l 1,6 -1,2 -2,-2 -1,-6 2,-1 1,1 z m 59,-265 l 1,-6 1,-1 2,2 -1,6 -1,1 -2,-2 z m 1,-24 l 1,-6 1,-1 2,2 -1,6 -1,1 -2,-2 z m 3,-83 l 1,-6 1,-2 2,2 -1,6 -1,1 -2,-1 z m
 1,-24 l 1,-6 1,-2 2,2 -1,6 -1,1 -2,-1 z m 1,-24 l 1,-6 1,-2 2,2 -1,6 -1,1 -2,-1 z m 3,-84 l 1,-6 1,-2 2,2 -1,6 -1,1 -2,-1 z m 1,-24 l 1,-6 1,-2 2,2 -1,6 -1,1 -2,-1 z m 3,-84 l 1,-6 1,-2 2,2 -1,6 -1,1 -2,-1 z m 1,-24 l 1,-6 1,-2 2,2 -1,6 -1,1 -2,-1 z m 1,-24 l 1,-6 1,-2 2,2 -1,6 -1,1 -2,-1 z m 3,-84 l 1,-6 1,-2 2,2 -1,6 -1,1 -2,-1 z m 1,-24 l 1,-6 1,-2 2,2 -1,6 -1,1 -2,-1 z m 4,-108 l 1,-6 1,-2 2,2 -1,6 -1,1 -2,-1 z m 1,-24 l 1,-6 1,-2 2,2 -1,6 -1,1 -2,-1 z m 3,-84 l 1,-6 1,-1 2,1 -1,6 -1,2 -2,-2 z m 1,-24 l 1,-6 1,-1 2,1 -1,6 -1,2 -2,-2 z m 61,1155 l 1,-6 1,-1 2,2 -1,6 -2,1 -1,-2 z m 1,-12 l 1,-6
 2,-1 1,2 -1,6 -1,1 -2,-2 z m 3,-23 l 1,-6 1,-2 2,2 -1,6 -2,1 -1,-1 z m 1,-12 l 1,-6 2,-2 1,2 -1,6 -1,1 -2,-1 z m 3,-24 l 1,-6 1,-2 2,2 -1,6 -2,1 -1,-1 z m 1,-12 l 1,-6 2,-1 1,1 -1,6 -1,2 -2,-2 z m 3,-24 l 1,-6 1,-1 2,1 -1,6 -2,2 -1,-2 z m 1,-12 l 1,-6 2,-1 1,1 -1,6 -1,2 -2,-2 z m 3,-24 l 1,-6 1,-1 2,2 -1,6 -2,1 -1,-2 z m 1,-12 l 1,-6 2,-1 1,2 -1,6 -1,1 -2,-2 z m 3,-24 l 1,-6 2,-1 1,2 -1,6 -2,1 -1,-2 z m 3,-23 l 1,-6 1,-2 2,2 -1,6 -2,1 -1,-1 z m 1,-12 l 1,-6 2,-2 1,2 -1,6 -1,1 -2,-1 z m 4,-36 l 1,-6 2,-1 1,1 -1,6 -1,2 -2,-2 z m 35,-13 l 1,6 -1,1 -2,-1 -1,-6 2,-2 1,2 z m 3,23 l 1,6 -2,2 -1,-1
 -1,-6 1,-2 2,1 z m 1,12 l 1,6 -1,2 -2,-1 -1,-6 2,-2 1,1 z m 3,24 l 1,6 -2,2 -1,-1 -1,-6 1,-2 2,1 z m 1,12 l 1,6 -1,2 -2,-2 -1,-5 2,-2 1,1 z m 3,24 l 1,6 -2,2 -1,-2 -1,-6 1,-1 2,1 z m 1,12 l 1,6 -1,2 -2,-2 -1,-6 2,-1 1,1 z m 3,24 l 1,6 -2,1 -1,-1 -1,-6 1,-2 2,2 z m 1,12 l 1,6 -1,1 -2,-1 -1,-6 2,-2 1,2 z m 3,24 l 1,6 -2,1 -1,-1 -1,-6 1,-2 2,2 z m 1,11 l 1,6 -1,2 -2,-1 -1,-6 2,-2 1,1 z m 3,24 l 1,6 -2,2 -1,-1 -1,-6 1,-2 2,1 z m 1,12 l 1,6 -1,2 -2,-1 -1,-6 2,-2 1,1 z m 3,24 l 1,6 -2,2 -1,-2 -1,-6 1,-1 2,1 z m 34,9 l 1,-6 2,-1 1,2 -1,6 -2,1 -1,-2 z m -1665,-57 l 1,6 -1,2 -2,-1 -1,-6 1,-2
 2,1 z m 1673,22 l 1,-6 2,-1 1,2 -1,5 -2,2 -1,-2 z m 2,-12 l 2,-6 1,-1 1,2 -1,6 -2,1 -1,-2 z m 3,-12 l 1,-5 2,-2 1,2 -1,6 -2,1 -1,-2 z m 5,-23 l 1,-6 2,-1 1,2 -1,6 -2,1 -1,-2 z m 3,-12 l 1,-6 2,-1 1,2 -1,6 -2,1 -1,-2 z m 5,-23 l 1,-6 1,-1 2,1 -1,6 -2,2 -1,-2 z m 1,-12 l 1,-6 2,-1 1,1 -1,6 -1,2 -2,-2 z m 3,-24 l 1,-6 1,-1 2,2 -1,6 -2,1 -1,-2 z m 1,-12 l 1,-6 2,-1 1,2 -1,6 -1,1 -2,-2 z m 3,-24 l 1,-5 1,-2 2,2 -1,6 -2,1 -1,-2 z m 1,-11 l 1,-6 2,-2 1,2 -1,6 -1,1 -2,-1 z m 3,-24 l 1,-6 1,-2 2,2 -1,6 -2,1 -1,-1 z m 4,-36 l 1,-6 1,-1 2,1 -1,6 -2,2 -1,-2 z m 1,-12 l 1,-6 2,-1 1,1 -1,6 -1,2 -2,-2 z m 3,-24 l
 1,-6 1,-1 2,2 -1,5 -2,2 -1,-2 z m 1,-12 l 1,-6 2,-1 1,2 -1,6 -1,1 -2,-2 z m 3,-24 l 1,-6 1,-1 2,2 -1,6 -2,1 -1,-2 z m 1,-12 l 1,-5 2,-2 1,2 -1,6 -1,1 -2,-2 z m 3,-23 l 1,-6 1,-2 2,2 -1,6 -2,1 -1,-1 z m 32,-18 l 1,-6 1,-2 2,2 -1,6 -2,1 -1,-1 z m 6,-84 l 1,-6 1,-1 2,1 -1,6 -1,2 -2,-2 z m 1,-12 l 1,-6 1,-1 2,1 -1,6 -1,2 -2,-2 z m 1,-12 l 1,-6 1,-1 2,1 -1,6 -1,2 -2,-2 z m 1,-12 l 1,-6 1,-1 2,1 -1,6 -2,2 -1,-2 z m 6,-84 l 1,-6 1,-1 2,2 -1,6 -1,1 -2,-2 z m 1,-12 l 1,-6 1,-1 2,2 -1,6 -1,1 -2,-2 z m 1,-12 l 1,-6 1,-1 2,2 -1,6 -1,1 -2,-2 z m 1,-12 l 1,-6 1,-1 2,2 -1,6 -2,1 -1,-2 z m 6,-83 l 1,-6 1,-2
 2,2 -1,6 -1,1 -2,-1 z m 1,-12 l 1,-6 1,-2 2,2 -1,6 -1,1 -2,-1 z m 1,-12 l 1,-6 1,-2 2,2 -1,6 -1,1 -2,-1 z m 1,-12 l 1,-6 1,-2 2,2 -1,6 -2,1 -1,-1 z m 6,-29 l 1,6 -2,1 -1,-1 -1,-6 2,-2 1,2 z m 1,24 l 1,6 -2,1 -1,-1 -1,-6 2,-2 1,2 z m 4,84 l 1,6 -2,1 -1,-1 -1,-6 2,-2 1,2 z m 1,24 l 1,6 -2,1 -1,-1 -1,-6 2,-2 1,2 z m 1,24 l 1,6 -2,1 -1,-1 -1,-6 2,-2 1,2 z m 5,108 l 1,6 -2,1 -1,-1 -1,-6 2,-2 1,2 z m 1,24 l 1,6 -2,1 -1,-1 -1,-6 2,-2 1,2 z m 1,24 l 1,6 -2,1 -1,-1 -1,-6 2,-2 1,2 z m 4,83 l 1,6 -2,2 -1,-1 -1,-6 2,-2 1,1 z m 1,24 l 1,6 -2,2 -1,-1 -1,-6 2,-2 1,1 z m 1,24 l 1,6 -2,2 -1,-1 -1,-6
 2,-2 1,1 z m 1,24 l 1,6 -2,2 -1,-1 -1,-6 2,-2 1,1 z m 4,84 l 1,6 -2,2 -1,-2 -1,-6 2,-1 1,1 z m 1,24 l 1,6 -2,2 -1,-2 -1,-6 2,-1 1,1 z m 1,24 l 1,6 -2,2 -1,-2 -1,-6 2,-1 1,1 z m 1,24 l 1,6 -2,2 -1,-2 -1,-6 2,-1 1,1 z m 0,30 l 1,-5 2,-2 1,2 -1,6 -2,1 -1,-2 z m -1810,75 l 1,6 -1,2 -1,-1 -2,-6 1,-2 2,1 z m 1815,-98 l 1,-6 2,-1 1,2 -1,6 -2,1 -1,-2 z m 3,-12 l 1,-6 2,-1 1,2 -2,6 -1,1 -1,-2 z m 5,-23 l 1,-6 2,-1 1,2 -1,6 -2,1 -1,-2 z m 5,-24 l 1,-5 2,-2 1,2 -1,6 -2,1 -1,-2 z m 3,-11 l 1,-6 2,-1 1,2 -1,5 -2,2 -1,-2 z m -1826,191 l 2,6 -1,2 -2,-1 -1,-6 1,-2 1,1 z m 1831,-215 l 1,-5 2,-2 1,2 -1,6 -2,1 -1,-2 z m
 6,-59 l 1,-6 2,-1 1,1 -1,6 -1,2 -2,-2 z m 1,-12 l 1,-6 1,-1 2,1 -1,6 -1,2 -2,-2 z m 1,-12 l 1,-6 1,-1 2,1 -1,6 -1,2 -2,-2 z m 1,-12 l 1,-6 1,-1 2,1 -1,6 -1,2 -2,-2 z m 1,-12 l 1,-6 1,-1 2,1 -1,6 -2,2 -1,-2 z m 5,-72 l 1,-6 2,-1 1,2 -1,6 -1,1 -2,-2 z m 1,-12 l 1,-6 1,-1 2,2 -1,6 -1,1 -2,-2 z m 1,-12 l 1,-6 1,-1 2,2 -1,6 -1,1 -2,-2 z m 1,-12 l 1,-6 1,-1 2,2 -1,6 -1,1 -2,-2 z m 6,-83 l 1,-6 1,-2 2,2 -1,6 -1,1 -2,-1 z m 1,-12 l 1,-6 1,-2 2,2 -1,6 -1,1 -2,-1 z m 1,-12 l 1,-6 1,-2 2,2 -1,6 -1,1 -2,-1 z m 1,-12 l 1,-6 1,-2 2,2 -1,6 -2,1 -1,-1 z m 5,-72 l 1,-6 2,-1 1,1 -1,6 -1,2 -2,-2 z m 241,659 l 1,-6
 2,-1 1,2 -1,6 -2,1 -1,-2 z m 3,-12 l 1,-5 2,-2 1,2 -1,6 -2,1 -1,-2 z m -2104,-14 l 1,6 -1,2 -2,-1 -1,-6 1,-2 2,1 z m 2109,-9 l 1,-6 2,-1 1,2 -1,6 -2,1 -1,-2 z m 3,-12 l 1,-6 2,-1 1,2 -1,6 -2,1 -1,-2 z m 5,-23 l 1,-6 2,-1 1,2 -1,6 -2,1 -1,-2 z m 3,-12 l 1,-6 2,-1 1,2 -2,6 -1,1 -1,-2 z m 5,-23 l 1,-6 2,-1 1,2 -1,5 -2,2 -1,-2 z m 11,-20 l 1,5 -1,2 -2,-1 -1,-6 1,-2 2,2 z m 5,23 l 1,6 -1,2 -2,-1 -1,-6 1,-2 2,1 z m -2078,-164 l 1,-6 2,-1 1,2 -1,6 -2,1 -1,-2 z m 2086,199 l 1,6 -1,2 -2,-1 -1,-6 1,-2 2,1 z m 2,12 l 2,6 -1,2 -2,-2 -1,-5 1,-2 1,1 z m 3,12 l 1,5 -1,2 -1,-1 -2,-6 1,-2 2,2 z m 3,11 l 1,6 -1,2 -2,-1
 -1,-6 1,-2 2,1 z m -2091,-246 l 1,-5 2,-2 1,2 -1,6 -2,1 -1,-2 z m 2096,275 l 1,-6 2,-1 1,2 -1,6 -2,1 -1,-2 z m 8,-35 l 1,-6 2,-1 1,2 -1,5 -2,2 -1,-2 z m -2099,-263 l 1,-6 2,-1 1,2 -1,6 -2,1 -1,-2 z m 2104,239 l 1,-5 2,-2 1,2 -1,6 -2,1 -1,-2 z m 5,-23 l 2,-6 1,-1 1,2 -1,6 -2,1 -1,-2 z m 3,-12 l 1,-6 2,-1 1,2 -1,6 -2,1 -1,-2 z m 5,-23 l 1,-6 2,-1 1,2 -1,6 -2,1 -1,-2 z m -2114,-193 l 1,-6 2,-1 1,2 -2,6 -1,1 -1,-2 z m 2125,203 l 1,5 -1,2 -2,-1 -1,-6 1,-2 2,2 z m 3,11 l 1,6 -1,2 -2,-1 -1,-6 1,-2 2,1 z m 8,35 l 1,6 -1,2 -2,-1 -1,-6 1,-2 2,1 z m -2131,-272 l 1,-6 2,-1 1,2 -1,6 -2,1 -1,-2 z m 2138,308 l 2,5 -1,2 -2,-1 -1,-6 1,-2
 1,2 z m 3,11 l 1,6 -1,2 -1,-1 -2,-6 1,-2 2,1 z m -1318,-511 l 0,-5 1,-1 2,0 2,1 -2,2 -2,0 2,-1 0,4 -2,1 -1,-1 z m -213,527 l 4,0 -1,1 0,-1 2,-2 1,2 0,2 -2,1 -4,0 -1,-2 1,-1 z m 872,-261 l 0,-4 1,-1 3,0 1,1 -1,2 -3,0 2,-1 0,3 -2,2 -1,-2 z m 150,-133 l 0,-5 1,-1 2,0 2,1 -2,2 -2,0 2,-1 -1,4 -1,1 -1,-1 z m -473,-93 l 1,6 -2,1 -1,-1 -1,-6 2,-1 1,1 z m -714,440 l 1,-6 2,-1 1,1 -1,6 -2,1 -1,-1 z m 750,-46 l 1,6 -1,1 -2,-1 -1,-6 1,-1 2,1 z m -1182,-301 l 1,-5 2,-1 1,1 0,1 -1,2 -2,-2 3,0 -1,5 -2,1 -1,-2 z m 1190,336 l 1,6 -1,1 -2,-1 -1,-6 1,-1 2,1 z m -750,-24 l 1,-6 2,-1 1,1 -1,6 -2,1 -1,-1 z m 760,71 l 1,6
 -1,1 -1,-1 -2,-6 1,-1 2,1 z m 3,11 l 0,1 -3,0 1,-5 2,-1 1,2 -1,5 -2,1 -1,-1 0,-1 1,-2 2,1 z m 2,-21 l 1,-6 2,-1 1,1 -1,6 -2,1 -1,-1 z m -831,-157 l 1,-6 2,-1 1,1 -1,6 -1,1 -2,-1 z m 850,75 l 1,-6 2,-1 1,1 -1,6 -2,1 -1,-1 z m 12,-83 l 1,-6 1,-1 2,1 -1,6 -2,1 -1,-1 z m 38,-115 l 1,6 -2,1 -1,-1 -1,-6 1,-1 2,1 z m -748,228 l 1,6 -1,1 -1,-1 -2,-6 1,-1 2,1 z m 8,35 l 1,6 -1,1 -2,-1 -1,-6 1,-1 2,1 z m -340,-19 l 2,-6 1,-1 1,1 -1,6 -2,1 -1,-1 z m 408,51 l 1,-6 2,-1 1,1 -1,6 -2,1 -1,-1 z m 864,-231 l 1,-6 1,-1 2,1 -1,6 -2,1 -1,-1 z m -341,-160 l 1,-6 1,-1 2,1 -1,6 -2,1 -1,-1 z m -515,356 l 1,-6 2,-1 1,1 -1,6 -2,1
 -1,-1 z m 256,-286 l 1,6 -2,1 -1,-1 -1,-6 1,-1 2,1 z m 666,327 l 0,1 -2,-1 5,0 2,1 -2,2 -5,0 -1,-1 0,-2 1,-1 2,1 z m 28,-3 l 1,-6 2,-1 1,1 -1,6 -2,1 -1,-1 z m -932,-120 l 1,-6 2,-1 1,1 -1,6 -2,1 -1,-1 z m -426,31 l 1,-6 2,-1 1,1 -1,6 -2,1 -1,-1 z m 1366,54 l 1,-6 2,-1 1,1 -1,6 -2,1 -1,-1 z m -1734,-19 l 2,-6 1,-1 1,1 -1,6 -2,1 -1,-1 z m 1044,-187 l 1,6 -1,1 -2,-1 -1,-6 1,-1 2,1 z m -242,86 l 1,-6 2,-1 1,1 -1,6 -2,1 -1,-1 z m 943,73 l 1,-6 2,-1 1,2 -2,5 -1,1 -1,-1 z m -1974,47 l 1,6 -1,1 -2,-1 -1,-6 1,-1 2,1 z m 1042,-167 l 1,-6 2,-1 1,1 -1,6 -2,1 -1,-1 z m 249,43 l 1,6 -1,1 -2,-1 -1,-6 1,-1 2,1 z m -241,-78 l 1,-6 2,-1 1,1
 -2,6 -1,1 -1,-1 z m 947,-11 l 1,-6 2,-1 1,1 -1,6 -1,1 -2,-1 z m -942,-13 l 0,-1 1,-1 2,1 1,5 -1,2 -2,-1 -1,-5 3,0 0,1 -2,1 -1,-2 z m -257,-8 l 1,6 -1,1 -2,-1 -1,-6 2,-1 1,1 z m -561,180 l 1,-6 2,-1 1,1 -1,6 -2,1 -1,-1 z m 834,-115 l 1,6 -1,1 -2,-1 -1,-6 1,-1 2,1 z m 8,35 l 1,6 -1,1 -2,-1 -1,-6 1,-1 2,1 z m 239,-167 l 1,-6 2,-1 1,1 -1,6 -1,1 -2,-1 z m 797,158 l 2,-6 1,-1 1,1 -1,6 -2,1 -1,-1 z m -1817,133 l 1,6 -1,1 -2,-1 -1,-6 1,-1 2,1 z m 1058,-100 l 1,6 -2,1 -1,-1 -1,-6 1,-1 2,1 z m 9,47 l 1,6 -1,1 -2,-1 -1,-6 1,-1 2,1 z m 10,47 l 2,6 -1,1 -2,-1 -1,-6 1,-1 1,1 z m 1042,-3 l 2,-6 1,-1 1,1 -1,6 -2,1 -1,-1 z m 8,-35 l
 1,-6 2,-1 1,1 -1,6 -2,1 -1,-1 z m -2119,79 l 1,6 -1,1 -2,-1 -1,-6 1,-1 2,1 z m 2141,-76 l 1,6 -1,1 -2,-1 -1,-6 1,-1 2,1 z m 18,82 l 1,6 -1,1 -2,-1 -1,-6 1,-1 2,1 z m -2473,-66 l 1,6 -1,1 -1,-1 -2,-6 1,-1 2,1 z m 2478,48 l 1,-6 2,-1 1,1 -1,6 -2,1 -1,-1 z m -966,-274 l 1,6 -2,1 -1,-1 -1,-6 1,-1 2,1 z m 977,227 l 1,-6 2,-1 1,1 -1,6 -2,1 -1,-1 z m 8,-35 l 1,-6 2,-1 1,1 -2,6 -1,1 -1,-1 z m 5,-24 l 0,-1 1,-1 2,1 1,5 -1,2 -2,-1 -1,-5 3,0 0,1 -2,1 -1,-2 z m -2115,-192 l 1,-6 2,-1 1,1 -1,6 -2,1 -1,-1 z m 2131,249 l 1,6 -1,1 -2,-1 -1,-6 1,-1 2,1 z m 8,35 l 1,6 -1,1 -2,-1 -1,-6 1,-1 2,1 z m 8,35 l 1,5 -1,2 -2,-1 -1,-5
 1,-2 2,1 z m -1921,-124 l 1,-4 2,-1 1,2 -1,4 -2,1 -1,-2 z m -597,125 l 1,4 -1,2 -2,-1 -1,-4 1,-2 2,1 z m 2425,-125 l 1,-4 1,-1 2,1 0,2 -1,2 -2,-2 0,-1 3,0 -1,4 -2,1 -1,-2 z m -1257,95 l 0,6 -1,2 -2,-2 0,-6 1,-1 2,1 z m 450,-105 l 0,-6 2,-2 1,2 0,6 -2,1 -1,-1 z m -449,117 l 0,6 -1,2 -2,-2 0,-6 1,-1 2,1 z m 453,-153 l 0,-6 2,-2 1,2 0,6 -2,1 -1,-1 z m -90,-337 l 0,6 -1,2 -2,-2 0,-6 1,-1 2,1 z m -365,511 l 0,-6 2,-2 1,2 0,6 -1,1 -2,-1 z m 459,-210 l 0,-6 2,-1 1,1 0,6 -2,2 -1,-2 z m -458,198 l 0,-6 2,-2 1,2 0,6 -2,1 -1,-1 z m -772,-344 l 0,6 -1,1 -2,-1 0,-6 1,-2 2,2 z m 1234,110 l 0,-6 2,-1 1,2 0,6 -2,1 -1,-2 z m -461,210 l 0,-6
 2,-2 1,2 0,6 -1,1 -2,-1 z m 464,-234 l 0,-6 2,-1 1,2 -1,6 -1,1 -1,-2 z m 1,-12 l 1,-6 1,-1 1,2 0,6 -2,1 -1,-2 z m -464,234 l 0,-6 2,-2 1,2 0,6 -2,1 -1,-1 z m 467,-257 l 0,-6 2,-2 1,2 0,6 -2,1 -1,-1 z m -872,79 l 0,-6 2,-1 1,1 0,6 -2,2 -1,-2 z m 406,154 l 0,-6 2,-2 1,2 0,6 -1,1 -2,-1 z m 1,-12 l 0,-6 2,-2 1,2 0,6 -2,1 -1,-1 z m -406,-154 l 0,-6 2,-1 1,1 0,6 -2,2 -1,-2 z m 879,-139 l 0,-6 2,-1 1,1 0,6 -2,2 -1,-2 z m -471,257 l 0,-6 2,-1 1,1 0,6 -2,2 -1,-2 z m 478,-265 l 0,6 -1,2 -2,-1 0,-6 1,-2 2,1 z m -477,253 l 0,-6 1,-1 2,1 0,6 -2,2 -1,-2 z m -408,-118 l 0,-6 2,-1 1,1 0,6 -2,2 -1,-2 z m 889,-99 l 0,6 -1,2 -2,-2
 0,-6 1,-1 2,1 z m -480,193 l 0,-6 2,-1 1,1 0,6 -2,2 -1,-2 z m 1,-12 l 0,-6 1,-1 2,1 0,6 -2,2 -1,-2 z m 483,-145 l 0,6 -1,2 -2,-2 0,-6 1,-1 2,1 z m -902,183 l 0,-6 2,-2 1,2 0,6 -2,1 -1,-1 z m 10,-132 l 0,-6 2,-1 1,1 0,6 -2,2 -1,-2 z m 896,-15 l 0,6 -1,1 -2,-1 0,-6 1,-2 2,2 z m -486,85 l 0,-6 2,-1 1,1 0,6 -2,2 -1,-2 z m 1,-12 l 0,-6 1,-1 2,1 0,6 -2,2 -1,-2 z m 489,-38 l 0,6 -1,2 -2,-1 0,-6 1,-2 2,1 z m -153,-179 l 0,-6 2,-1 1,1 0,6 -2,2 -1,-2 z m -335,193 l 0,-6 2,-1 1,1 0,6 -2,2 -1,-2 z m 492,22 l 0,6 -1,2 -2,-1 0,-6 1,-2 2,1 z m -491,-34 l 0,-6 1,-1 2,1 0,6 -2,2 -1,-2 z m -412,-34 l 0,-6 2,-1 1,1 0,6 -2,2
 -1,-2 z m 907,104 l 0,6 -1,2 -2,-2 0,-6 1,-1 2,1 z m -494,-94 l 0,-6 2,-1 1,1 0,6 -2,2 -1,-2 z m 1,-12 l 0,-6 2,-1 1,1 0,6 -2,2 -1,-2 z m 554,-123 l 0,-6 2,-1 1,2 0,6 -2,1 -1,-2 z m -967,113 l 0,-6 2,-1 1,1 0,6 -2,2 -1,-2 z m 968,-137 l 0,-6 2,-1 1,2 0,6 -2,1 -1,-2 z m -554,123 l 0,-6 2,-1 1,1 0,6 -2,2 -1,-2 z m 555,-147 l 0,-6 2,-1 1,2 0,6 -2,1 -1,-2 z m 0,-12 l 0,-6 2,-1 1,2 0,6 -1,1 -2,-2 z m 1,-12 l 0,-6 1,-1 2,2 0,6 -2,1 -1,-2 z m 0,-12 l 0,-6 2,-1 1,2 0,6 -1,1 -2,-2 z m 1,-11 l 0,-6 1,-2 2,2 0,6 -2,1 -1,-1 z m 0,-12 l 0,-6 2,-2 1,2 0,6 -2,1 -1,-1 z m -556,194 l 0,-6 2,-1 1,1 0,6 -2,2 -1,-2 z m 557,-218 l
 0,-6 2,-2 1,2 0,6 -2,1 -1,-1 z m -592,174 l 0,6 -1,1 -2,-1 0,-6 1,-2 2,2 z m 593,-198 l 0,-6 2,-2 1,2 0,6 -2,1 -1,-1 z m -557,218 l 0,-6 2,-1 1,1 0,6 -2,2 -1,-2 z m 558,-242 l 0,-6 2,-2 1,2 0,6 -2,1 -1,-1 z m 0,-12 l 0,-6 2,-2 1,2 0,6 -1,1 -2,-1 z m 1,-12 l 0,-6 1,-2 2,2 0,6 -2,1 -1,-1 z m 0,-12 l 0,-6 2,-2 1,2 0,6 -1,1 -2,-1 z m 1,-12 l 0,-6 1,-2 2,2 0,6 -2,1 -1,-1 z m 0,-12 l 0,-6 2,-2 1,2 0,6 -2,1 -1,-1 z m -559,290 l 0,-6 2,-1 1,1 0,6 -2,2 -1,-2 z m 560,-314 l 0,-6 2,-2 1,2 0,6 -2,1 -1,-1 z m -1332,473 l 0,6 -1,1 -2,-1 0,-6 1,-2 2,2 z m 1333,-497 l 0,-6 2,-2 1,2 0,6 -2,1 -1,-1 z m 0,-12 l 0,-6 2,-2
 1,2 0,6 -1,1 -2,-1 z m 1,-12 l 0,-6 1,-2 2,2 0,6 -2,1 -1,-1 z m 0,-12 l 0,-6 2,-2 1,2 0,6 -1,1 -2,-1 z m 1,-12 l 0,-6 1,-2 2,2 0,6 -2,1 -1,-1 z m 0,-12 l 0,-6 2,-2 1,2 0,6 -2,1 -1,-1 z m -562,374 l 0,-6 2,-1 1,2 0,5 -2,2 -1,-2 z m 563,-398 l 0,-6 2,-2 1,2 0,6 -2,1 -1,-1 z m -562,386 l 0,-6 2,-1 1,2 0,6 -2,1 -1,-2 z m 563,-410 l 0,-6 2,-2 1,2 0,6 -2,1 -1,-1 z m -1352,474 l 0,5 -1,2 -2,-1 0,-6 1,-2 2,2 z m 1353,-498 l 0,-6 2,-2 1,2 0,6 -2,1 -1,-1 z m 0,-12 l 0,-6 2,-2 1,2 0,6 -1,1 -2,-1 z m 1,-12 l 0,-6 1,-2 2,2 0,6 -2,1 -1,-1 z m 0,-12 l 0,-6 2,-2 1,2 0,6 -1,1 -2,-1 z m 1,-12 l 0,-6 1,-2 2,2 0,6
 -2,1 -1,-1 z m 0,-12 l 0,-6 2,-2 1,2 0,6 -2,1 -1,-1 z m -565,470 l 0,-6 2,-1 1,2 0,6 -2,1 -1,-2 z m 566,-494 l 0,-6 2,-2 1,2 0,6 -2,1 -1,-1 z m -565,482 l 0,-6 2,-1 1,2 0,6 -2,1 -1,-2 z m 566,-506 l 0,-6 2,-2 1,2 0,6 -2,1 -1,-1 z m 0,-12 l 0,-6 2,-2 1,2 0,6 -1,1 -2,-1 z m 1,-12 l 0,-6 1,-2 2,2 0,6 -2,1 -1,-1 z m 0,-12 l 0,-6 2,-2 1,2 0,6 -1,1 -2,-1 z m 1,-12 l 0,-6 1,-2 2,2 0,6 -2,1 -1,-1 z m 0,-12 l 0,-6 2,-2 1,2 0,6 -2,1 -1,-1 z m 1,-12 l 0,-6 1,-2 2,2 0,6 -2,1 -1,-1 z m 0,-12 l 0,-6 2,-2 1,2 0,6 -2,1 -1,-1 z m -609,666 l 0,6 -2,1 -1,-1 0,-6 1,-2 2,2 z m 610,-690 l 0,-6 2,-2 1,2 0,6 -2,1 -1,-1 z m
 -569,590 l 0,-6 2,-1 1,2 0,6 -2,1 -1,-2 z m 570,-614 l 0,-6 2,-2 1,2 0,6 -2,1 -1,-1 z m 0,-12 l 0,-6 2,-2 1,2 0,6 -1,1 -2,-1 z m 1,-12 l 0,-6 1,-2 2,2 0,6 -2,1 -1,-1 z m 0,-12 l 0,-6 2,-2 1,2 0,6 -1,1 -2,-1 z m 1,-12 l 0,-6 1,-2 2,2 0,6 -2,1 -1,-1 z m -571,650 l 0,-6 2,-1 1,2 0,6 -2,1 -1,-2 z m 572,-686 l 0,-6 2,-1 1,1 0,6 -2,2 -1,-2 z m -829,1142 l 6,0 2,1 -2,2 -6,0 -1,-2 1,-1 z m 830,-1166 l 0,-6 2,-1 1,1 0,6 -2,2 -1,-2 z m 0,-12 l 0,-6 2,-1 1,1 0,6 -1,2 -2,-2 z m 1,-12 l 0,-6 1,-1 2,1 0,6 -2,2 -1,-2 z m -573,711 l 0,-6 2,-2 1,2 0,6 -2,1 -1,-1 z m 1,-12 l 0,-6 2,-2 1,2 0,6 -2,1 -1,-1 z m 634,468 l 0,-5
 2,-2 1,2 0,6 -2,1 -1,-2 z m -881,23 l 6,0 2,1 -2,2 -6,0 -1,-2 1,-1 z m 248,-515 l 0,-6 2,-2 1,2 0,6 -2,1 -1,-1 z m 637,457 l 0,-6 2,-2 1,2 0,6 -2,1 -1,-1 z m -689,-406 l 0,6 -1,1 -2,-1 0,-6 1,-2 2,2 z m 62,-69 l 6,0 2,1 -2,2 -6,0 -1,-2 1,-1 z m 631,439 l 0,-6 2,-1 1,1 0,6 -2,2 -1,-2 z m -619,-439 l 6,0 2,1 -2,2 -6,0 -1,-2 1,-1 z m -258,533 l 6,0 2,1 -2,2 -6,0 -1,-2 1,-1 z m 881,-130 l 0,-6 2,-1 1,2 0,5 -2,2 -1,-2 z m -609,-388 l 0,6 -1,2 -2,-2 0,-6 1,-1 2,1 z m -260,518 l 6,0 2,1 -2,2 -6,0 -1,-2 1,-1 z m 873,-166 l 0,-6 2,-1 1,2 0,6 -2,1 -1,-2 z m -334,-219 l 0,-6 2,-2 1,2 0,6 -2,1 -1,-1 z m 337,196 l 0,-6 2,-2 1,2
 -1,6 -1,1 -1,-1 z m -312,-262 l 0,6 -1,1 -2,-1 0,-6 1,-2 2,2 z m 316,226 l 0,-6 2,-2 1,2 0,6 -2,1 -1,-1 z m -315,-214 l 0,6 -1,1 -2,-1 0,-6 1,-2 2,2 z m -1129,190 l 0,6 -1,2 -2,-2 0,-6 1,-1 2,1 z m 1130,-178 l 0,6 -1,1 -2,-1 0,-6 1,-2 2,2 z m 328,161 l 6,0 1,1 -1,2 -6,0 -2,-2 2,-1 z m 12,0 l 6,0 1,1 -1,2 -6,0 -2,-2 2,-1 z m -638,-180 l 0,6 -1,1 -2,-1 0,-6 1,-2 2,2 z m 651,196 l 0,6 -1,1 -2,-1 0,-6 1,-2 2,2 z m -1117,-96 l 0,-6 2,-1 1,2 0,6 -2,1 -1,-2 z m 765,-69 l 0,6 -1,1 -2,-1 0,-6 1,-2 2,2 z m 356,200 l 0,6 -1,2 -2,-1 0,-6 1,-2 2,1 z m -651,-196 l 0,6 -1,2 -2,-1 0,-6 1,-2 2,1 z m -469,53 l 0,-6 2,-1 1,2 0,6 -2,1
 -1,-2 z m 1124,179 l 0,6 -1,2 -2,-2 0,-6 1,-1 2,1 z m -1123,-191 l 0,-6 2,-1 1,2 0,6 -2,1 -1,-2 z m 472,-5 l 0,6 -1,2 -2,-2 0,-6 1,-1 2,1 z m -471,-7 l 0,-6 2,-1 1,2 0,6 -2,1 -1,-2 z m 1130,275 l 0,6 -1,1 -2,-1 0,-6 1,-2 2,2 z m -655,-232 l 0,6 -1,2 -2,-2 0,-6 1,-1 2,1 z m 288,-64 l 0,6 -1,1 -2,-1 0,-6 1,-2 2,2 z m 371,331 l 0,6 -1,2 -2,-1 0,-6 1,-2 2,1 z m -1129,-320 l 0,6 -1,2 -2,-2 0,-6 1,-1 2,1 z m 474,89 l 0,6 -1,1 -2,-1 0,-6 1,-2 2,2 z m 659,267 l 0,6 -1,2 -2,-2 0,-5 1,-2 2,1 z m -1496,-118 l 0,6 -1,2 -2,-1 0,-6 1,-2 2,1 z m 1498,142 l 1,6 -1,2 -2,-2 0,-6 1,-1 1,1 z m -376,-379 l 0,6 -1,1 -2,-1 0,-6 1,-2 2,2 z m 387,391 l
 6,0 2,1 -2,2 -6,0 -1,-2 1,-1 z m 12,0 l 6,0 2,1 -2,2 -6,0 -1,-2 1,-1 z m -1181,-142 l 0,-6 2,-2 1,2 0,6 -2,1 -1,-1 z m 393,-178 l 0,6 -1,1 -2,-1 0,-6 1,-2 2,2 z m 1,12 l 0,6 -2,1 -1,-1 0,-6 1,-2 2,2 z m -393,154 l 0,-6 2,-2 1,2 0,6 -2,1 -1,-1 z m 785,-178 l 0,6 -1,2 -2,-1 0,-6 1,-2 2,1 z m 1,12 l 0,6 -1,2 -2,-1 0,-6 1,-2 2,1 z m 1,12 l 0,6 -1,2 -2,-1 0,-6 1,-2 2,1 z m 1,12 l 0,6 -1,2 -2,-1 0,-6 1,-2 2,1 z m -1144,11 l 0,6 -1,2 -2,-1 0,-6 1,-2 2,1 z m 1145,1 l 0,6 -1,2 -2,-1 0,-6 1,-2 2,1 z m -1157,-108 l 0,6 -1,2 -2,-2 0,-6 1,-1 2,1 z m 394,60 l 0,6 -1,2 -2,-2 0,-6 1,-1 2,1 z m 368,48 l 0,6 -1,1
 -2,-1 0,-6 1,-2 2,2 z m 825,128 l 0,-6 2,-1 1,2 0,6 -2,1 -1,-2 z m -1192,-164 l 0,6 -1,2 -2,-2 0,-6 1,-1 2,1 z m 368,48 l 0,5 -2,2 -1,-1 0,-6 1,-2 2,2 z m 828,80 l 0,-6 2,-1 1,2 0,6 -2,1 -1,-2 z m -1195,-116 l 0,6 -1,2 -2,-2 0,-6 1,-1 2,1 z m 357,-132 l 0,6 -1,1 -2,-1 0,-6 2,-2 1,2 z m 842,213 l 0,-6 2,-2 1,2 0,6 -2,1 -1,-1 z m -699,91 l 0,-6 2,-2 1,2 0,6 -2,1 -1,-1 z m -132,-113 l 0,6 -1,2 -2,-1 0,-6 1,-2 2,1 z m 835,-14 l 0,-6 2,-1 1,1 0,6 -2,2 -1,-2 z m -1202,-33 l 0,6 -1,2 -2,-2 0,-6 1,-1 2,1 z m 368,59 l 0,6 -1,2 -2,-1 0,-6 1,-2 2,1 z m 838,-62 l 0,-6 2,-1 1,1 0,6 -2,2 -1,-2 z m -703,127 l 0,-6 2,-2 1,2 0,6
 -2,1 -1,-1 z m -502,-112 l 0,6 -1,2 -2,-2 0,-6 1,-1 2,1 z m 1209,-51 l 0,-6 2,-1 1,2 0,6 -2,1 -1,-2 z m -445,123 l 0,6 -1,2 -2,-2 0,-6 1,-1 2,1 z m -258,4 l 0,-6 2,-1 1,1 0,6 -2,2 -1,-2 z m 707,-162 l 0,-6 2,-2 1,2 0,6 -2,1 -1,-1 z m -837,301 l 0,6 -1,2 -2,-2 0,-6 1,-1 2,1 z m -609,69 l 6,0 2,1 -2,2 -6,0 -1,-2 1,-1 z m 1458,-400 l 6,0 2,1 -2,2 -6,0 -1,-2 1,-1 z m 12,0 l 6,0 2,1 -2,2 -6,0 -1,-2 1,-1 z m -472,200 l 0,6 -1,2 -2,-2 0,-6 1,-1 2,1 z m 482,-212 l 0,-6 2,-2 1,2 0,6 -2,1 -1,-1 z m 1,-12 l 0,-6 2,-2 1,2 0,6 -2,1 -1,-1 z m 2,-24 l 0,-6 2,-1 1,1 0,6 -2,2 -1,-2 z m 1,-12 l 0,-6 2,-1 1,1 0,6 -2,2 -1,-2 z m
 1,-12 l 0,-6 2,-1 1,1 0,6 -2,2 -1,-2 z m -742,228 l 0,-6 2,-1 1,2 0,6 -2,1 -1,-2 z m 256,56 l 0,6 -1,2 -2,-2 0,-6 1,-1 2,1 z m -808,189 l 0,-6 2,-1 1,2 0,6 -2,1 -1,-2 z m 556,-281 l 0,-6 2,-1 1,2 0,6 -2,1 -1,-2 z m 742,-252 l 0,-6 2,-1 1,1 0,6 -2,2 -1,-2 z m 1,-12 l 0,-6 2,-1 1,1 0,6 -2,2 -1,-2 z m 1,-12 l 0,-6 2,-1 1,1 0,6 -2,2 -1,-2 z m 1,-12 l 0,-6 2,-1 1,1 0,6 -2,2 -1,-2 z m 1,-12 l 0,-6 2,-1 1,2 0,6 -2,1 -1,-2 z m 1,-12 l 0,-6 2,-1 1,2 -1,6 -1,1 -1,-2 z m -1302,581 l 0,-6 2,-1 1,2 0,6 -2,1 -1,-2 z m 808,-165 l 0,6 -1,2 -2,-2 0,-6 1,-1 2,1 z m -249,-139 l 0,-6 2,-2 1,2 0,6 -2,1 -1,-1 z m -558,292 l 0,-6
 2,-1 1,2 0,6 -2,1 -1,-2 z m 1305,-629 l 0,-5 2,-2 1,2 0,6 -2,1 -1,-2 z m 1,-11 l 0,-6 2,-2 1,2 0,6 -2,1 -1,-1 z m 1,-12 l 0,-6 2,-2 1,2 0,6 -2,1 -1,-1 z m 1,-12 l 0,-6 2,-2 1,2 0,6 -2,1 -1,-1 z m 1,-12 l 0,-6 2,-2 1,2 0,6 -2,1 -1,-1 z m 1,-12 l 0,-6 2,-2 1,2 -1,6 -1,1 -1,-1 z m -502,547 l 0,6 -1,2 -2,-2 0,-6 1,-1 2,1 z m -246,-187 l 0,-6 2,-1 1,1 0,6 -2,2 -1,-2 z m -517,139 l 0,6 -1,1 -2,-1 0,-6 1,-2 2,2 z m 1,12 l 0,6 -1,1 -2,-1 0,-6 1,-2 2,2 z m 1268,-571 l 0,-6 2,-2 1,2 0,6 -2,1 -1,-1 z m 1,-12 l 0,-6 2,-2 1,2 0,6 -2,1 -1,-1 z m -749,396 l 0,-6 2,-1 1,2 0,5 -2,2 -1,-2 z m 754,-389 l 0,6 -1,1 -2,-1
 0,-6 1,-2 2,2 z m -985,643 l 6,0 2,1 -2,2 -6,0 -1,-2 1,-1 z m 986,-619 l 0,6 -1,1 -2,-1 0,-6 1,-2 2,2 z m 1,12 l 0,6 -2,1 -1,-1 0,-6 1,-2 2,2 z m 0,12 l 0,6 -1,1 -2,-1 0,-6 2,-2 1,2 z m 1,12 l 0,6 -2,1 -1,-1 0,-6 1,-2 2,2 z m 0,12 l 0,6 -1,1 -2,-1 0,-6 2,-2 1,2 z m 1,12 l 0,6 -1,1 -2,-1 0,-6 1,-2 2,2 z m -977,559 l 6,0 2,1 -2,2 -6,0 -1,-2 1,-1 z m 978,-535 l 0,6 -1,1 -2,-1 0,-6 1,-2 2,2 z m -752,293 l 0,6 -1,2 -2,-1 0,-6 1,-2 2,1 z m 753,-269 l 0,6 -1,1 -2,-1 0,-6 1,-2 2,2 z m -969,512 l 0,-6 2,-2 1,2 0,6 -2,1 -1,-1 z m 970,-488 l 0,6 -1,1 -2,-1 0,-6 1,-2 2,2 z m 1,12 l 0,6 -2,1 -1,-1 0,-6 1,-2
 2,2 z m 0,12 l 0,6 -1,1 -2,-1 0,-6 1,-2 2,2 z m 1,12 l 0,6 -2,1 -1,-1 0,-6 1,-2 2,2 z m 0,12 l 0,6 -1,1 -2,-1 0,-6 2,-2 1,2 z m 1,12 l 0,6 -1,1 -2,-1 0,-6 1,-2 2,2 z m 0,12 l 0,6 -1,1 -2,-1 0,-6 2,-2 1,2 z m 1,12 l 0,6 -1,1 -2,-1 0,-6 1,-2 2,2 z m -973,392 l 0,-6 2,-2 1,2 0,6 -2,1 -1,-1 z m 974,-368 l 0,6 -1,1 -2,-1 0,-6 1,-2 2,2 z m -755,173 l 0,6 -1,2 -2,-2 0,-6 1,-1 2,1 z m 756,-149 l 0,6 -1,1 -2,-1 0,-6 1,-2 2,2 z m -974,332 l 0,-6 2,-2 1,2 0,6 -2,1 -1,-1 z m 975,-308 l 0,6 -1,1 -2,-1 0,-6 1,-2 2,2 z m 1,12 l 0,6 -2,1 -1,-1 0,-6 1,-2 2,2 z m 0,12 l 0,6 -1,1 -2,-1 0,-6 2,-2 1,2 z m 1,12 l
 0,6 -2,1 -1,-1 0,-6 1,-2 2,2 z m 0,12 l 0,6 -1,1 -2,-1 0,-6 2,-2 1,2 z m 1,12 l 0,5 -1,2 -2,-1 0,-6 1,-2 2,2 z m -977,236 l 0,-6 2,-2 1,2 0,6 -2,1 -1,-1 z m 978,-213 l 0,6 -1,2 -2,-1 0,-6 1,-2 2,1 z m 1,24 l 0,6 -1,2 -2,-1 0,-6 1,-2 2,1 z m 1,24 l 0,6 -1,2 -2,-1 0,-6 1,-2 2,1 z m -978,141 l 0,-6 2,-1 1,1 0,6 -2,2 -1,-2 z m 979,-117 l 0,6 -1,2 -2,-1 0,-6 1,-2 2,1 z m 1,12 l 0,6 -2,2 -1,-1 0,-6 1,-2 2,1 z m 0,12 l 0,6 -1,2 -2,-1 0,-6 2,-2 1,1 z m 1,12 l 0,6 -2,2 -1,-2 0,-5 1,-2 2,1 z m 0,12 l 0,6 -1,2 -2,-2 0,-6 2,-1 1,1 z m 1,12 l 0,6 -1,2 -2,-2 0,-6 1,-1 2,1 z m -759,-18 l 0,6 -1,1
 -2,-1 0,-6 1,-2 2,2 z m 760,42 l 0,6 -1,2 -2,-2 0,-6 1,-1 2,1 z m -1298,37 l 0,6 -1,1 -2,-1 0,-6 1,-2 2,2 z m 1299,-13 l 0,6 -1,2 -2,-2 0,-6 1,-1 2,1 z m -1298,25 l 0,6 -1,1 -2,-1 0,-6 1,-2 2,2 z m 1299,-1 l 0,6 -1,2 -2,-2 0,-6 1,-1 2,1 z m -758,-55 l 0,6 -1,2 -2,-1 0,-6 1,-2 2,1 z m 759,79 l 0,6 -1,2 -2,-2 0,-6 1,-1 2,1 z m 1,12 l 0,6 -2,2 -1,-2 0,-6 1,-1 2,1 z m -1300,-23 l 0,6 -1,1 -2,-1 0,-6 1,-2 2,2 z m -48,129 l 0,-6 2,-1 1,2 0,6 -2,1 -1,-2 z m 592,-161 l 0,6 -1,2 -2,-2 0,-5 1,-2 2,1 z m -227,-56 l 0,-6 2,-1 1,1 0,6 -2,2 -1,-2 z m -355,86 l 0,-6 2,-2 1,2 0,6 -2,1 -1,-1 z m 356,-98 l 0,-6 2,-1 1,1 0,6
 -2,2 -1,-2 z m 41,51 l 0,6 -1,2 -2,-1 0,-6 1,-2 2,1 z m 189,53 l 0,6 -1,2 -2,-2 0,-6 1,-1 2,1 z m -188,-41 l 0,6 -1,2 -2,-1 0,-6 1,-2 2,1 z m -41,-75 l 0,-6 2,-1 1,1 0,6 -2,2 -1,-2 z m 1,-12 l 0,-6 2,-1 1,1 0,6 -2,2 -1,-2 z m 1008,13 l 0,-6 2,-1 1,1 0,6 -2,2 -1,-2 z m 1,-12 l 0,-6 2,-1 1,1 0,6 -2,2 -1,-2 z m 1,-12 l 0,-6 2,-1 1,1 0,6 -2,2 -1,-2 z m -1882,166 l 6,0 2,1 -2,2 -6,0 -1,-2 1,-1 z m 12,0 l 6,0 2,1 -2,2 -6,0 -1,-2 1,-1 z m 861,-167 l 0,-6 2,-1 1,1 0,6 -2,2 -1,-2 z m 1,-12 l 0,-6 2,-1 1,1 -1,6 -1,2 -1,-2 z m -369,266 l 0,-6 2,-2 1,2 0,6 -2,1 -1,-1 z m 1382,-325 l 0,-6 2,-1 1,1 0,6 -2,2 -1,-2 z m
 1,-12 l 0,-6 2,-1 1,1 0,6 -2,2 -1,-2 z m 1,-12 l 0,-6 2,-1 1,2 0,6 -2,1 -1,-2 z m 1,-12 l 0,-6 2,-1 1,2 0,6 -2,1 -1,-2 z m 1,-12 l 0,-6 2,-1 1,2 0,6 -2,1 -1,-2 z m -971,362 l 0,6 -1,2 -2,-2 0,-6 1,-1 2,1 z m -658,57 l 6,0 2,1 -2,2 -6,0 -1,-2 1,-1 z m 12,0 l 6,0 2,1 -2,2 -6,0 -1,-2 1,-1 z m 282,-105 l 0,6 -1,2 -2,-1 0,-6 1,-2 2,1 z m 1339,-373 l 0,-6 2,-2 1,2 0,6 -2,1 -1,-1 z m 1,-12 l 0,-6 2,-2 1,2 0,6 -2,1 -1,-1 z m 1,-12 l 0,-6 2,-2 1,2 0,6 -2,1 -1,-1 z m 1,-12 l 0,-6 2,-2 1,2 0,6 -2,1 -1,-1 z m 1,-12 l 0,-6 2,-2 1,2 0,6 -2,1 -1,-1 z m 1,-12 l 0,-6 2,-2 1,2 0,6 -2,1 -1,-1 z m -1022,166 l 0,-6
 2,-1 1,2 0,6 -2,1 -1,-2 z m 313,-161 l 6,0 2,1 -2,2 -6,0 -1,-2 1,-1 z m 12,0 l 6,0 2,1 -2,2 -6,0 -1,-2 1,-1 z m 12,0 l 6,0 2,1 -2,2 -6,0 -1,-2 1,-1 z m 689,-65 l 0,-6 2,-2 1,2 0,6 -2,1 -1,-1 z m 2,-24 l 0,-6 2,-1 1,1 0,6 -2,2 -1,-2 z m 1,-12 l 0,-6 2,-1 1,1 0,6 -2,2 -1,-2 z m 1,-12 l 0,-6 2,-1 1,1 0,6 -2,2 -1,-2 z m -684,120 l 0,6 -1,2 -2,-1 0,-6 1,-2 2,1 z m 776,526 l 6,0 2,1 -2,2 -6,0 -1,-2 1,-1 z m 12,0 l 6,0 2,1 -2,2 -6,0 -1,-2 1,-1 z m 12,0 l 6,0 2,1 -2,2 -6,0 -1,-2 1,-1 z m 12,0 l 6,0 2,1 -2,2 -6,0 -1,-2 1,-1 z m 12,0 l 6,0 2,1 -2,2 -6,0 -1,-2 1,-1 z m 12,0 l 6,0 2,1 -2,2
 -6,0 -1,-2 1,-1 z m 12,0 l 6,0 2,1 -2,2 -6,0 -1,-2 1,-1 z m 12,0 l 6,0 2,1 -2,2 -6,0 -1,-2 1,-1 z m -1205,-384 l 0,-6 2,-1 1,2 0,6 -2,1 -1,-2 z m 1,-12 l 0,-5 2,-2 1,2 0,6 -2,1 -1,-2 z m 348,-94 l 0,6 -1,2 -2,-2 0,-6 1,-1 2,1 z m -347,83 l 0,-6 2,-2 1,2 0,6 -2,1 -1,-1 z m 1,-12 l 0,-6 2,-2 1,2 0,6 -2,1 -1,-1 z m 17,-9 l 0,6 -1,1 -2,-1 0,-6 1,-2 2,2 z m -342,335 l 0,6 -1,2 -2,-1 0,-6 1,-2 2,1 z m 715,-364 l 0,-6 2,-1 1,2 0,6 -2,1 -1,-2 z m -714,376 l 0,6 -1,2 -2,-1 0,-6 1,-2 2,1 z m 355,-96 l 0,6 -1,2 -2,-1 0,-6 1,-2 2,1 z m 371,-346 l 0,6 -1,2 -2,-2 0,-6 1,-1 2,1 z m -48,105 l 0,6 -1,1 -2,-1 0,-6 1,-2
 2,2 z m -677,349 l 0,6 -1,2 -2,-1 0,-6 1,-2 2,1 z m -49,-49 l 0,-6 2,-2 1,2 0,6 -2,1 -1,-1 z m 50,61 l 0,6 -1,2 -2,-1 0,-6 1,-2 2,1 z m 680,-326 l 0,6 -1,2 -2,-1 0,-6 1,-2 2,1 z m -679,338 l 0,6 -1,2 -2,-2 0,-6 1,-1 2,1 z m 326,-446 l 0,-6 2,-2 1,2 0,6 -2,1 -1,-1 z m 357,144 l 0,6 -1,2 -2,-2 0,-6 1,-1 2,1 z m -356,-156 l 0,-6 2,-2 1,2 0,6 -2,1 -1,-1 z m 26,338 l 0,6 -1,2 -2,-2 0,-5 1,-2 2,1 z m -25,-350 l 0,-6 2,-2 1,2 0,6 -2,1 -1,-1 z m 11,111 l 0,6 -1,1 -2,-1 0,-6 2,-2 1,2 z m 15,263 l 0,6 -1,2 -2,-2 0,-6 1,-1 2,1 z m 333,-170 l 0,6 -1,2 -2,-2 0,-6 1,-1 2,1 z m 28,-182 l 0,-6 2,-1 1,2 0,6 -2,1 -1,-2 z m -375,101 l
 0,6 -1,1 -2,-1 0,-6 1,-2 2,2 z m 351,117 l 0,6 -1,1 -2,-1 0,-6 1,-2 2,2 z m -966,275 l 6,0 2,1 -2,2 -6,0 -1,-2 1,-1 z m 630,-129 l 0,6 -1,2 -2,-2 0,-6 1,-1 2,1 z m -22,-383 l 0,6 -1,1 -2,-1 0,-6 2,-2 1,2 z m 8,132 l 0,6 -2,1 -1,-1 0,-6 1,-2 2,2 z m 351,90 l 0,-6 2,-1 1,2 0,5 -2,2 -1,-2 z m -358,-210 l 0,6 -1,1 -2,-1 0,-6 1,-2 2,2 z m 361,186 l 0,-6 2,-1 1,2 -1,6 -1,1 -1,-2 z m -339,209 l 0,6 -1,2 -2,-2 0,-6 1,-1 2,1 z m 340,-221 l 1,-6 1,-1 1,2 0,6 -2,1 -1,-2 z m -959,326 l 6,0 2,1 -2,2 -6,0 -1,-2 1,-1 z m 620,-93 l 0,6 -1,2 -2,-2 0,-6 1,-1 2,1 z m 342,-256 l 0,-6 2,-2 1,2 0,6 -2,1 -1,-1 z m -364,-127 l 0,6 -1,1
 -2,-1 0,-6 2,-2 1,2 z m -733,251 l 1,6 -1,2 -2,-2 0,-6 1,-1 1,1 z m 1629,-211 l 0,-6 2,-1 1,1 0,6 -2,1 -1,-1 z m -136,293 l 0,6 -1,1 -2,-1 0,-6 1,-1 2,1 z m -572,-160 l 0,6 -1,1 -2,-1 0,-6 1,-1 2,1 z m -1030,304 l -1,2 -2,-1 -1,-3 2,-2 2,4 z m 111,-214 l 0,6 -1,1 -1,-1 -1,-6 1,-1 2,1 z m 699,33 l 0,-6 2,-1 1,1 0,6 -2,1 -1,-1 z m -333,-214 l 0,-5 1,-1 2,1 0,1 -1,2 -2,-2 3,0 0,5 -2,1 -1,-2 z m 1348,131 l 0,-6 2,-1 1,1 0,6 -2,1 -1,-1 z m 26,-347 l 0,-6 2,-1 1,1 0,6 -2,1 -1,-1 z m -916,128 l 0,6 -1,1 -2,-1 0,-6 1,-1 2,1 z m 528,-636 l 0,-6 2,-1 1,1 0,6 -2,1 -1,-1 z m -285,664 l 0,6 -1,1 -2,-1 0,-6 1,-1 2,1 z m 162,113 l 0,-6
 2,-1 1,1 0,6 -2,1 -1,-1 z m -468,233 l 0,-6 2,-1 1,1 0,6 -1,1 -2,-1 z m -36,-419 l 0,-5 2,-1 1,1 0,2 -1,1 -2,-1 0,-1 3,0 0,4 -2,1 -1,-1 z m -300,398 l 1,-3 2,-1 1,2 -1,2 -1,1 -2,-1 z m 843,-5 l 0,2 -1,2 -2,-1 0,-3 1,-2 2,2 z m -153,-394 l 0,-4 2,-1 1,1 0,3 -1,2 -2,-2 0,-2 3,0 0,3 -2,1 -1,-1 z m 539,-267 l 0,-3 2,-1 1,1 0,4 -1,1 -2,-1 0,-3 3,0 0,2 -2,2 -1,-2 z"/>
<path fill="#4F81BD" stroke="none" d="M 817,3557 l 11,12 -11,11 -12,-11 12,-12 z"/>
<path fill="#4A7EBB" stroke="none" d="M 815,3555 l 2,-1 2,1 11,12 1,2 -1,2 -11,11 -2,1 -2,-1 -12,-11 -1,-2 1,-2 12,-12 z m -8,16 l 0,-4 12,11 -4,0 11,-11 0,4 -11,-12 4,0 -12,12 z"/>
<path fill="#4F81BD" stroke="none" d="M 847,3690 l 11,11 -11,12 -11,-12 11,-11 z"/>
<path fill="#4A7EBB" stroke="none" d="M 845,3688 l 2,-1 2,1 11,11 1,2 -1,2 -11,12 -2,1 -2,-1 -11,-12 -1,-2 1,-2 11,-11 z m -7,15 l 0,-4 11,12 -4,0 11,-12 0,4 -11,-11 4,0 -11,11 z"/>
<path fill="#4F81BD" stroke="none" d="M 1056,3690 l 12,11 -12,12 -11,-12 11,-11 z"/>
<path fill="#4A7EBB" stroke="none" d="M 1054,3688 l 2,-1 2,1 12,11 1,2 -1,2 -12,12 -2,1 -2,-1 -11,-12 -1,-2 1,-2 11,-11 z m -7,15 l 0,-4 11,12 -4,0 12,-12 0,4 -12,-11 4,0 -11,11 z"/>
<path fill="#4F81BD" stroke="none" d="M 1087,3557 l 11,12 -11,11 -12,-11 12,-12 z"/>
<path fill="#4A7EBB" stroke="none" d="M 1085,3555 l 2,-1 2,1 11,12 1,2 -1,2 -11,11 -2,1 -2,-1 -12,-11 -1,-2 1,-2 12,-12 z m -8,16 l 0,-4 12,11 -4,0 11,-11 0,4 -11,-12 4,0 -12,12 z"/>
<path fill="#4F81BD" stroke="none" d="M 1116,3557 l 11,12 -11,11 -11,-11 11,-12 z"/>
<path fill="#4A7EBB" stroke="none" d="M 1114,3555 l 2,-1 2,1 11,12 2,2 -13,13 -2,1 -2,-1 -11,-11 -1,-2 1,-2 11,-12 z m -7,16 l 0,-4 11,11 -4,0 11,-11 0,4 -11,-12 4,0 -11,12 z"/>
<path fill="#4F81BD" stroke="none" d="M 1146,3690 l 12,11 -12,12 -11,-12 11,-11 z"/>
<path fill="#4A7EBB" stroke="none" d="M 1144,3688 l 2,-1 2,1 12,11 1,2 -1,2 -12,12 -2,1 -2,-1 -11,-12 -1,-2 1,-2 11,-11 z m -7,15 l 0,-4 11,12 -4,0 12,-12 0,4 -12,-11 4,0 -11,11 z"/>
<path fill="#4F81BD" stroke="none" d="M 1206,3424 l 11,11 -11,12 -11,-12 11,-11 z"/>
<path fill="#4A7EBB" stroke="none" d="M 1204,3422 l 2,-1 2,1 13,13 -2,2 -11,12 -2,1 -2,-1 -11,-12 -1,-2 1,-2 11,-11 z m -7,15 l 0,-4 11,12 -4,0 11,-12 0,4 -11,-11 4,0 -11,11 z"/>
<path fill="#4F81BD" stroke="none" d="M 1236,3290 l 12,12 -12,11 -11,-11 11,-12 z"/>
<path fill="#4A7EBB" stroke="none" d="M 1234,3288 l 2,-1 2,1 12,12 1,2 -1,2 -12,11 -2,1 -2,-1 -11,-11 -1,-2 1,-2 11,-12 z m -7,16 l 0,-4 11,11 -4,0 12,-11 0,4 -12,-12 4,0 -11,12 z"/>
<path fill="#4F81BD" stroke="none" d="M 1266,3557 l 11,12 -11,11 -12,-11 12,-12 z"/>
<path fill="#4A7EBB" stroke="none" d="M 1264,3555 l 2,-1 2,1 11,12 1,2 -1,2 -11,11 -2,1 -2,-1 -12,-11 -1,-2 1,-2 12,-12 z m -8,16 l 0,-4 12,11 -4,0 11,-11 0,4 -11,-12 4,0 -12,12 z"/>
<path fill="#4F81BD" stroke="none" d="M 1356,3690 l 11,11 -11,12 -12,-12 12,-11 z"/>
<path fill="#4A7EBB" stroke="none" d="M 1354,3688 l 2,-1 2,1 11,11 1,2 -1,2 -11,12 -2,1 -2,-1 -12,-12 -1,-2 1,-2 12,-11 z m -8,15 l 0,-4 12,12 -4,0 11,-12 0,4 -11,-11 4,0 -12,11 z"/>
<path fill="#4F81BD" stroke="none" d="M 1386,3690 l 11,11 -11,12 -11,-12 11,-11 z"/>
<path fill="#4A7EBB" stroke="none" d="M 1384,3688 l 2,-1 2,1 13,13 -2,2 -11,12 -2,1 -2,-1 -11,-12 -1,-2 1,-2 11,-11 z m -7,15 l 0,-4 11,12 -4,0 11,-12 0,4 -11,-11 4,0 -11,11 z"/>
<path fill="#4F81BD" stroke="none" d="M 1415,3690 l 12,11 -12,12 -11,-12 11,-11 z"/>
<path fill="#4A7EBB" stroke="none" d="M 1413,3688 l 3,-1 2,1 11,11 1,2 -1,2 -11,12 -2,1 -3,-1 -11,-12 -1,-2 1,-2 11,-11 z m -7,15 l 0,-4 12,12 -5,0 12,-12 0,4 -12,-11 5,0 -12,11 z"/>
<path fill="#4F81BD" stroke="none" d="M 1446,3557 l 11,12 -11,11 -12,-11 12,-12 z"/>
<path fill="#4A7EBB" stroke="none" d="M 1444,3555 l 2,-1 2,1 11,12 1,2 -1,2 -11,11 -2,1 -2,-1 -12,-11 -1,-2 1,-2 12,-12 z m -8,16 l 0,-4 12,11 -4,0 11,-11 0,4 -11,-12 4,0 -12,12 z"/>
<path fill="#4F81BD" stroke="none" d="M 1536,3557 l 11,12 -11,11 -12,-11 12,-12 z"/>
<path fill="#4A7EBB" stroke="none" d="M 1534,3555 l 2,-1 2,1 11,12 1,2 -1,2 -11,11 -2,1 -2,-1 -12,-11 -1,-2 1,-2 12,-12 z m -8,16 l 0,-4 12,11 -4,0 11,-11 0,4 -11,-12 4,0 -12,12 z"/>
<path fill="#4F81BD" stroke="none" d="M 1596,3690 l 11,11 -11,12 -12,-12 12,-11 z"/>
<path fill="#4A7EBB" stroke="none" d="M 1594,3688 l 2,-1 2,1 11,11 1,2 -1,2 -11,12 -2,1 -2,-1 -12,-12 -1,-2 1,-2 12,-11 z m -8,15 l 0,-4 12,12 -4,0 11,-12 0,4 -11,-11 4,0 -12,11 z"/>
<path fill="#4F81BD" stroke="none" d="M 1626,3290 l 11,12 -11,11 -12,-11 12,-12 z"/>
<path fill="#4A7EBB" stroke="none" d="M 1624,3288 l 2,-1 2,1 11,12 1,2 -1,2 -11,11 -2,1 -2,-1 -12,-11 -1,-2 1,-2 12,-12 z m -8,16 l 0,-4 12,11 -4,0 11,-11 0,4 -11,-12 4,0 -12,12 z"/>
<path fill="#4F81BD" stroke="none" d="M 1655,3690 l 12,11 -12,12 -11,-12 11,-11 z"/>
<path fill="#4A7EBB" stroke="none" d="M 1653,3688 l 2,-1 2,1 12,11 1,2 -1,2 -12,12 -2,1 -2,-1 -11,-12 -1,-2 1,-2 11,-11 z m -7,15 l 0,-4 11,12 -4,0 12,-12 0,4 -12,-11 4,0 -11,11 z"/>
<path fill="#4F81BD" stroke="none" d="M 1686,3557 l 11,12 -11,11 -12,-11 12,-12 z"/>
<path fill="#4A7EBB" stroke="none" d="M 1684,3555 l 2,-1 2,1 11,12 1,2 -1,2 -11,11 -2,1 -2,-1 -12,-11 -1,-2 1,-2 12,-12 z m -8,16 l 0,-4 12,11 -4,0 11,-11 0,4 -11,-12 4,0 -12,12 z"/>
<path fill="#4F81BD" stroke="none" d="M 1745,3557 l 12,12 -12,11 -11,-11 11,-12 z"/>
<path fill="#4A7EBB" stroke="none" d="M 1743,3555 l 2,-1 2,1 12,12 1,2 -1,2 -12,11 -2,1 -2,-1 -11,-11 -1,-2 1,-2 11,-12 z m -7,16 l 0,-4 11,11 -4,0 12,-11 0,4 -12,-12 4,0 -11,12 z"/>
<path fill="#4F81BD" stroke="none" d="M 1776,3690 l 11,11 -11,12 -12,-12 12,-11 z"/>
<path fill="#4A7EBB" stroke="none" d="M 1774,3688 l 2,-1 2,1 11,11 1,2 -1,2 -11,12 -2,1 -2,-1 -12,-12 -1,-2 1,-2 12,-11 z m -8,15 l 0,-4 12,12 -4,0 11,-12 0,4 -11,-11 4,0 -12,11 z"/>
<path fill="#4F81BD" stroke="none" d="M 1806,3690 l 11,11 -11,12 -11,-12 11,-11 z"/>
<path fill="#4A7EBB" stroke="none" d="M 1804,3688 l 2,-1 2,1 11,11 1,2 -1,2 -11,12 -2,1 -2,-1 -11,-12 -1,-2 1,-2 11,-11 z m -7,15 l 0,-4 11,12 -4,0 11,-12 0,4 -11,-11 4,0 -11,11 z"/>
<path fill="#4F81BD" stroke="none" d="M 1835,3690 l 12,11 -12,12 -11,-12 11,-11 z"/>
<path fill="#4A7EBB" stroke="none" d="M 1833,3688 l 2,-1 2,1 12,11 1,2 -1,2 -12,12 -2,1 -2,-1 -11,-12 -1,-2 1,-2 11,-11 z m -7,15 l 0,-4 11,12 -4,0 12,-12 0,4 -12,-11 4,0 -11,11 z"/>
<path fill="#4F81BD" stroke="none" d="M 1866,3557 l 11,12 -11,11 -12,-11 12,-12 z"/>
<path fill="#4A7EBB" stroke="none" d="M 1864,3555 l 2,-1 2,1 11,12 1,2 -1,2 -11,11 -2,1 -2,-1 -12,-11 -1,-2 1,-2 12,-12 z m -8,16 l 0,-4 12,11 -4,0 11,-11 0,4 -11,-12 4,0 -12,12 z"/>
<path fill="#4F81BD" stroke="none" d="M 1895,3424 l 11,11 -11,12 -11,-12 11,-11 z"/>
<path fill="#4A7EBB" stroke="none" d="M 1893,3422 l 2,-1 2,1 11,11 1,2 -1,2 -11,12 -2,1 -2,-1 -11,-12 -1,-2 1,-2 11,-11 z m -7,15 l 0,-4 11,12 -4,0 11,-12 0,4 -11,-11 4,0 -11,11 z"/>
<path fill="#4F81BD" stroke="none" d="M 1925,3557 l 12,12 -12,11 -11,-11 11,-12 z"/>
<path fill="#4A7EBB" stroke="none" d="M 1923,3555 l 2,-1 2,1 12,12 1,2 -1,2 -12,11 -2,1 -2,-1 -11,-11 -1,-2 1,-2 11,-12 z m -7,16 l 0,-4 11,11 -4,0 12,-11 0,4 -12,-12 4,0 -11,12 z"/>
<path fill="#4F81BD" stroke="none" d="M 1956,3557 l 11,12 -11,11 -12,-11 12,-12 z"/>
<path fill="#4A7EBB" stroke="none" d="M 1954,3555 l 2,-1 2,1 11,12 1,2 -1,2 -11,11 -2,1 -2,-1 -12,-11 -1,-2 1,-2 12,-12 z m -8,16 l 0,-4 12,11 -4,0 11,-11 0,4 -11,-12 4,0 -12,12 z"/>
<path fill="#4F81BD" stroke="none" d="M 1985,3158 l 11,11 -11,11 -11,-11 11,-11 z"/>
<path fill="#4A7EBB" stroke="none" d="M 1983,3156 l 2,-1 2,1 11,11 1,2 -1,2 -11,11 -2,1 -2,-1 -11,-11 -1,-2 1,-2 11,-11 z m -7,15 l 0,-4 11,11 -4,0 11,-11 0,4 -11,-11 4,0 -11,11 z"/>
<path fill="#4F81BD" stroke="none" d="M 2015,3690 l 12,11 -12,12 -11,-12 11,-11 z"/>
<path fill="#4A7EBB" stroke="none" d="M 2013,3688 l 2,-1 2,1 12,11 1,2 -1,2 -12,12 -2,1 -2,-1 -11,-12 -1,-2 1,-2 11,-11 z m -7,15 l 0,-4 11,12 -4,0 12,-12 0,4 -12,-11 4,0 -11,11 z"/>
<path fill="#4F81BD" stroke="none" d="M 2046,3158 l 11,11 -11,11 -12,-11 12,-11 z"/>
<path fill="#4A7EBB" stroke="none" d="M 2044,3156 l 2,-1 2,1 11,11 1,2 -1,2 -11,11 -2,1 -2,-1 -12,-11 -1,-2 1,-2 12,-11 z m -8,15 l 0,-4 12,11 -4,0 11,-11 0,4 -11,-11 4,0 -12,11 z"/>
<path fill="#4F81BD" stroke="none" d="M 2075,3158 l 11,11 -11,11 -11,-11 11,-11 z"/>
<path fill="#4A7EBB" stroke="none" d="M 2073,3156 l 2,-1 2,1 11,11 1,2 -1,2 -11,11 -2,1 -2,-1 -11,-11 -1,-2 1,-2 11,-11 z m -7,15 l 0,-4 11,11 -4,0 11,-11 0,4 -11,-11 4,0 -11,11 z"/>
<path fill="#4F81BD" stroke="none" d="M 2105,3424 l 12,11 -12,12 -11,-12 11,-11 z"/>
<path fill="#4A7EBB" stroke="none" d="M 2103,3422 l 2,-1 2,1 12,11 1,2 -1,2 -12,12 -2,1 -2,-1 -11,-12 -1,-2 1,-2 11,-11 z m -7,15 l 0,-4 11,12 -4,0 12,-12 0,4 -12,-11 4,0 -11,11 z"/>
<path fill="#4F81BD" stroke="none" d="M 2135,3557 l 11,12 -11,11 -12,-11 12,-12 z"/>
<path fill="#4A7EBB" stroke="none" d="M 2133,3555 l 2,-1 2,1 11,12 1,2 -1,2 -11,11 -2,1 -2,-1 -12,-11 -1,-2 1,-2 12,-12 z m -8,16 l 0,-4 12,11 -4,0 11,-11 0,4 -11,-12 4,0 -12,12 z"/>
<path fill="#4F81BD" stroke="none" d="M 2165,3290 l 11,12 -11,11 -11,-11 11,-12 z"/>
<path fill="#4A7EBB" stroke="none" d="M 2163,3288 l 2,-1 2,1 11,12 2,2 -13,13 -2,1 -2,-1 -11,-11 -1,-2 1,-2 11,-12 z m -7,16 l 0,-4 11,11 -4,0 11,-11 0,4 -11,-12 4,0 -11,12 z"/>
<path fill="#4F81BD" stroke="none" d="M 2195,3557 l 12,12 -12,11 -11,-11 11,-12 z"/>
<path fill="#4A7EBB" stroke="none" d="M 2193,3555 l 2,-1 2,1 12,12 1,2 -1,2 -12,11 -2,1 -2,-1 -11,-11 -1,-2 1,-2 11,-12 z m -7,16 l 0,-4 11,11 -4,0 12,-11 0,4 -12,-12 4,0 -11,12 z"/>
<path fill="#4F81BD" stroke="none" d="M 2225,3690 l 11,11 -11,12 -12,-12 12,-11 z"/>
<path fill="#4A7EBB" stroke="none" d="M 2223,3688 l 2,-1 2,1 11,11 1,2 -1,2 -11,12 -2,1 -2,-1 -12,-12 -1,-2 1,-2 12,-11 z m -8,15 l 0,-4 12,12 -4,0 11,-12 0,4 -11,-11 4,0 -12,11 z"/>
<path fill="#4F81BD" stroke="none" d="M 2285,3158 l 12,11 -12,11 -11,-11 11,-11 z"/>
<path fill="#4A7EBB" stroke="none" d="M 2283,3156 l 2,-1 2,1 12,11 1,2 -1,2 -12,11 -2,1 -2,-1 -11,-11 -1,-2 1,-2 11,-11 z m -7,15 l 0,-4 11,11 -4,0 12,-11 0,4 -12,-11 4,0 -11,11 z"/>
<path fill="#4F81BD" stroke="none" d="M 2315,3158 l 11,11 -11,11 -12,-11 12,-11 z"/>
<path fill="#4A7EBB" stroke="none" d="M 2313,3156 l 2,-1 2,1 11,11 1,2 -1,2 -11,11 -2,1 -2,-1 -12,-11 -1,-2 1,-2 12,-11 z m -8,15 l 0,-4 12,11 -4,0 11,-11 0,4 -11,-11 4,0 -12,11 z"/>
<path fill="#4F81BD" stroke="none" d="M 2345,3424 l 11,11 -11,12 -11,-12 11,-11 z"/>
<path fill="#4A7EBB" stroke="none" d="M 2343,3422 l 2,-1 2,1 13,13 -2,2 -11,12 -2,1 -2,-1 -11,-12 -1,-2 1,-2 11,-11 z m -7,15 l 0,-4 11,12 -4,0 11,-12 0,4 -11,-11 4,0 -11,11 z"/>
<path fill="#4F81BD" stroke="none" d="M 2375,3158 l 12,11 -12,11 -11,-11 11,-11 z"/>
<path fill="#4A7EBB" stroke="none" d="M 2373,3156 l 2,-1 2,1 12,11 1,2 -1,2 -12,11 -2,1 -2,-1 -11,-11 -1,-2 1,-2 11,-11 z m -7,15 l 0,-4 11,11 -4,0 12,-11 0,4 -12,-11 4,0 -11,11 z"/>
<path fill="#4F81BD" stroke="none" d="M 2405,3557 l 11,12 -11,11 -12,-11 12,-12 z"/>
<path fill="#4A7EBB" stroke="none" d="M 2403,3555 l 2,-1 2,1 11,12 1,2 -1,2 -11,11 -2,1 -2,-1 -12,-11 -1,-2 1,-2 12,-12 z m -8,16 l 0,-4 12,11 -4,0 11,-11 0,4 -11,-12 4,0 -12,12 z"/>
<path fill="#4F81BD" stroke="none" d="M 2435,3690 l 11,11 -11,12 -11,-12 11,-11 z"/>
<path fill="#4A7EBB" stroke="none" d="M 2433,3688 l 2,-1 2,1 13,13 -2,2 -11,12 -2,1 -2,-1 -11,-12 -1,-2 1,-2 11,-11 z m -7,15 l 0,-4 11,12 -4,0 11,-12 0,4 -11,-11 4,0 -11,11 z"/>
<path fill="#4F81BD" stroke="none" d="M 2464,3557 l 12,12 -12,11 -11,-11 11,-12 z"/>
<path fill="#4A7EBB" stroke="none" d="M 2462,3555 l 2,-1 2,1 12,12 1,2 -1,2 -12,11 -2,1 -2,-1 -11,-11 -1,-2 1,-2 11,-12 z m -7,16 l 0,-4 11,11 -4,0 12,-11 0,4 -12,-12 4,0 -11,12 z"/>
<path fill="#4F81BD" stroke="none" d="M 2495,3290 l 11,12 -11,11 -12,-11 12,-12 z"/>
<path fill="#4A7EBB" stroke="none" d="M 2493,3288 l 2,-1 2,1 11,12 1,2 -1,2 -11,11 -2,1 -2,-1 -12,-11 -1,-2 1,-2 12,-12 z m -8,16 l 0,-4 12,11 -4,0 11,-11 0,4 -11,-12 4,0 -12,12 z"/>
<path fill="#4F81BD" stroke="none" d="M 2525,3557 l 11,12 -11,11 -11,-11 11,-12 z"/>
<path fill="#4A7EBB" stroke="none" d="M 2523,3555 l 2,-1 2,1 11,12 2,2 -13,13 -2,1 -2,-1 -11,-11 -1,-2 1,-2 11,-12 z m -7,16 l 0,-4 11,11 -4,0 11,-11 0,4 -11,-12 4,0 -11,12 z"/>
<path fill="#4F81BD" stroke="none" d="M 2585,3290 l 11,12 -11,11 -12,-11 12,-12 z"/>
<path fill="#4A7EBB" stroke="none" d="M 2583,3288 l 2,-1 2,1 11,12 1,2 -1,2 -11,11 -2,1 -2,-1 -12,-11 -1,-2 1,-2 12,-12 z m -8,16 l 0,-4 12,11 -4,0 11,-11 0,4 -11,-12 4,0 -12,12 z"/>
<path fill="#4F81BD" stroke="none" d="M 2615,2491 l 11,12 -11,11 -11,-11 11,-12 z"/>
<path fill="#4A7EBB" stroke="none" d="M 2613,2489 l 2,-1 2,1 11,12 2,2 -13,13 -2,1 -2,-1 -11,-11 -1,-2 1,-2 11,-12 z m -7,16 l 0,-4 11,11 -4,0 11,-11 0,4 -11,-12 4,0 -11,12 z"/>
<path fill="#4F81BD" stroke="none" d="M 2675,3690 l 11,11 -11,12 -12,-12 12,-11 z"/>
<path fill="#4A7EBB" stroke="none" d="M 2673,3688 l 2,-1 2,1 11,11 1,2 -1,2 -11,12 -2,1 -2,-1 -12,-12 -1,-2 1,-2 12,-11 z m -8,15 l 0,-4 12,12 -4,0 11,-12 0,4 -11,-11 4,0 -12,11 z"/>
<path fill="#4F81BD" stroke="none" d="M 2704,3424 l 12,11 -12,12 -11,-12 11,-11 z"/>
<path fill="#4A7EBB" stroke="none" d="M 2702,3422 l 2,-1 2,1 12,11 1,2 -1,2 -12,12 -2,1 -2,-1 -11,-12 -1,-2 1,-2 11,-11 z m -7,15 l 0,-4 11,12 -4,0 12,-12 0,4 -12,-11 4,0 -11,11 z"/>
<path fill="#4F81BD" stroke="none" d="M 2735,3424 l 11,11 -11,12 -12,-12 12,-11 z"/>
<path fill="#4A7EBB" stroke="none" d="M 2733,3422 l 2,-1 2,1 11,11 1,2 -1,2 -11,12 -2,1 -2,-1 -12,-12 -1,-2 1,-2 12,-11 z m -8,15 l 0,-4 12,12 -4,0 11,-12 0,4 -11,-11 4,0 -12,11 z"/>
<path fill="#4F81BD" stroke="none" d="M 2765,3690 l 11,11 -11,12 -12,-12 12,-11 z"/>
<path fill="#4A7EBB" stroke="none" d="M 2763,3688 l 2,-1 2,1 11,11 1,2 -1,2 -11,12 -2,1 -2,-1 -12,-12 -1,-2 1,-2 12,-11 z m -8,15 l 0,-4 12,12 -4,0 11,-12 0,4 -11,-11 4,0 -12,11 z"/>
<path fill="#4F81BD" stroke="none" d="M 2794,3690 l 12,11 -12,12 -11,-12 11,-11 z"/>
<path fill="#4A7EBB" stroke="none" d="M 2792,3688 l 2,-1 2,1 12,11 1,2 -1,2 -12,12 -2,1 -2,-1 -11,-12 -1,-2 1,-2 11,-11 z m -7,15 l 0,-4 11,12 -4,0 12,-12 0,4 -12,-11 4,0 -11,11 z"/>
<path fill="#4F81BD" stroke="none" d="M 2825,3557 l 11,12 -11,11 -12,-11 12,-12 z"/>
<path fill="#4A7EBB" stroke="none" d="M 2823,3555 l 2,-1 2,1 11,12 1,2 -1,2 -11,11 -2,1 -2,-1 -12,-11 -1,-2 1,-2 12,-12 z m -8,16 l 0,-4 12,11 -4,0 11,-11 0,4 -11,-12 4,0 -12,12 z"/>
<path fill="#4F81BD" stroke="none" d="M 2855,3290 l 11,12 -11,11 -12,-11 12,-12 z"/>
<path fill="#4A7EBB" stroke="none" d="M 2853,3288 l 2,-1 2,1 11,12 1,2 -1,2 -11,11 -2,1 -2,-1 -12,-11 -1,-2 1,-2 12,-12 z m -8,16 l 0,-4 12,11 -4,0 11,-11 0,4 -11,-12 4,0 -12,12 z"/>
<path fill="#4F81BD" stroke="none" d="M 2884,3290 l 12,12 -12,11 -11,-11 11,-12 z"/>
<path fill="#4A7EBB" stroke="none" d="M 2882,3288 l 2,-1 2,1 12,12 1,2 -1,2 -12,11 -2,1 -2,-1 -11,-11 -1,-2 1,-2 11,-12 z m -7,16 l 0,-4 11,11 -4,0 12,-11 0,4 -12,-12 4,0 -11,12 z"/>
<path fill="#4F81BD" stroke="none" d="M 2915,2890 l 11,12 -11,11 -12,-11 12,-12 z"/>
<path fill="#4A7EBB" stroke="none" d="M 2913,2888 l 2,-1 2,1 11,12 1,2 -1,2 -11,11 -2,1 -2,-1 -12,-11 -1,-2 1,-2 12,-12 z m -8,16 l 0,-4 12,11 -4,0 11,-11 0,4 -11,-12 4,0 -12,12 z"/>
<path fill="#4F81BD" stroke="none" d="M 2944,3557 l 11,12 -11,11 -11,-11 11,-12 z"/>
<path fill="#4A7EBB" stroke="none" d="M 2942,3555 l 2,-1 2,1 11,12 1,2 -1,2 -11,11 -2,1 -2,-1 -11,-11 -1,-2 1,-2 11,-12 z m -7,16 l 0,-4 11,11 -4,0 11,-11 0,4 -11,-12 4,0 -11,12 z"/>
<path fill="#4F81BD" stroke="none" d="M 2974,3424 l 12,11 -12,12 -11,-12 11,-11 z"/>
<path fill="#4A7EBB" stroke="none" d="M 2972,3422 l 2,-1 2,1 12,11 1,2 -1,2 -12,12 -2,1 -2,-1 -11,-12 -1,-2 1,-2 11,-11 z m -7,15 l 0,-4 11,12 -4,0 12,-12 0,4 -12,-11 4,0 -11,11 z"/>
<path fill="#4F81BD" stroke="none" d="M 3005,3024 l 11,11 -11,12 -12,-12 12,-11 z"/>
<path fill="#4A7EBB" stroke="none" d="M 3003,3022 l 2,-1 2,1 11,11 1,2 -1,2 -11,12 -2,1 -2,-1 -12,-12 -1,-2 1,-2 12,-11 z m -8,15 l 0,-4 12,12 -4,0 11,-12 0,4 -11,-11 4,0 -12,11 z"/>
<path fill="#4F81BD" stroke="none" d="M 3095,3690 l 11,11 -11,12 -12,-12 12,-11 z"/>
<path fill="#4A7EBB" stroke="none" d="M 3093,3688 l 2,-1 2,1 11,11 1,2 -1,2 -11,12 -2,1 -2,-1 -12,-12 -1,-2 1,-2 12,-11 z m -8,15 l 0,-4 12,12 -4,0 11,-12 0,4 -11,-11 4,0 -12,11 z"/>
<path fill="#4F81BD" stroke="none" d="M 3124,3690 l 11,11 -11,12 -11,-12 11,-11 z"/>
<path fill="#4A7EBB" stroke="none" d="M 3122,3688 l 2,-1 2,1 11,11 1,2 -1,2 -11,12 -2,1 -2,-1 -11,-12 -1,-2 1,-2 11,-11 z m -7,15 l 0,-4 11,12 -4,0 11,-12 0,4 -11,-11 4,0 -11,11 z"/>
<path fill="#4F81BD" stroke="none" d="M 3154,3690 l 12,11 -12,12 -11,-12 11,-11 z"/>
<path fill="#4A7EBB" stroke="none" d="M 3152,3688 l 2,-1 2,1 12,11 1,2 -1,2 -12,12 -2,1 -2,-1 -11,-12 -1,-2 1,-2 11,-11 z m -7,15 l 0,-4 11,12 -4,0 12,-12 0,4 -12,-11 4,0 -11,11 z"/>
<path fill="#4F81BD" stroke="none" d="M 3184,3690 l 11,11 -11,12 -12,-12 12,-11 z"/>
<path fill="#4A7EBB" stroke="none" d="M 3182,3688 l 2,-1 2,1 11,11 1,2 -1,2 -11,12 -2,1 -2,-1 -12,-12 -1,-2 1,-2 12,-11 z m -8,15 l 0,-4 12,12 -4,0 11,-12 0,4 -11,-11 4,0 -12,11 z"/>
<path fill="#4F81BD" stroke="none" d="M 3244,3690 l 12,11 -12,12 -11,-12 11,-11 z"/>
<path fill="#4A7EBB" stroke="none" d="M 3242,3688 l 2,-1 2,1 12,11 1,2 -1,2 -12,12 -2,1 -2,-1 -11,-12 -1,-2 1,-2 11,-11 z m -7,15 l 0,-4 11,12 -4,0 12,-12 0,4 -12,-11 4,0 -11,11 z"/>
<path fill="#4F81BD" stroke="none" d="M 3274,3557 l 11,12 -11,11 -12,-11 12,-12 z"/>
<path fill="#4A7EBB" stroke="none" d="M 3272,3555 l 2,-1 2,1 11,12 1,2 -1,2 -11,11 -2,1 -2,-1 -12,-11 -1,-2 1,-2 12,-12 z m -8,16 l 0,-4 12,11 -4,0 11,-11 0,4 -11,-12 4,0 -12,12 z"/>
<path fill="#4F81BD" stroke="none" d="M 3304,3690 l 11,11 -11,12 -11,-12 11,-11 z"/>
<path fill="#4A7EBB" stroke="none" d="M 3302,3688 l 2,-1 2,1 11,11 1,2 -1,2 -11,12 -2,1 -2,-1 -11,-12 -1,-2 1,-2 11,-11 z m -7,15 l 0,-4 11,12 -4,0 11,-12 0,4 -11,-11 4,0 -11,11 z"/>
<path fill="#4F81BD" stroke="none" d="M 3334,3557 l 12,12 -12,11 -11,-11 11,-12 z"/>
<path fill="#4A7EBB" stroke="none" d="M 3332,3555 l 2,-1 2,1 12,12 1,2 -1,2 -12,11 -2,1 -2,-1 -11,-11 -1,-2 1,-2 11,-12 z m -7,16 l 0,-4 11,11 -4,0 12,-11 0,4 -12,-12 4,0 -11,12 z"/>
<path fill="#4F81BD" stroke="none" d="M 3364,3690 l 11,11 -11,12 -12,-12 12,-11 z"/>
<path fill="#4A7EBB" stroke="none" d="M 3362,3688 l 2,-1 2,1 11,11 1,2 -1,2 -11,12 -2,1 -2,-1 -12,-12 -1,-2 1,-2 12,-11 z m -8,15 l 0,-4 12,12 -4,0 11,-12 0,4 -11,-11 4,0 -12,11 z"/>
<path fill="#C00000" stroke="none" d="M 2918,3678 l 2,-6 1,-1 2,2 -2,5 -2,2 -1,-2 z m 21,-94 l 2,-6 2,-1 1,2 -2,6 -1,1 -2,-2 z m 161,-130 l 2,6 -2,2 -1,-1 -2,-6 1,-2 2,1 z m 8,35 l 2,6 -2,2 -1,-1 -2,-6 1,-2 2,1 z m 13,59 l 2,6 -1,2 -2,-2 -2,-5 2,-2 1,1 z m 102,-159 l 2,-6 2,-1 1,2 -2,5 -1,2 -2,-2 z m 173,181 l 2,6 -1,2 -2,-2 -2,-5 2,-2 1,1 z m 8,35 l 2,6 -2,2 -1,-1 -2,-6 1,-2 2,1 z m 8,35 l 2,6 -2,2 -1,-1 -2,-6 1,-2 2,1 z m 44,46 l 2,-6 2,-1 1,2 -2,6 -1,1 -2,-2 z m 8,-35 l 2,-6 1,-1 2,2 -2,6 -2,1 -1,-2 z m 8,-35 l 2,-6 1,-1 2,2 -2,5 -2,2 -1,-2 z m -241,-262 l 2,-6 1,-1 2,1 -2,6 -2,1 -1,-1 z m -514,23 l 1,-6 1,-1 2,1 -1,6 -1,2 -2,-2 z m 1,-12 l 1,-6
 1,-1 2,1 -1,6 -1,2 -2,-2 z m 1,-12 l 1,-6 1,-1 2,1 -1,6 -1,2 -2,-2 z m 6,-84 l 1,-6 1,-1 2,1 -1,6 -1,2 -2,-2 z m 1,-12 l 1,-6 1,-1 2,1 -1,6 -1,2 -2,-2 z m 1,-12 l 1,-6 1,-1 2,2 -1,6 -1,1 -2,-2 z m 1,-12 l 1,-6 1,-1 2,2 -1,6 -1,1 -2,-2 z m 185,468 l 1,-6 2,-1 1,2 -1,6 -2,1 -1,-2 z m 3,-12 l 1,-5 2,-2 1,2 -1,6 -2,1 -1,-2 z m 5,-23 l 1,-6 2,-1 1,2 -1,6 -2,1 -1,-2 z m 3,-12 l 1,-6 2,-1 1,2 -1,6 -2,1 -1,-2 z m 5,-23 l 1,-6 2,-1 1,2 -1,6 -2,1 -1,-2 z m 3,-12 l 1,-6 2,-1 1,2 -2,6 -1,1 -1,-2 z m 5,-23 l 1,-6 2,-1 1,2 -1,5 -2,2 -1,-2 z m 5,-24 l 1,-4 0,-1 2,-2 1,2 0,2 -1,4 -2,1 -1,-2 z m 2,-23 l 1,-6
 2,-2 1,2 -1,6 -1,1 -2,-1 z m 1,-12 l 1,-6 1,-2 2,2 -1,6 -1,1 -2,-1 z m 1,-12 l 1,-6 1,-2 2,2 -1,6 -1,1 -2,-1 z m 7,-96 l 1,-6 1,-1 2,1 -1,6 -1,2 -2,-2 z m 1,-12 l 1,-6 1,-1 2,1 -1,6 -1,2 -2,-2 z m 1,-12 l 1,-6 1,-1 2,1 -1,6 -1,2 -2,-2 z m 1,-12 l 1,-6 1,-1 2,1 -1,6 -1,2 -2,-2 z m 6,-84 l 1,-6 1,-1 2,2 -1,6 -1,1 -2,-2 z m 1,-12 l 1,-6 1,-1 2,2 -1,6 -1,1 -2,-2 z m 1,-11 l 1,-6 1,-2 2,2 -1,6 -1,1 -2,-1 z m 1,-12 l 1,-6 1,-2 2,2 -1,6 -2,1 -1,-1 z m 5,-72 l 1,-6 2,-2 1,2 -1,6 -1,1 -2,-1 z m 1,-12 l 1,-6 1,-2 2,2 -1,6 -1,1 -2,-1 z m 1,-12 l 1,-6 1,-2 2,2 -1,6 -1,1 -2,-1 z m 7,17 l 1,6 -2,1 -1,-1
 -1,-6 1,-2 2,2 z m 1,12 l 1,6 -1,1 -2,-1 -1,-6 2,-2 1,2 z m 3,23 l 1,6 -2,2 -1,-1 -1,-6 1,-2 2,1 z m 1,12 l 1,6 -1,2 -2,-1 -1,-6 2,-2 1,1 z m 3,24 l 1,6 -2,2 -1,-1 -1,-6 1,-2 2,1 z m 1,12 l 1,6 -1,2 -2,-2 -1,-5 2,-2 1,1 z m 3,24 l 1,6 -2,2 -1,-2 -1,-6 1,-1 2,1 z m 1,12 l 1,6 -1,2 -2,-2 -1,-6 2,-1 1,1 z m 3,24 l 1,6 -2,1 -1,-1 -1,-6 1,-2 2,2 z m 1,12 l 1,6 -1,1 -2,-1 -1,-6 2,-2 1,2 z m 3,24 l 1,6 -2,1 -1,-1 -1,-6 1,-2 2,2 z m 1,11 l 1,6 -1,2 -2,-1 -1,-6 2,-2 1,1 z m 3,24 l 1,6 -2,2 -1,-1 -1,-6 1,-2 2,1 z m 1,12 l 1,6 -1,2 -2,-1 -1,-6 2,-2 1,1 z m 0,5 l 1,-6 1,-2 2,2 -1,6 -2,1
 -1,-1 z m 1,-12 l 1,-6 2,-2 1,2 -1,6 -1,1 -2,-1 z m 3,-24 l 1,-6 1,-2 2,2 -1,6 -2,1 -1,-1 z m 4,-36 l 1,-6 1,-1 2,1 -1,6 -2,2 -1,-2 z m 1,-12 l 1,-6 2,-1 1,1 -1,6 -1,2 -2,-2 z m 3,-24 l 1,-6 1,-1 2,2 -1,6 -2,1 -1,-2 z m 1,-12 l 1,-6 2,-1 1,2 -1,6 -1,1 -2,-2 z m 3,-24 l 1,-6 2,-1 1,2 -1,6 -1,1 -2,-2 z m 3,-23 l 1,-6 1,-2 2,2 -1,6 -2,1 -1,-1 z m 1,-12 l 1,-6 2,-2 1,2 -1,6 -1,1 -2,-1 z m 4,-36 l 1,-6 2,-1 1,1 -1,6 -1,2 -2,-2 z m 3,-24 l 1,-6 1,-1 2,1 -1,6 -2,2 -1,-2 z m 1,-12 l 1,-6 2,-1 1,1 -1,6 -1,2 -2,-2 z m 4,-1 l 1,6 -2,1 -1,-1 -1,-6 2,-2 1,2 z m 2,36 l 1,6 -2,1 -1,-1 -1,-6 2,-2 1,2 z m 2,35 l
 1,6 -2,2 -1,-1 -1,-6 2,-2 1,1 z m 2,36 l 1,6 -2,2 -1,-1 -1,-6 2,-2 1,1 z m 2,36 l 1,6 -2,2 -1,-1 -1,-6 2,-2 1,1 z m 2,36 l 1,6 -2,2 -1,-2 -1,-6 2,-1 1,1 z m 2,36 l 1,6 -2,2 -1,-2 -1,-6 2,-1 1,1 z m 2,36 l 1,6 -2,2 -1,-2 -1,-6 2,-1 1,1 z m 2,36 l 1,6 -2,2 -1,-2 -1,-6 2,-1 1,1 z m 2,36 l 1,6 -2,2 -1,-2 -1,-6 2,-1 1,1 z m 3,48 l 1,6 -2,2 -1,-2 -1,-6 2,-1 1,1 z m 4,72 l 1,6 -2,1 -1,-1 -1,-6 2,-2 1,2 z m 2,36 l 1,6 -2,1 -1,-1 -1,-6 2,-2 1,2 z m 2,36 l 1,6 -2,1 -1,-1 -1,-6 2,-2 1,2 z m -1,1 l 1,-6 2,-1 1,1 -1,6 -1,2 -2,-2 z m 3,-24 l 1,-6 1,-1 2,2 -1,6 -2,1 -1,-2 z m 1,-12 l 1,-6 2,-1
 1,2 -1,6 -1,1 -2,-2 z m 3,-24 l 1,-6 1,-1 2,2 -1,6 -2,1 -1,-2 z m 1,-11 l 1,-6 2,-2 1,2 -1,6 -1,1 -2,-1 z m 3,-24 l 1,-6 1,-2 2,2 -1,6 -2,1 -1,-1 z m 1,-12 l 1,-6 2,-2 1,2 -1,6 -1,1 -2,-1 z m 3,-24 l 1,-6 1,-1 2,1 -1,6 -2,2 -1,-2 z m 1,-12 l 1,-6 2,-1 1,1 -1,6 -1,2 -2,-2 z m 3,-24 l 1,-6 1,-1 2,1 -1,6 -2,2 -1,-2 z m 1,-12 l 1,-6 2,-1 1,2 -1,6 -1,1 -2,-2 z m 3,-24 l 1,-6 1,-1 2,2 -1,6 -2,1 -1,-2 z m 1,-12 l 1,-6 2,-1 1,2 -1,6 -1,1 -2,-2 z m 3,-23 l 1,-6 1,-2 2,2 -1,6 -2,1 -1,-1 z m 7,-9 l 1,5 -1,2 -2,-1 -1,-6 1,-2 2,2 z m 5,23 l 1,6 -1,2 -2,-1 -1,-6 1,-2 2,1 z m 8,35 l 1,6 -1,2 -2,-1 -1,-6
 1,-2 2,1 z m 2,12 l 2,6 -1,2 -2,-2 -1,-5 1,-2 1,1 z m 3,12 l 1,5 -1,2 -1,-1 -2,-6 1,-2 2,2 z m 3,11 l 1,6 -1,2 -2,-1 -1,-6 1,-2 2,1 z m 33,31 l 2,0 -1,1 0,-3 2,-1 1,1 0,4 -2,1 -2,0 -2,-2 2,-1 z m 3,-32 l 1,-6 2,-1 1,1 -1,6 -1,2 -2,-2 z m 1,-12 l 1,-6 1,-1 2,1 -1,6 -1,2 -2,-2 z m 1,-12 l 1,-6 1,-1 2,1 -1,6 -1,2 -2,-2 z m 1,-12 l 1,-6 1,-1 2,2 -1,5 -1,2 -2,-2 z m 1,-12 l 1,-6 1,-1 2,2 -1,6 -2,1 -1,-2 z m 5,-71 l 1,-6 2,-2 1,2 -1,6 -1,1 -2,-1 z m 1,-12 l 1,-6 1,-2 2,2 -1,6 -1,1 -2,-1 z m 1,-12 l 1,-6 1,-2 2,2 -1,6 -1,1 -2,-1 z m 1,-12 l 1,-6 1,-2 2,2 -1,6 -1,1 -2,-1 z m 6,-84 l 1,-6 1,-2
 2,2 -1,6 -1,1 -2,-1 z m 2,-24 l 1,-6 1,-1 2,1 -1,6 -1,2 -2,-2 z m 1,-12 l 1,-6 1,-1 2,1 -1,6 -1,2 -2,-2 z m 6,-84 l 1,-6 1,-1 2,1 -1,6 -1,2 -2,-2 z m 4,-4 l 1,6 -1,2 -2,-1 -1,-6 2,-2 1,1 z m 3,24 l 1,6 -2,2 -1,-1 -1,-6 1,-2 2,1 z m 1,12 l 1,6 -1,2 -2,-1 -1,-6 2,-2 1,1 z m 3,24 l 1,6 -2,2 -1,-2 -1,-6 1,-1 2,1 z m 7,60 l 1,6 -2,1 -1,-1 -1,-6 1,-2 2,2 z m 1,12 l 1,6 -1,1 -2,-1 -1,-6 2,-2 1,2 z m 3,24 l 1,5 -2,2 -1,-1 -1,-6 1,-2 2,2 z m 1,11 l 1,6 -1,2 -2,-1 -1,-6 2,-2 1,1 z m 3,24 l 1,6 -2,2 -1,-1 -1,-6 1,-2 2,1 z m 1,12 l 1,6 -1,2 -2,-2 -1,-5 2,-2 1,1 z m 3,24 l 1,6 -2,2 -1,-2 -1,-6
 1,-1 2,1 z m 1,12 l 1,6 -1,2 -2,-2 -1,-6 2,-1 1,1 z m 3,13 l 1,-6 2,-1 1,2 -2,6 -1,1 -1,-2 z m 2,-12 l 1,-6 2,-1 1,2 -1,6 -2,1 -1,-2 z m -511,97 l 1,-6 2,-2 1,2 -1,6 -1,1 -2,-1 z m 519,-132 l 1,-6 2,-1 1,2 -1,6 -2,1 -1,-2 z m 3,-12 l 1,-5 2,-2 1,2 -1,6 -2,1 -1,-2 z m 5,-23 l 1,-6 2,-1 1,2 -1,6 -2,1 -1,-2 z m 3,-12 l 1,-6 2,-1 1,2 -2,6 -1,1 -1,-2 z m 5,-23 l 1,-6 1,-1 1,0 1,1 -1,2 -1,0 2,-1 -1,5 -2,2 -1,-2 z m 32,-30 l 1,-6 1,-1 2,1 -1,6 -1,2 -2,-2 z m 2,-36 l 1,-6 1,-1 2,1 -1,6 -1,2 -2,-2 z m 2,-36 l 1,-6 1,-1 2,2 -1,6 -1,1 -2,-2 z m 2,-36 l 1,-6 1,-1 2,2 -1,6 -1,1 -2,-2 z m 2,-36 l 1,-6 1,-1
 2,2 -1,6 -1,1 -2,-2 z m 2,-35 l 1,-6 1,-2 2,2 -1,6 -1,1 -2,-1 z m 2,-36 l 1,-6 1,-2 2,2 -1,6 -1,1 -2,-1 z m 3,-48 l 1,-6 1,-2 2,2 -1,6 -1,1 -2,-1 z m 2,-36 l 1,-6 1,-2 2,2 -1,6 -1,1 -2,-1 z m 2,-36 l 1,-6 1,-2 2,2 -1,6 -1,1 -2,-1 z m 2,-36 l 1,-6 1,-2 2,2 -1,6 -1,1 -2,-1 z m 4,-72 l 1,-6 1,-1 2,1 -1,6 -1,2 -2,-2 z m 2,-36 l 1,-6 1,-1 2,1 -1,6 -1,2 -2,-2 z m 5,-23 l 1,6 -2,1 -1,-1 -1,-6 2,-2 1,2 z m 2,36 l 1,6 -2,1 -1,-1 -1,-6 2,-2 1,2 z m 2,36 l 1,6 -2,1 -1,-1 -1,-6 2,-2 1,2 z m 2,36 l 1,6 -2,1 -1,-1 -1,-6 2,-2 1,2 z m 2,36 l 1,5 -2,2 -1,-1 -1,-6 2,-2 1,2 z m 2,35 l 1,6 -2,2 -1,-1 -1,-6
 2,-2 1,1 z m 2,36 l 1,6 -2,2 -1,-1 -1,-6 2,-2 1,1 z m 3,48 l 1,6 -2,2 -1,-2 -1,-6 2,-1 1,1 z m 2,36 l 1,6 -2,2 -1,-2 -1,-6 2,-1 1,1 z m 2,36 l 1,6 -2,2 -1,-2 -1,-6 2,-1 1,1 z m 2,36 l 1,6 -2,2 -1,-2 -1,-6 2,-1 1,1 z m 2,36 l 1,6 -2,2 -1,-2 -1,-6 2,-1 1,1 z m 2,36 l 1,6 -2,2 -1,-2 -1,-6 2,-1 1,1 z m 2,36 l 1,6 -2,2 -1,-2 -1,-6 2,-1 1,1 z m 3,48 l 1,6 -2,1 -1,-1 -1,-6 1,-2 2,2 z m 1,12 l 1,6 -1,1 -2,-1 -1,-6 2,-2 1,2 z m 3,24 l 1,6 -2,1 -1,-1 -1,-6 1,-2 2,2 z m 1,12 l 1,5 -1,2 -2,-1 -1,-6 2,-2 1,2 z m 3,23 l 1,6 -2,2 -1,-1 -1,-6 1,-2 2,1 z m 1,12 l 1,6 -1,2 -2,-1 -1,-6 2,-2 1,1 z m
 3,24 l 1,6 -2,2 -1,-2 -1,-6 1,-1 2,1 z m 1,12 l 1,6 -1,2 -2,-2 -1,-6 2,-1 1,1 z m 3,24 l 1,6 -2,2 -1,-2 -1,-6 1,-1 2,1 z m 4,36 l 1,6 -2,1 -1,-1 -1,-6 1,-2 2,2 z m 1,12 l 1,6 -1,1 -2,-1 -1,-6 2,-2 1,2 z m 3,23 l 1,6 -1,2 -2,-1 -1,-6 1,-2 2,1 z m 3,24 l 1,6 -2,2 -1,-1 -1,-6 1,-2 2,1 z m 1,12 l 1,6 -1,2 -2,-1 -1,-6 2,-2 1,1 z m -656,-55 l 1,-6 1,-2 2,2 -1,6 -1,1 -2,-1 z m 694,96 l 1,6 -1,2 -2,-1 -1,-6 1,-2 2,1 z m -693,-108 l 1,-6 1,-2 2,2 -1,6 -1,1 -2,-1 z m 701,143 l 1,6 -1,2 -2,-1 -1,-6 1,-2 2,1 z m -700,-155 l 1,-6 1,-2 2,2 -1,6 -1,1 -2,-1 z m 705,179 l 1,6 -1,2 -2,-2 -1,-5 1,-2 2,1 z m 2,12 l 2,5
 -1,2 -2,-1 -1,-6 1,-2 1,2 z m 3,11 l 1,6 -1,2 -1,-1 -2,-6 1,-2 2,1 z m 3,12 l 1,6 -1,2 -2,-1 -1,-6 1,-2 2,1 z m 31,11 l 1,-6 2,-1 1,2 -1,5 -2,2 -1,-2 z m -743,-237 l 1,-6 1,-2 2,2 -1,6 -2,1 -1,-1 z m 748,213 l 1,-5 2,-2 1,2 -1,6 -2,1 -1,-2 z m 8,-35 l 1,-6 2,-1 1,2 -1,6 -2,1 -1,-2 z m 8,-35 l 1,-6 2,-1 1,2 -1,6 -2,1 -1,-2 z m 3,-12 l 1,-5 2,-2 1,2 -2,6 -1,1 -1,-2 z m 2,-11 l 2,-6 1,-1 1,2 -1,5 -2,2 -1,-2 z m -114,-17 l 0,4 -2,-1 2,0 2,1 -2,2 -2,0 -1,-1 0,-4 1,-2 2,1 z m 59,135 l 1,2 -2,-1 4,0 1,1 -1,2 -4,0 -1,-1 -1,-3 2,-1 1,1 z m -301,-139 l 1,6 -1,1 -2,-1 -1,-6 1,-1 2,1 z m -115,-182 l 1,-6 2,-1
 1,1 -1,6 -1,1 -2,-1 z m 165,-94 l 1,-6 1,-1 2,1 -1,6 -1,1 -2,-1 z m -147,-61 l 1,-6 1,-1 2,1 -1,6 -2,1 -1,-1 z m 170,45 l 1,6 -1,1 -2,-1 -1,-6 2,-1 1,1 z m 19,167 l -3,0 1,-5 2,-1 1,1 -1,6 -2,1 -1,-1 0,-1 1,-1 2,1 z m 5,-34 l 1,-6 2,-1 1,1 -1,6 -2,1 -1,-1 z m 18,-82 l 1,-6 2,-1 1,1 -1,6 -2,1 -1,-1 z m -313,324 l 2,-6 1,-1 1,1 -1,6 -2,1 -1,-1 z m 371,-773 l 1,-6 1,-1 2,1 -1,6 -1,1 -2,-1 z m -321,301 l 1,6 -1,1 -2,-1 -1,-6 2,-1 1,1 z m 83,410 l 1,6 -2,1 -1,-1 -1,-6 2,-1 1,1 z m 276,-291 l 1,6 -2,1 -1,-1 -1,-6 2,-1 1,1 z m -401,318 l 1,-6 2,-1 1,1 -1,6 -2,1 -1,-1 z m 132,93 l -3,0 1,-5 1,-1 2,1 -1,6 -2,1 -1,-1
 0,-1 1,-2 2,2 z m -350,-312 l 1,-6 2,-1 1,1 -1,6 -1,1 -2,-1 z m 637,68 l 1,6 -1,1 -2,-1 -1,-6 2,-1 1,1 z m -247,21 l 1,6 -1,1 -2,-1 -1,-6 1,-1 2,1 z m 293,104 l 1,5 -1,2 -2,-1 -1,-6 1,-1 2,1 z m 8,35 l 1,6 -1,1 -2,-1 -1,-6 1,-1 2,1 z m -460,-104 l 1,-6 1,-1 2,1 -1,6 -1,1 -2,-1 z m 515,150 l 1,-6 2,-1 1,1 -1,6 -2,1 -1,-1 z m 8,-35 l 1,-6 2,-1 1,1 -1,6 -2,1 -1,-1 z m 13,-59 l 0,-1 1,-1 6,0 1,1 -1,2 -6,0 2,-1 0,1 -2,1 -1,-2 z m -525,-200 l 0,-6 2,-1 1,2 0,6 -2,1 -1,-2 z m 210,-1 l 0,-6 2,-2 1,2 0,6 -2,1 -1,-1 z m 1,-12 l 0,-6 2,-2 1,2 0,6 -2,1 -1,-1 z m 1,-12 l 0,-6 2,-2 1,2 0,6 -2,1 -1,-1 z m 1,-12 l 0,-6
 2,-2 1,2 0,6 -2,1 -1,-1 z m 1,-12 l 0,-6 2,-2 1,2 0,6 -2,1 -1,-1 z m 1,-12 l 0,-6 2,-2 1,2 0,6 -2,1 -1,-1 z m -154,-14 l 1,-6 1,-1 1,2 0,6 -2,1 -1,-2 z m -60,63 l 0,-6 2,-1 1,2 0,6 -2,1 -1,-2 z m 63,-86 l 0,-6 2,-2 1,2 0,6 -2,1 -1,-1 z m 155,-23 l 0,-6 2,-1 1,1 0,6 -2,2 -1,-2 z m 1,-12 l 0,-6 2,-1 1,1 0,6 -2,2 -1,-2 z m 1,-12 l 0,-6 2,-1 1,1 0,6 -2,2 -1,-2 z m 1,-12 l 0,-6 2,-1 1,1 0,6 -2,2 -1,-2 z m 1,-12 l 0,-6 2,-1 1,1 0,6 -2,2 -1,-2 z m 1,-12 l 0,-6 2,-1 1,1 0,6 -2,2 -1,-2 z m -222,157 l 0,-6 2,-1 1,2 0,6 -2,1 -1,-2 z m 1,-12 l 0,-6 2,-1 1,2 0,6 -2,1 -1,-2 z m 227,-149 l 0,6 -1,2 -2,-1
 0,-6 1,-2 2,1 z m -162,51 l 0,-6 2,-2 1,2 0,6 -2,1 -1,-1 z m -73,206 l 0,-6 2,-1 1,1 0,6 -2,2 -1,-2 z m 239,-221 l 0,6 -1,2 -2,-2 0,-5 1,-2 2,1 z m -230,101 l 0,-6 2,-1 1,2 0,6 -2,1 -1,-2 z m 232,-77 l 1,6 -1,2 -2,-2 0,-6 1,-1 1,1 z m 2,12 l 0,6 -1,2 -1,-2 -1,-6 1,-1 2,1 z m -489,265 l 0,-6 2,-2 1,2 0,6 -2,1 -1,-1 z m 492,-241 l 0,6 -1,1 -2,-1 0,-6 1,-2 2,2 z m -169,-81 l 0,-6 2,-1 1,1 0,6 -2,2 -1,-2 z m -308,118 l 0,-6 2,-1 1,1 0,6 -2,2 -1,-2 z m 481,-1 l 0,6 -1,1 -2,-1 0,-6 1,-2 2,2 z m -500,252 l 0,-6 2,-1 1,2 0,6 -2,1 -1,-2 z m 20,-263 l 0,-6 2,-1 1,1 0,6 -2,2 -1,-2 z m 484,46 l 0,6 -1,2 -2,-1 0,-6 1,-2
 2,1 z m -170,-165 l 0,6 -1,1 -2,-1 0,-6 1,-2 2,2 z m 1,12 l 0,6 -1,1 -2,-1 0,-6 1,-2 2,2 z m 173,189 l 0,6 -1,2 -2,-2 0,-6 1,-1 2,1 z m -487,-94 l 0,-6 2,-1 1,1 0,6 -2,2 -1,-2 z m 315,-72 l 0,6 -1,2 -2,-1 0,-6 1,-2 2,1 z m 176,202 l 0,6 -1,2 -2,-2 0,-6 1,-1 2,1 z m -264,42 l 0,-6 2,-1 1,1 0,6 -2,2 -1,-2 z m 89,-232 l 0,6 -1,2 -2,-1 0,-6 1,-2 2,1 z m -74,29 l 0,-6 2,-2 1,2 0,6 -2,1 -1,-1 z m 162,305 l 6,0 1,1 -1,2 -6,0 -2,-2 2,-1 z m -87,-310 l 0,6 -1,2 -2,-1 0,-6 1,-2 2,1 z m 1,12 l 0,6 -1,2 -2,-1 0,-6 1,-2 2,1 z m -75,-19 l 0,-6 2,-2 1,2 0,6 -2,1 -1,-1 z m -253,175 l 0,-6 2,-2 1,2 0,6 -2,1 -1,-1 z m 329,-132 l
 0,6 -1,2 -2,-1 0,-6 1,-2 2,1 z m 1,12 l 0,6 -1,2 -2,-1 0,-6 1,-2 2,1 z m 96,262 l 6,0 1,1 -1,2 -6,0 -2,-2 2,-1 z m -172,-329 l 0,-6 2,-2 1,2 0,6 -2,1 -1,-1 z m 283,62 l 6,0 1,1 -1,2 -6,0 -2,-2 2,-1 z m 12,0 l 6,0 1,1 -1,2 -6,0 -2,-2 2,-1 z m 10,1 l 0,-6 2,-1 1,1 0,6 -2,2 -1,-2 z m 1,-12 l 0,-6 2,-1 1,1 0,6 -2,2 -1,-2 z m -229,40 l 0,6 -1,2 -2,-2 0,-6 1,-1 2,1 z m 230,-64 l 0,-6 2,-1 1,1 0,6 -2,2 -1,-2 z m 1,-12 l 0,-6 2,-1 1,1 0,6 -2,2 -1,-2 z m -230,88 l 0,6 -1,2 -2,-2 0,-6 1,-1 2,1 z m 231,-112 l 0,-6 2,-1 1,2 0,6 -2,1 -1,-2 z m 1,-12 l 0,-6 2,-1 1,2 0,6 -2,1 -1,-2 z m -309,9 l 0,-6 2,-2
 1,2 0,6 -2,1 -1,-1 z m 310,-33 l 0,-6 2,-1 1,2 0,6 -2,1 -1,-2 z m 1,-12 l 0,-6 2,-1 1,2 0,6 -2,1 -1,-2 z m -233,184 l 0,6 -1,2 -2,-2 0,-6 1,-1 2,1 z m 234,-208 l 0,-6 2,-1 1,2 0,6 -1,1 -2,-2 z m 1,-12 l 0,-6 2,-1 1,2 0,6 -2,1 -1,-2 z m -234,232 l 0,6 -1,2 -2,-2 0,-6 1,-1 2,1 z m 235,-255 l 0,-6 2,-2 1,2 0,6 -1,1 -2,-1 z m 1,-12 l 0,-6 2,-2 1,2 0,6 -2,1 -1,-1 z m -314,104 l 0,-6 2,-2 1,2 0,6 -2,1 -1,-1 z m 315,-128 l 0,-6 2,-2 1,2 0,6 -1,1 -2,-1 z m 1,-12 l 0,-6 2,-2 1,2 0,6 -2,1 -1,-1 z m -237,327 l 0,6 -1,2 -2,-2 0,-6 2,-1 1,1 z m 238,-351 l 1,-6 1,-2 1,2 0,6 -1,1 -2,-1 z m 1,-12 l 0,-6 2,-2 1,2 0,6
 -2,1 -1,-1 z m 1,-12 l 0,-6 1,-2 2,2 0,6 -2,1 -1,-1 z m -239,387 l 0,6 -1,2 -2,-2 0,-6 1,-1 2,1 z m 240,-411 l 0,-6 2,-2 1,2 0,6 -2,1 -1,-1 z m 1,-12 l 0,-6 1,-2 2,2 0,6 -2,1 -1,-1 z m -560,207 l 0,-6 2,-1 1,2 0,6 -2,1 -1,-2 z m 561,-231 l 0,-6 2,-2 1,2 0,6 -2,1 -1,-1 z m 1,-12 l 0,-6 1,-2 2,2 0,6 -2,1 -1,-1 z m -242,483 l 0,6 -1,2 -2,-2 0,-6 2,-1 1,1 z m 243,-507 l 0,-6 2,-2 1,2 0,6 -2,1 -1,-1 z m 1,-12 l 0,-6 2,-2 1,2 0,6 -2,1 -1,-1 z m -243,531 l 0,6 -1,2 -2,-2 0,-6 1,-1 2,1 z m 244,-555 l 0,-6 2,-2 1,2 0,6 -2,1 -1,-1 z m 1,-12 l 0,-6 2,-2 1,2 0,6 -2,1 -1,-1 z m -143,677 l 0,-6 2,-1 1,1 0,6 -2,2 -1,-2 z m
 144,-701 l 0,-6 2,-1 1,1 0,6 -2,2 -1,-2 z m 1,-12 l 0,-6 2,-1 1,1 0,6 -2,2 -1,-2 z m -574,435 l 0,-6 2,-1 1,1 0,6 -2,2 -1,-2 z m 575,-459 l 0,-6 2,-1 1,1 0,6 -2,2 -1,-2 z m 1,-12 l 0,-6 2,-1 1,1 0,6 -2,2 -1,-2 z m -248,663 l 0,6 -1,2 -2,-2 0,-6 2,-1 1,1 z m 249,-687 l 0,-6 2,-1 1,1 0,6 -2,2 -1,-2 z m 1,-12 l 0,-6 1,-1 2,1 0,1 -1,1 -2,-1 3,0 0,5 -2,2 -1,-2 z m -249,711 l 0,6 -1,2 -2,-2 0,-6 1,-1 2,1 z m 253,-698 l 0,6 -1,1 -2,-1 0,-6 1,-2 2,2 z m 1,12 l 0,6 -1,1 -2,-1 0,-6 1,-2 2,2 z m -593,614 l 0,-6 2,-2 1,2 0,6 -2,1 -1,-1 z m 594,-590 l 0,6 -1,1 -2,-1 0,-6 1,-2 2,2 z m 1,12 l 0,6 -1,1 -2,-1 0,-6
 1,-2 2,2 z m -255,674 l 0,6 -1,2 -1,-2 -1,-6 2,-1 1,1 z m 256,-650 l 0,6 -1,1 -2,-1 0,-6 1,-2 2,2 z m 1,12 l 0,6 -1,1 -2,-1 0,-6 1,-2 2,2 z m -256,650 l 0,6 -1,2 -2,-2 0,-6 1,-1 2,1 z m 257,-626 l 0,6 -1,1 -2,-1 0,-6 2,-2 1,2 z m 1,12 l 0,6 -1,1 -2,-1 0,-6 1,-2 2,2 z m -257,626 l 0,6 -2,2 -1,-2 0,-6 1,-1 2,1 z m 258,-603 l 0,6 -1,2 -2,-1 0,-6 2,-2 1,1 z m 1,12 l 0,6 -1,2 -2,-1 0,-6 1,-2 2,1 z m -161,605 l 0,-6 2,-1 1,1 0,6 -2,2 -1,-2 z m 162,-581 l 0,6 -1,2 -2,-1 0,-6 2,-2 1,1 z m 1,12 l 0,6 -1,2 -2,-1 0,-6 1,-2 2,1 z m -260,579 l 0,6 -1,2 -2,-2 0,-6 1,-1 2,1 z m 261,-555 l 0,6 -1,2 -2,-1 0,-6 2,-2 1,1 z m
 1,12 l 0,6 -1,2 -2,-1 0,-6 1,-2 2,1 z m 1,12 l 0,6 -2,2 -1,-2 0,-5 1,-2 2,1 z m -262,543 l 0,6 -2,2 -1,-2 0,-6 1,-1 2,1 z m 263,-519 l 0,6 -1,2 -2,-2 0,-6 1,-1 2,1 z m 1,12 l 0,6 -2,2 -1,-2 0,-6 1,-1 2,1 z m -316,340 l 0,-6 2,-2 1,2 0,6 -2,1 -1,-1 z m 317,-316 l 0,6 -1,2 -2,-2 0,-6 1,-1 2,1 z m 1,12 l 0,6 -2,2 -1,-2 0,-6 1,-1 2,1 z m -265,495 l 0,6 -1,1 -2,-1 0,-6 1,-2 2,2 z m 266,-471 l 0,6 -1,2 -2,-2 0,-6 1,-1 2,1 z m 1,12 l 0,6 -2,2 -1,-2 0,-6 1,-1 2,1 z m -266,471 l 0,6 -2,1 -1,-1 0,-6 1,-2 2,2 z m 267,-447 l 0,6 -1,2 -2,-2 0,-6 1,-1 2,1 z m 1,12 l 0,6 -1,2 -2,-2 0,-6 1,-1 2,1 z m -351,13 l 0,6
 -1,1 -2,-1 0,-6 1,-2 2,2 z m 352,11 l 0,6 -1,2 -2,-2 0,-6 1,-1 2,1 z m 1,12 l 0,6 -1,2 -2,-2 0,-6 1,-1 2,1 z m -269,423 l 0,6 -1,1 -2,-1 0,-6 1,-2 2,2 z m 270,-399 l 0,6 -1,2 -2,-2 0,-6 1,-1 2,1 z m 1,12 l 0,6 -1,2 -2,-2 0,-6 1,-1 2,1 z m -270,399 l 0,6 -1,1 -2,-1 0,-6 1,-2 2,2 z m 271,-375 l 0,6 -1,2 -2,-2 0,-6 1,-1 2,1 z m 1,12 l 0,6 -1,2 -2,-2 0,-6 1,-1 2,1 z m -603,-93 l 0,-6 2,-1 1,2 0,6 -2,1 -1,-2 z m 220,268 l 0,-6 2,-1 1,1 0,6 -2,2 -1,-2 z m 112,212 l 0,6 -1,1 -2,-1 0,-6 1,-2 2,2 z m 275,-339 l 0,6 -1,1 -2,-1 0,-6 1,-2 2,2 z m -274,351 l 0,6 -1,1 -2,-1 0,-6 1,-2 2,2 z m -349,-276 l 0,-6 2,-2 1,2
 0,6 -2,1 -1,-1 z m 627,-40 l 0,6 -1,2 -2,-1 0,-6 1,-2 2,1 z m -332,5 l 0,-6 2,-1 1,1 0,6 -2,2 -1,-2 z m -29,-147 l 0,6 -1,1 -2,-1 0,-6 1,-2 2,2 z m 365,178 l 0,6 -1,2 -2,-1 0,-6 1,-2 2,1 z m -281,281 l 0,-6 2,-1 1,2 0,5 -2,2 -1,-2 z m -362,-122 l 0,-6 2,-1 1,2 0,6 -2,1 -1,-2 z m 647,-123 l 0,6 -1,2 -2,-2 0,-6 1,-1 2,1 z m -191,42 l 0,-6 2,-1 1,2 0,6 -2,1 -1,-2 z m 195,-6 l 0,6 -1,1 -2,-1 0,-6 1,-2 2,2 z m -285,173 l 0,-6 2,-1 1,2 0,6 -2,1 -1,-2 z m -84,-388 l 0,6 -1,2 -2,-1 0,-6 1,-2 2,1 z m 373,251 l 0,6 -1,1 -1,-1 -1,-6 1,-2 2,2 z m -415,56 l 0,-6 2,-2 1,2 0,6 -2,1 -1,-1 z m 417,-33 l 1,6 -1,2 -2,-1 0,-6 1,-2
 1,1 z m -287,79 l 0,-6 2,-2 1,2 0,6 -2,1 -1,-1 z m -354,-266 l 0,-6 2,-1 1,1 0,6 -2,2 -1,-2 z m 441,122 l 0,-6 2,-1 1,2 0,6 -2,1 -1,-2 z m 211,104 l 6,0 2,1 -2,2 -6,0 -1,-2 1,-1 z m 12,0 l 6,0 2,1 -2,2 -6,0 -1,-2 1,-1 z m -394,-277 l 0,6 -1,2 -2,-2 0,-6 1,-1 2,1 z m 172,161 l 0,-6 2,-1 1,2 0,6 -2,1 -1,-2 z m -433,-230 l 0,-6 2,-1 1,2 0,6 -2,1 -1,-2 z m 434,218 l 0,-6 2,-1 1,2 0,6 -2,1 -1,-2 z m -433,-230 l 0,-6 2,-1 1,2 0,6 -2,1 -1,-2 z m 352,326 l 0,-6 2,-1 1,1 0,6 -2,2 -1,-2 z m 82,-108 l 0,-6 2,-1 1,2 0,6 -2,1 -1,-2 z m -78,72 l 0,-6 2,-1 1,2 0,6 -2,1 -1,-2 z m -138,2 l 1,-6 1,-1 1,1 0,6 -2,2 -1,-2 z m -242,31 l
 0,-6 2,-1 1,2 0,6 -2,1 -1,-2 z m 728,168 l 6,0 1,1 -1,2 -6,0 -2,-2 2,-1 z m 12,0 l 6,0 1,1 -1,2 -6,0 -2,-2 2,-1 z m -448,-338 l 0,6 -1,1 -2,-1 0,-6 1,-2 2,2 z m 92,101 l 0,-5 2,-2 1,2 0,6 -2,1 -1,-2 z m -141,26 l 0,-6 2,-1 1,1 0,6 -2,2 -1,-2 z m -228,-160 l 0,-6 2,-1 1,1 0,6 -2,2 -1,-2 z m -9,120 l 0,-6 2,-2 1,2 0,6 -2,1 -1,-1 z m 303,-119 l 0,-6 2,-1 1,2 0,5 -2,2 -1,-2 z m -302,107 l 0,-6 2,-2 1,2 0,6 -2,1 -1,-1 z m 237,40 l 0,-6 2,-1 1,1 0,6 -2,2 -1,-2 z m -245,67 l 0,-6 2,-1 1,2 0,6 -2,1 -1,-2 z m 297,-147 l 0,6 -1,2 -2,-1 0,-6 1,-2 2,1 z m -45,-16 l 0,-6 2,-1 1,1 0,6 -2,2 -1,-2 z m 539,186 l 6,0 1,1
 -1,2 -6,0 -2,-2 2,-1 z m 12,0 l 6,0 1,1 -1,2 -6,0 -2,-2 2,-1 z m -514,-241 l 0,6 -1,1 -2,-1 0,-6 1,-1 2,1 z m -261,-153 l 0,-5 2,-1 1,2 0,5 -2,1 -1,-2 z m 345,398 l 0,-6 2,-1 1,1 0,6 -2,1 -1,-1 z m 15,-131 l 0,-5 1,-1 2,1 0,2 -1,2 -2,-2 0,-1 3,0 -1,4 -1,1 -1,-1 z m -87,-7 l 0,2 -3,0 0,-4 2,-1 1,2 0,4 -2,1 -1,-1 0,-2 1,-2 2,1 z"/>
<path fill="#C00000" stroke="none" d="M 2585,3690 l 11,23 -23,0 12,-23 z"/>
<path fill="#C00000" stroke="none" d="M 2582,3689 l 2,-1 1,-1 2,2 12,23 0,2 -1,1 -2,1 -23,0 -3,-3 1,-1 11,-23 z m -6,25 l -3,-4 23,0 -2,4 -12,-23 5,0 -11,23 z"/>
<path fill="#C00000" stroke="none" d="M 2644,3290 l 12,23 -23,0 11,-23 z"/>
<path fill="#C00000" stroke="none" d="M 2642,3289 l 2,-2 2,1 1,1 11,23 1,1 -3,3 -23,0 -3,-3 1,-1 11,-23 z m -6,25 l -3,-4 23,0 -3,4 -11,-22 5,0 -11,22 z"/>
<path fill="#C00000" stroke="none" d="M 2704,3557 l 12,23 -23,0 11,-23 z"/>
<path fill="#C00000" stroke="none" d="M 2702,3556 l 1,-1 3,0 1,1 11,23 0,3 -1,1 -25,0 -2,-1 0,-3 12,-23 z m -7,25 l -2,-4 23,0 -3,4 -11,-22 5,0 -12,22 z"/>
<path fill="#C00000" stroke="none" d="M 2735,3158 l 11,22 -23,0 12,-22 z"/>
<path fill="#C00000" stroke="none" d="M 2732,3156 l 1,-1 3,0 1,1 11,23 1,2 -2,2 -25,0 -2,-2 1,-2 11,-23 z m -6,26 l -3,-5 23,0 -3,5 -11,-23 5,0 -11,23 z"/>
<path fill="#C00000" stroke="none" d="M 2855,3557 l 11,23 -23,0 12,-23 z"/>
<path fill="#C00000" stroke="none" d="M 2852,3556 l 2,-1 2,0 1,1 12,23 0,3 -1,1 -26,0 -1,-1 0,-3 11,-23 z m -6,25 l -3,-4 23,0 -2,4 -12,-22 5,0 -11,22 z"/>
<path fill="#C00000" stroke="none" d="M 2915,3690 l 11,23 -23,0 12,-23 z"/>
<path fill="#C00000" stroke="none" d="M 2912,3689 l 1,-1 2,-1 2,2 11,23 1,1 -3,3 -23,0 -3,-3 1,-1 11,-23 z m -6,25 l -3,-4 23,0 -3,4 -11,-23 5,0 -11,23 z"/>
<path fill="#C00000" stroke="none" d="M 2944,3557 l 11,23 -22,0 11,-23 z"/>
<path fill="#C00000" stroke="none" d="M 2941,3556 l 2,-1 2,0 1,1 12,23 0,3 -1,1 -25,0 -2,-1 0,-3 11,-23 z m -6,25 l -2,-4 22,0 -2,4 -12,-22 5,0 -11,22 z"/>
<path fill="#C00000" stroke="none" d="M 2974,3158 l 12,22 -23,0 11,-22 z"/>
<path fill="#C00000" stroke="none" d="M 2972,3156 l 1,-1 3,0 1,1 11,23 1,2 -2,2 -25,0 -2,-1 0,-3 12,-23 z m -7,26 l -2,-5 23,0 -3,5 -11,-23 5,0 -12,23 z"/>
<path fill="#C00000" stroke="none" d="M 3005,3424 l 11,23 -23,0 12,-23 z"/>
<path fill="#C00000" stroke="none" d="M 3002,3423 l 1,-1 2,-1 2,2 12,24 -2,2 -25,0 -2,-2 12,-24 z m -6,25 l -3,-4 23,0 -3,4 -11,-23 5,0 -11,23 z"/>
<path fill="#C00000" stroke="none" d="M 3034,3158 l 11,22 -22,0 11,-22 z"/>
<path fill="#C00000" stroke="none" d="M 3031,3156 l 2,-1 2,0 1,1 12,23 0,3 -1,1 -25,0 -2,-1 0,-3 11,-23 z m -6,26 l -2,-5 22,0 -2,5 -12,-23 5,0 -11,23 z"/>
<path fill="#C00000" stroke="none" d="M 3064,3690 l 12,23 -23,0 11,-23 z"/>
<path fill="#C00000" stroke="none" d="M 3062,3689 l 2,-2 2,1 1,1 11,23 1,1 -3,3 -23,0 -1,-1 -2,-1 0,-2 12,-23 z m -7,25 l -2,-4 23,0 -3,4 -11,-23 5,0 -12,23 z"/>
<path fill="#C00000" stroke="none" d="M 3095,3424 l 11,23 -23,0 12,-23 z"/>
<path fill="#C00000" stroke="none" d="M 3092,3423 l 2,-1 1,-1 2,2 12,24 -2,2 -25,0 -2,-2 12,-24 z m -6,25 l -3,-4 23,0 -3,4 -11,-23 5,0 -11,23 z"/>
<path fill="#C00000" stroke="none" d="M 3124,3557 l 11,23 -22,0 11,-23 z"/>
<path fill="#C00000" stroke="none" d="M 3121,3556 l 2,-1 3,0 1,1 11,23 0,3 -1,1 -25,0 -2,-1 0,-3 11,-23 z m -6,25 l -2,-4 22,0 -2,4 -12,-22 6,0 -12,22 z"/>
<path fill="#C00000" stroke="none" d="M 3154,3557 l 12,23 -23,0 11,-23 z"/>
<path fill="#C00000" stroke="none" d="M 3152,3556 l 1,-1 3,0 1,1 11,23 1,2 -2,2 -25,0 -2,-1 0,-3 12,-23 z m -7,25 l -2,-4 23,0 -3,4 -11,-22 5,0 -12,22 z"/>
<path fill="#C00000" stroke="none" d="M 3184,3158 l 11,22 -23,0 12,-22 z"/>
<path fill="#C00000" stroke="none" d="M 3181,3156 l 2,-1 2,0 1,1 12,23 0,2 -2,2 -25,0 -2,-2 1,-2 11,-23 z m -6,26 l -3,-5 23,0 -3,5 -11,-23 5,0 -11,23 z"/>
<path fill="#C00000" stroke="none" d="M 3214,3424 l 11,23 -22,0 11,-23 z"/>
<path fill="#C00000" stroke="none" d="M 3211,3423 l 2,-1 1,-1 2,1 1,1 11,22 0,3 -1,1 -25,0 -2,-1 0,-3 11,-22 z m -6,25 l -2,-4 22,0 -2,4 -12,-23 6,0 -12,23 z"/>
<path fill="#C00000" stroke="none" d="M 3244,3290 l 12,23 -23,0 11,-23 z"/>
<path fill="#C00000" stroke="none" d="M 3242,3289 l 2,-2 2,1 1,1 11,23 1,1 -3,3 -23,0 -3,-3 0,-1 12,-23 z m -7,25 l -2,-4 23,0 -3,4 -11,-22 5,0 -12,22 z"/>
<path fill="#C00000" stroke="none" d="M 3274,3290 l 11,23 -23,0 12,-23 z"/>
<path fill="#C00000" stroke="none" d="M 3271,3289 l 2,-1 1,-1 2,2 12,23 0,1 -3,3 -23,0 -3,-3 1,-1 11,-23 z m -6,25 l -3,-4 23,0 -2,4 -12,-22 5,0 -11,22 z"/>
<path fill="#C00000" stroke="none" d="M 3304,2758 l 11,22 -22,0 11,-22 z"/>
<path fill="#C00000" stroke="none" d="M 3301,2756 l 2,-1 3,0 1,1 11,23 0,3 -1,1 -25,0 -2,-1 0,-3 11,-23 z m -6,26 l -2,-4 22,0 -2,4 -12,-23 6,0 -12,23 z"/>
<path fill="#C00000" stroke="none" d="M 3334,3290 l 12,23 -23,0 11,-23 z"/>
<path fill="#C00000" stroke="none" d="M 3332,3289 l 2,-2 2,1 1,1 11,23 1,1 -3,3 -23,0 -3,-3 0,-1 12,-23 z m -7,25 l -2,-4 23,0 -3,4 -11,-22 5,0 -12,22 z"/>
<path fill="#C00000" stroke="none" d="M 3364,3557 l 11,23 -23,0 12,-23 z"/>
<path fill="#C00000" stroke="none" d="M 3361,3556 l 2,-1 2,0 1,1 12,23 0,2 -2,2 -25,0 -2,-2 1,-2 11,-23 z m -6,25 l -3,-4 23,0 -2,4 -12,-22 5,0 -11,22 z"/>
<path fill="#C00000" stroke="none" d="M 3394,3557 l 11,23 -22,0 11,-23 z"/>
<path fill="#C00000" stroke="none" d="M 3391,3556 l 2,-1 3,0 1,1 11,23 0,3 -1,1 -25,0 -2,-1 0,-3 11,-23 z m -6,25 l -2,-4 22,0 -2,4 -12,-22 6,0 -12,22 z"/>
<path fill="#C00000" stroke="none" d="M 3423,3690 l 12,23 -23,0 11,-23 z"/>
<path fill="#C00000" stroke="none" d="M 3421,3689 l 2,-2 2,1 1,1 11,23 1,1 -3,3 -23,0 -3,-3 0,-1 12,-23 z m -6,25 l -3,-4 23,0 -3,4 -11,-23 5,0 -11,23 z"/>
<path fill="#C00000" stroke="none" d="M 3454,3690 l 11,23 -23,0 12,-23 z"/>
<path fill="#C00000" stroke="none" d="M 3451,3689 l 2,-1 1,-1 2,2 12,23 0,2 -1,1 -2,1 -23,0 -3,-3 1,-1 11,-23 z m -6,25 l -3,-4 23,0 -2,4 -12,-23 5,0 -11,23 z"/>
<path fill="#C00000" stroke="none" d="M 3484,3557 l 11,23 -22,0 11,-23 z"/>
<path fill="#C00000" stroke="none" d="M 3481,3556 l 2,-1 3,0 1,1 11,23 0,3 -1,1 -25,0 -2,-1 0,-3 11,-23 z m -6,25 l -2,-4 22,0 -2,4 -12,-22 6,0 -12,22 z"/>
<path fill="#C00000" stroke="none" d="M 3513,3557 l 12,23 -23,0 11,-23 z"/>
<path fill="#C00000" stroke="none" d="M 3511,3556 l 1,-1 3,0 1,1 11,23 1,2 -2,2 -25,0 -2,-2 0,-2 12,-23 z m -6,25 l -3,-4 23,0 -3,4 -11,-22 5,0 -11,22 z"/>
<text font-family="Calibri" font-size="76" fill="#000000"><tspan x="3600" y="3858">0</tspan><tspan x="3600" y="3591">2</tspan><tspan x="3600" y="3324">4</tspan><tspan x="3600" y="3058">6</tspan><tspan x="3600" y="2791">8</tspan><tspan x="3600,3639" y="2525">10</tspan><tspan x="3600,3639" y="2258">12</tspan><tspan x="694" y="3858">0</tspan><tspan x="655,694" y="3680">20</tspan><tspan x="655,694" y="3502">40</tspan><tspan x="655,694" y="3324">60</tspan><tspan x="655,694" y="3147">80</tspan><tspan x="617,656,694" y="2969">100</tspan><tspan x="617,656,694" y="2791">120</tspan><tspan x="617,656,694" y="2614">140</tspan><tspan x="617,656,694" y="2436">160</tspan><tspan x="617,656,694" y="2258">180</tspan></text>
<text font-family="Calibri" font-size="76" fill="#000000" transform="translate(843,4173) rotate(-90)"><tspan x="0,39" y="0">7/</tspan><tspan x="67,106" y="0">1/</tspan><tspan x="135,173,212,251" y="0">2007</tspan></text>
<text font-family="Calibri" font-size="76" fill="#000000" transform="translate(963,4212) rotate(-90)"><tspan x="0,39,77" y="0">11/</tspan><tspan x="106,145" y="0">1/</tspan><tspan x="174,213,251,289" y="0">2007</tspan></text>
<text font-family="Calibri" font-size="76" fill="#000000" transform="translate(1083,4173) rotate(-90)"><tspan x="0,39" y="0">3/</tspan><tspan x="67,106" y="0">1/</tspan><tspan x="135,173,212,251" y="0">2008</tspan></text>
<text font-family="Calibri" font-size="76" fill="#000000" transform="translate(1203,4173) rotate(-90)"><tspan x="0,39" y="0">7/</tspan><tspan x="67,106" y="0">1/</tspan><tspan x="135,173,212,251" y="0">2008</tspan></text>
<text font-family="Calibri" font-size="76" fill="#000000" transform="translate(1323,4212) rotate(-90)"><tspan x="0,39,77" y="0">11/</tspan><tspan x="106,145" y="0">1/</tspan><tspan x="174,213,251,289" y="0">2008</tspan></text>
<text font-family="Calibri" font-size="76" fill="#000000" transform="translate(1443,4173) rotate(-90)"><tspan x="0,39" y="0">3/</tspan><tspan x="67,106" y="0">1/</tspan><tspan x="135,173,212,251" y="0">2009</tspan></text>
<text font-family="Calibri" font-size="76" fill="#000000" transform="translate(1563,4173) rotate(-90)"><tspan x="0,39" y="0">7/</tspan><tspan x="67,106" y="0">1/</tspan><tspan x="135,173,212,251" y="0">2009</tspan></text>
<text font-family="Calibri" font-size="76" fill="#000000" transform="translate(1682,4212) rotate(-90)"><tspan x="0,39,77" y="0">11/</tspan><tspan x="106,145" y="0">1/</tspan><tspan x="174,213,251,289" y="0">2009</tspan></text>
<text font-family="Calibri" font-size="76" fill="#000000" transform="translate(1802,4173) rotate(-90)"><tspan x="0,39" y="0">3/</tspan><tspan x="67,106" y="0">1/</tspan><tspan x="135,173,212,251" y="0">2010</tspan></text>
<text font-family="Calibri" font-size="76" fill="#000000" transform="translate(1922,4173) rotate(-90)"><tspan x="0,39" y="0">7/</tspan><tspan x="67,106" y="0">1/</tspan><tspan x="135,173,212,251" y="0">2010</tspan></text>
<text font-family="Calibri" font-size="76" fill="#000000" transform="translate(2042,4212) rotate(-90)"><tspan x="0,39,77" y="0">11/</tspan><tspan x="106,145" y="0">1/</tspan><tspan x="174,213,251,289" y="0">2010</tspan></text>
<text font-family="Calibri" font-size="76" fill="#000000" transform="translate(2162,4173) rotate(-90)"><tspan x="0,39" y="0">3/</tspan><tspan x="67,106" y="0">1/</tspan><tspan x="135,173,212,251" y="0">2011</tspan></text>
<text font-family="Calibri" font-size="76" fill="#000000" transform="translate(2282,4173) rotate(-90)"><tspan x="0,39" y="0">7/</tspan><tspan x="67,106" y="0">1/</tspan><tspan x="135,173,212,251" y="0">2011</tspan></text>
<text font-family="Calibri" font-size="76" fill="#000000" transform="translate(2402,4212) rotate(-90)"><tspan x="0,39,77" y="0">11/</tspan><tspan x="106,145" y="0">1/</tspan><tspan x="174,213,251,289" y="0">2011</tspan></text>
<text font-family="Calibri" font-size="76" fill="#000000" transform="translate(2522,4173) rotate(-90)"><tspan x="0,39" y="0">3/</tspan><tspan x="67,106" y="0">1/</tspan><tspan x="135,173,212,251" y="0">2012</tspan></text>
<text font-family="Calibri" font-size="76" fill="#000000" transform="translate(2641,4173) rotate(-90)"><tspan x="0,39" y="0">7/</tspan><tspan x="67,106" y="0">1/</tspan><tspan x="135,173,212,251" y="0">2012</tspan></text>
<text font-family="Calibri" font-size="76" fill="#000000" transform="translate(2761,4212) rotate(-90)"><tspan x="0,39,77" y="0">11/</tspan><tspan x="106,145" y="0">1/</tspan><tspan x="174,213,251,289" y="0">2012</tspan></text>
<text font-family="Calibri" font-size="76" fill="#000000" transform="translate(2881,4173) rotate(-90)"><tspan x="0,39" y="0">3/</tspan><tspan x="67,106" y="0">1/</tspan><tspan x="135,173,212,251" y="0">2013</tspan></text>
<text font-family="Calibri" font-size="76" fill="#000000" transform="translate(3001,4173) rotate(-90)"><tspan x="0,39" y="0">7/</tspan><tspan x="67,106" y="0">1/</tspan><tspan x="135,173,212,251" y="0">2013</tspan></text>
<text font-family="Calibri" font-size="76" fill="#000000" transform="translate(3121,4212) rotate(-90)"><tspan x="0,39,77" y="0">11/</tspan><tspan x="106,145" y="0">1/</tspan><tspan x="174,213,251,289" y="0">2013</tspan></text>
<text font-family="Calibri" font-size="76" fill="#000000" transform="translate(3241,4173) rotate(-90)"><tspan x="0,39" y="0">3/</tspan><tspan x="67,106" y="0">1/</tspan><tspan x="135,173,212,251" y="0">2014</tspan></text>
<text font-family="Calibri" font-size="76" fill="#000000" transform="translate(3361,4173) rotate(-90)"><tspan x="0,39" y="0">7/</tspan><tspan x="67,106" y="0">1/</tspan><tspan x="135,173,212,251" y="0">2014</tspan></text>
<text font-family="Calibri" font-size="76" fill="#000000" transform="translate(3480,4212) rotate(-90)"><tspan x="0,39,77" y="0">11/</tspan><tspan x="106,145" y="0">1/</tspan><tspan x="174,213,251,289" y="0">2014</tspan></text>
<text font-family="Calibri" font-size="76" fill="#000000" font-weight="700" transform="translate(3772,3274) rotate(-90)"><tspan x="0,67,107,148,175,215,234,270" y="0">Monthly </tspan><tspan x="286,326,367,408,448" y="0">Count</tspan></text>
<text font-family="Calibri" font-size="76" fill="#000000" font-weight="700" transform="translate(574,3318) rotate(-90)"><tspan x="0,39,80,142,183,201,239,266,285,321,359" y="0">Cumulative </tspan><tspan x="375,415,456,496,537" y="0">Count</tspan></text>
<text font-family="Calibri" font-size="76" fill="#000000" font-weight="700"><tspan x="2058,2124,2165,2206,2232" y="4307">Month</tspan></text>
<text font-family="Calibri" font-size="137" fill="#000000" font-weight="700"><tspan x="1632,1714,1787,1859,1913" y="2104">Apps </tspan><tspan x="1945,2017,2090,2160,2216,2278,2347,2420" y="2104">Checked </tspan><tspan x="2452,2485,2557,2603,2676" y="2104">into </tspan><tspan x="2707,2790,2863,2936" y="2104">App </tspan><tspan x="2967,3032,3078,3151,3198" y="2104">Store</tspan></text>
<path fill="#376092" stroke="none" d="M 3927,3072 l 191,0 4,1 4,4 1,3 -1,4 -4,4 -4,1 -191,0 -3,-1 -4,-4 -1,-4 1,-3 4,-4 3,-1 z"/>
<text font-family="Calibri" font-size="76" fill="#000000"><tspan x="4140,4174,4213" y="3103">v2 </tspan><tspan x="4230,4267,4307,4332,4368" y="3103">Total</tspan></text>
<path fill="#C00000" stroke="none" d="M 3927,3209 l 191,0 4,1 4,4 1,3 -1,4 -4,4 -4,1 -191,0 -3,-1 -4,-4 -1,-4 1,-3 4,-4 3,-1 z"/>
<text font-family="Calibri" font-size="76" fill="#000000"><tspan x="4140,4174,4213" y="3240">v3 </tspan><tspan x="4230,4267,4307,4332,4368" y="3240">Total</tspan></text>
<path fill="#4A7EBB" stroke="none" d="M 3927,3353 l 6,0 2,1 -2,2 -6,0 -1,-2 1,-1 z m 12,0 l 6,0 2,1 -2,2 -6,0 -1,-2 1,-1 z m 12,0 l 6,0 2,1 -2,2 -6,0 -1,-2 1,-1 z m 12,0 l 6,0 2,1 -2,2 -6,0 -1,-2 1,-1 z m 12,0 l 6,0 2,1 -2,2 -6,0 -1,-2 1,-1 z m 12,0 l 6,0 2,1 -2,2 -6,0 -1,-2 1,-1 z m 12,0 l 6,0 2,1 -2,2 -6,0 -1,-2 1,-1 z m 12,0 l 6,0 2,1 -2,2 -6,0 -1,-2 1,-1 z m 12,0 l 6,0 2,1 -2,2 -6,0 -1,-2 1,-1 z m 12,0 l 6,0 2,1 -2,2 -6,0 -1,-2 1,-1 z m 12,0 l 6,0 2,1 -2,2 -6,0 -1,-2 1,-1 z m 12,0 l 6,0 2,1 -2,2 -6,0 -1,-2 1,-1 z m 12,0 l 6,0 2,1 -2,2 -6,0 -1,-2 1,-1 z m 12,0 l 6,0 2,1 -2,2 -6,0 -1,-2 1,-1 z m 12,0 l 6,0
 2,1 -2,2 -6,0 -1,-2 1,-1 z m 12,0 l 6,0 2,1 -2,2 -6,0 -1,-2 1,-1 z"/>
<path fill="#4F81BD" stroke="none" d="M 4023,3343 l 11,12 -11,11 -12,-11 12,-12 z"/>
<path fill="#4A7EBB" stroke="none" d="M 4021,3342 l 4,0 11,11 0,4 -11,11 -4,0 -11,-11 0,-4 11,-11 z m -8,15 l 0,-4 12,11 -4,0 11,-11 0,4 -11,-12 4,0 -12,12 z"/>
<text font-family="Calibri" font-size="76" fill="#000000"><tspan x="4140,4174,4213" y="3377">v2 </tspan><tspan x="4230,4270,4311,4350,4390" y="3377">Count</tspan></text>
<path fill="#C00000" stroke="none" d="M 3927,3490 l 6,0 2,1 -2,2 -6,0 -1,-2 1,-1 z m 12,0 l 6,0 2,1 -2,2 -6,0 -1,-2 1,-1 z m 12,0 l 6,0 2,1 -2,2 -6,0 -1,-2 1,-1 z m 12,0 l 6,0 2,1 -2,2 -6,0 -1,-2 1,-1 z m 12,0 l 6,0 2,1 -2,2 -6,0 -1,-2 1,-1 z m 12,0 l 6,0 2,1 -2,2 -6,0 -1,-2 1,-1 z m 12,0 l 6,0 2,1 -2,2 -6,0 -1,-2 1,-1 z m 12,0 l 6,0 2,1 -2,2 -6,0 -1,-2 1,-1 z m 12,0 l 6,0 2,1 -2,2 -6,0 -1,-2 1,-1 z m 12,0 l 6,0 2,1 -2,2 -6,0 -1,-2 1,-1 z m 12,0 l 6,0 2,1 -2,2 -6,0 -1,-2 1,-1 z m 12,0 l 6,0 2,1 -2,2 -6,0 -1,-2 1,-1 z m 12,0 l 6,0 2,1 -2,2 -6,0 -1,-2 1,-1 z m 12,0 l 6,0 2,1 -2,2 -6,0 -1,-2 1,-1 z m 12,0 l 6,0
 2,1 -2,2 -6,0 -1,-2 1,-1 z m 12,0 l 6,0 2,1 -2,2 -6,0 -1,-2 1,-1 z"/>
<path fill="#C00000" stroke="none" d="M 4023,3480 l 11,23 -23,0 12,-23 z"/>
<path fill="#C00000" stroke="none" d="M 4021,3479 l 2,-1 2,1 11,23 0,3 -2,1 -23,0 -2,-1 0,-3 12,-23 z m -7,25 l -3,-3 23,0 -2,3 -11,-22 4,0 -11,22 z"/>
<text font-family="Calibri" font-size="76" fill="#000000"><tspan x="4140,4174,4213" y="3514">v3 </tspan><tspan x="4230,4270,4311,4350,4390" y="3514">Count</tspan></text>
<path fill="#868686" stroke="none" d="M 4492,1914 l 0,1 2,0 0,5 -4085,0 0,2499 -6,0 0,-2502 1,0 0,-1 1,0 0,-1 1,0 0,-1 4086,0 z"/>
<path fill="#868686" stroke="none" d="M 4494,1920 l 0,2503 -4090,0 0,-1 -1,0 0,-3 4086,0 0,-2499 5,0 z"/>
</g>
</svg>
