<?xml version="1.0" standalone="no"?>
<svg xml:space="preserve" width="100%" height="100%" viewBox="0 0 4897 6337" preserveAspectRatio="xMidYMid"
  fill-rule="nonzero" stroke-linecap="round" stroke-linejoin="round"
  xmlns="http://www.w3.org/2000/svg"
  xmlns:xlink="http://www.w3.org/1999/xlink"
  xmlns:svgmaker="http://www.svgmaker.com/svgns">
<svgmaker:init width="215.9mm" height="279.4mm" viewBox="0 0 4897 6337" view="fit"
  crop="none" cropWidth="180.3mm" cropHeight="122.0mm" cropBox="404 1785 4090 2768"/>
<title>Untitled</title>
<desc>
  Generated by SVGmaker V3 Version 3.61.E702.64
  FEB-24-2015, 18:12
</desc>
<defs><clipPath id="page_clip"><rect x="0" y="0" width="4897" height="6337"/></clipPath></defs>
<g id="Page_1" clip-path="url(#page_clip)" svgmaker:mediaBox="0 0 4897 6337">
<rect x="407" y="1787" width="4085" height="2763" fill="#FFFFFF" stroke="none"/>
<path fill="#4572A7" stroke="none" d="M 2449,3381 l 934,-3 -1,-48 -4,-47 -6,-47 -8,-46 -11,-45 -12,-44 -15,-43 -17,-43 -19,-41 -20,-40 -23,-39 -24,-38 -26,-36 -28,-36 -29,-33 -31,-33 -33,-30 -34,-30 -35,-27 -36,-26 -38,-24 -39,-23 -41,-20 -41,-19 -42,-17 -44,-14 -44,-13 -45,-10 -46,-8 -47,-6 -47,-4 -48,-1 0,934 z"/>
<path fill="#AA4643" stroke="none" d="M 2449,3381 l 156,921 42,-8 41,-10 40,-11 40,-14 39,-15 37,-16 37,-18 36,-20 35,-21 34,-23 32,-24 32,-25 30,-27 29,-28 28,-29 27,-30 25,-31 24,-33 23,-33 21,-35 19,-35 18,-36 17,-38 15,-37 13,-39 12,-40 10,-40 8,-40 6,-41 5,-42 2,-42 1,-43 -934,3 z"/>
<path fill="#89A54E" stroke="none" d="M 2449,3381 l -725,588 41,48 44,44 47,41 48,37 51,35 53,30 55,27 57,24 57,19 59,16 60,12 31,5 30,3 31,3 31,2 62,0 31,-2 62,-6 31,-5 -156,-921 z"/>
<path fill="#71588F" stroke="none" d="M 2449,3381 l -915,-189 -9,52 -6,51 -3,52 -1,52 3,51 5,51 8,51 11,50 13,49 16,49 19,48 22,47 24,45 27,45 29,43 32,41 725,-588 z"/>
<path fill="#4198AF" stroke="none" d="M 2449,3381 l -580,-732 -32,26 -30,28 -29,28 -28,30 -26,31 -25,32 -23,33 -22,34 -21,35 -19,36 -17,36 -16,38 -14,38 -13,39 -11,39 -9,40 915,189 z"/>
<path fill="#DB843D" stroke="none" d="M 2449,3381 l 0,-934 -39,1 -39,2 -39,4 -39,6 -38,7 -38,9 -38,11 -37,12 -36,13 -72,32 -34,18 -34,20 -33,21 -33,22 -31,24 580,732 z"/>
<path fill="#000000" stroke="none" d="M 2121,4258 l -421,87 -38,0 0,-6 37,0 -1,0 421,-87 2,6 z m 1045,-277 l 140,143 -2,-1 36,0 0,6 -36,0 -2,-1 -140,-143 4,-4 z m -1027,-1481 l -92,-171 3,2 -36,0 0,-6 36,0 3,2 92,171 -6,2 z m -487,393 l -136,-112 2,1 -36,0 0,-6 36,0 2,1 136,112 -4,4 z m 1454,-174 l 31,-175 1,-1 2,-1 37,0 0,6 -37,0 3,-2 -31,175 -6,-2 z m -1564,886 l -140,-2 -36,0 0,-6 36,0 140,2 0,6 z"/>
<text font-family="Calibri" font-size="80" fill="#000000"><tspan x="3190,3242,3282,3309,3367,3409,3437,3473,3523,3564,3606,3646,3674,3712,3739,3757,3800" y="2546">NetworkGeneration</tspan><tspan x="3446,3487,3528" y="2644">25%</tspan><tspan x="3355,3404,3442,3469,3507,3553,3571,3602,3644,3682,3700,3718,3750,3789,3816,3834,3876" y="4127">DataVisualization</tspan><tspan x="3567,3608,3649" y="4226">22%</tspan><tspan x="1187,1237,1266,1304,1346,1388,1434,1477,1515,1533,1569,1600,1618" y="4343">GraphAnalysis</tspan><tspan x="1349,1390,1431" y="4441">17%</tspan><tspan x="1026,1070,1088,1130,1161,1188,1228,1256,1274,1317" y="3601">Clustering</tspan><tspan x="1121,1162,1203" y="3700">14%</tspan><tspan x="909,962,1004,1031,1074,1092,1134,1172,1208,1254,1297,1335,1353,1389,1420,1438" y="2780">OntologyAnalysis</tspan><tspan x="1120,1161,1202" y="2879">11%</tspan><tspan x="1411,1464,1506,1524,1542,1585,1625,1674,1712,1739,1777,1798,1862,1904,1946,1974" y="2329">OnlineDataImport</tspan><tspan x="1637,1678,1719" y="2428">11%</tspan></text>
<text font-family="Calibri" font-size="145" fill="#000000" font-weight="700"><tspan x="1010,1070,1147,1224" y="1986">Top </tspan><tspan x="1258,1345,1422,1500" y="1986">App </tspan><tspan x="1533,1601,1650,1728,1777,1850" y="1986">Store </tspan><tspan x="1883,1967,2015,2065,2114,2185,2245,2295,2331,2408,2485,2543" y="1986">Attractions </tspan><tspan x="2577,2653,2721" y="1986">by </tspan><tspan x="2756,2832,2902,2950,3024,3091,3168,3221,3289" y="1986">Category </tspan><tspan x="3321,3366,3440,3513,3586,3624,3697,3770,3844,3889" y="1986">(132,791) </tspan><tspan x="1531,1576,1649" y="2163">(6/</tspan><tspan x="1712,1785" y="2163">1/</tspan><tspan x="1847,1921,1994,2067,2141" y="2163">2012 </tspan><tspan x="2173,2223,2300,2350,2427,2504,2573,2650" y="2163">through </tspan><tspan x="2685,2758" y="2163">2/</tspan><tspan x="2821,2894,2967" y="2163">22/</tspan><tspan x="3030,3103,3176,3250,3323" y="2163">2015)</tspan></text>
<path fill="#868686" stroke="none" d="M 4492,1785 l 0,1 2,0 0,5 -4084,0 0,2756 -6,0 0,-2759 1,0 0,-2 2,0 0,-1 4085,0 z"/>
<path fill="#868686" stroke="none" d="M 4494,1791 l 0,2762 -4089,0 0,-2 -1,0 0,-4 4085,0 0,-2756 5,0 z"/>
</g>
</svg>
