<?xml version="1.0" standalone="no"?>
<svg xml:space="preserve" width="100%" height="100%" viewBox="0 0 4897 6337" preserveAspectRatio="xMidYMid"
  fill-rule="nonzero" stroke-linecap="round" stroke-linejoin="round"
  xmlns="http://www.w3.org/2000/svg"
  xmlns:xlink="http://www.w3.org/1999/xlink"
  xmlns:svgmaker="http://www.svgmaker.com/svgns">
<svgmaker:init width="215.9mm" height="279.4mm" viewBox="0 0 4897 6337" view="fit"
  crop="none" cropWidth="180.3mm" cropHeight="124.6mm" cropBox="404 1756 4090 2826"/>
<title>Untitled</title>
<desc>
  Generated by SVGmaker V3 Version 3.61.E702.64
  FEB-24-2015, 18:25
</desc>
<defs><clipPath id="page_clip"><rect x="0" y="0" width="4897" height="6337"/></clipPath></defs>
<g id="Page_1" clip-path="url(#page_clip)" svgmaker:mediaBox="0 0 4897 6337">
<rect x="406" y="1759" width="4085" height="2820" fill="#FFFFFF" stroke="none"/>
<path fill="#4572A7" stroke="none" d="M 2448,3393 l -548,-769 -39,29 -37,31 -35,32 -33,34 -31,35 -29,36 -27,38 -25,38 -24,40 -21,41 -19,41 -17,42 -14,43 -13,44 -11,44 -8,44 -7,45 -4,45 -2,46 0,45 2,46 4,45 7,45 9,45 11,45 13,45 16,43 18,44 20,43 23,42 25,41 27,40 29,39 31,37 32,35 34,33 35,31 37,29 37,27 39,25 40,24 40,21 42,19 42,17 43,14 44,13 44,11 44,9 45,6 45,4 45,2 46,0 45,-2 46,-4 45,-7 45,-9 45,-11 44,-13 44,-16 43,-18 43,-20 42,-23 41,-25 40,-27 39,-29 37,-31 35,-32 33,-34 31,-35 29,-37 27,-37 25,-39 24,-39 21,-41 19,-42 17,-42 14,-43 13,-43 11,-44 9,-45 6,-45 4,-45 2,-45 0,-45 -2,-46 -4,-45 -7,-45 -9,-45 -11,-45 -13,-45 -16,-43 -18,-44 -20,-42 -23,-42 -25,-42 -27,-40 -34,-45 -37,-44
 -39,-40 -42,-38 -43,-35 -45,-33 -47,-30 -49,-27 -50,-24 -52,-21 -53,-18 -54,-15 -55,-12 -55,-8 -57,-5 -57,-2 0,945 z"/>
<path fill="#AA4643" stroke="none" d="M 2448,3393 l -149,-933 -54,10 -52,13 -52,17 -51,19 -49,22 -49,25 -47,28 -45,30 548,769 z"/>
<path fill="#89A54E" stroke="none" d="M 2448,3393 l -21,-944 -32,1 -32,2 -64,8 149,933 z"/>
<path fill="#71588F" stroke="none" d="M 2448,3393 l -11,-945 -10,1 21,944 z"/>
<path fill="#4198AF" stroke="none" d="M 2448,3393 l -4,-945 -7,0 11,945 z"/>
<path fill="#DB843D" stroke="none" d="M 2448,3393 l 0,-945 -4,0 4,945 z"/>
<path fill="#000000" stroke="none" d="M 2091,2522 l -736,222 -39,0 0,-6 38,0 -1,0 736,-222 2,6 z m 355,-71 l -708,-108 -39,0 0,-6 39,0 708,108 0,6 z m -16,-5 l 236,-159 2,-1 38,0 0,6 -38,0 2,-1 -236,159 -4,-4 z m -67,9 l -1106,24 -38,0 0,-6 38,0 1106,-24 0,6 z m 78,-10 l 410,-30 38,0 0,6 -38,0 -410,30 0,-6 z"/>
<rect x="3680" y="3342" width="46" height="46" fill="#4572A7" stroke="none"/>
<text font-family="Calibri" font-size="84" fill="#000000"><tspan x="3769,3823,3868,3887,3915,3958,4002" y="3396">United </tspan><tspan x="4021,4060,4089,4129,4158,4200,4233,4254" y="3396">States, </tspan><tspan x="4273,4316,4360,4403,4446,4468" y="3396">3961, </tspan><tspan x="4044,4088,4131" y="3499">90%</tspan></text>
<rect x="461" y="2688" width="46" height="47" fill="#AA4643" stroke="none"/>
<text font-family="Calibri" font-size="84" fill="#000000"><tspan x="550,604,649,668,696,739,783" y="2742">United </tspan><tspan x="802,846,865,910,950,995,1039,1107,1128" y="2742">Kingdom, </tspan><tspan x="1147,1190,1234,1277,1298" y="2742">322, </tspan><tspan x="873,916" y="2846">8%</tspan></text>
<rect x="592" y="2423" width="47" height="47" fill="#89A54E" stroke="none"/>
<text font-family="Calibri" font-size="84" fill="#000000"><tspan x="682,727,768,812,852,897,937,958" y="2477">Canada, </tspan><tspan x="978,1022,1065,1086" y="2477">95, </tspan><tspan x="1104,1148" y="2477">2%</tspan></text>
<rect x="2748" y="2236" width="47" height="47" fill="#71588F" stroke="none"/>
<text font-family="Calibri" font-size="84" fill="#000000"><tspan x="2839,2860,2904,2933,2975,3005,3049,3089,3118,3137,3181,3226,3266,3285,3306" y="2290">International, </tspan><tspan x="3326,3370,3391" y="2290">8, </tspan><tspan x="3410,3453" y="2290">0%</tspan></text>
<rect x="2931" y="2366" width="47" height="46" fill="#4198AF" stroke="none"/>
<text font-family="Calibri" font-size="84" fill="#000000"><tspan x="3022,3043,3071,3112,3131,3169,3190" y="2419">Italy, </tspan><tspan x="3210,3253,3275" y="2419">5, </tspan><tspan x="3293,3336" y="2419">0%</tspan></text>
<rect x="1127" y="2287" width="46" height="47" fill="#DB843D" stroke="none"/>
<text font-family="Calibri" font-size="84" fill="#000000"><tspan x="1217,1265,1310,1343,1371,1401,1420,1460,1481" y="2341">Austria, </tspan><tspan x="1501,1545,1566" y="2341">3, </tspan><tspan x="1585,1628" y="2341">0%</tspan></text>
<text font-family="Calibri" font-size="152" fill="#000000" font-weight="700"><tspan x="1876,1957,2038,2120,2200,2253,2307,2344,2421,2482" y="1968">Countries </tspan><tspan x="2518,2587,2669,2750,2832,2869,2950,3022" y="1968">Funding </tspan><tspan x="1305,1385,1458,1510,1592,1652,1714,1790,1871,1948" y="2154">Cytoscape </tspan><tspan x="1983,2064,2101,2153,2227,2280,2317,2398,2480,2540" y="2154">Citations </tspan><tspan x="2576,2623,2701,2740,2817,2894,2972" y="2154">(4,396 </tspan><tspan x="3006,3070,3107,3159,3233,3286,3323,3404,3486,3546" y="2154">citations)</tspan></text>
<path fill="#868686" stroke="none" d="M 4491,1756 l 0,1 3,0 0,6 -4084,0 0,2813 -6,0 0,-2817 1,0 0,-2 2,0 0,-1 4084,0 z"/>
<path fill="#868686" stroke="none" d="M 4494,1763 l 0,2819 -4089,0 0,-2 -1,0 0,-4 4084,0 0,-2813 6,0 z"/>
</g>
</svg>
