<?xml version="1.0" standalone="no"?>
<svg xml:space="preserve" width="100%" height="100%" viewBox="0 0 4897 6337" preserveAspectRatio="xMidYMid"
  fill-rule="nonzero" stroke-linecap="round" stroke-linejoin="round"
  xmlns="http://www.w3.org/2000/svg"
  xmlns:xlink="http://www.w3.org/1999/xlink"
  xmlns:svgmaker="http://www.svgmaker.com/svgns">
<svgmaker:init width="215.9mm" height="279.4mm" viewBox="0 0 4897 6337" view="fit"
  crop="none" cropWidth="180.3mm" cropHeight="90.9mm" cropBox="404 2138 4090 2062"/>
<title>Untitled</title>
<desc>
  Generated by SVGmaker V3 Version 3.61.E702.64
  FEB-24-2015, 18:23
</desc>
<defs><clipPath id="page_clip"><rect x="0" y="0" width="4897" height="6337"/></clipPath></defs>
<g id="Page_1" clip-path="url(#page_clip)" svgmaker:mediaBox="0 0 4897 6337">
<rect x="407" y="2141" width="4085" height="2057" fill="#FFFFFF" stroke="none"/>
<rect x="827" y="2656" width="3576" height="1170" fill="#FFFFFF" stroke="none"/>
<path fill="#868686" stroke="none" d="M 827,3656 l 3576,0 0,6 -3576,0 0,-6 z m 0,-167 l 3576,0 0,6 -3576,0 0,-6 z m 0,-167 l 3576,0 0,6 -3576,0 0,-6 z m 0,-168 l 3576,0 0,6 -3576,0 0,-6 z m 0,-167 l 3576,0 0,6 -3576,0 0,-6 z m 0,-167 l 3576,0 0,6 -3576,0 0,-6 z m 0,-167 l 3576,0 0,6 -3576,0 0,-6 z"/>
<path fill="#4F81BD" stroke="none" d="M 3599,2800 l 119,0 0,1026 -119,0 0,-1026 z m 298,90 l 119,0 0,936 -119,0 0,-936 z m -596,109 l 119,0 0,827 -119,0 0,-827 z m -298,235 l 119,0 0,592 -119,0 0,-592 z m -299,132 l 120,0 0,460 -120,0 0,-460 z m -298,46 l 120,0 0,414 -120,0 0,-414 z m -298,188 l 120,0 0,226 -120,0 0,-226 z m -298,107 l 119,0 0,119 -119,0 0,-119 z m 2385,66 l 119,0 0,53 -119,0 0,-53 z m -2683,1 l 119,0 0,52 -119,0 0,-52 z m -298,22 l 119,0 0,30 -119,0 0,-30 z m -298,12 l 119,0 0,18 -119,0 0,-18 z"/>
<rect x="824" y="2656" width="6" height="1170" fill="#868686" stroke="none"/>
<path fill="#868686" stroke="none" d="M 801,3823 l 26,0 0,6 -26,0 0,-6 z m 0,-167 l 26,0 0,6 -26,0 0,-6 z m 0,-167 l 26,0 0,6 -26,0 0,-6 z m 0,-167 l 26,0 0,6 -26,0 0,-6 z m 0,-168 l 26,0 0,6 -26,0 0,-6 z m 0,-167 l 26,0 0,6 -26,0 0,-6 z m 0,-167 l 26,0 0,6 -26,0 0,-6 z m 0,-167 l 26,0 0,6 -26,0 0,-6 z"/>
<rect x="827" y="3823" width="3576" height="6" fill="#868686" stroke="none"/>
<path fill="#868686" stroke="none" d="M 830,3826 l 0,26 -6,0 0,-26 6,0 z m 298,0 l 0,26 -6,0 0,-26 6,0 z m 298,0 l 0,26 -6,0 0,-26 6,0 z m 298,0 l 0,26 -6,0 0,-26 6,0 z m 298,0 l 0,26 -6,0 0,-26 6,0 z m 298,0 l 0,26 -6,0 0,-26 6,0 z m 298,0 l 0,26 -6,0 0,-26 6,0 z m 298,0 l 0,26 -6,0 0,-26 6,0 z m 298,0 l 0,26 -6,0 0,-26 6,0 z m 298,0 l 0,26 -6,0 0,-26 6,0 z m 298,0 l 0,26 -6,0 0,-26 6,0 z m 298,0 l 0,26 -6,0 0,-26 6,0 z m 298,0 l 0,26 -6,0 0,-26 6,0 z"/>
<text font-family="Calibri" font-size="80" fill="#000000"><tspan x="935,976" y="3750">11</tspan><tspan x="1233,1274" y="3739">18</tspan><tspan x="1531,1572" y="3717">31</tspan><tspan x="1829,1870" y="3650">71</tspan><tspan x="2107,2148,2189" y="3543">135</tspan><tspan x="2405,2446,2487" y="3354">248</tspan><tspan x="2703,2744,2785" y="3309">275</tspan><tspan x="3001,3042,3083" y="3177">354</tspan><tspan x="3299,3340,3381" y="2941">495</tspan><tspan x="3597,3638,3680" y="2742">614</tspan><tspan x="3895,3936,3978" y="2832">560</tspan><tspan x="4213,4255" y="3715">32</tspan><tspan x="712" y="3849">0</tspan><tspan x="630,671,712" y="3682">100</tspan><tspan x="630,671,712" y="3515">200</tspan><tspan x="630,671,712" y="3348">300</tspan><tspan x="630,671,712" y="3181">400</tspan><tspan x="630,671,712" y="3014">500</tspan><tspan x="630,671,712" y="2846">600</tspan><tspan x="630,671,712" y="2679">700</tspan><tspan x="895,936,976,1017" y="3954">2004</tspan><tspan x="1193,1234,1274,1315" y="3954">2005</tspan><tspan x="1491,1532,1572,1613" y="3954">2006</tspan><tspan x="1789,1830,1870,1911" y="3954">2007</tspan><tspan x="2087,2128,2168,2210" y="3954">2008</tspan><tspan x="2385,2426,2466,2508" y="3954">2009</tspan><tspan x="2683,2724,2764,2806" y="3954">2010</tspan><tspan x="2981,3022,3063,3104" y="3954">2011</tspan><tspan x="3279,3320,3361,3402" y="3954">2012</tspan><tspan x="3577,3619,3659,3700" y="3954">2013</tspan><tspan x="3875,3917,3957,3998" y="3954">2014</tspan><tspan x="4174,4215,4255,4296" y="3954">2015</tspan></text>
<text font-family="Calibri" font-size="80" fill="#000000" font-weight="700" transform="translate(584,3391) rotate(-90)"><tspan x="0,42,63,91,131,159,179,222,266" y="0">Citations</tspan></text>
<text font-family="Calibri" font-size="80" fill="#000000" font-weight="700"><tspan x="2540,2583,2623,2663" y="4076">Year</tspan></text>
<text font-family="Calibri" font-size="145" fill="#000000" font-weight="700"><tspan x="1570,1697,1767,1858,1920,1958,2053,2124" y="2339">MEDLINE </tspan><tspan x="2157,2233,2302,2352,2429,2486,2546,2617,2694,2768" y="2339">Cytoscape </tspan><tspan x="2801,2877,2912,2962,3032,3082,3117,3195,3272,3330" y="2339">Citations </tspan><tspan x="2131,2204" y="2516">2/</tspan><tspan x="2266,2340,2413" y="2516">23/</tspan><tspan x="2475,2549,2622,2695" y="2516">2015</tspan></text>
<path fill="#868686" stroke="none" d="M 4492,2138 l 0,1 2,0 0,5 -4084,0 0,2051 -6,0 0,-2054 1,0 0,-2 2,0 0,-1 4085,0 z"/>
<path fill="#868686" stroke="none" d="M 4494,2144 l 0,2056 -4089,0 0,-1 -1,0 0,-4 4085,0 0,-2051 5,0 z"/>
</g>
</svg>
