<?xml version="1.0" standalone="no"?>
<svg xml:space="preserve" width="100%" height="100%" viewBox="0 0 4897 6337" preserveAspectRatio="xMidYMid"
  fill-rule="nonzero" stroke-linecap="round" stroke-linejoin="round"
  xmlns="http://www.w3.org/2000/svg"
  xmlns:xlink="http://www.w3.org/1999/xlink"
  xmlns:svgmaker="http://www.svgmaker.com/svgns">
<svgmaker:init width="215.9mm" height="279.4mm" viewBox="0 0 4897 6337" view="fit"
  crop="none" cropWidth="180.3mm" cropHeight="110.2mm" cropBox="404 1919 4090 2499"/>
<title>Untitled</title>
<desc>
  Generated by SVGmaker V3 Version 3.61.E702.64
  FEB-24-2015, 18:02
</desc>
<defs><clipPath id="page_clip"><rect x="0" y="0" width="4897" height="6337"/></clipPath></defs>
<g id="Page_1" clip-path="url(#page_clip)" svgmaker:mediaBox="0 0 4897 6337">
<rect x="405" y="1921" width="4088" height="2496" fill="#FFFFFF" stroke="none"/>
<rect x="712" y="2128" width="3726" height="1960" fill="#FFFFFF" stroke="none"/>
<path fill="#868686" stroke="none" d="M 712,3760 l 3726,0 0,3 -3726,0 0,-3 z m 0,-327 l 3726,0 0,3 -3726,0 0,-3 z m 0,-326 l 3726,0 0,3 -3726,0 0,-3 z m 0,-327 l 3726,0 0,3 -3726,0 0,-3 z m 0,-327 l 3726,0 0,3 -3726,0 0,-3 z m 0,-326 l 3726,0 0,3 -3726,0 0,-3 z"/>
<rect x="711" y="2128" width="3" height="1960" fill="#868686" stroke="none"/>
<path fill="#868686" stroke="none" d="M 696,4087 l 16,0 0,3 -16,0 0,-3 z m 0,-327 l 16,0 0,3 -16,0 0,-3 z m 0,-327 l 16,0 0,3 -16,0 0,-3 z m 0,-326 l 16,0 0,3 -16,0 0,-3 z m 0,-327 l 16,0 0,3 -16,0 0,-3 z m 0,-327 l 16,0 0,3 -16,0 0,-3 z m 0,-326 l 16,0 0,3 -16,0 0,-3 z"/>
<rect x="712" y="4087" width="3726" height="3" fill="#868686" stroke="none"/>
<path fill="#868686" stroke="none" d="M 714,4088 l 0,15 -3,0 0,-15 3,0 z m 31,0 l 0,15 -3,0 0,-15 3,0 z m 32,0 l 0,15 -3,0 0,-15 3,0 z m 32,0 l 0,15 -3,0 0,-15 3,0 z m 31,0 l 0,15 -3,0 0,-15 3,0 z m 32,0 l 0,15 -3,0 0,-15 3,0 z m 31,0 l 0,15 -3,0 0,-15 3,0 z m 32,0 l 0,15 -3,0 0,-15 3,0 z m 31,0 l 0,15 -3,0 0,-15 3,0 z m 32,0 l 0,15 -3,0 0,-15 3,0 z m 32,0 l 0,15 -3,0 0,-15 3,0 z m 31,0 l 0,15 -3,0 0,-15 3,0 z m 32,0 l 0,15 -3,0 0,-15 3,0 z m 31,0 l 0,15 -3,0 0,-15 3,0 z"/>
<path fill="#868686" stroke="none" d="M 1156,4088 l 0,15 -3,0 0,-15 3,0 z m 31,0 l 0,15 -3,0 0,-15 3,0 z m 32,0 l 0,15 -3,0 0,-15 3,0 z m 32,0 l 0,15 -3,0 0,-15 3,0 z m 31,0 l 0,15 -3,0 0,-15 3,0 z m 32,0 l 0,15 -3,0 0,-15 3,0 z m 31,0 l 0,15 -3,0 0,-15 3,0 z m 32,0 l 0,15 -3,0 0,-15 3,0 z m 32,0 l 0,15 -3,0 0,-15 3,0 z m 31,0 l 0,15 -3,0 0,-15 3,0 z m 32,0 l 0,15 -3,0 0,-15 3,0 z m 31,0 l 0,15 -3,0 0,-15 3,0 z m 32,0 l 0,15 -3,0 0,-15 3,0 z m 31,0 l 0,15 -3,0 0,-15 3,0 z"/>
<path fill="#868686" stroke="none" d="M 1598,4088 l 0,15 -3,0 0,-15 3,0 z m 32,0 l 0,15 -3,0 0,-15 3,0 z m 31,0 l 0,15 -3,0 0,-15 3,0 z m 32,0 l 0,15 -3,0 0,-15 3,0 z m 31,0 l 0,15 -3,0 0,-15 3,0 z m 32,0 l 0,15 -3,0 0,-15 3,0 z m 31,0 l 0,15 -3,0 0,-15 3,0 z m 32,0 l 0,15 -3,0 0,-15 3,0 z m 32,0 l 0,15 -3,0 0,-15 3,0 z m 31,0 l 0,15 -3,0 0,-15 3,0 z m 32,0 l 0,15 -3,0 0,-15 3,0 z m 31,0 l 0,15 -3,0 0,-15 3,0 z m 32,0 l 0,15 -3,0 0,-15 3,0 z m 32,0 l 0,15 -3,0 0,-15 3,0 z"/>
<path fill="#868686" stroke="none" d="M 2040,4088 l 0,15 -3,0 0,-15 3,0 z m 32,0 l 0,15 -3,0 0,-15 3,0 z m 31,0 l 0,15 -3,0 0,-15 3,0 z m 32,0 l 0,15 -3,0 0,-15 3,0 z m 31,0 l 0,15 -3,0 0,-15 3,0 z m 32,0 l 0,15 -3,0 0,-15 3,0 z m 32,0 l 0,15 -3,0 0,-15 3,0 z m 31,0 l 0,15 -3,0 0,-15 3,0 z m 32,0 l 0,15 -3,0 0,-15 3,0 z m 31,0 l 0,15 -3,0 0,-15 3,0 z m 32,0 l 0,15 -3,0 0,-15 3,0 z m 31,0 l 0,15 -3,0 0,-15 3,0 z m 32,0 l 0,15 -3,0 0,-15 3,0 z m 32,0 l 0,15 -3,0 0,-15 3,0 z"/>
<path fill="#868686" stroke="none" d="M 2482,4088 l 0,15 -3,0 0,-15 3,0 z m 32,0 l 0,15 -3,0 0,-15 3,0 z m 31,0 l 0,15 -3,0 0,-15 3,0 z m 32,0 l 0,15 -3,0 0,-15 3,0 z m 31,0 l 0,15 -3,0 0,-15 3,0 z m 32,0 l 0,15 -3,0 0,-15 3,0 z m 32,0 l 0,15 -3,0 0,-15 3,0 z m 31,0 l 0,15 -3,0 0,-15 3,0 z m 32,0 l 0,15 -3,0 0,-15 3,0 z m 31,0 l 0,15 -3,0 0,-15 3,0 z m 32,0 l 0,15 -3,0 0,-15 3,0 z m 32,0 l 0,15 -3,0 0,-15 3,0 z m 31,0 l 0,15 -3,0 0,-15 3,0 z m 32,0 l 0,15 -3,0 0,-15 3,0 z"/>
<path fill="#868686" stroke="none" d="M 2924,4088 l 0,15 -3,0 0,-15 3,0 z m 32,0 l 0,15 -3,0 0,-15 3,0 z m 31,0 l 0,15 -3,0 0,-15 3,0 z m 32,0 l 0,15 -3,0 0,-15 3,0 z m 32,0 l 0,15 -3,0 0,-15 3,0 z m 31,0 l 0,15 -3,0 0,-15 3,0 z m 32,0 l 0,15 -3,0 0,-15 3,0 z m 31,0 l 0,15 -3,0 0,-15 3,0 z m 32,0 l 0,15 -3,0 0,-15 3,0 z m 31,0 l 0,15 -3,0 0,-15 3,0 z m 32,0 l 0,15 -3,0 0,-15 3,0 z m 32,0 l 0,15 -3,0 0,-15 3,0 z m 31,0 l 0,15 -3,0 0,-15 3,0 z m 32,0 l 0,15 -3,0 0,-15 3,0 z"/>
<path fill="#868686" stroke="none" d="M 3366,4088 l 0,15 -3,0 0,-15 3,0 z m 32,0 l 0,15 -3,0 0,-15 3,0 z m 32,0 l 0,15 -3,0 0,-15 3,0 z m 31,0 l 0,15 -3,0 0,-15 3,0 z m 32,0 l 0,15 -3,0 0,-15 3,0 z m 31,0 l 0,15 -3,0 0,-15 3,0 z m 32,0 l 0,15 -3,0 0,-15 3,0 z m 31,0 l 0,15 -3,0 0,-15 3,0 z m 32,0 l 0,15 -3,0 0,-15 3,0 z m 32,0 l 0,15 -3,0 0,-15 3,0 z m 31,0 l 0,15 -3,0 0,-15 3,0 z m 32,0 l 0,15 -3,0 0,-15 3,0 z m 31,0 l 0,15 -3,0 0,-15 3,0 z m 32,0 l 0,15 -3,0 0,-15 3,0 z"/>
<path fill="#868686" stroke="none" d="M 3808,4088 l 0,15 -3,0 0,-15 3,0 z m 32,0 l 0,15 -3,0 0,-15 3,0 z m 32,0 l 0,15 -3,0 0,-15 3,0 z m 31,0 l 0,15 -3,0 0,-15 3,0 z m 32,0 l 0,15 -3,0 0,-15 3,0 z m 31,0 l 0,15 -3,0 0,-15 3,0 z m 32,0 l 0,15 -3,0 0,-15 3,0 z m 31,0 l 0,15 -3,0 0,-15 3,0 z m 32,0 l 0,15 -3,0 0,-15 3,0 z m 32,0 l 0,15 -3,0 0,-15 3,0 z m 31,0 l 0,15 -3,0 0,-15 3,0 z m 32,0 l 0,15 -3,0 0,-15 3,0 z m 31,0 l 0,15 -3,0 0,-15 3,0 z m 32,0 l 0,15 -3,0 0,-15 3,0 z m 32,0 l 0,15 -3,0 0,-15 3,0 z m 31,0 l 0,15 -3,0 0,-15 3,0 z m 32,0 l 0,15 -3,0 0,-15 3,0 z m 31,0 l 0,15 -3,0 0,-15 3,0 z m 32,0 l 0,15 -3,0 0,-15 3,0 z m 31,0 l 0,15 -3,0 0,-15 3,0 z m
 32,0 l 0,15 -3,0 0,-15 3,0 z"/>
<path fill="#4A7EBB" stroke="none" d="M 723,4066 l 31,-78 2,-2 3,-1 32,-2 2,0 31,10 -2,0 32,-1 2,0 1,1 31,20 -3,-1 32,-5 -3,1 32,-21 -1,1 31,-47 3,-2 4,0 32,13 -1,0 31,7 -2,0 32,0 33,3 1,0 1,1 31,15 -3,-1 32,-4 -3,1 31,-27 1,0 32,-20 2,-1 1,0 31,4 -5,2 32,-43 4,-2 3,1 2,1 32,44 -9,0 31,-41 2,-2 3,0 32,6 -1,0 31,-3 -2,1 32,-20 31,-18 2,-1 2,0 3,2 32,38 -6,-2 32,-10 2,0 31,3 -2,0 32,-6 3,0 2,2 31,32 -8,1 32,-65 1,-2 2,-1 3,0 2,1 32,27 -7,0 31,-28 2,-1 3,0 32,10 -5,1 31,-21 2,-1 1,0 32,-4 1,0 31,2 -2,0 32,-9 33,-5 3,0 31,14 2,2 1,3 32,192 -11,0 31,-181 0,-1 1,-2 32,-48 31,-36
 4,-2 32,0 -5,4 32,-123 2,-3 3,-1 3,1 2,1 31,48 -5,-2 32,-3 2,0 31,10 2,2 2,1 32,78 -10,0 31,-53 -1,1 32,-87 2,-3 3,-1 32,-5 3,1 3,3 31,137 -9,-3 32,-22 3,-1 2,0 3,3 31,70 0,-1 32,48 -10,3 32,-258 1,-3 3,-2 3,0 3,2 31,43 -8,0 34,-34 3,0 31,11 3,3 32,72 -9,-1 31,-45 2,-1 3,-1 2,1 2,2 32,52 1,0 0,1 32,100 -11,1 31,-250 0,-1 1,-1 32,-50 2,-2 3,-1 3,1 1,2 31,64 -10,1 32,-104 31,-84 3,-3 32,-17 3,-1 2,1 32,19 -7,2 31,-57 2,-2 4,-1 32,8 -7,5 31,-250 2,-4 3,-1 4,1 2,4 32,199 -8,-5 32,-14 3,0 2,1 31,18 2,1 1,2 32,135 -9,-3 31,-21 -2,2 32,-68 31,-83
 1,-1 32,-50 2,-2 3,-1 3,1 2,3 32,147 -8,-4 31,-12 -3,3 32,-82 1,0 31,-54 2,-2 3,-1 32,4 -6,4 31,-85 2,-3 4,-1 3,1 2,3 32,147 -2,-2 32,31 1,0 31,45 -9,1 32,-53 31,-48 -1,2 32,-150 2,-3 4,-1 3,1 2,2 0,2 31,219 -11,-1 32,-152 32,-162 31,-104 32,-92 2,-3 2,-1 3,0 3,2 31,35 0,1 32,69 -7,-3 32,-14 5,0 2,2 1,2 31,105 -11,0 32,-164 31,-82 1,-1 0,-1 32,-48 3,-2 3,0 3,2 1,3 31,270 -11,-1 32,-133 1,-1 0,-1 32,-44 -1,3 31,-468 1,-4 4,-1 4,1 2,4 32,216 -1,-2 31,66 1,1 32,106 -1,-1 31,57 1,1 0,1 32,180 -11,0 32,-179 31,-133 3,-3 2,-1 2,0 4,3 0,4 -31,131 -32,179 -2,4 -4,1
 -3,-1 -2,-4 -32,-180 1,2 -31,-57 -1,0 0,-1 -32,-106 0,1 -31,-66 0,-2 -32,-216 11,0 -31,468 0,2 -1,1 -32,44 1,-2 -32,133 -2,3 -4,1 -4,-1 -1,-4 -31,-270 10,3 -32,48 1,-2 -31,82 -32,164 -2,3 -3,1 -4,-1 -2,-3 -31,-105 8,4 -32,14 -4,0 -4,-3 -32,-69 1,1 -31,-35 10,-2 -32,92 -31,104 -32,162 -32,152 -2,3 -4,1 -3,-1 -2,-4 -31,-219 11,1 -32,150 0,1 -1,0 -31,47 -32,53 -2,2 -2,1 -3,-1 -2,-1 -31,-45 1,0 -32,-31 -2,-2 -32,-147 11,0 -31,85 -3,3 -3,1 -32,-4 5,-3 -31,54 1,-1 -32,82 -4,4 -31,12 -2,0 -4,-2 -1,-2 -32,-147 10,1 -32,50 1,-1 -32,85 -32,68 0,1 -1,1 -31,21 -3,1 -3,0 -1,-2 -2,-2 -32,-135 3,3 -31,-18 5,1 -32,14 -3,0 -2,-1
 -2,-2 -1,-2 -32,-199 11,0 -31,250 -2,4 -2,1 -3,0 -32,-8 6,-3 -31,57 -1,2 -2,1 -2,0 -2,-1 -32,-19 5,0 -32,17 3,-3 -31,84 -32,104 -2,3 -3,1 -3,-1 -2,-2 -31,-64 9,0 -32,50 1,-2 -31,250 -1,4 -4,1 -4,-1 -2,-3 -32,-100 1,1 -32,-52 9,1 -31,45 -2,1 -3,1 -3,-1 -2,-2 -32,-72 4,3 -31,-11 5,-2 -32,32 -4,2 -4,-2 -31,-43 10,-3 -32,258 -1,3 -3,2 -4,-1 -2,-1 -32,-48 0,-1 -1,0 -31,-70 9,2 -32,22 -3,1 -3,0 -1,-2 -2,-2 -31,-137 6,4 -32,5 5,-4 -32,87 0,1 -1,0 -31,53 -2,2 -3,1 -3,-1 -2,-2 -32,-78 4,3 -31,-10 2,0 -32,3 -3,-1 -2,-2 -31,-48 10,-1 -32,123 -2,3 -4,1 -32,0 5,-2 -31,36 -32,48 1,-3 -31,181 -2,4 -4,1 -3,-1
 -2,-4 -32,-192 3,4 -31,-14 3,1 -31,5 -32,9 -2,0 -31,-2 1,0 -32,4 3,-1 -31,21 -3,1 -2,0 -32,-10 5,-1 -31,28 -3,1 -4,-1 -32,-27 8,-2 -32,65 -1,2 -3,1 -2,0 -2,-2 -31,-32 4,2 -32,6 -1,0 -31,-3 2,0 -32,10 -3,0 -3,-2 -32,-38 7,1 -31,18 -32,20 -1,1 -1,0 -31,3 -2,0 -32,-6 6,-2 -31,41 -2,1 -3,1 -4,-2 -32,-44 9,0 -32,43 -2,1 -3,1 -31,-4 3,-1 -32,20 1,0 -31,27 -1,1 -2,0 -32,4 -1,0 -2,-1 -31,-15 2,1 -32,-3 -33,0 -31,-7 -1,0 -32,-13 7,-3 -31,47 -2,2 -32,21 -1,1 -1,0 -32,5 -2,0 -2,-1 -31,-20 4,1 -32,1 -2,0 -31,-10 2,0 -32,2 5,-4 -31,78 -4,4 -4,0 -3,-4 0,-4 z"/>
<text font-family="Calibri" font-size="49" fill="#000000"><tspan x="643" y="4103">0</tspan><tspan x="568,593,618,643" y="3777">2000</tspan><tspan x="568,593,618,643" y="3450">4000</tspan><tspan x="568,593,618,643" y="3123">6000</tspan><tspan x="568,593,618,643" y="2796">8000</tspan><tspan x="543,568,593,618,643" y="2470">10000</tspan><tspan x="543,568,593,618,643" y="2143">12000</tspan></text>
<text font-family="Calibri" font-size="49" fill="#000000" transform="translate(746,4281) rotate(-90)"><tspan x="0,25,50,75,99" y="0">2004 </tspan><tspan x="110,136" y="0">07</tspan></text>
<text font-family="Calibri" font-size="49" fill="#000000" transform="translate(809,4281) rotate(-90)"><tspan x="0,25,50,75,99" y="0">2004 </tspan><tspan x="110,136" y="0">09</tspan></text>
<text font-family="Calibri" font-size="49" fill="#000000" transform="translate(872,4281) rotate(-90)"><tspan x="0,25,50,75,99" y="0">2004 </tspan><tspan x="110,136" y="0">11</tspan></text>
<text font-family="Calibri" font-size="49" fill="#000000" transform="translate(936,4281) rotate(-90)"><tspan x="0,25,50,75,99" y="0">2005 </tspan><tspan x="110,136" y="0">01</tspan></text>
<text font-family="Calibri" font-size="49" fill="#000000" transform="translate(999,4281) rotate(-90)"><tspan x="0,25,50,75,99" y="0">2005 </tspan><tspan x="110,136" y="0">03</tspan></text>
<text font-family="Calibri" font-size="49" fill="#000000" transform="translate(1062,4281) rotate(-90)"><tspan x="0,25,50,75,99" y="0">2005 </tspan><tspan x="110,136" y="0">05</tspan></text>
<text font-family="Calibri" font-size="49" fill="#000000" transform="translate(1125,4281) rotate(-90)"><tspan x="0,25,50,75,99" y="0">2005 </tspan><tspan x="110,136" y="0">07</tspan></text>
<text font-family="Calibri" font-size="49" fill="#000000" transform="translate(1188,4281) rotate(-90)"><tspan x="0,25,50,75,99" y="0">2005 </tspan><tspan x="110,136" y="0">09</tspan></text>
<text font-family="Calibri" font-size="49" fill="#000000" transform="translate(1251,4281) rotate(-90)"><tspan x="0,25,50,75,99" y="0">2005 </tspan><tspan x="110,136" y="0">11</tspan></text>
<text font-family="Calibri" font-size="49" fill="#000000" transform="translate(1314,4281) rotate(-90)"><tspan x="0,25,50,75,99" y="0">2006 </tspan><tspan x="110,136" y="0">01</tspan></text>
<text font-family="Calibri" font-size="49" fill="#000000" transform="translate(1378,4281) rotate(-90)"><tspan x="0,25,50,75,99" y="0">2006 </tspan><tspan x="110,136" y="0">03</tspan></text>
<text font-family="Calibri" font-size="49" fill="#000000" transform="translate(1441,4281) rotate(-90)"><tspan x="0,25,50,75,99" y="0">2006 </tspan><tspan x="110,136" y="0">05</tspan></text>
<text font-family="Calibri" font-size="49" fill="#000000" transform="translate(1504,4281) rotate(-90)"><tspan x="0,25,50,75,99" y="0">2006 </tspan><tspan x="110,136" y="0">07</tspan></text>
<text font-family="Calibri" font-size="49" fill="#000000" transform="translate(1567,4281) rotate(-90)"><tspan x="0,25,50,75,99" y="0">2006 </tspan><tspan x="110,136" y="0">09</tspan></text>
<text font-family="Calibri" font-size="49" fill="#000000" transform="translate(1630,4281) rotate(-90)"><tspan x="0,25,50,75,99" y="0">2006 </tspan><tspan x="110,136" y="0">11</tspan></text>
<text font-family="Calibri" font-size="49" fill="#000000" transform="translate(1693,4281) rotate(-90)"><tspan x="0,25,50,75,99" y="0">2007 </tspan><tspan x="110,136" y="0">01</tspan></text>
<text font-family="Calibri" font-size="49" fill="#000000" transform="translate(1757,4281) rotate(-90)"><tspan x="0,25,50,75,99" y="0">2007 </tspan><tspan x="110,136" y="0">03</tspan></text>
<text font-family="Calibri" font-size="49" fill="#000000" transform="translate(1820,4281) rotate(-90)"><tspan x="0,25,50,75,99" y="0">2007 </tspan><tspan x="110,136" y="0">05</tspan></text>
<text font-family="Calibri" font-size="49" fill="#000000" transform="translate(1883,4281) rotate(-90)"><tspan x="0,25,50,75,99" y="0">2007 </tspan><tspan x="110,136" y="0">07</tspan></text>
<text font-family="Calibri" font-size="49" fill="#000000" transform="translate(1946,4281) rotate(-90)"><tspan x="0,25,50,75,99" y="0">2007 </tspan><tspan x="110,136" y="0">09</tspan></text>
<text font-family="Calibri" font-size="49" fill="#000000" transform="translate(2009,4281) rotate(-90)"><tspan x="0,25,50,75,99" y="0">2007 </tspan><tspan x="110,136" y="0">11</tspan></text>
<text font-family="Calibri" font-size="49" fill="#000000" transform="translate(2072,4281) rotate(-90)"><tspan x="0,25,50,75,99" y="0">2008 </tspan><tspan x="110,136" y="0">01</tspan></text>
<text font-family="Calibri" font-size="49" fill="#000000" transform="translate(2135,4281) rotate(-90)"><tspan x="0,25,50,75,99" y="0">2008 </tspan><tspan x="110,136" y="0">03</tspan></text>
<text font-family="Calibri" font-size="49" fill="#000000" transform="translate(2199,4281) rotate(-90)"><tspan x="0,25,50,75,99" y="0">2008 </tspan><tspan x="110,136" y="0">05</tspan></text>
<text font-family="Calibri" font-size="49" fill="#000000" transform="translate(2262,4281) rotate(-90)"><tspan x="0,25,50,75,99" y="0">2008 </tspan><tspan x="110,136" y="0">07</tspan></text>
<text font-family="Calibri" font-size="49" fill="#000000" transform="translate(2325,4281) rotate(-90)"><tspan x="0,25,50,75,99" y="0">2008 </tspan><tspan x="110,136" y="0">09</tspan></text>
<text font-family="Calibri" font-size="49" fill="#000000" transform="translate(2388,4281) rotate(-90)"><tspan x="0,25,50,75,99" y="0">2008 </tspan><tspan x="110,136" y="0">11</tspan></text>
<text font-family="Calibri" font-size="49" fill="#000000" transform="translate(2451,4281) rotate(-90)"><tspan x="0,25,50,75,99" y="0">2009 </tspan><tspan x="110,136" y="0">01</tspan></text>
<text font-family="Calibri" font-size="49" fill="#000000" transform="translate(2514,4281) rotate(-90)"><tspan x="0,25,50,75,99" y="0">2009 </tspan><tspan x="110,136" y="0">03</tspan></text>
<text font-family="Calibri" font-size="49" fill="#000000" transform="translate(2578,4281) rotate(-90)"><tspan x="0,25,50,75,99" y="0">2009 </tspan><tspan x="110,136" y="0">05</tspan></text>
<text font-family="Calibri" font-size="49" fill="#000000" transform="translate(2641,4281) rotate(-90)"><tspan x="0,25,50,75,99" y="0">2009 </tspan><tspan x="110,136" y="0">07</tspan></text>
<text font-family="Calibri" font-size="49" fill="#000000" transform="translate(2704,4281) rotate(-90)"><tspan x="0,25,50,75,99" y="0">2009 </tspan><tspan x="110,136" y="0">09</tspan></text>
<text font-family="Calibri" font-size="49" fill="#000000" transform="translate(2767,4281) rotate(-90)"><tspan x="0,25,50,75,99" y="0">2009 </tspan><tspan x="110,136" y="0">11</tspan></text>
<text font-family="Calibri" font-size="49" fill="#000000" transform="translate(2830,4281) rotate(-90)"><tspan x="0,25,50,75,99" y="0">2010 </tspan><tspan x="110,136" y="0">07</tspan></text>
<text font-family="Calibri" font-size="49" fill="#000000" transform="translate(2893,4281) rotate(-90)"><tspan x="0,25,50,75,99" y="0">2010 </tspan><tspan x="110,136" y="0">09</tspan></text>
<text font-family="Calibri" font-size="49" fill="#000000" transform="translate(2956,4281) rotate(-90)"><tspan x="0,25,50,75,99" y="0">2010 </tspan><tspan x="110,136" y="0">11</tspan></text>
<text font-family="Calibri" font-size="49" fill="#000000" transform="translate(3020,4281) rotate(-90)"><tspan x="0,25,50,75,99" y="0">2011 </tspan><tspan x="110,136" y="0">01</tspan></text>
<text font-family="Calibri" font-size="49" fill="#000000" transform="translate(3083,4281) rotate(-90)"><tspan x="0,25,50,75,99" y="0">2011 </tspan><tspan x="110,136" y="0">03</tspan></text>
<text font-family="Calibri" font-size="49" fill="#000000" transform="translate(3146,4281) rotate(-90)"><tspan x="0,25,50,75,99" y="0">2011 </tspan><tspan x="110,136" y="0">05</tspan></text>
<text font-family="Calibri" font-size="49" fill="#000000" transform="translate(3209,4281) rotate(-90)"><tspan x="0,25,50,75,99" y="0">2011 </tspan><tspan x="110,136" y="0">07</tspan></text>
<text font-family="Calibri" font-size="49" fill="#000000" transform="translate(3272,4281) rotate(-90)"><tspan x="0,25,50,75,99" y="0">2011 </tspan><tspan x="110,136" y="0">09</tspan></text>
<text font-family="Calibri" font-size="49" fill="#000000" transform="translate(3335,4281) rotate(-90)"><tspan x="0,25,50,75,99" y="0">2011 </tspan><tspan x="110,136" y="0">11</tspan></text>
<text font-family="Calibri" font-size="49" fill="#000000" transform="translate(3399,4281) rotate(-90)"><tspan x="0,25,50,75,99" y="0">2012 </tspan><tspan x="110,136" y="0">01</tspan></text>
<text font-family="Calibri" font-size="49" fill="#000000" transform="translate(3462,4281) rotate(-90)"><tspan x="0,25,50,75,99" y="0">2012 </tspan><tspan x="110,136" y="0">03</tspan></text>
<text font-family="Calibri" font-size="49" fill="#000000" transform="translate(3525,4281) rotate(-90)"><tspan x="0,25,50,75,99" y="0">2012 </tspan><tspan x="110,136" y="0">05</tspan></text>
<text font-family="Calibri" font-size="49" fill="#000000" transform="translate(3588,4281) rotate(-90)"><tspan x="0,25,50,75,99" y="0">2012 </tspan><tspan x="110,136" y="0">07</tspan></text>
<text font-family="Calibri" font-size="49" fill="#000000" transform="translate(3651,4281) rotate(-90)"><tspan x="0,25,50,75,99" y="0">2012 </tspan><tspan x="110,136" y="0">09</tspan></text>
<text font-family="Calibri" font-size="49" fill="#000000" transform="translate(3714,4281) rotate(-90)"><tspan x="0,25,50,75,99" y="0">2012 </tspan><tspan x="110,136" y="0">11</tspan></text>
<text font-family="Calibri" font-size="49" fill="#000000" transform="translate(3778,4281) rotate(-90)"><tspan x="0,25,50,75,99" y="0">2013 </tspan><tspan x="110,136" y="0">01</tspan></text>
<text font-family="Calibri" font-size="49" fill="#000000" transform="translate(3841,4281) rotate(-90)"><tspan x="0,25,50,75,99" y="0">2013 </tspan><tspan x="110,136" y="0">03</tspan></text>
<text font-family="Calibri" font-size="49" fill="#000000" transform="translate(3904,4281) rotate(-90)"><tspan x="0,25,50,75,99" y="0">2013 </tspan><tspan x="110,136" y="0">05</tspan></text>
<text font-family="Calibri" font-size="49" fill="#000000" transform="translate(3967,4281) rotate(-90)"><tspan x="0,25,50,75,99" y="0">2013 </tspan><tspan x="110,136" y="0">07</tspan></text>
<text font-family="Calibri" font-size="49" fill="#000000" transform="translate(4030,4281) rotate(-90)"><tspan x="0,25,50,75,99" y="0">2013 </tspan><tspan x="110,136" y="0">09</tspan></text>
<text font-family="Calibri" font-size="49" fill="#000000" transform="translate(4093,4281) rotate(-90)"><tspan x="0,25,50,75,99" y="0">2013 </tspan><tspan x="110,136" y="0">11</tspan></text>
<text font-family="Calibri" font-size="49" fill="#000000" transform="translate(4156,4281) rotate(-90)"><tspan x="0,25,50,75,99" y="0">2014 </tspan><tspan x="110,136" y="0">01</tspan></text>
<text font-family="Calibri" font-size="49" fill="#000000" transform="translate(4220,4281) rotate(-90)"><tspan x="0,25,50,75,99" y="0">2014 </tspan><tspan x="110,136" y="0">03</tspan></text>
<text font-family="Calibri" font-size="49" fill="#000000" transform="translate(4283,4281) rotate(-90)"><tspan x="0,25,50,75,99" y="0">2014 </tspan><tspan x="110,136" y="0">05</tspan></text>
<text font-family="Calibri" font-size="49" fill="#000000" transform="translate(4346,4281) rotate(-90)"><tspan x="0,25,50,75,99" y="0">2014 </tspan><tspan x="110,136" y="0">07</tspan></text>
<text font-family="Calibri" font-size="49" fill="#000000" transform="translate(4409,4281) rotate(-90)"><tspan x="0,25,50,75,99" y="0">2014 </tspan><tspan x="110,136" y="0">09</tspan></text>
<text font-family="Calibri" font-size="49" fill="#000000" font-weight="700" transform="translate(515,3170) rotate(-90)"><tspan x="0,25,52,78,105" y="0">Count</tspan></text>
<text font-family="Calibri" font-size="49" fill="#000000" font-weight="700"><tspan x="2450,2476,2500,2525,2542" y="4343">Year/</tspan><tspan x="2563,2606,2633,2659,2676" y="4343">Month</tspan></text>
<text font-family="Calibri" font-size="88" fill="#000000" font-weight="700"><tspan x="1094,1141,1183,1214,1261,1296,1332,1376,1424,1468" y="2043">Cytoscape </tspan><tspan x="1489,1534" y="2043">2 </tspan><tspan x="1554,1616" y="2043">&amp; </tspan><tspan x="1637,1681" y="2043">3 </tspan><tspan x="1701,1757,1805,1870,1918,1939,1987,2030,2078" y="2043">Download </tspan><tspan x="2099,2146,2194,2241,2288,2319,2354" y="2043">Counts </tspan><tspan x="2374,2452,2499,2546,2576,2624,2645,2687" y="2043">Monthly </tspan><tspan x="2708,2736,2808,2853,2897,2932,2979,3009,3054,3102" y="2043">(measured </tspan><tspan x="3122,3165,3196" y="2043">at </tspan><tspan x="3215,3263,3310,3376,3423,3445,3492,3536,3584,3607,3654,3684,3757,3778" y="2043">download.html)</tspan></text>
<path fill="#868686" stroke="none" d="M 4493,1919 l 0,1 1,0 0,3 -4086,0 0,2493 -4,0 0,-2495 1,0 0,-1 1,0 0,-1 4087,0 z"/>
<path fill="#868686" stroke="none" d="M 4494,1923 l 0,2495 -4090,0 0,-2 4088,0 0,-2493 2,0 z"/>
<path fill="#FF0000" stroke="none" d="M 3794,3541 l 7,-562 -4,0 -6,562 3,0 z m 77,112 l 2,-828 -3,0 -3,828 4,0 z"/>
<rect x="3962" y="2951" width="4" height="807" fill="#FF0000" stroke="none"/>
<text font-family="Calibri" font-size="54" fill="#FF0000" font-weight="700"><tspan x="3456,3482,3509,3524" y="3603">v3.0</tspan></text>
<text font-family="Calibri" font-size="54" fill="#FF0000"><tspan x="3563,3588,3615,3643" y="3603">Feb </tspan><tspan x="3656,3684,3697" y="3603">1, </tspan><tspan x="3709,3736,3764,3792" y="3603">2013</tspan></text>
<text font-family="Calibri" font-size="54" fill="#FF0000" font-weight="700"><tspan x="3452,3478,3506,3521,3548,3563" y="3720">v3.0.1</tspan></text>
<text font-family="Calibri" font-size="54" fill="#FF0000"><tspan x="3601,3633,3661,3680" y="3720">Apr </tspan><tspan x="3692,3720,3748,3761" y="3720">22, </tspan><tspan x="3773,3801,3828,3856" y="3720">2013</tspan></text>
<text font-family="Calibri" font-size="54" fill="#FF0000" font-weight="700"><tspan x="3583,3609,3637,3652,3679,3694" y="3809">v3.0.2</tspan></text>
<text font-family="Calibri" font-size="54" fill="#FF0000"><tspan x="3732,3749,3778" y="3809">Jul</tspan><tspan x="3803,3831" y="3809">31</tspan><tspan x="3858,3872" y="3809">, </tspan><tspan x="3884,3911,3939,3967" y="3809">2013</tspan></text>
<text font-family="Calibri" font-size="54" fill="#FF0000" font-weight="700"><tspan x="3805,3831,3859,3874,3901" y="3894">v3.1 </tspan></text>
<text font-family="Calibri" font-size="54" fill="#FF0000"><tspan x="3912,3937,3964" y="3894">Feb</tspan><tspan x="4005,4033,4061,4074" y="3894">19, </tspan><tspan x="4086,4114,4141,4169" y="3894">2014</tspan></text>
<path fill="#FF0000" stroke="none" d="M 4282,3922 l 5,-1216 -4,0 -5,1216 4,0 z m -108,-78 l 4,-1097 -3,0 -5,1097 4,0 z"/>
<text font-family="Calibri" font-size="54" fill="#FF0000" font-weight="700"><tspan x="3831,3857,3884,3899,3927,3942,3969" y="3991">v3.1.1 </tspan></text>
<text font-family="Calibri" font-size="54" fill="#FF0000"><tspan x="3980,4026,4052,4076" y="3991">May </tspan><tspan x="4089,4116" y="3991">27</tspan><tspan x="4144,4158" y="3991">, </tspan><tspan x="4170,4198,4225,4253" y="3991">2014</tspan></text>
</g>
</svg>
