<?xml version="1.0" standalone="no"?>
<svg xml:space="preserve" width="100%" height="100%" viewBox="0 0 4897 6337" preserveAspectRatio="xMidYMid"
  fill-rule="nonzero" stroke-linecap="round" stroke-linejoin="round"
  xmlns="http://www.w3.org/2000/svg"
  xmlns:xlink="http://www.w3.org/1999/xlink"
  xmlns:svgmaker="http://www.svgmaker.com/svgns">
<svgmaker:init width="215.9mm" height="279.4mm" viewBox="0 0 4897 6337" view="fit"
  crop="none" cropWidth="180.3mm" cropHeight="98.0mm" cropBox="404 2057 4090 2223"/>
<title>Untitled</title>
<desc>
  Generated by SVGmaker V3 Version 3.61.E702.64
  FEB-24-2015, 18:20
</desc>
<defs><clipPath id="page_clip"><rect x="0" y="0" width="4897" height="6337"/></clipPath></defs>
<g id="Page_1" clip-path="url(#page_clip)" svgmaker:mediaBox="0 0 4897 6337">
<rect x="406" y="2059" width="4085" height="2218" fill="#FFFFFF" stroke="none"/>
<rect x="824" y="2367" width="2580" height="1299" fill="#FFFFFF" stroke="none"/>
<path fill="#868686" stroke="none" d="M 823,3447 l 2580,0 0,5 -2580,0 0,-5 z m 0,-217 l 2580,0 0,5 -2580,0 0,-5 z m 0,-216 l 2580,0 0,5 -2580,0 0,-5 z m 0,-217 l 2580,0 0,5 -2580,0 0,-5 z m 0,-216 l 2580,0 0,5 -2580,0 0,-5 z m 0,-217 l 2580,0 0,5 -2580,0 0,-5 z"/>
<rect x="821" y="2366" width="5" height="1299" fill="#868686" stroke="none"/>
<path fill="#868686" stroke="none" d="M 800,3663 l 23,0 0,5 -23,0 0,-5 z m 0,-216 l 23,0 0,5 -23,0 0,-5 z m 0,-217 l 23,0 0,5 -23,0 0,-5 z m 0,-216 l 23,0 0,5 -23,0 0,-5 z m 0,-217 l 23,0 0,5 -23,0 0,-5 z m 0,-216 l 23,0 0,5 -23,0 0,-5 z m 0,-217 l 23,0 0,5 -23,0 0,-5 z"/>
<rect x="823" y="3663" width="2580" height="5" fill="#868686" stroke="none"/>
<path fill="#868686" stroke="none" d="M 826,3665 l 0,24 -5,0 0,-24 5,0 z m 152,0 l 0,24 -5,0 0,-24 5,0 z m 152,0 l 0,24 -5,0 0,-24 5,0 z m 152,0 l 0,24 -5,0 0,-24 5,0 z m 151,0 l 0,24 -5,0 0,-24 5,0 z m 152,0 l 0,24 -5,0 0,-24 5,0 z m 152,0 l 0,24 -5,0 0,-24 5,0 z m 152,0 l 0,24 -5,0 0,-24 5,0 z m 151,0 l 0,24 -5,0 0,-24 5,0 z m 152,0 l 0,24 -5,0 0,-24 5,0 z m 152,0 l 0,24 -5,0 0,-24 5,0 z m 152,0 l 0,24 -5,0 0,-24 5,0 z m 151,0 l 0,24 -5,0 0,-24 5,0 z m 152,0 l 0,24 -5,0 0,-24 5,0 z m 152,0 l 0,24 -5,0 0,-24 5,0 z m 152,0 l 0,24 -5,0 0,-24 5,0 z m 151,0 l 0,24 -5,0 0,-24 5,0 z m 152,0 l 0,24 -5,0 0,-24 5,0 z"/>
<path fill="#C00000" stroke="none" d="M 897,3621 l 152,-68 1,-1 151,-34 151,-51 -1,1 152,-79 152,-92 1,0 151,-59 153,-38 151,-50 152,-51 151,-50 -1,1 152,-81 153,-67 153,-50 150,-50 -1,1 152,-77 1,0 1,-1 152,-33 4,0 3,1 2,2 1,3 0,4 -1,3 -2,2 -3,1 -152,33 2,-1 -152,77 -1,0 -1,1 -151,50 -151,48 -151,67 -152,81 -1,0 -1,1 -303,101 -152,50 -151,36 -151,59 1,0 -152,92 -152,79 -1,0 0,1 -153,51 -151,34 1,-1 -152,68 -3,1 -6,-2 -2,-6 2,-6 3,-1 z"/>
<path fill="#C00000" stroke="none" d="M 1535,3575 l 31,-6 7,2 2,2 1,3 0,3 -2,3 -2,2 -3,1 -31,6 -6,-2 -3,-2 -1,-3 2,-6 2,-2 3,-1 z m 63,-11 l 31,-6 4,0 3,1 2,3 1,3 0,3 -2,3 -2,2 -3,1 -31,5 -3,0 -3,-1 -3,-2 -1,-3 2,-6 2,-2 3,-1 z m 891,-92 l 32,-5 6,2 2,2 1,3 0,3 -2,3 -2,2 -3,1 -32,5 -3,0 -3,-2 -2,-2 -1,-3 0,-3 1,-3 3,-2 3,-1 z m 190,-27 l 32,-5 6,2 2,2 1,3 0,4 -4,4 -3,1 -32,5 -3,0 -3,-2 -2,-2 -1,-3 2,-6 2,-2 3,-1 z m 382,-38 l 32,-5 6,2 2,2 1,3 0,4 -4,4 -3,1 -32,5 -3,0 -3,-2 -2,-2 -1,-3 2,-6 2,-2 3,-1 z m -1716,194 l 9,-1 23,-3 3,0 3,2 2,2 1,3 0,3 -2,3 -2,2 -3,1 -23,3 -9,1 -3,0 -3,-2 -2,-2
 -1,-3 2,-6 2,-2 3,-1 z m 127,-16 l 32,-5 6,2 2,2 1,3 0,4 -4,4 -3,1 -32,4 -3,0 -3,-1 -2,-3 -1,-3 0,-3 1,-2 3,-2 3,-1 z m 189,-32 l 32,-4 6,2 3,5 0,3 -2,3 -5,3 -32,4 -6,-2 -2,-3 -1,-3 1,-3 1,-2 2,-2 3,-1 z m 891,-91 l 32,-4 3,0 3,1 2,3 1,3 0,3 -2,3 -2,2 -3,1 -16,2 -15,2 -3,0 -3,-1 -3,-2 -1,-3 2,-6 2,-3 3,-1 z m -126,20 l 31,-5 4,0 2,1 2,2 1,3 0,4 -1,3 -2,2 -3,1 -32,4 -3,0 -3,-1 -2,-2 -1,-3 0,-3 1,-3 3,-2 3,-1 z m -1018,111 l 32,-4 4,0 2,1 2,3 1,3 0,3 -1,3 -3,2 -3,1 -31,4 -3,0 -3,-2 -2,-2 -1,-3 0,-3 1,-3 2,-2 3,-1 z m 1208,-140 l 31,-4 4,0 4,4 1,3 0,3 -1,3
 -2,2 -3,1 -32,4 -3,0 -3,-1 -2,-3 -1,-3 0,-3 1,-3 3,-2 3,-1 z m 508,-55 l 32,-4 4,0 2,1 2,2 1,3 0,4 -1,2 -3,2 -3,1 -31,5 -3,0 -3,-2 -2,-2 -1,-3 0,-3 1,-3 2,-2 3,-1 z m -1399,147 l 32,-3 3,0 3,2 2,2 1,3 0,3 -2,3 -2,2 -3,1 -32,3 -3,0 -3,-1 -2,-3 -1,-3 0,-3 2,-3 2,-2 3,-1 z m 64,-7 l 20,-2 12,-1 6,2 2,6 0,3 -2,3 -2,1 -3,1 -11,1 -21,2 -3,0 -3,-1 -2,-3 -1,-3 2,-6 3,-2 3,-1 z m 191,-13 l 32,-3 6,2 2,2 1,3 0,3 -2,3 -5,3 -32,3 -3,0 -3,-2 -2,-2 -1,-3 2,-6 5,-3 z m 128,-12 l 5,-1 26,-3 4,1 2,1 2,2 1,3 0,4 -4,4 -3,1 -26,3 -9,0 -3,-1 -2,-3 -1,-3 1,-3 1,-2 3,-2
 3,-1 z m 63,-7 l 32,-3 3,0 3,1 2,3 1,3 0,3 -2,3 -2,1 -3,1 -32,4 -3,0 -3,-2 -2,-2 -1,-3 2,-6 2,-2 3,-1 z m 128,-13 l 32,-3 6,2 2,6 0,3 -2,3 -2,1 -3,1 -32,3 -3,0 -3,-2 -2,-2 -1,-3 2,-6 6,-3 z m 63,-5 l 32,-3 4,1 2,1 2,2 1,3 0,3 -2,3 -5,3 -32,3 -6,-2 -3,-6 1,-3 1,-2 2,-2 3,-1 z m -1080,119 l 31,-3 4,0 4,4 1,3 0,3 -2,3 -2,2 -3,1 -32,3 -6,-2 -2,-3 -1,-3 1,-3 1,-2 3,-2 3,-1 z m -255,23 l 24,-2 7,-1 4,1 2,1 2,3 1,3 0,3 -2,3 -2,1 -3,1 -7,1 -25,2 -3,0 -3,-1 -2,-3 -1,-3 2,-6 3,-2 3,-1 z m -128,13 l 32,-3 3,0 3,2 2,2 1,3 0,3 -2,3 -2,2 -3,1 -32,3 -3,0 -3,-2
 -2,-2 -1,-3 2,-6 2,-2 3,-1 z m 191,-19 l 32,-3 6,2 3,6 0,3 -2,3 -2,1 -3,1 -32,3 -3,0 -3,-2 -3,-5 2,-6 2,-2 3,-1 z m 1717,-194 l 31,-3 4,1 2,1 2,3 1,3 0,3 -2,3 -2,1 -3,1 -32,3 -3,0 -3,-1 -2,-3 -1,-3 2,-6 3,-2 3,-1 z m 381,-40 l 32,-3 4,1 2,1 2,3 1,3 0,3 -2,3 -2,1 -3,1 -32,3 -3,0 -3,-2 -2,-2 -1,-3 2,-6 2,-2 3,-1 z m 64,-5 l 32,-3 6,2 2,3 1,3 -2,6 -6,2 -32,3 -3,0 -4,-4 -1,-3 0,-3 2,-3 2,-2 3,-1 z m -2289,252 l 32,-3 3,0 3,1 2,6 0,3 -1,3 -3,2 -3,1 -32,3 -3,-1 -2,-1 -2,-3 -1,-3 0,-3 1,-2 3,-2 3,-1 z m 1780,-200 l 32,-3 3,0 3,1 2,6 0,3 -1,3 -3,2 -3,1 -32,3 -3,0
 -4,-4 -1,-3 0,-3 1,-3 3,-2 3,-1 z m 255,-23 l 25,-2 6,-1 4,1 2,1 2,2 1,3 0,3 -1,3 -2,2 -3,1 -7,1 -26,2 -3,0 -4,-4 -1,-3 0,-3 2,-3 2,-2 3,-1 z m -1780,199 l 32,-3 3,0 3,1 2,6 0,3 -1,3 -3,2 -3,1 -32,3 -3,-1 -2,-1 -2,-3 -1,-3 0,-3 1,-2 3,-2 3,-1 z m 1017,-114 l 30,-3 5,0 3,2 1,2 1,3 0,3 -1,3 -3,2 -3,1 -1,0 -31,3 -3,0 -4,-4 -1,-3 0,-3 1,-3 3,-2 3,-1 z m -191,20 l 32,-3 3,0 3,1 2,6 0,3 -1,3 -3,2 -3,1 -32,3 -3,0 -4,-4 -1,-3 0,-3 1,-3 3,-2 3,-1 z m -127,11 l 32,-2 3,0 3,2 1,2 1,3 0,3 -2,3 -5,3 -32,2 -6,-2 -2,-3 -1,-3 1,-3 1,-2 3,-2 3,-1 z m -763,88 l 32,-2 3,0
 3,1 2,3 1,3 -2,6 -6,2 -31,3 -3,0 -3,-1 -2,-3 -1,-3 0,-3 2,-3 2,-2 3,-1 z m 1716,-194 l 2,0 30,-2 4,0 4,4 1,3 0,3 -2,3 -2,2 -3,1 -30,2 -5,0 -3,-2 -2,-2 -1,-3 2,-6 2,-2 3,-1 z m 64,-5 l 32,-2 3,0 3,1 2,3 1,3 -2,6 -6,2 -32,3 -3,0 -4,-4 -1,-3 0,-3 2,-3 2,-2 3,-1 z m -1081,114 l 32,-1 3,0 3,2 1,2 1,3 0,3 -2,3 -2,2 -3,1 -32,1 -3,0 -3,-2 -2,-2 -1,-3 2,-6 6,-3 z m 1463,-153 l 11,-1 4,1 2,1 2,2 1,3 0,4 -4,4 -3,1 -12,1 -3,-1 -2,-1 -2,-3 -1,-3 0,-3 4,-4 3,-1 z"/>
<path fill="#376092" stroke="none" d="M 897,3494 l 152,-73 150,-88 153,-62 152,-59 152,-64 151,-63 152,-59 152,-57 152,-68 150,-83 152,-92 1,0 0,-1 152,-51 153,-49 151,-48 151,-64 152,-64 3,-1 6,2 2,6 -2,6 -3,1 -152,64 -153,66 -151,48 -151,49 -152,51 1,-1 -152,92 -152,83 -152,69 -152,56 -152,59 -151,63 -152,65 -152,58 -151,62 -152,88 -152,73 -3,1 -3,-1 -2,-1 -2,-3 -1,-3 1,-3 1,-2 3,-2 z"/>
<path fill="#376092" stroke="none" d="M 1089,3597 l 32,-5 6,2 2,2 1,3 0,3 -1,3 -3,2 -3,1 -31,5 -3,0 -3,-1 -3,-3 -1,-3 2,-6 2,-2 3,-1 z m 445,-54 l 31,-5 4,1 3,1 2,2 1,3 0,4 -4,4 -3,1 -32,5 -3,0 -3,-2 -2,-2 -1,-3 0,-3 1,-3 3,-2 3,-1 z m 63,-9 l 32,-5 6,2 2,2 1,3 0,3 -2,3 -2,2 -3,1 -32,5 -3,0 -3,-2 -2,-2 -1,-3 2,-6 2,-2 3,-1 z m 826,-101 l 31,-5 4,1 3,1 2,2 1,3 0,4 -4,4 -3,1 -32,5 -3,0 -3,-2 -2,-2 -1,-3 0,-3 1,-3 3,-2 3,-1 z m 63,-9 l 32,-5 6,2 2,2 1,3 0,3 -2,3 -2,2 -3,1 -32,5 -3,0 -3,-2 -2,-2 -1,-3 2,-6 2,-2 3,-1 z m -190,29 l 32,-5 3,0 3,1 2,3 1,3 0,3 -1,3 -3,2 -3,1 -31,5 -3,0 -3,-1
 -2,-3 -1,-3 0,-3 1,-3 2,-2 3,-1 z m 63,-10 l 32,-5 3,0 3,1 2,3 1,3 0,3 -1,3 -2,2 -3,1 -32,5 -3,0 -3,-1 -2,-3 -1,-3 0,-3 1,-3 2,-2 3,-1 z m -1333,163 l 25,-3 7,-1 3,0 3,1 2,3 1,3 0,3 -2,3 -2,2 -3,1 -7,1 -25,3 -3,0 -3,-2 -2,-2 -1,-3 0,-3 2,-3 2,-2 3,-1 z m 1081,-126 l 6,-1 25,-3 3,0 3,1 2,2 1,3 0,4 -1,2 -3,2 -3,1 -25,4 -7,1 -3,0 -3,-2 -2,-2 -1,-3 2,-6 3,-2 3,-1 z m 126,-18 l 32,-4 3,0 3,2 2,2 1,3 0,3 -2,3 -2,2 -3,1 -32,4 -3,0 -3,-1 -2,-3 -1,-3 2,-6 2,-2 3,-1 z m -1334,160 l 32,-4 6,2 2,2 1,3 0,3 -2,3 -2,2 -3,1 -32,4 -3,0 -3,-2 -2,-2 -1,-3 0,-3 2,-3
 2,-2 3,-1 z m 2161,-249 l 32,-4 6,2 2,2 1,3 0,4 -4,4 -3,1 -32,4 -3,0 -3,-1 -2,-3 -1,-3 0,-3 1,-3 3,-2 3,-1 z m -1399,152 l 32,-4 6,2 1,2 1,3 0,4 -1,2 -3,2 -3,1 -32,4 -3,0 -4,-4 -1,-3 0,-3 1,-3 3,-2 3,-1 z m 509,-54 l 31,-4 4,0 2,1 2,3 1,3 0,3 -1,3 -2,2 -3,1 -32,4 -3,0 -3,-1 -2,-3 -1,-3 0,-3 1,-3 3,-2 3,-1 z m -890,100 l 31,-4 4,1 2,1 2,2 1,3 0,3 -1,3 -3,2 -3,1 -32,4 -3,0 -4,-4 -1,-3 0,-3 1,-3 3,-2 3,-1 z m -318,43 l 32,-4 4,1 2,1 2,2 1,3 0,3 -1,3 -3,2 -3,1 -32,4 -3,0 -4,-4 -1,-3 0,-3 1,-3 2,-2 3,-1 z m 190,-26 l 32,-5 3,0 3,1 2,2 1,3 0,4 -1,3 -3,2
 -3,1 -31,4 -3,0 -3,-1 -2,-2 -1,-3 0,-3 1,-3 2,-2 3,-1 z m 1397,-173 l 19,-3 14,-1 6,2 2,6 0,3 -2,3 -2,1 -3,1 -13,1 -18,3 -3,0 -3,-2 -2,-2 -1,-3 0,-3 1,-3 2,-2 3,-1 z m -1142,142 l 32,-3 3,0 3,1 2,3 1,3 -2,6 -3,2 -3,1 -31,3 -3,0 -3,-2 -2,-2 -1,-3 0,-3 2,-3 2,-2 3,-1 z m 317,-39 l 32,-3 4,0 2,1 2,3 1,3 0,3 -2,3 -2,2 -3,1 -32,3 -3,0 -3,-2 -2,-2 -1,-3 2,-6 2,-2 3,-1 z m -253,33 l 31,-4 4,1 2,1 2,3 1,3 0,3 -2,3 -2,1 -3,1 -32,3 -3,0 -3,-1 -2,-3 -1,-3 1,-3 1,-2 3,-2 3,-1 z m -255,27 l 32,-3 3,0 3,1 2,3 1,3 0,3 -2,3 -2,1 -3,1 -32,4 -3,0 -3,-1 -2,-3 -1,-3 0,-3
 2,-3 2,-2 3,-1 z m 572,-67 l 21,-2 11,-1 6,2 2,2 1,3 0,4 -4,4 -3,1 -11,1 -21,2 -3,0 -3,-2 -2,-2 -1,-3 2,-6 2,-2 3,-1 z m 128,-12 l 31,-3 4,1 2,1 2,2 1,3 0,4 -4,4 -3,1 -32,3 -3,0 -3,-2 -2,-2 -1,-3 2,-6 3,-2 3,-1 z m 63,-6 l 32,-3 3,0 3,1 2,3 1,3 0,3 -2,3 -2,2 -3,1 -32,3 -3,0 -3,-2 -2,-2 -1,-3 2,-6 2,-2 3,-1 z m 762,-93 l 32,-3 6,2 3,6 0,3 -2,3 -2,1 -3,1 -32,3 -3,0 -3,-2 -2,-2 -1,-3 2,-6 5,-3 z m 64,-5 l 32,-3 6,2 2,2 1,3 -1,4 -1,2 -3,2 -3,1 -32,3 -3,-1 -2,-1 -2,-3 -1,-3 0,-3 4,-4 3,-1 z m 128,-10 l 32,-3 6,2 2,6 0,3 -2,3 -2,1 -3,1 -32,3 -6,-2 -2,-3 -1,-3
 1,-3 1,-2 3,-2 3,-1 z m 64,-5 l 26,-2 5,-1 6,2 2,2 1,3 0,4 -4,4 -3,1 -5,1 -27,2 -6,-2 -3,-6 1,-3 1,-2 3,-2 3,-1 z m -1654,183 l 11,-1 21,-2 6,2 2,2 1,3 0,3 -2,3 -5,3 -21,2 -11,1 -3,0 -3,-1 -2,-3 -1,-3 2,-6 2,-2 3,-1 z m 1780,-198 l 32,-3 3,0 3,1 2,2 1,3 0,4 -4,4 -3,1 -32,4 -3,0 -3,-1 -2,-3 -1,-3 2,-6 2,-2 3,-1 z m -1080,121 l 32,-3 6,2 1,2 1,3 0,4 -1,2 -3,2 -3,1 -31,3 -3,0 -3,-1 -2,-3 -1,-3 0,-3 1,-3 3,-2 3,-1 z m -191,19 l 32,-3 6,2 1,2 1,3 0,4 -1,2 -3,2 -3,1 -32,3 -3,0 -4,-4 -1,-3 0,-3 2,-3 2,-2 3,-1 z m 826,-100 l 32,-2 3,0 3,2 1,2 1,3 0,3 -2,3 -5,3
 -32,2 -6,-2 -2,-3 -1,-3 1,-3 1,-2 3,-2 3,-1 z m -64,4 l 32,-2 6,2 1,2 1,3 0,4 -4,4 -3,1 -32,2 -3,0 -3,-2 -3,-5 2,-6 3,-2 3,-1 z m 573,-51 l 32,-2 4,1 2,1 2,3 1,3 -2,6 -6,2 -32,2 -3,0 -4,-4 -1,-3 2,-6 2,-2 3,-1 z m 64,-4 l 32,-2 6,2 3,5 -1,4 -1,2 -3,2 -3,1 -32,2 -3,0 -4,-4 -1,-3 2,-6 2,-2 3,-1 z m -382,35 l 3,0 29,-2 6,2 1,2 1,3 0,4 -4,4 -3,1 -28,2 -7,0 -4,-4 -1,-3 0,-3 1,-3 3,-2 3,-1 z m 446,-39 l 12,-1 4,1 2,1 2,2 1,3 -1,4 -1,2 -3,2 -3,1 -12,1 -3,-1 -2,-1 -2,-3 -1,-3 0,-3 4,-4 3,-1 z"/>
<text font-family="Calibri" font-size="73" fill="#000000"><tspan x="720" y="3688">0</tspan><tspan x="646,684,720" y="3471">500</tspan><tspan x="609,647,683,721" y="3254">1000</tspan><tspan x="609,647,683,721" y="3038">1500</tspan><tspan x="609,647,683,721" y="2821">2000</tspan><tspan x="609,647,683,721" y="2605">2500</tspan><tspan x="609,647,683,721" y="2388">3000</tspan></text>
<path fill="#000000" stroke="none" d="M 778,3898 l 1,1 1,0 0,1 -2,2 0,1 -1,0 0,1 -2,0 -11,-5 -13,13 5,11 0,1 -2,2 0,1 -3,0 0,-1 -20,-41 0,-2 1,0 0,-1 1,0 0,-1 1,0 1,-1 0,-1 2,0 41,19 z m -40,-12 l 10,22 12,-12 -22,-10 z m 149,-97 l 1,1 0,2 -17,17 -2,0 -1,-1 0,-1 -1,0 0,-1 7,-7 -25,-25 -2,10 0,1 -2,0 -2,-2 0,-1 3,-13 0,-1 1,0 0,-1 1,0 0,-1 1,0 0,-1 1,1 29,28 5,-6 2,0 0,1 1,0 z m 19,-33 l 2,2 1,2 1,3 0,3 -1,3 -1,2 -4,6 -4,4 -2,1 -1,0 -2,1 -3,0 -1,-1 0,-1 -1,0 -1,-1 1,-1 1,0 2,-1 1,0 2,-1 1,-1 2,-1 3,-3 2,-4 0,-5 -1,-1 -1,-2 -1,-1 -2,-1 -4,0 -6,3 -5,5 -2,0 -2,-2 0,-1 5,-5
 1,-2 1,-1 0,-3 -2,-4 -3,-3 -1,0 -2,-1 -1,1 -1,0 -1,1 -2,1 -1,2 -1,1 -1,2 0,1 -1,2 0,2 -2,0 -2,-2 0,-4 1,-2 1,-1 3,-6 3,-1 2,-2 2,-1 5,0 4,2 3,3 2,4 0,5 -1,2 -1,1 4,-2 2,0 2,-1 2,1 2,0 2,2 2,1 z m -110,109 l 2,3 2,6 0,5 -4,6 -1,1 -1,0 -1,1 -1,0 -1,1 -5,0 12,12 -1,1 0,1 -1,0 0,1 -1,0 0,1 -2,0 0,-1 -32,-31 0,-1 2,-2 0,-1 2,0 3,3 0,-4 1,-1 0,-2 1,-1 0,-2 2,-2 3,-2 2,-1 3,-1 3,0 3,2 2,1 3,2 5,5 z m -6,2 l -2,-1 -2,-2 -6,-3 -2,0 -1,1 -2,1 -1,1 0,1 -1,2 0,1 -1,1 0,4 1,2 9,9 3,0 3,-1 4,-2 1,-1 2,-4
 -3,-6 -1,-1 -1,-2 z m 56,-34 l 0,1 -3,3 -1,0 -34,-34 0,-1 1,-1 0,-1 1,0 1,-1 1,0 34,34 z m -42,1 l 1,0 0,2 -2,0 0,1 -1,0 -1,1 0,1 -1,0 0,7 1,2 14,15 1,1 0,1 -1,0 0,1 -1,0 0,1 -1,0 -1,1 -23,-23 -1,0 0,-1 3,-3 1,0 4,3 -1,-2 0,-5 1,-1 0,-1 1,0 0,-1 1,-1 1,0 0,-1 1,0 1,-1 1,0 0,1 2,2 z m 30,11 l 0,2 -1,0 0,1 -1,0 0,1 -2,0 0,1 -23,-23 0,-1 -1,0 1,0 0,-1 1,0 0,-1 1,-1 1,0 0,-1 1,0 23,23 z m 18,-41 l 0,2 -11,11 -2,-2 -1,0 0,-2 11,-11 1,0 2,2 z m -48,10 l 1,2 0,2 -2,2 -2,1 -1,0 -2,-2 -1,-2 1,-1 1,-2 1,-1 3,0 1,1 z"/>
<path fill="#000000" stroke="none" d="M 949,3882 l 0,1 -3,3 -2,0 -28,-28 17,40 0,1 -2,2 -1,0 0,1 -1,0 -40,-18 28,29 1,0 0,1 -2,2 0,1 -3,0 -31,-31 0,-1 1,-1 0,-1 3,-2 1,-1 0,-1 4,0 1,1 33,14 -14,-33 0,-5 1,-1 0,-1 3,-2 0,-1 3,0 31,31 z m 112,-122 l 1,3 0,3 -1,3 -1,2 -4,6 -2,2 -2,1 -1,1 -2,1 -1,0 -1,1 -3,0 -3,-3 0,-1 2,0 1,-1 1,0 4,-2 6,-6 1,-2 0,-3 -1,-2 -1,-1 -1,-2 -1,-1 -2,-1 -3,0 -6,3 -5,5 -2,0 -2,-2 0,-1 5,-5 1,-2 1,-1 0,-3 -2,-4 -3,-3 -1,0 -2,-1 -1,1 -2,0 -2,2 -1,2 -1,1 -1,2 -1,1 0,3 -1,1 -2,0 0,-1 -1,0 0,-2 -1,0 0,-1 1,-1 0,-1 1,-2 1,-1 0,-2 2,-2 1,-2 3,-1
 2,-2 2,-1 4,0 6,3 2,2 2,4 0,5 -1,2 -1,1 4,-2 2,0 2,-1 2,1 2,0 7,7 z m -68,79 l 5,11 0,2 -2,2 0,1 -3,0 0,-1 -5,-11 -1,0 -30,-13 0,-1 -1,0 0,-2 1,0 0,-1 1,0 1,-1 0,-1 1,0 1,1 24,11 1,0 -12,-24 -1,-1 4,-4 1,0 0,1 15,31 z m 46,-50 l 0,1 1,0 0,2 -17,17 -2,0 -2,-2 0,-1 7,-7 -25,-25 -2,10 0,1 -2,0 -2,-2 0,-1 2,-13 1,0 0,-1 1,0 0,-1 1,0 0,-1 1,0 0,-1 0,1 1,0 28,28 6,-6 2,0 0,1 1,0 z m -65,68 l 0,1 -3,3 -3,-3 0,3 -2,6 -2,2 -4,2 -1,1 -2,1 -2,0 -6,-3 -1,-2 -1,-3 -1,-2 2,-4 1,-3 2,-3 5,-5 -5,-5 -3,0 -2,2 -2,1 -1,2 -1,1 -1,2
 -1,1 0,1 -1,1 0,2 -1,0 0,-1 -2,0 0,-2 -1,0 0,-2 1,-1 0,-1 2,-2 1,-2 1,-1 1,-2 3,-2 2,-2 2,-1 4,0 2,1 2,2 2,1 16,16 z m -15,-6 l -6,6 -1,2 0,4 1,1 0,1 4,2 4,-2 2,-2 1,-2 0,-6 -5,-4 z m 45,-47 l 0,2 -11,10 0,1 -1,0 0,-1 -1,-1 -1,0 0,-2 11,-11 1,0 2,2 z"/>
<path fill="#000000" stroke="none" d="M 1192,3790 l 0,2 -17,17 -2,0 0,-1 -1,0 -1,-1 0,-2 7,-7 -25,-24 -2,10 -1,1 -1,0 -2,-2 0,-2 2,-12 1,0 0,-2 1,0 2,-2 1,0 28,29 6,-6 2,0 2,2 z m 17,-34 l 2,2 1,3 1,2 0,3 -2,6 -2,3 -6,6 -2,1 -1,1 -5,0 0,-1 -1,0 -1,-1 0,-2 3,0 1,-1 2,-1 1,-1 2,-1 3,-3 1,-2 1,-1 0,-5 -1,-1 -1,-2 -1,-1 -4,-2 -2,1 -2,0 -2,1 -2,2 -2,1 -3,3 0,1 -1,0 -1,-1 -1,0 0,-1 -1,-1 0,-1 1,0 2,-3 2,-1 2,-4 0,-5 -1,-1 -1,-2 -1,-1 -2,-1 -5,0 -1,1 -2,1 -1,2 -1,1 -1,2 0,1 -1,2 0,3 -1,0 0,-1 -1,0 -2,-2 0,-3 1,-1 0,-2 1,-1 1,-2 1,-1 1,-2 3,-2 2,-2 3,0 2,-1 2,0
 4,2 2,2 1,2 1,1 1,2 0,5 -2,4 6,-3 4,0 6,3 z m -85,102 l 0,2 -1,0 0,1 -1,0 0,1 -1,0 0,1 -1,0 -15,-15 -2,-1 -1,-1 -2,-1 -1,0 -2,1 -1,0 -3,3 -1,2 0,7 16,16 1,0 0,1 -1,0 0,1 -2,2 -2,0 -23,-23 0,-1 1,0 0,-1 1,0 0,-1 1,0 0,-1 1,0 0,1 3,3 0,-4 2,-6 4,-4 2,-1 3,-1 2,0 4,2 3,2 2,2 14,13 z m -28,28 l 1,0 0,1 -1,0 0,1 -1,0 0,1 -1,0 0,1 -1,0 0,-1 -3,-3 0,4 -2,6 -4,4 -4,2 -3,0 -4,-2 -2,-2 -3,-2 -14,-13 0,-2 1,0 0,-1 1,0 0,-1 1,0 0,-1 1,0 14,14 2,1 1,1 2,1 1,1 2,0 1,-1 1,0 1,-1 2,-4 1,-3 -1,-4 -15,-16 -1,0
 0,-1 1,0 0,-1 1,0 0,-1 1,0 0,-1 2,0 22,23 z m -33,22 l 3,6 0,2 -2,4 -2,2 0,1 -1,0 -1,1 -1,0 0,1 -3,0 -3,-3 0,-1 1,0 1,-1 2,0 1,-1 0,-1 1,0 1,-1 0,-3 -27,-27 0,-2 3,-3 1,0 26,26 z m 75,-89 l 1,1 0,2 -1,1 -14,15 3,3 2,1 4,0 4,-2 6,-6 0,-2 1,-1 0,-1 1,0 0,-1 1,0 2,2 0,4 -1,1 -1,2 -4,4 -3,2 -2,2 -6,2 -6,-2 -3,-2 -6,-6 -2,-3 -2,-6 0,-3 1,-3 2,-3 2,-2 3,-2 2,-2 3,-1 3,0 2,1 3,1 2,2 3,1 0,1 z m -5,3 l -3,-2 -4,-2 -3,1 -3,2 -1,2 -1,1 -1,2 0,2 1,2 0,1 2,2 1,2 12,-13 z m 22,-19 l 1,1 0,2 -1,0 -10,11 -2,0 -1,-1 0,-1 -1,-1
 0,-1 11,-10 0,-1 1,0 0,1 2,0 z"/>
<path fill="#000000" stroke="none" d="M 1296,3839 l 5,11 1,1 -1,1 0,1 -2,2 -2,0 0,-1 -5,-11 0,1 -1,0 -1,-1 -30,-13 -1,-1 0,-1 1,0 0,-1 1,-1 1,0 0,-1 1,0 0,-1 1,1 25,11 -12,-24 0,-2 1,0 0,-1 2,-2 1,0 0,1 1,0 14,31 z m 47,-50 l 1,0 0,2 -17,17 0,1 -2,0 0,-1 -1,0 0,-1 -1,0 0,-2 7,-7 -25,-25 -2,10 0,1 -1,1 -1,0 0,-1 -1,0 0,-1 -1,0 0,-2 2,-12 0,-1 1,0 0,-1 1,0 2,-2 1,0 28,29 6,-6 2,0 1,1 z m 18,-33 l 2,2 1,3 1,2 0,3 -1,3 -1,2 -4,6 -4,4 -2,1 -1,1 -5,0 0,-1 -1,0 0,-1 -1,0 0,-2 1,0 2,-1 1,0 2,-1 1,-1 2,-1 3,-3 1,-2 1,-1 0,-6 -3,-3 -4,-2 -2,0 -4,2 -2,2 -2,1 -4,4
 0,-1 -1,0 -2,-2 0,-1 1,0 2,-3 2,-2 1,-2 1,-1 0,-3 -1,-2 -1,-1 -1,-2 -2,-2 -1,0 -1,-1 -1,1 -2,0 -1,1 -2,1 -1,2 -1,1 -1,2 0,1 -1,2 0,2 -2,0 -2,-2 0,-3 1,-1 0,-2 1,-1 1,-2 1,-1 1,-2 3,-2 2,-2 2,-1 5,0 6,3 3,6 0,5 -2,4 2,-1 2,-2 8,0 2,2 2,1 z m -95,112 l 0,2 -1,0 0,1 -1,0 0,1 -2,0 -3,-3 0,4 -2,6 -1,2 -3,2 -2,1 -5,0 -6,-3 -3,-2 -13,-14 -1,0 0,-1 1,0 0,-1 1,0 0,-1 1,0 0,-1 2,0 16,16 2,1 4,0 2,-1 1,-1 2,-4 0,-7 -16,-15 0,-2 3,-3 1,0 23,23 z m 12,-12 l 0,2 -1,0 0,1 -1,0 0,1 -1,0 0,1 -1,0 0,-1 -34,-33 0,-2 1,0 0,-1
 1,-1 1,0 0,-1 1,0 0,1 34,33 z m -44,36 l 1,2 0,6 -1,2 -5,5 -4,0 -2,-2 0,-1 -1,0 1,0 0,-1 2,0 1,-1 1,0 2,-2 0,-4 -2,-2 -1,-2 -24,-23 0,-1 4,-4 28,28 z m 74,-87 l 0,1 -1,0 -11,11 -1,0 -1,-1 0,-1 -1,-1 0,-1 11,-11 1,0 3,3 z"/>
<path fill="#000000" stroke="none" d="M 1338,3946 l 1,0 1,1 0,1 -1,0 0,1 -1,0 0,1 -1,0 -1,1 -1,0 -11,-5 -14,13 6,11 0,2 -1,0 0,1 -1,0 0,1 -1,0 0,1 -1,0 -1,-1 0,-1 -20,-41 0,-2 1,0 1,-1 0,-1 1,0 2,-2 1,0 41,20 z m -41,-13 l 11,22 11,-12 -22,-10 z m 71,-59 l 1,1 0,2 -3,3 2,0 1,1 2,1 1,0 2,3 1,2 0,6 -2,4 -6,6 -2,0 0,1 1,1 0,1 1,0 1,1 1,0 2,-1 1,-1 6,-5 2,-2 4,-2 5,0 2,1 1,1 3,6 0,2 -1,3 -1,2 -4,6 -6,4 -4,2 -4,0 -1,-1 -2,-1 0,-1 -2,-2 0,-6 -5,0 -1,-1 -2,-4 -1,-1 0,-2 -1,-1 -2,0 -2,-1 -2,-2 -3,-6 0,-4 1,-3 2,-2 1,-2 2,-2 1,0 8,-8 2,0 0,1 z m 20,28 l -2,-1 -2,0
 -2,1 -2,2 -6,5 0,5 2,2 2,1 2,0 3,-1 4,-4 1,-2 1,-1 0,-2 1,-1 -1,-2 0,-1 -1,-1 z m 107,-113 l 0,1 1,0 0,1 -18,17 0,1 -1,0 0,-1 -1,0 0,-1 -1,0 0,-2 7,-7 -25,-25 -3,10 0,2 -1,0 -2,-2 0,-1 -1,0 0,-1 3,-12 0,-1 1,0 0,-1 1,-1 1,0 0,-1 1,0 29,29 6,-6 2,0 1,1 z m 18,-33 l 2,2 1,3 1,2 0,3 -1,3 -1,2 -4,6 -3,3 -4,2 -1,1 -4,0 -3,-3 1,-1 1,0 1,-1 1,0 4,-2 3,-3 2,-1 2,-4 0,-3 -1,-2 0,-1 -2,-2 -4,-2 -2,0 -4,2 -2,2 -2,1 -3,3 -2,0 -1,-1 -1,0 0,-2 5,-5 1,-2 1,-1 0,-3 -1,-2 -1,-1 -1,-2 -2,-2 -1,0 -2,-1 -1,1 -1,0 -1,1 -2,1 -1,2 -1,1
 -1,2 -1,1 0,4 -2,0 -2,-2 0,-4 1,-2 1,-1 0,-2 3,-3 3,-2 2,-2 2,-1 4,0 6,3 2,2 2,4 0,5 -2,4 2,-1 2,-2 8,0 2,2 2,1 z m -149,167 l 0,1 -1,0 0,1 -1,0 0,1 -2,0 -3,-3 0,4 -2,6 -4,4 -3,1 -6,0 -2,-1 -2,-2 -3,-2 -14,-14 0,-2 1,0 0,-1 1,0 1,-1 1,0 14,13 3,3 2,1 4,0 2,-2 2,-4 1,-3 -1,-3 -15,-16 -1,0 0,-1 4,-4 1,0 0,1 23,23 z m 51,-52 l 0,2 -1,0 0,1 -1,0 0,1 -1,0 -4,-4 0,7 -1,3 -4,4 -3,1 -2,1 -2,0 -2,-1 -3,-1 -4,-4 -14,-13 0,-2 3,-3 1,0 13,14 6,3 1,1 1,0 1,-1 2,0 1,-1 2,-4 0,-7 -16,-16 0,-2 1,0 0,-1 1,0 1,-1 1,0 23,23 z m
 38,-42 l 1,1 0,3 -1,1 0,1 -1,0 0,1 -1,0 -1,2 -4,2 -2,0 -1,-1 -4,-2 -15,-15 -4,4 0,-1 -1,0 -1,-1 -1,0 0,-2 3,-3 -5,-6 0,-2 1,0 0,-1 1,0 0,-1 2,0 6,5 5,-5 1,0 0,-1 1,1 1,0 0,1 1,1 0,1 -6,6 13,13 4,2 2,0 2,-1 0,-1 1,0 0,-2 1,0 0,-1 1,1 1,0 z m -22,14 l 1,2 1,1 1,2 0,2 -1,3 -2,4 -5,5 -2,0 -1,1 -1,0 0,1 -2,0 0,-1 -1,0 -2,-2 0,-1 1,0 0,-1 2,0 2,-1 1,-1 2,-1 3,-3 0,-2 1,-1 -1,-1 0,-1 -2,-2 -4,0 -1,1 -1,0 -1,1 -2,0 -1,1 -2,0 -1,1 -4,0 -2,-1 -1,-1 -2,-1 -1,-1 -1,-2 0,-6 2,-4 4,-4 1,0 1,-1 1,0 1,-1 2,0
 0,1 1,0 1,1 0,2 -1,0 -1,1 -1,0 -2,1 -1,1 -1,0 -1,2 -1,1 0,3 1,1 0,1 1,1 6,0 1,-1 1,0 1,-1 2,-1 2,0 2,-1 3,0 1,1 2,1 1,1 z m -63,43 l -2,-1 -3,-1 -2,1 -3,1 -1,2 -1,1 0,4 2,2 0,1 3,2 2,1 3,-1 4,-4 0,-4 -1,-1 0,-1 -1,-2 z m 91,-82 l 0,2 -11,11 -1,0 -2,-2 0,-2 11,-11 1,0 2,2 z"/>
<path fill="#000000" stroke="none" d="M 1533,3904 l 1,0 0,1 -2,2 0,1 -3,0 -17,-17 -5,0 -1,1 -1,0 -2,4 0,7 16,16 0,1 -3,3 -1,0 -15,-15 -2,-1 -1,-1 -2,0 -1,-1 -2,1 -1,0 -1,1 -2,4 0,7 16,16 0,1 -3,3 -1,0 -23,-23 0,-2 1,0 0,-1 1,0 0,-1 2,0 3,3 0,-7 2,-2 1,-2 2,-1 1,-1 2,-1 1,-1 3,0 2,1 1,0 -1,-2 1,-2 0,-3 1,-1 0,-2 2,-2 2,-1 2,-2 5,0 2,1 2,0 18,18 z m 135,-144 l 1,3 0,3 -1,3 -1,2 -4,6 -3,3 -4,2 -1,0 -1,1 -3,0 -3,-3 0,-1 1,0 1,-1 2,0 4,-2 6,-6 1,-2 0,-3 -1,-2 -1,-1 -1,-2 -1,-1 -2,-1 -3,0 -6,3 -5,5 -2,0 -2,-2 0,-1 5,-5 1,-2 1,-1 0,-4 -1,-2 -1,-1 -1,-2 -1,0 -2,-2
 -3,0 -2,2 -2,1 -1,2 -1,1 -1,2 -1,1 0,4 -3,0 0,-1 -1,-1 0,-1 -1,0 0,-1 1,0 0,-2 1,-2 1,-1 0,-2 2,-2 1,-2 3,-1 2,-2 2,-1 4,0 6,3 2,2 2,4 0,5 -1,2 -1,1 4,-2 2,0 2,-1 2,1 2,0 7,7 z m -115,107 l 2,3 2,6 0,5 -2,3 -5,5 -1,0 -1,1 -6,0 3,3 0,1 -1,0 0,1 -1,1 -1,0 0,1 -1,0 0,-1 -34,-33 0,-2 1,0 1,-1 0,-1 1,0 1,-1 14,14 0,-4 1,-1 0,-2 1,-1 0,-1 2,-2 3,-2 2,-1 3,-1 3,0 2,2 3,1 3,2 5,5 z m -7,2 l -1,-2 -8,-4 -2,0 -1,1 -2,1 -2,2 0,2 -1,2 0,5 9,9 4,1 3,-1 4,-2 1,-1 1,-2 0,-4 -2,-4 -3,-3 z m 100,-80 l 1,1 0,2 -17,17
 -2,0 -2,-2 0,-2 7,-6 -25,-25 -2,10 0,1 -2,0 -2,-2 0,-1 2,-13 1,0 0,-1 1,0 0,-1 1,0 0,-1 1,0 0,-1 29,29 6,-6 2,0 0,1 1,0 z m -254,244 l 1,2 1,3 0,3 -1,3 -1,2 -2,3 -6,6 -2,1 -1,1 -5,0 -2,-2 0,-1 -1,0 0,-1 1,0 1,-1 3,0 2,-1 1,-1 2,-1 3,-3 1,-2 1,-1 0,-5 -3,-3 -2,-1 -5,0 -4,2 -2,0 -2,1 -2,0 -2,1 -5,0 -4,-2 -2,-2 -1,-2 -2,-2 0,-7 1,-3 8,-8 2,0 1,-1 3,0 0,1 1,0 0,1 1,0 0,2 -1,1 -2,0 -1,1 -2,0 -5,5 0,2 -1,1 0,2 2,2 0,1 2,1 1,0 2,1 2,-1 2,0 1,-1 2,0 4,-2 2,0 3,-1 4,0 4,2 4,4 z m 50,-55 l 2,3 2,6 0,5
 -2,3 -5,5 -1,0 -1,1 -5,0 11,11 0,3 -1,0 0,1 -1,0 -1,1 -1,0 0,-1 -32,-31 0,-2 1,0 0,-1 1,0 0,-1 2,0 3,3 0,-4 1,-1 0,-2 1,-1 0,-2 2,-2 3,-2 2,-1 3,-1 3,0 2,2 3,1 3,2 5,5 z m -7,2 l -1,-2 -8,-4 -2,0 -1,1 -2,1 -2,2 0,2 -1,2 0,5 9,9 4,1 3,-1 4,-2 1,-1 1,-2 0,-4 -2,-4 -3,-3 z m 34,-11 l 0,1 -1,0 0,2 -1,0 0,1 -1,1 -4,2 -1,1 -4,0 -2,-1 -17,-17 -3,4 -1,0 -3,-3 4,-4 -6,-5 0,-2 1,0 0,-1 1,0 0,-1 1,0 0,-1 2,0 5,6 6,-6 1,0 2,2 0,1 -6,6 15,15 2,1 2,0 2,-2 1,0 0,-2 1,0 0,-1 1,0 3,3 z m 107,-130 l 0,1 -16,16 2,2 4,2
 6,0 2,-1 6,-6 0,-2 1,-1 0,-1 1,-1 0,-1 1,0 0,1 1,0 1,1 0,4 -1,1 -1,2 -1,1 -1,2 -2,2 -6,4 -2,1 -3,0 -6,-2 -3,-2 -4,-2 -4,-6 -1,-4 -1,-3 0,-3 1,-3 2,-2 2,-3 3,-2 2,-2 8,0 3,1 6,6 z m -6,2 l -3,-3 -4,-1 -3,1 -3,2 -1,2 -1,1 -1,2 0,1 1,2 0,2 1,2 1,1 13,-12 z m -88,92 l 0,2 -1,0 -15,15 2,2 6,3 2,0 4,-2 6,-6 0,-2 1,-1 0,-2 3,0 0,1 1,0 0,4 -1,1 -1,2 -1,1 -1,2 -2,2 -6,4 -3,1 -3,0 -6,-2 -6,-4 -4,-6 -2,-6 0,-3 1,-3 3,-6 3,-2 6,-2 2,0 3,1 2,0 3,2 4,4 z m -6,2 l -4,-3 -3,-1 -3,1 -3,2 -3,3 0,6 1,1 1,2 1,1 13,-12 z m -65,67 l
 1,1 0,1 -1,1 -14,15 3,3 2,1 6,0 2,-1 6,-6 0,-2 1,-1 0,-1 1,-1 0,-1 1,0 0,1 1,0 1,1 0,4 -1,1 -1,2 -7,7 -3,2 -2,1 -3,0 -6,-2 -3,-2 -4,-3 -2,-2 -2,-4 -2,-6 0,-3 1,-3 2,-2 2,-3 3,-2 2,-2 8,0 3,1 2,2 3,2 0,1 z m -5,2 l -3,-2 -4,-1 -3,0 -3,2 -3,6 0,1 1,2 0,2 1,2 1,1 13,-13 z m 181,-194 l 0,1 1,0 -1,1 -1,0 0,1 -1,0 -2,2 0,1 -1,1 0,3 1,2 0,2 15,15 0,3 -1,0 -2,2 -1,0 0,-1 -23,-22 0,-1 1,-1 0,-1 1,0 0,-1 2,0 3,3 0,-7 1,-1 0,-1 1,0 0,-1 1,-1 1,0 0,-1 1,0 1,-1 0,1 1,0 2,2 z m 24,-6 l 0,2 -11,10 0,1 -1,0 0,-1
 -1,-1 -1,0 0,-2 11,-11 1,0 2,2 z"/>
<path fill="#000000" stroke="none" d="M 1608,3957 l 4,8 1,4 0,4 -1,4 -2,4 -7,7 -4,2 -8,2 -4,-1 -4,-2 -8,-6 -6,-8 -2,-8 0,-4 1,-4 2,-4 3,-4 4,-3 4,-2 4,-1 3,-1 4,1 8,4 8,8 z m -8,1 l -3,-3 -3,-2 -6,-2 -2,-1 -3,1 -6,4 -4,6 0,6 1,2 1,3 3,3 2,3 3,3 3,2 2,1 6,2 3,-1 6,-4 4,-6 0,-6 -1,-3 -2,-3 -2,-2 -2,-3 z m 216,-203 l 2,3 2,2 1,3 0,2 -2,6 -4,6 -4,2 -1,1 -2,1 -1,1 -1,0 -1,1 -2,0 0,-1 -1,0 -1,-1 0,-1 -1,0 0,-1 1,0 1,-1 1,0 1,-1 2,0 2,-1 6,-6 1,-2 0,-3 -1,-2 -1,-1 -1,-2 -1,-1 -2,-1 -3,0 -2,1 -2,0 -7,7 -2,0 -2,-2 0,-2 3,-2 2,-2 1,-2 1,-1 0,-4 -1,-2 -1,-1 -1,-2 -1,0
 -2,-2 -3,0 -2,2 -2,1 -1,2 -1,1 -1,2 -1,1 0,3 -1,1 -1,0 -1,-1 0,-1 -1,0 0,-1 -1,0 0,-1 1,-1 0,-2 2,-2 0,-2 2,-2 1,-2 3,-1 2,-2 2,-1 6,0 2,2 2,1 3,3 1,2 0,6 -1,2 -1,1 6,-3 4,0 4,2 1,1 z m -18,34 l 0,1 1,0 0,2 -17,17 -2,0 -2,-2 0,-2 7,-7 -25,-24 -2,10 0,1 -2,0 -2,-2 0,-2 2,-12 3,-3 1,0 0,-1 1,0 28,29 6,-6 2,0 1,1 z m -93,78 l 2,3 2,6 0,5 -2,3 -5,5 -1,0 -1,1 -6,0 3,2 0,2 -1,0 0,1 -1,1 -2,0 -34,-34 0,-1 1,0 0,-1 1,0 0,-1 1,0 0,-1 1,0 14,14 0,-4 1,-1 0,-2 1,-1 0,-1 2,-2 3,-2 2,-2 6,0 2,1 3,1 8,8 z m -10,-2 l
 -4,-2 -4,0 -1,1 -2,1 -2,2 0,1 -1,1 0,7 9,9 7,0 4,-2 1,-1 1,-2 0,-4 -3,-6 -5,-5 z m -20,26 l 3,2 2,3 1,4 1,3 0,3 -1,3 -4,6 -6,4 -3,1 -3,0 -6,-2 -6,-4 -4,-6 -2,-6 0,-3 1,-4 4,-6 6,-4 3,0 3,-1 6,2 3,2 2,3 z m -7,1 l -4,-2 -5,0 -2,2 -2,1 -3,6 1,2 0,2 1,2 2,2 1,2 2,2 6,3 4,0 2,-1 4,-4 1,-2 0,-6 -1,-2 -7,-7 z m 59,-55 l 1,1 0,2 -16,16 2,2 4,2 4,0 6,-3 2,-2 1,-2 1,-1 0,-1 1,-1 0,-1 1,-1 0,-1 1,0 0,1 1,0 1,1 0,4 -1,1 -1,2 -7,7 -3,1 -2,1 -3,1 -3,-1 -4,-1 -3,-2 -3,-3 -4,-6 -2,-6 0,-3 1,-3 2,-2 2,-3 2,-2 3,-2 3,-1
 2,0 6,2 4,4 1,0 z m -5,3 l -3,-2 -4,-1 -3,0 -3,2 -3,6 0,1 1,2 0,2 1,2 1,1 13,-13 z m -63,87 l 0,1 1,0 0,3 -2,2 0,1 -1,0 -3,3 -5,0 -4,-2 -15,-15 -4,3 -1,0 -2,-2 0,-1 3,-4 -5,-5 -1,0 0,-1 1,0 0,-1 1,0 0,-1 1,0 0,-1 2,0 5,5 6,-6 2,0 0,1 1,0 1,1 0,2 -6,6 12,12 3,2 2,1 2,0 3,-3 0,-1 1,-1 1,0 0,1 1,0 z m -20,16 l 1,0 0,1 1,0 0,4 -1,1 0,1 -1,2 -5,5 -3,2 -3,1 -2,0 -6,-2 -3,-2 -6,-6 -2,-3 -1,-4 -1,-3 1,-2 0,-3 2,-3 5,-5 1,0 2,-1 5,0 0,1 2,2 -1,1 -3,0 -1,1 -2,0 -1,1 -2,1 -2,4 0,3 1,5 6,6 6,3 2,0 4,-2
 2,-2 1,-2 1,-1 0,-4 1,-1 0,-1 1,0 0,1 1,1 z m 99,-134 l 1,0 0,1 1,1 -1,0 0,1 -1,0 0,1 -2,0 0,1 -1,1 0,1 -1,1 0,3 1,2 0,2 15,15 0,3 -1,0 -1,1 -2,0 -23,-22 0,-2 1,0 0,-1 1,0 0,-1 2,0 3,3 0,-8 2,-2 0,-1 1,0 0,-1 2,0 0,-1 2,0 0,1 1,0 0,1 z m 25,-5 l 0,1 -11,11 -1,0 -1,-1 -1,0 0,-2 11,-11 1,0 2,2 z"/>
<path fill="#000000" stroke="none" d="M 1718,4021 l 0,1 1,1 0,1 -1,0 0,1 -2,1 0,1 -1,0 -1,1 -1,0 -1,-1 -3,0 -28,-9 -2,0 -3,-1 -2,-1 -3,-1 8,8 20,19 0,2 -1,0 0,1 -1,0 0,1 -1,0 0,1 -2,0 -31,-31 0,-2 1,0 0,-1 3,-3 1,0 1,-1 3,0 1,1 22,6 2,1 2,0 2,1 1,1 2,0 4,2 1,0 -26,-26 0,-1 2,-2 1,0 0,-1 1,0 0,-1 31,31 z m 119,-117 l 0,2 -1,1 -1,0 0,1 -2,0 -15,-15 -2,-1 -1,-1 -2,0 -1,-1 -1,1 -1,0 -2,1 -1,2 0,2 -1,3 1,4 16,16 0,1 -1,0 0,1 -1,0 0,1 -1,0 0,1 -2,0 -17,-17 -2,-1 -3,0 -2,2 -2,4 0,6 16,16 0,2 -1,0 0,1 -1,0 0,1 -1,0 0,1 -1,0 0,-1 -23,-22 0,-2 1,0 0,-1
 1,0 0,-1 2,0 3,3 0,-7 2,-2 1,-3 2,-1 1,-1 2,0 1,-1 2,0 2,1 1,0 0,-4 1,-2 0,-2 1,-1 0,-1 4,-4 4,-2 2,0 3,1 2,1 2,2 2,1 14,15 z m 113,-115 l 0,1 1,0 0,2 -17,17 -2,0 0,-1 -1,0 -1,-1 0,-2 7,-7 -25,-24 -2,10 -1,0 0,1 -2,0 0,-1 -1,0 0,-2 -1,0 0,-1 3,-12 0,-1 1,0 0,-1 1,0 1,-1 0,-1 2,0 28,29 6,-6 2,0 0,1 1,0 z m 18,-33 l 2,2 1,3 1,2 0,3 -2,6 -2,3 -5,5 -4,2 -1,1 -4,0 -1,-1 -1,0 0,-1 -1,-1 1,-1 2,0 4,-2 1,-1 2,-1 1,-2 2,-1 1,-2 1,-1 0,-3 -1,-2 0,-1 -1,-2 -1,-1 -4,-2 -2,1 -2,0 -2,1 -2,2 -2,1 -3,3 0,1 -1,0 -1,-1
 -1,0 0,-1 -1,0 0,-2 6,-6 1,-2 0,-3 -1,-2 -1,-1 -1,-2 -2,-2 -5,0 -1,1 -2,1 -1,2 -1,1 -1,2 -1,1 0,4 -1,0 0,1 -2,-2 -1,0 0,-5 1,-2 1,-1 1,-2 1,-1 1,-2 3,-2 2,-2 2,0 2,-1 3,0 4,2 1,2 3,3 1,2 0,5 -2,4 6,-3 4,0 6,3 z m -111,111 l 2,3 1,3 1,2 0,3 -2,6 -5,5 -3,0 -2,1 -3,0 3,2 0,2 -1,0 0,1 -1,0 0,1 -2,0 -34,-34 0,-1 2,-2 1,0 0,-1 1,0 14,14 0,-4 1,-1 0,-2 1,-1 0,-1 4,-4 3,-2 5,0 6,2 8,8 z m -10,-2 l -4,-2 -4,0 -1,1 -2,1 -2,2 0,1 -1,1 0,7 9,9 7,0 4,-2 2,-4 0,-3 -3,-6 -5,-5 z m -96,80 l 0,1 14,30 0,2 -1,0 0,1 -1,0
 0,1 -1,1 -1,0 0,1 -1,0 -1,-1 -29,-13 0,-1 -1,0 -1,-1 1,0 0,-1 1,0 0,-1 1,-1 1,0 0,-1 1,0 25,13 1,0 0,-1 -13,-25 0,-1 3,-3 2,0 z m 128,-108 l 1,1 0,2 -16,16 2,2 4,2 4,0 4,-2 6,-6 0,-1 1,-1 0,-2 1,-1 1,0 1,1 0,1 1,0 0,4 -1,1 -1,2 -4,4 -6,4 -6,2 -6,-2 -3,-2 -3,-3 -4,-6 -2,-6 0,-3 1,-3 2,-3 4,-4 3,-2 3,-1 2,0 3,1 2,1 3,2 2,2 1,0 z m -5,3 l -4,-2 -3,-1 -3,0 -3,2 -1,2 -2,2 0,5 1,1 2,4 13,-13 z m -137,141 l 4,6 2,6 0,3 -1,3 -4,6 -6,4 -3,1 -6,0 -3,-2 -2,-2 -3,-2 -3,-3 -2,-3 -2,-6 1,-3 0,-3 2,-3 5,-5 3,-2 3,-1 6,0 3,1 3,2
 3,3 z m -4,4 l -2,-1 -2,-2 -2,-1 -2,0 -2,-1 -6,3 -1,2 -2,2 0,4 3,6 6,6 2,1 2,0 2,1 4,-2 3,-3 2,-4 0,-2 -1,-2 -1,-3 -1,-2 -2,-2 z m 53,-52 l 0,1 -16,16 2,2 4,2 6,0 2,-1 3,-3 1,-2 1,-1 1,-2 1,-1 0,-2 1,-1 1,1 1,0 0,1 1,0 0,3 -2,2 -1,2 -1,1 -1,2 -4,4 -3,2 -3,1 -3,0 -6,-2 -3,-2 -5,-5 -3,-4 -1,-3 0,-6 1,-3 1,-2 2,-3 6,-4 8,0 2,1 3,2 4,4 z m -7,1 l -3,-2 -3,-1 -4,0 -3,2 -2,4 0,5 2,4 1,1 12,-13 z m 111,-125 l 1,0 0,3 -2,0 0,1 -1,0 0,1 -2,2 0,4 1,2 0,2 15,15 0,2 -1,0 0,1 -1,1 -2,0 -23,-23 0,-1 1,0 0,-1 1,-1 1,0 0,-1 4,4
 0,-8 1,-1 0,-1 1,-1 1,0 0,-1 1,0 1,-1 1,0 2,2 z m 23,-6 l 1,1 0,2 -10,11 -2,0 -2,-2 0,-2 11,-10 0,-1 1,0 0,1 1,0 z"/>
<path fill="#000000" stroke="none" d="M 1989,3904 l 0,1 -1,1 0,1 -1,0 -1,1 -1,0 -15,-15 -2,-1 -1,-1 -2,-1 -1,0 -1,1 -1,0 -2,1 -2,4 0,7 16,15 0,1 1,0 -1,0 0,2 -1,0 0,1 -1,0 0,1 -2,0 -17,-17 -1,0 -1,-1 -3,0 -1,1 -2,1 -1,2 0,2 -1,3 1,3 16,16 0,2 -1,0 0,1 -1,0 0,1 -2,0 0,1 -23,-23 0,-1 -1,0 3,-3 1,0 3,3 0,-4 1,-3 1,-2 2,-3 2,-1 1,-1 1,0 1,-1 5,0 1,1 0,-4 1,-2 0,-3 2,-2 0,-1 3,-2 4,-2 2,0 3,1 2,1 2,2 2,1 14,15 z m -129,97 l 6,8 1,5 1,4 -2,8 -2,4 -12,12 -1,0 -1,-1 -30,-29 0,-4 8,-7 4,-4 4,-2 8,-2 8,2 4,2 4,4 z m -5,5 l -2,-3 -3,-2 -6,-2 -3,1 -4,0 -3,2 -7,7
 25,26 4,-5 3,-3 2,-3 1,-3 0,-3 -2,-6 -2,-3 -3,-3 z m 266,-248 l 2,3 1,2 0,3 -2,6 -2,2 -2,3 -2,2 -2,1 -1,1 -2,1 -1,1 -4,0 -1,-1 -1,0 0,-1 -1,-1 0,-1 3,0 1,-1 6,-3 1,-2 4,-4 0,-4 -1,-2 -3,-3 -2,-1 -1,-1 -2,0 -4,2 -2,2 -2,1 -4,4 -1,0 0,-1 -1,0 0,-1 -1,0 0,-2 6,-6 1,-2 0,-3 -1,-2 -1,-1 -1,-2 -2,-2 -5,0 -1,1 -2,1 -1,2 -1,1 -1,2 -1,1 0,4 -1,0 0,1 -1,-1 -1,0 0,-1 -1,0 0,-2 -1,0 1,-1 0,-2 1,-2 1,-1 0,-2 3,-3 3,-2 2,-2 2,0 2,-1 2,0 4,2 5,5 1,2 0,5 -2,4 2,-1 2,-2 6,0 4,2 3,3 z m -19,31 l 0,1 1,0 0,1 -18,18 -1,0 -2,-2 0,-2
 7,-7 -25,-25 -3,11 0,1 -1,0 -1,-1 -1,0 0,-1 -1,-1 0,-1 3,-12 0,-1 1,0 0,-1 1,0 0,-1 1,0 0,-1 1,0 29,29 6,-6 2,0 0,1 1,0 z m -93,77 l 2,3 2,6 0,3 -2,6 -5,5 -5,0 -1,1 -2,0 3,3 -1,1 0,1 -1,0 0,1 -2,0 -34,-34 0,-1 1,-1 0,-1 1,0 0,-1 2,0 14,14 0,-5 1,-2 0,-1 2,-2 1,-2 2,-1 3,-2 5,0 6,2 3,2 5,5 z m -7,2 l -2,-1 -3,-3 -2,-1 -4,0 -4,2 0,1 -1,1 0,1 -1,1 0,7 9,9 7,0 4,-2 2,-4 0,-3 -3,-6 -2,-2 z m -65,63 l 0,4 -15,15 2,2 4,2 5,0 3,-1 2,-2 2,-4 2,-2 0,-1 1,-1 0,-2 2,0 0,1 1,0 0,1 1,1 0,1 -1,1 0,1 -1,1 -1,2 -1,1
 -1,2 -2,1 -2,3 -3,2 -3,1 -3,0 -6,-2 -3,-2 -6,-6 -2,-3 -1,-3 0,-9 2,-2 2,-3 6,-4 2,0 3,-1 3,1 2,1 3,2 2,2 1,0 z m -6,3 l -3,-2 -3,-1 -4,0 -3,2 -2,4 0,5 2,4 1,1 12,-13 z m 101,-96 l 0,2 -16,16 2,2 4,2 4,0 4,-2 3,-3 1,-2 1,-1 1,-2 1,-1 0,-1 1,-1 1,0 1,1 0,1 1,0 0,2 -1,2 -1,1 0,2 -4,4 -6,4 -6,2 -6,-2 -3,-2 -3,-3 -6,-9 0,-6 2,-6 2,-2 6,-4 3,-1 2,0 3,1 2,1 3,2 2,1 2,2 z m -7,2 l -6,-4 -3,1 -4,2 -1,2 -1,1 0,6 1,1 2,4 12,-13 z m -135,140 l 0,2 -16,16 2,2 4,2 4,0 4,-2 3,-3 1,-2 1,-1 1,-2 1,-1 0,-1 1,-1 1,0 1,1 0,1 1,0
 0,2 -1,2 -1,1 0,2 -4,4 -6,4 -6,2 -6,-2 -3,-2 -3,-3 -6,-9 0,-6 2,-6 2,-2 6,-4 3,-1 2,0 3,1 2,1 3,2 2,1 2,2 z m -7,2 l -6,-4 -3,1 -4,2 -1,2 -1,1 0,6 1,1 2,4 12,-13 z m 37,-17 l 2,2 0,3 -1,1 0,1 -1,2 -1,1 -1,2 -3,3 -6,2 -2,0 -6,-2 -6,-4 -3,-4 -2,-3 -2,-6 1,-3 0,-3 2,-2 2,-3 2,-2 2,0 1,-1 1,0 1,-1 3,0 0,1 1,0 2,2 0,1 -2,0 -1,1 -2,0 -2,1 -1,1 -2,1 -2,3 0,4 1,4 6,6 6,3 4,0 2,-1 2,-2 1,-2 1,-1 0,-5 1,0 0,-1 2,0 0,1 z m 122,-155 l 0,1 1,0 0,1 -1,0 -1,1 -1,0 -2,2 0,2 -1,1 0,3 1,2 0,2 15,15 0,2 -1,0 -2,2
 -1,0 -23,-23 0,-2 1,0 0,-1 1,0 0,-1 2,0 3,4 0,-8 2,-2 0,-1 1,0 0,-1 1,0 1,-1 2,0 2,2 z m 23,-7 l 1,1 0,2 -11,11 -1,0 -2,-2 0,-2 11,-10 0,-1 1,0 0,1 1,0 z"/>
<path fill="#000000" stroke="none" d="M 2206,3839 l 6,12 0,1 -2,2 0,1 -3,0 -5,-11 -1,0 0,-1 -30,-13 -1,0 0,-2 1,-1 0,-1 1,0 0,-1 3,0 24,12 -12,-25 0,-2 1,0 2,-2 1,0 0,-1 0,1 1,0 0,1 14,30 z m 48,-49 l 0,2 -17,17 -2,0 0,-1 -1,0 0,-1 -1,-1 0,-1 1,0 6,-7 -24,-24 -3,10 0,1 -2,0 0,-1 -1,0 0,-1 -1,0 0,-2 3,-12 0,-1 3,-3 1,0 29,29 6,-6 1,0 2,2 z m -109,109 l 1,1 -1,0 0,2 -1,0 0,1 -3,0 -3,-3 0,7 -1,3 -4,4 -3,1 -6,0 -3,-1 -18,-18 0,-2 1,0 0,-1 1,0 0,-1 2,0 15,15 4,2 4,0 2,-2 2,-4 0,-6 -16,-16 0,-2 1,0 1,-1 0,-1 1,0 1,-1 1,0 22,23 z m -27,27 l 0,3 -1,0 0,1 -1,0 -1,1 -1,0 0,-1
 -13,-13 -2,-1 -2,-2 -1,0 -2,-1 -2,0 -1,1 -2,1 -2,4 0,7 16,16 0,1 -2,2 -1,0 0,1 -1,0 -23,-23 0,-2 1,0 0,-1 1,0 0,-1 2,0 3,3 0,-7 2,-2 1,-3 3,-1 2,-2 4,0 3,1 4,2 16,16 z m 155,-172 l 1,1 0,2 -4,4 7,7 0,1 -1,0 0,1 -2,2 -1,0 -7,-7 -14,13 0,1 -2,0 0,-1 -1,0 0,-1 -1,0 0,-1 -1,-1 0,-1 -8,-31 0,-2 1,0 0,-1 1,0 0,-1 2,-2 1,0 0,-1 2,0 20,21 4,-4 1,0 1,1 1,0 z m -29,-10 l 8,28 10,-11 -18,-17 z m -184,229 l 3,6 0,2 -3,6 -1,1 -1,0 -1,1 -1,0 0,1 -3,0 -2,-2 0,-1 -1,0 0,-1 2,0 0,-1 2,0 3,-3 0,-3 -27,-27 0,-2 1,0 0,-1 1,-1 1,0 0,-1 1,0
 26,26 z m 32,-19 l -3,3 -1,0 -3,-2 0,5 -1,3 -4,4 -4,2 -4,0 -2,-1 -1,-1 -2,-1 -1,-2 -2,-2 0,-5 1,-2 1,-3 8,-8 -3,-3 -2,-1 -1,0 -1,-1 -1,1 -2,0 -1,1 -2,1 -1,2 -1,1 0,2 -2,2 0,2 -1,1 -1,0 0,-1 -1,0 -1,-1 0,-3 1,-1 0,-2 1,-1 1,-2 1,-1 1,-2 3,-2 2,-1 3,-1 4,0 4,2 18,18 z m -15,-7 l -4,4 -1,2 -1,1 -1,2 -1,1 0,2 1,2 1,1 2,1 2,0 4,-2 3,-6 0,-3 -5,-5 z m 93,-73 l 0,3 -1,0 0,1 -3,0 -2,-2 0,3 -1,3 -1,2 -5,5 -2,1 -6,0 -5,-5 -1,-2 0,-4 1,-3 1,-2 4,-6 4,-3 -3,-3 -2,-1 -5,0 -1,1 -2,1 -1,2 -1,1 -1,2 0,1 -1,2 0,2 -3,0 0,-1 -1,0 0,-4 1,-1
 0,-2 1,-1 1,-2 2,-2 3,-2 2,-2 2,-1 5,0 2,1 2,2 2,1 15,15 z m -14,-6 l -7,7 0,2 -1,1 0,3 2,2 2,1 4,0 3,-3 1,-2 0,-6 -4,-5 z m 15,-34 l 0,1 -1,1 -1,0 -1,1 -1,0 0,1 -1,1 0,7 1,2 15,15 0,1 -3,3 -2,0 -22,-23 -1,0 1,-1 0,-1 1,0 2,-2 4,4 0,-2 -1,-2 0,-1 1,-2 0,-2 3,-3 1,0 0,-1 2,0 3,3 z m 46,-31 l 1,1 0,2 -11,11 -1,0 -3,-3 12,-12 1,0 0,1 1,0 z"/>
<path fill="#000000" stroke="none" d="M 2405,3789 l 0,1 1,1 0,1 -1,0 -17,17 -2,0 0,-1 -1,-1 0,-1 7,-7 -25,-25 -3,10 0,1 -2,0 0,-1 -1,0 0,-1 -1,0 0,-1 3,-13 3,-3 1,0 0,-1 0,1 29,28 6,-6 2,0 0,1 1,0 z m -47,50 l 6,11 0,2 -2,2 0,1 -3,0 0,-1 -5,-11 -1,0 -30,-13 -1,-1 0,-2 1,0 0,-1 1,0 0,-1 1,0 0,-1 1,0 0,1 1,0 24,11 -12,-24 0,-2 1,0 3,-3 1,1 14,31 z m -116,92 l 3,3 2,3 2,6 0,3 -1,2 -1,3 -2,3 -1,1 -1,0 -1,1 -2,0 -1,1 -5,0 2,3 1,0 0,1 -1,0 0,1 -1,1 -1,0 0,1 -1,0 -34,-34 0,-2 1,0 0,-1 1,0 0,-1 1,0 0,-1 1,0 0,1 14,13 0,-5 1,-1 0,-1 1,-2 4,-4 6,-2 2,1 6,2
 2,2 3,2 z m -4,5 l -2,-1 -3,-3 -4,-2 -2,0 -4,2 0,1 -1,1 0,2 -1,1 0,7 9,9 7,0 2,-1 3,-3 1,-2 0,-4 -2,-4 -3,-3 z m -66,31 l 0,1 -1,0 -12,12 12,11 11,-11 2,0 0,1 1,0 0,1 1,0 0,1 -12,12 14,13 0,2 -1,0 0,1 -1,0 0,1 -1,0 0,1 -2,0 -30,-30 0,-1 -1,-1 1,-1 0,-1 15,-15 1,0 3,3 z m 125,-67 l 0,1 -1,0 0,1 -1,1 -1,0 0,1 -1,0 0,-1 -3,-3 0,4 -2,6 -4,4 -4,2 -3,0 -4,-2 -2,-2 -3,-2 -14,-14 0,-1 1,0 0,-1 1,0 0,-1 1,0 0,-1 2,0 16,16 2,1 1,1 2,0 1,-1 2,0 1,-1 1,-2 1,-3 0,-6 -16,-16 -1,0 0,-1 1,0 0,-1 1,0 0,-1 1,0 0,-1 2,0 23,23 z m 129,-145 l
 0,2 -4,3 7,7 0,2 -1,0 0,1 -1,0 0,1 -1,0 0,1 -1,0 -7,-7 -14,13 0,1 -1,0 -3,-3 0,-1 -1,0 0,-1 -8,-31 0,-2 1,0 0,-1 1,-1 0,-1 1,0 1,-1 1,0 0,-1 2,0 20,21 4,-4 2,0 2,2 z m -30,-12 l 8,29 10,-11 -18,-18 z m -74,131 l 0,2 -2,2 -2,0 -2,-2 0,3 -1,2 -1,3 -5,5 -2,1 -4,0 -2,-1 -1,-1 -2,-1 -2,-2 -1,-2 0,-5 1,-2 1,-3 2,-2 2,-3 4,-3 -3,-3 -2,-1 -1,0 -1,-1 -1,1 -2,0 -1,1 -2,1 -1,2 -1,1 -1,2 0,1 -1,1 0,2 -1,1 -1,0 -1,-1 -1,0 0,-4 1,-1 0,-2 1,-1 1,-2 1,-1 1,-2 3,-2 4,-2 5,0 4,2 17,17 z m -14,-6 l -7,7 0,2 -1,1 0,2 1,2 1,1 2,1 2,0 4,-2
 2,-4 0,-5 -4,-5 z m -93,91 l 0,2 -1,0 -15,15 2,2 4,2 6,0 2,-1 3,-3 1,-2 1,-1 1,-2 1,-1 0,-2 1,0 0,-1 1,1 1,0 0,1 1,1 0,2 -1,1 0,1 -1,2 -1,1 -1,2 -2,2 -6,4 -3,1 -3,0 -6,-2 -6,-4 -4,-6 -1,-3 -1,-4 0,-3 4,-8 6,-4 8,0 2,1 3,2 4,4 z m -7,2 l -3,-3 -3,-1 -3,1 -4,2 -1,2 -1,1 0,5 2,4 1,1 12,-12 z m 114,-129 l 0,1 1,1 0,1 -1,0 0,1 -2,0 0,1 -1,0 0,1 -1,1 0,7 1,2 15,15 0,1 -1,0 0,1 -1,0 0,1 -1,0 0,1 -2,0 -22,-23 -1,-1 1,0 0,-1 1,-1 1,0 0,-1 2,0 3,4 0,-2 -1,-2 0,-1 1,-2 0,-2 2,-2 0,-1 1,0 1,-1 3,0 0,1 1,0 z m -70,70 l
 0,1 1,0 0,2 -1,0 -4,4 0,4 1,2 0,2 15,15 0,2 -3,3 -1,0 0,-1 -23,-22 0,-2 1,0 0,-1 1,0 0,-1 2,0 3,3 0,-8 2,-2 0,-1 1,0 1,-1 1,0 0,-1 1,0 0,1 1,0 0,1 1,0 z m 118,-98 l 0,2 -11,10 0,1 -1,0 0,-1 -1,-1 -1,0 -1,-1 0,-1 1,0 10,-11 2,0 2,2 z"/>
<path fill="#000000" stroke="none" d="M 2423,3925 l 0,2 -1,0 0,1 -1,0 0,1 -1,0 0,1 -2,0 -28,-29 17,40 0,2 -1,0 0,1 -1,0 0,1 -1,0 0,1 -1,0 -40,-18 29,29 0,1 -1,0 0,1 -1,1 -1,0 0,1 -2,0 -31,-31 0,-2 4,-4 1,0 0,-1 1,0 1,-1 1,0 0,1 2,0 33,15 0,-1 -14,-33 0,-2 -1,0 0,-1 1,-1 0,-1 4,-4 1,0 0,-1 1,0 0,1 2,0 30,30 z m 92,-92 l 0,2 -1,0 0,1 -1,0 0,1 -1,0 0,1 -2,0 -13,-14 -3,-3 -1,0 -2,-1 -3,0 -1,1 -2,1 -2,4 0,7 16,16 0,2 -1,1 -1,0 0,1 -2,0 -34,-34 0,-1 3,-3 2,0 13,14 0,-4 1,-3 1,-2 4,-4 2,-1 3,-1 2,0 4,2 3,2 2,2 14,13 z m 42,-44 l 0,1 1,0 0,2 -18,17 -1,0 -2,-2
 0,-2 7,-7 -25,-24 -3,10 0,1 -2,0 0,-1 -1,0 0,-1 -1,-1 0,-1 3,-12 0,-1 1,0 0,-1 1,0 2,-2 29,29 6,-6 2,0 0,1 1,0 z m 21,-34 l 0,1 -4,4 7,7 0,2 -2,2 -1,0 -1,1 0,-1 -7,-7 -14,14 -2,0 -1,-1 0,-1 -1,0 0,-1 -1,-1 -8,-32 0,-1 3,-3 1,0 0,-1 1,-1 2,0 21,21 3,-4 2,0 2,2 z m -30,-12 l 8,28 10,-10 -18,-18 z m -100,157 l 0,2 -1,0 0,1 -1,1 -2,0 -2,-2 0,3 -1,2 -1,3 -4,4 -4,2 -5,0 -2,-1 -2,-2 -3,-6 1,-3 1,-2 1,-3 2,-2 2,-3 3,-3 -4,-4 -5,0 -1,1 -2,1 -3,3 0,2 -1,1 0,2 -1,1 0,1 -2,0 -2,-2 0,-2 1,-1 0,-1 1,-2 1,-1 0,-2 3,-3 2,-1 3,-2 2,-1 4,0 2,1
 2,2 2,1 16,15 z m -15,-6 l -3,4 -3,3 -1,2 0,3 1,2 0,1 2,1 4,0 4,-4 1,-2 0,-5 -5,-5 z m 54,-40 l 0,1 1,1 0,5 -3,3 -1,2 -3,3 -3,1 -2,1 -3,0 -6,-2 -6,-4 -3,-4 -2,-3 -2,-6 2,-6 1,-2 2,-3 2,-2 2,0 1,-1 1,0 1,-1 3,0 3,3 0,1 -1,1 -4,0 -2,1 -1,1 -2,1 -2,3 0,4 2,4 3,4 4,4 2,1 6,0 2,-1 2,-2 1,-2 1,-1 0,-2 1,-1 0,-3 1,0 1,1 1,0 z m -38,5 l 0,2 -1,0 -1,1 -1,0 -1,1 0,1 -1,0 0,5 1,2 0,2 15,15 0,2 -2,2 -1,0 -1,1 0,-1 -23,-22 0,-2 1,0 0,-1 1,0 0,-1 2,0 3,3 0,-8 1,-1 0,-1 1,-1 1,0 2,-2 1,0 3,3 z m 71,-56 l 1,1 0,2
 -10,11 -2,0 -2,-2 0,-2 11,-10 0,-1 1,0 0,1 1,0 z"/>
<path fill="#000000" stroke="none" d="M 2600,3898 l 0,1 1,0 0,2 -1,0 -1,1 0,1 -1,0 0,1 -2,0 -11,-5 -13,13 5,11 0,1 -2,2 0,1 -3,0 0,-1 -20,-41 0,-2 1,0 0,-1 1,0 0,-1 1,0 1,-1 0,-1 2,0 42,19 z m -41,-12 l 10,22 12,-12 -22,-10 z m 149,-97 l 1,1 0,2 -17,17 -2,0 -1,-1 0,-1 -1,0 0,-1 7,-7 -25,-25 -2,10 0,1 -2,0 -2,-2 0,-1 3,-13 0,-1 1,0 0,-1 1,0 0,-1 1,0 0,-1 1,1 29,28 6,-6 1,0 0,1 1,0 z m -91,76 l 2,3 2,6 0,5 -4,6 -1,1 -1,0 -1,1 -1,0 -1,1 -5,0 12,12 -1,1 0,1 -1,0 0,1 -1,0 0,1 -2,0 0,-1 -31,-31 -1,0 0,-1 1,0 0,-1 1,-1 0,-1 2,0 3,3 0,-4 1,-1 0,-2 1,-1 0,-2 2,-2 3,-2 2,-1
 3,-1 3,0 3,2 2,1 3,2 5,5 z m -6,2 l -2,-1 -2,-2 -6,-3 -2,0 -1,1 -2,1 -1,1 0,1 -1,2 0,1 -1,1 0,4 1,2 9,9 3,0 3,-1 4,-2 1,-1 2,-4 -3,-6 -1,-1 -1,-2 z m 117,-113 l 1,1 0,1 1,0 -4,4 6,7 1,1 -1,1 0,1 -1,0 0,1 -1,0 0,1 -2,0 -7,-7 -14,14 -1,0 0,-1 -1,-1 -1,0 0,-1 -1,0 0,-2 -9,-31 0,-1 1,0 0,-1 1,-1 0,-1 1,-1 1,0 2,-2 1,0 21,21 4,-4 2,0 0,1 z m -28,-11 l 7,29 11,-11 -18,-18 z m -33,90 l 0,1 -3,3 -1,0 -34,-34 0,-1 1,-1 0,-1 1,0 1,-1 1,0 34,34 z m -42,1 l 1,0 0,2 -2,0 0,1 -1,0 -1,1 0,1 -1,0 0,7 1,2 14,15 1,1 0,1 -1,0 0,1 -1,0 0,1
 -1,0 -1,1 -23,-23 -1,0 0,-1 3,-3 1,0 4,3 -1,-2 0,-5 1,-1 0,-1 1,0 0,-1 1,-1 1,0 0,-1 1,0 1,-1 1,0 0,1 2,2 z m 30,11 l 0,2 -1,0 0,1 -1,0 0,1 -2,0 0,1 -23,-23 0,-1 -1,0 1,0 0,-1 1,0 0,-1 1,-1 1,0 0,-1 1,0 23,23 z m 17,-42 l 2,2 -12,12 -2,-2 -1,0 0,-2 11,-11 2,0 0,1 z m -47,11 l 1,2 0,2 -2,2 -2,1 -1,0 -2,-2 -1,-2 1,-1 1,-2 1,-1 3,0 1,1 z"/>
<path fill="#000000" stroke="none" d="M 2770,3882 l 0,1 -3,3 -2,0 -28,-28 17,40 0,1 -2,2 -1,0 0,1 -1,0 -40,-18 29,29 0,1 -2,2 0,1 -3,0 -31,-31 0,-1 1,-1 0,-1 3,-2 1,-1 0,-1 4,0 1,1 33,14 -14,-33 0,-5 1,-1 0,-1 3,-2 0,-1 3,0 31,31 z m 44,-43 l 5,11 0,2 -2,2 0,1 -3,0 0,-1 -5,-11 -1,0 -30,-13 0,-1 -1,0 0,-2 1,0 0,-1 1,0 1,-1 0,-1 1,0 1,1 25,11 -12,-24 -1,-1 4,-4 1,0 0,1 15,31 z m 46,-50 l 1,1 0,2 -17,17 -2,0 -2,-2 0,-1 7,-7 -25,-25 -2,10 0,1 -2,0 -2,-2 0,-1 2,-13 1,0 0,-1 1,0 0,-1 1,0 0,-1 1,0 0,-1 0,1 1,0 28,28 6,-6 2,0 0,1 1,0 z m 20,-35 l 1,1 0,2 -4,3 7,7 0,3 -1,0 -2,2
 -1,0 -7,-7 -13,13 -1,0 0,1 -1,0 0,-1 -1,0 0,-1 -1,0 0,-1 -1,0 0,-1 -1,-1 -8,-31 0,-1 1,-1 0,-1 2,-2 1,0 0,-1 1,0 0,-1 2,0 21,21 3,-4 3,0 0,1 z m -29,-11 l 8,29 10,-11 -18,-18 z m -56,114 l 0,1 -3,3 -3,-3 0,3 -2,6 -2,2 -4,2 -1,1 -2,1 -2,0 -6,-3 -1,-2 -1,-3 -1,-2 2,-4 1,-3 2,-3 5,-5 -5,-5 -3,0 -2,2 -2,1 -1,2 -1,1 -1,2 -1,1 0,1 -1,1 0,2 -1,0 0,-1 -2,0 0,-2 -1,0 0,-2 1,-1 0,-1 2,-2 1,-2 1,-1 1,-2 3,-2 2,-2 2,-1 4,0 2,1 2,2 2,1 16,16 z m -15,-6 l -6,6 -1,2 0,4 1,1 0,1 4,2 4,-2 2,-2 1,-2 0,-6 -5,-4 z m 45,-47 l 0,2 -11,10 0,1 -1,0 0,-1
 -1,-1 -1,0 0,-2 11,-11 1,0 2,2 z"/>
<path fill="#000000" stroke="none" d="M 3013,3790 l 0,2 -17,17 -2,0 0,-1 -1,0 -1,-1 0,-2 7,-7 -25,-24 -2,10 -1,1 -1,0 -2,-2 0,-2 2,-12 1,0 0,-2 1,0 2,-2 1,0 28,29 6,-6 2,0 2,2 z m -95,96 l 0,1 -1,0 0,1 -1,0 0,1 -1,0 0,1 -1,0 0,-1 -3,-3 0,4 -2,6 -4,4 -4,2 -3,0 -4,-2 -2,-2 -3,-2 -14,-13 0,-2 1,0 0,-1 1,0 0,-1 1,0 0,-1 1,0 14,14 2,1 1,1 2,1 1,1 2,0 1,-1 1,0 1,-1 2,-4 1,-3 -1,-4 -15,-16 -1,0 0,-1 1,0 0,-1 1,0 0,-1 1,0 0,-1 2,0 23,23 z m 27,-28 l 0,2 -1,0 0,1 -1,0 0,1 -1,0 0,1 -1,0 -15,-15 -2,-1 -1,-1 -2,-1 -1,0 -2,1 -1,0 -3,3 0,2 -1,3 0,4 16,16 1,0 0,1 -1,0
 0,1 -2,2 -2,0 -23,-23 0,-1 1,0 0,-1 1,0 0,-1 1,0 0,-1 1,0 0,1 3,3 0,-4 2,-6 4,-4 2,-1 3,-1 2,0 4,2 3,2 2,2 14,13 z m 87,-104 l 0,1 1,1 0,1 -1,0 -3,4 7,7 0,1 -1,0 0,1 -2,2 -2,0 -7,-7 -13,13 0,1 -2,0 0,-1 -1,0 0,-1 -1,0 0,-1 -1,0 0,-2 -8,-31 0,-2 1,0 0,-1 1,0 0,-1 2,-2 1,0 0,-1 1,0 21,21 4,-4 1,0 1,1 1,0 z m -29,-10 l 7,28 11,-11 -18,-17 z m -119,164 l 3,6 0,2 -2,4 -2,2 0,1 -1,0 -1,1 -1,0 0,1 -3,0 -3,-3 0,-1 1,0 1,-1 2,0 1,-1 0,-1 1,0 1,-1 0,-3 -27,-27 0,-2 3,-3 1,0 26,26 z m 75,-89 l 1,1 0,3 -15,15 3,3 2,1 4,0 4,-2
 6,-6 0,-2 1,-1 0,-1 1,0 0,-1 2,0 0,1 1,1 0,1 1,0 0,1 -1,0 0,2 -1,1 -1,2 -4,4 -3,2 -2,2 -6,2 -6,-2 -3,-2 -6,-6 -2,-3 -2,-6 0,-3 1,-3 2,-3 2,-2 3,-2 2,-2 3,-1 3,0 2,1 3,1 3,2 2,1 0,1 z m -5,3 l -3,-2 -4,-2 -3,1 -3,2 -1,2 -1,1 -1,2 0,2 1,2 0,1 2,2 1,2 12,-13 z m 22,-19 l 1,1 0,2 -1,0 -10,11 -2,0 -1,-1 0,-1 -1,-1 0,-1 11,-10 0,-1 1,0 0,1 2,0 z"/>
<path fill="#000000" stroke="none" d="M 3117,3839 l 5,11 1,1 -1,1 0,1 -2,2 -2,0 0,-1 -5,-11 0,1 -1,0 -1,-1 -29,-13 -1,0 -1,-1 0,-1 1,0 0,-1 1,-1 1,0 0,-1 1,0 0,-1 1,1 25,11 -12,-24 0,-2 1,0 0,-1 2,-2 1,0 1,1 14,31 z m 47,-50 l 1,0 0,2 -17,17 0,1 -1,0 -1,-1 -1,0 0,-1 -1,0 0,-2 7,-7 -25,-25 -2,10 0,1 -1,1 -1,0 0,-1 -1,0 0,-1 -1,0 0,-2 2,-12 1,-1 0,-1 1,0 2,-2 1,0 28,29 6,-6 2,0 1,1 z m -77,79 l 0,2 -1,0 0,1 -1,0 0,1 -2,0 -3,-3 0,4 -2,6 -1,2 -3,2 -2,1 -5,0 -6,-3 -3,-2 -13,-14 -1,0 0,-1 1,0 0,-1 1,0 0,-1 1,0 0,-1 2,0 16,16 2,1 4,0 2,-1 1,-1 2,-4 0,-7 -16,-15 0,-2
 3,-3 1,0 23,23 z m 97,-114 l 0,1 1,1 0,1 -1,0 -3,4 7,6 0,2 -1,0 0,1 -1,0 0,1 -1,0 0,1 -2,0 -7,-7 -13,13 0,1 -1,0 -2,-2 -1,0 0,-1 -1,0 0,-2 -8,-31 0,-2 1,-1 1,0 0,-1 3,-3 1,0 21,21 4,-4 1,0 1,1 1,0 z m -29,-11 l 7,29 11,-11 -18,-18 z m -56,113 l 0,2 -1,0 0,1 -1,0 0,1 -1,0 0,1 -1,0 0,-1 -34,-33 0,-2 1,0 0,-1 1,-1 1,0 0,-1 1,0 0,1 34,33 z m -44,36 l 1,2 0,6 -1,2 -5,5 -4,0 -2,-2 0,-2 2,0 1,-1 1,0 2,-2 0,-4 -2,-2 -1,-2 -24,-23 0,-1 4,-4 1,0 0,1 27,27 z m 73,-89 l 1,1 0,2 -1,0 -10,10 0,1 -2,0 -1,-1 0,-1 -1,-1 0,-1 11,-11 1,0 1,1 1,0 z"/>
<path fill="#000000" stroke="none" d="M 3159,3946 l 1,0 1,1 0,1 -1,0 0,1 -1,0 0,1 -1,0 -1,1 -1,0 -11,-5 -13,13 5,11 0,2 -1,0 0,1 -1,0 0,1 -1,0 0,1 -1,0 -1,-1 0,-1 -20,-41 0,-2 1,0 1,-1 0,-1 1,0 2,-2 1,0 41,20 z m -40,-13 l -1,0 11,22 11,-12 -21,-10 z m 70,-59 l 1,1 0,2 -3,3 2,0 1,1 2,1 1,0 2,3 1,2 0,6 -2,4 -6,6 -2,0 0,1 1,1 0,1 1,0 1,1 1,0 2,-1 1,-1 6,-5 2,-2 4,-2 5,0 2,1 1,1 3,6 0,2 -1,3 -1,2 -4,6 -6,4 -4,2 -4,0 -1,-1 -2,-1 0,-1 -1,-1 0,-1 -1,-1 0,-5 -5,0 -1,-1 -2,-4 -1,-1 0,-2 -1,-1 -2,0 -2,-1 -2,-2 -3,-6 0,-4 1,-3 2,-2 1,-2 2,-2 1,0 8,-8 2,0 0,1 z m
 20,28 l -2,-1 -2,0 -2,1 -2,2 -6,5 0,5 2,2 2,1 2,0 3,-1 4,-4 1,-2 1,-1 1,-2 0,-1 -1,-2 0,-1 -1,-1 z m 107,-113 l 0,1 1,0 0,1 -18,18 -1,0 0,-1 -1,0 0,-1 -1,0 0,-2 7,-7 -25,-25 -3,10 0,2 -1,0 -2,-2 0,-1 -1,0 0,-1 3,-12 0,-1 1,0 0,-1 1,-1 1,0 0,-1 2,0 28,29 6,-6 2,0 1,1 z m -131,134 l 0,1 -1,0 0,1 -1,0 0,1 -2,0 -3,-3 0,4 -2,6 -4,4 -2,1 -7,0 -2,-1 -2,-2 -3,-2 -14,-14 0,-1 1,-1 0,-1 1,0 1,-1 1,0 14,13 3,3 2,1 4,0 2,-2 2,-4 1,-3 -1,-3 -15,-16 -1,0 0,-1 4,-4 1,0 0,1 23,23 z m 151,-168 l 0,2 -4,4 7,6 1,1 -1,0 0,2 -1,0 -2,2 -1,0 -7,-7
 -13,13 0,1 -2,0 0,-1 -1,0 0,-1 -1,0 0,-1 -1,0 0,-2 -9,-31 0,-1 1,0 0,-1 3,-3 0,-1 1,0 1,-1 1,0 21,21 4,-4 1,0 2,2 z m -29,-12 l 7,29 11,-11 -18,-18 z m -71,128 l 0,2 -1,0 0,1 -1,0 0,1 -1,0 -4,-4 0,7 -1,3 -4,4 -3,1 -2,1 -2,0 -2,-1 -3,-1 -4,-4 -14,-13 0,-2 3,-3 1,0 13,14 6,3 1,1 1,0 1,-1 2,0 1,-1 2,-4 0,-7 -16,-16 0,-1 3,-3 1,0 23,23 z m 38,-42 l 1,1 0,3 -1,1 0,1 -1,1 -1,0 -1,2 -4,2 -2,0 -1,-1 -4,-2 -15,-15 -4,4 0,-1 -1,0 -1,-1 -1,0 0,-2 3,-3 -5,-6 0,-2 1,0 0,-1 1,0 0,-1 2,0 6,5 5,-5 1,0 0,-1 1,1 1,0 0,1 1,1 0,1 -6,6 13,13
 4,2 2,0 2,-1 0,-1 1,0 0,-2 1,0 0,-1 1,1 1,0 z m -22,14 l 1,2 1,1 1,2 0,2 -1,3 -2,4 -5,5 -2,0 -1,1 -1,0 0,1 -2,0 0,-1 -1,0 -2,-2 0,-1 1,0 0,-1 2,0 2,-1 1,-1 2,-1 3,-3 0,-2 1,-1 -1,-1 0,-1 -2,-2 -4,0 -1,1 -1,0 -1,1 -2,0 -1,1 -2,0 -1,1 -4,0 -2,-1 -1,-1 -2,-1 -1,-1 -1,-2 0,-6 1,-2 2,-2 1,-2 2,-2 1,0 1,-1 1,0 1,-1 2,0 0,1 1,0 1,1 0,2 -1,0 -1,1 -1,0 -2,1 -1,1 -1,0 -1,2 -1,1 0,3 1,1 0,1 1,1 6,0 1,-1 1,0 1,-1 2,-1 2,0 2,-1 3,0 1,1 2,1 1,1 z m -63,43 l -2,-1 -3,-1 -2,1 -3,1 -1,2 -1,1 0,4 2,2 0,1
 3,2 2,1 3,-1 4,-4 0,-4 -1,-1 0,-1 -1,-2 z m 91,-82 l 0,2 -11,11 -1,0 -2,-2 0,-2 11,-11 1,0 2,2 z"/>
<text font-family="Calibri" font-size="73" fill="#000000" font-weight="700" transform="translate(568,3108) rotate(-90)"><tspan x="0,38,77,116,156" y="0">Count</tspan></text>
<text font-family="Calibri" font-size="73" fill="#000000" font-weight="700"><tspan x="2011,2075,2114,2153,2179" y="4167">Month</tspan></text>
<text font-family="Calibri" font-size="131" fill="#000000" font-weight="700"><tspan x="1158,1242,1312,1383,1445,1477,1543" y="2240">Google </tspan><tspan x="1573,1657,1702,1772,1843,1912,1964" y="2240">Groups </tspan><tspan x="1996,2064,2135,2185,2231" y="2240">Post/</tspan><tspan x="2287,2341,2411,2482,2514,2568,2620" y="2240">Topics </tspan><tspan x="2651,2692,2759" y="2240">(4/</tspan><tspan x="2816,2882,2949" y="2240">13 </tspan><tspan x="2978,3024,3094,3139,3209,3279,3341,3412" y="2240">through </tspan><tspan x="3444,3510" y="2240">2/</tspan><tspan x="3567,3634,3700" y="2240">15)</tspan></text>
<path fill="#C00000" stroke="none" d="M 3523,3075 l 185,0 3,1 3,2 1,2 1,3 -2,6 -6,2 -185,0 -3,-1 -2,-1 -2,-3 -1,-3 1,-3 4,-4 3,-1 z"/>
<text font-family="Calibri" font-size="73" fill="#000000"><tspan x="3729,3765,3803,3828,3862,3880" y="3105">Total </tspan><tspan x="3896,3933,3972,4001,4025,4054" y="3105">Posts </tspan><tspan x="4070,4092,4138,4174,4191,4229,4268,4304,4332,4365" y="3105">(Helpdesk)</tspan></text>
<path fill="#C00000" stroke="none" d="M 3523,3207 l 32,0 3,1 3,2 1,2 1,3 -2,6 -6,2 -32,0 -3,-1 -2,-1 -2,-3 -1,-3 1,-3 4,-4 3,-1 z m 64,0 l 32,0 3,1 3,2 1,2 1,3 -2,6 -6,2 -32,0 -3,-1 -2,-1 -2,-3 -1,-3 1,-3 4,-4 3,-1 z m 64,0 l 32,0 3,1 3,2 1,2 1,3 -2,6 -6,2 -32,0 -3,-1 -2,-1 -2,-3 -1,-3 1,-3 4,-4 3,-1 z"/>
<text font-family="Calibri" font-size="73" fill="#000000"><tspan x="3729,3765,3803,3828,3862,3880" y="3237">Total </tspan><tspan x="3896,3932,3970,4008,4025,4056,4084" y="3237">Topics </tspan><tspan x="4101,4123,4169,4205,4222,4260,4299,4335,4363,4396" y="3237">(Helpdesk)</tspan></text>
<path fill="#376092" stroke="none" d="M 3523,3340 l 185,0 3,1 3,2 1,2 1,3 -2,6 -6,2 -185,0 -3,-1 -2,-1 -2,-3 -1,-3 1,-3 4,-4 3,-1 z"/>
<text font-family="Calibri" font-size="73" fill="#000000"><tspan x="3729,3765,3803,3828,3862,3880" y="3369">Total </tspan><tspan x="3896,3933,3972,4001,4025,4054" y="3369">Posts </tspan><tspan x="4070,4092,4137,4154,4183,4214,4252,4280,4309" y="3369">(Discuss)</tspan></text>
<path fill="#376092" stroke="none" d="M 3523,3472 l 32,0 3,1 3,2 1,2 1,3 -2,6 -6,2 -32,0 -3,-1 -2,-1 -2,-3 -1,-3 1,-3 4,-4 3,-1 z m 64,0 l 32,0 3,1 3,2 1,2 1,3 -2,6 -6,2 -32,0 -3,-1 -2,-1 -2,-3 -1,-3 1,-3 4,-4 3,-1 z m 64,0 l 32,0 3,1 3,2 1,2 1,3 -2,6 -6,2 -32,0 -3,-1 -2,-1 -2,-3 -1,-3 1,-3 4,-4 3,-1 z"/>
<text font-family="Calibri" font-size="73" fill="#000000"><tspan x="3729,3765,3803,3828,3862,3880" y="3501">Total </tspan><tspan x="3896,3932,3970,4008,4025,4056,4084" y="3501">Topics </tspan><tspan x="4101,4123,4168,4184,4214,4244,4283,4311,4340" y="3501">(Discuss)</tspan></text>
<path fill="#868686" stroke="none" d="M 4492,2057 l 0,1 2,0 0,5 -4085,0 0,2212 -5,0 0,-2215 1,0 0,-2 2,0 0,-1 4085,0 z"/>
<path fill="#868686" stroke="none" d="M 4494,2063 l 0,2217 -4089,0 0,-1 -1,0 0,-4 4085,0 0,-2212 5,0 z"/>
</g>
</svg>
