<?xml version="1.0" encoding="UTF-8" standalone="no"?>
<svg width="3804px" height="1876px" viewBox="0 0 3804 1876" version="1.1" xmlns="http://www.w3.org/2000/svg" xmlns:xlink="http://www.w3.org/1999/xlink" xmlns:sketch="http://www.bohemiancoding.com/sketch/ns">
    <!-- Generator: Sketch 3.2.2 (9983) - http://www.bohemiancoding.com/sketch -->
    <title>Google Groups Memberships Apr 2013 to Feb 2015 by Week.001 (1)</title>
    <desc>Created with Sketch.</desc>
    <defs></defs>
    <g id="Page-1" stroke="none" stroke-width="1" fill="none" fill-rule="evenodd" sketch:type="MSPage">
        <g id="Google-Groups-Memberships-Apr-2013-to-Feb-2015-by-Week.001-(1)" sketch:type="MSLayerGroup" transform="translate(-19.000000, -21.000000)">
            <g id="Page_1-Clipped">
                <g id="Page_1">
                    <path d="M363,1191 L3249,1191 L3249,1197 L363,1197 L363,1191 L363,1191 Z M363,902 L3249,902 L3249,908 L363,908 L363,902 L363,902 Z M363,614 L3249,614 L3249,620 L363,620 L363,614 L363,614 Z M363,326 L3249,326 L3249,332 L363,332 L363,326 L363,326 Z M363,38 L3249,38 L3249,44 L363,44 L363,38 L363,38 Z" id="Shape" fill="#868686" sketch:type="MSShapeGroup"></path>
                    <rect id="Rectangle-path" fill="#868686" sketch:type="MSShapeGroup" x="363" y="1479" width="2886" height="6"></rect>
                    <path d="M366,1482 L366,1508 L360,1508 L360,1482 L366,1482 L366,1482 Z M389,1482 L389,1508 L383,1508 L383,1482 L389,1482 L389,1482 Z M411,1482 L411,1508 L405,1508 L405,1482 L411,1482 L411,1482 Z M434,1482 L434,1508 L428,1508 L428,1482 L434,1482 L434,1482 Z M456,1482 L456,1508 L450,1508 L450,1482 L456,1482 L456,1482 Z M479,1482 L479,1508 L473,1508 L473,1482 L479,1482 L479,1482 Z M501,1482 L501,1508 L495,1508 L495,1482 L501,1482 L501,1482 Z M524,1482 L524,1508 L518,1508 L518,1482 L524,1482 L524,1482 Z M547,1482 L547,1508 L541,1508 L541,1482 L547,1482 L547,1482 Z M569,1482 L569,1508 L563,1508 L563,1482 L569,1482 L569,1482 Z M592,1482 L592,1508 L586,1508 L586,1482 L592,1482 L592,1482 Z M614,1482 L614,1508 L608,1508 L608,1482 L614,1482 L614,1482 Z M637,1482 L637,1508 L631,1508 L631,1482 L637,1482 L637,1482 Z M659,1482 L659,1508 L653,1508 L653,1482 L659,1482 L659,1482 Z M682,1482 L682,1508 L676,1508 L676,1482 L682,1482 L682,1482 Z M704,1482 L704,1508 L698,1508 L698,1482 L704,1482 L704,1482 Z" id="Shape" fill="#868686" sketch:type="MSShapeGroup"></path>
                    <path d="M727,1482 L727,1508 L721,1508 L721,1482 L727,1482 L727,1482 Z M749,1482 L749,1508 L743,1508 L743,1482 L749,1482 L749,1482 Z M772,1482 L772,1508 L766,1508 L766,1482 L772,1482 L772,1482 Z M794,1482 L794,1508 L788,1508 L788,1482 L794,1482 L794,1482 Z M817,1482 L817,1508 L811,1508 L811,1482 L817,1482 L817,1482 Z M840,1482 L840,1508 L834,1508 L834,1482 L840,1482 L840,1482 Z M862,1482 L862,1508 L856,1508 L856,1482 L862,1482 L862,1482 Z M885,1482 L885,1508 L879,1508 L879,1482 L885,1482 L885,1482 Z M907,1482 L907,1508 L901,1508 L901,1482 L907,1482 L907,1482 Z M930,1482 L930,1508 L924,1508 L924,1482 L930,1482 L930,1482 Z M952,1482 L952,1508 L946,1508 L946,1482 L952,1482 L952,1482 Z M975,1482 L975,1508 L969,1508 L969,1482 L975,1482 L975,1482 Z M997,1482 L997,1508 L991,1508 L991,1482 L997,1482 L997,1482 Z M1020,1482 L1020,1508 L1014,1508 L1014,1482 L1020,1482 L1020,1482 Z M1042,1482 L1042,1508 L1036,1508 L1036,1482 L1042,1482 L1042,1482 Z M1065,1482 L1065,1508 L1059,1508 L1059,1482 L1065,1482 L1065,1482 Z" id="Shape" fill="#868686" sketch:type="MSShapeGroup"></path>
                    <path d="M1088,1482 L1088,1508 L1082,1508 L1082,1482 L1088,1482 L1088,1482 Z M1110,1482 L1110,1508 L1104,1508 L1104,1482 L1110,1482 L1110,1482 Z M1133,1482 L1133,1508 L1127,1508 L1127,1482 L1133,1482 L1133,1482 Z M1155,1482 L1155,1508 L1149,1508 L1149,1482 L1155,1482 L1155,1482 Z M1178,1482 L1178,1508 L1172,1508 L1172,1482 L1178,1482 L1178,1482 Z M1200,1482 L1200,1508 L1194,1508 L1194,1482 L1200,1482 L1200,1482 Z M1223,1482 L1223,1508 L1217,1508 L1217,1482 L1223,1482 L1223,1482 Z M1245,1482 L1245,1508 L1239,1508 L1239,1482 L1245,1482 L1245,1482 Z M1268,1482 L1268,1508 L1262,1508 L1262,1482 L1268,1482 L1268,1482 Z M1290,1482 L1290,1508 L1284,1508 L1284,1482 L1290,1482 L1290,1482 Z M1313,1482 L1313,1508 L1307,1508 L1307,1482 L1313,1482 L1313,1482 Z M1336,1482 L1336,1508 L1330,1508 L1330,1482 L1336,1482 L1336,1482 Z M1358,1482 L1358,1508 L1352,1508 L1352,1482 L1358,1482 L1358,1482 Z M1381,1482 L1381,1508 L1375,1508 L1375,1482 L1381,1482 L1381,1482 Z M1403,1482 L1403,1508 L1397,1508 L1397,1482 L1403,1482 L1403,1482 Z M1426,1482 L1426,1508 L1420,1508 L1420,1482 L1426,1482 L1426,1482 Z" id="Shape" fill="#868686" sketch:type="MSShapeGroup"></path>
                    <path d="M1448,1482 L1448,1508 L1442,1508 L1442,1482 L1448,1482 L1448,1482 Z M1471,1482 L1471,1508 L1465,1508 L1465,1482 L1471,1482 L1471,1482 Z M1493,1482 L1493,1508 L1487,1508 L1487,1482 L1493,1482 L1493,1482 Z M1516,1482 L1516,1508 L1510,1508 L1510,1482 L1516,1482 L1516,1482 Z M1538,1482 L1538,1508 L1532,1508 L1532,1482 L1538,1482 L1538,1482 Z M1561,1482 L1561,1508 L1555,1508 L1555,1482 L1561,1482 L1561,1482 Z M1584,1482 L1584,1508 L1578,1508 L1578,1482 L1584,1482 L1584,1482 Z M1606,1482 L1606,1508 L1600,1508 L1600,1482 L1606,1482 L1606,1482 Z M1629,1482 L1629,1508 L1623,1508 L1623,1482 L1629,1482 L1629,1482 Z M1651,1482 L1651,1508 L1645,1508 L1645,1482 L1651,1482 L1651,1482 Z M1674,1482 L1674,1508 L1668,1508 L1668,1482 L1674,1482 L1674,1482 Z M1696,1482 L1696,1508 L1690,1508 L1690,1482 L1696,1482 L1696,1482 Z M1719,1482 L1719,1508 L1713,1508 L1713,1482 L1719,1482 L1719,1482 Z M1741,1482 L1741,1508 L1735,1508 L1735,1482 L1741,1482 L1741,1482 Z M1764,1482 L1764,1508 L1758,1508 L1758,1482 L1764,1482 L1764,1482 Z M1786,1482 L1786,1508 L1780,1508 L1780,1482 L1786,1482 L1786,1482 Z" id="Shape" fill="#868686" sketch:type="MSShapeGroup"></path>
                    <path d="M1809,1482 L1809,1508 L1803,1508 L1803,1482 L1809,1482 L1809,1482 Z M1832,1482 L1832,1508 L1826,1508 L1826,1482 L1832,1482 L1832,1482 Z M1854,1482 L1854,1508 L1848,1508 L1848,1482 L1854,1482 L1854,1482 Z M1877,1482 L1877,1508 L1871,1508 L1871,1482 L1877,1482 L1877,1482 Z M1899,1482 L1899,1508 L1893,1508 L1893,1482 L1899,1482 L1899,1482 Z M1922,1482 L1922,1508 L1916,1508 L1916,1482 L1922,1482 L1922,1482 Z M1944,1482 L1944,1508 L1938,1508 L1938,1482 L1944,1482 L1944,1482 Z M1967,1482 L1967,1508 L1961,1508 L1961,1482 L1967,1482 L1967,1482 Z M1989,1482 L1989,1508 L1983,1508 L1983,1482 L1989,1482 L1989,1482 Z M2012,1482 L2012,1508 L2006,1508 L2006,1482 L2012,1482 L2012,1482 Z M2034,1482 L2034,1508 L2028,1508 L2028,1482 L2034,1482 L2034,1482 Z M2057,1482 L2057,1508 L2051,1508 L2051,1482 L2057,1482 L2057,1482 Z M2079,1482 L2079,1508 L2073,1508 L2073,1482 L2079,1482 L2079,1482 Z M2102,1482 L2102,1508 L2096,1508 L2096,1482 L2102,1482 L2102,1482 Z M2125,1482 L2125,1508 L2119,1508 L2119,1482 L2125,1482 L2125,1482 Z M2147,1482 L2147,1508 L2141,1508 L2141,1482 L2147,1482 L2147,1482 Z" id="Shape" fill="#868686" sketch:type="MSShapeGroup"></path>
                    <path d="M2170,1482 L2170,1508 L2164,1508 L2164,1482 L2170,1482 L2170,1482 Z M2192,1482 L2192,1508 L2186,1508 L2186,1482 L2192,1482 L2192,1482 Z M2215,1482 L2215,1508 L2209,1508 L2209,1482 L2215,1482 L2215,1482 Z M2237,1482 L2237,1508 L2231,1508 L2231,1482 L2237,1482 L2237,1482 Z M2260,1482 L2260,1508 L2254,1508 L2254,1482 L2260,1482 L2260,1482 Z M2282,1482 L2282,1508 L2276,1508 L2276,1482 L2282,1482 L2282,1482 Z M2305,1482 L2305,1508 L2299,1508 L2299,1482 L2305,1482 L2305,1482 Z M2327,1482 L2327,1508 L2321,1508 L2321,1482 L2327,1482 L2327,1482 Z M2350,1482 L2350,1508 L2344,1508 L2344,1482 L2350,1482 L2350,1482 Z M2373,1482 L2373,1508 L2367,1508 L2367,1482 L2373,1482 L2373,1482 Z M2395,1482 L2395,1508 L2389,1508 L2389,1482 L2395,1482 L2395,1482 Z M2418,1482 L2418,1508 L2412,1508 L2412,1482 L2418,1482 L2418,1482 Z M2440,1482 L2440,1508 L2434,1508 L2434,1482 L2440,1482 L2440,1482 Z M2463,1482 L2463,1508 L2457,1508 L2457,1482 L2463,1482 L2463,1482 Z M2485,1482 L2485,1508 L2479,1508 L2479,1482 L2485,1482 L2485,1482 Z M2508,1482 L2508,1508 L2502,1508 L2502,1482 L2508,1482 L2508,1482 Z" id="Shape" fill="#868686" sketch:type="MSShapeGroup"></path>
                    <path d="M2530,1482 L2530,1508 L2524,1508 L2524,1482 L2530,1482 L2530,1482 Z M2553,1482 L2553,1508 L2547,1508 L2547,1482 L2553,1482 L2553,1482 Z M2575,1482 L2575,1508 L2569,1508 L2569,1482 L2575,1482 L2575,1482 Z M2598,1482 L2598,1508 L2592,1508 L2592,1482 L2598,1482 L2598,1482 Z M2621,1482 L2621,1508 L2615,1508 L2615,1482 L2621,1482 L2621,1482 Z M2643,1482 L2643,1508 L2637,1508 L2637,1482 L2643,1482 L2643,1482 Z M2666,1482 L2666,1508 L2660,1508 L2660,1482 L2666,1482 L2666,1482 Z M2688,1482 L2688,1508 L2682,1508 L2682,1482 L2688,1482 L2688,1482 Z M2711,1482 L2711,1508 L2705,1508 L2705,1482 L2711,1482 L2711,1482 Z M2733,1482 L2733,1508 L2727,1508 L2727,1482 L2733,1482 L2733,1482 Z M2756,1482 L2756,1508 L2750,1508 L2750,1482 L2756,1482 L2756,1482 Z M2778,1482 L2778,1508 L2772,1508 L2772,1482 L2778,1482 L2778,1482 Z M2801,1482 L2801,1508 L2795,1508 L2795,1482 L2801,1482 L2801,1482 Z M2823,1482 L2823,1508 L2817,1508 L2817,1482 L2823,1482 L2823,1482 Z M2846,1482 L2846,1508 L2840,1508 L2840,1482 L2846,1482 L2846,1482 Z M2869,1482 L2869,1508 L2863,1508 L2863,1482 L2869,1482 L2869,1482 Z" id="Shape" fill="#868686" sketch:type="MSShapeGroup"></path>
                    <path d="M2891,1482 L2891,1508 L2885,1508 L2885,1482 L2891,1482 L2891,1482 Z M2914,1482 L2914,1508 L2908,1508 L2908,1482 L2914,1482 L2914,1482 Z M2936,1482 L2936,1508 L2930,1508 L2930,1482 L2936,1482 L2936,1482 Z M2959,1482 L2959,1508 L2953,1508 L2953,1482 L2959,1482 L2959,1482 Z M2981,1482 L2981,1508 L2975,1508 L2975,1482 L2981,1482 L2981,1482 Z M3004,1482 L3004,1508 L2998,1508 L2998,1482 L3004,1482 L3004,1482 Z M3026,1482 L3026,1508 L3020,1508 L3020,1482 L3026,1482 L3026,1482 Z M3049,1482 L3049,1508 L3043,1508 L3043,1482 L3049,1482 L3049,1482 Z M3071,1482 L3071,1508 L3065,1508 L3065,1482 L3071,1482 L3071,1482 Z M3094,1482 L3094,1508 L3088,1508 L3088,1482 L3094,1482 L3094,1482 Z M3116,1482 L3116,1508 L3110,1508 L3110,1482 L3116,1482 L3116,1482 Z M3139,1482 L3139,1508 L3133,1508 L3133,1482 L3139,1482 L3139,1482 Z M3162,1482 L3162,1508 L3156,1508 L3156,1482 L3162,1482 L3162,1482 Z M3184,1482 L3184,1508 L3178,1508 L3178,1482 L3184,1482 L3184,1482 Z M3207,1482 L3207,1508 L3201,1508 L3201,1482 L3207,1482 L3207,1482 Z M3229,1482 L3229,1508 L3223,1508 L3223,1482 L3229,1482 L3229,1482 Z M3252,1482 L3252,1508 L3246,1508 L3246,1482 L3252,1482 L3252,1482 Z" id="Shape" fill="#868686" sketch:type="MSShapeGroup"></path>
                    <path d="M372,1469 L395,1465 L418,1460 L440,1454 L441,1454 L464,1452 L486,1450 L530,1440 L553,1434 L575,1428 L597,1420 L620,1415 L619,1416 L642,1407 L643,1406 L666,1401 L688,1397 L711,1393 L733,1389 L756,1383 L778,1379 L822,1365 L823,1364 L846,1360 L845,1361 L867,1353 L891,1346 L913,1340 L935,1332 L959,1326 L980,1319 L1004,1314 L1025,1307 L1048,1299 L1070,1292 L1094,1285 L1116,1280 L1115,1281 L1138,1272 L1159,1260 L1160,1260 L1161,1259 L1184,1254 L1208,1252 L1229,1247 L1252,1243 L1273,1236 L1297,1231 L1319,1226 L1317,1227 L1340,1217 L1338,1218 L1360,1197 L1362,1196 L1363,1195 L1386,1187 L1407,1178 L1430,1166 L1453,1156 L1454,1156 L1455,1155 L1477,1149 L1499,1142 L1522,1137 L1546,1134 L1568,1132 L1566,1132 L1589,1125 L1611,1118 L1633,1108 L1656,1100 L1679,1091 L1701,1082 L1724,1074 L1746,1065 L1769,1056 L1792,1048 L1815,1043 L1817,1043 L1840,1042 L1837,1042 L1859,1035 L1883,1029 L1904,1021 L1927,1012 L1949,1004 L1972,996 L1995,989 L2018,983 L2042,980 L2064,977 L2061,978 L2084,967 L2085,967 L2086,966 L2108,960 L2131,955 L2152,948 L2150,949 L2173,935 L2175,935 L2197,927 L2195,927 L2218,912 L2241,896 L2242,895 L2243,895 L2265,886 L2266,885 L2289,880 L2311,874 L2333,867 L2332,868 L2354,857 L2355,857 L2356,856 L2379,850 L2401,845 L2400,846 L2423,837 L2419,839 L2441,816 L2445,814 L2468,805 L2490,794 L2512,784 L2535,772 L2557,760 L2580,750 L2579,751 L2601,735 L2624,719 L2646,705 L2670,691 L2668,692 L2690,673 L2713,655 L2711,657 L2734,622 L2735,622 L2735,621 L2757,597 L2758,596 L2759,596 L2782,579 L2803,558 L2804,558 L2805,557 L2828,545 L2849,531 L2871,513 L2872,513 L2873,512 L2895,501 L2918,488 L2940,476 L2938,478 L2961,455 L2983,430 L2985,429 L2986,428 L3008,417 L3032,408 L3054,401 L3051,402 L3074,383 L3075,383 L3076,382 L3098,372 L3122,363 L3144,354 L3167,345 L3165,345 L3187,332 L3211,321 L3233,310 L3236,309 L3240,309 L3243,311 L3245,314 L3246,317 L3245,321 L3244,324 L3241,326 L3197,348 L3175,361 L3173,361 L3150,370 L3106,388 L3084,398 L3086,397 L3063,416 L3062,417 L3060,417 L3016,433 L2994,444 L2997,442 L2973,467 L2948,492 L2926,504 L2903,517 L2881,528 L2883,527 L2859,545 L2836,561 L2813,573 L2815,571 L2792,593 L2769,610 L2771,609 L2749,633 L2749,632 L2726,667 L2726,668 L2725,669 L2702,687 L2680,706 L2679,707 L2678,707 L2656,719 L2634,735 L2611,749 L2589,765 L2589,766 L2588,766 L2565,776 L2543,788 L2520,800 L2498,810 L2474,821 L2451,830 L2454,828 L2432,851 L2431,852 L2429,853 L2406,862 L2406,863 L2405,863 L2383,868 L2360,874 L2362,873 L2340,884 L2339,885 L2315,892 L2293,898 L2270,903 L2271,902 L2249,911 L2251,910 L2228,928 L2205,943 L2203,943 L2181,951 L2183,951 L2160,965 L2159,965 L2158,966 L2135,973 L2112,978 L2090,984 L2092,983 L2069,994 L2068,995 L2066,995 L2022,1001 L2001,1007 L1978,1014 L1955,1020 L1933,1029 L1910,1037 L1887,1047 L1865,1053 L1843,1060 L1840,1060 L1817,1061 L1819,1061 L1798,1066 L1775,1072 L1754,1081 L1730,1092 L1709,1098 L1685,1108 L1662,1116 L1641,1124 L1617,1136 L1595,1143 L1572,1150 L1570,1150 L1548,1152 L1526,1155 L1505,1160 L1481,1167 L1459,1173 L1461,1172 L1438,1182 L1415,1194 L1392,1204 L1369,1212 L1372,1210 L1350,1231 L1348,1233 L1325,1243 L1324,1244 L1323,1244 L1279,1254 L1256,1261 L1233,1265 L1210,1270 L1188,1272 L1165,1277 L1167,1276 L1144,1288 L1121,1297 L1121,1298 L1120,1298 L1076,1308 L1054,1316 L1031,1325 L1008,1332 L986,1337 L963,1344 L941,1349 L917,1358 L895,1364 L873,1369 L851,1377 L851,1378 L850,1378 L827,1382 L828,1381 L806,1390 L782,1397 L760,1401 L737,1407 L715,1411 L692,1415 L670,1419 L647,1424 L648,1423 L625,1432 L625,1433 L624,1433 L603,1437 L579,1446 L557,1452 L534,1458 L512,1463 L488,1468 L466,1470 L443,1472 L444,1472 L422,1478 L399,1483 L376,1487 L372,1487 L366,1483 L365,1480 L365,1476 L369,1470 L372,1469 L372,1469 Z" id="Shape" fill="#4A7EBB" sketch:type="MSShapeGroup"></path>
                    <path d="M983,1463 L1073,1463 L1096,1462 L1118,1462 L1141,1461 L1163,1460 L1185,1457 L1208,1454 L1230,1451 L1252,1445 L1273,1438 L1296,1431 L1318,1424 L1342,1417 L1363,1410 L1385,1400 L1408,1391 L1430,1381 L1454,1372 L1476,1364 L1499,1357 L1521,1350 L1544,1342 L1546,1342 L1568,1340 L1590,1336 L1587,1337 L1609,1324 L1633,1312 L1634,1312 L1634,1311 L1656,1304 L1702,1290 L1724,1282 L1746,1271 L1769,1263 L1793,1256 L1814,1249 L1838,1242 L1860,1238 L1858,1239 L1881,1229 L1904,1221 L1948,1201 L1971,1188 L1994,1177 L2015,1164 L2017,1164 L2018,1163 L2041,1159 L2063,1153 L2086,1147 L2109,1144 L2131,1140 L2130,1141 L2152,1133 L2174,1121 L2197,1112 L2219,1099 L2220,1099 L2220,1098 L2243,1091 L2264,1082 L2287,1071 L2288,1071 L2289,1070 L2311,1065 L2334,1060 L2355,1053 L2378,1046 L2400,1039 L2398,1039 L2421,1025 L2423,1025 L2424,1024 L2446,1018 L2444,1019 L2467,1006 L2490,995 L2512,984 L2513,984 L2514,983 L2537,978 L2534,979 L2556,965 L2580,953 L2601,939 L2624,924 L2647,914 L2646,914 L2669,899 L2690,883 L2691,882 L2692,882 L2715,871 L2737,856 L2758,840 L2781,818 L2802,796 L2803,795 L2804,795 L2827,778 L2848,761 L2872,744 L2918,718 L2916,719 L2938,698 L2961,678 L2960,679 L2983,651 L2984,651 L2984,650 L3006,630 L3007,630 L3007,629 L3030,614 L3053,603 L3050,605 L3073,580 L3075,579 L3076,578 L3098,567 L3120,552 L3142,538 L3166,526 L3187,512 L3185,513 L3208,489 L3231,469 L3234,467 L3238,467 L3241,468 L3244,470 L3246,473 L3246,477 L3245,480 L3243,483 L3221,501 L3198,525 L3198,526 L3197,526 L3174,542 L3152,554 L3130,568 L3106,583 L3084,594 L3087,592 L3064,617 L3063,618 L3061,619 L3040,630 L3017,645 L3018,644 L2996,664 L2997,663 L2974,691 L2973,692 L2950,711 L2928,732 L2926,734 L2903,747 L2882,758 L2859,775 L2837,792 L2814,809 L2815,808 L2793,831 L2769,854 L2747,872 L2723,887 L2700,898 L2701,897 L2679,915 L2656,930 L2655,930 L2634,940 L2611,953 L2588,969 L2566,981 L2544,995 L2543,996 L2541,996 L2518,1001 L2520,1000 L2498,1011 L2475,1022 L2452,1035 L2451,1035 L2450,1036 L2428,1042 L2431,1041 L2408,1055 L2406,1055 L2384,1064 L2338,1078 L2315,1083 L2293,1088 L2295,1087 L2249,1109 L2226,1116 L2227,1115 L2203,1128 L2182,1137 L2158,1149 L2136,1157 L2136,1158 L2135,1158 L2111,1162 L2090,1165 L2067,1171 L2045,1177 L2022,1181 L2025,1180 L2002,1193 L1979,1204 L1956,1217 L1934,1227 L1910,1237 L1889,1245 L1866,1255 L1865,1256 L1864,1256 L1842,1260 L1820,1265 L1797,1274 L1775,1279 L1754,1287 L1730,1298 L1708,1308 L1662,1322 L1640,1329 L1641,1328 L1619,1340 L1597,1353 L1596,1354 L1594,1354 L1570,1358 L1548,1360 L1550,1360 L1527,1366 L1505,1375 L1482,1382 L1460,1388 L1438,1397 L1414,1407 L1393,1416 L1369,1426 L1346,1435 L1324,1440 L1302,1449 L1256,1463 L1232,1469 L1210,1472 L1187,1475 L1163,1478 L1141,1479 L1118,1480 L1096,1480 L1073,1481 L983,1481 L980,1480 L977,1478 L975,1476 L974,1472 L975,1469 L977,1466 L980,1464 L983,1463 L983,1463 Z" id="Shape" fill="#C00000" sketch:type="MSShapeGroup"></path>
                    <text id="0" fill="#000000" sketch:type="MSTextLayer" font-family="Calibri" font-size="68.8128" font-weight="normal">
                        <tspan x="243" y="1507">0</tspan>
                    </text>
                    <text id="500" fill="#000000" sketch:type="MSTextLayer" font-family="Calibri" font-size="68.8128" font-weight="normal">
                        <tspan x="158" y="1219">500</tspan>
                    </text>
                    <text id="1000" fill="#000000" sketch:type="MSTextLayer" font-family="Calibri" font-size="68.8128" font-weight="normal">
                        <tspan x="115" y="930">1000</tspan>
                    </text>
                    <text id="1500" fill="#000000" sketch:type="MSTextLayer" font-family="Calibri" font-size="68.8128" font-weight="normal">
                        <tspan x="115" y="642">1500</tspan>
                    </text>
                    <text id="2000" fill="#000000" sketch:type="MSTextLayer" font-family="Calibri" font-size="68.8128" font-weight="normal">
                        <tspan x="115" y="354">2000</tspan>
                    </text>
                    <text id="2500" fill="#000000" sketch:type="MSTextLayer" font-family="Calibri" font-size="68.8128" font-weight="normal">
                        <tspan x="115" y="66">2500</tspan>
                    </text>
                    <g id="Group" transform="translate(380.000000, 1620.500000) rotate(-90.000000) translate(-380.000000, -1620.500000) translate(263.500000, 1578.500000)" font-size="68.8128" font-family="Calibri" fill="#000000" sketch:type="MSTextLayer" font-weight="normal">
                        <text id="Jul-">
                            <tspan x="0" y="66">Jul-</tspan>
                        </text>
                        <text id="04…">
                            <tspan x="115" y="66">04…</tspan>
                        </text>
                    </g>
                    <g id="Group" transform="translate(492.000000, 1640.000000) rotate(-90.000000) translate(-492.000000, -1640.000000) translate(356.000000, 1598.000000)" font-size="68.8128" font-family="Calibri" fill="#000000" sketch:type="MSTextLayer" font-weight="normal">
                        <text id="Dec-">
                            <tspan x="0" y="66">Dec-</tspan>
                        </text>
                        <text id="04…">
                            <tspan x="154" y="66">04…</tspan>
                        </text>
                    </g>
                    <g id="Group" transform="translate(605.000000, 1650.500000) rotate(-90.000000) translate(-605.000000, -1650.500000) translate(458.500000, 1608.500000)" font-size="68.8128" font-family="Calibri" fill="#000000" sketch:type="MSTextLayer" font-weight="normal">
                        <text id="May-">
                            <tspan x="0" y="66">May-</tspan>
                        </text>
                        <text id="05…">
                            <tspan x="175" y="66">05…</tspan>
                        </text>
                    </g>
                    <g id="Group" transform="translate(718.000000, 1635.000000) rotate(-90.000000) translate(-718.000000, -1635.000000) translate(586.000000, 1593.000000)" font-size="68.8128" font-family="Calibri" fill="#000000" sketch:type="MSTextLayer" font-weight="normal">
                        <text id="Oct-">
                            <tspan x="0" y="66">Oct-</tspan>
                        </text>
                        <text id="05…">
                            <tspan x="146" y="66">05…</tspan>
                        </text>
                    </g>
                    <g id="Group" transform="translate(831.000000, 1646.000000) rotate(-90.000000) translate(-831.000000, -1646.000000) translate(688.000000, 1604.000000)" font-size="68.8128" font-family="Calibri" fill="#000000" sketch:type="MSTextLayer" font-weight="normal">
                        <text id="Mar-">
                            <tspan x="0" y="66">Mar-</tspan>
                        </text>
                        <text id="06…">
                            <tspan x="168" y="66">06…</tspan>
                        </text>
                    </g>
                    <g id="Group" transform="translate(943.000000, 1642.000000) rotate(-90.000000) translate(-943.000000, -1642.000000) translate(805.000000, 1600.000000)" font-size="68.8128" font-family="Calibri" fill="#000000" sketch:type="MSTextLayer" font-weight="normal">
                        <text id="Aug-">
                            <tspan x="0" y="66">Aug-</tspan>
                        </text>
                        <text id="06…">
                            <tspan x="158" y="66">06…</tspan>
                        </text>
                    </g>
                    <g id="Group" transform="translate(1056.000000, 1631.000000) rotate(-90.000000) translate(-1056.000000, -1631.000000) translate(929.000000, 1589.000000)" font-size="68.8128" font-family="Calibri" fill="#000000" sketch:type="MSTextLayer" font-weight="normal">
                        <text id="Jan-">
                            <tspan x="0" y="66">Jan-</tspan>
                        </text>
                        <text id="07…">
                            <tspan x="136" y="66">07…</tspan>
                        </text>
                    </g>
                    <g id="Group" transform="translate(1169.000000, 1632.500000) rotate(-90.000000) translate(-1169.000000, -1632.500000) translate(1039.500000, 1590.500000)" font-size="68.8128" font-family="Calibri" fill="#000000" sketch:type="MSTextLayer" font-weight="normal">
                        <text id="Jun-">
                            <tspan x="0" y="66">Jun-</tspan>
                        </text>
                        <text id="07…">
                            <tspan x="141" y="66">07…</tspan>
                        </text>
                    </g>
                    <g id="Group" transform="translate(1282.000000, 1644.000000) rotate(-90.000000) translate(-1282.000000, -1644.000000) translate(1142.000000, 1602.000000)" font-size="68.8128" font-family="Calibri" fill="#000000" sketch:type="MSTextLayer" font-weight="normal">
                        <text id="Nov-">
                            <tspan x="0" y="66">Nov-</tspan>
                        </text>
                        <text id="07…">
                            <tspan x="162" y="66">07…</tspan>
                        </text>
                    </g>
                    <g id="Group" transform="translate(1394.000000, 1636.000000) rotate(-90.000000) translate(-1394.000000, -1636.000000) translate(1261.000000, 1594.000000)" font-size="68.8128" font-family="Calibri" fill="#000000" sketch:type="MSTextLayer" font-weight="normal">
                        <text id="Apr-">
                            <tspan x="0" y="66">Apr-</tspan>
                        </text>
                        <text id="08…">
                            <tspan x="148" y="66">08…</tspan>
                        </text>
                    </g>
                    <g id="Group" transform="translate(1507.000000, 1637.500000) rotate(-90.000000) translate(-1507.000000, -1637.500000) translate(1372.500000, 1595.500000)" font-size="68.8128" font-family="Calibri" fill="#000000" sketch:type="MSTextLayer" font-weight="normal">
                        <text id="Sep-">
                            <tspan x="0" y="66">Sep-</tspan>
                        </text>
                        <text id="08…">
                            <tspan x="151" y="66">08…</tspan>
                        </text>
                    </g>
                    <g id="Group" transform="translate(1620.000000, 1637.500000) rotate(-90.000000) translate(-1620.000000, -1637.500000) translate(1485.500000, 1595.500000)" font-size="68.8128" font-family="Calibri" fill="#000000" sketch:type="MSTextLayer" font-weight="normal">
                        <text id="Feb-">
                            <tspan x="0" y="66">Feb-</tspan>
                        </text>
                        <text id="09…">
                            <tspan x="151" y="66">09…</tspan>
                        </text>
                    </g>
                    <g id="Group" transform="translate(1732.000000, 1620.500000) rotate(-90.000000) translate(-1732.000000, -1620.500000) translate(1615.500000, 1578.500000)" font-size="68.8128" font-family="Calibri" fill="#000000" sketch:type="MSTextLayer" font-weight="normal">
                        <text id="Jul-">
                            <tspan x="0" y="66">Jul-</tspan>
                        </text>
                        <text id="09…">
                            <tspan x="115" y="66">09…</tspan>
                        </text>
                    </g>
                    <g id="Group" transform="translate(1845.000000, 1640.000000) rotate(-90.000000) translate(-1845.000000, -1640.000000) translate(1709.000000, 1598.000000)" font-size="68.8128" font-family="Calibri" fill="#000000" sketch:type="MSTextLayer" font-weight="normal">
                        <text id="Dec-">
                            <tspan x="0" y="66">Dec-</tspan>
                        </text>
                        <text id="09…">
                            <tspan x="154" y="66">09…</tspan>
                        </text>
                    </g>
                    <g id="Group" transform="translate(1958.000000, 1650.500000) rotate(-90.000000) translate(-1958.000000, -1650.500000) translate(1811.500000, 1608.500000)" font-size="68.8128" font-family="Calibri" fill="#000000" sketch:type="MSTextLayer" font-weight="normal">
                        <text id="May-">
                            <tspan x="0" y="66">May-</tspan>
                        </text>
                        <text id="10…">
                            <tspan x="175" y="66">10…</tspan>
                        </text>
                    </g>
                    <g id="Group" transform="translate(2071.000000, 1635.000000) rotate(-90.000000) translate(-2071.000000, -1635.000000) translate(1939.000000, 1593.000000)" font-size="68.8128" font-family="Calibri" fill="#000000" sketch:type="MSTextLayer" font-weight="normal">
                        <text id="Oct-">
                            <tspan x="0" y="66">Oct-</tspan>
                        </text>
                        <text id="10…">
                            <tspan x="146" y="66">10…</tspan>
                        </text>
                    </g>
                    <g id="Group" transform="translate(2183.000000, 1646.000000) rotate(-90.000000) translate(-2183.000000, -1646.000000) translate(2040.000000, 1604.000000)" font-size="68.8128" font-family="Calibri" fill="#000000" sketch:type="MSTextLayer" font-weight="normal">
                        <text id="Mar-">
                            <tspan x="0" y="66">Mar-</tspan>
                        </text>
                        <text id="11…">
                            <tspan x="168" y="66">11…</tspan>
                        </text>
                    </g>
                    <g id="Group" transform="translate(2296.000000, 1642.000000) rotate(-90.000000) translate(-2296.000000, -1642.000000) translate(2158.000000, 1600.000000)" font-size="68.8128" font-family="Calibri" fill="#000000" sketch:type="MSTextLayer" font-weight="normal">
                        <text id="Aug-">
                            <tspan x="0" y="66">Aug-</tspan>
                        </text>
                        <text id="11…">
                            <tspan x="158" y="66">11…</tspan>
                        </text>
                    </g>
                    <g id="Group" transform="translate(2409.000000, 1631.000000) rotate(-90.000000) translate(-2409.000000, -1631.000000) translate(2282.000000, 1589.000000)" font-size="68.8128" font-family="Calibri" fill="#000000" sketch:type="MSTextLayer" font-weight="normal">
                        <text id="Jan-">
                            <tspan x="0" y="66">Jan-</tspan>
                        </text>
                        <text id="12…">
                            <tspan x="136" y="66">12…</tspan>
                        </text>
                    </g>
                    <g id="Group" transform="translate(2521.000000, 1632.500000) rotate(-90.000000) translate(-2521.000000, -1632.500000) translate(2391.500000, 1590.500000)" font-size="68.8128" font-family="Calibri" fill="#000000" sketch:type="MSTextLayer" font-weight="normal">
                        <text id="Jun-">
                            <tspan x="0" y="66">Jun-</tspan>
                        </text>
                        <text id="12…">
                            <tspan x="141" y="66">12…</tspan>
                        </text>
                    </g>
                    <g id="Group" transform="translate(2634.000000, 1644.000000) rotate(-90.000000) translate(-2634.000000, -1644.000000) translate(2494.000000, 1602.000000)" font-size="68.8128" font-family="Calibri" fill="#000000" sketch:type="MSTextLayer" font-weight="normal">
                        <text id="Nov-">
                            <tspan x="0" y="66">Nov-</tspan>
                        </text>
                        <text id="12…">
                            <tspan x="162" y="66">12…</tspan>
                        </text>
                    </g>
                    <g id="Group" transform="translate(2747.000000, 1636.000000) rotate(-90.000000) translate(-2747.000000, -1636.000000) translate(2614.000000, 1594.000000)" font-size="68.8128" font-family="Calibri" fill="#000000" sketch:type="MSTextLayer" font-weight="normal">
                        <text id="Apr-">
                            <tspan x="0" y="66">Apr-</tspan>
                        </text>
                        <text id="13…">
                            <tspan x="148" y="66">13…</tspan>
                        </text>
                    </g>
                    <g id="Group" transform="translate(2860.000000, 1637.500000) rotate(-90.000000) translate(-2860.000000, -1637.500000) translate(2725.500000, 1595.500000)" font-size="68.8128" font-family="Calibri" fill="#000000" sketch:type="MSTextLayer" font-weight="normal">
                        <text id="Sep-">
                            <tspan x="0" y="66">Sep-</tspan>
                        </text>
                        <text id="13…">
                            <tspan x="151" y="66">13…</tspan>
                        </text>
                    </g>
                    <g id="Group" transform="translate(2972.000000, 1637.500000) rotate(-90.000000) translate(-2972.000000, -1637.500000) translate(2837.500000, 1595.500000)" font-size="68.8128" font-family="Calibri" fill="#000000" sketch:type="MSTextLayer" font-weight="normal">
                        <text id="Feb-">
                            <tspan x="0" y="66">Feb-</tspan>
                        </text>
                        <text id="14…">
                            <tspan x="151" y="66">14…</tspan>
                        </text>
                    </g>
                    <g id="Group" transform="translate(3085.000000, 1620.500000) rotate(-90.000000) translate(-3085.000000, -1620.500000) translate(2968.500000, 1578.500000)" font-size="68.8128" font-family="Calibri" fill="#000000" sketch:type="MSTextLayer" font-weight="normal">
                        <text id="Jul-">
                            <tspan x="0" y="66">Jul-</tspan>
                        </text>
                        <text id="14…">
                            <tspan x="115" y="66">14…</tspan>
                        </text>
                    </g>
                    <g id="Group" transform="translate(3198.000000, 1640.000000) rotate(-90.000000) translate(-3198.000000, -1640.000000) translate(3062.000000, 1598.000000)" font-size="68.8128" font-family="Calibri" fill="#000000" sketch:type="MSTextLayer" font-weight="normal">
                        <text id="Dec-">
                            <tspan x="0" y="66">Dec-</tspan>
                        </text>
                        <text id="14…">
                            <tspan x="154" y="66">14…</tspan>
                        </text>
                    </g>
                    <g id="Group" transform="translate(43.000000, 781.500000) rotate(-90.000000) translate(-43.000000, -781.500000) translate(-202.500000, 739.500000)" font-size="68.8128" font-family="Calibri" fill="#000000" sketch:type="MSTextLayer" font-weight="bold">
                        <text id="Member">
                            <tspan x="0" y="66">Member</tspan>
                        </text>
                        <text id="Count">
                            <tspan x="320" y="66">Count</tspan>
                        </text>
                    </g>
                    <text id="Month" fill="#000000" sketch:type="MSTextLayer" font-family="Calibri" font-size="68.8128" font-weight="bold">
                        <tspan x="1688" y="1896">Month</tspan>
                    </text>
                    <path d="M3380,900 L3542,900 L3546,901 L3548,903 L3550,906 L3551,909 L3550,913 L3546,917 L3542,918 L3380,918 L3377,917 L3374,915 L3372,913 L3371,909 L3372,906 L3374,903 L3377,901 L3380,900 L3380,900 Z" id="Shape" fill="#4A7EBB" sketch:type="MSShapeGroup"></path>
                    <text id="HelpDesk" fill="#000000" sketch:type="MSTextLayer" font-family="Calibri" font-size="68.8128" font-weight="normal">
                        <tspan x="3560" y="934">HelpDesk</tspan>
                    </text>
                    <path d="M3380,1052 L3542,1052 L3546,1053 L3548,1055 L3550,1058 L3551,1061 L3550,1065 L3546,1069 L3542,1070 L3380,1070 L3377,1069 L3374,1067 L3372,1065 L3371,1061 L3372,1058 L3374,1055 L3377,1053 L3380,1052 L3380,1052 Z" id="Shape" fill="#C00000" sketch:type="MSShapeGroup"></path>
                    <text id="Discuss" fill="#000000" sketch:type="MSTextLayer" font-family="Calibri" font-size="68.8128" font-weight="normal">
                        <tspan x="3560" y="1086">Discuss</tspan>
                    </text>
                </g>
            </g>
        </g>
    </g>
</svg>