<?xml version="1.0" standalone="no"?>
<svg xml:space="preserve" width="100%" height="100%" viewBox="0 0 4897 6337" preserveAspectRatio="xMidYMid"
  fill-rule="nonzero" stroke-linecap="round" stroke-linejoin="round"
  xmlns="http://www.w3.org/2000/svg"
  xmlns:xlink="http://www.w3.org/1999/xlink"
  xmlns:svgmaker="http://www.svgmaker.com/svgns">
<svgmaker:init width="215.9mm" height="279.4mm" viewBox="0 0 4897 6337" view="fit"
  crop="none" cropWidth="180.3mm" cropHeight="130.2mm" cropBox="404 1692 4090 2954"/>
<title>Untitled</title>
<desc>
  Generated by SVGmaker V3 Version 3.61.E702.64
  FEB-24-2015, 18:24
</desc>
<defs><clipPath id="page_clip"><rect x="0" y="0" width="4897" height="6337"/></clipPath></defs>
<g id="Page_1" clip-path="url(#page_clip)" svgmaker:mediaBox="0 0 4897 6337">
<rect x="406" y="1694" width="4085" height="2949" fill="#FFFFFF" stroke="none"/>
<path fill="#4572A7" stroke="none" d="M 2449,3398 l 945,308 15,-49 12,-49 9,-50 7,-49 4,-49 2,-49 0,-49 -3,-49 -6,-48 -7,-47 -10,-47 -12,-47 -14,-45 -17,-45 -18,-44 -21,-43 -23,-42 -24,-41 -27,-40 -28,-38 -31,-37 -32,-36 -34,-34 -35,-33 -38,-31 -39,-29 -40,-27 -43,-26 -44,-23 -45,-22 -47,-19 -48,-17 -38,-11 -38,-10 -38,-9 -38,-6 -39,-6 -39,-4 -39,-2 -39,-1 0,995 z"/>
<path fill="#AA4643" stroke="none" d="M 2449,3398 l 270,957 59,-19 57,-22 56,-25 54,-29 51,-32 50,-35 47,-38 45,-40 42,-43 39,-46 37,-48 34,-50 31,-53 28,-54 24,-57 21,-58 -945,-308 z"/>
<path fill="#89A54E" stroke="none" d="M 2449,3398 l -246,963 32,8 32,6 64,10 33,3 32,2 33,2 32,0 33,-1 32,-2 33,-3 32,-4 32,-5 32,-6 64,-16 -270,-957 z"/>
<path fill="#71588F" stroke="none" d="M 2449,3398 l -682,724 47,42 50,38 52,35 54,32 56,29 57,25 60,21 60,17 246,-963 z"/>
<path fill="#4198AF" stroke="none" d="M 2449,3398 l -930,353 22,52 24,51 27,49 30,48 33,46 35,43 37,42 40,40 682,-724 z"/>
<path fill="#DB843D" stroke="none" d="M 2449,3398 l -991,-87 -3,56 0,56 3,56 6,56 9,55 12,54 16,54 18,53 930,-353 z"/>
<path fill="#93A9CF" stroke="none" d="M 2449,3398 l -873,-478 -23,46 -22,47 -18,48 -16,49 -14,49 -11,50 -8,51 -6,51 991,87 z"/>
<path fill="#D19392" stroke="none" d="M 2449,3398 l -675,-731 -29,28 -28,29 -27,30 -25,31 -24,32 -23,34 -22,34 -20,35 873,478 z"/>
<path fill="#B9CD96" stroke="none" d="M 2449,3398 l -412,-905 -36,17 -35,18 -34,20 -34,21 -32,23 -32,24 -30,25 -30,26 675,731 z"/>
<path fill="#A99BBD" stroke="none" d="M 2449,3398 l -156,-982 -33,6 -33,7 -33,8 -32,9 -32,10 -31,11 -31,12 -31,14 412,905 z"/>
<path fill="#91C3D5" stroke="none" d="M 2449,3398 l 0,-995 -40,1 -39,2 -39,4 -38,6 156,982 z"/>
<path fill="#000000" stroke="none" d="M 2369,2403 l 264,-139 40,0 0,6 -39,0 1,0 -264,139 -2,-6 z m 771,1710 l 125,149 -2,-1 38,0 0,6 -38,0 -2,-1 -125,-149 4,-4 z m -1167,157 l -55,172 -3,2 -39,0 0,-6 39,0 -3,2 55,-172 6,2 z m -348,-318 l -53,137 -3,2 -39,0 0,-6 39,0 -3,2 53,-137 6,2 z m 272,-1380 l -111,-61 1,0 -39,0 0,-6 40,0 111,61 -2,6 z m -233,216 l -151,-46 1,0 -39,0 0,-6 40,0 151,46 -2,6 z m 1586,24 l 43,-91 3,-2 39,0 0,6 -39,0 3,-2 -43,91 -6,-2 z m -1787,726 l -127,-31 1,0 -38,0 0,-6 39,0 127,31 -2,6 z m 696,-1092 l -31,-149 6,-2 31,149 -6,2 z m -662,666 l -140,-10 -39,0 0,-6 39,0 140,10 0,6 z m 967,1280 l 0,103 -6,0 0,-103 6,0 z"/>
<rect x="3379" y="2668" width="47" height="47" fill="#4572A7" stroke="none"/>
<text font-family="Calibri" font-size="87" fill="#000000"><tspan x="3470,3526,3548,3602,3676,3716,3737" y="2723">NIGMS, </tspan><tspan x="3757,3801,3845,3890,3934,3956" y="2723">1042, </tspan><tspan x="3974,4018,4063" y="2723">30%</tspan></text>
<rect x="3345" y="4210" width="47" height="47" fill="#AA4643" stroke="none"/>
<text font-family="Calibri" font-size="87" fill="#000000"><tspan x="3436,3493,3539,3561,3582" y="4265">NCI, </tspan><tspan x="3601,3645,3690,3734,3756" y="4265">542, </tspan><tspan x="3774,3818,3863" y="4265">16%</tspan></text>
<rect x="2373" y="4523" width="47" height="48" fill="#89A54E" stroke="none"/>
<text font-family="Calibri" font-size="87" fill="#000000"><tspan x="2465,2521,2542,2592,2614,2667,2689" y="4578">NIAID, </tspan><tspan x="2708,2752,2797,2841,2863" y="4578">290, </tspan><tspan x="2881,2925" y="4578">8%</tspan></text>
<rect x="1257" y="4388" width="47" height="47" fill="#71588F" stroke="none"/>
<text font-family="Calibri" font-size="87" fill="#000000"><tspan x="1348,1405,1451,1498,1544,1566" y="4442">NCRR, </tspan><tspan x="1585,1630,1674,1718,1740" y="4442">279, </tspan><tspan x="1758,1803" y="4442">8%</tspan></text>
<rect x="878" y="4035" width="47" height="47" fill="#4198AF" stroke="none"/>
<text font-family="Calibri" font-size="87" fill="#000000"><tspan x="969,1025,1047,1100,1153,1198,1220" y="4089">NIDDK, </tspan><tspan x="1239,1284,1328,1372,1394" y="4089">250, </tspan><tspan x="1412,1457" y="4089">7%</tspan></text>
<rect x="660" y="3450" width="48" height="48" fill="#DB843D" stroke="none"/>
<text font-family="Calibri" font-size="87" fill="#000000"><tspan x="752,808,862,899,946,968,990" y="3505">NHLBI, </tspan><tspan x="1008,1052,1097,1141,1163" y="3505">249, </tspan><tspan x="1181,1226" y="3505">7%</tspan></text>
<rect x="728" y="3045" width="48" height="48" fill="#93A9CF" stroke="none"/>
<text font-family="Calibri" font-size="87" fill="#000000"><tspan x="820,877,913,987,1008" y="3100">NLM, </tspan><tspan x="1028,1072,1117,1161,1183" y="3100">229, </tspan><tspan x="1200,1244" y="3100">7%</tspan></text>
<rect x="819" y="2685" width="47" height="48" fill="#D19392" stroke="none"/>
<text font-family="Calibri" font-size="87" fill="#000000"><tspan x="911,967,1021,1075,1122,1143,1165" y="2740">NHGRI, </tspan><tspan x="1185,1230,1274,1319,1340" y="2740">179, </tspan><tspan x="1357,1402" y="2740">5%</tspan></text>
<rect x="1111" y="2455" width="48" height="47" fill="#B9CD96" stroke="none"/>
<text font-family="Calibri" font-size="87" fill="#000000"><tspan x="1203,1260,1281,1324,1378,1418,1439" y="2509">NIEHS, </tspan><tspan x="1459,1503,1547,1592,1613" y="2509">176, </tspan><tspan x="1631,1675" y="2509">5%</tspan></text>
<rect x="1502" y="2242" width="47" height="48" fill="#A99BBD" stroke="none"/>
<text font-family="Calibri" font-size="87" fill="#000000"><tspan x="1593,1649,1671,1744,1798,1820" y="2297">NIMH, </tspan><tspan x="1839,1884,1928,1973,1994" y="2297">149, </tspan><tspan x="2013,2057" y="2297">4%</tspan></text>
<rect x="2717" y="2213" width="47" height="47" fill="#91C3D5" stroke="none"/>
<text font-family="Calibri" font-size="87" fill="#000000"><tspan x="2808,2885,2928,2947,2967,3004,3049,3118,3162" y="2268">Wellcome </tspan><tspan x="3182,3224,3255,3300,3334,3363,3384" y="2268">Trust, </tspan><tspan x="3404,3448,3493,3514" y="2268">87, </tspan><tspan x="3108,3152" y="2374">3%</tspan></text>
<text font-family="Calibri" font-size="156" fill="#000000" font-weight="700"><tspan x="1598,1662,1746,1829" y="1908">Top </tspan><tspan x="1865,1943,2022" y="1908">11 </tspan><tspan x="2058,2130,2213,2296,2379,2417,2501,2574" y="1908">Funding </tspan><tspan x="2611,2705,2776,2855,2939,3004,3077" y="1908">Agency </tspan><tspan x="3114,3161,3245,3300" y="1908">for </tspan><tspan x="1279,1361,1436,1489,1572,1634,1698,1775,1858,1937" y="2099">Cytoscape </tspan><tspan x="1973,2055,2093,2146,2221,2276,2313,2397,2480,2542" y="2099">Citations </tspan><tspan x="2578,2627,2706,2746,2825,2904,2983" y="2099">(4,396 </tspan><tspan x="3019,3084,3121,3174,3250,3304,3342,3425,3509,3570" y="2099">citations)</tspan></text>
<path fill="#868686" stroke="none" d="M 4492,1692 l 0,1 2,0 0,5 -4084,0 0,2942 -6,0 0,-2945 1,0 0,-2 2,0 0,-1 4085,0 z"/>
<path fill="#868686" stroke="none" d="M 4494,1698 l 0,2948 -4089,0 0,-1 -1,0 0,-5 4084,0 0,-2942 6,0 z"/>
</g>
</svg>
