<?xml version="1.0" standalone="no"?>
<svg xml:space="preserve" width="100%" height="100%" viewBox="0 0 2448 3168" preserveAspectRatio="xMidYMid"
  fill-rule="nonzero" stroke-linecap="round" stroke-linejoin="round"
  xmlns="http://www.w3.org/2000/svg"
  xmlns:xlink="http://www.w3.org/1999/xlink"
  xmlns:svgmaker="http://www.svgmaker.com/svgns">
<svgmaker:init width="215.9mm" height="279.4mm" viewBox="0 0 2448 3168" view="fit"
  crop="none" cropWidth="180.4mm" cropHeight="129.6mm" cropBox="202 849 2045 1470"/>
<title>Untitled</title>
<desc>
  Generated by SVGmaker V3 Version 3.61.E702.64
  FEB-24-2015, 18:16
</desc>
<defs><clipPath id="page_clip"><rect x="0" y="0" width="2448" height="3168"/></clipPath></defs>
<g id="Page_1" clip-path="url(#page_clip)" svgmaker:mediaBox="0 0 2448 3168">
<rect x="203" y="850" width="2042" height="1467" fill="#FFFFFF" stroke="none"/>
<path fill="#4572A7" stroke="none" d="M 1224,1692 l 490,114 5,-25 4,-26 3,-25 1,-25 0,-25 -1,-24 -2,-25 -4,-24 -5,-24 -6,-24 -7,-23 -8,-23 -9,-22 -10,-22 -11,-21 -13,-21 -27,-40 -31,-37 -35,-34 -38,-31 -41,-27 -21,-12 -23,-11 -23,-10 -24,-9 -24,-7 -25,-7 -28,-5 -29,-4 -29,-3 -29,-1 0,503 z"/>
<path fill="#AA4643" stroke="none" d="M 1224,1692 l 388,320 18,-23 16,-24 15,-24 14,-26 12,-26 10,-27 9,-28 8,-28 -490,-114 z"/>
<path fill="#89A54E" stroke="none" d="M 1224,1692 l 238,443 21,-12 21,-13 39,-29 36,-33 33,-36 -388,-320 z"/>
<path fill="#71588F" stroke="none" d="M 1224,1692 l 66,498 22,-3 23,-5 43,-12 43,-16 41,-19 -238,-443 z"/>
<path fill="#4198AF" stroke="none" d="M 1224,1692 l -101,492 41,7 42,3 42,0 42,-4 -66,-498 z"/>
<path fill="#DB843D" stroke="none" d="M 1224,1692 l -243,440 34,17 35,14 36,12 37,9 101,-492 z"/>
<path fill="#93A9CF" stroke="none" d="M 1224,1692 l -341,369 23,20 24,19 25,16 26,16 243,-440 z"/>
<path fill="#D19392" stroke="none" d="M 1224,1692 l -411,289 33,42 18,19 19,19 341,-369 z"/>
<path fill="#B9CD96" stroke="none" d="M 1224,1692 l -459,205 10,22 12,21 13,21 13,20 411,-289 z"/>
<path fill="#A99BBD" stroke="none" d="M 1224,1692 l -482,144 11,31 12,30 459,-205 z"/>
<path fill="#91C3D5" stroke="none" d="M 1224,1692 l 0,-503 -26,1 -25,2 -25,3 -25,4 -24,6 -24,7 -24,8 -22,9 -23,10 -21,11 -21,12 -21,13 -39,29 -35,32 -33,36 -29,39 -13,20 -12,21 -11,22 -10,22 -9,23 -8,23 -7,24 -6,25 -4,24 -3,26 -2,25 -1,26 1,36 5,36 6,36 9,36 482,-144 z"/>
<path fill="#000000" stroke="none" d="M 848,2025 l -94,94 -21,0 0,-3 19,0 -1,0 94,-94 3,3 z m 769,-647 l 90,-94 19,0 0,3 -18,0 2,0 -90,94 -3,-3 z m -685,722 l -47,98 -2,1 -19,0 0,-3 19,0 -1,1 47,-98 3,1 z m 743,-186 l 96,45 -1,0 19,0 0,3 -19,0 -96,-45 1,-3 z m -887,28 l -85,48 -19,0 0,-3 18,0 85,-48 1,3 z m 263,222 l -45,78 -2,1 -19,0 0,-3 19,0 -1,1 45,-78 3,1 z m -230,-771 l -87,-45 -18,0 0,-3 19,0 87,45 -1,3 z m 559,777 l 18,63 -2,-1 18,0 0,3 -18,0 -1,-1 -18,-63 3,-1 z m 164,-90 l 30,39 -2,-1 18,0 0,3 -18,0 -1,-1 -30,-39 3,-1 z"/>
<text font-family="Calibri" font-size="41" fill="#000000"><tspan x="1734,1760,1782,1791,1804,1824,1846" y="1286">United </tspan><tspan x="1855,1873,1886,1906,1919,1939" y="1286">States</tspan><tspan x="1810,1830,1851" y="1336">29%</tspan><tspan x="1796,1806,1828,1849,1858" y="1962">India</tspan><tspan x="1812,1833" y="2011">7%</tspan><tspan x="1598,1620,1641,1650,1672" y="2120">China</tspan><tspan x="1620,1640" y="2170">6%</tspan><tspan x="1422,1448,1470,1479,1492,1512,1534" y="2235">United </tspan><tspan x="1543,1564,1574,1595,1614,1636,1657" y="2235">Kingdom</tspan><tspan x="1531,1551" y="2285">6%</tspan><tspan x="1040,1065,1086,1100,1132,1152,1173" y="2249">Germany</tspan><tspan x="1091,1111" y="2299">5%</tspan><tspan x="886,899,919,940,959" y="2249">Japan</tspan><tspan x="908,929" y="2299">5%</tspan><tspan x="749,767,781,801,822,839" y="2198">France</tspan><tspan x="779,800" y="2248">4%</tspan><tspan x="605,627,646,668,687,708" y="2119">Canada</tspan><tspan x="642,663" y="2169">3%</tspan><tspan x="609,619,632,652,661" y="1989">Italy</tspan><tspan x="619,639" y="2039">3%</tspan><tspan x="525,551,572,585,606,627,641,650,669,691,712" y="1859">Netherlands</tspan><tspan x="602,622" y="1909">2%</tspan><tspan x="628,654,668,689,709" y="1298">Other</tspan><tspan x="641,661,682" y="1348">30%</tspan></text>
<text font-family="Calibri" font-size="74" fill="#000000" font-weight="700"><tspan x="771,834,871,911" y="952">Web </tspan><tspan x="928,963,981,1006,1042" y="952">Site </tspan><tspan x="1059,1093,1130,1159,1189,1207,1247,1287,1316" y="952">Sessions </tspan><tspan x="1332,1354,1392,1411,1449,1487,1524,1544,1581,1618,1656" y="952">(1,071,150)</tspan><tspan x="758,780,818" y="1041">(1/</tspan><tspan x="850,887" y="1041">1/</tspan><tspan x="919,957,994,1032,1070" y="1041">2012 </tspan><tspan x="1084,1109,1149,1175,1214,1254,1289,1329" y="1041">through </tspan><tspan x="1343,1381" y="1041">2/</tspan><tspan x="1412,1450,1488" y="1041">22/</tspan><tspan x="1519,1557,1595,1632,1670" y="1041">2015)</tspan></text>
<path fill="#868686" stroke="none" d="M 202,851 l 2,-2 2042,0 1,1 0,1469 -2044,0 -1,-1 0,-1467 z m 3,1467 l -1,-2 2042,0 -2,2 0,-1467 2,1 -2042,0 1,-1 0,1467 z"/>
</g>
</svg>
