<?xml version="1.0" standalone="no"?>
<svg xml:space="preserve" width="100%" height="100%" viewBox="0 0 4897 6337" preserveAspectRatio="xMidYMid"
  fill-rule="nonzero" stroke-linecap="round" stroke-linejoin="round"
  xmlns="http://www.w3.org/2000/svg"
  xmlns:xlink="http://www.w3.org/1999/xlink"
  xmlns:svgmaker="http://www.svgmaker.com/svgns">
<svgmaker:init width="215.9mm" height="279.4mm" viewBox="0 0 4897 6337" view="fit"
  crop="none" cropWidth="180.3mm" cropHeight="90.4mm" cropBox="404 2144 4090 2050"/>
<title>Untitled</title>
<desc>
  Generated by SVGmaker V3 Version 3.61.E702.64
  FEB-24-2015, 18:17
</desc>
<defs><clipPath id="page_clip"><rect x="0" y="0" width="4897" height="6337"/></clipPath></defs>
<g id="Page_1" clip-path="url(#page_clip)" svgmaker:mediaBox="0 0 4897 6337">
<rect x="406" y="2146" width="4086" height="2047" fill="#FFFFFF" stroke="none"/>
<path fill="#4572A7" stroke="none" d="M 2449,3321 l 294,628 32,-16 31,-17 29,-19 28,-20 27,-21 26,-23 25,-23 23,-25 22,-26 20,-26 19,-28 18,-28 17,-29 28,-60 12,-31 11,-31 9,-33 7,-32 6,-33 4,-33 3,-33 1,-34 0,-33 -2,-34 -4,-34 -5,-34 -8,-33 -9,-34 -10,-33 -13,-33 -14,-33 -23,-44 -26,-43 -28,-40 -31,-38 -34,-35 -36,-33 -38,-30 -40,-27 -41,-25 -44,-21 -45,-19 -46,-15 -47,-12 -49,-9 -49,-5 -50,-2 0,692 z"/>
<path fill="#AA4643" stroke="none" d="M 2449,3321 l -371,586 38,22 39,20 40,17 41,15 42,12 42,9 42,7 43,4 43,1 43,-1 43,-4 43,-7 42,-9 42,-12 41,-15 41,-17 -294,-628 z"/>
<path fill="#89A54E" stroke="none" d="M 2449,3321 l -563,405 20,27 21,25 46,48 25,22 26,21 26,19 28,19 371,-586 z"/>
<path fill="#71588F" stroke="none" d="M 2449,3321 l -664,198 9,28 10,27 11,26 12,27 13,25 14,26 32,48 563,-405 z"/>
<path fill="#4198AF" stroke="none" d="M 2449,3321 l -693,17 3,46 6,45 8,45 12,45 664,-198 z"/>
<path fill="#DB843D" stroke="none" d="M 2449,3321 l -692,-44 -1,30 0,31 693,-17 z"/>
<path fill="#93A9CF" stroke="none" d="M 2449,3321 l -688,-85 -2,21 -2,20 692,44 z"/>
<path fill="#D19392" stroke="none" d="M 2449,3321 l -683,-120 -5,35 688,85 z"/>
<path fill="#B9CD96" stroke="none" d="M 2449,3321 l -676,-153 -7,33 683,120 z"/>
<path fill="#A99BBD" stroke="none" d="M 2449,3321 l -668,-184 -8,31 676,153 z"/>
<path fill="#91C3D5" stroke="none" d="M 2449,3321 l 0,-692 -58,2 -29,3 -56,10 -27,6 -28,8 -26,8 -27,10 -25,10 -26,12 -25,13 -47,28 -46,32 -43,35 -39,38 -37,42 -33,45 -30,48 -14,25 -12,25 -12,26 -20,54 -8,28 668,184 z"/>
<path fill="#000000" stroke="none" d="M 1776,3154 l -505,-380 1,0 -28,0 0,-4 29,0 505,380 -2,4 z m -7,33 l -380,-222 1,0 -28,0 0,-4 29,0 380,222 -2,4 z m -3,243 l -223,290 -2,1 -29,0 0,-4 29,0 -2,1 223,-290 4,2 z m 210,397 l -148,249 -2,1 -28,0 0,-4 28,0 -2,1 148,-249 4,2 z m -219,-519 l -172,176 -1,1 -28,0 0,-4 28,0 -1,1 172,-176 2,2 z m 72,320 l -89,254 -2,1 -28,0 0,-4 28,0 -2,1 89,-254 4,2 z m 1295,-458 l 133,-140 1,-1 29,0 0,4 -29,0 1,-1 -133,140 -2,-2 z m -1365,88 l -300,66 -28,0 0,-4 28,0 300,-66 0,4 z m 5,-37 l -359,-52 -29,0 0,-4 29,0 359,52 0,4 z m 264,-449 l -206,-59 1,0 -29,0 0,-4 30,0 206,59 -2,4 z"/>
<text font-family="Calibri" font-size="63" fill="#000000"><tspan x="3297,3327,3360,3393,3424,3438,3469,3484,3508" y="3032">google / </tspan><tspan x="3522,3556,3578,3608,3638,3671,3686" y="3032">organic</tspan><tspan x="3450,3482,3515" y="3109">43%</tspan><tspan x="2876,2895,2928,2942,2964,2996,3023,3044,3063,3078,3102" y="4039">(direct) / </tspan><tspan x="3116,3135,3169,3202,3235,3267" y="4039">(none)</tspan><tspan x="3025,3058,3090" y="4117">16%</tspan><tspan x="1431,1458,1487,1508,1541,1566,1593,1623,1656,1688,1704,1737,1759" y="4089">cytoscape.org</tspan><tspan x="1572,1604" y="4167">6%</tspan><tspan x="1402,1432,1465,1498,1529,1543,1574,1590,1617,1650" y="3881">google.com</tspan><tspan x="1513,1545" y="3958">5%</tspan><tspan x="1191,1221,1254,1287,1317,1332,1363,1378,1402" y="3719">google / </tspan><tspan x="1416,1443,1476" y="3719">cpc</tspan><tspan x="1309,1341" y="3797">4%</tspan><tspan x="1052,1082,1115,1148,1173,1188,1215,1244,1265,1298,1323,1350,1380,1413,1445,1461,1494,1516" y="3483">apps.cytoscape.org</tspan><tspan x="1260,1293" y="3561">1%</tspan><tspan x="1110,1140,1173,1206,1236,1251,1282,1298,1325,1358,1374,1388" y="3322">google.co.in</tspan><tspan x="1227,1259" y="3399">1%</tspan><tspan x="940,971,1005,1020,1066,1080,1108,1123,1156,1187,1221,1235,1265,1281,1314,1336" y="3167">en.wikipedia.org</tspan><tspan x="1115,1147" y="3245">1%</tspan><tspan x="1027,1057,1090,1123,1153,1168,1199,1215,1242,1275,1291,1324" y="2963">google.co.uk</tspan><tspan x="1151,1183" y="3041">1%</tspan><tspan x="847,881,911,925,958,992,1007,1031" y="2773">baidu / </tspan><tspan x="1045,1079,1101,1131,1161,1194,1208" y="2773">organic</tspan><tspan x="1003,1035" y="2850">1%</tspan><tspan x="1644,1677,1698,1731,1763" y="2711">other</tspan><tspan x="1659,1692,1724" y="2789">21%</tspan></text>
<text font-family="Calibri" font-size="102" fill="#000000" font-weight="700"><tspan x="1670,1758,1808,1863" y="2253">Web </tspan><tspan x="1886,1934,1959,1992,2043" y="2253">Site </tspan><tspan x="2067,2122,2172,2203,2254,2290,2324,2374,2399" y="2253">Referral </tspan><tspan x="2422,2470,2525,2579,2614,2657,2707,2748" y="2253">Sources </tspan><tspan x="2770,2802,2853,2879,2931,2982,3033,3060,3111,3162,3214" y="2253">(1,071,150)</tspan><tspan x="1815,1846,1898" y="2376">(1/</tspan><tspan x="1941,1993" y="2376">1/</tspan><tspan x="2036,2088,2139,2191,2242" y="2376">2012 </tspan><tspan x="2264,2299,2354,2388,2443,2498,2546,2601" y="2376">through </tspan><tspan x="2623,2674" y="2376">2/</tspan><tspan x="2718,2769,2821" y="2376">22/</tspan><tspan x="2864,2915,2967,3018,3070" y="2376">1015)</tspan></text>
<path fill="#868686" stroke="none" d="M 4492,2144 l 0,1 2,0 0,3 -4086,0 0,2042 -4,0 0,-2044 1,0 0,-1 1,0 0,-1 4086,0 z"/>
<path fill="#868686" stroke="none" d="M 4494,2148 l 0,2046 -4090,0 0,-4 4086,0 0,-2042 4,0 z"/>
</g>
</svg>
