<?xml version="1.0" encoding="UTF-8" standalone="no"?>
<!-- Created with Inkscape (http://www.inkscape.org/) -->

<svg
   xmlns:dc="http://purl.org/dc/elements/1.1/"
   xmlns:cc="http://creativecommons.org/ns#"
   xmlns:rdf="http://www.w3.org/1999/02/22-rdf-syntax-ns#"
   xmlns:svg="http://www.w3.org/2000/svg"
   xmlns="http://www.w3.org/2000/svg"
   xmlns:sodipodi="http://sodipodi.sourceforge.net/DTD/sodipodi-0.dtd"
   xmlns:inkscape="http://www.inkscape.org/namespaces/inkscape"
   version="1.1"
   id="svg196"
   xml:space="preserve"
   width="680.63995"
   height="438.07999"
   viewBox="0 0 680.63995 438.07999"
   sodipodi:docname="Agencies_Funding_Cytoscape_Citations.svg"
   inkscape:version="0.92.3 (2405546, 2018-03-11)"><metadata
     id="metadata202"><rdf:RDF><cc:Work
         rdf:about=""><dc:format>image/svg+xml</dc:format><dc:type
           rdf:resource="http://purl.org/dc/dcmitype/StillImage" /><dc:title></dc:title></cc:Work></rdf:RDF></metadata><defs
     id="defs200"><clipPath
       clipPathUnits="userSpaceOnUse"
       id="clipPath378"><path
         d="M 50.64,560.4 V 231.6 h 510.72 v 328.8 z"
         id="path376"
         inkscape:connector-curvature="0"
         style="clip-rule:evenodd" /></clipPath></defs><sodipodi:namedview
     pagecolor="#ffffff"
     bordercolor="#666666"
     borderopacity="1"
     objecttolerance="10"
     gridtolerance="10"
     guidetolerance="10"
     inkscape:pageopacity="0"
     inkscape:pageshadow="2"
     inkscape:window-width="730"
     inkscape:window-height="775"
     id="namedview198"
     showgrid="false"
     inkscape:zoom="0.59469697"
     inkscape:cx="340.16"
     inkscape:cy="219.20001"
     inkscape:window-x="2188"
     inkscape:window-y="277"
     inkscape:window-maximized="0"
     inkscape:current-layer="g204" /><g
     id="g204"
     inkscape:groupmode="layer"
     inkscape:label="Agencies_Funding_Cytoscape_Citations"
     transform="matrix(1.3333333,0,0,-1.3333333,-67.839998,746.87998)"><path
       d="M 51.24,231.96 H 561.12 V 559.8 H 51.24 Z"
       style="fill:#ffffff;fill-opacity:1;fill-rule:nonzero;stroke:none"
       id="path206"
       inkscape:connector-curvature="0" /><path
       d="m 306.12,481.08 c 61.08,0 110.64,-49.56 110.64,-110.64 0,-0.48 0,-0.84 0,-1.32 l -110.64,1.32 z"
       style="fill:#40699c;fill-opacity:1;fill-rule:evenodd;stroke:none"
       id="path208"
       inkscape:connector-curvature="0" /><path
       d="m 416.76,369.12 c -0.6,-46.44 -30,-87.48 -73.8,-102.96 l -36.84,104.28 z"
       style="fill:#9e413e;fill-opacity:1;fill-rule:evenodd;stroke:none"
       id="path210"
       inkscape:connector-curvature="0" /><path
       d="M 342.96,266.16 C 323.16,259.2 301.8,258 281.28,262.68 l 24.84,107.76 z"
       style="fill:#7f9a48;fill-opacity:1;fill-rule:evenodd;stroke:none"
       id="path212"
       inkscape:connector-curvature="0" /><path
       d="m 281.28,262.68 c -18.48,4.32 -35.52,13.2 -49.56,25.92 l 74.4,81.84 z"
       style="fill:#695185;fill-opacity:1;fill-rule:evenodd;stroke:none"
       id="path214"
       inkscape:connector-curvature="0" /><path
       d="m 231.72,288.6 c -11.76,10.8 -21.12,24 -27.36,38.64 l 101.76,43.2 z"
       style="fill:#3c8da3;fill-opacity:1;fill-rule:evenodd;stroke:none"
       id="path216"
       inkscape:connector-curvature="0" /><path
       d="m 204.36,327.24 c -5.04,11.88 -7.92,24.6 -8.64,37.56 l 110.4,5.64 z"
       style="fill:#cc7b38;fill-opacity:1;fill-rule:evenodd;stroke:none"
       id="path218"
       inkscape:connector-curvature="0" /><path
       d="m 195.72,364.8 c -0.6,11.16 0.6,22.32 3.36,33.12 l 107.04,-27.48 z"
       style="fill:#4f81bd;fill-opacity:1;fill-rule:evenodd;stroke:none"
       id="path220"
       inkscape:connector-curvature="0" /><path
       d="m 199.08,397.92 c 2.4,9.48 6,18.48 10.8,26.88 l 96.24,-54.36 z"
       style="fill:#c0504d;fill-opacity:1;fill-rule:evenodd;stroke:none"
       id="path222"
       inkscape:connector-curvature="0" /><path
       d="m 209.88,424.8 c 4.68,8.28 10.32,15.96 16.92,22.68 l 79.32,-77.04 z"
       style="fill:#9bbb59;fill-opacity:1;fill-rule:evenodd;stroke:none"
       id="path224"
       inkscape:connector-curvature="0" /><path
       d="m 226.8,447.48 c 5.88,6.12 12.48,11.4 19.56,16.08 l 59.76,-93.12 z"
       style="fill:#8064a2;fill-opacity:1;fill-rule:evenodd;stroke:none"
       id="path226"
       inkscape:connector-curvature="0" /><path
       d="m 246.36,463.56 c 6.48,4.08 13.32,7.56 20.52,10.32 l 39.24,-103.44 z"
       style="fill:#4bacc6;fill-opacity:1;fill-rule:evenodd;stroke:none"
       id="path228"
       inkscape:connector-curvature="0" /><path
       d="m 266.88,473.88 c 6.36,2.4 12.96,4.2 19.68,5.4 l 19.56,-108.84 z"
       style="fill:#f79646;fill-opacity:1;fill-rule:evenodd;stroke:none"
       id="path230"
       inkscape:connector-curvature="0" /><path
       d="m 286.56,479.28 c 6.48,1.2 13.08,1.8 19.56,1.8 V 370.44 Z"
       style="fill:#aabad7;fill-opacity:1;fill-rule:evenodd;stroke:none"
       id="path232"
       inkscape:connector-curvature="0" /><path
       d="m 384.6,448.44 9.24,12.48 c 0,0.12 0.12,0.12 0.24,0.12 h 4.44 v -0.72 h -4.44 l 0.36,0.24 -9.24,-12.6 z"
       style="fill:#000000;fill-opacity:1;fill-rule:nonzero;stroke:none"
       id="path234"
       inkscape:connector-curvature="0" /><path
       d="m 396.24,306.36 16.92,-12.24 h -0.12 4.32 v -0.72 h -4.32 c -0.12,0 -0.24,0 -0.24,0.12 l -16.92,12.24 z"
       style="fill:#000000;fill-opacity:1;fill-rule:nonzero;stroke:none"
       id="path236"
       inkscape:connector-curvature="0" /><path
       d="m 312.6,260.28 9.36,-10.08 -0.24,0.12 h 4.2 v -0.72 h -4.2 c -0.12,0 -0.24,0 -0.36,0 l -9.24,10.2 z"
       style="fill:#000000;fill-opacity:1;fill-rule:nonzero;stroke:none"
       id="path238"
       inkscape:connector-curvature="0" /><path
       d="m 255.24,272.4 -6.36,-19.2 c 0,-0.12 -0.12,-0.24 -0.36,-0.24 h -4.2 v 0.72 h 4.2 l -0.24,-0.24 6.24,19.2 z"
       style="fill:#000000;fill-opacity:1;fill-rule:nonzero;stroke:none"
       id="path240"
       inkscape:connector-curvature="0" /><path
       d="m 216.36,306.36 -5.76,-14.04 c 0,-0.12 -0.12,-0.24 -0.36,-0.24 h -4.32 v 0.72 h 4.32 l -0.24,-0.12 5.64,13.92 z"
       style="fill:#000000;fill-opacity:1;fill-rule:nonzero;stroke:none"
       id="path242"
       inkscape:connector-curvature="0" /><path
       d="m 198.24,345.36 -14.76,6.84 h 0.12 -4.2 v 0.72 h 4.2 c 0.12,0 0.12,0 0.24,0 l 14.76,-6.96 z"
       style="fill:#000000;fill-opacity:1;fill-rule:nonzero;stroke:none"
       id="path244"
       inkscape:connector-curvature="0" /><path
       d="m 195.96,381.12 -16.8,5.28 h 0.12 -4.32 v 0.72 h 4.32 c 0,0 0.12,0 0.12,0 l 16.8,-5.28 z"
       style="fill:#000000;fill-opacity:1;fill-rule:nonzero;stroke:none"
       id="path246"
       inkscape:connector-curvature="0" /><path
       d="m 203.4,411.48 -18.72,9.48 h 0.12 -4.32 v 0.72 h 4.32 c 0.12,0 0.12,0 0.12,-0.12 l 18.84,-9.48 z"
       style="fill:#000000;fill-opacity:1;fill-rule:nonzero;stroke:none"
       id="path248"
       inkscape:connector-curvature="0" /><path
       d="m 217.56,436.32 -45.84,10.44 v 0 h -4.2 v 0.72 h 4.2 c 0.12,0 0.12,0 0.12,0 l 45.84,-10.44 z"
       style="fill:#000000;fill-opacity:1;fill-rule:nonzero;stroke:none"
       id="path250"
       inkscape:connector-curvature="0" /><path
       d="m 235.92,455.76 -15.24,13.68 0.24,-0.12 h -4.44 v 0.72 h 4.44 c 0.12,0 0.12,0 0.24,-0.12 l 15.24,-13.56 z"
       style="fill:#000000;fill-opacity:1;fill-rule:nonzero;stroke:none"
       id="path252"
       inkscape:connector-curvature="0" /><path
       d="m 256.08,468.96 -12.24,13.56 0.24,-0.12 h -4.32 v 0.72 h 4.32 c 0.12,0 0.24,0 0.24,-0.12 l 12.24,-13.56 z"
       style="fill:#000000;fill-opacity:1;fill-rule:nonzero;stroke:none"
       id="path254"
       inkscape:connector-curvature="0" /><path
       d="m 276.24,477 -2.52,13.8 0.72,0.12 2.52,-13.8 z"
       style="fill:#000000;fill-opacity:1;fill-rule:nonzero;stroke:none"
       id="path256"
       inkscape:connector-curvature="0" /><path
       d="m 296.04,480.84 9.48,19.2 c 0.12,0.12 0.24,0.12 0.36,0.12 h 4.32 v -0.72 h -4.32 l 0.36,0.24 -9.6,-19.2 z"
       style="fill:#000000;fill-opacity:1;fill-rule:nonzero;stroke:none"
       id="path258"
       inkscape:connector-curvature="0" /><text
       transform="matrix(1,0,0,-1,394.67933,472.4437)"
       style="font-variant:normal;font-weight:normal;font-size:9.5710001px;font-family:Calibri;-inkscape-font-specification:Calibri;writing-mode:lr-tb;fill:#000000;fill-opacity:1;fill-rule:nonzero;stroke:none"
       id="text262"><tspan
         x="0 6.1828661 8.594758 14.634059 22.817265"
         y="0"
         sodipodi:role="line"
         id="tspan260">NIGMS</tspan></text>
<text
       transform="matrix(1,0,0,-1,399.96252,460.68094)"
       style="font-variant:normal;font-weight:normal;font-size:9.5710001px;font-family:Calibri;-inkscape-font-specification:Calibri;writing-mode:lr-tb;fill:#000000;fill-opacity:1;fill-rule:nonzero;stroke:none"
       id="text266"><tspan
         x="0 4.8524971 9.7049942"
         y="0"
         sodipodi:role="line"
         id="tspan264">25%</tspan></text>
<text
       transform="matrix(1,0,0,-1,418.79825,293.7627)"
       style="font-variant:normal;font-weight:normal;font-size:9.5710001px;font-family:Calibri;-inkscape-font-specification:Calibri;writing-mode:lr-tb;fill:#000000;fill-opacity:1;fill-rule:nonzero;stroke:none"
       id="text270"><tspan
         x="0 6.1828661 11.284209"
         y="0"
         sodipodi:role="line"
         id="tspan268">NCI</tspan></text>
<text
       transform="matrix(1,0,0,-1,417.3626,281.99994)"
       style="font-variant:normal;font-weight:normal;font-size:9.5710001px;font-family:Calibri;-inkscape-font-specification:Calibri;writing-mode:lr-tb;fill:#000000;fill-opacity:1;fill-rule:nonzero;stroke:none"
       id="text274"><tspan
         x="0 4.9200206 9.7725172"
         y="0"
         sodipodi:role="line"
         id="tspan272">19%</tspan></text>
<text
       transform="matrix(1,0,0,-1,327.35691,247.67834)"
       style="font-variant:normal;font-weight:normal;font-size:9.5710001px;font-family:Calibri;-inkscape-font-specification:Calibri;writing-mode:lr-tb;fill:#000000;fill-opacity:1;fill-rule:nonzero;stroke:none"
       id="text278"><tspan
         x="0 6.1828661 8.7600393 14.301648 16.713541"
         y="0"
         sodipodi:role="line"
         id="tspan276">NIAID</tspan></text>
<text
       transform="matrix(1,0,0,-1,332.87938,235.92515)"
       style="font-variant:normal;font-weight:normal;font-size:9.5710001px;font-family:Calibri;-inkscape-font-specification:Calibri;writing-mode:lr-tb;fill:#000000;fill-opacity:1;fill-rule:nonzero;stroke:none"
       id="text282"><tspan
         x="0 4.8524971"
         y="0"
         sodipodi:role="line"
         id="tspan280">9%</tspan></text>
<text
       transform="matrix(1,0,0,-1,219.00362,253.32523)"
       style="font-variant:normal;font-weight:normal;font-size:9.5710001px;font-family:Calibri;-inkscape-font-specification:Calibri;writing-mode:lr-tb;fill:#000000;fill-opacity:1;fill-rule:nonzero;stroke:none"
       id="text286"><tspan
         x="0 6.1828661 12.240055 16.259874 21.360098"
         y="0"
         sodipodi:role="line"
         id="tspan284">NHLBI</tspan></text>
<text
       transform="matrix(1,0,0,-1,225.11949,241.56247)"
       style="font-variant:normal;font-weight:normal;font-size:9.5710001px;font-family:Calibri;-inkscape-font-specification:Calibri;writing-mode:lr-tb;fill:#000000;fill-opacity:1;fill-rule:nonzero;stroke:none"
       id="text290"><tspan
         x="0 4.8524971"
         y="0"
         sodipodi:role="line"
         id="tspan288">8%</tspan></text>
<text
       transform="matrix(1,0,0,-1,179.15955,292.4419)"
       style="font-variant:normal;font-weight:normal;font-size:9.5710001px;font-family:Calibri;-inkscape-font-specification:Calibri;writing-mode:lr-tb;fill:#000000;fill-opacity:1;fill-rule:nonzero;stroke:none"
       id="text294"><tspan
         x="0 6.1828661 8.594758 14.480923 20.367088"
         y="0"
         sodipodi:role="line"
         id="tspan292">NIDDK</tspan></text>
<text
       transform="matrix(1,0,0,-1,185.87839,280.67915)"
       style="font-variant:normal;font-weight:normal;font-size:9.5710001px;font-family:Calibri;-inkscape-font-specification:Calibri;writing-mode:lr-tb;fill:#000000;fill-opacity:1;fill-rule:nonzero;stroke:none"
       id="text298"><tspan
         x="0 4.9200206"
         y="0"
         sodipodi:role="line"
         id="tspan296">7%</tspan></text>
<text
       transform="matrix(1,0,0,-1,156.237,352.55736)"
       style="font-variant:normal;font-weight:normal;font-size:9.5710001px;font-family:Calibri;-inkscape-font-specification:Calibri;writing-mode:lr-tb;fill:#000000;fill-opacity:1;fill-rule:nonzero;stroke:none"
       id="text302"><tspan
         x="0 6.1828661 11.284209 16.481262"
         y="0"
         sodipodi:role="line"
         id="tspan300">NCRR</tspan></text>
<text
       transform="matrix(1,0,0,-1,161.1565,340.80417)"
       style="font-variant:normal;font-weight:normal;font-size:9.5710001px;font-family:Calibri;-inkscape-font-specification:Calibri;writing-mode:lr-tb;fill:#000000;fill-opacity:1;fill-rule:nonzero;stroke:none"
       id="text306"><tspan
         x="0 4.8524971"
         y="0"
         sodipodi:role="line"
         id="tspan304">6%</tspan></text>
<text
       transform="matrix(1,0,0,-1,147.60396,386.76411)"
       style="font-variant:normal;font-weight:normal;font-size:9.5710001px;font-family:Calibri;-inkscape-font-specification:Calibri;writing-mode:lr-tb;fill:#000000;fill-opacity:1;fill-rule:nonzero;stroke:none"
       id="text310"><tspan
         x="0 6.1828661 12.240055 18.279356 23.400108"
         y="0"
         sodipodi:role="line"
         id="tspan308">NHGRI</tspan></text>
<text
       transform="matrix(1,0,0,-1,154.67693,375.00135)"
       style="font-variant:normal;font-weight:normal;font-size:9.5710001px;font-family:Calibri;-inkscape-font-specification:Calibri;writing-mode:lr-tb;fill:#000000;fill-opacity:1;fill-rule:nonzero;stroke:none"
       id="text314"><tspan
         x="0 4.8524971"
         y="0"
         sodipodi:role="line"
         id="tspan312">5%</tspan></text>
<text
       transform="matrix(1,0,0,-1,155.2799,421.32499)"
       style="font-variant:normal;font-weight:normal;font-size:9.5710001px;font-family:Calibri;-inkscape-font-specification:Calibri;writing-mode:lr-tb;fill:#000000;fill-opacity:1;fill-rule:nonzero;stroke:none"
       id="text318"><tspan
         x="0 6.1828661 8.594758 13.440067 19.4028"
         y="0"
         sodipodi:role="line"
         id="tspan316">NIEHS</tspan></text>
<text
       transform="matrix(1,0,0,-1,161.28092,409.56223)"
       style="font-variant:normal;font-weight:normal;font-size:9.5710001px;font-family:Calibri;-inkscape-font-specification:Calibri;writing-mode:lr-tb;fill:#000000;fill-opacity:1;fill-rule:nonzero;stroke:none"
       id="text322"><tspan
         x="0 4.9200206"
         y="0"
         sodipodi:role="line"
         id="tspan320">4%</tspan></text>
<text
       transform="matrix(1,0,0,-1,143.27787,447.11884)"
       style="font-variant:normal;font-weight:normal;font-size:9.5710001px;font-family:Calibri;-inkscape-font-specification:Calibri;writing-mode:lr-tb;fill:#000000;fill-opacity:1;fill-rule:nonzero;stroke:none"
       id="text326"><tspan
         x="0 6.1200323 8.640048 16.823254"
         y="0"
         sodipodi:role="line"
         id="tspan324">NIMH</tspan></text>
<text
       transform="matrix(1,0,0,-1,148.80034,435.36565)"
       style="font-variant:normal;font-weight:normal;font-size:9.5710001px;font-family:Calibri;-inkscape-font-specification:Calibri;writing-mode:lr-tb;fill:#000000;fill-opacity:1;fill-rule:nonzero;stroke:none"
       id="text330"><tspan
         x="0 4.8524971"
         y="0"
         sodipodi:role="line"
         id="tspan328">4%</tspan></text>
<text
       transform="matrix(1,0,0,-1,189.96521,469.67768)"
       style="font-variant:normal;font-weight:normal;font-size:9.5710001px;font-family:Calibri;-inkscape-font-specification:Calibri;writing-mode:lr-tb;fill:#000000;fill-opacity:1;fill-rule:nonzero;stroke:none"
       id="text334"><tspan
         x="0 6.1828661 8.594758 14.880072 20.766237"
         y="0"
         sodipodi:role="line"
         id="tspan332">NINDS</tspan></text>
<text
       transform="matrix(1,0,0,-1,196.68405,457.92449)"
       style="font-variant:normal;font-weight:normal;font-size:9.5710001px;font-family:Calibri;-inkscape-font-specification:Calibri;writing-mode:lr-tb;fill:#000000;fill-opacity:1;fill-rule:nonzero;stroke:none"
       id="text338"><tspan
         x="0 4.8524971"
         y="0"
         sodipodi:role="line"
         id="tspan336">4%</tspan></text>
<text
       transform="matrix(1,0,0,-1,225.24391,494.524)"
       style="font-variant:normal;font-weight:normal;font-size:9.5710001px;font-family:Calibri;-inkscape-font-specification:Calibri;writing-mode:lr-tb;fill:#000000;fill-opacity:1;fill-rule:nonzero;stroke:none"
       id="text342"><tspan
         x="0 6.1828661 8.7600393"
         y="0"
         sodipodi:role="line"
         id="tspan340">NIA</tspan></text>
<text
       transform="matrix(1,0,0,-1,226.56471,482.76124)"
       style="font-variant:normal;font-weight:normal;font-size:9.5710001px;font-family:Calibri;-inkscape-font-specification:Calibri;writing-mode:lr-tb;fill:#000000;fill-opacity:1;fill-rule:nonzero;stroke:none"
       id="text346"><tspan
         x="0 4.8524971"
         y="0"
         sodipodi:role="line"
         id="tspan344">3%</tspan></text>
<text
       transform="matrix(1,0,0,-1,272.16096,502.56364)"
       style="font-variant:normal;font-weight:normal;font-size:9.5710001px;font-family:Calibri;-inkscape-font-specification:Calibri;writing-mode:lr-tb;fill:#000000;fill-opacity:1;fill-rule:nonzero;stroke:none"
       id="text350"><tspan
         x="0 6.1828661 10.202686"
         y="0"
         sodipodi:role="line"
         id="tspan348">NLM</tspan></text>
<text
       transform="matrix(1,0,0,-1,275.52038,490.80088)"
       style="font-variant:normal;font-weight:normal;font-size:9.5710001px;font-family:Calibri;-inkscape-font-specification:Calibri;writing-mode:lr-tb;fill:#000000;fill-opacity:1;fill-rule:nonzero;stroke:none"
       id="text354"><tspan
         x="0 4.8524971"
         y="0"
         sodipodi:role="line"
         id="tspan352">3%</tspan></text>
<text
       transform="matrix(1,0,0,-1,311.76575,499.79762)"
       style="font-variant:normal;font-weight:normal;font-size:9.5710001px;font-family:Calibri;-inkscape-font-specification:Calibri;writing-mode:lr-tb;fill:#000000;fill-opacity:1;fill-rule:nonzero;stroke:none"
       id="text358"><tspan
         x="0 8.5181904 13.200065 15.391824 17.583582 21.632116 26.760134 34.320171 39.000187 41.520203 46.080219 49.420498 54.445274 58.187534"
         y="0"
         sodipodi:role="line"
         id="tspan356">Wellcome Trust</tspan></text>
<text
       transform="matrix(1,0,0,-1,336.6025,488.04443)"
       style="font-variant:normal;font-weight:normal;font-size:9.5710001px;font-family:Calibri;-inkscape-font-specification:Calibri;writing-mode:lr-tb;fill:#000000;fill-opacity:1;fill-rule:nonzero;stroke:none"
       id="text362"><tspan
         x="0 4.9200206"
         y="0"
         sodipodi:role="line"
         id="tspan360">3%</tspan></text>
<text
       transform="matrix(1,0,0,-1,133.68851,536.05133)"
       style="font-variant:normal;font-weight:normal;font-size:17.29700089px;font-family:Calibri;-inkscape-font-specification:'Calibri Bold';writing-mode:lr-tb;fill:#000000;fill-opacity:1;fill-rule:nonzero;stroke:none"
       id="text366"><tspan
         x="0 7.0800428 16.320101 25.680147 29.520166 38.289745 47.059326 50.968449 58.907772 68.280373 77.640419 86.928909 91.183975 100.56054 108.75932 112.44061 122.92258 130.9207 139.62109 148.90958 156.24084 160.56087 169.26126 176.16277 179.88098 185.041 194.34679 200.48723 204.48111 213.63121 221.83 227.76122 237.067 243.96851 251.19865 259.6814 269.04144 277.74185 281.52151 290.52155 294.84158 300.72162 309.12164 315.12372 319.44171 328.7475 338.03598"
         y="0"
         sodipodi:role="line"
         id="tspan364">Top 13 Funding Agencies for Cytoscape Citations</tspan></text>
<text
       transform="matrix(1,0,0,-1,215.76278,514.91439)"
       style="font-variant:normal;font-weight:normal;font-size:17.29700089px;font-family:Calibri;-inkscape-font-specification:'Calibri Bold';writing-mode:lr-tb;fill:#000000;fill-opacity:1;fill-rule:nonzero;stroke:none"
       id="text370"><tspan
         x="0 5.3966641 14.166243 18.720093 27.489672 36.259251 45.028831 48.84026 57.480301 65.520348 74.220734 83.509224 89.511284 96.412788 100.08053 106.98203 111.23709 120.60063 127.92067 136.62106 140.53018 149.29976 158.06935 166.83893 175.60851"
         y="0"
         sodipodi:role="line"
         id="tspan368">(9,736 events since 2004)</tspan></text>
<g
       id="g372"><g
         id="g374"
         clip-path="url(#clipPath378)"><path
           d="m 50.88,559.8 c 0,0.24 0.24,0.36 0.36,0.36 h 509.88 c 0.12,0 0.36,-0.12 0.36,-0.36 V 231.96 c 0,-0.12 -0.24,-0.36 -0.36,-0.36 H 51.24 c -0.12,0 -0.36,0.24 -0.36,0.36 z m 0.72,-327.84 -0.36,0.36 h 509.88 l -0.36,-0.36 V 559.8 l 0.36,-0.36 H 51.24 l 0.36,0.36 z"
           style="fill:#868686;fill-opacity:1;fill-rule:nonzero;stroke:none"
           id="path380"
           inkscape:connector-curvature="0" /></g></g></g></svg>