<?xml version="1.0" encoding="UTF-8" standalone="no"?>
<!-- Created with Inkscape (http://www.inkscape.org/) -->

<svg
   xmlns:dc="http://purl.org/dc/elements/1.1/"
   xmlns:cc="http://creativecommons.org/ns#"
   xmlns:rdf="http://www.w3.org/1999/02/22-rdf-syntax-ns#"
   xmlns:svg="http://www.w3.org/2000/svg"
   xmlns="http://www.w3.org/2000/svg"
   xmlns:sodipodi="http://sodipodi.sourceforge.net/DTD/sodipodi-0.dtd"
   xmlns:inkscape="http://www.inkscape.org/namespaces/inkscape"
   version="1.1"
   id="svg475"
   xml:space="preserve"
   width="680.79999"
   height="467.67999"
   viewBox="0 0 680.79999 467.67999"
   sodipodi:docname="Agencies_Funding_Cytoscape_Citations_Prior_Year.svg"
   inkscape:version="0.92.3 (2405546, 2018-03-11)"><metadata
     id="metadata481"><rdf:RDF><cc:Work
         rdf:about=""><dc:format>image/svg+xml</dc:format><dc:type
           rdf:resource="http://purl.org/dc/dcmitype/StillImage" /><dc:title></dc:title></cc:Work></rdf:RDF></metadata><defs
     id="defs479"><clipPath
       clipPathUnits="userSpaceOnUse"
       id="clipPath655"><path
         d="m 50.64,571.56 v -351 h 510.72 v 351 z"
         id="path653"
         inkscape:connector-curvature="0"
         style="clip-rule:evenodd" /></clipPath></defs><sodipodi:namedview
     pagecolor="#ffffff"
     bordercolor="#666666"
     borderopacity="1"
     objecttolerance="10"
     gridtolerance="10"
     guidetolerance="10"
     inkscape:pageopacity="0"
     inkscape:pageshadow="2"
     inkscape:window-width="640"
     inkscape:window-height="480"
     id="namedview477"
     showgrid="false"
     inkscape:zoom="0.22348485"
     inkscape:cx="340.32"
     inkscape:cy="412.90306"
     inkscape:window-x="2461"
     inkscape:window-y="566"
     inkscape:window-maximized="0"
     inkscape:current-layer="g483" /><g
     id="g483"
     inkscape:groupmode="layer"
     inkscape:label="Agencies_Funding_Cytoscape_Citations_Prior_Year"
     transform="matrix(1.3333333,0,0,-1.3333333,-67.679998,761.75998)"><path
       d="m 51.12,220.92 h 510 v 350.04 h -510 z"
       style="fill:#ffffff;fill-opacity:1;fill-rule:nonzero;stroke:none"
       id="path485"
       inkscape:connector-curvature="0" /><path
       d="m 306.12,486.96 c 65.28,0 118.08,-52.92 118.08,-118.2 0,-4.92 -0.24,-9.72 -0.84,-14.64 l -117.24,14.64 z"
       style="fill:#40699c;fill-opacity:1;fill-rule:evenodd;stroke:none"
       id="path487"
       inkscape:connector-curvature="0" /><path
       d="M 423.36,354.12 C 417.12,304.68 380.52,264.36 331.8,253.44 l -25.68,115.32 z"
       style="fill:#9e413e;fill-opacity:1;fill-rule:evenodd;stroke:none"
       id="path489"
       inkscape:connector-curvature="0" /><path
       d="m 331.8,253.44 c -26.88,-5.88 -54.96,-2.4 -79.44,10.2 l 53.76,105.12 z"
       style="fill:#7f9a48;fill-opacity:1;fill-rule:evenodd;stroke:none"
       id="path491"
       inkscape:connector-curvature="0" /><path
       d="m 252.36,263.64 c -15.36,7.8 -28.92,19.08 -39.6,32.76 l 93.36,72.36 z"
       style="fill:#695185;fill-opacity:1;fill-rule:evenodd;stroke:none"
       id="path493"
       inkscape:connector-curvature="0" /><path
       d="m 212.76,296.4 c -10.08,13.08 -17.4,28.08 -21.36,44.16 l 114.72,28.2 z"
       style="fill:#3c8da3;fill-opacity:1;fill-rule:evenodd;stroke:none"
       id="path495"
       inkscape:connector-curvature="0" /><path
       d="m 191.4,340.56 c -3.24,13.08 -4.08,26.64 -2.76,39.96 l 117.48,-11.76 z"
       style="fill:#cc7b38;fill-opacity:1;fill-rule:evenodd;stroke:none"
       id="path497"
       inkscape:connector-curvature="0" /><path
       d="m 188.64,380.52 c 0.96,10.32 3.36,20.52 7.08,30.24 l 110.4,-42 z"
       style="fill:#4f81bd;fill-opacity:1;fill-rule:evenodd;stroke:none"
       id="path499"
       inkscape:connector-curvature="0" /><path
       d="m 195.72,410.76 c 3.36,8.88 7.92,17.4 13.32,25.32 l 97.08,-67.32 z"
       style="fill:#c0504d;fill-opacity:1;fill-rule:evenodd;stroke:none"
       id="path501"
       inkscape:connector-curvature="0" /><path
       d="m 209.04,436.08 c 5.28,7.56 11.4,14.52 18.24,20.64 l 78.84,-87.96 z"
       style="fill:#9bbb59;fill-opacity:1;fill-rule:evenodd;stroke:none"
       id="path503"
       inkscape:connector-curvature="0" /><path
       d="m 227.28,456.72 c 6,5.4 12.6,10.2 19.56,14.16 l 59.28,-102.12 z"
       style="fill:#8064a2;fill-opacity:1;fill-rule:evenodd;stroke:none"
       id="path505"
       inkscape:connector-curvature="0" /><path
       d="m 246.84,470.88 c 6.6,3.96 13.68,7.08 20.88,9.6 l 38.4,-111.72 z"
       style="fill:#4bacc6;fill-opacity:1;fill-rule:evenodd;stroke:none"
       id="path507"
       inkscape:connector-curvature="0" /><path
       d="m 267.72,480.48 c 6.12,2.16 12.48,3.72 18.96,4.8 l 19.44,-116.52 z"
       style="fill:#f79646;fill-opacity:1;fill-rule:evenodd;stroke:none"
       id="path509"
       inkscape:connector-curvature="0" /><path
       d="m 286.68,485.28 c 6.36,1.08 12.96,1.68 19.44,1.68 v -118.2 z"
       style="fill:#aabad7;fill-opacity:1;fill-rule:evenodd;stroke:none"
       id="path511"
       inkscape:connector-curvature="0" /><path
       d="m 394.56,447.36 27.84,10.68 c 0,0 0.12,0 0.12,0 h 4.56 v -0.72 h -4.56 0.12 L 394.8,446.64 Z"
       style="fill:#000000;fill-opacity:1;fill-rule:nonzero;stroke:none"
       id="path513"
       inkscape:connector-curvature="0" /><path
       d="m 393.84,289.56 15.24,-16.2 -0.24,0.12 h 4.68 v -0.72 h -4.68 c -0.12,0 -0.24,0 -0.24,0.12 l -15.36,16.2 z"
       style="fill:#000000;fill-opacity:1;fill-rule:nonzero;stroke:none"
       id="path515"
       inkscape:connector-curvature="0" /><path
       d="m 231.12,277.68 -7.2,-19.92 c 0,-0.12 -0.12,-0.24 -0.36,-0.24 H 219 v 0.72 h 4.56 l -0.36,-0.24 7.2,19.92 z"
       style="fill:#000000;fill-opacity:1;fill-rule:nonzero;stroke:none"
       id="path517"
       inkscape:connector-curvature="0" /><path
       d="m 200.16,317.16 -6.36,-11.04 c -0.12,-0.12 -0.24,-0.24 -0.36,-0.24 h -4.56 v 0.84 h 4.56 l -0.36,-0.24 6.36,11.04 z"
       style="fill:#000000;fill-opacity:1;fill-rule:nonzero;stroke:none"
       id="path519"
       inkscape:connector-curvature="0" /><path
       d="m 188.64,360.36 -3.24,-22.32 c 0,-0.24 -0.12,-0.36 -0.36,-0.36 h -4.56 v 0.72 h 4.56 l -0.36,-0.36 3.24,22.44 z"
       style="fill:#000000;fill-opacity:1;fill-rule:nonzero;stroke:none"
       id="path521"
       inkscape:connector-curvature="0" /><path
       d="M 191.52,395.64 180.24,375 c -0.12,-0.12 -0.24,-0.12 -0.36,-0.12 h -4.56 v 0.72 h 4.56 l -0.36,-0.24 11.28,20.64 z"
       style="fill:#000000;fill-opacity:1;fill-rule:nonzero;stroke:none"
       id="path523"
       inkscape:connector-curvature="0" /><path
       d="M 201.84,423.48 165.72,402.12 C 165.6,402 165.6,402 165.48,402 h -4.56 v 0.84 h 4.56 l -0.24,-0.12 36.12,21.48 z"
       style="fill:#000000;fill-opacity:1;fill-rule:nonzero;stroke:none"
       id="path525"
       inkscape:connector-curvature="0" /><path
       d="m 217.68,446.64 -57.6,-17.52 c 0,0 -0.12,0 -0.12,0 h -4.68 v 0.72 h 4.68 -0.12 l 57.6,17.52 z"
       style="fill:#000000;fill-opacity:1;fill-rule:nonzero;stroke:none"
       id="path527"
       inkscape:connector-curvature="0" /><path
       d="m 236.76,463.92 -90.36,-5.16 h -4.56 v 0.84 h 4.56 l 90.24,5.16 z"
       style="fill:#000000;fill-opacity:1;fill-rule:nonzero;stroke:none"
       id="path529"
       inkscape:connector-curvature="0" /><path
       d="m 257.04,475.8 -86.64,8.28 h -4.56 v 0.72 h 4.56 l 86.64,-8.16 z"
       style="fill:#000000;fill-opacity:1;fill-rule:nonzero;stroke:none"
       id="path531"
       inkscape:connector-curvature="0" /><path
       d="m 276.96,482.88 -78.84,23.4 h 0.12 -4.56 V 507 h 4.56 c 0,0 0.12,0 0.12,0 l 78.84,-23.4 z"
       style="fill:#000000;fill-opacity:1;fill-rule:nonzero;stroke:none"
       id="path533"
       inkscape:connector-curvature="0" /><path
       d="m 296.16,486.24 -24.36,21.48 0.24,-0.12 h -4.56 v 0.84 h 4.56 c 0.12,0 0.24,-0.12 0.36,-0.12 l 24.24,-21.48 z"
       style="fill:#000000;fill-opacity:1;fill-rule:nonzero;stroke:none"
       id="path535"
       inkscape:connector-curvature="0" /><text
       transform="matrix(1,0,0,-1,430.32982,470.16591)"
       style="font-variant:normal;font-weight:normal;font-size:10.21700001px;font-family:Calibri;-inkscape-font-specification:Calibri;writing-mode:lr-tb;fill:#000000;fill-opacity:1;fill-rule:nonzero;stroke:none"
       id="text539"><tspan
         x="0 6.6001821 12.045843"
         y="0"
         sodipodi:role="line"
         id="tspan537">NCI</tspan></text>
<text
       transform="matrix(1,0,0,-1,428.76662,457.69095)"
       style="font-variant:normal;font-weight:normal;font-size:10.21700001px;font-family:Calibri;-inkscape-font-specification:Calibri;writing-mode:lr-tb;fill:#000000;fill-opacity:1;fill-rule:nonzero;stroke:none"
       id="text543"><tspan
         x="0 5.1800189 10.440139"
         y="0"
         sodipodi:role="line"
         id="tspan541">27%</tspan></text>
<text
       transform="matrix(1,0,0,-1,415.08606,273.12084)"
       style="font-variant:normal;font-weight:normal;font-size:10.21700001px;font-family:Calibri;-inkscape-font-specification:Calibri;writing-mode:lr-tb;fill:#000000;fill-opacity:1;fill-rule:nonzero;stroke:none"
       id="text547"><tspan
         x="0 6.7200885 9.2947731 15.600204 24.335739"
         y="0"
         sodipodi:role="line"
         id="tspan545">NIGMS</tspan></text>
<text
       transform="matrix(1,0,0,-1,420.84845,260.52328)"
       style="font-variant:normal;font-weight:normal;font-size:10.21700001px;font-family:Calibri;-inkscape-font-specification:Calibri;writing-mode:lr-tb;fill:#000000;fill-opacity:1;fill-rule:nonzero;stroke:none"
       id="text551"><tspan
         x="0 5.2800741 10.460093"
         y="0"
         sodipodi:role="line"
         id="tspan549">19%</tspan></text>
<text
       transform="matrix(1,0,0,-1,295.19978,237.71894)"
       style="font-variant:normal;font-weight:normal;font-size:10.21700001px;font-family:Calibri;-inkscape-font-specification:Calibri;writing-mode:lr-tb;fill:#000000;fill-opacity:1;fill-rule:nonzero;stroke:none"
       id="text555"><tspan
         x="0 6.6001821 13.080181 17.371321 22.929369"
         y="0"
         sodipodi:role="line"
         id="tspan553">NHLBI</tspan></text>
<text
       transform="matrix(1,0,0,-1,299.16398,225.12138)"
       style="font-variant:normal;font-weight:normal;font-size:10.21700001px;font-family:Calibri;-inkscape-font-specification:Calibri;writing-mode:lr-tb;fill:#000000;fill-opacity:1;fill-rule:nonzero;stroke:none"
       id="text559"><tspan
         x="0 5.1800189 10.360038"
         y="0"
         sodipodi:role="line"
         id="tspan557">11%</tspan></text>
<text
       transform="matrix(1,0,0,-1,197.76025,257.8873)"
       style="font-variant:normal;font-weight:normal;font-size:10.21700001px;font-family:Calibri;-inkscape-font-specification:Calibri;writing-mode:lr-tb;fill:#000000;fill-opacity:1;fill-rule:nonzero;stroke:none"
       id="text563"><tspan
         x="0 6.6001821 10.891322"
         y="0"
         sodipodi:role="line"
         id="tspan561">NLM</tspan></text>
<text
       transform="matrix(1,0,0,-1,201.47924,245.27952)"
       style="font-variant:normal;font-weight:normal;font-size:10.21700001px;font-family:Calibri;-inkscape-font-specification:Calibri;writing-mode:lr-tb;fill:#000000;fill-opacity:1;fill-rule:nonzero;stroke:none"
       id="text567"><tspan
         x="0 5.1800189"
         y="0"
         sodipodi:role="line"
         id="tspan565">7%</tspan></text>
<text
       transform="matrix(1,0,0,-1,163.31874,306.24436)"
       style="font-variant:normal;font-weight:normal;font-size:10.21700001px;font-family:Calibri;-inkscape-font-specification:Calibri;writing-mode:lr-tb;fill:#000000;fill-opacity:1;fill-rule:nonzero;stroke:none"
       id="text571"><tspan
         x="0 6.7200885 9.2947731 15.210416 17.785099"
         y="0"
         sodipodi:role="line"
         id="tspan569">NIAID</tspan></text>
<text
       transform="matrix(1,0,0,-1,169.20374,293.75918)"
       style="font-variant:normal;font-weight:normal;font-size:10.21700001px;font-family:Calibri;-inkscape-font-specification:Calibri;writing-mode:lr-tb;fill:#000000;fill-opacity:1;fill-rule:nonzero;stroke:none"
       id="text575"><tspan
         x="0 5.1800189"
         y="0"
         sodipodi:role="line"
         id="tspan573">7%</tspan></text>
<text
       transform="matrix(1,0,0,-1,151.80419,338.03966)"
       style="font-variant:normal;font-weight:normal;font-size:10.21700001px;font-family:Calibri;-inkscape-font-specification:Calibri;writing-mode:lr-tb;fill:#000000;fill-opacity:1;fill-rule:nonzero;stroke:none"
       id="text579"><tspan
         x="0 6.6001821 9.2401218 15.523577 21.807032"
         y="0"
         sodipodi:role="line"
         id="tspan577">NIDDK</tspan></text>
<text
       transform="matrix(1,0,0,-1,159.24216,325.4421)"
       style="font-variant:normal;font-weight:normal;font-size:10.21700001px;font-family:Calibri;-inkscape-font-specification:Calibri;writing-mode:lr-tb;fill:#000000;fill-opacity:1;fill-rule:nonzero;stroke:none"
       id="text583"><tspan
         x="0 5.1800189"
         y="0"
         sodipodi:role="line"
         id="tspan581">5%</tspan></text>
<text
       transform="matrix(1,0,0,-1,149.40319,375.24998)"
       style="font-variant:normal;font-weight:normal;font-size:10.21700001px;font-family:Calibri;-inkscape-font-specification:Calibri;writing-mode:lr-tb;fill:#000000;fill-opacity:1;fill-rule:nonzero;stroke:none"
       id="text587"><tspan
         x="0 6.7200885 9.2947731 18.030308"
         y="0"
         sodipodi:role="line"
         id="tspan585">NIMH</tspan></text>
<text
       transform="matrix(1,0,0,-1,155.40057,362.6422)"
       style="font-variant:normal;font-weight:normal;font-size:10.21700001px;font-family:Calibri;-inkscape-font-specification:Calibri;writing-mode:lr-tb;fill:#000000;fill-opacity:1;fill-rule:nonzero;stroke:none"
       id="text591"><tspan
         x="0 5.1800189"
         y="0"
         sodipodi:role="line"
         id="tspan589">4%</tspan></text>
<text
       transform="matrix(1,0,0,-1,132.00364,402.36589)"
       style="font-variant:normal;font-weight:normal;font-size:10.21700001px;font-family:Calibri;-inkscape-font-specification:Calibri;writing-mode:lr-tb;fill:#000000;fill-opacity:1;fill-rule:nonzero;stroke:none"
       id="text595"><tspan
         x="0 6.7200885 9.2947731 14.640195 21.120287"
         y="0"
         sodipodi:role="line"
         id="tspan593">NICHD</tspan></text>
<text
       transform="matrix(1,0,0,-1,139.56422,389.88072)"
       style="font-variant:normal;font-weight:normal;font-size:10.21700001px;font-family:Calibri;-inkscape-font-specification:Calibri;writing-mode:lr-tb;fill:#000000;fill-opacity:1;fill-rule:nonzero;stroke:none"
       id="text599"><tspan
         x="0 5.1800189"
         y="0"
         sodipodi:role="line"
         id="tspan597">4%</tspan></text>
<text
       transform="matrix(1,0,0,-1,128.39704,429.48181)"
       style="font-variant:normal;font-weight:normal;font-size:10.21700001px;font-family:Calibri;-inkscape-font-specification:Calibri;writing-mode:lr-tb;fill:#000000;fill-opacity:1;fill-rule:nonzero;stroke:none"
       id="text603"><tspan
         x="0 6.7200885 9.2947731 14.280668 20.760281"
         y="0"
         sodipodi:role="line"
         id="tspan601">NIEHS</tspan></text>
<text
       transform="matrix(1,0,0,-1,134.99722,416.88425)"
       style="font-variant:normal;font-weight:normal;font-size:10.21700001px;font-family:Calibri;-inkscape-font-specification:Calibri;writing-mode:lr-tb;fill:#000000;fill-opacity:1;fill-rule:nonzero;stroke:none"
       id="text607"><tspan
         x="0 5.1800189"
         y="0"
         sodipodi:role="line"
         id="tspan605">4%</tspan></text>
<text
       transform="matrix(1,0,0,-1,125.15825,459.12133)"
       style="font-variant:normal;font-weight:normal;font-size:10.21700001px;font-family:Calibri;-inkscape-font-specification:Calibri;writing-mode:lr-tb;fill:#000000;fill-opacity:1;fill-rule:nonzero;stroke:none"
       id="text611"><tspan
         x="0 6.7200885 9.2947731"
         y="0"
         sodipodi:role="line"
         id="tspan609">NIA</tspan></text>
<text
       transform="matrix(1,0,0,-1,126.59885,446.64637)"
       style="font-variant:normal;font-weight:normal;font-size:10.21700001px;font-family:Calibri;-inkscape-font-specification:Calibri;writing-mode:lr-tb;fill:#000000;fill-opacity:1;fill-rule:nonzero;stroke:none"
       id="text615"><tspan
         x="0 5.1800189"
         y="0"
         sodipodi:role="line"
         id="tspan613">3%</tspan></text>
<text
       transform="matrix(1,0,0,-1,98.645135,484.44927)"
       style="font-variant:normal;font-weight:normal;font-size:10.21700001px;font-family:Calibri;-inkscape-font-specification:Calibri;writing-mode:lr-tb;fill:#000000;fill-opacity:1;fill-rule:nonzero;stroke:none"
       id="text619"><tspan
         x="0 9.0931301 14.181196 16.520889 18.860582 23.182373 28.566732 36.730114 41.81818 44.4006 49.376278 52.800709 58.164635 62.159481"
         y="0"
         sodipodi:role="line"
         id="tspan617">Wellcome Trust</tspan></text>
<text
       transform="matrix(1,0,0,-1,125.28085,471.84149)"
       style="font-variant:normal;font-weight:normal;font-size:10.21700001px;font-family:Calibri;-inkscape-font-specification:Calibri;writing-mode:lr-tb;fill:#000000;fill-opacity:1;fill-rule:nonzero;stroke:none"
       id="text623"><tspan
         x="0 5.1800189"
         y="0"
         sodipodi:role="line"
         id="tspan621">3%</tspan></text>
<text
       transform="matrix(1,0,0,-1,164.52435,506.65081)"
       style="font-variant:normal;font-weight:normal;font-size:10.21700001px;font-family:Calibri;-inkscape-font-specification:Calibri;writing-mode:lr-tb;fill:#000000;fill-opacity:1;fill-rule:nonzero;stroke:none"
       id="text627"><tspan
         x="0 6.7200885 13.085279 19.440264 25.080345"
         y="0"
         sodipodi:role="line"
         id="tspan625">NHGRI</tspan></text>
<text
       transform="matrix(1,0,0,-1,172.19732,494.04303)"
       style="font-variant:normal;font-weight:normal;font-size:10.21700001px;font-family:Calibri;-inkscape-font-specification:Calibri;writing-mode:lr-tb;fill:#000000;fill-opacity:1;fill-rule:nonzero;stroke:none"
       id="text631"><tspan
         x="0 5.1800189"
         y="0"
         sodipodi:role="line"
         id="tspan629">3%</tspan></text>
<text
       transform="matrix(1,0,0,-1,239.04715,507.96881)"
       style="font-variant:normal;font-weight:normal;font-size:10.21700001px;font-family:Calibri;-inkscape-font-specification:Calibri;writing-mode:lr-tb;fill:#000000;fill-opacity:1;fill-rule:nonzero;stroke:none"
       id="text635"><tspan
         x="0 6.7200885 9.2947731 15.210416 21.126059"
         y="0"
         sodipodi:role="line"
         id="tspan633">NIAAA</tspan></text>
<text
       transform="matrix(1,0,0,-1,246.36252,495.48363)"
       style="font-variant:normal;font-weight:normal;font-size:10.21700001px;font-family:Calibri;-inkscape-font-specification:Calibri;writing-mode:lr-tb;fill:#000000;fill-opacity:1;fill-rule:nonzero;stroke:none"
       id="text639"><tspan
         x="0 5.1800189"
         y="0"
         sodipodi:role="line"
         id="tspan637">3%</tspan></text>
<text
       transform="matrix(1,0,0,-1,104.63549,547.78995)"
       style="font-variant:normal;font-weight:normal;font-size:18.4640007px;font-family:Calibri;-inkscape-font-specification:'Calibri Bold';writing-mode:lr-tb;fill:#000000;fill-opacity:1;fill-rule:nonzero;stroke:none"
       id="text643"><tspan
         x="0 7.5599184 17.493551 27.479694 31.559647 40.920895 50.159431 54.332294 62.87928 72.794449 82.799057 92.714226 97.318886 107.23405 115.98599 119.99863 131.18781 139.67841 149.0383 158.95348 166.79811 171.34026 180.71796 188.08508 191.99783 197.51778 207.4514 214.07758 218.25044 228.0179 236.87732 243.11725 253.05087 260.51706 268.07697 277.19818 287.11334 296.51663 300.47659 310.24405 314.78619 320.99637 329.99625 336.40326 340.9454 350.87903 360.9559"
         y="0"
         sodipodi:role="line"
         id="tspan641">Top 13 Funding Agencies for Cytoscape Citations</tspan></text>
<text
       transform="matrix(1,0,0,-1,191.74864,525.22694)"
       style="font-variant:normal;font-weight:normal;font-size:18.4640007px;font-family:Calibri;-inkscape-font-specification:'Calibri Bold';writing-mode:lr-tb;fill:#000000;fill-opacity:1;fill-rule:nonzero;stroke:none"
       id="text647"><tspan
         x="0 5.7607679 15.122016 24.483265 33.844513 38.017376 47.304768 55.919369 65.279266 75.119156 81.526169 88.893303 92.758965 100.1261 104.66824 114.58341 122.39863 131.75853 135.83849 141.95007 151.07129 160.98645 165.15932 169.46143 178.82268 188.18393"
         y="0"
         sodipodi:role="line"
         id="tspan645">(802 events since Jan '17)</tspan></text>
<g
       id="g649"><g
         id="g651"
         clip-path="url(#clipPath655)"><path
           d="m 50.76,570.96 c 0,0.24 0.24,0.36 0.36,0.36 h 510 c 0.24,0 0.36,-0.12 0.36,-0.36 V 220.92 c 0,-0.24 -0.12,-0.36 -0.36,-0.36 h -510 c -0.12,0 -0.36,0.12 -0.36,0.36 z m 0.84,-350.04 -0.48,0.36 h 510 l -0.36,-0.36 v 350.04 l 0.36,-0.36 h -510 l 0.48,0.36 z"
           style="fill:#868686;fill-opacity:1;fill-rule:nonzero;stroke:none"
           id="path657"
           inkscape:connector-curvature="0" /></g></g></g></svg>