<?xml version="1.0" encoding="UTF-8" standalone="no"?>
<!-- Created with Inkscape (http://www.inkscape.org/) -->

<svg
   xmlns:dc="http://purl.org/dc/elements/1.1/"
   xmlns:cc="http://creativecommons.org/ns#"
   xmlns:rdf="http://www.w3.org/1999/02/22-rdf-syntax-ns#"
   xmlns:svg="http://www.w3.org/2000/svg"
   xmlns="http://www.w3.org/2000/svg"
   xmlns:sodipodi="http://sodipodi.sourceforge.net/DTD/sodipodi-0.dtd"
   xmlns:inkscape="http://www.inkscape.org/namespaces/inkscape"
   version="1.1"
   id="svg1945"
   xml:space="preserve"
   width="680.79999"
   height="441.75998"
   viewBox="0 0 680.79999 441.75998"
   sodipodi:docname="App_Store_Visits_By_Country.svg"
   inkscape:version="0.92.3 (2405546, 2018-03-11)"><metadata
     id="metadata1951"><rdf:RDF><cc:Work
         rdf:about=""><dc:format>image/svg+xml</dc:format><dc:type
           rdf:resource="http://purl.org/dc/dcmitype/StillImage" /><dc:title></dc:title></cc:Work></rdf:RDF></metadata><defs
     id="defs1949"><clipPath
       clipPathUnits="userSpaceOnUse"
       id="clipPath2101"><path
         d="M 50.64,561.84 V 230.28 h 510.72 v 331.56 z"
         id="path2099"
         inkscape:connector-curvature="0"
         style="clip-rule:evenodd" /></clipPath></defs><sodipodi:namedview
     pagecolor="#ffffff"
     bordercolor="#666666"
     borderopacity="1"
     objecttolerance="10"
     gridtolerance="10"
     guidetolerance="10"
     inkscape:pageopacity="0"
     inkscape:pageshadow="2"
     inkscape:window-width="640"
     inkscape:window-height="480"
     id="namedview1947"
     showgrid="false"
     inkscape:zoom="0.22348485"
     inkscape:cx="340.32"
     inkscape:cy="220.96001"
     inkscape:window-x="0"
     inkscape:window-y="0"
     inkscape:window-maximized="0"
     inkscape:current-layer="g1953" /><g
     id="g1953"
     inkscape:groupmode="layer"
     inkscape:label="App_Store_Visits_By_Country"
     transform="matrix(1.3333333,0,0,-1.3333333,-67.679998,748.79998)"><path
       d="m 51.12,230.52 h 510 v 330.72 h -510 z"
       style="fill:#ffffff;fill-opacity:1;fill-rule:nonzero;stroke:none"
       id="path1955"
       inkscape:connector-curvature="0" /><path
       d="m 306.12,484.32 c 59.28,0 108.36,-45.72 112.68,-104.76 L 306.12,371.4 Z"
       style="fill:#4572a7;fill-opacity:1;fill-rule:evenodd;stroke:none"
       id="path1957"
       inkscape:connector-curvature="0" /><path
       d="m 418.8,379.56 c 1.8,-23.88 -4.2,-47.76 -16.92,-68.16 l -95.76,60 z"
       style="fill:#aa4643;fill-opacity:1;fill-rule:evenodd;stroke:none"
       id="path1959"
       inkscape:connector-curvature="0" /><path
       d="m 401.88,311.4 c -8.52,-13.68 -19.92,-25.32 -33.36,-34.32 l -62.4,94.32 z"
       style="fill:#89a54e;fill-opacity:1;fill-rule:evenodd;stroke:none"
       id="path1961"
       inkscape:connector-curvature="0" /><path
       d="m 368.52,277.08 c -11.04,-7.2 -23.04,-12.48 -35.88,-15.6 L 306.12,371.4 Z"
       style="fill:#71588f;fill-opacity:1;fill-rule:evenodd;stroke:none"
       id="path1963"
       inkscape:connector-curvature="0" /><path
       d="M 332.64,261.48 C 320.4,258.6 307.68,257.64 295.2,258.96 L 306.12,371.4 Z"
       style="fill:#4198af;fill-opacity:1;fill-rule:evenodd;stroke:none"
       id="path1965"
       inkscape:connector-curvature="0" /><path
       d="m 295.2,258.96 c -12.84,1.2 -25.32,4.68 -37.08,10.08 l 48,102.36 z"
       style="fill:#db843d;fill-opacity:1;fill-rule:evenodd;stroke:none"
       id="path1967"
       inkscape:connector-curvature="0" /><path
       d="m 258.12,269.04 c -7.44,3.48 -14.52,7.8 -21.12,12.96 l 69.12,89.4 z"
       style="fill:#93a9cf;fill-opacity:1;fill-rule:evenodd;stroke:none"
       id="path1969"
       inkscape:connector-curvature="0" /><path
       d="m 237,282 c -5.76,4.44 -11.16,9.48 -16.08,15.12 l 85.2,74.28 z"
       style="fill:#d19392;fill-opacity:1;fill-rule:evenodd;stroke:none"
       id="path1971"
       inkscape:connector-curvature="0" /><path
       d="m 220.92,297.12 c -4.8,5.4 -9,11.4 -12.6,17.64 l 97.8,56.64 z"
       style="fill:#b9cd96;fill-opacity:1;fill-rule:evenodd;stroke:none"
       id="path1973"
       inkscape:connector-curvature="0" /><path
       d="m 208.32,314.76 c -3.24,5.52 -5.88,11.28 -8.04,17.16 l 105.84,39.48 z"
       style="fill:#a99bbd;fill-opacity:1;fill-rule:evenodd;stroke:none"
       id="path1975"
       inkscape:connector-curvature="0" /><path
       d="m 200.28,331.92 c -21.84,58.44 7.92,123.6 66.36,145.32 12.6,4.68 26.04,7.08 39.48,7.08 V 371.4 Z"
       style="fill:#91c3d5;fill-opacity:1;fill-rule:evenodd;stroke:none"
       id="path1977"
       inkscape:connector-curvature="0" /><path
       d="m 382.8,454.32 21.6,24.48 c 0,0.12 0.12,0.12 0.24,0.12 h 4.2 v -0.72 h -4.2 l 0.24,0.12 -21.6,-24.48 z"
       style="fill:#000000;fill-opacity:1;fill-rule:nonzero;stroke:none"
       id="path1979"
       inkscape:connector-curvature="0" /><path
       d="m 415.92,344.52 24.12,-6.24 v 0 h 4.08 v -0.72 h -4.08 c -0.12,0 -0.12,0 -0.12,0 l -24.24,6.24 z"
       style="fill:#000000;fill-opacity:1;fill-rule:nonzero;stroke:none"
       id="path1981"
       inkscape:connector-curvature="0" /><path
       d="m 387.24,292.68 7.68,-8.16 -0.24,0.12 h 4.2 v -0.72 h -4.2 c -0.12,0 -0.12,0.12 -0.24,0.12 l -7.68,8.16 z"
       style="fill:#000000;fill-opacity:1;fill-rule:nonzero;stroke:none"
       id="path1983"
       inkscape:connector-curvature="0" /><path
       d="M 351.36,268.08 388.2,253.8 h -0.12 4.08 v -0.72 h -4.08 c -0.12,0 -0.12,0.12 -0.12,0.12 l -36.84,14.28 z"
       style="fill:#000000;fill-opacity:1;fill-rule:nonzero;stroke:none"
       id="path1985"
       inkscape:connector-curvature="0" /><path
       d="m 276.48,262.2 -7.44,-14.52 c 0,-0.12 -0.12,-0.12 -0.24,-0.12 h -4.2 v 0.6 h 4.2 l -0.36,-0.12 7.44,14.52 z"
       style="fill:#000000;fill-opacity:1;fill-rule:nonzero;stroke:none"
       id="path1987"
       inkscape:connector-curvature="0" /><path
       d="m 247.44,274.68 -14.88,-15.96 c -0.12,0 -0.24,-0.12 -0.24,-0.12 H 228 v 0.72 h 4.32 l -0.36,-0.12 15,15.96 z"
       style="fill:#000000;fill-opacity:1;fill-rule:nonzero;stroke:none"
       id="path1989"
       inkscape:connector-curvature="0" /><path
       d="m 228.84,288.84 -27.48,-18.72 c 0,0 -0.12,0 -0.12,0 h -4.2 v 0.72 h 4.2 l -0.24,-0.12 27.48,18.72 z"
       style="fill:#000000;fill-opacity:1;fill-rule:nonzero;stroke:none"
       id="path1991"
       inkscape:connector-curvature="0" /><path
       d="M 214.44,305.4 193.8,292.2 c 0,0 -0.12,0 -0.12,0 h -4.2 v 0.72 h 4.2 l -0.24,-0.12 20.52,13.08 z"
       style="fill:#000000;fill-opacity:1;fill-rule:nonzero;stroke:none"
       id="path1993"
       inkscape:connector-curvature="0" /><path
       d="m 204.12,322.92 -5.64,-6.84 c -0.12,0 -0.12,-0.12 -0.24,-0.12 h -4.2 v 0.72 h 4.2 l -0.24,-0.12 5.64,6.84 z"
       style="fill:#000000;fill-opacity:1;fill-rule:nonzero;stroke:none"
       id="path1995"
       inkscape:connector-curvature="0" /><path
       d="m 213.12,435.48 -21,9.36 h 0.12 -4.2 v 0.72 h 4.2 c 0,0 0.12,-0.12 0.12,-0.12 l 21.12,-9.24 z"
       style="fill:#000000;fill-opacity:1;fill-rule:nonzero;stroke:none"
       id="path1997"
       inkscape:connector-curvature="0" /><text
       transform="matrix(1,0,0,-1,410.38493,478.54846)"
       style="font-variant:normal;font-weight:normal;font-size:9.23499966px;font-family:Calibri;-inkscape-font-specification:Calibri;writing-mode:lr-tb;fill:#000000;fill-opacity:1;fill-rule:nonzero;stroke:none"
       id="text2001"><tspan
         x="0 5.9288702 10.777245 12.89206 15.985785 20.519459 25.439331 27.599277 31.838142 34.93187 39.355434 42.449158 47.048187"
         y="0"
         sodipodi:role="line"
         id="tspan1999">United States</tspan></text>
<text
       transform="matrix(1,0,0,-1,427.7929,467.14324)"
       style="font-variant:normal;font-weight:normal;font-size:9.23499966px;font-family:Calibri;-inkscape-font-specification:Calibri;writing-mode:lr-tb;fill:#000000;fill-opacity:1;fill-rule:nonzero;stroke:none"
       id="text2005"><tspan
         x="0 4.5598826 9.2420282"
         y="0"
         sodipodi:role="line"
         id="tspan2003">24%</tspan></text>
<text
       transform="matrix(1,0,0,-1,445.55181,337.90865)"
       style="font-variant:normal;font-weight:normal;font-size:9.23499966px;font-family:Calibri;-inkscape-font-specification:Calibri;writing-mode:lr-tb;fill:#000000;fill-opacity:1;fill-rule:nonzero;stroke:none"
       id="text2009"><tspan
         x="0 4.922255 9.8397446 11.954559 16.802935"
         y="0"
         sodipodi:role="line"
         id="tspan2007">China</tspan></text>
<text
       transform="matrix(1,0,0,-1,448.30384,326.51266)"
       style="font-variant:normal;font-weight:normal;font-size:9.23499966px;font-family:Calibri;-inkscape-font-specification:Calibri;writing-mode:lr-tb;fill:#000000;fill-opacity:1;fill-rule:nonzero;stroke:none"
       id="text2013"><tspan
         x="0 4.6821451 9.2397556"
         y="0"
         sodipodi:role="line"
         id="tspan2011">10%</tspan></text>
<text
       transform="matrix(1,0,0,-1,400.18949,284.27177)"
       style="font-variant:normal;font-weight:normal;font-size:9.23499966px;font-family:Calibri;-inkscape-font-specification:Calibri;writing-mode:lr-tb;fill:#000000;fill-opacity:1;fill-rule:nonzero;stroke:none"
       id="text2017"><tspan
         x="0 2.3999364 7.319809 12.168183 14.282999"
         y="0"
         sodipodi:role="line"
         id="tspan2015">India</tspan></text>
<text
       transform="matrix(1,0,0,-1,404.03125,272.87578)"
       style="font-variant:normal;font-weight:normal;font-size:9.23499966px;font-family:Calibri;-inkscape-font-specification:Calibri;writing-mode:lr-tb;fill:#000000;fill-opacity:1;fill-rule:nonzero;stroke:none"
       id="text2021"><tspan
         x="0 4.6821451"
         y="0"
         sodipodi:role="line"
         id="tspan2019">7%</tspan></text>
<text
       transform="matrix(1,0,0,-1,393.70652,253.4361)"
       style="font-variant:normal;font-weight:normal;font-size:9.23499966px;font-family:Calibri;-inkscape-font-specification:Calibri;writing-mode:lr-tb;fill:#000000;fill-opacity:1;fill-rule:nonzero;stroke:none"
       id="text2025"><tspan
         x="0 5.9288702 10.777245 12.89206 15.985785 20.519459 25.439331 27.599277 32.401478 34.439098 39.358971 43.708656 48.55703 53.518597"
         y="0"
         sodipodi:role="line"
         id="tspan2023">United Kingdom</tspan></text>
<text
       transform="matrix(1,0,0,-1,418.54867,242.15093)"
       style="font-variant:normal;font-weight:normal;font-size:9.23499966px;font-family:Calibri;-inkscape-font-specification:Calibri;writing-mode:lr-tb;fill:#000000;fill-opacity:1;fill-rule:nonzero;stroke:none"
       id="text2029"><tspan
         x="0 4.6821451"
         y="0"
         sodipodi:role="line"
         id="tspan2027">6%</tspan></text>
<text
       transform="matrix(1,0,0,-1,284.9921,246.35286)"
       style="font-variant:normal;font-weight:normal;font-size:9.23499966px;font-family:Calibri;-inkscape-font-specification:Calibri;writing-mode:lr-tb;fill:#000000;fill-opacity:1;fill-rule:nonzero;stroke:none"
       id="text2033"><tspan
         x="0 4.2388649 7.4618802 11.885445 16.799564 20.705969"
         y="0"
         sodipodi:role="line"
         id="tspan2031">France</tspan></text>
<text
       transform="matrix(1,0,0,-1,292.07535,234.95687)"
       style="font-variant:normal;font-weight:normal;font-size:9.23499966px;font-family:Calibri;-inkscape-font-specification:Calibri;writing-mode:lr-tb;fill:#000000;fill-opacity:1;fill-rule:nonzero;stroke:none"
       id="text2037"><tspan
         x="0 4.6821451"
         y="0"
         sodipodi:role="line"
         id="tspan2035">5%</tspan></text>
<text
       transform="matrix(1,0,0,-1,228.59395,245.75258)"
       style="font-variant:normal;font-weight:normal;font-size:9.23499966px;font-family:Calibri;-inkscape-font-specification:Calibri;writing-mode:lr-tb;fill:#000000;fill-opacity:1;fill-rule:nonzero;stroke:none"
       id="text2041"><tspan
         x="0 5.8272848 10.426315 13.559649 20.999456 25.423021 30.359213"
         y="0"
         sodipodi:role="line"
         id="tspan2039">Germany</tspan></text>
<text
       transform="matrix(1,0,0,-1,240.35011,234.35659)"
       style="font-variant:normal;font-weight:normal;font-size:9.23499966px;font-family:Calibri;-inkscape-font-specification:Calibri;writing-mode:lr-tb;fill:#000000;fill-opacity:1;fill-rule:nonzero;stroke:none"
       id="text2045"><tspan
         x="0 4.6821451"
         y="0"
         sodipodi:role="line"
         id="tspan2043">5%</tspan></text>
<text
       transform="matrix(1,0,0,-1,205.07241,258.9494)"
       style="font-variant:normal;font-weight:normal;font-size:9.23499966px;font-family:Calibri;-inkscape-font-specification:Calibri;writing-mode:lr-tb;fill:#000000;fill-opacity:1;fill-rule:nonzero;stroke:none"
       id="text2049"><tspan
         x="0 2.8799255 7.3034906 12.239681 16.663246"
         y="0"
         sodipodi:role="line"
         id="tspan2047">Japan</tspan></text>
<text
       transform="matrix(1,0,0,-1,210.35483,247.55341)"
       style="font-variant:normal;font-weight:normal;font-size:9.23499966px;font-family:Calibri;-inkscape-font-specification:Calibri;writing-mode:lr-tb;fill:#000000;fill-opacity:1;fill-rule:nonzero;stroke:none"
       id="text2053"><tspan
         x="0 4.6821451"
         y="0"
         sodipodi:role="line"
         id="tspan2051">3%</tspan></text>
<text
       transform="matrix(1,0,0,-1,179.39911,270.47468)"
       style="font-variant:normal;font-weight:normal;font-size:9.23499966px;font-family:Calibri;-inkscape-font-specification:Calibri;writing-mode:lr-tb;fill:#000000;fill-opacity:1;fill-rule:nonzero;stroke:none"
       id="text2057"><tspan
         x="0 2.32722 5.4209452 9.8445101 11.959325"
         y="0"
         sodipodi:role="line"
         id="tspan2055">Italy</tspan></text>
<text
       transform="matrix(1,0,0,-1,181.91103,259.06945)"
       style="font-variant:normal;font-weight:normal;font-size:9.23499966px;font-family:Calibri;-inkscape-font-specification:Calibri;writing-mode:lr-tb;fill:#000000;fill-opacity:1;fill-rule:nonzero;stroke:none"
       id="text2061"><tspan
         x="0 4.6821451"
         y="0"
         sodipodi:role="line"
         id="tspan2059">3%</tspan></text>
<text
       transform="matrix(1,0,0,-1,160.07949,292.55556)"
       style="font-variant:normal;font-weight:normal;font-size:9.23499966px;font-family:Calibri;-inkscape-font-specification:Calibri;writing-mode:lr-tb;fill:#000000;fill-opacity:1;fill-rule:nonzero;stroke:none"
       id="text2065"><tspan
         x="0 4.922255 9.3458204 14.194195 18.719511 23.567886"
         y="0"
         sodipodi:role="line"
         id="tspan2063">Canada</tspan></text>
<text
       transform="matrix(1,0,0,-1,168.4741,281.15034)"
       style="font-variant:normal;font-weight:normal;font-size:9.23499966px;font-family:Calibri;-inkscape-font-specification:Calibri;writing-mode:lr-tb;fill:#000000;fill-opacity:1;fill-rule:nonzero;stroke:none"
       id="text2069"><tspan
         x="0 4.6821451"
         y="0"
         sodipodi:role="line"
         id="tspan2067">3%</tspan></text>
<text
       transform="matrix(1,0,0,-1,146.51328,316.30798)"
       style="font-variant:normal;font-weight:normal;font-size:9.23499966px;font-family:Calibri;-inkscape-font-specification:Calibri;writing-mode:lr-tb;fill:#000000;fill-opacity:1;fill-rule:nonzero;stroke:none"
       id="text2073"><tspan
         x="0 4.2388649 9.10571 14.039629 17.133354 22.079416 24.166527 28.968727 33.835571 37.058586 41.657616"
         y="0"
         sodipodi:role="line"
         id="tspan2071">South Korea</tspan></text>
<text
       transform="matrix(1,0,0,-1,164.03207,304.91199)"
       style="font-variant:normal;font-weight:normal;font-size:9.23499966px;font-family:Calibri;-inkscape-font-specification:Calibri;writing-mode:lr-tb;fill:#000000;fill-opacity:1;fill-rule:nonzero;stroke:none"
       id="text2077"><tspan
         x="0 4.6821451"
         y="0"
         sodipodi:role="line"
         id="tspan2075">3%</tspan></text>
<text
       transform="matrix(1,0,0,-1,167.75377,456.46758)"
       style="font-variant:normal;font-weight:normal;font-size:9.23499966px;font-family:Calibri;-inkscape-font-specification:Calibri;writing-mode:lr-tb;fill:#000000;fill-opacity:1;fill-rule:nonzero;stroke:none"
       id="text2081"><tspan
         x="0 6.1135702 9.2072954 14.159628 18.758657"
         y="0"
         sodipodi:role="line"
         id="tspan2079">Other</tspan></text>
<text
       transform="matrix(1,0,0,-1,170.75515,445.07159)"
       style="font-variant:normal;font-weight:normal;font-size:9.23499966px;font-family:Calibri;-inkscape-font-specification:Calibri;writing-mode:lr-tb;fill:#000000;fill-opacity:1;fill-rule:nonzero;stroke:none"
       id="text2085"><tspan
         x="0 4.6821451 9.3642902"
         y="0"
         sodipodi:role="line"
         id="tspan2083">31%</tspan></text>
<text
       transform="matrix(1,0,0,-1,180.00165,538.43609)"
       style="font-variant:normal;font-weight:normal;font-size:16.69000053px;font-family:Calibri;-inkscape-font-specification:'Calibri Bold';writing-mode:lr-tb;fill:#000000;fill-opacity:1;fill-rule:nonzero;stroke:none"
       id="text2089"><tspan
         x="0 10.11414 19.07667 28.0392 31.81114 39.705509 45.359463 54.338684 60.119301 68.514366 72.286308 82.079048 86.184792 92.844101 96.949837 102.83881 109.49812 113.15868 118.36597 126.8278 135.28963 143.75145 148.05748 156.5193 164.98114 173.44296"
         y="0"
         sodipodi:role="line"
         id="tspan2087">App Store Visits (619,761)</tspan></text>
<text
       transform="matrix(1,0,0,-1,163.44517,518.04091)"
       style="font-variant:normal;font-weight:normal;font-size:16.69000053px;font-family:Calibri;-inkscape-font-specification:'Calibri Bold';writing-mode:lr-tb;fill:#000000;fill-opacity:1;fill-rule:nonzero;stroke:none"
       id="text2093"><tspan
         x="0 5.2072802 13.66911 20.759756 29.221586 36.398285 44.759476 53.221306 61.683136 70.144966 74.039124 79.830559 88.918945 94.558884 103.5381 112.50063 120.47858 129.44112 133.07843 141.47833 148.55824 157.02007 165.4819 172.6586 181.12044 189.58226 198.0441 206.50592"
         y="0"
         sodipodi:role="line"
         id="tspan2091">(6/1/2012 through 1/19/2018)</tspan></text>
<g
       id="g2095"><g
         id="g2097"
         clip-path="url(#clipPath2101)"><path
           d="m 50.76,561.24 c 0,0.24 0.24,0.36 0.36,0.36 h 510 c 0.12,0 0.36,-0.12 0.36,-0.36 V 230.52 c 0,-0.12 -0.24,-0.24 -0.36,-0.24 h -510 c -0.12,0 -0.36,0.12 -0.36,0.24 z m 0.72,-330.72 -0.36,0.36 h 510 l -0.36,-0.36 v 330.72 l 0.36,-0.36 h -510 l 0.36,0.36 z"
           style="fill:#868686;fill-opacity:1;fill-rule:nonzero;stroke:none"
           id="path2103"
           inkscape:connector-curvature="0" /></g></g></g></svg>