<?xml version="1.0" encoding="UTF-8" standalone="no"?>
<!-- Created with Inkscape (http://www.inkscape.org/) -->

<svg
   xmlns:dc="http://purl.org/dc/elements/1.1/"
   xmlns:cc="http://creativecommons.org/ns#"
   xmlns:rdf="http://www.w3.org/1999/02/22-rdf-syntax-ns#"
   xmlns:svg="http://www.w3.org/2000/svg"
   xmlns="http://www.w3.org/2000/svg"
   xmlns:sodipodi="http://sodipodi.sourceforge.net/DTD/sodipodi-0.dtd"
   xmlns:inkscape="http://www.inkscape.org/namespaces/inkscape"
   version="1.1"
   id="svg659"
   xml:space="preserve"
   width="680.63995"
   height="448.95999"
   viewBox="0 0 680.63995 448.95999"
   sodipodi:docname="App_Store_Attractions_By_Category.svg"
   inkscape:version="0.92.3 (2405546, 2018-03-11)"><metadata
     id="metadata665"><rdf:RDF><cc:Work
         rdf:about=""><dc:format>image/svg+xml</dc:format><dc:type
           rdf:resource="http://purl.org/dc/dcmitype/StillImage" /><dc:title></dc:title></cc:Work></rdf:RDF></metadata><defs
     id="defs663"><clipPath
       clipPathUnits="userSpaceOnUse"
       id="clipPath757"><path
         d="M 50.64,564.48 V 227.52 h 510.72 v 336.96 z"
         id="path755"
         inkscape:connector-curvature="0"
         style="clip-rule:evenodd" /></clipPath></defs><sodipodi:namedview
     pagecolor="#ffffff"
     bordercolor="#666666"
     borderopacity="1"
     objecttolerance="10"
     gridtolerance="10"
     guidetolerance="10"
     inkscape:pageopacity="0"
     inkscape:pageshadow="2"
     inkscape:window-width="640"
     inkscape:window-height="480"
     id="namedview661"
     showgrid="false"
     inkscape:zoom="0.22348485"
     inkscape:cx="340.16"
     inkscape:cy="224.64001"
     inkscape:window-x="0"
     inkscape:window-y="0"
     inkscape:window-maximized="0"
     inkscape:current-layer="g667" /><g
     id="g667"
     inkscape:groupmode="layer"
     inkscape:label="App_Store_Attractions_By_Category"
     transform="matrix(1.3333333,0,0,-1.3333333,-67.839998,752.31998)"><path
       d="M 51.24,227.88 H 561 v 336 H 51.24 Z"
       style="fill:#ffffff;fill-opacity:1;fill-rule:nonzero;stroke:none"
       id="path669"
       inkscape:connector-curvature="0" /><path
       d="m 306.12,483.48 c 56.88,0 105,-42 112.56,-98.4 L 306.12,369.96 Z"
       style="fill:#4572a7;fill-opacity:1;fill-rule:evenodd;stroke:none"
       id="path671"
       inkscape:connector-curvature="0" /><path
       d="m 418.68,385.08 c 7.8,-58.56 -30.6,-113.4 -88.32,-126 l -24.24,110.88 z"
       style="fill:#aa4643;fill-opacity:1;fill-rule:evenodd;stroke:none"
       id="path673"
       inkscape:connector-curvature="0" /><path
       d="m 330.36,259.08 c -36,-7.92 -73.56,2.16 -100.8,27 l 76.56,83.88 z"
       style="fill:#89a54e;fill-opacity:1;fill-rule:evenodd;stroke:none"
       id="path675"
       inkscape:connector-curvature="0" /><path
       d="m 229.56,286.08 c -26.4,24.12 -39.84,59.28 -36.48,94.8 l 113.04,-10.92 z"
       style="fill:#71588f;fill-opacity:1;fill-rule:evenodd;stroke:none"
       id="path677"
       inkscape:connector-curvature="0" /><path
       d="m 193.08,380.88 c 2.88,29.52 17.16,56.76 39.84,75.84 l 73.2,-86.76 z"
       style="fill:#4198af;fill-opacity:1;fill-rule:evenodd;stroke:none"
       id="path679"
       inkscape:connector-curvature="0" /><path
       d="m 232.92,456.72 c 20.4,17.28 46.44,26.76 73.2,26.76 V 369.96 Z"
       style="fill:#db843d;fill-opacity:1;fill-rule:evenodd;stroke:none"
       id="path681"
       inkscape:connector-curvature="0" /><path
       d="m 380.52,455.52 3.6,21.48 c 0,0.12 0.12,0.24 0.36,0.24 h 4.44 v -0.72 h -4.44 l 0.36,0.36 -3.6,-21.48 z"
       style="fill:#000000;fill-opacity:1;fill-rule:nonzero;stroke:none"
       id="path683"
       inkscape:connector-curvature="0" /><path
       d="m 399.36,305.04 17.76,-15.24 -0.24,0.12 h 4.32 v -0.72 h -4.32 c -0.12,0 -0.12,0 -0.24,0.12 l -17.76,15.24 z"
       style="fill:#000000;fill-opacity:1;fill-rule:nonzero;stroke:none"
       id="path685"
       inkscape:connector-curvature="0" /><path
       d="m 276.72,260.04 -47.28,-10.68 c 0,-0.12 0,-0.12 0,-0.12 H 225 v 0.84 h 4.44 l -0.12,-0.12 47.28,10.68 z"
       style="fill:#000000;fill-opacity:1;fill-rule:nonzero;stroke:none"
       id="path687"
       inkscape:connector-curvature="0" /><path
       d="M 200.16,328.8 183,326.64 h -4.56 v 0.72 h 4.44 l 17.28,2.16 z"
       style="fill:#000000;fill-opacity:1;fill-rule:nonzero;stroke:none"
       id="path689"
       inkscape:connector-curvature="0" /><path
       d="m 205.32,422.4 -17.04,12.12 0.24,-0.12 h -4.32 v 0.72 h 4.32 c 0.12,0 0.12,0 0.24,0 L 205.8,423 Z"
       style="fill:#000000;fill-opacity:1;fill-rule:nonzero;stroke:none"
       id="path691"
       inkscape:connector-curvature="0" /><path
       d="m 266.76,476.4 -11.64,20.76 0.36,-0.12 h -4.44 v 0.72 h 4.44 c 0.12,0 0.24,-0.12 0.36,-0.24 l 11.64,-20.76 z"
       style="fill:#000000;fill-opacity:1;fill-rule:nonzero;stroke:none"
       id="path693"
       inkscape:connector-curvature="0" /><text
       transform="matrix(1,0,0,-1,390.46695,476.87233)"
       style="font-variant:normal;font-weight:normal;font-size:9.7489996px;font-family:Calibri;-inkscape-font-specification:Calibri;writing-mode:lr-tb;fill:#000000;fill-opacity:1;fill-rule:nonzero;stroke:none"
       id="text697"><tspan
         x="0 6.359838 11.21484 14.399624 21.370159 26.507881 29.910282 34.439102 40.43895 45.358822 50.477047 55.332047 58.734447 63.404221 66.670135 68.902657 74.040382"
         y="0"
         sodipodi:role="line"
         id="tspan695">NetworkGeneration</tspan></text>
<text
       transform="matrix(1,0,0,-1,421.6735,464.87132)"
       style="font-variant:normal;font-weight:normal;font-size:9.7489996px;font-family:Calibri;-inkscape-font-specification:Calibri;writing-mode:lr-tb;fill:#000000;fill-opacity:1;fill-rule:nonzero;stroke:none"
       id="text701"><tspan
         x="0 4.9427428 9.8854856"
         y="0"
         sodipodi:role="line"
         id="tspan699">23%</tspan></text>
<text
       transform="matrix(1,0,0,-1,422.74589,289.55505)"
       style="font-variant:normal;font-weight:normal;font-size:9.7489996px;font-family:Calibri;-inkscape-font-specification:Calibri;writing-mode:lr-tb;fill:#000000;fill-opacity:1;fill-rule:nonzero;stroke:none"
       id="text705"><tspan
         x="0 5.995635 10.665406 13.931321 18.601091 24.128775 26.361296 30.173155 35.291382 40.078949 42.238888 44.471409 48.322266 52.992035 56.398521 58.55846 63.696182"
         y="0"
         sodipodi:role="line"
         id="tspan703">DataVisualization</tspan></text>
<text
       transform="matrix(1,0,0,-1,448.78547,277.55403)"
       style="font-variant:normal;font-weight:normal;font-size:9.7489996px;font-family:Calibri;-inkscape-font-specification:Calibri;writing-mode:lr-tb;fill:#000000;fill-opacity:1;fill-rule:nonzero;stroke:none"
       id="text709"><tspan
         x="0 4.9427428 9.8854856"
         y="0"
         sodipodi:role="line"
         id="tspan707">24%</tspan></text>
<text
       transform="matrix(1,0,0,-1,183.59317,249.5939)"
       style="font-variant:normal;font-weight:normal;font-size:9.7489996px;font-family:Calibri;-inkscape-font-specification:Calibri;writing-mode:lr-tb;fill:#000000;fill-opacity:1;fill-rule:nonzero;stroke:none"
       id="text713"><tspan
         x="0 5.1962171 7.4287381 12.546963 16.358822 19.559486 24.479359 27.88176 30.114281 35.232506"
         y="0"
         sodipodi:role="line"
         id="tspan711">Clustering</tspan></text>
<text
       transform="matrix(1,0,0,-1,195.11649,237.70987)"
       style="font-variant:normal;font-weight:normal;font-size:9.7489996px;font-family:Calibri;-inkscape-font-specification:Calibri;writing-mode:lr-tb;fill:#000000;fill-opacity:1;fill-rule:nonzero;stroke:none"
       id="text717"><tspan
         x="0 4.9427428 9.8854856"
         y="0"
         sodipodi:role="line"
         id="tspan715">15%</tspan></text>
<text
       transform="matrix(1,0,0,-1,120.47814,326.99121)"
       style="font-variant:normal;font-weight:normal;font-size:9.7489996px;font-family:Calibri;-inkscape-font-specification:Calibri;writing-mode:lr-tb;fill:#000000;fill-opacity:1;fill-rule:nonzero;stroke:none"
       id="text721"><tspan
         x="0 6.151619 9.4797525 14.149523 19.267748 24.479359 30.124029 35.242256 40.078949 42.238888 46.655186 50.467045 52.699566"
         y="0"
         sodipodi:role="line"
         id="tspan719">GraphAnalysis</tspan></text>
<text
       transform="matrix(1,0,0,-1,140.27836,314.99019)"
       style="font-variant:normal;font-weight:normal;font-size:9.7489996px;font-family:Calibri;-inkscape-font-specification:Calibri;writing-mode:lr-tb;fill:#000000;fill-opacity:1;fill-rule:nonzero;stroke:none"
       id="text725"><tspan
         x="0 4.9427428 9.8854856"
         y="0"
         sodipodi:role="line"
         id="tspan723">15%</tspan></text>
<text
       transform="matrix(1,0,0,-1,116.15934,434.74691)"
       style="font-variant:normal;font-weight:normal;font-size:9.7489996px;font-family:Calibri;-inkscape-font-specification:Calibri;writing-mode:lr-tb;fill:#000000;fill-opacity:1;fill-rule:nonzero;stroke:none"
       id="text729"><tspan
         x="0 6.359838 11.21484 14.480755 21.359446 26.639309 30.04171 34.477505 40.122177 45.240398 49.910172 52.142693 56.638523 60.358429 62.59095"
         y="0"
         sodipodi:role="line"
         id="tspan727">NetworkAnalysis</tspan></text>
<text
       transform="matrix(1,0,0,-1,140.99979,422.74589)"
       style="font-variant:normal;font-weight:normal;font-size:9.7489996px;font-family:Calibri;-inkscape-font-specification:Calibri;writing-mode:lr-tb;fill:#000000;fill-opacity:1;fill-rule:nonzero;stroke:none"
       id="text733"><tspan
         x="0 4.9427428 9.8854856"
         y="0"
         sodipodi:role="line"
         id="tspan731">12%</tspan></text>
<text
       transform="matrix(1,0,0,-1,171.59215,497.38423)"
       style="font-variant:normal;font-weight:normal;font-size:9.7489996px;font-family:Calibri;-inkscape-font-specification:Calibri;writing-mode:lr-tb;fill:#000000;fill-opacity:1;fill-rule:nonzero;stroke:none"
       id="text737"><tspan
         x="0 4.7575121 9.9597445 13.43965 15.599589 19.799479 24.917704 32.639145 37.494148 42.612373 45.958794 51.603466 56.721691 61.39146 63.718334 68.134628 71.87812 74.110641"
         y="0"
         sodipodi:role="line"
         id="tspan735">EnrichmentAnalysis</tspan></text>
<text
       transform="matrix(1,0,0,-1,202.19426,485.38321)"
       style="font-variant:normal;font-weight:normal;font-size:9.7489996px;font-family:Calibri;-inkscape-font-specification:Calibri;writing-mode:lr-tb;fill:#000000;fill-opacity:1;fill-rule:nonzero;stroke:none"
       id="text741"><tspan
         x="0 4.9427428 9.8854856"
         y="0"
         sodipodi:role="line"
         id="tspan739">11%</tspan></text>
<text
       transform="matrix(1,0,0,-1,130.80346,539.63473)"
       style="font-variant:normal;font-weight:normal;font-size:17.61899948px;font-family:Calibri;-inkscape-font-specification:'Calibri Bold';writing-mode:lr-tb;fill:#000000;fill-opacity:1;fill-rule:nonzero;stroke:none"
       id="text745"><tspan
         x="0 7.1999516 16.678974 26.140377 30.122271 40.799385 50.260788 59.722191 63.704086 72.037872 77.999405 87.478424 93.479279 102.4792 106.31918 116.39909 122.27905 128.39284 134.27896 142.9189 150.35884 156.47263 160.8069 170.28592 179.8786 186.83855 190.82045 200.15845 208.43839 212.51836 221.75829 230.27821 236.15817 245.1581 253.31804 262.91797 269.1727 277.52411 281.39783 286.89496 295.91772 304.85056 313.67758 318.35754 327.29037 336.1174 345.11734 350.61444"
         y="0"
         sodipodi:role="line"
         id="tspan743">Top App Store Attractions by Category (273,153) </tspan></text>
<text
       transform="matrix(1,0,0,-1,194.39043,518.15717)"
       style="font-variant:normal;font-weight:normal;font-size:17.61899948px;font-family:Calibri;-inkscape-font-specification:'Calibri Bold';writing-mode:lr-tb;fill:#000000;fill-opacity:1;fill-rule:nonzero;stroke:none"
       id="text749"><tspan
         x="0 5.497128 14.429961 22.00613 30.839769 38.415939 47.279636 56.212467 65.145302 74.078133 78.060028 84.239349 93.839272 99.839226 109.31824 118.77965 127.19901 136.66042 140.39891 149.39883 156.83878 165.8387 174.77153 182.27856 191.2114 200.03842 209.03835 217.97119"
         y="0"
         sodipodi:role="line"
         id="tspan747">(6/1/2012 through 1/19/2018)</tspan></text>
<g
       id="g751"><g
         id="g753"
         clip-path="url(#clipPath757)"><path
           d="m 50.88,563.88 c 0,0.24 0.12,0.36 0.36,0.36 H 561 c 0.24,0 0.36,-0.12 0.36,-0.36 v -336 c 0,-0.12 -0.12,-0.36 -0.36,-0.36 H 51.24 c -0.24,0 -0.36,0.24 -0.36,0.36 z m 0.72,-336 -0.36,0.36 H 561 l -0.36,-0.36 v 336 L 561,563.52 H 51.24 l 0.36,0.36 z"
           style="fill:#868686;fill-opacity:1;fill-rule:nonzero;stroke:none"
           id="path759"
           inkscape:connector-curvature="0" /></g></g></g></svg>