<?xml version="1.0" encoding="UTF-8" standalone="no"?>
<!-- Created with Inkscape (http://www.inkscape.org/) -->

<svg
   xmlns:dc="http://purl.org/dc/elements/1.1/"
   xmlns:cc="http://creativecommons.org/ns#"
   xmlns:rdf="http://www.w3.org/1999/02/22-rdf-syntax-ns#"
   xmlns:svg="http://www.w3.org/2000/svg"
   xmlns="http://www.w3.org/2000/svg"
   xmlns:sodipodi="http://sodipodi.sourceforge.net/DTD/sodipodi-0.dtd"
   xmlns:inkscape="http://www.inkscape.org/namespaces/inkscape"
   version="1.1"
   id="svg2767"
   xml:space="preserve"
   width="680.79999"
   height="435.35999"
   viewBox="0 0 680.79999 435.35999"
   sodipodi:docname="App_Store_Visits_By_Week.svg"
   inkscape:version="0.92.3 (2405546, 2018-03-11)"><metadata
     id="metadata2773"><rdf:RDF><cc:Work
         rdf:about=""><dc:format>image/svg+xml</dc:format><dc:type
           rdf:resource="http://purl.org/dc/dcmitype/StillImage" /><dc:title></dc:title></cc:Work></rdf:RDF></metadata><defs
     id="defs2771"><clipPath
       clipPathUnits="userSpaceOnUse"
       id="clipPath2811"><path
         d="M 108.84,494.28 V 279.12 h 376.32 v 215.16 z"
         id="path2809"
         inkscape:connector-curvature="0"
         style="clip-rule:evenodd" /></clipPath><clipPath
       clipPathUnits="userSpaceOnUse"
       id="clipPath2979"><path
         d="M 50.64,559.44 V 232.68 h 510.72 v 326.76 z"
         id="path2977"
         inkscape:connector-curvature="0"
         style="clip-rule:evenodd" /></clipPath></defs><sodipodi:namedview
     pagecolor="#ffffff"
     bordercolor="#666666"
     borderopacity="1"
     objecttolerance="10"
     gridtolerance="10"
     guidetolerance="10"
     inkscape:pageopacity="0"
     inkscape:pageshadow="2"
     inkscape:window-width="640"
     inkscape:window-height="480"
     id="namedview2769"
     showgrid="false"
     inkscape:zoom="0.22348485"
     inkscape:cx="340.32"
     inkscape:cy="217.76001"
     inkscape:window-x="0"
     inkscape:window-y="0"
     inkscape:window-maximized="0"
     inkscape:current-layer="g2775" /><g
     id="g2775"
     inkscape:groupmode="layer"
     inkscape:label="App_Store_Visits_By_Week"
     transform="matrix(1.3333333,0,0,-1.3333333,-67.679998,745.59998)"><path
       d="m 51.24,233.04 h 509.64 v 325.8 H 51.24 Z"
       style="fill:#ffffff;fill-opacity:1;fill-rule:nonzero;stroke:none"
       id="path2777"
       inkscape:connector-curvature="0" /><path
       d="m 108.96,279.72 h 375.6 v 214.56 h -375.6 z"
       style="fill:#ffffff;fill-opacity:1;fill-rule:nonzero;stroke:none"
       id="path2779"
       inkscape:connector-curvature="0" /><path
       d="m 108.96,306.96 h 375.6 v -0.84 h -375.6 z m 0,26.76 h 375.6 V 333 h -375.6 z m 0,26.76 h 375.6 v -0.72 h -375.6 z m 0,26.88 h 375.6 v -0.72 h -375.6 z m 0,26.76 h 375.6 v -0.72 h -375.6 z m 0,26.88 h 375.6 v -0.84 h -375.6 z m 0,26.88 h 375.6 v -0.84 h -375.6 z m 0,26.76 h 375.6 v -0.84 h -375.6 z"
       style="fill:#868686;fill-opacity:1;fill-rule:nonzero;stroke:none"
       id="path2781"
       inkscape:connector-curvature="0" /><path
       d="m 108.48,279.72 h 0.84 v 214.56 h -0.84 z"
       style="fill:#868686;fill-opacity:1;fill-rule:nonzero;stroke:none"
       id="path2783"
       inkscape:connector-curvature="0" /><path
       d="m 105.72,280.08 h 3.24 v -0.72 h -3.24 z m 0,26.88 h 3.24 v -0.84 h -3.24 z m 0,26.76 h 3.24 V 333 h -3.24 z m 0,26.76 h 3.24 v -0.72 h -3.24 z m 0,26.88 h 3.24 v -0.72 h -3.24 z m 0,26.76 h 3.24 v -0.72 h -3.24 z m 0,26.88 h 3.24 v -0.84 h -3.24 z m 0,26.88 h 3.24 v -0.84 h -3.24 z m 0,26.76 h 3.24 v -0.84 h -3.24 z"
       style="fill:#868686;fill-opacity:1;fill-rule:nonzero;stroke:none"
       id="path2785"
       inkscape:connector-curvature="0" /><path
       d="m 108.96,279.36 h 375.6 v 0.72 h -375.6 z"
       style="fill:#868686;fill-opacity:1;fill-rule:nonzero;stroke:none"
       id="path2787"
       inkscape:connector-curvature="0" /><path
       d="m 109.32,279.72 v -3.24 h -0.84 v 3.24 z m 7.08,0 v -3.24 h -0.72 v 3.24 z m 7.08,0 v -3.24 h -0.84 v 3.24 z m 7.08,0 v -3.24 h -0.72 v 3.24 z m 7.08,0 v -3.24 h -0.84 v 3.24 z m 7.08,0 v -3.24 H 144 v 3.24 z"
       style="fill:#868686;fill-opacity:1;fill-rule:nonzero;stroke:none"
       id="path2789"
       inkscape:connector-curvature="0" /><path
       d="m 151.92,279.72 v -3.24 h -0.84 v 3.24 z m 6.96,0 v -3.24 h -0.72 v 3.24 z m 7.2,0 v -3.24 h -0.84 v 3.24 z m 6.96,0 v -3.24 h -0.72 v 3.24 z m 7.08,0 v -3.24 h -0.72 v 3.24 z m 7.08,0 v -3.24 h -0.72 v 3.24 z"
       style="fill:#868686;fill-opacity:1;fill-rule:nonzero;stroke:none"
       id="path2791"
       inkscape:connector-curvature="0" /><path
       d="m 194.28,279.72 v -3.24 h -0.72 v 3.24 z m 7.2,0 v -3.24 h -0.72 v 3.24 z m 6.96,0 v -3.24 h -0.72 v 3.24 z m 7.2,0 v -3.24 h -0.72 v 3.24 z m 6.96,0 v -3.24 h -0.72 v 3.24 z m 7.2,0 v -3.24 h -0.72 v 3.24 z"
       style="fill:#868686;fill-opacity:1;fill-rule:nonzero;stroke:none"
       id="path2793"
       inkscape:connector-curvature="0" /><path
       d="m 236.76,279.72 v -3.24 h -0.72 v 3.24 z m 7.2,0 v -3.24 h -0.72 v 3.24 z m 7.08,0 v -3.24 h -0.72 v 3.24 z m 7.08,0 v -3.24 h -0.72 v 3.24 z m 7.08,0 v -3.24 h -0.72 v 3.24 z m 7.08,0 v -3.24 h -0.84 v 3.24 z"
       style="fill:#868686;fill-opacity:1;fill-rule:nonzero;stroke:none"
       id="path2795"
       inkscape:connector-curvature="0" /><path
       d="m 279.36,279.72 v -3.24 h -0.72 v 3.24 z m 7.08,0 v -3.24 h -0.84 v 3.24 z m 7.08,0 v -3.24 h -0.72 v 3.24 z m 7.2,0 v -3.24 h -0.84 v 3.24 z m 6.96,0 v -3.24 h -0.72 v 3.24 z m 7.2,0 v -3.24 h -0.84 v 3.24 z"
       style="fill:#868686;fill-opacity:1;fill-rule:nonzero;stroke:none"
       id="path2797"
       inkscape:connector-curvature="0" /><path
       d="m 321.84,279.72 v -3.24 h -0.72 v 3.24 z m 7.2,0 v -3.24 h -0.84 v 3.24 z m 7.08,0 v -3.24 h -0.72 v 3.24 z m 7.08,0 v -3.24 h -0.84 v 3.24 z m 7.08,0 v -3.24 h -0.72 v 3.24 z m 7.08,0 v -3.24 h -0.84 v 3.24 z"
       style="fill:#868686;fill-opacity:1;fill-rule:nonzero;stroke:none"
       id="path2799"
       inkscape:connector-curvature="0" /><path
       d="m 364.44,279.72 v -3.24 h -0.72 v 3.24 z m 7.08,0 v -3.24 h -0.84 v 3.24 z m 7.08,0 v -3.24 h -0.72 v 3.24 z m 7.2,0 v -3.24 h -0.84 v 3.24 z m 6.96,0 v -3.24 h -0.72 v 3.24 z m 7.2,0 v -3.24 h -0.84 v 3.24 z"
       style="fill:#868686;fill-opacity:1;fill-rule:nonzero;stroke:none"
       id="path2801"
       inkscape:connector-curvature="0" /><path
       d="m 406.92,279.72 v -3.24 h -0.72 v 3.24 z m 7.08,0 v -3.24 h -0.72 v 3.24 z m 7.08,0 v -3.24 h -0.72 v 3.24 z m 7.08,0 v -3.24 h -0.72 v 3.24 z m 7.2,0 v -3.24 h -0.72 v 3.24 z m 6.96,0 v -3.24 h -0.72 v 3.24 z m 7.2,0 v -3.24 h -0.72 v 3.24 z m 6.96,0 v -3.24 h -0.72 v 3.24 z m 7.2,0 v -3.24 h -0.72 v 3.24 z m 6.96,0 v -3.24 h -0.72 v 3.24 z m 7.2,0 v -3.24 h -0.72 v 3.24 z m 7.08,0 v -3.24 h -0.72 v 3.24 z"
       style="fill:#868686;fill-opacity:1;fill-rule:nonzero;stroke:none"
       id="path2803"
       inkscape:connector-curvature="0" /><g
       id="g2805"><g
         id="g2807"
         clip-path="url(#clipPath2811)"><path
           d="m 267.36,280.32 3.48,5.88 c 0.24,0.48 0.96,0.72 1.56,0.36 0.48,-0.24 0.72,-0.96 0.36,-1.56 l -3.36,-5.88 c -0.36,-0.48 -1.08,-0.72 -1.56,-0.36 -0.6,0.36 -0.72,0.96 -0.48,1.56 z m 7.68,13.68 2.28,6.36 c 0.12,0.6 0.84,0.96 1.44,0.72 0.6,-0.24 0.84,-0.84 0.6,-1.44 l -2.28,-6.48 c -0.12,-0.48 -0.84,-0.84 -1.44,-0.6 -0.6,0.12 -0.84,0.84 -0.6,1.44 z m 5.28,15 1.08,3.24 c 0.24,0.48 0.72,0.84 1.2,0.72 l 3.36,-0.24 c 0.6,-0.12 1.08,-0.6 0.96,-1.2 0,-0.72 -0.6,-1.08 -1.2,-1.08 l -3.24,0.24 1.08,0.84 -1.08,-3.36 c -0.24,-0.6 -0.96,-0.84 -1.44,-0.72 -0.6,0.24 -0.96,0.96 -0.72,1.56 z m 14.28,0.12 2.76,-2.04 -1.44,-0.12 2.4,2.4 c 0.48,0.36 1.2,0.36 1.56,-0.12 0.48,-0.36 0.48,-1.08 0,-1.56 l -2.4,-2.28 c -0.36,-0.48 -1.08,-0.48 -1.44,-0.12 l -2.76,2.04 c -0.6,0.36 -0.72,1.08 -0.36,1.56 0.48,0.48 1.08,0.6 1.68,0.24 z m 12,4.32 4.56,-1.44 c 0.12,-0.12 0.24,-0.12 0.36,-0.24 l 1.56,-1.2 c 0.48,-0.36 0.6,-1.08 0.24,-1.56 -0.36,-0.48 -1.08,-0.6 -1.56,-0.24 l -1.56,1.2 0.24,-0.12 -4.56,1.44 c -0.6,0.12 -0.96,0.72 -0.72,1.32 0.12,0.6 0.84,0.96 1.44,0.84 z m 12.84,-6.12 5.16,2.4 c 0.12,0 0.12,0.12 0.24,0.12 l 0.96,0.24 c 0.6,0.24 1.2,-0.12 1.44,-0.72 0.12,-0.6 -0.24,-1.32 -0.84,-1.44 l -0.96,-0.24 h 0.12 l -5.28,-2.4 c -0.48,-0.24 -1.2,0 -1.44,0.6 -0.24,0.48 0,1.2 0.6,1.44 z m 15.48,4.68 4.32,0.12 h -0.36 l 2.28,0.72 c 0.6,0.24 1.32,-0.12 1.44,-0.72 0.24,-0.48 0,-1.2 -0.6,-1.44 l -2.4,-0.72 c -0.12,-0.12 -0.12,-0.12 -0.24,-0.12 l -4.44,-0.12 c -0.6,0 -1.08,0.48 -1.08,1.08 -0.12,0.6 0.36,1.2 1.08,1.2 z m 15.6,1.08 3.24,-1.08 -0.84,-0.12 3.12,1.44 c 0.48,0.24 1.2,0 1.44,-0.6 0.24,-0.6 0,-1.2 -0.6,-1.44 l -3,-1.44 c -0.24,-0.12 -0.6,-0.12 -0.84,0 l -3.24,1.2 c -0.6,0.12 -0.96,0.84 -0.72,1.44 0.24,0.6 0.84,0.84 1.44,0.6 z m 14.76,1.32 2.52,-0.48 h -0.6 l 4.08,1.32 c 0.6,0.12 1.2,-0.24 1.44,-0.72 0.12,-0.6 -0.12,-1.32 -0.72,-1.44 l -4.08,-1.32 c -0.12,-0.12 -0.36,-0.12 -0.6,0 l -2.52,0.48 c -0.6,0.12 -0.96,0.72 -0.84,1.32 0.12,0.6 0.72,0.96 1.32,0.84 z m 15.36,0.96 1.32,-0.24 h 5.28 c 0.6,0 1.08,-0.6 1.08,-1.2 0,-0.6 -0.48,-1.08 -1.08,-1.08 l -5.64,0.12 -1.32,0.12 c -0.6,0.12 -1.08,0.72 -0.96,1.32 0.12,0.6 0.72,1.08 1.32,0.96 z m 12.12,4.92 2.28,2.76 c 0.24,0.24 0.6,0.36 0.96,0.36 l 3.36,-0.36 c 0.6,-0.12 1.08,-0.72 0.96,-1.32 -0.12,-0.6 -0.6,-1.08 -1.2,-0.96 l -3.36,0.36 0.96,0.36 -2.16,-2.64 c -0.48,-0.48 -1.2,-0.48 -1.68,-0.12 -0.48,0.36 -0.48,1.08 -0.12,1.56 z m 15.24,3 2.04,0.36 c 0.12,0 0.36,0 0.6,-0.12 l 4.32,-1.92 c 0.6,-0.24 0.84,-0.96 0.6,-1.56 -0.24,-0.48 -0.84,-0.84 -1.44,-0.48 l -4.44,1.92 0.72,-0.12 -2.04,-0.24 c -0.6,-0.12 -1.2,0.24 -1.32,0.96 -0.12,0.6 0.36,1.2 0.96,1.2 z m 12.6,1.44 2.88,3.12 c 0.12,0.12 0.12,0.12 0.24,0.12 l 1.92,1.56 c 0.48,0.36 1.2,0.24 1.56,-0.36 0.36,-0.48 0.24,-1.2 -0.24,-1.56 l -1.92,-1.44 0.12,0.12 -3,-3.12 c -0.36,-0.48 -1.08,-0.48 -1.56,-0.12 -0.48,0.48 -0.48,1.2 0,1.68 z m 13.8,7.44 4.44,-1.68 -1.32,-0.36 1.2,1.56 c 0.48,0.48 1.2,0.6 1.68,0.24 0.48,-0.36 0.6,-1.08 0.24,-1.56 l -1.2,-1.68 c -0.36,-0.36 -0.84,-0.48 -1.32,-0.36 l -4.56,1.8 c -0.48,0.24 -0.84,0.84 -0.6,1.44 0.24,0.6 0.84,0.84 1.44,0.6 z m 9.84,6.84 0.36,0.48 c 0.24,0.36 0.6,0.48 1.08,0.48 L 451.8,339 c 0.6,-0.12 0.96,-0.6 0.96,-1.32 -0.12,-0.6 -0.72,-0.96 -1.32,-0.84 l -6.12,0.84 1.08,0.48 -0.36,-0.6 c -0.36,-0.48 -1.08,-0.6 -1.56,-0.12 -0.6,0.36 -0.6,1.08 -0.24,1.56 z m 15.48,-5.04 0.72,-0.48 c 0.12,-0.12 0.24,-0.12 0.24,-0.24 l 3.6,-4.8 c 0.36,-0.48 0.24,-1.2 -0.24,-1.56 -0.48,-0.36 -1.2,-0.36 -1.56,0.24 l -3.6,4.8 0.24,-0.24 -0.72,0.48 c -0.48,0.36 -0.6,1.08 -0.24,1.56 0.36,0.48 1.08,0.6 1.56,0.24 z m 9.24,-13.56 2.4,-6.36 c 0.12,-0.6 -0.12,-1.32 -0.72,-1.44 -0.6,-0.24 -1.2,0 -1.44,0.6 l -2.4,6.48 c -0.12,0.48 0.12,1.2 0.72,1.44 0.6,0.12 1.2,-0.12 1.44,-0.72 z m 5.52,-14.88 0.48,-1.56 c 0.24,-0.48 -0.12,-1.2 -0.72,-1.44 -0.6,-0.12 -1.2,0.12 -1.44,0.72 l -0.48,1.44 c -0.24,0.6 0.12,1.32 0.6,1.44 0.6,0.24 1.32,0 1.56,-0.6 z"
           style="fill:#376092;fill-opacity:1;fill-rule:nonzero;stroke:none"
           id="path2813"
           inkscape:connector-curvature="0" /></g></g><path
       d="m 111.36,309.12 2.16,6.48 c 0.24,0.6 0.84,0.84 1.44,0.6 0.6,-0.12 0.96,-0.84 0.72,-1.44 l -2.16,-6.36 c -0.24,-0.6 -0.84,-0.96 -1.44,-0.72 -0.6,0.24 -0.84,0.84 -0.72,1.44 z m 5.16,15 1.92,5.88 c 0.12,0.36 0.36,0.6 0.72,0.72 l 0.6,0.24 c 0.6,0.12 1.2,-0.12 1.44,-0.72 0.24,-0.6 -0.12,-1.2 -0.72,-1.44 l -0.6,-0.24 0.72,0.72 -1.92,-5.88 c -0.24,-0.6 -0.84,-0.84 -1.44,-0.72 -0.6,0.24 -0.96,0.84 -0.72,1.44 z m 12.6,8.04 5.16,-2.64 -1.32,-0.12 0.84,0.72 c 0.48,0.36 1.08,0.36 1.56,-0.12 0.36,-0.48 0.36,-1.2 -0.12,-1.68 l -0.84,-0.6 c -0.36,-0.36 -0.84,-0.36 -1.2,-0.12 l -5.16,2.64 c -0.6,0.24 -0.72,0.96 -0.48,1.44 0.24,0.6 0.96,0.84 1.56,0.48 z m 12.24,3.72 6.24,1.44 c 0.12,0 0.24,0 0.48,0 l 0.24,-0.12 c 0.72,0 1.08,-0.6 0.96,-1.2 0,-0.72 -0.6,-1.08 -1.2,-0.96 h -0.36 0.36 l -6.24,-1.44 c -0.6,-0.12 -1.2,0.36 -1.44,0.96 -0.12,0.6 0.24,1.2 0.96,1.32 z m 15.6,0.72 4.92,0.72 -0.48,-0.24 1.56,1.08 c 0.6,0.36 1.2,0.24 1.56,-0.36 0.36,-0.48 0.24,-1.2 -0.24,-1.56 l -1.68,-0.96 c -0.12,-0.12 -0.24,-0.24 -0.36,-0.24 l -4.92,-0.72 c -0.6,-0.12 -1.2,0.36 -1.32,0.96 0,0.6 0.36,1.2 0.96,1.32 z m 14.76,5.16 4.68,-0.48 -0.96,-0.36 1.2,1.56 c 0.48,0.48 1.2,0.6 1.68,0.12 0.48,-0.36 0.48,-1.08 0.12,-1.56 l -1.32,-1.56 c -0.24,-0.36 -0.6,-0.48 -0.96,-0.48 l -4.68,0.48 c -0.6,0.12 -1.08,0.6 -1.08,1.32 0.12,0.6 0.6,1.08 1.32,0.96 z m 10.68,7.8 v 0 c 0.24,0.36 0.72,0.48 1.08,0.48 l 6.72,-1.32 c 0.6,-0.12 0.96,-0.72 0.84,-1.32 -0.12,-0.6 -0.72,-0.96 -1.32,-0.84 l -6.6,1.2 1.08,0.36 v 0 c -0.48,-0.48 -1.2,-0.6 -1.68,-0.12 -0.48,0.36 -0.48,1.08 -0.12,1.56 z m 16.32,-2.04 5.76,0.96 -0.24,-0.12 0.84,0.36 c 0.6,0.24 1.32,-0.12 1.56,-0.6 0.24,-0.6 -0.12,-1.32 -0.72,-1.56 l -0.96,-0.36 c 0,0 -0.12,0 -0.24,0 l -5.64,-0.84 c -0.72,-0.12 -1.2,0.24 -1.32,0.84 -0.12,0.72 0.36,1.2 0.96,1.32 z m 13.2,5.28 3.36,5.88 c 0.36,0.48 1.08,0.72 1.56,0.36 0.6,-0.24 0.72,-0.96 0.48,-1.56 l -3.48,-5.88 c -0.24,-0.48 -0.96,-0.72 -1.44,-0.36 -0.6,0.24 -0.84,0.96 -0.48,1.56 z m 10.68,11.4 3.12,0.72 c 0.24,0 0.48,0 0.72,-0.24 l 3.24,-1.92 c 0.48,-0.36 0.72,-1.08 0.36,-1.56 -0.36,-0.48 -1.08,-0.72 -1.56,-0.36 l -3.24,1.92 0.84,-0.12 -3,-0.6 c -0.6,-0.12 -1.2,0.24 -1.32,0.84 -0.12,0.6 0.24,1.2 0.84,1.32 z m 13.8,-7.92 3.72,-5.64 c 0.36,-0.6 0.24,-1.2 -0.24,-1.56 -0.48,-0.36 -1.2,-0.24 -1.56,0.24 l -3.84,5.64 c -0.36,0.6 -0.24,1.32 0.36,1.68 0.48,0.24 1.2,0.12 1.56,-0.36 z m 4.56,0.12 1.92,6.48 c 0.12,0.6 0.72,0.96 1.32,0.84 0.6,-0.12 0.96,-0.84 0.84,-1.44 l -1.8,-6.48 c -0.24,-0.6 -0.84,-0.96 -1.44,-0.84 -0.6,0.24 -0.96,0.84 -0.84,1.44 z m 4.32,15.24 0.72,2.52 c 0.12,0.36 0.48,0.72 0.96,0.72 0.36,0.12 0.84,-0.12 1.08,-0.48 l 2.16,-3.72 c 0.36,-0.48 0.12,-1.2 -0.36,-1.56 -0.6,-0.24 -1.2,-0.12 -1.56,0.48 l -2.16,3.6 2.04,0.24 -0.72,-2.4 c -0.12,-0.6 -0.72,-0.96 -1.32,-0.72 -0.6,0.12 -0.96,0.72 -0.84,1.32 z m 9.6,-8.76 0.36,-0.6 -1.08,0.6 6.12,0.12 c 0.6,0 1.2,-0.6 1.2,-1.2 0,-0.6 -0.48,-1.08 -1.2,-1.08 l -6,-0.12 c -0.48,0 -0.84,0.12 -1.08,0.48 l -0.36,0.6 c -0.24,0.6 -0.12,1.32 0.48,1.56 0.48,0.36 1.2,0.24 1.56,-0.36 z m 9.36,6.6 3.12,5.64 c 0.24,0.24 0.48,0.48 0.84,0.48 0.36,0.12 0.72,0 0.96,-0.24 L 269.4,375 c 0.48,-0.48 0.48,-1.2 0,-1.56 -0.48,-0.48 -1.2,-0.48 -1.56,0 l -0.24,0.36 1.8,0.12 -3.24,-5.52 c -0.24,-0.6 -0.96,-0.72 -1.44,-0.48 -0.6,0.36 -0.84,1.08 -0.48,1.56 z m 11.52,-1.08 0.6,-0.6 -1.08,0.36 5.76,1.32 c 0.6,0.12 1.2,-0.24 1.32,-0.96 0.12,-0.6 -0.24,-1.2 -0.84,-1.32 l -5.76,-1.32 c -0.36,0 -0.84,0.12 -1.08,0.36 l -0.6,0.6 c -0.48,0.48 -0.48,1.2 0,1.68 0.48,0.36 1.2,0.36 1.68,-0.12 z m 14.28,-2.28 h 0.12 l -0.12,0.12 6.36,-1.92 c 0.6,-0.24 0.96,-0.84 0.72,-1.44 -0.12,-0.6 -0.84,-0.96 -1.44,-0.72 l -6.36,1.8 c 0,0.12 -0.12,0.12 -0.12,0.12 l -0.12,0.12 c -0.6,0.24 -0.84,0.84 -0.6,1.44 0.24,0.6 0.96,0.84 1.56,0.48 z m 14.88,-1.56 5.76,0.72 c 0.36,0 0.72,-0.12 0.96,-0.36 l 0.72,-0.72 c 0.48,-0.36 0.48,-1.08 0,-1.56 -0.48,-0.48 -1.2,-0.48 -1.56,0 l -0.72,0.72 0.84,-0.36 -5.76,-0.72 c -0.6,0 -1.08,0.36 -1.2,0.96 -0.12,0.72 0.36,1.2 0.96,1.32 z m 12.6,-6.48 6,3.36 c 0.48,0.24 1.2,0 1.44,-0.48 0.36,-0.6 0.12,-1.32 -0.36,-1.56 l -6,-3.24 c -0.6,-0.36 -1.32,-0.12 -1.56,0.48 -0.24,0.48 -0.12,1.2 0.48,1.44 z m 13.44,-2.52 2.04,-2.64 -1.56,0.24 2.64,2.16 c 0.48,0.48 1.2,0.36 1.56,-0.12 0.36,-0.48 0.36,-1.2 -0.12,-1.56 l -2.64,-2.28 c -0.24,-0.12 -0.6,-0.24 -0.84,-0.24 -0.36,0 -0.6,0.24 -0.84,0.48 l -2.04,2.52 c -0.36,0.48 -0.36,1.2 0.12,1.68 0.48,0.36 1.2,0.24 1.68,-0.24 z m 11.76,2.76 3.96,-1.32 -0.96,-0.12 2.28,1.32 c 0.48,0.36 1.2,0.24 1.56,-0.36 0.24,-0.48 0.12,-1.2 -0.36,-1.56 l -2.28,-1.32 c -0.36,-0.24 -0.72,-0.24 -0.96,-0.12 l -3.96,1.32 c -0.6,0.12 -0.96,0.84 -0.72,1.32 0.24,0.6 0.84,0.96 1.44,0.84 z m 13.56,4.08 3.96,1.32 c 0.12,0.12 0.24,0.12 0.36,0.12 h 2.64 c 0.6,0 1.08,-0.6 1.08,-1.2 0,-0.6 -0.48,-1.08 -1.08,-1.08 h -2.64 0.36 L 357,360.24 c -0.6,-0.12 -1.2,0.12 -1.44,0.72 -0.24,0.6 0.12,1.2 0.72,1.44 z m 16.08,-0.6 2.88,-1.32 h -0.72 l 3.6,0.72 c 0.6,0.24 1.2,-0.24 1.32,-0.84 0.12,-0.6 -0.24,-1.2 -0.96,-1.32 L 375,358.32 c -0.24,-0.12 -0.48,0 -0.72,0 l -2.88,1.32 c -0.6,0.36 -0.84,0.96 -0.6,1.56 0.24,0.6 0.96,0.84 1.56,0.6 z m 15,-2.04 1.92,-0.84 -1.32,-0.36 2.88,3.6 c 0.48,0.48 1.2,0.6 1.68,0.12 0.48,-0.36 0.48,-1.08 0.12,-1.56 l -2.88,-3.6 c -0.36,-0.36 -0.84,-0.48 -1.32,-0.36 l -2.04,0.84 c -0.6,0.24 -0.84,0.96 -0.6,1.56 0.24,0.6 0.96,0.84 1.56,0.6 z m 11.16,5.88 4.92,-4.8 c 0.36,-0.36 0.36,-1.08 0,-1.56 -0.48,-0.48 -1.2,-0.48 -1.68,0 l -4.8,4.68 c -0.48,0.48 -0.48,1.2 -0.12,1.68 0.48,0.36 1.2,0.36 1.68,0 z m 12.84,-2.64 6.24,-2.4 -1.32,-0.36 v 0 c 0.36,0.48 1.08,0.6 1.68,0.24 0.48,-0.36 0.6,-0.96 0.24,-1.56 h -0.12 c -0.24,-0.48 -0.84,-0.6 -1.32,-0.48 l -6.24,2.52 c -0.6,0.24 -0.84,0.84 -0.6,1.44 0.24,0.6 0.84,0.84 1.44,0.6 z m 10.2,4.68 1.8,2.52 c 0.12,0.24 0.36,0.36 0.48,0.36 l 3.36,1.56 c 0.48,0.24 1.2,0 1.44,-0.48 0.24,-0.6 0,-1.32 -0.48,-1.56 l -3.36,-1.56 0.48,0.36 -1.8,-2.52 c -0.36,-0.48 -1.08,-0.6 -1.68,-0.24 -0.48,0.36 -0.6,1.08 -0.24,1.56 z m 14.76,6.24 2.16,-0.12 4.68,0.12 c 0.6,0 1.08,-0.48 1.08,-1.08 0,-0.6 -0.48,-1.2 -1.08,-1.2 h -4.68 -2.16 c -0.6,0 -1.08,0.48 -1.08,1.08 0,0.72 0.48,1.2 1.08,1.2 z m 13.08,4.44 2.4,2.4 c 0.24,0.24 0.6,0.36 0.96,0.36 0.24,0 0.6,-0.12 0.72,-0.36 l 2.16,-2.64 c 0.36,-0.6 0.36,-1.2 -0.12,-1.68 -0.48,-0.36 -1.2,-0.24 -1.68,0.24 l -2.04,2.64 1.68,-0.12 -2.4,-2.4 c -0.48,-0.48 -1.2,-0.48 -1.68,0 -0.36,0.48 -0.36,1.2 0,1.56 z m 12,-7.44 4.08,-5.28 c 0.36,-0.6 0.36,-1.32 -0.12,-1.68 -0.6,-0.36 -1.2,-0.24 -1.68,0.24 l -4.08,5.4 c -0.48,0.48 -0.36,1.2 0.12,1.56 0.48,0.36 1.2,0.36 1.68,-0.24 z m 7.68,-14.04 1.44,-6.6 c 0.24,-0.6 -0.24,-1.2 -0.84,-1.32 -0.6,-0.12 -1.2,0.24 -1.32,0.84 l -1.44,6.6 c -0.12,0.6 0.24,1.32 0.84,1.44 0.6,0.12 1.2,-0.24 1.32,-0.96 z m 3.48,-15.48 1.44,-6.6 c 0.12,-0.6 -0.24,-1.2 -0.84,-1.32 -0.6,-0.24 -1.2,0.24 -1.32,0.84 l -1.56,6.6 c -0.12,0.6 0.24,1.2 0.96,1.32 0.6,0.24 1.2,-0.24 1.32,-0.84 z m 2.64,-7.2 3.36,5.88 c 0.36,0.48 1.08,0.72 1.56,0.36 0.6,-0.36 0.72,-0.96 0.48,-1.56 L 477.12,333 c -0.36,-0.48 -1.08,-0.72 -1.56,-0.36 -0.6,0.24 -0.72,0.96 -0.36,1.56 z"
       style="fill:#00b050;fill-opacity:1;fill-rule:nonzero;stroke:none"
       id="path2815"
       inkscape:connector-curvature="0" /><path
       d="m 111.36,342 1.44,6.72 c 0.12,0.6 0.72,0.96 1.32,0.84 0.6,-0.12 0.96,-0.72 0.84,-1.32 l -1.44,-6.6 c -0.12,-0.72 -0.72,-1.08 -1.32,-0.96 -0.6,0.12 -0.96,0.72 -0.84,1.32 z m 3.24,15.6 1.44,6.6 c 0.12,0.72 0.72,1.08 1.32,0.96 0.6,-0.12 0.96,-0.72 0.84,-1.32 l -1.32,-6.72 c -0.12,-0.6 -0.72,-0.96 -1.44,-0.84 -0.6,0.12 -0.96,0.72 -0.84,1.32 z m 3.24,15.48 0.6,2.64 c 0,0.24 0.24,0.48 0.36,0.72 l 3.24,2.52 c 0.48,0.36 1.2,0.36 1.68,-0.12 0.36,-0.48 0.24,-1.2 -0.24,-1.68 l -3.24,-2.52 0.36,0.6 -0.48,-2.52 c -0.12,-0.72 -0.72,-1.08 -1.32,-0.96 -0.6,0.12 -1.08,0.72 -0.96,1.32 z m 12.36,5.76 4.32,-5.04 -1.2,0.36 h 0.12 c 0.6,0.24 1.2,0 1.44,-0.6 0.24,-0.6 0,-1.2 -0.6,-1.44 L 134.16,372 c -0.48,-0.12 -0.96,0 -1.32,0.36 l -4.32,4.92 c -0.48,0.48 -0.36,1.2 0.12,1.68 0.48,0.36 1.2,0.36 1.56,-0.12 z m 12.48,-2.16 5.52,-1.68 -1.32,-0.6 0.48,0.96 c 0.24,0.6 0.96,0.84 1.56,0.48 0.48,-0.24 0.72,-0.96 0.48,-1.56 l -0.6,-0.84 c -0.24,-0.48 -0.72,-0.72 -1.32,-0.6 l -5.52,1.56 c -0.6,0.24 -0.84,0.84 -0.72,1.44 0.12,0.6 0.84,0.96 1.44,0.84 z m 8.88,6.72 2.4,4.56 c 0.12,0.36 0.36,0.48 0.72,0.6 l 1.44,0.48 c 0.6,0.24 1.32,-0.12 1.44,-0.72 0.24,-0.6 -0.12,-1.2 -0.72,-1.44 l -1.44,-0.48 0.6,0.6 -2.4,-4.68 c -0.36,-0.48 -0.96,-0.72 -1.56,-0.48 -0.6,0.36 -0.72,0.96 -0.48,1.56 z m 10.56,9.84 2.4,6.36 c 0.24,0.6 0.96,0.96 1.44,0.72 0.6,-0.24 0.96,-0.96 0.72,-1.56 l -2.4,-6.36 c -0.24,-0.48 -0.96,-0.84 -1.44,-0.6 -0.6,0.24 -0.96,0.84 -0.72,1.44 z m 5.64,14.88 0.36,0.84 c 0.12,0.36 0.48,0.6 0.84,0.72 0.36,0 0.72,-0.12 1.08,-0.36 l 3.96,-4.44 c 0.36,-0.48 0.36,-1.2 -0.12,-1.56 -0.48,-0.48 -1.2,-0.36 -1.56,0.12 l -3.96,4.32 1.8,0.36 -0.24,-0.84 c -0.24,-0.6 -0.96,-0.84 -1.44,-0.6 -0.6,0.24 -0.96,0.84 -0.72,1.44 z m 12.24,-4.8 2.88,1.08 3.48,1.32 c 0.6,0.24 1.2,-0.12 1.44,-0.6 0.24,-0.6 -0.12,-1.32 -0.6,-1.56 l -3.48,-1.32 -2.88,-1.08 c -0.6,-0.24 -1.32,0.12 -1.56,0.6 -0.24,0.6 0.12,1.32 0.72,1.56 z m 11.88,7.8 3.24,6 c 0.24,0.6 0.96,0.72 1.56,0.48 0.48,-0.36 0.72,-0.96 0.36,-1.56 l -3.12,-6 c -0.36,-0.6 -1.08,-0.72 -1.56,-0.48 -0.6,0.36 -0.84,0.96 -0.48,1.56 z m 9.84,3.36 3.6,-5.76 c 0.36,-0.6 0.24,-1.2 -0.24,-1.56 -0.6,-0.36 -1.32,-0.24 -1.68,0.36 l -3.6,5.76 c -0.36,0.48 -0.12,1.2 0.36,1.56 0.6,0.36 1.2,0.12 1.56,-0.36 z m 7.92,0.48 1.2,1.2 c 0.24,0.36 0.6,0.48 1.08,0.36 0.36,-0.12 0.72,-0.36 0.84,-0.72 l 1.44,-5.04 c 0.12,-0.6 -0.12,-1.2 -0.72,-1.32 -0.6,-0.24 -1.32,0.12 -1.44,0.72 l -1.56,4.92 1.92,-0.48 -1.08,-1.2 c -0.36,-0.36 -1.08,-0.48 -1.56,0 -0.48,0.36 -0.48,1.08 -0.12,1.56 z m 7.2,-12.84 1.92,-6.48 c 0.12,-0.6 -0.12,-1.32 -0.72,-1.44 -0.6,-0.24 -1.32,0.12 -1.44,0.72 l -1.92,6.48 c -0.24,0.6 0.12,1.32 0.72,1.44 0.6,0.24 1.2,-0.12 1.44,-0.72 z m 6.48,-7.68 2.16,0.84 4.32,1.44 c 0.6,0.24 1.2,-0.12 1.44,-0.72 0.12,-0.6 -0.12,-1.2 -0.72,-1.44 l -4.2,-1.32 -2.28,-0.84 c -0.6,-0.24 -1.2,0 -1.44,0.6 -0.24,0.6 0.12,1.32 0.72,1.44 z m 15.6,3.72 1.08,0.12 h -0.36 l 5.4,1.92 c 0.6,0.24 1.32,-0.12 1.56,-0.72 0.12,-0.6 -0.12,-1.2 -0.72,-1.44 l -5.4,-1.92 C 240.36,396 240.24,396 240.12,396 l -0.96,-0.12 c -0.72,0 -1.2,0.48 -1.32,1.08 0,0.6 0.48,1.2 1.08,1.2 z m 13.32,6.96 1.32,1.08 c 0.24,0.12 0.6,0.24 0.96,0.12 0.36,-0.12 0.6,-0.36 0.72,-0.72 l 1.8,-4.8 c 0.24,-0.6 -0.12,-1.2 -0.6,-1.44 -0.6,-0.24 -1.32,0.12 -1.56,0.72 l -1.68,4.8 1.68,-0.48 -1.32,-1.08 c -0.48,-0.36 -1.2,-0.24 -1.56,0.24 -0.36,0.48 -0.36,1.2 0.24,1.56 z m 7.92,-12.84 2.16,-5.64 -2.04,0.24 0.36,0.6 c 0.36,0.6 1.08,0.72 1.56,0.36 0.6,-0.36 0.72,-0.96 0.36,-1.56 l -0.36,-0.6 c -0.24,-0.36 -0.6,-0.6 -1.08,-0.6 -0.48,0.12 -0.84,0.36 -0.96,0.84 l -2.04,5.64 c -0.24,0.6 0,1.2 0.6,1.44 0.6,0.24 1.32,-0.12 1.44,-0.72 z m 5.28,2.88 1.92,3.12 c 0.24,0.24 0.6,0.48 0.96,0.48 0.36,0 0.72,-0.12 0.96,-0.36 l 1.92,-2.64 c 0.48,-0.48 0.36,-1.2 -0.12,-1.56 -0.48,-0.36 -1.2,-0.24 -1.56,0.24 l -2.04,2.52 1.8,0.12 -1.92,-3.12 c -0.24,-0.48 -0.96,-0.6 -1.56,-0.36 -0.48,0.36 -0.6,1.08 -0.36,1.56 z m 10.68,-5.4 6.24,0.72 0.36,0.12 c 0.6,0.12 1.2,-0.24 1.32,-0.84 0.24,-0.6 -0.12,-1.2 -0.84,-1.32 l -0.6,-0.12 -6.24,-0.84 c -0.6,0 -1.2,0.36 -1.2,1.08 -0.12,0.6 0.36,1.2 0.96,1.2 z m 15.96,0.72 5.16,-4.44 c 0.36,-0.48 0.48,-1.2 0,-1.68 -0.36,-0.48 -1.08,-0.48 -1.56,-0.12 l -5.16,4.56 c -0.36,0.36 -0.48,1.08 0,1.56 0.36,0.48 1.08,0.6 1.56,0.12 z m 8.28,2.52 2.52,3.96 c 0.24,0.36 0.6,0.48 1.08,0.48 L 306,397.2 c 0.72,0 1.08,-0.6 1.08,-1.2 -0.12,-0.6 -0.6,-1.08 -1.2,-0.96 l -2.16,0.12 1.08,0.6 -2.52,-3.96 c -0.36,-0.6 -0.96,-0.72 -1.56,-0.36 -0.48,0.24 -0.72,0.96 -0.36,1.56 z m 13.8,5.4 3.36,1.44 c 0.24,0.12 0.48,0.12 0.72,0.12 l 3.12,-0.84 c 0.6,-0.12 0.96,-0.84 0.72,-1.44 -0.12,-0.6 -0.72,-0.96 -1.32,-0.72 l -3.12,0.84 h 0.84 l -3.36,-1.44 c -0.6,-0.24 -1.32,0 -1.56,0.6 -0.24,0.48 0,1.2 0.6,1.44 z m 15,-4.32 3.84,-4.2 c 0,0 0.12,-0.12 0.12,-0.12 l 0.6,-1.08 c 0.36,-0.48 0.12,-1.2 -0.36,-1.56 -0.6,-0.24 -1.32,-0.12 -1.56,0.48 l -0.6,0.96 0.12,-0.12 -3.84,4.08 c -0.36,0.48 -0.36,1.2 0.12,1.68 0.48,0.36 1.2,0.36 1.56,-0.12 z m 9.12,-13.2 1.92,-3.36 h -1.92 l 1.68,2.52 c 0.24,0.48 0.96,0.6 1.56,0.36 0.48,-0.36 0.6,-1.08 0.24,-1.56 l -1.56,-2.52 c -0.24,-0.36 -0.6,-0.48 -0.96,-0.48 -0.36,0 -0.72,0.24 -0.96,0.48 l -1.92,3.36 c -0.36,0.6 -0.12,1.32 0.36,1.56 0.6,0.36 1.2,0.12 1.56,-0.36 z m 6.6,6.72 0.48,0.72 c 0.24,0.36 0.48,0.48 0.96,0.48 0.36,0 0.72,-0.12 0.84,-0.48 l 3.48,-4.8 c 0.36,-0.48 0.24,-1.2 -0.24,-1.56 -0.6,-0.36 -1.2,-0.24 -1.56,0.24 l -3.48,4.92 h 1.92 l -0.48,-0.72 c -0.36,-0.48 -1.08,-0.72 -1.56,-0.36 -0.6,0.36 -0.72,1.08 -0.36,1.56 z m 10.2,-7.68 4.92,3.12 c 0,0 0.12,0 0.24,0.12 l 0.96,0.24 c 0.6,0.24 1.2,-0.12 1.44,-0.72 0.12,-0.6 -0.24,-1.2 -0.84,-1.44 l -0.84,-0.24 0.24,0.12 -4.92,-3.12 c -0.6,-0.36 -1.32,-0.24 -1.56,0.36 -0.36,0.48 -0.24,1.2 0.36,1.56 z m 13.56,7.08 4.68,4.92 c 0.48,0.48 1.2,0.48 1.56,0 0.48,-0.48 0.48,-1.2 0.12,-1.56 l -4.68,-4.92 c -0.48,-0.48 -1.2,-0.48 -1.68,-0.12 -0.48,0.48 -0.48,1.2 0,1.68 z m 14.76,3.84 3.84,-5.52 c 0.36,-0.48 0.24,-1.2 -0.24,-1.56 -0.48,-0.36 -1.2,-0.24 -1.56,0.24 l -3.96,5.64 c -0.36,0.48 -0.24,1.2 0.36,1.56 0.48,0.36 1.2,0.24 1.56,-0.36 z m 6.84,-5.16 3.48,5.88 c 0.24,0.48 0.96,0.72 1.56,0.36 0.48,-0.24 0.72,-0.96 0.36,-1.56 l -3.48,-5.88 c -0.24,-0.48 -0.96,-0.72 -1.44,-0.36 -0.6,0.36 -0.72,0.96 -0.48,1.56 z m 9.84,12.6 2.16,2.04 c 0.36,0.24 0.84,0.36 1.32,0.12 l 3.48,-1.68 c 0.6,-0.24 0.84,-0.84 0.48,-1.44 -0.24,-0.6 -0.96,-0.84 -1.44,-0.6 l -3.48,1.68 1.2,0.24 -2.16,-2.04 c -0.48,-0.36 -1.2,-0.36 -1.68,0.12 -0.36,0.48 -0.36,1.2 0.12,1.56 z m 14.88,-4.32 2.88,-2.16 -1.56,-0.24 1.8,2.52 c 0.36,0.48 1.08,0.6 1.56,0.24 0.48,-0.36 0.6,-1.08 0.24,-1.56 l -1.8,-2.52 c -0.12,-0.24 -0.36,-0.48 -0.72,-0.48 -0.24,-0.12 -0.6,0 -0.84,0.24 l -3,2.16 c -0.48,0.36 -0.6,1.08 -0.24,1.56 0.36,0.48 1.08,0.6 1.68,0.24 z m 8.28,7.56 0.12,0.12 c 0.12,0.24 0.24,0.36 0.48,0.36 l 5.76,3.12 c 0.6,0.36 1.2,0.12 1.56,-0.48 0.24,-0.48 0,-1.2 -0.48,-1.56 l -5.76,-3 0.36,0.24 -0.12,-0.12 c -0.36,-0.48 -1.08,-0.6 -1.56,-0.24 -0.6,0.36 -0.72,1.08 -0.36,1.56 z m 12.96,9.24 1.56,1.44 c 0.24,0.12 0.6,0.24 0.84,0.24 0.36,0 0.72,-0.24 0.84,-0.48 l 2.52,-4.2 c 0.36,-0.48 0.12,-1.2 -0.36,-1.56 -0.6,-0.24 -1.2,-0.12 -1.56,0.36 l -2.52,4.2 1.68,-0.24 -1.44,-1.44 c -0.48,-0.36 -1.2,-0.36 -1.56,0.12 -0.48,0.48 -0.36,1.2 0,1.56 z m 9.12,-9.72 5.88,3.36 c 0.6,0.36 1.2,0.12 1.56,-0.36 0.36,-0.6 0.12,-1.32 -0.36,-1.56 l -6,-3.48 c -0.48,-0.24 -1.2,-0.12 -1.56,0.48 -0.24,0.48 -0.12,1.2 0.48,1.56 z m 12.72,-3.24 2.64,-3.84 -0.6,0.36 2.04,-0.48 c 0.6,-0.12 0.96,-0.84 0.72,-1.44 -0.12,-0.6 -0.72,-0.96 -1.32,-0.72 l -2.04,0.48 c -0.24,0.12 -0.48,0.24 -0.6,0.48 l -2.64,3.96 c -0.36,0.48 -0.24,1.2 0.24,1.56 0.6,0.36 1.2,0.24 1.56,-0.36 z m 10.44,-10.08 1.08,-6.72 c 0.12,-0.6 -0.36,-1.2 -0.96,-1.32 -0.6,-0.12 -1.2,0.36 -1.32,0.96 l -0.96,6.72 c -0.12,0.6 0.24,1.2 0.96,1.32 0.6,0.12 1.2,-0.36 1.2,-0.96 z M 471,372 l 1.08,-6.72 c 0.12,-0.6 -0.36,-1.2 -0.96,-1.32 -0.6,0 -1.2,0.36 -1.32,0.96 l -1.08,6.72 c -0.12,0.6 0.36,1.2 0.96,1.32 0.6,0.12 1.2,-0.36 1.32,-0.96 z m 2.52,-15.6 0.96,-6.72 c 0.12,-0.72 -0.24,-1.2 -0.84,-1.32 -0.72,-0.12 -1.2,0.24 -1.32,0.96 l -1.08,6.72 c -0.12,0.6 0.36,1.2 0.96,1.2 0.6,0.12 1.2,-0.24 1.32,-0.84 z"
       style="fill:#c00000;fill-opacity:1;fill-rule:nonzero;stroke:none"
       id="path2817"
       inkscape:connector-curvature="0" /><path
       d="m 111.36,341.4 1.08,6.72 c 0.12,0.6 0.72,1.08 1.32,0.96 0.6,-0.12 0.96,-0.72 0.96,-1.32 l -1.2,-6.72 c 0,-0.6 -0.6,-1.08 -1.2,-0.96 -0.72,0.12 -1.08,0.72 -0.96,1.32 z m 2.52,15.72 1.08,6.72 c 0.12,0.6 0.72,0.96 1.32,0.96 0.6,-0.12 1.08,-0.72 0.96,-1.32 l -1.08,-6.72 c -0.12,-0.6 -0.72,-1.08 -1.32,-0.96 -0.6,0.12 -1.08,0.72 -0.96,1.32 z m 2.52,15.6 1.2,6.72 c 0,0.6 0.6,1.08 1.2,0.96 0.72,-0.12 1.08,-0.72 0.96,-1.32 l -1.08,-6.72 c -0.12,-0.6 -0.72,-0.96 -1.32,-0.84 -0.6,0 -0.96,0.6 -0.96,1.2 z m 3.96,15.72 3.36,5.88 c 0.36,0.48 0.96,0.72 1.56,0.36 0.6,-0.24 0.72,-0.96 0.48,-1.56 l -3.48,-5.88 c -0.24,-0.48 -0.96,-0.72 -1.56,-0.36 -0.48,0.24 -0.72,0.96 -0.36,1.56 z m 10.32,12.24 2.52,1.32 c 0.36,0.24 0.84,0.24 1.2,-0.12 l 3,-2.52 c 0.48,-0.36 0.6,-1.08 0.12,-1.56 -0.36,-0.48 -1.08,-0.6 -1.56,-0.12 l -3,2.52 1.32,-0.12 -2.52,-1.44 c -0.6,-0.36 -1.32,-0.12 -1.56,0.48 -0.36,0.48 -0.12,1.2 0.48,1.56 z m 10.8,-1.92 3.12,6 c 0.36,0.6 0.96,0.84 1.56,0.48 0.6,-0.24 0.72,-0.96 0.48,-1.56 l -3.12,-6 c -0.24,-0.6 -0.96,-0.72 -1.56,-0.48 -0.48,0.24 -0.72,0.96 -0.48,1.56 z m 10.68,8.88 3.36,-1.68 c 0.24,-0.12 0.36,-0.24 0.48,-0.48 l 1.56,-2.64 c 0.24,-0.6 0.12,-1.2 -0.48,-1.56 -0.48,-0.36 -1.2,-0.12 -1.56,0.36 l -1.56,2.64 0.48,-0.36 -3.36,1.68 c -0.48,0.24 -0.72,0.96 -0.48,1.56 0.36,0.48 0.96,0.72 1.56,0.48 z m 9.96,-12.6 0.84,-1.56 -1.68,0.24 3.6,3.48 c 0.48,0.48 1.2,0.36 1.68,-0.12 0.36,-0.36 0.36,-1.08 -0.12,-1.56 l -3.6,-3.48 c -0.36,-0.24 -0.6,-0.24 -0.96,-0.24 -0.36,0 -0.72,0.24 -0.84,0.6 l -0.84,1.44 c -0.36,0.6 -0.24,1.2 0.36,1.56 0.48,0.36 1.2,0.12 1.56,-0.36 z m 9.96,7.92 3.6,2.52 -0.48,-0.6 0.72,2.4 c 0.24,0.6 0.84,0.84 1.44,0.72 0.6,-0.24 0.96,-0.84 0.72,-1.44 l -0.72,-2.4 c -0.12,-0.24 -0.24,-0.36 -0.48,-0.6 l -3.48,-2.4 c -0.48,-0.36 -1.2,-0.24 -1.56,0.24 -0.36,0.48 -0.24,1.2 0.24,1.56 z m 6.6,12.96 1.92,6.48 c 0.24,0.6 0.84,0.96 1.44,0.72 0.6,-0.12 0.96,-0.84 0.72,-1.44 l -1.92,-6.48 c -0.24,-0.6 -0.84,-0.84 -1.44,-0.72 -0.6,0.24 -0.96,0.84 -0.72,1.44 z m 7.2,8.28 2.88,-6.24 c 0.24,-0.48 0,-1.2 -0.6,-1.44 -0.6,-0.24 -1.2,0 -1.44,0.48 l -2.88,6.24 c -0.24,0.6 0,1.2 0.6,1.56 0.48,0.24 1.2,0 1.44,-0.6 z m 7.08,-13.68 4.68,-4.92 c 0.48,-0.48 0.48,-1.2 0,-1.56 -0.48,-0.48 -1.2,-0.48 -1.56,0 l -4.68,4.92 c -0.48,0.48 -0.48,1.2 0,1.56 0.48,0.48 1.2,0.48 1.56,0 z m 12,-9.12 6.6,-1.44 c 0.6,-0.24 0.96,-0.84 0.84,-1.44 -0.12,-0.6 -0.72,-0.96 -1.32,-0.84 l -6.6,1.44 c -0.6,0.24 -1.08,0.84 -0.96,1.44 0.24,0.6 0.84,0.96 1.44,0.84 z m 8.88,5.88 2.4,6.36 c 0.24,0.6 0.96,0.84 1.56,0.6 0.6,-0.24 0.84,-0.84 0.6,-1.44 l -2.52,-6.36 c -0.24,-0.6 -0.84,-0.84 -1.44,-0.6 -0.6,0.24 -0.84,0.84 -0.6,1.44 z m 10.32,9 2.04,-0.6 c 0.24,-0.12 0.48,-0.24 0.6,-0.48 l 2.52,-3.84 c 0.36,-0.6 0.24,-1.32 -0.36,-1.56 -0.48,-0.36 -1.2,-0.24 -1.56,0.24 l -2.4,3.96 0.6,-0.48 -2.16,0.6 c -0.6,0.24 -0.96,0.84 -0.72,1.44 0.12,0.6 0.84,0.96 1.44,0.72 z m 9.84,-11.76 6.36,-2.4 c 0.6,-0.24 0.84,-0.84 0.72,-1.44 -0.24,-0.6 -0.96,-0.96 -1.56,-0.72 l -6.36,2.4 c -0.6,0.24 -0.84,0.84 -0.6,1.44 0.24,0.6 0.84,0.96 1.44,0.72 z m 11.52,3.72 0.72,0.72 c 0.36,0.36 0.96,0.48 1.44,0.24 l 5.04,-2.88 c 0.48,-0.24 0.72,-0.96 0.36,-1.56 -0.24,-0.48 -0.96,-0.72 -1.56,-0.36 l -5.04,2.76 1.44,0.24 -0.72,-0.72 c -0.48,-0.48 -1.2,-0.48 -1.68,0 -0.36,0.36 -0.36,1.08 0,1.56 z m 14.88,-6.96 1.44,-0.96 -0.48,0.12 4.92,-0.72 c 0.6,-0.12 1.08,-0.72 0.96,-1.32 -0.12,-0.6 -0.72,-1.08 -1.32,-0.96 l -4.92,0.72 c -0.12,0.12 -0.24,0.12 -0.36,0.24 l -1.56,1.08 c -0.48,0.36 -0.72,1.08 -0.36,1.56 0.36,0.48 1.08,0.6 1.68,0.24 z m 13.8,0.72 0.84,0.36 -0.12,-0.12 4.92,3.24 c 0.48,0.24 1.2,0.12 1.56,-0.36 0.36,-0.48 0.12,-1.2 -0.36,-1.56 l -4.92,-3.24 c 0,0 -0.12,-0.12 -0.12,-0.12 l -0.96,-0.36 c -0.48,-0.24 -1.2,0 -1.44,0.6 -0.24,0.6 0,1.32 0.6,1.56 z m 14.16,7.08 0.96,0.36 c 0.48,0.24 1.08,0 1.32,-0.6 l 2.52,-5.16 c 0.24,-0.6 0,-1.2 -0.6,-1.56 -0.48,-0.24 -1.2,0 -1.44,0.6 l -2.52,5.16 1.44,-0.6 -0.96,-0.24 c -0.6,-0.24 -1.2,0 -1.44,0.6 -0.24,0.6 0.12,1.32 0.72,1.44 z m 8.64,-13.56 0.72,-1.56 -1.32,0.6 4.92,1.56 c 0.6,0.24 1.2,-0.12 1.44,-0.72 0.12,-0.6 -0.12,-1.2 -0.72,-1.44 L 297,392.4 c -0.48,-0.12 -1.08,0.12 -1.32,0.6 l -0.72,1.44 c -0.24,0.6 0,1.32 0.6,1.56 0.48,0.24 1.2,0 1.44,-0.48 z m 12.72,-3.48 1.92,-1.68 -1.32,0.12 3.72,2.04 c 0.6,0.24 1.32,0.12 1.56,-0.48 0.36,-0.6 0.12,-1.2 -0.48,-1.56 l -3.72,-1.92 c -0.48,-0.24 -0.96,-0.24 -1.32,0.12 l -1.92,1.68 c -0.48,0.36 -0.48,1.08 -0.12,1.56 0.48,0.48 1.2,0.6 1.68,0.12 z m 13.56,1.92 1.92,-0.12 c 0.12,0 0.24,0 0.24,-0.12 l 4.68,-1.44 c 0.6,-0.24 0.96,-0.84 0.72,-1.44 -0.12,-0.6 -0.84,-0.96 -1.44,-0.72 l -4.68,1.44 h 0.24 l -1.8,0.12 c -0.6,0.12 -1.08,0.6 -1.08,1.2 0.12,0.72 0.6,1.2 1.2,1.08 z m 13.44,-8.52 3.48,-5.4 -1.68,0.24 0.24,0.12 c 0.48,0.48 1.2,0.36 1.56,-0.12 0.48,-0.48 0.36,-1.2 -0.12,-1.56 l -0.24,-0.24 c -0.24,-0.12 -0.48,-0.24 -0.84,-0.24 -0.36,0 -0.6,0.24 -0.84,0.48 l -3.48,5.52 c -0.36,0.48 -0.24,1.2 0.36,1.56 0.48,0.36 1.2,0.12 1.56,-0.36 z m 9.24,1.2 6.36,2.4 c 0.6,0.12 1.2,-0.12 1.44,-0.72 0.24,-0.6 -0.12,-1.2 -0.72,-1.44 l -6.36,-2.4 c -0.6,-0.24 -1.2,0.12 -1.44,0.72 -0.24,0.6 0.12,1.2 0.72,1.44 z m 13.68,7.2 0.24,0.24 -0.12,-0.12 4.68,4.44 c 0.48,0.48 1.2,0.36 1.56,0 0.48,-0.48 0.48,-1.2 0,-1.68 l -4.68,-4.32 c 0,-0.12 -0.12,-0.12 -0.12,-0.12 l -0.36,-0.24 c -0.48,-0.36 -1.2,-0.24 -1.56,0.24 -0.36,0.48 -0.24,1.2 0.36,1.56 z m 12.36,9.84 2.16,1.2 c 0.48,0.24 0.96,0.24 1.32,-0.12 l 3.12,-3.12 c 0.48,-0.48 0.48,-1.2 0,-1.68 -0.48,-0.36 -1.2,-0.36 -1.68,0 l -3,3.12 1.32,-0.12 -2.04,-1.2 c -0.6,-0.36 -1.2,-0.12 -1.56,0.36 -0.36,0.6 -0.12,1.32 0.36,1.56 z m 10.68,-3.36 3.6,5.76 c 0.36,0.48 1.08,0.6 1.56,0.36 0.48,-0.36 0.72,-1.08 0.36,-1.56 l -3.72,-5.76 c -0.24,-0.6 -0.96,-0.72 -1.56,-0.36 -0.48,0.36 -0.6,0.96 -0.24,1.56 z m 11.64,5.04 2.28,-1.68 -1.44,-0.12 3.12,2.64 c 0.48,0.36 1.2,0.24 1.56,-0.24 0.36,-0.48 0.36,-1.2 -0.12,-1.56 l -3.12,-2.52 c -0.36,-0.36 -0.96,-0.36 -1.44,-0.12 l -2.16,1.8 c -0.48,0.36 -0.6,1.08 -0.24,1.56 0.36,0.48 1.08,0.6 1.56,0.24 z m 12.48,4.32 h 3.36 -0.12 l 3.36,0.48 c 0.6,0 1.2,-0.36 1.32,-0.96 0.12,-0.72 -0.36,-1.2 -0.96,-1.32 l -3.48,-0.48 c 0,0 -0.12,0 -0.12,0 h -3.36 c -0.6,0.12 -1.08,0.6 -1.08,1.2 0,0.6 0.48,1.08 1.08,1.08 z m 12,5.16 3.36,5.88 c 0.24,0.6 0.96,0.84 1.44,0.48 0.6,-0.24 0.84,-0.96 0.48,-1.56 l -3.24,-5.88 c -0.36,-0.6 -1.08,-0.84 -1.56,-0.48 -0.6,0.24 -0.72,0.96 -0.48,1.56 z m 9.48,2.28 3.12,-6 c 0.24,-0.6 0,-1.32 -0.48,-1.56 -0.6,-0.36 -1.32,-0.12 -1.56,0.48 l -3.12,6.12 c -0.24,0.48 0,1.2 0.6,1.44 0.48,0.36 1.2,0.12 1.44,-0.48 z m 6,-2.04 3.24,4.8 c 0.24,0.36 0.6,0.48 0.96,0.6 0.36,0 0.6,-0.12 0.84,-0.48 l 0.6,-0.72 c 0.48,-0.48 0.36,-1.2 -0.12,-1.56 -0.48,-0.36 -1.2,-0.36 -1.56,0.12 l -0.6,0.72 1.8,0.12 -3.24,-4.92 c -0.36,-0.48 -1.08,-0.6 -1.56,-0.24 -0.6,0.36 -0.72,0.96 -0.36,1.56 z m 11.52,-2.76 0.6,-0.6 -1.56,0.12 4.68,3.6 c 0.48,0.36 1.2,0.36 1.56,-0.12 0.36,-0.48 0.24,-1.2 -0.24,-1.68 l -4.68,-3.6 c -0.48,-0.36 -1.08,-0.24 -1.56,0.12 l -0.6,0.72 c -0.36,0.48 -0.24,1.2 0.24,1.68 0.48,0.36 1.2,0.24 1.56,-0.24 z m 12.24,6.96 1.44,0.36 c 0.36,0.12 0.72,0 0.96,-0.12 l 4.2,-3.24 c 0.6,-0.36 0.6,-1.08 0.24,-1.56 -0.36,-0.48 -1.08,-0.6 -1.56,-0.24 l -4.2,3.24 0.96,-0.24 -1.44,-0.36 c -0.6,-0.24 -1.2,0.12 -1.44,0.72 -0.12,0.6 0.24,1.2 0.84,1.44 z m 10.68,-11.4 1.08,-6.72 c 0,-0.6 -0.36,-1.2 -0.96,-1.32 -0.6,0 -1.2,0.36 -1.32,0.96 l -0.96,6.72 c -0.12,0.72 0.24,1.2 0.96,1.32 0.6,0.12 1.08,-0.36 1.2,-0.96 z m 2.4,-15.72 0.96,-6.72 c 0.12,-0.6 -0.24,-1.2 -0.84,-1.2 -0.72,-0.12 -1.2,0.24 -1.32,0.84 l -1.08,6.84 c 0,0.6 0.36,1.2 0.96,1.2 0.6,0.12 1.2,-0.24 1.32,-0.96 z m 2.4,-15.6 0.96,-6.84 c 0.12,-0.6 -0.36,-1.2 -0.96,-1.2 -0.6,-0.12 -1.2,0.24 -1.32,0.96 l -0.96,6.72 c -0.12,0.6 0.36,1.2 0.96,1.2 0.6,0.12 1.2,-0.24 1.32,-0.84 z"
       style="fill:#e46c0a;fill-opacity:1;fill-rule:nonzero;stroke:none"
       id="path2819"
       inkscape:connector-curvature="0" /><path
       d="m 111,355.68 7.08,45.36 c 0,0.12 0,0.12 0,0.24 l 7.2,20.4 c 0.24,0.72 0.84,1.08 1.56,1.08 l 6.96,-0.6 7.32,-1.32 -1.56,-0.72 6.96,11.64 c 0.36,0.6 0.84,0.84 1.44,0.84 0.6,-0.12 1.08,-0.48 1.32,-0.96 l 7.08,-18.48 -2.28,0.72 6.96,5.28 -0.48,-0.72 7.2,23.52 c 0.12,0.6 0.48,0.96 1.08,1.08 0.48,0.12 1.08,0 1.44,-0.48 l 7.08,-7.8 -1.68,0.36 6.96,3.24 -0.48,-0.48 7.08,9.12 c 0.36,0.48 0.96,0.6 1.56,0.48 0.48,-0.12 0.96,-0.48 1.08,-1.08 l 7.08,-26.64 -2.04,1.08 7.08,2.76 -0.84,-0.96 6.96,26.88 c 0.24,0.72 0.72,1.08 1.44,1.2 l 7.08,0.48 -0.6,-0.24 7.2,3.6 c 0.24,0.24 0.6,0.24 0.96,0.24 l 6.96,-1.2 c 0.6,-0.12 1.08,-0.6 1.2,-1.2 l 7.2,-34.08 h -3 l 7.08,33 c 0.12,0.6 0.6,1.08 1.2,1.2 0.72,0 1.32,-0.24 1.56,-0.84 l 7.2,-14.64 -0.48,0.6 6.96,-5.04 -0.36,0.24 7.2,-2.64 -1.92,-0.72 7.2,13.32 c 0.24,0.36 0.6,0.72 1.08,0.72 0.48,0.12 0.96,-0.12 1.32,-0.48 l 6.96,-7.32 -1.56,0.36 7.08,2.76 c 0.72,0.24 1.32,0.12 1.8,-0.48 l 6.96,-9.24 c 0.24,-0.12 0.24,-0.36 0.36,-0.6 l 7.08,-38.4 -3,0.12 7.08,35.16 c 0.12,0.48 0.36,0.84 0.84,1.08 0.48,0.24 0.96,0.24 1.32,0 l 7.2,-3.96 c 0.12,0 0.24,-0.12 0.36,-0.24 l 7.08,-6.84 -0.96,0.36 7.08,-0.6 c 0.48,0 0.84,-0.24 1.08,-0.72 l 7.2,-11.28 6.96,-9 -2.64,-0.36 7.08,18.84 c 0.24,0.48 0.72,0.84 1.2,0.96 l 7.08,1.32 c 0.6,0.12 1.08,0 1.44,-0.36 l 6.96,-7.2 -1.8,0.24 7.08,4.32 -0.6,-0.84 6.96,22.44 c 0.24,0.48 0.6,0.96 1.2,1.08 0.6,0 1.08,-0.24 1.44,-0.6 l 7.2,-9.48 -0.48,0.36 7.08,-4.2 h -1.68 l 7.2,4.44 7.2,3.72 6.96,4.2 c 0.72,0.36 1.56,0.24 2.04,-0.48 l 7.08,-9.96 -2.16,0.24 7.08,5.64 -0.48,-0.72 7.08,19.2 c 0.24,0.6 0.72,0.96 1.32,1.08 0.6,0 1.2,-0.36 1.44,-0.84 l 7.08,-12.96 -2.4,0.36 7.2,6.6 7.2,5.88 c 0.24,0.24 0.72,0.36 1.2,0.24 0.48,0 0.84,-0.36 1.08,-0.72 l 6.96,-13.08 c 0.12,-0.12 0.12,-0.24 0.12,-0.36 l 7.2,-33.84 6.96,-26.88 c 0.24,-0.84 -0.24,-1.68 -1.08,-1.8 -0.72,-0.24 -1.56,0.24 -1.8,1.08 l -7.08,27 -7.08,33.72 0.12,-0.36 -7.08,13.08 2.28,-0.48 -6.96,-5.76 -7.2,-6.48 c -0.36,-0.36 -0.84,-0.48 -1.32,-0.36 -0.36,0 -0.84,0.36 -1.08,0.72 l -6.96,12.96 2.76,0.24 -7.2,-19.32 c 0,-0.24 -0.24,-0.48 -0.48,-0.6 l -6.96,-5.64 c -0.36,-0.24 -0.72,-0.36 -1.2,-0.24 -0.36,0 -0.72,0.24 -0.96,0.6 l -7.2,10.08 2.04,-0.48 -7.08,-4.32 -7.08,-3.48 -7.08,-4.56 c -0.48,-0.24 -1.08,-0.24 -1.56,0 l -7.08,4.32 c -0.12,0 -0.24,0.24 -0.36,0.36 l -7.2,9.36 2.64,0.48 -6.96,-22.32 c -0.12,-0.36 -0.36,-0.72 -0.72,-0.84 l -7.08,-4.32 c -0.6,-0.48 -1.44,-0.36 -1.92,0.12 l -6.96,7.2 1.32,-0.48 -7.08,-1.32 1.08,0.96 -7.08,-18.84 c -0.24,-0.48 -0.72,-0.84 -1.2,-0.96 -0.6,-0.12 -1.08,0.12 -1.44,0.6 l -7.08,9.12 -7.2,11.4 1.2,-0.72 -7.08,0.6 c -0.36,0.12 -0.6,0.24 -0.84,0.48 l -7.2,6.84 0.36,-0.24 -7.2,3.84 2.28,1.08 -7.08,-35.16 c -0.12,-0.72 -0.72,-1.32 -1.44,-1.2 -0.72,0 -1.32,0.48 -1.56,1.2 l -7.08,38.28 0.24,-0.6 -6.96,9.24 1.68,-0.48 -7.08,-2.88 c -0.6,-0.12 -1.2,0 -1.68,0.48 l -6.96,7.32 2.4,0.36 -7.2,-13.32 c -0.24,-0.72 -1.08,-0.96 -1.8,-0.72 l -7.2,2.64 c -0.12,0.12 -0.12,0.12 -0.24,0.24 l -7.08,4.92 c -0.24,0.12 -0.36,0.36 -0.48,0.6 l -7.08,14.64 2.76,0.36 -6.96,-33.12 c -0.12,-0.6 -0.84,-1.2 -1.56,-1.2 -0.72,0 -1.32,0.6 -1.44,1.2 l -7.08,34.2 1.2,-1.2 -7.08,1.2 0.96,0.12 -7.08,-3.6 c -0.24,-0.12 -0.36,-0.12 -0.6,-0.12 l -7.2,-0.48 1.44,1.08 -7.08,-27 c -0.12,-0.48 -0.48,-0.84 -0.84,-0.96 l -7.2,-2.88 c -0.36,-0.12 -0.84,-0.12 -1.2,0.12 -0.36,0.24 -0.72,0.48 -0.84,0.96 l -6.96,26.64 2.64,-0.6 -7.2,-9 c -0.12,-0.24 -0.24,-0.36 -0.48,-0.48 l -7.08,-3.24 c -0.6,-0.36 -1.32,-0.12 -1.68,0.36 l -7.2,7.8 2.64,0.6 -7.2,-23.64 c -0.12,-0.24 -0.24,-0.48 -0.48,-0.72 l -7.08,-5.28 c -0.36,-0.36 -0.84,-0.48 -1.32,-0.24 -0.48,0.12 -0.84,0.36 -0.96,0.84 l -7.2,18.36 2.76,-0.24 -7.08,-11.64 c -0.24,-0.6 -0.84,-0.84 -1.56,-0.72 l -6.96,1.32 -6.96,0.6 1.56,0.96 -7.2,-20.4 0.12,0.24 -7.08,-45.24 c -0.12,-0.84 -0.96,-1.44 -1.8,-1.32 -0.84,0.12 -1.32,0.96 -1.2,1.68 z"
       style="fill:#0070c0;fill-opacity:1;fill-rule:nonzero;stroke:none"
       id="path2821"
       inkscape:connector-curvature="0" /><path
       d="m 111,395.64 7.08,32.64 c 0.12,0.48 0.36,0.84 0.72,1.08 l 7.2,3.72 c 0.36,0.24 0.84,0.24 1.2,0.12 0.36,-0.12 0.72,-0.48 0.84,-0.84 l 7.08,-17.76 -0.72,0.84 7.2,-3.96 -2.16,-0.84 6.96,17.76 c 0.24,0.48 0.48,0.72 0.84,0.84 0.48,0.24 0.84,0.24 1.2,0 l 7.2,-3.12 -0.6,0.12 6.96,-0.12 -1.44,-0.96 7.2,17.16 c 0.24,0.6 1.08,1.08 1.8,0.84 l 7.08,-1.92 h -0.48 l 6.96,0.6 -1.08,-0.72 7.08,12.6 c 0.36,0.48 0.96,0.84 1.56,0.72 l 6.96,-0.84 c 0.48,-0.12 0.84,-0.36 1.08,-0.72 l 7.2,-12.36 -1.32,0.72 6.96,0.24 c 0.12,0 0.36,0 0.48,0 l 7.08,-1.92 -1.08,-0.12 7.2,3.48 c 0.6,0.24 1.32,0.12 1.8,-0.36 l 6.96,-7.32 -2.52,-0.6 7.08,24.6 c 0.24,0.72 0.84,1.08 1.44,1.08 0.72,0.12 1.32,-0.36 1.44,-0.96 l 7.08,-20.4 -2.52,0.48 7.08,7.8 c 0.36,0.48 0.84,0.6 1.32,0.48 0.48,0 0.96,-0.36 1.2,-0.72 l 6.96,-14.28 -2.64,0.12 7.2,10.92 c 0.36,0.48 0.96,0.72 1.56,0.6 l 7.2,-1.68 c 0.36,-0.12 0.72,-0.36 0.96,-0.84 l 7.08,-13.32 -1.2,0.72 7.2,-0.96 c 0.36,0 0.84,-0.24 1.08,-0.72 l 6.96,-11.04 -2.64,-0.24 7.08,14.76 c 0.24,0.48 0.6,0.72 0.96,0.84 l 7.08,2.04 7.08,2.28 c 0.6,0.24 1.32,0 1.68,-0.6 l 7.2,-10.56 -0.24,0.12 7.08,-6.96 -0.24,0.12 7.08,-4.8 -1.92,-0.24 6.96,8.04 c 0.6,0.72 1.44,0.72 2.16,0.24 l 7.08,-5.76 -2.04,-0.24 7.08,8.28 c 0.12,0 0.24,0.12 0.36,0.24 l 6.96,4.68 7.2,4.2 c 0.36,0.12 0.72,0.24 0.96,0.12 l 7.08,-0.96 c 0.48,0 0.84,-0.24 1.08,-0.6 l 7.08,-11.16 -2.64,-0.24 6.96,17.76 c 0.12,0.12 0.24,0.36 0.36,0.48 l 7.08,7.68 -0.12,-0.36 7.08,12.72 c 0.24,0.48 0.72,0.72 1.2,0.72 0.48,0.12 0.96,-0.12 1.32,-0.48 l 6.96,-8.16 -1.92,0.36 7.2,4.32 -0.48,-0.24 7.08,8.28 c 0.36,0.36 0.72,0.6 1.32,0.6 0.48,-0.12 0.84,-0.36 1.08,-0.72 l 7.2,-11.88 -2.76,-0.48 6.96,29.76 c 0.24,0.72 0.84,1.2 1.56,1.2 0.72,-0.12 1.32,-0.6 1.44,-1.32 l 7.08,-38.88 -0.48,0.96 7.08,-5.76 c 0.24,-0.12 0.36,-0.36 0.48,-0.6 l 7.08,-18.48 c 0,0 0,-0.12 0,-0.24 l 7.2,-36.72 h -3 l 7.08,27.72 c 0.24,0.84 1.08,1.32 1.8,1.2 0.84,-0.24 1.32,-1.08 1.08,-1.92 l -6.96,-27.72 c -0.24,-0.6 -0.84,-1.08 -1.56,-1.08 -0.72,0 -1.32,0.48 -1.44,1.2 l -7.08,36.84 v -0.24 l -6.96,18.36 0.48,-0.72 -7.2,5.76 c -0.24,0.24 -0.48,0.48 -0.48,0.84 l -7.2,39 3,-0.12 -7.08,-29.76 c -0.12,-0.6 -0.6,-0.96 -1.2,-1.08 -0.6,-0.12 -1.2,0.12 -1.56,0.72 l -7.08,11.88 2.4,-0.24 -6.96,-8.4 c -0.12,-0.12 -0.24,-0.24 -0.36,-0.24 l -7.2,-4.44 c -0.6,-0.36 -1.44,-0.24 -1.92,0.36 l -6.96,8.16 2.4,0.24 -7.08,-12.72 c -0.12,-0.12 -0.12,-0.24 -0.24,-0.36 l -7.2,-7.56 0.36,0.48 -7.08,-17.76 c -0.12,-0.6 -0.6,-0.96 -1.2,-0.96 -0.6,-0.12 -1.08,0.12 -1.44,0.6 l -7.08,11.16 0.96,-0.72 -6.96,1.08 0.96,0.12 -7.08,-4.08 -6.96,-4.68 0.24,0.24 -7.08,-8.16 c -0.6,-0.72 -1.44,-0.72 -2.16,-0.24 l -7.08,5.76 2.04,0.24 -6.96,-8.16 c -0.48,-0.48 -1.44,-0.6 -2.04,-0.24 l -7.08,4.92 c -0.12,0 -0.24,0.12 -0.24,0.12 l -7.08,7.08 c 0,0 -0.12,0.12 -0.12,0.12 l -7.2,10.68 1.8,-0.6 -7.2,-2.28 -7.08,-2.04 0.96,0.72 -7.08,-14.76 c -0.24,-0.48 -0.72,-0.72 -1.32,-0.84 -0.6,0 -1.08,0.24 -1.32,0.72 l -7.08,11.16 1.08,-0.72 -7.08,0.96 c -0.48,0.12 -0.96,0.36 -1.2,0.84 l -6.96,13.44 0.96,-0.84 -7.2,1.8 1.68,0.6 -7.2,-10.92 c -0.24,-0.48 -0.72,-0.72 -1.32,-0.72 -0.48,0.12 -0.96,0.36 -1.2,0.84 l -7.08,14.28 2.52,-0.24 -7.2,-7.92 c -0.36,-0.36 -0.84,-0.6 -1.44,-0.48 -0.48,0.12 -0.96,0.48 -1.08,0.96 l -6.96,20.52 h 2.88 l -7.2,-24.6 c -0.12,-0.6 -0.6,-0.96 -1.08,-1.08 -0.48,-0.12 -1.08,0 -1.44,0.36 l -7.08,7.44 1.8,-0.36 -7.08,-3.48 c -0.36,-0.12 -0.72,-0.24 -1.08,-0.12 l -7.2,1.92 h 0.48 l -7.08,-0.24 c -0.48,0 -1.08,0.24 -1.32,0.72 l -7.08,12.36 1.08,-0.72 -6.96,0.84 1.44,0.72 -7.08,-12.6 c -0.36,-0.36 -0.72,-0.72 -1.2,-0.72 l -7.08,-0.6 c -0.12,0 -0.36,0 -0.48,0 l -7.2,2.04 1.8,0.84 -7.08,-17.04 c -0.24,-0.6 -0.84,-0.96 -1.44,-0.96 l -7.08,0.12 c -0.12,0 -0.36,0 -0.48,0.12 l -7.2,3.12 2.04,0.84 -7.08,-17.76 c -0.12,-0.36 -0.48,-0.72 -0.84,-0.84 -0.48,-0.24 -0.84,-0.12 -1.32,0.12 l -7.08,3.96 c -0.36,0.12 -0.48,0.36 -0.72,0.72 l -6.96,17.64 2.16,-0.72 -7.2,-3.72 0.84,0.96 -7.2,-32.64 c -0.12,-0.84 -0.96,-1.32 -1.8,-1.2 -0.72,0.24 -1.32,0.96 -1.08,1.8 z"
       style="fill:#ff0000;fill-opacity:1;fill-rule:nonzero;stroke:none"
       id="path2823"
       inkscape:connector-curvature="0" /><path
       d="m 113.16,444.6 7.08,3.36 c 0.84,0.36 1.2,1.32 0.84,2.16 -0.48,0.84 -1.44,1.08 -2.16,0.72 l -7.2,-3.24 c -0.72,-0.36 -1.08,-1.32 -0.72,-2.16 0.36,-0.84 1.32,-1.2 2.16,-0.84 z"
       style="fill:#00b050;fill-opacity:1;fill-rule:nonzero;stroke:none"
       id="path2825"
       inkscape:connector-curvature="0" /><text
       transform="matrix(1,0,0,-1,94.444372,276.85538)"
       style="font-variant:normal;font-weight:normal;font-size:10.04300022px;font-family:Calibri;-inkscape-font-specification:Calibri;writing-mode:lr-tb;fill:#000000;fill-opacity:1;fill-rule:nonzero;stroke:none"
       id="text2829"><tspan
         x="0"
         y="0"
         id="tspan2827">0</tspan></text>
<text
       transform="matrix(1,0,0,-1,84.240684,303.60993)"
       style="font-variant:normal;font-weight:normal;font-size:10.04300022px;font-family:Calibri;-inkscape-font-specification:Calibri;writing-mode:lr-tb;fill:#000000;fill-opacity:1;fill-rule:nonzero;stroke:none"
       id="text2833"><tspan
         x="0 5.1602139 10.320428"
         y="0"
         sodipodi:role="line"
         id="tspan2831">500</tspan></text>
<text
       transform="matrix(1,0,0,-1,79.199098,330.49504)"
       style="font-variant:normal;font-weight:normal;font-size:10.04300022px;font-family:Calibri;-inkscape-font-specification:Calibri;writing-mode:lr-tb;fill:#000000;fill-opacity:1;fill-rule:nonzero;stroke:none"
       id="text2837"><tspan
         x="0 5.0918012 10.183602 15.360628"
         y="0"
         sodipodi:role="line"
         id="tspan2835">1000</tspan></text>
<text
       transform="matrix(1,0,0,-1,79.199098,357.25964)"
       style="font-variant:normal;font-weight:normal;font-size:10.04300022px;font-family:Calibri;-inkscape-font-specification:Calibri;writing-mode:lr-tb;fill:#000000;fill-opacity:1;fill-rule:nonzero;stroke:none"
       id="text2841"><tspan
         x="0 5.0918012 10.183602 15.360628"
         y="0"
         sodipodi:role="line"
         id="tspan2839">1500</tspan></text>
<text
       transform="matrix(1,0,0,-1,79.199098,384.13471)"
       style="font-variant:normal;font-weight:normal;font-size:10.04300022px;font-family:Calibri;-inkscape-font-specification:Calibri;writing-mode:lr-tb;fill:#000000;fill-opacity:1;fill-rule:nonzero;stroke:none"
       id="text2845"><tspan
         x="0 5.0918012 10.183602 15.360628"
         y="0"
         sodipodi:role="line"
         id="tspan2843">2000</tspan></text>
<text
       transform="matrix(1,0,0,-1,79.199098,410.8993)"
       style="font-variant:normal;font-weight:normal;font-size:10.04300022px;font-family:Calibri;-inkscape-font-specification:Calibri;writing-mode:lr-tb;fill:#000000;fill-opacity:1;fill-rule:nonzero;stroke:none"
       id="text2849"><tspan
         x="0 5.0918012 10.183602 15.360628"
         y="0"
         sodipodi:role="line"
         id="tspan2847">2500</tspan></text>
<text
       transform="matrix(1,0,0,-1,79.199098,437.65385)"
       style="font-variant:normal;font-weight:normal;font-size:10.04300022px;font-family:Calibri;-inkscape-font-specification:Calibri;writing-mode:lr-tb;fill:#000000;fill-opacity:1;fill-rule:nonzero;stroke:none"
       id="text2853"><tspan
         x="0 5.0918012 10.183602 15.360628"
         y="0"
         sodipodi:role="line"
         id="tspan2851">3000</tspan></text>
<text
       transform="matrix(1,0,0,-1,79.199098,464.53897)"
       style="font-variant:normal;font-weight:normal;font-size:10.04300022px;font-family:Calibri;-inkscape-font-specification:Calibri;writing-mode:lr-tb;fill:#000000;fill-opacity:1;fill-rule:nonzero;stroke:none"
       id="text2857"><tspan
         x="0 5.0918012 10.183602 15.360628"
         y="0"
         sodipodi:role="line"
         id="tspan2855">3500</tspan></text>
<text
       transform="matrix(1,0,0,-1,79.199098,491.30356)"
       style="font-variant:normal;font-weight:normal;font-size:10.04300022px;font-family:Calibri;-inkscape-font-specification:Calibri;writing-mode:lr-tb;fill:#000000;fill-opacity:1;fill-rule:nonzero;stroke:none"
       id="text2861"><tspan
         x="0 5.0918012 10.183602 15.360628"
         y="0"
         sodipodi:role="line"
         id="tspan2859">4000</tspan></text>
<text
       transform="matrix(1,0,0,-1,109.92063,263.76935)"
       style="font-variant:normal;font-weight:normal;font-size:10.04300022px;font-family:Calibri;-inkscape-font-specification:Calibri;writing-mode:lr-tb;fill:#000000;fill-opacity:1;fill-rule:nonzero;stroke:none"
       id="text2865"><tspan
         x="0"
         y="0"
         id="tspan2863">0</tspan></text>
<text
       transform="matrix(1,0,0,-1,138.24189,263.76935)"
       style="font-variant:normal;font-weight:normal;font-size:10.04300022px;font-family:Calibri;-inkscape-font-specification:Calibri;writing-mode:lr-tb;fill:#000000;fill-opacity:1;fill-rule:nonzero;stroke:none"
       id="text2869"><tspan
         x="0"
         y="0"
         id="tspan2867">4</tspan></text>
<text
       transform="matrix(1,0,0,-1,166.68367,263.76935)"
       style="font-variant:normal;font-weight:normal;font-size:10.04300022px;font-family:Calibri;-inkscape-font-specification:Calibri;writing-mode:lr-tb;fill:#000000;fill-opacity:1;fill-rule:nonzero;stroke:none"
       id="text2873"><tspan
         x="0"
         y="0"
         id="tspan2871">8</tspan></text>
<text
       transform="matrix(1,0,0,-1,192.48414,263.76935)"
       style="font-variant:normal;font-weight:normal;font-size:10.04300022px;font-family:Calibri;-inkscape-font-specification:Calibri;writing-mode:lr-tb;fill:#000000;fill-opacity:1;fill-rule:nonzero;stroke:none"
       id="text2877"><tspan
         x="0 5.0918012"
         y="0"
         sodipodi:role="line"
         id="tspan2875">12</tspan></text>
<text
       transform="matrix(1,0,0,-1,220.8054,263.76935)"
       style="font-variant:normal;font-weight:normal;font-size:10.04300022px;font-family:Calibri;-inkscape-font-specification:Calibri;writing-mode:lr-tb;fill:#000000;fill-opacity:1;fill-rule:nonzero;stroke:none"
       id="text2881"><tspan
         x="0 5.0918012"
         y="0"
         sodipodi:role="line"
         id="tspan2879">16</tspan></text>
<text
       transform="matrix(1,0,0,-1,249.12666,263.76935)"
       style="font-variant:normal;font-weight:normal;font-size:10.04300022px;font-family:Calibri;-inkscape-font-specification:Calibri;writing-mode:lr-tb;fill:#000000;fill-opacity:1;fill-rule:nonzero;stroke:none"
       id="text2885"><tspan
         x="0 5.1602139"
         y="0"
         sodipodi:role="line"
         id="tspan2883">20</tspan></text>
<text
       transform="matrix(1,0,0,-1,277.44792,263.76935)"
       style="font-variant:normal;font-weight:normal;font-size:10.04300022px;font-family:Calibri;-inkscape-font-specification:Calibri;writing-mode:lr-tb;fill:#000000;fill-opacity:1;fill-rule:nonzero;stroke:none"
       id="text2889"><tspan
         x="0 5.1602139"
         y="0"
         sodipodi:role="line"
         id="tspan2887">24</tspan></text>
<text
       transform="matrix(1,0,0,-1,305.88969,263.76935)"
       style="font-variant:normal;font-weight:normal;font-size:10.04300022px;font-family:Calibri;-inkscape-font-specification:Calibri;writing-mode:lr-tb;fill:#000000;fill-opacity:1;fill-rule:nonzero;stroke:none"
       id="text2893"><tspan
         x="0 5.0918012"
         y="0"
         sodipodi:role="line"
         id="tspan2891">28</tspan></text>
<text
       transform="matrix(1,0,0,-1,334.21095,263.76935)"
       style="font-variant:normal;font-weight:normal;font-size:10.04300022px;font-family:Calibri;-inkscape-font-specification:Calibri;writing-mode:lr-tb;fill:#000000;fill-opacity:1;fill-rule:nonzero;stroke:none"
       id="text2897"><tspan
         x="0 5.0918012"
         y="0"
         sodipodi:role="line"
         id="tspan2895">32</tspan></text>
<text
       transform="matrix(1,0,0,-1,362.53221,263.76935)"
       style="font-variant:normal;font-weight:normal;font-size:10.04300022px;font-family:Calibri;-inkscape-font-specification:Calibri;writing-mode:lr-tb;fill:#000000;fill-opacity:1;fill-rule:nonzero;stroke:none"
       id="text2901"><tspan
         x="0 5.0918012"
         y="0"
         sodipodi:role="line"
         id="tspan2899">36</tspan></text>
<text
       transform="matrix(1,0,0,-1,390.85347,263.76935)"
       style="font-variant:normal;font-weight:normal;font-size:10.04300022px;font-family:Calibri;-inkscape-font-specification:Calibri;writing-mode:lr-tb;fill:#000000;fill-opacity:1;fill-rule:nonzero;stroke:none"
       id="text2905"><tspan
         x="0 5.1602139"
         y="0"
         sodipodi:role="line"
         id="tspan2903">40</tspan></text>
<text
       transform="matrix(1,0,0,-1,419.29525,263.76935)"
       style="font-variant:normal;font-weight:normal;font-size:10.04300022px;font-family:Calibri;-inkscape-font-specification:Calibri;writing-mode:lr-tb;fill:#000000;fill-opacity:1;fill-rule:nonzero;stroke:none"
       id="text2909"><tspan
         x="0 5.0918012"
         y="0"
         sodipodi:role="line"
         id="tspan2907">44</tspan></text>
<text
       transform="matrix(1,0,0,-1,447.61651,263.76935)"
       style="font-variant:normal;font-weight:normal;font-size:10.04300022px;font-family:Calibri;-inkscape-font-specification:Calibri;writing-mode:lr-tb;fill:#000000;fill-opacity:1;fill-rule:nonzero;stroke:none"
       id="text2913"><tspan
         x="0 5.0918012"
         y="0"
         sodipodi:role="line"
         id="tspan2911">48</tspan></text>
<text
       transform="matrix(0,1,1,0,73.444459,374.41308)"
       style="font-variant:normal;font-weight:normal;font-size:10.04300022px;font-family:Calibri;-inkscape-font-specification:'Calibri Bold';writing-mode:lr-tb;fill:#000000;fill-opacity:1;fill-rule:nonzero;stroke:none"
       id="text2917"><tspan
         x="0 5.312747 10.715881 16.200665 21.593756"
         y="0"
         sodipodi:role="line"
         id="tspan2915">Count</tspan></text>
<text
       transform="matrix(1,0,0,-1,284.64875,248.4136)"
       style="font-variant:normal;font-weight:normal;font-size:10.04300022px;font-family:Calibri;-inkscape-font-specification:'Calibri Bold';writing-mode:lr-tb;fill:#000000;fill-opacity:1;fill-rule:nonzero;stroke:none"
       id="text2921"><tspan
         x="0 9.098958 14.150587 19.202215"
         y="0"
         sodipodi:role="line"
         id="tspan2919">Week</tspan></text>
<text
       transform="matrix(1,0,0,-1,170.6369,533.87098)"
       style="font-variant:normal;font-weight:normal;font-size:18.14900017px;font-family:Calibri;-inkscape-font-specification:'Calibri Bold';writing-mode:lr-tb;fill:#000000;fill-opacity:1;fill-rule:nonzero;stroke:none"
       id="text2925"><tspan
         x="0 10.998294 20.879717 30.719578 34.679527 43.199409 49.497116 59.159187 65.399101 74.638977 78.59893 89.398781 93.863434 101.03862 105.59856 111.89626 119.13771 123.11832 132.95818 142.08713 148.53001 152.5179 168.35768 177.59755 186.7265 195.43802 199.43724 205.09973 214.30127 223.50281 232.70436 237.4767 246.59657 255.79813 265.07632"
         y="0"
         sodipodi:role="line"
         id="tspan2923">App Store Visits per Week (619,761)</tspan></text>
<text
       transform="matrix(1,0,0,-1,190.90933,511.8018)"
       style="font-variant:normal;font-weight:normal;font-size:18.14900017px;font-family:Calibri;-inkscape-font-specification:'Calibri Bold';writing-mode:lr-tb;fill:#000000;fill-opacity:1;fill-rule:nonzero;stroke:none"
       id="text2929"><tspan
         x="0 5.662488 14.864031 22.559679 31.761221 39.479446 48.680988 57.959194 67.079063 76.280609 80.518875 86.878792 96.624802 102.83857 112.67843 122.42445 131.02707 140.77309 144.71799 153.83786 161.64192 170.75763 179.95917 187.76324 196.96478 206.16632 215.36787 224.56941"
         y="0"
         sodipodi:role="line"
         id="tspan2927">(6/1/2012 through 1/19/2018)</tspan></text>
<path
       d="m 502.08,425.04 h 6.84 c 0.6,0 1.08,-0.48 1.08,-1.08 0,-0.6 -0.48,-1.2 -1.08,-1.2 h -6.84 c -0.6,0 -1.2,0.6 -1.2,1.2 0,0.6 0.6,1.08 1.2,1.08 z m 15.84,0 h 6.84 c 0.6,0 1.08,-0.48 1.08,-1.08 0,-0.6 -0.48,-1.2 -1.08,-1.2 h -6.84 c -0.6,0 -1.08,0.6 -1.08,1.2 0,0.6 0.48,1.08 1.08,1.08 z"
       style="fill:#376092;fill-opacity:1;fill-rule:nonzero;stroke:none"
       id="path2931"
       inkscape:connector-curvature="0" /><text
       transform="matrix(1,0,0,-1,530.30053,421.09295)"
       style="font-variant:normal;font-weight:normal;font-size:10.04300022px;font-family:Calibri;-inkscape-font-specification:Calibri;writing-mode:lr-tb;fill:#000000;fill-opacity:1;fill-rule:nonzero;stroke:none"
       id="text2935"><tspan
         x="0 5.1602139 10.320428 15.412229"
         y="0"
         sodipodi:role="line"
         id="tspan2933">2012</tspan></text>
<path
       d="m 502.08,406.8 h 6.84 c 0.6,0 1.08,-0.48 1.08,-1.08 0,-0.6 -0.48,-1.08 -1.08,-1.08 h -6.84 c -0.6,0 -1.2,0.48 -1.2,1.08 0,0.6 0.6,1.08 1.2,1.08 z m 15.84,0 h 6.84 c 0.6,0 1.08,-0.48 1.08,-1.08 0,-0.6 -0.48,-1.08 -1.08,-1.08 h -6.84 c -0.6,0 -1.08,0.48 -1.08,1.08 0,0.6 0.48,1.08 1.08,1.08 z"
       style="fill:#00b050;fill-opacity:1;fill-rule:nonzero;stroke:none"
       id="path2937"
       inkscape:connector-curvature="0" /><text
       transform="matrix(1,0,0,-1,530.30053,402.85486)"
       style="font-variant:normal;font-weight:normal;font-size:10.04300022px;font-family:Calibri;-inkscape-font-specification:Calibri;writing-mode:lr-tb;fill:#000000;fill-opacity:1;fill-rule:nonzero;stroke:none"
       id="text2941"><tspan
         x="0 5.1602139 10.320428 15.412229"
         y="0"
         sodipodi:role="line"
         id="tspan2939">2013</tspan></text>
<path
       d="m 502.08,388.56 h 6.84 c 0.6,0 1.08,-0.48 1.08,-1.08 0,-0.6 -0.48,-1.08 -1.08,-1.08 h -6.84 c -0.6,0 -1.2,0.48 -1.2,1.08 0,0.6 0.6,1.08 1.2,1.08 z m 15.84,0 h 6.84 c 0.6,0 1.08,-0.48 1.08,-1.08 0,-0.6 -0.48,-1.08 -1.08,-1.08 h -6.84 c -0.6,0 -1.08,0.48 -1.08,1.08 0,0.6 0.48,1.08 1.08,1.08 z"
       style="fill:#c00000;fill-opacity:1;fill-rule:nonzero;stroke:none"
       id="path2943"
       inkscape:connector-curvature="0" /><text
       transform="matrix(1,0,0,-1,530.30053,384.61677)"
       style="font-variant:normal;font-weight:normal;font-size:10.04300022px;font-family:Calibri;-inkscape-font-specification:Calibri;writing-mode:lr-tb;fill:#000000;fill-opacity:1;fill-rule:nonzero;stroke:none"
       id="text2947"><tspan
         x="0 5.1602139 10.320428 15.412229"
         y="0"
         sodipodi:role="line"
         id="tspan2945">2014</tspan></text>
<path
       d="m 502.08,370.44 h 6.84 c 0.6,0 1.08,-0.6 1.08,-1.2 0,-0.6 -0.48,-1.08 -1.08,-1.08 h -6.84 c -0.6,0 -1.2,0.48 -1.2,1.08 0,0.6 0.6,1.2 1.2,1.2 z m 15.84,0 h 6.84 c 0.6,0 1.08,-0.6 1.08,-1.2 0,-0.6 -0.48,-1.08 -1.08,-1.08 h -6.84 c -0.6,0 -1.08,0.48 -1.08,1.08 0,0.6 0.48,1.2 1.08,1.2 z"
       style="fill:#e46c0a;fill-opacity:1;fill-rule:nonzero;stroke:none"
       id="path2949"
       inkscape:connector-curvature="0" /><text
       transform="matrix(1,0,0,-1,530.30053,366.37868)"
       style="font-variant:normal;font-weight:normal;font-size:10.04300022px;font-family:Calibri;-inkscape-font-specification:Calibri;writing-mode:lr-tb;fill:#000000;fill-opacity:1;fill-rule:nonzero;stroke:none"
       id="text2953"><tspan
         x="0 5.1602139 10.320428 15.412229"
         y="0"
         sodipodi:role="line"
         id="tspan2951">2015</tspan></text>
<path
       d="m 502.08,352.56 h 25.44 c 0.84,0 1.44,-0.72 1.44,-1.56 0,-0.84 -0.6,-1.44 -1.44,-1.44 h -25.44 c -0.84,0 -1.56,0.6 -1.56,1.44 0,0.84 0.72,1.56 1.56,1.56 z"
       style="fill:#0070c0;fill-opacity:1;fill-rule:nonzero;stroke:none"
       id="path2955"
       inkscape:connector-curvature="0" /><text
       transform="matrix(1,0,0,-1,530.30053,348.13055)"
       style="font-variant:normal;font-weight:normal;font-size:10.04300022px;font-family:Calibri;-inkscape-font-specification:Calibri;writing-mode:lr-tb;fill:#000000;fill-opacity:1;fill-rule:nonzero;stroke:none"
       id="text2959"><tspan
         x="0 5.1602139 10.320428 15.412229"
         y="0"
         sodipodi:role="line"
         id="tspan2957">2016</tspan></text>
<path
       d="m 502.08,334.32 h 25.44 c 0.84,0 1.44,-0.72 1.44,-1.56 0,-0.84 -0.6,-1.44 -1.44,-1.44 h -25.44 c -0.84,0 -1.56,0.6 -1.56,1.44 0,0.84 0.72,1.56 1.56,1.56 z"
       style="fill:#ff0000;fill-opacity:1;fill-rule:nonzero;stroke:none"
       id="path2961"
       inkscape:connector-curvature="0" /><text
       transform="matrix(1,0,0,-1,530.30053,329.89246)"
       style="font-variant:normal;font-weight:normal;font-size:10.04300022px;font-family:Calibri;-inkscape-font-specification:Calibri;writing-mode:lr-tb;fill:#000000;fill-opacity:1;fill-rule:nonzero;stroke:none"
       id="text2965"><tspan
         x="0 5.1602139 10.320428 15.412229"
         y="0"
         sodipodi:role="line"
         id="tspan2963">2017</tspan></text>
<path
       d="m 502.08,315.72 h 25.44 c 0.6,0 1.08,-0.6 1.08,-1.2 0,-0.6 -0.48,-1.08 -1.08,-1.08 h -25.44 c -0.6,0 -1.2,0.48 -1.2,1.08 0,0.6 0.6,1.2 1.2,1.2 z"
       style="fill:#8ea5cb;fill-opacity:1;fill-rule:nonzero;stroke:none"
       id="path2967"
       inkscape:connector-curvature="0" /><text
       transform="matrix(1,0,0,-1,530.30053,311.65438)"
       style="font-variant:normal;font-weight:normal;font-size:10.04300022px;font-family:Calibri;-inkscape-font-specification:Calibri;writing-mode:lr-tb;fill:#000000;fill-opacity:1;fill-rule:nonzero;stroke:none"
       id="text2971"><tspan
         x="0 5.1602139 10.320428 15.412229"
         y="0"
         sodipodi:role="line"
         id="tspan2969">2018</tspan></text>
<g
       id="g2973"><g
         id="g2975"
         clip-path="url(#clipPath2979)"><path
           d="m 50.76,558.84 c 0,0.12 0.24,0.36 0.48,0.36 h 509.64 c 0.24,0 0.48,-0.24 0.48,-0.36 v -325.8 c 0,-0.12 -0.24,-0.36 -0.48,-0.36 H 51.24 c -0.24,0 -0.48,0.24 -0.48,0.36 z m 0.84,-325.8 -0.36,0.48 h 509.64 l -0.36,-0.48 v 325.8 l 0.36,-0.36 H 51.24 l 0.36,0.36 z"
           style="fill:#868686;fill-opacity:1;fill-rule:nonzero;stroke:none"
           id="path2981"
           inkscape:connector-curvature="0" /></g></g></g></svg>