<?xml version="1.0" encoding="UTF-8" standalone="no"?>
<!-- Created with Inkscape (http://www.inkscape.org/) -->

<svg
   xmlns:dc="http://purl.org/dc/elements/1.1/"
   xmlns:cc="http://creativecommons.org/ns#"
   xmlns:rdf="http://www.w3.org/1999/02/22-rdf-syntax-ns#"
   xmlns:svg="http://www.w3.org/2000/svg"
   xmlns="http://www.w3.org/2000/svg"
   xmlns:sodipodi="http://sodipodi.sourceforge.net/DTD/sodipodi-0.dtd"
   xmlns:inkscape="http://www.inkscape.org/namespaces/inkscape"
   version="1.1"
   id="svg863"
   xml:space="preserve"
   width="680.63995"
   height="390.72"
   viewBox="0 0 680.63995 390.72"
   sodipodi:docname="App_Store_Referral_Sources.svg"
   inkscape:version="0.92.3 (2405546, 2018-03-11)"><metadata
     id="metadata869"><rdf:RDF><cc:Work
         rdf:about=""><dc:format>image/svg+xml</dc:format><dc:type
           rdf:resource="http://purl.org/dc/dcmitype/StillImage" /><dc:title></dc:title></cc:Work></rdf:RDF></metadata><defs
     id="defs867"><clipPath
       clipPathUnits="userSpaceOnUse"
       id="clipPath1021"><path
         d="M 50.64,542.64 V 249.36 h 510.72 v 293.28 z"
         id="path1019"
         inkscape:connector-curvature="0"
         style="clip-rule:evenodd" /></clipPath></defs><sodipodi:namedview
     pagecolor="#ffffff"
     bordercolor="#666666"
     borderopacity="1"
     objecttolerance="10"
     gridtolerance="10"
     guidetolerance="10"
     inkscape:pageopacity="0"
     inkscape:pageshadow="2"
     inkscape:window-width="640"
     inkscape:window-height="480"
     id="namedview865"
     showgrid="false"
     inkscape:zoom="0.22348485"
     inkscape:cx="340.16"
     inkscape:cy="195.52001"
     inkscape:window-x="0"
     inkscape:window-y="0"
     inkscape:window-maximized="0"
     inkscape:current-layer="g871" /><g
     id="g871"
     inkscape:groupmode="layer"
     inkscape:label="App_Store_Referral_Sources"
     transform="matrix(1.3333333,0,0,-1.3333333,-67.839998,723.19998)"><path
       d="m 51.12,249.6 h 510 v 292.44 h -510 z"
       style="fill:#ffffff;fill-opacity:1;fill-rule:nonzero;stroke:none"
       id="path873"
       inkscape:connector-curvature="0" /><path
       d="m 306.12,478.68 c 56.4,0 102.12,-45.72 102.12,-102.12 0,-11.76 -2.04,-23.52 -6,-34.56 l -96.12,34.56 z"
       style="fill:#4572a7;fill-opacity:1;fill-rule:evenodd;stroke:none"
       id="path875"
       inkscape:connector-curvature="0" /><path
       d="M 402.24,342 C 387.6,301.08 348.6,273.96 305.16,274.32 l 0.96,102.24 z"
       style="fill:#aa4643;fill-opacity:1;fill-rule:evenodd;stroke:none"
       id="path877"
       inkscape:connector-curvature="0" /><path
       d="m 305.16,274.32 c -19.44,0.24 -38.28,5.88 -54.48,16.44 l 55.44,85.8 z"
       style="fill:#89a54e;fill-opacity:1;fill-rule:evenodd;stroke:none"
       id="path879"
       inkscape:connector-curvature="0" /><path
       d="m 250.68,290.76 c -2.16,1.32 -4.2,2.76 -6.24,4.32 l 61.68,81.48 z"
       style="fill:#71588f;fill-opacity:1;fill-rule:evenodd;stroke:none"
       id="path881"
       inkscape:connector-curvature="0" /><path
       d="m 244.44,295.08 c -2.28,1.68 -4.44,3.36 -6.48,5.28 l 68.16,76.2 z"
       style="fill:#4198af;fill-opacity:1;fill-rule:evenodd;stroke:none"
       id="path883"
       inkscape:connector-curvature="0" /><path
       d="m 237.96,300.36 c -2.16,1.92 -4.2,3.96 -6.24,6.12 l 74.4,70.08 z"
       style="fill:#db843d;fill-opacity:1;fill-rule:evenodd;stroke:none"
       id="path885"
       inkscape:connector-curvature="0" /><path
       d="m 231.72,306.48 c -0.72,0.84 -1.56,1.68 -2.28,2.52 l 76.68,67.56 z"
       style="fill:#93a9cf;fill-opacity:1;fill-rule:evenodd;stroke:none"
       id="path887"
       inkscape:connector-curvature="0" /><path
       d="m 229.44,309 c -0.72,0.72 -1.32,1.44 -1.92,2.16 l 78.6,65.4 z"
       style="fill:#d19392;fill-opacity:1;fill-rule:evenodd;stroke:none"
       id="path889"
       inkscape:connector-curvature="0" /><path
       d="m 227.52,311.16 c -0.48,0.72 -1.08,1.32 -1.68,2.04 l 80.28,63.36 z"
       style="fill:#b9cd96;fill-opacity:1;fill-rule:evenodd;stroke:none"
       id="path891"
       inkscape:connector-curvature="0" /><path
       d="m 225.84,313.2 c -0.24,0.36 -0.48,0.72 -0.72,0.96 l 81,62.4 z"
       style="fill:#a99bbd;fill-opacity:1;fill-rule:evenodd;stroke:none"
       id="path893"
       inkscape:connector-curvature="0" /><path
       d="m 225.12,314.16 c -34.44,44.76 -26.04,108.96 18.6,143.4 17.88,13.68 39.84,21.12 62.4,21.12 V 376.56 Z"
       style="fill:#91c3d5;fill-opacity:1;fill-rule:evenodd;stroke:none"
       id="path895"
       inkscape:connector-curvature="0" /><path
       d="m 389.64,435.6 34.56,13.08 c 0.12,0 0.12,0 0.12,0 h 3.72 v -0.6 h -3.72 0.12 L 389.76,435 Z"
       style="fill:#000000;fill-opacity:1;fill-rule:nonzero;stroke:none"
       id="path897"
       inkscape:connector-curvature="0" /><path
       d="m 364.56,292.92 28.56,-13.32 -0.12,0.12 h 3.6 v -0.6 H 393 c 0,0 -0.12,0 -0.12,0 l -28.56,13.32 z"
       style="fill:#000000;fill-opacity:1;fill-rule:nonzero;stroke:none"
       id="path899"
       inkscape:connector-curvature="0" /><path
       d="m 276.96,278.52 -10.8,-12.6 c -0.12,-0.12 -0.12,-0.12 -0.24,-0.12 h -3.6 v 0.6 h 3.6 l -0.24,-0.12 10.8,12.6 z"
       style="fill:#000000;fill-opacity:1;fill-rule:nonzero;stroke:none"
       id="path901"
       inkscape:connector-curvature="0" /><path
       d="m 247.68,292.68 -22.44,-28.2 c -0.12,-0.12 -0.12,-0.12 -0.24,-0.12 h -3.6 v 0.6 h 3.6 l -0.24,-0.12 22.44,28.2 z"
       style="fill:#000000;fill-opacity:1;fill-rule:nonzero;stroke:none"
       id="path903"
       inkscape:connector-curvature="0" /><path
       d="m 241.32,297.36 -21.12,-17.4 c -0.12,0 -0.12,-0.12 -0.24,-0.12 h -3.6 v 0.6 h 3.6 -0.12 l 21.12,17.4 z"
       style="fill:#000000;fill-opacity:1;fill-rule:nonzero;stroke:none"
       id="path905"
       inkscape:connector-curvature="0" /><path
       d="m 234.84,303 -65.52,-21.72 c 0,0 0,0 -0.12,0 h -3.6 v 0.6 h 3.6 -0.12 l 65.64,21.72 z"
       style="fill:#000000;fill-opacity:1;fill-rule:nonzero;stroke:none"
       id="path907"
       inkscape:connector-curvature="0" /><path
       d="m 230.64,307.44 -73.08,-7.8 h -3.6 v 0.6 h 3.6 l 72.96,7.8 z"
       style="fill:#000000;fill-opacity:1;fill-rule:nonzero;stroke:none"
       id="path909"
       inkscape:connector-curvature="0" /><path
       d="m 228.48,309.72 -50.76,7.2 h -3.48 v 0.6 h 3.6 l 50.64,-7.2 z"
       style="fill:#000000;fill-opacity:1;fill-rule:nonzero;stroke:none"
       id="path911"
       inkscape:connector-curvature="0" /><path
       d="M 226.56,311.88 160.8,335.4 h 0.12 -3.6 v 0.6 h 3.6 c 0,0 0.12,0 0.12,0 l 65.76,-23.52 z"
       style="fill:#000000;fill-opacity:1;fill-rule:nonzero;stroke:none"
       id="path913"
       inkscape:connector-curvature="0" /><path
       d="m 225.24,313.44 -47.64,42.6 0.24,-0.12 h -3.6 v 0.6 h 3.6 c 0,0 0.12,0 0.12,0 l 47.76,-42.6 z"
       style="fill:#000000;fill-opacity:1;fill-rule:nonzero;stroke:none"
       id="path915"
       inkscape:connector-curvature="0" /><path
       d="m 214.2,421.44 -26.4,20.4 h 0.12 -3.6 v 0.6 h 3.6 c 0.12,0 0.12,0 0.24,-0.12 l 26.4,-20.4 z"
       style="fill:#000000;fill-opacity:1;fill-rule:nonzero;stroke:none"
       id="path917"
       inkscape:connector-curvature="0" /><text
       transform="matrix(1,0,0,-1,425.30193,458.17887)"
       style="font-variant:normal;font-weight:normal;font-size:8.00899982px;font-family:Calibri;-inkscape-font-specification:Calibri;writing-mode:lr-tb;fill:#000000;fill-opacity:1;fill-rule:nonzero;stroke:none"
       id="text921"><tspan
         x="0 3.772239 7.9203482 12.24054 16.012777 17.760782"
         y="0"
         sodipodi:role="line"
         id="tspan919">google</tspan></text>
<text
       transform="matrix(1,0,0,-1,429.37851,448.34382)"
       style="font-variant:normal;font-weight:normal;font-size:8.00899982px;font-family:Calibri;-inkscape-font-specification:Calibri;writing-mode:lr-tb;fill:#000000;fill-opacity:1;fill-rule:nonzero;stroke:none"
       id="text925"><tspan
         x="0 3.9601781 8.0207415"
         y="0"
         sodipodi:role="line"
         id="tspan923">31%</tspan></text>
<text
       transform="matrix(1,0,0,-1,397.81504,279.36994)"
       style="font-variant:normal;font-weight:normal;font-size:8.00899982px;font-family:Calibri;-inkscape-font-specification:Calibri;writing-mode:lr-tb;fill:#000000;fill-opacity:1;fill-rule:nonzero;stroke:none"
       id="text929"><tspan
         x="0 3.3878069 7.0803165 9.8404417 14.061185 17.192703 20.580511 24.416822 28.561272 32.549755 34.56802 38.881725 41.676865"
         y="0"
         sodipodi:role="line"
         id="tspan927">cytoscape.org</tspan></text>
<text
       transform="matrix(1,0,0,-1,413.65684,269.53489)"
       style="font-variant:normal;font-weight:normal;font-size:8.00899982px;font-family:Calibri;-inkscape-font-specification:Calibri;writing-mode:lr-tb;fill:#000000;fill-opacity:1;fill-rule:nonzero;stroke:none"
       id="text933"><tspan
         x="0 4.0605631 8.1211262"
         y="0"
         sodipodi:role="line"
         id="tspan931">20%</tspan></text>
<text
       transform="matrix(1,0,0,-1,237.37074,266.05097)"
       style="font-variant:normal;font-weight:normal;font-size:8.00899982px;font-family:Calibri;-inkscape-font-specification:Calibri;writing-mode:lr-tb;fill:#000000;fill-opacity:1;fill-rule:nonzero;stroke:none"
       id="text937"><tspan
         x="0 2.4267271 6.6314521 8.4003754 11.2805 15.268982 18.65679 21.240942"
         y="0"
         sodipodi:role="line"
         id="tspan935">(direct)</tspan></text>
<text
       transform="matrix(1,0,0,-1,244.33056,256.20791)"
       style="font-variant:normal;font-weight:normal;font-size:8.00899982px;font-family:Calibri;-inkscape-font-specification:Calibri;writing-mode:lr-tb;fill:#000000;fill-opacity:1;fill-rule:nonzero;stroke:none"
       id="text941"><tspan
         x="0 4.0605631"
         y="0"
         sodipodi:role="line"
         id="tspan939">9%</tspan></text>
<text
       transform="matrix(1,0,0,-1,147.12533,262.81533)"
       style="font-variant:normal;font-weight:normal;font-size:8.00899982px;font-family:Calibri;-inkscape-font-specification:Calibri;writing-mode:lr-tb;fill:#000000;fill-opacity:1;fill-rule:nonzero;stroke:none"
       id="text945"><tspan
         x="0 4.3201909 8.1565018 10.839517 15.120671 20.760921 24.597233 28.321259 31.709064 35.929806 42.241879 48.641068 52.922352 57.127075 60.258595 62.276863 66.497604 69.363083"
         y="0"
         sodipodi:role="line"
         id="tspan943">pathwaycommons.org</tspan></text>
<text
       transform="matrix(1,0,0,-1,178.80893,252.97227)"
       style="font-variant:normal;font-weight:normal;font-size:8.00899982px;font-family:Calibri;-inkscape-font-specification:Calibri;writing-mode:lr-tb;fill:#000000;fill-opacity:1;fill-rule:nonzero;stroke:none"
       id="text949"><tspan
         x="0 4.0605631"
         y="0"
         sodipodi:role="line"
         id="tspan947">1%</tspan></text>
<text
       transform="matrix(1,0,0,-1,196.80516,280.21088)"
       style="font-variant:normal;font-weight:normal;font-size:8.00899982px;font-family:Calibri;-inkscape-font-specification:Calibri;writing-mode:lr-tb;fill:#000000;fill-opacity:1;fill-rule:nonzero;stroke:none"
       id="text953"><tspan
         x="0 4.3201909 8.1565018 9.9905624 14.195288"
         y="0"
         sodipodi:role="line"
         id="tspan951">baidu</tspan></text>
<text
       transform="matrix(1,0,0,-1,201.13002,270.37583)"
       style="font-variant:normal;font-weight:normal;font-size:8.00899982px;font-family:Calibri;-inkscape-font-specification:Calibri;writing-mode:lr-tb;fill:#000000;fill-opacity:1;fill-rule:nonzero;stroke:none"
       id="text957"><tspan
         x="0 4.0605631"
         y="0"
         sodipodi:role="line"
         id="tspan955">1%</tspan></text>
<text
       transform="matrix(1,0,0,-1,115.44173,281.53237)"
       style="font-variant:normal;font-weight:normal;font-size:8.00899982px;font-family:Calibri;-inkscape-font-specification:Calibri;writing-mode:lr-tb;fill:#000000;fill-opacity:1;fill-rule:nonzero;stroke:none"
       id="text961"><tspan
         x="0 3.772239 7.6803427 11.885068 15.873549 22.272741 26.109051 30.313776 32.147839 36.121609 38.041695 42.361885 45.157024"
         y="0"
         sodipodi:role="line"
         id="tspan959">genemania.org</tspan></text>
<text
       transform="matrix(1,0,0,-1,135.00771,271.68931)"
       style="font-variant:normal;font-weight:normal;font-size:8.00899982px;font-family:Calibri;-inkscape-font-specification:Calibri;writing-mode:lr-tb;fill:#000000;fill-opacity:1;fill-rule:nonzero;stroke:none"
       id="text965"><tspan
         x="0 4.0605631"
         y="0"
         sodipodi:role="line"
         id="tspan963">1%</tspan></text>
<text
       transform="matrix(1,0,0,-1,138.60375,299.89701)"
       style="font-variant:normal;font-weight:normal;font-size:8.00899982px;font-family:Calibri;-inkscape-font-specification:Calibri;writing-mode:lr-tb;fill:#000000;fill-opacity:1;fill-rule:nonzero;stroke:none"
       id="text969"><tspan
         x="0 4.2047248 6.1202698 10.324995"
         y="0"
         sodipodi:role="line"
         id="tspan967">bing</tspan></text>
<text
       transform="matrix(1,0,0,-1,140.88632,290.05394)"
       style="font-variant:normal;font-weight:normal;font-size:8.00899982px;font-family:Calibri;-inkscape-font-specification:Calibri;writing-mode:lr-tb;fill:#000000;fill-opacity:1;fill-rule:nonzero;stroke:none"
       id="text973"><tspan
         x="0 3.9601781"
         y="0"
         sodipodi:role="line"
         id="tspan971">1%</tspan></text>
<text
       transform="matrix(1,0,0,-1,138.24335,317.17242)"
       style="font-variant:normal;font-weight:normal;font-size:8.00899982px;font-family:Calibri;-inkscape-font-specification:Calibri;writing-mode:lr-tb;fill:#000000;fill-opacity:1;fill-rule:nonzero;stroke:none"
       id="text977"><tspan
         x="0 3.772239 7.9929819 12.213725 15.985964 17.880789 21.869272 23.761053 27.148861 31.353584"
         y="0"
         sodipodi:role="line"
         id="tspan975">google cpc</tspan></text>
<text
       transform="matrix(1,0,0,-1,150.84952,307.33737)"
       style="font-variant:normal;font-weight:normal;font-size:8.00899982px;font-family:Calibri;-inkscape-font-specification:Calibri;writing-mode:lr-tb;fill:#000000;fill-opacity:1;fill-rule:nonzero;stroke:none"
       id="text981"><tspan
         x="0 3.9601781"
         y="0"
         sodipodi:role="line"
         id="tspan979">1%</tspan></text>
<text
       transform="matrix(1,0,0,-1,98.286448,335.77733)"
       style="font-variant:normal;font-weight:normal;font-size:8.00899982px;font-family:Calibri;-inkscape-font-specification:Calibri;writing-mode:lr-tb;fill:#000000;fill-opacity:1;fill-rule:nonzero;stroke:none"
       id="text985"><tspan
         x="0 3.8401713 7.8286533 12.033379 15.960711 20.181454 24.481087 27.164101 31.384844 33.218906 37.439648 41.28183 44.909908 46.928173 51.242271 54.037411"
         y="0"
         sodipodi:role="line"
         id="tspan983">geneontology.org</tspan></text>
<text
       transform="matrix(1,0,0,-1,122.40155,325.93426)"
       style="font-variant:normal;font-weight:normal;font-size:8.00899982px;font-family:Calibri;-inkscape-font-specification:Calibri;writing-mode:lr-tb;fill:#000000;fill-opacity:1;fill-rule:nonzero;stroke:none"
       id="text989"><tspan
         x="0 3.9601781"
         y="0"
         sodipodi:role="line"
         id="tspan987">0%</tspan></text>
<text
       transform="matrix(1,0,0,-1,112.5665,356.17625)"
       style="font-variant:normal;font-weight:normal;font-size:8.00899982px;font-family:Calibri;-inkscape-font-specification:Calibri;writing-mode:lr-tb;fill:#000000;fill-opacity:1;fill-rule:nonzero;stroke:none"
       id="text993"><tspan
         x="0 5.6402502 7.5603356 11.204431 12.960572 14.97884 18.366648 22.080973 24.763988 28.984732 32.116249 35.504059 39.340366 43.545094 47.533577 49.551842 53.882381 56.677521"
         y="0"
         sodipodi:role="line"
         id="tspan991">wiki.cytoscape.org</tspan></text>
<text
       transform="matrix(1,0,0,-1,137.88294,346.33319)"
       style="font-variant:normal;font-weight:normal;font-size:8.00899982px;font-family:Calibri;-inkscape-font-specification:Calibri;writing-mode:lr-tb;fill:#000000;fill-opacity:1;fill-rule:nonzero;stroke:none"
       id="text997"><tspan
         x="0 4.0605631"
         y="0"
         sodipodi:role="line"
         id="tspan995">0%</tspan></text>
<text
       transform="matrix(1,0,0,-1,167.28398,451.93986)"
       style="font-variant:normal;font-weight:normal;font-size:8.00899982px;font-family:Calibri;-inkscape-font-specification:Calibri;writing-mode:lr-tb;fill:#000000;fill-opacity:1;fill-rule:nonzero;stroke:none"
       id="text1001"><tspan
         x="0 4.2207432 6.8403025 11.160494 15.148975"
         y="0"
         sodipodi:role="line"
         id="tspan999">other</tspan></text>
<text
       transform="matrix(1,0,0,-1,169.32628,442.0968)"
       style="font-variant:normal;font-weight:normal;font-size:8.00899982px;font-family:Calibri;-inkscape-font-specification:Calibri;writing-mode:lr-tb;fill:#000000;fill-opacity:1;fill-rule:nonzero;stroke:none"
       id="text1005"><tspan
         x="0 4.0605631 8.1211262"
         y="0"
         sodipodi:role="line"
         id="tspan1003">35%</tspan></text>
<text
       transform="matrix(1,0,0,-1,204.2372,525.35735)"
       style="font-variant:normal;font-weight:normal;font-size:12.83300018px;font-family:Calibri;-inkscape-font-specification:'Calibri Bold';writing-mode:lr-tb;fill:#000000;fill-opacity:1;fill-rule:nonzero;stroke:none"
       id="text1009"><tspan
         x="0 7.7767978 14.668119 21.559441 24.459698 30.599686 34.919647 41.823799 46.379513 52.834515 55.734772 62.759361 69.119293 72.959259 79.414261 83.969978 88.199104 94.538605 97.799011 100.79898 106.79892 113.70307 120.5944 125.03873 130.40292 136.85793 141.97829 144.95853 148.96242 155.39842 161.90474 168.41107 171.59825 178.10458 184.61092 190.91806 194.92195"
         y="0"
         sodipodi:role="line"
         id="tspan1007">App Store Referral Sources (619,761) </tspan></text>
<text
       transform="matrix(1,0,0,-1,220.31694,509.63693)"
       style="font-variant:normal;font-weight:normal;font-size:12.83300018px;font-family:Calibri;-inkscape-font-specification:'Calibri Bold';writing-mode:lr-tb;fill:#000000;fill-opacity:1;fill-rule:nonzero;stroke:none"
       id="text1013"><tspan
         x="0 4.0038962 10.439889 15.839836 22.346167 27.864357 34.370689 40.799583 47.305916 53.812248 57.119415 61.572464 68.3993 72.719261 79.623413 86.514732 92.59758 99.488899 102.47896 108.98529 114.50348 121.00981 127.43871 132.95689 139.46323 145.79852 152.30486 158.87839"
         y="0"
         sodipodi:role="line"
         id="tspan1011">(6/1/2012 through 1/19/2018)</tspan></text>
<g
       id="g1015"><g
         id="g1017"
         clip-path="url(#clipPath1021)"><path
           d="m 50.88,542.04 c 0,0.24 0.12,0.36 0.24,0.36 h 510 c 0.12,0 0.24,-0.12 0.24,-0.36 V 249.6 c 0,-0.12 -0.12,-0.24 -0.24,-0.24 h -510 c -0.12,0 -0.24,0.12 -0.24,0.24 z m 0.6,-292.44 -0.36,0.36 h 510 l -0.36,-0.36 v 292.44 l 0.36,-0.24 h -510 l 0.36,0.24 z"
           style="fill:#868686;fill-opacity:1;fill-rule:nonzero;stroke:none"
           id="path1023"
           inkscape:connector-curvature="0" /></g></g></g></svg>