<?xml version="1.0" encoding="UTF-8" standalone="no"?>
<!-- Created with Inkscape (http://www.inkscape.org/) -->

<svg
   xmlns:dc="http://purl.org/dc/elements/1.1/"
   xmlns:cc="http://creativecommons.org/ns#"
   xmlns:rdf="http://www.w3.org/1999/02/22-rdf-syntax-ns#"
   xmlns:svg="http://www.w3.org/2000/svg"
   xmlns="http://www.w3.org/2000/svg"
   xmlns:sodipodi="http://sodipodi.sourceforge.net/DTD/sodipodi-0.dtd"
   xmlns:inkscape="http://www.inkscape.org/namespaces/inkscape"
   version="1.1"
   id="svg2105"
   xml:space="preserve"
   width="680.79999"
   height="441.75998"
   viewBox="0 0 680.79999 441.75998"
   sodipodi:docname="App_Store_Visits_By_Country_Prior_Year.svg"
   inkscape:version="0.92.3 (2405546, 2018-03-11)"><metadata
     id="metadata2111"><rdf:RDF><cc:Work
         rdf:about=""><dc:format>image/svg+xml</dc:format><dc:type
           rdf:resource="http://purl.org/dc/dcmitype/StillImage" /><dc:title></dc:title></cc:Work></rdf:RDF></metadata><defs
     id="defs2109"><clipPath
       clipPathUnits="userSpaceOnUse"
       id="clipPath2261"><path
         d="M 50.64,561.84 V 230.28 h 510.72 v 331.56 z"
         id="path2259"
         inkscape:connector-curvature="0"
         style="clip-rule:evenodd" /></clipPath></defs><sodipodi:namedview
     pagecolor="#ffffff"
     bordercolor="#666666"
     borderopacity="1"
     objecttolerance="10"
     gridtolerance="10"
     guidetolerance="10"
     inkscape:pageopacity="0"
     inkscape:pageshadow="2"
     inkscape:window-width="640"
     inkscape:window-height="480"
     id="namedview2107"
     showgrid="false"
     inkscape:zoom="0.22348485"
     inkscape:cx="340.32"
     inkscape:cy="220.96001"
     inkscape:window-x="0"
     inkscape:window-y="0"
     inkscape:window-maximized="0"
     inkscape:current-layer="g2113" /><g
     id="g2113"
     inkscape:groupmode="layer"
     inkscape:label="App_Store_Visits_By_Country_Prior_Year"
     transform="matrix(1.3333333,0,0,-1.3333333,-67.679998,748.79998)"><path
       d="m 51.12,230.64 h 510 v 330.6 h -510 z"
       style="fill:#ffffff;fill-opacity:1;fill-rule:nonzero;stroke:none"
       id="path2115"
       inkscape:connector-curvature="0" /><path
       d="m 306.12,484.44 c 52.2,0 97.56,-35.76 109.8,-86.52 L 306.12,371.4 Z"
       style="fill:#4572a7;fill-opacity:1;fill-rule:evenodd;stroke:none"
       id="path2117"
       inkscape:connector-curvature="0" /><path
       d="m 415.92,397.92 c 7.2,-29.76 2.04,-61.32 -14.52,-87.24 l -95.28,60.72 z"
       style="fill:#aa4643;fill-opacity:1;fill-rule:evenodd;stroke:none"
       id="path2119"
       inkscape:connector-curvature="0" /><path
       d="m 401.4,310.68 c -9.72,-15.24 -22.92,-27.96 -38.52,-36.96 l -56.76,97.68 z"
       style="fill:#89a54e;fill-opacity:1;fill-rule:evenodd;stroke:none"
       id="path2121"
       inkscape:connector-curvature="0" /><path
       d="m 362.88,273.72 c -10.92,-6.36 -22.8,-10.8 -35.04,-13.2 L 306.12,371.4 Z"
       style="fill:#71588f;fill-opacity:1;fill-rule:evenodd;stroke:none"
       id="path2123"
       inkscape:connector-curvature="0" /><path
       d="m 327.84,260.52 c -11.88,-2.28 -24,-2.76 -35.88,-1.2 l 14.16,112.08 z"
       style="fill:#4198af;fill-opacity:1;fill-rule:evenodd;stroke:none"
       id="path2125"
       inkscape:connector-curvature="0" /><path
       d="m 291.96,259.32 c -8.76,1.08 -17.28,3.12 -25.44,6.24 l 39.6,105.84 z"
       style="fill:#db843d;fill-opacity:1;fill-rule:evenodd;stroke:none"
       id="path2127"
       inkscape:connector-curvature="0" /><path
       d="m 266.52,265.56 c -8.28,3.12 -16.08,7.08 -23.4,12 l 63,93.84 z"
       style="fill:#93a9cf;fill-opacity:1;fill-rule:evenodd;stroke:none"
       id="path2129"
       inkscape:connector-curvature="0" /><path
       d="m 243.12,277.56 c -6.12,4.08 -11.64,8.76 -16.8,13.8 l 79.8,80.04 z"
       style="fill:#d19392;fill-opacity:1;fill-rule:evenodd;stroke:none"
       id="path2131"
       inkscape:connector-curvature="0" /><path
       d="m 226.32,291.36 c -4.32,4.32 -8.28,9 -11.88,14.04 l 91.68,66 z"
       style="fill:#b9cd96;fill-opacity:1;fill-rule:evenodd;stroke:none"
       id="path2133"
       inkscape:connector-curvature="0" /><path
       d="m 214.44,305.4 c -3.72,5.04 -6.96,10.44 -9.72,16.08 l 101.4,49.92 z"
       style="fill:#a99bbd;fill-opacity:1;fill-rule:evenodd;stroke:none"
       id="path2135"
       inkscape:connector-curvature="0" /><path
       d="m 204.72,321.48 c -27.6,56.04 -4.44,123.72 51.48,151.32 15.6,7.68 32.64,11.64 49.92,11.64 V 371.4 Z"
       style="fill:#91c3d5;fill-opacity:1;fill-rule:evenodd;stroke:none"
       id="path2137"
       inkscape:connector-curvature="0" /><path
       d="m 375.72,460.44 21.24,24.72 c 0.12,0 0.24,0.12 0.36,0.12 h 4.08 v -0.72 h -4.08 l 0.24,0.12 -21.36,-24.72 z"
       style="fill:#000000;fill-opacity:1;fill-rule:nonzero;stroke:none"
       id="path2139"
       inkscape:connector-curvature="0" /><path
       d="m 417.6,353.16 24.36,-4.8 h -0.12 4.2 v -0.72 h -4.2 c 0,0 0,0 0,0 l -24.36,4.92 z"
       style="fill:#000000;fill-opacity:1;fill-rule:nonzero;stroke:none"
       id="path2141"
       inkscape:connector-curvature="0" /><path
       d="m 384.6,290.16 7.44,-8.64 -0.24,0.12 h 4.2 v -0.72 h -4.2 c -0.12,0 -0.12,0 -0.24,0.12 l -7.44,8.64 z"
       style="fill:#000000;fill-opacity:1;fill-rule:nonzero;stroke:none"
       id="path2143"
       inkscape:connector-curvature="0" /><path
       d="m 345.96,265.92 36.48,-14.4 -0.12,0.12 h 4.2 v -0.72 h -4.2 c 0,0 0,0 -0.12,0 l -36.48,14.4 z"
       style="fill:#000000;fill-opacity:1;fill-rule:nonzero;stroke:none"
       id="path2145"
       inkscape:connector-curvature="0" /><path
       d="m 279.36,261.48 -11.52,-13.8 c -0.12,-0.12 -0.24,-0.12 -0.36,-0.12 h -4.08 v 0.72 h 4.08 l -0.24,-0.12 11.52,13.8 z"
       style="fill:#000000;fill-opacity:1;fill-rule:nonzero;stroke:none"
       id="path2147"
       inkscape:connector-curvature="0" /><path
       d="m 254.76,270.72 -14.64,-16.2 c -0.12,0 -0.24,-0.12 -0.24,-0.12 h -4.32 v 0.72 h 4.32 l -0.36,-0.12 14.64,16.08 z"
       style="fill:#000000;fill-opacity:1;fill-rule:nonzero;stroke:none"
       id="path2149"
       inkscape:connector-curvature="0" /><path
       d="m 234.6,283.8 -23.76,-23.4 c -0.12,-0.12 -0.24,-0.12 -0.24,-0.12 h -4.2 V 261 h 4.2 l -0.24,-0.12 23.76,23.52 z"
       style="fill:#000000;fill-opacity:1;fill-rule:nonzero;stroke:none"
       id="path2151"
       inkscape:connector-curvature="0" /><path
       d="m 220.32,297.84 -20.28,-15.12 c 0,0 -0.12,-0.12 -0.12,-0.12 h -4.2 v 0.72 h 4.2 -0.24 l 20.16,15.12 z"
       style="fill:#000000;fill-opacity:1;fill-rule:nonzero;stroke:none"
       id="path2153"
       inkscape:connector-curvature="0" /><path
       d="m 209.52,313.08 -5.4,-8.88 c -0.12,-0.12 -0.24,-0.24 -0.36,-0.24 h -4.2 v 0.72 h 4.2 l -0.24,-0.12 5.4,8.88 z"
       style="fill:#000000;fill-opacity:1;fill-rule:nonzero;stroke:none"
       id="path2155"
       inkscape:connector-curvature="0" /><path
       d="m 210,430.8 -21.12,8.16 h 0.12 -4.2 v 0.72 h 4.2 c 0,0 0.12,0 0.12,0 l 21.24,-8.28 z"
       style="fill:#000000;fill-opacity:1;fill-rule:nonzero;stroke:none"
       id="path2157"
       inkscape:connector-curvature="0" /><text
       transform="matrix(1,0,0,-1,402.95076,484.91138)"
       style="font-variant:normal;font-weight:normal;font-size:9.23499966px;font-family:Calibri;-inkscape-font-specification:Calibri;writing-mode:lr-tb;fill:#000000;fill-opacity:1;fill-rule:nonzero;stroke:none"
       id="text2161"><tspan
         x="0 5.9288702 10.777245 12.89206 15.985785 20.519459 25.439331 27.599277 31.838142 34.93187 39.355434 42.449158 47.048187"
         y="0"
         sodipodi:role="line"
         id="tspan2159">United States</tspan></text>
<text
       transform="matrix(1,0,0,-1,420.34949,473.50615)"
       style="font-variant:normal;font-weight:normal;font-size:9.23499966px;font-family:Calibri;-inkscape-font-specification:Calibri;writing-mode:lr-tb;fill:#000000;fill-opacity:1;fill-rule:nonzero;stroke:none"
       id="text2165"><tspan
         x="0 4.6821451 9.2397556"
         y="0"
         sodipodi:role="line"
         id="tspan2163">21%</tspan></text>
<text
       transform="matrix(1,0,0,-1,447.47269,347.99327)"
       style="font-variant:normal;font-weight:normal;font-size:9.23499966px;font-family:Calibri;-inkscape-font-specification:Calibri;writing-mode:lr-tb;fill:#000000;fill-opacity:1;fill-rule:nonzero;stroke:none"
       id="text2169"><tspan
         x="0 4.922255 9.8397446 11.879691 16.799564"
         y="0"
         sodipodi:role="line"
         id="tspan2167">China</tspan></text>
<text
       transform="matrix(1,0,0,-1,450.10466,336.58804)"
       style="font-variant:normal;font-weight:normal;font-size:9.23499966px;font-family:Calibri;-inkscape-font-specification:Calibri;writing-mode:lr-tb;fill:#000000;fill-opacity:1;fill-rule:nonzero;stroke:none"
       id="text2173"><tspan
         x="0 4.6821451 9.3642902"
         y="0"
         sodipodi:role="line"
         id="tspan2171">13%</tspan></text>
<text
       transform="matrix(1,0,0,-1,397.42822,281.27039)"
       style="font-variant:normal;font-weight:normal;font-size:9.23499966px;font-family:Calibri;-inkscape-font-specification:Calibri;writing-mode:lr-tb;fill:#000000;fill-opacity:1;fill-rule:nonzero;stroke:none"
       id="text2177"><tspan
         x="0 2.32722 7.1755948 12.119681 14.234496"
         y="0"
         sodipodi:role="line"
         id="tspan2175">India</tspan></text>
<text
       transform="matrix(1,0,0,-1,401.14993,269.8744)"
       style="font-variant:normal;font-weight:normal;font-size:9.23499966px;font-family:Calibri;-inkscape-font-specification:Calibri;writing-mode:lr-tb;fill:#000000;fill-opacity:1;fill-rule:nonzero;stroke:none"
       id="text2181"><tspan
         x="0 4.6821451"
         y="0"
         sodipodi:role="line"
         id="tspan2179">8%</tspan></text>
<text
       transform="matrix(1,0,0,-1,388.07317,251.27511)"
       style="font-variant:normal;font-weight:normal;font-size:9.23499966px;font-family:Calibri;-inkscape-font-specification:Calibri;writing-mode:lr-tb;fill:#000000;fill-opacity:1;fill-rule:nonzero;stroke:none"
       id="text2185"><tspan
         x="0 5.9288702 10.777245 12.89206 15.985785 20.519459 25.439331 27.599277 32.401478 34.439098 39.358971 43.708656 48.55703 53.518597"
         y="0"
         sodipodi:role="line"
         id="tspan2183">United Kingdom</tspan></text>
<text
       transform="matrix(1,0,0,-1,412.90608,239.86989)"
       style="font-variant:normal;font-weight:normal;font-size:9.23499966px;font-family:Calibri;-inkscape-font-specification:Calibri;writing-mode:lr-tb;fill:#000000;fill-opacity:1;fill-rule:nonzero;stroke:none"
       id="text2189"><tspan
         x="0 4.6821451"
         y="0"
         sodipodi:role="line"
         id="tspan2187">5%</tspan></text>
<text
       transform="matrix(1,0,0,-1,284.15171,246.35286)"
       style="font-variant:normal;font-weight:normal;font-size:9.23499966px;font-family:Calibri;-inkscape-font-specification:Calibri;writing-mode:lr-tb;fill:#000000;fill-opacity:1;fill-rule:nonzero;stroke:none"
       id="text2193"><tspan
         x="0 5.759851 10.358881 13.581896 20.879457 25.303022 30.239214"
         y="0"
         sodipodi:role="line"
         id="tspan2191">Germany</tspan></text>
<text
       transform="matrix(1,0,0,-1,295.78782,235.07692)"
       style="font-variant:normal;font-weight:normal;font-size:9.23499966px;font-family:Calibri;-inkscape-font-specification:Calibri;writing-mode:lr-tb;fill:#000000;fill-opacity:1;fill-rule:nonzero;stroke:none"
       id="text2197"><tspan
         x="0 4.6821451"
         y="0"
         sodipodi:role="line"
         id="tspan2195">5%</tspan></text>
<text
       transform="matrix(1,0,0,-1,236.75769,246.83308)"
       style="font-variant:normal;font-weight:normal;font-size:9.23499966px;font-family:Calibri;-inkscape-font-specification:Calibri;writing-mode:lr-tb;fill:#000000;fill-opacity:1;fill-rule:nonzero;stroke:none"
       id="text2201"><tspan
         x="0 4.3198838 7.4397993 11.863364 16.799555 20.705959"
         y="0"
         sodipodi:role="line"
         id="tspan2199">France</tspan></text>
<text
       transform="matrix(1,0,0,-1,243.8317,235.55714)"
       style="font-variant:normal;font-weight:normal;font-size:9.23499966px;font-family:Calibri;-inkscape-font-specification:Calibri;writing-mode:lr-tb;fill:#000000;fill-opacity:1;fill-rule:nonzero;stroke:none"
       id="text2205"><tspan
         x="0 4.6821451"
         y="0"
         sodipodi:role="line"
         id="tspan2203">4%</tspan></text>
<text
       transform="matrix(1,0,0,-1,212.63587,254.75671)"
       style="font-variant:normal;font-weight:normal;font-size:9.23499966px;font-family:Calibri;-inkscape-font-specification:Calibri;writing-mode:lr-tb;fill:#000000;fill-opacity:1;fill-rule:nonzero;stroke:none"
       id="text2209"><tspan
         x="0 2.8799255 7.3034906 12.239681 16.663246"
         y="0"
         sodipodi:role="line"
         id="tspan2207">Japan</tspan></text>
<text
       transform="matrix(1,0,0,-1,217.91829,243.47154)"
       style="font-variant:normal;font-weight:normal;font-size:9.23499966px;font-family:Calibri;-inkscape-font-specification:Calibri;writing-mode:lr-tb;fill:#000000;fill-opacity:1;fill-rule:nonzero;stroke:none"
       id="text2213"><tspan
         x="0 4.6821451"
         y="0"
         sodipodi:role="line"
         id="tspan2211">4%</tspan></text>
<text
       transform="matrix(1,0,0,-1,176.99801,260.63017)"
       style="font-variant:normal;font-weight:normal;font-size:9.23499966px;font-family:Calibri;-inkscape-font-specification:Calibri;writing-mode:lr-tb;fill:#000000;fill-opacity:1;fill-rule:nonzero;stroke:none"
       id="text2217"><tspan
         x="0 4.922255 9.3458204 14.279628 18.703194 23.639383"
         y="0"
         sodipodi:role="line"
         id="tspan2215">Canada</tspan></text>
<text
       transform="matrix(1,0,0,-1,185.51268,249.23418)"
       style="font-variant:normal;font-weight:normal;font-size:9.23499966px;font-family:Calibri;-inkscape-font-specification:Calibri;writing-mode:lr-tb;fill:#000000;fill-opacity:1;fill-rule:nonzero;stroke:none"
       id="text2221"><tspan
         x="0 4.6821451"
         y="0"
         sodipodi:role="line"
         id="tspan2219">3%</tspan></text>
<text
       transform="matrix(1,0,0,-1,178.19856,282.95116)"
       style="font-variant:normal;font-weight:normal;font-size:9.23499966px;font-family:Calibri;-inkscape-font-specification:Calibri;writing-mode:lr-tb;fill:#000000;fill-opacity:1;fill-rule:nonzero;stroke:none"
       id="text2225"><tspan
         x="0 2.32722 5.4209452 9.8445101 11.959325"
         y="0"
         sodipodi:role="line"
         id="tspan2223">Italy</tspan></text>
<text
       transform="matrix(1,0,0,-1,180.71971,271.67523)"
       style="font-variant:normal;font-weight:normal;font-size:9.23499966px;font-family:Calibri;-inkscape-font-specification:Calibri;writing-mode:lr-tb;fill:#000000;fill-opacity:1;fill-rule:nonzero;stroke:none"
       id="text2229"><tspan
         x="0 4.6821451"
         y="0"
         sodipodi:role="line"
         id="tspan2227">2%</tspan></text>
<text
       transform="matrix(1,0,0,-1,152.15586,304.31172)"
       style="font-variant:normal;font-weight:normal;font-size:9.23499966px;font-family:Calibri;-inkscape-font-specification:Calibri;writing-mode:lr-tb;fill:#000000;fill-opacity:1;fill-rule:nonzero;stroke:none"
       id="text2233"><tspan
         x="0 4.2388649 9.10571 14.039629 17.133354 21.98173 24.068838 28.871038 33.839108 37.062122 41.661152"
         y="0"
         sodipodi:role="line"
         id="tspan2231">South Korea</tspan></text>
<text
       transform="matrix(1,0,0,-1,169.5546,292.91573)"
       style="font-variant:normal;font-weight:normal;font-size:9.23499966px;font-family:Calibri;-inkscape-font-specification:Calibri;writing-mode:lr-tb;fill:#000000;fill-opacity:1;fill-rule:nonzero;stroke:none"
       id="text2237"><tspan
         x="0 4.6821451"
         y="0"
         sodipodi:role="line"
         id="tspan2235">3%</tspan></text>
<text
       transform="matrix(1,0,0,-1,164.39223,450.58488)"
       style="font-variant:normal;font-weight:normal;font-size:9.23499966px;font-family:Calibri;-inkscape-font-specification:Calibri;writing-mode:lr-tb;fill:#000000;fill-opacity:1;fill-rule:nonzero;stroke:none"
       id="text2241"><tspan
         x="0 6.1135702 9.2072954 14.159628 18.758657"
         y="0"
         sodipodi:role="line"
         id="tspan2239">Other</tspan></text>
<text
       transform="matrix(1,0,0,-1,167.39361,439.30895)"
       style="font-variant:normal;font-weight:normal;font-size:9.23499966px;font-family:Calibri;-inkscape-font-specification:Calibri;writing-mode:lr-tb;fill:#000000;fill-opacity:1;fill-rule:nonzero;stroke:none"
       id="text2245"><tspan
         x="0 4.6821451 9.3642902"
         y="0"
         sodipodi:role="line"
         id="tspan2243">32%</tspan></text>
<text
       transform="matrix(1,0,0,-1,189.36474,543.96048)"
       style="font-variant:normal;font-weight:normal;font-size:16.69000053px;font-family:Calibri;-inkscape-font-specification:'Calibri Bold';writing-mode:lr-tb;fill:#000000;fill-opacity:1;fill-rule:nonzero;stroke:none"
       id="text2249"><tspan
         x="0 10.11414 19.07667 28.0392 31.81114 39.705509 45.359463 54.338684 59.999298 68.519196 72.119141 82.079033 86.184776 92.844086 96.949821 102.74126 109.40057 113.1725 118.31861 126.78044 135.24228 143.7041 148.07826 156.47816 164.93999 173.40182"
         y="0"
         sodipodi:role="line"
         id="tspan2247">App Store Visits (157,656)</tspan></text>
<text
       transform="matrix(1,0,0,-1,172.67474,523.54861)"
       style="font-variant:normal;font-weight:normal;font-size:16.69000053px;font-family:Calibri;-inkscape-font-specification:'Calibri Bold';writing-mode:lr-tb;fill:#000000;fill-opacity:1;fill-rule:nonzero;stroke:none"
       id="text2253"><tspan
         x="0 5.2799315 13.679825 20.856525 29.318356 36.495056 44.879459 53.34129 61.80312 70.199158 74.159111 79.950539 88.913071 94.678864 103.65809 112.62061 120.59857 129.5611 133.07841 141.54025 148.71695 157.17877 165.64061 172.67795 181.13977 189.60161 198.06343 206.52527"
         y="0"
         sodipodi:role="line"
         id="tspan2251">(1/1/2017 through 1/19/2018)</tspan></text>
<g
       id="g2255"><g
         id="g2257"
         clip-path="url(#clipPath2261)"><path
           d="m 50.76,561.24 c 0,0.24 0.24,0.36 0.36,0.36 h 510 c 0.12,0 0.36,-0.12 0.36,-0.36 v -330.6 c 0,-0.24 -0.24,-0.36 -0.36,-0.36 h -510 c -0.12,0 -0.36,0.12 -0.36,0.36 z m 0.72,-330.6 -0.36,0.36 h 510 l -0.36,-0.36 v 330.6 l 0.36,-0.24 h -510 l 0.36,0.24 z"
           style="fill:#868686;fill-opacity:1;fill-rule:nonzero;stroke:none"
           id="path2263"
           inkscape:connector-curvature="0" /></g></g></g></svg>