<?xml version="1.0" encoding="UTF-8" standalone="no"?>
<!-- Created with Inkscape (http://www.inkscape.org/) -->

<svg
   xmlns:dc="http://purl.org/dc/elements/1.1/"
   xmlns:cc="http://creativecommons.org/ns#"
   xmlns:rdf="http://www.w3.org/1999/02/22-rdf-syntax-ns#"
   xmlns:svg="http://www.w3.org/2000/svg"
   xmlns="http://www.w3.org/2000/svg"
   xmlns:sodipodi="http://sodipodi.sourceforge.net/DTD/sodipodi-0.dtd"
   xmlns:inkscape="http://www.inkscape.org/namespaces/inkscape"
   version="1.1"
   id="svg1025"
   xml:space="preserve"
   width="680.63995"
   height="368.16"
   viewBox="0 0 680.63995 368.16"
   sodipodi:docname="App_Store_Referral_Sources_Prior_Year.svg"
   inkscape:version="0.92.3 (2405546, 2018-03-11)"><metadata
     id="metadata1031"><rdf:RDF><cc:Work
         rdf:about=""><dc:format>image/svg+xml</dc:format><dc:type
           rdf:resource="http://purl.org/dc/dcmitype/StillImage" /><dc:title></dc:title></cc:Work></rdf:RDF></metadata><defs
     id="defs1029"><clipPath
       clipPathUnits="userSpaceOnUse"
       id="clipPath1183"><path
         d="M 50.64,534.12 V 257.88 h 510.72 v 276.24 z"
         id="path1181"
         inkscape:connector-curvature="0"
         style="clip-rule:evenodd" /></clipPath></defs><sodipodi:namedview
     pagecolor="#ffffff"
     bordercolor="#666666"
     borderopacity="1"
     objecttolerance="10"
     gridtolerance="10"
     guidetolerance="10"
     inkscape:pageopacity="0"
     inkscape:pageshadow="2"
     inkscape:window-width="640"
     inkscape:window-height="480"
     id="namedview1027"
     showgrid="false"
     inkscape:zoom="0.22348485"
     inkscape:cx="340.16"
     inkscape:cy="184.16001"
     inkscape:window-x="0"
     inkscape:window-y="0"
     inkscape:window-maximized="0"
     inkscape:current-layer="g1033" /><g
     id="g1033"
     inkscape:groupmode="layer"
     inkscape:label="App_Store_Referral_Sources_Prior_Year"
     transform="matrix(1.3333333,0,0,-1.3333333,-67.839998,711.99998)"><path
       d="m 51.12,258.12 h 510 v 275.52 h -510 z"
       style="fill:#ffffff;fill-opacity:1;fill-rule:nonzero;stroke:none"
       id="path1035"
       inkscape:connector-curvature="0" /><path
       d="m 306.12,476.52 c 54,0 97.8,-43.8 97.8,-97.8 0,-11.88 -2.16,-23.76 -6.48,-34.92 l -91.32,34.92 z"
       style="fill:#4572a7;fill-opacity:1;fill-rule:evenodd;stroke:none"
       id="path1037"
       inkscape:connector-curvature="0" /><path
       d="m 397.44,343.8 c -10.32,-27 -32.04,-48 -59.28,-57.36 l -32.04,92.28 z"
       style="fill:#aa4643;fill-opacity:1;fill-rule:evenodd;stroke:none"
       id="path1039"
       inkscape:connector-curvature="0" /><path
       d="m 338.16,286.44 c -21.72,-7.56 -45.36,-7.2 -66.96,0.96 l 34.92,91.32 z"
       style="fill:#89a54e;fill-opacity:1;fill-rule:evenodd;stroke:none"
       id="path1041"
       inkscape:connector-curvature="0" /><path
       d="m 271.2,287.4 c -5.4,2.16 -10.68,4.68 -15.72,7.8 l 50.64,83.52 z"
       style="fill:#71588f;fill-opacity:1;fill-rule:evenodd;stroke:none"
       id="path1043"
       inkscape:connector-curvature="0" /><path
       d="m 255.48,295.2 c -3.84,2.28 -7.56,4.92 -11.16,7.8 l 61.8,75.72 z"
       style="fill:#4198af;fill-opacity:1;fill-rule:evenodd;stroke:none"
       id="path1045"
       inkscape:connector-curvature="0" /><path
       d="m 244.32,303 c -2.28,1.92 -4.56,3.96 -6.72,6.12 l 68.52,69.6 z"
       style="fill:#db843d;fill-opacity:1;fill-rule:evenodd;stroke:none"
       id="path1047"
       inkscape:connector-curvature="0" /><path
       d="m 237.6,309.12 c -1.56,1.56 -3.12,3.12 -4.56,4.68 l 73.08,64.92 z"
       style="fill:#93a9cf;fill-opacity:1;fill-rule:evenodd;stroke:none"
       id="path1049"
       inkscape:connector-curvature="0" /><path
       d="m 233.04,313.8 c -1.08,1.2 -2.16,2.52 -3.12,3.84 l 76.2,61.08 z"
       style="fill:#d19392;fill-opacity:1;fill-rule:evenodd;stroke:none"
       id="path1051"
       inkscape:connector-curvature="0" /><path
       d="m 229.92,317.64 c -0.36,0.48 -0.84,0.96 -1.2,1.44 l 77.4,59.64 z"
       style="fill:#b9cd96;fill-opacity:1;fill-rule:evenodd;stroke:none"
       id="path1053"
       inkscape:connector-curvature="0" /><path
       d="m 228.72,319.08 c -0.24,0.36 -0.6,0.84 -0.96,1.2 l 78.36,58.44 z"
       style="fill:#a99bbd;fill-opacity:1;fill-rule:evenodd;stroke:none"
       id="path1055"
       inkscape:connector-curvature="0" /><path
       d="m 227.76,320.28 c -32.28,43.32 -23.28,104.64 19.92,136.92 16.92,12.6 37.44,19.32 58.44,19.32 v -97.8 z"
       style="fill:#91c3d5;fill-opacity:1;fill-rule:evenodd;stroke:none"
       id="path1057"
       inkscape:connector-curvature="0" /><path
       d="m 386.64,434.4 30.72,20.88 c 0,0 0.12,0 0.12,0 h 3.24 v -0.48 h -3.24 0.24 l -30.84,-20.88 z"
       style="fill:#000000;fill-opacity:1;fill-rule:nonzero;stroke:none"
       id="path1059"
       inkscape:connector-curvature="0" /><path
       d="m 374.28,308.76 29.16,-11.64 h -0.12 3.24 v -0.48 h -3.24 c 0,0 0,0 -0.12,0 l -29.16,11.64 z"
       style="fill:#000000;fill-opacity:1;fill-rule:nonzero;stroke:none"
       id="path1061"
       inkscape:connector-curvature="0" /><path
       d="m 304.68,281.28 52.92,-9.72 v 0.12 h 3.24 v -0.6 h -3.24 c 0,0 0,0 0,0 l -53.04,9.72 z"
       style="fill:#000000;fill-opacity:1;fill-rule:nonzero;stroke:none"
       id="path1063"
       inkscape:connector-curvature="0" /><path
       d="m 263.4,291 6.12,-19.56 -0.24,0.24 h 3.12 v -0.6 h -3.12 c -0.12,0 -0.24,0.12 -0.24,0.24 l -6.12,19.56 z"
       style="fill:#000000;fill-opacity:1;fill-rule:nonzero;stroke:none"
       id="path1065"
       inkscape:connector-curvature="0" /><path
       d="m 250.08,298.92 -2.76,-23.76 c 0,-0.12 -0.12,-0.24 -0.36,-0.24 h -3.12 v 0.6 h 3.12 l -0.24,-0.24 2.76,23.64 z"
       style="fill:#000000;fill-opacity:1;fill-rule:nonzero;stroke:none"
       id="path1067"
       inkscape:connector-curvature="0" /><path
       d="m 241.08,305.76 -36.96,-26.88 c -0.12,0 -0.12,-0.12 -0.12,-0.12 h -3.24 v 0.6 H 204 l -0.24,-0.12 36.96,27 z"
       style="fill:#000000;fill-opacity:1;fill-rule:nonzero;stroke:none"
       id="path1069"
       inkscape:connector-curvature="0" /><path
       d="m 235.32,311.16 -46.8,-17.88 c -0.12,0 -0.12,0 -0.12,0 h -3.24 v 0.6 h 3.24 l -0.12,-0.12 46.92,17.88 z"
       style="fill:#000000;fill-opacity:1;fill-rule:nonzero;stroke:none"
       id="path1071"
       inkscape:connector-curvature="0" /><path
       d="m 231.48,315.36 -76.8,-3.96 h -3.24 v 0.48 h 3.24 l 76.8,4.08 z"
       style="fill:#000000;fill-opacity:1;fill-rule:nonzero;stroke:none"
       id="path1073"
       inkscape:connector-curvature="0" /><path
       d="m 229.2,318.12 -51.36,18.96 h 0.12 -3.12 v 0.6 h 3.12 c 0,0 0.12,0 0.12,0 l 51.36,-19.08 z"
       style="fill:#000000;fill-opacity:1;fill-rule:nonzero;stroke:none"
       id="path1075"
       inkscape:connector-curvature="0" /><path
       d="m 228.12,319.44 -54.96,42.96 0.12,-0.12 h -3.24 v 0.6 h 3.24 c 0,0 0.12,0 0.12,-0.12 l 55.08,-42.84 z"
       style="fill:#000000;fill-opacity:1;fill-rule:nonzero;stroke:none"
       id="path1077"
       inkscape:connector-curvature="0" /><path
       d="m 218.64,422.4 -26.28,19.56 0.12,-0.12 h -3.12 v 0.6 h 3.12 c 0.12,0 0.12,0 0.12,-0.12 l 26.28,-19.44 z"
       style="fill:#000000;fill-opacity:1;fill-rule:nonzero;stroke:none"
       id="path1079"
       inkscape:connector-curvature="0" /><text
       transform="matrix(1,0,0,-1,421.89873,455.01595)"
       style="font-variant:normal;font-weight:normal;font-size:7.09299994px;font-family:Calibri;-inkscape-font-specification:Calibri;writing-mode:lr-tb;fill:#000000;fill-opacity:1;fill-rule:nonzero;stroke:none"
       id="text1083"><tspan
         x="0 3.3408029 7.078814 10.816825 14.157628 15.781925"
         y="0"
         sodipodi:role="line"
         id="tspan1081">google</tspan></text>
<text
       transform="matrix(1,0,0,-1,425.3814,446.2561)"
       style="font-variant:normal;font-weight:normal;font-size:7.09299994px;font-family:Calibri;-inkscape-font-specification:Calibri;writing-mode:lr-tb;fill:#000000;fill-opacity:1;fill-rule:nonzero;stroke:none"
       id="text1087"><tspan
         x="0 3.5961511 7.1923022"
         y="0"
         sodipodi:role="line"
         id="tspan1085">31%</tspan></text>
<text
       transform="matrix(1,0,0,-1,407.7411,296.86333)"
       style="font-variant:normal;font-weight:normal;font-size:7.09299994px;font-family:Calibri;-inkscape-font-specification:Calibri;writing-mode:lr-tb;fill:#000000;fill-opacity:1;fill-rule:nonzero;stroke:none"
       id="text1091"><tspan
         x="0 3.000339 6.2134681 8.5896235 12.327634 15.100997 18.101336 21.498882 25.318811 28.851126 30.638561 34.376572 36.852028"
         y="0"
         sodipodi:role="line"
         id="tspan1089">cytoscape.org</tspan></text>
<text
       transform="matrix(1,0,0,-1,421.65757,288.10347)"
       style="font-variant:normal;font-weight:normal;font-size:7.09299994px;font-family:Calibri;-inkscape-font-specification:Calibri;writing-mode:lr-tb;fill:#000000;fill-opacity:1;fill-rule:nonzero;stroke:none"
       id="text1095"><tspan
         x="0 3.5961511 7.1923022"
         y="0"
         sodipodi:role="line"
         id="tspan1093">14%</tspan></text>
<text
       transform="matrix(1,0,0,-1,361.90614,269.74679)"
       style="font-variant:normal;font-weight:normal;font-size:7.09299994px;font-family:Calibri;-inkscape-font-specification:Calibri;writing-mode:lr-tb;fill:#000000;fill-opacity:1;fill-rule:nonzero;stroke:none"
       id="text1099"><tspan
         x="0 2.149179 5.873004 7.5596414 10.035098 13.567412 16.567751 18.943907"
         y="0"
         sodipodi:role="line"
         id="tspan1097">(direct)</tspan></text>
<text
       transform="matrix(1,0,0,-1,366.33926,260.98694)"
       style="font-variant:normal;font-weight:normal;font-size:7.09299994px;font-family:Calibri;-inkscape-font-specification:Calibri;writing-mode:lr-tb;fill:#000000;fill-opacity:1;fill-rule:nonzero;stroke:none"
       id="text1103"><tspan
         x="0 3.5961511 7.0796652"
         y="0"
         sodipodi:role="line"
         id="tspan1101">11%</tspan></text>
<text
       transform="matrix(1,0,0,-1,273.5841,270.58376)"
       style="font-variant:normal;font-weight:normal;font-size:7.09299994px;font-family:Calibri;-inkscape-font-specification:Calibri;writing-mode:lr-tb;fill:#000000;fill-opacity:1;fill-rule:nonzero;stroke:none"
       id="text1107"><tspan
         x="0 3.3408029 6.873117 10.596942 14.039338 19.706646 23.104193 26.828016 28.558653 31.9562 33.743637 37.558228 39.958118"
         y="0"
         sodipodi:role="line"
         id="tspan1105">genemania.org</tspan></text>
<text
       transform="matrix(1,0,0,-1,290.98323,261.831)"
       style="font-variant:normal;font-weight:normal;font-size:7.09299994px;font-family:Calibri;-inkscape-font-specification:Calibri;writing-mode:lr-tb;fill:#000000;fill-opacity:1;fill-rule:nonzero;stroke:none"
       id="text1111"><tspan
         x="0 3.47984"
         y="0"
         sodipodi:role="line"
         id="tspan1109">3%</tspan></text>
<text
       transform="matrix(1,0,0,-1,226.42984,275.14456)"
       style="font-variant:normal;font-weight:normal;font-size:7.09299994px;font-family:Calibri;-inkscape-font-specification:Calibri;writing-mode:lr-tb;fill:#000000;fill-opacity:1;fill-rule:nonzero;stroke:none"
       id="text1115"><tspan
         x="0 3.8398168 7.2373638 8.861661 12.585485"
         y="0"
         sodipodi:role="line"
         id="tspan1113">baidu</tspan></text>
<text
       transform="matrix(1,0,0,-1,230.26715,266.50529)"
       style="font-variant:normal;font-weight:normal;font-size:7.09299994px;font-family:Calibri;-inkscape-font-specification:Calibri;writing-mode:lr-tb;fill:#000000;fill-opacity:1;fill-rule:nonzero;stroke:none"
       id="text1119"><tspan
         x="0 3.5961511"
         y="0"
         sodipodi:role="line"
         id="tspan1117">2%</tspan></text>
<text
       transform="matrix(1,0,0,-1,168.95526,278.98897)"
       style="font-variant:normal;font-weight:normal;font-size:7.09299994px;font-family:Calibri;-inkscape-font-specification:Calibri;writing-mode:lr-tb;fill:#000000;fill-opacity:1;fill-rule:nonzero;stroke:none"
       id="text1123"><tspan
         x="0 3.3408029 7.078814 10.919489 14.159337 15.783634 19.315948 20.999018 23.999357 27.838699"
         y="0"
         sodipodi:role="line"
         id="tspan1121">google cpc</tspan></text>
<text
       transform="matrix(1,0,0,-1,179.99197,270.34969)"
       style="font-variant:normal;font-weight:normal;font-size:7.09299994px;font-family:Calibri;-inkscape-font-specification:Calibri;writing-mode:lr-tb;fill:#000000;fill-opacity:1;fill-rule:nonzero;stroke:none"
       id="text1127"><tspan
         x="0 3.5961511"
         y="0"
         sodipodi:role="line"
         id="tspan1125">2%</tspan></text>
<text
       transform="matrix(1,0,0,-1,119.39647,293.50834)"
       style="font-variant:normal;font-weight:normal;font-size:7.09299994px;font-family:Calibri;-inkscape-font-specification:Calibri;writing-mode:lr-tb;fill:#000000;fill-opacity:1;fill-rule:nonzero;stroke:none"
       id="text1131"><tspan
         x="0 3.723825 7.1996646 9.4795609 13.319377 18.390873 21.718987 24.932116 27.932453 31.798515 37.46582 43.133129 46.797813 50.521637 53.295002 55.082436 58.820446 61.295906"
         y="0"
         sodipodi:role="line"
         id="tspan1129">pathwaycommons.org</tspan></text>
<text
       transform="matrix(1,0,0,-1,147.34998,284.74849)"
       style="font-variant:normal;font-weight:normal;font-size:7.09299994px;font-family:Calibri;-inkscape-font-specification:Calibri;writing-mode:lr-tb;fill:#000000;fill-opacity:1;fill-rule:nonzero;stroke:none"
       id="text1135"><tspan
         x="0 3.5961511"
         y="0"
         sodipodi:role="line"
         id="tspan1133">1%</tspan></text>
<text
       transform="matrix(1,0,0,-1,137.99431,311.62386)"
       style="font-variant:normal;font-weight:normal;font-size:7.09299994px;font-family:Calibri;-inkscape-font-specification:Calibri;writing-mode:lr-tb;fill:#000000;fill-opacity:1;fill-rule:nonzero;stroke:none"
       id="text1139"><tspan
         x="0 3.723825 5.3481221 9.0719471"
         y="0"
         sodipodi:role="line"
         id="tspan1137">bing</tspan></text>
<text
       transform="matrix(1,0,0,-1,139.79594,302.86401)"
       style="font-variant:normal;font-weight:normal;font-size:7.09299994px;font-family:Calibri;-inkscape-font-specification:Calibri;writing-mode:lr-tb;fill:#000000;fill-opacity:1;fill-rule:nonzero;stroke:none"
       id="text1143"><tspan
         x="0 3.5961511"
         y="0"
         sodipodi:role="line"
         id="tspan1141">1%</tspan></text>
<text
       transform="matrix(1,0,0,-1,110.15429,337.30761)"
       style="font-variant:normal;font-weight:normal;font-size:7.09299994px;font-family:Calibri;-inkscape-font-specification:Calibri;writing-mode:lr-tb;fill:#000000;fill-opacity:1;fill-rule:nonzero;stroke:none"
       id="text1147"><tspan
         x="0 5.6673069 8.9995775 12.839394 16.563219 19.960766 21.585062 23.372499 26.372837 29.585966 32.038494 35.776505 38.549866 41.550205 44.877888 48.717705 52.250015 54.037453 57.775463 60.250919"
         y="0"
         sodipodi:role="line"
         id="tspan1145">manual.cytoscape.org</tspan></text>
<text
       transform="matrix(1,0,0,-1,137.51199,328.66125)"
       style="font-variant:normal;font-weight:normal;font-size:7.09299994px;font-family:Calibri;-inkscape-font-specification:Calibri;writing-mode:lr-tb;fill:#000000;fill-opacity:1;fill-rule:nonzero;stroke:none"
       id="text1151"><tspan
         x="0 3.5961511"
         y="0"
         sodipodi:role="line"
         id="tspan1149">0%</tspan></text>
<text
       transform="matrix(1,0,0,-1,114.11218,362.50195)"
       style="font-variant:normal;font-weight:normal;font-size:7.09299994px;font-family:Calibri;-inkscape-font-specification:Calibri;writing-mode:lr-tb;fill:#000000;fill-opacity:1;fill-rule:nonzero;stroke:none"
       id="text1155"><tspan
         x="0 5.6673069 9.1195698 11.495725 14.269088 17.269426 20.666973 24.478851 28.011166 29.798601 33.522427 36.522766 38.14706 41.870888 43.495182 45.282619 49.02063 51.496086"
         y="0"
         sodipodi:role="line"
         id="tspan1153">metscape.ncibi.org</tspan></text>
<text
       transform="matrix(1,0,0,-1,137.15025,353.86268)"
       style="font-variant:normal;font-weight:normal;font-size:7.09299994px;font-family:Calibri;-inkscape-font-specification:Calibri;writing-mode:lr-tb;fill:#000000;fill-opacity:1;fill-rule:nonzero;stroke:none"
       id="text1159"><tspan
         x="0 3.5961511"
         y="0"
         sodipodi:role="line"
         id="tspan1157">0%</tspan></text>
<text
       transform="matrix(1,0,0,-1,174.23245,450.81689)"
       style="font-variant:normal;font-weight:normal;font-size:7.09299994px;font-family:Calibri;-inkscape-font-specification:Calibri;writing-mode:lr-tb;fill:#000000;fill-opacity:1;fill-rule:nonzero;stroke:none"
       id="text1163"><tspan
         x="0 3.7380109 6.1141658 9.8379908 13.439369"
         y="0"
         sodipodi:role="line"
         id="tspan1161">other</tspan></text>
<text
       transform="matrix(1,0,0,-1,176.03407,442.05704)"
       style="font-variant:normal;font-weight:normal;font-size:7.09299994px;font-family:Calibri;-inkscape-font-specification:Calibri;writing-mode:lr-tb;fill:#000000;fill-opacity:1;fill-rule:nonzero;stroke:none"
       id="text1167"><tspan
         x="0 3.5961511 7.1923022"
         y="0"
         sodipodi:role="line"
         id="tspan1165">35%</tspan></text>
<text
       transform="matrix(1,0,0,-1,212.27142,521.01744)"
       style="font-variant:normal;font-weight:normal;font-size:11.36600018px;font-family:Calibri;-inkscape-font-specification:'Calibri Bold';writing-mode:lr-tb;fill:#000000;fill-opacity:1;fill-rule:nonzero;stroke:none"
       id="text1171"><tspan
         x="0 6.9597425 12.959514 19.063055 21.719187 27.095304 30.958836 37.073746 41.038456 46.678242 49.318142 55.557907 61.197693 64.557564 70.274658 74.309593 78.11705 83.731857 86.527893 89.156647 94.532761 100.79621 106.79598 110.63583 115.38683 121.19544 125.63528 128.39517 131.87503 137.51483 143.27739 149.03995 151.97238 157.67407 163.43663 169.07365 172.55351"
         y="0"
         sodipodi:role="line"
         id="tspan1169">App Store Referral Sources (157,656) </tspan></text>
<text
       transform="matrix(1,0,0,-1,226.43345,507.10546)"
       style="font-variant:normal;font-weight:normal;font-size:11.36600018px;font-family:Calibri;-inkscape-font-specification:'Calibri Bold';writing-mode:lr-tb;fill:#000000;fill-opacity:1;fill-rule:nonzero;stroke:none"
       id="text1175"><tspan
         x="0 3.4798713 9.2424335 14.129813 19.799265 24.686646 30.449207 36.11866 41.881222 47.643784 50.638111 54.477966 60.581509 64.437592 70.552498 76.656044 82.043526 88.076706 90.836594 96.599159 101.3962 107.15876 112.92133 117.71559 123.47816 129.24072 135.00328 140.76584"
         y="0"
         sodipodi:role="line"
         id="tspan1173">(1/1/2017 through 1/19/2018)</tspan></text>
<g
       id="g1177"><g
         id="g1179"
         clip-path="url(#clipPath1183)"><path
           d="m 50.88,533.64 c 0,0.24 0.12,0.36 0.24,0.36 h 510 c 0.24,0 0.36,-0.12 0.36,-0.36 V 258.12 c 0,-0.24 -0.12,-0.36 -0.36,-0.36 h -510 c -0.12,0 -0.24,0.12 -0.24,0.36 z m 0.48,-275.52 -0.24,0.24 h 510 l -0.24,-0.24 v 275.52 l 0.24,-0.24 h -510 l 0.24,0.24 z"
           style="fill:#868686;fill-opacity:1;fill-rule:nonzero;stroke:none"
           id="path1185"
           inkscape:connector-curvature="0" /></g></g></g></svg>