<?xml version="1.0" encoding="UTF-8" standalone="no"?>
<!-- Created with Inkscape (http://www.inkscape.org/) -->

<svg
   xmlns:dc="http://purl.org/dc/elements/1.1/"
   xmlns:cc="http://creativecommons.org/ns#"
   xmlns:rdf="http://www.w3.org/1999/02/22-rdf-syntax-ns#"
   xmlns:svg="http://www.w3.org/2000/svg"
   xmlns="http://www.w3.org/2000/svg"
   xmlns:sodipodi="http://sodipodi.sourceforge.net/DTD/sodipodi-0.dtd"
   xmlns:inkscape="http://www.inkscape.org/namespaces/inkscape"
   version="1.1"
   id="svg761"
   xml:space="preserve"
   width="680.63995"
   height="460"
   viewBox="0 0 680.63995 460"
   sodipodi:docname="App_Store_Attractions_By_Category_Prior_Year.svg"
   inkscape:version="0.92.3 (2405546, 2018-03-11)"><metadata
     id="metadata767"><rdf:RDF><cc:Work
         rdf:about=""><dc:format>image/svg+xml</dc:format><dc:type
           rdf:resource="http://purl.org/dc/dcmitype/StillImage" /><dc:title></dc:title></cc:Work></rdf:RDF></metadata><defs
     id="defs765"><clipPath
       clipPathUnits="userSpaceOnUse"
       id="clipPath859"><path
         d="M 50.64,568.68 V 223.44 h 510.72 v 345.24 z"
         id="path857"
         inkscape:connector-curvature="0"
         style="clip-rule:evenodd" /></clipPath></defs><sodipodi:namedview
     pagecolor="#ffffff"
     bordercolor="#666666"
     borderopacity="1"
     objecttolerance="10"
     gridtolerance="10"
     guidetolerance="10"
     inkscape:pageopacity="0"
     inkscape:pageshadow="2"
     inkscape:window-width="640"
     inkscape:window-height="480"
     id="namedview763"
     showgrid="false"
     inkscape:zoom="0.22348485"
     inkscape:cx="340.16"
     inkscape:cy="230.08001"
     inkscape:window-x="0"
     inkscape:window-y="0"
     inkscape:window-maximized="0"
     inkscape:current-layer="g769" /><g
     id="g769"
     inkscape:groupmode="layer"
     inkscape:label="App_Store_Attractions_By_Category_Prior_Year"
     transform="matrix(1.3333333,0,0,-1.3333333,-67.839998,757.91998)"><path
       d="M 51.24,223.8 H 561 V 568.08 H 51.24 Z"
       style="fill:#ffffff;fill-opacity:1;fill-rule:nonzero;stroke:none"
       id="path771"
       inkscape:connector-curvature="0" /><path
       d="m 306.12,485.76 c 63.72,0 115.56,-51.24 116.4,-114.84 l -116.4,-1.56 z"
       style="fill:#4572a7;fill-opacity:1;fill-rule:evenodd;stroke:none"
       id="path773"
       inkscape:connector-curvature="0" /><path
       d="M 422.52,370.92 C 423.12,326.28 398.04,285.24 358.2,265.2 L 306.12,369.36 Z"
       style="fill:#aa4643;fill-opacity:1;fill-rule:evenodd;stroke:none"
       id="path775"
       inkscape:connector-curvature="0" /><path
       d="m 358.2,265.2 c -35.64,-17.76 -77.76,-16.08 -111.84,4.32 l 59.76,99.84 z"
       style="fill:#89a54e;fill-opacity:1;fill-rule:evenodd;stroke:none"
       id="path777"
       inkscape:connector-curvature="0" /><path
       d="m 246.36,269.52 c -32.52,19.44 -53.4,53.52 -56.28,91.2 l 116.04,8.64 z"
       style="fill:#71588f;fill-opacity:1;fill-rule:evenodd;stroke:none"
       id="path779"
       inkscape:connector-curvature="0" /><path
       d="m 190.08,360.72 c -2.4,33 9.24,65.4 32.16,89.28 l 83.88,-80.64 z"
       style="fill:#4198af;fill-opacity:1;fill-rule:evenodd;stroke:none"
       id="path781"
       inkscape:connector-curvature="0" /><path
       d="m 222.24,450 c 21.96,22.8 52.2,35.76 83.88,35.76 v -116.4 z"
       style="fill:#db843d;fill-opacity:1;fill-rule:evenodd;stroke:none"
       id="path783"
       inkscape:connector-curvature="0" /><path
       d="m 387.48,452.28 3.84,21.72 c 0.12,0.24 0.24,0.36 0.36,0.36 h 4.56 v -0.72 h -4.56 l 0.48,0.24 -3.96,-21.72 z"
       style="fill:#000000;fill-opacity:1;fill-rule:nonzero;stroke:none"
       id="path785"
       inkscape:connector-curvature="0" /><path
       d="m 405.72,309.12 18,-14.16 -0.24,0.12 h 4.56 v -0.84 h -4.56 c 0,0 -0.12,0.12 -0.24,0.12 l -18,14.16 z"
       style="fill:#000000;fill-opacity:1;fill-rule:nonzero;stroke:none"
       id="path787"
       inkscape:connector-curvature="0" /><path
       d="m 301.92,252.72 -11.4,-8.28 c -0.12,0 -0.24,0 -0.24,0 h -4.44 v 0.72 h 4.44 -0.24 l 11.4,8.28 z"
       style="fill:#000000;fill-opacity:1;fill-rule:nonzero;stroke:none"
       id="path789"
       inkscape:connector-curvature="0" /><path
       d="m 207.24,307.92 -16.68,-6.24 c 0,0 -0.12,0 -0.12,0 h -4.56 v 0.72 h 4.56 -0.12 l 16.68,6.24 z"
       style="fill:#000000;fill-opacity:1;fill-rule:nonzero;stroke:none"
       id="path791"
       inkscape:connector-curvature="0" /><path
       d="m 196.44,408.48 -17.52,9.48 h 0.24 -4.56 v 0.72 h 4.56 c 0,0 0.12,0 0.12,0 l 17.52,-9.6 z"
       style="fill:#000000;fill-opacity:1;fill-rule:nonzero;stroke:none"
       id="path793"
       inkscape:connector-curvature="0" /><path
       d="m 260.4,476.04 -16.56,9 0.12,-0.12 h -4.44 v 0.84 h 4.44 c 0.12,0 0.12,0 0.24,-0.12 l 16.56,-8.88 z"
       style="fill:#000000;fill-opacity:1;fill-rule:nonzero;stroke:none"
       id="path795"
       inkscape:connector-curvature="0" /><text
       transform="matrix(1,0,0,-1,397.80134,474.00796)"
       style="font-variant:normal;font-weight:normal;font-size:9.99300003px;font-family:Calibri;-inkscape-font-specification:Calibri;writing-mode:lr-tb;fill:#000000;fill-opacity:1;fill-rule:nonzero;stroke:none"
       id="text799"><tspan
         x="0 6.1456952 10.932342 14.400183 19.186831 24.852861 27.141258 30.960392 36.206718 40.993366 43.281761 45.57016 49.68063 54.467278 57.81493 60.103329 65.369637"
         y="0"
         sodipodi:role="line"
         id="tspan797">DataVisualization</tspan></text>
<text
       transform="matrix(1,0,0,-1,424.5626,461.64662)"
       style="font-variant:normal;font-weight:normal;font-size:9.99300003px;font-family:Calibri;-inkscape-font-specification:Calibri;writing-mode:lr-tb;fill:#000000;fill-opacity:1;fill-rule:nonzero;stroke:none"
       id="text803"><tspan
         x="0 5.0664511 10.132902"
         y="0"
         sodipodi:role="line"
         id="tspan801">25%</tspan></text>
<text
       transform="matrix(1,0,0,-1,429.72898,294.60363)"
       style="font-variant:normal;font-weight:normal;font-size:9.99300003px;font-family:Calibri;-inkscape-font-specification:Calibri;writing-mode:lr-tb;fill:#000000;fill-opacity:1;fill-rule:nonzero;stroke:none"
       id="text807"><tspan
         x="0 6.4554782 11.431992 14.779647 21.840281 27.106592 30.72039 35.267204 41.053154 46.299477 51.086124 53.374523 57.901352 61.808613 64.097008"
         y="0"
         sodipodi:role="line"
         id="tspan805">NetworkAnalysis</tspan></text>
<text
       transform="matrix(1,0,0,-1,455.04125,282.36221)"
       style="font-variant:normal;font-weight:normal;font-size:9.99300003px;font-family:Calibri;-inkscape-font-specification:Calibri;writing-mode:lr-tb;fill:#000000;fill-opacity:1;fill-rule:nonzero;stroke:none"
       id="text811"><tspan
         x="0 5.1600657 10.226517"
         y="0"
         sodipodi:role="line"
         id="tspan809">18%</tspan></text>
<text
       transform="matrix(1,0,0,-1,202.91786,244.79852)"
       style="font-variant:normal;font-weight:normal;font-size:9.99300003px;font-family:Calibri;-inkscape-font-specification:Calibri;writing-mode:lr-tb;fill:#000000;fill-opacity:1;fill-rule:nonzero;stroke:none"
       id="text815"><tspan
         x="0 6.6000867 11.576601 14.924255 21.960287 27.226599 30.714155 35.260971 41.640541 46.617054 51.86338 56.760738 60.248295 65.034943 68.382599 70.670998 76.080986"
         y="0"
         sodipodi:role="line"
         id="tspan813">NetworkGeneration</tspan></text>
<text
       transform="matrix(1,0,0,-1,234.96541,232.56709)"
       style="font-variant:normal;font-weight:normal;font-size:9.99300003px;font-family:Calibri;-inkscape-font-specification:Calibri;writing-mode:lr-tb;fill:#000000;fill-opacity:1;fill-rule:nonzero;stroke:none"
       id="text819"><tspan
         x="0 5.0664511 10.200135"
         y="0"
         sodipodi:role="line"
         id="tspan817">16%</tspan></text>
<text
       transform="matrix(1,0,0,-1,143.51947,302.04842)"
       style="font-variant:normal;font-weight:normal;font-size:9.99300003px;font-family:Calibri;-inkscape-font-specification:Calibri;writing-mode:lr-tb;fill:#000000;fill-opacity:1;fill-rule:nonzero;stroke:none"
       id="text823"><tspan
         x="0 5.3262691 7.614666 12.960172 16.800222 20.147877 25.124392 28.611948 30.900345 36.146671"
         y="0"
         sodipodi:role="line"
         id="tspan821">Clustering</tspan></text>
<text
       transform="matrix(1,0,0,-1,155.40114,289.68708)"
       style="font-variant:normal;font-weight:normal;font-size:9.99300003px;font-family:Calibri;-inkscape-font-specification:Calibri;writing-mode:lr-tb;fill:#000000;fill-opacity:1;fill-rule:nonzero;stroke:none"
       id="text827"><tspan
         x="0 5.0664511 10.132902"
         y="0"
         sodipodi:role="line"
         id="tspan825">15%</tspan></text>
<text
       transform="matrix(1,0,0,-1,93.244683,418.32697)"
       style="font-variant:normal;font-weight:normal;font-size:9.99300003px;font-family:Calibri;-inkscape-font-specification:Calibri;writing-mode:lr-tb;fill:#000000;fill-opacity:1;fill-rule:nonzero;stroke:none"
       id="text831"><tspan
         x="0 4.8765841 10.200135 13.687692 15.976089 20.280264 25.526588 33.510998 38.400501 43.646828 46.99448 52.780426 58.20076 62.987408 65.275803 69.802635 73.7099 75.998291"
         y="0"
         sodipodi:role="line"
         id="tspan829">EnrichmentAnalysis</tspan></text>
<text
       transform="matrix(1,0,0,-1,124.56275,405.96563)"
       style="font-variant:normal;font-weight:normal;font-size:9.99300003px;font-family:Calibri;-inkscape-font-specification:Calibri;writing-mode:lr-tb;fill:#000000;fill-opacity:1;fill-rule:nonzero;stroke:none"
       id="text835"><tspan
         x="0 5.0664511 10.132902"
         y="0"
         sodipodi:role="line"
         id="tspan833">13%</tspan></text>
<text
       transform="matrix(1,0,0,-1,215.63895,497.6514)"
       style="font-variant:normal;font-weight:normal;font-size:9.99300003px;font-family:Calibri;-inkscape-font-specification:Calibri;writing-mode:lr-tb;fill:#000000;fill-opacity:1;fill-rule:nonzero;stroke:none"
       id="text839"><tspan
         x="0 4.1970601 8.9837074 13.510536 18.840242 24.240311"
         y="0"
         sodipodi:role="line"
         id="tspan837">Layout</tspan></text>
<text
       transform="matrix(1,0,0,-1,220.80533,485.29006)"
       style="font-variant:normal;font-weight:normal;font-size:9.99300003px;font-family:Calibri;-inkscape-font-specification:Calibri;writing-mode:lr-tb;fill:#000000;fill-opacity:1;fill-rule:nonzero;stroke:none"
       id="text843"><tspan
         x="0 5.0664511 10.132902"
         y="0"
         sodipodi:role="line"
         id="tspan841">13%</tspan></text>
<text
       transform="matrix(1,0,0,-1,131.0361,543.23278)"
       style="font-variant:normal;font-weight:normal;font-size:18.05900002px;font-family:Calibri;-inkscape-font-specification:'Calibri Bold';writing-mode:lr-tb;fill:#000000;fill-opacity:1;fill-rule:nonzero;stroke:none"
       id="text847"><tspan
         x="0 7.3198366 17.159607 26.85729 30.8393 41.783054 51.598843 61.296528 65.278534 73.820442 79.918205 89.75798 95.877846 104.96152 108.95755 119.27731 125.39718 131.66365 137.6369 146.55804 154.1067 160.43639 164.87891 174.59465 184.29233 191.49786 195.57921 205.19539 213.75536 217.83669 227.2749 236.19604 242.15456 251.23824 259.67416 269.51395 275.9938 284.55377 288.47354 294.10794 303.26385 312.41977 317.15289 326.30881 335.39246 344.63226 350.26666"
         y="0"
         sodipodi:role="line"
         id="tspan845">Top App Store Attractions by Category (52,564) </tspan></text>
<text
       transform="matrix(1,0,0,-1,191.64211,521.27304)"
       style="font-variant:normal;font-weight:normal;font-size:18.05900002px;font-family:Calibri;-inkscape-font-specification:'Calibri Bold';writing-mode:lr-tb;fill:#000000;fill-opacity:1;fill-rule:nonzero;stroke:none"
       id="text851"><tspan
         x="0 5.634408 14.790321 22.439499 31.679296 39.359119 48.515034 57.598709 66.838509 75.994423 80.158211 86.424683 96.122368 102.3577 112.07345 121.77113 130.3311 140.15686 143.99678 153.15269 160.7964 170.03619 179.19211 186.83582 195.99173 205.07541 214.3152 223.47112"
         y="0"
         sodipodi:role="line"
         id="tspan849">(1/1/2017 through 1/19/2018)</tspan></text>
<g
       id="g853"><g
         id="g855"
         clip-path="url(#clipPath859)"><path
           d="m 50.88,568.08 c 0,0.24 0.12,0.36 0.36,0.36 H 561 c 0.24,0 0.36,-0.12 0.36,-0.36 V 223.8 c 0,-0.24 -0.12,-0.48 -0.36,-0.48 H 51.24 c -0.24,0 -0.36,0.24 -0.36,0.48 z M 51.6,223.8 51.24,224.16 H 561 l -0.36,-0.36 V 568.08 L 561,567.72 H 51.24 l 0.36,0.36 z"
           style="fill:#868686;fill-opacity:1;fill-rule:nonzero;stroke:none"
           id="path861"
           inkscape:connector-curvature="0" /></g></g></g></svg>