<?xml version="1.0" encoding="UTF-8" standalone="no"?>
<!-- Created with Inkscape (http://www.inkscape.org/) -->

<svg
   xmlns:dc="http://purl.org/dc/elements/1.1/"
   xmlns:cc="http://creativecommons.org/ns#"
   xmlns:rdf="http://www.w3.org/1999/02/22-rdf-syntax-ns#"
   xmlns:svg="http://www.w3.org/2000/svg"
   xmlns="http://www.w3.org/2000/svg"
   xmlns:sodipodi="http://sodipodi.sourceforge.net/DTD/sodipodi-0.dtd"
   xmlns:inkscape="http://www.inkscape.org/namespaces/inkscape"
   version="1.1"
   id="svg2567"
   xml:space="preserve"
   width="680.63995"
   height="449.44"
   viewBox="0 0 680.63995 449.44"
   sodipodi:docname="Cytoscape_Citation_Sources.svg"
   inkscape:version="0.92.3 (2405546, 2018-03-11)"><metadata
     id="metadata2573"><rdf:RDF><cc:Work
         rdf:about=""><dc:format>image/svg+xml</dc:format><dc:type
           rdf:resource="http://purl.org/dc/dcmitype/StillImage" /><dc:title></dc:title></cc:Work></rdf:RDF></metadata><defs
     id="defs2571"><clipPath
       clipPathUnits="userSpaceOnUse"
       id="clipPath2663"><path
         d="M 50.64,564.6 V 227.4 h 510.72 v 337.2 z"
         id="path2661"
         inkscape:connector-curvature="0"
         style="clip-rule:evenodd" /></clipPath></defs><sodipodi:namedview
     pagecolor="#ffffff"
     bordercolor="#666666"
     borderopacity="1"
     objecttolerance="10"
     gridtolerance="10"
     guidetolerance="10"
     inkscape:pageopacity="0"
     inkscape:pageshadow="2"
     inkscape:window-width="640"
     inkscape:window-height="480"
     id="namedview2569"
     showgrid="false"
     inkscape:zoom="0.22348485"
     inkscape:cx="340.16"
     inkscape:cy="224.80001"
     inkscape:window-x="0"
     inkscape:window-y="0"
     inkscape:window-maximized="0"
     inkscape:current-layer="g2575" /><g
     id="g2575"
     inkscape:groupmode="layer"
     inkscape:label="Cytoscape_Citation_Sources"
     transform="matrix(1.3333333,0,0,-1.3333333,-67.839998,752.63998)"><path
       d="M 51.24,227.76 H 561 V 564.12 H 51.24 Z"
       style="fill:#ffffff;fill-opacity:1;fill-rule:nonzero;stroke:none"
       id="path2577"
       inkscape:connector-curvature="0" /><path
       d="m 306.12,481.92 c 62.28,0 112.68,-50.4 112.68,-112.68 0,-62.28 -50.4,-112.68 -112.68,-112.68 -62.28,0 -112.8,50.4 -112.8,112.68 0,38.04 19.2,73.44 51,94.32 l 61.8,-94.32 z"
       style="fill:#4572a7;fill-opacity:1;fill-rule:evenodd;stroke:none"
       id="path2579"
       inkscape:connector-curvature="0" /><path
       d="m 244.32,463.56 c 14.04,9.12 29.88,15.12 46.44,17.4 l 15.36,-111.72 z"
       style="fill:#aa4643;fill-opacity:1;fill-rule:evenodd;stroke:none"
       id="path2581"
       inkscape:connector-curvature="0" /><path
       d="m 290.76,480.96 c 3.6,0.48 7.32,0.72 10.92,0.96 l 4.44,-112.68 z"
       style="fill:#89a54e;fill-opacity:1;fill-rule:evenodd;stroke:none"
       id="path2583"
       inkscape:connector-curvature="0" /><path
       d="m 301.68,481.92 c 0.96,0 1.92,0 2.88,0 l 1.56,-112.68 z"
       style="fill:#71588f;fill-opacity:1;fill-rule:evenodd;stroke:none"
       id="path2585"
       inkscape:connector-curvature="0" /><path
       d="m 304.56,481.92 c 0.36,0 0.6,0 0.96,0 l 0.6,-112.68 z"
       style="fill:#4198af;fill-opacity:1;fill-rule:evenodd;stroke:none"
       id="path2587"
       inkscape:connector-curvature="0" /><path
       d="m 305.52,481.92 c 0.12,0 0.36,0 0.6,0 V 369.24 Z"
       style="fill:#db843d;fill-opacity:1;fill-rule:evenodd;stroke:none"
       id="path2589"
       inkscape:connector-curvature="0" /><path
       d="m 266.64,474.48 -96.6,-26.52 c 0,0 -0.12,0 -0.12,0 h -4.56 v 0.72 h 4.56 -0.12 l 96.72,26.52 z"
       style="fill:#000000;fill-opacity:1;fill-rule:nonzero;stroke:none"
       id="path2591"
       inkscape:connector-curvature="0" /><path
       d="m 296.28,481.2 -142.44,-0.36 h -4.56 v 0.84 h 4.56 l 142.44,0.24 z"
       style="fill:#000000;fill-opacity:1;fill-rule:nonzero;stroke:none"
       id="path2593"
       inkscape:connector-curvature="0" /><path
       d="m 303,481.56 -82.92,22.56 h 0.12 -4.56 v 0.72 h 4.56 c 0,0 0,0 0,0 l 83.04,-22.56 z"
       style="fill:#000000;fill-opacity:1;fill-rule:nonzero;stroke:none"
       id="path2595"
       inkscape:connector-curvature="0" /><path
       d="m 304.68,481.92 -1.08,14.28 0.48,-0.36 h -4.56 v 0.84 h 4.56 c 0.12,0 0.36,-0.24 0.36,-0.36 l 0.96,-14.28 z"
       style="fill:#000000;fill-opacity:1;fill-rule:nonzero;stroke:none"
       id="path2597"
       inkscape:connector-curvature="0" /><path
       d="m 305.64,482.28 19.08,11.04 c 0.12,0 0.12,0 0.24,0 h 4.56 v -0.72 h -4.56 0.24 L 306,481.68 Z"
       style="fill:#000000;fill-opacity:1;fill-rule:nonzero;stroke:none"
       id="path2599"
       inkscape:connector-curvature="0" /><text
       transform="matrix(1,0,0,-1,455.52066,368.27984)"
       style="font-variant:normal;font-weight:normal;font-size:10.04500008px;font-family:Calibri;-inkscape-font-specification:Calibri;writing-mode:lr-tb;fill:#000000;fill-opacity:1;fill-rule:nonzero;stroke:none"
       id="text2603"><tspan
         x="0 6.4488902 11.722515 14.02282 17.520058 22.440079 27.713703 29.983873 34.680122 38.045197 42.85675 46.320156 51.240177"
         y="0"
         sodipodi:role="line"
         id="tspan2601">United States</tspan></text>
<text
       transform="matrix(1,0,0,-1,474.48562,355.92448)"
       style="font-variant:normal;font-weight:normal;font-size:10.04500008px;font-family:Calibri;-inkscape-font-specification:Calibri;writing-mode:lr-tb;fill:#000000;fill-opacity:1;fill-rule:nonzero;stroke:none"
       id="text2607"><tspan
         x="0 5.0928149 10.080037"
         y="0"
         sodipodi:role="line"
         id="tspan2605">91%</tspan></text>
<text
       transform="matrix(1,0,0,-1,97.55704,448.31839)"
       style="font-variant:normal;font-weight:normal;font-size:10.04500008px;font-family:Calibri;-inkscape-font-specification:Calibri;writing-mode:lr-tb;fill:#000000;fill-opacity:1;fill-rule:nonzero;stroke:none"
       id="text2611"><tspan
         x="0 6.3600221 11.760043 14.060349 17.425423 22.32008 27.720102 29.990273 35.213673 37.440136 42.840157 47.571354 52.920193 58.213909"
         y="0"
         sodipodi:role="line"
         id="tspan2609">United Kingdom</tspan></text>
<text
       transform="matrix(1,0,0,-1,124.558,435.96304)"
       style="font-variant:normal;font-weight:normal;font-size:10.04500008px;font-family:Calibri;-inkscape-font-specification:Calibri;writing-mode:lr-tb;fill:#000000;fill-opacity:1;fill-rule:nonzero;stroke:none"
       id="text2615"><tspan
         x="0 5.0928149"
         y="0"
         sodipodi:role="line"
         id="tspan2613">7%</tspan></text>
<text
       transform="matrix(1,0,0,-1,117.35573,481.20573)"
       style="font-variant:normal;font-weight:normal;font-size:10.04500008px;font-family:Calibri;-inkscape-font-specification:Calibri;writing-mode:lr-tb;fill:#000000;fill-opacity:1;fill-rule:nonzero;stroke:none"
       id="text2619"><tspan
         x="0 5.2800136 10.200034 15.47366 20.285215 25.680082"
         y="0"
         sodipodi:role="line"
         id="tspan2617">Canada</tspan></text>
<text
       transform="matrix(1,0,0,-1,126.47659,468.96087)"
       style="font-variant:normal;font-weight:normal;font-size:10.04500008px;font-family:Calibri;-inkscape-font-specification:Calibri;writing-mode:lr-tb;fill:#000000;fill-opacity:1;fill-rule:nonzero;stroke:none"
       id="text2623"><tspan
         x="0 5.0928149"
         y="0"
         sodipodi:role="line"
         id="tspan2621">2%</tspan></text>
<text
       transform="matrix(1,0,0,-1,160.67982,504.47999)"
       style="font-variant:normal;font-weight:normal;font-size:10.04500008px;font-family:Calibri;-inkscape-font-specification:Calibri;writing-mode:lr-tb;fill:#000000;fill-opacity:1;fill-rule:nonzero;stroke:none"
       id="text2627"><tspan
         x="0 2.6400068 7.9136319 11.278707 16.281116 19.786821 25.060448 30.000095 33.36517 35.665474 40.95919 46.320148 51.131702"
         y="0"
         sodipodi:role="line"
         id="tspan2625">International</tspan></text>
<text
       transform="matrix(1,0,0,-1,181.3223,492.12464)"
       style="font-variant:normal;font-weight:normal;font-size:10.04500008px;font-family:Calibri;-inkscape-font-specification:Calibri;writing-mode:lr-tb;fill:#000000;fill-opacity:1;fill-rule:nonzero;stroke:none"
       id="text2631"><tspan
         x="0 5.0928149"
         y="0"
         sodipodi:role="line"
         id="tspan2629">0%</tspan></text>
<text
       transform="matrix(1,0,0,-1,277.32236,508.55826)"
       style="font-variant:normal;font-weight:normal;font-size:10.04500008px;font-family:Calibri;-inkscape-font-specification:Calibri;writing-mode:lr-tb;fill:#000000;fill-opacity:1;fill-rule:nonzero;stroke:none"
       id="text2635"><tspan
         x="0 5.8800216 11.153646 15.000048 18.365124 21.960068 24.260372"
         y="0"
         sodipodi:role="line"
         id="tspan2633">Austria</tspan></text>
<text
       transform="matrix(1,0,0,-1,285.71998,496.20291)"
       style="font-variant:normal;font-weight:normal;font-size:10.04500008px;font-family:Calibri;-inkscape-font-specification:Calibri;writing-mode:lr-tb;fill:#000000;fill-opacity:1;fill-rule:nonzero;stroke:none"
       id="text2639"><tspan
         x="0 5.0928149"
         y="0"
         sodipodi:role="line"
         id="tspan2637">0%</tspan></text>
<text
       transform="matrix(1,0,0,-1,328.44137,505.20323)"
       style="font-variant:normal;font-weight:normal;font-size:10.04500008px;font-family:Calibri;-inkscape-font-specification:Calibri;writing-mode:lr-tb;fill:#000000;fill-opacity:1;fill-rule:nonzero;stroke:none"
       id="text2643"><tspan
         x="0 2.5313399 5.8964152 10.800033 13.100337"
         y="0"
         sodipodi:role="line"
         id="tspan2641">Italy</tspan></text>
<text
       transform="matrix(1,0,0,-1,331.0832,492.83784)"
       style="font-variant:normal;font-weight:normal;font-size:10.04500008px;font-family:Calibri;-inkscape-font-specification:Calibri;writing-mode:lr-tb;fill:#000000;fill-opacity:1;fill-rule:nonzero;stroke:none"
       id="text2647"><tspan
         x="0 5.0928149"
         y="0"
         sodipodi:role="line"
         id="tspan2645">0%</tspan></text>
<text
       transform="matrix(1,0,0,-1,172.20884,545.2917)"
       style="font-variant:normal;font-weight:normal;font-size:18.15399933px;font-family:Calibri;-inkscape-font-specification:'Calibri Bold';writing-mode:lr-tb;fill:#000000;fill-opacity:1;fill-rule:nonzero;stroke:none"
       id="text2651"><tspan
         x="0 9.603466 19.440483 29.18918 38.937878 45.237316 51.601276 56.067158 65.281601 72.601784 76.441879 84.774567 94.52327 104.40257 114.15126 118.68292 128.43161 137.03661 140.88347 150.48692 159.24391 165.36406 175.20432 182.44775 189.96468 198.84488 208.68513 217.92535 221.76546 231.36891 235.83481 241.92593 250.80615 257.16632 261.6322 271.39905 281.14774"
         y="0"
         sodipodi:role="line"
         id="tspan2649">Countries Funding Cytoscape Citations</tspan></text>
<text
       transform="matrix(1,0,0,-1,221.53326,523.08936)"
       style="font-variant:normal;font-weight:normal;font-size:18.15399933px;font-family:Calibri;-inkscape-font-specification:'Calibri Bold';writing-mode:lr-tb;fill:#000000;fill-opacity:1;fill-rule:nonzero;stroke:none"
       id="text2655"><tspan
         x="0 5.6640482 14.868126 19.551859 28.755936 38.040928 47.161152 51.263954 60.24147 68.761688 77.89315 87.641846 93.941284 101.18473 105.00257 112.32275 116.78864 126.60311 134.19148 143.40353 147.36362 156.5677 165.84407 174.96429 184.16837"
         y="0"
         sodipodi:role="line"
         id="tspan2653">(9,736 events since 2004)</tspan></text>
<g
       id="g2657"><g
         id="g2659"
         clip-path="url(#clipPath2663)"><path
           d="m 50.88,564.12 c 0,0.24 0.12,0.36 0.36,0.36 H 561 c 0.12,0 0.36,-0.12 0.36,-0.36 V 227.76 c 0,-0.24 -0.24,-0.36 -0.36,-0.36 H 51.24 c -0.24,0 -0.36,0.12 -0.36,0.36 z m 0.72,-336.36 -0.36,0.36 H 561 l -0.36,-0.36 V 564.12 L 561,563.76 H 51.24 l 0.36,0.36 z"
           style="fill:#868686;fill-opacity:1;fill-rule:nonzero;stroke:none"
           id="path2665"
           inkscape:connector-curvature="0" /></g></g></g></svg>