<?xml version="1.0" encoding="UTF-8" standalone="no"?>
<!-- Created with Inkscape (http://www.inkscape.org/) -->

<svg
   xmlns:dc="http://purl.org/dc/elements/1.1/"
   xmlns:cc="http://creativecommons.org/ns#"
   xmlns:rdf="http://www.w3.org/1999/02/22-rdf-syntax-ns#"
   xmlns:svg="http://www.w3.org/2000/svg"
   xmlns="http://www.w3.org/2000/svg"
   xmlns:sodipodi="http://sodipodi.sourceforge.net/DTD/sodipodi-0.dtd"
   xmlns:inkscape="http://www.inkscape.org/namespaces/inkscape"
   version="1.1"
   id="svg2667"
   xml:space="preserve"
   width="680.63995"
   height="468.95999"
   viewBox="0 0 680.63995 468.95999"
   sodipodi:docname="Cytoscape_Citation_Sources_Prior_Year.svg"
   inkscape:version="0.92.3 (2405546, 2018-03-11)"><metadata
     id="metadata2673"><rdf:RDF><cc:Work
         rdf:about=""><dc:format>image/svg+xml</dc:format><dc:type
           rdf:resource="http://purl.org/dc/dcmitype/StillImage" /><dc:title></dc:title></cc:Work></rdf:RDF></metadata><defs
     id="defs2671"><clipPath
       clipPathUnits="userSpaceOnUse"
       id="clipPath2763"><path
         d="M 50.64,571.92 V 220.08 h 510.72 v 351.84 z"
         id="path2761"
         inkscape:connector-curvature="0"
         style="clip-rule:evenodd" /></clipPath></defs><sodipodi:namedview
     pagecolor="#ffffff"
     bordercolor="#666666"
     borderopacity="1"
     objecttolerance="10"
     gridtolerance="10"
     guidetolerance="10"
     inkscape:pageopacity="0"
     inkscape:pageshadow="2"
     inkscape:window-width="640"
     inkscape:window-height="480"
     id="namedview2669"
     showgrid="false"
     inkscape:zoom="0.22348485"
     inkscape:cx="340.16"
     inkscape:cy="234.56001"
     inkscape:window-x="0"
     inkscape:window-y="0"
     inkscape:window-maximized="0"
     inkscape:current-layer="g2675" /><g
     id="g2675"
     inkscape:groupmode="layer"
     inkscape:label="Cytoscape_Citation_Sources_Prior_Year"
     transform="matrix(1.3333333,0,0,-1.3333333,-67.839998,762.39998)"><path
       d="M 51.24,220.44 H 561 v 351 H 51.24 Z"
       style="fill:#ffffff;fill-opacity:1;fill-rule:nonzero;stroke:none"
       id="path2677"
       inkscape:connector-curvature="0" /><path
       d="m 306.12,485.64 c 64.92,0 117.6,-52.68 117.6,-117.6 0,-64.92 -52.68,-117.6 -117.6,-117.6 -64.92,0 -117.6,52.68 -117.6,117.6 0,49.2 30.6,93.24 76.8,110.28 l 40.8,-110.28 z"
       style="fill:#4572a7;fill-opacity:1;fill-rule:evenodd;stroke:none"
       id="path2679"
       inkscape:connector-curvature="0" /><path
       d="m 265.32,478.32 c 9,3.36 18.36,5.52 27.84,6.6 l 12.96,-116.88 z"
       style="fill:#aa4643;fill-opacity:1;fill-rule:evenodd;stroke:none"
       id="path2681"
       inkscape:connector-curvature="0" /><path
       d="m 293.16,484.92 c 2.16,0.24 4.32,0.48 6.48,0.6 l 6.48,-117.48 z"
       style="fill:#89a54e;fill-opacity:1;fill-rule:evenodd;stroke:none"
       id="path2683"
       inkscape:connector-curvature="0" /><path
       d="m 299.64,485.52 c 1.2,0 2.52,0.12 3.72,0.12 l 2.76,-117.6 z"
       style="fill:#71588f;fill-opacity:1;fill-rule:evenodd;stroke:none"
       id="path2685"
       inkscape:connector-curvature="0" /><path
       d="m 303.36,485.64 c 0.6,0 1.2,0 1.8,0 l 0.96,-117.6 z"
       style="fill:#4198af;fill-opacity:1;fill-rule:evenodd;stroke:none"
       id="path2687"
       inkscape:connector-curvature="0" /><path
       d="m 305.16,485.64 c 0.36,0 0.6,0 0.96,0 v -117.6 z"
       style="fill:#db843d;fill-opacity:1;fill-rule:evenodd;stroke:none"
       id="path2689"
       inkscape:connector-curvature="0" /><path
       d="m 279.12,482.16 -59.16,-4.08 h -4.8 v 0.84 h 4.8 l 59.04,3.96 z"
       style="fill:#000000;fill-opacity:1;fill-rule:nonzero;stroke:none"
       id="path2691"
       inkscape:connector-curvature="0" /><path
       d="m 296.28,484.92 -100.68,21.12 0.12,-0.12 h -4.8 v 0.84 h 4.8 c 0,0 0,0 0,0 l 100.8,-21.12 z"
       style="fill:#000000;fill-opacity:1;fill-rule:nonzero;stroke:none"
       id="path2693"
       inkscape:connector-curvature="0" /><path
       d="m 301.2,485.4 -9,13.8 0.36,-0.24 h -4.8 v 0.84 h 4.8 c 0.12,0 0.24,-0.12 0.36,-0.24 l 8.88,-13.8 z"
       style="fill:#000000;fill-opacity:1;fill-rule:nonzero;stroke:none"
       id="path2695"
       inkscape:connector-curvature="0" /><path
       d="m 303.96,486 32.76,27.72 c 0.12,0 0.12,0.12 0.24,0.12 h 4.8 V 513 h -4.8 l 0.24,0.12 -32.64,-27.72 z"
       style="fill:#000000;fill-opacity:1;fill-rule:nonzero;stroke:none"
       id="path2697"
       inkscape:connector-curvature="0" /><path
       d="m 305.52,485.28 -45,16.56 h 0.12 -4.68 v 0.72 h 4.68 c 0,0 0,0 0.12,0 l 45,-16.56 z"
       style="fill:#000000;fill-opacity:1;fill-rule:nonzero;stroke:none"
       id="path2699"
       inkscape:connector-curvature="0" /><text
       transform="matrix(1,0,0,-1,443.17824,406.21528)"
       style="font-variant:normal;font-weight:normal;font-size:10.47999954px;font-family:Calibri;-inkscape-font-specification:Calibri;writing-mode:lr-tb;fill:#000000;fill-opacity:1;fill-rule:nonzero;stroke:none"
       id="text2703"><tspan
         x="0 6.7281599 12.23016 14.63008 18.240797 23.459837 28.961836 31.330317 36.140636 39.721725 44.741646 48.252445 53.402317"
         y="0"
         sodipodi:role="line"
         id="tspan2701">United States</tspan></text>
<text
       transform="matrix(1,0,0,-1,462.85968,393.37728)"
       style="font-variant:normal;font-weight:normal;font-size:10.47999954px;font-family:Calibri;-inkscape-font-specification:Calibri;writing-mode:lr-tb;fill:#000000;fill-opacity:1;fill-rule:nonzero;stroke:none"
       id="text2707"><tspan
         x="0 5.400239 10.713599"
         y="0"
         sodipodi:role="line"
         id="tspan2705">94%</tspan></text>
<text
       transform="matrix(1,0,0,-1,144.48776,478.4644)"
       style="font-variant:normal;font-weight:normal;font-size:10.47999954px;font-family:Calibri;-inkscape-font-specification:Calibri;writing-mode:lr-tb;fill:#000000;fill-opacity:1;fill-rule:nonzero;stroke:none"
       id="text2711"><tspan
         x="0 6.7281599 12.23016 14.63008 18.240797 23.459837 28.961836 31.330317 36.779915 39.179836 44.681835 49.682159 55.184158 60.707119"
         y="0"
         sodipodi:role="line"
         id="tspan2709">United Kingdom</tspan></text>
<text
       transform="matrix(1,0,0,-1,172.68944,465.61592)"
       style="font-variant:normal;font-weight:normal;font-size:10.47999954px;font-family:Calibri;-inkscape-font-specification:Calibri;writing-mode:lr-tb;fill:#000000;fill-opacity:1;fill-rule:nonzero;stroke:none"
       id="text2715"><tspan
         x="0 5.3133602"
         y="0"
         sodipodi:role="line"
         id="tspan2713">4%</tspan></text>
<text
       transform="matrix(1,0,0,-1,133.68288,506.42504)"
       style="font-variant:normal;font-weight:normal;font-size:10.47999954px;font-family:Calibri;-inkscape-font-specification:Calibri;writing-mode:lr-tb;fill:#000000;fill-opacity:1;fill-rule:nonzero;stroke:none"
       id="text2719"><tspan
         x="0 2.64096 8.2803631 11.791163 16.920736 20.640894 26.142895 31.162815 34.801514 37.201431 42.724392 48.226391 53.246311"
         y="0"
         sodipodi:role="line"
         id="tspan2717">International</tspan></text>
<text
       transform="matrix(1,0,0,-1,155.16688,493.46128)"
       style="font-variant:normal;font-weight:normal;font-size:10.47999954px;font-family:Calibri;-inkscape-font-specification:Calibri;writing-mode:lr-tb;fill:#000000;fill-opacity:1;fill-rule:nonzero;stroke:none"
       id="text2723"><tspan
         x="0 5.3133602"
         y="0"
         sodipodi:role="line"
         id="tspan2721">1%</tspan></text>
<text
       transform="matrix(1,0,0,-1,263.8864,512.17856)"
       style="font-variant:normal;font-weight:normal;font-size:10.47999954px;font-family:Calibri;-inkscape-font-specification:Calibri;writing-mode:lr-tb;fill:#000000;fill-opacity:1;fill-rule:nonzero;stroke:none"
       id="text2727"><tspan
         x="0 5.5202351 10.540155 16.042154 21.062075 26.761162"
         y="0"
         sodipodi:role="line"
         id="tspan2725">Canada</tspan></text>
<text
       transform="matrix(1,0,0,-1,273.49656,499.34056)"
       style="font-variant:normal;font-weight:normal;font-size:10.47999954px;font-family:Calibri;-inkscape-font-specification:Calibri;writing-mode:lr-tb;fill:#000000;fill-opacity:1;fill-rule:nonzero;stroke:none"
       id="text2731"><tspan
         x="0 5.3133602"
         y="0"
         sodipodi:role="line"
         id="tspan2729">1%</tspan></text>
<text
       transform="matrix(1,0,0,-1,343.33528,513.38376)"
       style="font-variant:normal;font-weight:normal;font-size:10.47999954px;font-family:Calibri;-inkscape-font-specification:Calibri;writing-mode:lr-tb;fill:#000000;fill-opacity:1;fill-rule:nonzero;stroke:none"
       id="text2735"><tspan
         x="0 6.0002613 11.640503 15.600675 19.200827 22.858347 25.258266"
         y="0"
         sodipodi:role="line"
         id="tspan2733">Austria</tspan></text>
<text
       transform="matrix(1,0,0,-1,352.09656,500.54576)"
       style="font-variant:normal;font-weight:normal;font-size:10.47999954px;font-family:Calibri;-inkscape-font-specification:Calibri;writing-mode:lr-tb;fill:#000000;fill-opacity:1;fill-rule:nonzero;stroke:none"
       id="text2739"><tspan
         x="0 5.400239"
         y="0"
         sodipodi:role="line"
         id="tspan2737">0%</tspan></text>
<text
       transform="matrix(1,0,0,-1,238.69248,515.06056)"
       style="font-variant:normal;font-weight:normal;font-size:10.47999954px;font-family:Calibri;-inkscape-font-specification:Calibri;writing-mode:lr-tb;fill:#000000;fill-opacity:1;fill-rule:nonzero;stroke:none"
       id="text2743"><tspan
         x="0 2.64096 6.1517601 11.17168 13.5716"
         y="0"
         sodipodi:role="line"
         id="tspan2741">Italy</tspan></text>
<text
       transform="matrix(1,0,0,-1,241.57448,502.22256)"
       style="font-variant:normal;font-weight:normal;font-size:10.47999954px;font-family:Calibri;-inkscape-font-specification:Calibri;writing-mode:lr-tb;fill:#000000;fill-opacity:1;fill-rule:nonzero;stroke:none"
       id="text2747"><tspan
         x="0 5.3133602"
         y="0"
         sodipodi:role="line"
         id="tspan2745">0%</tspan></text>
<text
       transform="matrix(1,0,0,-1,113.634,551.76883)"
       style="font-variant:normal;font-weight:normal;font-size:18.93899918px;font-family:Calibri;-inkscape-font-specification:'Calibri Bold';writing-mode:lr-tb;fill:#000000;fill-opacity:1;fill-rule:nonzero;stroke:none"
       id="text2751"><tspan
         x="0 10.018731 20.207912 30.378157 40.440144 47.011978 53.735321 58.394314 68.04023 75.596893 79.680275 88.373276 98.543518 108.84037 119.01061 123.66961 133.92046 142.89754 146.88051 156.96054 165.93762 172.4406 182.62978 190.18645 198.10295 207.36072 217.68076 227.28078 231.2408 241.25952 245.91852 252.36087 261.60089 268.17273 272.76093 283.08096 293.25122 300.80786"
         y="0"
         sodipodi:role="line"
         id="tspan2749">Countries Funding Cytoscape Citations </tspan></text>
<text
       transform="matrix(1,0,0,-1,164.63673,528.60643)"
       style="font-variant:normal;font-weight:normal;font-size:18.93899918px;font-family:Calibri;-inkscape-font-specification:'Calibri Bold';writing-mode:lr-tb;fill:#000000;fill-opacity:1;fill-rule:nonzero;stroke:none"
       id="text2755"><tspan
         x="0 5.908968 15.511041 25.113113 34.715187 38.995399 48.521717 57.360191 66.886505 77.056747 83.520271 91.200302 95.040314 102.59698 107.25597 117.42622 125.52042 135.12045 139.20045 145.56047 154.91634 165.08658 169.36681 173.77959 183.38165 192.98373"
         y="0"
         sodipodi:role="line"
         id="tspan2753">(802 events since Jan '17)</tspan></text>
<g
       id="g2757"><g
         id="g2759"
         clip-path="url(#clipPath2763)"><path
           d="m 50.88,571.44 c 0,0.12 0.12,0.36 0.36,0.36 H 561 c 0.24,0 0.36,-0.24 0.36,-0.36 v -351 c 0,-0.24 -0.12,-0.48 -0.36,-0.48 H 51.24 c -0.24,0 -0.36,0.24 -0.36,0.48 z m 0.72,-351 -0.36,0.36 H 561 l -0.48,-0.36 v 351 L 561,570.96 H 51.24 l 0.36,0.48 z"
           style="fill:#868686;fill-opacity:1;fill-rule:nonzero;stroke:none"
           id="path2765"
           inkscape:connector-curvature="0" /></g></g></g></svg>