<?xml version="1.0" encoding="UTF-8" standalone="no"?>
<!-- Created with Inkscape (http://www.inkscape.org/) -->

<svg
   xmlns:dc="http://purl.org/dc/elements/1.1/"
   xmlns:cc="http://creativecommons.org/ns#"
   xmlns:rdf="http://www.w3.org/1999/02/22-rdf-syntax-ns#"
   xmlns:svg="http://www.w3.org/2000/svg"
   xmlns="http://www.w3.org/2000/svg"
   xmlns:sodipodi="http://sodipodi.sourceforge.net/DTD/sodipodi-0.dtd"
   xmlns:inkscape="http://www.inkscape.org/namespaces/inkscape"
   version="1.1"
   id="svg2417"
   xml:space="preserve"
   width="680.63995"
   height="353.28"
   viewBox="0 0 680.63995 353.28"
   sodipodi:docname="Countries_Funding_Cytoscape_Citations_Prior_Year.svg"
   inkscape:version="0.92.3 (2405546, 2018-03-11)"><metadata
     id="metadata2423"><rdf:RDF><cc:Work
         rdf:about=""><dc:format>image/svg+xml</dc:format><dc:type
           rdf:resource="http://purl.org/dc/dcmitype/StillImage" /><dc:title></dc:title></cc:Work></rdf:RDF></metadata><defs
     id="defs2421"><clipPath
       clipPathUnits="userSpaceOnUse"
       id="clipPath2563"><path
         d="M 50.64,528.6 V 263.4 h 510.72 v 265.2 z"
         id="path2561"
         inkscape:connector-curvature="0"
         style="clip-rule:evenodd" /></clipPath></defs><sodipodi:namedview
     pagecolor="#ffffff"
     bordercolor="#666666"
     borderopacity="1"
     objecttolerance="10"
     gridtolerance="10"
     guidetolerance="10"
     inkscape:pageopacity="0"
     inkscape:pageshadow="2"
     inkscape:window-width="642"
     inkscape:window-height="480"
     id="namedview2419"
     showgrid="false"
     inkscape:zoom="0.22348485"
     inkscape:cx="340.16"
     inkscape:cy="176.80001"
     inkscape:window-x="0"
     inkscape:window-y="0"
     inkscape:window-maximized="0"
     inkscape:current-layer="g2425" /><g
     id="g2425"
     inkscape:groupmode="layer"
     inkscape:label="Countries_Funding_Cytoscape_Citations_Prior_Year"
     transform="matrix(1.3333333,0,0,-1.3333333,-67.839998,704.47998)"><path
       d="M 51.36,263.88 H 561 v 264 H 51.36 Z"
       style="fill:#ffffff;fill-opacity:1;fill-rule:nonzero;stroke:none"
       id="path2427"
       inkscape:connector-curvature="0" /><path
       d="m 306.12,464.16 c 47.88,0 86.64,-38.76 86.64,-86.52 0,-25.44 -11.16,-49.56 -30.6,-66 l -56.04,66 z"
       style="fill:#4572a7;fill-opacity:1;fill-rule:evenodd;stroke:none"
       id="path2429"
       inkscape:connector-curvature="0" /><path
       d="m 362.16,311.64 c -20.04,-17.04 -46.8,-24 -72.72,-18.96 l 16.68,84.96 z"
       style="fill:#aa4643;fill-opacity:1;fill-rule:evenodd;stroke:none"
       id="path2431"
       inkscape:connector-curvature="0" /><path
       d="m 289.44,292.68 c -18.36,3.6 -35.04,13.08 -47.52,27 l 64.2,57.96 z"
       style="fill:#89a54e;fill-opacity:1;fill-rule:evenodd;stroke:none"
       id="path2433"
       inkscape:connector-curvature="0" /><path
       d="m 241.92,319.68 c -8.28,9.12 -14.52,19.92 -18.24,31.56 l 82.44,26.4 z"
       style="fill:#71588f;fill-opacity:1;fill-rule:evenodd;stroke:none"
       id="path2435"
       inkscape:connector-curvature="0" /><path
       d="m 223.68,351.24 c -3.12,9.72 -4.44,19.92 -3.96,30 l 86.4,-3.6 z"
       style="fill:#4198af;fill-opacity:1;fill-rule:evenodd;stroke:none"
       id="path2437"
       inkscape:connector-curvature="0" /><path
       d="m 219.72,381.24 c 0.36,10.2 2.64,20.28 6.48,29.64 l 79.92,-33.24 z"
       style="fill:#db843d;fill-opacity:1;fill-rule:evenodd;stroke:none"
       id="path2439"
       inkscape:connector-curvature="0" /><path
       d="m 226.2,410.88 c 3.72,8.76 8.76,16.8 15,23.88 l 64.92,-57.12 z"
       style="fill:#93a9cf;fill-opacity:1;fill-rule:evenodd;stroke:none"
       id="path2441"
       inkscape:connector-curvature="0" /><path
       d="m 241.2,434.76 c 6,6.84 13.08,12.72 20.88,17.4 l 44.04,-74.52 z"
       style="fill:#d19392;fill-opacity:1;fill-rule:evenodd;stroke:none"
       id="path2443"
       inkscape:connector-curvature="0" /><path
       d="m 262.08,452.16 c 6.96,4.08 14.4,7.2 22.2,9.24 l 21.84,-83.76 z"
       style="fill:#b9cd96;fill-opacity:1;fill-rule:evenodd;stroke:none"
       id="path2445"
       inkscape:connector-curvature="0" /><path
       d="m 284.28,461.4 c 7.2,1.8 14.52,2.76 21.84,2.76 v -86.52 z"
       style="fill:#a99bbd;fill-opacity:1;fill-rule:evenodd;stroke:none"
       id="path2447"
       inkscape:connector-curvature="0" /><path
       d="M 387.12,407.76 401.16,423 c 0,0 0.12,0.12 0.36,0.12 h 5.28 v -0.96 h -5.28 l 0.24,0.24 -14.04,-15.24 z"
       style="fill:#000000;fill-opacity:1;fill-rule:nonzero;stroke:none"
       id="path2449"
       inkscape:connector-curvature="0" /><path
       d="m 327.96,294.24 41.16,-4.92 h 5.28 v -0.84 H 369 l -41.04,4.92 z"
       style="fill:#000000;fill-opacity:1;fill-rule:nonzero;stroke:none"
       id="path2451"
       inkscape:connector-curvature="0" /><path
       d="m 263.88,302.16 -6.48,-16.08 c -0.12,-0.12 -0.24,-0.24 -0.48,-0.24 h -5.16 v 0.84 h 5.16 l -0.36,-0.24 6.48,16.08 z"
       style="fill:#000000;fill-opacity:1;fill-rule:nonzero;stroke:none"
       id="path2453"
       inkscape:connector-curvature="0" /><path
       d="M 231.48,334.32 222,310.56 c 0,-0.24 -0.24,-0.36 -0.36,-0.36 h -5.28 v 0.96 h 5.28 l -0.48,-0.36 9.48,23.88 z"
       style="fill:#000000;fill-opacity:1;fill-rule:nonzero;stroke:none"
       id="path2455"
       inkscape:connector-curvature="0" /><path
       d="M 220.68,365.76 197.4,344.64 c -0.12,-0.12 -0.12,-0.12 -0.24,-0.12 h -5.4 v 0.84 h 5.4 l -0.36,-0.12 23.28,21.24 z"
       style="fill:#000000;fill-opacity:1;fill-rule:nonzero;stroke:none"
       id="path2457"
       inkscape:connector-curvature="0" /><path
       d="m 222,396 -16.08,-15.24 c -0.12,-0.12 -0.24,-0.12 -0.36,-0.12 h -5.28 v 0.84 h 5.28 l -0.24,-0.12 15.96,15.36 z"
       style="fill:#000000;fill-opacity:1;fill-rule:nonzero;stroke:none"
       id="path2459"
       inkscape:connector-curvature="0" /><path
       d="m 232.8,423 -29.64,-6.6 c 0,0 -0.12,0 -0.12,0 h -5.4 v 0.84 h 5.4 -0.12 l 29.64,6.6 z"
       style="fill:#000000;fill-opacity:1;fill-rule:nonzero;stroke:none"
       id="path2461"
       inkscape:connector-curvature="0" /><path
       d="m 250.92,443.88 -65.76,8.28 h -5.28 V 453 h 5.4 l 65.76,-8.28 z"
       style="fill:#000000;fill-opacity:1;fill-rule:nonzero;stroke:none"
       id="path2463"
       inkscape:connector-curvature="0" /><path
       d="m 272.64,457.2 -30.12,16.8 0.12,-0.12 h -5.28 v 0.96 h 5.28 c 0.12,0 0.24,0 0.24,-0.12 l 30.24,-16.8 z"
       style="fill:#000000;fill-opacity:1;fill-rule:nonzero;stroke:none"
       id="path2465"
       inkscape:connector-curvature="0" /><path
       d="m 294.96,463.92 25.92,12.48 c 0.12,0 0.12,0 0.24,0 h 5.16 v -0.84 h -5.16 0.12 l -25.92,-12.48 z"
       style="fill:#000000;fill-opacity:1;fill-rule:nonzero;stroke:none"
       id="path2467"
       inkscape:connector-curvature="0" /><text
       transform="matrix(1,0,0,-1,401.65447,437.05691)"
       style="font-variant:normal;font-weight:normal;font-size:11.74600029px;font-family:Calibri;-inkscape-font-specification:Calibri;writing-mode:lr-tb;fill:#000000;fill-opacity:1;fill-rule:nonzero;stroke:none"
       id="text2471"><tspan
         x="0 5.3914142 10.359972 12.960478 15.720576 22.098654 27.841026"
         y="0"
         sodipodi:role="line"
         id="tspan2469">Sci Rep</tspan></text>
<text
       transform="matrix(1,0,0,-1,408.61985,422.65632)"
       style="font-variant:normal;font-weight:normal;font-size:11.74600029px;font-family:Calibri;-inkscape-font-specification:Calibri;writing-mode:lr-tb;fill:#000000;fill-opacity:1;fill-rule:nonzero;stroke:none"
       id="text2475"><tspan
         x="0 5.8802118 11.835434"
         y="0"
         sodipodi:role="line"
         id="tspan2473">39%</tspan></text>
<text
       transform="matrix(1,0,0,-1,376.09517,288.84589)"
       style="font-variant:normal;font-weight:normal;font-size:11.74600029px;font-family:Calibri;-inkscape-font-specification:Calibri;writing-mode:lr-tb;fill:#000000;fill-opacity:1;fill-rule:nonzero;stroke:none"
       id="text2479"><tspan
         x="0 6.0726819 11.006002 17.280634 22.672047 25.440931 33.12122 39.361446"
         y="0"
         sodipodi:role="line"
         id="tspan2477">PLoS One</tspan></text>
<text
       transform="matrix(1,0,0,-1,388.56943,274.44529)"
       style="font-variant:normal;font-weight:normal;font-size:11.74600029px;font-family:Calibri;-inkscape-font-specification:Calibri;writing-mode:lr-tb;fill:#000000;fill-opacity:1;fill-rule:nonzero;stroke:none"
       id="text2483"><tspan
         x="0 5.9552221 11.910444"
         y="0"
         sodipodi:role="line"
         id="tspan2481">14%</tspan></text>
<text
       transform="matrix(1,0,0,-1,195.7236,286.33224)"
       style="font-variant:normal;font-weight:normal;font-size:11.74600029px;font-family:Calibri;-inkscape-font-specification:Calibri;writing-mode:lr-tb;fill:#000000;fill-opacity:1;fill-rule:nonzero;stroke:none"
       id="text2487"><tspan
         x="0 7.6802864 13.920513 18.960699 25.150841 29.161077 34.787411 38.886765 44.419132 50.161846"
         y="0"
         sodipodi:role="line"
         id="tspan2485">Oncotarget</tspan></text>
<text
       transform="matrix(1,0,0,-1,212.64958,271.81419)"
       style="font-variant:normal;font-weight:normal;font-size:11.74600029px;font-family:Calibri;-inkscape-font-specification:Calibri;writing-mode:lr-tb;fill:#000000;fill-opacity:1;fill-rule:nonzero;stroke:none"
       id="text2491"><tspan
         x="0 5.9552221 11.910444"
         y="0"
         sodipodi:role="line"
         id="tspan2489">10%</tspan></text>
<text
       transform="matrix(1,0,0,-1,141.72724,310.69345)"
       style="font-variant:normal;font-weight:normal;font-size:11.74600029px;font-family:Calibri;-inkscape-font-specification:Calibri;writing-mode:lr-tb;fill:#000000;fill-opacity:1;fill-rule:nonzero;stroke:none"
       id="text2495"><tspan
         x="0 6.3898239 16.432653 22.693272 25.56094 32.88121 38.641426 44.881653 51.071796 60.456848 63.146683 68.115242"
         y="0"
         sodipodi:role="line"
         id="tspan2493">BMC Genomics</tspan></text>
<text
       transform="matrix(1,0,0,-1,170.88081,296.29285)"
       style="font-variant:normal;font-weight:normal;font-size:11.74600029px;font-family:Calibri;-inkscape-font-specification:Calibri;writing-mode:lr-tb;fill:#000000;fill-opacity:1;fill-rule:nonzero;stroke:none"
       id="text2499"><tspan
         x="0 5.9552221"
         y="0"
         sodipodi:role="line"
         id="tspan2497">7%</tspan></text>
<text
       transform="matrix(1,0,0,-1,115.56889,345.01526)"
       style="font-variant:normal;font-weight:normal;font-size:11.74600029px;font-family:Calibri;-inkscape-font-specification:Calibri;writing-mode:lr-tb;fill:#000000;fill-opacity:1;fill-rule:nonzero;stroke:none"
       id="text2503"><tspan
         x="0 5.3914142 9.4907684 15.68091 21.960804 25.895714 28.681053 38.641415 41.401512 46.370071 50.40184 56.59198 62.882294 65.572128 71.762268"
         y="0"
         sodipodi:role="line"
         id="tspan2501">Front Microbiol</tspan></text>
<text
       transform="matrix(1,0,0,-1,145.56818,330.4972)"
       style="font-variant:normal;font-weight:normal;font-size:11.74600029px;font-family:Calibri;-inkscape-font-specification:Calibri;writing-mode:lr-tb;fill:#000000;fill-opacity:1;fill-rule:nonzero;stroke:none"
       id="text2507"><tspan
         x="0 5.9552221"
         y="0"
         sodipodi:role="line"
         id="tspan2505">6%</tspan></text>
<text
       transform="matrix(1,0,0,-1,129.72282,381.01675)"
       style="font-variant:normal;font-weight:normal;font-size:11.74600029px;font-family:Calibri;-inkscape-font-specification:Calibri;writing-mode:lr-tb;fill:#000000;fill-opacity:1;fill-rule:nonzero;stroke:none"
       id="text2511"><tspan
         x="0 5.3914142 9.4907684 15.68091 21.960804 25.895714 28.55031 34.62299 37.312824 42.939159 49.201809 53.136719 55.682041 61.073456 66.042015"
         y="0"
         sodipodi:role="line"
         id="tspan2509">Front Plant Sci</tspan></text>
<text
       transform="matrix(1,0,0,-1,156.84434,366.61615)"
       style="font-variant:normal;font-weight:normal;font-size:11.74600029px;font-family:Calibri;-inkscape-font-specification:Calibri;writing-mode:lr-tb;fill:#000000;fill-opacity:1;fill-rule:nonzero;stroke:none"
       id="text2515"><tspan
         x="0 5.9552221"
         y="0"
         sodipodi:role="line"
         id="tspan2513">6%</tspan></text>
<text
       transform="matrix(1,0,0,-1,131.05012,416.90078)"
       style="font-variant:normal;font-weight:normal;font-size:11.74600029px;font-family:Calibri;-inkscape-font-specification:Calibri;writing-mode:lr-tb;fill:#000000;fill-opacity:1;fill-rule:nonzero;stroke:none"
       id="text2519"><tspan
         x="0 10.04283 16.320597 19.010431 21.665028 31.707857 37.557365 43.801609 46.456203 52.834282 58.562149"
         y="0"
         sodipodi:role="line"
         id="tspan2517">Mol Med Rep</tspan></text>
<text
       transform="matrix(1,0,0,-1,156.24529,402.37098)"
       style="font-variant:normal;font-weight:normal;font-size:11.74600029px;font-family:Calibri;-inkscape-font-specification:Calibri;writing-mode:lr-tb;fill:#000000;fill-opacity:1;fill-rule:nonzero;stroke:none"
       id="text2523"><tspan
         x="0 5.9552221"
         y="0"
         sodipodi:role="line"
         id="tspan2521">5%</tspan></text>
<text
       transform="matrix(1,0,0,-1,95.647678,452.6556)"
       style="font-variant:normal;font-weight:normal;font-size:11.74600029px;font-family:Calibri;-inkscape-font-specification:Calibri;writing-mode:lr-tb;fill:#000000;fill-opacity:1;fill-rule:nonzero;stroke:none"
       id="text2527"><tspan
         x="0 7.6802864 13.920513 18.889072 21.480791 27.330299 30.020134 34.92128 37.801388 44.521641 49.561825 52.251659 58.418308 63.010994 65.665588 72.043671 77.893173"
         y="0"
         sodipodi:role="line"
         id="tspan2525">Nucleic Acids Res</tspan></text>
<text
       transform="matrix(1,0,0,-1,129.60536,438.13755)"
       style="font-variant:normal;font-weight:normal;font-size:11.74600029px;font-family:Calibri;-inkscape-font-specification:Calibri;writing-mode:lr-tb;fill:#000000;fill-opacity:1;fill-rule:nonzero;stroke:none"
       id="text2531"><tspan
         x="0 5.9552221"
         y="0"
         sodipodi:role="line"
         id="tspan2529">5%</tspan></text>
<text
       transform="matrix(1,0,0,-1,172.20811,474.37396)"
       style="font-variant:normal;font-weight:normal;font-size:11.74600029px;font-family:Calibri;-inkscape-font-specification:Calibri;writing-mode:lr-tb;fill:#000000;fill-opacity:1;fill-rule:nonzero;stroke:none"
       id="text2535"><tspan
         x="0 7.5879159 13.21425 17.14916 19.803757 26.064375 32.161182 41.546238 50.93129 57.097939"
         y="0"
         sodipodi:role="line"
         id="tspan2533">Nat Commun</tspan></text>
<text
       transform="matrix(1,0,0,-1,196.68677,459.97336)"
       style="font-variant:normal;font-weight:normal;font-size:11.74600029px;font-family:Calibri;-inkscape-font-specification:Calibri;writing-mode:lr-tb;fill:#000000;fill-opacity:1;fill-rule:nonzero;stroke:none"
       id="text2539"><tspan
         x="0 5.8802118"
         y="0"
         sodipodi:role="line"
         id="tspan2537">4%</tspan></text>
<text
       transform="matrix(1,0,0,-1,351.61651,490.33677)"
       style="font-variant:normal;font-weight:normal;font-size:11.74600029px;font-family:Calibri;-inkscape-font-specification:Calibri;writing-mode:lr-tb;fill:#000000;fill-opacity:1;fill-rule:nonzero;stroke:none"
       id="text2543"><tspan
         x="0 6.3898239 16.432653 22.560823"
         y="0"
         sodipodi:role="line"
         id="tspan2541">BMC </tspan></text>
<text
       transform="matrix(1,0,0,-1,328.20673,475.93617)"
       style="font-variant:normal;font-weight:normal;font-size:11.74600029px;font-family:Calibri;-inkscape-font-specification:Calibri;writing-mode:lr-tb;fill:#000000;fill-opacity:1;fill-rule:nonzero;stroke:none"
       id="text2547"><tspan
         x="0 6.3898239 9.0796576 15.360561 18.050396 24.217045 27.721018 33.91116 38.010513 47.395569 53.021904 56.956814 59.762192 64.730751"
         y="0"
         sodipodi:role="line"
         id="tspan2545">Bioinformatics</tspan></text>
<text
       transform="matrix(1,0,0,-1,355.69237,461.53558)"
       style="font-variant:normal;font-weight:normal;font-size:11.74600029px;font-family:Calibri;-inkscape-font-specification:Calibri;writing-mode:lr-tb;fill:#000000;fill-opacity:1;fill-rule:nonzero;stroke:none"
       id="text2551"><tspan
         x="0 5.8802118"
         y="0"
         sodipodi:role="line"
         id="tspan2549">4%</tspan></text>
<text
       transform="matrix(1,0,0,-1,122.28875,498.72836)"
       style="font-variant:normal;font-weight:normal;font-size:21.22699928px;font-family:Calibri;-inkscape-font-specification:'Calibri Bold';writing-mode:lr-tb;fill:#000000;fill-opacity:1;fill-rule:nonzero;stroke:none"
       id="text2555"><tspan
         x="0 8.6400261 20.160067 31.558966 36.240112 47.400146 57.600185 64.800217 76.320259 84.789833 93.600311 104.08645 115.56038 126.23756 130.80043 141.96046 147.18231 154.44051 164.76053 172.1263 177.34814 188.76826 200.28065 204.96068 216.36072 227.16077 238.6808 250.0797 260.88086 269.35043 273.72092 283.76129 288.98312 300.48102 309.35388 320.16107 324.84109 335.52112 346.2832 357.12119"
         y="0"
         sodipodi:role="line"
         id="tspan2553">Top Cytoscape Citation Venues Since 2017</tspan></text>
<g
       id="g2557"><g
         id="g2559"
         clip-path="url(#clipPath2563)"><path
           d="m 50.88,527.88 c 0,0.24 0.24,0.48 0.48,0.48 H 561 c 0.24,0 0.36,-0.24 0.36,-0.48 v -264 c 0,-0.24 -0.12,-0.48 -0.36,-0.48 H 51.36 c -0.24,0 -0.48,0.24 -0.48,0.48 z m 0.96,-264 -0.48,0.48 H 561 l -0.48,-0.48 v 264 L 561,527.52 H 51.36 l 0.48,0.36 z"
           style="fill:#868686;fill-opacity:1;fill-rule:nonzero;stroke:none"
           id="path2565"
           inkscape:connector-curvature="0" /></g></g></g></svg>