<?xml version="1.0" encoding="UTF-8" standalone="no"?>
<!-- Created with Inkscape (http://www.inkscape.org/) -->

<svg
   xmlns:dc="http://purl.org/dc/elements/1.1/"
   xmlns:cc="http://creativecommons.org/ns#"
   xmlns:rdf="http://www.w3.org/1999/02/22-rdf-syntax-ns#"
   xmlns:svg="http://www.w3.org/2000/svg"
   xmlns="http://www.w3.org/2000/svg"
   xmlns:sodipodi="http://sodipodi.sourceforge.net/DTD/sodipodi-0.dtd"
   xmlns:inkscape="http://www.inkscape.org/namespaces/inkscape"
   version="1.1"
   id="svg2265"
   xml:space="preserve"
   width="680.63995"
   height="356"
   viewBox="0 0 680.63995 356"
   sodipodi:docname="Countries_Funding_Cytoscape_Citations.svg"
   inkscape:version="0.92.3 (2405546, 2018-03-11)"><metadata
     id="metadata2271"><rdf:RDF><cc:Work
         rdf:about=""><dc:format>image/svg+xml</dc:format><dc:type
           rdf:resource="http://purl.org/dc/dcmitype/StillImage" /><dc:title></dc:title></cc:Work></rdf:RDF></metadata><defs
     id="defs2269"><clipPath
       clipPathUnits="userSpaceOnUse"
       id="clipPath2413"><path
         d="M 50.64,529.68 V 262.32 h 510.72 v 267.36 z"
         id="path2411"
         inkscape:connector-curvature="0"
         style="clip-rule:evenodd" /></clipPath></defs><sodipodi:namedview
     pagecolor="#ffffff"
     bordercolor="#666666"
     borderopacity="1"
     objecttolerance="10"
     gridtolerance="10"
     guidetolerance="10"
     inkscape:pageopacity="0"
     inkscape:pageshadow="2"
     inkscape:window-width="640"
     inkscape:window-height="480"
     id="namedview2267"
     showgrid="false"
     inkscape:zoom="0.22348485"
     inkscape:cx="340.16"
     inkscape:cy="178.24001"
     inkscape:window-x="0"
     inkscape:window-y="0"
     inkscape:window-maximized="0"
     inkscape:current-layer="g2273" /><g
     id="g2273"
     inkscape:groupmode="layer"
     inkscape:label="Countries_Funding_Cytoscape_Citations"
     transform="matrix(1.3333333,0,0,-1.3333333,-67.839998,705.75998)"><path
       d="M 51.36,262.68 H 560.88 V 528.96 H 51.36 Z"
       style="fill:#ffffff;fill-opacity:1;fill-rule:nonzero;stroke:none"
       id="path2275"
       inkscape:connector-curvature="0" /><path
       d="m 306.12,465 c 48.24,0 87.48,-39.12 87.48,-87.48 0,-6.24 -0.72,-12.48 -2.04,-18.72 l -85.44,18.72 z"
       style="fill:#4572a7;fill-opacity:1;fill-rule:evenodd;stroke:none"
       id="path2277"
       inkscape:connector-curvature="0" /><path
       d="m 391.56,358.8 c -7.32,-33.36 -33.48,-59.4 -66.84,-66.72 l -18.6,85.44 z"
       style="fill:#aa4643;fill-opacity:1;fill-rule:evenodd;stroke:none"
       id="path2279"
       inkscape:connector-curvature="0" /><path
       d="m 324.72,292.08 c -18.6,-4.08 -38.04,-1.92 -55.32,6.12 l 36.72,79.32 z"
       style="fill:#89a54e;fill-opacity:1;fill-rule:evenodd;stroke:none"
       id="path2281"
       inkscape:connector-curvature="0" /><path
       d="m 269.4,298.2 c -15.12,6.96 -27.84,18.12 -36.84,32.04 l 73.56,47.28 z"
       style="fill:#71588f;fill-opacity:1;fill-rule:evenodd;stroke:none"
       id="path2283"
       inkscape:connector-curvature="0" /><path
       d="m 232.56,330.24 c -8.4,12.96 -13.08,27.96 -13.8,43.32 l 87.36,3.96 z"
       style="fill:#4198af;fill-opacity:1;fill-rule:evenodd;stroke:none"
       id="path2285"
       inkscape:connector-curvature="0" /><path
       d="m 218.76,373.56 c -0.6,11.88 1.32,23.64 5.4,34.68 l 81.96,-30.72 z"
       style="fill:#db843d;fill-opacity:1;fill-rule:evenodd;stroke:none"
       id="path2287"
       inkscape:connector-curvature="0" /><path
       d="m 224.16,408.24 c 3.72,9.84 9.24,18.96 16.2,27 l 65.76,-57.72 z"
       style="fill:#93a9cf;fill-opacity:1;fill-rule:evenodd;stroke:none"
       id="path2289"
       inkscape:connector-curvature="0" /><path
       d="m 240.36,435.24 c 5.64,6.36 12.12,11.88 19.32,16.44 l 46.44,-74.16 z"
       style="fill:#d19392;fill-opacity:1;fill-rule:evenodd;stroke:none"
       id="path2291"
       inkscape:connector-curvature="0" /><path
       d="m 259.68,451.68 c 7.08,4.32 14.64,7.68 22.56,9.96 l 23.88,-84.12 z"
       style="fill:#b9cd96;fill-opacity:1;fill-rule:evenodd;stroke:none"
       id="path2293"
       inkscape:connector-curvature="0" /><path
       d="m 282.24,461.64 c 7.68,2.28 15.72,3.36 23.88,3.36 v -87.48 z"
       style="fill:#a99bbd;fill-opacity:1;fill-rule:evenodd;stroke:none"
       id="path2295"
       inkscape:connector-curvature="0" /><path
       d="m 373.8,432.48 8.04,23.04 c 0.12,0.12 0.24,0.24 0.48,0.24 h 5.28 v -0.84 h -5.28 l 0.36,0.24 -8.04,-22.92 z"
       style="fill:#000000;fill-opacity:1;fill-rule:nonzero;stroke:none"
       id="path2297"
       inkscape:connector-curvature="0" /><path
       d="m 367.92,316.08 13.92,1.68 h 5.4 v -0.84 h -5.28 l -14.04,-1.68 z"
       style="fill:#000000;fill-opacity:1;fill-rule:nonzero;stroke:none"
       id="path2299"
       inkscape:connector-curvature="0" /><path
       d="m 249.12,311.52 -4.08,-26.88 c 0,-0.12 -0.12,-0.36 -0.36,-0.36 h -5.28 v 0.96 h 5.28 l -0.48,-0.36 4.08,26.76 z"
       style="fill:#000000;fill-opacity:1;fill-rule:nonzero;stroke:none"
       id="path2301"
       inkscape:connector-curvature="0" /><path
       d="m 223.2,351 -1.68,-19.08 c 0,-0.24 -0.12,-0.36 -0.36,-0.36 h -5.28 v 0.84 h 5.28 l -0.48,-0.36 1.68,18.96 z"
       style="fill:#000000;fill-opacity:1;fill-rule:nonzero;stroke:none"
       id="path2303"
       inkscape:connector-curvature="0" /><path
       d="m 220.08,390.96 -11.76,-21.12 c -0.12,-0.12 -0.24,-0.24 -0.36,-0.24 h -5.28 v 0.84 h 5.28 l -0.36,-0.12 11.76,21.12 z"
       style="fill:#000000;fill-opacity:1;fill-rule:nonzero;stroke:none"
       id="path2305"
       inkscape:connector-curvature="0" /><path
       d="m 231.12,422.04 -41.4,-6.96 c 0,0 0,0 -0.12,0 h -5.28 v 0.84 h 5.28 v 0 l 41.4,6.96 z"
       style="fill:#000000;fill-opacity:1;fill-rule:nonzero;stroke:none"
       id="path2307"
       inkscape:connector-curvature="0" /><path
       d="m 249.36,443.64 -31.8,1.56 h -5.28 v 0.84 h 5.28 l 31.92,-1.44 z"
       style="fill:#000000;fill-opacity:1;fill-rule:nonzero;stroke:none"
       id="path2309"
       inkscape:connector-curvature="0" /><path
       d="m 270.36,457.08 -36,16.8 h 0.24 -5.28 v 0.84 h 5.28 c 0,0 0.12,0 0.12,0 l 36.12,-16.8 z"
       style="fill:#000000;fill-opacity:1;fill-rule:nonzero;stroke:none"
       id="path2311"
       inkscape:connector-curvature="0" /><path
       d="m 293.64,463.92 -4.44,8.4 0.36,-0.24 h -5.4 v 0.96 h 5.4 c 0.24,0 0.36,-0.12 0.36,-0.24 l 4.44,-8.4 z"
       style="fill:#000000;fill-opacity:1;fill-rule:nonzero;stroke:none"
       id="path2313"
       inkscape:connector-curvature="0" /><text
       transform="matrix(1,0,0,-1,389.51562,455.27021)"
       style="font-variant:normal;font-weight:normal;font-size:11.76500034px;font-family:Calibri;-inkscape-font-specification:Calibri;writing-mode:lr-tb;fill:#000000;fill-opacity:1;fill-rule:nonzero;stroke:none"
       id="text2317"><tspan
         x="0 5.999938 11.039887 17.240044 22.640179 25.299068 33.087498 39.359573"
         y="0"
         sodipodi:role="line"
         id="tspan2315">PLoS One</tspan></text>
<text
       transform="matrix(1,0,0,-1,401.88063,440.86984)"
       style="font-variant:normal;font-weight:normal;font-size:11.76500034px;font-family:Calibri;-inkscape-font-specification:Calibri;writing-mode:lr-tb;fill:#000000;fill-opacity:1;fill-rule:nonzero;stroke:none"
       id="text2321"><tspan
         x="0 5.9648552 11.999865"
         y="0"
         sodipodi:role="line"
         id="tspan2319">28%</tspan></text>
<text
       transform="matrix(1,0,0,-1,389.15091,317.27852)"
       style="font-variant:normal;font-weight:normal;font-size:11.76500034px;font-family:Calibri;-inkscape-font-specification:Calibri;writing-mode:lr-tb;fill:#000000;fill-opacity:1;fill-rule:nonzero;stroke:none"
       id="text2325"><tspan
         x="0 5.2799439 10.319893 13.014078 15.672968 22.061363 27.839697"
         y="0"
         sodipodi:role="line"
         id="tspan2323">Sci Rep</tspan></text>
<text
       transform="matrix(1,0,0,-1,395.99813,302.87816)"
       style="font-variant:normal;font-weight:normal;font-size:11.76500034px;font-family:Calibri;-inkscape-font-specification:Calibri;writing-mode:lr-tb;fill:#000000;fill-opacity:1;fill-rule:nonzero;stroke:none"
       id="text2329"><tspan
         x="0 5.9648552 11.999865"
         y="0"
         sodipodi:role="line"
         id="tspan2327">18%</tspan></text>
<text
       transform="matrix(1,0,0,-1,262.44186,282.11293)"
       style="font-variant:normal;font-weight:normal;font-size:11.76500034px;font-family:Calibri;-inkscape-font-specification:Calibri;writing-mode:lr-tb;fill:#000000;fill-opacity:1;fill-rule:nonzero;stroke:none"
       id="text2333"><tspan
         x="0 6.4001598 16.459234 22.72998 25.559721 32.879646 38.639576 44.879509 51.079666 60.4799 63.239311 68.215904"
         y="0"
         sodipodi:role="line"
         id="tspan2331">BMC Genomics</tspan></text>
<text
       transform="matrix(1,0,0,-1,288.59545,267.59492)"
       style="font-variant:normal;font-weight:normal;font-size:11.76500034px;font-family:Calibri;-inkscape-font-specification:Calibri;writing-mode:lr-tb;fill:#000000;fill-opacity:1;fill-rule:nonzero;stroke:none"
       id="text2337"><tspan
         x="0 5.9648552 11.999865"
         y="0"
         sodipodi:role="line"
         id="tspan2335">10%</tspan></text>
<text
       transform="matrix(1,0,0,-1,191.39302,296.5133)"
       style="font-variant:normal;font-weight:normal;font-size:11.76500034px;font-family:Calibri;-inkscape-font-specification:Calibri;writing-mode:lr-tb;fill:#000000;fill-opacity:1;fill-rule:nonzero;stroke:none"
       id="text2341"><tspan
         x="0 6.4799266 16.439823 22.710567"
         y="0"
         sodipodi:role="line"
         id="tspan2339">BMC </tspan></text>
<text
       transform="matrix(1,0,0,-1,168.2395,281.99528)"
       style="font-variant:normal;font-weight:normal;font-size:11.76500034px;font-family:Calibri;-inkscape-font-specification:Calibri;writing-mode:lr-tb;fill:#000000;fill-opacity:1;fill-rule:nonzero;stroke:none"
       id="text2345"><tspan
         x="0 6.4001598 8.9999075 15.200063 17.999815 24.239748 27.719706 33.919861 38.025845 47.426079 53.159424 57.100697 59.794884 64.771477"
         y="0"
         sodipodi:role="line"
         id="tspan2343">Bioinformatics</tspan></text>
<text
       transform="matrix(1,0,0,-1,195.72254,267.59492)"
       style="font-variant:normal;font-weight:normal;font-size:11.76500034px;font-family:Calibri;-inkscape-font-specification:Calibri;writing-mode:lr-tb;fill:#000000;fill-opacity:1;fill-rule:nonzero;stroke:none"
       id="text2349"><tspan
         x="0 5.9648552"
         y="0"
         sodipodi:role="line"
         id="tspan2347">9%</tspan></text>
<text
       transform="matrix(1,0,0,-1,131.40328,331.91418)"
       style="font-variant:normal;font-weight:normal;font-size:11.76500034px;font-family:Calibri;-inkscape-font-specification:Calibri;writing-mode:lr-tb;fill:#000000;fill-opacity:1;fill-rule:nonzero;stroke:none"
       id="text2353"><tspan
         x="0 7.6799216 13.919854 18.959803 21.653988 27.359707 30.119682 35.096279 37.919594 44.639515 49.679466 52.37365 58.550274 63.150391 65.879295 72.267693 77.999161"
         y="0"
         sodipodi:role="line"
         id="tspan2351">Nucleic Acids Res</tspan></text>
<text
       transform="matrix(1,0,0,-1,165.59238,317.51382)"
       style="font-variant:normal;font-weight:normal;font-size:11.76500034px;font-family:Calibri;-inkscape-font-specification:Calibri;writing-mode:lr-tb;fill:#000000;fill-opacity:1;fill-rule:nonzero;stroke:none"
       id="text2357"><tspan
         x="0 5.9648552"
         y="0"
         sodipodi:role="line"
         id="tspan2355">8%</tspan></text>
<text
       transform="matrix(1,0,0,-1,135.35633,370.07984)"
       style="font-variant:normal;font-weight:normal;font-size:11.76500034px;font-family:Calibri;-inkscape-font-specification:Calibri;writing-mode:lr-tb;fill:#000000;fill-opacity:1;fill-rule:nonzero;stroke:none"
       id="text2361"><tspan
         x="0 6.4001598 16.459234 22.72998 25.38887 30.789005 36.239601 40.839714 44.780991 47.519482 53.919643 56.51939 62.719543"
         y="0"
         sodipodi:role="line"
         id="tspan2359">BMC Syst Biol</tspan></text>
<text
       transform="matrix(1,0,0,-1,161.03932,355.56183)"
       style="font-variant:normal;font-weight:normal;font-size:11.76500034px;font-family:Calibri;-inkscape-font-specification:Calibri;writing-mode:lr-tb;fill:#000000;fill-opacity:1;fill-rule:nonzero;stroke:none"
       id="text2365"><tspan
         x="0 5.8799353"
         y="0"
         sodipodi:role="line"
         id="tspan2363">7%</tspan></text>
<text
       transform="matrix(1,0,0,-1,143.40359,415.43391)"
       style="font-variant:normal;font-weight:normal;font-size:11.76500034px;font-family:Calibri;-inkscape-font-specification:Calibri;writing-mode:lr-tb;fill:#000000;fill-opacity:1;fill-rule:nonzero;stroke:none"
       id="text2369"><tspan
         x="0 9.9598961 16.160051 18.959803 21.618694 27.889439 33.748409 36.359615 39.119591"
         y="0"
         sodipodi:role="line"
         id="tspan2367">Mol Cell </tspan></text>
<text
       transform="matrix(1,0,0,-1,135.95634,401.03355)"
       style="font-variant:normal;font-weight:normal;font-size:11.76500034px;font-family:Calibri;-inkscape-font-specification:Calibri;writing-mode:lr-tb;fill:#000000;fill-opacity:1;fill-rule:nonzero;stroke:none"
       id="text2373"><tspan
         x="0 6.0825052 10.18849 16.388645 20.39978 26.258751 32.51965 41.919884 44.519512 49.496109"
         y="0"
         sodipodi:role="line"
         id="tspan2371">Proteomics</tspan></text>
<text
       transform="matrix(1,0,0,-1,155.75683,386.51554)"
       style="font-variant:normal;font-weight:normal;font-size:11.76500034px;font-family:Calibri;-inkscape-font-specification:Calibri;writing-mode:lr-tb;fill:#000000;fill-opacity:1;fill-rule:nonzero;stroke:none"
       id="text2377"><tspan
         x="0 5.9648552"
         y="0"
         sodipodi:role="line"
         id="tspan2375">6%</tspan></text>
<text
       transform="matrix(1,0,0,-1,141.12118,445.55231)"
       style="font-variant:normal;font-weight:normal;font-size:11.76500034px;font-family:Calibri;-inkscape-font-specification:Calibri;writing-mode:lr-tb;fill:#000000;fill-opacity:1;fill-rule:nonzero;stroke:none"
       id="text2381"><tspan
         x="0 6.4001598 8.9999075 15.200063 17.999815 24.239748 27.719706 33.919861 38.025845 47.426079 53.061516 57.119381 59.813564 64.679298"
         y="0"
         sodipodi:role="line"
         id="tspan2379">Bioinformatics</tspan></text>
<text
       transform="matrix(1,0,0,-1,168.59245,431.15195)"
       style="font-variant:normal;font-weight:normal;font-size:11.76500034px;font-family:Calibri;-inkscape-font-specification:Calibri;writing-mode:lr-tb;fill:#000000;fill-opacity:1;fill-rule:nonzero;stroke:none"
       id="text2385"><tspan
         x="0 5.8799353"
         y="0"
         sodipodi:role="line"
         id="tspan2383">5%</tspan></text>
<text
       transform="matrix(1,0,0,-1,143.15652,474.23538)"
       style="font-variant:normal;font-weight:normal;font-size:11.76500034px;font-family:Calibri;-inkscape-font-specification:Calibri;writing-mode:lr-tb;fill:#000000;fill-opacity:1;fill-rule:nonzero;stroke:none"
       id="text2389"><tspan
         x="0 6.0825052 11.023805 17.223961 22.624096 25.282986 31.55373 37.753883 47.154121 53.399418 59.639351 63.580624 66.359268 72.75943 75.359177 81.559334"
         y="0"
         sodipodi:role="line"
         id="tspan2387">PLoS Comput Biol</tspan></text>
<text
       transform="matrix(1,0,0,-1,178.19269,459.83503)"
       style="font-variant:normal;font-weight:normal;font-size:11.76500034px;font-family:Calibri;-inkscape-font-specification:Calibri;writing-mode:lr-tb;fill:#000000;fill-opacity:1;fill-rule:nonzero;stroke:none"
       id="text2393"><tspan
         x="0 5.8799353"
         y="0"
         sodipodi:role="line"
         id="tspan2391">5%</tspan></text>
<text
       transform="matrix(1,0,0,-1,248.15915,486.95335)"
       style="font-variant:normal;font-weight:normal;font-size:11.76500034px;font-family:Calibri;-inkscape-font-specification:Calibri;writing-mode:lr-tb;fill:#000000;fill-opacity:1;fill-rule:nonzero;stroke:none"
       id="text2397"><tspan
         x="0 7.7884302 14.039845 19.016439 25.216595 29.157869 34.793304 38.999577 44.54089 50.279457"
         y="0"
         sodipodi:role="line"
         id="tspan2395">Oncotarget</tspan></text>
<text
       transform="matrix(1,0,0,-1,268.07729,472.55299)"
       style="font-variant:normal;font-weight:normal;font-size:11.76500034px;font-family:Calibri;-inkscape-font-specification:Calibri;writing-mode:lr-tb;fill:#000000;fill-opacity:1;fill-rule:nonzero;stroke:none"
       id="text2401"><tspan
         x="0 5.9648552"
         y="0"
         sodipodi:role="line"
         id="tspan2399">4%</tspan></text>
<text
       transform="matrix(1,0,0,-1,121.91631,499.67826)"
       style="font-variant:normal;font-weight:normal;font-size:21.26199913px;font-family:Calibri;-inkscape-font-specification:'Calibri Bold';writing-mode:lr-tb;fill:#000000;fill-opacity:1;fill-rule:nonzero;stroke:none"
       id="text2405"><tspan
         x="0 8.6398773 20.078833 31.559568 36.239506 47.399357 57.599224 64.977142 76.31897 84.802505 93.598747 104.10217 115.51987 126.35832 130.91826 142.07811 147.30856 154.55794 164.9978 172.37572 177.60617 189.04512 200.46281 205.19727 216.71712 227.41191 238.91684 250.43671 261.23657 269.63644 274.07642 284.13333 289.43622 300.85391 309.83594 320.6358 325.31573 335.99561 346.77545 357.55527"
         y="0"
         sodipodi:role="line"
         id="tspan2403">Top Cytoscape Citation Venues Since 2004</tspan></text>
<g
       id="g2407"><g
         id="g2409"
         clip-path="url(#clipPath2413)"><path
           d="m 50.88,528.96 c 0,0.24 0.12,0.36 0.48,0.36 h 509.52 c 0.24,0 0.48,-0.12 0.48,-0.36 V 262.68 c 0,-0.24 -0.24,-0.36 -0.48,-0.36 H 51.36 c -0.36,0 -0.48,0.12 -0.48,0.36 z m 0.84,-266.28 -0.36,0.48 h 509.52 l -0.48,-0.48 v 266.28 l 0.48,-0.48 H 51.36 l 0.36,0.48 z"
           style="fill:#868686;fill-opacity:1;fill-rule:nonzero;stroke:none"
           id="path2415"
           inkscape:connector-curvature="0" /></g></g></g></svg>