<?xml version="1.0" encoding="UTF-8" standalone="no"?>
<!-- Created with Inkscape (http://www.inkscape.org/) -->

<svg
   xmlns:dc="http://purl.org/dc/elements/1.1/"
   xmlns:cc="http://creativecommons.org/ns#"
   xmlns:rdf="http://www.w3.org/1999/02/22-rdf-syntax-ns#"
   xmlns:svg="http://www.w3.org/2000/svg"
   xmlns="http://www.w3.org/2000/svg"
   xmlns:sodipodi="http://sodipodi.sourceforge.net/DTD/sodipodi-0.dtd"
   xmlns:inkscape="http://www.inkscape.org/namespaces/inkscape"
   version="1.1"
   id="svg772"
   xml:space="preserve"
   width="680.79999"
   height="381.91998"
   viewBox="0 0 680.79999 381.91998"
   sodipodi:docname="Google_Groups_Memberships.svg"
   inkscape:version="0.92.3 (2405546, 2018-03-11)"><metadata
     id="metadata778"><rdf:RDF><cc:Work
         rdf:about=""><dc:format>image/svg+xml</dc:format><dc:type
           rdf:resource="http://purl.org/dc/dcmitype/StillImage" /><dc:title></dc:title></cc:Work></rdf:RDF></metadata><defs
     id="defs776"><clipPath
       clipPathUnits="userSpaceOnUse"
       id="clipPath802"><path
         d="M 105.6,477.96 V 314.4 h 374.88 v 163.56 z"
         id="path800"
         inkscape:connector-curvature="0"
         style="clip-rule:evenodd" /></clipPath><clipPath
       clipPathUnits="userSpaceOnUse"
       id="clipPath978"><path
         d="M 50.64,539.4 V 252.72 H 561.36 V 539.4 Z"
         id="path976"
         inkscape:connector-curvature="0"
         style="clip-rule:evenodd" /></clipPath></defs><sodipodi:namedview
     pagecolor="#ffffff"
     bordercolor="#666666"
     borderopacity="1"
     objecttolerance="10"
     gridtolerance="10"
     guidetolerance="10"
     inkscape:pageopacity="0"
     inkscape:pageshadow="2"
     inkscape:window-width="640"
     inkscape:window-height="480"
     id="namedview774"
     showgrid="false"
     inkscape:zoom="0.22348485"
     inkscape:cx="340.32"
     inkscape:cy="191.04001"
     inkscape:window-x="0"
     inkscape:window-y="0"
     inkscape:window-maximized="0"
     inkscape:current-layer="g780" /><g
     id="g780"
     inkscape:groupmode="layer"
     inkscape:label="Google_Groups_Memberships"
     transform="matrix(1.3333333,0,0,-1.3333333,-67.679998,718.87998)"><path
       d="m 51.12,253.08 h 510 V 538.8 h -510 z"
       style="fill:#ffffff;fill-opacity:1;fill-rule:nonzero;stroke:none"
       id="path782"
       inkscape:connector-curvature="0" /><path
       d="M 105.6,315 H 479.88 V 477.84 H 105.6 Z"
       style="fill:#ffffff;fill-opacity:1;fill-rule:nonzero;stroke:none"
       id="path784"
       inkscape:connector-curvature="0" /><path
       d="m 105.6,338.64 h 374.28 v -0.72 H 105.6 Z m 0,23.28 H 479.88 V 361.2 H 105.6 Z m 0,23.28 h 374.28 v -0.72 H 105.6 Z m 0,23.16 h 374.28 v -0.6 H 105.6 Z m 0,23.4 h 374.28 v -0.72 H 105.6 Z m 0,23.28 h 374.28 v -0.72 H 105.6 Z m 0,23.16 h 374.28 v -0.72 H 105.6 Z"
       style="fill:#868686;fill-opacity:1;fill-rule:nonzero;stroke:none"
       id="path786"
       inkscape:connector-curvature="0" /><path
       d="m 105.24,315 h 0.72 v 162.84 h -0.72 z"
       style="fill:#868686;fill-opacity:1;fill-rule:nonzero;stroke:none"
       id="path788"
       inkscape:connector-curvature="0" /><path
       d="m 102.6,315.36 h 3 v -0.72 h -3 z m 0,23.28 h 3 v -0.72 h -3 z m 0,23.28 h 3 v -0.72 h -3 z m 0,23.28 h 3 v -0.72 h -3 z m 0,23.16 h 3 v -0.6 h -3 z m 0,23.4 h 3 v -0.72 h -3 z m 0,23.28 h 3 v -0.72 h -3 z m 0,23.16 h 3 v -0.72 h -3 z"
       style="fill:#868686;fill-opacity:1;fill-rule:nonzero;stroke:none"
       id="path790"
       inkscape:connector-curvature="0" /><path
       d="m 105.6,314.64 h 374.28 v 0.72 H 105.6 Z"
       style="fill:#868686;fill-opacity:1;fill-rule:nonzero;stroke:none"
       id="path792"
       inkscape:connector-curvature="0" /><path
       d="m 105.96,315 v -3 h -0.72 v 3 z m 16.08,0 v -3 h -0.72 v 3 z m 16.08,0 v -3 h -0.72 v 3 z m 16.08,0 v -3 h -0.72 v 3 z m 16.08,0 v -3 h -0.72 v 3 z m 16.08,0 v -3 h -0.72 v 3 z m 15.96,0 v -3 h -0.72 v 3 z m 16.08,0 v -3 h -0.72 v 3 z m 16.2,0 v -3 h -0.72 v 3 z m 16.08,0 v -3 h -0.72 v 3 z m 15.96,0 v -3 h -0.72 v 3 z m 16.08,0 v -3 H 282 v 3 z m 16.2,0 v -3 h -0.72 v 3 z m 15.96,0 v -3 h -0.72 v 3 z m 16.08,0 v -3 h -0.72 v 3 z m 16.08,0 v -3 h -0.72 v 3 z m 16.08,0 v -3 h -0.72 v 3 z m 16.08,0 v -3 h -0.72 v 3 z m 16.08,0 v -3 h -0.72 v 3 z m 15.96,0 v -3 h -0.72 v 3 z m 16.08,0 v -3 h -0.6 v 3 z m 16.2,0 v -3 h -0.72 v 3 z m 16.08,0 v -3 h -0.72 v 3 z m 15.96,0 v -3 h -0.72 v 3 z"
       style="fill:#868686;fill-opacity:1;fill-rule:nonzero;stroke:none"
       id="path794"
       inkscape:connector-curvature="0" /><g
       id="g796"><g
         id="g798"
         clip-path="url(#clipPath802)"><path
           d="m 106.56,316.32 2.28,0.36 2.4,0.36 2.16,0.6 c 0.12,0 0.12,0 0.24,0 l 2.28,0.12 2.28,0.12 h -0.12 l 2.28,0.36 2.28,0.36 2.28,0.48 2.28,0.48 2.28,0.6 2.28,0.48 2.28,0.6 2.4,0.36 2.28,0.36 2.28,0.36 2.4,0.36 2.28,0.36 2.28,0.24 -0.24,-0.12 2.28,0.72 2.4,0.6 2.4,0.36 2.28,0.48 2.28,0.48 2.28,0.6 2.28,0.6 2.28,0.48 2.28,0.48 2.4,0.36 2.16,0.6 2.28,0.72 2.28,0.48 2.4,0.6 2.4,0.36 h -0.24 l 2.28,0.72 2.28,0.96 c 0.12,0 0.12,0 0.24,0 l 2.28,0.36 2.4,0.24 2.16,0.48 2.28,0.36 2.28,0.48 2.28,0.36 2.4,0.36 h -0.12 l 2.28,0.84 -0.36,-0.24 2.28,1.8 c 0.12,0 0.24,0.12 0.36,0.12 l 2.28,0.72 2.28,0.72 2.28,0.96 2.28,0.84 2.4,0.48 2.28,0.36 2.4,0.36 2.52,0.12 2.16,0.24 2.16,0.48 2.28,0.48 -0.12,-0.12 2.28,0.96 2.4,0.72 2.4,0.48 2.04,0.72 2.4,0.6 2.16,0.84 2.52,0.72 2.28,0.48 2.4,0.36 2.4,0.24 2.16,0.48 2.16,0.6 2.4,0.48 2.16,0.6 2.4,0.6 2.28,0.6 2.28,0.36 2.4,0.48 2.4,0.24 2.28,0.12 h -0.24 l 2.28,0.84 2.4,0.48 2.28,0.48 2.28,0.36 h -0.12 l 2.28,0.96 2.28,0.72 2.28,0.84 2.28,1.32 c 0,0 0.12,0 0.24,0.12 l 2.28,0.6 2.28,0.48 2.28,0.48 2.28,0.48 -0.12,-0.12 2.28,0.96 c 0,0 0.12,0 0.24,0.12 l 2.28,0.36 2.28,0.36 h -0.12 l 2.28,0.72 -0.36,-0.24 2.28,1.68 c 0.12,0 0.24,0.12 0.36,0.12 l 2.4,0.72 2.16,0.84 2.4,0.72 2.16,0.84 2.28,1.08 2.4,0.72 -0.24,-0.12 2.28,1.32 2.4,1.08 2.28,0.96 2.28,1.08 2.28,1.44 2.28,1.32 -0.24,-0.24 2.28,2.76 c 0,0 0.12,0.12 0.12,0.12 l 2.4,1.8 2.4,1.32 2.16,1.44 c 0.12,0 0.12,0 0.24,0.12 l 2.28,0.84 2.16,1.08 -0.12,-0.12 2.28,1.44 c 0.12,0.12 0.24,0.12 0.24,0.12 l 2.4,0.72 2.28,0.96 2.28,0.96 -0.24,-0.12 2.28,1.68 2.28,1.8 c 0.12,0.12 0.24,0.24 0.36,0.24 l 2.28,0.72 2.28,0.6 2.28,0.72 -0.24,-0.12 2.28,1.44 c 0,0 0.12,0 0.12,0 l 2.28,0.84 2.4,0.72 2.4,0.72 2.28,0.72 2.16,0.96 2.28,0.84 2.4,0.84 2.16,0.84 2.4,0.84 2.4,0.6 2.16,0.72 2.4,0.6 2.4,0.36 2.28,0.48 2.16,0.72 2.28,0.72 2.4,0.6 2.4,0.24 -0.12,-0.12 2.28,0.6 -0.36,-0.12 2.28,1.44 c 0.12,0.12 0.24,0.12 0.36,0.24 l 2.28,0.36 2.28,0.6 2.28,0.84 2.4,0.6 c 0,0 0,0.12 0.12,0.12 l 2.28,0.24 2.4,0.12 c 0.6,0 1.08,-0.36 1.08,-0.96 0,-0.6 -0.48,-1.08 -1.08,-1.2 h -2.16 l -2.28,-0.36 h 0.24 l -2.28,-0.6 -2.52,-0.84 -2.28,-0.6 -2.28,-0.48 0.36,0.12 -2.28,-1.44 c -0.12,-0.12 -0.24,-0.12 -0.36,-0.12 l -2.28,-0.6 c 0,0 -0.12,0 -0.12,0 l -2.16,-0.24 -2.16,-0.36 -2.4,-0.84 -2.28,-0.72 -2.4,-0.6 -2.28,-0.36 -2.28,-0.48 -2.28,-0.72 -2.16,-0.6 -2.28,-0.72 -2.28,-0.96 -2.28,-0.72 -2.28,-0.96 -2.4,-0.96 -2.28,-0.84 -2.4,-0.6 -2.28,-0.72 -2.28,-0.84 0.24,0.12 -2.28,-1.32 c -0.12,-0.12 -0.12,-0.12 -0.24,-0.12 l -2.28,-0.72 -2.28,-0.72 -2.28,-0.6 0.36,0.12 -2.28,-1.8 -2.4,-1.68 c 0,-0.12 -0.12,-0.12 -0.24,-0.12 l -2.16,-0.96 -2.52,-1.08 -2.28,-0.72 0.24,0.12 -2.28,-1.44 c -0.12,0 -0.12,0 -0.12,-0.12 l -2.4,-0.96 -2.28,-0.96 0.24,0.12 -2.4,-1.56 -2.16,-1.2 -2.28,-1.68 0.24,0.24 -2.28,-2.76 c -0.12,-0.12 -0.24,-0.24 -0.36,-0.24 l -2.28,-1.44 -2.52,-1.56 -2.28,-0.96 -2.16,-0.96 -2.28,-1.08 -2.28,-1.2 c -0.12,-0.12 -0.12,-0.12 -0.24,-0.12 l -2.16,-0.6 -2.28,-1.08 -2.4,-0.96 -2.16,-0.6 -2.4,-0.96 -2.4,-0.72 0.36,0.12 -2.28,-1.56 c -0.12,-0.12 -0.24,-0.12 -0.36,-0.12 l -2.28,-0.72 c 0,0 -0.12,0 -0.12,0 l -2.28,-0.36 -2.28,-0.48 0.24,0.12 -2.28,-0.96 c -0.12,0 -0.12,0 -0.24,-0.12 l -2.28,-0.36 -2.28,-0.48 -2.16,-0.48 -2.28,-0.72 0.24,0.12 -2.64,-1.44 -2.28,-0.96 -2.28,-0.6 -2.28,-0.96 c 0,0 -0.12,0 -0.12,0 l -2.28,-0.48 -2.28,-0.48 -2.16,-0.36 -2.28,-0.84 c -0.12,0 -0.24,0 -0.24,0 l -2.28,-0.24 -2.28,-0.24 -2.4,-0.48 -2.16,-0.36 -2.28,-0.48 -2.28,-0.6 -2.4,-0.72 -2.16,-0.48 -2.4,-0.48 -2.4,-0.48 -2.16,-0.24 -2.16,-0.36 -2.28,-0.6 -2.4,-0.6 -2.28,-0.84 -2.28,-0.6 -2.4,-0.84 -2.16,-0.36 -2.16,-0.72 -2.4,-0.84 c 0,0 -0.12,-0.12 -0.12,-0.12 l -2.28,-0.48 -2.4,-0.36 -2.4,-0.24 -2.28,-0.12 -2.16,-0.36 -2.28,-0.48 -2.16,-0.36 -2.28,-0.84 -2.28,-0.96 -2.4,-0.72 -2.28,-0.72 0.36,0.12 -2.28,-1.68 c -0.12,-0.12 -0.12,-0.12 -0.24,-0.12 l -2.28,-0.84 c -0.12,0 -0.12,0 -0.24,0 L 201,333 l -2.28,-0.48 -2.28,-0.48 -2.28,-0.36 -2.4,-0.36 -2.16,-0.24 -2.28,-0.36 h 0.24 l -2.4,-0.84 -2.28,-0.84 c 0,0 -0.12,0 -0.12,0 l -2.28,-0.36 -2.28,-0.6 -2.28,-0.6 -2.4,-0.6 -2.28,-0.6 -2.28,-0.36 -2.28,-0.6 -2.28,-0.48 -2.28,-0.48 -2.28,-0.6 -2.28,-0.48 -2.52,-0.6 -2.16,-0.36 -2.16,-0.48 -2.4,-0.72 c 0,0 -0.12,0 -0.12,0 l -2.28,-0.24 -2.28,-0.36 -2.28,-0.36 -2.28,-0.36 -2.28,-0.24 -2.16,-0.36 -2.52,-0.72 -2.16,-0.48 -2.4,-0.6 -2.28,-0.36 -2.28,-0.48 -2.28,-0.36 -2.28,-0.48 c 0,0 -0.12,0 -0.12,0 l -2.28,-0.12 -2.28,-0.12 H 114 l -2.4,-0.6 -2.4,-0.24 -2.28,-0.36 c -0.6,-0.12 -1.08,0.24 -1.2,0.84 -0.12,0.6 0.24,1.2 0.84,1.2 z"
           style="fill:#4a7ebb;fill-opacity:1;fill-rule:nonzero;stroke:none"
           id="path804"
           inkscape:connector-curvature="0" /></g></g><path
       d="m 168.72,316.8 h 2.28 2.28 2.28 2.28 2.4 l 2.28,0.12 h 2.28 l 2.28,0.12 2.16,0.36 2.4,0.12 2.28,0.24 h -0.24 l 2.28,0.48 2.4,0.6 2.28,0.36 2.28,0.72 2.4,0.36 2.28,0.48 2.16,0.84 2.28,0.72 2.28,0.6 2.4,0.6 2.28,0.48 2.28,0.6 2.28,0.6 2.4,0.48 c 0.12,0 0.12,0 0.24,0.12 h 2.28 l 2.16,0.24 h -0.24 l 2.28,0.84 2.28,0.96 c 0,0 0.12,0 0.12,0 l 2.28,0.48 2.4,0.36 2.16,0.6 2.28,0.6 2.16,0.84 2.4,0.96 c 0,0.12 0.12,0.12 0.24,0.12 l 2.28,0.48 2.16,0.48 2.28,0.6 c 0.12,0 0.12,0 0.24,0 l 2.28,0.24 H 258 l 2.28,0.72 2.28,0.72 2.28,0.6 2.28,0.84 2.28,0.72 2.16,0.96 2.52,0.84 c 0,0.12 0.12,0.12 0.24,0.12 l 2.28,0.24 2.16,0.36 2.28,0.6 c 0,0 0.12,0 0.12,0 l 2.28,0.24 2.28,0.36 2.16,0.6 2.16,0.72 2.28,0.72 2.28,0.72 2.52,0.6 2.28,0.72 2.28,0.72 2.28,0.48 2.4,0.36 2.28,0.36 2.16,0.6 2.4,0.48 -0.36,-0.12 2.28,1.2 c 0.12,0 0.24,0 0.36,0.12 l 2.28,0.36 h -0.24 l 2.4,0.96 2.4,0.72 2.28,0.84 c 0,0 0.12,0 0.12,0 l 2.28,0.36 -0.24,-0.12 2.28,1.08 2.4,0.84 2.16,0.96 2.28,1.08 2.4,0.72 -0.12,-0.12 2.28,1.2 2.4,1.2 c 0,0 0.12,0 0.12,0 l 2.28,0.72 -0.24,-0.12 2.4,1.2 2.28,1.2 2.16,1.44 2.16,1.8 c 0.12,0 0.12,0 0.24,0.12 l 2.28,1.08 2.16,1.32 2.28,1.44 c 0.12,0 0.24,0 0.24,0.12 l 2.28,0.72 2.4,0.96 -0.24,-0.12 2.28,1.56 2.28,1.56 -0.12,-0.12 2.28,2.16 c 0,0 0.12,0 0.12,0.12 l 2.28,1.44 c 0.12,0 0.12,0.12 0.24,0.12 l 2.28,0.96 2.28,0.96 -0.24,-0.12 2.28,1.92 c 0,0 0.12,0.12 0.24,0.12 l 2.28,0.84 2.28,0.96 2.4,1.2 2.4,0.84 2.16,1.08 -0.24,-0.12 2.28,1.8 2.4,1.56 2.16,1.56 2.4,1.56 2.28,1.44 2.28,1.32 c 0.12,0 0.12,0 0.24,0 l 2.28,0.84 2.4,0.96 -0.24,-0.12 2.28,1.44 c 0,0 0.12,0.12 0.12,0.12 l 2.4,0.96 2.28,0.84 2.28,0.96 -0.24,-0.12 2.28,1.68 2.28,1.56 c 0.12,0 0.12,0 0.12,0 l 2.28,1.08 2.28,1.2 c 0,0 0.12,0 0.12,0.12 l 2.28,0.72 -0.24,-0.12 2.4,1.68 2.28,1.68 -0.48,-0.72 2.28,19.08 c 0.12,0.36 0.24,0.72 0.6,0.84 l 2.28,1.32 2.4,1.2 2.16,1.2 2.28,1.2 2.16,1.44 2.4,1.44 -0.24,-0.12 2.28,2.04 c 0.12,0 0.12,0 0.12,0.12 l 2.4,1.56 2.28,1.56 c 0.12,0 0.12,0.12 0.12,0.12 l 2.4,1.08 2.28,1.08 2.28,1.08 2.28,0.96 2.28,1.08 2.28,1.08 c 0,0.12 0.12,0.12 0.24,0.12 l 2.28,0.6 -0.24,-0.12 2.4,0.96 c 0.48,0.24 1.08,0 1.32,-0.48 0.24,-0.6 0,-1.2 -0.48,-1.44 l -2.4,-0.96 c 0,0 -0.12,-0.12 -0.12,-0.12 l -2.28,-0.48 h 0.24 l -2.4,-1.08 -2.28,-1.08 -2.28,-1.08 -2.28,-0.96 -2.28,-1.08 -2.28,-1.08 0.24,0.12 -2.4,-1.68 -2.4,-1.56 0.12,0.12 -2.28,-2.04 c 0,-0.12 -0.12,-0.12 -0.12,-0.24 l -2.28,-1.32 -2.4,-1.56 -2.16,-1.08 -2.4,-1.44 -2.16,-0.96 -2.28,-1.32 0.48,0.72 -2.28,-19.2 c 0,-0.24 -0.24,-0.48 -0.48,-0.72 l -2.28,-1.68 -2.4,-1.68 c -0.12,0 -0.12,0 -0.24,-0.12 l -2.28,-0.72 h 0.12 l -2.28,-1.2 -2.28,-1.08 0.12,0.12 -2.28,-1.44 -2.28,-1.8 c 0,0 -0.12,0 -0.24,-0.12 l -2.28,-0.84 -2.28,-0.96 -2.28,-0.96 0.24,0.12 -2.28,-1.44 c -0.12,-0.12 -0.12,-0.12 -0.24,-0.12 l -2.4,-0.96 -2.28,-0.72 H 408 l -2.28,-1.2 -2.16,-1.32 -2.28,-1.56 -2.4,-1.68 -2.16,-1.44 -2.28,-1.8 c 0,0 -0.12,-0.12 -0.24,-0.12 l -2.4,-1.2 -2.16,-0.72 -2.4,-1.2 -2.4,-1.08 -2.28,-0.72 0.36,0.12 -2.28,-1.92 C 380.52,378 380.52,378 380.4,377.88 l -2.28,-0.84 -2.28,-1.08 0.12,0.12 -2.28,-1.44 0.12,0.12 -2.28,-2.16 c 0,-0.12 -0.12,-0.12 -0.12,-0.12 l -2.28,-1.56 -2.28,-1.56 c 0,0 -0.12,-0.12 -0.24,-0.12 l -2.4,-0.96 -2.28,-0.72 h 0.24 l -2.28,-1.32 -2.4,-1.44 -2.28,-1.08 0.24,0.12 -2.4,-1.92 -2.4,-1.56 -2.28,-1.08 -2.28,-1.32 c 0,0 -0.12,0 -0.24,0 l -2.28,-0.72 h 0.24 l -2.4,-1.08 -2.28,-1.2 c -0.12,0 -0.12,0 -0.24,0 l -2.16,-0.6 -2.28,-1.08 -2.28,-1.08 -2.28,-0.72 -2.28,-1.08 c -0.12,0 -0.12,0 -0.24,0 l -2.28,-0.36 h 0.12 l -2.28,-0.84 -2.16,-0.72 -2.4,-0.96 c -0.12,0 -0.12,0 -0.24,0 l -2.28,-0.48 0.24,0.12 -2.28,-1.2 c 0,0 -0.12,0 -0.24,-0.12 l -2.28,-0.36 -2.28,-0.6 -2.28,-0.48 -2.28,-0.36 -2.16,-0.36 -2.28,-0.72 -2.4,-0.72 -2.28,-0.48 -2.28,-0.84 -2.28,-0.72 -2.4,-0.84 -2.4,-0.6 -2.28,-0.36 -2.28,-0.12 h 0.12 l -2.28,-0.6 -2.4,-0.48 -2.28,-0.24 0.24,0.12 -2.4,-0.96 -2.28,-0.96 -2.28,-0.72 -2.4,-0.84 -2.28,-0.6 -2.16,-0.6 -2.4,-0.84 c 0,0 -0.12,-0.12 -0.24,-0.12 l -2.28,-0.12 h 0.24 l -2.28,-0.6 -2.4,-0.6 -2.28,-0.48 0.24,0.12 -2.4,-1.08 -2.4,-0.96 -2.4,-0.6 -2.28,-0.48 -2.28,-0.36 -2.28,-0.48 0.24,0.12 -2.4,-1.08 -2.28,-0.84 c -0.12,0 -0.12,0 -0.24,0 l -2.28,-0.24 -2.4,-0.12 h 0.24 l -2.4,-0.6 -2.28,-0.6 -2.28,-0.48 -2.28,-0.48 -2.28,-0.6 -2.28,-0.6 -2.16,-0.72 -2.4,-0.84 -2.4,-0.6 -2.16,-0.36 -2.52,-0.6 -2.16,-0.36 -2.28,-0.6 -2.28,-0.6 c -0.12,0 -0.12,0 -0.24,0 l -2.28,-0.24 -2.16,-0.12 -2.4,-0.36 -2.4,-0.12 h -2.16 l -2.4,-0.12 h -2.28 -2.4 -2.28 -2.28 -2.28 c -0.6,0 -1.08,0.48 -1.08,1.08 0,0.6 0.48,1.08 1.08,1.08 z"
       style="fill:#c00000;fill-opacity:1;fill-rule:nonzero;stroke:none"
       id="path806"
       inkscape:connector-curvature="0" /><path
       d="m 434.64,318.96 2.4,0.96 c 0,0 0.12,0.12 0.12,0.12 l 2.28,0.48 2.4,0.36 2.28,0.12 2.28,0.36 2.4,0.12 h -0.12 l 2.28,0.48 2.28,0.36 2.16,0.48 c 0.12,0.12 0.12,0.12 0.24,0.12 l 2.4,0.24 2.16,0.24 2.4,0.24 2.28,0.12 2.28,0.12 h 2.4 2.28 L 474,324 h 2.4 l 2.28,0.12 c 0.6,0 1.08,-0.36 1.08,-0.96 0,-0.6 -0.48,-1.08 -0.96,-1.2 l -2.4,-0.12 h -2.28 l -2.28,-0.12 h -2.28 -2.28 -2.28 l -2.28,-0.12 -2.16,-0.24 -2.4,-0.36 -2.4,-0.24 H 456 l -2.4,-0.6 -2.28,-0.36 -2.28,-0.36 c 0,0 -0.12,-0.12 -0.12,-0.12 h -2.16 l -2.4,-0.36 -2.16,-0.24 -2.28,-0.36 -2.28,-0.48 0.24,0.12 -2.4,-1.08 c -0.48,-0.24 -1.2,0.12 -1.44,0.6 -0.24,0.6 0.12,1.2 0.6,1.44 z"
       style="fill:#ffc000;fill-opacity:1;fill-rule:nonzero;stroke:none"
       id="path808"
       inkscape:connector-curvature="0" /><text
       transform="matrix(1,0,0,-1,92.041548,312.23777)"
       style="font-variant:normal;font-weight:normal;font-size:9.48099995px;font-family:Calibri;-inkscape-font-specification:Calibri;writing-mode:lr-tb;fill:#000000;fill-opacity:1;fill-rule:nonzero;stroke:none"
       id="text812"><tspan
         x="0"
         y="0"
         id="tspan810">0</tspan></text>
<text
       transform="matrix(1,0,0,-1,82.323523,335.51363)"
       style="font-variant:normal;font-weight:normal;font-size:9.48099995px;font-family:Calibri;-inkscape-font-specification:Calibri;writing-mode:lr-tb;fill:#000000;fill-opacity:1;fill-rule:nonzero;stroke:none"
       id="text816"><tspan
         x="0 4.8068671 9.7199497"
         y="0"
         sodipodi:role="line"
         id="tspan814">500</tspan></text>
<text
       transform="matrix(1,0,0,-1,77.516656,358.79896)"
       style="font-variant:normal;font-weight:normal;font-size:9.48099995px;font-family:Calibri;-inkscape-font-specification:Calibri;writing-mode:lr-tb;fill:#000000;fill-opacity:1;fill-rule:nonzero;stroke:none"
       id="text820"><tspan
         x="0 4.8068671 9.7199497 14.526816"
         y="0"
         sodipodi:role="line"
         id="tspan818">1000</tspan></text>
<text
       transform="matrix(1,0,0,-1,77.516656,382.07482)"
       style="font-variant:normal;font-weight:normal;font-size:9.48099995px;font-family:Calibri;-inkscape-font-specification:Calibri;writing-mode:lr-tb;fill:#000000;fill-opacity:1;fill-rule:nonzero;stroke:none"
       id="text824"><tspan
         x="0 4.8068671 9.7199497 14.526816"
         y="0"
         sodipodi:role="line"
         id="tspan822">1500</tspan></text>
<text
       transform="matrix(1,0,0,-1,77.516656,405.36016)"
       style="font-variant:normal;font-weight:normal;font-size:9.48099995px;font-family:Calibri;-inkscape-font-specification:Calibri;writing-mode:lr-tb;fill:#000000;fill-opacity:1;fill-rule:nonzero;stroke:none"
       id="text828"><tspan
         x="0 4.8068671 9.7199497 14.526816"
         y="0"
         sodipodi:role="line"
         id="tspan826">2000</tspan></text>
<text
       transform="matrix(1,0,0,-1,77.516656,428.63601)"
       style="font-variant:normal;font-weight:normal;font-size:9.48099995px;font-family:Calibri;-inkscape-font-specification:Calibri;writing-mode:lr-tb;fill:#000000;fill-opacity:1;fill-rule:nonzero;stroke:none"
       id="text832"><tspan
         x="0 4.8068671 9.7199497 14.526816"
         y="0"
         sodipodi:role="line"
         id="tspan830">2500</tspan></text>
<text
       transform="matrix(1,0,0,-1,77.516656,451.92135)"
       style="font-variant:normal;font-weight:normal;font-size:9.48099995px;font-family:Calibri;-inkscape-font-specification:Calibri;writing-mode:lr-tb;fill:#000000;fill-opacity:1;fill-rule:nonzero;stroke:none"
       id="text836"><tspan
         x="0 4.8068671 9.7199497 14.526816"
         y="0"
         sodipodi:role="line"
         id="tspan834">3000</tspan></text>
<text
       transform="matrix(1,0,0,-1,77.516656,475.07395)"
       style="font-variant:normal;font-weight:normal;font-size:9.48099995px;font-family:Calibri;-inkscape-font-specification:Calibri;writing-mode:lr-tb;fill:#000000;fill-opacity:1;fill-rule:nonzero;stroke:none"
       id="text840"><tspan
         x="0 4.8068671 9.7199497 14.526816"
         y="0"
         sodipodi:role="line"
         id="tspan838">3500</tspan></text>
<text
       transform="matrix(0,1,1,0,110.03649,286.07969)"
       style="font-variant:normal;font-weight:normal;font-size:9.48099995px;font-family:Calibri;-inkscape-font-specification:Calibri;writing-mode:lr-tb;fill:#000000;fill-opacity:1;fill-rule:nonzero;stroke:none"
       id="text844"><tspan
         x="0 3.1199884 8.0975132 10.268662 13.169848 17.976715"
         y="0"
         sodipodi:role="line"
         id="tspan842">Jul-04</tspan></text>
<text
       transform="matrix(0,1,1,0,126.11626,282.23989)"
       style="font-variant:normal;font-weight:normal;font-size:9.48099995px;font-family:Calibri;-inkscape-font-specification:Calibri;writing-mode:lr-tb;fill:#000000;fill-opacity:1;fill-rule:nonzero;stroke:none"
       id="text848"><tspan
         x="0 4.351779 9.0733166 14.15993 17.061117 21.867983"
         y="0"
         sodipodi:role="line"
         id="tspan846">Feb-05</tspan></text>
<text
       transform="matrix(0,1,1,0,142.19604,282.23989)"
       style="font-variant:normal;font-weight:normal;font-size:9.48099995px;font-family:Calibri;-inkscape-font-specification:Calibri;writing-mode:lr-tb;fill:#000000;fill-opacity:1;fill-rule:nonzero;stroke:none"
       id="text852"><tspan
         x="0 4.351779 9.0733166 14.15993 17.061117 21.867983"
         y="0"
         sodipodi:role="line"
         id="tspan850">Sep-05</tspan></text>
<text
       transform="matrix(0,1,1,0,158.27581,282.47691)"
       style="font-variant:normal;font-weight:normal;font-size:9.48099995px;font-family:Calibri;-inkscape-font-specification:Calibri;writing-mode:lr-tb;fill:#000000;fill-opacity:1;fill-rule:nonzero;stroke:none"
       id="text856"><tspan
         x="0 5.4894991 10.559947 13.868816 16.770002 21.57687"
         y="0"
         sodipodi:role="line"
         id="tspan854">Apr-06</tspan></text>
<text
       transform="matrix(0,1,1,0,174.35559,280.92203)"
       style="font-variant:normal;font-weight:normal;font-size:9.48099995px;font-family:Calibri;-inkscape-font-specification:Calibri;writing-mode:lr-tb;fill:#000000;fill-opacity:1;fill-rule:nonzero;stroke:none"
       id="text860"><tspan
         x="0 6.1247258 11.121213 15.406625 18.307812 23.114677"
         y="0"
         sodipodi:role="line"
         id="tspan858">Nov-06</tspan></text>
<text
       transform="matrix(0,1,1,0,190.43537,283.32072)"
       style="font-variant:normal;font-weight:normal;font-size:9.48099995px;font-family:Calibri;-inkscape-font-specification:Calibri;writing-mode:lr-tb;fill:#000000;fill-opacity:1;fill-rule:nonzero;stroke:none"
       id="text864"><tspan
         x="0 3.1199884 8.0975132 12.959939 15.959927 20.766794"
         y="0"
         sodipodi:role="line"
         id="tspan862">Jun-07</tspan></text>
<text
       transform="matrix(0,1,1,0,206.40137,283.79477)"
       style="font-variant:normal;font-weight:normal;font-size:9.48099995px;font-family:Calibri;-inkscape-font-specification:Calibri;writing-mode:lr-tb;fill:#000000;fill-opacity:1;fill-rule:nonzero;stroke:none"
       id="text868"><tspan
         x="0 3.0244391 7.5658379 12.479935 15.479922 20.286789"
         y="0"
         sodipodi:role="line"
         id="tspan866">Jan-08</tspan></text>
<text
       transform="matrix(0,1,1,0,222.48115,281.39608)"
       style="font-variant:normal;font-weight:normal;font-size:9.48099995px;font-family:Calibri;-inkscape-font-specification:Calibri;writing-mode:lr-tb;fill:#000000;fill-opacity:1;fill-rule:nonzero;stroke:none"
       id="text872"><tspan
         x="0 5.3999701 10.439946 14.905498 17.879915 22.686781"
         y="0"
         sodipodi:role="line"
         id="tspan870">Aug-08</tspan></text>
<text
       transform="matrix(0,1,1,0,238.56092,280.31525)"
       style="font-variant:normal;font-weight:normal;font-size:9.48099995px;font-family:Calibri;-inkscape-font-specification:Calibri;writing-mode:lr-tb;fill:#000000;fill-opacity:1;fill-rule:nonzero;stroke:none"
       id="text876"><tspan
         x="0 8.1062546 12.719937 15.959917 18.959906 23.766771"
         y="0"
         sodipodi:role="line"
         id="tspan874">Mar-09</tspan></text>
<text
       transform="matrix(0,1,1,0,254.6407,282.83719)"
       style="font-variant:normal;font-weight:normal;font-size:9.48099995px;font-family:Calibri;-inkscape-font-specification:Calibri;writing-mode:lr-tb;fill:#000000;fill-opacity:1;fill-rule:nonzero;stroke:none"
       id="text880"><tspan
         x="0 6.276422 10.286885 13.46302 16.43992 21.246788"
         y="0"
         sodipodi:role="line"
         id="tspan878">Oct-09</tspan></text>
<text
       transform="matrix(0,1,1,0,270.72047,279.35766)"
       style="font-variant:normal;font-weight:normal;font-size:9.48099995px;font-family:Calibri;-inkscape-font-specification:Calibri;writing-mode:lr-tb;fill:#000000;fill-opacity:1;fill-rule:nonzero;stroke:none"
       id="text884"><tspan
         x="0 8.1062546 12.719937 17.01483 19.916016 24.839878"
         y="0"
         sodipodi:role="line"
         id="tspan882">May-10</tspan></text>
<text
       transform="matrix(0,1,1,0,286.80025,281.75636)"
       style="font-variant:normal;font-weight:normal;font-size:9.48099995px;font-family:Calibri;-inkscape-font-specification:Calibri;writing-mode:lr-tb;fill:#000000;fill-opacity:1;fill-rule:nonzero;stroke:none"
       id="text888"><tspan
         x="0 5.759973 10.559947 14.639925 17.39991 22.319885"
         y="0"
         sodipodi:role="line"
         id="tspan886">Dec-10</tspan></text>
<text
       transform="matrix(0,1,1,0,302.88003,286.07969)"
       style="font-variant:normal;font-weight:normal;font-size:9.48099995px;font-family:Calibri;-inkscape-font-specification:Calibri;writing-mode:lr-tb;fill:#000000;fill-opacity:1;fill-rule:nonzero;stroke:none"
       id="text892"><tspan
         x="0 3.1199884 8.0975132 10.268662 13.169848 17.976715"
         y="0"
         sodipodi:role="line"
         id="tspan890">Jul-11</tspan></text>
<text
       transform="matrix(0,1,1,0,318.9598,282.23989)"
       style="font-variant:normal;font-weight:normal;font-size:9.48099995px;font-family:Calibri;-inkscape-font-specification:Calibri;writing-mode:lr-tb;fill:#000000;fill-opacity:1;fill-rule:nonzero;stroke:none"
       id="text896"><tspan
         x="0 4.351779 9.0733166 14.15993 17.061117 21.867983"
         y="0"
         sodipodi:role="line"
         id="tspan894">Feb-12</tspan></text>
<text
       transform="matrix(0,1,1,0,335.03958,282.23989)"
       style="font-variant:normal;font-weight:normal;font-size:9.48099995px;font-family:Calibri;-inkscape-font-specification:Calibri;writing-mode:lr-tb;fill:#000000;fill-opacity:1;fill-rule:nonzero;stroke:none"
       id="text900"><tspan
         x="0 4.351779 9.0733166 14.15993 17.061117 21.867983"
         y="0"
         sodipodi:role="line"
         id="tspan898">Sep-12</tspan></text>
<text
       transform="matrix(0,1,1,0,351.11935,282.47691)"
       style="font-variant:normal;font-weight:normal;font-size:9.48099995px;font-family:Calibri;-inkscape-font-specification:Calibri;writing-mode:lr-tb;fill:#000000;fill-opacity:1;fill-rule:nonzero;stroke:none"
       id="text904"><tspan
         x="0 5.4894991 10.559947 13.868816 16.770002 21.57687"
         y="0"
         sodipodi:role="line"
         id="tspan902">Apr-13</tspan></text>
<text
       transform="matrix(0,1,1,0,367.19913,280.92203)"
       style="font-variant:normal;font-weight:normal;font-size:9.48099995px;font-family:Calibri;-inkscape-font-specification:Calibri;writing-mode:lr-tb;fill:#000000;fill-opacity:1;fill-rule:nonzero;stroke:none"
       id="text908"><tspan
         x="0 6.1247258 11.121213 15.406625 18.307812 23.114677"
         y="0"
         sodipodi:role="line"
         id="tspan906">Nov-13</tspan></text>
<text
       transform="matrix(0,1,1,0,383.27891,283.32072)"
       style="font-variant:normal;font-weight:normal;font-size:9.48099995px;font-family:Calibri;-inkscape-font-specification:Calibri;writing-mode:lr-tb;fill:#000000;fill-opacity:1;fill-rule:nonzero;stroke:none"
       id="text912"><tspan
         x="0 3.1199884 8.0975132 12.959939 15.959927 20.766794"
         y="0"
         sodipodi:role="line"
         id="tspan910">Jun-14</tspan></text>
<text
       transform="matrix(0,1,1,0,399.35868,283.79477)"
       style="font-variant:normal;font-weight:normal;font-size:9.48099995px;font-family:Calibri;-inkscape-font-specification:Calibri;writing-mode:lr-tb;fill:#000000;fill-opacity:1;fill-rule:nonzero;stroke:none"
       id="text916"><tspan
         x="0 3.0244391 7.5658379 12.479935 15.479922 20.286789"
         y="0"
         sodipodi:role="line"
         id="tspan914">Jan-15</tspan></text>
<text
       transform="matrix(0,1,1,0,415.3152,281.39608)"
       style="font-variant:normal;font-weight:normal;font-size:9.48099995px;font-family:Calibri;-inkscape-font-specification:Calibri;writing-mode:lr-tb;fill:#000000;fill-opacity:1;fill-rule:nonzero;stroke:none"
       id="text920"><tspan
         x="0 5.3999701 10.439946 14.905498 17.879915 22.686781"
         y="0"
         sodipodi:role="line"
         id="tspan918">Aug-15</tspan></text>
<text
       transform="matrix(0,1,1,0,431.39498,280.31525)"
       style="font-variant:normal;font-weight:normal;font-size:9.48099995px;font-family:Calibri;-inkscape-font-specification:Calibri;writing-mode:lr-tb;fill:#000000;fill-opacity:1;fill-rule:nonzero;stroke:none"
       id="text924"><tspan
         x="0 8.1062546 12.719937 15.959917 18.959906 23.766771"
         y="0"
         sodipodi:role="line"
         id="tspan922">Mar-16</tspan></text>
<text
       transform="matrix(0,1,1,0,447.47476,282.83719)"
       style="font-variant:normal;font-weight:normal;font-size:9.48099995px;font-family:Calibri;-inkscape-font-specification:Calibri;writing-mode:lr-tb;fill:#000000;fill-opacity:1;fill-rule:nonzero;stroke:none"
       id="text928"><tspan
         x="0 6.276422 10.286885 13.46302 16.43992 21.246788"
         y="0"
         sodipodi:role="line"
         id="tspan926">Oct-16</tspan></text>
<text
       transform="matrix(0,1,1,0,463.55453,279.35766)"
       style="font-variant:normal;font-weight:normal;font-size:9.48099995px;font-family:Calibri;-inkscape-font-specification:Calibri;writing-mode:lr-tb;fill:#000000;fill-opacity:1;fill-rule:nonzero;stroke:none"
       id="text932"><tspan
         x="0 8.1062546 12.719937 17.01483 19.916016 24.839878"
         y="0"
         sodipodi:role="line"
         id="tspan930">May-17</tspan></text>
<text
       transform="matrix(0,1,1,0,479.63431,281.75636)"
       style="font-variant:normal;font-weight:normal;font-size:9.48099995px;font-family:Calibri;-inkscape-font-specification:Calibri;writing-mode:lr-tb;fill:#000000;fill-opacity:1;fill-rule:nonzero;stroke:none"
       id="text936"><tspan
         x="0 5.759973 10.559947 14.639925 17.39991 22.319885"
         y="0"
         sodipodi:role="line"
         id="tspan934">Dec-17</tspan></text>
<text
       transform="matrix(0,1,1,0,72.121967,366.35532)"
       style="font-variant:normal;font-weight:normal;font-size:9.48099995px;font-family:Calibri;-inkscape-font-specification:'Calibri Bold';writing-mode:lr-tb;fill:#000000;fill-opacity:1;fill-rule:nonzero;stroke:none"
       id="text940"><tspan
         x="0 8.3999577 13.1689 20.876953 26.039869 30.808813 34.319828 36.359814 41.375263 46.559769 51.651066 56.742363"
         y="0"
         sodipodi:role="line"
         id="tspan938">Member Count</tspan></text>
<text
       transform="matrix(1,0,0,-1,279.23441,267.47797)"
       style="font-variant:normal;font-weight:normal;font-size:9.48099995px;font-family:Calibri;-inkscape-font-specification:'Calibri Bold';writing-mode:lr-tb;fill:#000000;fill-opacity:1;fill-rule:nonzero;stroke:none"
       id="text944"><tspan
         x="0 8.2863941 13.387172 18.599911 21.959892"
         y="0"
         sodipodi:role="line"
         id="tspan942">Month</tspan></text>
<text
       transform="matrix(1,0,0,-1,208.0753,515.27078)"
       style="font-variant:normal;font-weight:normal;font-size:17.13400078px;font-family:Calibri;-inkscape-font-specification:'Calibri Bold';writing-mode:lr-tb;fill:#000000;fill-opacity:1;fill-rule:nonzero;stroke:none"
       id="text948"><tspan
         x="0 10.914358 20.13245 29.350542 37.559082 41.774044 50.392448 61.438496 67.198349 76.558121 85.759079 94.960037 101.7965 105.23742 120.21254 128.83093 142.91649 152.11745 160.79605 166.6759 173.51237 182.71333 186.92828 196.19518"
         y="0"
         sodipodi:role="line"
         id="tspan946">GoogleGroups Membership </tspan></text>
<text
       transform="matrix(1,0,0,-1,230.76071,494.38444)"
       style="font-variant:normal;font-weight:normal;font-size:17.13400078px;font-family:Calibri;-inkscape-font-specification:'Calibri Bold';writing-mode:lr-tb;fill:#000000;fill-opacity:1;fill-rule:nonzero;stroke:none"
       id="text952"><tspan
         x="0 5.345808 14.032746 21.400366 29.999269 38.75906 42.631344 48.576843 57.838593 63.598442 72.816536 82.197983 90.237785 99.438744 103.31103 111.99797 120.59705 127.96466 136.6516 145.33853"
         y="0"
         sodipodi:role="line"
         id="tspan950">(7/04 through 12/17)</tspan></text>
<path
       d="M 494.76,389.04 H 513 c 0.6,0 1.08,-0.48 1.08,-1.08 0,-0.6 -0.48,-1.08 -1.08,-1.08 h -18.24 c -0.6,0 -1.08,0.48 -1.08,1.08 0,0.6 0.48,1.08 1.08,1.08 z"
       style="fill:#4a7ebb;fill-opacity:1;fill-rule:nonzero;stroke:none"
       id="path954"
       inkscape:connector-curvature="0" /><text
       transform="matrix(1,0,0,-1,515.03636,385.19407)"
       style="font-variant:normal;font-weight:normal;font-size:9.48099995px;font-family:Calibri;-inkscape-font-specification:Calibri;writing-mode:lr-tb;fill:#000000;fill-opacity:1;fill-rule:nonzero;stroke:none"
       id="text958"><tspan
         x="0 5.759973 7.9311218 11.759948 15.770411 20.747936 24.455008"
         y="0"
         sodipodi:role="line"
         id="tspan956">Discuss</tspan></text>
<path
       d="M 494.76,371.76 H 513 c 0.6,0 1.08,-0.48 1.08,-0.96 0,-0.6 -0.48,-1.08 -1.08,-1.08 h -18.24 c -0.6,0 -1.08,0.48 -1.08,1.08 0,0.48 0.48,0.96 1.08,0.96 z"
       style="fill:#c00000;fill-opacity:1;fill-rule:nonzero;stroke:none"
       id="path960"
       inkscape:connector-curvature="0" /><text
       transform="matrix(1,0,0,-1,515.03636,368.03346)"
       style="font-variant:normal;font-weight:normal;font-size:9.48099995px;font-family:Calibri;-inkscape-font-specification:Calibri;writing-mode:lr-tb;fill:#000000;fill-opacity:1;fill-rule:nonzero;stroke:none"
       id="text964"><tspan
         x="0 5.9066629 10.559947 12.839938 17.817463 23.759888 28.481426 32.188496"
         y="0"
         sodipodi:role="line"
         id="tspan962">HelpDesk</tspan></text>
<path
       d="M 494.76,354.6 H 513 c 0.6,0 1.08,-0.48 1.08,-1.08 0,-0.6 -0.48,-1.08 -1.08,-1.08 h -18.24 c -0.6,0 -1.08,0.48 -1.08,1.08 0,0.6 0.48,1.08 1.08,1.08 z"
       style="fill:#ffc000;fill-opacity:1;fill-rule:nonzero;stroke:none"
       id="path966"
       inkscape:connector-curvature="0" /><text
       transform="matrix(1,0,0,-1,515.03636,350.75908)"
       style="font-variant:normal;font-weight:normal;font-size:9.48099995px;font-family:Calibri;-inkscape-font-specification:Calibri;writing-mode:lr-tb;fill:#000000;fill-opacity:1;fill-rule:nonzero;stroke:none"
       id="text970"><tspan
         x="0 5.3999701 10.439946 15.479922 21.310738 26.15987"
         y="0"
         sodipodi:role="line"
         id="tspan968">AppDev</tspan></text>
<g
       id="g972"><g
         id="g974"
         clip-path="url(#clipPath978)"><path
           d="m 50.76,538.8 c 0,0.24 0.12,0.36 0.36,0.36 h 510 c 0.12,0 0.36,-0.12 0.36,-0.36 V 253.08 c 0,-0.24 -0.24,-0.36 -0.36,-0.36 h -510 c -0.24,0 -0.36,0.12 -0.36,0.36 z m 0.72,-285.72 -0.36,0.36 h 510 l -0.36,-0.36 V 538.8 l 0.36,-0.36 h -510 l 0.36,0.36 z"
           style="fill:#868686;fill-opacity:1;fill-rule:nonzero;stroke:none"
           id="path980"
           inkscape:connector-curvature="0" /></g></g></g></svg>