<?xml version="1.0" encoding="UTF-8" standalone="no"?>
<!-- Created with Inkscape (http://www.inkscape.org/) -->

<svg
   xmlns:dc="http://purl.org/dc/elements/1.1/"
   xmlns:cc="http://creativecommons.org/ns#"
   xmlns:rdf="http://www.w3.org/1999/02/22-rdf-syntax-ns#"
   xmlns:svg="http://www.w3.org/2000/svg"
   xmlns="http://www.w3.org/2000/svg"
   xmlns:sodipodi="http://sodipodi.sourceforge.net/DTD/sodipodi-0.dtd"
   xmlns:inkscape="http://www.inkscape.org/namespaces/inkscape"
   version="1.1"
   id="svg4953"
   xml:space="preserve"
   width="680.63995"
   height="407.84"
   viewBox="0 0 680.63995 407.84"
   sodipodi:docname="Google_Cytoscape_Citations.svg"
   inkscape:version="0.92.3 (2405546, 2018-03-11)"><metadata
     id="metadata4959"><rdf:RDF><cc:Work
         rdf:about=""><dc:format>image/svg+xml</dc:format><dc:type
           rdf:resource="http://purl.org/dc/dcmitype/StillImage" /><dc:title></dc:title></cc:Work></rdf:RDF></metadata><defs
     id="defs4957"><clipPath
       clipPathUnits="userSpaceOnUse"
       id="clipPath5173"><path
         d="M 50.64,549.12 V 243 h 510.72 v 306.12 z"
         id="path5171"
         inkscape:connector-curvature="0"
         style="clip-rule:evenodd" /></clipPath></defs><sodipodi:namedview
     pagecolor="#ffffff"
     bordercolor="#666666"
     borderopacity="1"
     objecttolerance="10"
     gridtolerance="10"
     guidetolerance="10"
     inkscape:pageopacity="0"
     inkscape:pageshadow="2"
     inkscape:window-width="640"
     inkscape:window-height="480"
     id="namedview4955"
     showgrid="false"
     inkscape:zoom="0.22348485"
     inkscape:cx="340.16"
     inkscape:cy="204.00001"
     inkscape:window-x="0"
     inkscape:window-y="0"
     inkscape:window-maximized="0"
     inkscape:current-layer="g4961" /><g
     id="g4961"
     inkscape:groupmode="layer"
     inkscape:label="Google_Cytoscape_Citations"
     transform="matrix(1.3333333,0,0,-1.3333333,-67.839998,731.83998)"><path
       d="M 51.24,243.36 H 560.88 V 548.4 H 51.24 Z"
       style="fill:#ffffff;fill-opacity:1;fill-rule:nonzero;stroke:none"
       id="path4963"
       inkscape:connector-curvature="0" /><path
       d="m 112.44,305.88 h 436.68 v 174 H 112.44 Z"
       style="fill:#ffffff;fill-opacity:1;fill-rule:nonzero;stroke:none"
       id="path4965"
       inkscape:connector-curvature="0" /><path
       d="m 112.44,335.28 h 436.68 v -0.84 H 112.44 Z m 0,29.04 h 436.68 v -0.84 H 112.44 Z m 0,28.92 h 436.68 v -0.72 H 112.44 Z m 0,29.04 h 436.68 v -0.84 H 112.44 Z m 0,29.04 h 436.68 v -0.84 H 112.44 Z m 0,29.04 h 436.68 v -0.84 H 112.44 Z"
       style="fill:#868686;fill-opacity:1;fill-rule:nonzero;stroke:none"
       id="path4967"
       inkscape:connector-curvature="0" /><path
       d="m 145.8,306.12 h 10.32 v -0.24 H 145.8 Z m 25.68,2.4 h 10.44 v -2.64 h -10.44 z m 25.8,1.8 h 10.32 v -4.44 h -10.32 z m 25.68,5.28 h 10.32 v -9.72 h -10.32 z m 25.68,3.72 h 10.32 v -13.44 h -10.32 z m 25.68,8.64 h 10.2 v -22.08 h -10.2 z M 300,341.04 h 10.2 V 305.88 H 300 Z m 25.68,5.88 h 10.2 v -41.04 h -10.2 z m 25.68,11.04 h 10.2 v -52.08 h -10.2 z m 25.68,18.72 h 10.32 v -70.8 h -10.32 z m 25.8,14.16 h 10.2 v -84.96 h -10.2 z m 25.68,16.44 h 10.2 v -101.4 h -10.2 z m 25.56,9.96 H 464.4 V 305.88 h -10.32 z m 25.68,12.24 h 10.32 v -123.6 h -10.32 z m 25.68,22.2 h 10.32 V 305.88 H 505.44 Z M 531.12,318.6 h 10.32 v -12.72 h -10.32 z"
       style="fill:#4f81bd;fill-opacity:1;fill-rule:nonzero;stroke:none"
       id="path4969"
       inkscape:connector-curvature="0" /><path
       d="m 112.08,305.88 h 0.84 v 174 h -0.84 z"
       style="fill:#868686;fill-opacity:1;fill-rule:nonzero;stroke:none"
       id="path4971"
       inkscape:connector-curvature="0" /><path
       d="m 109.08,306.24 h 3.36 v -0.72 h -3.36 z m 0,29.04 h 3.36 v -0.84 h -3.36 z m 0,29.04 h 3.36 v -0.84 h -3.36 z m 0,28.92 h 3.36 v -0.72 h -3.36 z m 0,29.04 h 3.36 v -0.84 h -3.36 z m 0,29.04 h 3.36 v -0.84 h -3.36 z m 0,29.04 h 3.36 v -0.84 h -3.36 z"
       style="fill:#868686;fill-opacity:1;fill-rule:nonzero;stroke:none"
       id="path4973"
       inkscape:connector-curvature="0" /><path
       d="m 112.44,305.52 h 436.68 v 0.72 H 112.44 Z"
       style="fill:#868686;fill-opacity:1;fill-rule:nonzero;stroke:none"
       id="path4975"
       inkscape:connector-curvature="0" /><path
       d="m 112.92,305.88 v -3.36 h -0.84 v 3.36 z m 25.56,0 v -3.36 h -0.72 v 3.36 z m 25.68,0 v -3.36 h -0.72 v 3.36 z m 25.8,0 v -3.36 h -0.72 v 3.36 z m 25.68,0 v -3.36 h -0.72 v 3.36 z m 25.68,0 v -3.36 h -0.84 v 3.36 z m 25.68,0 v -3.36 h -0.84 v 3.36 z m 25.68,0 v -3.36 h -0.84 v 3.36 z m 25.68,0 v -3.36 h -0.84 v 3.36 z m 25.68,0 v -3.36 h -0.84 v 3.36 z m 25.68,0 v -3.36 h -0.84 v 3.36 z m 25.8,0 v -3.36 h -0.84 v 3.36 z m 25.68,0 v -3.36 h -0.84 v 3.36 z m 25.68,0 v -3.36 h -0.84 v 3.36 z m 25.68,0 v -3.36 h -0.84 v 3.36 z m 25.56,0 v -3.36 h -0.72 v 3.36 z m 25.68,0 v -3.36 h -0.72 v 3.36 z m 25.8,0 v -3.36 h -0.84 v 3.36 z"
       style="fill:#868686;fill-opacity:1;fill-rule:nonzero;stroke:none"
       id="path4977"
       inkscape:connector-curvature="0" /><text
       transform="matrix(1,0,0,-1,122.63734,313.54975)"
       style="font-variant:normal;font-weight:normal;font-size:10.65299988px;font-family:Calibri;-inkscape-font-specification:Calibri;writing-mode:lr-tb;fill:#000000;fill-opacity:1;fill-rule:nonzero;stroke:none"
       id="text4981"><tspan
         x="0"
         y="0"
         id="tspan4979">0</tspan></text>
<text
       transform="matrix(1,0,0,-1,148.31107,313.78411)"
       style="font-variant:normal;font-weight:normal;font-size:10.65299988px;font-family:Calibri;-inkscape-font-specification:Calibri;writing-mode:lr-tb;fill:#000000;fill-opacity:1;fill-rule:nonzero;stroke:none"
       id="text4985"><tspan
         x="0"
         y="0"
         id="tspan4983">5</tspan></text>
<text
       transform="matrix(1,0,0,-1,171.3535,316.19169)"
       style="font-variant:normal;font-weight:normal;font-size:10.65299988px;font-family:Calibri;-inkscape-font-specification:Calibri;writing-mode:lr-tb;fill:#000000;fill-opacity:1;fill-rule:nonzero;stroke:none"
       id="text4989"><tspan
         x="0 5.4010711"
         y="0"
         sodipodi:role="line"
         id="tspan4987">46</tspan></text>
<text
       transform="matrix(1,0,0,-1,197.03789,318.10923)"
       style="font-variant:normal;font-weight:normal;font-size:10.65299988px;font-family:Calibri;-inkscape-font-specification:Calibri;writing-mode:lr-tb;fill:#000000;fill-opacity:1;fill-rule:nonzero;stroke:none"
       id="text4993"><tspan
         x="0 5.4010711"
         y="0"
         sodipodi:role="line"
         id="tspan4991">78</tspan></text>
<text
       transform="matrix(1,0,0,-1,219.95249,323.26528)"
       style="font-variant:normal;font-weight:normal;font-size:10.65299988px;font-family:Calibri;-inkscape-font-specification:Calibri;writing-mode:lr-tb;fill:#000000;fill-opacity:1;fill-rule:nonzero;stroke:none"
       id="text4997"><tspan
         x="0 5.4010711 10.802142"
         y="0"
         sodipodi:role="line"
         id="tspan4995">167</tspan></text>
<text
       transform="matrix(1,0,0,-1,245.75406,326.99383)"
       style="font-variant:normal;font-weight:normal;font-size:10.65299988px;font-family:Calibri;-inkscape-font-specification:Calibri;writing-mode:lr-tb;fill:#000000;fill-opacity:1;fill-rule:nonzero;stroke:none"
       id="text5001"><tspan
         x="0 5.2798185 10.680889"
         y="0"
         sodipodi:role="line"
         id="tspan4999">231</tspan></text>
<text
       transform="matrix(1,0,0,-1,271.42779,335.63342)"
       style="font-variant:normal;font-weight:normal;font-size:10.65299988px;font-family:Calibri;-inkscape-font-specification:Calibri;writing-mode:lr-tb;fill:#000000;fill-opacity:1;fill-rule:nonzero;stroke:none"
       id="text5005"><tspan
         x="0 5.4010711 10.679632"
         y="0"
         sodipodi:role="line"
         id="tspan5003">380</tspan></text>
<text
       transform="matrix(1,0,0,-1,297.11217,348.58747)"
       style="font-variant:normal;font-weight:normal;font-size:10.65299988px;font-family:Calibri;-inkscape-font-specification:Calibri;writing-mode:lr-tb;fill:#000000;fill-opacity:1;fill-rule:nonzero;stroke:none"
       id="text5009"><tspan
         x="0 5.4010711 10.802142"
         y="0"
         sodipodi:role="line"
         id="tspan5007">605</tspan></text>
<text
       transform="matrix(1,0,0,-1,322.7859,354.58511)"
       style="font-variant:normal;font-weight:normal;font-size:10.65299988px;font-family:Calibri;-inkscape-font-specification:Calibri;writing-mode:lr-tb;fill:#000000;fill-opacity:1;fill-rule:nonzero;stroke:none"
       id="text5013"><tspan
         x="0 5.4010711 10.802142"
         y="0"
         sodipodi:role="line"
         id="tspan5011">707</tspan></text>
<text
       transform="matrix(1,0,0,-1,348.47028,365.63227)"
       style="font-variant:normal;font-weight:normal;font-size:10.65299988px;font-family:Calibri;-inkscape-font-specification:Calibri;writing-mode:lr-tb;fill:#000000;fill-opacity:1;fill-rule:nonzero;stroke:none"
       id="text5017"><tspan
         x="0 5.4010711 10.802142"
         y="0"
         sodipodi:role="line"
         id="tspan5015">897</tspan></text>
<text
       transform="matrix(1,0,0,-1,371.38489,384.34959)"
       style="font-variant:normal;font-weight:normal;font-size:10.65299988px;font-family:Calibri;-inkscape-font-specification:Calibri;writing-mode:lr-tb;fill:#000000;fill-opacity:1;fill-rule:nonzero;stroke:none"
       id="text5021"><tspan
         x="0 5.4010711 10.802142 16.203213"
         y="0"
         sodipodi:role="line"
         id="tspan5019">1221</tspan></text>
<text
       transform="matrix(1,0,0,-1,397.06927,398.50742)"
       style="font-variant:normal;font-weight:normal;font-size:10.65299988px;font-family:Calibri;-inkscape-font-specification:Calibri;writing-mode:lr-tb;fill:#000000;fill-opacity:1;fill-rule:nonzero;stroke:none"
       id="text5025"><tspan
         x="0 5.4010711 10.802142 16.203213"
         y="0"
         sodipodi:role="line"
         id="tspan5023">1465</tspan></text>
<text
       transform="matrix(1,0,0,-1,422.743,414.945)"
       style="font-variant:normal;font-weight:normal;font-size:10.65299988px;font-family:Calibri;-inkscape-font-specification:Calibri;writing-mode:lr-tb;fill:#000000;fill-opacity:1;fill-rule:nonzero;stroke:none"
       id="text5029"><tspan
         x="0 5.4010711 10.802142 16.203213"
         y="0"
         sodipodi:role="line"
         id="tspan5027">1747</tspan></text>
<text
       transform="matrix(1,0,0,-1,448.54457,424.90556)"
       style="font-variant:normal;font-weight:normal;font-size:10.65299988px;font-family:Calibri;-inkscape-font-specification:Calibri;writing-mode:lr-tb;fill:#000000;fill-opacity:1;fill-rule:nonzero;stroke:none"
       id="text5033"><tspan
         x="0 5.2798185 10.680889 16.081961"
         y="0"
         sodipodi:role="line"
         id="tspan5031">1920</tspan></text>
<text
       transform="matrix(1,0,0,-1,474.21829,437.02867)"
       style="font-variant:normal;font-weight:normal;font-size:10.65299988px;font-family:Calibri;-inkscape-font-specification:Calibri;writing-mode:lr-tb;fill:#000000;fill-opacity:1;fill-rule:nonzero;stroke:none"
       id="text5037"><tspan
         x="0 5.4010711 10.679632 16.080704"
         y="0"
         sodipodi:role="line"
         id="tspan5035">2129</tspan></text>
<text
       transform="matrix(1,0,0,-1,499.90268,459.34671)"
       style="font-variant:normal;font-weight:normal;font-size:10.65299988px;font-family:Calibri;-inkscape-font-specification:Calibri;writing-mode:lr-tb;fill:#000000;fill-opacity:1;fill-rule:nonzero;stroke:none"
       id="text5041"><tspan
         x="0 5.4010711 10.802142 16.079447"
         y="0"
         sodipodi:role="line"
         id="tspan5039">2513</tspan></text>
<text
       transform="matrix(1,0,0,-1,528.21835,326.15225)"
       style="font-variant:normal;font-weight:normal;font-size:10.65299988px;font-family:Calibri;-inkscape-font-specification:Calibri;writing-mode:lr-tb;fill:#000000;fill-opacity:1;fill-rule:nonzero;stroke:none"
       id="text5045"><tspan
         x="0 5.4010711 10.802142"
         y="0"
         sodipodi:role="line"
         id="tspan5043">218</tspan></text>
<text
       transform="matrix(1,0,0,-1,97.197972,302.74761)"
       style="font-variant:normal;font-weight:normal;font-size:10.65299988px;font-family:Calibri;-inkscape-font-specification:Calibri;writing-mode:lr-tb;fill:#000000;fill-opacity:1;fill-rule:nonzero;stroke:none"
       id="text5049"><tspan
         x="0"
         y="0"
         id="tspan5047">0</tspan></text>
<text
       transform="matrix(1,0,0,-1,86.278647,331.78768)"
       style="font-variant:normal;font-weight:normal;font-size:10.65299988px;font-family:Calibri;-inkscape-font-specification:Calibri;writing-mode:lr-tb;fill:#000000;fill-opacity:1;fill-rule:nonzero;stroke:none"
       id="text5053"><tspan
         x="0 5.4010711 10.919623"
         y="0"
         sodipodi:role="line"
         id="tspan5051">500</tspan></text>
<text
       transform="matrix(1,0,0,-1,80.877576,360.82776)"
       style="font-variant:normal;font-weight:normal;font-size:10.65299988px;font-family:Calibri;-inkscape-font-specification:Calibri;writing-mode:lr-tb;fill:#000000;fill-opacity:1;fill-rule:nonzero;stroke:none"
       id="text5057"><tspan
         x="0 5.4010711 10.919623 16.320694"
         y="0"
         sodipodi:role="line"
         id="tspan5055">1000</tspan></text>
<text
       transform="matrix(1,0,0,-1,80.877576,389.86784)"
       style="font-variant:normal;font-weight:normal;font-size:10.65299988px;font-family:Calibri;-inkscape-font-specification:Calibri;writing-mode:lr-tb;fill:#000000;fill-opacity:1;fill-rule:nonzero;stroke:none"
       id="text5061"><tspan
         x="0 5.4010711 10.919623 16.320694"
         y="0"
         sodipodi:role="line"
         id="tspan5059">1500</tspan></text>
<text
       transform="matrix(1,0,0,-1,80.877576,418.79074)"
       style="font-variant:normal;font-weight:normal;font-size:10.65299988px;font-family:Calibri;-inkscape-font-specification:Calibri;writing-mode:lr-tb;fill:#000000;fill-opacity:1;fill-rule:nonzero;stroke:none"
       id="text5065"><tspan
         x="0 5.4010711 10.919623 16.320694"
         y="0"
         sodipodi:role="line"
         id="tspan5063">2000</tspan></text>
<text
       transform="matrix(1,0,0,-1,80.877576,447.82016)"
       style="font-variant:normal;font-weight:normal;font-size:10.65299988px;font-family:Calibri;-inkscape-font-specification:Calibri;writing-mode:lr-tb;fill:#000000;fill-opacity:1;fill-rule:nonzero;stroke:none"
       id="text5069"><tspan
         x="0 5.4010711 10.919623 16.320694"
         y="0"
         sodipodi:role="line"
         id="tspan5067">2500</tspan></text>
<text
       transform="matrix(1,0,0,-1,80.877576,476.86024)"
       style="font-variant:normal;font-weight:normal;font-size:10.65299988px;font-family:Calibri;-inkscape-font-specification:Calibri;writing-mode:lr-tb;fill:#000000;fill-opacity:1;fill-rule:nonzero;stroke:none"
       id="text5073"><tspan
         x="0 5.4010711 10.919623 16.320694"
         y="0"
         sodipodi:role="line"
         id="tspan5071">3000</tspan></text>
<text
       transform="matrix(1,0,0,-1,114.47714,288.83479)"
       style="font-variant:normal;font-weight:normal;font-size:10.65299988px;font-family:Calibri;-inkscape-font-specification:Calibri;writing-mode:lr-tb;fill:#000000;fill-opacity:1;fill-rule:nonzero;stroke:none"
       id="text5077"><tspan
         x="0 5.4010711 10.919623 16.320694"
         y="0"
         sodipodi:role="line"
         id="tspan5075">2002</tspan></text>
<text
       transform="matrix(1,0,0,-1,140.15087,288.83479)"
       style="font-variant:normal;font-weight:normal;font-size:10.65299988px;font-family:Calibri;-inkscape-font-specification:Calibri;writing-mode:lr-tb;fill:#000000;fill-opacity:1;fill-rule:nonzero;stroke:none"
       id="text5081"><tspan
         x="0 5.4010711 10.919623 16.320694"
         y="0"
         sodipodi:role="line"
         id="tspan5079">2003</tspan></text>
<text
       transform="matrix(1,0,0,-1,165.83525,288.83479)"
       style="font-variant:normal;font-weight:normal;font-size:10.65299988px;font-family:Calibri;-inkscape-font-specification:Calibri;writing-mode:lr-tb;fill:#000000;fill-opacity:1;fill-rule:nonzero;stroke:none"
       id="text5085"><tspan
         x="0 5.4010711 10.919623 16.320694"
         y="0"
         sodipodi:role="line"
         id="tspan5083">2004</tspan></text>
<text
       transform="matrix(1,0,0,-1,191.63682,288.83479)"
       style="font-variant:normal;font-weight:normal;font-size:10.65299988px;font-family:Calibri;-inkscape-font-specification:Calibri;writing-mode:lr-tb;fill:#000000;fill-opacity:1;fill-rule:nonzero;stroke:none"
       id="text5089"><tspan
         x="0 5.2798185 10.799628 16.200699"
         y="0"
         sodipodi:role="line"
         id="tspan5087">2005</tspan></text>
<text
       transform="matrix(1,0,0,-1,217.31055,288.83479)"
       style="font-variant:normal;font-weight:normal;font-size:10.65299988px;font-family:Calibri;-inkscape-font-specification:Calibri;writing-mode:lr-tb;fill:#000000;fill-opacity:1;fill-rule:nonzero;stroke:none"
       id="text5093"><tspan
         x="0 5.4010711 10.919623 16.199442"
         y="0"
         sodipodi:role="line"
         id="tspan5091">2006</tspan></text>
<text
       transform="matrix(1,0,0,-1,242.99493,288.83479)"
       style="font-variant:normal;font-weight:normal;font-size:10.65299988px;font-family:Calibri;-inkscape-font-specification:Calibri;writing-mode:lr-tb;fill:#000000;fill-opacity:1;fill-rule:nonzero;stroke:none"
       id="text5097"><tspan
         x="0 5.4010711 10.919623 16.199442"
         y="0"
         sodipodi:role="line"
         id="tspan5095">2007</tspan></text>
<text
       transform="matrix(1,0,0,-1,268.66866,288.83479)"
       style="font-variant:normal;font-weight:normal;font-size:10.65299988px;font-family:Calibri;-inkscape-font-specification:Calibri;writing-mode:lr-tb;fill:#000000;fill-opacity:1;fill-rule:nonzero;stroke:none"
       id="text5101"><tspan
         x="0 5.4010711 10.919623 16.320694"
         y="0"
         sodipodi:role="line"
         id="tspan5099">2008</tspan></text>
<text
       transform="matrix(1,0,0,-1,294.35304,288.83479)"
       style="font-variant:normal;font-weight:normal;font-size:10.65299988px;font-family:Calibri;-inkscape-font-specification:Calibri;writing-mode:lr-tb;fill:#000000;fill-opacity:1;fill-rule:nonzero;stroke:none"
       id="text5105"><tspan
         x="0 5.4010711 10.919623 16.320694"
         y="0"
         sodipodi:role="line"
         id="tspan5103">2009</tspan></text>
<text
       transform="matrix(1,0,0,-1,320.02677,288.83479)"
       style="font-variant:normal;font-weight:normal;font-size:10.65299988px;font-family:Calibri;-inkscape-font-specification:Calibri;writing-mode:lr-tb;fill:#000000;fill-opacity:1;fill-rule:nonzero;stroke:none"
       id="text5109"><tspan
         x="0 5.4010711 10.919623 16.320694"
         y="0"
         sodipodi:role="line"
         id="tspan5107">2010</tspan></text>
<text
       transform="matrix(1,0,0,-1,345.71116,288.83479)"
       style="font-variant:normal;font-weight:normal;font-size:10.65299988px;font-family:Calibri;-inkscape-font-specification:Calibri;writing-mode:lr-tb;fill:#000000;fill-opacity:1;fill-rule:nonzero;stroke:none"
       id="text5113"><tspan
         x="0 5.4010711 10.919623 16.320694"
         y="0"
         sodipodi:role="line"
         id="tspan5111">2011</tspan></text>
<text
       transform="matrix(1,0,0,-1,371.38489,288.83479)"
       style="font-variant:normal;font-weight:normal;font-size:10.65299988px;font-family:Calibri;-inkscape-font-specification:Calibri;writing-mode:lr-tb;fill:#000000;fill-opacity:1;fill-rule:nonzero;stroke:none"
       id="text5117"><tspan
         x="0 5.4010711 10.919623 16.320694"
         y="0"
         sodipodi:role="line"
         id="tspan5115">2012</tspan></text>
<text
       transform="matrix(1,0,0,-1,397.06927,288.83479)"
       style="font-variant:normal;font-weight:normal;font-size:10.65299988px;font-family:Calibri;-inkscape-font-specification:Calibri;writing-mode:lr-tb;fill:#000000;fill-opacity:1;fill-rule:nonzero;stroke:none"
       id="text5121"><tspan
         x="0 5.4010711 10.919623 16.320694"
         y="0"
         sodipodi:role="line"
         id="tspan5119">2013</tspan></text>
<text
       transform="matrix(1,0,0,-1,422.743,288.83479)"
       style="font-variant:normal;font-weight:normal;font-size:10.65299988px;font-family:Calibri;-inkscape-font-specification:Calibri;writing-mode:lr-tb;fill:#000000;fill-opacity:1;fill-rule:nonzero;stroke:none"
       id="text5125"><tspan
         x="0 5.4010711 10.919623 16.320694"
         y="0"
         sodipodi:role="line"
         id="tspan5123">2014</tspan></text>
<text
       transform="matrix(1,0,0,-1,448.42738,288.83479)"
       style="font-variant:normal;font-weight:normal;font-size:10.65299988px;font-family:Calibri;-inkscape-font-specification:Calibri;writing-mode:lr-tb;fill:#000000;fill-opacity:1;fill-rule:nonzero;stroke:none"
       id="text5129"><tspan
         x="0 5.4010711 10.919623 16.320694"
         y="0"
         sodipodi:role="line"
         id="tspan5127">2015</tspan></text>
<text
       transform="matrix(1,0,0,-1,474.10111,288.83479)"
       style="font-variant:normal;font-weight:normal;font-size:10.65299988px;font-family:Calibri;-inkscape-font-specification:Calibri;writing-mode:lr-tb;fill:#000000;fill-opacity:1;fill-rule:nonzero;stroke:none"
       id="text5133"><tspan
         x="0 5.4010711 10.919623 16.320694"
         y="0"
         sodipodi:role="line"
         id="tspan5131">2016</tspan></text>
<text
       transform="matrix(1,0,0,-1,499.7855,288.83479)"
       style="font-variant:normal;font-weight:normal;font-size:10.65299988px;font-family:Calibri;-inkscape-font-specification:Calibri;writing-mode:lr-tb;fill:#000000;fill-opacity:1;fill-rule:nonzero;stroke:none"
       id="text5137"><tspan
         x="0 5.4010711 10.919623 16.320694"
         y="0"
         sodipodi:role="line"
         id="tspan5135">2017</tspan></text>
<text
       transform="matrix(1,0,0,-1,498.34734,275.87009)"
       style="font-variant:normal;font-weight:normal;font-size:10.65299988px;font-family:Calibri;-inkscape-font-specification:Calibri;writing-mode:lr-tb;fill:#000000;fill-opacity:1;fill-rule:nonzero;stroke:none"
       id="text5141"><tspan
         x="0 3.227859 8.8206844 14.039515 17.757412 21.326166"
         y="0"
         sodipodi:role="line"
         id="tspan5139">(part)</tspan></text>
<text
       transform="matrix(1,0,0,-1,525.45923,288.83479)"
       style="font-variant:normal;font-weight:normal;font-size:10.65299988px;font-family:Calibri;-inkscape-font-specification:Calibri;writing-mode:lr-tb;fill:#000000;fill-opacity:1;fill-rule:nonzero;stroke:none"
       id="text5145"><tspan
         x="0 5.4010711 10.919623 16.320694"
         y="0"
         sodipodi:role="line"
         id="tspan5143">2018</tspan></text>
<text
       transform="matrix(1,0,0,-1,524.02107,275.87009)"
       style="font-variant:normal;font-weight:normal;font-size:10.65299988px;font-family:Calibri;-inkscape-font-specification:Calibri;writing-mode:lr-tb;fill:#000000;fill-opacity:1;fill-rule:nonzero;stroke:none"
       id="text5149"><tspan
         x="0 3.227859 8.8206844 14.039515 17.757412 21.326166"
         y="0"
         sodipodi:role="line"
         id="tspan5147">(part)</tspan></text>
<text
       transform="matrix(0,1,1,0,74.752101,379.54508)"
       style="font-variant:normal;font-weight:normal;font-size:10.65299988px;font-family:Calibri;-inkscape-font-specification:'Calibri Bold';writing-mode:lr-tb;fill:#000000;fill-opacity:1;fill-rule:nonzero;stroke:none"
       id="text5153"><tspan
         x="0 5.635437 11.366751 17.159405 22.880066"
         y="0"
         sodipodi:role="line"
         id="tspan5151">Count</tspan></text>
<text
       transform="matrix(1,0,0,-1,294.47023,270.10682)"
       style="font-variant:normal;font-weight:normal;font-size:10.65299988px;font-family:Calibri;-inkscape-font-specification:'Calibri Bold';writing-mode:lr-tb;fill:#000000;fill-opacity:1;fill-rule:nonzero;stroke:none"
       id="text5157"><tspan
         x="0 5.5395598 10.898019 16.160601"
         y="0"
         sodipodi:role="line"
         id="tspan5155">Year</tspan></text>
<text
       transform="matrix(1,0,0,-1,130.9204,522.00659)"
       style="font-variant:normal;font-weight:normal;font-size:19.25300026px;font-family:Calibri;-inkscape-font-specification:'Calibri Bold';writing-mode:lr-tb;fill:#000000;fill-opacity:1;fill-rule:nonzero;stroke:none"
       id="text5161"><tspan
         x="0 12.264161 22.622274 33.119858 42.119827 46.919811 56.604069 60.839748 69.946419 77.994171 88.439636 98.797752 103.53399 113.04497 119.87978 124.0795 134.15947 143.39943 149.99939 160.43935 168.12129 176.03929 185.55026 195.95921 205.64346 209.75914 219.94398 224.68022 231.23906 240.59903 247.27982 252.01605 262.43893 272.87891 280.56085 284.63882 290.64578 300.47879 310.24005 315.20734 324.9686 334.72986 344.39862 350.51859"
         y="0"
         sodipodi:role="line"
         id="tspan5159">Google Scholar Cytoscape Citations (14,329) </tspan></text>
<text
       transform="matrix(1,0,0,-1,204.83267,498.47942)"
       style="font-variant:normal;font-weight:normal;font-size:19.25300026px;font-family:Calibri;-inkscape-font-specification:'Calibri Bold';writing-mode:lr-tb;fill:#000000;fill-opacity:1;fill-rule:nonzero;stroke:none"
       id="text5165"><tspan
         x="0 9.7612715 17.879934 27.719893 35.879852 45.641125 55.402393 65.163666 74.924934 79.439667 86.039635 96.479591 103.31441 113.65327 118.00445 127.67947 135.83943 145.67938 155.44066 163.55931 173.39928 183.16055 192.8392"
         y="0"
         sodipodi:role="line"
         id="tspan5163">1/1/2002 thru 1/19/2018</tspan></text>
<g
       id="g5167"><g
         id="g5169"
         clip-path="url(#clipPath5173)"><path
           d="m 50.88,548.4 c 0,0.24 0.12,0.48 0.36,0.48 h 509.64 c 0.24,0 0.48,-0.24 0.48,-0.48 V 243.36 c 0,-0.24 -0.24,-0.36 -0.48,-0.36 H 51.24 c -0.24,0 -0.36,0.12 -0.36,0.36 z m 0.72,-305.04 -0.36,0.36 h 509.64 l -0.36,-0.36 V 548.4 l 0.36,-0.36 H 51.24 l 0.36,0.36 z"
           style="fill:#868686;fill-opacity:1;fill-rule:nonzero;stroke:none"
           id="path5175"
           inkscape:connector-curvature="0" /></g></g></g></svg>