<?xml version="1.0" encoding="UTF-8" standalone="no"?>
<!-- Created with Inkscape (http://www.inkscape.org/) -->

<svg
   xmlns:dc="http://purl.org/dc/elements/1.1/"
   xmlns:cc="http://creativecommons.org/ns#"
   xmlns:rdf="http://www.w3.org/1999/02/22-rdf-syntax-ns#"
   xmlns:svg="http://www.w3.org/2000/svg"
   xmlns="http://www.w3.org/2000/svg"
   xmlns:sodipodi="http://sodipodi.sourceforge.net/DTD/sodipodi-0.dtd"
   xmlns:inkscape="http://www.inkscape.org/namespaces/inkscape"
   version="1.1"
   id="svg542"
   xml:space="preserve"
   width="680.63995"
   height="368.79999"
   viewBox="0 0 680.63995 368.79999"
   sodipodi:docname="Google_Groups_Posts_Topics.svg"
   inkscape:version="0.92.3 (2405546, 2018-03-11)"><metadata
     id="metadata548"><rdf:RDF><cc:Work
         rdf:about=""><dc:format>image/svg+xml</dc:format><dc:type
           rdf:resource="http://purl.org/dc/dcmitype/StillImage" /><dc:title></dc:title></cc:Work></rdf:RDF></metadata><defs
     id="defs546"><clipPath
       clipPathUnits="userSpaceOnUse"
       id="clipPath580"><path
         d="M 103.08,475.92 V 330.24 h 344.04 v 145.68 z"
         id="path578"
         inkscape:connector-curvature="0"
         style="clip-rule:evenodd" /></clipPath><clipPath
       clipPathUnits="userSpaceOnUse"
       id="clipPath768"><path
         d="M 50.64,534.48 V 257.64 h 510.72 v 276.84 z"
         id="path766"
         inkscape:connector-curvature="0"
         style="clip-rule:evenodd" /></clipPath></defs><sodipodi:namedview
     pagecolor="#ffffff"
     bordercolor="#666666"
     borderopacity="1"
     objecttolerance="10"
     gridtolerance="10"
     guidetolerance="10"
     inkscape:pageopacity="0"
     inkscape:pageshadow="2"
     inkscape:window-width="640"
     inkscape:window-height="480"
     id="namedview544"
     showgrid="false"
     inkscape:zoom="0.22348485"
     inkscape:cx="340.16"
     inkscape:cy="184.48001"
     inkscape:window-x="0"
     inkscape:window-y="0"
     inkscape:window-maximized="0"
     inkscape:current-layer="g550" /><g
     id="g550"
     inkscape:groupmode="layer"
     inkscape:label="Google_Groups_Posts_Topics"
     transform="matrix(1.3333333,0,0,-1.3333333,-67.839998,712.31998)"><path
       d="M 51.24,257.88 H 561 v 276 H 51.24 Z"
       style="fill:#ffffff;fill-opacity:1;fill-rule:nonzero;stroke:none"
       id="path552"
       inkscape:connector-curvature="0" /><path
       d="M 103.2,330.84 H 446.52 V 475.8 H 103.2 Z"
       style="fill:#ffffff;fill-opacity:1;fill-rule:nonzero;stroke:none"
       id="path554"
       inkscape:connector-curvature="0" /><path
       d="m 103.2,347.28 h 343.32 v -0.72 H 103.2 Z m 0,16.08 h 343.32 v -0.6 H 103.2 Z m 0,16.2 h 343.32 v -0.72 H 103.2 Z m 0,16.08 h 343.32 v -0.72 H 103.2 Z m 0,16.08 h 343.32 v -0.6 H 103.2 Z m 0,16.2 H 446.52 V 427.2 H 103.2 Z m 0,15.96 h 343.32 v -0.72 H 103.2 Z m 0,16.08 h 343.32 v -0.72 H 103.2 Z m 0,16.2 h 343.32 v -0.72 H 103.2 Z"
       style="fill:#868686;fill-opacity:1;fill-rule:nonzero;stroke:none"
       id="path556"
       inkscape:connector-curvature="0" /><path
       d="m 102.84,330.84 h 0.6 V 475.8 h -0.6 z"
       style="fill:#868686;fill-opacity:1;fill-rule:nonzero;stroke:none"
       id="path558"
       inkscape:connector-curvature="0" /><path
       d="m 100.32,331.2 h 2.88 v -0.6 h -2.88 z m 0,16.08 h 2.88 v -0.72 h -2.88 z m 0,16.08 h 2.88 v -0.6 h -2.88 z m 0,16.2 h 2.88 v -0.72 h -2.88 z m 0,16.08 h 2.88 v -0.72 h -2.88 z m 0,16.08 h 2.88 v -0.6 h -2.88 z m 0,16.2 h 2.88 v -0.72 h -2.88 z m 0,15.96 h 2.88 v -0.72 h -2.88 z m 0,16.08 h 2.88 v -0.72 h -2.88 z m 0,16.2 h 2.88 v -0.72 h -2.88 z"
       style="fill:#868686;fill-opacity:1;fill-rule:nonzero;stroke:none"
       id="path560"
       inkscape:connector-curvature="0" /><path
       d="m 103.2,330.6 h 343.32 v 0.6 H 103.2 Z"
       style="fill:#868686;fill-opacity:1;fill-rule:nonzero;stroke:none"
       id="path562"
       inkscape:connector-curvature="0" /><path
       d="m 103.44,330.84 v -2.88 h -0.6 v 2.88 z m 18.12,0 v -2.88 h -0.72 v 2.88 z m 18,0 v -2.88 h -0.6 v 2.88 z m 18.12,0 v -2.88 h -0.72 v 2.88 z m 18.12,0 v -2.88 h -0.72 v 2.88 z m 18,0 v -2.88 h -0.6 v 2.88 z m 18.12,0 v -2.88 h -0.72 v 2.88 z m 18,0 v -2.88 h -0.6 v 2.88 z m 18.12,0 v -2.88 h -0.72 v 2.88 z m 18.12,0 v -2.88 h -0.72 v 2.88 z m 18,0 v -2.88 h -0.6 v 2.88 z m 18.12,0 v -2.88 h -0.72 v 2.88 z m 18.12,0 v -2.88 h -0.72 v 2.88 z m 18,0 v -2.88 h -0.72 v 2.88 z m 18.12,0 v -2.88 h -0.72 v 2.88 z m 18,0 v -2.88 h -0.6 v 2.88 z m 18.12,0 v -2.88 h -0.72 v 2.88 z m 18.12,0 v -2.88 h -0.72 v 2.88 z m 18,0 v -2.88 h -0.72 v 2.88 z m 18.12,0 v -2.88 h -0.72 v 2.88 z"
       style="fill:#868686;fill-opacity:1;fill-rule:nonzero;stroke:none"
       id="path564"
       inkscape:connector-curvature="0" /><path
       d="m 105.72,333.24 6,2.52 c 0.12,0 0.12,0 0.24,0 l 6,1.32 6,1.92 5.88,2.76 5.88,3.48 c 0,0 0.12,0 0.12,0.12 l 6.12,2.16 6.12,1.44 5.88,1.8 6.12,1.8 6,1.92 -0.12,-0.12 6,3.12 6.12,2.52 6.12,1.8 5.88,1.92 6,2.76 c 0.12,0 0.24,0.12 0.24,0.12 l 6,1.2 5.88,1.68 h -0.12 l 6.12,2.76 6.12,1.92 6,1.8 6,2.16 6.12,1.56 5.88,2.52 6.12,2.16 5.88,2.4 6,2.64 6.24,1.92 6,1.56 6,1.56 6.12,1.32 6,1.56 6,1.2 -0.12,-0.12 6,2.4 6,2.16 6.12,1.8 6,1.92 6.12,1.2 -0.24,-0.12 6,2.88 6.24,2.4 5.88,2.76 6.12,2.16 6.12,1.8 h -0.24 l 6,3.24 c 0.12,0 0.12,0 0.12,0 l 6,2.16 6.12,1.8 5.88,2.64 6.12,2.04 6,2.76 6,2.76 6,2.76 6.12,2.04 6,2.64 6,1.92 6,2.64 5.88,3.36 c 0.12,0.12 0.12,0.12 0.24,0.12 l 6,2.04 c 0.48,0.12 1.08,-0.12 1.32,-0.6 0.12,-0.6 -0.12,-1.2 -0.72,-1.32 l -6,-2.04 0.24,0.12 -6.12,-3.6 -6.12,-2.64 -6,-1.92 -6,-2.64 -6,-2.04 -6,-2.64 -6,-2.76 -6.24,-2.88 -5.88,-2.04 -6.12,-2.64 -6,-1.8 -6,-2.16 0.12,0.12 -6,-3.24 c 0,-0.12 -0.12,-0.12 -0.12,-0.12 l -6.12,-1.8 -5.88,-2.04 -6,-2.88 -6,-2.4 -6,-2.76 c -0.12,-0.12 -0.24,-0.12 -0.24,-0.12 l -5.88,-1.08 -6.12,-1.92 -6,-1.8 -5.88,-2.16 -6.12,-2.4 c -0.12,0 -0.12,0 -0.24,0 l -5.88,-1.08 -6,-1.68 -6.12,-1.32 -6,-1.44 -5.88,-1.68 -6,-1.8 -6,-2.64 -6,-2.4 -6.12,-2.16 -6.12,-2.52 -5.88,-1.56 -6.12,-2.28 -6,-1.68 -5.88,-1.8 -6.12,-2.88 c 0,0 -0.12,0 -0.12,0 l -6.12,-1.8 -5.88,-1.2 0.12,0.12 -6.12,-2.88 -6,-2.04 -6,-1.68 -6,-2.4 -6,-3.12 c 0,0 0,0 -0.12,0 l -6,-1.92 -6.12,-1.8 -6,-1.92 -5.88,-1.32 -6.12,-2.16 h 0.12 l -6,-3.48 -6.12,-2.88 -6.24,-2.04 -5.88,-1.32 0.12,0.12 -6,-2.52 c -0.48,-0.12 -1.08,0.12 -1.32,0.6 -0.24,0.48 0,1.08 0.48,1.32 z"
       style="fill:#c00000;fill-opacity:1;fill-rule:nonzero;stroke:none"
       id="path566"
       inkscape:connector-curvature="0" /><path
       d="m 106.08,332.4 4.08,0.48 c 0.48,0 0.96,-0.36 1.08,-0.96 0,-0.48 -0.36,-1.08 -0.96,-1.08 l -3.96,-0.48 c -0.6,0 -1.08,0.36 -1.2,0.96 0,0.6 0.36,1.08 0.96,1.08 z m 8.16,0.84 3.84,0.24 h 0.24 c 0.48,0.12 0.96,-0.36 1.08,-0.84 0,-0.6 -0.36,-1.08 -0.96,-1.2 h -0.24 l -3.84,-0.24 c -0.6,-0.12 -1.08,0.36 -1.08,0.96 0,0.48 0.36,0.96 0.96,1.08 z m 8.04,0.6 1.92,0.24 2.16,0.24 c 0.6,0.12 1.08,-0.36 1.08,-0.84 0.12,-0.6 -0.24,-1.08 -0.84,-1.2 l -2.28,-0.24 -1.8,-0.24 c -0.6,0 -1.08,0.36 -1.08,0.96 -0.12,0.6 0.36,1.08 0.84,1.08 z m 8.04,0.96 4.08,0.72 c 0.6,0.12 1.08,-0.36 1.2,-0.84 0,-0.6 -0.36,-1.08 -0.84,-1.2 l -4.08,-0.6 c -0.48,-0.12 -1.08,0.24 -1.2,0.84 0,0.48 0.36,1.08 0.84,1.08 z m 8.16,1.2 3.72,0.48 h 0.36 c 0.6,0 1.08,-0.48 1.08,-0.96 0.12,-0.6 -0.36,-1.08 -0.96,-1.08 h -0.24 l -3.72,-0.48 c -0.6,0 -1.08,0.36 -1.08,0.96 -0.12,0.6 0.24,1.08 0.84,1.08 z m 8.16,0.72 h 1.56 l 2.52,0.24 c 0.6,0.12 1.08,-0.36 1.08,-0.84 0.12,-0.6 -0.36,-1.08 -0.84,-1.2 l -2.64,-0.24 h -1.56 c -0.48,-0.12 -0.96,0.36 -1.08,0.96 0,0.48 0.48,0.96 0.96,1.08 z m 8.16,0.6 4.08,0.48 c 0.48,0 0.96,-0.36 1.08,-0.96 0,-0.48 -0.36,-0.96 -0.96,-1.08 l -3.96,-0.48 c -0.6,0 -1.08,0.36 -1.2,0.96 0,0.6 0.36,1.08 0.96,1.08 z m 8.16,0.84 3.36,0.24 0.6,0.12 c 0.6,0 1.08,-0.36 1.2,-0.84 0,-0.6 -0.36,-1.08 -0.84,-1.2 l -0.84,-0.12 -3.36,-0.24 c -0.6,0 -1.08,0.36 -1.08,0.96 0,0.48 0.36,1.08 0.96,1.08 z m 8.04,0.96 1.2,0.12 2.88,0.36 c 0.48,0.12 1.08,-0.36 1.08,-0.84 0.12,-0.6 -0.36,-1.08 -0.84,-1.2 l -2.76,-0.36 -1.32,-0.12 c -0.48,-0.12 -1.08,0.24 -1.08,0.84 -0.12,0.6 0.24,1.08 0.84,1.2 z m 8.16,0.96 4.08,0.36 c 0.48,0.12 0.96,-0.36 1.08,-0.96 0,-0.48 -0.36,-0.96 -0.96,-1.08 l -4.08,-0.36 c -0.48,0 -1.08,0.36 -1.08,0.96 0,0.6 0.36,1.08 0.96,1.08 z m 8.16,0.72 3,0.24 0.96,0.12 c 0.6,0 1.08,-0.36 1.2,-0.96 0,-0.48 -0.36,-1.08 -0.96,-1.08 l -0.96,-0.12 -3.12,-0.24 c -0.6,0 -1.08,0.36 -1.08,0.96 -0.12,0.48 0.36,1.08 0.96,1.08 z m 8.04,0.84 1.08,0.12 3,0.24 c 0.6,0.12 1.08,-0.36 1.08,-0.84 0.12,-0.6 -0.36,-1.08 -0.84,-1.2 l -3,-0.24 -1.08,-0.12 c -0.6,-0.12 -1.08,0.36 -1.2,0.84 0,0.6 0.36,1.08 0.96,1.2 z m 8.16,0.72 4.08,0.36 c 0.48,0.12 1.08,-0.36 1.08,-0.84 0,-0.6 -0.36,-1.08 -0.96,-1.08 l -4.08,-0.48 c -0.48,0 -0.96,0.36 -1.08,0.96 0,0.6 0.36,1.08 0.96,1.08 z m 8.04,0.84 3,0.36 1.08,0.12 c 0.6,0 1.08,-0.36 1.2,-0.96 0,-0.6 -0.36,-1.08 -0.96,-1.08 l -1.2,-0.12 -2.88,-0.36 c -0.48,0 -1.08,0.36 -1.08,0.96 -0.12,0.48 0.36,0.96 0.84,1.08 z m 8.16,0.84 0.72,0.12 3.36,0.36 c 0.6,0.12 1.08,-0.36 1.08,-0.96 0.12,-0.48 -0.36,-0.96 -0.84,-1.08 l -3.36,-0.36 -0.72,-0.12 c -0.6,0 -1.08,0.36 -1.08,0.96 -0.12,0.6 0.24,1.08 0.84,1.08 z m 8.16,0.96 4.08,0.36 c 0.48,0.12 0.96,-0.36 1.08,-0.84 0,-0.6 -0.36,-1.08 -0.96,-1.2 l -3.96,-0.36 c -0.6,-0.12 -1.08,0.36 -1.2,0.84 0,0.6 0.36,1.08 0.96,1.2 z m 8.16,0.72 2.52,0.24 1.44,0.12 c 0.6,0 1.08,-0.36 1.2,-0.96 0,-0.48 -0.36,-1.08 -0.96,-1.08 l -1.44,-0.12 -2.64,-0.24 c -0.6,0 -1.08,0.36 -1.08,0.96 0,0.6 0.36,1.08 0.96,1.08 z m 8.04,0.84 h 0.48 l 3.6,0.36 c 0.6,0 1.08,-0.36 1.08,-0.96 0.12,-0.6 -0.36,-1.08 -0.84,-1.08 l -3.6,-0.36 h -0.48 c -0.6,-0.12 -1.08,0.36 -1.08,0.84 -0.12,0.6 0.36,1.08 0.84,1.2 z m 8.16,0.72 4.08,0.48 c 0.48,0 1.08,-0.36 1.08,-0.96 0.12,-0.6 -0.36,-1.08 -0.84,-1.08 l -4.08,-0.48 c -0.6,0 -1.08,0.36 -1.2,0.96 0,0.48 0.36,0.96 0.96,1.08 z m 8.04,0.96 2.28,0.24 1.92,0.12 c 0.48,0.12 0.96,-0.36 1.08,-0.84 0,-0.6 -0.36,-1.08 -0.96,-1.2 l -1.68,-0.12 -2.28,-0.24 c -0.6,-0.12 -1.08,0.36 -1.2,0.84 -0.12,0.6 0.36,1.08 0.84,1.2 z m 8.28,0.72 h 0.24 l 3.72,0.36 c 0.6,0 1.08,-0.36 1.2,-0.96 0,-0.6 -0.36,-1.08 -0.96,-1.08 l -3.84,-0.36 h -0.24 c -0.6,0 -1.08,0.36 -1.08,0.96 -0.12,0.48 0.36,0.96 0.96,1.08 z m 8.16,0.6 4.08,0.24 c 0.48,0 0.96,-0.36 0.96,-0.96 0.12,-0.48 -0.36,-1.08 -0.96,-1.08 l -4.08,-0.24 c -0.48,0 -0.96,0.48 -0.96,0.96 -0.12,0.6 0.36,1.08 0.96,1.08 z m 8.04,0.6 2.04,0.12 2.04,0.12 c 0.6,0 1.08,-0.48 1.08,-0.96 0.12,-0.6 -0.36,-1.08 -0.96,-1.08 l -2.04,-0.12 -1.92,-0.12 c -0.6,-0.12 -1.08,0.36 -1.2,0.96 0,0.48 0.48,0.96 0.96,1.08 z m 8.16,0.48 4.08,0.12 c 0.6,0.12 1.08,-0.36 1.08,-0.96 0.12,-0.48 -0.36,-0.96 -0.96,-0.96 l -4.08,-0.24 c -0.48,-0.12 -0.96,0.36 -1.08,0.96 0,0.48 0.48,0.96 0.96,1.08 z m 8.04,0.6 3.84,0.48 0.24,0.12 c 0.6,0 1.08,-0.36 1.2,-0.96 0,-0.48 -0.36,-1.08 -0.96,-1.08 h -0.12 l -3.84,-0.6 c -0.6,-0.12 -1.08,0.36 -1.2,0.84 0,0.6 0.36,1.08 0.84,1.2 z m 8.16,0.96 1.68,0.24 2.4,0.12 c 0.6,0.12 1.08,-0.36 1.2,-0.84 0,-0.6 -0.48,-1.08 -0.96,-1.2 l -2.4,-0.12 -1.68,-0.24 c -0.6,0 -1.08,0.36 -1.08,0.96 -0.12,0.6 0.36,1.08 0.84,1.08 z m 8.16,0.72 4.08,0.36 c 0.6,0 1.08,-0.36 1.08,-0.96 0.12,-0.48 -0.36,-1.08 -0.84,-1.08 l -4.08,-0.36 c -0.6,0 -1.08,0.36 -1.2,0.96 0,0.48 0.48,1.08 0.96,1.08 z m 8.16,0.6 3.6,0.24 0.48,0.12 c 0.48,0 0.96,-0.36 1.08,-0.96 0.12,-0.48 -0.24,-1.08 -0.84,-1.08 l -0.72,-0.12 -3.48,-0.24 c -0.48,0 -0.96,0.48 -1.08,0.96 0,0.6 0.48,1.08 0.96,1.08 z m 8.04,0.84 1.44,0.24 2.64,0.24 c 0.6,0.12 1.08,-0.24 1.2,-0.84 0,-0.6 -0.36,-1.08 -0.96,-1.08 l -2.64,-0.36 -1.32,-0.12 c -0.6,-0.12 -1.08,0.24 -1.2,0.84 -0.12,0.48 0.36,1.08 0.84,1.08 z m 8.16,0.96 3.96,0.6 c 0.6,0.12 1.08,-0.24 1.2,-0.84 0.12,-0.6 -0.24,-1.08 -0.84,-1.2 l -4.08,-0.6 c -0.48,0 -1.08,0.36 -1.08,0.96 -0.12,0.48 0.24,1.08 0.84,1.08 z m 8.04,1.2 3.24,0.36 0.84,0.12 c 0.6,0 1.08,-0.36 1.2,-0.96 0,-0.48 -0.36,-1.08 -0.96,-1.08 l -0.72,-0.12 -3.36,-0.36 c -0.48,-0.12 -0.96,0.36 -1.08,0.84 -0.12,0.6 0.36,1.08 0.84,1.2 z m 8.16,0.84 1.2,0.24 2.76,0.36 c 0.6,0.12 1.08,-0.36 1.2,-0.84 0.12,-0.6 -0.24,-1.08 -0.84,-1.2 l -2.88,-0.36 -1.2,-0.12 c -0.6,-0.12 -1.08,0.24 -1.08,0.84 -0.12,0.6 0.24,1.08 0.84,1.08 z m 8.16,1.2 4.08,0.36 c 0.48,0 0.96,-0.36 1.08,-0.96 0,-0.6 -0.36,-1.08 -0.96,-1.08 l -4.08,-0.36 c -0.6,-0.12 -1.08,0.36 -1.08,0.84 -0.12,0.6 0.36,1.08 0.96,1.2 z m 8.04,0.72 3.12,0.36 0.96,0.12 c 0.6,0 1.08,-0.36 1.08,-0.96 0.12,-0.48 -0.24,-1.08 -0.84,-1.08 l -0.96,-0.12 -3.12,-0.36 c -0.6,0 -1.08,0.36 -1.08,0.96 -0.12,0.48 0.36,1.08 0.84,1.08 z m 8.16,0.84 0.96,0.12 3.12,0.36 c 0.48,0.12 1.08,-0.36 1.08,-0.84 0.12,-0.6 -0.36,-1.08 -0.84,-1.2 l -3.12,-0.36 -0.96,-0.12 c -0.6,0 -1.08,0.36 -1.2,0.96 0,0.6 0.36,1.08 0.96,1.08 z m 8.16,0.96 3.96,0.36 c 0.6,0.12 1.08,-0.24 1.2,-0.84 0,-0.6 -0.36,-1.08 -0.96,-1.2 l -4.08,-0.36 c -0.48,-0.12 -1.08,0.36 -1.08,0.84 -0.12,0.6 0.36,1.08 0.96,1.2 z m 8.04,0.96 2.76,0.36 1.32,0.24 c 0.48,0 0.96,-0.36 1.08,-0.96 0.12,-0.48 -0.36,-1.08 -0.84,-1.08 l -1.2,-0.12 -2.88,-0.48 c -0.48,-0.12 -1.08,0.36 -1.08,0.84 -0.12,0.6 0.24,1.08 0.84,1.2 z m 8.04,1.08 0.72,0.12 3.36,0.36 c 0.6,0 1.08,-0.36 1.2,-0.96 0,-0.48 -0.36,-1.08 -0.96,-1.08 l -3.36,-0.36 -0.72,-0.12 c -0.48,0 -0.96,0.36 -1.08,0.84 -0.12,0.6 0.36,1.08 0.84,1.2 z m 8.16,0.96 4.08,0.48 c 0.48,0 1.08,-0.36 1.08,-0.84 0.12,-0.6 -0.36,-1.08 -0.84,-1.2 l -4.08,-0.48 c -0.6,-0.12 -1.08,0.24 -1.08,0.84 -0.12,0.6 0.24,1.08 0.84,1.2 z m 8.16,0.96 2.52,0.24 1.44,0.24 c 0.6,0 1.08,-0.36 1.2,-0.96 0,-0.48 -0.36,-1.08 -0.96,-1.08 l -1.44,-0.24 -2.64,-0.24 c -0.48,-0.12 -0.96,0.36 -1.08,0.84 0,0.6 0.36,1.08 0.96,1.2 z m 8.04,0.96 h 0.6 l 3.36,0.72 c 0.6,0 1.08,-0.36 1.2,-0.84 0.12,-0.6 -0.24,-1.08 -0.84,-1.2 l -3.48,-0.72 h -0.6 c -0.48,-0.12 -1.08,0.36 -1.08,0.84 -0.12,0.6 0.24,1.08 0.84,1.2 z m 8.16,1.2 4.08,0.36 c 0.48,0 0.96,-0.36 1.08,-0.96 0,-0.6 -0.36,-1.08 -0.96,-1.08 l -4.08,-0.36 c -0.6,0 -1.08,0.48 -1.08,0.96 -0.12,0.6 0.36,1.08 0.96,1.08 z"
       style="fill:#c00000;fill-opacity:1;fill-rule:nonzero;stroke:none"
       id="path568"
       inkscape:connector-curvature="0" /><path
       d="m 105.72,337.92 6,2.76 6,3.24 6.12,2.4 6,2.16 6,2.4 6.12,2.28 6,2.28 6,2.04 6,2.52 6,3.12 5.88,3.36 c 0.12,0 0.12,0 0.24,0.12 l 6.12,1.8 6,1.8 6,1.8 6,2.4 6,2.4 6,1.68 6,2.52 6.12,1.8 6,1.56 6.12,1.56 5.88,2.16 6,2.04 c 0.12,0 0.12,0 0.24,0 l 6.12,0.72 6,0.6 5.88,1.2 6.12,1.2 6.12,0.36 5.88,0.72 6,1.2 6,1.2 c 0.12,0 0.12,0 0.12,0 l 6,0.36 6,0.84 6,0.96 5.88,1.44 c 0.12,0.12 0.12,0.12 0.24,0.12 l 6,0.48 6,0.96 5.76,1.8 c 0.12,0.12 0.12,0.12 0.24,0.12 l 6.12,0.72 6,0.12 h 6 l 6.12,0.12 6,0.12 h 6 l 6.12,0.12 h 6 6 l 6,0.12 h 6 6 6.12 6 6 6.12 6 6 c 0.48,0 0.96,-0.48 0.96,-0.96 0,-0.6 -0.48,-1.08 -0.96,-1.08 h -6 -6 -6.12 -6 -6 -6.12 -6 -5.88 l -6.12,-0.12 h -6 -6 l -6.12,-0.12 h -6 l -6,-0.12 -6.12,-0.12 h -5.88 l -5.88,-0.12 -6.12,-0.72 h 0.12 l -6.12,-1.92 -6,-0.96 -6.12,-0.48 h 0.12 l -6,-1.56 -6,-0.96 -6.24,-0.84 -6,-0.36 h 0.12 l -5.88,-1.2 -6.24,-1.2 -6,-0.72 -5.88,-0.36 -6.12,-1.2 -6.12,-1.2 -5.88,-0.6 -6.12,-0.72 h 0.24 l -6,-1.92 -6.12,-2.16 -6.12,-1.68 -5.88,-1.56 -5.88,-1.68 -6.24,-2.64 -5.88,-1.56 -6,-2.4 -6.24,-2.4 -5.88,-1.8 -6,-1.8 -6.12,-1.92 0.24,0.12 -6.12,-3.36 -6,-3.24 -6.12,-2.52 -6,-2.04 -6,-2.28 -6.12,-2.28 -6,-2.4 -6,-2.16 -5.88,-2.28 -6.12,-3.24 -6,-2.76 c -0.48,-0.24 -1.08,0 -1.32,0.48 -0.24,0.48 0,1.08 0.48,1.32 z"
       style="fill:#376092;fill-opacity:1;fill-rule:nonzero;stroke:none"
       id="path570"
       inkscape:connector-curvature="0" /><path
       d="m 106.08,333.24 3.96,0.48 c 0.6,0 1.08,-0.36 1.2,-0.96 0,-0.48 -0.36,-1.08 -0.96,-1.08 l -3.96,-0.48 c -0.6,-0.12 -1.08,0.36 -1.2,0.96 0,0.48 0.36,0.96 0.96,1.08 z m 8.04,0.96 3.84,0.6 h 0.24 c 0.6,0.12 1.08,-0.36 1.08,-0.84 0.12,-0.6 -0.36,-1.08 -0.84,-1.2 h -0.12 l -3.96,-0.6 c -0.48,0 -1.08,0.36 -1.08,0.96 -0.12,0.48 0.24,1.08 0.84,1.08 z m 8.16,1.08 1.92,0.12 2.16,0.24 c 0.48,0.12 1.08,-0.36 1.08,-0.96 0,-0.48 -0.36,-0.96 -0.96,-1.08 l -2.16,-0.12 -1.8,-0.24 c -0.6,-0.12 -1.08,0.36 -1.2,0.84 0,0.6 0.36,1.08 0.96,1.2 z m 8.04,0.72 4.08,0.6 c 0.6,0.12 1.08,-0.24 1.2,-0.84 0,-0.6 -0.36,-1.08 -0.96,-1.2 l -3.96,-0.6 c -0.6,0 -1.08,0.36 -1.2,0.96 -0.12,0.48 0.36,1.08 0.84,1.08 z m 8.16,1.08 3.72,0.36 h 0.36 c 0.6,0 1.08,-0.36 1.08,-0.96 0.12,-0.48 -0.36,-0.96 -0.84,-1.08 h -0.36 l -3.72,-0.36 c -0.6,0 -1.08,0.36 -1.2,0.96 0,0.48 0.36,1.08 0.96,1.08 z m 8.16,0.72 1.56,0.12 2.52,0.36 c 0.48,0 0.96,-0.36 1.08,-0.96 0,-0.6 -0.36,-1.08 -0.96,-1.08 l -2.4,-0.36 -1.68,-0.12 c -0.48,0 -0.96,0.36 -1.08,0.96 0,0.6 0.36,1.08 0.96,1.08 z m 8.04,0.84 4.08,0.6 c 0.6,0 1.08,-0.36 1.2,-0.96 0,-0.6 -0.36,-1.08 -0.96,-1.08 l -4.08,-0.6 c -0.48,0 -1.08,0.36 -1.08,0.96 -0.12,0.48 0.36,1.08 0.84,1.08 z m 8.16,1.08 3.36,0.48 0.6,0.12 c 0.6,0.12 1.08,-0.36 1.2,-0.84 0,-0.6 -0.36,-1.08 -0.84,-1.2 l -0.6,-0.12 -3.48,-0.48 c -0.6,0 -1.08,0.36 -1.2,0.84 0,0.6 0.36,1.08 0.96,1.2 z m 8.04,1.08 1.32,0.24 2.76,0.12 c 0.6,0.12 1.08,-0.36 1.2,-0.96 0,-0.48 -0.48,-0.96 -0.96,-1.08 l -2.64,-0.12 -1.44,-0.24 c -0.48,0 -1.08,0.36 -1.08,0.96 -0.12,0.48 0.24,1.08 0.84,1.08 z m 8.16,0.72 4.08,0.24 c 0.6,0.12 1.08,-0.36 1.08,-0.96 0.12,-0.48 -0.36,-0.96 -0.84,-1.08 l -4.08,-0.24 c -0.6,-0.12 -1.08,0.36 -1.08,0.96 -0.12,0.48 0.36,0.96 0.84,1.08 z m 8.16,0.6 3.12,0.24 h 0.96 c 0.6,0.12 1.08,-0.24 1.08,-0.84 0.12,-0.6 -0.36,-1.08 -0.84,-1.08 l -0.96,-0.12 -3.24,-0.24 c -0.48,-0.12 -0.96,0.36 -1.08,0.96 0,0.48 0.48,0.96 0.96,1.08 z m 8.16,0.72 1.08,0.12 3,0.24 c 0.6,0 1.08,-0.36 1.08,-0.96 0,-0.6 -0.36,-1.08 -0.96,-1.08 l -2.88,-0.24 -1.08,-0.12 c -0.6,0 -1.08,0.36 -1.2,0.96 0,0.48 0.36,1.08 0.96,1.08 z m 8.16,0.6 4.08,0.36 c 0.48,0 1.08,-0.36 1.08,-0.96 0,-0.6 -0.36,-1.08 -0.96,-1.08 l -4.08,-0.36 c -0.6,0 -1.08,0.48 -1.08,0.96 0,0.6 0.36,1.08 0.96,1.08 z m 8.04,0.72 3,0.36 h 1.08 c 0.6,0.12 1.08,-0.36 1.2,-0.84 0,-0.6 -0.48,-1.08 -0.96,-1.2 h -1.2 l -2.88,-0.36 c -0.6,0 -1.08,0.36 -1.08,0.96 -0.12,0.48 0.36,1.08 0.84,1.08 z m 8.16,0.72 h 0.84 l 3.24,0.36 c 0.6,0 1.08,-0.36 1.08,-0.96 0.12,-0.48 -0.36,-1.08 -0.84,-1.08 l -3.36,-0.36 h -0.72 c -0.6,0 -1.08,0.36 -1.08,0.96 -0.12,0.6 0.36,1.08 0.84,1.08 z m 8.16,0.72 4.08,0.12 c 0.6,0.12 1.08,-0.36 1.08,-0.96 0.12,-0.48 -0.36,-0.96 -0.96,-1.08 L 228,343.56 c -0.48,-0.12 -0.96,0.36 -1.08,0.96 0,0.48 0.48,0.96 0.96,1.08 z m 8.16,0.36 2.52,0.12 1.56,0.24 c 0.6,0 1.08,-0.48 1.08,-0.96 0.12,-0.6 -0.36,-1.08 -0.96,-1.08 l -1.56,-0.24 -2.52,-0.12 c -0.48,0 -0.96,0.48 -1.08,0.96 0,0.6 0.48,1.08 0.96,1.08 z m 8.16,0.72 h 0.36 l 3.72,0.12 c 0.6,0 1.08,-0.36 1.08,-0.96 0,-0.6 -0.36,-1.08 -0.96,-1.08 l -3.6,-0.12 h -0.48 c -0.48,-0.12 -0.96,0.36 -1.08,0.84 0,0.6 0.36,1.08 0.96,1.2 z m 8.16,0.24 4.08,0.24 c 0.6,0.12 1.08,-0.36 1.08,-0.96 0,-0.48 -0.36,-0.96 -0.96,-1.08 L 252.48,345 c -0.6,-0.12 -1.08,0.36 -1.08,0.96 0,0.48 0.36,0.96 0.96,0.96 z m 8.16,0.48 2.16,0.12 1.92,0.12 c 0.6,0 1.08,-0.36 1.08,-0.96 0,-0.6 -0.36,-1.08 -0.96,-1.08 l -1.92,-0.12 -2.16,-0.12 c -0.6,0 -1.08,0.48 -1.08,0.96 0,0.6 0.36,1.08 0.96,1.08 z m 8.16,0.48 h 0.12 l 3.96,0.12 c 0.6,0 1.08,-0.48 1.08,-1.08 0,-0.6 -0.48,-0.96 -0.96,-0.96 l -3.96,-0.12 h -0.12 c -0.6,0 -1.08,0.36 -1.08,0.96 0,0.6 0.36,1.08 0.96,1.08 z m 8.16,0.24 3.96,0.24 h 0.12 c 0.6,0 1.08,-0.48 1.08,-0.96 0,-0.6 -0.36,-1.08 -0.96,-1.08 h -0.12 l -3.96,-0.24 c -0.6,0 -1.08,0.36 -1.08,0.96 0,0.48 0.36,0.96 0.96,1.08 z m 8.16,0.36 1.8,0.12 2.28,0.12 c 0.6,0.12 1.08,-0.36 1.08,-0.96 0,-0.48 -0.36,-0.96 -0.96,-1.08 l -2.28,-0.12 -1.8,-0.12 c -0.6,0 -1.08,0.48 -1.08,0.96 0,0.6 0.36,1.08 0.96,1.08 z m 8.16,0.48 4.08,0.12 c 0.6,0 1.08,-0.48 1.08,-1.08 0,-0.48 -0.48,-0.96 -0.96,-0.96 l -4.08,-0.12 c -0.6,0 -1.08,0.48 -1.08,0.96 0,0.6 0.48,1.08 0.96,1.08 z m 8.16,0.24 3.6,0.12 h 0.48 c 0.6,0 1.08,-0.36 1.08,-0.96 0,-0.6 -0.36,-1.08 -0.96,-1.08 h -0.48 l -3.6,-0.12 c -0.6,-0.12 -1.08,0.36 -1.08,0.96 0,0.6 0.36,0.96 0.96,1.08 z m 8.16,0.36 h 1.44 l 2.64,0.24 c 0.48,0 0.96,-0.36 1.08,-0.96 0,-0.6 -0.36,-1.08 -0.96,-1.08 l -2.64,-0.24 h -1.44 c -0.6,0 -1.08,0.36 -1.08,0.96 0,0.48 0.36,1.08 0.96,1.08 z m 8.16,0.48 4.08,0.12 c 0.6,0.12 1.08,-0.36 1.08,-0.96 0,-0.48 -0.48,-0.96 -0.96,-1.08 L 317.76,348 c -0.6,0 -1.08,0.48 -1.08,0.96 0,0.6 0.36,1.08 0.96,1.08 z m 8.16,0.36 3.24,0.12 h 0.72 c 0.6,0.12 1.08,-0.36 1.2,-0.84 0,-0.6 -0.36,-1.08 -0.96,-1.2 h -0.96 l -3.12,-0.12 c -0.6,0 -1.08,0.36 -1.08,0.96 0,0.6 0.36,1.08 0.96,1.08 z m 8.04,0.48 1.08,0.12 h 3.12 c 0.6,0 1.08,-0.48 1.08,-0.96 0,-0.6 -0.48,-1.08 -1.08,-1.08 h -2.88 l -1.08,-0.12 c -0.6,0 -1.08,0.36 -1.08,0.96 -0.12,0.6 0.36,1.08 0.84,1.08 z m 8.28,0.12 h 4.08 c 0.6,0 1.08,-0.48 1.08,-0.96 0,-0.6 -0.48,-1.08 -1.08,-1.08 h -4.08 c -0.6,0 -0.96,0.48 -0.96,1.08 0,0.48 0.36,0.96 0.96,0.96 z m 8.16,0 h 2.76 1.32 c 0.6,0 1.08,-0.36 1.08,-0.96 0,-0.6 -0.48,-1.08 -1.08,-1.08 h -1.32 -2.76 c -0.6,0 -0.96,0.48 -0.96,1.08 0,0.48 0.36,0.96 0.96,0.96 z m 8.16,0.12 h 0.72 3.36 c 0.6,0 1.08,-0.48 1.08,-0.96 0,-0.6 -0.48,-1.08 -1.08,-1.08 h -3.36 -0.72 c -0.48,0 -0.96,0.48 -0.96,0.96 0,0.6 0.36,1.08 0.96,1.08 z m 8.16,0 h 4.08 c 0.6,0 1.08,-0.48 1.08,-0.96 0,-0.6 -0.48,-1.08 -1.08,-1.08 h -4.08 c -0.48,0 -0.96,0.48 -0.96,1.08 0,0.48 0.48,0.96 0.96,0.96 z m 8.16,0.12 h 2.52 1.56 c 0.6,0 1.08,-0.48 1.08,-0.96 0,-0.6 -0.48,-1.08 -1.08,-1.08 h -1.56 -2.52 c -0.48,0 -0.96,0.36 -0.96,0.96 0,0.6 0.36,1.08 0.96,1.08 z m 8.16,0 h 0.36 3.72 c 0.6,0 1.08,-0.48 1.08,-0.96 0,-0.6 -0.48,-1.08 -1.08,-1.08 h -3.72 -0.36 c -0.48,0 -0.96,0.48 -0.96,1.08 0,0.48 0.48,0.96 0.96,0.96 z m 8.16,0 h 4.08 c 0.6,0 1.08,-0.48 1.08,-0.96 0,-0.6 -0.48,-1.08 -1.08,-1.08 h -4.08 c -0.48,0 -0.96,0.48 -0.96,1.08 0,0.48 0.48,0.96 0.96,0.96 z m 8.16,0 h 2.04 2.04 c 0.6,0 1.08,-0.48 1.08,-0.96 0,-0.6 -0.48,-1.08 -1.08,-1.08 h -2.04 -2.04 c -0.48,0 -0.96,0.48 -0.96,1.08 0,0.48 0.48,0.96 0.96,0.96 z m 8.16,0 h 4.2 c 0.48,0 0.96,-0.48 0.96,-0.96 0,-0.6 -0.48,-1.08 -0.96,-1.08 h -4.2 c -0.48,0 -0.96,0.48 -0.96,1.08 0,0.48 0.48,0.96 0.96,0.96 z m 8.16,0 h 3.84 0.36 c 0.48,0 0.96,-0.36 0.96,-0.96 0,-0.6 -0.48,-1.08 -0.96,-1.08 h -0.36 -3.72 c -0.6,0 -1.08,0.48 -1.08,1.08 0,0.48 0.48,0.96 0.96,0.96 z m 8.28,0 h 1.56 2.52 c 0.48,0 0.96,-0.36 0.96,-0.96 0,-0.6 -0.48,-1.08 -0.96,-1.08 h -2.52 -1.56 c -0.6,0 -1.08,0.48 -1.08,1.08 0,0.6 0.48,0.96 1.08,0.96 z m 8.16,0 h 4.08 c 0.48,0 0.96,-0.36 0.96,-0.96 0,-0.6 -0.48,-1.08 -0.96,-1.08 H 432 c -0.6,0 -1.08,0.48 -1.08,1.08 0,0.6 0.48,0.96 1.08,0.96 z m 8.16,0 h 3.36 c 0.48,0 0.96,-0.36 0.96,-0.96 0,-0.6 -0.48,-1.08 -0.96,-1.08 h -3.36 c -0.6,0 -1.08,0.48 -1.08,1.08 0,0.6 0.48,0.96 1.08,0.96 z"
       style="fill:#376092;fill-opacity:1;fill-rule:nonzero;stroke:none"
       id="path572"
       inkscape:connector-curvature="0" /><g
       id="g574"><g
         id="g576"
         clip-path="url(#clipPath580)"><path
           d="m 335.04,331.92 h 6.12 l 5.88,0.36 6.12,-0.24 c 0.6,0 0.96,-0.48 0.96,-0.96 0,-0.6 -0.48,-1.08 -0.96,-1.08 l -6,0.24 -6,-0.36 h -6.12 c -0.48,0 -0.96,0.48 -0.96,0.96 0,0.6 0.36,1.08 0.96,1.08 z"
           style="fill:#3d96ae;fill-opacity:1;fill-rule:nonzero;stroke:none"
           id="path582"
           inkscape:connector-curvature="0" /><path
           d="m 335.04,331.92 4.08,0.12 c 0.6,0 1.08,-0.48 1.08,-0.96 0,-0.6 -0.48,-1.08 -1.08,-1.08 l -4.08,-0.12 c -0.48,0 -0.96,0.48 -0.96,0.96 0,0.6 0.36,1.08 0.96,1.08 z m 8.16,0.24 3.84,0.12 h 0.24 c 0.6,0 1.08,-0.36 1.08,-0.96 0,-0.6 -0.48,-1.08 -1.08,-1.08 h -0.12 l -3.96,-0.12 c -0.48,0 -0.96,0.36 -0.96,0.96 0,0.6 0.36,1.08 0.96,1.08 z m 8.16,0.24 1.68,0.12 h 2.4 c 0.6,0 1.08,-0.36 1.08,-0.96 0,-0.6 -0.48,-1.08 -1.08,-1.08 h -2.28 l -1.8,-0.12 c -0.48,0 -0.96,0.48 -0.96,1.08 0,0.48 0.36,0.96 0.96,0.96 z m 8.16,0.24 4.08,0.12 c 0.6,0 1.08,-0.48 1.08,-1.08 0,-0.48 -0.48,-0.96 -1.08,-0.96 l -4.08,-0.12 c -0.48,0 -0.96,0.48 -0.96,0.96 0,0.6 0.36,1.08 0.96,1.08 z m 8.16,0.12 3.48,0.12 h 0.6 c 0.6,0 1.08,-0.48 1.08,-1.08 0,-0.48 -0.48,-0.96 -1.08,-0.96 h -0.6 l -3.48,-0.12 c -0.48,0 -0.96,0.48 -0.96,1.08 0,0.48 0.36,0.96 0.96,0.96 z m 8.16,0.12 1.44,0.12 h 2.64 c 0.6,0.12 1.08,-0.36 1.08,-0.96 0,-0.48 -0.48,-0.96 -0.96,-1.08 h -2.76 l -1.44,-0.12 c -0.48,0 -0.96,0.48 -0.96,1.08 0,0.48 0.36,0.96 0.96,0.96 z m 8.16,0.36 4.08,0.12 c 0.6,0 1.08,-0.48 1.08,-0.96 0,-0.6 -0.48,-1.08 -0.96,-1.08 l -4.08,-0.12 c -0.6,-0.12 -1.08,0.36 -1.08,0.96 0,0.6 0.36,0.96 0.96,1.08 z m 8.16,0.24 h 3.12 0.96 c 0.6,0 1.08,-0.36 1.08,-0.96 0,-0.6 -0.48,-1.08 -1.08,-1.08 h -0.84 -3.24 c -0.48,0 -0.96,0.36 -0.96,0.96 0,0.6 0.36,1.08 0.96,1.08 z m 8.16,0.12 h 0.96 l 3.12,0.12 c 0.6,0 1.08,-0.48 1.08,-1.08 0,-0.6 -0.48,-0.96 -1.08,-0.96 l -3,-0.12 h -1.08 c -0.48,0 -0.96,0.48 -0.96,0.96 0,0.6 0.36,1.08 0.96,1.08 z m 8.16,0.12 4.08,0.24 c 0.6,0 1.08,-0.48 1.08,-1.08 0,-0.48 -0.48,-0.96 -0.96,-0.96 l -4.08,-0.24 c -0.6,0 -1.08,0.48 -1.08,1.08 0,0.48 0.36,0.96 0.96,0.96 z m 8.16,0.24 2.76,0.12 h 1.32 c 0.6,0 1.08,-0.48 1.08,-1.08 0,-0.6 -0.48,-0.96 -1.08,-0.96 h -1.32 l -2.64,-0.12 c -0.6,0 -1.08,0.48 -1.08,1.08 0,0.48 0.48,0.96 0.96,0.96 z m 8.16,0.12 h 0.6 3.48 c 0.6,0 1.08,-0.36 1.08,-0.96 0,-0.6 -0.48,-1.08 -0.96,-1.08 h -3.6 -0.6 c -0.48,0 -0.96,0.36 -0.96,0.96 0,0.6 0.48,1.08 0.96,1.08 z m 8.16,0.12 h 4.08 c 0.6,0.12 1.08,-0.36 1.08,-0.96 0,-0.6 -0.48,-0.96 -0.96,-1.08 h -4.08 c -0.6,0 -1.08,0.36 -1.08,0.96 0,0.6 0.48,1.08 0.96,1.08 z m 8.16,0.12 2.28,0.12 c 0.6,0 1.08,-0.48 1.08,-1.08 0,-0.48 -0.36,-0.96 -0.96,-0.96 l -2.28,-0.12 c -0.6,0 -1.08,0.48 -1.08,1.08 0,0.48 0.48,0.96 0.96,0.96 z"
           style="fill:#da8137;fill-opacity:1;fill-rule:nonzero;stroke:none"
           id="path584"
           inkscape:connector-curvature="0" /><path
           d="m 335.04,331.92 6,0.36 h -0.12 l 6,1.32 6.12,0.6 6.12,0.48 6,0.36 6,0.12 6,0.36 6,0.84 6,0.72 6.12,0.48 6,0.36 6,0.36 6,0.84 6,0.72 6.12,0.24 6,0.36 6,0.6 6,0.48 c 0.6,0 1.08,-0.48 1.08,-0.96 0.12,-0.6 -0.36,-1.08 -0.96,-1.08 l -6,-0.48 -6,-0.6 -6.12,-0.36 -5.88,-0.24 -6,-0.72 -6.12,-0.84 -6,-0.36 -6,-0.36 -6,-0.48 -6,-0.72 -6,-0.84 -6.24,-0.36 -5.88,-0.12 -6,-0.36 -6.12,-0.48 -5.88,-0.6 -5.88,-1.32 c -0.12,0 -0.12,0 -0.24,0 l -6,-0.36 c -0.6,0 -1.08,0.48 -1.08,0.96 -0.12,0.6 0.36,1.08 0.96,1.08 z"
           style="fill:#da8137;fill-opacity:1;fill-rule:nonzero;stroke:none"
           id="path586"
           inkscape:connector-curvature="0" /></g></g><text
       transform="matrix(1,0,0,-1,90.116028,328.30499)"
       style="font-variant:normal;font-weight:normal;font-size:9.03600025px;font-family:Calibri;-inkscape-font-specification:Calibri;writing-mode:lr-tb;fill:#000000;fill-opacity:1;fill-rule:nonzero;stroke:none"
       id="text590"><tspan
         x="0"
         y="0"
         id="tspan588">0</tspan></text>
<text
       transform="matrix(1,0,0,-1,76.318056,344.38907)"
       style="font-variant:normal;font-weight:normal;font-size:9.03600025px;font-family:Calibri;-inkscape-font-specification:Calibri;writing-mode:lr-tb;fill:#000000;fill-opacity:1;fill-rule:nonzero;stroke:none"
       id="text594"><tspan
         x="0 4.6797895 9.3595791 13.940831"
         y="0"
         sodipodi:role="line"
         id="tspan592">1000</tspan></text>
<text
       transform="matrix(1,0,0,-1,76.318056,360.46411)"
       style="font-variant:normal;font-weight:normal;font-size:9.03600025px;font-family:Calibri;-inkscape-font-specification:Calibri;writing-mode:lr-tb;fill:#000000;fill-opacity:1;fill-rule:nonzero;stroke:none"
       id="text598"><tspan
         x="0 4.6797895 9.3595791 13.940831"
         y="0"
         sodipodi:role="line"
         id="tspan596">2000</tspan></text>
<text
       transform="matrix(1,0,0,-1,76.318056,376.53916)"
       style="font-variant:normal;font-weight:normal;font-size:9.03600025px;font-family:Calibri;-inkscape-font-specification:Calibri;writing-mode:lr-tb;fill:#000000;fill-opacity:1;fill-rule:nonzero;stroke:none"
       id="text602"><tspan
         x="0 4.6797895 9.3595791 13.940831"
         y="0"
         sodipodi:role="line"
         id="tspan600">3000</tspan></text>
<text
       transform="matrix(1,0,0,-1,76.318056,392.62324)"
       style="font-variant:normal;font-weight:normal;font-size:9.03600025px;font-family:Calibri;-inkscape-font-specification:Calibri;writing-mode:lr-tb;fill:#000000;fill-opacity:1;fill-rule:nonzero;stroke:none"
       id="text606"><tspan
         x="0 4.6797895 9.3595791 13.940831"
         y="0"
         sodipodi:role="line"
         id="tspan604">4000</tspan></text>
<text
       transform="matrix(1,0,0,-1,76.318056,408.69828)"
       style="font-variant:normal;font-weight:normal;font-size:9.03600025px;font-family:Calibri;-inkscape-font-specification:Calibri;writing-mode:lr-tb;fill:#000000;fill-opacity:1;fill-rule:nonzero;stroke:none"
       id="text610"><tspan
         x="0 4.6797895 9.3595791 13.940831"
         y="0"
         sodipodi:role="line"
         id="tspan608">5000</tspan></text>
<text
       transform="matrix(1,0,0,-1,76.318056,424.78236)"
       style="font-variant:normal;font-weight:normal;font-size:9.03600025px;font-family:Calibri;-inkscape-font-specification:Calibri;writing-mode:lr-tb;fill:#000000;fill-opacity:1;fill-rule:nonzero;stroke:none"
       id="text614"><tspan
         x="0 4.6797895 9.3595791 13.940831"
         y="0"
         sodipodi:role="line"
         id="tspan612">6000</tspan></text>
<text
       transform="matrix(1,0,0,-1,76.318056,440.98391)"
       style="font-variant:normal;font-weight:normal;font-size:9.03600025px;font-family:Calibri;-inkscape-font-specification:Calibri;writing-mode:lr-tb;fill:#000000;fill-opacity:1;fill-rule:nonzero;stroke:none"
       id="text618"><tspan
         x="0 4.6797895 9.3595791 13.940831"
         y="0"
         sodipodi:role="line"
         id="tspan616">7000</tspan></text>
<text
       transform="matrix(1,0,0,-1,76.318056,457.05895)"
       style="font-variant:normal;font-weight:normal;font-size:9.03600025px;font-family:Calibri;-inkscape-font-specification:Calibri;writing-mode:lr-tb;fill:#000000;fill-opacity:1;fill-rule:nonzero;stroke:none"
       id="text622"><tspan
         x="0 4.6797895 9.3595791 13.940831"
         y="0"
         sodipodi:role="line"
         id="tspan620">8000</tspan></text>
<text
       transform="matrix(1,0,0,-1,76.318056,473.14303)"
       style="font-variant:normal;font-weight:normal;font-size:9.03600025px;font-family:Calibri;-inkscape-font-specification:Calibri;writing-mode:lr-tb;fill:#000000;fill-opacity:1;fill-rule:nonzero;stroke:none"
       id="text626"><tspan
         x="0 4.6797895 9.3595791 13.940831"
         y="0"
         sodipodi:role="line"
         id="tspan624">9000</tspan></text>
<text
       transform="matrix(0,1,1,0,109.31753,295.78442)"
       style="font-variant:normal;font-weight:normal;font-size:9.03600025px;font-family:Calibri;-inkscape-font-specification:Calibri;writing-mode:lr-tb;fill:#000000;fill-opacity:1;fill-rule:nonzero;stroke:none"
       id="text630"><tspan
         x="0 5.1597729 9.9036732 13.075092 15.234994 17.304237 20.069254 24.714571"
         y="0"
         sodipodi:role="line"
         id="tspan628">April-13</tspan></text>
<text
       transform="matrix(0,1,1,0,127.31724,299.26328)"
       style="font-variant:normal;font-weight:normal;font-size:9.03600025px;font-family:Calibri;-inkscape-font-specification:Calibri;writing-mode:lr-tb;fill:#000000;fill-opacity:1;fill-rule:nonzero;stroke:none"
       id="text634"><tspan
         x="0 2.882484 7.5596623 9.7195644 13.812872 16.679255 21.260506"
         y="0"
         sodipodi:role="line"
         id="tspan632">July-13</tspan></text>
<text
       transform="matrix(0,1,1,0,145.43442,282.94427)"
       style="font-variant:normal;font-weight:normal;font-size:9.03600025px;font-family:Calibri;-inkscape-font-specification:Calibri;writing-mode:lr-tb;fill:#000000;fill-opacity:1;fill-rule:nonzero;stroke:none"
       id="text638"><tspan
         x="0 5.981832 9.80406 12.83112 17.593092 22.438999 26.938927 30.092491 32.857506 37.438759"
         y="0"
         sodipodi:role="line"
         id="tspan636">October-13</tspan></text>
<text
       transform="matrix(0,1,1,0,163.43413,284.75147)"
       style="font-variant:normal;font-weight:normal;font-size:9.03600025px;font-family:Calibri;-inkscape-font-specification:Calibri;writing-mode:lr-tb;fill:#000000;fill-opacity:1;fill-rule:nonzero;stroke:none"
       id="text642"><tspan
         x="0 2.882484 7.2107282 11.879476 16.623375 21.119066 24.272629 28.365938 31.130953 35.712204"
         y="0"
         sodipodi:role="line"
         id="tspan640">January-14</tspan></text>
<text
       transform="matrix(0,1,1,0,181.55131,295.78442)"
       style="font-variant:normal;font-weight:normal;font-size:9.03600025px;font-family:Calibri;-inkscape-font-specification:Calibri;writing-mode:lr-tb;fill:#000000;fill-opacity:1;fill-rule:nonzero;stroke:none"
       id="text646"><tspan
         x="0 5.1597729 9.9036732 13.057237 15.239323 17.308567 20.073582 24.718899"
         y="0"
         sodipodi:role="line"
         id="tspan644">April-14</tspan></text>
<text
       transform="matrix(0,1,1,0,199.66849,299.26328)"
       style="font-variant:normal;font-weight:normal;font-size:9.03600025px;font-family:Calibri;-inkscape-font-specification:Calibri;writing-mode:lr-tb;fill:#000000;fill-opacity:1;fill-rule:nonzero;stroke:none"
       id="text650"><tspan
         x="0 2.882484 7.5596623 9.7195644 13.812872 16.679255 21.260506"
         y="0"
         sodipodi:role="line"
         id="tspan648">July-14</tspan></text>
<text
       transform="matrix(0,1,1,0,217.6682,282.94427)"
       style="font-variant:normal;font-weight:normal;font-size:9.03600025px;font-family:Calibri;-inkscape-font-specification:Calibri;writing-mode:lr-tb;fill:#000000;fill-opacity:1;fill-rule:nonzero;stroke:none"
       id="text654"><tspan
         x="0 5.981832 9.80406 12.83112 17.593092 22.438999 26.938927 30.092491 32.857506 37.438759"
         y="0"
         sodipodi:role="line"
         id="tspan652">October-14</tspan></text>
<text
       transform="matrix(0,1,1,0,235.78538,284.75147)"
       style="font-variant:normal;font-weight:normal;font-size:9.03600025px;font-family:Calibri;-inkscape-font-specification:Calibri;writing-mode:lr-tb;fill:#000000;fill-opacity:1;fill-rule:nonzero;stroke:none"
       id="text658"><tspan
         x="0 2.882484 7.2107282 11.879476 16.623375 21.119066 24.272629 28.365938 31.130953 35.712204"
         y="0"
         sodipodi:role="line"
         id="tspan656">January-15</tspan></text>
<text
       transform="matrix(0,1,1,0,253.7851,295.78442)"
       style="font-variant:normal;font-weight:normal;font-size:9.03600025px;font-family:Calibri;-inkscape-font-specification:Calibri;writing-mode:lr-tb;fill:#000000;fill-opacity:1;fill-rule:nonzero;stroke:none"
       id="text662"><tspan
         x="0 5.1597729 9.9036732 13.057237 15.239323 17.308567 20.073582 24.718899"
         y="0"
         sodipodi:role="line"
         id="tspan660">April-15</tspan></text>
<text
       transform="matrix(0,1,1,0,271.91131,299.26328)"
       style="font-variant:normal;font-weight:normal;font-size:9.03600025px;font-family:Calibri;-inkscape-font-specification:Calibri;writing-mode:lr-tb;fill:#000000;fill-opacity:1;fill-rule:nonzero;stroke:none"
       id="text666"><tspan
         x="0 2.882484 7.5596623 9.7195644 13.812872 16.679255 21.260506"
         y="0"
         sodipodi:role="line"
         id="tspan664">July-15</tspan></text>
<text
       transform="matrix(0,1,1,0,290.02849,282.94427)"
       style="font-variant:normal;font-weight:normal;font-size:9.03600025px;font-family:Calibri;-inkscape-font-specification:Calibri;writing-mode:lr-tb;fill:#000000;fill-opacity:1;fill-rule:nonzero;stroke:none"
       id="text670"><tspan
         x="0 5.981832 9.80406 12.83112 17.593092 22.438999 26.938927 30.092491 32.857506 37.438759"
         y="0"
         sodipodi:role="line"
         id="tspan668">October-15</tspan></text>
<text
       transform="matrix(0,1,1,0,308.0282,284.75147)"
       style="font-variant:normal;font-weight:normal;font-size:9.03600025px;font-family:Calibri;-inkscape-font-specification:Calibri;writing-mode:lr-tb;fill:#000000;fill-opacity:1;fill-rule:nonzero;stroke:none"
       id="text674"><tspan
         x="0 2.882484 7.2107282 11.879476 16.623375 21.119066 24.272629 28.365938 31.130953 35.712204"
         y="0"
         sodipodi:role="line"
         id="tspan672">January-16</tspan></text>
<text
       transform="matrix(0,1,1,0,326.14538,295.78442)"
       style="font-variant:normal;font-weight:normal;font-size:9.03600025px;font-family:Calibri;-inkscape-font-specification:Calibri;writing-mode:lr-tb;fill:#000000;fill-opacity:1;fill-rule:nonzero;stroke:none"
       id="text678"><tspan
         x="0 5.1597729 9.9036732 13.057237 15.239323 17.308567 20.073582 24.718899"
         y="0"
         sodipodi:role="line"
         id="tspan676">April-16</tspan></text>
<text
       transform="matrix(0,1,1,0,344.1451,299.26328)"
       style="font-variant:normal;font-weight:normal;font-size:9.03600025px;font-family:Calibri;-inkscape-font-specification:Calibri;writing-mode:lr-tb;fill:#000000;fill-opacity:1;fill-rule:nonzero;stroke:none"
       id="text682"><tspan
         x="0 2.882484 7.5596623 9.7195644 13.812872 16.679255 21.260506"
         y="0"
         sodipodi:role="line"
         id="tspan680">July-16</tspan></text>
<text
       transform="matrix(0,1,1,0,362.26228,282.94427)"
       style="font-variant:normal;font-weight:normal;font-size:9.03600025px;font-family:Calibri;-inkscape-font-specification:Calibri;writing-mode:lr-tb;fill:#000000;fill-opacity:1;fill-rule:nonzero;stroke:none"
       id="text686"><tspan
         x="0 5.981832 9.80406 12.83112 17.593092 22.438999 26.938927 30.092491 32.857506 37.438759"
         y="0"
         sodipodi:role="line"
         id="tspan684">October-16</tspan></text>
<text
       transform="matrix(0,1,1,0,380.26199,284.75147)"
       style="font-variant:normal;font-weight:normal;font-size:9.03600025px;font-family:Calibri;-inkscape-font-specification:Calibri;writing-mode:lr-tb;fill:#000000;fill-opacity:1;fill-rule:nonzero;stroke:none"
       id="text690"><tspan
         x="0 2.882484 7.2107282 11.879476 16.623375 21.119066 24.272629 28.365938 31.130953 35.712204"
         y="0"
         sodipodi:role="line"
         id="tspan688">January-17</tspan></text>
<text
       transform="matrix(0,1,1,0,398.37917,295.78442)"
       style="font-variant:normal;font-weight:normal;font-size:9.03600025px;font-family:Calibri;-inkscape-font-specification:Calibri;writing-mode:lr-tb;fill:#000000;fill-opacity:1;fill-rule:nonzero;stroke:none"
       id="text694"><tspan
         x="0 5.1597729 9.9036732 13.057237 15.239323 17.308567 20.073582 24.718899"
         y="0"
         sodipodi:role="line"
         id="tspan692">April-17</tspan></text>
<text
       transform="matrix(0,1,1,0,416.50538,299.26328)"
       style="font-variant:normal;font-weight:normal;font-size:9.03600025px;font-family:Calibri;-inkscape-font-specification:Calibri;writing-mode:lr-tb;fill:#000000;fill-opacity:1;fill-rule:nonzero;stroke:none"
       id="text698"><tspan
         x="0 2.882484 7.5596623 9.7195644 13.812872 16.679255 21.260506"
         y="0"
         sodipodi:role="line"
         id="tspan696">July-17</tspan></text>
<text
       transform="matrix(0,1,1,0,434.5051,282.94427)"
       style="font-variant:normal;font-weight:normal;font-size:9.03600025px;font-family:Calibri;-inkscape-font-specification:Calibri;writing-mode:lr-tb;fill:#000000;fill-opacity:1;fill-rule:nonzero;stroke:none"
       id="text702"><tspan
         x="0 5.981832 9.80406 12.83112 17.593092 22.438999 26.938927 30.092491 32.857506 37.438759"
         y="0"
         sodipodi:role="line"
         id="tspan700">October-17</tspan></text>
<text
       transform="matrix(0,1,1,0,71.1585,391.90036)"
       style="font-variant:normal;font-weight:normal;font-size:9.03600025px;font-family:Calibri;-inkscape-font-specification:'Calibri Bold';writing-mode:lr-tb;fill:#000000;fill-opacity:1;fill-rule:nonzero;stroke:none"
       id="text706"><tspan
         x="0 4.7800441 9.7195644 14.63935 19.559135"
         y="0"
         sodipodi:role="line"
         id="tspan704">Count</tspan></text>
<text
       transform="matrix(1,0,0,-1,261.82714,271.66734)"
       style="font-variant:normal;font-weight:normal;font-size:9.03600025px;font-family:Calibri;-inkscape-font-specification:'Calibri Bold';writing-mode:lr-tb;fill:#000000;fill-opacity:1;fill-rule:nonzero;stroke:none"
       id="text710"><tspan
         x="0 8.0396452 12.839433 17.759218 20.999077"
         y="0"
         sodipodi:role="line"
         id="tspan708">Month</tspan></text>
<text
       transform="matrix(1,0,0,-1,174.83969,511.43793)"
       style="font-variant:normal;font-weight:normal;font-size:16.33099937px;font-family:Calibri;-inkscape-font-specification:'Calibri Bold';writing-mode:lr-tb;fill:#000000;fill-opacity:1;fill-rule:nonzero;stroke:none"
       id="text714"><tspan
         x="0 8.6390991 17.408846 30.685949 39.455696 43.56041 51.480488 57.147346 61.164772 68.760643 77.040726 80.52076 91.080864 99.866936 108.65302 116.39391 120.41134 128.62582 132.12125 142.68135 148.2014 156.98749 165.84157 174.48164 181.08171 184.68175 193.20183 201.9879 208.32196 213.98882 220.92207 227.52214 236.40222 245.17197 249.18939 256.0824"
         y="0"
         sodipodi:role="line"
         id="tspan712">Cumulative Google Groups Post/Topics</tspan></text>
<text
       transform="matrix(1,0,0,-1,234.23553,491.53044)"
       style="font-variant:normal;font-weight:normal;font-size:16.33099937px;font-family:Calibri;-inkscape-font-specification:'Calibri Bold';writing-mode:lr-tb;fill:#000000;fill-opacity:1;fill-rule:nonzero;stroke:none"
       id="text718"><tspan
         x="0 5.1600409 13.439857 20.400179 28.679996 36.959812 40.65062 46.317474 55.087223 60.720551 69.50663 78.36071 86.040787 94.920868 98.520905 106.80072 114.96106 121.98339 130.26321 138.48128"
         y="0"
         sodipodi:role="line"
         id="tspan716">(4/13 through 12/17)</tspan></text>
<path
       d="m 461.4,422.16 h 22.8 c 0.6,0 1.08,-0.48 1.08,-1.08 0,-0.6 -0.48,-0.96 -1.08,-0.96 h -22.8 c -0.6,0 -1.08,0.36 -1.08,0.96 0,0.6 0.48,1.08 1.08,1.08 z"
       style="fill:#c00000;fill-opacity:1;fill-rule:nonzero;stroke:none"
       id="path720"
       inkscape:connector-curvature="0" /><text
       transform="matrix(1,0,0,-1,486.8145,418.42102)"
       style="font-variant:normal;font-weight:normal;font-size:9.03600025px;font-family:Calibri;-inkscape-font-specification:Calibri;writing-mode:lr-tb;fill:#000000;fill-opacity:1;fill-rule:nonzero;stroke:none"
       id="text724"><tspan
         x="0 4.6716118 9.4335842 13.07942 16.10648 19.559135 21.601273 24.366287 26.408424 32.037853 36.598373 38.758278 43.502178 49.059319 53.559246 57.092323"
         y="0"
         sodipodi:role="line"
         id="tspan722">Posts - HelpDesk</tspan></text>
<path
       d="m 461.4,405.72 h 4.08 c 0.6,0 0.96,-0.48 0.96,-1.08 0,-0.48 -0.36,-0.96 -0.96,-0.96 h -4.08 c -0.6,0 -1.08,0.48 -1.08,0.96 0,0.6 0.48,1.08 1.08,1.08 z m 8.16,0 h 4.08 c 0.6,0 0.96,-0.48 0.96,-1.08 0,-0.48 -0.36,-0.96 -0.96,-0.96 h -4.08 c -0.6,0 -1.08,0.48 -1.08,0.96 0,0.6 0.48,1.08 1.08,1.08 z m 8.16,0 h 4.08 c 0.6,0 0.96,-0.48 0.96,-1.08 0,-0.48 -0.36,-0.96 -0.96,-0.96 h -4.08 c -0.6,0 -1.08,0.48 -1.08,0.96 0,0.6 0.48,1.08 1.08,1.08 z"
       style="fill:#c00000;fill-opacity:1;fill-rule:nonzero;stroke:none"
       id="path726"
       inkscape:connector-curvature="0" /><text
       transform="matrix(1,0,0,-1,486.8145,402.102)"
       style="font-variant:normal;font-weight:normal;font-size:9.03600025px;font-family:Calibri;-inkscape-font-specification:Calibri;writing-mode:lr-tb;fill:#000000;fill-opacity:1;fill-rule:nonzero;stroke:none"
       id="text730"><tspan
         x="0 4.4005318 9.2395897 13.919379 16.079283 19.90151 23.434586 25.476723 28.318743 30.360878 35.878407 40.378334 42.447578 47.277897 52.917645 57.417572 60.950649"
         y="0"
         sodipodi:role="line"
         id="tspan728">Topics - HelpDesk</tspan></text>
<path
       d="m 461.4,389.28 h 22.8 c 0.6,0 1.08,-0.48 1.08,-0.96 0,-0.6 -0.48,-1.08 -1.08,-1.08 h -22.8 c -0.6,0 -1.08,0.48 -1.08,1.08 0,0.48 0.48,0.96 1.08,0.96 z"
       style="fill:#376092;fill-opacity:1;fill-rule:nonzero;stroke:none"
       id="path732"
       inkscape:connector-curvature="0" /><text
       transform="matrix(1,0,0,-1,486.8145,385.66552)"
       style="font-variant:normal;font-weight:normal;font-size:9.03600025px;font-family:Calibri;-inkscape-font-specification:Calibri;writing-mode:lr-tb;fill:#000000;fill-opacity:1;fill-rule:nonzero;stroke:none"
       id="text736"><tspan
         x="0 4.6716118 9.4335842 13.07942 16.10648 19.559135 21.601273 24.366287 26.408424 32.038586 34.198486 37.731564 41.398163 46.142063 49.797794"
         y="0"
         sodipodi:role="line"
         id="tspan734">Posts - Discuss</tspan></text>
<path
       d="m 461.4,372.84 h 4.08 c 0.6,0 0.96,-0.36 0.96,-0.96 0,-0.6 -0.36,-1.08 -0.96,-1.08 h -4.08 c -0.6,0 -1.08,0.48 -1.08,1.08 0,0.6 0.48,0.96 1.08,0.96 z m 8.16,0 h 4.08 c 0.6,0 0.96,-0.36 0.96,-0.96 0,-0.6 -0.36,-1.08 -0.96,-1.08 h -4.08 c -0.6,0 -1.08,0.48 -1.08,1.08 0,0.6 0.48,0.96 1.08,0.96 z m 8.16,0 h 4.08 c 0.6,0 0.96,-0.36 0.96,-0.96 0,-0.6 -0.36,-1.08 -0.96,-1.08 h -4.08 c -0.6,0 -1.08,0.48 -1.08,1.08 0,0.6 0.48,0.96 1.08,0.96 z"
       style="fill:#376092;fill-opacity:1;fill-rule:nonzero;stroke:none"
       id="path738"
       inkscape:connector-curvature="0" /><text
       transform="matrix(1,0,0,-1,486.8145,369.22)"
       style="font-variant:normal;font-weight:normal;font-size:9.03600025px;font-family:Calibri;-inkscape-font-specification:Calibri;writing-mode:lr-tb;fill:#000000;fill-opacity:1;fill-rule:nonzero;stroke:none"
       id="text742"><tspan
         x="0 4.4005318 9.2395897 13.919379 16.079283 19.90151 23.434586 25.476723 28.318743 30.360878 35.918018 37.91832 41.451393 45.35799 50.101891 53.634968"
         y="0"
         sodipodi:role="line"
         id="tspan740">Topics - Discuss</tspan></text>
<path
       d="m 461.4,356.52 h 22.8 c 0.6,0 1.08,-0.48 1.08,-1.08 0,-0.48 -0.48,-0.96 -1.08,-0.96 h -22.8 c -0.6,0 -1.08,0.48 -1.08,0.96 0,0.6 0.48,1.08 1.08,1.08 z"
       style="fill:#3d96ae;fill-opacity:1;fill-rule:nonzero;stroke:none"
       id="path744"
       inkscape:connector-curvature="0" /><text
       transform="matrix(1,0,0,-1,486.8145,352.78351)"
       style="font-variant:normal;font-weight:normal;font-size:9.03600025px;font-family:Calibri;-inkscape-font-specification:Calibri;writing-mode:lr-tb;fill:#000000;fill-opacity:1;fill-rule:nonzero;stroke:none"
       id="text748"><tspan
         x="0 4.6716118 9.4335842 13.07942 16.10648 19.559135 21.601273 24.366287 26.408424 31.640268 36.478386 41.222286 46.779427 51.357723"
         y="0"
         sodipodi:role="line"
         id="tspan746">Posts - AppDev</tspan></text>
<path
       d="m 461.4,340.08 h 4.08 c 0.6,0 0.96,-0.48 0.96,-0.96 0,-0.6 -0.36,-1.08 -0.96,-1.08 h -4.08 c -0.6,0 -1.08,0.48 -1.08,1.08 0,0.48 0.48,0.96 1.08,0.96 z m 8.16,0 h 4.08 c 0.6,0 0.96,-0.48 0.96,-0.96 0,-0.6 -0.36,-1.08 -0.96,-1.08 h -4.08 c -0.6,0 -1.08,0.48 -1.08,1.08 0,0.48 0.48,0.96 1.08,0.96 z m 8.16,0 h 4.08 c 0.6,0 0.96,-0.48 0.96,-0.96 0,-0.6 -0.36,-1.08 -0.96,-1.08 h -4.08 c -0.6,0 -1.08,0.48 -1.08,1.08 0,0.48 0.48,0.96 1.08,0.96 z"
       style="fill:#da8137;fill-opacity:1;fill-rule:nonzero;stroke:none"
       id="path750"
       inkscape:connector-curvature="0" /><text
       transform="matrix(1,0,0,-1,486.8145,336.4645)"
       style="font-variant:normal;font-weight:normal;font-size:9.03600025px;font-family:Calibri;-inkscape-font-specification:Calibri;writing-mode:lr-tb;fill:#000000;fill-opacity:1;fill-rule:nonzero;stroke:none"
       id="text754"><tspan
         x="0 4.4005318 9.2395897 13.919379 16.079283 19.90151 23.434586 25.476723 28.318743 30.360878 35.518421 40.262321 45.006218 50.757744 55.197544"
         y="0"
         sodipodi:role="line"
         id="tspan752">Topics - AppDev</tspan></text>
<path
       d="m 461.4,323.64 h 22.8 c 0.6,0 1.08,-0.36 1.08,-0.96 0,-0.6 -0.48,-1.08 -1.08,-1.08 h -22.8 c -0.6,0 -1.08,0.48 -1.08,1.08 0,0.6 0.48,0.96 1.08,0.96 z"
       style="fill:#da8137;fill-opacity:1;fill-rule:nonzero;stroke:none"
       id="path756"
       inkscape:connector-curvature="0" /><text
       transform="matrix(1,0,0,-1,486.8145,320.02801)"
       style="font-variant:normal;font-weight:normal;font-size:9.03600025px;font-family:Calibri;-inkscape-font-specification:Calibri;writing-mode:lr-tb;fill:#000000;fill-opacity:1;fill-rule:nonzero;stroke:none"
       id="text760"><tspan
         x="0 4.6716118 9.4335842 13.07942 16.10648 19.559135 21.601273 24.366287 26.408424 31.640268 36.478386 41.222286 46.779427 51.357723"
         y="0"
         sodipodi:role="line"
         id="tspan758">Posts - AppDev</tspan></text>
<g
       id="g762"><g
         id="g764"
         clip-path="url(#clipPath768)"><path
           d="m 50.88,533.88 c 0,0.24 0.12,0.36 0.36,0.36 H 561 c 0.24,0 0.36,-0.12 0.36,-0.36 v -276 c 0,-0.12 -0.12,-0.36 -0.36,-0.36 H 51.24 c -0.24,0 -0.36,0.24 -0.36,0.36 z m 0.6,-276 -0.24,0.36 H 561 l -0.24,-0.36 v 276 L 561,533.52 H 51.24 l 0.24,0.36 z"
           style="fill:#868686;fill-opacity:1;fill-rule:nonzero;stroke:none"
           id="path770"
           inkscape:connector-curvature="0" /></g></g></g></svg>