<?xml version="1.0" encoding="UTF-8" standalone="no"?>
<!-- Created with Inkscape (http://www.inkscape.org/) -->

<svg
   xmlns:dc="http://purl.org/dc/elements/1.1/"
   xmlns:cc="http://creativecommons.org/ns#"
   xmlns:rdf="http://www.w3.org/1999/02/22-rdf-syntax-ns#"
   xmlns:svg="http://www.w3.org/2000/svg"
   xmlns="http://www.w3.org/2000/svg"
   xmlns:sodipodi="http://sodipodi.sourceforge.net/DTD/sodipodi-0.dtd"
   xmlns:inkscape="http://www.inkscape.org/namespaces/inkscape"
   version="1.1"
   id="svg334"
   xml:space="preserve"
   width="680.79999"
   height="338.72"
   viewBox="0 0 680.79999 338.72"
   sodipodi:docname="PubMed_Cytoscape_Citations.svg"
   inkscape:version="0.92.3 (2405546, 2018-03-11)"><metadata
     id="metadata340"><rdf:RDF><cc:Work
         rdf:about=""><dc:format>image/svg+xml</dc:format><dc:type
           rdf:resource="http://purl.org/dc/dcmitype/StillImage" /><dc:title></dc:title></cc:Work></rdf:RDF></metadata><defs
     id="defs338"><clipPath
       clipPathUnits="userSpaceOnUse"
       id="clipPath538"><path
         d="M 50.64,523.2 V 268.92 H 561.36 V 523.2 Z"
         id="path536"
         inkscape:connector-curvature="0"
         style="clip-rule:evenodd" /></clipPath></defs><sodipodi:namedview
     pagecolor="#ffffff"
     bordercolor="#666666"
     borderopacity="1"
     objecttolerance="10"
     gridtolerance="10"
     guidetolerance="10"
     inkscape:pageopacity="0"
     inkscape:pageshadow="2"
     inkscape:window-width="640"
     inkscape:window-height="480"
     id="namedview336"
     showgrid="false"
     inkscape:zoom="0.22348485"
     inkscape:cx="340.32"
     inkscape:cy="169.44001"
     inkscape:window-x="0"
     inkscape:window-y="0"
     inkscape:window-maximized="0"
     inkscape:current-layer="g342" /><g
     id="g342"
     inkscape:groupmode="layer"
     inkscape:label="PubMed_Cytoscape_Citations"
     transform="matrix(1.3333333,0,0,-1.3333333,-67.679998,697.27998)"><path
       d="M 51.12,269.16 H 561 V 522.6 H 51.12 Z"
       style="fill:#ffffff;fill-opacity:1;fill-rule:nonzero;stroke:none"
       id="path344"
       inkscape:connector-curvature="0" /><path
       d="m 107.88,327.12 h 442.2 v 132.12 h -442.2 z"
       style="fill:#ffffff;fill-opacity:1;fill-rule:nonzero;stroke:none"
       id="path346"
       inkscape:connector-curvature="0" /><path
       d="m 107.88,349.44 h 442.2 v -0.72 h -442.2 z m 0,22.08 h 442.2 v -0.84 h -442.2 z m 0,21.96 h 442.2 v -0.72 h -442.2 z m 0,22.08 h 442.2 v -0.72 h -442.2 z m 0,21.96 h 442.2 v -0.72 h -442.2 z m 0,22.08 h 442.2 v -0.72 h -442.2 z"
       style="fill:#868686;fill-opacity:1;fill-rule:nonzero;stroke:none"
       id="path348"
       inkscape:connector-curvature="0" /><path
       d="m 116.76,328.32 h 11.76 v -1.2 h -11.76 z m 29.52,0.72 h 11.76 v -1.92 h -11.76 z m 29.4,1.44 h 11.88 v -3.36 h -11.88 z m 29.52,4.44 h 11.76 v -7.8 H 205.2 Z m 29.52,7.08 h 11.76 v -14.88 h -11.76 z m 29.4,12.72 h 11.76 v -27.6 h -11.76 z m 29.52,3.12 h 11.76 v -30.72 h -11.76 z m 29.52,9 h 11.76 v -39.72 h -11.76 z m 29.4,16.2 h 11.76 v -55.92 h -11.76 z m 29.52,12.84 h 11.76 v -68.76 h -11.76 z m 29.52,9.84 h 11.76 v -78.6 H 411.6 Z m 29.4,18.24 h 11.76 V 327.12 H 441 Z m 29.52,11.16 h 11.76 v -108 h -11.76 z m 29.4,16.92 h 11.76 V 327.12 h -11.76 z m 29.52,-121.92 h 11.76 v -3 h -11.76 z"
       style="fill:#4f81bd;fill-opacity:1;fill-rule:nonzero;stroke:none"
       id="path350"
       inkscape:connector-curvature="0" /><path
       d="m 107.52,327.12 h 0.72 v 132.12 h -0.72 z"
       style="fill:#868686;fill-opacity:1;fill-rule:nonzero;stroke:none"
       id="path352"
       inkscape:connector-curvature="0" /><path
       d="m 104.76,327.48 h 3.12 v -0.84 h -3.12 z m 0,21.96 h 3.12 v -0.72 h -3.12 z m 0,22.08 h 3.12 v -0.84 h -3.12 z m 0,21.96 h 3.12 v -0.72 h -3.12 z m 0,22.08 h 3.12 v -0.72 h -3.12 z m 0,21.96 h 3.12 v -0.72 h -3.12 z m 0,22.08 h 3.12 v -0.72 h -3.12 z"
       style="fill:#868686;fill-opacity:1;fill-rule:nonzero;stroke:none"
       id="path354"
       inkscape:connector-curvature="0" /><path
       d="m 107.88,326.64 h 442.2 v 0.84 h -442.2 z"
       style="fill:#868686;fill-opacity:1;fill-rule:nonzero;stroke:none"
       id="path356"
       inkscape:connector-curvature="0" /><path
       d="m 108.24,327.12 v -3.24 h -0.72 v 3.24 z m 29.52,0 v -3.24 h -0.84 v 3.24 z m 29.4,0 v -3.24 h -0.72 v 3.24 z m 29.52,0 v -3.24 h -0.72 v 3.24 z m 29.52,0 v -3.24 h -0.84 v 3.24 z m 29.4,0 v -3.24 h -0.72 v 3.24 z m 29.52,0 v -3.24 h -0.72 v 3.24 z m 29.4,0 v -3.24 h -0.72 v 3.24 z m 29.52,0 v -3.24 h -0.72 v 3.24 z m 29.52,0 v -3.24 h -0.72 v 3.24 z m 29.4,0 v -3.24 h -0.72 v 3.24 z m 29.64,0 v -3.24 h -0.72 v 3.24 z m 29.52,0 v -3.24 h -0.84 v 3.24 z m 29.4,0 v -3.24 h -0.72 v 3.24 z m 29.52,0 v -3.24 h -0.72 v 3.24 z m 29.4,0 v -3.24 h -0.72 v 3.24 z"
       style="fill:#868686;fill-opacity:1;fill-rule:nonzero;stroke:none"
       id="path358"
       inkscape:connector-curvature="0" /><text
       transform="matrix(1,0,0,-1,117.71905,335.40014)"
       style="font-variant:normal;font-weight:normal;font-size:9.86499977px;font-family:Calibri;-inkscape-font-specification:Calibri;writing-mode:lr-tb;fill:#000000;fill-opacity:1;fill-rule:nonzero;stroke:none"
       id="text362"><tspan
         x="0 4.9200206"
         y="0"
         sodipodi:role="line"
         id="tspan360">11</tspan></text>
<text
       transform="matrix(1,0,0,-1,147.11675,336.12028)"
       style="font-variant:normal;font-weight:normal;font-size:9.86499977px;font-family:Calibri;-inkscape-font-specification:Calibri;writing-mode:lr-tb;fill:#000000;fill-opacity:1;fill-rule:nonzero;stroke:none"
       id="text366"><tspan
         x="0 5.001555"
         y="0"
         sodipodi:role="line"
         id="tspan364">18</tspan></text>
<text
       transform="matrix(1,0,0,-1,176.64269,337.56057)"
       style="font-variant:normal;font-weight:normal;font-size:9.86499977px;font-family:Calibri;-inkscape-font-specification:Calibri;writing-mode:lr-tb;fill:#000000;fill-opacity:1;fill-rule:nonzero;stroke:none"
       id="text370"><tspan
         x="0 5.001555"
         y="0"
         sodipodi:role="line"
         id="tspan368">31</tspan></text>
<text
       transform="matrix(1,0,0,-1,206.15877,342.1182)"
       style="font-variant:normal;font-weight:normal;font-size:9.86499977px;font-family:Calibri;-inkscape-font-specification:Calibri;writing-mode:lr-tb;fill:#000000;fill-opacity:1;fill-rule:nonzero;stroke:none"
       id="text374"><tspan
         x="0 4.9200206"
         y="0"
         sodipodi:role="line"
         id="tspan372">72</tspan></text>
<text
       transform="matrix(1,0,0,-1,233.15928,349.08289)"
       style="font-variant:normal;font-weight:normal;font-size:9.86499977px;font-family:Calibri;-inkscape-font-specification:Calibri;writing-mode:lr-tb;fill:#000000;fill-opacity:1;fill-rule:nonzero;stroke:none"
       id="text378"><tspan
         x="0 4.9200206 9.9215755"
         y="0"
         sodipodi:role="line"
         id="tspan376">136</tspan></text>
<text
       transform="matrix(1,0,0,-1,262.55698,361.79888)"
       style="font-variant:normal;font-weight:normal;font-size:9.86499977px;font-family:Calibri;-inkscape-font-specification:Calibri;writing-mode:lr-tb;fill:#000000;fill-opacity:1;fill-rule:nonzero;stroke:none"
       id="text382"><tspan
         x="0 5.001555 10.080037"
         y="0"
         sodipodi:role="line"
         id="tspan380">251</tspan></text>
<text
       transform="matrix(1,0,0,-1,292.08292,364.92608)"
       style="font-variant:normal;font-weight:normal;font-size:9.86499977px;font-family:Calibri;-inkscape-font-specification:Calibri;writing-mode:lr-tb;fill:#000000;fill-opacity:1;fill-rule:nonzero;stroke:none"
       id="text386"><tspan
         x="0 5.001555 10.00311"
         y="0"
         sodipodi:role="line"
         id="tspan384">279</tspan></text>
<text
       transform="matrix(1,0,0,-1,321.599,373.92296)"
       style="font-variant:normal;font-weight:normal;font-size:9.86499977px;font-family:Calibri;-inkscape-font-specification:Calibri;writing-mode:lr-tb;fill:#000000;fill-opacity:1;fill-rule:nonzero;stroke:none"
       id="text390"><tspan
         x="0 4.9200206 9.9215755"
         y="0"
         sodipodi:role="line"
         id="tspan388">361</tspan></text>
<text
       transform="matrix(1,0,0,-1,350.9967,390.12129)"
       style="font-variant:normal;font-weight:normal;font-size:9.86499977px;font-family:Calibri;-inkscape-font-specification:Calibri;writing-mode:lr-tb;fill:#000000;fill-opacity:1;fill-rule:nonzero;stroke:none"
       id="text394"><tspan
         x="0 5.001555 10.00311"
         y="0"
         sodipodi:role="line"
         id="tspan392">508</tspan></text>
<text
       transform="matrix(1,0,0,-1,380.52265,403.0839)"
       style="font-variant:normal;font-weight:normal;font-size:9.86499977px;font-family:Calibri;-inkscape-font-specification:Calibri;writing-mode:lr-tb;fill:#000000;fill-opacity:1;fill-rule:nonzero;stroke:none"
       id="text398"><tspan
         x="0 5.001555 10.00311"
         y="0"
         sodipodi:role="line"
         id="tspan396">626</tspan></text>
<text
       transform="matrix(1,0,0,-1,410.03873,412.80093)"
       style="font-variant:normal;font-weight:normal;font-size:9.86499977px;font-family:Calibri;-inkscape-font-specification:Calibri;writing-mode:lr-tb;fill:#000000;fill-opacity:1;fill-rule:nonzero;stroke:none"
       id="text402"><tspan
         x="0 4.9200206 9.9215755"
         y="0"
         sodipodi:role="line"
         id="tspan400">714</tspan></text>
<text
       transform="matrix(1,0,0,-1,439.44629,431.04131)"
       style="font-variant:normal;font-weight:normal;font-size:9.86499977px;font-family:Calibri;-inkscape-font-specification:Calibri;writing-mode:lr-tb;fill:#000000;fill-opacity:1;fill-rule:nonzero;stroke:none"
       id="text406"><tspan
         x="0 5.001555 10.00311"
         y="0"
         sodipodi:role="line"
         id="tspan404">880</tspan></text>
<text
       transform="matrix(1,0,0,-1,468.96237,442.31701)"
       style="font-variant:normal;font-weight:normal;font-size:9.86499977px;font-family:Calibri;-inkscape-font-specification:Calibri;writing-mode:lr-tb;fill:#000000;fill-opacity:1;fill-rule:nonzero;stroke:none"
       id="text410"><tspan
         x="0 5.001555 10.00311"
         y="0"
         sodipodi:role="line"
         id="tspan408">982</tspan></text>
<text
       transform="matrix(1,0,0,-1,495.96288,459.1171)"
       style="font-variant:normal;font-weight:normal;font-size:9.86499977px;font-family:Calibri;-inkscape-font-specification:Calibri;writing-mode:lr-tb;fill:#000000;fill-opacity:1;fill-rule:nonzero;stroke:none"
       id="text414"><tspan
         x="0 4.9200206 9.9215755 15.000058"
         y="0"
         sodipodi:role="line"
         id="tspan412">1135</tspan></text>
<text
       transform="matrix(1,0,0,-1,530.40159,337.07719)"
       style="font-variant:normal;font-weight:normal;font-size:9.86499977px;font-family:Calibri;-inkscape-font-specification:Calibri;writing-mode:lr-tb;fill:#000000;fill-opacity:1;fill-rule:nonzero;stroke:none"
       id="text418"><tspan
         x="0 5.001555"
         y="0"
         sodipodi:role="line"
         id="tspan416">27</tspan></text>
<text
       transform="matrix(1,0,0,-1,93.7175,324.24282)"
       style="font-variant:normal;font-weight:normal;font-size:9.86499977px;font-family:Calibri;-inkscape-font-specification:Calibri;writing-mode:lr-tb;fill:#000000;fill-opacity:1;fill-rule:nonzero;stroke:none"
       id="text422"><tspan
         x="0"
         y="0"
         id="tspan420">0</tspan></text>
<text
       transform="matrix(1,0,0,-1,83.63547,346.20231)"
       style="font-variant:normal;font-weight:normal;font-size:9.86499977px;font-family:Calibri;-inkscape-font-specification:Calibri;writing-mode:lr-tb;fill:#000000;fill-opacity:1;fill-rule:nonzero;stroke:none"
       id="text426"><tspan
         x="0 5.001555 10.200035"
         y="0"
         sodipodi:role="line"
         id="tspan424">200</tspan></text>
<text
       transform="matrix(1,0,0,-1,83.63547,368.28018)"
       style="font-variant:normal;font-weight:normal;font-size:9.86499977px;font-family:Calibri;-inkscape-font-specification:Calibri;writing-mode:lr-tb;fill:#000000;fill-opacity:1;fill-rule:nonzero;stroke:none"
       id="text430"><tspan
         x="0 5.001555 10.200035"
         y="0"
         sodipodi:role="line"
         id="tspan428">400</tspan></text>
<text
       transform="matrix(1,0,0,-1,83.63547,390.23967)"
       style="font-variant:normal;font-weight:normal;font-size:9.86499977px;font-family:Calibri;-inkscape-font-specification:Calibri;writing-mode:lr-tb;fill:#000000;fill-opacity:1;fill-rule:nonzero;stroke:none"
       id="text434"><tspan
         x="0 5.001555 10.200035"
         y="0"
         sodipodi:role="line"
         id="tspan432">600</tspan></text>
<text
       transform="matrix(1,0,0,-1,83.63547,412.31754)"
       style="font-variant:normal;font-weight:normal;font-size:9.86499977px;font-family:Calibri;-inkscape-font-specification:Calibri;writing-mode:lr-tb;fill:#000000;fill-opacity:1;fill-rule:nonzero;stroke:none"
       id="text438"><tspan
         x="0 5.001555 10.200035"
         y="0"
         sodipodi:role="line"
         id="tspan436">800</tspan></text>
<text
       transform="matrix(1,0,0,-1,78.7227,434.27703)"
       style="font-variant:normal;font-weight:normal;font-size:9.86499977px;font-family:Calibri;-inkscape-font-specification:Calibri;writing-mode:lr-tb;fill:#000000;fill-opacity:1;fill-rule:nonzero;stroke:none"
       id="text442"><tspan
         x="0 4.9200206 10.080037 15.000058"
         y="0"
         sodipodi:role="line"
         id="tspan440">1000</tspan></text>
<text
       transform="matrix(1,0,0,-1,78.7227,456.36477)"
       style="font-variant:normal;font-weight:normal;font-size:9.86499977px;font-family:Calibri;-inkscape-font-specification:Calibri;writing-mode:lr-tb;fill:#000000;fill-opacity:1;fill-rule:nonzero;stroke:none"
       id="text446"><tspan
         x="0 4.9200206 10.080037 15.000058"
         y="0"
         sodipodi:role="line"
         id="tspan444">1200</tspan></text>
<text
       transform="matrix(1,0,0,-1,112.67803,311.28021)"
       style="font-variant:normal;font-weight:normal;font-size:9.86499977px;font-family:Calibri;-inkscape-font-specification:Calibri;writing-mode:lr-tb;fill:#000000;fill-opacity:1;fill-rule:nonzero;stroke:none"
       id="text450"><tspan
         x="0 4.9200206 10.080037 15.000058"
         y="0"
         sodipodi:role="line"
         id="tspan448">2004</tspan></text>
<text
       transform="matrix(1,0,0,-1,142.07573,311.28021)"
       style="font-variant:normal;font-weight:normal;font-size:9.86499977px;font-family:Calibri;-inkscape-font-specification:Calibri;writing-mode:lr-tb;fill:#000000;fill-opacity:1;fill-rule:nonzero;stroke:none"
       id="text454"><tspan
         x="0 5.001555 10.080037 15.081593"
         y="0"
         sodipodi:role="line"
         id="tspan452">2005</tspan></text>
<text
       transform="matrix(1,0,0,-1,171.60168,311.28021)"
       style="font-variant:normal;font-weight:normal;font-size:9.86499977px;font-family:Calibri;-inkscape-font-specification:Calibri;writing-mode:lr-tb;fill:#000000;fill-opacity:1;fill-rule:nonzero;stroke:none"
       id="text458"><tspan
         x="0 5.001555 10.080037 15.081593"
         y="0"
         sodipodi:role="line"
         id="tspan456">2006</tspan></text>
<text
       transform="matrix(1,0,0,-1,201.11776,311.28021)"
       style="font-variant:normal;font-weight:normal;font-size:9.86499977px;font-family:Calibri;-inkscape-font-specification:Calibri;writing-mode:lr-tb;fill:#000000;fill-opacity:1;fill-rule:nonzero;stroke:none"
       id="text462"><tspan
         x="0 4.9200206 10.080037 15.000058"
         y="0"
         sodipodi:role="line"
         id="tspan460">2007</tspan></text>
<text
       transform="matrix(1,0,0,-1,230.52532,311.28021)"
       style="font-variant:normal;font-weight:normal;font-size:9.86499977px;font-family:Calibri;-inkscape-font-specification:Calibri;writing-mode:lr-tb;fill:#000000;fill-opacity:1;fill-rule:nonzero;stroke:none"
       id="text466"><tspan
         x="0 5.001555 10.080037 15.081593"
         y="0"
         sodipodi:role="line"
         id="tspan464">2008</tspan></text>
<text
       transform="matrix(1,0,0,-1,260.0414,311.28021)"
       style="font-variant:normal;font-weight:normal;font-size:9.86499977px;font-family:Calibri;-inkscape-font-specification:Calibri;writing-mode:lr-tb;fill:#000000;fill-opacity:1;fill-rule:nonzero;stroke:none"
       id="text470"><tspan
         x="0 5.001555 10.080037 15.081593"
         y="0"
         sodipodi:role="line"
         id="tspan468">2009</tspan></text>
<text
       transform="matrix(1,0,0,-1,289.55748,311.28021)"
       style="font-variant:normal;font-weight:normal;font-size:9.86499977px;font-family:Calibri;-inkscape-font-specification:Calibri;writing-mode:lr-tb;fill:#000000;fill-opacity:1;fill-rule:nonzero;stroke:none"
       id="text474"><tspan
         x="0 4.9200206 10.080037 15.000058"
         y="0"
         sodipodi:role="line"
         id="tspan472">2010</tspan></text>
<text
       transform="matrix(1,0,0,-1,318.96505,311.28021)"
       style="font-variant:normal;font-weight:normal;font-size:9.86499977px;font-family:Calibri;-inkscape-font-specification:Calibri;writing-mode:lr-tb;fill:#000000;fill-opacity:1;fill-rule:nonzero;stroke:none"
       id="text478"><tspan
         x="0 5.001555 10.080037 15.081593"
         y="0"
         sodipodi:role="line"
         id="tspan476">2011</tspan></text>
<text
       transform="matrix(1,0,0,-1,348.48113,311.28021)"
       style="font-variant:normal;font-weight:normal;font-size:9.86499977px;font-family:Calibri;-inkscape-font-specification:Calibri;writing-mode:lr-tb;fill:#000000;fill-opacity:1;fill-rule:nonzero;stroke:none"
       id="text482"><tspan
         x="0 5.001555 10.080037 15.081593"
         y="0"
         sodipodi:role="line"
         id="tspan480">2012</tspan></text>
<text
       transform="matrix(1,0,0,-1,377.9972,311.28021)"
       style="font-variant:normal;font-weight:normal;font-size:9.86499977px;font-family:Calibri;-inkscape-font-specification:Calibri;writing-mode:lr-tb;fill:#000000;fill-opacity:1;fill-rule:nonzero;stroke:none"
       id="text486"><tspan
         x="0 4.9200206 10.080037 15.000058"
         y="0"
         sodipodi:role="line"
         id="tspan484">2013</tspan></text>
<text
       transform="matrix(1,0,0,-1,407.40477,311.28021)"
       style="font-variant:normal;font-weight:normal;font-size:9.86499977px;font-family:Calibri;-inkscape-font-specification:Calibri;writing-mode:lr-tb;fill:#000000;fill-opacity:1;fill-rule:nonzero;stroke:none"
       id="text490"><tspan
         x="0 5.001555 10.080037 15.081593"
         y="0"
         sodipodi:role="line"
         id="tspan488">2014</tspan></text>
<text
       transform="matrix(1,0,0,-1,436.92085,311.28021)"
       style="font-variant:normal;font-weight:normal;font-size:9.86499977px;font-family:Calibri;-inkscape-font-specification:Calibri;writing-mode:lr-tb;fill:#000000;fill-opacity:1;fill-rule:nonzero;stroke:none"
       id="text494"><tspan
         x="0 5.001555 10.080037 15.081593"
         y="0"
         sodipodi:role="line"
         id="tspan492">2015</tspan></text>
<text
       transform="matrix(1,0,0,-1,466.43693,311.28021)"
       style="font-variant:normal;font-weight:normal;font-size:9.86499977px;font-family:Calibri;-inkscape-font-specification:Calibri;writing-mode:lr-tb;fill:#000000;fill-opacity:1;fill-rule:nonzero;stroke:none"
       id="text498"><tspan
         x="0 4.9200206 10.080037 15.000058"
         y="0"
         sodipodi:role="line"
         id="tspan496">2016</tspan></text>
<text
       transform="matrix(1,0,0,-1,495.8445,311.28021)"
       style="font-variant:normal;font-weight:normal;font-size:9.86499977px;font-family:Calibri;-inkscape-font-specification:Calibri;writing-mode:lr-tb;fill:#000000;fill-opacity:1;fill-rule:nonzero;stroke:none"
       id="text502"><tspan
         x="0 5.001555 10.080037 15.081593"
         y="0"
         sodipodi:role="line"
         id="tspan500">2017</tspan></text>
<text
       transform="matrix(1,0,0,-1,494.64097,299.28437)"
       style="font-variant:normal;font-weight:normal;font-size:9.86499977px;font-family:Calibri;-inkscape-font-specification:Calibri;writing-mode:lr-tb;fill:#000000;fill-opacity:1;fill-rule:nonzero;stroke:none"
       id="text506"><tspan
         x="0 2.8800077 7.9802127 12.840047 16.200056 19.504831"
         y="0"
         sodipodi:role="line"
         id="tspan504">(Part)</tspan></text>
<text
       transform="matrix(1,0,0,-1,525.36058,311.28021)"
       style="font-variant:normal;font-weight:normal;font-size:9.86499977px;font-family:Calibri;-inkscape-font-specification:Calibri;writing-mode:lr-tb;fill:#000000;fill-opacity:1;fill-rule:nonzero;stroke:none"
       id="text510"><tspan
         x="0 5.001555 10.080037 15.081593"
         y="0"
         sodipodi:role="line"
         id="tspan508">2018</tspan></text>
<text
       transform="matrix(1,0,0,-1,524.03867,299.28437)"
       style="font-variant:normal;font-weight:normal;font-size:9.86499977px;font-family:Calibri;-inkscape-font-specification:Calibri;writing-mode:lr-tb;fill:#000000;fill-opacity:1;fill-rule:nonzero;stroke:none"
       id="text514"><tspan
         x="0 2.989095 8.1600323 12.885367 16.328253 19.633026"
         y="0"
         sodipodi:role="line"
         id="tspan512">(Part)</tspan></text>
<text
       transform="matrix(0,1,1,0,72.96154,374.87987)"
       style="font-variant:normal;font-weight:normal;font-size:9.86499977px;font-family:Calibri;-inkscape-font-specification:'Calibri Bold';writing-mode:lr-tb;fill:#000000;fill-opacity:1;fill-rule:nonzero;stroke:none"
       id="text518"><tspan
         x="0 5.2800145 7.5600228 10.983178 15.960051 19.320061 21.746849 27.120089 32.417595"
         y="0"
         sodipodi:role="line"
         id="tspan516">Citations</tspan></text>
<text
       transform="matrix(1,0,0,-1,319.68519,284.16133)"
       style="font-variant:normal;font-weight:normal;font-size:9.86499977px;font-family:Calibri;-inkscape-font-specification:'Calibri Bold';writing-mode:lr-tb;fill:#000000;fill-opacity:1;fill-rule:nonzero;stroke:none"
       id="text522"><tspan
         x="0 5.1297998 10.091895 14.965205"
         y="0"
         sodipodi:role="line"
         id="tspan520">Year</tspan></text>
<text
       transform="matrix(1,0,0,-1,172.91377,498.11432)"
       style="font-variant:normal;font-weight:normal;font-size:17.82799911px;font-family:Calibri;-inkscape-font-specification:'Calibri Bold';writing-mode:lr-tb;fill:#000000;fill-opacity:1;fill-rule:nonzero;stroke:none"
       id="text526"><tspan
         x="0 9.4844961 19.058132 28.799601 43.293766 52.26125 61.91914 65.759079 75.118935 83.638817 89.75872 99.350182 106.46355 113.91566 122.63826 132.2119 141.358 145.07796 154.50897 158.89465 164.99768 173.63756 179.82387 184.20956 193.80103 203.51714 210.63051 214.43698 219.99931 229.03812 233.63774 242.75659 251.79538 260.75632"
         y="0"
         sodipodi:role="line"
         id="tspan524">Pubmed Cytoscape Citations (6,031)</tspan></text>
<text
       transform="matrix(1,0,0,-1,212.278,476.39982)"
       style="font-variant:normal;font-weight:normal;font-size:17.82799911px;font-family:Calibri;-inkscape-font-specification:'Calibri Bold';writing-mode:lr-tb;fill:#000000;fill-opacity:1;fill-rule:nonzero;stroke:none"
       id="text530"><tspan
         x="0 9.0387964 16.704836 25.67963 33.239521 42.278316 51.317112 60.355911 69.394707 73.558952 79.678856 89.39872 95.638626 105.21227 109.24139 118.1983 125.86434 134.90314 143.87793 151.54398 160.58276 169.55756 178.67744"
         y="0"
         sodipodi:role="line"
         id="tspan528">1/1/2004 thru 1/19/2018</tspan></text>
<g
       id="g532"><g
         id="g534"
         clip-path="url(#clipPath538)"><path
           d="m 50.76,522.6 c 0,0.24 0.24,0.36 0.36,0.36 H 561 c 0.24,0 0.36,-0.12 0.36,-0.36 V 269.16 c 0,-0.24 -0.12,-0.36 -0.36,-0.36 H 51.12 c -0.12,0 -0.36,0.12 -0.36,0.36 z m 0.84,-253.44 -0.48,0.36 H 561 l -0.36,-0.36 V 522.6 L 561,522.24 H 51.12 l 0.48,0.36 z"
           style="fill:#868686;fill-opacity:1;fill-rule:nonzero;stroke:none"
           id="path540"
           inkscape:connector-curvature="0" /></g></g></g></svg>