<?xml version="1.0" encoding="UTF-8" standalone="no"?>
<!-- Created with Inkscape (http://www.inkscape.org/) -->

<svg
   xmlns:dc="http://purl.org/dc/elements/1.1/"
   xmlns:cc="http://creativecommons.org/ns#"
   xmlns:rdf="http://www.w3.org/1999/02/22-rdf-syntax-ns#"
   xmlns:svg="http://www.w3.org/2000/svg"
   xmlns="http://www.w3.org/2000/svg"
   xmlns:sodipodi="http://sodipodi.sourceforge.net/DTD/sodipodi-0.dtd"
   xmlns:inkscape="http://www.inkscape.org/namespaces/inkscape"
   version="1.1"
   id="svg10"
   xml:space="preserve"
   width="680.79999"
   height="285.12"
   viewBox="0 0 680.79999 285.12"
   sodipodi:docname="Web_Site_Referrals_Prior_Year.svg"
   inkscape:version="0.92.3 (2405546, 2018-03-11)"><metadata
     id="metadata16"><rdf:RDF><cc:Work
         rdf:about=""><dc:format>image/svg+xml</dc:format><dc:type
           rdf:resource="http://purl.org/dc/dcmitype/StillImage" /><dc:title></dc:title></cc:Work></rdf:RDF></metadata><defs
     id="defs14"><clipPath
       clipPathUnits="userSpaceOnUse"
       id="clipPath168"><path
         d="M 50.64,503.04 V 288.96 h 510.72 v 214.08 z"
         id="path166"
         inkscape:connector-curvature="0"
         style="clip-rule:evenodd" /></clipPath></defs><sodipodi:namedview
     pagecolor="#ffffff"
     bordercolor="#666666"
     borderopacity="1"
     objecttolerance="10"
     gridtolerance="10"
     guidetolerance="10"
     inkscape:pageopacity="0"
     inkscape:pageshadow="2"
     inkscape:window-width="640"
     inkscape:window-height="480"
     id="namedview12"
     showgrid="false"
     inkscape:zoom="0.22348485"
     inkscape:cx="340.32"
     inkscape:cy="142.72001"
     inkscape:window-x="0"
     inkscape:window-y="0"
     inkscape:window-maximized="0"
     inkscape:current-layer="g18" /><g
     id="g18"
     inkscape:groupmode="layer"
     inkscape:label="Web_Site_Referrals_Prior_Year"
     transform="matrix(1.3333333,0,0,-1.3333333,-67.679998,670.39998)"><path
       d="M 51,289.08 H 561.12 V 502.56 H 51 Z"
       style="fill:#ffffff;fill-opacity:1;fill-rule:nonzero;stroke:none"
       id="path20"
       inkscape:connector-curvature="0" /><path
       d="m 306.12,452.16 c 39.84,0 72.12,-32.28 72.12,-72.24 0,-10.32 -2.16,-20.64 -6.6,-30.12 l -65.52,30.12 z"
       style="fill:#4572a7;fill-opacity:1;fill-rule:evenodd;stroke:none"
       id="path22"
       inkscape:connector-curvature="0" /><path
       d="M 371.64,349.8 C 359.16,322.68 331.32,306 301.56,307.92 l 4.56,72 z"
       style="fill:#aa4643;fill-opacity:1;fill-rule:evenodd;stroke:none"
       id="path24"
       inkscape:connector-curvature="0" /><path
       d="m 301.56,307.92 c -26.28,1.68 -49.68,17.52 -60.84,41.4 l 65.4,30.6 z"
       style="fill:#89a54e;fill-opacity:1;fill-rule:evenodd;stroke:none"
       id="path26"
       inkscape:connector-curvature="0" /><path
       d="m 240.72,349.32 c -3.12,6.72 -5.28,13.92 -6.24,21.36 l 71.64,9.24 z"
       style="fill:#71588f;fill-opacity:1;fill-rule:evenodd;stroke:none"
       id="path28"
       inkscape:connector-curvature="0" /><path
       d="m 234.48,370.68 c -0.72,5.88 -0.84,11.76 -0.12,17.52 l 71.76,-8.28 z"
       style="fill:#4198af;fill-opacity:1;fill-rule:evenodd;stroke:none"
       id="path30"
       inkscape:connector-curvature="0" /><path
       d="m 234.36,388.2 c 0.24,2.16 0.6,4.44 1.08,6.48 l 70.68,-14.76 z"
       style="fill:#db843d;fill-opacity:1;fill-rule:evenodd;stroke:none"
       id="path32"
       inkscape:connector-curvature="0" /><path
       d="m 235.44,394.68 c 0.24,1.56 0.6,3 1.08,4.56 l 69.6,-19.32 z"
       style="fill:#93a9cf;fill-opacity:1;fill-rule:evenodd;stroke:none"
       id="path34"
       inkscape:connector-curvature="0" /><path
       d="m 236.52,399.24 c 0.48,1.92 1.2,3.84 1.92,5.76 l 67.68,-25.08 z"
       style="fill:#d19392;fill-opacity:1;fill-rule:evenodd;stroke:none"
       id="path36"
       inkscape:connector-curvature="0" /><path
       d="m 238.44,405 c 0.48,1.32 0.96,2.52 1.44,3.84 l 66.24,-28.92 z"
       style="fill:#b9cd96;fill-opacity:1;fill-rule:evenodd;stroke:none"
       id="path38"
       inkscape:connector-curvature="0" /><path
       d="m 239.88,408.84 c 0.48,0.84 0.84,1.8 1.32,2.76 l 64.92,-31.68 z"
       style="fill:#a99bbd;fill-opacity:1;fill-rule:evenodd;stroke:none"
       id="path40"
       inkscape:connector-curvature="0" /><path
       d="m 241.2,411.6 c 12.12,24.84 37.32,40.56 64.92,40.56 v -72.24 z"
       style="fill:#91c3d5;fill-opacity:1;fill-rule:evenodd;stroke:none"
       id="path42"
       inkscape:connector-curvature="0" /><path
       d="m 366.72,419.04 15.72,19.32 c 0.12,0 0.12,0.12 0.24,0.12 h 3 v -0.6 h -3 l 0.24,0.12 -15.84,-19.2 z"
       style="fill:#000000;fill-opacity:1;fill-rule:nonzero;stroke:none"
       id="path44"
       inkscape:connector-curvature="0" /><path
       d="m 343.08,318.24 50.04,-1.2 H 396 v -0.6 h -2.88 l -50.04,1.32 z"
       style="fill:#000000;fill-opacity:1;fill-rule:nonzero;stroke:none"
       id="path46"
       inkscape:connector-curvature="0" /><path
       d="m 265.68,320.04 -17.64,-18.72 c -0.12,-0.12 -0.12,-0.12 -0.24,-0.12 h -3 v 0.48 h 3 -0.12 l 17.64,18.72 z"
       style="fill:#000000;fill-opacity:1;fill-rule:nonzero;stroke:none"
       id="path48"
       inkscape:connector-curvature="0" /><path
       d="m 236.88,359.52 -20.4,-15.72 c 0,0 -0.12,0 -0.12,0 h -3 v 0.48 h 3 -0.24 L 236.64,360 Z"
       style="fill:#000000;fill-opacity:1;fill-rule:nonzero;stroke:none"
       id="path50"
       inkscape:connector-curvature="0" /><path
       d="M 234,379.2 206.4,360 c 0,0 0,-0.12 -0.12,-0.12 h -2.88 v 0.6 h 2.88 l -0.12,-0.12 27.6,19.32 z"
       style="fill:#000000;fill-opacity:1;fill-rule:nonzero;stroke:none"
       id="path52"
       inkscape:connector-curvature="0" /><path
       d="M 234.96,391.32 214.2,374.64 c -0.12,0 -0.12,0 -0.24,0 h -3 v 0.48 h 3 -0.12 l 20.88,16.56 z"
       style="fill:#000000;fill-opacity:1;fill-rule:nonzero;stroke:none"
       id="path54"
       inkscape:connector-curvature="0" /><path
       d="m 235.92,396.72 -29.76,-5.04 c 0,0 0,0 0,0 h -3 v 0.48 h 3 v 0 l 29.76,5.04 z"
       style="fill:#000000;fill-opacity:1;fill-rule:nonzero;stroke:none"
       id="path56"
       inkscape:connector-curvature="0" /><path
       d="m 237.36,401.88 -23.88,7.44 v 0 h -2.88 v 0.48 h 2.88 c 0.12,0 0.12,0 0.12,0 l 23.88,-7.44 z"
       style="fill:#000000;fill-opacity:1;fill-rule:nonzero;stroke:none"
       id="path58"
       inkscape:connector-curvature="0" /><path
       d="M 239.04,406.68 204.36,423 v -0.12 h -2.88 v 0.6 h 2.88 c 0.12,0 0.12,-0.12 0.12,-0.12 l 34.8,-16.2 z"
       style="fill:#000000;fill-opacity:1;fill-rule:nonzero;stroke:none"
       id="path60"
       inkscape:connector-curvature="0" /><path
       d="m 240.36,410.04 -9.72,17.52 0.24,-0.12 h -3 v 0.48 h 3 c 0,0 0.12,0 0.12,-0.12 l 9.72,-17.52 z"
       style="fill:#000000;fill-opacity:1;fill-rule:nonzero;stroke:none"
       id="path62"
       inkscape:connector-curvature="0" /><path
       d="m 267.6,441 -8.52,7.44 0.12,-0.12 h -2.88 v 0.48 h 2.88 c 0.12,0 0.12,0 0.24,0 l 8.52,-7.44 z"
       style="fill:#000000;fill-opacity:1;fill-rule:nonzero;stroke:none"
       id="path64"
       inkscape:connector-curvature="0" /><text
       transform="matrix(1,0,0,-1,386.61678,438.09541)"
       style="font-variant:normal;font-weight:normal;font-size:6.58799982px;font-family:Calibri;-inkscape-font-specification:Calibri;writing-mode:lr-tb;fill:#000000;fill-opacity:1;fill-rule:nonzero;stroke:none"
       id="text68"><tspan
         x="0 3.102948 6.5748239 10.0467 13.149648 14.759109 18.039934 19.528822 22.071789 23.638575 27.110451 29.409662 32.512611 35.668262 39.126961 40.635612"
         y="0"
         sodipodi:role="line"
         id="tspan66">google / organic</tspan></text>
<text
       transform="matrix(1,0,0,-1,402.69809,430.05146)"
       style="font-variant:normal;font-weight:normal;font-size:6.58799982px;font-family:Calibri;-inkscape-font-specification:Calibri;writing-mode:lr-tb;fill:#000000;fill-opacity:1;fill-rule:nonzero;stroke:none"
       id="text72"><tspan
         x="0 3.340116 6.5996013"
         y="0"
         sodipodi:role="line"
         id="tspan70">32%</tspan></text>
<text
       transform="matrix(1,0,0,-1,397.05876,316.65881)"
       style="font-variant:normal;font-weight:normal;font-size:6.58799982px;font-family:Calibri;-inkscape-font-specification:Calibri;writing-mode:lr-tb;fill:#000000;fill-opacity:1;fill-rule:nonzero;stroke:none"
       id="text76"><tspan
         x="0 1.9198816 5.3785815 6.9595766 9.2587881 12.479239 15.265964 17.472944 19.469109 21.118717 23.661684 25.07848 27.074644 30.598145 34.070019 37.528721 40.809544"
         y="0"
         sodipodi:role="line"
         id="tspan74">(direct) / (none)</tspan></text>
<text
       transform="matrix(1,0,0,-1,412.77773,308.62145)"
       style="font-variant:normal;font-weight:normal;font-size:6.58799982px;font-family:Calibri;-inkscape-font-specification:Calibri;writing-mode:lr-tb;fill:#000000;fill-opacity:1;fill-rule:nonzero;stroke:none"
       id="text80"><tspan
         x="0 3.340116 6.680232"
         y="0"
         sodipodi:role="line"
         id="tspan78">19%</tspan></text>
<text
       transform="matrix(1,0,0,-1,211.18493,299.98458)"
       style="font-variant:normal;font-weight:normal;font-size:6.58799982px;font-family:Calibri;-inkscape-font-specification:Calibri;writing-mode:lr-tb;fill:#000000;fill-opacity:1;fill-rule:nonzero;stroke:none"
       id="text84"><tspan
         x="0 3.102948 6.5748239 10.0467 13.149648 14.759109 18.039934 19.528822 22.071789 23.638575 26.425299 29.883999"
         y="0"
         sodipodi:role="line"
         id="tspan82">google / cpc</tspan></text>
<text
       transform="matrix(1,0,0,-1,221.86408,291.82205)"
       style="font-variant:normal;font-weight:normal;font-size:6.58799982px;font-family:Calibri;-inkscape-font-specification:Calibri;writing-mode:lr-tb;fill:#000000;fill-opacity:1;fill-rule:nonzero;stroke:none"
       id="text88"><tspan
         x="0 3.340116 6.680232"
         y="0"
         sodipodi:role="line"
         id="tspan86">17%</tspan></text>
<text
       transform="matrix(1,0,0,-1,197.27107,344.01877)"
       style="font-variant:normal;font-weight:normal;font-size:6.58799982px;font-family:Calibri;-inkscape-font-specification:Calibri;writing-mode:lr-tb;fill:#000000;fill-opacity:1;fill-rule:nonzero;stroke:none"
       id="text92"><tspan
         x="0 3.4586999 6.6143522 8.123004 11.581704"
         y="0"
         sodipodi:role="line"
         id="tspan90">baidu</tspan></text>
<text
       transform="matrix(1,0,0,-1,200.74954,335.86283)"
       style="font-variant:normal;font-weight:normal;font-size:6.58799982px;font-family:Calibri;-inkscape-font-specification:Calibri;writing-mode:lr-tb;fill:#000000;fill-opacity:1;fill-rule:nonzero;stroke:none"
       id="text96"><tspan
         x="0 3.340116"
         y="0"
         sodipodi:role="line"
         id="tspan94">5%</tspan></text>
<text
       transform="matrix(1,0,0,-1,171.22871,360.10008)"
       style="font-variant:normal;font-weight:normal;font-size:6.58799982px;font-family:Calibri;-inkscape-font-specification:Calibri;writing-mode:lr-tb;fill:#000000;fill-opacity:1;fill-rule:nonzero;stroke:none"
       id="text100"><tspan
         x="0 2.9998195 6.5996013 10.071478 13.079209 14.587861 17.868685 19.528862 22.315584 25.78746"
         y="0"
         sodipodi:role="line"
         id="tspan98">google.com</tspan></text>
<text
       transform="matrix(1,0,0,-1,182.75112,352.05613)"
       style="font-variant:normal;font-weight:normal;font-size:6.58799982px;font-family:Calibri;-inkscape-font-specification:Calibri;writing-mode:lr-tb;fill:#000000;fill-opacity:1;fill-rule:nonzero;stroke:none"
       id="text104"><tspan
         x="0 3.340116"
         y="0"
         sodipodi:role="line"
         id="tspan102">4%</tspan></text>
<text
       transform="matrix(1,0,0,-1,172.67148,374.8572)"
       style="font-variant:normal;font-weight:normal;font-size:6.58799982px;font-family:Calibri;-inkscape-font-specification:Calibri;writing-mode:lr-tb;fill:#000000;fill-opacity:1;fill-rule:nonzero;stroke:none"
       id="text108"><tspan
         x="0 2.7867241 5.7710881 8.0395145 11.511391 14.087298 16.798985 20.038792 23.497492 26.778316 28.438492 31.910368 34.209579"
         y="0"
         sodipodi:role="line"
         id="tspan106">cytoscape.org</tspan></text>
<text
       transform="matrix(1,0,0,-1,187.31002,366.69467)"
       style="font-variant:normal;font-weight:normal;font-size:6.58799982px;font-family:Calibri;-inkscape-font-specification:Calibri;writing-mode:lr-tb;fill:#000000;fill-opacity:1;fill-rule:nonzero;stroke:none"
       id="text112"><tspan
         x="0 3.340116"
         y="0"
         sodipodi:role="line"
         id="tspan110">1%</tspan></text>
<text
       transform="matrix(1,0,0,-1,150.46992,391.77518)"
       style="font-variant:normal;font-weight:normal;font-size:6.58799982px;font-family:Calibri;-inkscape-font-specification:Calibri;writing-mode:lr-tb;fill:#000000;fill-opacity:1;fill-rule:nonzero;stroke:none"
       id="text116"><tspan
         x="0 3.2398071 6.6985073 10.157207 12.733115 14.393291 17.180016 20.164379 22.438643 25.910519 28.486427 31.198112 34.43792 37.896622 41.177444 42.83762 46.309498 48.608707"
         y="0"
         sodipodi:role="line"
         id="tspan114">apps.cytoscape.org</tspan></text>
<text
       transform="matrix(1,0,0,-1,172.30914,383.73782)"
       style="font-variant:normal;font-weight:normal;font-size:6.58799982px;font-family:Calibri;-inkscape-font-specification:Calibri;writing-mode:lr-tb;fill:#000000;fill-opacity:1;fill-rule:nonzero;stroke:none"
       id="text120"><tspan
         x="0 3.340116"
         y="0"
         sodipodi:role="line"
         id="tspan118">1%</tspan></text>
<text
       transform="matrix(1,0,0,-1,197.98916,409.41785)"
       style="font-variant:normal;font-weight:normal;font-size:6.58799982px;font-family:Calibri;-inkscape-font-specification:Calibri;writing-mode:lr-tb;fill:#000000;fill-opacity:1;fill-rule:nonzero;stroke:none"
       id="text124"><tspan
         x="0 3.4586999 5.0396948 8.498395"
         y="0"
         sodipodi:role="line"
         id="tspan122">bing</tspan></text>
<text
       transform="matrix(1,0,0,-1,199.78769,401.3739)"
       style="font-variant:normal;font-weight:normal;font-size:6.58799982px;font-family:Calibri;-inkscape-font-specification:Calibri;writing-mode:lr-tb;fill:#000000;fill-opacity:1;fill-rule:nonzero;stroke:none"
       id="text128"><tspan
         x="0 3.340116"
         y="0"
         sodipodi:role="line"
         id="tspan126">1%</tspan></text>
<text
       transform="matrix(1,0,0,-1,167.86883,423.09454)"
       style="font-variant:normal;font-weight:normal;font-size:6.58799982px;font-family:Calibri;-inkscape-font-specification:Calibri;writing-mode:lr-tb;fill:#000000;fill-opacity:1;fill-rule:nonzero;stroke:none"
       id="text132"><tspan
         x="0 3.102948 6.5748239 10.0467 13.149648 14.6583 17.878916 19.539093 22.325817 25.797691 27.457869 29.038244"
         y="0"
         sodipodi:role="line"
         id="tspan130">google.co.in</tspan></text>
<text
       transform="matrix(1,0,0,-1,180.10933,415.05718)"
       style="font-variant:normal;font-weight:normal;font-size:6.58799982px;font-family:Calibri;-inkscape-font-specification:Calibri;writing-mode:lr-tb;fill:#000000;fill-opacity:1;fill-rule:nonzero;stroke:none"
       id="text136"><tspan
         x="0 3.340116"
         y="0"
         sodipodi:role="line"
         id="tspan134">1%</tspan></text>
<text
       transform="matrix(1,0,0,-1,213.22721,435.69079)"
       style="font-variant:normal;font-weight:normal;font-size:6.58799982px;font-family:Calibri;-inkscape-font-specification:Calibri;writing-mode:lr-tb;fill:#000000;fill-opacity:1;fill-rule:nonzero;stroke:none"
       id="text140"><tspan
         x="0 2.5759079 6.0477839 7.7079601 10.494684 13.96656"
         y="0"
         sodipodi:role="line"
         id="tspan138">so.com</tspan></text>
<text
       transform="matrix(1,0,0,-1,218.86654,427.65343)"
       style="font-variant:normal;font-weight:normal;font-size:6.58799982px;font-family:Calibri;-inkscape-font-specification:Calibri;writing-mode:lr-tb;fill:#000000;fill-opacity:1;fill-rule:nonzero;stroke:none"
       id="text144"><tspan
         x="0 3.2398071"
         y="0"
         sodipodi:role="line"
         id="tspan142">1%</tspan></text>
<text
       transform="matrix(1,0,0,-1,242.14853,456.57475)"
       style="font-variant:normal;font-weight:normal;font-size:6.58799982px;font-family:Calibri;-inkscape-font-specification:Calibri;writing-mode:lr-tb;fill:#000000;fill-opacity:1;fill-rule:nonzero;stroke:none"
       id="text148"><tspan
         x="0 3.599782 5.8067622 9.2654619 12.479246"
         y="0"
         sodipodi:role="line"
         id="tspan146">other</tspan></text>
<text
       transform="matrix(1,0,0,-1,243.94705,448.5308)"
       style="font-variant:normal;font-weight:normal;font-size:6.58799982px;font-family:Calibri;-inkscape-font-specification:Calibri;writing-mode:lr-tb;fill:#000000;fill-opacity:1;fill-rule:nonzero;stroke:none"
       id="text152"><tspan
         x="0 3.340116 6.680232"
         y="0"
         sodipodi:role="line"
         id="tspan150">18%</tspan></text>
<text
       transform="matrix(1,0,0,-1,208.66966,491.38612)"
       style="font-variant:normal;font-weight:normal;font-size:10.55700016px;font-family:Calibri;-inkscape-font-specification:'Calibri Bold';writing-mode:lr-tb;fill:#000000;fill-opacity:1;fill-rule:nonzero;stroke:none"
       id="text156"><tspan
         x="0 5.5846529 10.679683 14.279577 20.039404 24.251646 28.559145 33.838985 39.508095 44.818264 47.636986 53.31665 56.878296 61.882317 64.268196 70.211792 75.357742 78.597649 83.907814 87.655556 91.077278 96.357117 98.95414 101.34002 106.43681 112.11648 117.71648 121.31638 125.7292 131.15608 135.36833 137.75421 141.04799 146.40039 151.67548 156.95531 159.67902 165.03142 170.27492 175.62732"
         y="0"
         sodipodi:role="line"
         id="tspan154">Cytoscape.org Referral Sources (506,684)</tspan></text>
<text
       transform="matrix(1,0,0,-1,231.11384,478.54881)"
       style="font-variant:normal;font-weight:normal;font-size:10.55700016px;font-family:Calibri;-inkscape-font-specification:'Calibri Bold';writing-mode:lr-tb;fill:#000000;fill-opacity:1;fill-rule:nonzero;stroke:none"
       id="text160"><tspan
         x="0 3.2937839 8.519742 13.059252 18.411652 22.95116 28.199162 33.551559 38.903961 44.158684 47.038605 50.638496 56.307606 59.878227 65.557892 71.157898 76.161911 81.831024 84.357506 89.637344 94.176857 99.529251 104.88165 109.31676 114.66917 120.02156 125.27629 130.62869"
         y="0"
         sodipodi:role="line"
         id="tspan158">(1/1/2017 through 1/19/2018)</tspan></text>
<g
       id="g162"><g
         id="g164"
         clip-path="url(#clipPath168)"><path
           d="m 50.76,502.56 c 0,0.12 0.12,0.24 0.24,0.24 h 510.12 c 0.12,0 0.24,-0.12 0.24,-0.24 V 289.08 c 0,-0.12 -0.12,-0.24 -0.24,-0.24 H 51 c -0.12,0 -0.24,0.12 -0.24,0.24 z M 51.24,289.08 51,289.44 h 510.12 l -0.24,-0.36 v 213.48 l 0.24,-0.24 H 51 l 0.24,0.24 z"
           style="fill:#868686;fill-opacity:1;fill-rule:nonzero;stroke:none"
           id="path170"
           inkscape:connector-curvature="0" /></g></g></g></svg>