<?xml version="1.0" encoding="UTF-8" standalone="no"?>
<!-- Created with Inkscape (http://www.inkscape.org/) -->

<svg
   xmlns:dc="http://purl.org/dc/elements/1.1/"
   xmlns:cc="http://creativecommons.org/ns#"
   xmlns:rdf="http://www.w3.org/1999/02/22-rdf-syntax-ns#"
   xmlns:svg="http://www.w3.org/2000/svg"
   xmlns="http://www.w3.org/2000/svg"
   xmlns:sodipodi="http://sodipodi.sourceforge.net/DTD/sodipodi-0.dtd"
   xmlns:inkscape="http://www.inkscape.org/namespaces/inkscape"
   version="1.1"
   id="svg5385"
   xml:space="preserve"
   width="680.79999"
   height="475.35999"
   viewBox="0 0 680.79999 475.35999"
   sodipodi:docname="Web_Site_Visits_By_Country_Prior_Year.svg"
   inkscape:version="0.92.3 (2405546, 2018-03-11)"><metadata
     id="metadata5391"><rdf:RDF><cc:Work
         rdf:about=""><dc:format>image/svg+xml</dc:format><dc:type
           rdf:resource="http://purl.org/dc/dcmitype/StillImage" /><dc:title></dc:title></cc:Work></rdf:RDF></metadata><defs
     id="defs5389"><clipPath
       clipPathUnits="userSpaceOnUse"
       id="clipPath5539"><path
         d="M 50.64,574.44 V 217.68 h 510.72 v 356.76 z"
         id="path5537"
         inkscape:connector-curvature="0"
         style="clip-rule:evenodd" /></clipPath></defs><sodipodi:namedview
     pagecolor="#ffffff"
     bordercolor="#666666"
     borderopacity="1"
     objecttolerance="10"
     gridtolerance="10"
     guidetolerance="10"
     inkscape:pageopacity="0"
     inkscape:pageshadow="2"
     inkscape:window-width="640"
     inkscape:window-height="480"
     id="namedview5387"
     showgrid="false"
     inkscape:zoom="0.22348485"
     inkscape:cx="340.32"
     inkscape:cy="237.76001"
     inkscape:window-x="0"
     inkscape:window-y="0"
     inkscape:window-maximized="0"
     inkscape:current-layer="g5393" /><g
     id="g5393"
     inkscape:groupmode="layer"
     inkscape:label="Web_Site_Visits_By_Country_Prior_Year"
     transform="matrix(1.3333333,0,0,-1.3333333,-67.679998,765.59998)"><path
       d="M 51.12,218.04 H 561 v 355.8 H 51.12 Z"
       style="fill:#ffffff;fill-opacity:1;fill-rule:nonzero;stroke:none"
       id="path5395"
       inkscape:connector-curvature="0" /><path
       d="m 306.12,491.04 c 51.84,0 97.92,-32.76 114.84,-81.72 L 306.12,369.48 Z"
       style="fill:#4572a7;fill-opacity:1;fill-rule:evenodd;stroke:none"
       id="path5397"
       inkscape:connector-curvature="0" /><path
       d="m 420.96,409.32 c 10.8,-31.08 8.52,-65.28 -6.36,-94.68 l -108.48,54.84 z"
       style="fill:#aa4643;fill-opacity:1;fill-rule:evenodd;stroke:none"
       id="path5399"
       inkscape:connector-curvature="0" /><path
       d="m 414.6,314.64 c -13.92,-27.6 -37.8,-48.72 -66.84,-59.28 l -41.64,114.12 z"
       style="fill:#89a54e;fill-opacity:1;fill-rule:evenodd;stroke:none"
       id="path5401"
       inkscape:connector-curvature="0" /><path
       d="m 347.76,255.36 c -9.96,-3.72 -20.4,-6 -30.96,-6.96 l -10.68,121.08 z"
       style="fill:#71588f;fill-opacity:1;fill-rule:evenodd;stroke:none"
       id="path5403"
       inkscape:connector-curvature="0" /><path
       d="m 316.8,248.4 c -9.72,-0.84 -19.56,-0.48 -29.28,0.96 l 18.6,120.12 z"
       style="fill:#4198af;fill-opacity:1;fill-rule:evenodd;stroke:none"
       id="path5405"
       inkscape:connector-curvature="0" /><path
       d="m 287.52,249.36 c -9.72,1.56 -19.32,4.2 -28.32,8.04 l 46.92,112.08 z"
       style="fill:#db843d;fill-opacity:1;fill-rule:evenodd;stroke:none"
       id="path5407"
       inkscape:connector-curvature="0" /><path
       d="m 259.2,257.4 c -7.08,2.88 -13.92,6.6 -20.28,10.8 l 67.2,101.28 z"
       style="fill:#93a9cf;fill-opacity:1;fill-rule:evenodd;stroke:none"
       id="path5409"
       inkscape:connector-curvature="0" /><path
       d="m 238.92,268.2 c -5.28,3.48 -10.2,7.44 -14.88,11.64 l 82.08,89.64 z"
       style="fill:#d19392;fill-opacity:1;fill-rule:evenodd;stroke:none"
       id="path5411"
       inkscape:connector-curvature="0" /><path
       d="m 224.04,279.84 c -3.6,3.24 -6.96,6.72 -10.08,10.32 l 92.16,79.32 z"
       style="fill:#b9cd96;fill-opacity:1;fill-rule:evenodd;stroke:none"
       id="path5413"
       inkscape:connector-curvature="0" /><path
       d="m 213.96,290.16 c -3.12,3.72 -6,7.44 -8.76,11.52 l 100.92,67.8 z"
       style="fill:#a99bbd;fill-opacity:1;fill-rule:evenodd;stroke:none"
       id="path5415"
       inkscape:connector-curvature="0" /><path
       d="m 205.2,301.68 c -37.44,55.68 -22.68,131.16 33,168.72 20.04,13.44 43.68,20.64 67.92,20.64 V 369.48 Z"
       style="fill:#91c3d5;fill-opacity:1;fill-rule:evenodd;stroke:none"
       id="path5417"
       inkscape:connector-curvature="0" /><path
       d="m 376.32,468.84 21.12,26.76 c 0.12,0 0.12,0.12 0.24,0.12 h 4.56 v -0.84 h -4.56 l 0.36,0.24 -21.12,-26.76 z"
       style="fill:#000000;fill-opacity:1;fill-rule:nonzero;stroke:none"
       id="path5419"
       inkscape:connector-curvature="0" /><path
       d="m 427.44,361.68 24.6,-3.36 h 4.44 v -0.72 h -4.56 l -24.6,3.36 z"
       style="fill:#000000;fill-opacity:1;fill-rule:nonzero;stroke:none"
       id="path5421"
       inkscape:connector-curvature="0" /><path
       d="m 387.12,278.88 7.44,-9.48 -0.36,0.12 h 4.56 v -0.72 h -4.56 c 0,0 -0.12,0.12 -0.24,0.12 l -7.44,9.48 z"
       style="fill:#000000;fill-opacity:1;fill-rule:nonzero;stroke:none"
       id="path5423"
       inkscape:connector-curvature="0" /><path
       d="m 273.48,252.48 -2.64,-15.96 c 0,-0.12 -0.24,-0.24 -0.36,-0.24 h -4.56 V 237 h 4.56 l -0.36,-0.36 2.64,15.96 z"
       style="fill:#000000;fill-opacity:1;fill-rule:nonzero;stroke:none"
       id="path5425"
       inkscape:connector-curvature="0" /><path
       d="M 249.12,262.2 238.2,237.96 c 0,-0.12 -0.12,-0.24 -0.24,-0.24 h -4.56 v 0.72 h 4.56 l -0.36,-0.24 10.8,24.24 z"
       style="fill:#000000;fill-opacity:1;fill-rule:nonzero;stroke:none"
       id="path5427"
       inkscape:connector-curvature="0" /><path
       d="m 231.48,273.48 -22.56,-25.32 c 0,-0.12 -0.12,-0.12 -0.24,-0.12 h -4.56 v 0.72 h 4.56 l -0.24,-0.12 22.56,25.32 z"
       style="fill:#000000;fill-opacity:1;fill-rule:nonzero;stroke:none"
       id="path5429"
       inkscape:connector-curvature="0" /><path
       d="M 219,284.52 173.52,263.4 c 0,0 -0.12,0 -0.12,0 h -4.44 v 0.72 h 4.44 -0.12 l 45.36,21.12 z"
       style="fill:#000000;fill-opacity:1;fill-rule:nonzero;stroke:none"
       id="path5431"
       inkscape:connector-curvature="0" /><path
       d="m 209.4,295.44 -21,1.68 h -4.44 v 0.72 h 4.56 l 21,-1.68 z"
       style="fill:#000000;fill-opacity:1;fill-rule:nonzero;stroke:none"
       id="path5433"
       inkscape:connector-curvature="0" /><path
       d="m 198.72,426.24 -21.84,7.44 0.12,-0.12 h -4.56 v 0.84 H 177 c 0,0 0,0 0.12,-0.12 l 21.84,-7.32 z"
       style="fill:#000000;fill-opacity:1;fill-rule:nonzero;stroke:none"
       id="path5435"
       inkscape:connector-curvature="0" /><text
       transform="matrix(1,0,0,-1,403.80987,495.26008)"
       style="font-variant:normal;font-weight:normal;font-size:9.93700027px;font-family:Calibri;-inkscape-font-specification:Calibri;writing-mode:lr-tb;fill:#000000;fill-opacity:1;fill-rule:nonzero;stroke:none"
       id="text5439"><tspan
         x="0 6.3795538 11.596479 13.872052 17.280602 22.080769 27.360952 29.606714 34.167797 37.561314 42.321136 45.7216 50.670223"
         y="0"
         sodipodi:role="line"
         id="tspan5437">United States</tspan></text>
<text
       transform="matrix(1,0,0,-1,422.41193,483.13694)"
       style="font-variant:normal;font-weight:normal;font-size:9.93700027px;font-family:Calibri;-inkscape-font-specification:Calibri;writing-mode:lr-tb;fill:#000000;fill-opacity:1;fill-rule:nonzero;stroke:none"
       id="text5443"><tspan
         x="0 5.0380592 10.076118"
         y="0"
         sodipodi:role="line"
         id="tspan5441">20%</tspan></text>
<text
       transform="matrix(1,0,0,-1,458.05595,357.97049)"
       style="font-variant:normal;font-weight:normal;font-size:9.93700027px;font-family:Calibri;-inkscape-font-specification:Calibri;writing-mode:lr-tb;fill:#000000;fill-opacity:1;fill-rule:nonzero;stroke:none"
       id="text5447"><tspan
         x="0 5.1601849 10.440369 12.715941 18.000637"
         y="0"
         sodipodi:role="line"
         id="tspan5445">China</tspan></text>
<text
       transform="matrix(1,0,0,-1,460.81844,345.7281)"
       style="font-variant:normal;font-weight:normal;font-size:9.93700027px;font-family:Calibri;-inkscape-font-specification:Calibri;writing-mode:lr-tb;fill:#000000;fill-opacity:1;fill-rule:nonzero;stroke:none"
       id="text5451"><tspan
         x="0 5.0380592 10.076118"
         y="0"
         sodipodi:role="line"
         id="tspan5449">13%</tspan></text>
<text
       transform="matrix(1,0,0,-1,400.33192,269.17346)"
       style="font-variant:normal;font-weight:normal;font-size:9.93700027px;font-family:Calibri;-inkscape-font-specification:Calibri;writing-mode:lr-tb;fill:#000000;fill-opacity:1;fill-rule:nonzero;stroke:none"
       id="text5455"><tspan
         x="0 2.5041239 7.8002768 13.080461 15.356033"
         y="0"
         sodipodi:role="line"
         id="tspan5453">India</tspan></text>
<text
       transform="matrix(1,0,0,-1,401.77278,256.93107)"
       style="font-variant:normal;font-weight:normal;font-size:9.93700027px;font-family:Calibri;-inkscape-font-specification:Calibri;writing-mode:lr-tb;fill:#000000;fill-opacity:1;fill-rule:nonzero;stroke:none"
       id="text5459"><tspan
         x="0 5.0380592 10.076118"
         y="0"
         sodipodi:role="line"
         id="tspan5457">12%</tspan></text>
<text
       transform="matrix(1,0,0,-1,331.56788,235.20879)"
       style="font-variant:normal;font-weight:normal;font-size:9.93700027px;font-family:Calibri;-inkscape-font-specification:Calibri;writing-mode:lr-tb;fill:#000000;fill-opacity:1;fill-rule:nonzero;stroke:none"
       id="text5463"><tspan
         x="0 6.3795538 11.596479 13.872052 17.280602 22.229227 27.446154 29.761036 34.928276 37.20385 42.420776 47.101101 52.318027 57.554825"
         y="0"
         sodipodi:role="line"
         id="tspan5461">United Kingdom</tspan></text>
<text
       transform="matrix(1,0,0,-1,358.32822,222.96641)"
       style="font-variant:normal;font-weight:normal;font-size:9.93700027px;font-family:Calibri;-inkscape-font-specification:Calibri;writing-mode:lr-tb;fill:#000000;fill-opacity:1;fill-rule:nonzero;stroke:none"
       id="text5467"><tspan
         x="0 5.0380592"
         y="0"
         sodipodi:role="line"
         id="tspan5465">4%</tspan></text>
<text
       transform="matrix(1,0,0,-1,275.16547,234.9703)"
       style="font-variant:normal;font-weight:normal;font-size:9.93700027px;font-family:Calibri;-inkscape-font-specification:Calibri;writing-mode:lr-tb;fill:#000000;fill-opacity:1;fill-rule:nonzero;stroke:none"
       id="text5471"><tspan
         x="0 6.270247 11.218873 14.520511 22.460175 27.219997 32.521137"
         y="0"
         sodipodi:role="line"
         id="tspan5469">Germany</tspan></text>
<text
       transform="matrix(1,0,0,-1,287.64634,222.84716)"
       style="font-variant:normal;font-weight:normal;font-size:9.93700027px;font-family:Calibri;-inkscape-font-specification:Calibri;writing-mode:lr-tb;fill:#000000;fill-opacity:1;fill-rule:nonzero;stroke:none"
       id="text5475"><tspan
         x="0 4.9201765"
         y="0"
         sodipodi:role="line"
         id="tspan5473">4%</tspan></text>
<text
       transform="matrix(1,0,0,-1,241.32998,234.36414)"
       style="font-variant:normal;font-weight:normal;font-size:9.93700027px;font-family:Calibri;-inkscape-font-specification:Calibri;writing-mode:lr-tb;fill:#000000;fill-opacity:1;fill-rule:nonzero;stroke:none"
       id="text5479"><tspan
         x="0 3.0001094 7.7599325 13.080461 17.840284"
         y="0"
         sodipodi:role="line"
         id="tspan5477">Japan</tspan></text>
<text
       transform="matrix(1,0,0,-1,246.72577,222.1317)"
       style="font-variant:normal;font-weight:normal;font-size:9.93700027px;font-family:Calibri;-inkscape-font-specification:Calibri;writing-mode:lr-tb;fill:#000000;fill-opacity:1;fill-rule:nonzero;stroke:none"
       id="text5483"><tspan
         x="0 5.0380592"
         y="0"
         sodipodi:role="line"
         id="tspan5481">4%</tspan></text>
<text
       transform="matrix(1,0,0,-1,204.73201,238.09052)"
       style="font-variant:normal;font-weight:normal;font-size:9.93700027px;font-family:Calibri;-inkscape-font-specification:Calibri;writing-mode:lr-tb;fill:#000000;fill-opacity:1;fill-rule:nonzero;stroke:none"
       id="text5487"><tspan
         x="0 4.5610828 7.9202757 12.680099 18.000628 22.203978"
         y="0"
         sodipodi:role="line"
         id="tspan5485">France</tspan></text>
<text
       transform="matrix(1,0,0,-1,212.28413,225.84814)"
       style="font-variant:normal;font-weight:normal;font-size:9.93700027px;font-family:Calibri;-inkscape-font-specification:Calibri;writing-mode:lr-tb;fill:#000000;fill-opacity:1;fill-rule:nonzero;stroke:none"
       id="text5491"><tspan
         x="0 4.9201765"
         y="0"
         sodipodi:role="line"
         id="tspan5489">3%</tspan></text>
<text
       transform="matrix(1,0,0,-1,172.56594,248.40513)"
       style="font-variant:normal;font-weight:normal;font-size:9.93700027px;font-family:Calibri;-inkscape-font-specification:Calibri;writing-mode:lr-tb;fill:#000000;fill-opacity:1;fill-rule:nonzero;stroke:none"
       id="text5495"><tspan
         x="0 5.2964211 10.056244 15.360535 20.120358 25.440886"
         y="0"
         sodipodi:role="line"
         id="tspan5493">Canada</tspan></text>
<text
       transform="matrix(1,0,0,-1,181.56886,236.17268)"
       style="font-variant:normal;font-weight:normal;font-size:9.93700027px;font-family:Calibri;-inkscape-font-specification:Calibri;writing-mode:lr-tb;fill:#000000;fill-opacity:1;fill-rule:nonzero;stroke:none"
       id="text5499"><tspan
         x="0 5.0380592"
         y="0"
         sodipodi:role="line"
         id="tspan5497">2%</tspan></text>
<text
       transform="matrix(1,0,0,-1,117.96213,263.76773)"
       style="font-variant:normal;font-weight:normal;font-size:9.93700027px;font-family:Calibri;-inkscape-font-specification:Calibri;writing-mode:lr-tb;fill:#000000;fill-opacity:1;fill-rule:nonzero;stroke:none"
       id="text5503"><tspan
         x="0 4.5610828 9.7978821 15.014807 18.343702 23.640829 25.886591 31.053831 36.361271 39.829285 44.777912"
         y="0"
         sodipodi:role="line"
         id="tspan5501">South Korea</tspan></text>
<text
       transform="matrix(1,0,0,-1,136.56419,251.52534)"
       style="font-variant:normal;font-weight:normal;font-size:9.93700027px;font-family:Calibri;-inkscape-font-specification:Calibri;writing-mode:lr-tb;fill:#000000;fill-opacity:1;fill-rule:nonzero;stroke:none"
       id="text5507"><tspan
         x="0 5.0380592"
         y="0"
         sodipodi:role="line"
         id="tspan5505">2%</tspan></text>
<text
       transform="matrix(1,0,0,-1,165.12313,297.49391)"
       style="font-variant:normal;font-weight:normal;font-size:9.93700027px;font-family:Calibri;-inkscape-font-specification:Calibri;writing-mode:lr-tb;fill:#000000;fill-opacity:1;fill-rule:nonzero;stroke:none"
       id="text5511"><tspan
         x="0 2.5041239 5.8330188 10.680377 12.95595"
         y="0"
         sodipodi:role="line"
         id="tspan5509">Italy</tspan></text>
<text
       transform="matrix(1,0,0,-1,167.76637,285.25152)"
       style="font-variant:normal;font-weight:normal;font-size:9.93700027px;font-family:Calibri;-inkscape-font-specification:Calibri;writing-mode:lr-tb;fill:#000000;fill-opacity:1;fill-rule:nonzero;stroke:none"
       id="text5515"><tspan
         x="0 5.0380592"
         y="0"
         sodipodi:role="line"
         id="tspan5513">2%</tspan></text>
<text
       transform="matrix(1,0,0,-1,150.48593,446.1713)"
       style="font-variant:normal;font-weight:normal;font-size:9.93700027px;font-family:Calibri;-inkscape-font-specification:Calibri;writing-mode:lr-tb;fill:#000000;fill-opacity:1;fill-rule:nonzero;stroke:none"
       id="text5519"><tspan
         x="0 6.5782938 9.9071894 15.240536 20.189161"
         y="0"
         sodipodi:role="line"
         id="tspan5517">Other</tspan></text>
<text
       transform="matrix(1,0,0,-1,153.72539,433.93885)"
       style="font-variant:normal;font-weight:normal;font-size:9.93700027px;font-family:Calibri;-inkscape-font-specification:Calibri;writing-mode:lr-tb;fill:#000000;fill-opacity:1;fill-rule:nonzero;stroke:none"
       id="text5523"><tspan
         x="0 5.0380592 10.076118"
         y="0"
         sodipodi:role="line"
         id="tspan5521">34%</tspan></text>
<text
       transform="matrix(1,0,0,-1,182.88427,549.11972)"
       style="font-variant:normal;font-weight:normal;font-size:17.95800018px;font-family:Calibri;-inkscape-font-specification:'Calibri Bold';writing-mode:lr-tb;fill:#000000;fill-opacity:1;fill-rule:nonzero;stroke:none"
       id="text5527"><tspan
         x="0 9.4997816 18.120197 24.240265 33.840359 41.005604 48.512047 57.383297 67.026741 76.200821 80.995605 90.657013 96.721054 105.23315 109.08118 117.57532 126.72138 133.88663 141.05186 145.46953 155.13094 164.88179 172.04703 175.92191 181.5248 190.56206 199.66676 208.77147 213.4823 222.58701 231.69171 240.7226"
         y="0"
         sodipodi:role="line"
         id="tspan5525">Cytoscape.org Sessions (506,684)</tspan></text>
<text
       transform="matrix(1,0,0,-1,192.24039,527.2828)"
       style="font-variant:normal;font-weight:normal;font-size:17.95800018px;font-family:Calibri;-inkscape-font-specification:'Calibri Bold';writing-mode:lr-tb;fill:#000000;fill-opacity:1;fill-rule:nonzero;stroke:none"
       id="text5531"><tspan
         x="0 5.6028962 14.707602 22.429543 31.440346 39.162285 48.266991 57.371696 66.476402 75.480835 79.680885 85.912308 95.64106 101.76112 111.42253 121.20134 129.60143 139.32153 143.16159 152.2663 159.98824 169.09294 178.08195 185.80389 194.90862 204.01332 213.11803 222.22273"
         y="0"
         sodipodi:role="line"
         id="tspan5529">(1/1/2017 through 1/19/2018)</tspan></text>
<g
       id="g5533"><g
         id="g5535"
         clip-path="url(#clipPath5539)"><path
           d="m 50.76,573.84 c 0,0.24 0.24,0.36 0.36,0.36 H 561 c 0.24,0 0.48,-0.12 0.48,-0.36 v -355.8 c 0,-0.24 -0.24,-0.36 -0.48,-0.36 H 51.12 c -0.12,0 -0.36,0.12 -0.36,0.36 z m 0.84,-355.8 -0.48,0.36 H 561 l -0.36,-0.36 v 355.8 L 561,573.48 H 51.12 l 0.48,0.36 z"
           style="fill:#868686;fill-opacity:1;fill-rule:nonzero;stroke:none"
           id="path5541"
           inkscape:connector-curvature="0" /></g></g></g></svg>