<?xml version="1.0" encoding="UTF-8" standalone="no"?>
<!-- Created with Inkscape (http://www.inkscape.org/) -->

<svg
   xmlns:dc="http://purl.org/dc/elements/1.1/"
   xmlns:cc="http://creativecommons.org/ns#"
   xmlns:rdf="http://www.w3.org/1999/02/22-rdf-syntax-ns#"
   xmlns:svg="http://www.w3.org/2000/svg"
   xmlns="http://www.w3.org/2000/svg"
   xmlns:sodipodi="http://sodipodi.sourceforge.net/DTD/sodipodi-0.dtd"
   xmlns:inkscape="http://www.inkscape.org/namespaces/inkscape"
   version="1.1"
   id="svg172"
   xml:space="preserve"
   width="680.63995"
   height="317.28"
   viewBox="0 0 680.63995 317.28"
   sodipodi:docname="Web_Site_Referrals.svg"
   inkscape:version="0.92.3 (2405546, 2018-03-11)"><metadata
     id="metadata178"><rdf:RDF><cc:Work
         rdf:about=""><dc:format>image/svg+xml</dc:format><dc:type
           rdf:resource="http://purl.org/dc/dcmitype/StillImage" /><dc:title></dc:title></cc:Work></rdf:RDF></metadata><defs
     id="defs176"><clipPath
       clipPathUnits="userSpaceOnUse"
       id="clipPath330"><path
         d="m 50.64,515.16 v -238.2 h 510.72 v 238.2 z"
         id="path328"
         inkscape:connector-curvature="0"
         style="clip-rule:evenodd" /></clipPath></defs><sodipodi:namedview
     pagecolor="#ffffff"
     bordercolor="#666666"
     borderopacity="1"
     objecttolerance="10"
     gridtolerance="10"
     guidetolerance="10"
     inkscape:pageopacity="0"
     inkscape:pageshadow="2"
     inkscape:window-width="640"
     inkscape:window-height="480"
     id="namedview174"
     showgrid="false"
     inkscape:zoom="0.22348485"
     inkscape:cx="340.16"
     inkscape:cy="158.72001"
     inkscape:window-x="0"
     inkscape:window-y="0"
     inkscape:window-maximized="0"
     inkscape:current-layer="g180" /><g
     id="g180"
     inkscape:groupmode="layer"
     inkscape:label="Web_Site_Referrals"
     transform="matrix(1.3333333,0,0,-1.3333333,-67.839998,686.55998)"><path
       d="m 51.12,277.2 h 510 v 237.48 h -510 z"
       style="fill:#ffffff;fill-opacity:1;fill-rule:nonzero;stroke:none"
       id="path182"
       inkscape:connector-curvature="0" /><path
       d="m 306.12,458.52 c 44.4,0 80.28,-35.88 80.28,-80.28 0,-23.52 -10.32,-45.96 -28.32,-61.2 l -51.96,61.2 z"
       style="fill:#4572a7;fill-opacity:1;fill-rule:evenodd;stroke:none"
       id="path184"
       inkscape:connector-curvature="0" /><path
       d="m 358.08,317.04 c -22.2,-18.84 -52.8,-24.12 -80.16,-13.92 l 28.2,75.12 z"
       style="fill:#aa4643;fill-opacity:1;fill-rule:evenodd;stroke:none"
       id="path186"
       inkscape:connector-curvature="0" /><path
       d="m 277.92,303.12 c -13.32,4.92 -25.08,13.44 -34.08,24.48 l 62.28,50.64 z"
       style="fill:#89a54e;fill-opacity:1;fill-rule:evenodd;stroke:none"
       id="path188"
       inkscape:connector-curvature="0" /><path
       d="m 243.84,327.6 c -5.16,6.36 -9.24,13.32 -12.24,20.88 l 74.52,29.76 z"
       style="fill:#71588f;fill-opacity:1;fill-rule:evenodd;stroke:none"
       id="path190"
       inkscape:connector-curvature="0" /><path
       d="m 231.6,348.48 c -2.52,6.24 -4.2,12.72 -5.04,19.32 l 79.56,10.44 z"
       style="fill:#4198af;fill-opacity:1;fill-rule:evenodd;stroke:none"
       id="path192"
       inkscape:connector-curvature="0" /><path
       d="m 226.56,367.8 c -0.6,4.44 -0.84,8.88 -0.72,13.2 l 80.28,-2.76 z"
       style="fill:#db843d;fill-opacity:1;fill-rule:evenodd;stroke:none"
       id="path194"
       inkscape:connector-curvature="0" /><path
       d="m 225.84,381 c 0.12,2.28 0.36,4.56 0.6,6.84 l 79.68,-9.6 z"
       style="fill:#93a9cf;fill-opacity:1;fill-rule:evenodd;stroke:none"
       id="path196"
       inkscape:connector-curvature="0" /><path
       d="m 226.44,387.84 c 0.12,1.56 0.48,3.24 0.72,4.92 l 78.96,-14.52 z"
       style="fill:#d19392;fill-opacity:1;fill-rule:evenodd;stroke:none"
       id="path198"
       inkscape:connector-curvature="0" /><path
       d="m 227.16,392.76 c 0.24,1.56 0.6,3.12 0.96,4.68 l 78,-19.2 z"
       style="fill:#b9cd96;fill-opacity:1;fill-rule:evenodd;stroke:none"
       id="path200"
       inkscape:connector-curvature="0" /><path
       d="m 228.12,397.44 c 0.36,1.2 0.72,2.4 0.96,3.6 l 77.04,-22.8 z"
       style="fill:#a99bbd;fill-opacity:1;fill-rule:evenodd;stroke:none"
       id="path202"
       inkscape:connector-curvature="0" /><path
       d="m 229.08,401.04 c 10.08,34.08 41.52,57.48 77.04,57.48 v -80.28 z"
       style="fill:#91c3d5;fill-opacity:1;fill-rule:evenodd;stroke:none"
       id="path204"
       inkscape:connector-curvature="0" /><path
       d="m 381.36,406.08 16.2,18.12 c 0.12,0 0.24,0 0.24,0 h 3.36 v -0.48 h -3.36 l 0.24,0.12 -16.32,-18.12 z"
       style="fill:#000000;fill-opacity:1;fill-rule:nonzero;stroke:none"
       id="path206"
       inkscape:connector-curvature="0" /><path
       d="m 319.92,299.4 76.2,-3.96 h 3.36 v -0.6 h -3.36 l -76.2,4.08 z"
       style="fill:#000000;fill-opacity:1;fill-rule:nonzero;stroke:none"
       id="path208"
       inkscape:connector-curvature="0" /><path
       d="m 259.44,312.96 -17.76,-22.2 c 0,0 -0.12,-0.12 -0.24,-0.12 h -3.36 v 0.6 h 3.36 l -0.24,-0.12 17.88,22.08 z"
       style="fill:#000000;fill-opacity:1;fill-rule:nonzero;stroke:none"
       id="path210"
       inkscape:connector-curvature="0" /><path
       d="M 237.24,337.56 231,313.44 c 0,-0.12 -0.12,-0.24 -0.24,-0.24 h -3.24 v 0.6 h 3.24 l -0.24,-0.24 6.12,24.12 z"
       style="fill:#000000;fill-opacity:1;fill-rule:nonzero;stroke:none"
       id="path212"
       inkscape:connector-curvature="0" /><path
       d="M 228.72,357.84 201,322.8 c -0.12,0 -0.12,0 -0.24,0 h -3.36 v 0.48 h 3.36 l -0.24,-0.12 27.72,35.04 z"
       style="fill:#000000;fill-opacity:1;fill-rule:nonzero;stroke:none"
       id="path214"
       inkscape:connector-curvature="0" /><path
       d="m 226.08,374.28 -20.76,-21.24 c -0.12,-0.12 -0.12,-0.12 -0.24,-0.12 h -3.36 v 0.48 h 3.36 -0.12 l 20.76,21.24 z"
       style="fill:#000000;fill-opacity:1;fill-rule:nonzero;stroke:none"
       id="path216"
       inkscape:connector-curvature="0" /><path
       d="m 226.08,384.12 -37.44,-7.8 c 0,0 0,0 0,0 h -3.36 v 0.6 h 3.36 -0.12 l 37.56,7.8 z"
       style="fill:#000000;fill-opacity:1;fill-rule:nonzero;stroke:none"
       id="path218"
       inkscape:connector-curvature="0" /><path
       d="m 226.68,390 -44.52,6 h -3.24 v 0.6 h 3.36 l 44.52,-6 z"
       style="fill:#000000;fill-opacity:1;fill-rule:nonzero;stroke:none"
       id="path220"
       inkscape:connector-curvature="0" /><path
       d="m 227.52,394.92 -47.16,25.92 0.12,-0.12 h -3.36 v 0.6 h 3.36 c 0,0 0.12,0 0.12,0 l 47.16,-25.92 z"
       style="fill:#000000;fill-opacity:1;fill-rule:nonzero;stroke:none"
       id="path222"
       inkscape:connector-curvature="0" /><path
       d="m 228.36,399.12 -29.28,43.56 0.24,-0.12 h -3.36 v 0.6 h 3.36 c 0.12,0 0.24,-0.12 0.24,-0.12 l 29.28,-43.68 z"
       style="fill:#000000;fill-opacity:1;fill-rule:nonzero;stroke:none"
       id="path224"
       inkscape:connector-curvature="0" /><path
       d="m 258,442.32 -25.68,6.84 h 0.12 -3.36 v 0.6 h 3.36 c 0,0 0,0 0,0 l 25.68,-6.96 z"
       style="fill:#000000;fill-opacity:1;fill-rule:nonzero;stroke:none"
       id="path226"
       inkscape:connector-curvature="0" /><text
       transform="matrix(1,0,0,-1,402.38781,423.99075)"
       style="font-variant:normal;font-weight:normal;font-size:7.32800007px;font-family:Calibri;-inkscape-font-specification:Calibri;writing-mode:lr-tb;fill:#000000;fill-opacity:1;fill-rule:nonzero;stroke:none"
       id="text230"><tspan
         x="0 3.3602178 7.3204741 11.18233 14.633818 16.31193 19.961273 21.721401 24.481581 26.137709 29.999565 32.642109 36.002323 39.602558 43.449757 45.127869"
         y="0"
         sodipodi:role="line"
         id="tspan228">google / organic</tspan></text>
<text
       transform="matrix(1,0,0,-1,420.14355,414.98464)"
       style="font-variant:normal;font-weight:normal;font-size:7.32800007px;font-family:Calibri;-inkscape-font-specification:Calibri;writing-mode:lr-tb;fill:#000000;fill-opacity:1;fill-rule:nonzero;stroke:none"
       id="text234"><tspan
         x="0 3.715296 7.4305921"
         y="0"
         sodipodi:role="line"
         id="tspan232">39%</tspan></text>
<text
       transform="matrix(1,0,0,-1,400.58512,295.09856)"
       style="font-variant:normal;font-weight:normal;font-size:7.32800007px;font-family:Calibri;-inkscape-font-specification:Calibri;writing-mode:lr-tb;fill:#000000;fill-opacity:1;fill-rule:nonzero;stroke:none"
       id="text238"><tspan
         x="0 2.1601405 6.1203971 7.7985091 10.355981 13.920899 17.020643 19.475523 21.695908 23.521517 26.281696 27.937824 30.241953 34.089153 37.951008 41.882702 45.532043"
         y="0"
         sodipodi:role="line"
         id="tspan236">(direct) / (none)</tspan></text>
<text
       transform="matrix(1,0,0,-1,418.10637,286.09978)"
       style="font-variant:normal;font-weight:normal;font-size:7.32800007px;font-family:Calibri;-inkscape-font-specification:Calibri;writing-mode:lr-tb;fill:#000000;fill-opacity:1;fill-rule:nonzero;stroke:none"
       id="text242"><tspan
         x="0 3.715296 7.4305921"
         y="0"
         sodipodi:role="line"
         id="tspan240">17%</tspan></text>
<text
       transform="matrix(1,0,0,-1,200.77254,289.33875)"
       style="font-variant:normal;font-weight:normal;font-size:7.32800007px;font-family:Calibri;-inkscape-font-specification:Calibri;writing-mode:lr-tb;fill:#000000;fill-opacity:1;fill-rule:nonzero;stroke:none"
       id="text246"><tspan
         x="0 3.451488 7.313344 11.280724 14.640941 16.319054 19.968397 21.721394 24.550001 26.281689 29.281881 33.242138"
         y="0"
         sodipodi:role="line"
         id="tspan244">google / cpc</tspan></text>
<text
       transform="matrix(1,0,0,-1,214.45392,280.33997)"
       style="font-variant:normal;font-weight:normal;font-size:7.32800007px;font-family:Calibri;-inkscape-font-specification:Calibri;writing-mode:lr-tb;fill:#000000;fill-opacity:1;fill-rule:nonzero;stroke:none"
       id="text250"><tspan
         x="0 3.715296"
         y="0"
         sodipodi:role="line"
         id="tspan248">8%</tspan></text>
<text
       transform="matrix(1,0,0,-1,191.77376,313.46253)"
       style="font-variant:normal;font-weight:normal;font-size:7.32800007px;font-family:Calibri;-inkscape-font-specification:Calibri;writing-mode:lr-tb;fill:#000000;fill-opacity:1;fill-rule:nonzero;stroke:none"
       id="text254"><tspan
         x="0 3.3602178 7.3204741 11.18233 14.633818 16.31193 19.961273 21.721401 24.821146 28.683001"
         y="0"
         sodipodi:role="line"
         id="tspan252">google.com</tspan></text>
<text
       transform="matrix(1,0,0,-1,204.61242,304.45642)"
       style="font-variant:normal;font-weight:normal;font-size:7.32800007px;font-family:Calibri;-inkscape-font-specification:Calibri;writing-mode:lr-tb;fill:#000000;fill-opacity:1;fill-rule:nonzero;stroke:none"
       id="text258"><tspan
         x="0 3.715296"
         y="0"
         sodipodi:role="line"
         id="tspan256">5%</tspan></text>
<text
       transform="matrix(1,0,0,-1,154.81133,323.06221)"
       style="font-variant:normal;font-weight:normal;font-size:7.32800007px;font-family:Calibri;-inkscape-font-specification:Calibri;writing-mode:lr-tb;fill:#000000;fill-opacity:1;fill-rule:nonzero;stroke:none"
       id="text262"><tspan
         x="0 3.0001931 6.319777 8.8805685 12.742425 15.607673 18.707417 22.217529 26.064728 29.714073 31.560728 35.422585 38.042439"
         y="0"
         sodipodi:role="line"
         id="tspan260">cytoscape.org</tspan></text>
<text
       transform="matrix(1,0,0,-1,171.13078,314.06342)"
       style="font-variant:normal;font-weight:normal;font-size:7.32800007px;font-family:Calibri;-inkscape-font-specification:Calibri;writing-mode:lr-tb;fill:#000000;fill-opacity:1;fill-rule:nonzero;stroke:none"
       id="text266"><tspan
         x="0 3.715296"
         y="0"
         sodipodi:role="line"
         id="tspan264">4%</tspan></text>
<text
       transform="matrix(1,0,0,-1,183.85219,353.18029)"
       style="font-variant:normal;font-weight:normal;font-size:7.32800007px;font-family:Calibri;-inkscape-font-specification:Calibri;writing-mode:lr-tb;fill:#000000;fill-opacity:1;fill-rule:nonzero;stroke:none"
       id="text270"><tspan
         x="0 3.9602563 7.4703684 9.1484804 12.995681"
         y="0"
         sodipodi:role="line"
         id="tspan268">baidu</tspan></text>
<text
       transform="matrix(1,0,0,-1,187.80931,344.1815)"
       style="font-variant:normal;font-weight:normal;font-size:7.32800007px;font-family:Calibri;-inkscape-font-specification:Calibri;writing-mode:lr-tb;fill:#000000;fill-opacity:1;fill-rule:nonzero;stroke:none"
       id="text274"><tspan
         x="0 3.715296"
         y="0"
         sodipodi:role="line"
         id="tspan272">3%</tspan></text>
<text
       transform="matrix(1,0,0,-1,126.73043,376.58592)"
       style="font-variant:normal;font-weight:normal;font-size:7.32800007px;font-family:Calibri;-inkscape-font-specification:Calibri;writing-mode:lr-tb;fill:#000000;fill-opacity:1;fill-rule:nonzero;stroke:none"
       id="text278"><tspan
         x="0 3.510112 7.3573122 11.280724 14.040902 15.961029 19.060772 22.441442 24.896322 28.681843 31.547091 34.646835 38.156948 42.122707 45.772053 47.523056 51.483311 54.040783"
         y="0"
         sodipodi:role="line"
         id="tspan276">apps.cytoscape.org</tspan></text>
<text
       transform="matrix(1,0,0,-1,150.97146,367.58714)"
       style="font-variant:normal;font-weight:normal;font-size:7.32800007px;font-family:Calibri;-inkscape-font-specification:Calibri;writing-mode:lr-tb;fill:#000000;fill-opacity:1;fill-rule:nonzero;stroke:none"
       id="text282"><tspan
         x="0 3.715296"
         y="0"
         sodipodi:role="line"
         id="tspan280">1%</tspan></text>
<text
       transform="matrix(1,0,0,-1,136.68918,396.26893)"
       style="font-variant:normal;font-weight:normal;font-size:7.32800007px;font-family:Calibri;-inkscape-font-specification:Calibri;writing-mode:lr-tb;fill:#000000;fill-opacity:1;fill-rule:nonzero;stroke:none"
       id="text286"><tspan
         x="0 3.8471999 5.5253119 9.3725119 12.824 14.480128 17.401119 19.057247 22.919104 25.476576 28.928064 32.438175 36.362335 38.040447"
         y="0"
         sodipodi:role="line"
         id="tspan284">bing / organic</tspan></text>
<text
       transform="matrix(1,0,0,-1,152.76682,387.26282)"
       style="font-variant:normal;font-weight:normal;font-size:7.32800007px;font-family:Calibri;-inkscape-font-specification:Calibri;writing-mode:lr-tb;fill:#000000;fill-opacity:1;fill-rule:nonzero;stroke:none"
       id="text290"><tspan
         x="0 3.715296"
         y="0"
         sodipodi:role="line"
         id="tspan288">1%</tspan></text>
<text
       transform="matrix(1,0,0,-1,139.81091,420.98627)"
       style="font-variant:normal;font-weight:normal;font-size:7.32800007px;font-family:Calibri;-inkscape-font-specification:Calibri;writing-mode:lr-tb;fill:#000000;fill-opacity:1;fill-rule:nonzero;stroke:none"
       id="text294"><tspan
         x="0 3.451488 7.313344 11.280724 14.640941 16.319054 19.968397 21.815052 24.914797 28.776653 30.623308 32.301422"
         y="0"
         sodipodi:role="line"
         id="tspan292">google.co.in</tspan></text>
<text
       transform="matrix(1,0,0,-1,153.49229,411.98749)"
       style="font-variant:normal;font-weight:normal;font-size:7.32800007px;font-family:Calibri;-inkscape-font-specification:Calibri;writing-mode:lr-tb;fill:#000000;fill-opacity:1;fill-rule:nonzero;stroke:none"
       id="text298"><tspan
         x="0 3.715296"
         y="0"
         sodipodi:role="line"
         id="tspan296">1%</tspan></text>
<text
       transform="matrix(1,0,0,-1,157.09034,442.83104)"
       style="font-variant:normal;font-weight:normal;font-size:7.32800007px;font-family:Calibri;-inkscape-font-specification:Calibri;writing-mode:lr-tb;fill:#000000;fill-opacity:1;fill-rule:nonzero;stroke:none"
       id="text302"><tspan
         x="0 3.3602178 7.3204741 11.18233 14.633818 16.31193 19.961273 21.721401 24.821146 28.683001 30.601971 34.449169"
         y="0"
         sodipodi:role="line"
         id="tspan300">google.co.uk</tspan></text>
<text
       transform="matrix(1,0,0,-1,171.48986,433.82493)"
       style="font-variant:normal;font-weight:normal;font-size:7.32800007px;font-family:Calibri;-inkscape-font-specification:Calibri;writing-mode:lr-tb;fill:#000000;fill-opacity:1;fill-rule:nonzero;stroke:none"
       id="text306"><tspan
         x="0 3.715296"
         y="0"
         sodipodi:role="line"
         id="tspan304">1%</tspan></text>
<text
       transform="matrix(1,0,0,-1,211.57402,449.42624)"
       style="font-variant:normal;font-weight:normal;font-size:7.32800007px;font-family:Calibri;-inkscape-font-specification:Calibri;writing-mode:lr-tb;fill:#000000;fill-opacity:1;fill-rule:nonzero;stroke:none"
       id="text310"><tspan
         x="0 3.861856 6.3167362 10.163936 13.81328"
         y="0"
         sodipodi:role="line"
         id="tspan308">other</tspan></text>
<text
       transform="matrix(1,0,0,-1,213.49395,440.42746)"
       style="font-variant:normal;font-weight:normal;font-size:7.32800007px;font-family:Calibri;-inkscape-font-specification:Calibri;writing-mode:lr-tb;fill:#000000;fill-opacity:1;fill-rule:nonzero;stroke:none"
       id="text314"><tspan
         x="0 3.715296 7.4305921"
         y="0"
         sodipodi:role="line"
         id="tspan312">20%</tspan></text>
<text
       transform="matrix(1,0,0,-1,209.04283,502.3345)"
       style="font-variant:normal;font-weight:normal;font-size:11.74199963px;font-family:Calibri;-inkscape-font-specification:'Calibri Bold';writing-mode:lr-tb;fill:#000000;fill-opacity:1;fill-rule:nonzero;stroke:none"
       id="text318"><tspan
         x="0 6.1201534 11.760294 15.720389 22.037584 26.722643 31.630798 37.431347 43.801102 49.707325 52.842442 59.159637 63.121586 68.761726 71.521805 77.881966 83.788185 87.242203 93.242355 97.322449 101.28255 107.08309 109.97163 112.62532 118.32298 124.64017 130.94562 134.88338 139.79153 145.69777 150.38283 153.12384 156.72392 162.67712 165.70656 171.65974 177.48445 183.36459 186.48468 192.36482 198.31802 204.27122"
         y="0"
         sodipodi:role="line"
         id="tspan316">Cytoscape.org Referral Sources (2,386,690)</tspan></text>
<text
       transform="matrix(1,0,0,-1,238.44479,487.92707)"
       style="font-variant:normal;font-weight:normal;font-size:11.74199963px;font-family:Calibri;-inkscape-font-specification:'Calibri Bold';writing-mode:lr-tb;fill:#000000;fill-opacity:1;fill-rule:nonzero;stroke:none"
       id="text322"><tspan
         x="0 3.6635039 9.6166983 14.665758 20.520519 25.569578 31.44079 37.393986 43.347179 49.201233 52.32132 56.395794 62.701248 66.601685 72.918877 79.224327 84.790039 91.09549 93.962372 99.842522 104.89158 110.76279 116.64294 121.692 127.6452 133.59839 139.44351 145.39671"
         y="0"
         sodipodi:role="line"
         id="tspan320">(1/1/2012 through 1/19/2018)</tspan></text>
<g
       id="g324"><g
         id="g326"
         clip-path="url(#clipPath330)"><path
           d="m 50.88,514.68 c 0,0.12 0.12,0.24 0.24,0.24 h 510 c 0.12,0 0.36,-0.12 0.36,-0.24 V 277.2 c 0,-0.12 -0.24,-0.24 -0.36,-0.24 h -510 c -0.12,0 -0.24,0.12 -0.24,0.24 z m 0.48,-237.48 -0.24,0.36 h 510 l -0.24,-0.36 v 237.48 l 0.24,-0.36 h -510 l 0.24,0.36 z"
           style="fill:#868686;fill-opacity:1;fill-rule:nonzero;stroke:none"
           id="path332"
           inkscape:connector-curvature="0" /></g></g></g></svg>