<?xml version="1.0" encoding="UTF-8" standalone="no"?>
<!-- Created with Inkscape (http://www.inkscape.org/) -->

<svg
   xmlns:dc="http://purl.org/dc/elements/1.1/"
   xmlns:cc="http://creativecommons.org/ns#"
   xmlns:rdf="http://www.w3.org/1999/02/22-rdf-syntax-ns#"
   xmlns:svg="http://www.w3.org/2000/svg"
   xmlns="http://www.w3.org/2000/svg"
   xmlns:sodipodi="http://sodipodi.sourceforge.net/DTD/sodipodi-0.dtd"
   xmlns:inkscape="http://www.inkscape.org/namespaces/inkscape"
   version="1.1"
   id="svg5177"
   xml:space="preserve"
   width="680.79999"
   height="416"
   viewBox="0 0 680.79999 416"
   sodipodi:docname="Web_Site_Visits_By_Week.svg"
   inkscape:version="0.92.3 (2405546, 2018-03-11)"><metadata
     id="metadata5183"><rdf:RDF><cc:Work
         rdf:about=""><dc:format>image/svg+xml</dc:format><dc:type
           rdf:resource="http://purl.org/dc/dcmitype/StillImage" /><dc:title></dc:title></cc:Work></rdf:RDF></metadata><defs
     id="defs5181"><clipPath
       clipPathUnits="userSpaceOnUse"
       id="clipPath5381"><path
         d="M 50.64,552.12 V 239.88 h 510.72 v 312.24 z"
         id="path5379"
         inkscape:connector-curvature="0"
         style="clip-rule:evenodd" /></clipPath></defs><sodipodi:namedview
     pagecolor="#ffffff"
     bordercolor="#666666"
     borderopacity="1"
     objecttolerance="10"
     gridtolerance="10"
     guidetolerance="10"
     inkscape:pageopacity="0"
     inkscape:pageshadow="2"
     inkscape:window-width="640"
     inkscape:window-height="480"
     id="namedview5179"
     showgrid="false"
     inkscape:zoom="0.22348485"
     inkscape:cx="340.32"
     inkscape:cy="208.16001"
     inkscape:window-x="0"
     inkscape:window-y="0"
     inkscape:window-maximized="0"
     inkscape:current-layer="g5185" /><g
     id="g5185"
     inkscape:groupmode="layer"
     inkscape:label="Web_Site_Visits_By_Week"
     transform="matrix(1.3333333,0,0,-1.3333333,-67.679998,735.83998)"><path
       d="M 51,240 H 561.12 V 551.64 H 51 Z"
       style="fill:#ffffff;fill-opacity:1;fill-rule:nonzero;stroke:none"
       id="path5187"
       inkscape:connector-curvature="0" /><path
       d="m 91.08,268.56 h 409.2 V 512.04 H 91.08 Z"
       style="fill:#ffffff;fill-opacity:1;fill-rule:nonzero;stroke:none"
       id="path5189"
       inkscape:connector-curvature="0" /><path
       d="m 91.08,309.48 h 409.2 V 309 H 91.08 Z m 0,40.44 h 409.2 v -0.48 H 91.08 Z m 0,40.68 h 409.2 v -0.48 H 91.08 Z m 0,40.56 h 409.2 v -0.48 H 91.08 Z m 0,40.56 h 409.2 v -0.48 H 91.08 Z m 0,40.56 h 409.2 V 511.8 H 91.08 Z"
       style="fill:#868686;fill-opacity:1;fill-rule:nonzero;stroke:none"
       id="path5191"
       inkscape:connector-curvature="0" /><path
       d="m 90.84,268.56 h 0.48 v 243.48 h -0.48 z"
       style="fill:#868686;fill-opacity:1;fill-rule:nonzero;stroke:none"
       id="path5193"
       inkscape:connector-curvature="0" /><path
       d="m 89.16,268.8 h 1.92 v -0.36 h -1.92 z m 0,40.68 h 1.92 V 309 h -1.92 z m 0,40.44 h 1.92 v -0.48 h -1.92 z m 0,40.68 h 1.92 v -0.48 h -1.92 z m 0,40.56 h 1.92 v -0.48 h -1.92 z m 0,40.56 h 1.92 v -0.48 h -1.92 z m 0,40.56 h 1.92 v -0.48 h -1.92 z"
       style="fill:#868686;fill-opacity:1;fill-rule:nonzero;stroke:none"
       id="path5195"
       inkscape:connector-curvature="0" /><path
       d="m 91.08,268.44 h 409.2 v 0.36 H 91.08 Z"
       style="fill:#868686;fill-opacity:1;fill-rule:nonzero;stroke:none"
       id="path5197"
       inkscape:connector-curvature="0" /><path
       d="m 91.32,268.56 v -1.92 h -0.48 v 1.92 z m 7.68,0 v -1.92 h -0.48 v 1.92 z m 7.68,0 v -1.92 h -0.36 v 1.92 z m 7.8,0 v -1.92 H 114 v 1.92 z m 7.68,0 v -1.92 h -0.48 v 1.92 z m 7.8,0 v -1.92 h -0.48 v 1.92 z"
       style="fill:#868686;fill-opacity:1;fill-rule:nonzero;stroke:none"
       id="path5199"
       inkscape:connector-curvature="0" /><path
       d="m 137.64,268.56 v -1.92 h -0.48 v 1.92 z m 7.8,0 v -1.92 h -0.48 v 1.92 z m 7.68,0 v -1.92 h -0.48 v 1.92 z m 7.68,0 v -1.92 h -0.48 v 1.92 z m 7.68,0 v -1.92 h -0.36 v 1.92 z m 7.8,0 v -1.92 h -0.48 v 1.92 z"
       style="fill:#868686;fill-opacity:1;fill-rule:nonzero;stroke:none"
       id="path5201"
       inkscape:connector-curvature="0" /><path
       d="m 183.96,268.56 v -1.92 h -0.48 v 1.92 z m 7.68,0 v -1.92 h -0.48 v 1.92 z m 7.8,0 v -1.92 h -0.48 v 1.92 z m 7.68,0 v -1.92 h -0.48 v 1.92 z m 7.68,0 v -1.92 h -0.48 v 1.92 z m 7.68,0 v -1.92 h -0.36 v 1.92 z"
       style="fill:#868686;fill-opacity:1;fill-rule:nonzero;stroke:none"
       id="path5203"
       inkscape:connector-curvature="0" /><path
       d="m 230.28,268.56 v -1.92 h -0.48 v 1.92 z m 7.68,0 v -1.92 h -0.48 v 1.92 z m 7.68,0 v -1.92 h -0.36 v 1.92 z m 7.8,0 v -1.92 h -0.48 v 1.92 z m 7.8,0 v -1.92 h -0.48 v 1.92 z m 7.68,0 v -1.92 h -0.48 v 1.92 z"
       style="fill:#868686;fill-opacity:1;fill-rule:nonzero;stroke:none"
       id="path5205"
       inkscape:connector-curvature="0" /><path
       d="m 276.6,268.56 v -1.92 h -0.48 v 1.92 z m 7.68,0 v -1.92 h -0.36 v 1.92 z m 7.8,0 v -1.92 h -0.48 v 1.92 z m 7.68,0 v -1.92 h -0.48 v 1.92 z m 7.68,0 v -1.92 h -0.36 v 1.92 z m 7.8,0 v -1.92 h -0.48 v 1.92 z"
       style="fill:#868686;fill-opacity:1;fill-rule:nonzero;stroke:none"
       id="path5207"
       inkscape:connector-curvature="0" /><path
       d="m 322.92,268.56 v -1.92 h -0.48 v 1.92 z m 7.68,0 v -1.92 h -0.48 v 1.92 z m 7.8,0 v -1.92 h -0.48 v 1.92 z m 7.68,0 v -1.92 h -0.48 v 1.92 z m 7.68,0 v -1.92 h -0.48 v 1.92 z m 7.68,0 v -1.92 h -0.36 v 1.92 z"
       style="fill:#868686;fill-opacity:1;fill-rule:nonzero;stroke:none"
       id="path5209"
       inkscape:connector-curvature="0" /><path
       d="m 369.24,268.56 v -1.92 h -0.48 v 1.92 z m 7.8,0 v -1.92 h -0.48 v 1.92 z m 7.68,0 v -1.92 h -0.48 v 1.92 z m 7.68,0 v -1.92 h -0.48 v 1.92 z m 7.8,0 v -1.92 h -0.48 v 1.92 z m 7.68,0 v -1.92 h -0.48 v 1.92 z"
       style="fill:#868686;fill-opacity:1;fill-rule:nonzero;stroke:none"
       id="path5211"
       inkscape:connector-curvature="0" /><path
       d="m 415.56,268.56 v -1.92 h -0.48 v 1.92 z m 7.68,0 v -1.92 h -0.36 v 1.92 z m 7.8,0 v -1.92 h -0.48 v 1.92 z m 7.68,0 v -1.92 h -0.48 v 1.92 z m 7.68,0 v -1.92 h -0.48 v 1.92 z m 7.8,0 v -1.92 h -0.48 v 1.92 z m 7.68,0 v -1.92 h -0.48 v 1.92 z m 7.68,0 v -1.92 h -0.48 v 1.92 z m 7.8,0 v -1.92 h -0.48 v 1.92 z m 7.68,0 v -1.92 h -0.48 v 1.92 z m 7.68,0 v -1.92 h -0.48 v 1.92 z m 7.8,0 v -1.92 h -0.48 v 1.92 z"
       style="fill:#868686;fill-opacity:1;fill-rule:nonzero;stroke:none"
       id="path5213"
       inkscape:connector-curvature="0" /><path
       d="m 94.32,359.52 1.44,3.96 c 0.12,0.36 0.48,0.48 0.84,0.36 0.36,-0.12 0.6,-0.48 0.48,-0.84 l -1.44,-3.96 c -0.24,-0.36 -0.6,-0.48 -0.96,-0.36 -0.36,0.12 -0.48,0.48 -0.36,0.84 z m 3.36,9.12 1.56,3.96 c 0.12,0.36 0.48,0.48 0.84,0.36 0.36,-0.12 0.6,-0.48 0.48,-0.84 L 99,368.16 c -0.12,-0.36 -0.48,-0.48 -0.84,-0.36 -0.36,0.12 -0.6,0.48 -0.48,0.84 z m 3.48,9.12 0.84,2.16 c 0.12,0.24 0.24,0.36 0.48,0.48 l 1.8,0.48 c 0.36,0.12 0.72,-0.12 0.84,-0.48 0.12,-0.36 -0.12,-0.72 -0.48,-0.84 l -1.8,-0.48 0.48,0.36 -0.84,-2.16 c -0.12,-0.36 -0.6,-0.6 -0.96,-0.36 -0.36,0.12 -0.48,0.48 -0.36,0.84 z m 8.4,4.56 0.6,0.24 3.48,0.84 c 0.36,0.12 0.72,-0.12 0.84,-0.48 0.12,-0.36 -0.12,-0.72 -0.48,-0.84 l -3.48,-0.84 -0.6,-0.24 c -0.36,-0.12 -0.72,0.12 -0.84,0.48 -0.12,0.36 0.12,0.72 0.48,0.84 z m 8.76,2.88 2.64,3.24 c 0.24,0.24 0.72,0.24 0.96,0 0.36,-0.24 0.36,-0.6 0.12,-0.96 l -2.64,-3.12 c -0.24,-0.36 -0.72,-0.36 -1.08,-0.12 -0.24,0.24 -0.24,0.72 0,0.96 z m 6.24,7.44 0.72,0.84 c 0.12,0.24 0.36,0.36 0.6,0.24 l 3,-0.6 c 0.48,0 0.72,-0.36 0.6,-0.72 -0.12,-0.48 -0.48,-0.72 -0.84,-0.6 l -3,0.6 0.72,0.24 -0.72,-0.84 c -0.24,-0.36 -0.72,-0.36 -0.96,-0.12 -0.36,0.24 -0.36,0.72 -0.12,0.96 z m 9.84,-0.6 4.08,-0.96 c 0.36,-0.12 0.6,-0.48 0.48,-0.84 -0.12,-0.36 -0.48,-0.6 -0.84,-0.48 l -4.08,0.96 c -0.36,0.12 -0.6,0.48 -0.48,0.84 0.12,0.36 0.48,0.6 0.84,0.48 z m 9.12,-1.08 3.96,1.2 c 0.36,0 0.84,-0.12 0.84,-0.6 0.12,-0.36 0,-0.72 -0.48,-0.84 l -3.96,-1.08 c -0.36,-0.12 -0.72,0.12 -0.84,0.48 -0.12,0.36 0.12,0.72 0.48,0.84 z m 8.64,3.72 3.36,2.4 c 0.36,0.24 0.84,0.12 0.96,-0.24 0.24,-0.24 0.24,-0.72 -0.12,-0.96 l -3.48,-2.28 c -0.36,-0.24 -0.72,-0.12 -0.96,0.12 -0.24,0.36 -0.12,0.84 0.24,0.96 z m 8.52,4.92 3.48,1.68 c 0.24,0.12 0.6,0 0.84,-0.12 l 0.12,-0.24 c 0.24,-0.36 0.24,-0.72 0,-0.96 -0.24,-0.36 -0.72,-0.36 -0.96,0 l -0.24,0.24 0.84,-0.24 -3.48,-1.56 c -0.36,-0.24 -0.84,-0.12 -0.96,0.24 -0.24,0.36 0,0.84 0.36,0.96 z m 8.28,-2.76 2.88,-3 c 0.24,-0.36 0.24,-0.72 0,-0.96 -0.36,-0.36 -0.72,-0.36 -0.96,0 l -2.88,3 c -0.36,0.24 -0.24,0.72 0,0.96 0.24,0.24 0.72,0.24 0.96,0 z m 7.56,-3.84 3.36,-0.12 c 0.12,0 0.12,0 0.12,0 l 0.84,-0.12 c 0.36,-0.12 0.6,-0.48 0.48,-0.84 -0.12,-0.48 -0.48,-0.6 -0.84,-0.6 l -0.84,0.24 h 0.24 l -3.36,0.12 c -0.36,0 -0.72,0.24 -0.72,0.72 0,0.36 0.36,0.6 0.72,0.6 z m 9.72,-1.68 1.56,-0.36 c 0.12,-0.12 0.24,-0.12 0.24,-0.24 l 1.8,-1.92 c 0.24,-0.24 0.24,-0.72 0,-0.96 -0.36,-0.24 -0.72,-0.24 -0.96,0 l -1.8,1.92 0.36,-0.24 -1.56,0.48 c -0.36,0.12 -0.6,0.48 -0.48,0.84 0.12,0.36 0.48,0.6 0.84,0.48 z m 7.32,-6.6 2.28,-2.4 h -0.96 l 0.6,0.72 c 0.36,0.24 0.72,0.24 1.08,-0.12 0.24,-0.24 0.24,-0.72 -0.12,-0.96 l -0.72,-0.6 c -0.24,-0.24 -0.72,-0.24 -0.96,0 l -2.16,2.4 c -0.24,0.24 -0.24,0.72 0,0.96 0.36,0.24 0.72,0.24 0.96,0 z m 6.12,1.92 2.88,2.64 c 0.12,0.12 0.24,0.12 0.36,0.12 l 0.36,0.12 c 0.36,0 0.72,-0.24 0.72,-0.6 0.12,-0.48 -0.24,-0.72 -0.6,-0.84 h -0.24 l 0.36,0.12 -2.88,-2.52 c -0.36,-0.24 -0.72,-0.24 -0.96,0 -0.36,0.36 -0.24,0.72 0,0.96 z m 9.12,3.48 1.8,0.24 -0.36,-0.12 1.8,1.44 c 0.24,0.36 0.72,0.24 0.96,0 0.24,-0.36 0.24,-0.72 -0.12,-0.96 l -1.68,-1.56 c -0.12,0 -0.24,-0.12 -0.36,-0.12 l -1.92,-0.24 c -0.36,0 -0.72,0.24 -0.72,0.6 -0.12,0.36 0.24,0.72 0.6,0.72 z m 7.44,5.28 1.8,1.56 c 0.12,0.12 0.36,0.12 0.6,0.12 0.12,0 0.36,-0.24 0.48,-0.36 l 0.72,-1.68 c 0.12,-0.36 0,-0.72 -0.36,-0.96 -0.36,-0.12 -0.72,0 -0.96,0.36 l -0.72,1.68 1.08,-0.24 -1.8,-1.56 c -0.24,-0.24 -0.72,-0.24 -0.96,0.12 -0.24,0.24 -0.24,0.72 0.12,0.96 z m 6,-5.4 1.68,-3.84 c 0.24,-0.24 0,-0.72 -0.36,-0.84 -0.36,-0.24 -0.72,0 -0.84,0.36 l -1.8,3.72 c -0.12,0.36 0,0.72 0.36,0.96 0.36,0.12 0.72,0 0.96,-0.36 z m 4.08,-8.88 0.48,-1.08 h -1.2 l 1.32,2.64 c 0.12,0.36 0.6,0.48 0.96,0.36 0.24,-0.12 0.48,-0.6 0.24,-0.96 l -1.32,-2.64 c -0.12,-0.24 -0.36,-0.36 -0.6,-0.36 -0.36,0 -0.6,0.12 -0.72,0.36 l -0.48,1.2 c -0.12,0.24 0,0.72 0.36,0.84 0.36,0.24 0.72,0 0.96,-0.36 z m 3.12,6.6 1.92,3.72 c 0.12,0.36 0.6,0.48 0.84,0.24 0.36,-0.12 0.48,-0.6 0.36,-0.96 L 230.64,387 c -0.12,-0.24 -0.6,-0.48 -0.96,-0.24 -0.36,0.12 -0.48,0.6 -0.24,0.96 z m 5.88,7.32 3.84,-1.68 c 0.36,-0.24 0.48,-0.6 0.36,-0.96 -0.24,-0.36 -0.6,-0.48 -0.96,-0.36 l -3.84,1.68 c -0.36,0.24 -0.48,0.6 -0.36,0.96 0.24,0.36 0.6,0.48 0.96,0.36 z m 8.88,-3.48 4.08,-0.84 c 0.36,0 0.6,-0.36 0.6,-0.72 -0.12,-0.36 -0.48,-0.72 -0.84,-0.6 l -4.08,0.84 c -0.36,0.12 -0.6,0.48 -0.6,0.84 0.12,0.36 0.48,0.6 0.84,0.48 z m 8.76,-4.32 3,-2.88 c 0.24,-0.24 0.24,-0.72 0,-0.96 -0.24,-0.24 -0.72,-0.24 -0.96,0 l -3,2.88 c -0.24,0.24 -0.24,0.72 0,0.96 0.24,0.36 0.72,0.36 0.96,0 z m 6.72,-2.76 3.72,1.92 c 0.36,0.12 0.72,0 0.96,-0.36 0.12,-0.36 0,-0.72 -0.36,-0.96 l -3.72,-1.92 c -0.24,-0.12 -0.72,0 -0.84,0.36 -0.24,0.36 -0.12,0.72 0.24,0.96 z m 8.64,4.44 3.72,1.92 c 0.36,0.12 0.72,0 0.96,-0.24 0.12,-0.36 0,-0.84 -0.36,-0.96 l -3.6,-1.92 c -0.36,-0.24 -0.84,-0.12 -0.96,0.24 -0.24,0.36 -0.12,0.84 0.24,0.96 z m 8.88,-1.44 3.24,-2.64 c 0.24,-0.24 0.36,-0.72 0.12,-0.96 -0.36,-0.36 -0.72,-0.36 -1.08,-0.12 l -3.24,2.64 c -0.24,0.24 -0.36,0.72 -0.12,0.96 0.24,0.36 0.72,0.36 1.08,0.12 z m 7.08,-6.72 2.88,-3 c 0.24,-0.24 0.24,-0.72 0,-0.96 -0.24,-0.24 -0.72,-0.24 -0.96,0 l -2.88,3 c -0.24,0.36 -0.24,0.72 0,0.96 0.24,0.36 0.72,0.36 0.96,0 z m 6.84,-2.76 3.84,1.56 c 0.36,0.12 0.84,-0.12 0.96,-0.48 0.12,-0.36 0,-0.72 -0.36,-0.84 l -3.96,-1.56 c -0.36,-0.12 -0.72,0 -0.84,0.36 -0.12,0.36 0,0.72 0.36,0.96 z m 9.36,-0.96 3.24,-1.92 -0.36,0.12 h 0.24 c 0.48,0 0.84,-0.24 0.84,-0.6 0,-0.36 -0.24,-0.72 -0.6,-0.72 l -0.36,-0.12 c -0.12,0 -0.36,0 -0.48,0.12 l -3.24,1.92 c -0.36,0.24 -0.48,0.6 -0.24,0.96 0.12,0.36 0.6,0.48 0.96,0.24 z m 8.64,-1.08 1.92,0.24 c 0.24,0 0.36,-0.12 0.48,-0.24 l 1.8,-1.56 c 0.24,-0.24 0.24,-0.6 0,-0.96 -0.24,-0.24 -0.72,-0.24 -0.96,0 l -1.68,1.56 0.48,-0.24 -1.8,-0.24 c -0.36,0 -0.72,0.24 -0.84,0.6 0,0.36 0.24,0.72 0.6,0.84 z m 8.28,-5.28 1.92,-1.68 1.2,-0.84 c 0.36,-0.24 0.48,-0.72 0.24,-0.96 -0.24,-0.36 -0.72,-0.48 -0.96,-0.24 l -1.44,1.08 -1.92,1.68 c -0.24,0.24 -0.24,0.6 0,0.96 0.24,0.24 0.72,0.24 0.96,0 z m 7.68,-5.76 1.92,-1.32 -0.36,0.12 1.92,-0.24 c 0.36,-0.12 0.6,-0.36 0.6,-0.84 0,-0.36 -0.36,-0.6 -0.84,-0.6 l -1.92,0.36 c -0.12,0 -0.12,0 -0.24,0.12 l -1.8,1.32 c -0.36,0.12 -0.48,0.6 -0.24,0.96 0.24,0.24 0.72,0.36 0.96,0.12 z m 9,-2.28 h 0.24 l -0.24,-0.12 3.6,1.32 c 0.36,0.12 0.72,0 0.84,-0.36 0.24,-0.36 0,-0.84 -0.36,-0.96 l -3.72,-1.32 c 0,0 -0.12,0 -0.24,0 h -0.36 c -0.36,0.12 -0.6,0.48 -0.6,0.84 0.12,0.36 0.48,0.6 0.84,0.6 z m 9.24,2.52 4.08,-0.6 c 0.48,-0.12 0.72,-0.48 0.6,-0.84 0,-0.36 -0.36,-0.6 -0.72,-0.6 l -4.2,0.6 c -0.36,0.12 -0.6,0.48 -0.6,0.84 0.12,0.36 0.48,0.6 0.84,0.6 z m 9.36,-0.48 4.2,0.6 c 0.36,0 0.72,-0.24 0.72,-0.6 0.12,-0.36 -0.12,-0.72 -0.48,-0.84 l -4.2,-0.6 c -0.36,0 -0.72,0.24 -0.72,0.6 -0.12,0.36 0.12,0.72 0.48,0.84 z m 9.72,1.44 2.64,0.36 -0.48,-0.36 0.84,1.32 c 0.12,0.24 0.6,0.36 0.96,0.12 0.24,-0.12 0.36,-0.6 0.12,-0.96 l -0.72,-1.2 c -0.12,-0.24 -0.36,-0.36 -0.6,-0.36 l -2.64,-0.36 c -0.36,0 -0.72,0.24 -0.72,0.6 -0.12,0.36 0.24,0.72 0.6,0.84 z m 6,5.88 2.28,3.6 c 0.24,0.24 0.6,0.36 0.96,0.12 0.36,-0.12 0.36,-0.6 0.24,-0.96 l -2.28,-3.48 c -0.24,-0.36 -0.72,-0.36 -0.96,-0.24 -0.36,0.24 -0.48,0.72 -0.24,0.96 z m 6.96,6.6 4.2,0.36 c 0.36,0 0.72,-0.24 0.72,-0.6 0.12,-0.36 -0.24,-0.72 -0.6,-0.84 l -4.2,-0.36 c -0.36,0 -0.72,0.24 -0.72,0.6 0,0.48 0.24,0.72 0.6,0.84 z m 9.6,1.32 3.24,0.72 c 0.12,0 0.12,0 0.24,0 l 0.84,-0.12 c 0.36,-0.12 0.6,-0.48 0.6,-0.84 0,-0.36 -0.36,-0.6 -0.84,-0.6 l -0.84,0.12 h 0.24 l -3.24,-0.6 c -0.36,-0.12 -0.72,0.12 -0.84,0.48 0,0.48 0.24,0.84 0.6,0.84 z m 9.84,-0.12 1.32,-0.24 -0.48,-0.12 2.16,1.8 c 0.36,0.24 0.72,0.12 0.96,-0.12 0.24,-0.36 0.24,-0.72 -0.12,-0.96 l -2.16,-1.8 c -0.12,-0.12 -0.36,-0.24 -0.48,-0.12 l -1.44,0.12 c -0.36,0.12 -0.6,0.48 -0.6,0.84 0.12,0.36 0.48,0.6 0.84,0.6 z m 7.32,4.92 1.2,0.96 -0.12,-0.12 1.56,2.04 c 0.24,0.36 0.72,0.36 0.96,0.24 0.36,-0.24 0.36,-0.72 0.24,-1.08 l -1.68,-2.04 c 0,-0.12 0,-0.12 -0.12,-0.12 l -1.2,-0.96 c -0.24,-0.24 -0.72,-0.24 -0.96,0.12 -0.24,0.24 -0.12,0.72 0.12,0.96 z m 6,7.32 2.52,3.36 c 0.24,0.36 0.6,0.36 0.96,0.12 0.36,-0.12 0.36,-0.6 0.12,-0.96 l -2.52,-3.24 c -0.24,-0.36 -0.6,-0.48 -0.96,-0.24 -0.24,0.24 -0.36,0.72 -0.12,0.96 z m 7.56,0.48 3,-2.88 c 0.24,-0.24 0.24,-0.72 0,-0.96 -0.24,-0.36 -0.72,-0.36 -0.96,-0.12 l -3,2.88 c -0.36,0.24 -0.36,0.72 -0.12,0.96 0.36,0.36 0.72,0.36 1.08,0.12 z m 7.68,-5.28 3.84,-1.44 -0.96,-0.48 v 0.12 c 0.24,0.36 0.6,0.48 0.96,0.36 0.36,-0.12 0.48,-0.48 0.36,-0.84 v -0.12 c 0,-0.12 -0.24,-0.24 -0.36,-0.36 -0.12,-0.12 -0.36,-0.12 -0.48,0 l -3.84,1.44 c -0.36,0.24 -0.6,0.6 -0.48,0.96 0.24,0.36 0.6,0.48 0.96,0.36 z m 4.92,3.36 1.56,3.96 c 0.12,0.36 0.48,0.48 0.84,0.36 0.36,-0.12 0.6,-0.6 0.36,-0.96 l -1.44,-3.84 c -0.12,-0.36 -0.6,-0.48 -0.96,-0.36 -0.36,0.12 -0.48,0.48 -0.36,0.84 z m 3.48,9.12 1.56,3.84 c 0.12,0.36 0.48,0.6 0.84,0.48 0.36,-0.12 0.6,-0.6 0.48,-0.96 l -1.56,-3.84 c -0.12,-0.36 -0.48,-0.6 -0.84,-0.48 -0.36,0.24 -0.6,0.6 -0.48,0.96 z m 6.12,3.6 3.24,-2.64 c 0.24,-0.24 0.24,-0.72 0,-0.96 -0.24,-0.36 -0.6,-0.36 -0.96,-0.12 l -3.12,2.64 c -0.36,0.24 -0.36,0.72 -0.12,1.08 0.24,0.24 0.6,0.24 0.96,0 z m 7.68,-3.72 4.2,0.36 c 0.36,0 0.72,-0.24 0.72,-0.6 0.12,-0.48 -0.24,-0.72 -0.6,-0.84 l -4.2,-0.24 c -0.36,0 -0.72,0.24 -0.72,0.6 0,0.36 0.24,0.72 0.6,0.72 z m 7.92,3.84 3,2.88 c 0.36,0.24 0.72,0.24 1.08,-0.12 0.24,-0.24 0.24,-0.72 -0.12,-0.96 l -3,-2.88 c -0.24,-0.24 -0.72,-0.24 -0.96,0.12 -0.24,0.24 -0.24,0.72 0,0.96 z m 8.88,2.88 3.24,-0.6 c 0.24,-0.12 0.36,-0.24 0.48,-0.36 l 0.48,-0.72 c 0.12,-0.24 0.12,-0.72 -0.24,-0.96 -0.36,-0.12 -0.72,-0.12 -0.96,0.24 l -0.48,0.72 0.48,-0.36 -3.24,0.72 c -0.48,0 -0.72,0.36 -0.6,0.72 0.12,0.48 0.48,0.72 0.84,0.6 z m 7.08,-6.36 2.28,-3.48 c 0.12,-0.36 0.12,-0.84 -0.24,-0.96 -0.36,-0.24 -0.72,-0.12 -0.96,0.12 l -2.28,3.6 c -0.12,0.36 0,0.72 0.24,0.96 0.36,0.24 0.84,0.12 0.96,-0.24 z m 5.16,-8.28 2.04,-3.72 c 0.12,-0.36 0,-0.72 -0.24,-0.96 -0.36,-0.12 -0.84,0 -0.96,0.36 l -2.04,3.6 c -0.24,0.36 -0.12,0.72 0.24,0.96 0.36,0.12 0.72,0 0.96,-0.24 z m 4.68,-8.52 2.04,-3.72 c 0.24,-0.24 0.12,-0.72 -0.24,-0.96 -0.36,-0.12 -0.72,0 -0.96,0.36 l -2.04,3.6 c -0.12,0.36 0,0.72 0.24,0.96 0.36,0.24 0.84,0.12 0.96,-0.24 z m 3.12,-9.36 0.72,-4.08 c 0,-0.36 -0.24,-0.72 -0.6,-0.84 -0.36,0 -0.72,0.24 -0.84,0.6 l -0.6,4.08 c -0.12,0.36 0.12,0.72 0.6,0.84 0.36,0 0.72,-0.24 0.72,-0.6 z m 1.56,-9.6 0.72,-4.08 c 0,-0.48 -0.24,-0.84 -0.6,-0.84 -0.36,-0.12 -0.72,0.24 -0.84,0.6 l -0.6,4.08 c -0.12,0.36 0.12,0.72 0.48,0.84 0.48,0 0.84,-0.24 0.84,-0.6 z m 1.56,-9.6 0.6,-4.2 c 0.12,-0.36 -0.12,-0.72 -0.48,-0.72 -0.48,-0.12 -0.84,0.12 -0.84,0.6 l -0.72,4.08 c 0,0.36 0.24,0.72 0.6,0.84 0.36,0 0.72,-0.24 0.84,-0.6 z m 1.56,-9.6 0.6,-4.2 c 0.12,-0.36 -0.24,-0.72 -0.6,-0.72 -0.36,-0.12 -0.72,0.12 -0.72,0.48 l -0.72,4.2 c 0,0.36 0.24,0.72 0.6,0.72 0.36,0.12 0.72,-0.12 0.84,-0.48 z m 1.44,-9.72 0.72,-4.08 c 0,-0.36 -0.24,-0.72 -0.6,-0.72 -0.36,-0.12 -0.72,0.12 -0.84,0.48 l -0.6,4.2 c -0.12,0.36 0.24,0.72 0.6,0.72 0.36,0.12 0.72,-0.12 0.72,-0.6 z"
       style="fill:#416fa6;fill-opacity:1;fill-rule:nonzero;stroke:none"
       id="path5215"
       inkscape:connector-curvature="0" /><path
       d="m 94.2,341.04 0.72,4.08 c 0,0.36 0.36,0.6 0.72,0.6 0.48,-0.12 0.72,-0.48 0.6,-0.84 l -0.6,-4.08 c -0.12,-0.36 -0.48,-0.6 -0.84,-0.6 -0.36,0.12 -0.6,0.48 -0.6,0.84 z m 1.56,9.6 0.6,4.08 c 0.12,0.36 0.48,0.72 0.84,0.6 0.36,0 0.6,-0.36 0.6,-0.72 l -0.72,-4.2 c 0,-0.36 -0.36,-0.6 -0.72,-0.6 -0.36,0.12 -0.72,0.48 -0.6,0.84 z m 1.44,9.6 0.72,4.08 c 0,0.48 0.36,0.72 0.72,0.6 0.36,0 0.6,-0.36 0.6,-0.72 l -0.6,-4.2 c -0.12,-0.36 -0.48,-0.6 -0.84,-0.48 -0.36,0 -0.6,0.36 -0.6,0.72 z m 1.56,9.6 0.6,4.2 c 0,0.36 0.36,0.6 0.84,0.6 0.36,-0.12 0.6,-0.48 0.48,-0.84 l -0.6,-4.08 c 0,-0.48 -0.36,-0.72 -0.84,-0.6 -0.36,0 -0.6,0.36 -0.48,0.72 z m 1.44,9.72 0.6,4.08 c 0.12,0.36 0.48,0.6 0.84,0.6 0.36,-0.12 0.6,-0.48 0.6,-0.84 l -0.72,-4.08 c 0,-0.36 -0.36,-0.72 -0.72,-0.6 -0.36,0 -0.72,0.36 -0.6,0.84 z m 1.44,9.6 0.36,1.68 c 0,0.12 0,0.24 0.12,0.36 l 1.32,1.92 c 0.24,0.36 0.72,0.36 0.96,0.24 0.36,-0.24 0.36,-0.72 0.24,-1.08 l -1.44,-1.92 0.12,0.24 -0.24,-1.68 c -0.12,-0.36 -0.48,-0.6 -0.84,-0.6 -0.36,0.12 -0.6,0.48 -0.6,0.84 z m 5.04,8.52 2.4,3.36 c 0.24,0.36 0.6,0.48 0.96,0.24 0.24,-0.24 0.36,-0.72 0.12,-0.96 l -2.4,-3.48 c -0.24,-0.24 -0.6,-0.36 -0.96,-0.12 -0.24,0.24 -0.36,0.6 -0.12,0.96 z m 6.24,7.56 2.88,3 c 0.36,0.24 0.72,0.24 1.08,0 0.24,-0.24 0.24,-0.72 0,-0.96 l -3,-3 c -0.24,-0.24 -0.72,-0.24 -0.96,0 -0.24,0.24 -0.24,0.72 0,0.96 z m 8.04,5.4 4.2,0.84 c 0.36,0 0.72,-0.24 0.72,-0.6 0.12,-0.36 -0.12,-0.72 -0.48,-0.84 l -4.08,-0.72 c -0.48,0 -0.84,0.24 -0.84,0.6 -0.12,0.36 0.12,0.72 0.48,0.72 z m 8.04,4.2 3,2.88 c 0.24,0.24 0.72,0.24 0.96,-0.12 0.24,-0.24 0.24,-0.72 0,-0.96 l -3,-2.88 c -0.36,-0.24 -0.72,-0.24 -1.08,0.12 -0.24,0.24 -0.24,0.72 0.12,0.96 z m 7.44,0.48 2.4,-3.48 c 0.12,-0.36 0.12,-0.72 -0.24,-0.96 -0.36,-0.24 -0.72,-0.12 -0.96,0.12 l -2.4,3.48 c -0.12,0.36 -0.12,0.72 0.24,0.96 0.36,0.24 0.72,0.12 0.96,-0.12 z m 4.44,-7.8 2.76,3.12 c 0.24,0.24 0.72,0.24 0.96,0 0.36,-0.24 0.36,-0.72 0.12,-0.96 l -2.88,-3.12 c -0.24,-0.24 -0.6,-0.36 -0.96,0 -0.24,0.24 -0.24,0.6 0,0.96 z m 6.48,7.2 1.08,1.2 c 0.12,0 0.12,0.12 0.12,0.12 l 2.04,1.44 c 0.36,0.24 0.72,0.24 0.96,-0.12 0.24,-0.24 0.24,-0.72 -0.12,-0.96 l -2.04,-1.44 h 0.12 l -1.08,-1.2 c -0.24,-0.24 -0.72,-0.24 -0.96,0 -0.36,0.24 -0.36,0.72 -0.12,0.96 z m 7.68,6.12 1.32,0.84 c 0.12,0.24 0.36,0.24 0.6,0.12 l 2.52,-0.84 c 0.36,-0.12 0.48,-0.6 0.36,-0.96 -0.12,-0.36 -0.48,-0.48 -0.84,-0.36 l -2.52,0.84 0.6,0.12 -1.2,-0.84 c -0.24,-0.24 -0.72,-0.24 -0.96,0.12 -0.24,0.24 -0.12,0.72 0.12,0.96 z m 9.48,-1.68 4.2,-0.6 c 0.36,-0.12 0.6,-0.48 0.6,-0.84 -0.12,-0.36 -0.48,-0.6 -0.84,-0.6 l -4.08,0.6 c -0.36,0.12 -0.72,0.48 -0.6,0.84 0,0.36 0.36,0.6 0.72,0.6 z m 8.16,0.24 2.28,3.48 c 0.12,0.24 0.6,0.36 0.96,0.12 0.24,-0.12 0.36,-0.6 0.12,-0.96 l -2.28,-3.48 c -0.12,-0.24 -0.6,-0.36 -0.96,-0.12 -0.24,0.12 -0.36,0.6 -0.12,0.96 z m 5.28,8.16 1.32,2.04 c 0.12,0.12 0.36,0.24 0.6,0.24 0.24,0 0.48,-0.12 0.6,-0.36 l 0.84,-1.44 c 0.24,-0.36 0.12,-0.84 -0.24,-0.96 -0.36,-0.24 -0.84,-0.12 -0.96,0.24 l -0.84,1.56 1.2,-0.12 -1.32,-2.04 c -0.24,-0.24 -0.72,-0.36 -0.96,-0.12 -0.36,0.12 -0.48,0.6 -0.24,0.96 z m 6,-4.44 2.04,-3.6 c 0.24,-0.36 0.12,-0.84 -0.24,-0.96 -0.36,-0.24 -0.72,-0.12 -0.96,0.24 l -2.04,3.72 c -0.12,0.24 0,0.72 0.36,0.84 0.24,0.24 0.72,0.12 0.84,-0.24 z m 4.08,-6.72 3.36,2.52 c 0.36,0.24 0.84,0.12 1.08,-0.24 0.12,-0.24 0.12,-0.72 -0.24,-0.96 l -3.36,-2.4 c -0.36,-0.24 -0.72,-0.12 -0.96,0.12 -0.24,0.36 -0.12,0.72 0.12,0.96 z m 7.32,5.88 2.16,3.6 c 0.24,0.36 0.72,0.36 0.96,0.24 0.36,-0.24 0.48,-0.6 0.24,-0.96 l -2.16,-3.6 c -0.12,-0.36 -0.6,-0.48 -0.96,-0.24 -0.36,0.24 -0.36,0.6 -0.24,0.96 z m 5.04,8.28 2.04,3.24 c 0.12,0.36 0.6,0.48 0.96,0.36 l 0.24,-0.24 c 0.36,-0.12 0.48,-0.6 0.36,-0.96 -0.24,-0.36 -0.6,-0.48 -0.96,-0.24 l -0.36,0.12 0.96,0.24 -2.04,-3.24 c -0.12,-0.24 -0.6,-0.36 -0.96,-0.24 -0.24,0.24 -0.36,0.72 -0.24,0.96 z m 8.16,0.72 2.52,-1.32 h -0.6 l 1.2,0.6 c 0.36,0.12 0.84,0 0.96,-0.36 0.12,-0.36 0,-0.84 -0.36,-0.96 l -1.32,-0.6 c -0.12,0 -0.36,0 -0.6,0.12 l -2.4,1.32 c -0.36,0.12 -0.48,0.6 -0.36,0.96 0.24,0.36 0.6,0.48 0.96,0.24 z m 8.28,1.44 1.32,0.6 c 0.36,0.12 0.72,0 0.84,-0.36 l 1.32,-2.28 c 0.24,-0.36 0.12,-0.72 -0.24,-0.96 -0.24,-0.12 -0.72,0 -0.96,0.24 l -1.32,2.4 0.96,-0.36 -1.44,-0.6 c -0.36,-0.12 -0.72,0 -0.84,0.36 -0.24,0.36 0,0.84 0.36,0.96 z m 6.24,-6.84 2.16,-3.72 c 0.12,-0.24 0,-0.72 -0.36,-0.84 -0.24,-0.24 -0.72,-0.12 -0.84,0.24 l -2.16,3.6 c -0.12,0.36 0,0.72 0.24,0.96 0.36,0.12 0.84,0.12 0.96,-0.24 z m 5.28,-7.8 3.24,-2.76 c 0.24,-0.24 0.24,-0.72 0,-0.96 -0.24,-0.36 -0.72,-0.36 -0.96,-0.12 l -3.12,2.76 c -0.36,0.24 -0.36,0.72 -0.12,0.96 0.24,0.36 0.72,0.36 0.96,0.12 z m 5.88,-3.84 2.28,3.6 c 0.12,0.36 0.6,0.48 0.84,0.24 0.36,-0.24 0.48,-0.6 0.24,-0.96 l -2.16,-3.6 c -0.24,-0.24 -0.6,-0.36 -0.96,-0.24 -0.36,0.24 -0.36,0.72 -0.24,0.96 z m 5.16,8.28 1.56,2.64 c 0.12,0.24 0.36,0.36 0.6,0.36 0.24,0 0.36,-0.12 0.6,-0.24 l 0.72,-0.84 c 0.24,-0.24 0.24,-0.72 -0.12,-0.96 -0.24,-0.24 -0.72,-0.24 -0.96,0 l -0.72,0.84 1.08,0.12 -1.56,-2.64 c -0.24,-0.24 -0.6,-0.36 -0.96,-0.24 -0.36,0.24 -0.48,0.72 -0.24,0.96 z m 7.08,-2.28 2.76,-3.12 c 0.36,-0.24 0.24,-0.72 0,-0.96 -0.36,-0.24 -0.72,-0.24 -0.96,0 l -2.76,3.24 c -0.24,0.24 -0.24,0.72 0,0.96 0.36,0.24 0.72,0.24 0.96,-0.12 z m 7.2,-6.24 3.48,-2.28 c 0.24,-0.24 0.36,-0.72 0.12,-0.96 -0.24,-0.36 -0.6,-0.48 -0.96,-0.24 l -3.48,2.28 c -0.24,0.24 -0.36,0.72 -0.12,0.96 0.12,0.36 0.6,0.48 0.96,0.24 z m 4.8,1.8 1.68,3.84 c 0.12,0.36 0.48,0.6 0.84,0.36 0.36,-0.12 0.6,-0.48 0.36,-0.84 l -1.56,-3.84 c -0.24,-0.36 -0.6,-0.6 -0.96,-0.36 -0.36,0.12 -0.48,0.48 -0.36,0.84 z m 3.84,9 1.68,3.84 c 0.12,0.36 0.48,0.48 0.84,0.36 0.36,-0.12 0.48,-0.6 0.36,-0.96 l -1.56,-3.84 c -0.24,-0.36 -0.6,-0.48 -0.96,-0.36 -0.36,0.24 -0.48,0.6 -0.36,0.96 z m 5.64,0.12 2.16,-3.6 c 0.12,-0.24 0,-0.72 -0.24,-0.84 -0.36,-0.24 -0.84,-0.12 -0.96,0.24 l -2.16,3.48 c -0.24,0.36 -0.12,0.84 0.24,0.96 0.36,0.24 0.72,0.12 0.96,-0.24 z m 4.92,-8.28 0.24,-0.36 -0.48,0.36 3.72,-0.36 c 0.36,0 0.72,-0.36 0.6,-0.72 0,-0.36 -0.36,-0.72 -0.72,-0.6 l -3.72,0.24 c -0.24,0 -0.48,0.12 -0.6,0.36 l -0.24,0.36 c -0.12,0.24 0,0.72 0.24,0.96 0.36,0.12 0.84,0 0.96,-0.24 z m 8.76,-0.24 4.08,1.08 c 0.36,0 0.72,-0.12 0.84,-0.48 0,-0.48 -0.12,-0.84 -0.48,-0.96 L 282,415.08 c -0.36,-0.12 -0.72,0.12 -0.84,0.48 -0.12,0.36 0.12,0.72 0.48,0.84 z m 9,-1.2 2.64,-3.24 c 0.24,-0.24 0.24,-0.72 0,-0.96 -0.36,-0.24 -0.72,-0.24 -1.08,0.12 l -2.64,3.12 c -0.24,0.36 -0.12,0.72 0.12,0.96 0.24,0.24 0.72,0.24 0.96,0 z m 5.28,-5.88 2.76,3.12 c 0.24,0.24 0.72,0.24 0.96,0 0.24,-0.24 0.36,-0.72 0,-0.96 l -2.76,-3.12 c -0.24,-0.24 -0.72,-0.36 -0.96,0 -0.24,0.24 -0.36,0.6 0,0.96 z m 6.48,7.2 0.48,0.48 c 0.24,0.36 0.6,0.36 0.96,0.12 l 2.76,-2.04 c 0.24,-0.24 0.36,-0.72 0.12,-0.96 -0.24,-0.36 -0.72,-0.48 -0.96,-0.24 l -2.76,2.16 0.96,0.12 -0.48,-0.6 c -0.36,-0.24 -0.72,-0.24 -1.08,0 -0.24,0.24 -0.24,0.72 0,0.96 z m 8.64,-4.8 0.48,-0.48 2.64,-2.52 c 0.24,-0.24 0.24,-0.6 0,-0.96 -0.36,-0.24 -0.72,-0.24 -0.96,0 l -2.52,2.4 -0.48,0.36 c -0.36,0.24 -0.36,0.72 -0.12,0.96 0.12,0.36 0.6,0.48 0.96,0.24 z m 7.08,-6.84 1.2,-1.2 h -1.08 l 1.56,1.92 c 0.24,0.36 0.72,0.36 0.96,0.12 0.36,-0.24 0.36,-0.6 0.12,-0.96 l -1.56,-1.92 c -0.12,-0.24 -0.24,-0.24 -0.48,-0.36 -0.12,0 -0.36,0.12 -0.48,0.24 l -1.2,1.2 c -0.36,0.24 -0.36,0.72 0,0.96 0.24,0.24 0.72,0.24 0.96,0 z m 5.04,5.16 2.52,3.24 c 0.24,0.36 0.72,0.36 1.08,0.12 0.24,-0.12 0.36,-0.6 0.12,-0.96 l -2.64,-3.24 c -0.24,-0.36 -0.6,-0.36 -0.96,-0.12 -0.24,0.24 -0.36,0.6 -0.12,0.96 z m 6.72,-0.84 2.16,-3.48 c 0.24,-0.36 0.12,-0.72 -0.24,-0.96 -0.24,-0.24 -0.72,-0.12 -0.84,0.24 l -2.28,3.48 c -0.24,0.36 -0.12,0.72 0.24,0.96 0.36,0.24 0.72,0.12 0.96,-0.24 z m 4.56,-7.56 3.96,1.2 c 0.36,0.12 0.72,0 0.84,-0.48 0.12,-0.36 -0.12,-0.72 -0.48,-0.84 l -3.96,-1.2 c -0.36,-0.12 -0.72,0.12 -0.84,0.48 -0.12,0.36 0.12,0.72 0.48,0.84 z m 9.48,2.52 4.2,0.48 c 0.36,0 0.72,-0.24 0.72,-0.6 0,-0.36 -0.24,-0.72 -0.6,-0.84 l -4.2,-0.48 c -0.36,0 -0.72,0.24 -0.72,0.6 0,0.48 0.24,0.84 0.6,0.84 z m 9.72,1.08 3.72,0.48 c 0.12,0 0.24,0 0.24,-0.12 l 0.48,-0.12 c 0.36,-0.12 0.48,-0.48 0.36,-0.84 -0.12,-0.36 -0.48,-0.6 -0.84,-0.48 l -0.48,0.24 0.36,-0.12 -3.72,-0.36 c -0.36,-0.12 -0.72,0.24 -0.72,0.6 -0.12,0.36 0.12,0.72 0.6,0.72 z m 9.6,-1.68 2.16,-0.84 h -0.72 l 1.56,1.08 c 0.24,0.24 0.72,0.12 0.96,-0.12 0.24,-0.36 0.12,-0.72 -0.12,-0.96 l -1.56,-1.2 c -0.12,-0.12 -0.48,-0.12 -0.6,-0.12 l -2.16,0.84 c -0.36,0.12 -0.6,0.6 -0.36,0.96 0.12,0.36 0.48,0.48 0.84,0.36 z m 7.44,3.6 1.68,1.32 c 0.24,0.12 0.48,0.12 0.6,0.12 l 2.04,-0.48 c 0.36,-0.12 0.6,-0.48 0.48,-0.84 -0.12,-0.48 -0.48,-0.6 -0.84,-0.6 l -1.92,0.6 h 0.48 l -1.68,-1.2 c -0.36,-0.24 -0.72,-0.24 -0.96,0.12 -0.24,0.24 -0.24,0.72 0.12,0.96 z m 9.6,-0.48 0.48,-0.12 -0.6,-0.12 3,2.28 c 0.36,0.12 0.72,0.12 0.96,-0.24 0.24,-0.24 0.24,-0.72 -0.12,-0.96 l -3,-2.16 c -0.12,-0.12 -0.36,-0.24 -0.6,-0.12 l -0.36,0.12 c -0.36,0.12 -0.6,0.48 -0.6,0.84 0.12,0.36 0.48,0.6 0.84,0.48 z m 7.32,5.28 0.36,0.24 c 0.12,0.12 0.36,0.24 0.48,0.12 l 3.72,-0.72 c 0.36,0 0.72,-0.36 0.6,-0.72 -0.12,-0.48 -0.48,-0.72 -0.84,-0.6 l -3.72,0.72 0.6,0.12 -0.36,-0.24 c -0.24,-0.24 -0.72,-0.12 -0.96,0.12 -0.24,0.36 -0.12,0.72 0.12,0.96 z m 8.88,-0.12 2.52,3.24 c 0.24,0.24 0.72,0.36 0.96,0.12 0.36,-0.24 0.36,-0.72 0.12,-0.96 l -2.52,-3.36 c -0.24,-0.24 -0.72,-0.24 -0.96,0 -0.36,0.24 -0.36,0.6 -0.12,0.96 z m 6,7.56 0.72,0.96 c 0.12,0.12 0.36,0.24 0.6,0.24 0.12,0 0.36,-0.12 0.48,-0.24 l 2.04,-2.16 c 0.24,-0.36 0.24,-0.72 0,-0.96 -0.36,-0.36 -0.72,-0.24 -1.08,0 l -2.04,2.16 1.08,0.12 -0.72,-0.96 c -0.24,-0.24 -0.6,-0.36 -0.96,-0.12 -0.24,0.24 -0.36,0.72 -0.12,0.96 z m 7.56,-5.4 1.92,-2.04 -0.84,0.12 1.08,0.6 c 0.36,0.24 0.72,0.12 0.96,-0.24 0.24,-0.24 0.12,-0.72 -0.24,-0.96 l -1.08,-0.6 c -0.24,-0.24 -0.6,-0.12 -0.84,0.12 l -1.92,2.16 c -0.36,0.24 -0.24,0.72 0,0.96 0.24,0.24 0.72,0.24 0.96,-0.12 z m 6.96,1.68 1.8,1.08 c 0.36,0.24 0.6,0.12 0.84,0 l 1.44,-1.32 c 0.36,-0.24 0.36,-0.72 0.12,-0.96 -0.24,-0.36 -0.72,-0.36 -0.96,-0.12 l -1.44,1.32 0.72,-0.12 -1.8,-1.08 c -0.36,-0.24 -0.84,-0.12 -0.96,0.24 -0.24,0.24 -0.12,0.72 0.24,0.96 z m 8.28,-3.96 2.16,-1.8 -1.08,-0.12 0.84,1.08 c 0.24,0.36 0.72,0.36 1.08,0.12 0.24,-0.24 0.24,-0.72 0,-0.96 l -0.84,-1.08 c -0.12,-0.12 -0.24,-0.24 -0.48,-0.24 -0.12,0 -0.36,0 -0.48,0.12 l -2.04,1.8 c -0.36,0.36 -0.36,0.72 -0.12,1.08 0.24,0.24 0.72,0.24 0.96,0 z m 5.4,3.48 2.64,3.36 c 0.24,0.24 0.72,0.36 0.96,0.12 0.36,-0.24 0.36,-0.72 0.12,-1.08 l -2.64,-3.24 c -0.24,-0.24 -0.6,-0.36 -0.96,-0.12 -0.24,0.24 -0.36,0.72 -0.12,0.96 z m 6.84,7.2 3.12,2.64 c 0.36,0.24 0.84,0.24 1.08,-0.12 0.24,-0.24 0.12,-0.72 -0.12,-0.96 l -3.24,-2.64 c -0.24,-0.24 -0.72,-0.24 -0.96,0.12 -0.24,0.24 -0.24,0.72 0.12,0.96 z m 7.8,5.88 3.48,2.28 c 0.36,0.24 0.84,0.12 0.96,-0.24 0.24,-0.24 0.12,-0.72 -0.12,-0.96 l -3.6,-2.28 c -0.24,-0.12 -0.72,-0.12 -0.96,0.24 -0.12,0.36 -0.12,0.72 0.24,0.96 z m 6.96,-1.8 1.32,-3.96 c 0.24,-0.36 0,-0.72 -0.36,-0.84 -0.36,-0.12 -0.72,0 -0.84,0.36 l -1.44,3.96 c -0.12,0.36 0,0.72 0.36,0.84 0.36,0.24 0.84,0 0.96,-0.36 z m 3.24,-9.12 1.44,-3.96 c 0.12,-0.36 -0.12,-0.84 -0.48,-0.96 -0.36,-0.12 -0.72,0.12 -0.84,0.48 l -1.44,3.96 c -0.12,0.36 0.12,0.72 0.48,0.84 0.36,0.12 0.72,0 0.84,-0.36 z m 2.28,-7.08 2.4,3.36 c 0.24,0.36 0.72,0.36 0.96,0.24 0.36,-0.24 0.36,-0.72 0.24,-0.96 l -2.4,-3.48 c -0.24,-0.36 -0.72,-0.36 -0.96,-0.24 -0.36,0.24 -0.48,0.72 -0.24,1.08 z m 5.64,7.92 1.44,2.28 c 0.12,0.12 0.36,0.24 0.6,0.24 0.12,0 0.36,0 0.48,-0.12 l 1.08,-1.08 c 0.24,-0.24 0.24,-0.72 0,-0.96 -0.24,-0.24 -0.72,-0.24 -0.96,0 l -1.08,0.96 1.08,0.12 -1.56,-2.16 c -0.24,-0.36 -0.6,-0.48 -0.96,-0.24 -0.36,0.24 -0.36,0.72 -0.12,0.96 z m 7.56,-2.52 2.76,-2.64 c 0,-0.12 0.12,-0.24 0.12,-0.24 l 0.12,-0.36 c 0.12,-0.36 0,-0.84 -0.36,-0.96 -0.36,-0.12 -0.84,0 -0.96,0.36 l -0.12,0.36 0.12,-0.24 -2.64,2.64 c -0.24,0.36 -0.24,0.72 0,1.08 0.24,0.24 0.72,0.24 0.96,0 z m 5.04,-8.52 1.44,-3.84 c 0.12,-0.36 0,-0.84 -0.36,-0.96 -0.36,-0.12 -0.72,0.12 -0.96,0.48 l -1.44,3.84 c -0.12,0.36 0,0.72 0.36,0.96 0.36,0.12 0.84,-0.12 0.96,-0.48 z m 3.48,-9 1.56,-3.96 c 0.12,-0.36 -0.12,-0.72 -0.48,-0.84 -0.36,-0.24 -0.72,0 -0.84,0.36 l -1.56,3.84 c -0.12,0.36 0.12,0.84 0.48,0.96 0.36,0.12 0.72,0 0.84,-0.36 z m 2.76,-9.48 0.72,-4.08 c 0,-0.48 -0.24,-0.84 -0.6,-0.84 -0.36,-0.12 -0.72,0.24 -0.84,0.6 l -0.72,4.08 c 0,0.36 0.24,0.72 0.6,0.84 0.36,0 0.72,-0.24 0.84,-0.6 z m 1.56,-9.6 0.72,-4.08 c 0,-0.48 -0.24,-0.84 -0.6,-0.84 -0.36,-0.12 -0.72,0.24 -0.84,0.6 l -0.6,4.08 c -0.12,0.36 0.12,0.72 0.48,0.84 0.48,0 0.84,-0.24 0.84,-0.6 z m 1.56,-9.6 0.72,-4.2 c 0.12,-0.36 -0.24,-0.72 -0.6,-0.72 -0.36,-0.12 -0.72,0.12 -0.72,0.6 l -0.72,4.08 c -0.12,0.36 0.24,0.72 0.6,0.84 0.36,0 0.72,-0.24 0.72,-0.6 z m 1.68,-9.6 0.6,-4.2 c 0.12,-0.36 -0.12,-0.72 -0.6,-0.72 -0.36,-0.12 -0.72,0.12 -0.72,0.6 l -0.72,4.08 c 0,0.36 0.24,0.72 0.6,0.84 0.36,0 0.72,-0.24 0.84,-0.6 z m 1.56,-9.6 0.6,-4.2 c 0.12,-0.36 -0.12,-0.72 -0.48,-0.72 -0.48,-0.12 -0.72,0.12 -0.84,0.48 l -0.72,4.2 c 0,0.36 0.24,0.72 0.6,0.72 0.36,0.12 0.72,-0.12 0.84,-0.48 z"
       style="fill:#00b050;fill-opacity:1;fill-rule:nonzero;stroke:none"
       id="path5217"
       inkscape:connector-curvature="0" /><path
       d="m 94.2,355.8 0.72,4.08 c 0,0.36 0.36,0.6 0.72,0.6 0.48,-0.12 0.72,-0.36 0.6,-0.84 l -0.6,-4.08 c -0.12,-0.36 -0.48,-0.6 -0.84,-0.6 -0.36,0.12 -0.6,0.48 -0.6,0.84 z m 1.56,9.6 0.6,4.08 c 0.12,0.36 0.48,0.72 0.84,0.6 0.36,0 0.6,-0.36 0.6,-0.72 l -0.72,-4.2 c 0,-0.36 -0.36,-0.6 -0.72,-0.6 -0.48,0.12 -0.72,0.48 -0.6,0.84 z m 1.44,9.6 0.6,4.2 c 0.12,0.36 0.48,0.6 0.84,0.48 0.36,0 0.6,-0.36 0.6,-0.72 l -0.6,-4.2 c -0.12,-0.36 -0.48,-0.6 -0.84,-0.48 -0.36,0 -0.6,0.36 -0.6,0.72 z m 1.44,9.6 0.72,4.2 c 0,0.36 0.36,0.6 0.72,0.6 0.48,-0.12 0.72,-0.48 0.6,-0.84 l -0.6,-4.08 c -0.12,-0.48 -0.48,-0.72 -0.84,-0.6 -0.36,0 -0.6,0.36 -0.6,0.72 z m 1.56,9.72 0.6,4.08 c 0.12,0.36 0.48,0.6 0.84,0.6 0.36,-0.12 0.6,-0.48 0.6,-0.84 l -0.72,-4.08 c 0,-0.36 -0.36,-0.72 -0.72,-0.6 -0.36,0 -0.72,0.36 -0.6,0.84 z m 1.44,9.6 0.36,1.8 c 0,0.36 0.24,0.6 0.6,0.6 h 2.28 c 0.36,0 0.72,-0.24 0.72,-0.6 0,-0.48 -0.36,-0.72 -0.72,-0.72 h -2.28 l 0.72,0.6 -0.24,-1.92 c -0.12,-0.36 -0.48,-0.6 -0.84,-0.6 -0.36,0.12 -0.6,0.48 -0.6,0.84 z m 8.76,2.4 4.08,0.72 c 0.36,0 0.72,-0.24 0.84,-0.6 0,-0.36 -0.24,-0.72 -0.6,-0.84 l -4.2,-0.6 c -0.36,0 -0.72,0.24 -0.72,0.6 -0.12,0.36 0.24,0.72 0.6,0.72 z m 9.72,1.32 4.08,0.24 c 0.48,0 0.72,-0.36 0.72,-0.72 0.12,-0.36 -0.24,-0.72 -0.6,-0.72 l -4.2,-0.24 c -0.36,0 -0.72,0.36 -0.72,0.72 0,0.36 0.24,0.72 0.72,0.72 z m 9.6,0.6 3.84,0.36 -0.6,-0.48 0.12,0.36 c 0.12,0.36 0.6,0.6 0.96,0.48 0.24,-0.12 0.48,-0.6 0.36,-0.96 l -0.12,-0.36 c -0.12,-0.24 -0.36,-0.36 -0.6,-0.48 l -3.84,-0.24 c -0.36,-0.12 -0.72,0.24 -0.72,0.6 0,0.36 0.24,0.72 0.6,0.72 z m 5.4,5.52 1.56,3.84 c 0.12,0.36 0.48,0.48 0.84,0.36 0.36,-0.12 0.6,-0.48 0.36,-0.84 l -1.44,-3.96 c -0.12,-0.36 -0.6,-0.48 -0.96,-0.36 -0.36,0.12 -0.48,0.6 -0.36,0.96 z m 3.6,9 1.44,3.96 c 0.12,0.36 0.6,0.48 0.96,0.36 0.36,-0.12 0.48,-0.6 0.36,-0.96 l -1.56,-3.84 c -0.12,-0.36 -0.48,-0.6 -0.84,-0.36 -0.36,0.12 -0.6,0.48 -0.36,0.84 z m 3.72,0.6 0.48,-4.2 c 0,-0.36 -0.24,-0.72 -0.6,-0.72 -0.36,-0.12 -0.72,0.24 -0.84,0.6 l -0.36,4.08 c -0.12,0.48 0.24,0.72 0.6,0.84 0.36,0 0.72,-0.24 0.72,-0.6 z m 1.08,-9.72 0.48,-4.2 c 0,-0.36 -0.24,-0.72 -0.6,-0.72 -0.36,0 -0.72,0.24 -0.84,0.6 l -0.36,4.2 c -0.12,0.36 0.12,0.72 0.6,0.72 0.36,0.12 0.72,-0.24 0.72,-0.6 z m 1.08,-9.72 0.48,-4.08 c 0,-0.36 -0.24,-0.72 -0.6,-0.84 -0.36,0 -0.72,0.24 -0.84,0.72 l -0.48,4.08 c 0,0.36 0.24,0.72 0.72,0.84 0.36,0 0.72,-0.24 0.72,-0.72 z m 1.08,-9.6 0.48,-4.2 c 0,-0.36 -0.24,-0.72 -0.6,-0.72 -0.48,-0.12 -0.72,0.24 -0.84,0.6 l -0.48,4.08 c 0,0.48 0.24,0.84 0.72,0.84 0.36,0 0.72,-0.24 0.72,-0.6 z m 1.08,-9.72 0.48,-4.08 c 0,-0.48 -0.24,-0.84 -0.6,-0.84 -0.48,0 -0.72,0.24 -0.84,0.6 l -0.48,4.2 c 0,0.36 0.24,0.72 0.6,0.72 0.48,0.12 0.72,-0.24 0.84,-0.6 z m 1.08,-9.72 0.48,-4.08 c 0,-0.36 -0.24,-0.72 -0.72,-0.84 -0.36,0 -0.72,0.24 -0.72,0.72 l -0.48,4.08 c 0,0.36 0.24,0.72 0.6,0.84 0.48,0 0.72,-0.24 0.84,-0.72 z m 1.08,-9.6 0.48,-4.2 c 0,-0.36 -0.24,-0.72 -0.72,-0.72 -0.36,-0.12 -0.72,0.24 -0.72,0.6 l -0.48,4.2 c 0,0.36 0.24,0.72 0.6,0.72 0.36,0 0.72,-0.24 0.84,-0.6 z m 1.2,-9.6 0.72,-4.08 c 0.12,-0.48 -0.12,-0.84 -0.48,-0.84 -0.48,-0.12 -0.84,0.12 -0.84,0.48 l -0.72,4.2 c -0.12,0.36 0.12,0.72 0.48,0.72 0.36,0.12 0.72,-0.12 0.84,-0.48 z m 1.68,-9.6 0.84,-4.08 c 0,-0.36 -0.24,-0.72 -0.6,-0.84 -0.36,-0.12 -0.72,0.12 -0.84,0.6 l -0.72,4.08 c 0,0.36 0.24,0.72 0.6,0.84 0.36,0 0.72,-0.24 0.72,-0.6 z m 1.8,-9.6 0.72,-4.08 c 0.12,-0.36 -0.12,-0.72 -0.48,-0.84 -0.36,0 -0.72,0.24 -0.84,0.6 l -0.72,4.08 c -0.12,0.36 0.12,0.72 0.48,0.84 0.36,0 0.84,-0.24 0.84,-0.6 z m 1.8,-9.6 0.72,-4.08 c 0,-0.36 -0.24,-0.72 -0.6,-0.84 -0.36,0 -0.72,0.24 -0.72,0.6 l -0.84,4.08 c 0,0.36 0.24,0.72 0.6,0.84 0.36,0.12 0.72,-0.24 0.84,-0.6 z m 1.68,-9.6 0.36,-1.56 -1.32,0.24 1.56,2.04 c 0.24,0.36 0.72,0.36 1.08,0.12 0.24,-0.24 0.24,-0.72 0.12,-0.96 l -1.56,-2.04 c -0.24,-0.24 -0.48,-0.24 -0.72,-0.24 -0.36,0.12 -0.48,0.36 -0.6,0.6 l -0.24,1.56 c -0.12,0.48 0.12,0.84 0.6,0.84 0.36,0.12 0.72,-0.12 0.72,-0.6 z m 4.08,5.16 2.52,3.24 c 0.24,0.24 0.72,0.36 0.96,0.12 0.36,-0.24 0.36,-0.72 0.12,-0.96 l -2.52,-3.36 c -0.24,-0.24 -0.72,-0.36 -0.96,-0.12 -0.36,0.24 -0.36,0.72 -0.12,1.08 z m 2.88,8.4 0.36,4.08 c 0,0.36 0.36,0.72 0.72,0.72 0.36,-0.12 0.6,-0.36 0.6,-0.72 l -0.24,-4.2 c 0,-0.36 -0.36,-0.72 -0.72,-0.72 -0.36,0.12 -0.72,0.36 -0.72,0.84 z m 0.72,9.72 0.24,4.08 c 0,0.36 0.36,0.72 0.72,0.72 0.36,-0.12 0.72,-0.36 0.6,-0.84 l -0.24,-4.08 c 0,-0.36 -0.36,-0.72 -0.72,-0.72 -0.36,0.12 -0.72,0.36 -0.6,0.84 z m 0.6,9.6 0.24,4.2 c 0,0.36 0.36,0.72 0.72,0.72 0.36,-0.12 0.72,-0.36 0.72,-0.84 l -0.36,-4.08 c 0,-0.36 -0.36,-0.72 -0.72,-0.72 -0.36,0.12 -0.6,0.36 -0.6,0.72 z m 0.6,9.72 0.24,4.2 c 0,0.36 0.36,0.72 0.72,0.72 0.48,-0.12 0.72,-0.36 0.72,-0.84 l -0.24,-4.08 c -0.12,-0.36 -0.36,-0.72 -0.84,-0.72 -0.36,0.12 -0.6,0.36 -0.6,0.72 z m 0.6,9.72 0.24,4.2 c 0.12,0.36 0.36,0.72 0.84,0.72 0.36,-0.12 0.6,-0.36 0.6,-0.84 L 168,369.6 c 0,-0.36 -0.36,-0.72 -0.72,-0.72 -0.48,0.12 -0.72,0.36 -0.72,0.72 z m 0.6,9.72 0.36,4.2 c 0,0.36 0.36,0.72 0.72,0.72 0.36,-0.12 0.6,-0.36 0.6,-0.84 l -0.24,-4.08 c 0,-0.48 -0.36,-0.72 -0.72,-0.72 -0.36,0 -0.72,0.36 -0.72,0.72 z m 0.72,9.72 0.24,4.2 c 0,0.36 0.36,0.72 0.72,0.72 0.36,-0.12 0.72,-0.36 0.6,-0.84 l -0.24,-4.08 c 0,-0.48 -0.36,-0.72 -0.72,-0.72 -0.36,0 -0.72,0.36 -0.6,0.72 z m 0.6,9.72 0.24,4.2 c 0,0.36 0.36,0.72 0.72,0.72 0.36,-0.12 0.72,-0.36 0.72,-0.84 l -0.36,-4.08 c 0,-0.48 -0.36,-0.72 -0.72,-0.72 -0.36,0 -0.6,0.36 -0.6,0.72 z m 0.6,9.72 0.24,4.2 c 0,0.36 0.36,0.72 0.72,0.6 0.48,0 0.72,-0.24 0.72,-0.72 l -0.24,-4.08 c -0.12,-0.48 -0.36,-0.72 -0.84,-0.72 -0.36,0 -0.6,0.36 -0.6,0.72 z m 0.6,9.72 0.24,4.2 c 0.12,0.36 0.36,0.72 0.84,0.6 0.36,0 0.6,-0.36 0.6,-0.72 l -0.24,-4.08 c 0,-0.48 -0.36,-0.72 -0.72,-0.72 -0.48,0 -0.72,0.36 -0.72,0.72 z m 0.6,9.72 0.36,4.2 c 0,0.36 0.36,0.72 0.72,0.6 0.36,0 0.6,-0.36 0.6,-0.72 l -0.24,-4.08 c 0,-0.48 -0.36,-0.72 -0.72,-0.72 -0.36,0 -0.72,0.36 -0.72,0.72 z m 0.72,9.72 0.24,4.2 c 0,0.36 0.36,0.72 0.72,0.6 0.36,0 0.72,-0.36 0.6,-0.72 l -0.24,-4.08 c 0,-0.48 -0.36,-0.72 -0.72,-0.72 -0.36,0 -0.72,0.36 -0.6,0.72 z m 2.64,9 4.2,0.84 c 0.36,0 0.72,-0.24 0.72,-0.6 0.12,-0.36 -0.12,-0.72 -0.48,-0.84 L 174,445.32 c -0.48,-0.12 -0.84,0.12 -0.84,0.48 -0.12,0.48 0.12,0.84 0.48,0.84 z m 7.92,-2.76 1.32,-3.96 c 0.12,-0.36 -0.12,-0.72 -0.48,-0.84 -0.36,-0.12 -0.72,0.12 -0.84,0.48 l -1.32,3.96 c -0.12,0.36 0.12,0.72 0.48,0.84 0.36,0.12 0.72,0 0.84,-0.48 z m 3,-9.24 1.2,-3.96 c 0.12,-0.36 -0.12,-0.72 -0.48,-0.84 -0.36,-0.12 -0.72,0 -0.84,0.36 l -1.2,4.08 c -0.12,0.36 0,0.72 0.36,0.84 0.36,0.12 0.84,-0.12 0.96,-0.48 z m 2.88,-9.24 0.84,-2.64 -0.96,0.48 1.44,0.48 c 0.36,0.12 0.72,0 0.84,-0.36 0.12,-0.36 0,-0.84 -0.36,-0.96 l -1.44,-0.48 c -0.12,0 -0.36,0 -0.48,0 -0.24,0.12 -0.36,0.24 -0.36,0.48 l -0.84,2.52 c -0.12,0.36 0.12,0.72 0.48,0.84 0.36,0.12 0.72,0 0.84,-0.36 z m 6.48,0.24 1.2,0.36 -0.36,-0.12 2.16,2.16 c 0.24,0.36 0.6,0.36 0.96,0 0.24,-0.24 0.24,-0.6 0,-0.96 l -2.04,-2.16 c -0.12,-0.12 -0.24,-0.12 -0.36,-0.12 l -1.08,-0.48 c -0.36,-0.12 -0.72,0.12 -0.84,0.48 -0.12,0.36 0,0.72 0.36,0.84 z m 6.72,6.48 1.92,1.92 c 0.12,0.12 0.36,0.24 0.6,0.24 0.12,0 0.36,-0.24 0.48,-0.36 l 0.72,-1.32 c 0.24,-0.36 0.12,-0.84 -0.24,-0.96 -0.36,-0.24 -0.84,-0.12 -0.96,0.24 l -0.72,1.32 1.08,-0.12 -1.8,-1.92 c -0.24,-0.24 -0.72,-0.24 -0.96,0 -0.36,0.24 -0.36,0.72 -0.12,0.96 z m 6.36,-4.44 2.04,-3.6 c 0.24,-0.36 0.12,-0.84 -0.24,-0.96 -0.36,-0.24 -0.72,-0.12 -0.96,0.24 l -2.04,3.72 c -0.12,0.24 0,0.72 0.36,0.96 0.24,0.12 0.72,0 0.84,-0.36 z m 4.8,-7.8 3.72,-1.92 c 0.36,-0.12 0.48,-0.48 0.36,-0.84 -0.12,-0.36 -0.6,-0.48 -0.96,-0.36 l -3.72,1.8 c -0.36,0.24 -0.48,0.6 -0.36,0.96 0.24,0.36 0.6,0.48 0.96,0.36 z m 8.52,-3 4.08,0.96 c 0.36,0 0.72,-0.24 0.84,-0.6 0,-0.36 -0.24,-0.72 -0.6,-0.84 l -4.08,-0.84 c -0.36,-0.12 -0.72,0.12 -0.84,0.6 0,0.36 0.24,0.72 0.6,0.72 z m 9.72,1.44 3.84,0.12 -0.24,-0.12 0.36,0.12 c 0.36,0.12 0.72,-0.12 0.84,-0.48 0.12,-0.36 -0.12,-0.72 -0.48,-0.84 L 234,417 c 0,0 0,0 -0.12,0 l -3.84,-0.12 c -0.36,0 -0.72,0.24 -0.72,0.72 0,0.36 0.36,0.72 0.72,0.72 z m 9.36,1.56 2.04,0.6 c 0.12,0 0.24,0 0.36,0 l 1.92,-0.6 c 0.48,-0.12 0.6,-0.48 0.48,-0.84 0,-0.36 -0.48,-0.6 -0.84,-0.48 l -1.92,0.48 h 0.36 l -2.04,-0.48 c -0.36,-0.12 -0.72,0.12 -0.84,0.48 -0.12,0.36 0.12,0.72 0.48,0.84 z m 9.72,-1.56 0.36,-0.12 c 0.24,0 0.36,-0.12 0.36,-0.24 l 2.16,-3.24 c 0.12,-0.24 0.12,-0.72 -0.24,-0.96 -0.36,-0.12 -0.72,-0.12 -0.96,0.24 l -2.04,3.12 0.36,-0.24 -0.36,0.12 c -0.36,0.12 -0.6,0.48 -0.48,0.84 0.12,0.36 0.48,0.6 0.84,0.48 z m 5.88,-8.28 2.28,-3.48 c 0.24,-0.24 0.12,-0.72 -0.24,-0.96 -0.24,-0.12 -0.72,-0.12 -0.96,0.24 l -2.28,3.48 c -0.12,0.36 -0.12,0.72 0.24,0.96 0.36,0.24 0.72,0.12 0.96,-0.24 z m 3.24,-9.12 0.48,-4.2 c 0,-0.36 -0.24,-0.72 -0.72,-0.72 -0.36,-0.12 -0.72,0.24 -0.72,0.6 l -0.36,4.08 c -0.12,0.48 0.24,0.72 0.6,0.84 0.36,0 0.72,-0.24 0.72,-0.6 z m 0.96,-9.72 0.36,-4.2 c 0.12,-0.36 -0.24,-0.72 -0.6,-0.72 -0.36,0 -0.72,0.24 -0.72,0.6 l -0.36,4.2 c -0.12,0.36 0.24,0.72 0.6,0.72 0.36,0 0.72,-0.24 0.72,-0.6 z m 0.96,-9.72 0.36,-4.2 c 0.12,-0.36 -0.24,-0.72 -0.6,-0.72 -0.36,0 -0.72,0.24 -0.72,0.6 l -0.48,4.2 c 0,0.36 0.24,0.72 0.72,0.72 0.36,0.12 0.72,-0.24 0.72,-0.6 z m 0.96,-9.72 0.36,-4.08 c 0,-0.48 -0.24,-0.72 -0.6,-0.84 -0.36,0 -0.72,0.24 -0.72,0.72 l -0.48,4.08 c 0,0.36 0.24,0.72 0.6,0.72 0.48,0.12 0.72,-0.24 0.84,-0.6 z m 0.96,-9.6 0.36,-4.2 c 0,-0.36 -0.24,-0.72 -0.6,-0.72 -0.36,-0.12 -0.72,0.24 -0.84,0.6 l -0.36,4.08 c 0,0.48 0.24,0.72 0.6,0.84 0.48,0 0.72,-0.24 0.84,-0.6 z m 0.96,-9.72 0.36,-4.2 c 0,-0.36 -0.24,-0.72 -0.6,-0.72 -0.36,-0.12 -0.72,0.24 -0.84,0.6 l -0.36,4.2 c 0,0.36 0.24,0.72 0.6,0.72 0.36,0 0.72,-0.24 0.84,-0.6 z m 0.84,-9.72 0.48,-4.2 c 0,-0.36 -0.24,-0.72 -0.6,-0.72 -0.48,0 -0.72,0.24 -0.84,0.6 l -0.36,4.2 c 0,0.36 0.24,0.72 0.6,0.72 0.36,0 0.72,-0.24 0.72,-0.6 z m 0.96,-9.72 0.48,-4.08 c 0,-0.48 -0.24,-0.72 -0.72,-0.84 -0.36,0 -0.72,0.24 -0.72,0.6 l -0.36,4.2 c -0.12,0.36 0.24,0.72 0.6,0.72 0.36,0.12 0.72,-0.24 0.72,-0.6 z m 2.28,-4.2 3.48,2.16 c 0.36,0.24 0.72,0.12 0.96,-0.12 0.24,-0.36 0.12,-0.84 -0.24,-0.96 l -3.48,-2.28 c -0.24,-0.24 -0.72,-0.12 -0.96,0.24 -0.24,0.24 -0.12,0.72 0.24,0.96 z m 5.04,6.36 0.48,4.2 c 0,0.36 0.36,0.6 0.72,0.6 0.48,0 0.72,-0.36 0.72,-0.72 l -0.48,-4.2 c 0,-0.36 -0.36,-0.6 -0.72,-0.6 -0.48,0 -0.72,0.36 -0.72,0.72 z m 1.08,9.72 0.36,4.2 c 0,0.36 0.36,0.6 0.84,0.6 0.36,0 0.6,-0.36 0.6,-0.84 l -0.48,-4.08 c 0,-0.36 -0.36,-0.72 -0.72,-0.6 -0.36,0 -0.72,0.36 -0.6,0.72 z m 0.96,9.72 0.36,4.08 c 0.12,0.48 0.36,0.72 0.84,0.72 0.36,-0.12 0.6,-0.48 0.6,-0.84 l -0.48,-4.08 c 0,-0.48 -0.36,-0.72 -0.72,-0.72 -0.36,0.12 -0.6,0.48 -0.6,0.84 z m 0.96,9.72 0.48,4.08 c 0,0.36 0.36,0.72 0.72,0.6 0.36,0 0.6,-0.36 0.6,-0.72 l -0.36,-4.2 c -0.12,-0.36 -0.48,-0.6 -0.84,-0.6 -0.36,0 -0.6,0.36 -0.6,0.84 z m 0.96,9.6 0.48,4.2 c 0,0.36 0.36,0.6 0.72,0.6 0.36,0 0.72,-0.36 0.6,-0.72 l -0.36,-4.2 c -0.12,-0.36 -0.36,-0.6 -0.84,-0.6 -0.36,0 -0.6,0.36 -0.6,0.72 z m 0.96,9.72 0.48,4.2 c 0,0.36 0.36,0.6 0.72,0.6 0.36,-0.12 0.72,-0.36 0.6,-0.84 l -0.36,-4.08 c 0,-0.36 -0.36,-0.72 -0.72,-0.6 -0.48,0 -0.72,0.36 -0.72,0.72 z m 1.08,9.72 0.36,4.08 c 0,0.36 0.36,0.72 0.72,0.6 0.48,0 0.72,-0.36 0.72,-0.72 l -0.48,-4.08 c 0,-0.48 -0.36,-0.72 -0.72,-0.72 -0.36,0.12 -0.72,0.48 -0.6,0.84 z m 0.96,9.6 0.36,4.2 c 0.12,0.36 0.36,0.72 0.84,0.6 0.36,0 0.6,-0.36 0.6,-0.72 l -0.48,-4.2 c 0,-0.36 -0.36,-0.6 -0.72,-0.6 -0.36,0 -0.72,0.36 -0.6,0.72 z m 6.24,4.32 2.76,-0.6 c 0.24,-0.12 0.36,-0.24 0.48,-0.48 l 0.6,-1.2 c 0.12,-0.36 0,-0.72 -0.36,-0.84 -0.36,-0.24 -0.84,0 -0.96,0.24 l -0.6,1.32 0.48,-0.48 -2.76,0.6 c -0.36,0.12 -0.6,0.48 -0.48,0.84 0.12,0.36 0.48,0.6 0.84,0.6 z m 6.12,-7.32 1.8,-3.72 c 0.12,-0.36 0,-0.84 -0.36,-0.96 -0.36,-0.12 -0.84,0 -0.96,0.36 l -1.8,3.72 c -0.12,0.36 0,0.84 0.36,0.96 0.36,0.12 0.84,0 0.96,-0.36 z m 4.08,-8.88 0.72,-1.56 -1.2,0.12 1.56,1.8 c 0.24,0.36 0.6,0.36 0.96,0.12 0.24,-0.24 0.36,-0.6 0.12,-0.96 l -1.44,-1.8 c -0.24,-0.24 -0.48,-0.36 -0.72,-0.24 -0.24,0 -0.36,0.12 -0.48,0.36 l -0.84,1.68 c -0.12,0.36 0,0.72 0.36,0.84 0.36,0.24 0.84,0 0.96,-0.36 z m 4.56,4.8 2.52,3.24 c 0.24,0.24 0.72,0.36 0.96,0.12 0.36,-0.24 0.36,-0.72 0.12,-0.96 l -2.52,-3.36 c -0.24,-0.24 -0.72,-0.24 -1.08,0 -0.24,0.24 -0.24,0.6 0,0.96 z m 8.28,4.92 2.52,0.6 c 0.12,0.12 0.36,0.12 0.48,0 l 1.32,-0.6 c 0.36,-0.12 0.6,-0.6 0.36,-0.84 -0.12,-0.36 -0.48,-0.6 -0.84,-0.36 l -1.44,0.48 h 0.48 l -2.64,-0.6 c -0.36,-0.12 -0.72,0.12 -0.84,0.48 -0.12,0.36 0.12,0.72 0.6,0.84 z m 9.48,-2.16 1.2,-0.6 c 0.12,0 0.24,-0.12 0.24,-0.12 l 1.8,-2.28 c 0.24,-0.24 0.24,-0.72 0,-0.96 -0.36,-0.24 -0.84,-0.12 -1.08,0.12 l -1.8,2.16 0.36,-0.12 -1.32,0.48 c -0.36,0.12 -0.48,0.6 -0.36,0.96 0.24,0.36 0.6,0.48 0.96,0.36 z m 6.84,-7.2 2.4,-2.88 -0.96,0.12 0.36,0.24 c 0.36,0.24 0.84,0.12 0.96,-0.24 0.24,-0.36 0.12,-0.72 -0.24,-0.96 l -0.36,-0.24 c -0.24,-0.12 -0.6,-0.12 -0.84,0.12 l -2.4,2.88 c -0.24,0.36 -0.24,0.72 0.12,1.08 0.24,0.24 0.72,0.12 0.96,-0.12 z m 6.6,0.36 2.64,1.44 c 0.24,0.24 0.48,0.12 0.72,0 l 0.96,-0.84 c 0.24,-0.24 0.24,-0.72 0,-0.96 -0.24,-0.36 -0.72,-0.36 -0.96,-0.12 l -0.84,0.84 0.72,-0.12 -2.52,-1.44 c -0.36,-0.24 -0.72,-0.12 -0.96,0.24 -0.12,0.24 -0.12,0.72 0.24,0.96 z m 8.4,-3.12 2.76,-2.4 h -0.96 l 0.48,0.36 c 0.24,0.24 0.72,0.12 0.96,-0.24 0.24,-0.24 0.12,-0.72 -0.12,-0.96 l -0.48,-0.24 c -0.24,-0.24 -0.6,-0.24 -0.84,0 l -2.76,2.4 c -0.24,0.24 -0.24,0.72 0,1.08 0.24,0.24 0.72,0.24 0.96,0 z m 6.72,1.32 2.88,2.16 c 0,0.12 0.12,0.12 0.12,0.12 l 0.6,0.24 c 0.36,0 0.72,-0.12 0.84,-0.48 0.12,-0.36 -0.12,-0.84 -0.48,-0.96 l -0.48,-0.12 0.24,0.12 -2.88,-2.16 c -0.36,-0.24 -0.84,-0.24 -1.08,0.12 -0.24,0.24 -0.12,0.72 0.24,0.96 z m 8.88,4.08 1.92,0.48 -0.24,-0.12 1.68,1.44 c 0.36,0.24 0.72,0.12 0.96,-0.12 0.24,-0.36 0.24,-0.72 -0.12,-0.96 l -1.68,-1.44 c -0.12,0 -0.12,0 -0.24,-0.12 l -1.92,-0.48 c -0.36,-0.12 -0.72,0.12 -0.84,0.48 -0.12,0.36 0.12,0.72 0.48,0.84 z m 7.8,5.28 1.56,1.2 c 0.12,0.12 0.24,0.12 0.36,0.12 l 2.16,0.12 c 0.36,0 0.72,-0.24 0.72,-0.6 0,-0.36 -0.24,-0.72 -0.6,-0.72 l -2.16,-0.12 0.36,0.12 -1.56,-1.2 c -0.36,-0.24 -0.72,-0.24 -0.96,0 -0.24,0.36 -0.24,0.84 0.12,1.08 z m 9.6,1.68 h 0.12 l -0.48,-0.12 2.76,3 c 0.24,0.24 0.72,0.36 0.96,0 0.36,-0.24 0.36,-0.6 0.12,-0.96 l -2.88,-3 c -0.12,-0.12 -0.24,-0.24 -0.48,-0.24 v 0 c -0.36,0 -0.72,0.24 -0.72,0.6 0,0.48 0.24,0.72 0.6,0.72 z m 6.12,6.96 1.32,1.44 c 0.12,0.12 0.24,0.24 0.48,0.24 h 2.28 c 0.36,0 0.72,-0.36 0.72,-0.72 0,-0.36 -0.24,-0.72 -0.72,-0.72 h -2.28 l 0.48,0.24 -1.2,-1.32 c -0.24,-0.36 -0.72,-0.36 -0.96,-0.12 -0.36,0.24 -0.36,0.72 -0.12,0.96 z m 10.08,1.56 3.24,-2.64 c 0.36,-0.24 0.36,-0.72 0.12,-0.96 -0.24,-0.36 -0.72,-0.36 -0.96,-0.12 l -3.24,2.64 c -0.36,0.24 -0.36,0.6 -0.12,0.96 0.24,0.24 0.6,0.36 0.96,0.12 z m 6.84,-6 3.48,2.16 c 0.36,0.24 0.84,0.12 0.96,-0.24 0.24,-0.36 0.12,-0.72 -0.24,-0.96 l -3.48,-2.16 c -0.36,-0.24 -0.72,-0.12 -0.96,0.24 -0.24,0.36 -0.12,0.72 0.24,0.96 z m 7.92,5.16 2.4,3.36 c 0.24,0.24 0.72,0.36 0.96,0.12 0.36,-0.24 0.36,-0.72 0.12,-0.96 l -2.4,-3.36 c -0.24,-0.36 -0.72,-0.36 -0.96,-0.24 -0.36,0.24 -0.36,0.72 -0.12,1.08 z m 5.64,7.8 1.56,2.16 c 0.12,0.12 0.12,0.12 0.24,0.24 l 1.32,0.72 c 0.24,0.24 0.72,0.12 0.96,-0.12 0.12,-0.36 0.12,-0.84 -0.24,-0.96 l -1.32,-0.84 0.24,0.12 -1.56,-2.16 c -0.24,-0.24 -0.72,-0.36 -0.96,-0.12 -0.36,0.24 -0.48,0.72 -0.24,0.96 z m 7.8,6.12 1.68,1.08 c 0.12,0.12 0.12,0.12 0.12,0.12 l 2.04,0.72 c 0.24,0.24 0.72,0 0.84,-0.36 0.12,-0.36 0,-0.72 -0.36,-0.84 l -1.92,-0.84 v 0.12 l -1.68,-1.2 c -0.36,-0.12 -0.72,-0.12 -0.96,0.24 -0.24,0.36 -0.12,0.72 0.24,0.96 z m 9,4.08 0.48,0.24 -0.36,-0.48 1.2,3.36 c 0.24,0.36 0.6,0.6 0.96,0.36 0.36,-0.12 0.48,-0.48 0.36,-0.84 l -1.2,-3.36 c 0,-0.12 -0.24,-0.24 -0.36,-0.36 l -0.6,-0.24 c -0.36,-0.12 -0.72,0 -0.96,0.36 -0.12,0.36 0.12,0.84 0.48,0.96 z m 3.24,8.4 1.44,3.84 c 0.24,0.36 0.6,0.6 0.96,0.48 0.36,-0.24 0.48,-0.6 0.36,-0.96 l -1.44,-3.84 c -0.12,-0.36 -0.48,-0.6 -0.84,-0.48 -0.36,0.12 -0.6,0.6 -0.48,0.96 z m 3.48,9.12 1.2,3.24 c 0,0.12 0.12,0.36 0.36,0.36 0.12,0.12 0.36,0.12 0.6,0 l 0.6,-0.36 c 0.36,-0.12 0.48,-0.6 0.24,-0.96 -0.12,-0.24 -0.6,-0.48 -0.96,-0.24 l -0.6,0.36 0.96,0.36 -1.2,-3.24 c -0.12,-0.36 -0.48,-0.6 -0.84,-0.48 -0.36,0.12 -0.6,0.6 -0.36,0.96 z m 7.68,0.6 2.16,-1.08 -0.84,-0.24 1.08,1.44 c 0.24,0.24 0.6,0.36 0.96,0.12 0.24,-0.24 0.36,-0.72 0.12,-1.08 l -1.08,-1.32 c -0.24,-0.24 -0.6,-0.36 -0.84,-0.12 l -2.28,1.08 c -0.24,0.24 -0.36,0.6 -0.24,0.96 0.24,0.36 0.6,0.48 0.96,0.24 z m 5.76,4.44 2.64,3.24 c 0.24,0.36 0.72,0.36 0.96,0.12 0.36,-0.24 0.36,-0.72 0.12,-0.96 l -2.64,-3.24 c -0.24,-0.36 -0.6,-0.36 -0.96,-0.12 -0.24,0.24 -0.36,0.6 -0.12,0.96 z m 6.12,-0.48 1.56,-3.84 c 0.12,-0.36 0,-0.72 -0.36,-0.84 -0.36,-0.24 -0.84,0 -0.96,0.36 l -1.56,3.84 c -0.12,0.36 0.12,0.84 0.48,0.96 0.36,0.12 0.72,-0.12 0.84,-0.48 z m 3.6,-9 1.56,-3.84 c 0.12,-0.36 0,-0.84 -0.36,-0.96 -0.36,-0.12 -0.84,0 -0.96,0.36 l -1.56,3.96 c -0.12,0.36 0,0.72 0.36,0.84 0.36,0.12 0.84,0 0.96,-0.36 z m 3.96,-4.08 3.48,2.4 c 0.36,0.12 0.72,0.12 0.96,-0.24 0.24,-0.36 0.12,-0.72 -0.12,-0.96 l -3.48,-2.28 c -0.36,-0.24 -0.72,-0.12 -0.96,0.12 -0.24,0.36 -0.12,0.72 0.12,0.96 z m 8.16,0.36 2.52,-3.36 c 0.24,-0.36 0.12,-0.72 -0.24,-0.96 -0.24,-0.24 -0.72,-0.12 -0.96,0.12 l -2.4,3.36 c -0.24,0.36 -0.12,0.84 0.12,1.08 0.36,0.12 0.72,0.12 0.96,-0.24 z m 5.76,-7.8 2.4,-3.36 c 0.24,-0.36 0.24,-0.84 -0.12,-1.08 -0.24,-0.12 -0.72,-0.12 -0.96,0.24 l -2.52,3.36 c -0.12,0.24 -0.12,0.72 0.24,0.96 0.24,0.24 0.72,0.12 0.96,-0.12 z m 5.76,-7.92 1.8,-2.52 c 0.12,0 0.12,-0.12 0.12,-0.24 l 0.24,-1.08 c 0,-0.36 -0.24,-0.72 -0.6,-0.84 -0.36,0 -0.72,0.24 -0.84,0.6 l -0.12,1.08 0.12,-0.36 -1.8,2.52 c -0.24,0.36 -0.24,0.84 0.12,0.96 0.24,0.24 0.72,0.24 0.96,-0.12 z m 2.88,-9.36 0.6,-4.08 c 0,-0.48 -0.24,-0.84 -0.6,-0.84 -0.36,0 -0.72,0.24 -0.84,0.6 l -0.6,4.08 c 0,0.48 0.24,0.84 0.6,0.84 0.48,0 0.84,-0.24 0.84,-0.6 z m 1.32,-9.6 0.6,-4.2 c 0,-0.36 -0.24,-0.72 -0.6,-0.72 -0.48,-0.12 -0.72,0.12 -0.84,0.6 l -0.6,4.08 c 0,0.36 0.24,0.72 0.6,0.84 0.48,0 0.72,-0.24 0.84,-0.6 z m 1.32,-9.72 0.6,-4.08 c 0,-0.36 -0.24,-0.72 -0.6,-0.84 -0.48,0 -0.72,0.24 -0.84,0.6 l -0.6,4.2 c 0,0.36 0.24,0.72 0.6,0.72 0.48,0.12 0.72,-0.24 0.84,-0.6 z m 1.32,-9.6 0.6,-4.2 c 0,-0.36 -0.24,-0.72 -0.6,-0.72 -0.48,-0.12 -0.72,0.24 -0.84,0.6 l -0.6,4.08 c 0,0.36 0.24,0.72 0.6,0.84 0.48,0 0.72,-0.24 0.84,-0.6 z m 1.32,-9.72 0.6,-4.08 c 0,-0.36 -0.24,-0.72 -0.6,-0.84 -0.48,0 -0.84,0.24 -0.84,0.6 l -0.6,4.2 c 0,0.36 0.24,0.72 0.6,0.72 0.36,0.12 0.72,-0.12 0.84,-0.6 z m 1.32,-9.6 0.24,-1.92 c 0,-0.36 -0.24,-0.72 -0.6,-0.84 -0.36,0 -0.72,0.24 -0.72,0.6 l -0.36,1.92 c 0,0.48 0.24,0.84 0.6,0.84 0.36,0 0.72,-0.24 0.84,-0.6 z"
       style="fill:#c00000;fill-opacity:1;fill-rule:nonzero;stroke:none"
       id="path5219"
       inkscape:connector-curvature="0" /><path
       d="m 94.2,352.44 0.48,4.2 c 0.12,0.36 0.48,0.6 0.84,0.6 0.36,0 0.6,-0.36 0.6,-0.72 l -0.48,-4.2 c 0,-0.36 -0.36,-0.6 -0.72,-0.6 -0.48,0 -0.72,0.36 -0.72,0.72 z m 1.2,9.72 0.48,4.2 c 0,0.36 0.36,0.6 0.72,0.6 0.36,-0.12 0.72,-0.48 0.6,-0.84 l -0.48,-4.08 c 0,-0.48 -0.36,-0.72 -0.72,-0.6 -0.36,0 -0.72,0.36 -0.6,0.72 z m 1.08,9.72 0.48,4.08 c 0,0.36 0.36,0.72 0.72,0.6 0.48,0 0.72,-0.36 0.6,-0.72 l -0.48,-4.2 c 0,-0.36 -0.36,-0.6 -0.72,-0.6 -0.36,0.12 -0.6,0.36 -0.6,0.84 z m 1.08,9.6 0.48,4.2 c 0.12,0.36 0.36,0.6 0.84,0.6 0.36,-0.12 0.6,-0.36 0.6,-0.84 L 99,381.36 c -0.12,-0.36 -0.36,-0.72 -0.84,-0.6 -0.36,0 -0.6,0.36 -0.6,0.72 z m 1.2,9.72 0.36,4.08 c 0.12,0.48 0.48,0.72 0.84,0.6 0.36,0 0.6,-0.36 0.6,-0.72 l -0.48,-4.2 c 0,-0.36 -0.36,-0.6 -0.72,-0.6 -0.48,0.12 -0.72,0.48 -0.6,0.84 z m 1.08,9.6 0.48,4.2 c 0,0.36 0.36,0.6 0.72,0.6 0.36,0 0.72,-0.36 0.6,-0.72 l -0.48,-4.2 c 0,-0.36 -0.36,-0.6 -0.72,-0.6 -0.36,0 -0.72,0.36 -0.6,0.72 z m 1.08,9.72 0.48,4.2 c 0,0.36 0.36,0.6 0.72,0.6 0.48,-0.12 0.72,-0.48 0.72,-0.84 l -0.48,-4.08 c -0.12,-0.36 -0.48,-0.72 -0.84,-0.6 -0.36,0 -0.6,0.36 -0.6,0.72 z m 1.44,9.84 2.04,3.72 c 0.24,0.24 0.6,0.36 0.96,0.24 0.36,-0.24 0.48,-0.6 0.24,-0.96 l -1.92,-3.72 c -0.24,-0.24 -0.6,-0.36 -0.96,-0.24 -0.36,0.24 -0.48,0.6 -0.36,0.96 z m 4.68,8.52 2.04,3.72 c 0.12,0.36 0.6,0.48 0.96,0.24 0.36,-0.12 0.48,-0.6 0.24,-0.96 l -2.04,-3.6 c -0.12,-0.36 -0.6,-0.48 -0.84,-0.36 -0.36,0.24 -0.48,0.6 -0.36,0.96 z m 7.44,5.64 3.48,0.36 -0.36,-0.12 0.48,0.24 c 0.36,0.24 0.84,0.24 0.96,-0.12 0.24,-0.24 0.24,-0.72 -0.12,-0.96 l -0.48,-0.36 c -0.12,0 -0.24,-0.12 -0.36,-0.12 l -3.48,-0.24 c -0.48,-0.12 -0.72,0.24 -0.84,0.6 0,0.36 0.24,0.72 0.72,0.72 z m 8.16,3.84 2.76,2.04 -0.24,-0.24 0.24,0.6 c 0.24,0.36 0.6,0.6 0.96,0.36 0.36,-0.12 0.48,-0.48 0.36,-0.84 l -0.24,-0.72 c -0.12,-0.12 -0.24,-0.12 -0.24,-0.24 l -2.88,-2.04 c -0.24,-0.24 -0.72,-0.24 -0.96,0.12 -0.24,0.36 -0.12,0.72 0.24,0.96 z m 5.04,7.56 1.68,3.72 c 0.24,0.36 0.6,0.6 0.96,0.36 0.36,-0.12 0.48,-0.48 0.36,-0.84 L 129,445.32 c -0.24,-0.36 -0.6,-0.48 -0.96,-0.36 -0.36,0.12 -0.48,0.6 -0.36,0.96 z m 3.96,8.88 1.32,2.88 c 0.12,0.24 0.36,0.36 0.6,0.36 0.24,0 0.48,-0.12 0.6,-0.36 l 0.48,-0.96 c 0.12,-0.36 0,-0.72 -0.36,-0.96 -0.36,-0.12 -0.72,0 -0.96,0.36 l -0.36,0.96 h 1.2 l -1.2,-2.88 c -0.24,-0.36 -0.6,-0.48 -0.96,-0.36 -0.36,0.24 -0.48,0.6 -0.36,0.96 z m 5.28,-3.12 1.68,-3.84 c 0.12,-0.36 0,-0.72 -0.36,-0.96 -0.36,-0.12 -0.72,0 -0.84,0.36 l -1.8,3.84 c -0.12,0.36 0,0.72 0.36,0.96 0.36,0.12 0.84,0 0.96,-0.36 z m 3.96,-8.88 1.08,-2.4 -0.24,0.24 1.2,-1.08 c 0.36,-0.24 0.36,-0.6 0.12,-0.96 -0.24,-0.24 -0.72,-0.24 -0.96,0 l -1.2,1.08 c -0.12,0 -0.24,0.12 -0.24,0.24 l -1.08,2.28 c -0.12,0.36 0,0.72 0.36,0.96 0.36,0.12 0.84,0 0.96,-0.36 z m 6.24,-6.84 2.4,-2.04 -1.08,-0.24 0.48,0.96 c 0.24,0.36 0.6,0.48 0.96,0.24 0.36,-0.24 0.48,-0.6 0.24,-0.96 l -0.48,-0.96 c -0.12,-0.12 -0.36,-0.24 -0.48,-0.36 -0.24,0 -0.48,0.12 -0.6,0.24 l -2.28,2.04 c -0.36,0.24 -0.36,0.72 -0.12,0.96 0.24,0.36 0.72,0.36 0.96,0.12 z m 4.56,3.48 2.04,3.6 c 0.24,0.36 0.6,0.48 0.96,0.36 0.36,-0.24 0.48,-0.6 0.24,-0.96 l -2.04,-3.72 c -0.24,-0.24 -0.6,-0.36 -0.96,-0.24 -0.36,0.24 -0.48,0.6 -0.24,0.96 z m 5.4,8.4 3.84,1.68 c 0.36,0.12 0.84,0 0.96,-0.36 0.12,-0.36 0,-0.84 -0.36,-0.96 l -3.84,-1.56 c -0.36,-0.12 -0.84,0 -0.96,0.36 -0.12,0.36 0,0.72 0.36,0.84 z m 8.64,4.08 3.36,2.52 c 0.36,0.24 0.72,0.12 0.96,-0.24 0.24,-0.24 0.24,-0.72 -0.12,-0.96 l -3.36,-2.4 c -0.36,-0.24 -0.72,-0.12 -0.96,0.12 -0.24,0.36 -0.24,0.72 0.12,0.96 z m 8.76,4.2 4.2,-0.6 c 0.36,-0.12 0.6,-0.36 0.6,-0.84 -0.12,-0.36 -0.48,-0.6 -0.84,-0.6 l -4.08,0.6 c -0.36,0.12 -0.72,0.48 -0.6,0.84 0,0.36 0.36,0.6 0.72,0.6 z m 8.88,-3.96 3,-3 c 0.24,-0.24 0.24,-0.72 0,-0.96 -0.24,-0.24 -0.72,-0.24 -0.96,0 l -3,3 c -0.24,0.24 -0.24,0.72 0,0.96 0.24,0.24 0.72,0.24 0.96,0 z m 6.84,-6.96 2.88,-3 c 0.36,-0.24 0.36,-0.72 0,-0.96 -0.24,-0.24 -0.72,-0.24 -0.96,0 l -2.88,3 c -0.24,0.24 -0.24,0.72 0,0.96 0.24,0.36 0.72,0.24 0.96,0 z m 5.64,-4.56 2.64,3.24 c 0.24,0.24 0.72,0.24 1.08,0 0.24,-0.24 0.24,-0.6 0,-0.96 l -2.64,-3.12 c -0.24,-0.36 -0.72,-0.36 -0.96,-0.12 -0.36,0.24 -0.36,0.72 -0.12,0.96 z m 6.24,7.44 0.36,0.48 c 0.12,0 0.12,0 0.12,0.12 l 2.76,2.28 c 0.24,0.24 0.72,0.24 0.96,0 0.24,-0.36 0.24,-0.84 -0.12,-1.08 l -2.64,-2.28 v 0 l -0.36,-0.36 c -0.24,-0.36 -0.72,-0.36 -0.96,-0.12 -0.36,0.24 -0.36,0.72 -0.12,0.96 z m 7.44,6.6 0.72,0.6 c 0.24,0.24 0.48,0.24 0.72,0.12 l 3,-1.08 c 0.36,-0.12 0.48,-0.48 0.36,-0.84 -0.12,-0.36 -0.48,-0.6 -0.84,-0.48 l -3,1.08 0.72,0.12 -0.84,-0.6 c -0.24,-0.24 -0.72,-0.24 -0.96,0 -0.24,0.36 -0.24,0.72 0.12,1.08 z m 9.72,-2.76 2.4,-3.36 c 0.24,-0.36 0.12,-0.84 -0.12,-0.96 -0.36,-0.24 -0.84,-0.12 -1.08,0.12 l -2.28,3.48 c -0.24,0.24 -0.12,0.72 0.12,0.96 0.36,0.24 0.84,0.12 0.96,-0.24 z m 5.52,-8.04 1.92,-2.76 v 0 l 0.48,-0.48 c 0.24,-0.24 0.24,-0.72 0,-0.96 -0.24,-0.24 -0.72,-0.24 -0.96,0 l -0.48,0.48 c -0.12,0.12 -0.12,0.12 -0.12,0.12 l -1.92,2.88 c -0.24,0.36 -0.12,0.72 0.12,0.96 0.36,0.24 0.72,0.12 0.96,-0.24 z m 6.24,-7.2 2.88,-3.12 c 0.24,-0.24 0.24,-0.72 0,-0.96 -0.24,-0.24 -0.72,-0.24 -0.96,0 l -2.88,3.12 c -0.36,0.24 -0.24,0.6 0,0.96 0.24,0.24 0.72,0.24 0.96,0 z m 6,-0.36 3.12,2.76 c 0.36,0.36 0.72,0.24 0.96,0 0.24,-0.24 0.24,-0.72 0,-0.96 l -3.12,-2.76 c -0.24,-0.36 -0.72,-0.24 -0.96,0 -0.24,0.24 -0.24,0.72 0,0.96 z m 8.88,3 3.6,-0.72 c 0,-0.12 0.12,-0.12 0.12,-0.12 l 0.48,-0.24 c 0.36,-0.24 0.48,-0.6 0.24,-0.96 -0.12,-0.36 -0.6,-0.48 -0.96,-0.24 l -0.36,0.24 0.12,-0.12 -3.48,0.84 c -0.48,0 -0.72,0.36 -0.6,0.72 0.12,0.48 0.48,0.72 0.84,0.6 z m 9,-3.84 2.52,-1.44 h -0.6 l 1.2,0.48 c 0.36,0.24 0.72,0 0.96,-0.36 0.12,-0.24 0,-0.72 -0.36,-0.84 l -1.2,-0.6 c -0.24,0 -0.48,0 -0.6,0.12 l -2.52,1.44 c -0.36,0.12 -0.48,0.6 -0.24,0.96 0.12,0.24 0.6,0.36 0.84,0.24 z m 8.16,1.32 1.44,0.72 c 0.36,0.12 0.72,0 0.84,-0.24 l 1.56,-2.04 c 0.24,-0.36 0.24,-0.84 -0.12,-1.08 -0.24,-0.12 -0.72,-0.12 -0.96,0.24 l -1.56,2.04 0.84,-0.24 -1.44,-0.6 c -0.36,-0.24 -0.72,0 -0.96,0.36 -0.12,0.24 0,0.72 0.36,0.84 z m 7.2,-6 2.52,-3.36 c 0.24,-0.36 0.24,-0.72 -0.12,-0.96 -0.24,-0.24 -0.72,-0.24 -0.96,0.12 l -2.52,3.36 c -0.24,0.24 -0.12,0.72 0.12,0.96 0.36,0.24 0.84,0.12 0.96,-0.12 z m 5.04,0.24 2.64,3.24 c 0.24,0.24 0.72,0.36 0.96,0.12 0.36,-0.36 0.36,-0.72 0.12,-1.08 l -2.64,-3.12 c -0.24,-0.36 -0.72,-0.36 -0.96,-0.12 -0.36,0.24 -0.36,0.72 -0.12,0.96 z m 7.8,4.8 4.08,-1.32 c 0.36,-0.12 0.48,-0.48 0.36,-0.84 0,-0.36 -0.48,-0.6 -0.84,-0.48 l -3.96,1.2 c -0.36,0.12 -0.6,0.6 -0.48,0.96 0.12,0.36 0.48,0.48 0.84,0.48 z m 7.92,-5.64 2.4,-3.36 c 0.12,-0.36 0.12,-0.84 -0.24,-1.08 -0.36,-0.12 -0.72,-0.12 -0.96,0.24 l -2.28,3.48 c -0.24,0.36 -0.12,0.72 0.12,0.96 0.36,0.24 0.72,0.12 0.96,-0.24 z m 5.16,-7.56 4.08,-0.84 c 0.36,-0.12 0.6,-0.48 0.48,-0.84 0,-0.36 -0.36,-0.6 -0.72,-0.6 l -4.08,0.96 c -0.48,0.12 -0.72,0.48 -0.6,0.84 0.12,0.36 0.48,0.6 0.84,0.48 z m 8.4,-4.2 1.08,-4.08 c 0,-0.36 -0.24,-0.72 -0.6,-0.84 -0.36,-0.12 -0.72,0.12 -0.84,0.48 l -0.96,4.08 c -0.12,0.36 0.12,0.72 0.48,0.84 0.36,0.12 0.84,-0.12 0.84,-0.48 z m 2.4,-9.48 0.96,-4.08 c 0.12,-0.36 -0.12,-0.72 -0.48,-0.84 -0.36,-0.12 -0.84,0.12 -0.84,0.48 l -1.08,4.08 c 0,0.36 0.24,0.72 0.6,0.84 0.36,0.12 0.72,-0.12 0.84,-0.48 z m 2.28,-9.48 0.96,-4.08 c 0.12,-0.36 -0.12,-0.72 -0.48,-0.84 -0.36,0 -0.72,0.12 -0.84,0.6 l -0.96,3.96 c -0.12,0.36 0.12,0.84 0.48,0.84 0.36,0.12 0.72,-0.12 0.84,-0.48 z m 2.28,-9.48 0.24,-0.84 -1.2,0.24 1.92,2.64 c 0.24,0.24 0.72,0.36 0.96,0.12 0.36,-0.24 0.48,-0.72 0.24,-0.96 l -2.04,-2.64 c -0.12,-0.24 -0.36,-0.36 -0.72,-0.24 -0.24,0 -0.48,0.24 -0.48,0.48 l -0.24,0.96 c -0.12,0.36 0.12,0.72 0.48,0.84 0.36,0 0.84,-0.24 0.84,-0.6 z m 4.32,6.48 2.4,3.12 v -0.12 l 0.12,0.24 c 0.12,0.24 0.6,0.36 0.96,0.24 0.24,-0.24 0.36,-0.6 0.24,-0.96 l -0.12,-0.24 c 0,0 0,0 -0.12,0 l -2.28,-3.24 c -0.24,-0.24 -0.72,-0.36 -0.96,-0.12 -0.36,0.24 -0.48,0.72 -0.24,1.08 z m 5.16,8.04 2.04,3.72 c 0.12,0.36 0.6,0.48 0.96,0.24 0.24,-0.12 0.36,-0.6 0.24,-0.96 l -2.04,-3.6 c -0.12,-0.36 -0.6,-0.48 -0.96,-0.36 -0.36,0.24 -0.48,0.72 -0.24,0.96 z m 4.68,8.52 0.24,0.48 c 0.24,0.36 0.6,0.48 0.96,0.36 l 3.24,-1.56 c 0.36,-0.12 0.48,-0.6 0.36,-0.84 -0.12,-0.36 -0.6,-0.6 -0.96,-0.36 l -3.24,1.44 0.84,0.36 -0.24,-0.48 c -0.12,-0.36 -0.6,-0.48 -0.96,-0.24 -0.36,0.12 -0.48,0.6 -0.24,0.84 z m 8.52,-2.4 2.88,3.12 c 0.24,0.24 0.72,0.24 0.96,0 0.36,-0.24 0.36,-0.72 0,-0.96 l -2.76,-3.12 c -0.24,-0.24 -0.72,-0.24 -0.96,0 -0.36,0.24 -0.36,0.72 -0.12,0.96 z m 6.72,7.08 0.6,0.72 c 0,0 0,0 0.12,0.12 l 2.88,1.68 c 0.24,0.12 0.72,0.12 0.96,-0.24 0.12,-0.36 0,-0.84 -0.24,-0.96 l -2.88,-1.68 0.12,0.12 -0.6,-0.72 c -0.24,-0.24 -0.72,-0.24 -0.96,0 -0.24,0.24 -0.24,0.72 0,0.96 z m 8.28,5.4 h 0.12 l -0.24,-0.24 2.28,3.36 c 0.24,0.36 0.72,0.48 0.96,0.24 0.36,-0.24 0.48,-0.6 0.24,-0.96 l -2.28,-3.36 c -0.12,-0.12 -0.12,-0.24 -0.24,-0.24 h -0.12 c -0.24,-0.24 -0.72,-0.12 -0.96,0.24 -0.12,0.24 0,0.72 0.24,0.96 z m 5.28,7.8 2.28,3.48 c 0.24,0.24 0.72,0.36 0.96,0.12 0.36,-0.12 0.48,-0.6 0.24,-0.96 l -2.28,-3.48 c -0.24,-0.24 -0.72,-0.36 -0.96,-0.12 -0.36,0.24 -0.48,0.6 -0.24,0.96 z m 7.32,6.48 3,1.8 0.72,0.36 c 0.36,0.12 0.72,0 0.84,-0.36 0.24,-0.36 0,-0.72 -0.24,-0.96 l -0.6,-0.24 -3,-1.8 c -0.36,-0.12 -0.72,0 -0.96,0.24 -0.24,0.36 -0.12,0.84 0.24,0.96 z m 8.76,4.44 2.04,0.84 h -0.24 l 1.56,1.2 c 0.36,0.24 0.72,0.24 0.96,-0.12 0.24,-0.24 0.24,-0.72 -0.12,-0.96 l -1.44,-1.2 c -0.12,-0.12 -0.12,-0.12 -0.24,-0.12 l -1.92,-0.96 c -0.36,-0.12 -0.84,0 -0.96,0.36 -0.12,0.36 0,0.84 0.36,0.96 z m 7.68,5.64 1.92,1.56 c 0.36,0.24 0.72,0.24 0.96,0 l 1.08,-1.32 c 0.24,-0.24 0.24,-0.72 -0.12,-0.96 -0.24,-0.24 -0.72,-0.24 -0.96,0.12 l -1.08,1.2 1.08,-0.12 -2.04,-1.56 c -0.24,-0.24 -0.72,-0.24 -0.96,0.12 -0.24,0.24 -0.24,0.72 0.12,0.96 z m 7.56,-3.96 2.76,-3.12 c 0.24,-0.24 0.24,-0.72 -0.12,-0.96 -0.24,-0.24 -0.72,-0.24 -0.96,0 l -2.76,3.24 c -0.24,0.24 -0.12,0.72 0.12,0.96 0.36,0.24 0.72,0.24 0.96,-0.12 z m 7.68,-3.96 2.64,-0.36 -0.48,-0.12 1.32,0.84 c 0.36,0.24 0.72,0.12 0.96,-0.24 0.12,-0.36 0.12,-0.72 -0.24,-0.96 l -1.2,-0.72 c -0.24,-0.12 -0.36,-0.12 -0.48,-0.12 l -2.76,0.36 c -0.36,0 -0.6,0.36 -0.6,0.72 0.12,0.36 0.48,0.72 0.84,0.6 z m 8.16,3.24 1.8,1.2 -0.24,-0.24 1.2,1.68 c 0.24,0.36 0.6,0.48 0.96,0.24 0.36,-0.24 0.36,-0.6 0.12,-0.96 l -1.08,-1.8 c -0.12,0 -0.12,-0.12 -0.24,-0.12 l -1.8,-1.08 c -0.24,-0.24 -0.72,-0.12 -0.96,0.12 -0.12,0.36 -0.12,0.84 0.24,0.96 z m 5.88,7.32 2.28,3.48 c 0.24,0.24 0.72,0.36 1.08,0.12 0.24,-0.24 0.36,-0.6 0.12,-0.96 l -2.28,-3.48 c -0.24,-0.24 -0.72,-0.36 -1.08,-0.12 -0.24,0.24 -0.36,0.6 -0.12,0.96 z m 6.96,6.84 3.72,1.8 c 0.36,0.24 0.84,0 0.96,-0.24 0.12,-0.36 0,-0.84 -0.36,-0.96 l -3.72,-1.8 c -0.36,-0.24 -0.72,-0.12 -0.96,0.24 -0.12,0.36 0,0.84 0.36,0.96 z m 9.48,0.36 3.24,-1.2 -0.84,-0.24 0.48,0.6 c 0.12,0.24 0.6,0.36 0.96,0.12 0.24,-0.24 0.36,-0.72 0.12,-0.96 l -0.48,-0.6 c -0.12,-0.24 -0.48,-0.36 -0.72,-0.24 l -3.24,1.32 c -0.36,0.12 -0.6,0.48 -0.48,0.84 0.24,0.36 0.6,0.6 0.96,0.36 z m 6.12,3.6 2.52,3.36 c 0.24,0.24 0.72,0.36 0.96,0.12 0.36,-0.24 0.36,-0.72 0.12,-0.96 l -2.4,-3.36 c -0.24,-0.36 -0.72,-0.36 -1.08,-0.12 -0.24,0.24 -0.36,0.6 -0.12,0.96 z m 6.96,2.64 2.28,-3.36 c 0.24,-0.36 0.12,-0.84 -0.12,-0.96 -0.36,-0.24 -0.84,-0.24 -0.96,0.12 l -2.4,3.48 c -0.24,0.24 -0.12,0.72 0.12,0.96 0.36,0.24 0.84,0.12 1.08,-0.24 z m 5.52,-8.04 0.36,-0.6 -0.72,0.36 3.24,0.96 c 0.36,0.12 0.72,-0.12 0.84,-0.48 0.12,-0.36 -0.12,-0.72 -0.48,-0.84 l -3.24,-1.08 c -0.24,0 -0.6,0.12 -0.84,0.36 l -0.36,0.6 c -0.24,0.24 -0.12,0.72 0.12,0.96 0.36,0.24 0.84,0.12 1.08,-0.24 z m 8.64,1.2 2.64,-3.24 c 0.24,-0.24 0.12,-0.72 -0.12,-0.96 -0.24,-0.24 -0.72,-0.12 -0.96,0.12 l -2.64,3.24 c -0.24,0.24 -0.24,0.72 0.12,0.96 0.24,0.24 0.72,0.24 0.96,-0.12 z m 6.12,-7.44 0.96,-1.2 -1.08,-0.24 1.08,2.4 c 0.24,0.36 0.6,0.48 0.96,0.36 0.36,-0.24 0.48,-0.6 0.36,-0.96 l -1.2,-2.4 c -0.12,-0.12 -0.24,-0.36 -0.48,-0.36 -0.24,0 -0.48,0.12 -0.72,0.24 l -0.96,1.2 c -0.24,0.36 -0.12,0.72 0.12,0.96 0.36,0.24 0.72,0.24 0.96,0 z m 3.36,6 1.8,3.72 c 0.24,0.36 0.6,0.48 0.96,0.36 0.36,-0.12 0.48,-0.6 0.36,-0.96 l -1.8,-3.72 c -0.24,-0.36 -0.6,-0.48 -0.96,-0.36 -0.36,0.24 -0.48,0.6 -0.36,0.96 z m 5.52,8.52 1.92,-3.72 c 0.12,-0.36 0,-0.72 -0.36,-0.96 -0.36,-0.12 -0.72,0 -0.96,0.36 l -1.8,3.72 c -0.24,0.36 -0.12,0.72 0.24,0.84 0.36,0.24 0.72,0.12 0.96,-0.24 z m 4.44,-8.64 1.92,-3.72 c 0.12,-0.36 0,-0.84 -0.36,-0.96 -0.36,-0.12 -0.72,0 -0.96,0.36 l -1.8,3.6 c -0.24,0.36 -0.12,0.84 0.24,0.96 0.36,0.24 0.72,0.12 0.96,-0.24 z m 4.44,-4.56 3.6,2.16 c 0.24,0.24 0.72,0.12 0.96,-0.12 0.12,-0.36 0.12,-0.84 -0.24,-0.96 l -3.48,-2.28 c -0.36,-0.24 -0.84,-0.12 -0.96,0.24 -0.24,0.36 -0.12,0.72 0.12,0.96 z m 6.96,-0.36 0.48,-4.08 c 0,-0.48 -0.24,-0.72 -0.6,-0.84 -0.36,0 -0.72,0.24 -0.84,0.6 l -0.48,4.2 c 0,0.36 0.24,0.72 0.6,0.72 0.36,0.12 0.72,-0.24 0.84,-0.6 z m 1.08,-9.6 0.48,-4.2 c 0.12,-0.36 -0.12,-0.72 -0.6,-0.72 -0.36,-0.12 -0.72,0.12 -0.72,0.6 l -0.48,4.08 c -0.12,0.36 0.24,0.72 0.6,0.84 0.36,0 0.72,-0.24 0.72,-0.6 z m 1.2,-9.72 0.48,-4.2 c 0,-0.36 -0.24,-0.72 -0.6,-0.72 -0.36,0 -0.72,0.24 -0.72,0.6 l -0.6,4.2 c 0,0.36 0.24,0.72 0.6,0.72 0.48,0 0.84,-0.24 0.84,-0.6 z m 1.08,-9.72 0.6,-4.08 c 0,-0.36 -0.24,-0.72 -0.6,-0.84 -0.48,0 -0.84,0.24 -0.84,0.6 l -0.48,4.2 c 0,0.36 0.24,0.72 0.6,0.72 0.36,0.12 0.72,-0.12 0.72,-0.6 z m 1.2,-9.6 0.48,-4.2 c 0.12,-0.36 -0.24,-0.72 -0.6,-0.72 -0.36,-0.12 -0.72,0.24 -0.72,0.6 l -0.48,4.08 c -0.12,0.48 0.12,0.84 0.6,0.84 0.36,0 0.72,-0.24 0.72,-0.6 z m 1.2,-9.72 0.48,-4.08 c 0,-0.36 -0.24,-0.72 -0.6,-0.84 -0.36,0 -0.72,0.24 -0.84,0.6 l -0.48,4.2 c 0,0.36 0.24,0.72 0.6,0.72 0.36,0.12 0.72,-0.24 0.84,-0.6 z m 1.08,-9.6 0.48,-3.84 c 0,-0.48 -0.24,-0.72 -0.6,-0.84 -0.36,0 -0.72,0.24 -0.72,0.6 l -0.48,3.84 c -0.12,0.36 0.24,0.72 0.6,0.84 0.36,0 0.72,-0.24 0.72,-0.6 z"
       style="fill:#e46c0a;fill-opacity:1;fill-rule:nonzero;stroke:none"
       id="path5221"
       inkscape:connector-curvature="0" /><path
       d="m 93.96,366.72 7.68,62.76 c 0,0.12 0,0.24 0.12,0.36 l 7.68,15.6 c 0,0.12 0.12,0.12 0.24,0.24 l 7.68,8.04 c 0.12,0.24 0.36,0.36 0.6,0.36 l 7.68,1.2 h -0.12 l 7.8,2.52 c 0.48,0.24 0.96,-0.12 1.2,-0.6 l 7.68,-20.64 -1.8,0.12 7.8,12.24 7.68,13.32 c 0.12,0.36 0.6,0.6 0.96,0.48 l 7.8,-1.2 -0.96,-0.24 7.68,8.52 c 0.12,0.12 0.24,0.24 0.36,0.24 l 7.68,3.96 c 0.24,0.12 0.6,0.12 0.84,0 0.24,-0.12 0.48,-0.24 0.6,-0.6 l 7.68,-22.8 -1.2,0.6 7.68,2.4 -0.6,-0.48 7.8,13.2 c 0,0.12 0,0.12 0.12,0.24 l 7.68,7.92 c 0.36,0.24 0.72,0.36 1.08,0.24 l 7.8,-3.48 -0.36,0.12 7.68,-0.48 c 0.48,0 0.84,-0.24 0.96,-0.72 l 7.68,-27 h -1.92 l 7.68,24 c 0.12,0.36 0.36,0.6 0.72,0.72 0.24,0 0.6,0 0.84,-0.24 l 7.8,-5.64 -0.96,0.12 7.8,2.28 c 0.48,0.12 0.84,-0.12 1.08,-0.36 l 7.8,-10.44 -1.56,0.12 7.68,8.28 c 0.12,0.12 0.36,0.24 0.6,0.24 l 7.68,1.56 c 0.36,0 0.6,-0.12 0.84,-0.36 l 7.8,-7.92 -0.48,0.24 7.68,-1.8 c 0.24,0 0.36,-0.12 0.48,-0.36 l 7.8,-9.12 -0.6,0.36 7.68,-1.56 c 0.12,0 0.24,0 0.36,-0.12 l 7.68,-4.68 c 0.24,-0.12 0.36,-0.36 0.48,-0.6 l 7.68,-25.56 -0.12,0.36 7.68,-9 -0.24,0.24 7.68,-4.2 c 0.12,-0.12 0.24,-0.12 0.24,-0.24 l 7.8,-10.44 -1.68,-0.12 7.68,14.28 c 0.12,0.12 0.12,0.24 0.24,0.36 l 7.8,5.88 c 0.12,0.12 0.36,0.24 0.6,0.24 h 7.68 l 7.68,0.96 -0.84,-0.6 7.8,16.2 c 0.24,0.48 0.72,0.72 1.2,0.48 l 7.8,-3 c 0,-0.12 0,-0.12 0.12,-0.12 l 7.68,-4.56 -1.2,-0.12 7.68,7.8 7.68,9 c 0.24,0.36 0.6,0.48 1.08,0.36 l 7.68,-2.16 h -0.24 l 7.68,0.12 h -0.24 l 7.68,1.8 -0.48,-0.36 7.68,9.96 c 0.24,0.24 0.6,0.36 0.84,0.36 0.36,-0.12 0.72,-0.24 0.84,-0.6 l 7.68,-15.96 -1.68,0.12 7.68,12.84 c 0.24,0.36 0.72,0.6 1.2,0.36 l 7.68,-2.88 c 0.24,-0.12 0.48,-0.24 0.6,-0.48 l 7.68,-16.32 7.8,-24.48 7.8,-32.88 c 0.12,-0.48 -0.24,-1.08 -0.72,-1.2 -0.6,-0.12 -1.08,0.24 -1.32,0.72 l -7.68,32.76 -7.68,24.24 -7.68,16.32 0.6,-0.6 -7.8,3 1.2,0.36 -7.68,-12.84 c -0.24,-0.24 -0.48,-0.48 -0.96,-0.48 -0.36,0 -0.6,0.24 -0.84,0.6 l -7.68,15.96 1.68,-0.24 -7.68,-9.96 c -0.12,-0.12 -0.36,-0.24 -0.6,-0.36 l -7.68,-1.68 C 434.76,432 434.76,432 434.64,432 h -7.68 c -0.12,0 -0.24,0 -0.36,0 l -7.68,2.16 1.08,0.36 -7.8,-9.12 -7.68,-7.92 c -0.36,-0.36 -0.84,-0.36 -1.2,-0.12 l -7.8,4.56 0.12,-0.12 -7.68,3.12 1.32,0.48 -7.8,-16.2 c -0.12,-0.36 -0.36,-0.6 -0.72,-0.6 l -7.92,-0.84 -7.68,-0.12 0.6,0.24 -7.8,-5.88 0.36,0.24 -7.8,-14.28 c -0.12,-0.24 -0.36,-0.48 -0.72,-0.48 -0.36,0 -0.72,0.12 -0.96,0.36 l -7.68,10.44 0.36,-0.36 -7.8,4.32 c 0,0 -0.12,0.12 -0.24,0.12 l -7.68,9 c -0.12,0.12 -0.12,0.24 -0.24,0.36 l -7.68,25.68 0.48,-0.6 -7.8,4.68 0.36,-0.12 -7.68,1.56 c -0.24,0 -0.48,0.12 -0.6,0.36 l -7.68,9.12 0.48,-0.36 -7.68,1.8 c -0.24,0 -0.36,0.12 -0.48,0.24 l -7.8,8.04 0.96,-0.36 -7.68,-1.44 0.48,0.36 -7.68,-8.4 c -0.24,-0.24 -0.48,-0.24 -0.84,-0.24 -0.24,0 -0.48,0.12 -0.72,0.36 l -7.68,10.44 1.08,-0.36 -7.8,-2.28 c -0.36,-0.12 -0.6,0 -0.84,0.12 l -7.8,5.76 1.56,0.48 -7.68,-24 c -0.12,-0.48 -0.48,-0.72 -0.96,-0.72 -0.48,0 -0.84,0.24 -0.96,0.72 l -7.68,27.12 0.84,-0.72 -7.68,0.36 c -0.12,0 -0.24,0.12 -0.36,0.12 l -7.68,3.36 1.08,0.24 -7.68,-7.92 0.12,0.24 -7.68,-13.2 c -0.12,-0.24 -0.36,-0.36 -0.6,-0.48 l -7.68,-2.4 c -0.6,-0.12 -1.08,0.12 -1.32,0.6 l -7.68,22.92 1.44,-0.6 -7.8,-3.96 0.36,0.24 -7.68,-8.64 c -0.24,-0.24 -0.6,-0.36 -0.96,-0.24 l -7.68,1.2 0.96,0.48 -7.68,-13.44 -7.8,-12.24 c -0.12,-0.24 -0.48,-0.48 -0.84,-0.48 -0.48,0.12 -0.72,0.36 -0.84,0.72 l -7.8,20.64 1.32,-0.6 -7.8,-2.52 c -0.12,0 -0.12,0 -0.12,0 l -7.8,-1.32 0.6,0.36 -7.68,-8.16 0.12,0.36 -7.68,-15.6 0.12,0.24 -7.8,-62.76 c 0,-0.6 -0.48,-0.96 -1.08,-0.96 -0.48,0.12 -0.96,0.6 -0.84,1.2 z"
       style="fill:#0070c0;fill-opacity:1;fill-rule:nonzero;stroke:none"
       id="path5223"
       inkscape:connector-curvature="0" /><path
       d="m 93.96,387.6 7.68,36.96 c 0.12,0.36 0.24,0.6 0.6,0.72 0.36,0.12 0.6,0.12 0.96,0 l 7.68,-4.8 c 0,0 0.12,-0.12 0.12,-0.12 l 7.8,-7.08 -0.72,0.24 7.68,0.36 -0.84,-0.48 7.8,14.4 c 0.12,0.24 0.24,0.36 0.36,0.48 l 7.8,3.72 c 0.12,0 0.12,0 0.24,0 l 7.68,1.2 -0.72,-0.72 7.68,26.04 7.68,24.84 c 0.12,0.48 0.6,0.84 1.08,0.72 l 7.68,-0.36 h -0.24 l 7.68,1.68 c 0.12,0 0.12,0 0.24,0 l 7.68,-0.24 c 0.36,0 0.6,-0.12 0.84,-0.36 l 7.68,-9 -0.84,0.36 7.8,0.12 c 0.12,0 0.36,-0.12 0.48,-0.12 l 7.68,-4.44 -1.32,-0.24 7.8,9.84 c 0.24,0.36 0.6,0.48 0.96,0.36 0.36,0 0.6,-0.24 0.72,-0.6 l 7.8,-23.52 h -1.92 l 7.68,24.96 c 0.12,0.48 0.6,0.72 1.08,0.72 l 7.68,-1.08 c 0.36,-0.12 0.6,-0.24 0.72,-0.48 l 7.8,-12.84 -0.12,0.24 7.8,-8.52 -1.68,-0.24 7.8,11.88 c 0.24,0.48 0.72,0.6 1.08,0.48 l 7.8,-2.64 c 0.12,0 0.12,-0.12 0.24,-0.12 l 7.68,-5.52 c 0.12,-0.12 0.24,-0.24 0.24,-0.36 l 7.8,-11.76 -0.48,0.36 7.68,-2.88 -1.2,-0.36 7.68,12.48 c 0.24,0.36 0.48,0.48 0.84,0.48 0.24,0 0.6,-0.12 0.84,-0.36 l 7.68,-8.88 -0.12,0.12 7.68,-6.48 -0.48,0.24 7.68,-0.84 c 0,0 0.12,0 0.12,0 l 7.8,-2.16 c 0.12,0 0.24,-0.12 0.36,-0.24 l 7.8,-7.8 h -1.56 l 7.8,9.12 c 0.12,0.24 0.48,0.36 0.72,0.36 0.36,0 0.6,-0.12 0.72,-0.36 l 7.8,-9.12 -1.68,-0.12 7.8,11.88 -0.12,-0.12 7.68,18.72 c 0.12,0.24 0.36,0.48 0.72,0.6 0.24,0 0.6,0 0.84,-0.24 l 7.8,-5.64 -0.24,0.12 7.8,-3.48 c 0.12,-0.12 0.36,-0.36 0.48,-0.48 l 7.68,-15.84 -1.92,-0.24 7.8,29.88 c 0,0.12 0,0.24 0.12,0.36 l 7.68,10.32 c 0.24,0.24 0.48,0.36 0.72,0.36 0.24,0 0.48,0 0.72,-0.24 l 7.8,-6 7.68,-5.88 -1.32,-0.12 7.68,7.2 -0.12,-0.24 7.68,13.44 c 0.12,0.24 0.36,0.36 0.6,0.48 0.36,0 0.6,0 0.84,-0.24 l 7.68,-5.28 -1.44,-0.36 7.68,14.52 c 0.24,0.36 0.6,0.48 1.08,0.48 0.36,0 0.72,-0.24 0.84,-0.72 l 7.68,-23.4 -0.12,0.24 7.68,-9.72 c 0.12,-0.12 0.12,-0.12 0.12,-0.36 l 7.8,-26.16 7.68,-48.96 -1.92,0.12 7.8,23.04 c 0.12,0.6 0.72,0.84 1.2,0.72 0.6,-0.24 0.84,-0.84 0.72,-1.32 l -7.8,-23.04 c -0.12,-0.48 -0.6,-0.72 -1.08,-0.72 -0.36,0 -0.84,0.36 -0.84,0.84 l -7.68,48.72 -7.8,26.28 0.24,-0.36 -7.68,9.72 c -0.12,0.12 -0.12,0.24 -0.24,0.24 l -7.68,23.52 1.8,-0.12 -7.68,-14.4 c -0.12,-0.36 -0.36,-0.48 -0.6,-0.6 -0.36,0 -0.6,0 -0.84,0.24 l -7.68,5.28 1.44,0.24 -7.8,-13.44 c 0,0 -0.12,-0.12 -0.12,-0.24 l -7.8,-7.08 c -0.36,-0.36 -0.84,-0.36 -1.2,0 l -7.8,5.88 -7.68,6 1.44,0.24 -7.8,-10.32 0.24,0.36 -7.68,-29.88 c -0.12,-0.36 -0.48,-0.72 -0.96,-0.72 -0.36,0 -0.84,0.12 -0.96,0.6 l -7.68,15.72 0.48,-0.48 -7.8,3.6 c 0,0 -0.12,0.12 -0.12,0.12 l -7.8,5.64 1.56,0.36 -7.8,-18.6 c 0,-0.12 0,-0.12 0,-0.24 l -7.8,-11.88 c -0.12,-0.36 -0.36,-0.48 -0.72,-0.48 -0.36,0 -0.6,0.12 -0.84,0.36 l -7.68,9.12 h 1.44 l -7.68,-9.12 c -0.12,-0.24 -0.48,-0.36 -0.72,-0.36 -0.24,0 -0.6,0.12 -0.72,0.24 l -7.68,7.8 0.36,-0.24 -7.68,2.16 h 0.12 l -7.68,0.72 c -0.24,0 -0.36,0.12 -0.6,0.24 l -7.68,6.48 c 0,0.12 0,0.12 -0.12,0.12 l -7.68,8.88 1.56,0.12 -7.68,-12.48 c -0.24,-0.36 -0.72,-0.6 -1.2,-0.36 l -7.68,2.88 c -0.24,0 -0.36,0.12 -0.48,0.36 l -7.8,11.76 0.24,-0.24 -7.68,5.52 0.24,-0.12 -7.68,2.64 1.2,0.36 -7.68,-11.88 c -0.24,-0.24 -0.48,-0.36 -0.84,-0.36 -0.24,-0.12 -0.6,0 -0.84,0.24 l -7.8,8.52 c 0,0.12 0,0.12 -0.12,0.24 l -7.68,12.72 0.72,-0.48 -7.68,1.08 1.08,0.72 -7.68,-24.96 c -0.12,-0.36 -0.6,-0.6 -0.96,-0.6 -0.48,-0.12 -0.84,0.24 -0.96,0.6 l -7.8,23.52 1.8,-0.36 -7.68,-9.96 c -0.36,-0.36 -0.84,-0.48 -1.32,-0.24 l -7.68,4.44 0.48,-0.12 -7.68,-0.12 c -0.36,0 -0.6,0.24 -0.84,0.36 l -7.68,9 0.72,-0.36 -7.68,0.24 h 0.24 l -7.8,-1.56 c 0,0 -0.12,0 -0.24,0 l -7.68,0.36 0.96,0.72 -7.68,-24.96 L 150,432 c -0.12,-0.48 -0.48,-0.72 -0.84,-0.72 l -7.68,-1.2 h 0.24 l -7.68,-3.6 0.36,0.36 -7.68,-14.4 c -0.24,-0.36 -0.6,-0.6 -0.84,-0.6 l -7.8,-0.24 c -0.24,0 -0.48,0 -0.72,0.24 l -7.68,7.08 0.12,-0.12 -7.68,4.68 1.56,0.72 -7.8,-37.08 c -0.12,-0.48 -0.6,-0.84 -1.2,-0.72 -0.48,0.12 -0.84,0.6 -0.72,1.2 z"
       style="fill:#ff0000;fill-opacity:1;fill-rule:nonzero;stroke:none"
       id="path5225"
       inkscape:connector-curvature="0" /><path
       d="m 95.76,452.4 7.68,-9.6 c 0.36,-0.48 0.24,-1.08 -0.12,-1.44 -0.48,-0.36 -1.08,-0.24 -1.44,0.24 l -7.68,9.48 c -0.36,0.48 -0.36,1.08 0.12,1.44 0.48,0.36 1.08,0.24 1.44,-0.12 z"
       style="fill:#00b050;fill-opacity:1;fill-rule:nonzero;stroke:none"
       id="path5227"
       inkscape:connector-curvature="0" /><text
       transform="matrix(1,0,0,-1,82.203142,266.77072)"
       style="font-variant:normal;font-weight:normal;font-size:6.15799999px;font-family:Calibri;-inkscape-font-specification:Calibri;writing-mode:lr-tb;fill:#000000;fill-opacity:1;fill-rule:nonzero;stroke:none"
       id="text5231"><tspan
         x="0"
         y="0"
         id="tspan5229">0</tspan></text>
<text
       transform="matrix(1,0,0,-1,71.285008,307.45662)"
       style="font-variant:normal;font-weight:normal;font-size:6.15799999px;font-family:Calibri;-inkscape-font-specification:Calibri;writing-mode:lr-tb;fill:#000000;fill-opacity:1;fill-rule:nonzero;stroke:none"
       id="text5235"><tspan
         x="0 3.1221061 4.6616058 7.7837119 11.0405"
         y="0"
         sodipodi:role="line"
         id="tspan5233">2,000</tspan></text>
<text
       transform="matrix(1,0,0,-1,71.285008,348.01321)"
       style="font-variant:normal;font-weight:normal;font-size:6.15799999px;font-family:Calibri;-inkscape-font-specification:Calibri;writing-mode:lr-tb;fill:#000000;fill-opacity:1;fill-rule:nonzero;stroke:none"
       id="text5239"><tspan
         x="0 3.1221061 4.6616058 7.7837119 11.0405"
         y="0"
         sodipodi:role="line"
         id="tspan5237">4,000</tspan></text>
<text
       transform="matrix(1,0,0,-1,71.285008,388.57596)"
       style="font-variant:normal;font-weight:normal;font-size:6.15799999px;font-family:Calibri;-inkscape-font-specification:Calibri;writing-mode:lr-tb;fill:#000000;fill-opacity:1;fill-rule:nonzero;stroke:none"
       id="text5243"><tspan
         x="0 3.1221061 4.6616058 7.7837119 11.0405"
         y="0"
         sodipodi:role="line"
         id="tspan5241">6,000</tspan></text>
<text
       transform="matrix(1,0,0,-1,71.285008,429.1387)"
       style="font-variant:normal;font-weight:normal;font-size:6.15799999px;font-family:Calibri;-inkscape-font-specification:Calibri;writing-mode:lr-tb;fill:#000000;fill-opacity:1;fill-rule:nonzero;stroke:none"
       id="text5247"><tspan
         x="0 3.1221061 4.6616058 7.7837119 11.0405"
         y="0"
         sodipodi:role="line"
         id="tspan5245">8,000</tspan></text>
<text
       transform="matrix(1,0,0,-1,68.162902,469.70145)"
       style="font-variant:normal;font-weight:normal;font-size:6.15799999px;font-family:Calibri;-inkscape-font-specification:Calibri;writing-mode:lr-tb;fill:#000000;fill-opacity:1;fill-rule:nonzero;stroke:none"
       id="text5251"><tspan
         x="0 3.1221061 6.3602843 7.8003511 11.0405 14.162605"
         y="0"
         sodipodi:role="line"
         id="tspan5249">10,000</tspan></text>
<text
       transform="matrix(1,0,0,-1,68.162902,510.2642)"
       style="font-variant:normal;font-weight:normal;font-size:6.15799999px;font-family:Calibri;-inkscape-font-specification:Calibri;writing-mode:lr-tb;fill:#000000;fill-opacity:1;fill-rule:nonzero;stroke:none"
       id="text5255"><tspan
         x="0 3.1221061 6.3602843 7.8003511 11.0405 14.162605"
         y="0"
         sodipodi:role="line"
         id="tspan5253">12,000</tspan></text>
<text
       transform="matrix(1,0,0,-1,93.484598,258.73453)"
       style="font-variant:normal;font-weight:normal;font-size:6.15799999px;font-family:Calibri;-inkscape-font-specification:Calibri;writing-mode:lr-tb;fill:#000000;fill-opacity:1;fill-rule:nonzero;stroke:none"
       id="text5259"><tspan
         x="0"
         y="0"
         id="tspan5257">0</tspan></text>
<text
       transform="matrix(1,0,0,-1,124.32386,258.73453)"
       style="font-variant:normal;font-weight:normal;font-size:6.15799999px;font-family:Calibri;-inkscape-font-specification:Calibri;writing-mode:lr-tb;fill:#000000;fill-opacity:1;fill-rule:nonzero;stroke:none"
       id="text5263"><tspan
         x="0"
         y="0"
         id="tspan5261">4</tspan></text>
<text
       transform="matrix(1,0,0,-1,155.16928,258.73453)"
       style="font-variant:normal;font-weight:normal;font-size:6.15799999px;font-family:Calibri;-inkscape-font-specification:Calibri;writing-mode:lr-tb;fill:#000000;fill-opacity:1;fill-rule:nonzero;stroke:none"
       id="text5267"><tspan
         x="0"
         y="0"
         id="tspan5265">8</tspan></text>
<text
       transform="matrix(1,0,0,-1,184.45057,258.73453)"
       style="font-variant:normal;font-weight:normal;font-size:6.15799999px;font-family:Calibri;-inkscape-font-specification:Calibri;writing-mode:lr-tb;fill:#000000;fill-opacity:1;fill-rule:nonzero;stroke:none"
       id="text5271"><tspan
         x="0 3.1221061"
         y="0"
         sodipodi:role="line"
         id="tspan5269">12</tspan></text>
<text
       transform="matrix(1,0,0,-1,215.40684,258.73453)"
       style="font-variant:normal;font-weight:normal;font-size:6.15799999px;font-family:Calibri;-inkscape-font-specification:Calibri;writing-mode:lr-tb;fill:#000000;fill-opacity:1;fill-rule:nonzero;stroke:none"
       id="text5275"><tspan
         x="0 3.1221061"
         y="0"
         sodipodi:role="line"
         id="tspan5273">16</tspan></text>
<text
       transform="matrix(1,0,0,-1,246.25226,258.73453)"
       style="font-variant:normal;font-weight:normal;font-size:6.15799999px;font-family:Calibri;-inkscape-font-specification:Calibri;writing-mode:lr-tb;fill:#000000;fill-opacity:1;fill-rule:nonzero;stroke:none"
       id="text5279"><tspan
         x="0 3.1221061"
         y="0"
         sodipodi:role="line"
         id="tspan5277">20</tspan></text>
<text
       transform="matrix(1,0,0,-1,277.21469,258.73453)"
       style="font-variant:normal;font-weight:normal;font-size:6.15799999px;font-family:Calibri;-inkscape-font-specification:Calibri;writing-mode:lr-tb;fill:#000000;fill-opacity:1;fill-rule:nonzero;stroke:none"
       id="text5283"><tspan
         x="0 3.0001345"
         y="0"
         sodipodi:role="line"
         id="tspan5281">24</tspan></text>
<text
       transform="matrix(1,0,0,-1,308.05395,258.73453)"
       style="font-variant:normal;font-weight:normal;font-size:6.15799999px;font-family:Calibri;-inkscape-font-specification:Calibri;writing-mode:lr-tb;fill:#000000;fill-opacity:1;fill-rule:nonzero;stroke:none"
       id="text5287"><tspan
         x="0 3.1221061"
         y="0"
         sodipodi:role="line"
         id="tspan5285">28</tspan></text>
<text
       transform="matrix(1,0,0,-1,338.89321,258.73453)"
       style="font-variant:normal;font-weight:normal;font-size:6.15799999px;font-family:Calibri;-inkscape-font-specification:Calibri;writing-mode:lr-tb;fill:#000000;fill-opacity:1;fill-rule:nonzero;stroke:none"
       id="text5291"><tspan
         x="0 3.1221061"
         y="0"
         sodipodi:role="line"
         id="tspan5289">32</tspan></text>
<text
       transform="matrix(1,0,0,-1,369.85564,258.73453)"
       style="font-variant:normal;font-weight:normal;font-size:6.15799999px;font-family:Calibri;-inkscape-font-specification:Calibri;writing-mode:lr-tb;fill:#000000;fill-opacity:1;fill-rule:nonzero;stroke:none"
       id="text5295"><tspan
         x="0 3.0001345"
         y="0"
         sodipodi:role="line"
         id="tspan5293">36</tspan></text>
<text
       transform="matrix(1,0,0,-1,400.70106,258.73453)"
       style="font-variant:normal;font-weight:normal;font-size:6.15799999px;font-family:Calibri;-inkscape-font-specification:Calibri;writing-mode:lr-tb;fill:#000000;fill-opacity:1;fill-rule:nonzero;stroke:none"
       id="text5299"><tspan
         x="0 3.1221061"
         y="0"
         sodipodi:role="line"
         id="tspan5297">40</tspan></text>
<text
       transform="matrix(1,0,0,-1,431.54032,258.73453)"
       style="font-variant:normal;font-weight:normal;font-size:6.15799999px;font-family:Calibri;-inkscape-font-specification:Calibri;writing-mode:lr-tb;fill:#000000;fill-opacity:1;fill-rule:nonzero;stroke:none"
       id="text5303"><tspan
         x="0 3.1221061"
         y="0"
         sodipodi:role="line"
         id="tspan5301">44</tspan></text>
<text
       transform="matrix(1,0,0,-1,462.50275,258.73453)"
       style="font-variant:normal;font-weight:normal;font-size:6.15799999px;font-family:Calibri;-inkscape-font-specification:Calibri;writing-mode:lr-tb;fill:#000000;fill-opacity:1;fill-rule:nonzero;stroke:none"
       id="text5307"><tspan
         x="0 3.1221061"
         y="0"
         sodipodi:role="line"
         id="tspan5305">48</tspan></text>
<text
       transform="matrix(0,1,1,0,64.683632,382.57807)"
       style="font-variant:normal;font-weight:normal;font-size:6.15799999px;font-family:Calibri;-inkscape-font-specification:'Calibri Bold';writing-mode:lr-tb;fill:#000000;fill-opacity:1;fill-rule:nonzero;stroke:none"
       id="text5311"><tspan
         x="0 3.2575819 6.5705862 9.9604483 13.267294"
         y="0"
         sodipodi:role="line"
         id="tspan5309">Count</tspan></text>
<text
       transform="matrix(1,0,0,-1,288.37298,249.36821)"
       style="font-variant:normal;font-weight:normal;font-size:6.15799999px;font-family:Calibri;-inkscape-font-specification:'Calibri Bold';writing-mode:lr-tb;fill:#000000;fill-opacity:1;fill-rule:nonzero;stroke:none"
       id="text5315"><tspan
         x="0 5.5791478 8.6766224 11.774096"
         y="0"
         sodipodi:role="line"
         id="tspan5313">Week</tspan></text>
<text
       transform="matrix(1,0,0,-1,260.50648,536.38073)"
       style="font-variant:normal;font-weight:normal;font-size:11.12800026px;font-family:Calibri;-inkscape-font-specification:'Calibri Bold';writing-mode:lr-tb;fill:#000000;fill-opacity:1;fill-rule:nonzero;stroke:none"
       id="text5319"><tspan
         x="0 5.8867121 11.161384 15.0228 21.009665 25.449736 29.998884 35.496117 41.471851 47.158249 50.129425 56.116291 59.997768 65.272438 67.557487 72.82103 75.558517 79.998589 82.796913 86.658333 91.098404"
         y="0"
         sodipodi:role="line"
         id="tspan5317">Cytoscape.org visits </tspan></text>
<text
       transform="matrix(1,0,0,-1,266.9941,522.8157)"
       style="font-variant:normal;font-weight:normal;font-size:11.12800026px;font-family:Calibri;-inkscape-font-specification:'Calibri Bold';writing-mode:lr-tb;fill:#000000;fill-opacity:1;fill-rule:nonzero;stroke:none"
       id="text5323"><tspan
         x="0 3.471936 9.1138325 14.755728 20.397623 26.03952"
         y="0"
         sodipodi:role="line"
         id="tspan5321">(2012 </tspan></text>
<text
       transform="matrix(1,0,0,-1,295.54855,522.8157)"
       style="font-variant:normal;font-weight:normal;font-size:11.12800026px;font-family:Calibri;-inkscape-font-specification:'Calibri Bold';writing-mode:lr-tb;fill:#000000;fill-opacity:1;fill-rule:nonzero;stroke:none"
       id="text5327"><tspan
         x="0"
         y="0"
         id="tspan5325">-</tspan></text>
<text
       transform="matrix(1,0,0,-1,301.42414,522.8157)"
       style="font-variant:normal;font-weight:normal;font-size:11.12800026px;font-family:Calibri;-inkscape-font-specification:'Calibri Bold';writing-mode:lr-tb;fill:#000000;fill-opacity:1;fill-rule:nonzero;stroke:none"
       id="text5331"><tspan
         x="0 3.683368 9.1806002 15.239429 17.754356 23.396254 29.038149 34.680046 40.198498"
         y="0"
         sodipodi:role="line"
         id="tspan5329">Jan 2018)</tspan></text>
<path
       d="m 510.36,413.76 h 4.2 c 0.36,0 0.72,-0.36 0.72,-0.72 0,-0.36 -0.36,-0.72 -0.72,-0.72 h -4.2 c -0.36,0 -0.72,0.36 -0.72,0.72 0,0.36 0.36,0.72 0.72,0.72 z m 9.72,0 h 4.2 c 0.36,0 0.72,-0.36 0.72,-0.72 0,-0.36 -0.36,-0.72 -0.72,-0.72 h -4.2 c -0.36,0 -0.6,0.36 -0.6,0.72 0,0.36 0.24,0.72 0.6,0.72 z"
       style="fill:#416fa6;fill-opacity:1;fill-rule:nonzero;stroke:none"
       id="path5333"
       inkscape:connector-curvature="0" /><text
       transform="matrix(1,0,0,-1,527.78371,411.25587)"
       style="font-variant:normal;font-weight:normal;font-size:6.15799999px;font-family:Calibri;-inkscape-font-specification:Calibri;writing-mode:lr-tb;fill:#000000;fill-opacity:1;fill-rule:nonzero;stroke:none"
       id="text5337"><tspan
         x="0 3.1221061 6.2442122 9.3663177 12.488424 13.880132 17.371717 18.7819 21.189678 22.681023 24.743952"
         y="0"
         sodipodi:role="line"
         id="tspan5335">2012 Visits</tspan></text>
<path
       d="m 510.36,402.48 h 4.2 c 0.36,0 0.72,-0.24 0.72,-0.6 0,-0.48 -0.36,-0.72 -0.72,-0.72 h -4.2 c -0.36,0 -0.72,0.24 -0.72,0.72 0,0.36 0.36,0.6 0.72,0.6 z m 9.72,0 h 4.2 c 0.36,0 0.72,-0.24 0.72,-0.6 0,-0.48 -0.36,-0.72 -0.72,-0.72 h -4.2 c -0.36,0 -0.6,0.24 -0.6,0.72 0,0.36 0.24,0.6 0.6,0.6 z"
       style="fill:#00b050;fill-opacity:1;fill-rule:nonzero;stroke:none"
       id="path5339"
       inkscape:connector-curvature="0" /><text
       transform="matrix(1,0,0,-1,527.78371,400.09758)"
       style="font-variant:normal;font-weight:normal;font-size:6.15799999px;font-family:Calibri;-inkscape-font-specification:Calibri;writing-mode:lr-tb;fill:#000000;fill-opacity:1;fill-rule:nonzero;stroke:none"
       id="text5343"><tspan
         x="0 3.1221061 6.2442122 9.3663177 12.488424 13.880132 17.371717 18.7819 21.189678 22.681023 24.743952"
         y="0"
         sodipodi:role="line"
         id="tspan5341">2013 Visits</tspan></text>
<path
       d="m 510.36,391.32 h 4.2 c 0.36,0 0.72,-0.24 0.72,-0.72 0,-0.36 -0.36,-0.6 -0.72,-0.6 h -4.2 c -0.36,0 -0.72,0.24 -0.72,0.6 0,0.48 0.36,0.72 0.72,0.72 z m 9.72,0 h 4.2 c 0.36,0 0.72,-0.24 0.72,-0.72 0,-0.36 -0.36,-0.6 -0.72,-0.6 h -4.2 c -0.36,0 -0.6,0.24 -0.6,0.6 0,0.48 0.24,0.72 0.6,0.72 z"
       style="fill:#c00000;fill-opacity:1;fill-rule:nonzero;stroke:none"
       id="path5345"
       inkscape:connector-curvature="0" /><text
       transform="matrix(1,0,0,-1,527.78371,388.81612)"
       style="font-variant:normal;font-weight:normal;font-size:6.15799999px;font-family:Calibri;-inkscape-font-specification:Calibri;writing-mode:lr-tb;fill:#000000;fill-opacity:1;fill-rule:nonzero;stroke:none"
       id="text5349"><tspan
         x="0 3.1221061 6.2442122 9.3663177 12.488424 13.880132 17.371717 18.7819 21.189678 22.681023 24.743952"
         y="0"
         sodipodi:role="line"
         id="tspan5347">2014 Visits</tspan></text>
<path
       d="m 510.36,380.16 h 4.2 c 0.36,0 0.72,-0.36 0.72,-0.72 0,-0.36 -0.36,-0.72 -0.72,-0.72 h -4.2 c -0.36,0 -0.72,0.36 -0.72,0.72 0,0.36 0.36,0.72 0.72,0.72 z m 9.72,0 h 4.2 c 0.36,0 0.72,-0.36 0.72,-0.72 0,-0.36 -0.36,-0.72 -0.72,-0.72 h -4.2 c -0.36,0 -0.6,0.36 -0.6,0.72 0,0.36 0.24,0.72 0.6,0.72 z"
       style="fill:#e46c0a;fill-opacity:1;fill-rule:nonzero;stroke:none"
       id="path5351"
       inkscape:connector-curvature="0" /><text
       transform="matrix(1,0,0,-1,527.78371,377.65782)"
       style="font-variant:normal;font-weight:normal;font-size:6.15799999px;font-family:Calibri;-inkscape-font-specification:Calibri;writing-mode:lr-tb;fill:#000000;fill-opacity:1;fill-rule:nonzero;stroke:none"
       id="text5355"><tspan
         x="0 3.1221061 6.2442122 9.3663177 12.488424 13.880132 17.371717 18.7819 21.189678 22.681023 24.743952"
         y="0"
         sodipodi:role="line"
         id="tspan5353">2015 Visits</tspan></text>
<path
       d="m 510.36,369.24 h 15.6 c 0.6,0 0.96,-0.36 0.96,-0.96 0,-0.6 -0.36,-0.96 -0.96,-0.96 h -15.6 c -0.48,0 -0.96,0.36 -0.96,0.96 0,0.6 0.48,0.96 0.96,0.96 z"
       style="fill:#0070c0;fill-opacity:1;fill-rule:nonzero;stroke:none"
       id="path5357"
       inkscape:connector-curvature="0" /><text
       transform="matrix(1,0,0,-1,527.78371,366.49953)"
       style="font-variant:normal;font-weight:normal;font-size:6.15799999px;font-family:Calibri;-inkscape-font-specification:Calibri;writing-mode:lr-tb;fill:#000000;fill-opacity:1;fill-rule:nonzero;stroke:none"
       id="text5361"><tspan
         x="0 3.1221061 6.2442122 9.3663177 12.488424 13.880132 17.371717 18.7819 21.189678 22.681023 24.743952"
         y="0"
         sodipodi:role="line"
         id="tspan5359">2016 Visits</tspan></text>
<path
       d="m 510.36,358.08 h 15.6 c 0.6,0 0.96,-0.36 0.96,-0.96 0,-0.6 -0.36,-0.96 -0.96,-0.96 h -15.6 c -0.48,0 -0.96,0.36 -0.96,0.96 0,0.6 0.48,0.96 0.96,0.96 z"
       style="fill:#ff0000;fill-opacity:1;fill-rule:nonzero;stroke:none"
       id="path5363"
       inkscape:connector-curvature="0" /><text
       transform="matrix(1,0,0,-1,527.78371,355.33507)"
       style="font-variant:normal;font-weight:normal;font-size:6.15799999px;font-family:Calibri;-inkscape-font-specification:Calibri;writing-mode:lr-tb;fill:#000000;fill-opacity:1;fill-rule:nonzero;stroke:none"
       id="text5367"><tspan
         x="0 3.1221061 6.2442122 9.3663177 12.488424 13.880132 17.371717 18.7819 21.189678 22.681023 24.743952"
         y="0"
         sodipodi:role="line"
         id="tspan5365">2017 Visits</tspan></text>
<path
       d="m 510.36,346.92 h 15.6 c 0.6,0 0.96,-0.48 0.96,-0.96 0,-0.6 -0.36,-1.08 -0.96,-1.08 h -15.6 c -0.48,0 -0.96,0.48 -0.96,1.08 0,0.48 0.48,0.96 0.96,0.96 z"
       style="fill:#00b050;fill-opacity:1;fill-rule:nonzero;stroke:none"
       id="path5369"
       inkscape:connector-curvature="0" /><text
       transform="matrix(1,0,0,-1,527.78371,344.17678)"
       style="font-variant:normal;font-weight:normal;font-size:6.15799999px;font-family:Calibri;-inkscape-font-specification:Calibri;writing-mode:lr-tb;fill:#000000;fill-opacity:1;fill-rule:nonzero;stroke:none"
       id="text5373"><tspan
         x="0 3.1221061 6.2442122 9.3663177 12.488424 13.880132 17.371717 18.7819 21.189678 22.681023 24.743952"
         y="0"
         sodipodi:role="line"
         id="tspan5371">2018 Visits</tspan></text>
<g
       id="g5375"><g
         id="g5377"
         clip-path="url(#clipPath5381)"><path
           d="m 50.76,551.64 c 0,0.12 0.12,0.24 0.24,0.24 h 510.12 c 0.12,0 0.24,-0.12 0.24,-0.24 V 240 c 0,-0.12 -0.12,-0.24 -0.24,-0.24 H 51 c -0.12,0 -0.24,0.12 -0.24,0.24 z M 51.24,240 51,240.24 H 561.12 L 560.88,240 v 311.64 l 0.24,-0.24 H 51 l 0.24,0.24 z"
           style="fill:#868686;fill-opacity:1;fill-rule:nonzero;stroke:none"
           id="path5383"
           inkscape:connector-curvature="0" /></g></g></g></svg>