<?xml version="1.0" encoding="UTF-8" standalone="no"?>
<!-- Created with Inkscape (http://www.inkscape.org/) -->

<svg
   xmlns:dc="http://purl.org/dc/elements/1.1/"
   xmlns:cc="http://creativecommons.org/ns#"
   xmlns:rdf="http://www.w3.org/1999/02/22-rdf-syntax-ns#"
   xmlns:svg="http://www.w3.org/2000/svg"
   xmlns="http://www.w3.org/2000/svg"
   xmlns:sodipodi="http://sodipodi.sourceforge.net/DTD/sodipodi-0.dtd"
   xmlns:inkscape="http://www.inkscape.org/namespaces/inkscape"
   version="1.1"
   id="svg5543"
   xml:space="preserve"
   width="680.79999"
   height="461.28"
   viewBox="0 0 680.79999 461.28"
   sodipodi:docname="Web_Site_Visits_By_Country.svg"
   inkscape:version="0.92.3 (2405546, 2018-03-11)"><metadata
     id="metadata5549"><rdf:RDF><cc:Work
         rdf:about=""><dc:format>image/svg+xml</dc:format><dc:type
           rdf:resource="http://purl.org/dc/dcmitype/StillImage" /><dc:title></dc:title></cc:Work></rdf:RDF></metadata><defs
     id="defs5547"><clipPath
       clipPathUnits="userSpaceOnUse"
       id="clipPath5707"><path
         d="m 50.64,569.16 v -346.2 h 510.72 v 346.2 z"
         id="path5705"
         inkscape:connector-curvature="0"
         style="clip-rule:evenodd" /></clipPath></defs><sodipodi:namedview
     pagecolor="#ffffff"
     bordercolor="#666666"
     borderopacity="1"
     objecttolerance="10"
     gridtolerance="10"
     guidetolerance="10"
     inkscape:pageopacity="0"
     inkscape:pageshadow="2"
     inkscape:window-width="640"
     inkscape:window-height="480"
     id="namedview5545"
     showgrid="false"
     inkscape:zoom="0.22348485"
     inkscape:cx="340.32"
     inkscape:cy="230.72001"
     inkscape:window-x="0"
     inkscape:window-y="0"
     inkscape:window-maximized="0"
     inkscape:current-layer="g5551" /><g
     id="g5551"
     inkscape:groupmode="layer"
     inkscape:label="Web_Site_Visits_By_Country"
     transform="matrix(1.3333333,0,0,-1.3333333,-67.679998,758.55998)"><path
       d="M 51.12,223.32 H 561 V 568.56 H 51.12 Z"
       style="fill:#ffffff;fill-opacity:1;fill-rule:nonzero;stroke:none"
       id="path5553"
       inkscape:connector-curvature="0" /><path
       d="m 306.12,488.76 c 65.28,0 118.2,-52.92 118.2,-118.32 0,-0.36 0,-0.72 0,-1.08 l -118.2,1.08 z"
       style="fill:#4572a7;fill-opacity:1;fill-rule:evenodd;stroke:none"
       id="path5555"
       inkscape:connector-curvature="0" /><path
       d="m 424.32,369.36 c -0.24,-22.44 -6.84,-44.28 -18.96,-63.12 l -99.24,64.2 z"
       style="fill:#aa4643;fill-opacity:1;fill-rule:evenodd;stroke:none"
       id="path5557"
       inkscape:connector-curvature="0" /><path
       d="m 405.36,306.24 c -11.76,-18 -28.08,-32.52 -47.4,-42 l -51.84,106.2 z"
       style="fill:#89a54e;fill-opacity:1;fill-rule:evenodd;stroke:none"
       id="path5559"
       inkscape:connector-curvature="0" /><path
       d="m 357.96,264.24 c -11.52,-5.64 -23.88,-9.36 -36.6,-11.04 l -15.24,117.24 z"
       style="fill:#71588f;fill-opacity:1;fill-rule:evenodd;stroke:none"
       id="path5561"
       inkscape:connector-curvature="0" /><path
       d="m 321.36,253.2 c -11.76,-1.56 -23.88,-1.2 -35.64,0.84 l 20.4,116.4 z"
       style="fill:#4198af;fill-opacity:1;fill-rule:evenodd;stroke:none"
       id="path5563"
       inkscape:connector-curvature="0" /><path
       d="m 285.72,254.04 c -10.08,1.68 -19.8,4.8 -29.04,9 l 49.44,107.4 z"
       style="fill:#db843d;fill-opacity:1;fill-rule:evenodd;stroke:none"
       id="path5565"
       inkscape:connector-curvature="0" /><path
       d="m 256.68,263.04 c -7.68,3.6 -15,7.92 -21.72,12.96 l 71.16,94.44 z"
       style="fill:#93a9cf;fill-opacity:1;fill-rule:evenodd;stroke:none"
       id="path5567"
       inkscape:connector-curvature="0" /><path
       d="m 234.96,276 c -5.76,4.32 -11.04,9.12 -15.84,14.4 l 87,80.04 z"
       style="fill:#d19392;fill-opacity:1;fill-rule:evenodd;stroke:none"
       id="path5569"
       inkscape:connector-curvature="0" /><path
       d="m 219.12,290.4 c -4.32,4.68 -8.16,9.6 -11.64,14.76 l 98.64,65.28 z"
       style="fill:#b9cd96;fill-opacity:1;fill-rule:evenodd;stroke:none"
       id="path5571"
       inkscape:connector-curvature="0" /><path
       d="m 207.48,305.16 c -2.76,4.32 -5.28,8.76 -7.56,13.32 l 106.2,51.96 z"
       style="fill:#a99bbd;fill-opacity:1;fill-rule:evenodd;stroke:none"
       id="path5573"
       inkscape:connector-curvature="0" /><path
       d="m 199.92,318.48 c -28.8,58.56 -4.56,129.48 54.12,158.16 16.2,7.92 33.96,12.12 52.08,12.12 V 370.44 Z"
       style="fill:#91c3d5;fill-opacity:1;fill-rule:evenodd;stroke:none"
       id="path5575"
       inkscape:connector-curvature="0" /><path
       d="m 389.76,453.96 21.84,25.2 c 0.12,0 0.24,0.12 0.36,0.12 h 4.32 v -0.72 h -4.32 l 0.24,0.12 -21.84,-25.2 z"
       style="fill:#000000;fill-opacity:1;fill-rule:nonzero;stroke:none"
       id="path5577"
       inkscape:connector-curvature="0" /><path
       d="m 419.4,336.84 24.24,-7.44 v 0 h 4.32 v -0.72 h -4.32 c -0.12,0 -0.12,0 -0.12,0 l -24.36,7.44 z"
       style="fill:#000000;fill-opacity:1;fill-rule:nonzero;stroke:none"
       id="path5579"
       inkscape:connector-curvature="0" /><path
       d="m 384.84,282.24 7.44,-9 -0.36,0.12 h 4.32 v -0.72 h -4.32 c -0.12,0 -0.12,0 -0.24,0.12 l -7.44,9 z"
       style="fill:#000000;fill-opacity:1;fill-rule:nonzero;stroke:none"
       id="path5581"
       inkscape:connector-curvature="0" /><path
       d="m 340.56,257.28 2.04,-15 -0.24,0.36 h 4.32 v -0.72 h -4.32 c -0.24,0 -0.36,0.12 -0.36,0.24 l -2.16,15 z"
       style="fill:#000000;fill-opacity:1;fill-rule:nonzero;stroke:none"
       id="path5583"
       inkscape:connector-curvature="0" /><path
       d="M 271.2,257.4 261,240.96 c 0,-0.12 -0.12,-0.12 -0.24,-0.12 h -4.44 v 0.72 h 4.44 l -0.36,-0.24 10.2,16.44 z"
       style="fill:#000000;fill-opacity:1;fill-rule:nonzero;stroke:none"
       id="path5585"
       inkscape:connector-curvature="0" /><path
       d="M 245.76,268.8 234.6,245.52 c 0,-0.12 -0.12,-0.24 -0.24,-0.24 h -4.32 V 246 h 4.32 l -0.36,-0.12 11.16,23.28 z"
       style="fill:#000000;fill-opacity:1;fill-rule:nonzero;stroke:none"
       id="path5587"
       inkscape:connector-curvature="0" /><path
       d="M 226.92,282.6 204,258.36 c 0,-0.12 -0.12,-0.12 -0.24,-0.12 h -4.32 v 0.72 h 4.32 l -0.24,-0.12 22.92,24.24 z"
       style="fill:#000000;fill-opacity:1;fill-rule:nonzero;stroke:none"
       id="path5589"
       inkscape:connector-curvature="0" /><path
       d="m 213.24,297.24 -20.4,-14.64 c -0.12,0 -0.12,0 -0.24,0 h -4.32 v 0.72 h 4.32 l -0.24,-0.12 20.4,14.64 z"
       style="fill:#000000;fill-opacity:1;fill-rule:nonzero;stroke:none"
       id="path5591"
       inkscape:connector-curvature="0" /><path
       d="m 203.64,311.4 -1.8,-0.96 c 0,0 -0.12,0 -0.12,0 h -4.32 v 0.72 h 4.32 -0.12 l 1.8,0.84 z"
       style="fill:#000000;fill-opacity:1;fill-rule:nonzero;stroke:none"
       id="path5593"
       inkscape:connector-curvature="0" /><path
       d="m 205.68,432.72 -21.48,8.64 0.12,-0.12 h -4.44 v 0.72 h 4.44 c 0,0 0.12,0 0.12,0 l 21.48,-8.64 z"
       style="fill:#000000;fill-opacity:1;fill-rule:nonzero;stroke:none"
       id="path5595"
       inkscape:connector-curvature="0" /><text
       transform="matrix(1,0,0,-1,417.82247,478.89817)"
       style="font-variant:normal;font-weight:normal;font-size:9.56400013px;font-family:Calibri;-inkscape-font-specification:Calibri;writing-mode:lr-tb;fill:#000000;fill-opacity:1;fill-rule:nonzero;stroke:none"
       id="text5599"><tspan
         x="0 6.1400881 11.161188 13.351344 16.555285 21.318155 26.339256 28.500719 32.998363 36.118206 40.797977 44.001919 48.76479"
         y="0"
         sodipodi:role="line"
         id="tspan5597">United States</tspan></text>
<text
       transform="matrix(1,0,0,-1,435.82192,467.13445)"
       style="font-variant:normal;font-weight:normal;font-size:9.56400013px;font-family:Calibri;-inkscape-font-specification:Calibri;writing-mode:lr-tb;fill:#000000;fill-opacity:1;fill-rule:nonzero;stroke:none"
       id="text5603"><tspan
         x="0 4.848948 9.5995207"
         y="0"
         sodipodi:role="line"
         id="tspan5601">25%</tspan></text>
<text
       transform="matrix(1,0,0,-1,449.3741,329.02073)"
       style="font-variant:normal;font-weight:normal;font-size:9.56400013px;font-family:Calibri;-inkscape-font-specification:Calibri;writing-mode:lr-tb;fill:#000000;fill-opacity:1;fill-rule:nonzero;stroke:none"
       id="text5607"><tspan
         x="0 5.0976119 10.19949 12.389646 17.410746"
         y="0"
         sodipodi:role="line"
         id="tspan5605">China</tspan></text>
<text
       transform="matrix(1,0,0,-1,454.53866,317.26657)"
       style="font-variant:normal;font-weight:normal;font-size:9.56400013px;font-family:Calibri;-inkscape-font-specification:Calibri;writing-mode:lr-tb;fill:#000000;fill-opacity:1;fill-rule:nonzero;stroke:none"
       id="text5611"><tspan
         x="0 4.9197598"
         y="0"
         sodipodi:role="line"
         id="tspan5609">9%</tspan></text>
<text
       transform="matrix(1,0,0,-1,397.66156,272.87048)"
       style="font-variant:normal;font-weight:normal;font-size:9.56400013px;font-family:Calibri;-inkscape-font-specification:Calibri;writing-mode:lr-tb;fill:#000000;fill-opacity:1;fill-rule:nonzero;stroke:none"
       id="text5615"><tspan
         x="0 2.4101281 7.5596247 12.580725 14.770881"
         y="0"
         sodipodi:role="line"
         id="tspan5613">India</tspan></text>
<text
       transform="matrix(1,0,0,-1,401.62105,261.2311)"
       style="font-variant:normal;font-weight:normal;font-size:9.56400013px;font-family:Calibri;-inkscape-font-specification:Calibri;writing-mode:lr-tb;fill:#000000;fill-opacity:1;fill-rule:nonzero;stroke:none"
       id="text5619"><tspan
         x="0 4.848948"
         y="0"
         sodipodi:role="line"
         id="tspan5617">9%</tspan></text>
<text
       transform="matrix(1,0,0,-1,348.22524,242.15092)"
       style="font-variant:normal;font-weight:normal;font-size:9.56400013px;font-family:Calibri;-inkscape-font-specification:Calibri;writing-mode:lr-tb;fill:#000000;fill-opacity:1;fill-rule:nonzero;stroke:none"
       id="text5623"><tspan
         x="0 6.1400881 11.161188 13.351344 16.555285 21.238947 26.398687 28.56015 33.533432 35.638229 40.797966 45.237747 50.25885 55.437237"
         y="0"
         sodipodi:role="line"
         id="tspan5621">United Kingdom</tspan></text>
<text
       transform="matrix(1,0,0,-1,373.90458,230.3872)"
       style="font-variant:normal;font-weight:normal;font-size:9.56400013px;font-family:Calibri;-inkscape-font-specification:Calibri;writing-mode:lr-tb;fill:#000000;fill-opacity:1;fill-rule:nonzero;stroke:none"
       id="text5627"><tspan
         x="0 4.848948"
         y="0"
         sodipodi:role="line"
         id="tspan5625">5%</tspan></text>
<text
       transform="matrix(1,0,0,-1,263.98553,239.62602)"
       style="font-variant:normal;font-weight:normal;font-size:9.56400013px;font-family:Calibri;-inkscape-font-specification:Calibri;writing-mode:lr-tb;fill:#000000;fill-opacity:1;fill-rule:nonzero;stroke:none"
       id="text5631"><tspan
         x="0 6.034884 10.679468 14.017304 21.658941 26.240097 31.261196"
         y="0"
         sodipodi:role="line"
         id="tspan5629">Germany</tspan></text>
<text
       transform="matrix(1,0,0,-1,276.10312,227.87186)"
       style="font-variant:normal;font-weight:normal;font-size:9.56400013px;font-family:Calibri;-inkscape-font-specification:Calibri;writing-mode:lr-tb;fill:#000000;fill-opacity:1;fill-rule:nonzero;stroke:none"
       id="text5635"><tspan
         x="0 4.848948"
         y="0"
         sodipodi:role="line"
         id="tspan5633">5%</tspan></text>
<text
       transform="matrix(1,0,0,-1,232.54866,239.02349)"
       style="font-variant:normal;font-weight:normal;font-size:9.56400013px;font-family:Calibri;-inkscape-font-specification:Calibri;writing-mode:lr-tb;fill:#000000;fill-opacity:1;fill-rule:nonzero;stroke:none"
       id="text5639"><tspan
         x="0 3.050916 7.5596247 12.580725 17.279144"
         y="0"
         sodipodi:role="line"
         id="tspan5637">Japan</tspan></text>
<text
       transform="matrix(1,0,0,-1,237.95232,227.26933)"
       style="font-variant:normal;font-weight:normal;font-size:9.56400013px;font-family:Calibri;-inkscape-font-specification:Calibri;writing-mode:lr-tb;fill:#000000;fill-opacity:1;fill-rule:nonzero;stroke:none"
       id="text5643"><tspan
         x="0 4.848948"
         y="0"
         sodipodi:role="line"
         id="tspan5641">4%</tspan></text>
<text
       transform="matrix(1,0,0,-1,202.43162,245.63221)"
       style="font-variant:normal;font-weight:normal;font-size:9.56400013px;font-family:Calibri;-inkscape-font-specification:Calibri;writing-mode:lr-tb;fill:#000000;fill-opacity:1;fill-rule:nonzero;stroke:none"
       id="text5647"><tspan
         x="0 4.3197813 7.6576176 12.238773 17.399136 21.358936"
         y="0"
         sodipodi:role="line"
         id="tspan5645">France</tspan></text>
<text
       transform="matrix(1,0,0,-1,209.63332,233.86849)"
       style="font-variant:normal;font-weight:normal;font-size:9.56400013px;font-family:Calibri;-inkscape-font-specification:Calibri;writing-mode:lr-tb;fill:#000000;fill-opacity:1;fill-rule:nonzero;stroke:none"
       id="text5651"><tspan
         x="0 4.848948"
         y="0"
         sodipodi:role="line"
         id="tspan5649">3%</tspan></text>
<text
       transform="matrix(1,0,0,-1,168.94806,258.59143)"
       style="font-variant:normal;font-weight:normal;font-size:9.56400013px;font-family:Calibri;-inkscape-font-specification:Calibri;writing-mode:lr-tb;fill:#000000;fill-opacity:1;fill-rule:nonzero;stroke:none"
       id="text5655"><tspan
         x="0 5.0976119 9.6787682 14.699868 19.439032 24.460131"
         y="0"
         sodipodi:role="line"
         id="tspan5653">Canada</tspan></text>
<text
       transform="matrix(1,0,0,-1,177.70868,246.82771)"
       style="font-variant:normal;font-weight:normal;font-size:9.56400013px;font-family:Calibri;-inkscape-font-specification:Calibri;writing-mode:lr-tb;fill:#000000;fill-opacity:1;fill-rule:nonzero;stroke:none"
       id="text5659"><tspan
         x="0 4.9197598"
         y="0"
         sodipodi:role="line"
         id="tspan5657">3%</tspan></text>
<text
       transform="matrix(1,0,0,-1,170.02879,282.82661)"
       style="font-variant:normal;font-weight:normal;font-size:9.56400013px;font-family:Calibri;-inkscape-font-specification:Calibri;writing-mode:lr-tb;fill:#000000;fill-opacity:1;fill-rule:nonzero;stroke:none"
       id="text5663"><tspan
         x="0 2.4101281 5.614068 10.195224 12.38538"
         y="0"
         sodipodi:role="line"
         id="tspan5661">Italy</tspan></text>
<text
       transform="matrix(1,0,0,-1,172.66846,271.06289)"
       style="font-variant:normal;font-weight:normal;font-size:9.56400013px;font-family:Calibri;-inkscape-font-specification:Calibri;writing-mode:lr-tb;fill:#000000;fill-opacity:1;fill-rule:nonzero;stroke:none"
       id="text5667"><tspan
         x="0 4.848948"
         y="0"
         sodipodi:role="line"
         id="tspan5665">3%</tspan></text>
<text
       transform="matrix(1,0,0,-1,174.35172,310.90651)"
       style="font-variant:normal;font-weight:normal;font-size:9.56400013px;font-family:Calibri;-inkscape-font-specification:Calibri;writing-mode:lr-tb;fill:#000000;fill-opacity:1;fill-rule:nonzero;stroke:none"
       id="text5671"><tspan
         x="0 4.3197813 9.3408813 14.039302 16.229458"
         y="0"
         sodipodi:role="line"
         id="tspan5669">Spain</tspan></text>
<text
       transform="matrix(1,0,0,-1,179.15285,299.14279)"
       style="font-variant:normal;font-weight:normal;font-size:9.56400013px;font-family:Calibri;-inkscape-font-specification:Calibri;writing-mode:lr-tb;fill:#000000;fill-opacity:1;fill-rule:nonzero;stroke:none"
       id="text5675"><tspan
         x="0 4.848948"
         y="0"
         sodipodi:role="line"
         id="tspan5673">2%</tspan></text>
<text
       transform="matrix(1,0,0,-1,158.8676,453.3336)"
       style="font-variant:normal;font-weight:normal;font-size:9.56400013px;font-family:Calibri;-inkscape-font-specification:Calibri;writing-mode:lr-tb;fill:#000000;fill-opacity:1;fill-rule:nonzero;stroke:none"
       id="text5679"><tspan
         x="0 6.331368 9.5995207 14.620621 19.31904"
         y="0"
         sodipodi:role="line"
         id="tspan5677">Other</tspan></text>
<text
       transform="matrix(1,0,0,-1,161.99503,441.57944)"
       style="font-variant:normal;font-weight:normal;font-size:9.56400013px;font-family:Calibri;-inkscape-font-specification:Calibri;writing-mode:lr-tb;fill:#000000;fill-opacity:1;fill-rule:nonzero;stroke:none"
       id="text5683"><tspan
         x="0 4.848948 9.697896"
         y="0"
         sodipodi:role="line"
         id="tspan5681">32%</tspan></text>
<text
       transform="matrix(1,0,0,-1,180.83567,544.78863)"
       style="font-variant:normal;font-weight:normal;font-size:17.28499985px;font-family:Calibri;-inkscape-font-specification:'Calibri Bold';writing-mode:lr-tb;fill:#000000;fill-opacity:1;fill-rule:nonzero;stroke:none"
       id="text5687"><tspan
         x="0 9.1437654 17.399807 23.279732 32.639629 39.599556 46.679474 55.218262 64.500305 73.319168 77.934265 87.233589 93.118942 101.31203 104.9988 113.17461 121.86897 128.87854 135.83846 140.09058 149.38989 158.75819 165.65491 169.31807"
         y="0"
         sodipodi:role="line"
         id="tspan5685">Cytoscape.org Sessions (</tspan></text>
<text
       transform="matrix(1,0,0,-1,355.55245,544.78863)"
       style="font-variant:normal;font-weight:normal;font-size:17.28499985px;font-family:Calibri;-inkscape-font-specification:'Calibri Bold';writing-mode:lr-tb;fill:#000000;fill-opacity:1;fill-rule:nonzero;stroke:none"
       id="text5691"><tspan
         x="0 8.7634954 13.319856 22.083351 30.719662 39.483158 44.039516 52.803013 61.566509"
         y="0"
         sodipodi:role="line"
         id="tspan5689">2,386,334</tspan></text>
<text
       transform="matrix(1,0,0,-1,425.86783,544.78863)"
       style="font-variant:normal;font-weight:normal;font-size:17.28499985px;font-family:Calibri;-inkscape-font-specification:'Calibri Bold';writing-mode:lr-tb;fill:#000000;fill-opacity:1;fill-rule:nonzero;stroke:none"
       id="text5695"><tspan
         x="0"
         y="0"
         id="tspan5693">)</tspan></text>
<text
       transform="matrix(1,0,0,-1,196.44402,523.66636)"
       style="font-variant:normal;font-weight:normal;font-size:17.28499985px;font-family:Calibri;-inkscape-font-specification:'Calibri Bold';writing-mode:lr-tb;fill:#000000;fill-opacity:1;fill-rule:nonzero;stroke:none"
       id="text5699"><tspan
         x="0 5.39292 14.156415 21.479759 30.243254 37.675804 46.439297 55.202793 63.96629 72.729782 76.636192 82.634087 92.03894 97.918869 107.27876 116.63866 124.83175 134.1138 137.75842 146.52193 153.95447 162.71797 171.48146 178.79796 187.56145 196.32495 205.08844 213.85194"
         y="0"
         sodipodi:role="line"
         id="tspan5697">(1/1/2012 through 1/19/2018)</tspan></text>
<g
       id="g5701"><g
         id="g5703"
         clip-path="url(#clipPath5707)"><path
           d="m 50.76,568.56 c 0,0.12 0.12,0.36 0.36,0.36 H 561 c 0.24,0 0.36,-0.24 0.36,-0.36 V 223.32 c 0,-0.24 -0.12,-0.36 -0.36,-0.36 H 51.12 c -0.24,0 -0.36,0.12 -0.36,0.36 z m 0.72,-345.24 -0.36,0.36 H 561 l -0.36,-0.36 V 568.56 L 561,568.2 H 51.12 l 0.36,0.36 z"
           style="fill:#868686;fill-opacity:1;fill-rule:nonzero;stroke:none"
           id="path5709"
           inkscape:connector-curvature="0" /></g></g></g></svg>