<?xml version="1.0" encoding="utf-8" standalone="no"?>
<!DOCTYPE svg PUBLIC "-//W3C//DTD SVG 1.1//EN"
  "http://www.w3.org/Graphics/SVG/1.1/DTD/svg11.dtd">
<svg xmlns:xlink="http://www.w3.org/1999/xlink" width="460.8pt" height="345.6pt" viewBox="0 0 460.8 345.6" xmlns="http://www.w3.org/2000/svg" version="1.1">
 <metadata>
  <rdf:RDF xmlns:dc="http://purl.org/dc/elements/1.1/" xmlns:cc="http://creativecommons.org/ns#" xmlns:rdf="http://www.w3.org/1999/02/22-rdf-syntax-ns#">
   <cc:Work>
    <dc:type rdf:resource="http://purl.org/dc/dcmitype/StillImage"/>
    <dc:date>2025-02-25T16:09:12.756575</dc:date>
    <dc:format>image/svg+xml</dc:format>
    <dc:creator>
     <cc:Agent>
      <dc:title>Matplotlib v3.9.2, https://matplotlib.org/</dc:title>
     </cc:Agent>
    </dc:creator>
   </cc:Work>
  </rdf:RDF>
 </metadata>
 <defs>
  <style type="text/css">*{stroke-linejoin: round; stroke-linecap: butt}</style>
 </defs>
 <g id="figure_1">
  <g id="patch_1">
   <path d="M 0 345.6 
L 460.8 345.6 
L 460.8 0 
L 0 0 
z
" style="fill: #ffffff"/>
  </g>
  <g id="axes_1">
   <g id="patch_2">
    <path d="M 60.067188 284.709867 
L 450 284.709867 
L 450 59.140525 
L 60.067188 59.140525 
z
" style="fill: #ffffff"/>
   </g>
   <g id="patch_3">
    <path d="M 432.275781 284.709867 
L 408.242942 284.709867 
L 408.242942 278.320074 
L 432.275781 278.320074 
z
" clip-path="url(#pea03339c5a)" style="fill: #1f77b4"/>
   </g>
   <g id="patch_4">
    <path d="M 402.234733 284.709867 
L 378.201894 284.709867 
L 378.201894 275.283872 
L 402.234733 275.283872 
z
" clip-path="url(#pea03339c5a)" style="fill: #1f77b4"/>
   </g>
   <g id="patch_5">
    <path d="M 372.193684 284.709867 
L 348.160845 284.709867 
L 348.160845 273.069262 
L 372.193684 273.069262 
z
" clip-path="url(#pea03339c5a)" style="fill: #1f77b4"/>
   </g>
   <g id="patch_6">
    <path d="M 342.152635 284.709867 
L 318.119796 284.709867 
L 318.119796 272.647253 
L 342.152635 272.647253 
z
" clip-path="url(#pea03339c5a)" style="fill: #1f77b4"/>
   </g>
   <g id="patch_7">
    <path d="M 312.111586 284.709867 
L 288.078747 284.709867 
L 288.078747 251.885864 
L 312.111586 251.885864 
z
" clip-path="url(#pea03339c5a)" style="fill: #1f77b4"/>
   </g>
   <g id="patch_8">
    <path d="M 282.070538 284.709867 
L 258.037699 284.709867 
L 258.037699 249.164775 
L 282.070538 249.164775 
z
" clip-path="url(#pea03339c5a)" style="fill: #1f77b4"/>
   </g>
   <g id="patch_9">
    <path d="M 252.029489 284.709867 
L 227.99665 284.709867 
L 227.99665 242.913104 
L 252.029489 242.913104 
z
" clip-path="url(#pea03339c5a)" style="fill: #1f77b4"/>
   </g>
   <g id="patch_10">
    <path d="M 221.98844 284.709867 
L 197.955601 284.709867 
L 197.955601 242.188298 
L 221.98844 242.188298 
z
" clip-path="url(#pea03339c5a)" style="fill: #1f77b4"/>
   </g>
   <g id="patch_11">
    <path d="M 191.947391 284.709867 
L 167.914552 284.709867 
L 167.914552 242.647657 
L 191.947391 242.647657 
z
" clip-path="url(#pea03339c5a)" style="fill: #1f77b4"/>
   </g>
   <g id="patch_12">
    <path d="M 161.906343 284.709867 
L 137.873504 284.709867 
L 137.873504 251.182172 
L 161.906343 251.182172 
z
" clip-path="url(#pea03339c5a)" style="fill: #1f77b4"/>
   </g>
   <g id="patch_13">
    <path d="M 131.865294 284.709867 
L 107.832455 284.709867 
L 107.832455 251.483673 
L 131.865294 251.483673 
z
" clip-path="url(#pea03339c5a)" style="fill: #1f77b4"/>
   </g>
   <g id="patch_14">
    <path d="M 101.824245 284.709867 
L 77.791406 284.709867 
L 77.791406 253.277007 
L 101.824245 253.277007 
z
" clip-path="url(#pea03339c5a)" style="fill: #1f77b4"/>
   </g>
   <g id="patch_15">
    <path d="M 432.275781 278.320074 
L 408.242942 278.320074 
L 408.242942 268.164293 
L 432.275781 268.164293 
z
" clip-path="url(#pea03339c5a)" style="fill: #ff7f0e"/>
   </g>
   <g id="patch_16">
    <path d="M 402.234733 275.283872 
L 378.201894 275.283872 
L 378.201894 264.186141 
L 402.234733 264.186141 
z
" clip-path="url(#pea03339c5a)" style="fill: #ff7f0e"/>
   </g>
   <g id="patch_17">
    <path d="M 372.193684 273.069262 
L 348.160845 273.069262 
L 348.160845 259.752286 
L 372.193684 259.752286 
z
" clip-path="url(#pea03339c5a)" style="fill: #ff7f0e"/>
   </g>
   <g id="patch_18">
    <path d="M 342.152635 272.647253 
L 318.119796 272.647253 
L 318.119796 258.43955 
L 342.152635 258.43955 
z
" clip-path="url(#pea03339c5a)" style="fill: #ff7f0e"/>
   </g>
   <g id="patch_19">
    <path d="M 312.111586 251.885864 
L 288.078747 251.885864 
L 288.078747 240.673557 
L 312.111586 240.673557 
z
" clip-path="url(#pea03339c5a)" style="fill: #ff7f0e"/>
   </g>
   <g id="patch_20">
    <path d="M 282.070538 249.164775 
L 258.037699 249.164775 
L 258.037699 235.985575 
L 282.070538 235.985575 
z
" clip-path="url(#pea03339c5a)" style="fill: #ff7f0e"/>
   </g>
   <g id="patch_21">
    <path d="M 252.029489 242.913104 
L 227.99665 242.913104 
L 227.99665 223.500261 
L 252.029489 223.500261 
z
" clip-path="url(#pea03339c5a)" style="fill: #ff7f0e"/>
   </g>
   <g id="patch_22">
    <path d="M 221.98844 242.188298 
L 197.955601 242.188298 
L 197.955601 215.738987 
L 221.98844 215.738987 
z
" clip-path="url(#pea03339c5a)" style="fill: #ff7f0e"/>
   </g>
   <g id="patch_23">
    <path d="M 191.947391 242.647657 
L 167.914552 242.647657 
L 167.914552 221.486764 
L 191.947391 221.486764 
z
" clip-path="url(#pea03339c5a)" style="fill: #ff7f0e"/>
   </g>
   <g id="patch_24">
    <path d="M 161.906343 251.182172 
L 137.873504 251.182172 
L 137.873504 235.51738 
L 161.906343 235.51738 
z
" clip-path="url(#pea03339c5a)" style="fill: #ff7f0e"/>
   </g>
   <g id="patch_25">
    <path d="M 131.865294 251.483673 
L 107.832455 251.483673 
L 107.832455 233.908344 
L 131.865294 233.908344 
z
" clip-path="url(#pea03339c5a)" style="fill: #ff7f0e"/>
   </g>
   <g id="patch_26">
    <path d="M 101.824245 253.277007 
L 77.791406 253.277007 
L 77.791406 235.470768 
L 101.824245 235.470768 
z
" clip-path="url(#pea03339c5a)" style="fill: #ff7f0e"/>
   </g>
   <g id="patch_27">
    <path d="M 432.275781 268.164293 
L 408.242942 268.164293 
L 408.242942 238.465285 
L 432.275781 238.465285 
z
" clip-path="url(#pea03339c5a)" style="fill: #2ca02c"/>
   </g>
   <g id="patch_28">
    <path d="M 402.234733 264.186141 
L 378.201894 264.186141 
L 378.201894 235.692923 
L 402.234733 235.692923 
z
" clip-path="url(#pea03339c5a)" style="fill: #2ca02c"/>
   </g>
   <g id="patch_29">
    <path d="M 372.193684 259.752286 
L 348.160845 259.752286 
L 348.160845 231.457395 
L 372.193684 231.457395 
z
" clip-path="url(#pea03339c5a)" style="fill: #2ca02c"/>
   </g>
   <g id="patch_30">
    <path d="M 342.152635 258.43955 
L 318.119796 258.43955 
L 318.119796 234.122569 
L 342.152635 234.122569 
z
" clip-path="url(#pea03339c5a)" style="fill: #2ca02c"/>
   </g>
   <g id="patch_31">
    <path d="M 312.111586 240.673557 
L 288.078747 240.673557 
L 288.078747 240.673557 
L 312.111586 240.673557 
z
" clip-path="url(#pea03339c5a)" style="fill: #2ca02c"/>
   </g>
   <g id="patch_32">
    <path d="M 282.070538 235.985575 
L 258.037699 235.985575 
L 258.037699 235.985575 
L 282.070538 235.985575 
z
" clip-path="url(#pea03339c5a)" style="fill: #2ca02c"/>
   </g>
   <g id="patch_33">
    <path d="M 252.029489 223.500261 
L 227.99665 223.500261 
L 227.99665 223.500261 
L 252.029489 223.500261 
z
" clip-path="url(#pea03339c5a)" style="fill: #2ca02c"/>
   </g>
   <g id="patch_34">
    <path d="M 221.98844 215.738987 
L 197.955601 215.738987 
L 197.955601 215.738987 
L 221.98844 215.738987 
z
" clip-path="url(#pea03339c5a)" style="fill: #2ca02c"/>
   </g>
   <g id="patch_35">
    <path d="M 191.947391 221.486764 
L 167.914552 221.486764 
L 167.914552 221.486764 
L 191.947391 221.486764 
z
" clip-path="url(#pea03339c5a)" style="fill: #2ca02c"/>
   </g>
   <g id="patch_36">
    <path d="M 161.906343 235.51738 
L 137.873504 235.51738 
L 137.873504 235.51738 
L 161.906343 235.51738 
z
" clip-path="url(#pea03339c5a)" style="fill: #2ca02c"/>
   </g>
   <g id="patch_37">
    <path d="M 131.865294 233.908344 
L 107.832455 233.908344 
L 107.832455 233.908344 
L 131.865294 233.908344 
z
" clip-path="url(#pea03339c5a)" style="fill: #2ca02c"/>
   </g>
   <g id="patch_38">
    <path d="M 101.824245 235.470768 
L 77.791406 235.470768 
L 77.791406 235.470768 
L 101.824245 235.470768 
z
" clip-path="url(#pea03339c5a)" style="fill: #2ca02c"/>
   </g>
   <g id="patch_39">
    <path d="M 432.275781 238.465285 
L 408.242942 238.465285 
L 408.242942 59.140525 
L 432.275781 59.140525 
z
" clip-path="url(#pea03339c5a)" style="fill: #d62728"/>
   </g>
   <g id="patch_40">
    <path d="M 402.234733 235.692923 
L 378.201894 235.692923 
L 378.201894 59.140525 
L 402.234733 59.140525 
z
" clip-path="url(#pea03339c5a)" style="fill: #d62728"/>
   </g>
   <g id="patch_41">
    <path d="M 372.193684 231.457395 
L 348.160845 231.457395 
L 348.160845 59.140525 
L 372.193684 59.140525 
z
" clip-path="url(#pea03339c5a)" style="fill: #d62728"/>
   </g>
   <g id="patch_42">
    <path d="M 342.152635 234.122569 
L 318.119796 234.122569 
L 318.119796 59.140525 
L 342.152635 59.140525 
z
" clip-path="url(#pea03339c5a)" style="fill: #d62728"/>
   </g>
   <g id="patch_43">
    <path d="M 312.111586 240.673557 
L 288.078747 240.673557 
L 288.078747 63.451946 
L 312.111586 63.451946 
z
" clip-path="url(#pea03339c5a)" style="fill: #d62728"/>
   </g>
   <g id="patch_44">
    <path d="M 282.070538 235.985575 
L 258.037699 235.985575 
L 258.037699 64.020802 
L 282.070538 64.020802 
z
" clip-path="url(#pea03339c5a)" style="fill: #d62728"/>
   </g>
   <g id="patch_45">
    <path d="M 252.029489 223.500261 
L 227.99665 223.500261 
L 227.99665 62.014764 
L 252.029489 62.014764 
z
" clip-path="url(#pea03339c5a)" style="fill: #d62728"/>
   </g>
   <g id="patch_46">
    <path d="M 221.98844 215.738987 
L 197.955601 215.738987 
L 197.955601 67.467306 
L 221.98844 67.467306 
z
" clip-path="url(#pea03339c5a)" style="fill: #d62728"/>
   </g>
   <g id="patch_47">
    <path d="M 191.947391 221.486764 
L 167.914552 221.486764 
L 167.914552 65.149151 
L 191.947391 65.149151 
z
" clip-path="url(#pea03339c5a)" style="fill: #d62728"/>
   </g>
   <g id="patch_48">
    <path d="M 161.906343 235.51738 
L 137.873504 235.51738 
L 137.873504 68.910868 
L 161.906343 68.910868 
z
" clip-path="url(#pea03339c5a)" style="fill: #d62728"/>
   </g>
   <g id="patch_49">
    <path d="M 131.865294 233.908344 
L 107.832455 233.908344 
L 107.832455 68.750451 
L 131.865294 68.750451 
z
" clip-path="url(#pea03339c5a)" style="fill: #d62728"/>
   </g>
   <g id="patch_50">
    <path d="M 101.824245 235.470768 
L 77.791406 235.470768 
L 77.791406 77.316249 
L 101.824245 77.316249 
z
" clip-path="url(#pea03339c5a)" style="fill: #d62728"/>
   </g>
   <g id="patch_51">
    <path d="M 432.275781 59.140525 
L 408.242942 59.140525 
L 408.242942 59.140525 
L 432.275781 59.140525 
z
" clip-path="url(#pea03339c5a)" style="fill: #9467bd"/>
   </g>
   <g id="patch_52">
    <path d="M 402.234733 59.140525 
L 378.201894 59.140525 
L 378.201894 59.140525 
L 402.234733 59.140525 
z
" clip-path="url(#pea03339c5a)" style="fill: #9467bd"/>
   </g>
   <g id="patch_53">
    <path d="M 372.193684 59.140525 
L 348.160845 59.140525 
L 348.160845 59.140525 
L 372.193684 59.140525 
z
" clip-path="url(#pea03339c5a)" style="fill: #9467bd"/>
   </g>
   <g id="patch_54">
    <path d="M 342.152635 59.140525 
L 318.119796 59.140525 
L 318.119796 59.140525 
L 342.152635 59.140525 
z
" clip-path="url(#pea03339c5a)" style="fill: #9467bd"/>
   </g>
   <g id="patch_55">
    <path d="M 312.111586 63.451946 
L 288.078747 63.451946 
L 288.078747 59.140525 
L 312.111586 59.140525 
z
" clip-path="url(#pea03339c5a)" style="fill: #9467bd"/>
   </g>
   <g id="patch_56">
    <path d="M 282.070538 64.020802 
L 258.037699 64.020802 
L 258.037699 59.140525 
L 282.070538 59.140525 
z
" clip-path="url(#pea03339c5a)" style="fill: #9467bd"/>
   </g>
   <g id="patch_57">
    <path d="M 252.029489 62.014764 
L 227.99665 62.014764 
L 227.99665 59.140525 
L 252.029489 59.140525 
z
" clip-path="url(#pea03339c5a)" style="fill: #9467bd"/>
   </g>
   <g id="patch_58">
    <path d="M 221.98844 67.467306 
L 197.955601 67.467306 
L 197.955601 59.140525 
L 221.98844 59.140525 
z
" clip-path="url(#pea03339c5a)" style="fill: #9467bd"/>
   </g>
   <g id="patch_59">
    <path d="M 191.947391 65.149151 
L 167.914552 65.149151 
L 167.914552 59.140525 
L 191.947391 59.140525 
z
" clip-path="url(#pea03339c5a)" style="fill: #9467bd"/>
   </g>
   <g id="patch_60">
    <path d="M 161.906343 68.910868 
L 137.873504 68.910868 
L 137.873504 59.140525 
L 161.906343 59.140525 
z
" clip-path="url(#pea03339c5a)" style="fill: #9467bd"/>
   </g>
   <g id="patch_61">
    <path d="M 131.865294 68.750451 
L 107.832455 68.750451 
L 107.832455 59.140525 
L 131.865294 59.140525 
z
" clip-path="url(#pea03339c5a)" style="fill: #9467bd"/>
   </g>
   <g id="patch_62">
    <path d="M 101.824245 77.316249 
L 77.791406 77.316249 
L 77.791406 59.140525 
L 101.824245 59.140525 
z
" clip-path="url(#pea03339c5a)" style="fill: #9467bd"/>
   </g>
   <g id="matplotlib.axis_1">
    <g id="xtick_1">
     <g id="line2d_1">
      <defs>
       <path id="mc0d2dd9897" d="M 0 0 
L 0 3.5 
" style="stroke: #000000; stroke-width: 0.8"/>
      </defs>
      <g>
       <use xlink:href="#mc0d2dd9897" x="420.259362" y="284.709867" style="stroke: #000000; stroke-width: 0.8"/>
      </g>
     </g>
     <g id="text_1">
      <!-- 3.10.3 -->
      <g transform="translate(407.062981 297.082774) rotate(-315) scale(0.1 -0.1)">
       <defs>
        <path id="DejaVuSans-33" d="M 2597 2516 
Q 3050 2419 3304 2112 
Q 3559 1806 3559 1356 
Q 3559 666 3084 287 
Q 2609 -91 1734 -91 
Q 1441 -91 1130 -33 
Q 819 25 488 141 
L 488 750 
Q 750 597 1062 519 
Q 1375 441 1716 441 
Q 2309 441 2620 675 
Q 2931 909 2931 1356 
Q 2931 1769 2642 2001 
Q 2353 2234 1838 2234 
L 1294 2234 
L 1294 2753 
L 1863 2753 
Q 2328 2753 2575 2939 
Q 2822 3125 2822 3475 
Q 2822 3834 2567 4026 
Q 2313 4219 1838 4219 
Q 1578 4219 1281 4162 
Q 984 4106 628 3988 
L 628 4550 
Q 988 4650 1302 4700 
Q 1616 4750 1894 4750 
Q 2613 4750 3031 4423 
Q 3450 4097 3450 3541 
Q 3450 3153 3228 2886 
Q 3006 2619 2597 2516 
z
" transform="scale(0.015625)"/>
        <path id="DejaVuSans-2e" d="M 684 794 
L 1344 794 
L 1344 0 
L 684 0 
L 684 794 
z
" transform="scale(0.015625)"/>
        <path id="DejaVuSans-31" d="M 794 531 
L 1825 531 
L 1825 4091 
L 703 3866 
L 703 4441 
L 1819 4666 
L 2450 4666 
L 2450 531 
L 3481 531 
L 3481 0 
L 794 0 
L 794 531 
z
" transform="scale(0.015625)"/>
        <path id="DejaVuSans-30" d="M 2034 4250 
Q 1547 4250 1301 3770 
Q 1056 3291 1056 2328 
Q 1056 1369 1301 889 
Q 1547 409 2034 409 
Q 2525 409 2770 889 
Q 3016 1369 3016 2328 
Q 3016 3291 2770 3770 
Q 2525 4250 2034 4250 
z
M 2034 4750 
Q 2819 4750 3233 4129 
Q 3647 3509 3647 2328 
Q 3647 1150 3233 529 
Q 2819 -91 2034 -91 
Q 1250 -91 836 529 
Q 422 1150 422 2328 
Q 422 3509 836 4129 
Q 1250 4750 2034 4750 
z
" transform="scale(0.015625)"/>
       </defs>
       <use xlink:href="#DejaVuSans-33"/>
       <use xlink:href="#DejaVuSans-2e" x="63.623047"/>
       <use xlink:href="#DejaVuSans-31" x="95.410156"/>
       <use xlink:href="#DejaVuSans-30" x="159.033203"/>
       <use xlink:href="#DejaVuSans-2e" x="222.65625"/>
       <use xlink:href="#DejaVuSans-33" x="254.443359"/>
      </g>
     </g>
    </g>
    <g id="xtick_2">
     <g id="line2d_2">
      <g>
       <use xlink:href="#mc0d2dd9897" x="390.218313" y="284.709867" style="stroke: #000000; stroke-width: 0.8"/>
      </g>
     </g>
     <g id="text_2">
      <!-- 3.10.2 -->
      <g transform="translate(377.021933 297.082774) rotate(-315) scale(0.1 -0.1)">
       <defs>
        <path id="DejaVuSans-32" d="M 1228 531 
L 3431 531 
L 3431 0 
L 469 0 
L 469 531 
Q 828 903 1448 1529 
Q 2069 2156 2228 2338 
Q 2531 2678 2651 2914 
Q 2772 3150 2772 3378 
Q 2772 3750 2511 3984 
Q 2250 4219 1831 4219 
Q 1534 4219 1204 4116 
Q 875 4013 500 3803 
L 500 4441 
Q 881 4594 1212 4672 
Q 1544 4750 1819 4750 
Q 2544 4750 2975 4387 
Q 3406 4025 3406 3419 
Q 3406 3131 3298 2873 
Q 3191 2616 2906 2266 
Q 2828 2175 2409 1742 
Q 1991 1309 1228 531 
z
" transform="scale(0.015625)"/>
       </defs>
       <use xlink:href="#DejaVuSans-33"/>
       <use xlink:href="#DejaVuSans-2e" x="63.623047"/>
       <use xlink:href="#DejaVuSans-31" x="95.410156"/>
       <use xlink:href="#DejaVuSans-30" x="159.033203"/>
       <use xlink:href="#DejaVuSans-2e" x="222.65625"/>
       <use xlink:href="#DejaVuSans-32" x="254.443359"/>
      </g>
     </g>
    </g>
    <g id="xtick_3">
     <g id="line2d_3">
      <g>
       <use xlink:href="#mc0d2dd9897" x="360.177264" y="284.709867" style="stroke: #000000; stroke-width: 0.8"/>
      </g>
     </g>
     <g id="text_3">
      <!-- 3.10.1 -->
      <g transform="translate(346.980884 297.082774) rotate(-315) scale(0.1 -0.1)">
       <use xlink:href="#DejaVuSans-33"/>
       <use xlink:href="#DejaVuSans-2e" x="63.623047"/>
       <use xlink:href="#DejaVuSans-31" x="95.410156"/>
       <use xlink:href="#DejaVuSans-30" x="159.033203"/>
       <use xlink:href="#DejaVuSans-2e" x="222.65625"/>
       <use xlink:href="#DejaVuSans-31" x="254.443359"/>
      </g>
     </g>
    </g>
    <g id="xtick_4">
     <g id="line2d_4">
      <g>
       <use xlink:href="#mc0d2dd9897" x="330.136216" y="284.709867" style="stroke: #000000; stroke-width: 0.8"/>
      </g>
     </g>
     <g id="text_4">
      <!-- 3.10.0 -->
      <g transform="translate(316.939835 297.082774) rotate(-315) scale(0.1 -0.1)">
       <use xlink:href="#DejaVuSans-33"/>
       <use xlink:href="#DejaVuSans-2e" x="63.623047"/>
       <use xlink:href="#DejaVuSans-31" x="95.410156"/>
       <use xlink:href="#DejaVuSans-30" x="159.033203"/>
       <use xlink:href="#DejaVuSans-2e" x="222.65625"/>
       <use xlink:href="#DejaVuSans-30" x="254.443359"/>
      </g>
     </g>
    </g>
    <g id="xtick_5">
     <g id="line2d_5">
      <g>
       <use xlink:href="#mc0d2dd9897" x="300.095167" y="284.709867" style="stroke: #000000; stroke-width: 0.8"/>
      </g>
     </g>
     <g id="text_5">
      <!-- 3.9.1 -->
      <g transform="translate(289.14827 297.082774) rotate(-315) scale(0.1 -0.1)">
       <defs>
        <path id="DejaVuSans-39" d="M 703 97 
L 703 672 
Q 941 559 1184 500 
Q 1428 441 1663 441 
Q 2288 441 2617 861 
Q 2947 1281 2994 2138 
Q 2813 1869 2534 1725 
Q 2256 1581 1919 1581 
Q 1219 1581 811 2004 
Q 403 2428 403 3163 
Q 403 3881 828 4315 
Q 1253 4750 1959 4750 
Q 2769 4750 3195 4129 
Q 3622 3509 3622 2328 
Q 3622 1225 3098 567 
Q 2575 -91 1691 -91 
Q 1453 -91 1209 -44 
Q 966 3 703 97 
z
M 1959 2075 
Q 2384 2075 2632 2365 
Q 2881 2656 2881 3163 
Q 2881 3666 2632 3958 
Q 2384 4250 1959 4250 
Q 1534 4250 1286 3958 
Q 1038 3666 1038 3163 
Q 1038 2656 1286 2365 
Q 1534 2075 1959 2075 
z
" transform="scale(0.015625)"/>
       </defs>
       <use xlink:href="#DejaVuSans-33"/>
       <use xlink:href="#DejaVuSans-2e" x="63.623047"/>
       <use xlink:href="#DejaVuSans-39" x="95.410156"/>
       <use xlink:href="#DejaVuSans-2e" x="159.033203"/>
       <use xlink:href="#DejaVuSans-31" x="190.820312"/>
      </g>
     </g>
    </g>
    <g id="xtick_6">
     <g id="line2d_6">
      <g>
       <use xlink:href="#mc0d2dd9897" x="270.054118" y="284.709867" style="stroke: #000000; stroke-width: 0.8"/>
      </g>
     </g>
     <g id="text_6">
      <!-- 3.9.0 -->
      <g transform="translate(259.107221 297.082774) rotate(-315) scale(0.1 -0.1)">
       <use xlink:href="#DejaVuSans-33"/>
       <use xlink:href="#DejaVuSans-2e" x="63.623047"/>
       <use xlink:href="#DejaVuSans-39" x="95.410156"/>
       <use xlink:href="#DejaVuSans-2e" x="159.033203"/>
       <use xlink:href="#DejaVuSans-30" x="190.820312"/>
      </g>
     </g>
    </g>
    <g id="xtick_7">
     <g id="line2d_7">
      <g>
       <use xlink:href="#mc0d2dd9897" x="240.013069" y="284.709867" style="stroke: #000000; stroke-width: 0.8"/>
      </g>
     </g>
     <g id="text_7">
      <!-- 3.8.2 -->
      <g transform="translate(229.066173 297.082774) rotate(-315) scale(0.1 -0.1)">
       <defs>
        <path id="DejaVuSans-38" d="M 2034 2216 
Q 1584 2216 1326 1975 
Q 1069 1734 1069 1313 
Q 1069 891 1326 650 
Q 1584 409 2034 409 
Q 2484 409 2743 651 
Q 3003 894 3003 1313 
Q 3003 1734 2745 1975 
Q 2488 2216 2034 2216 
z
M 1403 2484 
Q 997 2584 770 2862 
Q 544 3141 544 3541 
Q 544 4100 942 4425 
Q 1341 4750 2034 4750 
Q 2731 4750 3128 4425 
Q 3525 4100 3525 3541 
Q 3525 3141 3298 2862 
Q 3072 2584 2669 2484 
Q 3125 2378 3379 2068 
Q 3634 1759 3634 1313 
Q 3634 634 3220 271 
Q 2806 -91 2034 -91 
Q 1263 -91 848 271 
Q 434 634 434 1313 
Q 434 1759 690 2068 
Q 947 2378 1403 2484 
z
M 1172 3481 
Q 1172 3119 1398 2916 
Q 1625 2713 2034 2713 
Q 2441 2713 2670 2916 
Q 2900 3119 2900 3481 
Q 2900 3844 2670 4047 
Q 2441 4250 2034 4250 
Q 1625 4250 1398 4047 
Q 1172 3844 1172 3481 
z
" transform="scale(0.015625)"/>
       </defs>
       <use xlink:href="#DejaVuSans-33"/>
       <use xlink:href="#DejaVuSans-2e" x="63.623047"/>
       <use xlink:href="#DejaVuSans-38" x="95.410156"/>
       <use xlink:href="#DejaVuSans-2e" x="159.033203"/>
       <use xlink:href="#DejaVuSans-32" x="190.820312"/>
      </g>
     </g>
    </g>
    <g id="xtick_8">
     <g id="line2d_8">
      <g>
       <use xlink:href="#mc0d2dd9897" x="209.972021" y="284.709867" style="stroke: #000000; stroke-width: 0.8"/>
      </g>
     </g>
     <g id="text_8">
      <!-- 3.8.1 -->
      <g transform="translate(199.025124 297.082774) rotate(-315) scale(0.1 -0.1)">
       <use xlink:href="#DejaVuSans-33"/>
       <use xlink:href="#DejaVuSans-2e" x="63.623047"/>
       <use xlink:href="#DejaVuSans-38" x="95.410156"/>
       <use xlink:href="#DejaVuSans-2e" x="159.033203"/>
       <use xlink:href="#DejaVuSans-31" x="190.820312"/>
      </g>
     </g>
    </g>
    <g id="xtick_9">
     <g id="line2d_9">
      <g>
       <use xlink:href="#mc0d2dd9897" x="179.930972" y="284.709867" style="stroke: #000000; stroke-width: 0.8"/>
      </g>
     </g>
     <g id="text_9">
      <!-- 3.8.0 -->
      <g transform="translate(168.984075 297.082774) rotate(-315) scale(0.1 -0.1)">
       <use xlink:href="#DejaVuSans-33"/>
       <use xlink:href="#DejaVuSans-2e" x="63.623047"/>
       <use xlink:href="#DejaVuSans-38" x="95.410156"/>
       <use xlink:href="#DejaVuSans-2e" x="159.033203"/>
       <use xlink:href="#DejaVuSans-30" x="190.820312"/>
      </g>
     </g>
    </g>
    <g id="xtick_10">
     <g id="line2d_10">
      <g>
       <use xlink:href="#mc0d2dd9897" x="149.889923" y="284.709867" style="stroke: #000000; stroke-width: 0.8"/>
      </g>
     </g>
     <g id="text_10">
      <!-- 3.7.2 -->
      <g transform="translate(138.943026 297.082774) rotate(-315) scale(0.1 -0.1)">
       <defs>
        <path id="DejaVuSans-37" d="M 525 4666 
L 3525 4666 
L 3525 4397 
L 1831 0 
L 1172 0 
L 2766 4134 
L 525 4134 
L 525 4666 
z
" transform="scale(0.015625)"/>
       </defs>
       <use xlink:href="#DejaVuSans-33"/>
       <use xlink:href="#DejaVuSans-2e" x="63.623047"/>
       <use xlink:href="#DejaVuSans-37" x="95.410156"/>
       <use xlink:href="#DejaVuSans-2e" x="159.033203"/>
       <use xlink:href="#DejaVuSans-32" x="190.820312"/>
      </g>
     </g>
    </g>
    <g id="xtick_11">
     <g id="line2d_11">
      <g>
       <use xlink:href="#mc0d2dd9897" x="119.848874" y="284.709867" style="stroke: #000000; stroke-width: 0.8"/>
      </g>
     </g>
     <g id="text_11">
      <!-- 3.7.1 -->
      <g transform="translate(108.901978 297.082774) rotate(-315) scale(0.1 -0.1)">
       <use xlink:href="#DejaVuSans-33"/>
       <use xlink:href="#DejaVuSans-2e" x="63.623047"/>
       <use xlink:href="#DejaVuSans-37" x="95.410156"/>
       <use xlink:href="#DejaVuSans-2e" x="159.033203"/>
       <use xlink:href="#DejaVuSans-31" x="190.820312"/>
      </g>
     </g>
    </g>
    <g id="xtick_12">
     <g id="line2d_12">
      <g>
       <use xlink:href="#mc0d2dd9897" x="89.807826" y="284.709867" style="stroke: #000000; stroke-width: 0.8"/>
      </g>
     </g>
     <g id="text_12">
      <!-- 3.7.0 -->
      <g transform="translate(78.860929 297.082774) rotate(-315) scale(0.1 -0.1)">
       <use xlink:href="#DejaVuSans-33"/>
       <use xlink:href="#DejaVuSans-2e" x="63.623047"/>
       <use xlink:href="#DejaVuSans-37" x="95.410156"/>
       <use xlink:href="#DejaVuSans-2e" x="159.033203"/>
       <use xlink:href="#DejaVuSans-30" x="190.820312"/>
      </g>
     </g>
    </g>
    <g id="text_13">
     <!-- Cytoscape Version -->
     <g transform="translate(203.11875 332.642187) scale(0.1 -0.1)">
      <defs>
       <path id="DejaVuSans-Bold-43" d="M 4288 256 
Q 3956 84 3597 -3 
Q 3238 -91 2847 -91 
Q 1681 -91 1000 561 
Q 319 1213 319 2328 
Q 319 3447 1000 4098 
Q 1681 4750 2847 4750 
Q 3238 4750 3597 4662 
Q 3956 4575 4288 4403 
L 4288 3438 
Q 3953 3666 3628 3772 
Q 3303 3878 2944 3878 
Q 2300 3878 1931 3465 
Q 1563 3053 1563 2328 
Q 1563 1606 1931 1193 
Q 2300 781 2944 781 
Q 3303 781 3628 887 
Q 3953 994 4288 1222 
L 4288 256 
z
" transform="scale(0.015625)"/>
       <path id="DejaVuSans-Bold-79" d="M 78 3500 
L 1197 3500 
L 2138 1125 
L 2938 3500 
L 4056 3500 
L 2584 -331 
Q 2363 -916 2067 -1148 
Q 1772 -1381 1288 -1381 
L 641 -1381 
L 641 -647 
L 991 -647 
Q 1275 -647 1404 -556 
Q 1534 -466 1606 -231 
L 1638 -134 
L 78 3500 
z
" transform="scale(0.015625)"/>
       <path id="DejaVuSans-Bold-74" d="M 1759 4494 
L 1759 3500 
L 2913 3500 
L 2913 2700 
L 1759 2700 
L 1759 1216 
Q 1759 972 1856 886 
Q 1953 800 2241 800 
L 2816 800 
L 2816 0 
L 1856 0 
Q 1194 0 917 276 
Q 641 553 641 1216 
L 641 2700 
L 84 2700 
L 84 3500 
L 641 3500 
L 641 4494 
L 1759 4494 
z
" transform="scale(0.015625)"/>
       <path id="DejaVuSans-Bold-6f" d="M 2203 2784 
Q 1831 2784 1636 2517 
Q 1441 2250 1441 1747 
Q 1441 1244 1636 976 
Q 1831 709 2203 709 
Q 2569 709 2762 976 
Q 2956 1244 2956 1747 
Q 2956 2250 2762 2517 
Q 2569 2784 2203 2784 
z
M 2203 3584 
Q 3106 3584 3614 3096 
Q 4122 2609 4122 1747 
Q 4122 884 3614 396 
Q 3106 -91 2203 -91 
Q 1297 -91 786 396 
Q 275 884 275 1747 
Q 275 2609 786 3096 
Q 1297 3584 2203 3584 
z
" transform="scale(0.015625)"/>
       <path id="DejaVuSans-Bold-73" d="M 3272 3391 
L 3272 2541 
Q 2913 2691 2578 2766 
Q 2244 2841 1947 2841 
Q 1628 2841 1473 2761 
Q 1319 2681 1319 2516 
Q 1319 2381 1436 2309 
Q 1553 2238 1856 2203 
L 2053 2175 
Q 2913 2066 3209 1816 
Q 3506 1566 3506 1031 
Q 3506 472 3093 190 
Q 2681 -91 1863 -91 
Q 1516 -91 1145 -36 
Q 775 19 384 128 
L 384 978 
Q 719 816 1070 734 
Q 1422 653 1784 653 
Q 2113 653 2278 743 
Q 2444 834 2444 1013 
Q 2444 1163 2330 1236 
Q 2216 1309 1875 1350 
L 1678 1375 
Q 931 1469 631 1722 
Q 331 1975 331 2491 
Q 331 3047 712 3315 
Q 1094 3584 1881 3584 
Q 2191 3584 2531 3537 
Q 2872 3491 3272 3391 
z
" transform="scale(0.015625)"/>
       <path id="DejaVuSans-Bold-63" d="M 3366 3391 
L 3366 2478 
Q 3138 2634 2908 2709 
Q 2678 2784 2431 2784 
Q 1963 2784 1702 2511 
Q 1441 2238 1441 1747 
Q 1441 1256 1702 982 
Q 1963 709 2431 709 
Q 2694 709 2930 787 
Q 3166 866 3366 1019 
L 3366 103 
Q 3103 6 2833 -42 
Q 2563 -91 2291 -91 
Q 1344 -91 809 395 
Q 275 881 275 1747 
Q 275 2613 809 3098 
Q 1344 3584 2291 3584 
Q 2566 3584 2833 3536 
Q 3100 3488 3366 3391 
z
" transform="scale(0.015625)"/>
       <path id="DejaVuSans-Bold-61" d="M 2106 1575 
Q 1756 1575 1579 1456 
Q 1403 1338 1403 1106 
Q 1403 894 1545 773 
Q 1688 653 1941 653 
Q 2256 653 2472 879 
Q 2688 1106 2688 1447 
L 2688 1575 
L 2106 1575 
z
M 3816 1997 
L 3816 0 
L 2688 0 
L 2688 519 
Q 2463 200 2181 54 
Q 1900 -91 1497 -91 
Q 953 -91 614 226 
Q 275 544 275 1050 
Q 275 1666 698 1953 
Q 1122 2241 2028 2241 
L 2688 2241 
L 2688 2328 
Q 2688 2594 2478 2717 
Q 2269 2841 1825 2841 
Q 1466 2841 1156 2769 
Q 847 2697 581 2553 
L 581 3406 
Q 941 3494 1303 3539 
Q 1666 3584 2028 3584 
Q 2975 3584 3395 3211 
Q 3816 2838 3816 1997 
z
" transform="scale(0.015625)"/>
       <path id="DejaVuSans-Bold-70" d="M 1656 506 
L 1656 -1331 
L 538 -1331 
L 538 3500 
L 1656 3500 
L 1656 2988 
Q 1888 3294 2169 3439 
Q 2450 3584 2816 3584 
Q 3463 3584 3878 3070 
Q 4294 2556 4294 1747 
Q 4294 938 3878 423 
Q 3463 -91 2816 -91 
Q 2450 -91 2169 54 
Q 1888 200 1656 506 
z
M 2400 2772 
Q 2041 2772 1848 2508 
Q 1656 2244 1656 1747 
Q 1656 1250 1848 986 
Q 2041 722 2400 722 
Q 2759 722 2948 984 
Q 3138 1247 3138 1747 
Q 3138 2247 2948 2509 
Q 2759 2772 2400 2772 
z
" transform="scale(0.015625)"/>
       <path id="DejaVuSans-Bold-65" d="M 4031 1759 
L 4031 1441 
L 1416 1441 
Q 1456 1047 1700 850 
Q 1944 653 2381 653 
Q 2734 653 3104 758 
Q 3475 863 3866 1075 
L 3866 213 
Q 3469 63 3072 -14 
Q 2675 -91 2278 -91 
Q 1328 -91 801 392 
Q 275 875 275 1747 
Q 275 2603 792 3093 
Q 1309 3584 2216 3584 
Q 3041 3584 3536 3087 
Q 4031 2591 4031 1759 
z
M 2881 2131 
Q 2881 2450 2695 2645 
Q 2509 2841 2209 2841 
Q 1884 2841 1681 2658 
Q 1478 2475 1428 2131 
L 2881 2131 
z
" transform="scale(0.015625)"/>
       <path id="DejaVuSans-Bold-20" transform="scale(0.015625)"/>
       <path id="DejaVuSans-Bold-56" d="M 31 4666 
L 1241 4666 
L 2478 1222 
L 3713 4666 
L 4922 4666 
L 3194 0 
L 1759 0 
L 31 4666 
z
" transform="scale(0.015625)"/>
       <path id="DejaVuSans-Bold-72" d="M 3138 2547 
Q 2991 2616 2845 2648 
Q 2700 2681 2553 2681 
Q 2122 2681 1889 2404 
Q 1656 2128 1656 1613 
L 1656 0 
L 538 0 
L 538 3500 
L 1656 3500 
L 1656 2925 
Q 1872 3269 2151 3426 
Q 2431 3584 2822 3584 
Q 2878 3584 2943 3579 
Q 3009 3575 3134 3559 
L 3138 2547 
z
" transform="scale(0.015625)"/>
       <path id="DejaVuSans-Bold-69" d="M 538 3500 
L 1656 3500 
L 1656 0 
L 538 0 
L 538 3500 
z
M 538 4863 
L 1656 4863 
L 1656 3950 
L 538 3950 
L 538 4863 
z
" transform="scale(0.015625)"/>
       <path id="DejaVuSans-Bold-6e" d="M 4056 2131 
L 4056 0 
L 2931 0 
L 2931 347 
L 2931 1631 
Q 2931 2084 2911 2256 
Q 2891 2428 2841 2509 
Q 2775 2619 2662 2680 
Q 2550 2741 2406 2741 
Q 2056 2741 1856 2470 
Q 1656 2200 1656 1722 
L 1656 0 
L 538 0 
L 538 3500 
L 1656 3500 
L 1656 2988 
Q 1909 3294 2193 3439 
Q 2478 3584 2822 3584 
Q 3428 3584 3742 3212 
Q 4056 2841 4056 2131 
z
" transform="scale(0.015625)"/>
      </defs>
      <use xlink:href="#DejaVuSans-Bold-43"/>
      <use xlink:href="#DejaVuSans-Bold-79" x="73.388672"/>
      <use xlink:href="#DejaVuSans-Bold-74" x="138.574219"/>
      <use xlink:href="#DejaVuSans-Bold-6f" x="186.376953"/>
      <use xlink:href="#DejaVuSans-Bold-73" x="255.078125"/>
      <use xlink:href="#DejaVuSans-Bold-63" x="314.599609"/>
      <use xlink:href="#DejaVuSans-Bold-61" x="373.876953"/>
      <use xlink:href="#DejaVuSans-Bold-70" x="441.357422"/>
      <use xlink:href="#DejaVuSans-Bold-65" x="512.939453"/>
      <use xlink:href="#DejaVuSans-Bold-20" x="580.761719"/>
      <use xlink:href="#DejaVuSans-Bold-56" x="615.576172"/>
      <use xlink:href="#DejaVuSans-Bold-65" x="687.46875"/>
      <use xlink:href="#DejaVuSans-Bold-72" x="755.291016"/>
      <use xlink:href="#DejaVuSans-Bold-73" x="804.607422"/>
      <use xlink:href="#DejaVuSans-Bold-69" x="864.128906"/>
      <use xlink:href="#DejaVuSans-Bold-6f" x="898.40625"/>
      <use xlink:href="#DejaVuSans-Bold-6e" x="967.107422"/>
     </g>
    </g>
   </g>
   <g id="matplotlib.axis_2">
    <g id="ytick_1">
     <g id="line2d_13">
      <defs>
       <path id="m180aaef07e" d="M 0 0 
L -3.5 0 
" style="stroke: #000000; stroke-width: 0.8"/>
      </defs>
      <g>
       <use xlink:href="#m180aaef07e" x="60.067188" y="284.709867" style="stroke: #000000; stroke-width: 0.8"/>
      </g>
     </g>
     <g id="text_14">
      <!-- 0% -->
      <g transform="translate(37.203125 288.509086) scale(0.1 -0.1)">
       <defs>
        <path id="DejaVuSans-25" d="M 4653 2053 
Q 4381 2053 4226 1822 
Q 4072 1591 4072 1178 
Q 4072 772 4226 539 
Q 4381 306 4653 306 
Q 4919 306 5073 539 
Q 5228 772 5228 1178 
Q 5228 1588 5073 1820 
Q 4919 2053 4653 2053 
z
M 4653 2450 
Q 5147 2450 5437 2106 
Q 5728 1763 5728 1178 
Q 5728 594 5436 251 
Q 5144 -91 4653 -91 
Q 4153 -91 3862 251 
Q 3572 594 3572 1178 
Q 3572 1766 3864 2108 
Q 4156 2450 4653 2450 
z
M 1428 4353 
Q 1159 4353 1004 4120 
Q 850 3888 850 3481 
Q 850 3069 1003 2837 
Q 1156 2606 1428 2606 
Q 1700 2606 1854 2837 
Q 2009 3069 2009 3481 
Q 2009 3884 1853 4118 
Q 1697 4353 1428 4353 
z
M 4250 4750 
L 4750 4750 
L 1831 -91 
L 1331 -91 
L 4250 4750 
z
M 1428 4750 
Q 1922 4750 2215 4408 
Q 2509 4066 2509 3481 
Q 2509 2891 2217 2550 
Q 1925 2209 1428 2209 
Q 931 2209 642 2551 
Q 353 2894 353 3481 
Q 353 4063 643 4406 
Q 934 4750 1428 4750 
z
" transform="scale(0.015625)"/>
       </defs>
       <use xlink:href="#DejaVuSans-30"/>
       <use xlink:href="#DejaVuSans-25" x="63.623047"/>
      </g>
     </g>
    </g>
    <g id="ytick_2">
     <g id="line2d_14">
      <g>
       <use xlink:href="#m180aaef07e" x="60.067188" y="239.595999" style="stroke: #000000; stroke-width: 0.8"/>
      </g>
     </g>
     <g id="text_15">
      <!-- 20% -->
      <g transform="translate(30.840625 243.395217) scale(0.1 -0.1)">
       <use xlink:href="#DejaVuSans-32"/>
       <use xlink:href="#DejaVuSans-30" x="63.623047"/>
       <use xlink:href="#DejaVuSans-25" x="127.246094"/>
      </g>
     </g>
    </g>
    <g id="ytick_3">
     <g id="line2d_15">
      <g>
       <use xlink:href="#m180aaef07e" x="60.067188" y="194.48213" style="stroke: #000000; stroke-width: 0.8"/>
      </g>
     </g>
     <g id="text_16">
      <!-- 40% -->
      <g transform="translate(30.840625 198.281349) scale(0.1 -0.1)">
       <defs>
        <path id="DejaVuSans-34" d="M 2419 4116 
L 825 1625 
L 2419 1625 
L 2419 4116 
z
M 2253 4666 
L 3047 4666 
L 3047 1625 
L 3713 1625 
L 3713 1100 
L 3047 1100 
L 3047 0 
L 2419 0 
L 2419 1100 
L 313 1100 
L 313 1709 
L 2253 4666 
z
" transform="scale(0.015625)"/>
       </defs>
       <use xlink:href="#DejaVuSans-34"/>
       <use xlink:href="#DejaVuSans-30" x="63.623047"/>
       <use xlink:href="#DejaVuSans-25" x="127.246094"/>
      </g>
     </g>
    </g>
    <g id="ytick_4">
     <g id="line2d_16">
      <g>
       <use xlink:href="#m180aaef07e" x="60.067188" y="149.368262" style="stroke: #000000; stroke-width: 0.8"/>
      </g>
     </g>
     <g id="text_17">
      <!-- 60% -->
      <g transform="translate(30.840625 153.167481) scale(0.1 -0.1)">
       <defs>
        <path id="DejaVuSans-36" d="M 2113 2584 
Q 1688 2584 1439 2293 
Q 1191 2003 1191 1497 
Q 1191 994 1439 701 
Q 1688 409 2113 409 
Q 2538 409 2786 701 
Q 3034 994 3034 1497 
Q 3034 2003 2786 2293 
Q 2538 2584 2113 2584 
z
M 3366 4563 
L 3366 3988 
Q 3128 4100 2886 4159 
Q 2644 4219 2406 4219 
Q 1781 4219 1451 3797 
Q 1122 3375 1075 2522 
Q 1259 2794 1537 2939 
Q 1816 3084 2150 3084 
Q 2853 3084 3261 2657 
Q 3669 2231 3669 1497 
Q 3669 778 3244 343 
Q 2819 -91 2113 -91 
Q 1303 -91 875 529 
Q 447 1150 447 2328 
Q 447 3434 972 4092 
Q 1497 4750 2381 4750 
Q 2619 4750 2861 4703 
Q 3103 4656 3366 4563 
z
" transform="scale(0.015625)"/>
       </defs>
       <use xlink:href="#DejaVuSans-36"/>
       <use xlink:href="#DejaVuSans-30" x="63.623047"/>
       <use xlink:href="#DejaVuSans-25" x="127.246094"/>
      </g>
     </g>
    </g>
    <g id="ytick_5">
     <g id="line2d_17">
      <g>
       <use xlink:href="#m180aaef07e" x="60.067188" y="104.254393" style="stroke: #000000; stroke-width: 0.8"/>
      </g>
     </g>
     <g id="text_18">
      <!-- 80% -->
      <g transform="translate(30.840625 108.053612) scale(0.1 -0.1)">
       <use xlink:href="#DejaVuSans-38"/>
       <use xlink:href="#DejaVuSans-30" x="63.623047"/>
       <use xlink:href="#DejaVuSans-25" x="127.246094"/>
      </g>
     </g>
    </g>
    <g id="ytick_6">
     <g id="line2d_18">
      <g>
       <use xlink:href="#m180aaef07e" x="60.067188" y="59.140525" style="stroke: #000000; stroke-width: 0.8"/>
      </g>
     </g>
     <g id="text_19">
      <!-- 100% -->
      <g transform="translate(24.478125 62.939744) scale(0.1 -0.1)">
       <use xlink:href="#DejaVuSans-31"/>
       <use xlink:href="#DejaVuSans-30" x="63.623047"/>
       <use xlink:href="#DejaVuSans-30" x="127.246094"/>
       <use xlink:href="#DejaVuSans-25" x="190.869141"/>
      </g>
     </g>
    </g>
    <g id="text_20">
     <!-- Percentage -->
     <g transform="translate(18.320312 204.09629) rotate(-90) scale(0.1 -0.1)">
      <defs>
       <path id="DejaVuSans-Bold-50" d="M 588 4666 
L 2584 4666 
Q 3475 4666 3951 4270 
Q 4428 3875 4428 3144 
Q 4428 2409 3951 2014 
Q 3475 1619 2584 1619 
L 1791 1619 
L 1791 0 
L 588 0 
L 588 4666 
z
M 1791 3794 
L 1791 2491 
L 2456 2491 
Q 2806 2491 2997 2661 
Q 3188 2831 3188 3144 
Q 3188 3456 2997 3625 
Q 2806 3794 2456 3794 
L 1791 3794 
z
" transform="scale(0.015625)"/>
       <path id="DejaVuSans-Bold-67" d="M 2919 594 
Q 2688 288 2409 144 
Q 2131 0 1766 0 
Q 1125 0 706 504 
Q 288 1009 288 1791 
Q 288 2575 706 3076 
Q 1125 3578 1766 3578 
Q 2131 3578 2409 3434 
Q 2688 3291 2919 2981 
L 2919 3500 
L 4044 3500 
L 4044 353 
Q 4044 -491 3511 -936 
Q 2978 -1381 1966 -1381 
Q 1638 -1381 1331 -1331 
Q 1025 -1281 716 -1178 
L 716 -306 
Q 1009 -475 1290 -558 
Q 1572 -641 1856 -641 
Q 2406 -641 2662 -400 
Q 2919 -159 2919 353 
L 2919 594 
z
M 2181 2772 
Q 1834 2772 1640 2515 
Q 1447 2259 1447 1791 
Q 1447 1309 1634 1061 
Q 1822 813 2181 813 
Q 2531 813 2725 1069 
Q 2919 1325 2919 1791 
Q 2919 2259 2725 2515 
Q 2531 2772 2181 2772 
z
" transform="scale(0.015625)"/>
      </defs>
      <use xlink:href="#DejaVuSans-Bold-50"/>
      <use xlink:href="#DejaVuSans-Bold-65" x="73.291016"/>
      <use xlink:href="#DejaVuSans-Bold-72" x="141.113281"/>
      <use xlink:href="#DejaVuSans-Bold-63" x="190.429688"/>
      <use xlink:href="#DejaVuSans-Bold-65" x="249.707031"/>
      <use xlink:href="#DejaVuSans-Bold-6e" x="317.529297"/>
      <use xlink:href="#DejaVuSans-Bold-74" x="388.720703"/>
      <use xlink:href="#DejaVuSans-Bold-61" x="436.523438"/>
      <use xlink:href="#DejaVuSans-Bold-67" x="504.003906"/>
      <use xlink:href="#DejaVuSans-Bold-65" x="575.585938"/>
     </g>
    </g>
   </g>
   <g id="patch_63">
    <path d="M 60.067188 284.709867 
L 60.067188 59.140525 
" style="fill: none; stroke: #000000; stroke-width: 0.8; stroke-linejoin: miter; stroke-linecap: square"/>
   </g>
   <g id="patch_64">
    <path d="M 450 284.709867 
L 450 59.140525 
" style="fill: none; stroke: #000000; stroke-width: 0.8; stroke-linejoin: miter; stroke-linecap: square"/>
   </g>
   <g id="patch_65">
    <path d="M 60.067188 284.709867 
L 450 284.709867 
" style="fill: none; stroke: #000000; stroke-width: 0.8; stroke-linejoin: miter; stroke-linecap: square"/>
   </g>
   <g id="patch_66">
    <path d="M 60.067188 59.140525 
L 450 59.140525 
" style="fill: none; stroke: #000000; stroke-width: 0.8; stroke-linejoin: miter; stroke-linecap: square"/>
   </g>
   <g id="text_21">
    <!-- Downloads by Platform -->
    <g transform="translate(176.323906 28.026657) scale(0.12 -0.12)">
     <defs>
      <path id="DejaVuSans-Bold-44" d="M 1791 3756 
L 1791 909 
L 2222 909 
Q 2959 909 3348 1275 
Q 3738 1641 3738 2338 
Q 3738 3031 3350 3393 
Q 2963 3756 2222 3756 
L 1791 3756 
z
M 588 4666 
L 1856 4666 
Q 2919 4666 3439 4514 
Q 3959 4363 4331 4000 
Q 4659 3684 4818 3271 
Q 4978 2859 4978 2338 
Q 4978 1809 4818 1395 
Q 4659 981 4331 666 
Q 3956 303 3431 151 
Q 2906 0 1856 0 
L 588 0 
L 588 4666 
z
" transform="scale(0.015625)"/>
      <path id="DejaVuSans-Bold-77" d="M 225 3500 
L 1313 3500 
L 1900 1088 
L 2491 3500 
L 3425 3500 
L 4013 1113 
L 4603 3500 
L 5691 3500 
L 4769 0 
L 3547 0 
L 2956 2406 
L 2369 0 
L 1147 0 
L 225 3500 
z
" transform="scale(0.015625)"/>
      <path id="DejaVuSans-Bold-6c" d="M 538 4863 
L 1656 4863 
L 1656 0 
L 538 0 
L 538 4863 
z
" transform="scale(0.015625)"/>
      <path id="DejaVuSans-Bold-64" d="M 2919 2988 
L 2919 4863 
L 4044 4863 
L 4044 0 
L 2919 0 
L 2919 506 
Q 2688 197 2409 53 
Q 2131 -91 1766 -91 
Q 1119 -91 703 423 
Q 288 938 288 1747 
Q 288 2556 703 3070 
Q 1119 3584 1766 3584 
Q 2128 3584 2408 3439 
Q 2688 3294 2919 2988 
z
M 2181 722 
Q 2541 722 2730 984 
Q 2919 1247 2919 1747 
Q 2919 2247 2730 2509 
Q 2541 2772 2181 2772 
Q 1825 2772 1636 2509 
Q 1447 2247 1447 1747 
Q 1447 1247 1636 984 
Q 1825 722 2181 722 
z
" transform="scale(0.015625)"/>
      <path id="DejaVuSans-Bold-62" d="M 2400 722 
Q 2759 722 2948 984 
Q 3138 1247 3138 1747 
Q 3138 2247 2948 2509 
Q 2759 2772 2400 2772 
Q 2041 2772 1848 2508 
Q 1656 2244 1656 1747 
Q 1656 1250 1848 986 
Q 2041 722 2400 722 
z
M 1656 2988 
Q 1888 3294 2169 3439 
Q 2450 3584 2816 3584 
Q 3463 3584 3878 3070 
Q 4294 2556 4294 1747 
Q 4294 938 3878 423 
Q 3463 -91 2816 -91 
Q 2450 -91 2169 54 
Q 1888 200 1656 506 
L 1656 0 
L 538 0 
L 538 4863 
L 1656 4863 
L 1656 2988 
z
" transform="scale(0.015625)"/>
      <path id="DejaVuSans-Bold-66" d="M 2841 4863 
L 2841 4128 
L 2222 4128 
Q 1984 4128 1890 4042 
Q 1797 3956 1797 3744 
L 1797 3500 
L 2753 3500 
L 2753 2700 
L 1797 2700 
L 1797 0 
L 678 0 
L 678 2700 
L 122 2700 
L 122 3500 
L 678 3500 
L 678 3744 
Q 678 4316 997 4589 
Q 1316 4863 1984 4863 
L 2841 4863 
z
" transform="scale(0.015625)"/>
      <path id="DejaVuSans-Bold-6d" d="M 3781 2919 
Q 3994 3244 4286 3414 
Q 4578 3584 4928 3584 
Q 5531 3584 5847 3212 
Q 6163 2841 6163 2131 
L 6163 0 
L 5038 0 
L 5038 1825 
Q 5041 1866 5042 1909 
Q 5044 1953 5044 2034 
Q 5044 2406 4934 2573 
Q 4825 2741 4581 2741 
Q 4263 2741 4089 2478 
Q 3916 2216 3909 1719 
L 3909 0 
L 2784 0 
L 2784 1825 
Q 2784 2406 2684 2573 
Q 2584 2741 2328 2741 
Q 2006 2741 1831 2477 
Q 1656 2213 1656 1722 
L 1656 0 
L 531 0 
L 531 3500 
L 1656 3500 
L 1656 2988 
Q 1863 3284 2130 3434 
Q 2397 3584 2719 3584 
Q 3081 3584 3359 3409 
Q 3638 3234 3781 2919 
z
" transform="scale(0.015625)"/>
     </defs>
     <use xlink:href="#DejaVuSans-Bold-44"/>
     <use xlink:href="#DejaVuSans-Bold-6f" x="83.007812"/>
     <use xlink:href="#DejaVuSans-Bold-77" x="151.708984"/>
     <use xlink:href="#DejaVuSans-Bold-6e" x="244.091797"/>
     <use xlink:href="#DejaVuSans-Bold-6c" x="315.283203"/>
     <use xlink:href="#DejaVuSans-Bold-6f" x="349.560547"/>
     <use xlink:href="#DejaVuSans-Bold-61" x="418.261719"/>
     <use xlink:href="#DejaVuSans-Bold-64" x="485.742188"/>
     <use xlink:href="#DejaVuSans-Bold-73" x="557.324219"/>
     <use xlink:href="#DejaVuSans-Bold-20" x="616.845703"/>
     <use xlink:href="#DejaVuSans-Bold-62" x="651.660156"/>
     <use xlink:href="#DejaVuSans-Bold-79" x="723.242188"/>
     <use xlink:href="#DejaVuSans-Bold-20" x="788.427734"/>
     <use xlink:href="#DejaVuSans-Bold-50" x="823.242188"/>
     <use xlink:href="#DejaVuSans-Bold-6c" x="896.533203"/>
     <use xlink:href="#DejaVuSans-Bold-61" x="930.810547"/>
     <use xlink:href="#DejaVuSans-Bold-74" x="998.291016"/>
     <use xlink:href="#DejaVuSans-Bold-66" x="1046.09375"/>
     <use xlink:href="#DejaVuSans-Bold-6f" x="1089.599609"/>
     <use xlink:href="#DejaVuSans-Bold-72" x="1158.300781"/>
     <use xlink:href="#DejaVuSans-Bold-6d" x="1207.617188"/>
    </g>
   </g>
   <g id="legend_1">
    <g id="patch_67">
     <path d="M 62.067188 54.629138 
L 448 54.629138 
Q 450 54.629138 450 52.629138 
L 450 38.951013 
Q 450 36.951013 448 36.951013 
L 62.067188 36.951013 
Q 60.067188 36.951013 60.067188 38.951013 
L 60.067188 52.629138 
Q 60.067188 54.629138 62.067188 54.629138 
z
" style="fill: #ffffff; opacity: 0.8; stroke: #cccccc; stroke-linejoin: miter"/>
    </g>
    <g id="patch_68">
     <path d="M 64.067188 48.549451 
L 84.067188 48.549451 
L 84.067188 41.549451 
L 64.067188 41.549451 
z
" style="fill: #1f77b4"/>
    </g>
    <g id="text_22">
     <!-- Linux -->
     <g transform="translate(92.067188 48.549451) scale(0.1 -0.1)">
      <defs>
       <path id="DejaVuSans-4c" d="M 628 4666 
L 1259 4666 
L 1259 531 
L 3531 531 
L 3531 0 
L 628 0 
L 628 4666 
z
" transform="scale(0.015625)"/>
       <path id="DejaVuSans-69" d="M 603 3500 
L 1178 3500 
L 1178 0 
L 603 0 
L 603 3500 
z
M 603 4863 
L 1178 4863 
L 1178 4134 
L 603 4134 
L 603 4863 
z
" transform="scale(0.015625)"/>
       <path id="DejaVuSans-6e" d="M 3513 2113 
L 3513 0 
L 2938 0 
L 2938 2094 
Q 2938 2591 2744 2837 
Q 2550 3084 2163 3084 
Q 1697 3084 1428 2787 
Q 1159 2491 1159 1978 
L 1159 0 
L 581 0 
L 581 3500 
L 1159 3500 
L 1159 2956 
Q 1366 3272 1645 3428 
Q 1925 3584 2291 3584 
Q 2894 3584 3203 3211 
Q 3513 2838 3513 2113 
z
" transform="scale(0.015625)"/>
       <path id="DejaVuSans-75" d="M 544 1381 
L 544 3500 
L 1119 3500 
L 1119 1403 
Q 1119 906 1312 657 
Q 1506 409 1894 409 
Q 2359 409 2629 706 
Q 2900 1003 2900 1516 
L 2900 3500 
L 3475 3500 
L 3475 0 
L 2900 0 
L 2900 538 
Q 2691 219 2414 64 
Q 2138 -91 1772 -91 
Q 1169 -91 856 284 
Q 544 659 544 1381 
z
M 1991 3584 
L 1991 3584 
z
" transform="scale(0.015625)"/>
       <path id="DejaVuSans-78" d="M 3513 3500 
L 2247 1797 
L 3578 0 
L 2900 0 
L 1881 1375 
L 863 0 
L 184 0 
L 1544 1831 
L 300 3500 
L 978 3500 
L 1906 2253 
L 2834 3500 
L 3513 3500 
z
" transform="scale(0.015625)"/>
      </defs>
      <use xlink:href="#DejaVuSans-4c"/>
      <use xlink:href="#DejaVuSans-69" x="55.712891"/>
      <use xlink:href="#DejaVuSans-6e" x="83.496094"/>
      <use xlink:href="#DejaVuSans-75" x="146.875"/>
      <use xlink:href="#DejaVuSans-78" x="210.253906"/>
     </g>
    </g>
    <g id="patch_69">
     <path d="M 125.883594 48.549451 
L 145.883594 48.549451 
L 145.883594 41.549451 
L 125.883594 41.549451 
z
" style="fill: #ff7f0e"/>
    </g>
    <g id="text_23">
     <!-- Mac -->
     <g transform="translate(153.883594 48.549451) scale(0.1 -0.1)">
      <defs>
       <path id="DejaVuSans-4d" d="M 628 4666 
L 1569 4666 
L 2759 1491 
L 3956 4666 
L 4897 4666 
L 4897 0 
L 4281 0 
L 4281 4097 
L 3078 897 
L 2444 897 
L 1241 4097 
L 1241 0 
L 628 0 
L 628 4666 
z
" transform="scale(0.015625)"/>
       <path id="DejaVuSans-61" d="M 2194 1759 
Q 1497 1759 1228 1600 
Q 959 1441 959 1056 
Q 959 750 1161 570 
Q 1363 391 1709 391 
Q 2188 391 2477 730 
Q 2766 1069 2766 1631 
L 2766 1759 
L 2194 1759 
z
M 3341 1997 
L 3341 0 
L 2766 0 
L 2766 531 
Q 2569 213 2275 61 
Q 1981 -91 1556 -91 
Q 1019 -91 701 211 
Q 384 513 384 1019 
Q 384 1609 779 1909 
Q 1175 2209 1959 2209 
L 2766 2209 
L 2766 2266 
Q 2766 2663 2505 2880 
Q 2244 3097 1772 3097 
Q 1472 3097 1187 3025 
Q 903 2953 641 2809 
L 641 3341 
Q 956 3463 1253 3523 
Q 1550 3584 1831 3584 
Q 2591 3584 2966 3190 
Q 3341 2797 3341 1997 
z
" transform="scale(0.015625)"/>
       <path id="DejaVuSans-63" d="M 3122 3366 
L 3122 2828 
Q 2878 2963 2633 3030 
Q 2388 3097 2138 3097 
Q 1578 3097 1268 2742 
Q 959 2388 959 1747 
Q 959 1106 1268 751 
Q 1578 397 2138 397 
Q 2388 397 2633 464 
Q 2878 531 3122 666 
L 3122 134 
Q 2881 22 2623 -34 
Q 2366 -91 2075 -91 
Q 1284 -91 818 406 
Q 353 903 353 1747 
Q 353 2603 823 3093 
Q 1294 3584 2113 3584 
Q 2378 3584 2631 3529 
Q 2884 3475 3122 3366 
z
" transform="scale(0.015625)"/>
      </defs>
      <use xlink:href="#DejaVuSans-4d"/>
      <use xlink:href="#DejaVuSans-61" x="86.279297"/>
      <use xlink:href="#DejaVuSans-63" x="147.558594"/>
     </g>
    </g>
    <g id="patch_70">
     <path d="M 181.010938 48.549451 
L 201.010938 48.549451 
L 201.010938 41.549451 
L 181.010938 41.549451 
z
" style="fill: #2ca02c"/>
    </g>
    <g id="text_24">
     <!-- Mac ARM -->
     <g transform="translate(209.010938 48.549451) scale(0.1 -0.1)">
      <defs>
       <path id="DejaVuSans-20" transform="scale(0.015625)"/>
       <path id="DejaVuSans-41" d="M 2188 4044 
L 1331 1722 
L 3047 1722 
L 2188 4044 
z
M 1831 4666 
L 2547 4666 
L 4325 0 
L 3669 0 
L 3244 1197 
L 1141 1197 
L 716 0 
L 50 0 
L 1831 4666 
z
" transform="scale(0.015625)"/>
       <path id="DejaVuSans-52" d="M 2841 2188 
Q 3044 2119 3236 1894 
Q 3428 1669 3622 1275 
L 4263 0 
L 3584 0 
L 2988 1197 
Q 2756 1666 2539 1819 
Q 2322 1972 1947 1972 
L 1259 1972 
L 1259 0 
L 628 0 
L 628 4666 
L 2053 4666 
Q 2853 4666 3247 4331 
Q 3641 3997 3641 3322 
Q 3641 2881 3436 2590 
Q 3231 2300 2841 2188 
z
M 1259 4147 
L 1259 2491 
L 2053 2491 
Q 2509 2491 2742 2702 
Q 2975 2913 2975 3322 
Q 2975 3731 2742 3939 
Q 2509 4147 2053 4147 
L 1259 4147 
z
" transform="scale(0.015625)"/>
      </defs>
      <use xlink:href="#DejaVuSans-4d"/>
      <use xlink:href="#DejaVuSans-61" x="86.279297"/>
      <use xlink:href="#DejaVuSans-63" x="147.558594"/>
      <use xlink:href="#DejaVuSans-20" x="202.539062"/>
      <use xlink:href="#DejaVuSans-41" x="234.326172"/>
      <use xlink:href="#DejaVuSans-52" x="302.734375"/>
      <use xlink:href="#DejaVuSans-4d" x="372.216797"/>
     </g>
    </g>
    <g id="patch_71">
     <path d="M 261.733594 48.549451 
L 281.733594 48.549451 
L 281.733594 41.549451 
L 261.733594 41.549451 
z
" style="fill: #d62728"/>
    </g>
    <g id="text_25">
     <!-- Windows -->
     <g transform="translate(289.733594 48.549451) scale(0.1 -0.1)">
      <defs>
       <path id="DejaVuSans-57" d="M 213 4666 
L 850 4666 
L 1831 722 
L 2809 4666 
L 3519 4666 
L 4500 722 
L 5478 4666 
L 6119 4666 
L 4947 0 
L 4153 0 
L 3169 4050 
L 2175 0 
L 1381 0 
L 213 4666 
z
" transform="scale(0.015625)"/>
       <path id="DejaVuSans-64" d="M 2906 2969 
L 2906 4863 
L 3481 4863 
L 3481 0 
L 2906 0 
L 2906 525 
Q 2725 213 2448 61 
Q 2172 -91 1784 -91 
Q 1150 -91 751 415 
Q 353 922 353 1747 
Q 353 2572 751 3078 
Q 1150 3584 1784 3584 
Q 2172 3584 2448 3432 
Q 2725 3281 2906 2969 
z
M 947 1747 
Q 947 1113 1208 752 
Q 1469 391 1925 391 
Q 2381 391 2643 752 
Q 2906 1113 2906 1747 
Q 2906 2381 2643 2742 
Q 2381 3103 1925 3103 
Q 1469 3103 1208 2742 
Q 947 2381 947 1747 
z
" transform="scale(0.015625)"/>
       <path id="DejaVuSans-6f" d="M 1959 3097 
Q 1497 3097 1228 2736 
Q 959 2375 959 1747 
Q 959 1119 1226 758 
Q 1494 397 1959 397 
Q 2419 397 2687 759 
Q 2956 1122 2956 1747 
Q 2956 2369 2687 2733 
Q 2419 3097 1959 3097 
z
M 1959 3584 
Q 2709 3584 3137 3096 
Q 3566 2609 3566 1747 
Q 3566 888 3137 398 
Q 2709 -91 1959 -91 
Q 1206 -91 779 398 
Q 353 888 353 1747 
Q 353 2609 779 3096 
Q 1206 3584 1959 3584 
z
" transform="scale(0.015625)"/>
       <path id="DejaVuSans-77" d="M 269 3500 
L 844 3500 
L 1563 769 
L 2278 3500 
L 2956 3500 
L 3675 769 
L 4391 3500 
L 4966 3500 
L 4050 0 
L 3372 0 
L 2619 2869 
L 1863 0 
L 1184 0 
L 269 3500 
z
" transform="scale(0.015625)"/>
       <path id="DejaVuSans-73" d="M 2834 3397 
L 2834 2853 
Q 2591 2978 2328 3040 
Q 2066 3103 1784 3103 
Q 1356 3103 1142 2972 
Q 928 2841 928 2578 
Q 928 2378 1081 2264 
Q 1234 2150 1697 2047 
L 1894 2003 
Q 2506 1872 2764 1633 
Q 3022 1394 3022 966 
Q 3022 478 2636 193 
Q 2250 -91 1575 -91 
Q 1294 -91 989 -36 
Q 684 19 347 128 
L 347 722 
Q 666 556 975 473 
Q 1284 391 1588 391 
Q 1994 391 2212 530 
Q 2431 669 2431 922 
Q 2431 1156 2273 1281 
Q 2116 1406 1581 1522 
L 1381 1569 
Q 847 1681 609 1914 
Q 372 2147 372 2553 
Q 372 3047 722 3315 
Q 1072 3584 1716 3584 
Q 2034 3584 2315 3537 
Q 2597 3491 2834 3397 
z
" transform="scale(0.015625)"/>
      </defs>
      <use xlink:href="#DejaVuSans-57"/>
      <use xlink:href="#DejaVuSans-69" x="96.626953"/>
      <use xlink:href="#DejaVuSans-6e" x="124.410156"/>
      <use xlink:href="#DejaVuSans-64" x="187.789062"/>
      <use xlink:href="#DejaVuSans-6f" x="251.265625"/>
      <use xlink:href="#DejaVuSans-77" x="312.447266"/>
      <use xlink:href="#DejaVuSans-73" x="394.234375"/>
     </g>
    </g>
    <g id="patch_72">
     <path d="M 341.239062 48.549451 
L 361.239062 48.549451 
L 361.239062 41.549451 
L 341.239062 41.549451 
z
" style="fill: #9467bd"/>
    </g>
    <g id="text_26">
     <!-- Windows 32 bit -->
     <g transform="translate(369.239062 48.549451) scale(0.1 -0.1)">
      <defs>
       <path id="DejaVuSans-62" d="M 3116 1747 
Q 3116 2381 2855 2742 
Q 2594 3103 2138 3103 
Q 1681 3103 1420 2742 
Q 1159 2381 1159 1747 
Q 1159 1113 1420 752 
Q 1681 391 2138 391 
Q 2594 391 2855 752 
Q 3116 1113 3116 1747 
z
M 1159 2969 
Q 1341 3281 1617 3432 
Q 1894 3584 2278 3584 
Q 2916 3584 3314 3078 
Q 3713 2572 3713 1747 
Q 3713 922 3314 415 
Q 2916 -91 2278 -91 
Q 1894 -91 1617 61 
Q 1341 213 1159 525 
L 1159 0 
L 581 0 
L 581 4863 
L 1159 4863 
L 1159 2969 
z
" transform="scale(0.015625)"/>
       <path id="DejaVuSans-74" d="M 1172 4494 
L 1172 3500 
L 2356 3500 
L 2356 3053 
L 1172 3053 
L 1172 1153 
Q 1172 725 1289 603 
Q 1406 481 1766 481 
L 2356 481 
L 2356 0 
L 1766 0 
Q 1100 0 847 248 
Q 594 497 594 1153 
L 594 3053 
L 172 3053 
L 172 3500 
L 594 3500 
L 594 4494 
L 1172 4494 
z
" transform="scale(0.015625)"/>
      </defs>
      <use xlink:href="#DejaVuSans-57"/>
      <use xlink:href="#DejaVuSans-69" x="96.626953"/>
      <use xlink:href="#DejaVuSans-6e" x="124.410156"/>
      <use xlink:href="#DejaVuSans-64" x="187.789062"/>
      <use xlink:href="#DejaVuSans-6f" x="251.265625"/>
      <use xlink:href="#DejaVuSans-77" x="312.447266"/>
      <use xlink:href="#DejaVuSans-73" x="394.234375"/>
      <use xlink:href="#DejaVuSans-20" x="446.333984"/>
      <use xlink:href="#DejaVuSans-33" x="478.121094"/>
      <use xlink:href="#DejaVuSans-32" x="541.744141"/>
      <use xlink:href="#DejaVuSans-20" x="605.367188"/>
      <use xlink:href="#DejaVuSans-62" x="637.154297"/>
      <use xlink:href="#DejaVuSans-69" x="700.630859"/>
      <use xlink:href="#DejaVuSans-74" x="728.414062"/>
     </g>
    </g>
   </g>
  </g>
  <g id="patch_73">
   <path d="M 0 345.6 
L 460.8 345.6 
L 460.8 0 
L 0 0 
L 0 345.6 
z
" style="fill: none; stroke: #000000; stroke-width: 2; stroke-linejoin: miter"/>
  </g>
 </g>
 <defs>
  <clipPath id="pea03339c5a">
   <rect x="60.067188" y="59.140525" width="389.932812" height="225.569342"/>
  </clipPath>
 </defs>
</svg>
