<?xml version="1.0" encoding="utf-8" standalone="no"?>
<!DOCTYPE svg PUBLIC "-//W3C//DTD SVG 1.1//EN"
  "http://www.w3.org/Graphics/SVG/1.1/DTD/svg11.dtd">
<svg xmlns:xlink="http://www.w3.org/1999/xlink" width="460.8pt" height="345.6pt" viewBox="0 0 460.8 345.6" xmlns="http://www.w3.org/2000/svg" version="1.1">
 <metadata>
  <rdf:RDF xmlns:dc="http://purl.org/dc/elements/1.1/" xmlns:cc="http://creativecommons.org/ns#" xmlns:rdf="http://www.w3.org/1999/02/22-rdf-syntax-ns#">
   <cc:Work>
    <dc:type rdf:resource="http://purl.org/dc/dcmitype/StillImage"/>
    <dc:date>2025-02-25T17:04:09.058600</dc:date>
    <dc:format>image/svg+xml</dc:format>
    <dc:creator>
     <cc:Agent>
      <dc:title>Matplotlib v3.9.2, https://matplotlib.org/</dc:title>
     </cc:Agent>
    </dc:creator>
   </cc:Work>
  </rdf:RDF>
 </metadata>
 <defs>
  <style type="text/css">*{stroke-linejoin: round; stroke-linecap: butt}</style>
 </defs>
 <g id="figure_1">
  <g id="patch_1">
   <path d="M 0 345.6 
L 460.8 345.6 
L 460.8 0 
L 0 0 
z
" style="fill: #ffffff"/>
  </g>
  <g id="axes_1">
   <g id="patch_2">
    <path d="M 63.290625 289.28254 
L 450 289.28254 
L 450 25.918125 
L 63.290625 25.918125 
z
" style="fill: #ffffff"/>
   </g>
   <g id="matplotlib.axis_1">
    <g id="xtick_1">
     <g id="line2d_1">
      <defs>
       <path id="mcf815a4d56" d="M 0 0 
L 0 3.5 
" style="stroke: #000000; stroke-width: 0.8"/>
      </defs>
      <g>
       <use xlink:href="#mcf815a4d56" x="109.831325" y="289.28254" style="stroke: #000000; stroke-width: 0.8"/>
      </g>
     </g>
     <g id="text_1">
      <!-- 2015 -->
      <g transform="translate(98.882219 301.655446) rotate(-315) scale(0.1 -0.1)">
       <defs>
        <path id="DejaVuSans-32" d="M 1228 531 
L 3431 531 
L 3431 0 
L 469 0 
L 469 531 
Q 828 903 1448 1529 
Q 2069 2156 2228 2338 
Q 2531 2678 2651 2914 
Q 2772 3150 2772 3378 
Q 2772 3750 2511 3984 
Q 2250 4219 1831 4219 
Q 1534 4219 1204 4116 
Q 875 4013 500 3803 
L 500 4441 
Q 881 4594 1212 4672 
Q 1544 4750 1819 4750 
Q 2544 4750 2975 4387 
Q 3406 4025 3406 3419 
Q 3406 3131 3298 2873 
Q 3191 2616 2906 2266 
Q 2828 2175 2409 1742 
Q 1991 1309 1228 531 
z
" transform="scale(0.015625)"/>
        <path id="DejaVuSans-30" d="M 2034 4250 
Q 1547 4250 1301 3770 
Q 1056 3291 1056 2328 
Q 1056 1369 1301 889 
Q 1547 409 2034 409 
Q 2525 409 2770 889 
Q 3016 1369 3016 2328 
Q 3016 3291 2770 3770 
Q 2525 4250 2034 4250 
z
M 2034 4750 
Q 2819 4750 3233 4129 
Q 3647 3509 3647 2328 
Q 3647 1150 3233 529 
Q 2819 -91 2034 -91 
Q 1250 -91 836 529 
Q 422 1150 422 2328 
Q 422 3509 836 4129 
Q 1250 4750 2034 4750 
z
" transform="scale(0.015625)"/>
        <path id="DejaVuSans-31" d="M 794 531 
L 1825 531 
L 1825 4091 
L 703 3866 
L 703 4441 
L 1819 4666 
L 2450 4666 
L 2450 531 
L 3481 531 
L 3481 0 
L 794 0 
L 794 531 
z
" transform="scale(0.015625)"/>
        <path id="DejaVuSans-35" d="M 691 4666 
L 3169 4666 
L 3169 4134 
L 1269 4134 
L 1269 2991 
Q 1406 3038 1543 3061 
Q 1681 3084 1819 3084 
Q 2600 3084 3056 2656 
Q 3513 2228 3513 1497 
Q 3513 744 3044 326 
Q 2575 -91 1722 -91 
Q 1428 -91 1123 -41 
Q 819 9 494 109 
L 494 744 
Q 775 591 1075 516 
Q 1375 441 1709 441 
Q 2250 441 2565 725 
Q 2881 1009 2881 1497 
Q 2881 1984 2565 2268 
Q 2250 2553 1709 2553 
Q 1456 2553 1204 2497 
Q 953 2441 691 2322 
L 691 4666 
z
" transform="scale(0.015625)"/>
       </defs>
       <use xlink:href="#DejaVuSans-32"/>
       <use xlink:href="#DejaVuSans-30" x="63.623047"/>
       <use xlink:href="#DejaVuSans-31" x="127.246094"/>
       <use xlink:href="#DejaVuSans-35" x="190.869141"/>
      </g>
     </g>
    </g>
    <g id="xtick_2">
     <g id="line2d_2">
      <g>
       <use xlink:href="#mcf815a4d56" x="142.259226" y="289.28254" style="stroke: #000000; stroke-width: 0.8"/>
      </g>
     </g>
     <g id="text_2">
      <!-- 2016 -->
      <g transform="translate(131.310119 301.655446) rotate(-315) scale(0.1 -0.1)">
       <defs>
        <path id="DejaVuSans-36" d="M 2113 2584 
Q 1688 2584 1439 2293 
Q 1191 2003 1191 1497 
Q 1191 994 1439 701 
Q 1688 409 2113 409 
Q 2538 409 2786 701 
Q 3034 994 3034 1497 
Q 3034 2003 2786 2293 
Q 2538 2584 2113 2584 
z
M 3366 4563 
L 3366 3988 
Q 3128 4100 2886 4159 
Q 2644 4219 2406 4219 
Q 1781 4219 1451 3797 
Q 1122 3375 1075 2522 
Q 1259 2794 1537 2939 
Q 1816 3084 2150 3084 
Q 2853 3084 3261 2657 
Q 3669 2231 3669 1497 
Q 3669 778 3244 343 
Q 2819 -91 2113 -91 
Q 1303 -91 875 529 
Q 447 1150 447 2328 
Q 447 3434 972 4092 
Q 1497 4750 2381 4750 
Q 2619 4750 2861 4703 
Q 3103 4656 3366 4563 
z
" transform="scale(0.015625)"/>
       </defs>
       <use xlink:href="#DejaVuSans-32"/>
       <use xlink:href="#DejaVuSans-30" x="63.623047"/>
       <use xlink:href="#DejaVuSans-31" x="127.246094"/>
       <use xlink:href="#DejaVuSans-36" x="190.869141"/>
      </g>
     </g>
    </g>
    <g id="xtick_3">
     <g id="line2d_3">
      <g>
       <use xlink:href="#mcf815a4d56" x="174.77597" y="289.28254" style="stroke: #000000; stroke-width: 0.8"/>
      </g>
     </g>
     <g id="text_3">
      <!-- 2017 -->
      <g transform="translate(163.826863 301.655446) rotate(-315) scale(0.1 -0.1)">
       <defs>
        <path id="DejaVuSans-37" d="M 525 4666 
L 3525 4666 
L 3525 4397 
L 1831 0 
L 1172 0 
L 2766 4134 
L 525 4134 
L 525 4666 
z
" transform="scale(0.015625)"/>
       </defs>
       <use xlink:href="#DejaVuSans-32"/>
       <use xlink:href="#DejaVuSans-30" x="63.623047"/>
       <use xlink:href="#DejaVuSans-31" x="127.246094"/>
       <use xlink:href="#DejaVuSans-37" x="190.869141"/>
      </g>
     </g>
    </g>
    <g id="xtick_4">
     <g id="line2d_4">
      <g>
       <use xlink:href="#mcf815a4d56" x="207.20387" y="289.28254" style="stroke: #000000; stroke-width: 0.8"/>
      </g>
     </g>
     <g id="text_4">
      <!-- 2018 -->
      <g transform="translate(196.254763 301.655446) rotate(-315) scale(0.1 -0.1)">
       <defs>
        <path id="DejaVuSans-38" d="M 2034 2216 
Q 1584 2216 1326 1975 
Q 1069 1734 1069 1313 
Q 1069 891 1326 650 
Q 1584 409 2034 409 
Q 2484 409 2743 651 
Q 3003 894 3003 1313 
Q 3003 1734 2745 1975 
Q 2488 2216 2034 2216 
z
M 1403 2484 
Q 997 2584 770 2862 
Q 544 3141 544 3541 
Q 544 4100 942 4425 
Q 1341 4750 2034 4750 
Q 2731 4750 3128 4425 
Q 3525 4100 3525 3541 
Q 3525 3141 3298 2862 
Q 3072 2584 2669 2484 
Q 3125 2378 3379 2068 
Q 3634 1759 3634 1313 
Q 3634 634 3220 271 
Q 2806 -91 2034 -91 
Q 1263 -91 848 271 
Q 434 634 434 1313 
Q 434 1759 690 2068 
Q 947 2378 1403 2484 
z
M 1172 3481 
Q 1172 3119 1398 2916 
Q 1625 2713 2034 2713 
Q 2441 2713 2670 2916 
Q 2900 3119 2900 3481 
Q 2900 3844 2670 4047 
Q 2441 4250 2034 4250 
Q 1625 4250 1398 4047 
Q 1172 3844 1172 3481 
z
" transform="scale(0.015625)"/>
       </defs>
       <use xlink:href="#DejaVuSans-32"/>
       <use xlink:href="#DejaVuSans-30" x="63.623047"/>
       <use xlink:href="#DejaVuSans-31" x="127.246094"/>
       <use xlink:href="#DejaVuSans-38" x="190.869141"/>
      </g>
     </g>
    </g>
    <g id="xtick_5">
     <g id="line2d_5">
      <g>
       <use xlink:href="#mcf815a4d56" x="239.63177" y="289.28254" style="stroke: #000000; stroke-width: 0.8"/>
      </g>
     </g>
     <g id="text_5">
      <!-- 2019 -->
      <g transform="translate(228.682664 301.655446) rotate(-315) scale(0.1 -0.1)">
       <defs>
        <path id="DejaVuSans-39" d="M 703 97 
L 703 672 
Q 941 559 1184 500 
Q 1428 441 1663 441 
Q 2288 441 2617 861 
Q 2947 1281 2994 2138 
Q 2813 1869 2534 1725 
Q 2256 1581 1919 1581 
Q 1219 1581 811 2004 
Q 403 2428 403 3163 
Q 403 3881 828 4315 
Q 1253 4750 1959 4750 
Q 2769 4750 3195 4129 
Q 3622 3509 3622 2328 
Q 3622 1225 3098 567 
Q 2575 -91 1691 -91 
Q 1453 -91 1209 -44 
Q 966 3 703 97 
z
M 1959 2075 
Q 2384 2075 2632 2365 
Q 2881 2656 2881 3163 
Q 2881 3666 2632 3958 
Q 2384 4250 1959 4250 
Q 1534 4250 1286 3958 
Q 1038 3666 1038 3163 
Q 1038 2656 1286 2365 
Q 1534 2075 1959 2075 
z
" transform="scale(0.015625)"/>
       </defs>
       <use xlink:href="#DejaVuSans-32"/>
       <use xlink:href="#DejaVuSans-30" x="63.623047"/>
       <use xlink:href="#DejaVuSans-31" x="127.246094"/>
       <use xlink:href="#DejaVuSans-39" x="190.869141"/>
      </g>
     </g>
    </g>
    <g id="xtick_6">
     <g id="line2d_6">
      <g>
       <use xlink:href="#mcf815a4d56" x="271.615453" y="289.28254" style="stroke: #000000; stroke-width: 0.8"/>
      </g>
     </g>
     <g id="text_6">
      <!-- 2020 -->
      <g transform="translate(260.666346 301.655446) rotate(-315) scale(0.1 -0.1)">
       <use xlink:href="#DejaVuSans-32"/>
       <use xlink:href="#DejaVuSans-30" x="63.623047"/>
       <use xlink:href="#DejaVuSans-32" x="127.246094"/>
       <use xlink:href="#DejaVuSans-30" x="190.869141"/>
      </g>
     </g>
    </g>
    <g id="xtick_7">
     <g id="line2d_7">
      <g>
       <use xlink:href="#mcf815a4d56" x="302.533013" y="289.28254" style="stroke: #000000; stroke-width: 0.8"/>
      </g>
     </g>
     <g id="text_7">
      <!-- 2021 -->
      <g transform="translate(291.583906 301.655446) rotate(-315) scale(0.1 -0.1)">
       <use xlink:href="#DejaVuSans-32"/>
       <use xlink:href="#DejaVuSans-30" x="63.623047"/>
       <use xlink:href="#DejaVuSans-32" x="127.246094"/>
       <use xlink:href="#DejaVuSans-31" x="190.869141"/>
      </g>
     </g>
    </g>
    <g id="xtick_8">
     <g id="line2d_8">
      <g>
       <use xlink:href="#mcf815a4d56" x="330.341048" y="289.28254" style="stroke: #000000; stroke-width: 0.8"/>
      </g>
     </g>
     <g id="text_8">
      <!-- 2022 -->
      <g transform="translate(319.391941 301.655446) rotate(-315) scale(0.1 -0.1)">
       <use xlink:href="#DejaVuSans-32"/>
       <use xlink:href="#DejaVuSans-30" x="63.623047"/>
       <use xlink:href="#DejaVuSans-32" x="127.246094"/>
       <use xlink:href="#DejaVuSans-32" x="190.869141"/>
      </g>
     </g>
    </g>
    <g id="xtick_9">
     <g id="line2d_9">
      <g>
       <use xlink:href="#mcf815a4d56" x="362.768948" y="289.28254" style="stroke: #000000; stroke-width: 0.8"/>
      </g>
     </g>
     <g id="text_9">
      <!-- 2023 -->
      <g transform="translate(351.819841 301.655446) rotate(-315) scale(0.1 -0.1)">
       <defs>
        <path id="DejaVuSans-33" d="M 2597 2516 
Q 3050 2419 3304 2112 
Q 3559 1806 3559 1356 
Q 3559 666 3084 287 
Q 2609 -91 1734 -91 
Q 1441 -91 1130 -33 
Q 819 25 488 141 
L 488 750 
Q 750 597 1062 519 
Q 1375 441 1716 441 
Q 2309 441 2620 675 
Q 2931 909 2931 1356 
Q 2931 1769 2642 2001 
Q 2353 2234 1838 2234 
L 1294 2234 
L 1294 2753 
L 1863 2753 
Q 2328 2753 2575 2939 
Q 2822 3125 2822 3475 
Q 2822 3834 2567 4026 
Q 2313 4219 1838 4219 
Q 1578 4219 1281 4162 
Q 984 4106 628 3988 
L 628 4550 
Q 988 4650 1302 4700 
Q 1616 4750 1894 4750 
Q 2613 4750 3031 4423 
Q 3450 4097 3450 3541 
Q 3450 3153 3228 2886 
Q 3006 2619 2597 2516 
z
" transform="scale(0.015625)"/>
       </defs>
       <use xlink:href="#DejaVuSans-32"/>
       <use xlink:href="#DejaVuSans-30" x="63.623047"/>
       <use xlink:href="#DejaVuSans-32" x="127.246094"/>
       <use xlink:href="#DejaVuSans-33" x="190.869141"/>
      </g>
     </g>
    </g>
    <g id="xtick_10">
     <g id="line2d_10">
      <g>
       <use xlink:href="#mcf815a4d56" x="395.019161" y="289.28254" style="stroke: #000000; stroke-width: 0.8"/>
      </g>
     </g>
     <g id="text_10">
      <!-- 2024 -->
      <g transform="translate(384.070055 301.655446) rotate(-315) scale(0.1 -0.1)">
       <defs>
        <path id="DejaVuSans-34" d="M 2419 4116 
L 825 1625 
L 2419 1625 
L 2419 4116 
z
M 2253 4666 
L 3047 4666 
L 3047 1625 
L 3713 1625 
L 3713 1100 
L 3047 1100 
L 3047 0 
L 2419 0 
L 2419 1100 
L 313 1100 
L 313 1709 
L 2253 4666 
z
" transform="scale(0.015625)"/>
       </defs>
       <use xlink:href="#DejaVuSans-32"/>
       <use xlink:href="#DejaVuSans-30" x="63.623047"/>
       <use xlink:href="#DejaVuSans-32" x="127.246094"/>
       <use xlink:href="#DejaVuSans-34" x="190.869141"/>
      </g>
     </g>
    </g>
    <g id="xtick_11">
     <g id="line2d_11">
      <g>
       <use xlink:href="#mcf815a4d56" x="427.535905" y="289.28254" style="stroke: #000000; stroke-width: 0.8"/>
      </g>
     </g>
     <g id="text_11">
      <!-- 2025 -->
      <g transform="translate(416.586799 301.655446) rotate(-315) scale(0.1 -0.1)">
       <use xlink:href="#DejaVuSans-32"/>
       <use xlink:href="#DejaVuSans-30" x="63.623047"/>
       <use xlink:href="#DejaVuSans-32" x="127.246094"/>
       <use xlink:href="#DejaVuSans-35" x="190.869141"/>
      </g>
     </g>
    </g>
    <g id="text_12">
     <!-- Year -->
     <g transform="translate(244.25 332.720312) scale(0.1 -0.1)">
      <defs>
       <path id="DejaVuSans-Bold-59" d="M -63 4666 
L 1253 4666 
L 2316 3003 
L 3378 4666 
L 4697 4666 
L 2919 1966 
L 2919 0 
L 1716 0 
L 1716 1966 
L -63 4666 
z
" transform="scale(0.015625)"/>
       <path id="DejaVuSans-Bold-65" d="M 4031 1759 
L 4031 1441 
L 1416 1441 
Q 1456 1047 1700 850 
Q 1944 653 2381 653 
Q 2734 653 3104 758 
Q 3475 863 3866 1075 
L 3866 213 
Q 3469 63 3072 -14 
Q 2675 -91 2278 -91 
Q 1328 -91 801 392 
Q 275 875 275 1747 
Q 275 2603 792 3093 
Q 1309 3584 2216 3584 
Q 3041 3584 3536 3087 
Q 4031 2591 4031 1759 
z
M 2881 2131 
Q 2881 2450 2695 2645 
Q 2509 2841 2209 2841 
Q 1884 2841 1681 2658 
Q 1478 2475 1428 2131 
L 2881 2131 
z
" transform="scale(0.015625)"/>
       <path id="DejaVuSans-Bold-61" d="M 2106 1575 
Q 1756 1575 1579 1456 
Q 1403 1338 1403 1106 
Q 1403 894 1545 773 
Q 1688 653 1941 653 
Q 2256 653 2472 879 
Q 2688 1106 2688 1447 
L 2688 1575 
L 2106 1575 
z
M 3816 1997 
L 3816 0 
L 2688 0 
L 2688 519 
Q 2463 200 2181 54 
Q 1900 -91 1497 -91 
Q 953 -91 614 226 
Q 275 544 275 1050 
Q 275 1666 698 1953 
Q 1122 2241 2028 2241 
L 2688 2241 
L 2688 2328 
Q 2688 2594 2478 2717 
Q 2269 2841 1825 2841 
Q 1466 2841 1156 2769 
Q 847 2697 581 2553 
L 581 3406 
Q 941 3494 1303 3539 
Q 1666 3584 2028 3584 
Q 2975 3584 3395 3211 
Q 3816 2838 3816 1997 
z
" transform="scale(0.015625)"/>
       <path id="DejaVuSans-Bold-72" d="M 3138 2547 
Q 2991 2616 2845 2648 
Q 2700 2681 2553 2681 
Q 2122 2681 1889 2404 
Q 1656 2128 1656 1613 
L 1656 0 
L 538 0 
L 538 3500 
L 1656 3500 
L 1656 2925 
Q 1872 3269 2151 3426 
Q 2431 3584 2822 3584 
Q 2878 3584 2943 3579 
Q 3009 3575 3134 3559 
L 3138 2547 
z
" transform="scale(0.015625)"/>
      </defs>
      <use xlink:href="#DejaVuSans-Bold-59"/>
      <use xlink:href="#DejaVuSans-Bold-65" x="63.287109"/>
      <use xlink:href="#DejaVuSans-Bold-61" x="131.109375"/>
      <use xlink:href="#DejaVuSans-Bold-72" x="198.589844"/>
     </g>
    </g>
   </g>
   <g id="matplotlib.axis_2">
    <g id="ytick_1">
     <g id="line2d_12">
      <defs>
       <path id="mb9654d4259" d="M 0 0 
L -3.5 0 
" style="stroke: #000000; stroke-width: 0.8"/>
      </defs>
      <g>
       <use xlink:href="#mb9654d4259" x="63.290625" y="277.778403" style="stroke: #000000; stroke-width: 0.8"/>
      </g>
     </g>
     <g id="text_13">
      <!-- 0 -->
      <g transform="translate(49.928125 281.577622) scale(0.1 -0.1)">
       <use xlink:href="#DejaVuSans-30"/>
      </g>
     </g>
    </g>
    <g id="ytick_2">
     <g id="line2d_13">
      <g>
       <use xlink:href="#mb9654d4259" x="63.290625" y="247.056467" style="stroke: #000000; stroke-width: 0.8"/>
      </g>
     </g>
     <g id="text_14">
      <!-- 2500 -->
      <g transform="translate(30.840625 250.855686) scale(0.1 -0.1)">
       <use xlink:href="#DejaVuSans-32"/>
       <use xlink:href="#DejaVuSans-35" x="63.623047"/>
       <use xlink:href="#DejaVuSans-30" x="127.246094"/>
       <use xlink:href="#DejaVuSans-30" x="190.869141"/>
      </g>
     </g>
    </g>
    <g id="ytick_3">
     <g id="line2d_14">
      <g>
       <use xlink:href="#mb9654d4259" x="63.290625" y="216.33453" style="stroke: #000000; stroke-width: 0.8"/>
      </g>
     </g>
     <g id="text_15">
      <!-- 5000 -->
      <g transform="translate(30.840625 220.133749) scale(0.1 -0.1)">
       <use xlink:href="#DejaVuSans-35"/>
       <use xlink:href="#DejaVuSans-30" x="63.623047"/>
       <use xlink:href="#DejaVuSans-30" x="127.246094"/>
       <use xlink:href="#DejaVuSans-30" x="190.869141"/>
      </g>
     </g>
    </g>
    <g id="ytick_4">
     <g id="line2d_15">
      <g>
       <use xlink:href="#mb9654d4259" x="63.290625" y="185.612594" style="stroke: #000000; stroke-width: 0.8"/>
      </g>
     </g>
     <g id="text_16">
      <!-- 7500 -->
      <g transform="translate(30.840625 189.411813) scale(0.1 -0.1)">
       <use xlink:href="#DejaVuSans-37"/>
       <use xlink:href="#DejaVuSans-35" x="63.623047"/>
       <use xlink:href="#DejaVuSans-30" x="127.246094"/>
       <use xlink:href="#DejaVuSans-30" x="190.869141"/>
      </g>
     </g>
    </g>
    <g id="ytick_5">
     <g id="line2d_16">
      <g>
       <use xlink:href="#mb9654d4259" x="63.290625" y="154.890658" style="stroke: #000000; stroke-width: 0.8"/>
      </g>
     </g>
     <g id="text_17">
      <!-- 10000 -->
      <g transform="translate(24.478125 158.689876) scale(0.1 -0.1)">
       <use xlink:href="#DejaVuSans-31"/>
       <use xlink:href="#DejaVuSans-30" x="63.623047"/>
       <use xlink:href="#DejaVuSans-30" x="127.246094"/>
       <use xlink:href="#DejaVuSans-30" x="190.869141"/>
       <use xlink:href="#DejaVuSans-30" x="254.492188"/>
      </g>
     </g>
    </g>
    <g id="ytick_6">
     <g id="line2d_17">
      <g>
       <use xlink:href="#mb9654d4259" x="63.290625" y="124.168721" style="stroke: #000000; stroke-width: 0.8"/>
      </g>
     </g>
     <g id="text_18">
      <!-- 12500 -->
      <g transform="translate(24.478125 127.96794) scale(0.1 -0.1)">
       <use xlink:href="#DejaVuSans-31"/>
       <use xlink:href="#DejaVuSans-32" x="63.623047"/>
       <use xlink:href="#DejaVuSans-35" x="127.246094"/>
       <use xlink:href="#DejaVuSans-30" x="190.869141"/>
       <use xlink:href="#DejaVuSans-30" x="254.492188"/>
      </g>
     </g>
    </g>
    <g id="ytick_7">
     <g id="line2d_18">
      <g>
       <use xlink:href="#mb9654d4259" x="63.290625" y="93.446785" style="stroke: #000000; stroke-width: 0.8"/>
      </g>
     </g>
     <g id="text_19">
      <!-- 15000 -->
      <g transform="translate(24.478125 97.246003) scale(0.1 -0.1)">
       <use xlink:href="#DejaVuSans-31"/>
       <use xlink:href="#DejaVuSans-35" x="63.623047"/>
       <use xlink:href="#DejaVuSans-30" x="127.246094"/>
       <use xlink:href="#DejaVuSans-30" x="190.869141"/>
       <use xlink:href="#DejaVuSans-30" x="254.492188"/>
      </g>
     </g>
    </g>
    <g id="ytick_8">
     <g id="line2d_19">
      <g>
       <use xlink:href="#mb9654d4259" x="63.290625" y="62.724848" style="stroke: #000000; stroke-width: 0.8"/>
      </g>
     </g>
     <g id="text_20">
      <!-- 17500 -->
      <g transform="translate(24.478125 66.524067) scale(0.1 -0.1)">
       <use xlink:href="#DejaVuSans-31"/>
       <use xlink:href="#DejaVuSans-37" x="63.623047"/>
       <use xlink:href="#DejaVuSans-35" x="127.246094"/>
       <use xlink:href="#DejaVuSans-30" x="190.869141"/>
       <use xlink:href="#DejaVuSans-30" x="254.492188"/>
      </g>
     </g>
    </g>
    <g id="ytick_9">
     <g id="line2d_20">
      <g>
       <use xlink:href="#mb9654d4259" x="63.290625" y="32.002912" style="stroke: #000000; stroke-width: 0.8"/>
      </g>
     </g>
     <g id="text_21">
      <!-- 20000 -->
      <g transform="translate(24.478125 35.80213) scale(0.1 -0.1)">
       <use xlink:href="#DejaVuSans-32"/>
       <use xlink:href="#DejaVuSans-30" x="63.623047"/>
       <use xlink:href="#DejaVuSans-30" x="127.246094"/>
       <use xlink:href="#DejaVuSans-30" x="190.869141"/>
       <use xlink:href="#DejaVuSans-30" x="254.492188"/>
      </g>
     </g>
    </g>
    <g id="text_22">
     <!-- # Starts -->
     <g transform="translate(18.398438 180.726895) rotate(-90) scale(0.1 -0.1)">
      <defs>
       <path id="DejaVuSans-Bold-23" d="M 2847 4594 
L 2547 3391 
L 3372 3391 
L 3675 4594 
L 4366 4594 
L 4063 3391 
L 4928 3391 
L 4928 2725 
L 3897 2725 
L 3681 1869 
L 4569 1869 
L 4569 1197 
L 3519 1197 
L 3219 0 
L 2528 0 
L 2828 1197 
L 2003 1197 
L 1703 0 
L 1006 0 
L 1306 1197 
L 434 1197 
L 434 1869 
L 1459 1869 
L 1678 2725 
L 794 2725 
L 794 3391 
L 1850 3391 
L 2150 4594 
L 2847 4594 
z
M 3200 2725 
L 2375 2725 
L 2156 1869 
L 2981 1869 
L 3200 2725 
z
" transform="scale(0.015625)"/>
       <path id="DejaVuSans-Bold-20" transform="scale(0.015625)"/>
       <path id="DejaVuSans-Bold-53" d="M 3834 4519 
L 3834 3531 
Q 3450 3703 3084 3790 
Q 2719 3878 2394 3878 
Q 1963 3878 1756 3759 
Q 1550 3641 1550 3391 
Q 1550 3203 1689 3098 
Q 1828 2994 2194 2919 
L 2706 2816 
Q 3484 2659 3812 2340 
Q 4141 2022 4141 1434 
Q 4141 663 3683 286 
Q 3225 -91 2284 -91 
Q 1841 -91 1394 -6 
Q 947 78 500 244 
L 500 1259 
Q 947 1022 1364 901 
Q 1781 781 2169 781 
Q 2563 781 2772 912 
Q 2981 1044 2981 1288 
Q 2981 1506 2839 1625 
Q 2697 1744 2272 1838 
L 1806 1941 
Q 1106 2091 782 2419 
Q 459 2747 459 3303 
Q 459 4000 909 4375 
Q 1359 4750 2203 4750 
Q 2588 4750 2994 4692 
Q 3400 4634 3834 4519 
z
" transform="scale(0.015625)"/>
       <path id="DejaVuSans-Bold-74" d="M 1759 4494 
L 1759 3500 
L 2913 3500 
L 2913 2700 
L 1759 2700 
L 1759 1216 
Q 1759 972 1856 886 
Q 1953 800 2241 800 
L 2816 800 
L 2816 0 
L 1856 0 
Q 1194 0 917 276 
Q 641 553 641 1216 
L 641 2700 
L 84 2700 
L 84 3500 
L 641 3500 
L 641 4494 
L 1759 4494 
z
" transform="scale(0.015625)"/>
       <path id="DejaVuSans-Bold-73" d="M 3272 3391 
L 3272 2541 
Q 2913 2691 2578 2766 
Q 2244 2841 1947 2841 
Q 1628 2841 1473 2761 
Q 1319 2681 1319 2516 
Q 1319 2381 1436 2309 
Q 1553 2238 1856 2203 
L 2053 2175 
Q 2913 2066 3209 1816 
Q 3506 1566 3506 1031 
Q 3506 472 3093 190 
Q 2681 -91 1863 -91 
Q 1516 -91 1145 -36 
Q 775 19 384 128 
L 384 978 
Q 719 816 1070 734 
Q 1422 653 1784 653 
Q 2113 653 2278 743 
Q 2444 834 2444 1013 
Q 2444 1163 2330 1236 
Q 2216 1309 1875 1350 
L 1678 1375 
Q 931 1469 631 1722 
Q 331 1975 331 2491 
Q 331 3047 712 3315 
Q 1094 3584 1881 3584 
Q 2191 3584 2531 3537 
Q 2872 3491 3272 3391 
z
" transform="scale(0.015625)"/>
      </defs>
      <use xlink:href="#DejaVuSans-Bold-23"/>
      <use xlink:href="#DejaVuSans-Bold-20" x="83.789062"/>
      <use xlink:href="#DejaVuSans-Bold-53" x="118.603516"/>
      <use xlink:href="#DejaVuSans-Bold-74" x="190.625"/>
      <use xlink:href="#DejaVuSans-Bold-61" x="238.427734"/>
      <use xlink:href="#DejaVuSans-Bold-72" x="305.908203"/>
      <use xlink:href="#DejaVuSans-Bold-74" x="355.224609"/>
      <use xlink:href="#DejaVuSans-Bold-73" x="403.027344"/>
     </g>
    </g>
   </g>
   <g id="line2d_21">
    <path d="M 80.868324 276.9059 
L 80.957167 275.234627 
L 81.046011 276.021109 
L 81.134855 275.947376 
L 81.312542 275.824488 
L 81.490229 277.31143 
L 81.667916 275.431247 
L 81.845603 269.532636 
L 82.02329 273.673953 
L 82.112134 273.50191 
L 82.200977 267.357522 
L 82.289821 267.504988 
L 82.467508 266.534175 
L 82.645195 274.251525 
L 82.734039 272.39592 
L 82.911726 265.219276 
L 83.178256 267.504988 
L 83.2671 272.150145 
L 83.355944 272.088701 
L 83.444787 263.634024 
L 83.533631 265.034944 
L 83.622474 262.36828 
L 83.711318 262.442013 
L 83.800161 264.703147 
L 83.889005 271.105599 
L 83.977849 270.036475 
L 84.155536 262.761521 
L 84.244379 261.950462 
L 84.333223 262.380569 
L 84.51091 271.59715 
L 84.599753 270.39285 
L 84.777441 261.852151 
L 84.955128 262.134793 
L 85.043971 263.031874 
L 85.132815 271.941235 
L 85.221658 269.532636 
L 85.399346 262.36828 
L 85.488189 260.697007 
L 85.577033 261.16398 
L 85.75472 271.412818 
L 85.843563 270.454294 
L 86.02125 259.111755 
L 86.110094 259.222354 
L 86.287781 264.064131 
L 86.376625 272.973492 
L 86.465468 270.908978 
L 86.643155 260.918205 
L 86.820843 262.147082 
L 86.99853 272.309899 
L 87.087373 269.88901 
L 87.26506 260.697007 
L 87.353904 260.524964 
L 87.442747 261.323734 
L 87.531591 263.535714 
L 87.620435 271.855214 
L 87.886965 255.670898 
L 88.24234 270.024187 
L 88.331183 267.738474 
L 88.50887 255.818363 
L 88.775401 261.975039 
L 88.864244 269.249994 
L 88.953088 267.18548 
L 89.041932 254.921283 
L 89.130775 256.002695 
L 89.397306 262.220815 
L 89.486149 271.179331 
L 89.574993 267.541854 
L 89.663837 256.285337 
L 89.75268 256.813754 
L 89.841524 256.469668 
L 89.930367 257.329882 
L 90.019211 260.168589 
L 90.108054 269.48348 
L 90.196898 268.832175 
L 90.374585 257.145551 
L 90.463429 257.587947 
L 90.641116 259.95968 
L 90.729959 270.036475 
L 90.818803 268.967352 
L 90.99649 254.196245 
L 91.085334 254.183956 
L 91.174177 253.13941 
L 91.351864 272.076412 
L 91.440708 268.672421 
L 91.618395 258.718514 
L 91.707239 254.577197 
L 91.796082 256.027272 
L 91.973769 271.265353 
L 92.062613 270.208518 
L 92.2403 257.907455 
L 92.329143 254.84755 
L 92.417987 256.604845 
L 92.506831 260.819894 
L 92.595674 272.457364 
L 92.862205 255.707764 
L 92.951048 258.435872 
L 93.128736 260.524964 
L 93.217579 271.302219 
L 93.306423 268.721576 
L 93.395266 259.418974 
L 93.48411 259.689327 
L 93.572953 256.75231 
L 93.661797 259.099466 
L 93.839484 270.724647 
L 93.928328 268.500378 
L 94.106015 254.786106 
L 94.194858 257.575658 
L 94.283702 254.257689 
L 94.372545 258.767669 
L 94.461389 272.088701 
L 94.550233 268.561822 
L 94.72792 253.323742 
L 94.816763 253.13941 
L 94.905607 254.368288 
L 95.083294 271.818348 
L 95.172137 266.890549 
L 95.349825 255.609454 
L 95.438668 253.803004 
L 95.616355 260.230033 
L 95.705199 270.761513 
L 95.794042 267.3821 
L 95.882886 256.776888 
L 95.97173 257.8583 
L 96.149417 253.864448 
L 96.327104 271.720037 
L 96.415947 268.131715 
L 96.504791 255.621743 
L 96.593634 258.288407 
L 96.682478 253.532651 
L 96.771322 254.933571 
L 96.949009 271.916658 
L 97.037852 267.001148 
L 97.126696 255.031882 
L 97.304383 260.537253 
L 97.393227 259.234642 
L 97.570914 272.260743 
L 97.659757 269.077951 
L 97.837444 256.162449 
L 97.926288 258.509605 
L 98.015131 257.882877 
L 98.192819 271.584861 
L 98.281662 268.48809 
L 98.370506 256.273048 
L 98.459349 257.25615 
L 98.637036 257.108684 
L 98.72588 261.471199 
L 98.814724 271.572572 
L 98.903567 268.537245 
L 99.170098 254.503464 
L 99.258941 256.875198 
L 99.436628 271.818348 
L 99.525472 268.303758 
L 99.703159 256.236181 
L 99.792003 253.975047 
L 99.96969 259.345241 
L 100.058533 271.339085 
L 100.147377 267.554143 
L 100.325064 254.208534 
L 100.413908 255.560299 
L 100.502751 254.896705 
L 100.591595 258.411295 
L 100.680438 271.007288 
L 100.769282 267.025726 
L 100.946969 253.286876 
L 101.2135 261.053381 
L 101.302343 270.798379 
L 101.391187 266.657062 
L 101.48003 255.019593 
L 101.568874 256.654 
L 101.657718 255.842941 
L 101.746561 256.936642 
L 101.835405 256.641711 
L 101.924248 270.29454 
L 102.013092 269.864432 
L 102.190779 250.73081 
L 102.546153 269.200839 
L 102.634997 267.799918 
L 102.812684 254.34371 
L 102.901527 255.412834 
L 102.990371 251.947399 
L 103.168058 268.930486 
L 103.256902 267.074881 
L 103.434589 250.226971 
L 103.612276 253.397475 
L 103.701119 256.727732 
L 103.789963 270.68778 
L 103.878807 267.025726 
L 104.056494 248.838339 
L 104.145337 249.944329 
L 104.234181 247.965836 
L 104.411868 269.594079 
L 104.500712 264.740013 
L 104.678399 248.371366 
L 104.856086 247.130199 
L 105.033773 269.360593 
L 105.389147 246.073365 
L 105.477991 246.675515 
L 105.655678 268.561822 
L 105.744521 263.47427 
L 105.833365 245.594103 
L 105.922209 246.12252 
L 106.011052 246.368295 
L 106.099896 244.635578 
L 106.277583 266.214666 
L 106.366426 262.196237 
L 106.544113 244.91822 
L 106.632957 247.511151 
L 106.899488 265.37903 
L 106.988331 261.925884 
L 107.077175 247.461996 
L 107.166018 249.784575 
L 107.254862 249.084115 
L 107.343706 249.907463 
L 107.521393 267.640164 
L 107.610236 263.86751 
L 107.69908 248.961227 
L 107.787923 249.391334 
L 107.876767 249.010382 
L 107.96561 249.73542 
L 108.054454 254.564908 
L 108.143298 267.259212 
L 108.232141 261.716975 
L 108.320985 246.269985 
L 108.409828 248.457387 
L 108.498672 248.248478 
L 108.587515 251.529581 
L 108.765203 269.975031 
L 108.854046 265.268431 
L 108.94289 257.563369 
L 109.298264 268.524956 
L 109.387107 269.397459 
L 109.653638 261.311445 
L 109.831325 269.409748 
L 109.920169 265.932025 
L 110.009012 266.226955 
L 110.097856 263.375959 
L 110.275543 251.677046 
L 110.364387 250.460457 
L 110.45323 250.472746 
L 110.630917 267.824496 
L 110.719761 263.7692 
L 110.808604 249.784575 
L 110.897448 249.968906 
L 110.986292 248.912072 
L 111.075135 244.524979 
L 111.252822 266.030335 
L 111.341666 260.819894 
L 111.519353 246.257696 
L 111.608197 245.852167 
L 111.69704 243.025749 
L 111.874727 267.357522 
L 111.963571 263.412826 
L 112.052414 245.790723 
L 112.141258 246.12252 
L 112.230101 243.259235 
L 112.318945 243.935118 
L 112.496632 266.865971 
L 112.585476 261.26229 
L 112.763163 244.156316 
L 112.852006 242.349866 
L 112.94085 242.362155 
L 113.118537 266.362132 
L 113.207381 262.122504 
L 113.296224 247.191643 
L 113.385068 247.904392 
L 113.562755 244.623289 
L 113.651598 251.480426 
L 113.740442 267.603298 
L 113.829286 265.07181 
L 114.006973 250.743099 
L 114.095816 251.418982 
L 114.18466 248.187034 
L 114.273503 252.512683 
L 114.362347 267.750763 
L 114.451191 263.302227 
L 114.540034 244.709311 
L 114.628878 245.606391 
L 114.717721 245.225439 
L 114.806565 245.262306 
L 114.895408 252.107153 
L 114.984252 267.566432 
L 115.073095 262.442013 
L 115.250783 243.61561 
L 115.517313 248.875205 
L 115.606157 264.432794 
L 115.695 261.004226 
L 115.783844 242.128668 
L 115.872688 244.512691 
L 116.050375 241.317609 
L 116.228062 265.551073 
L 116.316905 259.812215 
L 116.405749 238.786122 
L 116.494592 240.789192 
L 116.583436 241.20701 
L 116.67228 243.578744 
L 116.761123 250.177816 
L 116.849967 266.829105 
L 116.93881 262.036483 
L 117.116497 240.727748 
L 117.205341 241.145566 
L 117.294185 243.025749 
L 117.383028 248.690874 
L 117.471872 265.993468 
L 117.560715 261.102536 
L 117.738402 237.790731 
L 117.827246 237.852175 
L 118.093777 265.452762 
L 118.18262 261.66782 
L 118.360307 242.300711 
L 118.537994 239.30225 
L 118.715682 265.47734 
L 118.804525 257.784567 
L 118.982212 241.993492 
L 119.159899 237.766153 
L 119.248743 245.741568 
L 119.337586 263.928954 
L 119.42643 258.091786 
L 119.604117 237.434356 
L 119.692961 237.876752 
L 119.781804 239.80609 
L 119.870648 245.581814 
L 119.959491 263.375959 
L 120.048335 257.600235 
L 120.226022 238.171683 
L 120.314866 239.658625 
L 120.581396 264.420505 
L 120.67024 260.647852 
L 120.847927 240.543416 
L 120.936771 240.187042 
L 121.025614 242.448176 
L 121.114458 249.084115 
L 121.203301 265.07181 
L 121.292145 260.402076 
L 121.380988 238.40517 
L 121.469832 239.720068 
L 121.647519 244.082583 
L 121.825206 265.452762 
L 121.91405 259.111755 
L 122.002893 239.216229 
L 122.091737 241.452786 
L 122.18058 236.746185 
L 122.269424 239.240806 
L 122.447111 265.772271 
L 122.535955 260.881338 
L 122.802485 238.19626 
L 122.891329 239.978133 
L 123.069016 264.531104 
L 123.15786 257.993476 
L 123.335547 236.807629 
L 123.602077 253.23772 
L 123.690921 267.88594 
L 123.779765 261.532643 
L 123.957452 238.245415 
L 124.046295 235.148644 
L 124.135139 239.744646 
L 124.312826 267.492699 
L 124.40167 261.716975 
L 124.579357 238.675523 
L 124.757044 240.678593 
L 124.845887 247.412841 
L 124.934731 265.932025 
L 125.023574 264.518816 
L 125.201262 240.60486 
L 125.290105 239.191651 
L 125.378949 241.034967 
L 125.467792 247.695483 
L 125.556636 265.403607 
L 125.645479 260.795317 
L 125.823167 237.127137 
L 126.178541 267.406678 
L 126.267384 261.508066 
L 126.356228 244.684733 
L 126.445071 245.544948 
L 126.533915 243.763075 
L 126.622759 244.156316 
L 126.800446 266.521886 
L 126.889289 262.5649 
L 127.066976 244.881354 
L 127.15582 239.732357 
L 127.333507 253.975047 
L 127.422351 269.38517 
L 127.511194 266.792239 
L 127.688881 240.162464 
L 127.955412 251.554158 
L 128.044256 267.836785 
L 128.133099 263.928954 
L 128.221943 241.170144 
L 128.310786 245.52037 
L 128.39963 246.62636 
L 128.488473 245.065685 
L 128.666161 269.18855 
L 128.755004 263.855222 
L 128.932691 245.065685 
L 129.110378 246.368295 
L 129.288065 268.328336 
L 129.376909 262.77381 
L 129.465753 247.117911 
L 129.554596 249.022671 
L 129.732283 245.409771 
L 129.90997 266.571041 
L 129.998814 263.658601 
L 130.087658 245.581814 
L 130.176501 247.670906 
L 130.265345 246.356007 
L 130.354188 247.756927 
L 130.443032 253.090255 
L 130.531875 267.320656 
L 130.620719 262.614055 
L 130.798406 241.071834 
L 130.976093 247.105622 
L 131.15378 268.438935 
L 131.242624 263.093318 
L 131.420311 245.041108 
L 131.597998 244.795332 
L 131.686842 251.345249 
L 131.775685 266.288399 
L 131.864529 261.372889 
L 132.042216 244.758466 
L 132.131059 244.881354 
L 132.219903 246.31914 
L 132.308747 251.418982 
L 132.39759 267.099458 
L 132.486434 261.495777 
L 132.664121 241.145566 
L 132.752964 240.70317 
L 132.841808 241.034967 
L 133.019495 266.140934 
L 133.108339 262.515745 
L 133.286026 240.91208 
L 133.374869 243.124059 
L 133.463713 241.858315 
L 133.6414 268.402068 
L 133.730244 261.889018 
L 133.907931 241.858315 
L 133.996774 241.90747 
L 134.085618 243.701631 
L 134.263305 266.067201 
L 134.352149 263.498847 
L 134.529836 243.750786 
L 134.618679 242.620219 
L 134.707523 243.836808 
L 134.88521 266.239244 
L 134.974053 260.500386 
L 135.151741 240.740037 
L 135.240584 237.778442 
L 135.329428 240.961235 
L 135.507115 267.296079 
L 135.595958 260.352921 
L 135.773646 239.117918 
L 135.862489 244.586423 
L 135.951333 241.1087 
L 136.12902 266.657062 
L 136.217863 260.574119 
L 136.39555 237.925907 
L 136.484394 236.377522 
L 136.573238 240.027288 
L 136.750925 265.452762 
L 137.106299 232.813777 
L 137.283986 246.356007 
L 137.37283 263.179339 
L 137.461673 256.973508 
L 137.550517 235.529596 
L 137.63936 235.787661 
L 137.728204 240.051865 
L 137.817048 235.074912 
L 137.994735 266.58333 
L 138.083578 258.485027 
L 138.172422 234.644805 
L 138.261265 237.164003 
L 138.350109 233.452793 
L 138.438952 235.529596 
L 138.61664 263.081029 
L 138.88317 230.601798 
L 138.972014 233.342194 
L 139.238545 261.999617 
L 139.593919 233.034975 
L 139.771606 247.154777 
L 139.860449 261.06567 
L 139.949293 255.081037 
L 140.12698 236.635586 
L 140.304667 237.372912 
L 140.482354 263.621735 
L 140.660042 232.654023 
L 140.748885 233.207018 
L 140.926572 238.528057 
L 141.104259 264.764591 
L 141.281946 247.953547 
L 141.37079 250.12866 
L 141.459634 253.913603 
L 141.637321 267.652453 
L 141.726164 268.942774 
L 141.903851 256.629422 
L 141.992695 256.813754 
L 142.081539 258.239252 
L 142.259226 269.016507 
L 142.348069 268.598689 
L 142.436913 262.712366 
L 142.6146 247.744638 
L 142.792287 242.313 
L 142.969974 262.306836 
L 143.058818 259.099466 
L 143.147661 239.019608 
L 143.236505 239.081052 
L 143.325348 238.614079 
L 143.414192 236.746185 
L 143.591879 264.9735 
L 143.680723 259.652461 
L 143.85841 236.09488 
L 143.947253 235.775372 
L 144.036097 238.749255 
L 144.213784 264.838324 
L 144.302628 258.423583 
L 144.480315 234.915158 
L 144.569158 234.755403 
L 144.658002 236.844495 
L 144.746845 244.807621 
L 144.835689 264.592548 
L 144.924533 260.242322 
L 145.10222 238.429747 
L 145.191063 238.712389 
L 145.279907 241.551096 
L 145.457594 268.119426 
L 145.546437 263.818355 
L 145.724125 241.489652 
L 145.812968 244.500402 
L 145.901812 242.386732 
L 145.990655 249.366756 
L 146.079499 265.587939 
L 146.168342 260.524964 
L 146.34603 236.463543 
L 146.61256 244.082583 
L 146.701404 263.253072 
L 146.790247 255.707764 
L 146.879091 235.89826 
L 146.967934 237.016538 
L 147.056778 237.409779 
L 147.145622 236.918228 
L 147.323309 262.933564 
L 147.412152 257.796856 
L 147.589839 235.849104 
L 147.767527 237.127137 
L 147.945214 264.27304 
L 148.034057 256.985797 
L 148.211744 234.38674 
L 148.389431 233.170152 
L 148.567119 261.532643 
L 148.655962 260.524964 
L 148.744806 234.362163 
L 148.833649 235.345265 
L 148.922493 233.219307 
L 149.011336 236.561853 
L 149.10018 244.340648 
L 149.189024 264.37135 
L 149.277867 257.981187 
L 149.366711 236.635586 
L 149.455554 239.314539 
L 149.544398 237.016538 
L 149.722085 255.289946 
L 149.810928 265.059522 
L 149.899772 261.471199 
L 150.077459 236.463543 
L 150.166303 235.013468 
L 150.255146 236.438966 
L 150.34399 243.578744 
L 150.432833 265.624805 
L 150.521677 260.021124 
L 150.699364 233.821457 
L 150.788208 230.011936 
L 150.877051 230.270001 
L 151.054738 261.557221 
L 151.143582 255.634031 
L 151.232425 232.150183 
L 151.321269 235.124067 
L 151.410113 233.673991 
L 151.498956 236.2915 
L 151.5878 243.124059 
L 151.676643 260.316055 
L 151.765487 256.039561 
L 151.943174 231.27768 
L 152.120861 233.833745 
L 152.298548 260.119434 
L 152.387392 253.200854 
L 152.476235 231.793809 
L 152.565079 234.165542 
L 152.653922 231.904408 
L 152.742766 232.432825 
L 152.920453 263.621735 
L 153.009297 260.156301 
L 153.09814 237.028827 
L 153.186984 237.237736 
L 153.364671 242.067224 
L 153.542358 264.125575 
L 153.631202 257.096396 
L 153.808889 228.795348 
L 153.897732 228.721615 
L 153.986576 228.893658 
L 154.075419 239.044186 
L 154.164263 262.847542 
L 154.253107 257.821433 
L 154.34195 233.563392 
L 154.430794 234.472762 
L 154.519637 235.283821 
L 154.608481 231.302258 
L 154.786168 263.326804 
L 154.875012 257.194706 
L 155.052699 229.323765 
L 155.230386 235.197799 
L 155.319229 244.094872 
L 155.408073 265.440474 
L 155.674604 232.432825 
L 155.763447 234.202409 
L 155.852291 234.38674 
L 155.941134 241.698561 
L 156.029978 262.048772 
L 156.118821 256.654 
L 156.296509 227.27154 
L 156.474196 235.812238 
L 156.563039 239.093341 
L 156.651883 260.021124 
L 156.740726 255.535721 
L 156.82957 227.283829 
L 156.918413 228.512706 
L 157.007257 231.425146 
L 157.096101 228.266931 
L 157.273788 265.98118 
L 157.362631 255.793786 
L 157.540318 234.005788 
L 157.629162 234.878291 
L 157.718006 233.944344 
L 157.895693 264.666281 
L 157.984536 256.678577 
L 158.162223 231.670921 
L 158.251067 232.162472 
L 158.428754 248.285344 
L 158.517598 265.452762 
L 158.606441 260.205456 
L 158.784128 236.819918 
L 158.872972 240.00271 
L 158.961815 238.589501 
L 159.139503 265.501917 
L 159.228346 257.870588 
L 159.406033 233.993499 
L 159.672564 245.041108 
L 159.761407 265.465051 
L 159.850251 260.279188 
L 159.939095 235.271532 
L 160.027938 236.549565 
L 160.116782 235.959703 
L 160.205625 234.374451 
L 160.383312 264.764591 
L 160.472156 259.345241 
L 160.649843 234.657093 
L 160.738687 232.469691 
L 160.916374 248.187034 
L 161.005217 263.86751 
L 161.094061 258.878268 
L 161.271748 238.909009 
L 161.360592 239.253095 
L 161.449435 235.750794 
L 161.627122 267.640164 
L 161.715966 262.011905 
L 161.804809 237.80302 
L 161.893653 238.896721 
L 161.982497 238.294571 
L 162.07134 240.137887 
L 162.249027 267.124036 
L 162.337871 262.220815 
L 162.515558 236.021147 
L 162.604401 235.320687 
L 162.693245 238.663234 
L 162.870932 261.176269 
L 162.959776 259.197776 
L 163.137463 237.004249 
L 163.226306 237.127137 
L 163.31515 235.578751 
L 163.492837 259.271509 
L 163.581681 253.028811 
L 163.670524 232.961242 
L 163.759368 242.079513 
L 163.937055 235.627906 
L 164.025898 242.792262 
L 164.114742 261.544932 
L 164.470116 229.852182 
L 164.55896 230.306867 
L 164.736647 258.15323 
L 164.825491 250.595634 
L 164.914334 231.388279 
L 165.003178 231.855253 
L 165.180865 237.274602 
L 165.358552 258.337562 
L 165.447395 252.63557 
L 165.625083 231.044194 
L 165.713926 229.27461 
L 165.80277 230.958172 
L 165.980457 260.783028 
L 166.335831 227.087208 
L 166.424675 228.303797 
L 166.602362 259.95968 
L 166.691205 255.142481 
L 166.868892 227.296117 
L 167.04658 235.283821 
L 167.135423 242.140957 
L 167.224267 261.483488 
L 167.31311 255.253079 
L 167.490797 228.291508 
L 167.579641 230.933595 
L 167.668485 227.922845 
L 167.846172 256.936642 
L 167.935015 251.050319 
L 168.112702 225.034983 
L 168.379233 240.617149 
L 168.468077 260.008835 
L 168.55692 251.210073 
L 168.645764 226.644812 
L 168.734607 232.199338 
L 168.823451 227.062631 
L 168.912294 229.557252 
L 169.089982 260.574119 
L 169.445356 227.836823 
L 169.623043 239.781512 
L 169.711886 256.936642 
L 169.889574 226.743122 
L 169.978417 227.197807 
L 170.067261 225.870619 
L 170.156104 221.544971 
L 170.333791 258.202385 
L 170.600322 222.626383 
L 170.689166 222.995046 
L 170.778009 214.663257 
L 170.955696 246.896713 
L 171.04454 209.833769 
L 171.133383 213.397513 
L 171.222227 207.326859 
L 171.311071 181.54501 
L 171.666445 249.047248 
L 171.755288 226.878299 
L 171.844132 228.107176 
L 171.932976 228.586439 
L 172.021819 230.552643 
L 172.199506 259.099466 
L 172.28835 249.551088 
L 172.377193 223.351421 
L 172.466037 226.521925 
L 172.55488 225.870619 
L 172.643724 228.733904 
L 172.821411 261.729264 
L 173.176785 230.368311 
L 173.265629 231.707787 
L 173.443316 262.024194 
L 173.621003 233.637125 
L 173.709847 240.088732 
L 173.79869 240.383662 
L 174.065221 265.821426 
L 174.154065 258.841402 
L 174.420595 250.03035 
L 174.687126 266.743084 
L 174.77597 264.359061 
L 175.0425 241.415919 
L 175.131344 241.379053 
L 175.309031 262.17166 
L 175.664405 228.291508 
L 175.753249 229.446653 
L 175.930936 258.902846 
L 176.197467 230.933595 
L 176.28631 232.862932 
L 176.375154 235.99657 
L 176.552841 261.286868 
L 176.641684 254.675507 
L 176.819371 235.935126 
L 177.174746 266.042624 
L 177.263589 260.869049 
L 177.441276 237.950485 
L 177.707807 245.839878 
L 177.796651 264.703147 
L 177.885494 256.567978 
L 178.063181 231.769231 
L 178.152025 232.18705 
L 178.240868 227.283829 
L 178.418556 262.073349 
L 178.77393 226.829144 
L 178.862773 227.812246 
L 179.040461 259.038022 
L 179.306991 229.581829 
L 179.395835 229.925915 
L 179.484678 232.015007 
L 179.662365 261.76613 
L 180.01774 228.758481 
L 180.106583 227.455871 
L 180.28427 258.964289 
L 180.373114 249.563377 
L 180.550801 224.273079 
L 180.639645 223.203955 
L 180.728488 225.772309 
L 180.906175 259.345241 
L 180.995019 250.460457 
L 181.083862 221.372928 
L 181.172706 223.265399 
L 181.26155 225.772309 
L 181.350393 225.329913 
L 181.52808 257.010374 
L 181.616924 248.101013 
L 181.794611 219.996585 
L 181.883455 219.640211 
L 181.972298 222.392896 
L 182.149985 254.859839 
L 182.238829 246.417451 
L 182.416516 221.55726 
L 182.505359 218.595665 
L 182.683047 233.477371 
L 182.77189 257.231572 
L 182.860734 252.045709 
L 183.038421 227.050342 
L 183.127264 220.856799 
L 183.216108 225.391357 
L 183.393795 259.615594 
L 183.482639 246.773825 
L 183.660326 219.320703 
L 183.749169 219.013483 
L 183.838013 227.677069 
L 184.0157 259.775349 
L 184.371074 220.033452 
L 184.459918 221.704725 
L 184.637605 257.649391 
L 184.726449 247.081044 
L 184.904136 221.667859 
L 184.992979 215.548049 
L 185.25951 259.812215 
L 185.348354 256.162449 
L 185.614884 221.434372 
L 185.703728 225.944352 
L 185.881415 256.94893 
L 185.970258 250.829121 
L 186.059102 223.031913 
L 186.147946 224.973539 
L 186.325633 216.457418 
L 186.50332 258.042631 
L 186.592163 250.890565 
L 186.681007 219.173237 
L 186.769851 223.203955 
L 186.858694 220.832222 
L 186.947538 221.962789 
L 187.125225 260.955071 
L 187.214068 247.842948 
L 187.391755 217.833761 
L 187.480599 219.14866 
L 187.658286 236.021147 
L 187.74713 260.168589 
L 187.835973 257.919744 
L 188.102504 225.256181 
L 188.191348 223.105645 
L 188.369035 261.483488 
L 188.457878 253.397475 
L 188.635565 224.236212 
L 188.813252 221.692436 
L 188.99094 261.839863 
L 189.079783 250.325281 
L 189.168627 222.442051 
L 189.25747 224.236212 
L 189.435157 226.583368 
L 189.612845 261.348312 
L 189.701688 251.505003 
L 189.879375 224.555721 
L 189.968219 228.119465 
L 190.057062 223.326843 
L 190.234749 262.822965 
L 190.323593 254.417443 
L 190.50128 225.809176 
L 190.678967 223.511175 
L 190.856654 262.011905 
L 191.212029 225.379068 
L 191.300872 228.217775 
L 191.478559 261.213135 
L 191.567403 252.107153 
L 191.74509 223.277688 
L 191.833934 226.878299 
L 191.922777 225.993507 
L 192.100464 258.46045 
L 192.455839 222.626383 
L 192.633526 236.254634 
L 192.722369 259.124043 
L 192.811213 253.925892 
L 192.9889 227.750802 
L 193.077743 229.655562 
L 193.166587 227.124074 
L 193.344274 252.574127 
L 193.433118 251.787645 
L 193.521961 229.803027 
L 193.610805 230.147113 
L 193.699648 229.827605 
L 193.788492 232.297649 
L 193.877336 240.088732 
L 193.966179 262.995007 
L 194.055023 256.408224 
L 194.143866 233.354483 
L 194.23271 233.932056 
L 194.321553 227.652492 
L 194.49924 240.70317 
L 194.588084 261.053381 
L 194.676928 255.830652 
L 194.854615 236.045725 
L 194.943458 232.654023 
L 195.032302 233.477371 
L 195.209989 256.260759 
L 195.298833 255.203924 
L 195.47652 231.425146 
L 195.565363 228.402107 
L 195.654207 231.707787 
L 195.831894 255.867518 
L 195.920737 252.63557 
L 196.009581 231.830675 
L 196.098425 232.961242 
L 196.187268 229.766161 
L 196.276112 231.388279 
L 196.453799 260.979648 
L 196.542642 252.967367 
L 196.809173 222.95818 
L 196.98686 241.637117 
L 197.075704 260.586408 
L 197.164547 251.074896 
L 197.342234 227.972 
L 197.519922 223.720084 
L 197.697609 256.24847 
L 197.786452 250.915142 
L 197.964139 222.528073 
L 198.052983 226.16555 
L 198.141827 223.548041 
L 198.319514 256.002695 
L 198.408357 249.919751 
L 198.586044 226.472769 
L 198.674888 225.846042 
L 198.763731 222.282297 
L 198.941419 259.922814 
L 199.030262 258.05492 
L 199.207949 238.110239 
L 199.385636 239.265384 
L 199.47448 242.423599 
L 199.563324 258.349851 
L 199.652167 249.747708 
L 199.829854 223.437442 
L 199.918698 213.975086 
L 200.185228 258.202385 
L 200.274072 246.589493 
L 200.451759 215.388295 
L 200.629446 221.446661 
L 200.807133 257.170128 
L 200.895977 249.022671 
L 200.984821 220.918243 
L 201.073664 222.196276 
L 201.162508 226.251571 
L 201.251351 219.861409 
L 201.429038 258.15323 
L 201.517882 246.269985 
L 201.695569 219.94743 
L 201.784413 224.703186 
L 201.873256 222.650961 
L 201.9621 232.998109 
L 202.050943 256.887486 
L 202.22863 219.332991 
L 202.317474 220.131762 
L 202.406318 220.525003 
L 202.495161 215.462027 
L 202.672848 254.515753 
L 202.761692 245.557236 
L 202.939379 219.701655 
L 203.028222 218.227002 
L 203.117066 214.552658 
L 203.294753 252.991945 
L 203.561284 218.423622 
L 203.650127 219.959719 
L 203.827815 239.511159 
L 203.916658 255.4497 
L 204.005502 243.591032 
L 204.094345 216.752349 
L 204.183189 218.411333 
L 204.360876 215.646359 
L 204.538563 255.769208 
L 204.805094 215.806113 
L 204.893937 217.403654 
L 205.071624 242.190112 
L 205.160468 256.014984 
L 205.249312 248.703163 
L 205.426999 218.952039 
L 205.604686 224.16248 
L 205.782373 257.25615 
L 205.96006 224.531143 
L 206.048904 225.686288 
L 206.137747 227.652492 
L 206.226591 233.993499 
L 206.404278 261.987328 
L 206.759652 243.259235 
L 206.937339 253.975047 
L 207.115026 265.034944 
L 207.470401 233.870612 
L 207.648088 257.55108 
L 207.914618 221.925923 
L 208.003462 225.944352 
L 208.092306 223.781528 
L 208.358836 246.356007 
L 208.536523 223.818394 
L 208.71421 217.096434 
L 208.891898 256.604845 
L 208.980741 246.577205 
L 209.069585 219.038061 
L 209.158428 220.574158 
L 209.247272 218.74313 
L 209.336115 221.164019 
L 209.513803 256.383647 
L 209.602646 243.775364 
L 209.780333 219.664788 
L 209.95802 224.334523 
L 210.135707 257.219283 
L 210.224551 248.53112 
L 210.402238 224.518854 
L 210.491082 225.391357 
L 210.579925 228.86908 
L 210.757612 253.716983 
L 210.846456 251.431271 
L 210.9353 232.973531 
L 211.20183 241.30532 
L 211.290674 242.546487 
L 211.379517 261.422044 
L 211.468361 259.332953 
L 211.646048 236.807629 
L 211.734892 232.531135 
L 211.823735 233.403638 
L 212.001422 257.084107 
L 212.267953 222.970469 
L 212.534484 241.268454 
L 212.623327 255.203924 
L 212.978701 219.124082 
L 213.067545 221.164019 
L 213.245232 255.474277 
L 213.334076 249.305313 
L 213.511763 220.770778 
L 213.600606 217.809183 
L 213.68945 219.369858 
L 213.867137 254.097935 
L 213.955981 244.402092 
L 214.133668 217.305344 
L 214.222511 219.529612 
L 214.311355 216.518862 
L 214.489042 246.515761 
L 214.577886 246.442028 
L 214.755573 215.265407 
L 214.93326 221.262329 
L 215.110947 254.528042 
L 215.199791 250.018062 
L 215.377478 220.54958 
L 215.732852 247.92897 
L 215.821695 238.368303 
L 215.910539 211.074935 
L 215.999383 213.102583 
L 216.17707 219.271548 
L 216.354757 254.908994 
L 216.4436 244.537268 
L 216.621288 213.925931 
L 216.710131 213.176315 
L 216.798975 216.887525 
L 216.976662 252.512683 
L 217.065505 245.815301 
L 217.154349 211.947438 
L 217.243192 215.277696 
L 217.332036 218.54651 
L 217.42088 216.457418 
L 217.598567 254.528042 
L 217.68741 253.44663 
L 217.953941 219.382146 
L 218.042785 222.122543 
L 218.220472 253.950469 
L 218.309315 246.564916 
L 218.487002 220.389826 
L 218.575846 213.889064 
L 218.842377 247.130199 
L 218.93122 244.352936 
L 219.020064 213.876775 
L 219.108907 214.343749 
L 219.286594 218.54651 
L 219.464282 256.85062 
L 219.553125 246.442028 
L 219.730812 216.199354 
L 219.819656 215.94129 
L 219.908499 221.55726 
L 220.086186 252.574127 
L 220.17503 245.803012 
L 220.352717 217.968937 
L 220.441561 216.801504 
L 220.530404 220.807644 
L 220.708091 256.15016 
L 220.885779 218.128691 
L 220.974622 218.423622 
L 221.063466 221.028842 
L 221.152309 219.640211 
L 221.329996 258.583337 
L 221.41884 249.207002 
L 221.596527 218.374467 
L 221.685371 216.887525 
L 221.774214 222.638672 
L 221.951901 259.910525 
L 222.040745 256.75231 
L 222.218432 222.55265 
L 222.307276 221.766169 
L 222.396119 223.326843 
L 222.573806 257.034952 
L 222.66265 247.486574 
L 222.840337 219.517323 
L 222.92918 219.836831 
L 223.018024 224.088747 
L 223.195711 253.520362 
L 223.284555 251.812223 
L 223.462242 229.004257 
L 223.551085 234.337585 
L 223.639929 227.529604 
L 223.817616 258.681648 
L 223.90646 250.362147 
L 224.084147 226.423614 
L 224.17299 227.455871 
L 224.350677 237.59411 
L 224.439521 256.002695 
L 224.528365 250.116372 
L 224.706052 223.990437 
L 224.883739 226.86601 
L 225.061426 254.626352 
L 225.15027 249.956618 
L 225.239113 222.970469 
L 225.327957 224.654031 
L 225.4168 222.331452 
L 225.505644 225.526534 
L 225.683331 257.45277 
L 225.772174 250.374436 
L 225.949862 221.889057 
L 226.127549 230.884439 
L 226.305236 257.649391 
L 226.394079 252.819902 
L 226.571767 226.644812 
L 226.66061 226.116395 
L 226.749454 227.382139 
L 226.927141 255.253079 
L 227.015984 252.832191 
L 227.193671 229.667851 
L 227.282515 229.839894 
L 227.371359 231.5849 
L 227.549046 253.471207 
L 227.637889 249.587954 
L 227.815576 229.323765 
L 227.90442 227.197807 
L 227.993264 231.818386 
L 228.170951 257.133262 
L 228.259794 248.346788 
L 228.437481 226.054951 
L 228.526325 221.458949 
L 228.704012 236.082591 
L 228.792856 256.162449 
L 229.14823 217.194745 
L 229.237073 220.35296 
L 229.414761 252.979656 
L 229.503604 247.203932 
L 229.681291 218.030381 
L 229.770135 222.909025 
L 229.858978 217.674007 
L 230.036665 252.893635 
L 230.125509 246.147098 
L 230.214353 221.05342 
L 230.303196 221.495816 
L 230.39204 219.713943 
L 230.480883 221.422083 
L 230.65857 256.998085 
L 230.747414 253.188565 
L 230.925101 223.621774 
L 231.013945 217.919782 
L 231.191632 229.127145 
L 231.369319 251.480426 
L 231.458162 233.268462 
L 231.547006 234.226986 
L 231.63585 228.402107 
L 231.724693 231.400568 
L 231.90238 252.795325 
L 231.991224 245.299172 
L 232.168911 215.965867 
L 232.257755 215.756958 
L 232.346598 220.697045 
L 232.524285 252.402084 
L 232.790816 217.293055 
L 232.87966 219.419013 
L 232.968503 217.2439 
L 233.14619 250.681655 
L 233.412721 211.505042 
L 233.501564 214.859877 
L 233.590408 218.755419 
L 233.768095 247.105622 
L 233.856939 242.239267 
L 233.945782 212.746208 
L 234.034626 217.723162 
L 234.123469 215.892135 
L 234.39 246.417451 
L 234.478844 235.849104 
L 234.567687 209.612571 
L 234.656531 212.463566 
L 234.834218 215.43745 
L 235.011905 250.165527 
L 235.100749 237.938196 
L 235.278436 212.52501 
L 235.367279 216.395974 
L 235.456123 210.485074 
L 235.63381 249.354468 
L 235.722654 239.535737 
L 235.811497 212.254657 
L 235.900341 213.151738 
L 236.078028 218.816863 
L 236.255715 249.13327 
L 236.522246 212.070326 
L 236.699933 214.528081 
L 236.87762 251.873666 
L 237.055307 210.743138 
L 237.144151 213.594134 
L 237.321838 206.970484 
L 237.499525 249.010382 
L 237.677212 216.74006 
L 237.766055 218.165558 
L 237.854899 213.090294 
L 238.032586 225.600266 
L 238.12143 251.615602 
L 238.299117 216.223931 
L 238.38796 216.248509 
L 238.565648 222.442051 
L 238.743335 253.311453 
L 238.921022 242.50962 
L 239.009865 244.377514 
L 239.187552 237.372912 
L 239.454083 256.641711 
L 239.542927 258.964289 
L 239.809457 227.36985 
L 239.898301 229.053412 
L 239.987145 240.260774 
L 240.075988 239.265384 
L 240.253675 209.31764 
L 240.342519 206.958195 
L 240.431362 210.349897 
L 240.609049 245.090263 
L 240.87558 210.067255 
L 240.964424 211.185534 
L 241.053267 206.589532 
L 241.230954 245.508081 
L 241.497485 206.982773 
L 241.586329 208.666335 
L 241.675172 213.852198 
L 241.852859 250.214682 
L 242.11939 219.320703 
L 242.208234 221.495816 
L 242.385921 239.093341 
L 242.474764 258.128653 
L 242.563608 254.712373 
L 242.741295 231.904408 
L 242.830139 232.359092 
L 242.918982 228.094888 
L 243.096669 258.915134 
L 243.185513 250.300703 
L 243.3632 222.306875 
L 243.452043 223.548041 
L 243.540887 215.253118 
L 243.629731 224.285368 
L 243.718574 251.222361 
L 244.073948 209.12102 
L 244.162792 205.889072 
L 244.340479 244.107161 
L 244.429323 236.512698 
L 244.518166 204.660195 
L 244.60701 204.869104 
L 244.695853 203.271563 
L 244.784697 208.309961 
L 244.962384 246.663226 
L 245.051228 234.718537 
L 245.228915 203.529627 
L 245.317758 203.947446 
L 245.406602 206.90904 
L 245.584289 243.664765 
L 245.673133 237.520378 
L 245.85082 203.345296 
L 245.939663 200.850674 
L 246.028507 207.744677 
L 246.206194 239.80609 
L 246.295037 236.168613 
L 246.472725 196.328405 
L 246.739255 220.635601 
L 246.828099 242.41131 
L 246.916942 236.561853 
L 247.09463 203.283852 
L 247.183473 203.369873 
L 247.272317 198.270032 
L 247.450004 242.91515 
L 247.716534 198.675561 
L 247.805378 199.609508 
L 248.071909 249.415912 
L 248.427283 197.090309 
L 248.516127 199.130246 
L 248.693814 237.815308 
L 248.782657 231.265392 
L 248.960344 192.813816 
L 249.315719 242.693952 
L 249.404562 234.644805 
L 249.582249 207.154816 
L 249.671093 206.220869 
L 249.759936 206.982773 
L 249.937624 241.452786 
L 250.026467 233.059553 
L 250.115311 208.334538 
L 250.292998 232.101028 
L 250.381841 221.028842 
L 250.559528 244.574134 
L 250.826059 204.438997 
L 250.914903 206.71242 
L 251.003746 206.097981 
L 251.181433 243.185503 
L 251.270277 233.821457 
L 251.447964 201.243915 
L 251.625651 204.094911 
L 251.803338 243.885963 
L 251.892182 236.832206 
L 252.069869 203.541916 
L 252.158713 203.00121 
L 252.247556 203.283852 
L 252.425243 245.458926 
L 252.514087 238.995031 
L 252.691774 207.265415 
L 252.869461 215.744669 
L 253.047148 246.036499 
L 253.135992 239.044186 
L 253.224835 209.600282 
L 253.313679 211.2224 
L 253.402522 209.047287 
L 253.669053 248.850628 
L 253.757897 242.730818 
L 253.935584 209.649437 
L 254.024427 212.905962 
L 254.113271 209.403662 
L 254.290958 248.02728 
L 254.557489 210.337608 
L 254.646332 211.505042 
L 254.735176 214.872166 
L 254.912863 244.070295 
L 255.001707 237.065693 
L 255.179394 208.555736 
L 255.357081 214.011952 
L 255.534768 243.799942 
L 255.623612 237.975062 
L 255.801299 210.571095 
L 255.890142 211.689374 
L 256.156673 247.646328 
L 256.245516 236.254634 
L 256.33436 206.024249 
L 256.423204 209.747747 
L 256.512047 208.912111 
L 256.689734 223.05649 
L 256.778578 240.30993 
L 256.867421 233.68628 
L 257.045109 206.921329 
L 257.133952 206.442067 
L 257.222796 209.944368 
L 257.400483 240.715459 
L 257.489326 233.796879 
L 257.667013 203.333007 
L 257.755857 204.377553 
L 257.844701 208.248517 
L 258.022388 243.038038 
L 258.111231 238.073373 
L 258.288918 209.846057 
L 258.377762 210.890603 
L 258.466606 216.74006 
L 258.644293 249.047248 
L 258.733136 239.830667 
L 258.910823 216.727771 
L 258.999667 217.231611 
L 259.08851 214.687835 
L 259.266198 248.2239 
L 259.355041 244.180894 
L 259.532728 219.308414 
L 259.799259 232.936665 
L 259.888103 250.190104 
L 259.976946 241.280743 
L 260.154633 214.282305 
L 260.243477 211.160956 
L 260.33232 214.540369 
L 260.510007 255.621743 
L 260.598851 230.270001 
L 260.687695 247.203932 
L 260.776538 240.10102 
L 261.043069 206.528088 
L 261.220756 224.223924 
L 261.3096 245.213151 
L 261.664974 208.42056 
L 261.931504 249.477355 
L 262.286879 199.412888 
L 262.375722 203.050365 
L 262.553409 240.629438 
L 262.642253 230.921306 
L 262.81994 205.213189 
L 262.997627 206.90904 
L 263.175314 241.61254 
L 263.264158 237.323757 
L 263.353001 226.374459 
L 263.441845 227.087208 
L 263.530689 224.66632 
L 263.619532 225.919775 
L 263.708376 228.783059 
L 263.797219 246.933579 
L 263.886063 240.60486 
L 264.06375 205.274633 
L 264.152594 205.901361 
L 264.241437 207.351436 
L 264.419124 242.952016 
L 264.507968 234.779981 
L 264.685655 200.531166 
L 264.774498 205.213189 
L 264.863342 204.40213 
L 265.041029 235.29611 
L 265.129873 227.849112 
L 265.30756 203.79998 
L 265.396403 199.572642 
L 265.485247 202.214728 
L 265.662934 238.724678 
L 265.751778 233.342194 
L 265.929465 200.101059 
L 266.018308 204.979703 
L 266.107152 204.30382 
L 266.284839 241.80916 
L 266.55137 198.626406 
L 266.640213 199.031936 
L 266.729057 197.766192 
L 266.906744 233.366772 
L 266.995588 228.758481 
L 267.173275 197.643304 
L 267.262118 198.048834 
L 267.350962 199.302289 
L 267.528649 239.117918 
L 267.706336 199.781551 
L 267.79518 202.730857 
L 267.972867 199.929016 
L 268.150554 240.50655 
L 268.239397 229.544963 
L 268.417085 196.291539 
L 268.594772 204.660195 
L 268.772459 240.948946 
L 268.950146 192.899837 
L 269.127833 193.993538 
L 269.216677 199.572642 
L 269.394364 238.786122 
L 269.749738 186.497386 
L 269.927425 219.283836 
L 270.016269 239.40056 
L 270.105112 227.812246 
L 270.193956 201.19476 
L 270.282799 201.256204 
L 270.371643 207.965875 
L 270.460486 205.200901 
L 270.638174 238.884432 
L 270.815861 218.460488 
L 270.993548 226.620235 
L 271.082391 221.127152 
L 271.260079 236.660164 
L 271.437766 222.786137 
L 271.526609 244.893643 
L 271.704296 217.612563 
L 271.79314 225.415935 
L 271.881983 233.403638 
L 271.970827 226.718545 
L 272.148514 190.712435 
L 272.326201 198.626406 
L 272.503888 237.852175 
L 272.859263 200.518878 
L 272.948106 204.537307 
L 273.125793 239.928978 
L 273.214637 235.775372 
L 273.30348 216.617172 
L 273.747698 259.885947 
L 273.836542 251.296094 
L 274.014229 223.007335 
L 274.191916 212.819941 
L 274.369603 239.351405 
L 274.458447 234.521917 
L 274.54729 205.766184 
L 274.636134 207.142527 
L 274.724977 203.455895 
L 274.813821 204.80766 
L 274.902665 213.643289 
L 274.991508 235.357553 
L 275.080352 227.517315 
L 275.258039 199.879861 
L 275.346882 197.58186 
L 275.52457 233.243884 
L 275.613413 180.856838 
L 275.702257 183.363748 
L 275.879944 224.45741 
L 275.968787 220.611024 
L 276.146474 179.33303 
L 276.324162 188.770809 
L 276.501849 220.230072 
L 276.590692 217.428231 
L 276.768379 190.417505 
L 276.857223 189.545002 
L 276.946067 194.583399 
L 277.123754 221.016554 
L 277.212597 213.336069 
L 277.390284 185.477417 
L 277.479128 181.557298 
L 277.567971 183.658679 
L 277.745659 218.313023 
L 277.834502 209.084153 
L 277.923346 183.806144 
L 278.012189 184.690936 
L 278.101033 180.193244 
L 278.189876 185.821503 
L 278.367564 220.131762 
L 278.456407 214.884455 
L 278.634094 181.422122 
L 278.722938 180.1318 
L 278.811781 185.74777 
L 278.989468 213.631 
L 279.078312 207.462035 
L 279.255999 177.612602 
L 279.344843 177.956687 
L 279.52253 190.66328 
L 279.611373 209.501972 
L 279.966748 168.80155 
L 280.055591 168.752395 
L 280.233278 209.12102 
L 280.410965 167.253165 
L 280.499809 167.855315 
L 280.588653 170.41138 
L 280.855183 213.643289 
L 280.944027 205.164034 
L 281.121714 175.634109 
L 281.210558 166.392951 
L 281.299401 168.309999 
L 281.388245 178.177885 
L 281.477088 205.876783 
L 281.565932 202.128707 
L 281.743619 169.391412 
L 281.832463 168.912149 
L 281.921306 163.763153 
L 282.098993 210.399052 
L 282.187837 201.870643 
L 282.27668 168.174823 
L 282.365524 168.297711 
L 282.632055 190.405216 
L 282.720898 215.560338 
L 282.987429 179.222431 
L 283.165116 182.134871 
L 283.342803 218.497355 
L 283.698177 177.243938 
L 283.787021 180.746239 
L 283.964708 221.090286 
L 284.053552 207.990452 
L 284.142395 175.351467 
L 284.231239 180.1318 
L 284.320082 176.518901 
L 284.408926 181.065747 
L 284.586613 216.113332 
L 284.675457 212.746208 
L 284.853144 183.658679 
L 285.030831 184.65407 
L 285.208518 223.302266 
L 285.386205 186.1533 
L 285.475049 190.552681 
L 285.830423 219.541901 
L 285.919266 210.583384 
L 286.096954 185.182487 
L 286.274641 189.569579 
L 286.452328 228.426685 
L 286.630015 185.170198 
L 286.807702 185.674038 
L 286.896546 184.85069 
L 287.074233 223.990437 
L 287.163076 215.167097 
L 287.340763 188.402146 
L 287.429607 185.772348 
L 287.518451 188.881408 
L 287.696138 223.05649 
L 287.784981 215.929001 
L 287.962668 187.369889 
L 288.051512 189.86451 
L 288.140355 187.050381 
L 288.318043 227.615625 
L 288.406886 217.895205 
L 288.584573 188.647921 
L 288.673417 193.551142 
L 288.76226 192.260821 
L 288.939948 229.938204 
L 289.206478 195.234704 
L 289.295322 196.242384 
L 289.384165 196.475871 
L 289.561852 232.924376 
L 289.650696 221.34835 
L 289.828383 196.623336 
L 289.917227 196.647914 
L 290.00607 193.747763 
L 290.183757 231.732365 
L 290.272601 221.815324 
L 290.361445 199.38831 
L 290.450288 199.683241 
L 290.539132 197.102598 
L 290.627975 199.19169 
L 290.805662 231.523456 
L 290.983349 198.245454 
L 291.161037 199.007358 
L 291.24988 201.465113 
L 291.427567 231.892119 
L 291.516411 224.211635 
L 291.605254 200.4943 
L 291.694098 204.537307 
L 291.782942 194.902908 
L 291.871785 198.945914 
L 292.049472 234.853714 
L 292.316003 194.97664 
L 292.404846 199.670952 
L 292.49369 198.650984 
L 292.671377 229.987359 
L 292.760221 220.918243 
L 292.937908 192.617195 
L 293.115595 196.08263 
L 293.293282 239.412849 
L 293.470969 194.153292 
L 293.559813 197.078021 
L 293.7375 188.955141 
L 293.915187 224.912095 
L 294.092874 194.313046 
L 294.181718 199.09338 
L 294.359405 221.458949 
L 294.448248 223.437442 
L 294.537092 239.191651 
L 294.625936 228.918236 
L 294.803623 198.208588 
L 294.892466 193.47741 
L 294.98131 193.551142 
L 295.158997 222.786137 
L 295.24784 212.4267 
L 295.336684 184.826112 
L 295.425528 186.767739 
L 295.603215 182.048849 
L 295.780902 225.96893 
L 296.047433 179.124121 
L 296.136276 182.270047 
L 296.22512 183.904454 
L 296.402807 219.640211 
L 296.758181 183.683256 
L 296.847025 183.179417 
L 297.024712 226.472769 
L 297.202399 186.607985 
L 297.291242 184.998155 
L 297.380086 179.713982 
L 297.46893 180.893705 
L 297.646617 229.262321 
L 297.824304 183.388326 
L 297.913147 185.501995 
L 298.001991 184.24854 
L 298.090834 186.927493 
L 298.268522 225.796887 
L 298.446209 179.578806 
L 298.535052 183.756989 
L 298.623896 174.749317 
L 298.801583 203.160964 
L 298.890427 221.876768 
L 299.156957 183.511213 
L 299.245801 187.55422 
L 299.334644 184.359139 
L 299.512331 222.970469 
L 299.690019 177.796933 
L 299.778862 178.767747 
L 299.867706 183.216283 
L 299.956549 179.83687 
L 300.134236 219.922853 
L 300.400767 177.52658 
L 300.489611 177.993554 
L 300.578454 185.968968 
L 300.756141 224.236212 
L 300.933828 186.65714 
L 301.022672 190.343772 
L 301.111516 186.362209 
L 301.200359 187.984327 
L 301.378046 225.194737 
L 301.555733 193.77234 
L 301.644577 196.205518 
L 301.733421 201.747755 
L 301.911108 236.19319 
L 301.999951 231.744654 
L 302.177638 204.30382 
L 302.266482 205.446676 
L 302.355325 210.337608 
L 302.444169 245.876744 
L 302.533013 240.334507 
L 302.621856 233.612547 
L 302.888387 193.465121 
L 302.97723 193.035014 
L 303.066074 188.119504 
L 303.243761 221.213174 
L 303.599135 176.592633 
L 303.687979 181.999694 
L 303.865666 214.540369 
L 304.043353 179.566517 
L 304.132197 181.778496 
L 304.22104 182.233181 
L 304.309884 175.216291 
L 304.487571 216.23622 
L 304.665258 178.116441 
L 304.842945 179.677116 
L 304.931789 175.818441 
L 305.109476 217.932071 
L 305.376007 179.222431 
L 305.642537 193.452832 
L 305.731381 218.939751 
L 305.820224 210.460496 
L 305.909068 190.245462 
L 306.175599 223.732373 
L 306.264442 228.463551 
L 306.353286 239.584892 
L 306.797504 186.767739 
L 306.886347 195.320726 
L 306.975191 253.520362 
L 307.064034 242.448176 
L 307.241721 172.525049 
L 307.330565 170.10416 
L 307.419409 176.82612 
L 307.597096 216.948969 
L 307.863626 169.133347 
L 307.95247 169.870674 
L 308.219001 214.798434 
L 308.574375 162.878361 
L 308.663218 165.815378 
L 308.840906 213.078005 
L 308.929749 197.446684 
L 309.018593 156.697107 
L 309.107436 158.859932 
L 309.19628 151.326913 
L 309.46281 208.899822 
L 309.818185 158.528135 
L 309.995872 188.205525 
L 310.084715 218.337601 
L 310.262403 169.649476 
L 310.351246 170.853776 
L 310.44009 169.563454 
L 310.528933 180.082645 
L 310.70662 226.079529 
L 310.795464 219.369858 
L 311.061995 158.663311 
L 311.150838 157.56961 
L 311.328525 212.844518 
L 311.506212 156.156401 
L 311.595056 157.520455 
L 311.772743 164.525057 
L 311.95043 206.30689 
L 312.039274 195.197838 
L 312.216961 163.443645 
L 312.394648 244.684733 
L 312.572335 179.701693 
L 312.750022 185.207064 
L 312.927709 224.45741 
L 313.105397 179.308453 
L 313.19424 181.483566 
L 313.283084 184.690936 
L 313.371927 178.03042 
L 313.549614 229.004257 
L 313.816145 183.277727 
L 313.904989 184.592626 
L 313.993832 180.549619 
L 314.171519 221.704725 
L 314.260363 212.070326 
L 314.43805 178.325351 
L 314.615737 183.302304 
L 314.793424 222.884447 
L 314.882268 211.713951 
L 315.059955 179.050388 
L 315.148798 180.475886 
L 315.237642 174.847627 
L 315.415329 220.45127 
L 315.593016 181.717052 
L 315.68186 182.663288 
L 315.770703 185.612594 
L 315.859547 185.293086 
L 316.037234 219.972008 
L 316.126078 210.411341 
L 316.214921 182.761598 
L 316.303765 183.130261 
L 316.392608 184.887556 
L 316.481452 179.529651 
L 316.659139 224.776919 
L 316.747983 217.34221 
L 316.92567 182.614133 
L 317.014513 183.486636 
L 317.103357 187.45591 
L 317.281044 223.339132 
L 317.369888 214.687835 
L 317.458731 185.305375 
L 317.547575 187.972039 
L 317.725262 180.758528 
L 317.902949 226.116395 
L 318.080636 180.697084 
L 318.258323 182.282336 
L 318.347167 186.042701 
L 318.524854 222.835292 
L 318.702541 184.912134 
L 318.791385 185.096465 
L 318.880228 181.114902 
L 319.057915 200.752364 
L 319.146759 222.577228 
L 319.502133 177.489714 
L 319.67982 202.792301 
L 319.768664 226.313015 
L 320.035194 180.082645 
L 320.124038 177.895244 
L 320.212882 179.775426 
L 320.390569 223.437442 
L 320.657099 176.862986 
L 320.745943 177.379115 
L 320.834786 179.566517 
L 321.101317 228.844503 
L 321.367848 179.83687 
L 321.456691 177.403693 
L 321.634379 210.276165 
L 321.723222 199.560353 
L 321.812066 171.038107 
L 321.900909 174.12259 
L 321.989753 182.048849 
L 322.256283 233.415927 
L 322.345127 226.005796 
L 322.522814 188.918274 
L 322.700501 183.031951 
L 322.789345 185.526573 
L 322.878188 215.326851 
L 322.967032 205.3115 
L 323.144719 178.755458 
L 323.233563 168.641796 
L 323.322406 170.448246 
L 323.500093 216.322242 
L 323.588937 203.873713 
L 323.766624 163.357623 
L 323.855468 169.10877 
L 323.944311 168.850705 
L 324.121998 218.952039 
L 324.477373 158.442113 
L 324.566216 164.168682 
L 324.743903 215.769247 
L 325.099277 163.505088 
L 325.188121 169.796941 
L 325.365808 212.365256 
L 325.543495 151.498956 
L 325.89887 190.724724 
L 325.987713 208.408271 
L 326.254244 155.763161 
L 326.343087 154.841502 
L 326.431931 160.260852 
L 326.609618 206.024249 
L 326.876149 155.419075 
L 327.053836 167.965914 
L 327.231523 212.697053 
L 327.40921 139.333069 
L 327.498054 158.57729 
L 327.586897 163.59111 
L 327.675741 155.922915 
L 327.853428 211.984304 
L 328.119959 157.962851 
L 328.208802 161.551173 
L 328.297646 156.058091 
L 328.475333 216.445129 
L 328.65302 158.331514 
L 328.741864 163.382201 
L 328.919551 174.12259 
L 329.097238 220.525003 
L 329.274925 178.337639 
L 329.452612 184.592626 
L 329.541456 194.595688 
L 329.719143 228.561861 
L 329.89683 190.503526 
L 329.985673 188.819964 
L 330.163361 204.930548 
L 330.252204 242.067224 
L 330.341048 235.578751 
L 330.785266 166.282352 
L 331.051796 171.443637 
L 331.14064 160.936735 
L 331.229483 165.618758 
L 331.318327 164.09495 
L 331.40717 164.79541 
L 331.584858 200.826097 
L 331.762545 133.286992 
L 331.940232 165.962843 
L 332.029075 157.56961 
L 332.206763 207.105661 
L 332.473293 151.769309 
L 332.562137 179.972046 
L 332.65098 128.174862 
L 332.828667 223.548041 
L 332.917511 232.973531 
L 333.184042 205.495831 
L 333.272885 204.156355 
L 333.450572 227.308406 
L 333.89479 175.941328 
L 334.072477 211.234689 
L 334.161321 201.391381 
L 334.339008 174.651007 
L 334.516695 165.078052 
L 334.694382 204.795371 
L 335.049757 148.967468 
L 335.227444 183.253149 
L 335.316287 207.302281 
L 335.582818 154.141042 
L 335.760505 147.591125 
L 335.938192 199.879861 
L 336.115879 145.121082 
L 336.204723 152.727833 
L 336.293566 141.766246 
L 336.38241 144.83844 
L 336.560097 192.076489 
L 336.648941 185.268508 
L 336.826628 137.895282 
L 336.915471 132.439066 
L 337.004315 138.177924 
L 337.182002 188.352991 
L 337.537376 128.248594 
L 337.62622 136.580383 
L 337.803907 187.296156 
L 338.070438 135.031998 
L 338.159281 141.385294 
L 338.248125 131.406809 
L 338.425812 185.514284 
L 338.514655 181.176346 
L 338.692343 138.681764 
L 338.781186 139.271625 
L 338.87003 137.846127 
L 339.047717 182.184026 
L 339.13656 168.371443 
L 339.225404 135.228618 
L 339.314248 137.846127 
L 339.403091 138.288523 
L 339.491935 142.098043 
L 339.669622 183.437481 
L 339.758465 173.274664 
L 339.936152 132.279312 
L 340.024996 132.586532 
L 340.11384 128.629546 
L 340.291527 185.735482 
L 340.558057 134.061185 
L 340.646901 139.271625 
L 340.735745 138.460566 
L 340.913432 195.738544 
L 341.002275 192.309976 
L 341.179962 159.388349 
L 341.357649 144.518932 
L 341.446493 148.205564 
L 341.535337 188.328413 
L 341.890711 133.962874 
L 341.979554 140.611101 
L 342.157242 194.153292 
L 342.246085 182.429801 
L 342.423772 139.873775 
L 342.601459 149.114933 
L 342.779146 199.154824 
L 342.956834 147.197885 
L 343.134521 150.95825 
L 343.223364 158.565001 
L 343.401051 204.058045 
L 343.578739 157.237813 
L 343.667582 165.581891 
L 343.756426 164.856854 
L 344.022956 219.738521 
L 344.378331 161.698639 
L 344.467174 164.266993 
L 344.644861 217.14559 
L 344.733705 204.30382 
L 344.911392 167.462074 
L 345.000236 169.821519 
L 345.177923 193.993538 
L 345.266766 218.337601 
L 345.533297 167.511229 
L 345.62214 171.603391 
L 345.710984 171.554236 
L 345.888671 213.446668 
L 345.977515 202.362194 
L 346.066358 167.769293 
L 346.155202 171.947477 
L 346.332889 177.084184 
L 346.510576 220.303805 
L 346.86595 168.80155 
L 346.954794 172.906001 
L 347.132481 221.323773 
L 347.221325 207.277704 
L 347.399012 171.591102 
L 347.487855 170.091872 
L 347.576699 172.869135 
L 347.754386 220.144051 
L 347.84323 206.564955 
L 348.020917 172.131808 
L 348.10976 171.861455 
L 348.198604 169.80923 
L 348.376291 219.677077 
L 348.465134 203.443606 
L 348.642822 173.729349 
L 348.820509 183.228572 
L 348.998196 223.941282 
L 349.264727 183.597235 
L 349.35357 184.912134 
L 349.442414 188.684788 
L 349.620101 226.792278 
L 349.975475 181.397544 
L 350.064319 185.243931 
L 350.242006 223.486597 
L 350.59738 184.174807 
L 350.686224 188.25468 
L 350.863911 226.116395 
L 351.219285 169.90754 
L 351.308128 176.703232 
L 351.485816 215.044209 
L 351.574659 203.79998 
L 351.752346 175.204002 
L 351.84119 176.174815 
L 351.930033 171.283883 
L 352.107721 214.417482 
L 352.196564 205.028858 
L 352.374251 171.775434 
L 352.463095 173.188643 
L 352.551938 180.561908 
L 352.729625 232.703178 
L 352.996156 163.541955 
L 353.085 167.720138 
L 353.173843 165.065763 
L 353.35153 204.156355 
L 353.529218 161.78466 
L 353.706905 162.89065 
L 353.795748 166.048865 
L 353.973435 214.061107 
L 354.239966 163.922907 
L 354.32881 159.867611 
L 354.417653 162.509698 
L 354.59534 225.735443 
L 354.684184 216.150199 
L 354.861871 176.53119 
L 354.950715 175.535799 
L 355.039558 168.727818 
L 355.217245 188.721654 
L 355.306089 188.549611 
L 355.483776 149.213244 
L 355.572619 157.188658 
L 355.661463 152.076528 
L 355.83915 205.114879 
L 355.927994 189.483558 
L 356.016837 151.449801 
L 356.105681 156.426754 
L 356.194524 147.861478 
L 356.283368 154.890658 
L 356.461055 202.829167 
L 356.549899 189.655601 
L 356.727586 150.147191 
L 356.905273 155.320765 
L 357.08296 199.363733 
L 357.349491 153.25625 
L 357.527178 143.548119 
L 357.704865 194.816886 
L 357.882552 145.551189 
L 357.971396 145.563478 
L 358.149083 153.182518 
L 358.32677 197.79077 
L 358.682144 148.512784 
L 358.770988 147.124152 
L 358.948675 208.42056 
L 359.037518 187.910595 
L 359.126362 138.841518 
L 359.215206 139.775465 
L 359.57058 198.134855 
L 359.659423 184.199385 
L 359.748267 146.558868 
L 359.83711 149.667928 
L 360.014798 158.6756 
L 360.192485 204.537307 
L 360.370172 150.95825 
L 360.459015 154.386818 
L 360.547859 156.267 
L 360.725546 183.941321 
L 360.81439 213.753888 
L 360.992077 166.638726 
L 361.08092 173.606461 
L 361.258607 186.079567 
L 361.436295 229.041123 
L 361.613982 198.552674 
L 361.702825 203.431317 
L 361.791669 205.839917 
L 361.969356 228.783059 
L 362.0582 239.462004 
L 362.32473 215.548049 
L 362.413574 215.781536 
L 362.502417 213.704733 
L 362.680104 242.190112 
L 362.768948 235.984281 
L 362.946635 193.514276 
L 363.035479 188.205525 
L 363.124322 188.586477 
L 363.302009 222.122543 
L 363.390853 213.975086 
L 363.56854 178.878345 
L 363.657384 181.975117 
L 363.746227 178.743169 
L 363.923914 223.363709 
L 364.101601 187.333022 
L 364.190445 187.541932 
L 364.279289 190.687858 
L 364.456976 219.197815 
L 364.545819 253.458918 
L 364.901194 206.01196 
L 364.990037 206.798441 
L 365.078881 210.288453 
L 365.167724 223.400576 
L 365.256568 211.443598 
L 365.434255 171.947477 
L 365.611942 166.147175 
L 365.789629 212.844518 
L 366.145003 156.77084 
L 366.233847 154.718615 
L 366.411534 204.598751 
L 366.766908 139.701732 
L 366.855752 144.998194 
L 367.033439 202.583392 
L 367.211126 136.273164 
L 367.29997 139.591133 
L 367.388813 139.111871 
L 367.477657 147.689436 
L 367.655344 199.007358 
L 367.833031 131.09959 
L 367.921875 133.70481 
L 368.010718 134.257805 
L 368.099562 132.414489 
L 368.277249 193.243923 
L 368.454936 122.583469 
L 368.54378 130.706349 
L 368.632623 135.892212 
L 368.721467 125.643374 
L 368.899154 192.899837 
L 368.987997 176.678655 
L 369.165685 120.97364 
L 369.432215 161.342264 
L 369.521059 192.690928 
L 369.787589 128.654124 
L 369.876433 132.058114 
L 369.965277 139.763176 
L 370.142964 192.211666 
L 370.409494 129.932156 
L 370.498338 137.280844 
L 370.587182 137.796972 
L 370.764869 203.19783 
L 370.942556 141.766246 
L 371.031399 150.491276 
L 371.209086 142.601883 
L 371.386774 193.735474 
L 371.742148 128.101129 
L 371.830991 132.353045 
L 372.008679 193.747763 
L 372.275209 132.156425 
L 372.364053 127.707888 
L 372.452896 134.392982 
L 372.630583 188.094926 
L 372.897114 130.386841 
L 372.985958 135.830768 
L 373.074801 151.732442 
L 373.252488 221.028842 
L 373.341332 221.75388 
L 373.696706 147.038131 
L 373.78555 159.425215 
L 373.874393 191.634093 
L 374.05208 142.724771 
L 374.140924 182.220892 
L 374.318611 143.855338 
L 374.496298 206.933618 
L 374.762829 138.878384 
L 374.940516 156.992038 
L 375.118203 208.801512 
L 375.29589 148.267008 
L 375.384734 151.044271 
L 375.473577 151.031982 
L 375.562421 155.259321 
L 375.740108 214.270016 
L 376.006639 152.371459 
L 376.27317 187.578798 
L 376.362013 217.379076 
L 376.5397 159.240884 
L 376.628544 159.953633 
L 376.717387 162.743184 
L 376.806231 170.239337 
L 376.983918 219.062638 
L 377.072762 204.955125 
L 377.250449 158.847643 
L 377.428136 170.964375 
L 377.605823 226.558791 
L 377.872354 171.775434 
L 378.050041 204.697061 
L 378.138884 207.756966 
L 378.227728 215.314562 
L 378.405415 176.949008 
L 378.494259 180.254688 
L 378.583102 177.612602 
L 378.671946 179.750848 
L 378.849633 226.829144 
L 379.205007 169.391412 
L 379.293851 170.927508 
L 379.471538 222.638672 
L 379.560381 207.437458 
L 379.649225 169.50201 
L 379.738069 170.018139 
L 379.826912 167.40063 
L 379.915756 160.371451 
L 380.093443 217.907494 
L 380.448817 168.359154 
L 380.537661 175.302312 
L 380.804191 251.111762 
L 380.893035 250.202393 
L 380.981878 184.162519 
L 381.070722 198.405208 
L 381.159566 222.884447 
L 381.51494 177.588024 
L 381.603783 179.787715 
L 381.78147 224.641742 
L 382.136845 183.203994 
L 382.225688 186.005835 
L 382.403375 225.157871 
L 382.75875 182.724732 
L 382.847593 183.806144 
L 383.02528 228.844503 
L 383.380655 176.137949 
L 383.469498 181.434411 
L 383.647185 223.732373 
L 384.00256 169.010459 
L 384.091403 175.732419 
L 384.26909 217.170167 
L 384.535621 162.976671 
L 384.624464 163.88604 
L 384.802152 198.921337 
L 384.890995 219.087216 
L 385.246369 160.973601 
L 385.335213 170.067294 
L 385.5129 215.53576 
L 385.779431 154.46055 
L 385.957118 164.38988 
L 386.134805 211.713951 
L 386.312492 160.211697 
L 386.401336 165.053474 
L 386.490179 176.469746 
L 386.75671 239.265384 
L 386.845554 228.107176 
L 387.023241 195.234704 
L 387.289771 182.220892 
L 387.378615 191.498917 
L 387.645146 156.451332 
L 387.733989 159.326905 
L 387.822833 159.253172 
L 388.00052 214.552658 
L 388.355894 150.55272 
L 388.444738 149.102645 
L 388.622425 207.486613 
L 388.800112 155.345342 
L 388.888955 155.935203 
L 388.977799 156.156401 
L 389.066643 163.824597 
L 389.24433 213.581845 
L 389.422017 150.282367 
L 389.51086 155.787738 
L 389.599704 161.096489 
L 389.688548 155.173299 
L 389.866235 212.758497 
L 390.132765 150.798496 
L 390.310452 162.313077 
L 390.48814 216.506573 
L 390.75467 147.922922 
L 390.843514 156.205556 
L 390.932357 150.085747 
L 391.110045 208.764645 
L 391.287732 149.827682 
L 391.376575 152.715544 
L 391.465419 149.004334 
L 391.554262 159.412927 
L 391.731949 210.42363 
L 391.909637 147.652569 
L 391.99848 152.949031 
L 392.087324 145.821542 
L 392.176167 154.239352 
L 392.353854 210.190143 
L 392.531542 151.007405 
L 392.620385 154.558861 
L 392.709229 149.581907 
L 392.798072 154.46055 
L 392.975759 208.42056 
L 393.153446 146.313093 
L 393.24229 150.995116 
L 393.331134 144.654108 
L 393.419977 154.16562 
L 393.597664 216.924392 
L 393.864195 159.843034 
L 393.953039 161.747794 
L 394.219569 219.775387 
L 394.308413 203.738536 
L 394.4861 177.649468 
L 394.663787 184.162519 
L 394.930318 240.690882 
L 395.196848 168.518909 
L 395.285692 165.618758 
L 395.463379 208.174784 
L 395.72991 147.627992 
L 395.818753 151.265469 
L 395.907597 149.078067 
L 396.085284 206.171714 
L 396.351815 141.250118 
L 396.440658 139.677155 
L 396.529502 145.403724 
L 396.707189 205.520409 
L 396.884876 141.422161 
L 396.97372 146.079606 
L 397.062563 140.635679 
L 397.24025 182.073427 
L 397.329094 207.400591 
L 397.506781 148.832292 
L 397.595625 160.924446 
L 397.773312 172.426739 
L 397.950999 213.925931 
L 398.128686 181.569587 
L 398.21753 187.996616 
L 398.306373 190.56497 
L 398.572904 245.680124 
L 398.661747 236.328367 
L 398.839434 206.466644 
L 399.017122 196.168651 
L 399.105965 198.638695 
L 399.194809 214.773856 
L 399.461339 150.601875 
L 399.639027 145.514323 
L 399.816714 205.323788 
L 399.994401 127.314647 
L 400.083244 127.48669 
L 400.172088 120.592688 
L 400.260931 127.609578 
L 400.438619 181.090325 
L 400.705149 117.127253 
L 400.793993 116.832323 
L 400.882836 128.015108 
L 401.060524 191.695537 
L 401.149367 175.01967 
L 401.327054 121.624945 
L 401.415898 118.835393 
L 401.504741 123.787769 
L 401.682428 185.514284 
L 402.037803 115.185627 
L 402.126646 126.196369 
L 402.304333 191.36374 
L 402.570864 124.561962 
L 402.659708 118.405286 
L 402.748551 128.383771 
L 402.926238 191.609516 
L 403.192769 133.790832 
L 403.370456 167.646406 
L 403.4593 180.094934 
L 403.548143 177.022741 
L 403.72583 119.658741 
L 403.814674 122.005897 
L 403.903518 123.898368 
L 403.992361 129.551204 
L 404.170048 186.177878 
L 404.436579 115.886087 
L 404.614266 134.220939 
L 404.791953 192.027334 
L 405.147327 122.509736 
L 405.236171 133.213259 
L 405.413858 182.491245 
L 405.591545 147.898345 
L 405.769232 190.847612 
L 405.858076 182.577267 
L 406.035763 204.070333 
L 406.302294 127.89222 
L 406.391137 130.386841 
L 406.568824 159.941344 
L 406.657668 192.002757 
L 406.746512 177.23165 
L 406.835355 130.755504 
L 406.924199 140.770856 
L 407.013042 126.749364 
L 407.101886 135.302351 
L 407.279573 199.117957 
L 407.634947 140.52508 
L 407.723791 151.474378 
L 407.901478 202.841456 
L 408.168009 144.174846 
L 408.345696 149.925993 
L 408.523383 213.274626 
L 408.789913 153.305406 
L 408.967601 161.231665 
L 409.145288 226.16555 
L 409.234131 216.654039 
L 409.411818 159.855322 
L 409.500662 165.213228 
L 409.589506 164.89372 
L 409.767193 223.240822 
L 410.033723 159.707857 
L 410.21141 164.635656 
L 410.389098 216.531151 
L 410.566785 156.230134 
L 410.655628 158.835354 
L 410.744472 159.548103 
L 410.833315 159.37606 
L 411.011003 220.500425 
L 411.277533 160.936735 
L 411.366377 160.703248 
L 411.45522 168.248555 
L 411.632907 215.793824 
L 411.988282 153.170229 
L 412.077125 159.769301 
L 412.254812 212.32839 
L 412.4325 157.901407 
L 412.521343 158.626445 
L 412.610187 162.767762 
L 412.69903 159.068841 
L 412.876717 212.352967 
L 413.054404 151.85533 
L 413.143248 155.345342 
L 413.232092 155.750872 
L 413.320935 154.005866 
L 413.498622 217.182456 
L 413.676309 163.861463 
L 413.765153 166.626437 
L 413.94284 174.72474 
L 414.120527 220.389826 
L 414.387058 161.477441 
L 414.564745 178.165597 
L 414.742432 226.706256 
L 415.008963 172.082653 
L 415.18665 182.454379 
L 415.364337 219.259259 
L 415.719711 161.760082 
L 415.808555 165.618758 
L 415.986242 216.764638 
L 416.075086 204.50044 
L 416.252773 163.88604 
L 416.341616 163.333046 
L 416.43046 169.551166 
L 416.608147 208.543447 
L 416.696991 192.703217 
L 416.785834 153.710935 
L 416.874678 160.998178 
L 416.963521 151.425223 
L 417.141208 186.509674 
L 417.230052 210.177854 
L 417.496583 155.959781 
L 417.67427 150.343811 
L 417.9408 215.302273 
L 418.207331 143.376076 
L 418.296175 146.804644 
L 418.473862 196.414427 
L 418.651549 146.300804 
L 418.740392 148.795425 
L 418.829236 144.727841 
L 418.91808 150.995116 
L 419.095767 193.354522 
L 419.18461 182.466668 
L 419.362297 196.795379 
L 419.451141 189.520424 
L 419.539985 189.803066 
L 419.717672 215.806113 
L 419.806515 199.732396 
L 419.984202 150.810784 
L 420.073046 143.179455 
L 420.161889 144.764707 
L 420.339577 194.411357 
L 420.606107 139.406802 
L 420.694951 140.967476 
L 420.783794 139.283914 
L 420.961482 201.870643 
L 421.228012 137.944437 
L 421.405699 144.3346 
L 421.583386 205.692452 
L 421.849917 133.975163 
L 421.938761 139.013561 
L 422.205291 205.667874 
L 422.471822 137.551197 
L 422.560666 139.603422 
L 422.649509 144.617242 
L 422.827196 208.11334 
L 423.093727 134.71249 
L 423.271414 136.629538 
L 423.449101 202.829167 
L 423.804476 37.889235 
L 423.982163 175.597243 
L 424.071006 209.21933 
L 424.248693 139.185604 
L 424.337537 141.987444 
L 424.426381 141.753957 
L 424.515224 149.594196 
L 424.692911 207.253126 
L 424.959442 131.369943 
L 425.137129 142.884525 
L 425.314816 203.443606 
L 425.67019 135.376083 
L 425.759034 149.041201 
L 425.936721 210.583384 
L 426.114408 145.317702 
L 426.203252 149.213244 
L 426.380939 157.286969 
L 426.558626 217.84605 
L 426.736313 171.222439 
L 426.914 183.609524 
L 427.002844 171.824589 
L 427.180531 205.274633 
L 427.358218 172.082653 
L 427.447062 223.203955 
L 427.624749 168.00278 
L 427.802436 200.936696 
L 428.068967 133.557345 
L 428.246654 141.741669 
L 428.424341 203.173253 
L 428.602028 136.641827 
L 428.690872 140.475925 
L 428.779715 136.727849 
L 428.868559 144.850729 
L 429.046246 204.70935 
L 429.312776 158.6756 
L 429.934681 215.425161 
L 430.112369 196.893689 
L 430.290056 230.57722 
L 430.378899 221.274618 
L 430.556586 182.048849 
L 430.734273 162.349944 
L 430.911961 195.038084 
L 431.178491 138.657186 
L 431.267335 144.875306 
L 431.356178 134.343826 
L 431.533866 182.958219 
L 431.711553 107.812362 
L 431.800396 111.74477 
L 431.978083 103.965976 
L 432.15577 176.088794 
L 432.333458 103.941398 
L 432.422301 164.979741 
L 432.422301 164.979741 
" clip-path="url(#p9f8836338e)" style="fill: none; stroke: #1f77b4; stroke-width: 1.5; stroke-linecap: square"/>
   </g>
   <g id="patch_3">
    <path d="M 63.290625 289.28254 
L 63.290625 25.918125 
" style="fill: none; stroke: #000000; stroke-width: 0.8; stroke-linejoin: miter; stroke-linecap: square"/>
   </g>
   <g id="patch_4">
    <path d="M 450 289.28254 
L 450 25.918125 
" style="fill: none; stroke: #000000; stroke-width: 0.8; stroke-linejoin: miter; stroke-linecap: square"/>
   </g>
   <g id="patch_5">
    <path d="M 63.290625 289.28254 
L 450 289.28254 
" style="fill: none; stroke: #000000; stroke-width: 0.8; stroke-linejoin: miter; stroke-linecap: square"/>
   </g>
   <g id="patch_6">
    <path d="M 63.290625 25.918125 
L 450 25.918125 
" style="fill: none; stroke: #000000; stroke-width: 0.8; stroke-linejoin: miter; stroke-linecap: square"/>
   </g>
   <g id="text_23">
    <!-- Total Starts by Day (20,610,746) -->
    <g transform="translate(146.86125 19.918125) scale(0.12 -0.12)">
     <defs>
      <path id="DejaVuSans-Bold-54" d="M 31 4666 
L 4331 4666 
L 4331 3756 
L 2784 3756 
L 2784 0 
L 1581 0 
L 1581 3756 
L 31 3756 
L 31 4666 
z
" transform="scale(0.015625)"/>
      <path id="DejaVuSans-Bold-6f" d="M 2203 2784 
Q 1831 2784 1636 2517 
Q 1441 2250 1441 1747 
Q 1441 1244 1636 976 
Q 1831 709 2203 709 
Q 2569 709 2762 976 
Q 2956 1244 2956 1747 
Q 2956 2250 2762 2517 
Q 2569 2784 2203 2784 
z
M 2203 3584 
Q 3106 3584 3614 3096 
Q 4122 2609 4122 1747 
Q 4122 884 3614 396 
Q 3106 -91 2203 -91 
Q 1297 -91 786 396 
Q 275 884 275 1747 
Q 275 2609 786 3096 
Q 1297 3584 2203 3584 
z
" transform="scale(0.015625)"/>
      <path id="DejaVuSans-Bold-6c" d="M 538 4863 
L 1656 4863 
L 1656 0 
L 538 0 
L 538 4863 
z
" transform="scale(0.015625)"/>
      <path id="DejaVuSans-Bold-62" d="M 2400 722 
Q 2759 722 2948 984 
Q 3138 1247 3138 1747 
Q 3138 2247 2948 2509 
Q 2759 2772 2400 2772 
Q 2041 2772 1848 2508 
Q 1656 2244 1656 1747 
Q 1656 1250 1848 986 
Q 2041 722 2400 722 
z
M 1656 2988 
Q 1888 3294 2169 3439 
Q 2450 3584 2816 3584 
Q 3463 3584 3878 3070 
Q 4294 2556 4294 1747 
Q 4294 938 3878 423 
Q 3463 -91 2816 -91 
Q 2450 -91 2169 54 
Q 1888 200 1656 506 
L 1656 0 
L 538 0 
L 538 4863 
L 1656 4863 
L 1656 2988 
z
" transform="scale(0.015625)"/>
      <path id="DejaVuSans-Bold-79" d="M 78 3500 
L 1197 3500 
L 2138 1125 
L 2938 3500 
L 4056 3500 
L 2584 -331 
Q 2363 -916 2067 -1148 
Q 1772 -1381 1288 -1381 
L 641 -1381 
L 641 -647 
L 991 -647 
Q 1275 -647 1404 -556 
Q 1534 -466 1606 -231 
L 1638 -134 
L 78 3500 
z
" transform="scale(0.015625)"/>
      <path id="DejaVuSans-Bold-44" d="M 1791 3756 
L 1791 909 
L 2222 909 
Q 2959 909 3348 1275 
Q 3738 1641 3738 2338 
Q 3738 3031 3350 3393 
Q 2963 3756 2222 3756 
L 1791 3756 
z
M 588 4666 
L 1856 4666 
Q 2919 4666 3439 4514 
Q 3959 4363 4331 4000 
Q 4659 3684 4818 3271 
Q 4978 2859 4978 2338 
Q 4978 1809 4818 1395 
Q 4659 981 4331 666 
Q 3956 303 3431 151 
Q 2906 0 1856 0 
L 588 0 
L 588 4666 
z
" transform="scale(0.015625)"/>
      <path id="DejaVuSans-Bold-28" d="M 2413 -844 
L 1484 -844 
Q 1006 -72 778 623 
Q 550 1319 550 2003 
Q 550 2688 779 3389 
Q 1009 4091 1484 4856 
L 2413 4856 
Q 2013 4116 1813 3408 
Q 1613 2700 1613 2009 
Q 1613 1319 1811 609 
Q 2009 -100 2413 -844 
z
" transform="scale(0.015625)"/>
      <path id="DejaVuSans-Bold-32" d="M 1844 884 
L 3897 884 
L 3897 0 
L 506 0 
L 506 884 
L 2209 2388 
Q 2438 2594 2547 2791 
Q 2656 2988 2656 3200 
Q 2656 3528 2436 3728 
Q 2216 3928 1850 3928 
Q 1569 3928 1234 3808 
Q 900 3688 519 3450 
L 519 4475 
Q 925 4609 1322 4679 
Q 1719 4750 2100 4750 
Q 2938 4750 3402 4381 
Q 3866 4013 3866 3353 
Q 3866 2972 3669 2642 
Q 3472 2313 2841 1759 
L 1844 884 
z
" transform="scale(0.015625)"/>
      <path id="DejaVuSans-Bold-30" d="M 2944 2338 
Q 2944 3213 2780 3570 
Q 2616 3928 2228 3928 
Q 1841 3928 1675 3570 
Q 1509 3213 1509 2338 
Q 1509 1453 1675 1090 
Q 1841 728 2228 728 
Q 2613 728 2778 1090 
Q 2944 1453 2944 2338 
z
M 4147 2328 
Q 4147 1169 3647 539 
Q 3147 -91 2228 -91 
Q 1306 -91 806 539 
Q 306 1169 306 2328 
Q 306 3491 806 4120 
Q 1306 4750 2228 4750 
Q 3147 4750 3647 4120 
Q 4147 3491 4147 2328 
z
" transform="scale(0.015625)"/>
      <path id="DejaVuSans-Bold-2c" d="M 653 1209 
L 1778 1209 
L 1778 256 
L 1006 -909 
L 341 -909 
L 653 256 
L 653 1209 
z
" transform="scale(0.015625)"/>
      <path id="DejaVuSans-Bold-36" d="M 2316 2303 
Q 2000 2303 1842 2098 
Q 1684 1894 1684 1484 
Q 1684 1075 1842 870 
Q 2000 666 2316 666 
Q 2634 666 2792 870 
Q 2950 1075 2950 1484 
Q 2950 1894 2792 2098 
Q 2634 2303 2316 2303 
z
M 3803 4544 
L 3803 3681 
Q 3506 3822 3243 3889 
Q 2981 3956 2731 3956 
Q 2194 3956 1894 3657 
Q 1594 3359 1544 2772 
Q 1750 2925 1990 3001 
Q 2231 3078 2516 3078 
Q 3231 3078 3670 2659 
Q 4109 2241 4109 1563 
Q 4109 813 3618 361 
Q 3128 -91 2303 -91 
Q 1394 -91 895 523 
Q 397 1138 397 2266 
Q 397 3422 980 4083 
Q 1563 4744 2578 4744 
Q 2900 4744 3203 4694 
Q 3506 4644 3803 4544 
z
" transform="scale(0.015625)"/>
      <path id="DejaVuSans-Bold-31" d="M 750 831 
L 1813 831 
L 1813 3847 
L 722 3622 
L 722 4441 
L 1806 4666 
L 2950 4666 
L 2950 831 
L 4013 831 
L 4013 0 
L 750 0 
L 750 831 
z
" transform="scale(0.015625)"/>
      <path id="DejaVuSans-Bold-37" d="M 428 4666 
L 3944 4666 
L 3944 3988 
L 2125 0 
L 953 0 
L 2675 3781 
L 428 3781 
L 428 4666 
z
" transform="scale(0.015625)"/>
      <path id="DejaVuSans-Bold-34" d="M 2356 3675 
L 1038 1722 
L 2356 1722 
L 2356 3675 
z
M 2156 4666 
L 3494 4666 
L 3494 1722 
L 4159 1722 
L 4159 850 
L 3494 850 
L 3494 0 
L 2356 0 
L 2356 850 
L 288 850 
L 288 1881 
L 2156 4666 
z
" transform="scale(0.015625)"/>
      <path id="DejaVuSans-Bold-29" d="M 513 -844 
Q 913 -100 1113 609 
Q 1313 1319 1313 2009 
Q 1313 2700 1113 3408 
Q 913 4116 513 4856 
L 1441 4856 
Q 1916 4091 2145 3389 
Q 2375 2688 2375 2003 
Q 2375 1319 2147 623 
Q 1919 -72 1441 -844 
L 513 -844 
z
" transform="scale(0.015625)"/>
     </defs>
     <use xlink:href="#DejaVuSans-Bold-54"/>
     <use xlink:href="#DejaVuSans-Bold-6f" x="54.962891"/>
     <use xlink:href="#DejaVuSans-Bold-74" x="123.664062"/>
     <use xlink:href="#DejaVuSans-Bold-61" x="171.466797"/>
     <use xlink:href="#DejaVuSans-Bold-6c" x="238.947266"/>
     <use xlink:href="#DejaVuSans-Bold-20" x="273.224609"/>
     <use xlink:href="#DejaVuSans-Bold-53" x="308.039062"/>
     <use xlink:href="#DejaVuSans-Bold-74" x="380.060547"/>
     <use xlink:href="#DejaVuSans-Bold-61" x="427.863281"/>
     <use xlink:href="#DejaVuSans-Bold-72" x="495.34375"/>
     <use xlink:href="#DejaVuSans-Bold-74" x="544.660156"/>
     <use xlink:href="#DejaVuSans-Bold-73" x="592.462891"/>
     <use xlink:href="#DejaVuSans-Bold-20" x="651.984375"/>
     <use xlink:href="#DejaVuSans-Bold-62" x="686.798828"/>
     <use xlink:href="#DejaVuSans-Bold-79" x="758.380859"/>
     <use xlink:href="#DejaVuSans-Bold-20" x="823.566406"/>
     <use xlink:href="#DejaVuSans-Bold-44" x="858.380859"/>
     <use xlink:href="#DejaVuSans-Bold-61" x="941.388672"/>
     <use xlink:href="#DejaVuSans-Bold-79" x="1005.744141"/>
     <use xlink:href="#DejaVuSans-Bold-20" x="1070.929688"/>
     <use xlink:href="#DejaVuSans-Bold-28" x="1105.744141"/>
     <use xlink:href="#DejaVuSans-Bold-32" x="1151.447266"/>
     <use xlink:href="#DejaVuSans-Bold-30" x="1221.027344"/>
     <use xlink:href="#DejaVuSans-Bold-2c" x="1290.607422"/>
     <use xlink:href="#DejaVuSans-Bold-36" x="1328.595703"/>
     <use xlink:href="#DejaVuSans-Bold-31" x="1398.175781"/>
     <use xlink:href="#DejaVuSans-Bold-30" x="1467.755859"/>
     <use xlink:href="#DejaVuSans-Bold-2c" x="1537.335938"/>
     <use xlink:href="#DejaVuSans-Bold-37" x="1575.324219"/>
     <use xlink:href="#DejaVuSans-Bold-34" x="1644.904297"/>
     <use xlink:href="#DejaVuSans-Bold-36" x="1714.484375"/>
     <use xlink:href="#DejaVuSans-Bold-29" x="1784.064453"/>
    </g>
   </g>
  </g>
  <g id="patch_7">
   <path d="M 0 345.6 
L 460.8 345.6 
L 460.8 0 
L 0 0 
L 0 345.6 
z
" style="fill: none; stroke: #000000; stroke-width: 2; stroke-linejoin: miter"/>
  </g>
 </g>
 <defs>
  <clipPath id="p9f8836338e">
   <rect x="63.290625" y="25.918125" width="386.709375" height="263.364415"/>
  </clipPath>
 </defs>
</svg>
