<?xml version="1.0" encoding="UTF-8" standalone="no"?>
<svg width="3802px" height="1876px" viewBox="0 0 3802 1876" version="1.1" xmlns="http://www.w3.org/2000/svg" xmlns:xlink="http://www.w3.org/1999/xlink">
    <!-- Generator: Sketch 3.7.2 (28276) - http://www.bohemiancoding.com/sketch -->
    <title>Page_1 Clipped</title>
    <desc>Created with Sketch.</desc>
    <defs></defs>
    <g id="Page-1" stroke="none" stroke-width="1" fill="none" fill-rule="evenodd">
        <g id="Google_Groups_Memberships" transform="translate(-19.000000, -21.000000)">
            <g id="Page_1-Clipped">
                <g id="Page_1">
                    <path d="M362,1191 L3248,1191 L3248,1197 L362,1197 L362,1191 L362,1191 Z M362,902 L3248,902 L3248,908 L362,908 L362,902 L362,902 Z M362,614 L3248,614 L3248,620 L362,620 L362,614 L362,614 Z M362,326 L3248,326 L3248,332 L362,332 L362,326 L362,326 Z M362,38 L3248,38 L3248,44 L362,44 L362,38 L362,38 Z" id="Shape" fill="#868686"></path>
                    <rect id="Rectangle-path" fill="#868686" x="362" y="1479" width="2886" height="6"></rect>
                    <polygon id="Shape" fill="#4A7EBB" points="371 1469 391 1465 412 1460 432 1454 435 1454 456 1453 475 1450 495 1446 516 1441 556 1429 577 1422 599 1416 619 1409 640 1403 703 1391 723 1387 744 1383 764 1376 785 1369 786 1368 806 1364 826 1357 847 1351 846 1352 867 1340 869 1340 870 1339 891 1337 889 1337 909 1331 972 1313 992 1306 1013 1298 1034 1291 1055 1285 1075 1278 1095 1266 1096 1266 1097 1265 1118 1260 1140 1258 1139 1258 1159 1253 1180 1249 1200 1242 1222 1237 1242 1232 1240 1233 1261 1223 1259 1225 1280 1204 1282 1203 1283 1202 1304 1194 1323 1184 1344 1172 1365 1162 1366 1162 1366 1161 1408 1149 1429 1145 1451 1143 1472 1140 1491 1134 1511 1128 1510 1129 1531 1118 1553 1110 1574 1102 1573 1103 1593 1093 1594 1093 1594 1092 1615 1085 1614 1086 1635 1075 1657 1067 1677 1059 1699 1054 1701 1054 1722 1053 1719 1053 1740 1046 1760 1040 1781 1033 1802 1025 1822 1017 1843 1010 1885 998 1908 995 1929 992 1926 993 1946 982 1947 982 1947 981 1968 975 1990 971 2010 964 2009 965 2029 954 2051 946 2049 946 2070 933 2090 917 2091 916 2092 916 2112 907 2113 907 2114 906 2135 901 2155 895 2176 889 2175 890 2195 880 2196 880 2196 879 2217 873 2239 868 2259 861 2255 863 2275 842 2279 840 2300 832 2320 821 2341 812 2360 800 2382 788 2403 779 2402 780 2444 750 2465 738 2485 725 2484 726 2505 707 2526 690 2524 693 2544 658 2545 657 2545 656 2566 634 2567 633 2568 633 2589 617 2609 599 2610 599 2610 598 2630 586 2651 572 2671 556 2672 556 2673 555 2694 545 2693 546 2713 532 2735 520 2733 522 2754 501 2774 478 2776 477 2777 476 2797 466 2819 458 2840 450 2837 451 2858 433 2859 433 2860 432 2880 423 2943 396 2964 384 2984 373 3005 362 3026 352 3047 341 3048 341 3048 340 3068 333 3089 326 3110 318 3132 313 3151 306 3172 299 3192 289 3193 289 3194 288 3215 283 3235 279 3239 279 3242 280 3245 283 3246 286 3246 290 3245 293 3242 296 3239 297 3219 301 3198 306 3200 305 3178 315 3136 331 3116 336 3095 342 3074 350 3054 357 3055 357 3034 368 3013 378 2992 389 2972 400 2951 412 2888 439 2868 448 2870 447 2849 465 2848 466 2846 466 2825 474 2805 482 2785 492 2788 490 2766 513 2743 536 2723 546 2703 560 2703 561 2702 561 2681 571 2683 570 2661 587 2640 602 2620 614 2621 613 2599 631 2578 647 2579 646 2558 668 2560 666 2540 701 2539 703 2538 704 2517 721 2496 740 2495 741 2473 754 2454 764 2412 794 2412 795 2411 795 2390 804 2370 816 2349 828 2328 837 2306 848 2285 856 2288 854 2268 875 2267 876 2265 877 2243 886 2222 891 2201 897 2203 896 2183 906 2182 906 2181 907 2139 919 2118 924 2120 923 2100 932 2102 931 2080 949 2059 962 2057 962 2037 970 2017 981 2016 982 1994 989 1973 993 1952 999 1954 998 1934 1009 1933 1010 1931 1010 1910 1013 1890 1016 1869 1022 1849 1028 1830 1033 1808 1043 1787 1049 1766 1058 1746 1064 1725 1071 1722 1071 1701 1072 1703 1072 1683 1076 1663 1083 1643 1091 1622 1102 1621 1103 1600 1110 1601 1109 1581 1119 1580 1120 1559 1126 1539 1134 1518 1145 1517 1146 1496 1152 1474 1158 1453 1161 1433 1163 1413 1167 1371 1179 1373 1178 1352 1188 1331 1200 1310 1210 1289 1218 1292 1216 1269 1239 1248 1249 1247 1250 1246 1250 1206 1260 1184 1267 1163 1271 1143 1276 1142 1276 1122 1278 1101 1283 1103 1282 1081 1294 1060 1303 1039 1309 1019 1314 998 1322 977 1331 935 1343 895 1355 893 1355 872 1357 875 1356 854 1368 853 1368 852 1369 832 1375 810 1382 790 1386 791 1385 770 1394 748 1401 727 1405 707 1409 644 1421 625 1425 603 1434 583 1438 562 1447 520 1459 499 1464 477 1468 456 1471 435 1472 437 1472 416 1478 395 1483 375 1487 371 1487 368 1486 365 1483 364 1480 364 1476 365 1473 368 1470"></polygon>
                    <polygon id="Shape" fill="#C00000" points="933 1463 1016 1463 1037 1462 1058 1462 1078 1461 1099 1460 1119 1457 1140 1454 1160 1451 1179 1445 1200 1438 1221 1432 1241 1425 1241 1424 1242 1424 1263 1419 1283 1412 1303 1402 1323 1393 1344 1384 1366 1376 1387 1368 1408 1362 1428 1355 1449 1348 1451 1348 1472 1346 1492 1342 1490 1343 1510 1332 1531 1320 1532 1320 1532 1319 1553 1312 1574 1306 1594 1299 1615 1292 1635 1281 1657 1273 1677 1266 1698 1259 1719 1253 1741 1249 1739 1250 1759 1241 1781 1233 1802 1225 1822 1216 1842 1205 1863 1194 1883 1181 1885 1181 1886 1180 1907 1176 1928 1171 1947 1164 1949 1164 1970 1161 1990 1157 1989 1158 2010 1150 2029 1139 2050 1130 2071 1118 2072 1118 2072 1117 2093 1110 2112 1102 2133 1092 2134 1092 2135 1091 2177 1081 2196 1075 2238 1061 2236 1062 2257 1048 2259 1048 2260 1047 2280 1042 2277 1043 2298 1030 2320 1020 2341 1009 2342 1009 2343 1008 2363 1003 2360 1004 2381 990 2382 990 2403 980 2423 967 2444 953 2445 953 2465 944 2464 945 2506 915 2507 914 2528 904 2526 905 2546 889 2568 874 2567 875 2588 855 2608 833 2629 815 2650 798 2672 782 2694 769 2713 757 2712 758 2754 718 2774 693 2795 673 2796 673 2796 672 2817 658 2839 647 2836 649 2857 625 2859 624 2860 623 2880 613 2900 599 2921 585 2922 584 2943 574 2942 575 2963 560 2961 561 2981 538 2982 538 2982 537 3003 519 3024 499 3045 478 3065 461 3086 444 3087 444 3088 443 3109 432 3130 420 3128 421 3148 402 3149 402 3150 401 3192 379 3213 367 3210 369 3230 347 3233 345 3237 344 3240 344 3243 346 3245 349 3246 353 3246 356 3244 359 3224 381 3223 382 3221 383 3200 395 3158 417 3160 415 3140 434 3138 436 3117 448 3096 459 3098 458 3077 475 3057 491 3036 511 3015 533 2994 551 2995 550 2975 573 2974 574 2973 574 2952 589 2952 590 2951 590 2930 600 2931 599 2910 614 2888 629 2868 639 2871 637 2850 661 2849 662 2827 673 2806 687 2807 686 2788 705 2766 731 2724 771 2724 772 2723 773 2702 785 2682 796 2662 812 2641 829 2622 845 2600 868 2579 888 2579 889 2578 889 2558 903 2538 919 2537 920 2536 920 2515 930 2516 929 2474 959 2474 960 2473 960 2453 969 2454 968 2433 983 2411 996 2390 1006 2391 1005 2370 1019 2369 1020 2367 1021 2347 1026 2349 1025 2328 1036 2308 1046 2287 1059 2286 1059 2284 1060 2264 1065 2267 1063 2246 1077 2244 1079 2202 1093 2181 1099 2139 1109 2141 1108 2099 1128 2078 1135 2079 1134 2058 1146 2037 1155 2016 1166 1995 1174 1995 1175 1994 1175 1972 1179 1951 1182 1953 1181 1932 1189 1911 1194 1890 1198 1893 1197 1871 1210 1850 1221 1830 1232 1808 1243 1787 1249 1767 1257 1747 1266 1746 1267 1745 1267 1724 1271 1704 1277 1683 1284 1663 1289 1643 1297 1621 1308 1579 1324 1559 1330 1538 1337 1539 1336 1518 1348 1498 1359 1497 1360 1496 1360 1474 1364 1453 1366 1454 1366 1434 1371 1413 1380 1393 1386 1372 1392 1352 1400 1331 1409 1311 1418 1289 1428 1267 1437 1246 1442 1247 1441 1226 1450 1206 1456 1184 1463 1162 1469 1142 1472 1121 1475 1099 1478 1078 1479 1058 1480 1037 1480 1016 1481 933 1481 930 1480 927 1478 925 1476 924 1472 925 1469 927 1466 930 1464"></polygon>
                    <text id="0" fill="#000000" font-family="Calibri" font-size="68.8128" font-weight="normal">
                        <tspan x="242" y="1507">0</tspan>
                    </text>
                    <text id="500" fill="#000000" font-family="Calibri" font-size="68.8128" font-weight="normal">
                        <tspan x="157" y="1219">500</tspan>
                    </text>
                    <text id="1000" fill="#000000" font-family="Calibri" font-size="68.8128" font-weight="normal">
                        <tspan x="114" y="930">1000</tspan>
                    </text>
                    <text id="1500" fill="#000000" font-family="Calibri" font-size="68.8128" font-weight="normal">
                        <tspan x="114" y="642">1500</tspan>
                    </text>
                    <text id="2000" fill="#000000" font-family="Calibri" font-size="68.8128" font-weight="normal">
                        <tspan x="114" y="354">2000</tspan>
                    </text>
                    <text id="2500" fill="#000000" font-family="Calibri" font-size="68.8128" font-weight="normal">
                        <tspan x="114" y="66">2500</tspan>
                    </text>
                    <g id="Group" transform="translate(378.000000, 1620.500000) rotate(-90.000000) translate(-378.000000, -1620.500000) translate(261.500000, 1578.500000)" font-size="68.8128" font-family="Calibri" fill="#000000" font-weight="normal">
                        <text id="Jul-">
                            <tspan x="0" y="66">Jul-</tspan>
                        </text>
                        <text id="04…">
                            <tspan x="115" y="66">04…</tspan>
                        </text>
                    </g>
                    <g id="Group" transform="translate(482.000000, 1640.000000) rotate(-90.000000) translate(-482.000000, -1640.000000) translate(346.000000, 1598.000000)" font-size="68.8128" font-family="Calibri" fill="#000000" font-weight="normal">
                        <text id="Dec-">
                            <tspan x="0" y="66">Dec-</tspan>
                        </text>
                        <text id="04…">
                            <tspan x="154" y="66">04…</tspan>
                        </text>
                    </g>
                    <g id="Group" transform="translate(585.000000, 1650.500000) rotate(-90.000000) translate(-585.000000, -1650.500000) translate(438.500000, 1608.500000)" font-size="68.8128" font-family="Calibri" fill="#000000" font-weight="normal">
                        <text id="May-">
                            <tspan x="0" y="66">May-</tspan>
                        </text>
                        <text id="05…">
                            <tspan x="175" y="66">05…</tspan>
                        </text>
                    </g>
                    <g id="Group" transform="translate(689.000000, 1635.000000) rotate(-90.000000) translate(-689.000000, -1635.000000) translate(557.000000, 1593.000000)" font-size="68.8128" font-family="Calibri" fill="#000000" font-weight="normal">
                        <text id="Oct-">
                            <tspan x="0" y="66">Oct-</tspan>
                        </text>
                        <text id="05…">
                            <tspan x="146" y="66">05…</tspan>
                        </text>
                    </g>
                    <g id="Group" transform="translate(793.000000, 1646.000000) rotate(-90.000000) translate(-793.000000, -1646.000000) translate(650.000000, 1604.000000)" font-size="68.8128" font-family="Calibri" fill="#000000" font-weight="normal">
                        <text id="Mar-">
                            <tspan x="0" y="66">Mar-</tspan>
                        </text>
                        <text id="06…">
                            <tspan x="168" y="66">06…</tspan>
                        </text>
                    </g>
                    <g id="Group" transform="translate(897.000000, 1642.000000) rotate(-90.000000) translate(-897.000000, -1642.000000) translate(759.000000, 1600.000000)" font-size="68.8128" font-family="Calibri" fill="#000000" font-weight="normal">
                        <text id="Aug-">
                            <tspan x="0" y="66">Aug-</tspan>
                        </text>
                        <text id="06…">
                            <tspan x="158" y="66">06…</tspan>
                        </text>
                    </g>
                    <g id="Group" transform="translate(1001.000000, 1631.000000) rotate(-90.000000) translate(-1001.000000, -1631.000000) translate(874.000000, 1589.000000)" font-size="68.8128" font-family="Calibri" fill="#000000" font-weight="normal">
                        <text id="Jan-">
                            <tspan x="0" y="66">Jan-</tspan>
                        </text>
                        <text id="07…">
                            <tspan x="136" y="66">07…</tspan>
                        </text>
                    </g>
                    <g id="Group" transform="translate(1104.000000, 1632.500000) rotate(-90.000000) translate(-1104.000000, -1632.500000) translate(974.500000, 1590.500000)" font-size="68.8128" font-family="Calibri" fill="#000000" font-weight="normal">
                        <text id="Jun-">
                            <tspan x="0" y="66">Jun-</tspan>
                        </text>
                        <text id="07…">
                            <tspan x="141" y="66">07…</tspan>
                        </text>
                    </g>
                    <g id="Group" transform="translate(1208.000000, 1644.000000) rotate(-90.000000) translate(-1208.000000, -1644.000000) translate(1068.000000, 1602.000000)" font-size="68.8128" font-family="Calibri" fill="#000000" font-weight="normal">
                        <text id="Nov-">
                            <tspan x="0" y="66">Nov-</tspan>
                        </text>
                        <text id="07…">
                            <tspan x="162" y="66">07…</tspan>
                        </text>
                    </g>
                    <g id="Group" transform="translate(1312.000000, 1636.000000) rotate(-90.000000) translate(-1312.000000, -1636.000000) translate(1179.000000, 1594.000000)" font-size="68.8128" font-family="Calibri" fill="#000000" font-weight="normal">
                        <text id="Apr-">
                            <tspan x="0" y="66">Apr-</tspan>
                        </text>
                        <text id="08…">
                            <tspan x="148" y="66">08…</tspan>
                        </text>
                    </g>
                    <g id="Group" transform="translate(1416.000000, 1637.500000) rotate(-90.000000) translate(-1416.000000, -1637.500000) translate(1281.500000, 1595.500000)" font-size="68.8128" font-family="Calibri" fill="#000000" font-weight="normal">
                        <text id="Sep-">
                            <tspan x="0" y="66">Sep-</tspan>
                        </text>
                        <text id="08…">
                            <tspan x="151" y="66">08…</tspan>
                        </text>
                    </g>
                    <g id="Group" transform="translate(1520.000000, 1637.500000) rotate(-90.000000) translate(-1520.000000, -1637.500000) translate(1385.500000, 1595.500000)" font-size="68.8128" font-family="Calibri" fill="#000000" font-weight="normal">
                        <text id="Feb-">
                            <tspan x="0" y="66">Feb-</tspan>
                        </text>
                        <text id="09…">
                            <tspan x="151" y="66">09…</tspan>
                        </text>
                    </g>
                    <g id="Group" transform="translate(1623.000000, 1620.500000) rotate(-90.000000) translate(-1623.000000, -1620.500000) translate(1506.500000, 1578.500000)" font-size="68.8128" font-family="Calibri" fill="#000000" font-weight="normal">
                        <text id="Jul-">
                            <tspan x="0" y="66">Jul-</tspan>
                        </text>
                        <text id="09…">
                            <tspan x="115" y="66">09…</tspan>
                        </text>
                    </g>
                    <g id="Group" transform="translate(1727.000000, 1640.000000) rotate(-90.000000) translate(-1727.000000, -1640.000000) translate(1591.000000, 1598.000000)" font-size="68.8128" font-family="Calibri" fill="#000000" font-weight="normal">
                        <text id="Dec-">
                            <tspan x="0" y="66">Dec-</tspan>
                        </text>
                        <text id="09…">
                            <tspan x="154" y="66">09…</tspan>
                        </text>
                    </g>
                    <g id="Group" transform="translate(1831.000000, 1650.500000) rotate(-90.000000) translate(-1831.000000, -1650.500000) translate(1684.500000, 1608.500000)" font-size="68.8128" font-family="Calibri" fill="#000000" font-weight="normal">
                        <text id="May-">
                            <tspan x="0" y="66">May-</tspan>
                        </text>
                        <text id="10…">
                            <tspan x="175" y="66">10…</tspan>
                        </text>
                    </g>
                    <g id="Group" transform="translate(1935.000000, 1635.000000) rotate(-90.000000) translate(-1935.000000, -1635.000000) translate(1803.000000, 1593.000000)" font-size="68.8128" font-family="Calibri" fill="#000000" font-weight="normal">
                        <text id="Oct-">
                            <tspan x="0" y="66">Oct-</tspan>
                        </text>
                        <text id="10…">
                            <tspan x="146" y="66">10…</tspan>
                        </text>
                    </g>
                    <g id="Group" transform="translate(2039.000000, 1646.000000) rotate(-90.000000) translate(-2039.000000, -1646.000000) translate(1896.000000, 1604.000000)" font-size="68.8128" font-family="Calibri" fill="#000000" font-weight="normal">
                        <text id="Mar-">
                            <tspan x="0" y="66">Mar-</tspan>
                        </text>
                        <text id="11…">
                            <tspan x="168" y="66">11…</tspan>
                        </text>
                    </g>
                    <g id="Group" transform="translate(2142.000000, 1642.000000) rotate(-90.000000) translate(-2142.000000, -1642.000000) translate(2004.000000, 1600.000000)" font-size="68.8128" font-family="Calibri" fill="#000000" font-weight="normal">
                        <text id="Aug-">
                            <tspan x="0" y="66">Aug-</tspan>
                        </text>
                        <text id="11…">
                            <tspan x="158" y="66">11…</tspan>
                        </text>
                    </g>
                    <g id="Group" transform="translate(2246.000000, 1631.000000) rotate(-90.000000) translate(-2246.000000, -1631.000000) translate(2119.000000, 1589.000000)" font-size="68.8128" font-family="Calibri" fill="#000000" font-weight="normal">
                        <text id="Jan-">
                            <tspan x="0" y="66">Jan-</tspan>
                        </text>
                        <text id="12…">
                            <tspan x="136" y="66">12…</tspan>
                        </text>
                    </g>
                    <g id="Group" transform="translate(2350.000000, 1632.500000) rotate(-90.000000) translate(-2350.000000, -1632.500000) translate(2220.500000, 1590.500000)" font-size="68.8128" font-family="Calibri" fill="#000000" font-weight="normal">
                        <text id="Jun-">
                            <tspan x="0" y="66">Jun-</tspan>
                        </text>
                        <text id="12…">
                            <tspan x="141" y="66">12…</tspan>
                        </text>
                    </g>
                    <g id="Group" transform="translate(2454.000000, 1644.000000) rotate(-90.000000) translate(-2454.000000, -1644.000000) translate(2314.000000, 1602.000000)" font-size="68.8128" font-family="Calibri" fill="#000000" font-weight="normal">
                        <text id="Nov-">
                            <tspan x="0" y="66">Nov-</tspan>
                        </text>
                        <text id="12…">
                            <tspan x="162" y="66">12…</tspan>
                        </text>
                    </g>
                    <g id="Group" transform="translate(2558.000000, 1636.000000) rotate(-90.000000) translate(-2558.000000, -1636.000000) translate(2425.000000, 1594.000000)" font-size="68.8128" font-family="Calibri" fill="#000000" font-weight="normal">
                        <text id="Apr-">
                            <tspan x="0" y="66">Apr-</tspan>
                        </text>
                        <text id="13…">
                            <tspan x="148" y="66">13…</tspan>
                        </text>
                    </g>
                    <g id="Group" transform="translate(2661.000000, 1637.500000) rotate(-90.000000) translate(-2661.000000, -1637.500000) translate(2526.500000, 1595.500000)" font-size="68.8128" font-family="Calibri" fill="#000000" font-weight="normal">
                        <text id="Sep-">
                            <tspan x="0" y="66">Sep-</tspan>
                        </text>
                        <text id="13…">
                            <tspan x="151" y="66">13…</tspan>
                        </text>
                    </g>
                    <g id="Group" transform="translate(2765.000000, 1637.500000) rotate(-90.000000) translate(-2765.000000, -1637.500000) translate(2630.500000, 1595.500000)" font-size="68.8128" font-family="Calibri" fill="#000000" font-weight="normal">
                        <text id="Feb-">
                            <tspan x="0" y="66">Feb-</tspan>
                        </text>
                        <text id="14…">
                            <tspan x="151" y="66">14…</tspan>
                        </text>
                    </g>
                    <g id="Group" transform="translate(2869.000000, 1620.500000) rotate(-90.000000) translate(-2869.000000, -1620.500000) translate(2752.500000, 1578.500000)" font-size="68.8128" font-family="Calibri" fill="#000000" font-weight="normal">
                        <text id="Jul-">
                            <tspan x="0" y="66">Jul-</tspan>
                        </text>
                        <text id="14…">
                            <tspan x="115" y="66">14…</tspan>
                        </text>
                    </g>
                    <g id="Group" transform="translate(2973.000000, 1640.000000) rotate(-90.000000) translate(-2973.000000, -1640.000000) translate(2837.000000, 1598.000000)" font-size="68.8128" font-family="Calibri" fill="#000000" font-weight="normal">
                        <text id="Dec-">
                            <tspan x="0" y="66">Dec-</tspan>
                        </text>
                        <text id="14…">
                            <tspan x="154" y="66">14…</tspan>
                        </text>
                    </g>
                    <g id="Group" transform="translate(3077.000000, 1650.500000) rotate(-90.000000) translate(-3077.000000, -1650.500000) translate(2930.500000, 1608.500000)" font-size="68.8128" font-family="Calibri" fill="#000000" font-weight="normal">
                        <text id="May-">
                            <tspan x="0" y="66">May-</tspan>
                        </text>
                        <text id="15…">
                            <tspan x="175" y="66">15…</tspan>
                        </text>
                    </g>
                    <g id="Group" transform="translate(3180.000000, 1635.000000) rotate(-90.000000) translate(-3180.000000, -1635.000000) translate(3048.000000, 1593.000000)" font-size="68.8128" font-family="Calibri" fill="#000000" font-weight="normal">
                        <text id="Oct-">
                            <tspan x="0" y="66">Oct-</tspan>
                        </text>
                        <text id="15…">
                            <tspan x="146" y="66">15…</tspan>
                        </text>
                    </g>
                    <g id="Group" transform="translate(42.000000, 781.500000) rotate(-90.000000) translate(-42.000000, -781.500000) translate(-203.500000, 739.500000)" font-size="68.8128" font-family="Calibri-Bold, Calibri" fill="#000000" font-weight="bold">
                        <text id="Member">
                            <tspan x="0" y="66">Member</tspan>
                        </text>
                        <text id="Count">
                            <tspan x="320" y="66">Count</tspan>
                        </text>
                    </g>
                    <text id="Month" fill="#000000" font-family="Calibri-Bold, Calibri" font-size="68.8128" font-weight="bold">
                        <tspan x="1687" y="1896">Month</tspan>
                    </text>
                    <polygon id="Shape" fill="#4A7EBB" points="3379 900 3541 900 3545 901 3547 903 3549 906 3550 909 3549 913 3545 917 3541 918 3379 918 3376 917 3373 915 3371 913 3370 909 3371 906 3373 903 3376 901"></polygon>
                    <text id="Discuss" fill="#000000" font-family="Calibri" font-size="68.8128" font-weight="normal">
                        <tspan x="3559" y="934">Discuss</tspan>
                    </text>
                    <polygon id="Shape" fill="#C00000" points="3379 1052 3541 1052 3545 1053 3547 1055 3549 1058 3550 1061 3549 1065 3545 1069 3541 1070 3379 1070 3376 1069 3373 1067 3371 1065 3370 1061 3371 1058 3373 1055 3376 1053"></polygon>
                    <text id="HelpDesk" fill="#000000" font-family="Calibri" font-size="68.8128" font-weight="normal">
                        <tspan x="3559" y="1086">HelpDesk</tspan>
                    </text>
                </g>
            </g>
        </g>
    </g>
</svg>