<?xml version="1.0" standalone="no"?>
<svg xml:space="preserve" width="100%" height="100%" viewBox="0 0 4897 6337" preserveAspectRatio="xMidYMid"
  fill-rule="nonzero" stroke-linecap="round" stroke-linejoin="round"
  xmlns="http://www.w3.org/2000/svg"
  xmlns:xlink="http://www.w3.org/1999/xlink"
  xmlns:svgmaker="http://www.svgmaker.com/svgns">
<svgmaker:init width="215.9mm" height="279.4mm" viewBox="0 0 4897 6337" view="fit"
  crop="none" cropWidth="180.3mm" cropHeight="130.2mm" cropBox="404 1692 4090 2954"/>
<title>Untitled</title>
<desc>
  Generated by SVGmaker V3 Version 3.61.E702.64
  MAY-16-2016, 08:29
</desc>
<defs><clipPath id="page_clip"><rect x="0" y="0" width="4897" height="6337"/></clipPath></defs>
<g id="Page_1" clip-path="url(#page_clip)" svgmaker:mediaBox="0 0 4897 6337">
<rect x="407" y="1694" width="4085" height="2949" fill="#FFFFFF" stroke="none"/>
<path fill="#40699C" stroke="none" d="M 2449,3398 l 972,211 10,-50 7,-50 4,-50 2,-50 -1,-50 -3,-49 -5,-48 -8,-48 -10,-47 -12,-47 -15,-46 -17,-45 -19,-44 -20,-43 -23,-42 -25,-40 -27,-40 -29,-38 -30,-37 -32,-35 -34,-34 -36,-32 -37,-31 -39,-29 -40,-27 -42,-25 -44,-23 -44,-21 -46,-19 -48,-16 -48,-15 -50,-12 -52,-10 -53,-7 -53,-4 -53,-2 0,995 z"/>
<path fill="#9E413E" stroke="none" d="M 2449,3398 l 256,961 34,-10 33,-10 32,-12 32,-13 32,-14 30,-15 31,-16 29,-16 57,-37 54,-40 52,-44 48,-47 45,-51 41,-53 38,-56 34,-59 15,-30 15,-31 13,-31 12,-32 12,-33 10,-33 9,-33 8,-34 -972,-211 z"/>
<path fill="#7F9A48" stroke="none" d="M 2449,3398 l -300,948 34,10 34,9 35,8 34,6 35,5 35,4 70,4 35,0 35,-1 35,-2 70,-8 35,-6 35,-8 34,-8 -256,-961 z"/>
<path fill="#695185" stroke="none" d="M 2449,3398 l -707,699 44,41 46,39 48,36 51,33 52,30 54,26 55,24 57,20 300,-948 z"/>
<path fill="#3C8DA3" stroke="none" d="M 2449,3398 l -934,339 20,50 22,49 25,47 27,46 30,45 32,43 34,41 37,39 707,-699 z"/>
<path fill="#CC7B38" stroke="none" d="M 2449,3398 l -991,-71 -2,52 0,52 3,52 6,52 8,51 11,51 14,51 17,49 934,-339 z"/>
<path fill="#4F81BD" stroke="none" d="M 2449,3398 l -915,-389 -15,38 -14,39 -12,39 -10,40 -9,40 -7,40 -5,41 -4,41 991,71 z"/>
<path fill="#C0504D" stroke="none" d="M 2449,3398 l -753,-650 -48,60 -22,32 -21,32 -19,33 -19,34 -17,35 -16,35 915,389 z"/>
<path fill="#9BBB59" stroke="none" d="M 2449,3398 l -577,-810 -48,36 -45,39 -43,41 -40,44 753,650 z"/>
<path fill="#8064A2" stroke="none" d="M 2449,3398 l -374,-922 -53,24 -52,26 -50,30 -48,32 577,810 z"/>
<path fill="#4BACC6" stroke="none" d="M 2449,3398 l -185,-977 -48,10 -48,13 -47,15 -46,17 374,922 z"/>
<path fill="#F79646" stroke="none" d="M 2449,3398 l 0,-995 -46,1 -47,4 -46,5 -46,8 185,977 z"/>
<path fill="#000000" stroke="none" d="M 1969,2529 l -484,-252 1,0 -38,0 0,-6 39,0 484,252 -2,6 z m 1202,1553 l 126,145 -2,-1 39,0 0,6 -39,0 -2,-1 -126,-145 4,-4 z m -1238,165 l -57,171 -3,2 -39,0 0,-6 39,0 -3,2 57,-171 6,2 z m -321,-317 l -54,134 -3,2 -39,0 0,-6 39,0 -3,2 54,-134 6,2 z m 166,-1264 l -116,-57 1,0 -39,0 0,-6 40,0 116,57 -2,6 z m 1443,107 l 41,-99 3,-2 39,0 0,6 -39,0 3,-2 -41,99 -6,-2 z m -1617,102 l -153,-32 1,0 -39,0 0,-6 40,0 153,32 -2,6 z m -140,663 l -126,-31 1,0 -39,0 0,-6 40,0 126,31 -2,6 z m 889,-1131 l 17,-101 6,1 -17,101 -6,-1 z m -870,761 l -142,-4 -39,0 0,-6 39,0 142,4 0,6 z m 682,-724 l 0,-110 6,0 0,110 -6,0 z m 264,1948 l 0,103 -6,0 0,-103 6,0 z"/>
<rect x="3347" y="2621" width="48" height="48" fill="#40699C" stroke="none"/>
<text font-family="Calibri" font-size="87" fill="#000000"><tspan x="3438,3495,3516,3570,3644,3684,3705" y="2676">NIGMS, </tspan><tspan x="3725,3769,3814,3858,3902,3924" y="2676">1290, </tspan><tspan x="3942,3987,4031" y="2676">28%</tspan></text>
<rect x="3377" y="4175" width="48" height="48" fill="#9E413E" stroke="none"/>
<text font-family="Calibri" font-size="87" fill="#000000"><tspan x="3469,3525,3571,3593,3615" y="4230">NCI, </tspan><tspan x="3633,3677,3722,3766,3788" y="4230">793, </tspan><tspan x="3806,3850,3895" y="4230">17%</tspan></text>
<rect x="2297" y="4523" width="48" height="48" fill="#7F9A48" stroke="none"/>
<text font-family="Calibri" font-size="87" fill="#000000"><tspan x="2389,2445,2467,2516,2538,2591,2613" y="4578">NIAID, </tspan><tspan x="2632,2676,2721,2765,2787" y="4578">410, </tspan><tspan x="2805,2849" y="4578">9%</tspan></text>
<rect x="1196" y="4363" width="47" height="48" fill="#695185" stroke="none"/>
<text font-family="Calibri" font-size="87" fill="#000000"><tspan x="1287,1343,1397,1434,1482,1503,1525" y="4418">NHLBI, </tspan><tspan x="1543,1588,1632,1676,1698" y="4418">350, </tspan><tspan x="1716,1761" y="4418">8%</tspan></text>
<rect x="864" y="4009" width="47" height="48" fill="#3C8DA3" stroke="none"/>
<text font-family="Calibri" font-size="87" fill="#000000"><tspan x="954,1011,1032,1085,1138,1184,1205" y="4064">NIDDK, </tspan><tspan x="1225,1269,1313,1358,1379" y="4064">312, </tspan><tspan x="1398,1442" y="4064">7%</tspan></text>
<rect x="680" y="3450" width="48" height="47" fill="#CC7B38" stroke="none"/>
<text font-family="Calibri" font-size="87" fill="#000000"><tspan x="772,828,874,921,967,989" y="3505">NCRR, </tspan><tspan x="1008,1053,1097,1141,1163" y="3505">303, </tspan><tspan x="1181,1226" y="3505">7%</tspan></text>
<rect x="646" y="3107" width="47" height="47" fill="#4F81BD" stroke="none"/>
<text font-family="Calibri" font-size="87" fill="#000000"><tspan x="737,793,848,902,948,970,991" y="3162">NHGRI, </tspan><tspan x="1012,1056,1101,1145,1167" y="3162">239, </tspan><tspan x="1184,1228" y="3162">5%</tspan></text>
<rect x="776" y="2786" width="47" height="47" fill="#C0504D" stroke="none"/>
<text font-family="Calibri" font-size="87" fill="#000000"><tspan x="867,923,945,987,1041,1081,1103" y="2841">NIEHS, </tspan><tspan x="1122,1167,1211,1255,1277" y="2841">224, </tspan><tspan x="1294,1339" y="2841">5%</tspan></text>
<rect x="995" y="2552" width="47" height="47" fill="#9BBB59" stroke="none"/>
<text font-family="Calibri" font-size="87" fill="#000000"><tspan x="1085,1142,1163,1237,1291,1312" y="2607">NIMH, </tspan><tspan x="1332,1376,1421,1465,1487" y="2607">173, </tspan><tspan x="1505,1549" y="2607">4%</tspan></text>
<rect x="595" y="2221" width="48" height="47" fill="#8064A2" stroke="none"/>
<text font-family="Calibri" font-size="87" fill="#000000"><tspan x="685,762,805,825,844,881,926,995,1039" y="2275">Wellcome </tspan><tspan x="1059,1101,1132,1177,1211,1240,1262" y="2275">Trust, </tspan><tspan x="1281,1325,1370,1414,1436" y="2275">169, </tspan><tspan x="1007,1052" y="2381">4%</tspan></text>
<rect x="1681" y="2257" width="47" height="48" fill="#4BACC6" stroke="none"/>
<text font-family="Calibri" font-size="87" fill="#000000"><tspan x="1772,1829,1865,1939,1961" y="2312">NLM, </tspan><tspan x="1980,2024,2069,2113,2135" y="2312">143, </tspan><tspan x="2152,2196" y="2312">3%</tspan></text>
<rect x="2417" y="2253" width="47" height="47" fill="#F79646" stroke="none"/>
<text font-family="Calibri" font-size="87" fill="#000000"><tspan x="2508,2564,2586,2642,2695,2735,2757" y="2308">NINDS, </tspan><tspan x="2775,2819,2864,2908,2930" y="2308">136, </tspan><tspan x="2948,2993" y="2308">3%</tspan></text>
<text font-family="Calibri" font-size="156" fill="#000000" font-weight="700"><tspan x="1547,1611,1694,1777" y="1908">Top </tspan><tspan x="1813,1892,1971" y="1908">12 </tspan><tspan x="2007,2078,2161,2245,2328,2366,2449,2523" y="1908">Funding </tspan><tspan x="2559,2653,2725,2804,2887,2952,2990,3069,3130" y="1908">Agencies </tspan><tspan x="3167,3215,3298,3353" y="1908">for </tspan><tspan x="985,1068,1142,1195,1279,1340,1404,1481,1564,1643" y="2099">Cytoscape </tspan><tspan x="1679,1761,1799,1852,1928,1982,2020,2103,2186,2248" y="2099">Citations </tspan><tspan x="2285,2333,2412,2452,2531,2610,2689" y="2099">(5,433 </tspan><tspan x="2725,2803,2875,2954,3036,3090,3152" y="2099">events </tspan><tspan x="3187,3248,3286,3370,3434,3513" y="2099">since </tspan><tspan x="3549,3628,3707,3786,3865" y="2099">2004)</tspan></text>
<path fill="#868686" stroke="none" d="M 4492,1692 l 0,1 2,0 0,5 -4083,0 0,2942 -7,0 0,-2945 1,0 0,-1 1,0 0,-1 2,0 0,-1 4084,0 z"/>
<path fill="#868686" stroke="none" d="M 4494,1698 l 0,2948 -4089,0 0,-1 -1,0 0,-5 4085,0 0,-2942 5,0 z"/>
</g>
</svg>
