<?xml version="1.0" encoding="UTF-8" standalone="no"?>
<svg width="3468px" height="2368px" viewBox="0 0 3468 2368" version="1.1" xmlns="http://www.w3.org/2000/svg" xmlns:xlink="http://www.w3.org/1999/xlink">
    <!-- Generator: Sketch 3.7.2 (28276) - http://www.bohemiancoding.com/sketch -->
    <title>Agencies_Funding_Cytoscape_Citations_Total</title>
    <desc>Created with Sketch.</desc>
    <defs></defs>
    <g id="Page-1" stroke="none" stroke-width="1" fill="none" fill-rule="evenodd">
        <g id="Agencies_Funding_Cytoscape_Citations_Total" transform="translate(0.000000, -14.000000)">
            <g id="Page_1-Clipped">
                <g id="Page_1">
                    <polygon id="Shape" fill="#40699C" points="1854 1191 2826 1402 2836 1352 2843 1302 2847 1252 2849 1202 2848 1152 2845 1103 2840 1055 2832 1007 2822 960 2810 913 2795 867 2778 822 2759 778 2739 735 2716 693 2691 653 2664 613 2635 575 2605 538 2573 503 2539 469 2503 437 2466 406 2427 377 2387 350 2345 325 2301 302 2257 281 2211 262 2163 246 2115 231 2065 219 2013 209 1960 202 1907 198 1854 196"></polygon>
                    <polygon id="Shape" fill="#9E413E" points="1854 1191 2110 2152 2144 2142 2177 2132 2209 2120 2241 2107 2273 2093 2303 2078 2334 2062 2363 2046 2420 2009 2474 1969 2526 1925 2574 1878 2619 1827 2660 1774 2698 1718 2732 1659 2747 1629 2762 1598 2775 1567 2787 1535 2799 1502 2809 1469 2818 1436 2826 1402"></polygon>
                    <polygon id="Shape" fill="#7F9A48" points="1854 1191 1554 2139 1588 2149 1622 2158 1657 2166 1691 2172 1726 2177 1761 2181 1831 2185 1866 2185 1901 2184 1936 2182 2006 2174 2041 2168 2076 2160 2110 2152"></polygon>
                    <polygon id="Shape" fill="#695185" points="1854 1191 1147 1890 1191 1931 1237 1970 1285 2006 1336 2039 1388 2069 1442 2095 1497 2119 1554 2139"></polygon>
                    <polygon id="Shape" fill="#3C8DA3" points="1854 1191 920 1530 940 1580 962 1629 987 1676 1014 1722 1044 1767 1076 1810 1110 1851 1147 1890"></polygon>
                    <polygon id="Shape" fill="#CC7B38" points="1854 1191 863 1120 861 1172 861 1224 864 1276 870 1328 878 1379 889 1430 903 1481 920 1530"></polygon>
                    <polygon id="Shape" fill="#4F81BD" points="1854 1191 939 802 924 840 910 879 898 918 888 958 879 998 872 1038 867 1079 863 1120"></polygon>
                    <polygon id="Shape" fill="#C0504D" points="1854 1191 1101 541 1053 601 1031 633 1010 665 991 698 972 732 955 767 939 802"></polygon>
                    <polygon id="Shape" fill="#9BBB59" points="1854 1191 1277 381 1229 417 1184 456 1141 497 1101 541"></polygon>
                    <polygon id="Shape" fill="#8064A2" points="1854 1191 1480 269 1427 293 1375 319 1325 349 1277 381"></polygon>
                    <polygon id="Shape" fill="#4BACC6" points="1854 1191 1669 214 1621 224 1573 237 1526 252 1480 269"></polygon>
                    <polygon id="Shape" fill="#F79646" points="1854 1191 1854 196 1808 197 1761 201 1715 206 1669 214"></polygon>
                    <path d="M1374,322 L890,70 L891,70 L853,70 L853,64 L892,64 L1376,316 L1374,322 L1374,322 Z M2576,1875 L2702,2020 L2700,2019 L2739,2019 L2739,2025 L2700,2025 L2698,2024 L2572,1879 L2576,1875 L2576,1875 Z M1338,2040 L1281,2211 L1278,2213 L1239,2213 L1239,2207 L1278,2207 L1275,2209 L1332,2038 L1338,2040 L1338,2040 Z M1017,1723 L963,1857 L960,1859 L921,1859 L921,1853 L960,1853 L957,1855 L1011,1721 L1017,1723 L1017,1723 Z M1183,459 L1067,402 L1068,402 L1029,402 L1029,396 L1069,396 L1185,453 L1183,459 L1183,459 Z M2626,566 L2667,467 L2670,465 L2709,465 L2709,471 L2670,471 L2673,469 L2632,568 L2626,566 L2626,566 Z M1009,668 L856,636 L857,636 L818,636 L818,630 L858,630 L1011,662 L1009,668 L1009,668 Z M869,1331 L743,1300 L744,1300 L705,1300 L705,1294 L745,1294 L871,1325 L869,1331 L869,1331 Z M1758,200 L1775,99 L1781,100 L1764,201 L1758,200 L1758,200 Z M888,961 L746,957 L707,957 L707,951 L746,951 L888,955 L888,961 L888,961 Z M1570,237 L1570,127 L1576,127 L1576,237 L1570,237 L1570,237 Z M1834,2185 L1834,2288 L1828,2288 L1828,2185 L1834,2185 L1834,2185 Z" id="Shape" fill="#000000"></path>
                    <rect id="Rectangle-path" fill="#40699C" x="2752" y="414" width="48" height="48"></rect>
                    <text id="NIGMS," fill="#000000" font-family="Calibri" font-size="71.2704" font-weight="normal">
                        <tspan x="2843" y="469">NIGMS,</tspan>
                    </text>
                    <text id="1290," fill="#000000" font-family="Calibri" font-size="71.2704" font-weight="normal">
                        <tspan x="3130" y="469">1290,</tspan>
                    </text>
                    <text id="28%" fill="#000000" font-family="Calibri" font-size="71.2704" font-weight="normal">
                        <tspan x="3347" y="469">28%</tspan>
                    </text>
                    <rect id="Rectangle-path" fill="#9E413E" x="2782" y="1968" width="48" height="48"></rect>
                    <text id="NCI," fill="#000000" font-family="Calibri" font-size="71.2704" font-weight="normal">
                        <tspan x="2874" y="2023">NCI,</tspan>
                    </text>
                    <text id="793," fill="#000000" font-family="Calibri" font-size="71.2704" font-weight="normal">
                        <tspan x="3038" y="2023">793,</tspan>
                    </text>
                    <text id="17%" fill="#000000" font-family="Calibri" font-size="71.2704" font-weight="normal">
                        <tspan x="3211" y="2023">17%</tspan>
                    </text>
                    <rect id="Rectangle-path" fill="#7F9A48" x="1702" y="2316" width="48" height="48"></rect>
                    <text id="NIAID," fill="#000000" font-family="Calibri" font-size="71.2704" font-weight="normal">
                        <tspan x="1794" y="2371">NIAID,</tspan>
                    </text>
                    <text id="410," fill="#000000" font-family="Calibri" font-size="71.2704" font-weight="normal">
                        <tspan x="2037" y="2371">410,</tspan>
                    </text>
                    <text id="9%" fill="#000000" font-family="Calibri" font-size="71.2704" font-weight="normal">
                        <tspan x="2210" y="2371">9%</tspan>
                    </text>
                    <rect id="Rectangle-path" fill="#695185" x="601" y="2156" width="47" height="48"></rect>
                    <text id="NHLBI," fill="#000000" font-family="Calibri" font-size="71.2704" font-weight="normal">
                        <tspan x="692" y="2211">NHLBI,</tspan>
                    </text>
                    <text id="350," fill="#000000" font-family="Calibri" font-size="71.2704" font-weight="normal">
                        <tspan x="948" y="2211">350,</tspan>
                    </text>
                    <text id="8%" fill="#000000" font-family="Calibri" font-size="71.2704" font-weight="normal">
                        <tspan x="1121" y="2211">8%</tspan>
                    </text>
                    <rect id="Rectangle-path" fill="#3C8DA3" x="269" y="1802" width="47" height="48"></rect>
                    <text id="NIDDK," fill="#000000" font-family="Calibri" font-size="71.2704" font-weight="normal">
                        <tspan x="359" y="1857">NIDDK,</tspan>
                    </text>
                    <text id="312," fill="#000000" font-family="Calibri" font-size="71.2704" font-weight="normal">
                        <tspan x="630" y="1857">312,</tspan>
                    </text>
                    <text id="7%" fill="#000000" font-family="Calibri" font-size="71.2704" font-weight="normal">
                        <tspan x="803" y="1857">7%</tspan>
                    </text>
                    <rect id="Rectangle-path" fill="#CC7B38" x="85" y="1243" width="48" height="47"></rect>
                    <text id="NCRR," fill="#000000" font-family="Calibri" font-size="71.2704" font-weight="normal">
                        <tspan x="177" y="1298">NCRR,</tspan>
                    </text>
                    <text id="303," fill="#000000" font-family="Calibri" font-size="71.2704" font-weight="normal">
                        <tspan x="413" y="1298">303,</tspan>
                    </text>
                    <text id="7%" fill="#000000" font-family="Calibri" font-size="71.2704" font-weight="normal">
                        <tspan x="586" y="1298">7%</tspan>
                    </text>
                    <rect id="Rectangle-path" fill="#4F81BD" x="51" y="900" width="47" height="47"></rect>
                    <text id="NHGRI," fill="#000000" font-family="Calibri" font-size="71.2704" font-weight="normal">
                        <tspan x="142" y="955">NHGRI,</tspan>
                    </text>
                    <text id="239," fill="#000000" font-family="Calibri" font-size="71.2704" font-weight="normal">
                        <tspan x="417" y="955">239,</tspan>
                    </text>
                    <text id="5%" fill="#000000" font-family="Calibri" font-size="71.2704" font-weight="normal">
                        <tspan x="589" y="955">5%</tspan>
                    </text>
                    <rect id="Rectangle-path" fill="#C0504D" x="181" y="579" width="47" height="47"></rect>
                    <text id="NIEHS," fill="#000000" font-family="Calibri" font-size="71.2704" font-weight="normal">
                        <tspan x="272" y="634">NIEHS,</tspan>
                    </text>
                    <text id="224," fill="#000000" font-family="Calibri" font-size="71.2704" font-weight="normal">
                        <tspan x="527" y="634">224,</tspan>
                    </text>
                    <text id="5%" fill="#000000" font-family="Calibri" font-size="71.2704" font-weight="normal">
                        <tspan x="699" y="634">5%</tspan>
                    </text>
                    <rect id="Rectangle-path" fill="#9BBB59" x="400" y="345" width="47" height="47"></rect>
                    <text id="NIMH," fill="#000000" font-family="Calibri" font-size="71.2704" font-weight="normal">
                        <tspan x="490" y="400">NIMH,</tspan>
                    </text>
                    <text id="173," fill="#000000" font-family="Calibri" font-size="71.2704" font-weight="normal">
                        <tspan x="737" y="400">173,</tspan>
                    </text>
                    <text id="4%" fill="#000000" font-family="Calibri" font-size="71.2704" font-weight="normal">
                        <tspan x="910" y="400">4%</tspan>
                    </text>
                    <rect id="Rectangle-path" fill="#8064A2" x="0" y="14" width="48" height="47"></rect>
                    <text id="Wellcome" fill="#000000" font-family="Calibri" font-size="71.2704" font-weight="normal">
                        <tspan x="90" y="68">Wellcome</tspan>
                    </text>
                    <text id="Trust," fill="#000000" font-family="Calibri" font-size="71.2704" font-weight="normal">
                        <tspan x="464" y="68">Trust,</tspan>
                    </text>
                    <text id="169," fill="#000000" font-family="Calibri" font-size="71.2704" font-weight="normal">
                        <tspan x="686" y="68">169,</tspan>
                    </text>
                    <text id="4%" fill="#000000" font-family="Calibri" font-size="71.2704" font-weight="normal">
                        <tspan x="412" y="174">4%</tspan>
                    </text>
                    <rect id="Rectangle-path" fill="#4BACC6" x="1086" y="50" width="47" height="48"></rect>
                    <text id="NLM," fill="#000000" font-family="Calibri" font-size="71.2704" font-weight="normal">
                        <tspan x="1177" y="105">NLM,</tspan>
                    </text>
                    <text id="143," fill="#000000" font-family="Calibri" font-size="71.2704" font-weight="normal">
                        <tspan x="1385" y="105">143,</tspan>
                    </text>
                    <text id="3%" fill="#000000" font-family="Calibri" font-size="71.2704" font-weight="normal">
                        <tspan x="1557" y="105">3%</tspan>
                    </text>
                    <rect id="Rectangle-path" fill="#F79646" x="1822" y="46" width="47" height="47"></rect>
                    <text id="NINDS," fill="#000000" font-family="Calibri" font-size="71.2704" font-weight="normal">
                        <tspan x="1913" y="101">NINDS,</tspan>
                    </text>
                    <text id="136," fill="#000000" font-family="Calibri" font-size="71.2704" font-weight="normal">
                        <tspan x="2180" y="101">136,</tspan>
                    </text>
                    <text id="3%" fill="#000000" font-family="Calibri" font-size="71.2704" font-weight="normal">
                        <tspan x="2353" y="101">3%</tspan>
                    </text>
                </g>
            </g>
        </g>
    </g>
</svg>