<?xml version="1.0" standalone="no"?>
<svg xml:space="preserve" width="100%" height="100%" viewBox="0 0 4897 6337" preserveAspectRatio="xMidYMid"
  fill-rule="nonzero" stroke-linecap="round" stroke-linejoin="round"
  xmlns="http://www.w3.org/2000/svg"
  xmlns:xlink="http://www.w3.org/1999/xlink"
  xmlns:svgmaker="http://www.svgmaker.com/svgns">
<svgmaker:init width="215.9mm" height="279.4mm" viewBox="0 0 4897 6337" view="fit"
  crop="none" cropWidth="180.3mm" cropHeight="130.2mm" cropBox="404 1692 4090 2954"/>
<title>Untitled</title>
<desc>
  Generated by SVGmaker V3 Version 3.61.E702.64
  MAY-16-2016, 08:30
</desc>
<defs><clipPath id="page_clip"><rect x="0" y="0" width="4897" height="6337"/></clipPath></defs>
<g id="Page_1" clip-path="url(#page_clip)" svgmaker:mediaBox="0 0 4897 6337">
<rect x="407" y="1694" width="4085" height="2949" fill="#FFFFFF" stroke="none"/>
<path fill="#40699C" stroke="none" d="M 2449,3398 l 982,-162 -8,-45 -11,-43 -12,-43 -14,-43 -16,-41 -17,-40 -19,-39 -21,-39 -23,-37 -24,-36 -25,-35 -27,-33 -28,-33 -30,-31 -31,-30 -32,-28 -33,-28 -35,-25 -35,-24 -37,-23 -38,-21 -38,-19 -40,-18 -40,-16 -41,-15 -42,-12 -43,-11 -43,-9 -44,-7 -45,-5 -45,-3 -45,-1 0,995 z"/>
<path fill="#9E413E" stroke="none" d="M 2449,3398 l 717,690 39,-43 37,-46 33,-47 31,-49 28,-50 25,-52 21,-53 19,-54 16,-56 12,-56 9,-57 6,-57 2,-58 -1,-58 -4,-58 -8,-58 -982,162 z"/>
<path fill="#7F9A48" stroke="none" d="M 2449,3398 l 74,991 46,-4 45,-7 44,-8 45,-11 43,-12 43,-15 42,-16 41,-18 41,-20 39,-22 39,-24 37,-25 36,-27 36,-29 33,-31 33,-32 -717,-690 z"/>
<path fill="#695185" stroke="none" d="M 2449,3398 l -535,837 34,21 35,20 36,18 36,16 37,15 38,14 37,12 39,11 39,9 39,7 39,6 40,4 40,3 40,1 40,-1 40,-2 -74,-991 z"/>
<path fill="#3C8DA3" stroke="none" d="M 2449,3398 l -901,420 16,32 16,31 18,30 19,30 19,29 21,28 44,55 48,51 52,47 55,44 29,21 29,19 535,-837 z"/>
<path fill="#CC7B38" stroke="none" d="M 2449,3398 l -993,-50 -1,61 2,60 7,60 10,60 13,58 17,58 20,57 24,56 901,-420 z"/>
<path fill="#4F81BD" stroke="none" d="M 2449,3398 l -929,-353 -13,37 -12,37 -10,37 -9,38 -7,38 -6,38 -4,39 -3,39 993,50 z"/>
<path fill="#C0504D" stroke="none" d="M 2449,3398 l -781,-616 -23,30 -21,32 -21,31 -19,33 -18,33 -16,34 -16,35 -14,35 929,353 z"/>
<path fill="#9BBB59" stroke="none" d="M 2449,3398 l -568,-816 -30,22 -28,22 -56,48 -51,52 -25,28 -23,28 781,616 z"/>
<path fill="#8064A2" stroke="none" d="M 2449,3398 l -371,-923 -51,23 -50,25 -49,28 -47,31 568,816 z"/>
<path fill="#4BACC6" stroke="none" d="M 2449,3398 l -171,-980 -51,10 -50,13 -50,16 -49,18 371,923 z"/>
<path fill="#F79646" stroke="none" d="M 2449,3398 l 0,-995 -43,1 -43,3 -43,4 -42,7 171,980 z"/>
<path fill="#000000" stroke="none" d="M 2176,2444 l -862,-280 1,0 -39,0 0,-6 40,0 862,280 -2,6 z m -590,466 l -293,257 -2,1 -39,0 0,-6 39,0 -2,1 293,-257 4,4 z m -108,286 l -196,250 -2,1 -39,0 0,-6 39,0 -2,1 196,-250 4,4 z m 1396,1100 l 191,181 -2,-1 39,0 0,6 -39,0 -2,-1 -191,-181 4,-4 z m -1107,-1619 l -524,69 -39,0 0,-6 39,0 524,-69 0,6 z m 210,-151 l -570,-26 -39,0 0,-6 39,0 570,26 0,6 z m 1424,1164 l 138,87 -2,0 39,0 0,6 -41,0 -138,-87 4,-6 z m -1924,-101 l -33,208 -3,3 -39,0 0,-6 39,0 -3,3 33,-208 6,0 z m 227,465 l -47,155 -3,2 -39,0 0,-6 39,0 -3,2 47,-155 6,2 z m 1386,-1415 l 35,-117 3,-2 39,0 0,6 -39,0 3,-2 -35,117 -6,-2 z m -730,-232 l -10,-151 6,0 10,151 -6,0 z m -151,1955 l 3,175 -6,0 -3,-175 6,0 z"/>
<rect x="3210" y="2469" width="47" height="48" fill="#40699C" stroke="none"/>
<text font-family="Calibri" font-size="87" fill="#000000"><tspan x="3300,3357,3378,3432,3506,3546,3568" y="2524">NIGMS, </tspan><tspan x="3587,3631,3676,3720,3742" y="2524">162, </tspan><tspan x="3760,3804,3849" y="2524">22%</tspan></text>
<rect x="3619" y="3727" width="48" height="47" fill="#9E413E" stroke="none"/>
<text font-family="Calibri" font-size="87" fill="#000000"><tspan x="3710,3767,3813,3835,3856" y="3781">NCI, </tspan><tspan x="3875,3919,3964,4008,4030" y="3781">107, </tspan><tspan x="4048,4092,4137" y="3781">15%</tspan></text>
<rect x="3146" y="4426" width="47" height="47" fill="#7F9A48" stroke="none"/>
<text font-family="Calibri" font-size="87" fill="#000000"><tspan x="3237,3293,3347,3384,3431,3453,3475" y="4480">NHLBI, </tspan><tspan x="3493,3537,3582,3603" y="4480">84, </tspan><tspan x="3622,3666,3711" y="4480">12%</tspan></text>
<rect x="1583" y="4484" width="48" height="47" fill="#695185" stroke="none"/>
<text font-family="Calibri" font-size="87" fill="#000000"><tspan x="1673,1730,1751,1801,1823,1876,1897" y="4538">NIAID, </tspan><tspan x="1917,1961,2006,2027" y="4538">74, </tspan><tspan x="2047,2091,2135" y="4538">10%</tspan></text>
<rect x="1108" y="4154" width="47" height="48" fill="#3C8DA3" stroke="none"/>
<text font-family="Calibri" font-size="87" fill="#000000"><tspan x="1199,1255,1277,1327,1348" y="4209">NIA, </tspan><tspan x="1368,1412,1456,1478" y="4209">65, </tspan><tspan x="1496,1541" y="4209">9%</tspan></text>
<rect x="594" y="3743" width="47" height="48" fill="#CC7B38" stroke="none"/>
<text font-family="Calibri" font-size="87" fill="#000000"><tspan x="684,761,804,824,843,880,926,995,1038" y="3798">Wellcome </tspan><tspan x="1059,1101,1131,1177,1210,1239,1261" y="3798">Trust, </tspan><tspan x="1280,1325,1369,1391" y="3798">56, </tspan><tspan x="984,1028" y="3904">8%</tspan></text>
<rect x="632" y="3390" width="48" height="48" fill="#4F81BD" stroke="none"/>
<text font-family="Calibri" font-size="87" fill="#000000"><tspan x="724,780,802,855,908,953,975" y="3445">NIDDK, </tspan><tspan x="994,1038,1083,1104" y="3445">36, </tspan><tspan x="1123,1167" y="3445">5%</tspan></text>
<rect x="639" y="3111" width="48" height="48" fill="#C0504D" stroke="none"/>
<text font-family="Calibri" font-size="87" fill="#000000"><tspan x="730,786,840,895,941,963,984" y="3166">NHGRI, </tspan><tspan x="1005,1049,1094,1115" y="3166">35, </tspan><tspan x="1134,1178" y="3166">5%</tspan></text>
<rect x="610" y="2689" width="48" height="48" fill="#9BBB59" stroke="none"/>
<text font-family="Calibri" font-size="87" fill="#000000"><tspan x="702,758,779,822,876,916,937" y="2744">NIEHS, </tspan><tspan x="957,1001,1046,1067" y="2744">34, </tspan><tspan x="1086,1130" y="2744">5%</tspan></text>
<rect x="583" y="2337" width="48" height="48" fill="#8064A2" stroke="none"/>
<text font-family="Calibri" font-size="87" fill="#000000"><tspan x="680,726,767,813,854,899,919,960,1005" y="2392">Canadian </tspan><tspan x="1026,1047,1093,1126,1156,1175,1204,1250,1279,1322,1356" y="2392">Institutes </tspan><tspan x="674,720,746" y="2498">of </tspan><tspan x="766,820,864,905,924,953,999" y="2498">Health </tspan><tspan x="1018,1065,1108,1142,1185,1226,1256,1293,1338,1360" y="2498">Research, </tspan><tspan x="900,945,989,1011" y="2603">26, </tspan><tspan x="1029,1073" y="2603">3%</tspan></text>
<rect x="463" y="1896" width="48" height="47" fill="#4BACC6" stroke="none"/>
<text font-family="Calibri" font-size="87" fill="#000000"><tspan x="603,650,670,715,744,788,824,870,915,961,980,1026,1067,1106" y="1951">Biotechnology </tspan><tspan x="1125,1166,1212,1257" y="1951">and </tspan><tspan x="603,650,670,715,735,780,821,841,877,918,938" y="2057">Biological </tspan><tspan x="958,998,1035,1055,1098,1143,1180,1223,1257" y="2057">Sciences </tspan><tspan x="554,600,644,677,720,762,792,829,874" y="2162">Research </tspan><tspan x="894,940,986,1031,1076,1113,1133,1152,1174" y="2162">Council, </tspan><tspan x="1194,1239,1283,1305" y="2162">24, </tspan><tspan x="876,921" y="2268">3%</tspan></text>
<rect x="1746" y="2202" width="47" height="48" fill="#F79646" stroke="none"/>
<text font-family="Calibri" font-size="87" fill="#000000"><tspan x="1836,1893,1914,1964,2014,2064,2085" y="2257">NIAAA, </tspan><tspan x="2106,2150,2194,2216" y="2257">20, </tspan><tspan x="2234,2279" y="2257">3%</tspan></text>
<text font-family="Calibri" font-size="156" fill="#000000" font-weight="700"><tspan x="1849,1913,1997,2080" y="1890">Top </tspan><tspan x="2116,2194,2273" y="1890">12 </tspan><tspan x="2309,2381,2464,2547,2630,2668,2752,2825" y="1890">Funding </tspan><tspan x="2862,2956,3027,3106,3190,3255,3292,3371,3433" y="1890">Agencies </tspan><tspan x="3470,3517,3601,3656" y="1890">for </tspan><tspan x="1285,1367,1442,1495,1578,1640,1703,1780,1863,1942" y="2080">Cytoscape </tspan><tspan x="1978,2060,2098,2151,2227,2281,2319,2402,2485,2547" y="2080">Citations </tspan><tspan x="2584,2633,2712,2791,2869" y="2080">(930 </tspan><tspan x="2904,2982,3054,3133,3216,3270,3331" y="2080">events </tspan><tspan x="3366,3428,3465,3549,3614,3693" y="2080">since </tspan><tspan x="3729,3781,3858,3941" y="2080">Jan </tspan><tspan x="3976,4013,4092,4171" y="2080">&apos;15)</tspan></text>
<path fill="#868686" stroke="none" d="M 4492,1692 l 0,1 2,0 0,5 -4083,0 0,2942 -7,0 0,-2945 1,0 0,-1 1,0 0,-1 2,0 0,-1 4084,0 z"/>
<path fill="#868686" stroke="none" d="M 4494,1698 l 0,2948 -4089,0 0,-1 -1,0 0,-5 4085,0 0,-2942 5,0 z"/>
</g>
</svg>
