<?xml version="1.0" encoding="UTF-8" standalone="no"?>
<svg width="3733px" height="2660px" viewBox="0 0 3733 2660" version="1.1" xmlns="http://www.w3.org/2000/svg" xmlns:xlink="http://www.w3.org/1999/xlink">
    <!-- Generator: Sketch 3.8.3 (29802) - http://www.bohemiancoding.com/sketch -->
    <title>Agencies_Funding_Cytoscape_Citations_Prior_Year</title>
    <desc>Created with Sketch.</desc>
    <defs></defs>
    <g id="Page-1" stroke="none" stroke-width="1" fill="none" fill-rule="evenodd">
        <g id="Agencies_Funding_Cytoscape_Citations_Prior_Year" transform="translate(0.000000, -23.000000)">
            <g id="Page_1-Clipped">
                <g id="Page_1">
                    <polygon id="Shape" fill="#40699C" points="1986 1530 2968 1368 2960 1323 2949 1280 2937 1237 2923 1194 2907 1153 2890 1113 2871 1074 2850 1035 2827 998 2803 962 2778 927 2751 894 2723 861 2693 830 2662 800 2630 772 2597 744 2562 719 2527 695 2490 672 2452 651 2414 632 2374 614 2334 598 2293 583 2251 571 2208 560 2165 551 2121 544 2076 539 2031 536 1986 535"></polygon>
                    <polygon id="Shape" fill="#9E413E" points="1986 1530 2703 2220 2742 2177 2779 2131 2812 2084 2843 2035 2871 1985 2896 1933 2917 1880 2936 1826 2952 1770 2964 1714 2973 1657 2979 1600 2981 1542 2980 1484 2976 1426 2968 1368"></polygon>
                    <polygon id="Shape" fill="#7F9A48" points="1986 1530 2060 2521 2106 2517 2151 2510 2195 2502 2240 2491 2283 2479 2326 2464 2368 2448 2409 2430 2450 2410 2489 2388 2528 2364 2565 2339 2601 2312 2637 2283 2670 2252 2703 2220"></polygon>
                    <polygon id="Shape" fill="#695185" points="1986 1530 1451 2367 1485 2388 1520 2408 1556 2426 1592 2442 1629 2457 1667 2471 1704 2483 1743 2494 1782 2503 1821 2510 1860 2516 1900 2520 1940 2523 1980 2524 2020 2523 2060 2521"></polygon>
                    <polygon id="Shape" fill="#3C8DA3" points="1986 1530 1085 1950 1101 1982 1117 2013 1135 2043 1154 2073 1173 2102 1194 2130 1238 2185 1286 2236 1338 2283 1393 2327 1422 2348 1451 2367"></polygon>
                    <polygon id="Shape" fill="#CC7B38" points="1986 1530 993 1480 992 1541 994 1601 1001 1661 1011 1721 1024 1779 1041 1837 1061 1894 1085 1950"></polygon>
                    <polygon id="Shape" fill="#4F81BD" points="1986 1530 1057 1177 1044 1214 1032 1251 1022 1288 1013 1326 1006 1364 1000 1402 996 1441 993 1480"></polygon>
                    <polygon id="Shape" fill="#C0504D" points="1986 1530 1205 914 1182 944 1161 976 1140 1007 1121 1040 1103 1073 1087 1107 1071 1142 1057 1177"></polygon>
                    <polygon id="Shape" fill="#9BBB59" points="1986 1530 1418 714 1388 736 1360 758 1304 806 1253 858 1228 886 1205 914"></polygon>
                    <polygon id="Shape" fill="#8064A2" points="1986 1530 1615 607 1564 630 1514 655 1465 683 1418 714"></polygon>
                    <polygon id="Shape" fill="#4BACC6" points="1986 1530 1815 550 1764 560 1714 573 1664 589 1615 607"></polygon>
                    <polygon id="Shape" fill="#F79646" points="1986 1530 1986 535 1943 536 1900 539 1857 543 1815 550"></polygon>
                    <path d="M1713,576 L851,296 L852,296 L813,296 L813,290 L853,290 L1715,570 L1713,576 L1713,576 Z M1123,1042 L830,1299 L828,1300 L789,1300 L789,1294 L828,1294 L826,1295 L1119,1038 L1123,1042 L1123,1042 Z M1015,1328 L819,1578 L817,1579 L778,1579 L778,1573 L817,1573 L815,1574 L1011,1324 L1015,1328 L1015,1328 Z M2411,2428 L2602,2609 L2600,2608 L2639,2608 L2639,2614 L2600,2614 L2598,2613 L2407,2432 L2411,2428 L2411,2428 Z M1304,809 L780,878 L741,878 L741,872 L780,872 L1304,803 L1304,809 L1304,809 Z M1514,658 L944,632 L905,632 L905,626 L944,626 L1514,652 L1514,658 L1514,658 Z M2938,1822 L3076,1909 L3074,1909 L3113,1909 L3113,1915 L3072,1915 L2934,1828 L2938,1822 L2938,1822 Z M1014,1721 L981,1929 L978,1932 L939,1932 L939,1926 L978,1926 L975,1929 L1008,1721 L1014,1721 L1014,1721 Z M1241,2186 L1194,2341 L1191,2343 L1152,2343 L1152,2337 L1191,2337 L1188,2339 L1235,2184 L1241,2186 L1241,2186 Z M2627,771 L2662,654 L2665,652 L2704,652 L2704,658 L2665,658 L2668,656 L2633,773 L2627,771 L2627,771 Z M1897,539 L1887,388 L1893,388 L1903,539 L1897,539 L1897,539 Z M1746,2494 L1749,2669 L1743,2669 L1740,2494 L1746,2494 L1746,2494 Z" id="Shape" fill="#000000"></path>
                    <rect id="Rectangle-path" fill="#40699C" x="2747" y="601" width="47" height="48"></rect>
                    <text id="NIGMS," fill="#000000" font-family="Calibri" font-size="87" font-weight="normal">
                        <tspan x="2837" y="656">NIGMS,</tspan>
                    </text>
                    <text id="162," fill="#000000" font-family="Calibri" font-size="87" font-weight="normal">
                        <tspan x="3124" y="656">162,</tspan>
                    </text>
                    <text id="22%" fill="#000000" font-family="Calibri" font-size="87" font-weight="normal">
                        <tspan x="3297" y="656">22%</tspan>
                    </text>
                    <rect id="Rectangle-path" fill="#9E413E" x="3156" y="1859" width="48" height="47"></rect>
                    <text id="NCI," fill="#000000" font-family="Calibri" font-size="87" font-weight="normal">
                        <tspan x="3247" y="1913">NCI,</tspan>
                    </text>
                    <text id="107," fill="#000000" font-family="Calibri" font-size="87" font-weight="normal">
                        <tspan x="3412" y="1913">107,</tspan>
                    </text>
                    <text id="15%" fill="#000000" font-family="Calibri" font-size="87" font-weight="normal">
                        <tspan x="3585" y="1913">15%</tspan>
                    </text>
                    <rect id="Rectangle-path" fill="#7F9A48" x="2683" y="2558" width="47" height="47"></rect>
                    <text id="NHLBI," fill="#000000" font-family="Calibri" font-size="87" font-weight="normal">
                        <tspan x="2774" y="2612">NHLBI,</tspan>
                    </text>
                    <text id="84," fill="#000000" font-family="Calibri" font-size="87" font-weight="normal">
                        <tspan x="3030" y="2612">84,</tspan>
                    </text>
                    <text id="12%" fill="#000000" font-family="Calibri" font-size="87" font-weight="normal">
                        <tspan x="3159" y="2612">12%</tspan>
                    </text>
                    <rect id="Rectangle-path" fill="#695185" x="1120" y="2616" width="48" height="47"></rect>
                    <text id="NIAID," fill="#000000" font-family="Calibri" font-size="87" font-weight="normal">
                        <tspan x="1210" y="2670">NIAID,</tspan>
                    </text>
                    <text id="74," fill="#000000" font-family="Calibri" font-size="87" font-weight="normal">
                        <tspan x="1454" y="2670">74,</tspan>
                    </text>
                    <text id="10%" fill="#000000" font-family="Calibri" font-size="87" font-weight="normal">
                        <tspan x="1584" y="2670">10%</tspan>
                    </text>
                    <rect id="Rectangle-path" fill="#3C8DA3" x="645" y="2286" width="47" height="48"></rect>
                    <text id="NIA," fill="#000000" font-family="Calibri" font-size="87" font-weight="normal">
                        <tspan x="736" y="2341">NIA,</tspan>
                    </text>
                    <text id="65," fill="#000000" font-family="Calibri" font-size="87" font-weight="normal">
                        <tspan x="905" y="2341">65,</tspan>
                    </text>
                    <text id="9%" fill="#000000" font-family="Calibri" font-size="87" font-weight="normal">
                        <tspan x="1033" y="2341">9%</tspan>
                    </text>
                    <rect id="Rectangle-path" fill="#CC7B38" x="131" y="1875" width="47" height="48"></rect>
                    <text id="Wellcome" fill="#000000" font-family="Calibri" font-size="87" font-weight="normal">
                        <tspan x="221" y="1930">Wellcome</tspan>
                    </text>
                    <text id="Trust," fill="#000000" font-family="Calibri" font-size="87" font-weight="normal">
                        <tspan x="596" y="1930">Trust,</tspan>
                    </text>
                    <text id="56," fill="#000000" font-family="Calibri" font-size="87" font-weight="normal">
                        <tspan x="817" y="1930">56,</tspan>
                    </text>
                    <text id="8%" fill="#000000" font-family="Calibri" font-size="87" font-weight="normal">
                        <tspan x="521" y="2036">8%</tspan>
                    </text>
                    <rect id="Rectangle-path" fill="#4F81BD" x="169" y="1522" width="48" height="48"></rect>
                    <text id="NIDDK," fill="#000000" font-family="Calibri" font-size="87" font-weight="normal">
                        <tspan x="261" y="1577">NIDDK,</tspan>
                    </text>
                    <text id="36," fill="#000000" font-family="Calibri" font-size="87" font-weight="normal">
                        <tspan x="531" y="1577">36,</tspan>
                    </text>
                    <text id="5%" fill="#000000" font-family="Calibri" font-size="87" font-weight="normal">
                        <tspan x="660" y="1577">5%</tspan>
                    </text>
                    <rect id="Rectangle-path" fill="#C0504D" x="176" y="1243" width="48" height="48"></rect>
                    <text id="NHGRI," fill="#000000" font-family="Calibri" font-size="87" font-weight="normal">
                        <tspan x="267" y="1298">NHGRI,</tspan>
                    </text>
                    <text id="35," fill="#000000" font-family="Calibri" font-size="87" font-weight="normal">
                        <tspan x="542" y="1298">35,</tspan>
                    </text>
                    <text id="5%" fill="#000000" font-family="Calibri" font-size="87" font-weight="normal">
                        <tspan x="671" y="1298">5%</tspan>
                    </text>
                    <rect id="Rectangle-path" fill="#9BBB59" x="147" y="821" width="48" height="48"></rect>
                    <text id="NIEHS," fill="#000000" font-family="Calibri" font-size="87" font-weight="normal">
                        <tspan x="239" y="876">NIEHS,</tspan>
                    </text>
                    <text id="34," fill="#000000" font-family="Calibri" font-size="87" font-weight="normal">
                        <tspan x="494" y="876">34,</tspan>
                    </text>
                    <text id="5%" fill="#000000" font-family="Calibri" font-size="87" font-weight="normal">
                        <tspan x="623" y="876">5%</tspan>
                    </text>
                    <rect id="Rectangle-path" fill="#8064A2" x="120" y="469" width="48" height="48"></rect>
                    <text id="Canadian" fill="#000000" font-family="Calibri" font-size="87" font-weight="normal">
                        <tspan x="217" y="524">Canadian</tspan>
                    </text>
                    <text id="Institutes" fill="#000000" font-family="Calibri" font-size="87" font-weight="normal">
                        <tspan x="563" y="524">Institutes</tspan>
                    </text>
                    <text id="of" fill="#000000" font-family="Calibri" font-size="87" font-weight="normal">
                        <tspan x="211" y="630">of</tspan>
                    </text>
                    <text id="Health" fill="#000000" font-family="Calibri" font-size="87" font-weight="normal">
                        <tspan x="303" y="630">Health</tspan>
                    </text>
                    <text id="Research," fill="#000000" font-family="Calibri" font-size="87" font-weight="normal">
                        <tspan x="555" y="630">Research,</tspan>
                    </text>
                    <text id="26," fill="#000000" font-family="Calibri" font-size="87" font-weight="normal">
                        <tspan x="437" y="735">26,</tspan>
                    </text>
                    <text id="3%" fill="#000000" font-family="Calibri" font-size="87" font-weight="normal">
                        <tspan x="566" y="735">3%</tspan>
                    </text>
                    <rect id="Rectangle-path" fill="#4BACC6" x="0" y="28" width="48" height="47"></rect>
                    <text id="Biotechnology" fill="#000000" font-family="Calibri" font-size="87" font-weight="normal">
                        <tspan x="140" y="83">Biotechnology</tspan>
                    </text>
                    <text id="and" fill="#000000" font-family="Calibri" font-size="87" font-weight="normal">
                        <tspan x="662" y="83">and</tspan>
                    </text>
                    <text id="Biological" fill="#000000" font-family="Calibri" font-size="87" font-weight="normal">
                        <tspan x="140" y="189">Biological</tspan>
                    </text>
                    <text id="Sciences" fill="#000000" font-family="Calibri" font-size="87" font-weight="normal">
                        <tspan x="495" y="189">Sciences</tspan>
                    </text>
                    <text id="Research" fill="#000000" font-family="Calibri" font-size="87" font-weight="normal">
                        <tspan x="91" y="294">Research</tspan>
                    </text>
                    <text id="Council," fill="#000000" font-family="Calibri" font-size="87" font-weight="normal">
                        <tspan x="431" y="294">Council,</tspan>
                    </text>
                    <text id="24," fill="#000000" font-family="Calibri" font-size="87" font-weight="normal">
                        <tspan x="731" y="294">24,</tspan>
                    </text>
                    <text id="3%" fill="#000000" font-family="Calibri" font-size="87" font-weight="normal">
                        <tspan x="413" y="400">3%</tspan>
                    </text>
                    <rect id="Rectangle-path" fill="#F79646" x="1283" y="334" width="47" height="48"></rect>
                    <text id="NIAAA," fill="#000000" font-family="Calibri" font-size="87" font-weight="normal">
                        <tspan x="1373" y="389">NIAAA,</tspan>
                    </text>
                    <text id="20," fill="#000000" font-family="Calibri" font-size="87" font-weight="normal">
                        <tspan x="1643" y="389">20,</tspan>
                    </text>
                    <text id="3%" fill="#000000" font-family="Calibri" font-size="87" font-weight="normal">
                        <tspan x="1771" y="389">3%</tspan>
                    </text>
                </g>
            </g>
        </g>
    </g>
</svg>