<?xml version="1.0" standalone="no"?>
<svg xml:space="preserve" width="100%" height="100%" viewBox="0 0 4897 6337" preserveAspectRatio="xMidYMid"
  fill-rule="nonzero" stroke-linecap="round" stroke-linejoin="round"
  xmlns="http://www.w3.org/2000/svg"
  xmlns:xlink="http://www.w3.org/1999/xlink"
  xmlns:svgmaker="http://www.svgmaker.com/svgns">
<svgmaker:init width="215.9mm" height="279.4mm" viewBox="0 0 4897 6337" view="fit"
  crop="none" cropWidth="180.3mm" cropHeight="144.4mm" cropBox="404 1531 4090 3275"/>
<title>Untitled</title>
<desc>
  Generated by SVGmaker V3 Version 3.61.E702.64
  MAY-16-2016, 08:21
</desc>
<defs><clipPath id="page_clip"><rect x="0" y="0" width="4897" height="6337"/></clipPath></defs>
<g id="Page_1" clip-path="url(#page_clip)" svgmaker:mediaBox="0 0 4897 6337">
<rect x="407" y="1535" width="4083" height="3268" fill="#FFFFFF" stroke="none"/>
<path fill="#4572A7" stroke="none" d="M 2449,3411 l 1116,26 0,-57 -3,-57 -6,-56 -8,-56 -11,-54 -14,-53 -17,-53 -18,-51 -22,-50 -23,-49 -26,-47 -28,-46 -30,-45 -32,-43 -34,-41 -36,-40 -38,-37 -40,-37 -42,-34 -43,-32 -44,-30 -47,-28 -47,-26 -49,-23 -50,-21 -52,-19 -53,-16 -53,-14 -55,-11 -56,-9 -57,-5 -57,-3 -25,0 0,1117 z"/>
<path fill="#AA4643" stroke="none" d="M 2449,3411 l 938,605 40,-66 18,-34 17,-34 15,-35 15,-36 13,-36 12,-36 10,-37 18,-74 12,-76 4,-38 3,-38 1,-39 -1116,-26 z"/>
<path fill="#89A54E" stroke="none" d="M 2449,3411 l 613,934 48,-33 46,-36 44,-38 42,-41 40,-42 37,-44 35,-47 33,-48 -938,-605 z"/>
<path fill="#71588F" stroke="none" d="M 2449,3411 l 191,1101 56,-11 55,-15 55,-17 53,-19 53,-23 51,-25 50,-27 49,-30 -613,-934 z"/>
<path fill="#4198AF" stroke="none" d="M 2449,3411 l -213,1097 50,8 50,6 51,4 51,2 50,-1 51,-2 51,-6 50,-7 -191,-1101 z"/>
<path fill="#DB843D" stroke="none" d="M 2449,3411 l -565,964 41,23 43,21 43,20 43,18 45,15 45,14 46,12 46,10 213,-1097 z"/>
<path fill="#93A9CF" stroke="none" d="M 2449,3411 l -762,817 46,41 48,38 51,35 52,33 565,-964 z"/>
<path fill="#D19392" stroke="none" d="M 2449,3411 l -912,645 34,46 37,44 38,42 41,40 762,-817 z"/>
<path fill="#B9CD96" stroke="none" d="M 2449,3411 l -1020,456 23,49 26,48 29,47 30,45 912,-645 z"/>
<path fill="#A99BBD" stroke="none" d="M 2449,3411 l -1083,276 13,46 15,45 16,45 19,44 1020,-456 z"/>
<path fill="#91C3D5" stroke="none" d="M 2449,3411 l 0,-1117 -57,1 -57,5 -56,7 -55,10 -54,12 -53,15 -52,18 -51,20 -49,22 -49,25 -46,27 -46,29 -44,31 -42,33 -41,35 -38,37 -37,39 -36,40 -33,43 -31,43 -29,46 -27,47 -25,48 -22,49 -20,51 -18,52 -15,53 -12,54 -10,55 -7,56 -5,57 -1,57 2,70 3,34 4,35 5,35 6,34 7,34 8,34 1083,-276 z"/>
<path fill="#000000" stroke="none" d="M 3246,2628 l 178,-237 2,-1 41,0 0,6 -41,0 2,-1 -178,237 -4,-4 z m -1637,1520 l -189,211 -2,1 -41,0 0,-6 41,0 -2,1 189,-211 4,4 z m 1252,299 l 288,141 -1,0 41,0 0,6 -42,0 -288,-141 2,-6 z m -1077,-138 l -125,155 -2,1 -42,0 0,-6 42,0 -2,1 125,-155 4,4 z m 273,148 l -92,176 -3,2 -41,0 0,-6 41,0 -3,2 92,-176 6,2 z m -577,-490 l -172,107 -43,0 0,-6 41,0 -2,0 172,-107 4,6 z m 84,-1239 l -176,-104 2,0 -42,0 0,-6 44,0 176,104 -4,6 z m 1953,1008 l 199,71 -1,0 41,0 0,6 -42,0 -199,-71 2,-6 z m -273,459 l 64,84 -2,-1 42,0 0,6 -42,0 -2,-1 -64,-84 4,-4 z m -1849,-415 l -53,48 -2,1 -41,0 0,-6 41,0 -2,1 53,-48 4,4 z"/>
<text font-family="Calibri" font-size="92" fill="#000000"><tspan x="3482,3540,3588,3609,3640,3686,3734" y="2393">United </tspan><tspan x="3754,3797,3827,3871,3902,3947" y="2393">States</tspan><tspan x="3652,3699,3746" y="2505">25%</tspan><tspan x="3771,3820,3868,3889,3937" y="3810">China</tspan><tspan x="3820,3867" y="3922">9%</tspan><tspan x="3362,3404,3436,3480,3528,3567" y="4281">France</tspan><tspan x="3432,3478" y="4393">7%</tspan><tspan x="3205,3228,3276,3324,3344" y="4592">India</tspan><tspan x="3240,3287" y="4704">7%</tspan><tspan x="1966,2025,2073,2093,2124,2170,2218" y="4647">United </tspan><tspan x="2238,2286,2307,2355,2399,2447,2495" y="4647">Kingdom</tspan><tspan x="2211,2258" y="4759">6%</tspan><tspan x="1567,1624,1670,1702,1775,1819,1867" y="4645">Germany</tspan><tspan x="1682,1728" y="4757">5%</tspan><tspan x="1443,1466,1497,1540,1561" y="4462">Italy</tspan><tspan x="1467,1514" y="4574">3%</tspan><tspan x="1152,1181,1225,1273,1316" y="4357">Japan</tspan><tspan x="1202,1249" y="4469">3%</tspan><tspan x="976,1025,1068,1116,1160,1208" y="4071">Canada</tspan><tspan x="1058,1105" y="4184">3%</tspan><tspan x="831,874,922,970,1000,1048" y="3826">South </tspan><tspan x="1069,1117,1165,1197,1243" y="3826">Korea</tspan><tspan x="1003,1050" y="3938">3%</tspan><tspan x="1148,1209,1240,1288,1334" y="2509">Other</tspan><tspan x="1177,1224,1271" y="2622">29%</tspan></text>
<text font-family="Calibri" font-size="165" fill="#000000" font-weight="700"><tspan x="1475,1575,1663,1751" y="1760">App </tspan><tspan x="1789,1866,1922,2011,2067,2150" y="1760">Store </tspan><tspan x="2188,2285,2325,2390,2430,2487,2552" y="1760">Visits </tspan><tspan x="2591,2643,2726,2810,2893,2935,3019,3102,3186" y="1760">(335,340)</tspan><tspan x="1311,1362,1446" y="1961">(6/</tspan><tspan x="1517,1600" y="1961">1/</tspan><tspan x="1671,1754,1838,1921,2005" y="1961">2012 </tspan><tspan x="2041,2099,2187,2243,2331,2419,2496,2585" y="1961">through </tspan><tspan x="2625,2708" y="1961">2/</tspan><tspan x="2779,2862,2946" y="1961">10/</tspan><tspan x="3017,3100,3184,3267,3351" y="1961">2016)</tspan></text>
<path fill="#868686" stroke="none" d="M 404,1535 l 1,-3 3,-1 4083,0 2,1 1,3 0,3268 -1,2 -2,1 -4083,0 -3,-1 -1,-2 0,-3268 z m 7,3268 l -3,-4 4083,0 -4,4 0,-3268 4,3 -4083,0 3,-3 0,3268 z"/>
</g>
</svg>
