<?xml version="1.0" standalone="no"?>
<svg xml:space="preserve" width="100%" height="100%" viewBox="0 0 4897 6337" preserveAspectRatio="xMidYMid"
  fill-rule="nonzero" stroke-linecap="round" stroke-linejoin="round"
  xmlns="http://www.w3.org/2000/svg"
  xmlns:xlink="http://www.w3.org/1999/xlink"
  xmlns:svgmaker="http://www.svgmaker.com/svgns">
<svgmaker:init width="215.9mm" height="279.4mm" viewBox="0 0 4897 6337" view="fit"
  crop="none" cropWidth="180.3mm" cropHeight="144.4mm" cropBox="404 1531 4090 3275"/>
<title>Untitled</title>
<desc>
  Generated by SVGmaker V3 Version 3.61.E702.64
  MAY-16-2016, 08:21
</desc>
<defs><clipPath id="page_clip"><rect x="0" y="0" width="4897" height="6337"/></clipPath></defs>
<g id="Page_1" clip-path="url(#page_clip)" svgmaker:mediaBox="0 0 4897 6337">
<rect x="407" y="1535" width="4083" height="3268" fill="#FFFFFF" stroke="none"/>
<path fill="#4572A7" stroke="none" d="M 2449,3411 l 1117,-7 -2,-57 -4,-57 -8,-55 -10,-55 -13,-54 -15,-52 -18,-52 -20,-50 -22,-50 -25,-47 -27,-47 -29,-45 -31,-44 -34,-41 -35,-41 -37,-38 -38,-37 -41,-35 -42,-33 -44,-31 -45,-28 -47,-27 -48,-25 -49,-22 -51,-20 -51,-17 -53,-15 -54,-12 -55,-10 -55,-7 -57,-5 -57,-1 0,1117 z"/>
<path fill="#AA4643" stroke="none" d="M 2449,3411 l 953,583 20,-34 18,-34 17,-35 16,-35 15,-36 14,-36 12,-37 11,-37 10,-37 8,-38 7,-38 6,-38 5,-39 3,-38 2,-39 0,-39 -1117,7 z"/>
<path fill="#89A54E" stroke="none" d="M 2449,3411 l 589,949 54,-36 53,-39 49,-42 47,-45 45,-47 42,-50 38,-53 36,-54 -953,-583 z"/>
<path fill="#71588F" stroke="none" d="M 2449,3411 l 224,1094 48,-11 48,-13 47,-15 46,-17 45,-20 45,-21 43,-23 43,-25 -589,-949 z"/>
<path fill="#4198AF" stroke="none" d="M 2449,3411 l -151,1107 47,5 47,4 47,1 47,0 47,-3 47,-5 46,-6 47,-9 -224,-1094 z"/>
<path fill="#DB843D" stroke="none" d="M 2449,3411 l -449,1023 36,15 36,14 74,24 38,9 37,9 39,7 38,6 151,-1107 z"/>
<path fill="#93A9CF" stroke="none" d="M 2449,3411 l -657,904 50,34 51,31 52,29 55,25 449,-1023 z"/>
<path fill="#D19392" stroke="none" d="M 2449,3411 l -829,749 40,42 42,40 44,37 46,36 657,-904 z"/>
<path fill="#B9CD96" stroke="none" d="M 2449,3411 l -964,565 30,49 33,47 35,45 37,43 829,-749 z"/>
<path fill="#A99BBD" stroke="none" d="M 2449,3411 l -1040,409 17,40 18,40 20,38 21,38 964,-565 z"/>
<path fill="#91C3D5" stroke="none" d="M 2449,3411 l 0,-1117 -57,1 -57,5 -56,7 -55,10 -54,12 -53,15 -52,18 -51,20 -49,22 -49,25 -46,27 -46,29 -44,31 -42,33 -41,35 -38,37 -37,39 -36,40 -33,43 -31,43 -29,46 -27,47 -25,48 -22,49 -20,51 -18,52 -15,53 -12,54 -10,55 -7,56 -5,57 -1,57 1,52 4,53 6,52 9,51 11,51 13,51 16,50 18,49 1040,-409 z"/>
<path fill="#000000" stroke="none" d="M 3234,2617 l 178,-241 2,-1 41,0 0,6 -41,0 2,-1 -178,241 -4,-4 z m -1530,1627 l -184,230 -2,1 -41,0 0,-6 41,0 -2,1 184,-230 4,4 z m 1159,202 l 290,141 -1,0 42,0 0,6 -43,0 -290,-141 2,-6 z m -1313,-372 l -169,132 -2,1 -41,0 0,-6 41,0 -2,1 169,-132 4,4 z m 345,308 l -120,158 -2,1 -41,0 0,-6 41,0 -2,1 120,-158 4,4 z m -371,-1597 l -179,-90 1,0 -41,0 0,-6 42,0 179,90 -2,6 z m 2002,922 l 199,67 -1,0 41,0 0,6 -42,0 -199,-67 2,-6 z m -1377,780 l -63,146 -3,2 -41,0 0,-6 41,0 -3,2 63,-146 6,2 z m 1094,-291 l 64,84 -2,-1 41,0 0,6 -41,0 -2,-1 -64,-84 4,-4 z m -1797,-294 l -51,70 -2,1 -41,0 0,-6 41,0 -2,1 51,-70 4,4 z"/>
<text font-family="Calibri" font-size="92" fill="#000000"><tspan x="3470,3528,3576,3597,3628,3673,3722" y="2378">United </tspan><tspan x="3742,3784,3815,3859,3890,3935" y="2378">States</tspan><tspan x="3640,3687,3734" y="2490">25%</tspan><tspan x="3780,3829,3877,3897,3946" y="3777">China</tspan><tspan x="3829,3876" y="3889">9%</tspan><tspan x="3362,3385,3433,3481,3501" y="4282">India</tspan><tspan x="3397,3444" y="4394">7%</tspan><tspan x="3209,3266,3312,3344,3417,3460,3508" y="4591">Germany</tspan><tspan x="3323,3370" y="4703">6%</tspan><tspan x="2060,2119,2167,2187,2218,2264,2312" y="4647">United </tspan><tspan x="2333,2381,2401,2449,2493,2541,2589" y="4647">Kingdom</tspan><tspan x="2305,2352" y="4759">5%</tspan><tspan x="1779,1821,1853,1896,1944,1983" y="4653">France</tspan><tspan x="1848,1895" y="4765">5%</tspan><tspan x="1506,1536,1580,1628,1671" y="4538">Japan</tspan><tspan x="1557,1604" y="4650">3%</tspan><tspan x="1304,1327,1358,1401,1422" y="4473">Italy</tspan><tspan x="1328,1375" y="4585">3%</tspan><tspan x="1049,1098,1142,1190,1233,1281" y="4204">Canada</tspan><tspan x="1131,1178" y="4316">3%</tspan><tspan x="884,927,975,1023,1054,1102" y="3970">South </tspan><tspan x="1122,1170,1218,1250,1296" y="3970">Korea</tspan><tspan x="1056,1103" y="4082">3%</tspan><tspan x="1105,1166,1197,1245,1290" y="2580">Other</tspan><tspan x="1134,1180,1227" y="2692">31%</tspan></text>
<text font-family="Calibri" font-size="165" fill="#000000" font-weight="700"><tspan x="1550,1650,1738,1826" y="1706">App </tspan><tspan x="1863,1941,1997,2085,2141,2225" y="1706">Store </tspan><tspan x="2262,2360,2400,2465,2505,2562,2627" y="1706">Visits </tspan><tspan x="2666,2717,2801,2884,2968,3010,3094,3177,3261" y="1706">(132,656)</tspan><tspan x="1385,1437,1520" y="1907">(1/</tspan><tspan x="1591,1675" y="1907">1/</tspan><tspan x="1746,1829,1913,1996,2079" y="1907">2015 </tspan><tspan x="2116,2173,2261,2317,2405,2493,2571,2659" y="1907">through </tspan><tspan x="2699,2783" y="1907">2/</tspan><tspan x="2854,2937,3020" y="1907">10/</tspan><tspan x="3091,3175,3258,3342,3425" y="1907">2016)</tspan></text>
<path fill="#868686" stroke="none" d="M 404,1535 l 1,-3 3,-1 4083,0 2,1 1,3 0,3268 -1,2 -2,1 -4083,0 -3,-1 -1,-2 0,-3268 z m 7,3268 l -3,-4 4083,0 -4,4 0,-3268 4,3 -4083,0 3,-3 0,3268 z"/>
</g>
</svg>
