<?xml version="1.0" standalone="no"?>
<svg xml:space="preserve" width="100%" height="100%" viewBox="0 0 4897 6337" preserveAspectRatio="xMidYMid"
  fill-rule="nonzero" stroke-linecap="round" stroke-linejoin="round"
  xmlns="http://www.w3.org/2000/svg"
  xmlns:xlink="http://www.w3.org/1999/xlink"
  xmlns:svgmaker="http://www.svgmaker.com/svgns">
<svgmaker:init width="215.9mm" height="279.4mm" viewBox="0 0 4897 6337" view="fit"
  crop="none" cropWidth="180.3mm" cropHeight="128.3mm" cropBox="404 1713 4090 2911"/>
<title>Untitled</title>
<desc>
  Generated by SVGmaker V3 Version 3.61.E702.64
  MAY-16-2016, 08:23
</desc>
<defs><clipPath id="page_clip"><rect x="0" y="0" width="4897" height="6337"/></clipPath></defs>
<g id="Page_1" clip-path="url(#page_clip)" svgmaker:mediaBox="0 0 4897 6337">
<rect x="407" y="1716" width="4085" height="2906" fill="#FFFFFF" stroke="none"/>
<path fill="#4572A7" stroke="none" d="M 2449,3361 l 973,291 14,-50 11,-51 8,-50 6,-51 3,-50 1,-50 -2,-50 -4,-49 -7,-49 -8,-49 -12,-47 -13,-47 -16,-47 -18,-45 -20,-45 -22,-43 -24,-42 -26,-41 -28,-40 -30,-39 -32,-37 -34,-36 -35,-34 -37,-32 -39,-31 -41,-29 -42,-26 -44,-25 -45,-23 -47,-21 -48,-19 -50,-16 -36,-10 -36,-9 -36,-7 -36,-6 -37,-5 -37,-3 -37,-2 -37,-1 0,1016 z"/>
<path fill="#AA4643" stroke="none" d="M 2449,3361 l -259,982 50,12 49,9 50,7 50,4 49,2 49,-1 49,-3 48,-5 48,-8 47,-10 47,-12 45,-14 45,-16 45,-19 43,-20 42,-22 41,-25 40,-26 39,-28 37,-30 36,-32 34,-33 33,-35 32,-37 30,-38 27,-40 27,-42 24,-43 22,-44 20,-46 18,-47 16,-49 -973,-291 z"/>
<path fill="#89A54E" stroke="none" d="M 2449,3361 l -709,726 48,45 51,41 54,37 56,34 57,31 60,26 61,23 32,10 31,9 259,-982 z"/>
<path fill="#71588F" stroke="none" d="M 2449,3361 l -755,679 23,24 23,23 709,-726 z"/>
<path fill="#4198AF" stroke="none" d="M 2449,3361 l -786,643 31,36 755,-679 z"/>
<path fill="#DB843D" stroke="none" d="M 2449,3361 l -813,608 27,35 786,-643 z"/>
<path fill="#93A9CF" stroke="none" d="M 2449,3361 l -827,589 14,19 813,-608 z"/>
<path fill="#D19392" stroke="none" d="M 2449,3361 l -837,575 10,14 827,-589 z"/>
<path fill="#B9CD96" stroke="none" d="M 2449,3361 l -845,562 8,13 837,-575 z"/>
<path fill="#A99BBD" stroke="none" d="M 2449,3361 l -852,552 7,10 845,-562 z"/>
<path fill="#91C3D5" stroke="none" d="M 2449,3361 l 0,-1016 -52,1 -52,4 -51,7 -50,9 -49,11 -48,14 -47,16 -46,18 -45,20 -44,23 -42,24 -42,27 -39,28 -39,30 -37,32 -35,34 -33,35 -32,37 -30,38 -29,40 -26,41 -25,43 -22,44 -20,45 -18,46 -16,47 -14,48 -11,49 -9,50 -7,51 -4,52 -1,52 1,37 2,36 3,37 4,36 6,36 7,36 18,70 11,35 12,34 14,34 14,33 16,33 17,32 19,32 19,31 852,-552 z"/>
<path fill="#000000" stroke="none" d="M 1599,3920 l -519,-589 1,1 -36,0 0,-5 36,0 2,1 519,589 -3,3 z m 7,11 l -462,-433 1,1 -36,0 0,-5 36,0 2,1 462,433 -3,3 z m 73,93 l -749,224 -37,0 0,-5 36,0 749,-224 1,5 z m 39,41 l -423,366 -2,1 -36,0 0,-5 36,0 -1,1 423,-366 3,3 z m -102,-119 l -519,-242 1,0 -36,0 0,-5 38,0 519,242 -3,5 z m -61,-1069 l -219,-210 1,1 -36,0 0,-5 36,0 2,1 219,210 -3,3 z m 73,1085 l -736,-65 -36,0 0,-5 37,0 736,65 -1,5 z m 22,27 l -535,86 -36,0 0,-5 35,0 535,-86 1,5 z m 1613,-1237 l 288,-136 37,0 0,5 -36,0 2,0 -288,136 -3,-5 z m -315,1492 l 226,134 -2,0 35,0 0,5 -36,0 -226,-134 3,-5 z m -998,2 l -107,121 -2,1 -36,0 0,-5 36,0 -1,1 107,-121 3,3 z"/>
<text font-family="Calibri" font-size="79" fill="#000000"><tspan x="3561,3599,3641,3683,3721,3739" y="2522">google</tspan><tspan x="3601,3642,3683" y="2619">30%</tspan><tspan x="3220,3254,3290,3317,3359,3390,3424,3462,3504,3544,3563,3605,3633" y="4381">cytoscape.org</tspan><tspan x="3377,3418,3459" y="4478">25%</tspan><tspan x="1558,1582,1624,1642,1669,1709,1743,1770" y="4366">(direct)</tspan><tspan x="1627,1667" y="4464">8%</tspan><tspan x="521,563,601,628,669,726,764,800,834,876,940,1003,1045,1087,1118,1138,1180,1208" y="4430">pathwaycommons.org</tspan><tspan x="834,875" y="4527">1%</tspan><tspan x="701,742,780,798,840" y="4246">baidu</tspan><tspan x="742,783" y="4344">1%</tspan><tspan x="495,533,572,614,654,696,738,765,807,825,867,905,940,960,1002,1030" y="4072">geneontology.org</tspan><tspan x="732,773" y="4170">1%</tspan><tspan x="706,747,765,807" y="3895">bing</tspan><tspan x="727,767" y="3993">0%</tspan><tspan x="520,553,595,613,651,693,720,738,758,800,834,865,906,926,966,1008" y="3702">chianti.ucsd.edu</tspan><tspan x="736,777" y="3800">0%</tspan><tspan x="499,555,573,609,627,647,681,717,744,786,817,850,888,930,970,990,1032,1060" y="3496">wiki.cytoscape.org</tspan><tspan x="749,790" y="3594">0%</tspan><tspan x="557,599,663,681,715,741,783,825,843,874,894,928,970" y="3330">omictools.com</tspan><tspan x="746,787" y="3427">0%</tspan><tspan x="1132,1174,1201,1243,1283" y="2568">other</tspan><tspan x="1152,1193,1234" y="2666">34%</tspan></text>
<text font-family="Calibri" font-size="128" fill="#000000" font-weight="700"><tspan x="1045,1123,1191,1260" y="1850">App </tspan><tspan x="1288,1349,1392,1461,1505,1569" y="1850">Store </tspan><tspan x="1597,1667,1730,1769,1833,1878,1921,1984,2015" y="1850">Referral </tspan><tspan x="2044,2105,2174,2242,2286,2340,2404,2455" y="1850">Sources </tspan><tspan x="2483,2523,2587,2652,2717,2750,2815,2879,2944,2984" y="1850">(335,340) </tspan><tspan x="1203,1243,1308" y="2006">(6/</tspan><tspan x="1363,1428" y="2006">1/</tspan><tspan x="1483,1547,1612,1677,1742" y="2006">2012 </tspan><tspan x="1770,1814,1882,1926,1995,2064,2125,2194" y="2006">through </tspan><tspan x="2221,2286" y="2006">2/</tspan><tspan x="2341,2406,2471" y="2006">10/</tspan><tspan x="2526,2590,2655,2720,2785" y="2006">2016)</tspan></text>
<path fill="#868686" stroke="none" d="M 4492,1713 l 0,1 2,0 0,5 -4084,0 0,2900 -6,0 0,-2903 1,0 0,-1 1,0 0,-1 1,0 0,-1 4085,0 z"/>
<path fill="#868686" stroke="none" d="M 4494,1719 l 0,2905 -4089,0 0,-1 -1,0 0,-4 4085,0 0,-2900 5,0 z"/>
</g>
</svg>
