<?xml version="1.0" encoding="UTF-8" standalone="no"?>
<svg width="3238px" height="2184px" viewBox="0 0 3238 2184" version="1.1" xmlns="http://www.w3.org/2000/svg" xmlns:xlink="http://www.w3.org/1999/xlink">
    <!-- Generator: Sketch 3.7.2 (28276) - http://www.bohemiancoding.com/sketch -->
    <title>App_Store_Referral_Sources_Total</title>
    <desc>Created with Sketch.</desc>
    <defs></defs>
    <g id="Page-1" stroke="none" stroke-width="1" fill="none" fill-rule="evenodd">
        <g id="App_Store_Referral_Sources_Total" transform="translate(-1.000000, 0.000000)">
            <g id="Page_1-Clipped">
                <g id="Page_1">
                    <polygon id="Shape" fill="#4572A7" points="1954 1016 2927 1307 2941 1257 2952 1206 2960 1156 2966 1105 2969 1055 2970 1005 2968 955 2964 906 2957 857 2949 808 2937 761 2924 714 2908 667 2890 622 2870 577 2848 534 2824 492 2798 451 2770 411 2740 372 2708 335 2674 299 2639 265 2602 233 2563 202 2522 173 2480 147 2436 122 2391 99 2344 78 2296 59 2246 43 2210 33 2174 24 2138 17 2102 11 2065 6 2028 3 1991 1 1954 0"></polygon>
                    <polygon id="Shape" fill="#AA4643" points="1954 1016 1695 1998 1745 2010 1794 2019 1844 2026 1894 2030 1943 2032 1992 2031 2041 2028 2089 2023 2137 2015 2184 2005 2231 1993 2276 1979 2321 1963 2366 1944 2409 1924 2451 1902 2492 1877 2532 1851 2571 1823 2608 1793 2644 1761 2678 1728 2711 1693 2743 1656 2773 1618 2800 1578 2827 1536 2851 1493 2873 1449 2893 1403 2911 1356 2927 1307"></polygon>
                    <polygon id="Shape" fill="#89A54E" points="1954 1016 1245 1742 1293 1787 1344 1828 1398 1865 1454 1899 1511 1930 1571 1956 1632 1979 1664 1989 1695 1998"></polygon>
                    <polygon id="Shape" fill="#71588F" points="1954 1016 1199 1695 1222 1719 1245 1742"></polygon>
                    <polygon id="Shape" fill="#4198AF" points="1954 1016 1168 1659 1199 1695"></polygon>
                    <polygon id="Shape" fill="#DB843D" points="1954 1016 1141 1624 1168 1659"></polygon>
                    <polygon id="Shape" fill="#93A9CF" points="1954 1016 1127 1605 1141 1624"></polygon>
                    <polygon id="Shape" fill="#D19392" points="1954 1016 1117 1591 1127 1605"></polygon>
                    <polygon id="Shape" fill="#B9CD96" points="1954 1016 1109 1578 1117 1591"></polygon>
                    <polygon id="Shape" fill="#A99BBD" points="1954 1016 1102 1568 1109 1578"></polygon>
                    <polygon id="Shape" fill="#91C3D5" points="1954 1016 1954 0 1902 1 1850 5 1799 12 1749 21 1700 32 1652 46 1605 62 1559 80 1514 100 1470 123 1428 147 1386 174 1347 202 1308 232 1271 264 1236 298 1203 333 1171 370 1141 408 1112 448 1086 489 1061 532 1039 576 1019 621 1001 667 985 714 971 762 960 811 951 861 944 912 940 964 939 1016 940 1053 942 1089 945 1126 949 1162 955 1198 962 1234 980 1304 991 1339 1003 1373 1017 1407 1031 1440 1047 1473 1064 1505 1083 1537 1102 1568"></polygon>
                    <path d="M1104,1575 L585,986 L586,987 L550,987 L550,982 L586,982 L588,983 L1107,1572 L1104,1575 L1104,1575 Z M1111,1586 L649,1153 L650,1154 L614,1154 L614,1149 L650,1149 L652,1150 L1114,1583 L1111,1586 L1111,1586 Z M1184,1679 L435,1903 L398,1903 L398,1898 L434,1898 L1183,1674 L1184,1679 L1184,1679 Z M1223,1720 L800,2086 L798,2087 L762,2087 L762,2082 L798,2082 L797,2083 L1220,1717 L1223,1720 L1223,1720 Z M1121,1601 L602,1359 L603,1359 L567,1359 L567,1354 L605,1354 L1124,1596 L1121,1601 L1121,1601 Z M1060,532 L841,322 L842,323 L806,323 L806,318 L842,318 L844,319 L1063,529 L1060,532 L1060,532 Z M1133,1617 L397,1552 L361,1552 L361,1547 L398,1547 L1134,1612 L1133,1617 L1133,1617 Z M1155,1644 L620,1730 L584,1730 L584,1725 L619,1725 L1154,1639 L1155,1644 L1155,1644 Z M2768,407 L3056,271 L3093,271 L3093,276 L3057,276 L3059,276 L2771,412 L2768,407 L2768,407 Z M2453,1899 L2679,2033 L2677,2033 L2712,2033 L2712,2038 L2676,2038 L2450,1904 L2453,1899 L2453,1899 Z M1455,1901 L1348,2022 L1346,2023 L1310,2023 L1310,2018 L1346,2018 L1345,2019 L1452,1898 L1455,1901 L1455,1901 Z" id="Shape" fill="#000000"></path>
                    <text id="google" fill="#000000" font-family="Calibri" font-size="64.7168" font-weight="normal">
                        <tspan x="3066" y="177">google</tspan>
                    </text>
                    <text id="30%" fill="#000000" font-family="Calibri" font-size="64.7168" font-weight="normal">
                        <tspan x="3106" y="274">30%</tspan>
                    </text>
                    <text id="cytoscape.org" fill="#000000" font-family="Calibri" font-size="64.7168" font-weight="normal">
                        <tspan x="2725" y="2036">cytoscape.org</tspan>
                    </text>
                    <text id="25%" fill="#000000" font-family="Calibri" font-size="64.7168" font-weight="normal">
                        <tspan x="2882" y="2133">25%</tspan>
                    </text>
                    <text id="(direct)" fill="#000000" font-family="Calibri" font-size="64.7168" font-weight="normal">
                        <tspan x="1063" y="2021">(direct)</tspan>
                    </text>
                    <text id="8%" fill="#000000" font-family="Calibri" font-size="64.7168" font-weight="normal">
                        <tspan x="1132" y="2119">8%</tspan>
                    </text>
                    <text id="pathwaycommons.org" fill="#000000" font-family="Calibri" font-size="64.7168" font-weight="normal">
                        <tspan x="26" y="2085">pathwaycommons.org</tspan>
                    </text>
                    <text id="1%" fill="#000000" font-family="Calibri" font-size="64.7168" font-weight="normal">
                        <tspan x="339" y="2182">1%</tspan>
                    </text>
                    <text id="baidu" fill="#000000" font-family="Calibri" font-size="64.7168" font-weight="normal">
                        <tspan x="206" y="1901">baidu</tspan>
                    </text>
                    <text id="1%" fill="#000000" font-family="Calibri" font-size="64.7168" font-weight="normal">
                        <tspan x="247" y="1999">1%</tspan>
                    </text>
                    <text id="geneontology.org" fill="#000000" font-family="Calibri" font-size="64.7168" font-weight="normal">
                        <tspan x="0" y="1727">geneontology.org</tspan>
                    </text>
                    <text id="1%" fill="#000000" font-family="Calibri" font-size="64.7168" font-weight="normal">
                        <tspan x="237" y="1825">1%</tspan>
                    </text>
                    <text id="bing" fill="#000000" font-family="Calibri" font-size="64.7168" font-weight="normal">
                        <tspan x="211" y="1550">bing</tspan>
                    </text>
                    <text id="0%" fill="#000000" font-family="Calibri" font-size="64.7168" font-weight="normal">
                        <tspan x="232" y="1648">0%</tspan>
                    </text>
                    <text id="chianti.ucsd.edu" fill="#000000" font-family="Calibri" font-size="64.7168" font-weight="normal">
                        <tspan x="25" y="1357">chianti.ucsd.edu</tspan>
                    </text>
                    <text id="0%" fill="#000000" font-family="Calibri" font-size="64.7168" font-weight="normal">
                        <tspan x="241" y="1455">0%</tspan>
                    </text>
                    <text id="wiki.cytoscape.org" fill="#000000" font-family="Calibri" font-size="64.7168" font-weight="normal">
                        <tspan x="4" y="1151">wiki.cytoscape.org</tspan>
                    </text>
                    <text id="0%" fill="#000000" font-family="Calibri" font-size="64.7168" font-weight="normal">
                        <tspan x="254" y="1249">0%</tspan>
                    </text>
                    <text id="omictools.com" fill="#000000" font-family="Calibri" font-size="64.7168" font-weight="normal">
                        <tspan x="62" y="985">omictools.com</tspan>
                    </text>
                    <text id="0%" fill="#000000" font-family="Calibri" font-size="64.7168" font-weight="normal">
                        <tspan x="251" y="1082">0%</tspan>
                    </text>
                    <text id="other" fill="#000000" font-family="Calibri" font-size="64.7168" font-weight="normal">
                        <tspan x="637" y="223">other</tspan>
                    </text>
                    <text id="34%" fill="#000000" font-family="Calibri" font-size="64.7168" font-weight="normal">
                        <tspan x="657" y="321">34%</tspan>
                    </text>
                </g>
            </g>
        </g>
    </g>
</svg>