<?xml version="1.0" standalone="no"?>
<svg xml:space="preserve" width="100%" height="100%" viewBox="0 0 4897 6337" preserveAspectRatio="xMidYMid"
  fill-rule="nonzero" stroke-linecap="round" stroke-linejoin="round"
  xmlns="http://www.w3.org/2000/svg"
  xmlns:xlink="http://www.w3.org/1999/xlink"
  xmlns:svgmaker="http://www.svgmaker.com/svgns">
<svgmaker:init width="215.9mm" height="279.4mm" viewBox="0 0 4897 6337" view="fit"
  crop="none" cropWidth="180.3mm" cropHeight="128.3mm" cropBox="404 1713 4090 2911"/>
<title>Untitled</title>
<desc>
  Generated by SVGmaker V3 Version 3.61.E702.64
  MAY-16-2016, 08:24
</desc>
<defs><clipPath id="page_clip"><rect x="0" y="0" width="4897" height="6337"/></clipPath></defs>
<g id="Page_1" clip-path="url(#page_clip)" svgmaker:mediaBox="0 0 4897 6337">
<rect x="407" y="1716" width="4085" height="2906" fill="#FFFFFF" stroke="none"/>
<path fill="#4572A7" stroke="none" d="M 2449,3361 l 909,453 22,-47 20,-48 17,-49 14,-48 12,-49 9,-50 7,-49 4,-49 2,-50 0,-49 -3,-49 -5,-49 -8,-48 -10,-48 -12,-47 -14,-46 -17,-46 -18,-45 -21,-44 -23,-44 -25,-42 -27,-40 -30,-40 -31,-38 -33,-37 -35,-35 -37,-34 -39,-32 -41,-31 -42,-28 -45,-26 -46,-25 -53,-25 -55,-21 -56,-19 -57,-15 -57,-12 -58,-8 -59,-5 -59,-2 0,1016 z"/>
<path fill="#AA4643" stroke="none" d="M 2449,3361 l 63,1013 34,-3 33,-3 34,-5 33,-6 32,-7 33,-8 32,-9 31,-10 31,-11 31,-12 60,-27 58,-31 56,-35 54,-38 51,-41 48,-45 45,-48 43,-51 39,-54 36,-57 32,-59 -909,-453 z"/>
<path fill="#89A54E" stroke="none" d="M 2449,3361 l -455,908 30,15 31,13 62,24 64,20 32,8 33,7 33,6 33,5 33,4 33,3 33,2 67,0 34,-2 -63,-1013 z"/>
<path fill="#71588F" stroke="none" d="M 2449,3361 l -534,863 39,23 40,22 455,-908 z"/>
<path fill="#4198AF" stroke="none" d="M 2449,3361 l -596,822 31,21 31,20 534,-863 z"/>
<path fill="#DB843D" stroke="none" d="M 2449,3361 l -653,777 28,23 29,22 596,-822 z"/>
<path fill="#93A9CF" stroke="none" d="M 2449,3361 l -675,758 22,19 653,-777 z"/>
<path fill="#D19392" stroke="none" d="M 2449,3361 l -692,743 17,15 675,-758 z"/>
<path fill="#B9CD96" stroke="none" d="M 2449,3361 l -705,731 13,12 692,-743 z"/>
<path fill="#A99BBD" stroke="none" d="M 2449,3361 l -716,719 11,12 705,-731 z"/>
<path fill="#91C3D5" stroke="none" d="M 2449,3361 l 0,-1016 -52,1 -52,4 -51,7 -50,9 -49,11 -48,14 -47,16 -46,18 -45,20 -44,23 -42,24 -42,27 -39,28 -39,30 -37,32 -35,34 -33,35 -32,37 -30,38 -29,40 -26,41 -25,43 -22,44 -20,45 -18,46 -16,47 -14,48 -11,49 -9,50 -7,51 -4,52 -1,52 1,51 4,50 6,49 9,50 11,48 13,48 16,47 18,47 20,45 22,44 25,43 26,43 29,40 31,40 33,38 35,36 716,-719 z"/>
<path fill="#000000" stroke="none" d="M 1737,4088 l -415,-347 1,1 -36,0 0,-5 36,0 2,1 415,347 -3,3 z m 13,12 l -647,-170 -36,0 0,-5 37,0 647,170 -1,5 z m 135,107 l -347,246 -38,0 0,-5 36,0 -1,0 347,-246 3,5 z m -60,-44 l -371,180 -37,0 0,-5 35,0 -1,0 371,-180 3,5 z m -316,-1188 l -222,-192 1,1 -36,0 0,-5 36,0 2,1 222,192 -3,3 z m 1804,-151 l 291,-119 36,0 0,5 -36,0 1,0 -291,119 -1,-5 z m -1066,1529 l 283,118 -1,0 36,0 0,5 -36,0 -283,-118 1,-5 z m 765,-148 l 229,132 -2,0 36,0 0,5 -37,0 -229,-132 3,-5 z m -1227,-74 l -362,43 -37,0 0,-5 36,0 362,-43 1,5 z m -20,-17 l -495,-4 -36,0 0,-5 37,0 495,4 -1,5 z m 192,133 l 0,150 -5,0 0,-150 5,0 z"/>
<text font-family="Calibri" font-size="79" fill="#000000"><tspan x="3613,3651,3693,3734,3772,3790" y="2611">google</tspan><tspan x="3653,3694,3734" y="2708">32%</tspan><tspan x="3288,3322,3358,3384,3426,3457,3491,3529,3571,3611,3631,3673,3701" y="4340">cytoscape.org</tspan><tspan x="3444,3485,3526" y="4438">17%</tspan><tspan x="2578,2602,2644,2662,2690,2730,2764,2790" y="4490">(direct)</tspan><tspan x="2647,2688" y="4588">8%</tspan><tspan x="1577,1618,1656,1683,1725,1782,1820,1856,1890,1931,1995,2059,2101,2143,2174,2194,2236,2264" y="4491">pathwaycommons.org</tspan><tspan x="1890,1930" y="4589">2%</tspan><tspan x="1307,1349,1387,1405,1446" y="4451">baidu</tspan><tspan x="1349,1390" y="4549">1%</tspan><tspan x="833,871,911,952,992,1034,1076,1103,1145,1163,1205,1243,1278,1298,1340,1368" y="4341">geneontology.org</tspan><tspan x="1070,1111" y="4438">1%</tspan><tspan x="1236,1278,1295,1337" y="4172">bing</tspan><tspan x="1257,1297" y="4269">1%</tspan><tspan x="746,788,852,870,904,930,972,1014,1032,1063,1083,1117,1159" y="4108">omictools.com</tspan><tspan x="935,976" y="4206">0%</tspan><tspan x="772,814,832,858,896,916,950,992" y="3928">qita.com</tspan><tspan x="864,905" y="4026">0%</tspan><tspan x="676,733,751,787,805,825,859,894,921,963,994,1028,1066,1108,1148,1168,1210,1237" y="3739">wiki.cytoscape.org</tspan><tspan x="926,967" y="3837">0%</tspan><tspan x="1083,1125,1152,1194,1234" y="2684">other</tspan><tspan x="1103,1144,1185" y="2782">38%</tspan></text>
<text font-family="Calibri" font-size="128" fill="#000000" font-weight="700"><tspan x="1045,1123,1191,1260" y="1850">App </tspan><tspan x="1288,1349,1392,1461,1505,1569" y="1850">Store </tspan><tspan x="1597,1667,1730,1769,1833,1878,1921,1984,2015" y="1850">Referral </tspan><tspan x="2044,2105,2174,2242,2286,2340,2404,2455" y="1850">Sources </tspan><tspan x="2483,2523,2587,2652,2717,2750,2815,2879,2944,2984" y="1850">(132,656) </tspan><tspan x="1203,1243,1308" y="2006">(1/</tspan><tspan x="1363,1428" y="2006">1/</tspan><tspan x="1483,1547,1612,1677,1742" y="2006">2015 </tspan><tspan x="1770,1814,1882,1926,1995,2064,2125,2194" y="2006">through </tspan><tspan x="2221,2286" y="2006">2/</tspan><tspan x="2341,2406,2471" y="2006">10/</tspan><tspan x="2526,2590,2655,2720,2785" y="2006">2016)</tspan></text>
<path fill="#868686" stroke="none" d="M 4492,1713 l 0,1 2,0 0,5 -4084,0 0,2900 -6,0 0,-2903 1,0 0,-1 1,0 0,-1 1,0 0,-1 4085,0 z"/>
<path fill="#868686" stroke="none" d="M 4494,1719 l 0,2905 -4089,0 0,-1 -1,0 0,-4 4085,0 0,-2900 5,0 z"/>
</g>
</svg>
