<?xml version="1.0" encoding="UTF-8" standalone="no"?>
<svg width="3146px" height="2246px" viewBox="0 0 3146 2246" version="1.1" xmlns="http://www.w3.org/2000/svg" xmlns:xlink="http://www.w3.org/1999/xlink">
    <!-- Generator: Sketch 3.8.3 (29802) - http://www.bohemiancoding.com/sketch -->
    <title>App_Store_Referral_Sources_Prior_Year</title>
    <desc>Created with Sketch.</desc>
    <defs></defs>
    <g id="Page-1" stroke="none" stroke-width="1" fill="none" fill-rule="evenodd">
        <g id="App_Store_Referral_Sources_Prior_Year" transform="translate(-2.000000, 0.000000)">
            <g id="Page_1-Clipped">
                <g id="Page_1">
                    <polygon id="Shape" fill="#4572A7" points="1773 1016 2682 1469 2704 1422 2724 1374 2741 1325 2755 1277 2767 1228 2776 1178 2783 1129 2787 1080 2789 1030 2789 981 2786 932 2781 883 2773 835 2763 787 2751 740 2737 694 2720 648 2702 603 2681 559 2658 515 2633 473 2606 433 2576 393 2545 355 2512 318 2477 283 2440 249 2401 217 2360 186 2318 158 2273 132 2227 107 2174 82 2119 61 2063 42 2006 27 1949 15 1891 7 1832 2 1773 0"></polygon>
                    <polygon id="Shape" fill="#AA4643" points="1773 1016 1836 2029 1870 2026 1903 2023 1937 2018 1970 2012 2002 2005 2035 1997 2067 1988 2098 1978 2129 1967 2160 1955 2220 1928 2278 1897 2334 1862 2388 1824 2439 1783 2487 1738 2532 1690 2575 1639 2614 1585 2650 1528 2682 1469"></polygon>
                    <polygon id="Shape" fill="#89A54E" points="1773 1016 1318 1924 1348 1939 1379 1952 1441 1976 1505 1996 1537 2004 1570 2011 1603 2017 1636 2022 1669 2026 1702 2029 1735 2031 1802 2031 1836 2029"></polygon>
                    <polygon id="Shape" fill="#71588F" points="1773 1016 1239 1879 1278 1902 1318 1924"></polygon>
                    <polygon id="Shape" fill="#4198AF" points="1773 1016 1177 1838 1208 1859 1239 1879"></polygon>
                    <polygon id="Shape" fill="#DB843D" points="1773 1016 1120 1793 1148 1816 1177 1838"></polygon>
                    <polygon id="Shape" fill="#93A9CF" points="1773 1016 1098 1774 1120 1793"></polygon>
                    <polygon id="Shape" fill="#D19392" points="1773 1016 1081 1759 1098 1774"></polygon>
                    <polygon id="Shape" fill="#B9CD96" points="1773 1016 1068 1747 1081 1759"></polygon>
                    <polygon id="Shape" fill="#A99BBD" points="1773 1016 1057 1735 1068 1747"></polygon>
                    <polygon id="Shape" fill="#91C3D5" points="1773 1016 1773 0 1721 1 1669 5 1618 12 1568 21 1519 32 1471 46 1424 62 1378 80 1333 100 1289 123 1247 147 1205 174 1166 202 1127 232 1090 264 1055 298 1022 333 990 370 960 408 931 448 905 489 880 532 858 576 838 621 820 667 804 714 790 762 779 811 770 861 763 912 759 964 758 1016 759 1067 763 1117 769 1166 778 1216 789 1264 802 1312 818 1359 836 1406 856 1451 878 1495 903 1538 929 1581 958 1621 989 1661 1022 1699 1057 1735"></polygon>
                    <path d="M1061,1743 L646,1396 L647,1397 L611,1397 L611,1392 L647,1392 L649,1393 L1064,1740 L1061,1743 L1061,1743 Z M1074,1755 L427,1585 L391,1585 L391,1580 L428,1580 L1075,1750 L1074,1755 L1074,1755 Z M1209,1862 L862,2108 L824,2108 L824,2103 L860,2103 L859,2103 L1206,1857 L1209,1862 L1209,1862 Z M1149,1818 L778,1998 L741,1998 L741,1993 L776,1993 L775,1993 L1146,1813 L1149,1818 L1149,1818 Z M833,630 L611,438 L612,439 L576,439 L576,434 L612,434 L614,435 L836,627 L833,630 L833,630 Z M2637,479 L2928,360 L2964,360 L2964,365 L2928,365 L2929,365 L2638,484 L2637,479 L2637,479 Z M1571,2008 L1854,2126 L1853,2126 L1889,2126 L1889,2131 L1853,2131 L1570,2013 L1571,2008 L1571,2008 Z M2336,1860 L2565,1992 L2563,1992 L2599,1992 L2599,1997 L2562,1997 L2333,1865 L2336,1860 L2336,1860 Z M1109,1786 L747,1829 L710,1829 L710,1824 L746,1824 L1108,1781 L1109,1786 L1109,1786 Z M1089,1769 L594,1765 L558,1765 L558,1760 L595,1760 L1090,1764 L1089,1769 L1089,1769 Z M1281,1902 L1281,2052 L1276,2052 L1276,1902 L1281,1902 L1281,1902 Z" id="Shape" fill="#000000"></path>
                    <text id="google" fill="#000000" font-family="Calibri" font-size="79" font-weight="normal">
                        <tspan x="2937" y="266">google</tspan>
                    </text>
                    <text id="32%" fill="#000000" font-family="Calibri" font-size="79" font-weight="normal">
                        <tspan x="2977" y="363">32%</tspan>
                    </text>
                    <text id="cytoscape.org" fill="#000000" font-family="Calibri" font-size="79" font-weight="normal">
                        <tspan x="2612" y="1995">cytoscape.org</tspan>
                    </text>
                    <text id="17%" fill="#000000" font-family="Calibri" font-size="79" font-weight="normal">
                        <tspan x="2768" y="2093">17%</tspan>
                    </text>
                    <text id="(direct)" fill="#000000" font-family="Calibri" font-size="79" font-weight="normal">
                        <tspan x="1902" y="2145">(direct)</tspan>
                    </text>
                    <text id="8%" fill="#000000" font-family="Calibri" font-size="79" font-weight="normal">
                        <tspan x="1971" y="2243">8%</tspan>
                    </text>
                    <text id="pathwaycommons.org" fill="#000000" font-family="Calibri" font-size="79" font-weight="normal">
                        <tspan x="901" y="2146">pathwaycommons.org</tspan>
                    </text>
                    <text id="2%" fill="#000000" font-family="Calibri" font-size="79" font-weight="normal">
                        <tspan x="1214" y="2244">2%</tspan>
                    </text>
                    <text id="baidu" fill="#000000" font-family="Calibri" font-size="79" font-weight="normal">
                        <tspan x="631" y="2106">baidu</tspan>
                    </text>
                    <text id="1%" fill="#000000" font-family="Calibri" font-size="79" font-weight="normal">
                        <tspan x="673" y="2204">1%</tspan>
                    </text>
                    <text id="geneontology.org" fill="#000000" font-family="Calibri" font-size="79" font-weight="normal">
                        <tspan x="157" y="1996">geneontology.org</tspan>
                    </text>
                    <text id="1%" fill="#000000" font-family="Calibri" font-size="79" font-weight="normal">
                        <tspan x="394" y="2093">1%</tspan>
                    </text>
                    <text id="bing" fill="#000000" font-family="Calibri" font-size="79" font-weight="normal">
                        <tspan x="560" y="1827">bing</tspan>
                    </text>
                    <text id="1%" fill="#000000" font-family="Calibri" font-size="79" font-weight="normal">
                        <tspan x="581" y="1924">1%</tspan>
                    </text>
                    <text id="omictools.com" fill="#000000" font-family="Calibri" font-size="79" font-weight="normal">
                        <tspan x="70" y="1763">omictools.com</tspan>
                    </text>
                    <text id="0%" fill="#000000" font-family="Calibri" font-size="79" font-weight="normal">
                        <tspan x="259" y="1861">0%</tspan>
                    </text>
                    <text id="qita.com" fill="#000000" font-family="Calibri" font-size="79" font-weight="normal">
                        <tspan x="96" y="1583">qita.com</tspan>
                    </text>
                    <text id="0%" fill="#000000" font-family="Calibri" font-size="79" font-weight="normal">
                        <tspan x="188" y="1681">0%</tspan>
                    </text>
                    <text id="wiki.cytoscape.org" fill="#000000" font-family="Calibri" font-size="79" font-weight="normal">
                        <tspan x="0" y="1394">wiki.cytoscape.org</tspan>
                    </text>
                    <text id="0%" fill="#000000" font-family="Calibri" font-size="79" font-weight="normal">
                        <tspan x="250" y="1492">0%</tspan>
                    </text>
                    <text id="other" fill="#000000" font-family="Calibri" font-size="79" font-weight="normal">
                        <tspan x="407" y="339">other</tspan>
                    </text>
                    <text id="38%" fill="#000000" font-family="Calibri" font-size="79" font-weight="normal">
                        <tspan x="427" y="437">38%</tspan>
                    </text>
                </g>
            </g>
        </g>
    </g>
</svg>