<?xml version="1.0" encoding="UTF-8" standalone="no"?>
<svg width="3105px" height="2467px" viewBox="0 0 3105 2467" version="1.1" xmlns="http://www.w3.org/2000/svg" xmlns:xlink="http://www.w3.org/1999/xlink">
    <!-- Generator: Sketch 3.7.2 (28276) - http://www.bohemiancoding.com/sketch -->
    <title>App_Store_Visits_Total</title>
    <desc>Created with Sketch.</desc>
    <defs></defs>
    <g id="Page-1" stroke="none" stroke-width="1" fill="none" fill-rule="evenodd">
        <g id="App_Store_Visits_Total" transform="translate(-2.000000, 0.000000)">
            <g id="Page_1-Clipped">
                <g id="Page_1">
                    <polygon id="Shape" fill="#4572A7" points="1618 1117 2734 1143 2734 1086 2731 1029 2725 973 2717 917 2706 863 2692 810 2675 757 2657 706 2635 656 2612 607 2586 560 2558 514 2528 469 2496 426 2462 385 2426 345 2388 308 2348 271 2306 237 2263 205 2219 175 2172 147 2125 121 2076 98 2026 77 1974 58 1921 42 1868 28 1813 17 1757 8 1700 3 1643 0 1618 0"></polygon>
                    <polygon id="Shape" fill="#AA4643" points="1618 1117 2556 1722 2596 1656 2614 1622 2631 1588 2646 1553 2661 1517 2674 1481 2686 1445 2696 1408 2714 1334 2726 1258 2730 1220 2733 1182 2734 1143"></polygon>
                    <polygon id="Shape" fill="#89A54E" points="1618 1117 2231 2051 2279 2018 2325 1982 2369 1944 2411 1903 2451 1861 2488 1817 2523 1770 2556 1722"></polygon>
                    <polygon id="Shape" fill="#71588F" points="1618 1117 1809 2218 1865 2207 1920 2192 1975 2175 2028 2156 2081 2133 2132 2108 2182 2081 2231 2051"></polygon>
                    <polygon id="Shape" fill="#4198AF" points="1618 1117 1405 2214 1455 2222 1505 2228 1556 2232 1607 2234 1657 2233 1708 2231 1759 2225 1809 2218"></polygon>
                    <polygon id="Shape" fill="#DB843D" points="1618 1117 1053 2081 1094 2104 1137 2125 1180 2145 1223 2163 1268 2178 1313 2192 1359 2204 1405 2214"></polygon>
                    <polygon id="Shape" fill="#93A9CF" points="1618 1117 856 1934 902 1975 950 2013 1001 2048 1053 2081"></polygon>
                    <polygon id="Shape" fill="#D19392" points="1618 1117 706 1762 740 1808 777 1852 815 1894 856 1934"></polygon>
                    <polygon id="Shape" fill="#B9CD96" points="1618 1117 598 1573 621 1622 647 1670 676 1717 706 1762"></polygon>
                    <polygon id="Shape" fill="#A99BBD" points="1618 1117 535 1393 548 1439 563 1484 579 1529 598 1573"></polygon>
                    <polygon id="Shape" fill="#91C3D5" points="1618 1117 1618 0 1561 1 1504 6 1448 13 1393 23 1339 35 1286 50 1234 68 1183 88 1134 110 1085 135 1039 162 993 191 949 222 907 255 866 290 828 327 791 366 755 406 722 449 691 492 662 538 635 585 610 633 588 682 568 733 550 785 535 838 523 892 513 947 506 1003 501 1060 500 1117 502 1187 505 1221 509 1256 514 1291 520 1325 527 1359 535 1393"></polygon>
                    <path d="M2415,334 L2593,97 L2595,96 L2636,96 L2636,102 L2595,102 L2597,101 L2419,338 L2415,334 L2415,334 Z M778,1854 L589,2065 L587,2066 L546,2066 L546,2060 L587,2060 L585,2061 L774,1850 L778,1854 L778,1854 Z M2030,2153 L2318,2294 L2317,2294 L2358,2294 L2358,2300 L2316,2300 L2028,2159 L2030,2153 L2030,2153 Z M953,2015 L828,2170 L826,2171 L784,2171 L784,2165 L826,2165 L824,2166 L949,2011 L953,2015 L953,2015 Z M1226,2163 L1134,2339 L1131,2341 L1090,2341 L1090,2335 L1131,2335 L1128,2337 L1220,2161 L1226,2163 L1226,2163 Z M649,1673 L477,1780 L434,1780 L434,1774 L475,1774 L473,1774 L645,1667 L649,1673 L649,1673 Z M733,434 L557,330 L559,330 L517,330 L517,324 L561,324 L737,428 L733,434 L733,434 Z M2686,1442 L2885,1513 L2884,1513 L2925,1513 L2925,1519 L2883,1519 L2684,1448 L2686,1442 L2686,1442 Z M2413,1901 L2477,1985 L2475,1984 L2517,1984 L2517,1990 L2475,1990 L2473,1989 L2409,1905 L2413,1901 L2413,1901 Z M564,1486 L511,1534 L509,1535 L468,1535 L468,1529 L509,1529 L507,1530 L560,1482 L564,1486 L564,1486 Z" id="Shape" fill="#000000"></path>
                    <text id="United" fill="#000000" font-family="Calibri" font-size="75.3664" font-weight="normal">
                        <tspan x="2651" y="99">United</tspan>
                    </text>
                    <text id="States" fill="#000000" font-family="Calibri" font-size="75.3664" font-weight="normal">
                        <tspan x="2923" y="99">States</tspan>
                    </text>
                    <text id="25%" fill="#000000" font-family="Calibri" font-size="75.3664" font-weight="normal">
                        <tspan x="2821" y="211">25%</tspan>
                    </text>
                    <text id="China" fill="#000000" font-family="Calibri" font-size="75.3664" font-weight="normal">
                        <tspan x="2940" y="1516">China</tspan>
                    </text>
                    <text id="9%" fill="#000000" font-family="Calibri" font-size="75.3664" font-weight="normal">
                        <tspan x="2989" y="1628">9%</tspan>
                    </text>
                    <text id="France" fill="#000000" font-family="Calibri" font-size="75.3664" font-weight="normal">
                        <tspan x="2531" y="1987">France</tspan>
                    </text>
                    <text id="7%" fill="#000000" font-family="Calibri" font-size="75.3664" font-weight="normal">
                        <tspan x="2601" y="2099">7%</tspan>
                    </text>
                    <text id="India" fill="#000000" font-family="Calibri" font-size="75.3664" font-weight="normal">
                        <tspan x="2374" y="2298">India</tspan>
                    </text>
                    <text id="7%" fill="#000000" font-family="Calibri" font-size="75.3664" font-weight="normal">
                        <tspan x="2409" y="2410">7%</tspan>
                    </text>
                    <text id="United" fill="#000000" font-family="Calibri" font-size="75.3664" font-weight="normal">
                        <tspan x="1135" y="2353">United</tspan>
                    </text>
                    <text id="Kingdom" fill="#000000" font-family="Calibri" font-size="75.3664" font-weight="normal">
                        <tspan x="1407" y="2353">Kingdom</tspan>
                    </text>
                    <text id="6%" fill="#000000" font-family="Calibri" font-size="75.3664" font-weight="normal">
                        <tspan x="1380" y="2465">6%</tspan>
                    </text>
                    <text id="Germany" fill="#000000" font-family="Calibri" font-size="75.3664" font-weight="normal">
                        <tspan x="736" y="2351">Germany</tspan>
                    </text>
                    <text id="5%" fill="#000000" font-family="Calibri" font-size="75.3664" font-weight="normal">
                        <tspan x="851" y="2463">5%</tspan>
                    </text>
                    <text id="Italy" fill="#000000" font-family="Calibri" font-size="75.3664" font-weight="normal">
                        <tspan x="612" y="2168">Italy</tspan>
                    </text>
                    <text id="3%" fill="#000000" font-family="Calibri" font-size="75.3664" font-weight="normal">
                        <tspan x="636" y="2280">3%</tspan>
                    </text>
                    <text id="Japan" fill="#000000" font-family="Calibri" font-size="75.3664" font-weight="normal">
                        <tspan x="321" y="2063">Japan</tspan>
                    </text>
                    <text id="3%" fill="#000000" font-family="Calibri" font-size="75.3664" font-weight="normal">
                        <tspan x="371" y="2175">3%</tspan>
                    </text>
                    <text id="Canada" fill="#000000" font-family="Calibri" font-size="75.3664" font-weight="normal">
                        <tspan x="145" y="1777">Canada</tspan>
                    </text>
                    <text id="3%" fill="#000000" font-family="Calibri" font-size="75.3664" font-weight="normal">
                        <tspan x="227" y="1890">3%</tspan>
                    </text>
                    <text id="South" fill="#000000" font-family="Calibri" font-size="75.3664" font-weight="normal">
                        <tspan x="0" y="1532">South</tspan>
                    </text>
                    <text id="Korea" fill="#000000" font-family="Calibri" font-size="75.3664" font-weight="normal">
                        <tspan x="238" y="1532">Korea</tspan>
                    </text>
                    <text id="3%" fill="#000000" font-family="Calibri" font-size="75.3664" font-weight="normal">
                        <tspan x="172" y="1644">3%</tspan>
                    </text>
                    <text id="Other" fill="#000000" font-family="Calibri" font-size="75.3664" font-weight="normal">
                        <tspan x="317" y="215">Other</tspan>
                    </text>
                    <text id="29%" fill="#000000" font-family="Calibri" font-size="75.3664" font-weight="normal">
                        <tspan x="346" y="328">29%</tspan>
                    </text>
                </g>
            </g>
        </g>
    </g>
</svg>