<?xml version="1.0" encoding="UTF-8" standalone="no"?>
<svg width="3220px" height="2191px" viewBox="0 0 3220 2191" version="1.1" xmlns="http://www.w3.org/2000/svg" xmlns:xlink="http://www.w3.org/1999/xlink">
    <!-- Generator: Sketch 3.8.3 (29802) - http://www.bohemiancoding.com/sketch -->
    <title>App_Store_Attractions_by_Category_Prior_Year</title>
    <desc>Created with Sketch.</desc>
    <defs></defs>
    <g id="Page-1" stroke="none" stroke-width="1" fill="none" fill-rule="evenodd">
        <g id="App_Store_Attractions_by_Category_Prior_Year" transform="translate(-6.000000, -21.000000)">
            <g id="Page_1-Clipped">
                <g id="Page_1">
                    <polygon id="Shape" fill="#4572A7" points="1689 1110 2618 1006 2612 962 2604 919 2594 876 2582 835 2569 794 2553 754 2536 715 2517 677 2497 640 2475 604 2451 569 2426 536 2400 503 2372 472 2343 442 2312 414 2280 387 2247 361 2213 337 2178 314 2142 293 2105 273 2067 255 2028 239 1988 225 1947 212 1906 201 1863 192 1821 185 1777 180 1733 177 1689 176"></polygon>
                    <polygon id="Shape" fill="#AA4643" points="1689 1110 1983 1997 2022 1983 2060 1968 2097 1951 2133 1933 2168 1913 2201 1892 2234 1869 2266 1845 2296 1820 2326 1794 2354 1767 2381 1738 2407 1709 2431 1678 2454 1646 2476 1614 2496 1581 2515 1547 2533 1512 2549 1476 2564 1439 2577 1402 2588 1365 2598 1327 2607 1288 2614 1249 2619 1209 2622 1169 2624 1129 2624 1088 2622 1047 2618 1006"></polygon>
                    <polygon id="Shape" fill="#89A54E" points="1689 1110 1132 1859 1179 1892 1227 1921 1276 1948 1327 1971 1379 1991 1432 2008 1486 2022 1541 2032 1596 2040 1651 2044 1707 2044 1762 2042 1818 2036 1873 2026 1929 2013 1983 1997"></polygon>
                    <polygon id="Shape" fill="#71588F" points="1689 1110 755 1113 757 1168 762 1222 770 1276 781 1329 795 1381 813 1432 833 1482 855 1531 881 1578 909 1624 940 1668 974 1710 1010 1750 1048 1789 1089 1825 1132 1859"></polygon>
                    <polygon id="Shape" fill="#4198AF" points="1689 1110 1035 443 1002 477 971 512 942 549 915 587 890 626 867 666 846 707 827 750 810 793 796 837 783 881 773 927 765 973 759 1019 756 1066 755 1113"></polygon>
                    <polygon id="Shape" fill="#DB843D" points="1689 1110 1689 176 1643 177 1598 180 1553 186 1509 194 1464 204 1421 215 1378 229 1336 245 1295 263 1255 283 1215 305 1177 329 1139 355 1103 382 1069 412 1035 443"></polygon>
                    <path d="M1542,2035 L1286,2113 L1248,2113 L1248,2107 L1285,2107 L1284,2107 L1540,2029 L1542,2035 L1542,2035 Z M1333,246 L1240,76 L1243,78 L1207,78 L1207,72 L1243,72 L1246,74 L1339,244 L1333,246 L1333,246 Z M2478,1612 L2622,1729 L2620,1728 L2656,1728 L2656,1734 L2620,1734 L2618,1733 L2474,1616 L2478,1612 L2478,1612 Z M825,753 L686,668 L688,668 L651,668 L651,662 L690,662 L829,747 L825,753 L825,753 Z M2309,413 L2339,237 L2340,236 L2342,235 L2378,235 L2378,241 L2342,241 L2345,238 L2315,414 L2309,413 L2309,413 Z M856,1534 L720,1569 L683,1569 L683,1563 L719,1563 L718,1563 L854,1528 L856,1534 L856,1534 Z" id="Shape" fill="#000000"></path>
                    <text id="NetworkGeneration" fill="#000000" font-family="Calibri" font-size="80" font-weight="normal">
                        <tspan x="2391" y="239">NetworkGeneration</tspan>
                    </text>
                    <text id="23%" fill="#000000" font-family="Calibri" font-size="80" font-weight="normal">
                        <tspan x="2647" y="337">23%</tspan>
                    </text>
                    <text id="DataVisualization" fill="#000000" font-family="Calibri" font-size="80" font-weight="normal">
                        <tspan x="2671" y="1732">DataVisualization</tspan>
                    </text>
                    <text id="22%" fill="#000000" font-family="Calibri" font-size="80" font-weight="normal">
                        <tspan x="2882" y="1831">22%</tspan>
                    </text>
                    <text id="NetworkAnalysis" fill="#000000" font-family="Calibri" font-size="80" font-weight="normal">
                        <tspan x="691" y="2111">NetworkAnalysis</tspan>
                    </text>
                    <text id="15%" fill="#000000" font-family="Calibri" font-size="80" font-weight="normal">
                        <tspan x="894" y="2210">15%</tspan>
                    </text>
                    <text id="Clustering" fill="#000000" font-family="Calibri" font-size="80" font-weight="normal">
                        <tspan x="344" y="1567">Clustering</tspan>
                    </text>
                    <text id="15%" fill="#000000" font-family="Calibri" font-size="80" font-weight="normal">
                        <tspan x="438" y="1665">15%</tspan>
                    </text>
                    <text id="EnrichmentAnalysis" fill="#000000" font-family="Calibri" font-size="80" font-weight="normal">
                        <tspan x="0" y="666">EnrichmentAnalysis</tspan>
                    </text>
                    <text id="13%" fill="#000000" font-family="Calibri" font-size="80" font-weight="normal">
                        <tspan x="250" y="765">13%</tspan>
                    </text>
                    <text id="GraphAnalysis" fill="#000000" font-family="Calibri" font-size="80" font-weight="normal">
                        <tspan x="731" y="76">GraphAnalysis</tspan>
                    </text>
                    <text id="12%" fill="#000000" font-family="Calibri" font-size="80" font-weight="normal">
                        <tspan x="893" y="175">12%</tspan>
                    </text>
                </g>
            </g>
        </g>
    </g>
</svg>