<?xml version="1.0" standalone="no"?>
<svg xml:space="preserve" width="100%" height="100%" viewBox="0 0 4897 6337" preserveAspectRatio="xMidYMid"
  fill-rule="nonzero" stroke-linecap="round" stroke-linejoin="round"
  xmlns="http://www.w3.org/2000/svg"
  xmlns:xlink="http://www.w3.org/1999/xlink"
  xmlns:svgmaker="http://www.svgmaker.com/svgns">
<svgmaker:init width="215.9mm" height="279.4mm" viewBox="0 0 4897 6337" view="fit"
  crop="none" cropWidth="180.3mm" cropHeight="122.0mm" cropBox="404 1785 4090 2768"/>
<title>Untitled</title>
<desc>
  Generated by SVGmaker V3 Version 3.61.E702.64
  MAY-16-2016, 08:20
</desc>
<defs><clipPath id="page_clip"><rect x="0" y="0" width="4897" height="6337"/></clipPath></defs>
<g id="Page_1" clip-path="url(#page_clip)" svgmaker:mediaBox="0 0 4897 6337">
<rect x="407" y="1787" width="4085" height="2763" fill="#FFFFFF" stroke="none"/>
<path fill="#4572A7" stroke="none" d="M 2449,3381 l 929,-104 -6,-44 -8,-43 -10,-43 -12,-41 -13,-41 -16,-40 -17,-39 -19,-38 -20,-37 -22,-36 -24,-35 -25,-33 -26,-33 -28,-31 -29,-30 -31,-28 -32,-27 -33,-26 -34,-24 -35,-23 -36,-21 -37,-20 -38,-18 -39,-16 -40,-14 -41,-13 -41,-11 -43,-9 -42,-7 -44,-5 -44,-3 -44,-1 0,934 z"/>
<path fill="#AA4643" stroke="none" d="M 2449,3381 l 294,887 39,-14 38,-15 37,-17 36,-18 35,-20 33,-21 33,-23 32,-24 30,-25 30,-26 28,-27 27,-29 26,-29 24,-31 23,-32 22,-32 20,-33 19,-34 18,-35 16,-36 15,-37 13,-37 11,-37 10,-38 9,-39 7,-39 5,-40 3,-40 2,-40 0,-41 -2,-41 -4,-41 -929,104 z"/>
<path fill="#89A54E" stroke="none" d="M 2449,3381 l -557,749 47,33 48,29 49,27 51,23 52,20 53,17 54,14 55,10 55,8 55,4 56,0 55,-2 56,-6 55,-10 56,-13 54,-16 -294,-887 z"/>
<path fill="#71588F" stroke="none" d="M 2449,3381 l -934,3 2,55 5,54 8,54 11,53 14,52 18,51 20,50 22,49 26,47 28,46 31,44 34,42 36,40 38,39 41,36 43,34 557,-749 z"/>
<path fill="#4198AF" stroke="none" d="M 2449,3381 l -654,-667 -33,34 -31,35 -29,37 -27,38 -25,39 -23,40 -21,41 -19,43 -17,43 -14,44 -13,44 -10,46 -8,46 -6,46 -3,47 -1,47 934,-3 z"/>
<path fill="#DB843D" stroke="none" d="M 2449,3381 l 0,-934 -46,1 -45,3 -45,6 -44,8 -45,10 -43,11 -43,14 -42,16 -41,18 -40,20 -40,22 -38,24 -38,26 -36,27 -34,30 -34,31 654,667 z"/>
<path fill="#000000" stroke="none" d="M 2302,4306 l -256,78 -38,0 0,-6 37,0 -1,0 256,-78 2,6 z m -209,-1789 l -93,-170 3,2 -36,0 0,-6 36,0 3,2 93,170 -6,2 z m 1145,1366 l 144,117 -2,-1 36,0 0,6 -36,0 -2,-1 -144,-117 4,-4 z m -1653,-859 l -139,-85 2,0 -37,0 0,-6 39,0 139,85 -4,6 z m 1484,-340 l 30,-176 1,-1 2,-1 36,0 0,6 -36,0 3,-3 -30,176 -6,-1 z m -1453,1121 l -136,35 -37,0 0,-6 36,0 -1,0 136,-35 2,6 z"/>
<text font-family="Calibri" font-size="80" fill="#000000"><tspan x="3151,3203,3243,3271,3328,3370,3398,3434,3485,3525,3567,3607,3635,3673,3701,3719,3761" y="2510">NetworkGeneration</tspan><tspan x="3407,3448,3490" y="2608">23%</tspan><tspan x="3431,3480,3518,3545,3583,3628,3647,3678,3720,3758,3776,3794,3826,3865,3892,3910,3952" y="4003">DataVisualization</tspan><tspan x="3642,3684,3725" y="4102">22%</tspan><tspan x="1451,1503,1544,1571,1628,1670,1698,1735,1781,1823,1861,1879,1915,1947,1965" y="4382">NetworkAnalysis</tspan><tspan x="1654,1695,1737" y="4481">15%</tspan><tspan x="1104,1147,1165,1207,1238,1265,1306,1334,1352,1394" y="3838">Clustering</tspan><tspan x="1198,1239,1281" y="3936">15%</tspan><tspan x="760,799,841,869,887,922,964,1028,1068,1111,1138,1184,1226,1264,1282,1319,1350,1368" y="2937">EnrichmentAnalysis</tspan><tspan x="1010,1051,1092" y="3036">13%</tspan><tspan x="1491,1542,1570,1608,1650,1692,1739,1781,1819,1837,1873,1904,1922" y="2347">GraphAnalysis</tspan><tspan x="1653,1694,1736" y="2446">12%</tspan></text>
<text font-family="Calibri" font-size="145" fill="#000000" font-weight="700"><tspan x="1048,1107,1184,1262" y="1986">Top </tspan><tspan x="1295,1382,1459,1537" y="1986">App </tspan><tspan x="1570,1638,1688,1765,1814,1887" y="1986">Store </tspan><tspan x="1921,2004,2052,2102,2151,2222,2282,2332,2368,2445,2522,2580" y="1986">Attractions </tspan><tspan x="2614,2690,2758" y="1986">by </tspan><tspan x="2793,2869,2939,2988,3061,3128,3206,3258,3326" y="1986">Category </tspan><tspan x="3358,3403,3477,3550,3587,3661,3734,3807,3853" y="1986">(58,715) </tspan><tspan x="1531,1576,1649" y="2163">(1/</tspan><tspan x="1712,1785" y="2163">1/</tspan><tspan x="1847,1921,1994,2067,2141" y="2163">2015 </tspan><tspan x="2173,2223,2300,2350,2427,2504,2573,2650" y="2163">through </tspan><tspan x="2685,2758" y="2163">2/</tspan><tspan x="2821,2894,2967" y="2163">10/</tspan><tspan x="3030,3103,3176,3250,3323" y="2163">2016)</tspan></text>
<path fill="#868686" stroke="none" d="M 4492,1785 l 0,1 2,0 0,5 -4084,0 0,2756 -6,0 0,-2759 1,0 0,-2 2,0 0,-1 4085,0 z"/>
<path fill="#868686" stroke="none" d="M 4494,1791 l 0,2762 -4089,0 0,-2 -1,0 0,-4 4085,0 0,-2756 5,0 z"/>
</g>
</svg>
