<?xml version="1.0" encoding="UTF-8" standalone="no"?>
<svg width="3097px" height="2473px" viewBox="0 0 3097 2473" version="1.1" xmlns="http://www.w3.org/2000/svg" xmlns:xlink="http://www.w3.org/1999/xlink">
    <!-- Generator: Sketch 3.8.3 (29802) - http://www.bohemiancoding.com/sketch -->
    <title>App_Store_Visits_By_Country_Prior_Year</title>
    <desc>Created with Sketch.</desc>
    <defs></defs>
    <g id="Page-1" stroke="none" stroke-width="1" fill="none" fill-rule="evenodd">
        <g id="App_Store_Visits_By_Country_Prior_Year" transform="translate(-3.000000, -4.000000)">
            <g id="Page_1-Clipped">
                <g id="Page_1">
                    <polygon id="Shape" fill="#4572A7" points="1565 1121 2682 1114 2680 1057 2676 1000 2668 945 2658 890 2645 836 2630 784 2612 732 2592 682 2570 632 2545 585 2518 538 2489 493 2458 449 2424 408 2389 367 2352 329 2314 292 2273 257 2231 224 2187 193 2142 165 2095 138 2047 113 1998 91 1947 71 1896 54 1843 39 1789 27 1734 17 1679 10 1622 5 1565 4"></polygon>
                    <polygon id="Shape" fill="#AA4643" points="1565 1121 2518 1704 2538 1670 2556 1636 2573 1601 2589 1566 2604 1530 2618 1494 2630 1457 2641 1420 2651 1383 2659 1345 2666 1307 2672 1269 2677 1230 2680 1192 2682 1153 2682 1114"></polygon>
                    <polygon id="Shape" fill="#89A54E" points="1565 1121 2154 2070 2208 2034 2261 1995 2310 1953 2357 1908 2402 1861 2444 1811 2482 1758 2518 1704"></polygon>
                    <polygon id="Shape" fill="#71588F" points="1565 1121 1789 2215 1837 2204 1885 2191 1932 2176 1978 2159 2023 2139 2068 2118 2111 2095 2154 2070"></polygon>
                    <polygon id="Shape" fill="#4198AF" points="1565 1121 1414 2228 1461 2233 1508 2237 1555 2238 1602 2238 1649 2235 1696 2230 1742 2224 1789 2215"></polygon>
                    <polygon id="Shape" fill="#DB843D" points="1565 1121 1116 2144 1152 2159 1188 2173 1262 2197 1300 2206 1337 2215 1376 2222 1414 2228"></polygon>
                    <polygon id="Shape" fill="#93A9CF" points="1565 1121 908 2025 958 2059 1009 2090 1061 2119 1116 2144"></polygon>
                    <polygon id="Shape" fill="#D19392" points="1565 1121 736 1870 776 1912 818 1952 862 1989 908 2025"></polygon>
                    <polygon id="Shape" fill="#B9CD96" points="1565 1121 601 1686 631 1735 664 1782 699 1827 736 1870"></polygon>
                    <polygon id="Shape" fill="#A99BBD" points="1565 1121 525 1530 542 1570 560 1610 580 1648 601 1686"></polygon>
                    <polygon id="Shape" fill="#91C3D5" points="1565 1121 1565 4 1508 5 1451 10 1395 17 1340 27 1286 39 1233 54 1181 72 1130 92 1081 114 1032 139 986 166 940 195 896 226 854 259 813 294 775 331 738 370 702 410 669 453 638 496 609 542 582 589 557 637 535 686 515 737 497 789 482 842 470 896 460 951 453 1007 448 1064 447 1121 448 1173 452 1226 458 1278 467 1329 478 1380 491 1431 507 1481 525 1530"></polygon>
                    <path d="M2350,327 L2528,86 L2530,85 L2571,85 L2571,91 L2530,91 L2532,90 L2354,331 L2350,327 L2350,327 Z M820,1954 L636,2184 L634,2185 L593,2185 L593,2179 L634,2179 L632,2180 L816,1950 L820,1954 L820,1954 Z M1979,2156 L2269,2297 L2268,2297 L2310,2297 L2310,2303 L2267,2303 L1977,2162 L1979,2156 L1979,2156 Z M666,1784 L497,1916 L495,1917 L454,1917 L454,1911 L495,1911 L493,1912 L662,1780 L666,1784 L666,1784 Z M1011,2092 L891,2250 L889,2251 L848,2251 L848,2245 L889,2245 L887,2246 L1007,2088 L1011,2092 L1011,2092 Z M640,495 L461,405 L462,405 L421,405 L421,399 L463,399 L642,489 L640,495 L640,495 Z M2642,1417 L2841,1484 L2840,1484 L2881,1484 L2881,1490 L2839,1490 L2640,1423 L2642,1417 L2642,1417 Z M1265,2197 L1202,2343 L1199,2345 L1158,2345 L1158,2339 L1199,2339 L1196,2341 L1259,2195 L1265,2197 L1265,2197 Z M2359,1906 L2423,1990 L2421,1989 L2462,1989 L2462,1995 L2421,1995 L2419,1994 L2355,1910 L2359,1906 L2359,1906 Z M562,1612 L511,1682 L509,1683 L468,1683 L468,1677 L509,1677 L507,1678 L558,1608 L562,1612 L562,1612 Z" id="Shape" fill="#000000"></path>
                    <text id="United" fill="#000000" font-family="Calibri" font-size="92" font-weight="normal">
                        <tspan x="2586" y="88">United</tspan>
                    </text>
                    <text id="States" fill="#000000" font-family="Calibri" font-size="92" font-weight="normal">
                        <tspan x="2858" y="88">States</tspan>
                    </text>
                    <text id="25%" fill="#000000" font-family="Calibri" font-size="92" font-weight="normal">
                        <tspan x="2756" y="200">25%</tspan>
                    </text>
                    <text id="China" fill="#000000" font-family="Calibri" font-size="92" font-weight="normal">
                        <tspan x="2896" y="1487">China</tspan>
                    </text>
                    <text id="9%" fill="#000000" font-family="Calibri" font-size="92" font-weight="normal">
                        <tspan x="2945" y="1599">9%</tspan>
                    </text>
                    <text id="India" fill="#000000" font-family="Calibri" font-size="92" font-weight="normal">
                        <tspan x="2478" y="1992">India</tspan>
                    </text>
                    <text id="7%" fill="#000000" font-family="Calibri" font-size="92" font-weight="normal">
                        <tspan x="2513" y="2104">7%</tspan>
                    </text>
                    <text id="Germany" fill="#000000" font-family="Calibri" font-size="92" font-weight="normal">
                        <tspan x="2325" y="2301">Germany</tspan>
                    </text>
                    <text id="6%" fill="#000000" font-family="Calibri" font-size="92" font-weight="normal">
                        <tspan x="2439" y="2413">6%</tspan>
                    </text>
                    <text id="United" fill="#000000" font-family="Calibri" font-size="92" font-weight="normal">
                        <tspan x="1176" y="2357">United</tspan>
                    </text>
                    <text id="Kingdom" fill="#000000" font-family="Calibri" font-size="92" font-weight="normal">
                        <tspan x="1449" y="2357">Kingdom</tspan>
                    </text>
                    <text id="5%" fill="#000000" font-family="Calibri" font-size="92" font-weight="normal">
                        <tspan x="1421" y="2469">5%</tspan>
                    </text>
                    <text id="France" fill="#000000" font-family="Calibri" font-size="92" font-weight="normal">
                        <tspan x="895" y="2363">France</tspan>
                    </text>
                    <text id="5%" fill="#000000" font-family="Calibri" font-size="92" font-weight="normal">
                        <tspan x="964" y="2475">5%</tspan>
                    </text>
                    <text id="Japan" fill="#000000" font-family="Calibri" font-size="92" font-weight="normal">
                        <tspan x="622" y="2248">Japan</tspan>
                    </text>
                    <text id="3%" fill="#000000" font-family="Calibri" font-size="92" font-weight="normal">
                        <tspan x="673" y="2360">3%</tspan>
                    </text>
                    <text id="Italy" fill="#000000" font-family="Calibri" font-size="92" font-weight="normal">
                        <tspan x="420" y="2183">Italy</tspan>
                    </text>
                    <text id="3%" fill="#000000" font-family="Calibri" font-size="92" font-weight="normal">
                        <tspan x="444" y="2295">3%</tspan>
                    </text>
                    <text id="Canada" fill="#000000" font-family="Calibri" font-size="92" font-weight="normal">
                        <tspan x="165" y="1914">Canada</tspan>
                    </text>
                    <text id="3%" fill="#000000" font-family="Calibri" font-size="92" font-weight="normal">
                        <tspan x="247" y="2026">3%</tspan>
                    </text>
                    <text id="South" fill="#000000" font-family="Calibri" font-size="92" font-weight="normal">
                        <tspan x="0" y="1680">South</tspan>
                    </text>
                    <text id="Korea" fill="#000000" font-family="Calibri" font-size="92" font-weight="normal">
                        <tspan x="238" y="1680">Korea</tspan>
                    </text>
                    <text id="3%" fill="#000000" font-family="Calibri" font-size="92" font-weight="normal">
                        <tspan x="172" y="1792">3%</tspan>
                    </text>
                    <text id="Other" fill="#000000" font-family="Calibri" font-size="92" font-weight="normal">
                        <tspan x="221" y="290">Other</tspan>
                    </text>
                    <text id="31%" fill="#000000" font-family="Calibri" font-size="92" font-weight="normal">
                        <tspan x="250" y="402">31%</tspan>
                    </text>
                </g>
            </g>
        </g>
    </g>
</svg>