<?xml version="1.0" encoding="UTF-8" standalone="no"?>
<svg width="3576px" height="1519px" viewBox="0 0 3576 1519" version="1.1" xmlns="http://www.w3.org/2000/svg" xmlns:xlink="http://www.w3.org/1999/xlink">
    <!-- Generator: Sketch 3.7.2 (28276) - http://www.bohemiancoding.com/sketch -->
    <title>PubMed_Cytoscape_Citations</title>
    <desc>Created with Sketch.</desc>
    <defs></defs>
    <g id="Page-1" stroke="none" stroke-width="1" fill="none" fill-rule="evenodd">
        <g id="PubMed_Cytoscape_Citations" transform="translate(0.000000, -20.000000)">
            <g id="Page_1-Clipped">
                <g id="Page_1">
                    <path d="M3109,119 L3219,119 L3219,1288 L3109,1288 L3109,119 L3109,119 Z M2834,263 L2944,263 L2944,1288 L2834,1288 L2834,263 L2834,263 Z M2558,375 L2668,375 L2668,1288 L2558,1288 L2558,375 L2558,375 Z M2283,555 L2393,555 L2393,1288 L2283,1288 L2283,555 L2283,555 Z M2008,764 L2118,764 L2118,1288 L2008,1288 L2008,764 L2008,764 Z M1733,884 L1843,884 L1843,1288 L1733,1288 L1733,884 L1733,884 Z M1458,925 L1568,925 L1568,1288 L1458,1288 L1458,925 L1458,925 Z M1183,1091 L1293,1091 L1293,1288 L1183,1288 L1183,1091 L1183,1091 Z M3384,1170 L3494,1170 L3494,1288 L3384,1288 L3384,1170 L3384,1170 Z M908,1184 L1018,1184 L1018,1288 L908,1288 L908,1184 L908,1184 Z M632,1243 L742,1243 L742,1288 L632,1288 L632,1243 L632,1243 Z M357,1262 L467,1262 L467,1288 L357,1288 L357,1262 L357,1262 Z M82,1272 L192,1272 L192,1288 L82,1288 L82,1272 L82,1272 Z" id="Shape" fill="#4F81BD"></path>
                    <rect id="Rectangle-path" fill="#868686" x="0" y="1285" width="3576" height="6"></rect>
                    <text id="11" fill="#000000" font-family="Calibri" font-size="65.536" font-weight="normal">
                        <tspan x="96" y="1215">11</tspan>
                    </text>
                    <text id="18" fill="#000000" font-family="Calibri" font-size="65.536" font-weight="normal">
                        <tspan x="371" y="1204">18</tspan>
                    </text>
                    <text id="31" fill="#000000" font-family="Calibri" font-size="65.536" font-weight="normal">
                        <tspan x="646" y="1185">31</tspan>
                    </text>
                    <text id="71" fill="#000000" font-family="Calibri" font-size="65.536" font-weight="normal">
                        <tspan x="922" y="1127">71</tspan>
                    </text>
                    <text id="135" fill="#000000" font-family="Calibri" font-size="65.536" font-weight="normal">
                        <tspan x="1177" y="1033">135</tspan>
                    </text>
                    <text id="248" fill="#000000" font-family="Calibri" font-size="65.536" font-weight="normal">
                        <tspan x="1452" y="868">248</tspan>
                    </text>
                    <text id="276" fill="#000000" font-family="Calibri" font-size="65.536" font-weight="normal">
                        <tspan x="1727" y="827">276</tspan>
                    </text>
                    <text id="358" fill="#000000" font-family="Calibri" font-size="65.536" font-weight="normal">
                        <tspan x="2002" y="707">358</tspan>
                    </text>
                    <text id="501" fill="#000000" font-family="Calibri" font-size="65.536" font-weight="normal">
                        <tspan x="2277" y="498">501</tspan>
                    </text>
                    <text id="624" fill="#000000" font-family="Calibri" font-size="65.536" font-weight="normal">
                        <tspan x="2552" y="318">624</tspan>
                    </text>
                    <text id="701" fill="#000000" font-family="Calibri" font-size="65.536" font-weight="normal">
                        <tspan x="2827" y="205">701</tspan>
                    </text>
                    <text id="799" fill="#000000" font-family="Calibri" font-size="65.536" font-weight="normal">
                        <tspan x="3103" y="62">799</tspan>
                    </text>
                    <text id="81" fill="#000000" font-family="Calibri" font-size="65.536" font-weight="normal">
                        <tspan x="3398" y="1112">81</tspan>
                    </text>
                    <text id="2004" fill="#000000" font-family="Calibri" font-size="65.536" font-weight="normal">
                        <tspan x="56" y="1416">2004</tspan>
                    </text>
                    <text id="2005" fill="#000000" font-family="Calibri" font-size="65.536" font-weight="normal">
                        <tspan x="331" y="1416">2005</tspan>
                    </text>
                    <text id="2006" fill="#000000" font-family="Calibri" font-size="65.536" font-weight="normal">
                        <tspan x="606" y="1416">2006</tspan>
                    </text>
                    <text id="2007" fill="#000000" font-family="Calibri" font-size="65.536" font-weight="normal">
                        <tspan x="882" y="1416">2007</tspan>
                    </text>
                    <text id="2008" fill="#000000" font-family="Calibri" font-size="65.536" font-weight="normal">
                        <tspan x="1157" y="1416">2008</tspan>
                    </text>
                    <text id="2009" fill="#000000" font-family="Calibri" font-size="65.536" font-weight="normal">
                        <tspan x="1432" y="1416">2009</tspan>
                    </text>
                    <text id="2010" fill="#000000" font-family="Calibri" font-size="65.536" font-weight="normal">
                        <tspan x="1707" y="1416">2010</tspan>
                    </text>
                    <text id="2011" fill="#000000" font-family="Calibri" font-size="65.536" font-weight="normal">
                        <tspan x="1982" y="1416">2011</tspan>
                    </text>
                    <text id="2012" fill="#000000" font-family="Calibri" font-size="65.536" font-weight="normal">
                        <tspan x="2257" y="1416">2012</tspan>
                    </text>
                    <text id="2013" fill="#000000" font-family="Calibri" font-size="65.536" font-weight="normal">
                        <tspan x="2533" y="1416">2013</tspan>
                    </text>
                    <text id="2014" fill="#000000" font-family="Calibri" font-size="65.536" font-weight="normal">
                        <tspan x="2808" y="1416">2014</tspan>
                    </text>
                    <text id="2015" fill="#000000" font-family="Calibri" font-size="65.536" font-weight="normal">
                        <tspan x="3083" y="1416">2015</tspan>
                    </text>
                    <text id="2016" fill="#000000" font-family="Calibri" font-size="65.536" font-weight="normal">
                        <tspan x="3358" y="1416">2016</tspan>
                    </text>
                    <text id="Year" fill="#000000" font-family="Calibri-Bold, Calibri" font-size="65.536" font-weight="bold">
                        <tspan x="1713" y="1538">Year</tspan>
                    </text>
                </g>
            </g>
        </g>
    </g>
</svg>