<?xml version="1.0" standalone="no"?>
<svg xml:space="preserve" width="100%" height="100%" viewBox="0 0 4897 6337" preserveAspectRatio="xMidYMid"
  fill-rule="nonzero" stroke-linecap="round" stroke-linejoin="round"
  xmlns="http://www.w3.org/2000/svg"
  xmlns:xlink="http://www.w3.org/1999/xlink"
  xmlns:svgmaker="http://www.svgmaker.com/svgns">
<svgmaker:init width="215.9mm" height="279.4mm" viewBox="0 0 4897 6337" view="fit"
  crop="none" cropWidth="180.3mm" cropHeight="124.6mm" cropBox="404 1756 4090 2826"/>
<title>Untitled</title>
<desc>
  Generated by SVGmaker V3 Version 3.61.E702.64
  MAY-16-2016, 08:28
</desc>
<defs><clipPath id="page_clip"><rect x="0" y="0" width="4897" height="6337"/></clipPath></defs>
<g id="Page_1" clip-path="url(#page_clip)" svgmaker:mediaBox="0 0 4897 6337">
<rect x="407" y="1759" width="4084" height="2820" fill="#FFFFFF" stroke="none"/>
<path fill="#4F81BD" stroke="none" d="M 2449,3393 l -755,-567 -28,40 -26,40 -24,42 -21,42 -19,43 -17,43 -14,44 -13,45 -10,44 -7,45 -6,46 -3,45 -2,45 1,46 4,45 5,45 7,45 10,44 12,44 14,43 15,43 18,42 20,41 23,40 24,39 26,39 28,37 30,35 33,35 34,33 36,32 38,30 40,28 40,26 42,24 42,21 43,19 43,17 44,14 45,12 44,10 45,8 46,6 45,3 45,1 46,-1 45,-3 45,-5 45,-8 44,-9 44,-12 43,-14 43,-16 42,-18 41,-20 40,-22 39,-24 39,-26 37,-28 35,-30 35,-33 33,-34 32,-36 30,-38 28,-40 26,-40 24,-41 21,-43 19,-43 17,-43 15,-44 12,-44 10,-45 8,-45 5,-46 3,-45 2,-45 -1,-46 -4,-45 -5,-45 -7,-45 -10,-44 -12,-44 -13,-43 -16,-43 -18,-42 -20,-41 -23,-40 -24,-39 -26,-38 -28,-38 -30,-35 -32,-35 -35,-33 -36,-32 -38,-30 -31,-22 -32,-21
 -32,-20 -33,-19 -34,-17 -35,-15 -35,-14 -36,-13 -36,-11 -36,-10 -37,-9 -38,-7 -37,-5 -38,-4 -39,-2 -38,-1 0,945 z"/>
<path fill="#C0504D" stroke="none" d="M 2449,3393 l -252,-910 -37,11 -37,13 -36,14 -36,15 -35,17 -33,19 -34,19 -32,22 -31,22 -31,24 -29,25 -29,26 -27,27 -27,29 -25,29 -24,31 755,567 z"/>
<path fill="#9BBB59" stroke="none" d="M 2449,3393 l -89,-940 -41,5 -41,6 -41,9 -40,10 252,910 z"/>
<path fill="#8064A2" stroke="none" d="M 2449,3393 l -38,-944 -25,2 -26,2 89,940 z"/>
<path fill="#4BACC6" stroke="none" d="M 2449,3393 l 0,-945 -38,1 38,944 z"/>
<path fill="#000000" stroke="none" d="M 1917,2616 l -429,54 -38,0 0,-6 38,0 429,-54 0,6 z m 466,-163 l -114,-144 2,1 -38,0 0,-6 38,0 2,1 114,144 -4,4 z m -105,14 l -593,16 -38,0 0,-6 38,0 593,-16 0,6 z m 150,-20 l 49,-71 2,-1 38,0 0,6 -38,0 2,-1 -49,71 -4,-4 z"/>
<rect x="3723" y="3285" width="47" height="47" fill="#4F81BD" stroke="none"/>
<text font-family="Calibri" font-size="84" fill="#000000"><tspan x="3812,3866,3910,3929,3958,4000,4045" y="3339">United </tspan><tspan x="4064,4103,4132,4172,4200,4243,4275,4297" y="3339">States, </tspan><tspan x="4316,4359,4402,4446,4467" y="3339">792, </tspan><tspan x="4066,4109,4153" y="3442">85%</tspan></text>
<rect x="645" y="2614" width="46" height="46" fill="#C0504D" stroke="none"/>
<text font-family="Calibri" font-size="84" fill="#000000"><tspan x="734,788,832,851,880,922,967" y="2668">United </tspan><tspan x="986,1030,1049,1094,1134,1178,1223,1291,1312" y="2668">Kingdom, </tspan><tspan x="1331,1374,1418,1439" y="2668">97, </tspan><tspan x="1012,1056,1099" y="2771">10%</tspan></text>
<rect x="1020" y="2427" width="46" height="47" fill="#9BBB59" stroke="none"/>
<text font-family="Calibri" font-size="84" fill="#000000"><tspan x="1109,1154,1195,1239,1279,1324,1364,1385" y="2481">Canada, </tspan><tspan x="1405,1449,1492,1513" y="2481">26, </tspan><tspan x="1531,1574" y="2481">3%</tspan></text>
<rect x="1457" y="2255" width="47" height="46" fill="#8064A2" stroke="none"/>
<text font-family="Calibri" font-size="84" fill="#000000"><tspan x="1547,1568,1612,1641,1683,1713,1757,1797,1826,1845,1889,1934,1974,1993,2014" y="2308">International, </tspan><tspan x="2034,2078,2099" y="2308">8, </tspan><tspan x="2118,2161" y="2308">1%</tspan></text>
<rect x="2559" y="2325" width="47" height="46" fill="#4BACC6" stroke="none"/>
<text font-family="Calibri" font-size="84" fill="#000000"><tspan x="2648,2697,2742,2774,2803,2833,2852,2892,2913" y="2379">Austria, </tspan><tspan x="2933,2976,2998" y="2379">6, </tspan><tspan x="3017,3060" y="2379">1%</tspan></text>
<text font-family="Calibri" font-size="152" fill="#000000" font-weight="700"><tspan x="1770,1851,1932,2014,2094,2147,2201,2238,2315,2376" y="1917">Countries </tspan><tspan x="2411,2481,2563,2644,2726,2763,2844,2916" y="1917">Funding </tspan><tspan x="908,988,1061,1113,1195,1255,1317,1392,1474,1551" y="2104">Cytoscape </tspan><tspan x="1586,1667,1704,1755,1829,1882,1919,2001,2082,2143" y="2104">Citations </tspan><tspan x="2179,2226,2304,2381,2458" y="2104">(930 </tspan><tspan x="2492,2568,2639,2716,2797,2850,2910" y="2104">events </tspan><tspan x="2944,3004,3041,3123,3186,3263" y="2104">since </tspan><tspan x="3299,3350,3425,3507" y="2104">Jan </tspan><tspan x="3541,3577,3654,3731" y="2104">&apos;15)</tspan></text>
<path fill="#868686" stroke="none" d="M 4492,1756 l 0,1 2,0 0,6 -4084,0 0,2813 -6,0 0,-2817 1,0 0,-2 2,0 0,-1 4085,0 z"/>
<path fill="#868686" stroke="none" d="M 4494,1763 l 0,2819 -4089,0 0,-2 -1,0 0,-4 4084,0 0,-2813 6,0 z"/>
</g>
</svg>
