<?xml version="1.0" standalone="no"?>
<svg xml:space="preserve" width="100%" height="100%" viewBox="0 0 4897 6337" preserveAspectRatio="xMidYMid"
  fill-rule="nonzero" stroke-linecap="round" stroke-linejoin="round"
  xmlns="http://www.w3.org/2000/svg"
  xmlns:xlink="http://www.w3.org/1999/xlink"
  xmlns:svgmaker="http://www.svgmaker.com/svgns">
<svgmaker:init width="215.9mm" height="279.4mm" viewBox="0 0 4897 6337" view="fit"
  crop="none" cropWidth="180.3mm" cropHeight="124.6mm" cropBox="404 1756 4090 2826"/>
<title>Untitled</title>
<desc>
  Generated by SVGmaker V3 Version 3.61.E702.64
  MAY-16-2016, 08:28
</desc>
<defs><clipPath id="page_clip"><rect x="0" y="0" width="4897" height="6337"/></clipPath></defs>
<g id="Page_1" clip-path="url(#page_clip)" svgmaker:mediaBox="0 0 4897 6337">
<rect x="407" y="1759" width="4084" height="2820" fill="#FFFFFF" stroke="none"/>
<path fill="#4572A7" stroke="none" d="M 2449,3393 l -565,-757 -38,30 -36,32 -35,33 -32,34 -30,36 -29,37 -26,38 -24,39 -22,40 -21,41 -18,42 -16,42 -14,44 -11,43 -10,45 -8,44 -5,45 -3,46 -2,45 1,45 4,46 5,45 8,45 10,45 12,45 14,44 17,43 19,43 21,42 23,42 26,40 28,40 30,38 32,37 33,34 34,32 36,31 37,28 38,27 39,24 40,22 42,20 41,18 43,16 43,14 44,12 44,10 45,8 45,5 45,3 45,2 46,-1 45,-4 46,-5 45,-8 45,-10 44,-12 44,-14 44,-17 43,-18 42,-22 42,-23 40,-26 40,-28 38,-30 36,-32 35,-33 32,-34 30,-36 29,-37 26,-38 24,-39 22,-41 21,-41 18,-42 16,-42 14,-43 11,-44 10,-45 8,-44 5,-45 4,-45 1,-46 -1,-45 -4,-46 -5,-45 -8,-45 -10,-45 -12,-44 -14,-44 -17,-44 -18,-43 -22,-42 -23,-42 -26,-40 -28,-40 -35,-44 -36,-41
 -39,-39 -41,-36 -43,-34 -45,-31 -47,-29 -47,-26 -50,-23 -50,-20 -52,-17 -53,-14 -54,-11 -54,-8 -55,-5 -56,-2 0,945 z"/>
<path fill="#AA4643" stroke="none" d="M 2449,3393 l -160,-931 -55,11 -53,14 -53,18 -52,20 -50,23 -49,27 -47,29 -46,32 565,757 z"/>
<path fill="#89A54E" stroke="none" d="M 2449,3393 l -36,-944 -62,5 -31,3 -31,5 160,931 z"/>
<path fill="#71588F" stroke="none" d="M 2449,3393 l -15,-945 -21,1 36,944 z"/>
<path fill="#4198AF" stroke="none" d="M 2449,3393 l -5,-945 -10,0 15,945 z"/>
<path fill="#DB843D" stroke="none" d="M 2449,3393 l 0,-945 -5,0 5,945 z"/>
<path fill="#000000" stroke="none" d="M 2077,2528 l -721,222 -39,0 0,-6 38,0 -1,0 721,-222 2,6 z m 347,-76 l -730,-95 -38,0 0,-6 38,0 730,95 0,6 z m -73,4 l -1106,24 -38,0 0,-6 38,0 1106,-24 0,6 z m 94,-10 l 89,-92 2,-1 38,0 0,6 -38,0 2,-1 -89,92 -4,-4 z m -9,2 l 0,-146 6,0 0,146 -6,0 z"/>
<rect x="3680" y="3339" width="47" height="46" fill="#4572A7" stroke="none"/>
<text font-family="Calibri" font-size="84" fill="#000000"><tspan x="3769,3823,3868,3887,3915,3958,4002" y="3392">United </tspan><tspan x="4021,4060,4089,4129,4158,4200,4233,4254" y="3392">States, </tspan><tspan x="4273,4316,4360,4403,4447,4468" y="3392">5328, </tspan><tspan x="4045,4088,4131" y="3496">90%</tspan></text>
<rect x="462" y="2695" width="46" height="46" fill="#AA4643" stroke="none"/>
<text font-family="Calibri" font-size="84" fill="#000000"><tspan x="550,604,649,668,696,739,783" y="2748">United </tspan><tspan x="802,847,866,910,950,995,1039,1107,1128" y="2748">Kingdom, </tspan><tspan x="1147,1191,1234,1277,1298" y="2748">444, </tspan><tspan x="873,916" y="2852">8%</tspan></text>
<rect x="537" y="2424" width="46" height="47" fill="#89A54E" stroke="none"/>
<text font-family="Calibri" font-size="84" fill="#000000"><tspan x="626,672,712,756,797,841,881,902" y="2478">Canada, </tspan><tspan x="923,966,1009,1053,1074" y="2478">125, </tspan><tspan x="1091,1134" y="2478">2%</tspan></text>
<rect x="837" y="2302" width="46" height="46" fill="#71588F" stroke="none"/>
<text font-family="Calibri" font-size="84" fill="#000000"><tspan x="927,948,992,1021,1063,1093,1137,1177,1206,1225,1269,1314,1354,1373,1394" y="2355">International, </tspan><tspan x="1414,1458,1501,1522" y="2355">21, </tspan><tspan x="1540,1584" y="2355">0%</tspan></text>
<rect x="1904" y="2227" width="46" height="46" fill="#4198AF" stroke="none"/>
<text font-family="Calibri" font-size="84" fill="#000000"><tspan x="1993,2042,2086,2119,2148,2177,2196,2237,2258" y="2280">Austria, </tspan><tspan x="2278,2321,2365,2386" y="2280">10, </tspan><tspan x="2404,2447" y="2280">0%</tspan></text>
<rect x="2616" y="2304" width="46" height="46" fill="#DB843D" stroke="none"/>
<text font-family="Calibri" font-size="84" fill="#000000"><tspan x="2706,2727,2756,2796,2815,2853,2874" y="2357">Italy, </tspan><tspan x="2894,2938,2959" y="2357">5, </tspan><tspan x="2977,3020" y="2357">0%</tspan></text>
<text font-family="Calibri" font-size="152" fill="#000000" font-weight="700"><tspan x="2238,2319,2400,2482,2562,2615,2669,2706,2783,2844" y="1917">Countries </tspan><tspan x="2879,2949,3031,3112,3194,3231,3312,3384" y="1917">Funding </tspan><tspan x="1379,1459,1532,1584,1666,1726,1788,1864,1945,2022" y="2104">Cytoscape </tspan><tspan x="2057,2138,2175,2227,2301,2354,2391,2472,2554,2614" y="2104">Citations </tspan><tspan x="2650,2697,2775,2814,2891,2968,3046" y="2104">(5,433 </tspan><tspan x="3081,3157,3228,3305,3385,3438,3499" y="2104">events </tspan><tspan x="3532,3593,3630,3711,3775,3852" y="2104">since </tspan><tspan x="3887,3964,4041,4119,4196" y="2104">2004)</tspan></text>
<path fill="#868686" stroke="none" d="M 4492,1756 l 0,1 2,0 0,6 -4084,0 0,2813 -6,0 0,-2817 1,0 0,-2 2,0 0,-1 4085,0 z"/>
<path fill="#868686" stroke="none" d="M 4494,1763 l 0,2819 -4089,0 0,-2 -1,0 0,-4 4084,0 0,-2813 6,0 z"/>
</g>
</svg>
