<?xml version="1.0" encoding="UTF-8" standalone="no"?>
<svg width="3814px" height="2087px" viewBox="0 0 3814 2087" version="1.1" xmlns="http://www.w3.org/2000/svg" xmlns:xlink="http://www.w3.org/1999/xlink">
    <!-- Generator: Sketch 3.8.3 (29802) - http://www.bohemiancoding.com/sketch -->
    <title>Countries_Funding_Cytoscape_Citations_Prior_Year</title>
    <desc>Created with Sketch.</desc>
    <defs></defs>
    <g id="Page-1" stroke="none" stroke-width="1" fill="none" fill-rule="evenodd">
        <g id="Countries_Funding_Cytoscape_Citations_Prior_Year" transform="translate(0.000000, -22.000000)">
            <g id="Page_1-Clipped">
                <g id="Page_1">
                    <polygon id="Shape" fill="#4F81BD" points="1804 1165 1049 598 1021 638 995 678 971 720 950 762 931 805 914 848 900 892 887 937 877 981 870 1026 864 1072 861 1117 859 1162 860 1208 864 1253 869 1298 876 1343 886 1387 898 1431 912 1474 927 1517 945 1559 965 1600 988 1640 1012 1679 1038 1718 1066 1755 1096 1790 1129 1825 1163 1858 1199 1890 1237 1920 1277 1948 1317 1974 1359 1998 1401 2019 1444 2038 1487 2055 1531 2069 1576 2081 1620 2091 1665 2099 1711 2105 1756 2108 1801 2109 1847 2108 1892 2105 1937 2100 1982 2092 2026 2083 2070 2071 2113 2057 2156 2041 2198 2023 2239 2003 2279 1981 2318 1957 2357 1931 2394 1903 2429 1873 2464 1840 2497 1806 2529 1770 2559 1732 2587 1692 2613 1652 2637 1611 2658 1568 2677 1525 2694 1482 2709 1438 2721 1394 2731 1349 2739 1304 2744 1258 2747 1213 2749 1168 2748 1122 2744 1077 2739 1032 2732 987 2722 943 2710 899 2697 856 2681 813 2663 771 2643 730 2620 690 2596 651 2570 613 2542 575 2512 540 2480 505 2445 472 2409 440 2371 410 2340 388 2308 367 2276 347 2243 328 2209 311 2174 296 2139 282 2103 269 2067 258 2031 248 1994 239 1956 232 1919 227 1881 223 1842 221 1804 220"></polygon>
                    <polygon id="Shape" fill="#C0504D" points="1804 1165 1552 255 1515 266 1478 279 1442 293 1406 308 1371 325 1338 344 1304 363 1272 385 1241 407 1210 431 1181 456 1152 482 1125 509 1098 538 1073 567 1049 598"></polygon>
                    <polygon id="Shape" fill="#9BBB59" points="1804 1165 1715 225 1674 230 1633 236 1592 245 1552 255"></polygon>
                    <polygon id="Shape" fill="#8064A2" points="1804 1165 1766 221 1741 223 1715 225"></polygon>
                    <polygon id="Shape" fill="#4BACC6" points="1804 1165 1804 220 1766 221"></polygon>
                    <path d="M1272,388 L843,442 L805,442 L805,436 L843,436 L1272,382 L1272,388 L1272,388 Z M1738,225 L1624,81 L1626,82 L1588,82 L1588,76 L1626,76 L1628,77 L1742,221 L1738,225 L1738,225 Z M1633,239 L1040,255 L1002,255 L1002,249 L1040,249 L1633,233 L1633,239 L1633,239 Z M1783,219 L1832,148 L1834,147 L1872,147 L1872,153 L1834,153 L1836,152 L1787,223 L1783,219 L1783,219 Z" id="Shape" fill="#000000"></path>
                    <rect id="Rectangle-path" fill="#4F81BD" x="3078" y="1057" width="47" height="47"></rect>
                    <text id="United" fill="#000000" font-family="Calibri" font-size="84" font-weight="normal">
                        <tspan x="3167" y="1111">United</tspan>
                    </text>
                    <text id="States," fill="#000000" font-family="Calibri" font-size="84" font-weight="normal">
                        <tspan x="3419" y="1111">States,</tspan>
                    </text>
                    <text id="792," fill="#000000" font-family="Calibri" font-size="84" font-weight="normal">
                        <tspan x="3671" y="1111">792,</tspan>
                    </text>
                    <text id="85%" fill="#000000" font-family="Calibri" font-size="84" font-weight="normal">
                        <tspan x="3421" y="1214">85%</tspan>
                    </text>
                    <rect id="Rectangle-path" fill="#C0504D" x="0" y="386" width="46" height="46"></rect>
                    <text id="United" fill="#000000" font-family="Calibri" font-size="84" font-weight="normal">
                        <tspan x="89" y="440">United</tspan>
                    </text>
                    <text id="Kingdom," fill="#000000" font-family="Calibri" font-size="84" font-weight="normal">
                        <tspan x="341" y="440">Kingdom,</tspan>
                    </text>
                    <text id="97," fill="#000000" font-family="Calibri" font-size="84" font-weight="normal">
                        <tspan x="686" y="440">97,</tspan>
                    </text>
                    <text id="10%" fill="#000000" font-family="Calibri" font-size="84" font-weight="normal">
                        <tspan x="367" y="543">10%</tspan>
                    </text>
                    <rect id="Rectangle-path" fill="#9BBB59" x="375" y="199" width="46" height="47"></rect>
                    <text id="Canada," fill="#000000" font-family="Calibri" font-size="84" font-weight="normal">
                        <tspan x="464" y="253">Canada,</tspan>
                    </text>
                    <text id="26," fill="#000000" font-family="Calibri" font-size="84" font-weight="normal">
                        <tspan x="760" y="253">26,</tspan>
                    </text>
                    <text id="3%" fill="#000000" font-family="Calibri" font-size="84" font-weight="normal">
                        <tspan x="886" y="253">3%</tspan>
                    </text>
                    <rect id="Rectangle-path" fill="#8064A2" x="812" y="27" width="47" height="46"></rect>
                    <text id="International," fill="#000000" font-family="Calibri" font-size="84" font-weight="normal">
                        <tspan x="902" y="80">International,</tspan>
                    </text>
                    <text id="8," fill="#000000" font-family="Calibri" font-size="84" font-weight="normal">
                        <tspan x="1389" y="80">8,</tspan>
                    </text>
                    <text id="1%" fill="#000000" font-family="Calibri" font-size="84" font-weight="normal">
                        <tspan x="1473" y="80">1%</tspan>
                    </text>
                    <rect id="Rectangle-path" fill="#4BACC6" x="1914" y="97" width="47" height="46"></rect>
                    <text id="Austria," fill="#000000" font-family="Calibri" font-size="84" font-weight="normal">
                        <tspan x="2003" y="151">Austria,</tspan>
                    </text>
                    <text id="6," fill="#000000" font-family="Calibri" font-size="84" font-weight="normal">
                        <tspan x="2288" y="151">6,</tspan>
                    </text>
                    <text id="1%" fill="#000000" font-family="Calibri" font-size="84" font-weight="normal">
                        <tspan x="2372" y="151">1%</tspan>
                    </text>
                </g>
            </g>
        </g>
    </g>
</svg>