<?xml version="1.0" encoding="UTF-8" standalone="no"?>
<svg width="3963px" height="2111px" viewBox="0 0 3963 2111" version="1.1" xmlns="http://www.w3.org/2000/svg" xmlns:xlink="http://www.w3.org/1999/xlink">
    <!-- Generator: Sketch 3.7.2 (28276) - http://www.bohemiancoding.com/sketch -->
    <title>Countries_Funding_Cytoscape_Citations_Total</title>
    <desc>Created with Sketch.</desc>
    <defs></defs>
    <g id="Page-1" stroke="none" stroke-width="1" fill="none" fill-rule="evenodd">
        <g id="Countries_Funding_Cytoscape_Citations_Total" transform="translate(0.000000, -13.000000)">
            <g id="Page_1-Clipped">
                <g id="Page_1">
                    <polygon id="Shape" fill="#4572A7" points="1987 1179 1422 422 1384 452 1348 484 1313 517 1281 551 1251 587 1222 624 1196 662 1172 701 1150 741 1129 782 1111 824 1095 866 1081 910 1070 953 1060 998 1052 1042 1047 1087 1044 1133 1042 1178 1043 1223 1047 1269 1052 1314 1060 1359 1070 1404 1082 1449 1096 1493 1113 1536 1132 1579 1153 1621 1176 1663 1202 1703 1230 1743 1260 1781 1292 1818 1325 1852 1359 1884 1395 1915 1432 1943 1470 1970 1509 1994 1549 2016 1591 2036 1632 2054 1675 2070 1718 2084 1762 2096 1806 2106 1851 2114 1896 2119 1941 2122 1986 2124 2032 2123 2077 2119 2123 2114 2168 2106 2213 2096 2257 2084 2301 2070 2345 2053 2388 2035 2430 2013 2472 1990 2512 1964 2552 1936 2590 1906 2626 1874 2661 1841 2693 1807 2723 1771 2752 1734 2778 1696 2802 1657 2824 1616 2845 1575 2863 1533 2879 1491 2893 1448 2904 1404 2914 1359 2922 1315 2927 1270 2931 1225 2932 1179 2931 1134 2927 1088 2922 1043 2914 998 2904 953 2892 909 2878 865 2861 821 2843 778 2821 736 2798 694 2772 654 2744 614 2709 570 2673 529 2634 490 2593 454 2550 420 2505 389 2458 360 2411 334 2361 311 2311 291 2259 274 2206 260 2152 249 2098 241 2043 236 1987 234"></polygon>
                    <polygon id="Shape" fill="#AA4643" points="1987 1179 1827 248 1772 259 1719 273 1666 291 1614 311 1564 334 1515 361 1468 390 1422 422"></polygon>
                    <polygon id="Shape" fill="#89A54E" points="1987 1179 1951 235 1889 240 1858 243 1827 248"></polygon>
                    <polygon id="Shape" fill="#71588F" points="1987 1179 1972 234 1951 235"></polygon>
                    <polygon id="Shape" fill="#4198AF" points="1987 1179 1982 234 1972 234"></polygon>
                    <polygon id="Shape" fill="#DB843D" points="1987 1179 1987 234 1982 234"></polygon>
                    <path d="M1615,314 L894,536 L855,536 L855,530 L893,530 L892,530 L1613,308 L1615,314 L1615,314 Z M1962,238 L1232,143 L1194,143 L1194,137 L1232,137 L1962,232 L1962,238 L1962,238 Z M1889,242 L783,266 L745,266 L745,260 L783,260 L1889,236 L1889,242 L1889,242 Z M1983,232 L2072,140 L2074,139 L2112,139 L2112,145 L2074,145 L2076,144 L1987,236 L1983,232 L1983,232 Z M1974,234 L1974,88 L1980,88 L1980,234 L1974,234 L1974,234 Z" id="Shape" fill="#000000"></path>
                    <rect id="Rectangle-path" fill="#4572A7" x="3218" y="1125" width="47" height="46"></rect>
                    <text id="United" fill="#000000" font-family="Calibri" font-size="68.8128" font-weight="normal">
                        <tspan x="3307" y="1178">United</tspan>
                    </text>
                    <text id="States," fill="#000000" font-family="Calibri" font-size="68.8128" font-weight="normal">
                        <tspan x="3559" y="1178">States,</tspan>
                    </text>
                    <text id="5328," fill="#000000" font-family="Calibri" font-size="68.8128" font-weight="normal">
                        <tspan x="3811" y="1178">5328,</tspan>
                    </text>
                    <text id="90%" fill="#000000" font-family="Calibri" font-size="68.8128" font-weight="normal">
                        <tspan x="3583" y="1282">90%</tspan>
                    </text>
                    <rect id="Rectangle-path" fill="#AA4643" x="0" y="481" width="46" height="46"></rect>
                    <text id="United" fill="#000000" font-family="Calibri" font-size="68.8128" font-weight="normal">
                        <tspan x="88" y="534">United</tspan>
                    </text>
                    <text id="Kingdom," fill="#000000" font-family="Calibri" font-size="68.8128" font-weight="normal">
                        <tspan x="340" y="534">Kingdom,</tspan>
                    </text>
                    <text id="444," fill="#000000" font-family="Calibri" font-size="68.8128" font-weight="normal">
                        <tspan x="685" y="534">444,</tspan>
                    </text>
                    <text id="8%" fill="#000000" font-family="Calibri" font-size="68.8128" font-weight="normal">
                        <tspan x="411" y="638">8%</tspan>
                    </text>
                    <rect id="Rectangle-path" fill="#89A54E" x="75" y="210" width="46" height="47"></rect>
                    <text id="Canada," fill="#000000" font-family="Calibri" font-size="68.8128" font-weight="normal">
                        <tspan x="164" y="264">Canada,</tspan>
                    </text>
                    <text id="125," fill="#000000" font-family="Calibri" font-size="68.8128" font-weight="normal">
                        <tspan x="461" y="264">125,</tspan>
                    </text>
                    <text id="2%" fill="#000000" font-family="Calibri" font-size="68.8128" font-weight="normal">
                        <tspan x="629" y="264">2%</tspan>
                    </text>
                    <rect id="Rectangle-path" fill="#71588F" x="375" y="88" width="46" height="46"></rect>
                    <text id="International," fill="#000000" font-family="Calibri" font-size="68.8128" font-weight="normal">
                        <tspan x="465" y="141">International,</tspan>
                    </text>
                    <text id="21," fill="#000000" font-family="Calibri" font-size="68.8128" font-weight="normal">
                        <tspan x="952" y="141">21,</tspan>
                    </text>
                    <text id="0%" fill="#000000" font-family="Calibri" font-size="68.8128" font-weight="normal">
                        <tspan x="1078" y="141">0%</tspan>
                    </text>
                    <rect id="Rectangle-path" fill="#4198AF" x="1442" y="13" width="46" height="46"></rect>
                    <text id="Austria," fill="#000000" font-family="Calibri" font-size="68.8128" font-weight="normal">
                        <tspan x="1531" y="66">Austria,</tspan>
                    </text>
                    <text id="10," fill="#000000" font-family="Calibri" font-size="68.8128" font-weight="normal">
                        <tspan x="1816" y="66">10,</tspan>
                    </text>
                    <text id="0%" fill="#000000" font-family="Calibri" font-size="68.8128" font-weight="normal">
                        <tspan x="1942" y="66">0%</tspan>
                    </text>
                    <rect id="Rectangle-path" fill="#DB843D" x="2154" y="90" width="46" height="46"></rect>
                    <text id="Italy," fill="#000000" font-family="Calibri" font-size="68.8128" font-weight="normal">
                        <tspan x="2244" y="143">Italy,</tspan>
                    </text>
                    <text id="5," fill="#000000" font-family="Calibri" font-size="68.8128" font-weight="normal">
                        <tspan x="2432" y="143">5,</tspan>
                    </text>
                    <text id="0%" fill="#000000" font-family="Calibri" font-size="68.8128" font-weight="normal">
                        <tspan x="2515" y="143">0%</tspan>
                    </text>
                </g>
            </g>
        </g>
    </g>
</svg>