<?xml version="1.0" encoding="UTF-8" standalone="no"?>
<svg width="3182px" height="1534px" viewBox="0 0 3182 1534" version="1.1" xmlns="http://www.w3.org/2000/svg" xmlns:xlink="http://www.w3.org/1999/xlink">
    <!-- Generator: Sketch 3.8.3 (29802) - http://www.bohemiancoding.com/sketch -->
    <title>Cytoscape_Citation_Sources_Prior_Year</title>
    <desc>Created with Sketch.</desc>
    <defs></defs>
    <g id="Page-1" stroke="none" stroke-width="1" fill="none" fill-rule="evenodd">
        <g id="Cytoscape_Citation_Sources_Prior_Year">
            <g id="Page_1-Clipped">
                <g id="Page_1">
                    <polygon id="Shape" fill="#4572A7" points="766 767 1517 922 1524 883 1529 845 1532 806 1533 768 1532 730 1530 692 1525 655 1519 618 1511 582 1501 546 1489 511 1476 476 1461 442 1445 409 1427 377 1407 346 1386 316 1364 287 1340 258 1315 231 1289 205 1261 181 1232 158 1202 136 1171 115 1138 96 1105 79 1070 63 1035 48 998 36 960 25 922 16 884 9 845 4 806 1 766 0"></polygon>
                    <polygon id="Shape" fill="#AA4643" points="766 767 773 1534 807 1533 840 1530 873 1526 906 1521 938 1514 969 1506 1001 1497 1031 1487 1061 1475 1091 1462 1120 1447 1148 1432 1202 1398 1228 1379 1253 1359 1301 1317 1345 1270 1365 1246 1385 1220 1403 1194 1421 1166 1437 1138 1452 1110 1466 1080 1479 1050 1490 1019 1501 987 1509 955 1517 922"></polygon>
                    <polygon id="Shape" fill="#89A54E" points="766 767 211 1296 239 1324 269 1350 299 1375 331 1398 364 1419 398 1439 432 1457 468 1473 504 1487 541 1500 578 1510 616 1519 655 1526 694 1530 733 1533 773 1534"></polygon>
                    <polygon id="Shape" fill="#71588F" points="766 767 8 883 13 912 19 941 26 969 44 1025 54 1052 66 1079 78 1105 106 1156 137 1205 172 1252 211 1296"></polygon>
                    <polygon id="Shape" fill="#4198AF" points="766 767 14 617 8 650 4 683 1 717 0 750 0 783 1 817 4 850 8 883"></polygon>
                    <polygon id="Shape" fill="#DB843D" points="766 767 90 405 77 430 65 456 54 482 44 508 27 562 14 617"></polygon>
                    <polygon id="Shape" fill="#93A9CF" points="766 767 225 223 186 265 151 309 119 356 90 405"></polygon>
                    <polygon id="Shape" fill="#D19392" points="766 767 395 95 349 123 306 153 264 187 225 223"></polygon>
                    <polygon id="Shape" fill="#B9CD96" points="766 767 581 22 533 36 486 53 440 72 395 95"></polygon>
                    <polygon id="Shape" fill="#A99BBD" points="766 767 766 0 720 1 673 5 627 12 581 22"></polygon>
                    <rect id="Rectangle-path" fill="#4572A7" x="2384" y="92" width="49" height="49"></rect>
                    <text id="PLoS" fill="#000000" font-family="Calibri" font-size="90" font-weight="normal">
                        <tspan x="2456" y="143">PLoS</tspan>
                    </text>
                    <text id="One" fill="#000000" font-family="Calibri" font-size="90" font-weight="normal">
                        <tspan x="2649" y="143">One</tspan>
                    </text>
                    <rect id="Rectangle-path" fill="#AA4643" x="2384" y="254" width="49" height="50"></rect>
                    <text id="Sci" fill="#000000" font-family="Calibri" font-size="90" font-weight="normal">
                        <tspan x="2456" y="306">Sci</tspan>
                    </text>
                    <text id="Rep" fill="#000000" font-family="Calibri" font-size="90" font-weight="normal">
                        <tspan x="2576" y="306">Rep</tspan>
                    </text>
                    <rect id="Rectangle-path" fill="#89A54E" x="2384" y="417" width="49" height="49"></rect>
                    <text id="BMC" fill="#000000" font-family="Calibri" font-size="90" font-weight="normal">
                        <tspan x="2456" y="468">BMC</tspan>
                    </text>
                    <text id="Genomics" fill="#000000" font-family="Calibri" font-size="90" font-weight="normal">
                        <tspan x="2650" y="468">Genomics</tspan>
                    </text>
                    <rect id="Rectangle-path" fill="#71588F" x="2384" y="579" width="49" height="50"></rect>
                    <text id="Nucleic" fill="#000000" font-family="Calibri" font-size="90" font-weight="normal">
                        <tspan x="2456" y="631">Nucleic</tspan>
                    </text>
                    <text id="Acids" fill="#000000" font-family="Calibri" font-size="90" font-weight="normal">
                        <tspan x="2744" y="631">Acids</tspan>
                    </text>
                    <text id="Res" fill="#000000" font-family="Calibri" font-size="90" font-weight="normal">
                        <tspan x="2957" y="631">Res</tspan>
                    </text>
                    <rect id="Rectangle-path" fill="#4198AF" x="2384" y="742" width="49" height="49"></rect>
                    <text id="Nat" fill="#000000" font-family="Calibri" font-size="90" font-weight="normal">
                        <tspan x="2456" y="793">Nat</tspan>
                    </text>
                    <text id="Commun" fill="#000000" font-family="Calibri" font-size="90" font-weight="normal">
                        <tspan x="2608" y="793">Commun</tspan>
                    </text>
                    <rect id="Rectangle-path" fill="#DB843D" x="2384" y="905" width="49" height="49"></rect>
                    <text id="BMC" fill="#000000" font-family="Calibri" font-size="90" font-weight="normal">
                        <tspan x="2456" y="956">BMC</tspan>
                    </text>
                    <text id="Bioinformatics" fill="#000000" font-family="Calibri" font-size="90" font-weight="normal">
                        <tspan x="2650" y="956">Bioinformatics</tspan>
                    </text>
                    <rect id="Rectangle-path" fill="#93A9CF" x="2384" y="1067" width="49" height="49"></rect>
                    <text id="Mol" fill="#000000" font-family="Calibri" font-size="90" font-weight="normal">
                        <tspan x="2456" y="1118">Mol</tspan>
                    </text>
                    <text id="Cell" fill="#000000" font-family="Calibri" font-size="90" font-weight="normal">
                        <tspan x="2621" y="1118">Cell</tspan>
                    </text>
                    <text id="Proteomics" fill="#000000" font-family="Calibri" font-size="90" font-weight="normal">
                        <tspan x="2775" y="1118">Proteomics</tspan>
                    </text>
                    <rect id="Rectangle-path" fill="#D19392" x="2384" y="1230" width="49" height="49"></rect>
                    <text id="Bioinformatics" fill="#000000" font-family="Calibri" font-size="90" font-weight="normal">
                        <tspan x="2456" y="1281">Bioinformatics</tspan>
                    </text>
                    <rect id="Rectangle-path" fill="#B9CD96" x="2384" y="1392" width="49" height="50"></rect>
                    <text id="Mol" fill="#000000" font-family="Calibri" font-size="90" font-weight="normal">
                        <tspan x="2456" y="1443">Mol</tspan>
                    </text>
                    <text id="Med" fill="#000000" font-family="Calibri" font-size="90" font-weight="normal">
                        <tspan x="2621" y="1443">Med</tspan>
                    </text>
                    <text id="Rep" fill="#000000" font-family="Calibri" font-size="90" font-weight="normal">
                        <tspan x="2810" y="1443">Rep</tspan>
                    </text>
                </g>
            </g>
        </g>
    </g>
</svg>