<?xml version="1.0" encoding="UTF-8" standalone="no"?>
<svg width="3189px" height="1548px" viewBox="0 0 3189 1548" version="1.1" xmlns="http://www.w3.org/2000/svg" xmlns:xlink="http://www.w3.org/1999/xlink">
    <!-- Generator: Sketch 3.8.3 (29802) - http://www.bohemiancoding.com/sketch -->
    <title>Page_1 Clipped</title>
    <desc>Created with Sketch.</desc>
    <defs></defs>
    <g id="Page-1" stroke="none" stroke-width="1" fill="none" fill-rule="evenodd">
        <g id="Page_1-Clipped">
            <g id="Page_1">
                <polygon id="Shape" fill="#4572A7" points="773 774 1461 1129 1478 1093 1494 1057 1507 1020 1519 983 1528 946 1536 908 1541 871 1545 833 1547 796 1547 758 1545 721 1542 684 1537 647 1530 610 1521 574 1511 539 1498 503 1485 469 1469 435 1452 402 1433 370 1413 338 1391 308 1368 278 1343 250 1317 223 1289 196 1229 148 1197 126 1163 105 1128 86 1086 66 1044 49 1000 34 956 22 911 12 865 5 819 1 773 0"></polygon>
                <polygon id="Shape" fill="#AA4643" points="773 774 1071 1488 1102 1474 1133 1459 1162 1443 1191 1425 1219 1406 1246 1386 1273 1365 1298 1343 1322 1320 1368 1270 1389 1244 1409 1216 1427 1188 1445 1159 1461 1129"></polygon>
                <polygon id="Shape" fill="#89A54E" points="773 774 545 1513 578 1522 610 1530 644 1537 677 1542 710 1545 743 1547 777 1548 810 1547 844 1545 877 1541 910 1536 943 1529 975 1521 1008 1511 1040 1500 1071 1488"></polygon>
                <polygon id="Shape" fill="#71588F" points="773 774 160 1245 198 1291 240 1334 284 1373 332 1409 382 1441 407 1456 461 1482 517 1504 545 1513"></polygon>
                <polygon id="Shape" fill="#4198AF" points="773 774 9 896 18 943 30 990 45 1035 63 1080 83 1123 106 1165 132 1206 160 1245"></polygon>
                <polygon id="Shape" fill="#DB843D" points="773 774 22 588 14 626 7 664 3 703 0 741 0 780 1 819 4 857 9 896"></polygon>
                <polygon id="Shape" fill="#93A9CF" points="773 774 141 327 121 357 102 388 85 420 70 452 55 485 31 553 22 588"></polygon>
                <polygon id="Shape" fill="#D19392" points="773 774 342 131 313 152 285 173 259 196 233 220 208 245 185 271 162 299 141 327"></polygon>
                <polygon id="Shape" fill="#B9CD96" points="773 774 564 29 535 38 506 48 477 59 449 71 421 84 394 99 368 114 342 131"></polygon>
                <polygon id="Shape" fill="#A99BBD" points="773 774 773 0 720 2 668 7 616 16 564 29"></polygon>
                <rect id="Rectangle-path" fill="#4572A7" x="2391" y="99" width="49" height="49"></rect>
                <text id="PLoS" fill="#000000" font-family="Calibri" font-size="90" font-weight="normal">
                    <tspan x="2463" y="150">PLoS</tspan>
                </text>
                <text id="One" fill="#000000" font-family="Calibri" font-size="90" font-weight="normal">
                    <tspan x="2656" y="150">One</tspan>
                </text>
                <rect id="Rectangle-path" fill="#AA4643" x="2391" y="261" width="49" height="50"></rect>
                <text id="BMC" fill="#000000" font-family="Calibri" font-size="90" font-weight="normal">
                    <tspan x="2463" y="312">BMC</tspan>
                </text>
                <text id="Bioinformatics" fill="#000000" font-family="Calibri" font-size="90" font-weight="normal">
                    <tspan x="2657" y="312">Bioinformatics</tspan>
                </text>
                <rect id="Rectangle-path" fill="#89A54E" x="2391" y="424" width="49" height="49"></rect>
                <text id="BMC" fill="#000000" font-family="Calibri" font-size="90" font-weight="normal">
                    <tspan x="2463" y="475">BMC</tspan>
                </text>
                <text id="Genomics" fill="#000000" font-family="Calibri" font-size="90" font-weight="normal">
                    <tspan x="2657" y="475">Genomics</tspan>
                </text>
                <rect id="Rectangle-path" fill="#71588F" x="2391" y="587" width="49" height="49"></rect>
                <text id="Nucleic" fill="#000000" font-family="Calibri" font-size="90" font-weight="normal">
                    <tspan x="2463" y="637">Nucleic</tspan>
                </text>
                <text id="Acids" fill="#000000" font-family="Calibri" font-size="90" font-weight="normal">
                    <tspan x="2751" y="637">Acids</tspan>
                </text>
                <text id="Res" fill="#000000" font-family="Calibri" font-size="90" font-weight="normal">
                    <tspan x="2964" y="637">Res</tspan>
                </text>
                <rect id="Rectangle-path" fill="#4198AF" x="2391" y="749" width="49" height="49"></rect>
                <text id="BMC" fill="#000000" font-family="Calibri" font-size="90" font-weight="normal">
                    <tspan x="2463" y="800">BMC</tspan>
                </text>
                <text id="Syst" fill="#000000" font-family="Calibri" font-size="90" font-weight="normal">
                    <tspan x="2657" y="800">Syst</tspan>
                </text>
                <text id="Biol" fill="#000000" font-family="Calibri" font-size="90" font-weight="normal">
                    <tspan x="2825" y="800">Biol</tspan>
                </text>
                <rect id="Rectangle-path" fill="#DB843D" x="2391" y="912" width="49" height="49"></rect>
                <text id="Sci" fill="#000000" font-family="Calibri" font-size="90" font-weight="normal">
                    <tspan x="2463" y="962">Sci</tspan>
                </text>
                <text id="Rep" fill="#000000" font-family="Calibri" font-size="90" font-weight="normal">
                    <tspan x="2583" y="962">Rep</tspan>
                </text>
                <rect id="Rectangle-path" fill="#93A9CF" x="2391" y="1074" width="49" height="50"></rect>
                <text id="Bioinformatics" fill="#000000" font-family="Calibri" font-size="90" font-weight="normal">
                    <tspan x="2463" y="1125">Bioinformatics</tspan>
                </text>
                <rect id="Rectangle-path" fill="#D19392" x="2391" y="1237" width="49" height="49"></rect>
                <text id="Mol" fill="#000000" font-family="Calibri" font-size="90" font-weight="normal">
                    <tspan x="2463" y="1288">Mol</tspan>
                </text>
                <text id="Cell" fill="#000000" font-family="Calibri" font-size="90" font-weight="normal">
                    <tspan x="2628" y="1288">Cell</tspan>
                </text>
                <text id="Proteomics" fill="#000000" font-family="Calibri" font-size="90" font-weight="normal">
                    <tspan x="2782" y="1288">Proteomics</tspan>
                </text>
                <rect id="Rectangle-path" fill="#B9CD96" x="2391" y="1399" width="49" height="50"></rect>
                <text id="PLoS" fill="#000000" font-family="Calibri" font-size="90" font-weight="normal">
                    <tspan x="2463" y="1450">PLoS</tspan>
                </text>
                <text id="Comput" fill="#000000" font-family="Calibri" font-size="90" font-weight="normal">
                    <tspan x="2656" y="1450">Comput</tspan>
                </text>
                <text id="Biol" fill="#000000" font-family="Calibri" font-size="90" font-weight="normal">
                    <tspan x="2969" y="1450">Biol</tspan>
                </text>
            </g>
        </g>
    </g>
</svg>