<?xml version="1.0" standalone="no"?>
<svg xml:space="preserve" width="100%" height="100%" viewBox="0 0 4897 6337" preserveAspectRatio="xMidYMid"
  fill-rule="nonzero" stroke-linecap="round" stroke-linejoin="round"
  xmlns="http://www.w3.org/2000/svg"
  xmlns:xlink="http://www.w3.org/1999/xlink"
  xmlns:svgmaker="http://www.svgmaker.com/svgns">
<svgmaker:init width="215.9mm" height="279.4mm" viewBox="0 0 4897 6337" view="fit"
  crop="none" cropWidth="180.3mm" cropHeight="88.9mm" cropBox="404 2161 4090 2016"/>
<title>Untitled</title>
<desc>
  Generated by SVGmaker V3 Version 3.61.E702.64
  MAY-16-2016, 08:31
</desc>
<defs><clipPath id="page_clip"><rect x="0" y="0" width="4897" height="6337"/></clipPath></defs>
<g id="Page_1" clip-path="url(#page_clip)" svgmaker:mediaBox="0 0 4897 6337">
<rect x="407" y="2163" width="4084" height="2011" fill="#FFFFFF" stroke="none"/>
<path fill="#4572A7" stroke="none" d="M 1979,3308 l 751,155 7,-39 5,-38 3,-39 1,-38 -1,-38 -2,-38 -5,-37 -6,-37 -8,-36 -10,-36 -12,-35 -13,-35 -15,-34 -16,-33 -18,-32 -20,-31 -21,-30 -22,-29 -24,-29 -25,-27 -26,-26 -28,-24 -29,-23 -30,-22 -31,-21 -33,-19 -33,-17 -35,-16 -35,-15 -37,-12 -38,-11 -38,-9 -38,-7 -39,-5 -39,-3 -40,-1 0,767 z"/>
<path fill="#AA4643" stroke="none" d="M 1979,3308 l 7,767 34,-1 33,-3 33,-4 33,-5 32,-7 31,-8 32,-9 30,-10 30,-12 30,-13 29,-15 28,-15 54,-34 26,-19 25,-20 48,-42 44,-47 20,-24 20,-26 18,-26 18,-28 16,-28 15,-28 14,-30 13,-30 11,-31 11,-32 8,-32 8,-33 -751,-155 z"/>
<path fill="#89A54E" stroke="none" d="M 1979,3308 l -555,529 28,28 30,26 30,25 32,23 33,21 34,20 34,18 36,16 36,14 37,13 37,10 38,9 39,7 39,4 39,3 40,1 -7,-767 z"/>
<path fill="#71588F" stroke="none" d="M 1979,3308 l -758,116 5,29 6,29 7,28 18,56 10,27 12,27 12,26 28,51 31,49 35,47 39,44 555,-529 z"/>
<path fill="#4198AF" stroke="none" d="M 1979,3308 l -752,-150 -6,33 -4,33 -3,34 -1,33 0,33 1,34 3,33 4,33 758,-116 z"/>
<path fill="#DB843D" stroke="none" d="M 1979,3308 l -676,-362 -13,25 -12,26 -11,26 -10,26 -17,54 -13,55 752,150 z"/>
<path fill="#93A9CF" stroke="none" d="M 1979,3308 l -541,-544 -39,42 -35,44 -32,47 -29,49 676,362 z"/>
<path fill="#D19392" stroke="none" d="M 1979,3308 l -371,-672 -46,28 -43,30 -42,34 -39,36 541,544 z"/>
<path fill="#B9CD96" stroke="none" d="M 1979,3308 l -185,-745 -48,14 -47,17 -46,19 -45,23 371,672 z"/>
<path fill="#A99BBD" stroke="none" d="M 1979,3308 l 0,-767 -46,1 -47,4 -46,7 -46,10 185,745 z"/>
<text font-family="Calibri" font-size="162" fill="#000000" font-weight="700"><tspan x="1048,1115,1201,1288" y="2386">Top </tspan><tspan x="1325,1410,1488,1543,1629,1693,1760,1839,1926,2008" y="2386">Cytoscape </tspan><tspan x="2045,2130,2170,2225,2303,2360,2399,2485,2572" y="2386">Citation </tspan><tspan x="2610,2698,2780,2866,2953,3035,3099" y="2386">Venues </tspan><tspan x="3135,3211,3251,3337,3405,3487" y="2386">Since </tspan><tspan x="3524,3606,3688,3770" y="2386">2015</tspan></text>
<rect x="3597" y="2633" width="49" height="49" fill="#4572A7" stroke="none"/>
<text font-family="Calibri" font-size="90" fill="#000000"><tspan x="3669,3715,3753,3800,3842" y="2684">PLoS </tspan><tspan x="3862,3922,3969" y="2684">One</tspan></text>
<rect x="3597" y="2795" width="49" height="50" fill="#AA4643" stroke="none"/>
<text font-family="Calibri" font-size="90" fill="#000000"><tspan x="3669,3711,3749,3769" y="2847">Sci </tspan><tspan x="3789,3838,3883" y="2847">Rep</tspan></text>
<rect x="3597" y="2958" width="49" height="49" fill="#89A54E" stroke="none"/>
<text font-family="Calibri" font-size="90" fill="#000000"><tspan x="3669,3718,3795,3843" y="3009">BMC </tspan><tspan x="3863,3920,3965,4012,4059,4131,4151,4189" y="3009">Genomics</tspan></text>
<rect x="3597" y="3120" width="49" height="50" fill="#71588F" stroke="none"/>
<text font-family="Calibri" font-size="90" fill="#000000"><tspan x="3669,3727,3775,3813,3833,3878,3898,3936" y="3172">Nucleic </tspan><tspan x="3957,4008,4047,4067,4114,4150" y="3172">Acids </tspan><tspan x="4170,4218,4263" y="3172">Res</tspan></text>
<rect x="3597" y="3283" width="49" height="49" fill="#4198AF" stroke="none"/>
<text font-family="Calibri" font-size="90" fill="#000000"><tspan x="3669,3727,3770,3800" y="3334">Nat </tspan><tspan x="3821,3868,3916,3988,4060,4107" y="3334">Commun</tspan></text>
<rect x="3597" y="3446" width="49" height="49" fill="#DB843D" stroke="none"/>
<text font-family="Calibri" font-size="90" fill="#000000"><tspan x="3669,3718,3795,3843" y="3497">BMC </tspan><tspan x="3863,3912,3933,3980,4000,4048,4076,4123,4154,4226,4269,4299,4320,4358" y="3497">Bioinformatics</tspan></text>
<rect x="3597" y="3608" width="49" height="49" fill="#93A9CF" stroke="none"/>
<text font-family="Calibri" font-size="90" fill="#000000"><tspan x="3669,3745,3794,3814" y="3659">Mol </tspan><tspan x="3834,3883,3926,3948,3968" y="3659">Cell </tspan><tspan x="3988,4035,4066,4114,4143,4188,4235,4307,4329,4367" y="3659">Proteomics</tspan></text>
<rect x="3597" y="3771" width="49" height="49" fill="#D19392" stroke="none"/>
<text font-family="Calibri" font-size="90" fill="#000000"><tspan x="3669,3718,3739,3786,3806,3853,3881,3929,3960,4032,4075,4105,4125,4163" y="3822">Bioinformatics</tspan></text>
<rect x="3597" y="3933" width="49" height="50" fill="#B9CD96" stroke="none"/>
<text font-family="Calibri" font-size="90" fill="#000000"><tspan x="3669,3745,3794,3814" y="3984">Mol </tspan><tspan x="3834,3911,3956,4003" y="3984">Med </tspan><tspan x="4023,4072,4117" y="3984">Rep</tspan></text>
<path fill="#868686" stroke="none" d="M 4492,2161 l 0,1 2,0 0,5 -4083,0 0,2004 -7,0 0,-2007 1,0 0,-1 1,0 0,-1 2,0 0,-1 4084,0 z"/>
<path fill="#868686" stroke="none" d="M 4494,2167 l 0,2010 -4088,0 0,-1 -1,0 0,-1 -1,0 0,-4 4085,0 0,-2004 5,0 z"/>
</g>
</svg>
