<?xml version="1.0" standalone="no"?>
<svg xml:space="preserve" width="100%" height="100%" viewBox="0 0 4897 6337" preserveAspectRatio="xMidYMid"
  fill-rule="nonzero" stroke-linecap="round" stroke-linejoin="round"
  xmlns="http://www.w3.org/2000/svg"
  xmlns:xlink="http://www.w3.org/1999/xlink"
  xmlns:svgmaker="http://www.svgmaker.com/svgns">
<svgmaker:init width="215.9mm" height="279.4mm" viewBox="0 0 4897 6337" view="fit"
  crop="none" cropWidth="180.3mm" cropHeight="89.5mm" cropBox="404 2154 4090 2030"/>
<title>Untitled</title>
<desc>
  Generated by SVGmaker V3 Version 3.61.E702.64
  MAY-16-2016, 08:31
</desc>
<defs><clipPath id="page_clip"><rect x="0" y="0" width="4897" height="6337"/></clipPath></defs>
<g id="Page_1" clip-path="url(#page_clip)" svgmaker:mediaBox="0 0 4897 6337">
<rect x="406" y="2157" width="4084" height="2025" fill="#FFFFFF" stroke="none"/>
<path fill="#4572A7" stroke="none" d="M 1978,3309 l 688,355 17,-36 16,-36 13,-37 12,-37 9,-37 8,-38 5,-37 4,-38 2,-37 0,-38 -2,-37 -3,-37 -5,-37 -7,-37 -9,-36 -10,-35 -13,-36 -13,-34 -16,-34 -17,-33 -19,-32 -20,-32 -22,-30 -23,-30 -25,-28 -26,-27 -28,-27 -60,-48 -32,-22 -34,-21 -35,-19 -42,-20 -42,-17 -44,-15 -44,-12 -45,-10 -46,-7 -46,-4 -46,-1 0,774 z"/>
<path fill="#AA4643" stroke="none" d="M 1978,3309 l 298,714 31,-14 31,-15 29,-16 29,-18 28,-19 27,-20 27,-21 25,-22 24,-23 46,-50 21,-26 20,-28 18,-28 18,-29 16,-30 -688,-355 z"/>
<path fill="#89A54E" stroke="none" d="M 1978,3309 l -228,739 33,9 32,8 34,7 33,5 33,3 33,2 34,1 33,-1 34,-2 33,-4 33,-5 33,-7 32,-8 33,-10 32,-11 31,-12 -298,-714 z"/>
<path fill="#71588F" stroke="none" d="M 1978,3309 l -613,471 38,46 42,43 44,39 48,36 50,32 25,15 54,26 56,22 28,9 228,-739 z"/>
<path fill="#4198AF" stroke="none" d="M 1978,3309 l -764,122 9,47 12,47 15,45 18,45 20,43 23,42 26,41 28,39 613,-471 z"/>
<path fill="#DB843D" stroke="none" d="M 1978,3309 l -751,-186 -8,38 -7,38 -4,39 -3,38 0,39 1,39 3,38 5,39 764,-122 z"/>
<path fill="#93A9CF" stroke="none" d="M 1978,3309 l -632,-447 -20,30 -19,31 -17,32 -15,32 -15,33 -24,68 -9,35 751,186 z"/>
<path fill="#D19392" stroke="none" d="M 1978,3309 l -431,-643 -29,21 -28,21 -26,23 -26,24 -25,25 -23,26 -23,28 -21,28 632,447 z"/>
<path fill="#B9CD96" stroke="none" d="M 1978,3309 l -209,-745 -29,9 -29,10 -29,11 -28,12 -28,13 -27,15 -26,15 -26,17 431,643 z"/>
<path fill="#A99BBD" stroke="none" d="M 1978,3309 l 0,-774 -53,2 -52,5 -52,9 -52,13 209,745 z"/>
<text font-family="Calibri" font-size="162" fill="#000000" font-weight="700"><tspan x="1032,1098,1185,1271" y="2379">Top </tspan><tspan x="1308,1394,1471,1526,1613,1677,1743,1823,1910,1992" y="2379">Cytoscape </tspan><tspan x="2029,2114,2154,2209,2287,2343,2383,2469,2556" y="2379">Citation </tspan><tspan x="2594,2671,2757,2844,2899,2966,3048,3112" y="2379">Sources </tspan><tspan x="3149,3226,3265,3352,3419,3501" y="2379">Since </tspan><tspan x="3538,3620,3702,3784" y="2379">2004</tspan></text>
<rect x="3596" y="2634" width="49" height="49" fill="#4572A7" stroke="none"/>
<text font-family="Calibri" font-size="90" fill="#000000"><tspan x="3668,3714,3752,3800,3841" y="2685">PLoS </tspan><tspan x="3861,3921,3968" y="2685">One</tspan></text>
<rect x="3596" y="2796" width="49" height="50" fill="#AA4643" stroke="none"/>
<text font-family="Calibri" font-size="90" fill="#000000"><tspan x="3668,3717,3794,3842" y="2847">BMC </tspan><tspan x="3862,3911,3932,3979,4000,4047,4075,4122,4154,4225,4268,4299,4319,4357" y="2847">Bioinformatics</tspan></text>
<rect x="3596" y="2959" width="49" height="49" fill="#89A54E" stroke="none"/>
<text font-family="Calibri" font-size="90" fill="#000000"><tspan x="3668,3717,3794,3842" y="3010">BMC </tspan><tspan x="3862,3919,3964,4011,4058,4130,4150,4188" y="3010">Genomics</tspan></text>
<rect x="3596" y="3122" width="49" height="49" fill="#71588F" stroke="none"/>
<text font-family="Calibri" font-size="90" fill="#000000"><tspan x="3668,3726,3774,3812,3832,3877,3897,3936" y="3172">Nucleic </tspan><tspan x="3956,4007,4046,4066,4113,4149" y="3172">Acids </tspan><tspan x="4169,4218,4263" y="3172">Res</tspan></text>
<rect x="3596" y="3284" width="49" height="49" fill="#4198AF" stroke="none"/>
<text font-family="Calibri" font-size="90" fill="#000000"><tspan x="3668,3717,3794,3842" y="3335">BMC </tspan><tspan x="3862,3903,3945,3979,4010" y="3335">Syst </tspan><tspan x="4030,4078,4100,4147" y="3335">Biol</tspan></text>
<rect x="3596" y="3447" width="49" height="49" fill="#DB843D" stroke="none"/>
<text font-family="Calibri" font-size="90" fill="#000000"><tspan x="3668,3710,3748,3768" y="3497">Sci </tspan><tspan x="3788,3837,3882" y="3497">Rep</tspan></text>
<rect x="3596" y="3609" width="49" height="50" fill="#93A9CF" stroke="none"/>
<text font-family="Calibri" font-size="90" fill="#000000"><tspan x="3668,3717,3738,3785,3805,3852,3880,3928,3959,4031,4074,4104,4124,4163" y="3660">Bioinformatics</tspan></text>
<rect x="3596" y="3772" width="49" height="49" fill="#D19392" stroke="none"/>
<text font-family="Calibri" font-size="90" fill="#000000"><tspan x="3668,3744,3793,3813" y="3823">Mol </tspan><tspan x="3833,3882,3925,3947,3967" y="3823">Cell </tspan><tspan x="3987,4034,4065,4113,4142,4187,4234,4306,4328,4366" y="3823">Proteomics</tspan></text>
<rect x="3596" y="3934" width="49" height="50" fill="#B9CD96" stroke="none"/>
<text font-family="Calibri" font-size="90" fill="#000000"><tspan x="3668,3714,3752,3800,3841" y="3985">PLoS </tspan><tspan x="3861,3910,3957,4029,4076,4123,4154" y="3985">Comput </tspan><tspan x="4174,4222,4243,4291" y="3985">Biol</tspan></text>
<path fill="#868686" stroke="none" d="M 4491,2154 l 0,1 3,0 0,6 -4084,0 0,2017 -6,0 0,-2020 1,0 0,-2 1,0 0,-1 1,0 0,-1 4084,0 z"/>
<path fill="#868686" stroke="none" d="M 4494,2161 l 0,2023 -4089,0 0,-1 -1,0 0,-5 4084,0 0,-2017 6,0 z"/>
</g>
</svg>
