<?xml version="1.0" standalone="no"?>
<svg xml:space="preserve" width="100%" height="100%" viewBox="0 0 4897 6337" preserveAspectRatio="xMidYMid"
  fill-rule="nonzero" stroke-linecap="round" stroke-linejoin="round"
  xmlns="http://www.w3.org/2000/svg"
  xmlns:xlink="http://www.w3.org/1999/xlink"
  xmlns:svgmaker="http://www.svgmaker.com/svgns">
<svgmaker:init width="215.9mm" height="279.4mm" viewBox="0 0 4897 6337" view="fit"
  crop="none" cropWidth="180.3mm" cropHeight="98.0mm" cropBox="404 2058 4090 2222"/>
<title>Untitled</title>
<desc>
  Generated by SVGmaker V3 Version 3.61.E702.64
  MAY-16-2016, 08:33
</desc>
<defs><clipPath id="page_clip"><rect x="0" y="0" width="4897" height="6337"/></clipPath></defs>
<g id="Page_1" clip-path="url(#page_clip)" svgmaker:mediaBox="0 0 4897 6337">
<rect x="406" y="2060" width="4085" height="2218" fill="#FFFFFF" stroke="none"/>
<rect x="824" y="2367" width="2729" height="1314" fill="#FFFFFF" stroke="none"/>
<path fill="#868686" stroke="none" d="M 823,3532 l 2729,0 0,5 -2729,0 0,-5 z m 0,-146 l 2729,0 0,5 -2729,0 0,-5 z m 0,-146 l 2729,0 0,5 -2729,0 0,-5 z m 0,-146 l 2729,0 0,5 -2729,0 0,-5 z m 0,-146 l 2729,0 0,5 -2729,0 0,-5 z m 0,-146 l 2729,0 0,5 -2729,0 0,-5 z m 0,-146 l 2729,0 0,5 -2729,0 0,-5 z m 0,-146 l 2729,0 0,5 -2729,0 0,-5 z m 0,-146 l 2729,0 0,5 -2729,0 0,-5 z"/>
<rect x="821" y="2366" width="5" height="1314" fill="#868686" stroke="none"/>
<path fill="#868686" stroke="none" d="M 800,3678 l 23,0 0,5 -23,0 0,-5 z m 0,-146 l 23,0 0,5 -23,0 0,-5 z m 0,-146 l 23,0 0,5 -23,0 0,-5 z m 0,-146 l 23,0 0,5 -23,0 0,-5 z m 0,-146 l 23,0 0,5 -23,0 0,-5 z m 0,-146 l 23,0 0,5 -23,0 0,-5 z m 0,-146 l 23,0 0,5 -23,0 0,-5 z m 0,-146 l 23,0 0,5 -23,0 0,-5 z m 0,-146 l 23,0 0,5 -23,0 0,-5 z m 0,-146 l 23,0 0,5 -23,0 0,-5 z"/>
<rect x="823" y="3678" width="2729" height="5" fill="#868686" stroke="none"/>
<path fill="#868686" stroke="none" d="M 826,3680 l 0,23 -5,0 0,-23 5,0 z m 161,0 l 0,23 -5,0 0,-23 5,0 z m 160,0 l 0,23 -5,0 0,-23 5,0 z m 161,0 l 0,23 -5,0 0,-23 5,0 z m 160,0 l 0,23 -5,0 0,-23 5,0 z m 161,0 l 0,23 -5,0 0,-23 5,0 z m 160,0 l 0,23 -5,0 0,-23 5,0 z m 161,0 l 0,23 -5,0 0,-23 5,0 z m 160,0 l 0,23 -5,0 0,-23 5,0 z m 161,0 l 0,23 -5,0 0,-23 5,0 z m 161,0 l 0,23 -5,0 0,-23 5,0 z m 160,0 l 0,23 -5,0 0,-23 5,0 z m 161,0 l 0,23 -5,0 0,-23 5,0 z m 160,0 l 0,23 -5,0 0,-23 5,0 z m 161,0 l 0,23 -5,0 0,-23 5,0 z m 160,0 l 0,23 -5,0 0,-23 5,0 z m 161,0 l 0,23 -5,0 0,-23 5,0 z m 160,0 l 0,23 -5,0 0,-23 5,0 z"/>
<path fill="#C00000" stroke="none" d="M 860,3648 l 80,-45 1,0 1,-1 80,-24 80,-33 -1,0 80,-53 79,-61 1,-1 80,-40 1,0 1,-1 81,-25 79,-33 160,-68 -1,0 81,-54 80,-46 81,-32 81,-34 -1,0 80,-52 1,0 1,-1 80,-23 79,-30 -1,0 81,-50 81,-35 80,-31 79,-39 82,-31 -1,1 80,-46 81,-38 79,-45 81,-48 1,0 80,-33 80,-29 81,-29 81,-23 79,-30 81,-20 -2,1 81,-43 3,-1 3,0 3,2 2,2 1,3 0,3 -2,3 -2,2 -81,43 -1,1 -1,0 -79,18 -81,32 -79,23 -81,29 -80,27 -80,33 1,0 -81,48 -81,45 -79,38 -80,46 -1,0 -81,30 -80,39 -80,31 -79,35 -81,50 -1,0 -81,32 -80,23 2,-1 -80,52 -1,0 -81,34 -79,32 -80,46 -81,54 -1,0 -160,68 -81,35 -81,25 2,-1 -80,40 1,-1 -81,63 -80,53 -1,0 -82,35 -80,24 2,-1 -80,45 -3,1
 -3,0 -3,-2 -2,-2 -1,-3 0,-3 2,-3 2,-2 z"/>
<path fill="#C00000" stroke="none" d="M 1180,3621 l 4,-1 27,-6 3,0 3,1 2,2 1,3 0,3 -1,3 -2,3 -3,1 -28,6 -7,0 -3,-1 -2,-2 -1,-3 0,-3 1,-3 3,-2 3,-1 z m 62,-14 l 21,-5 11,-1 3,0 3,1 2,2 1,3 0,4 -4,4 -3,1 -9,2 -22,5 -3,0 -3,-1 -2,-2 -1,-3 0,-3 1,-3 2,-3 3,-1 z m 444,-56 l 32,-6 3,0 3,1 2,2 1,3 0,3 -1,3 -2,2 -3,1 -32,7 -6,-2 -2,-2 -1,-3 0,-3 1,-3 2,-2 3,-1 z m 570,-81 l 32,-6 6,2 2,2 1,3 0,3 -1,3 -2,2 -3,1 -32,6 -6,-2 -2,-2 -1,-3 0,-3 1,-3 2,-2 3,-1 z m 1207,-149 l 31,-6 6,2 2,2 1,3 0,3 -1,3 -2,2 -3,1 -32,6 -3,0 -3,-1 -2,-3 -1,-3 0,-3 1,-3 3,-2 3,-1 z m -1460,183 l 31,-5 4,0 3,1 2,2 1,3 0,4
 -2,3 -2,2 -3,1 -31,5 -3,0 -3,-1 -3,-2 -1,-3 0,-3 1,-3 3,-3 3,-1 z m 380,-53 l 5,-1 27,-4 3,0 3,1 2,3 1,3 0,3 -2,3 -2,2 -3,1 -27,4 -5,1 -3,0 -3,-2 -2,-2 -1,-3 2,-6 2,-2 3,-1 z m 444,-59 l 32,-5 6,2 2,2 1,3 0,4 -4,4 -3,1 -32,5 -3,0 -3,-2 -2,-2 -1,-3 2,-6 2,-2 3,-1 z m -1078,146 l 32,-5 3,0 3,1 2,2 1,3 0,4 -1,3 -3,2 -3,1 -31,5 -3,0 -3,-1 -2,-2 -1,-3 0,-3 1,-3 2,-3 3,-1 z m 761,-106 l 31,-5 4,0 2,1 2,3 1,3 0,3 -1,3 -2,2 -3,1 -32,5 -3,0 -3,-2 -2,-2 -1,-3 0,-3 1,-3 3,-2 3,-1 z m -1205,164 l 32,-5 3,0 3,1 2,3 1,3 0,3 -1,3 -3,2 -3,1 -31,5 -3,0 -3,-2 -2,-2
 -1,-3 0,-3 1,-3 2,-2 3,-1 z m 1585,-214 l 32,-5 3,0 3,1 2,2 1,3 0,4 -1,3 -3,2 -3,1 -31,5 -3,0 -3,-1 -2,-2 -1,-3 0,-3 1,-3 2,-3 3,-1 z m -1773,249 l 31,-5 4,0 2,1 2,2 1,3 0,4 -1,3 -2,2 -3,1 -32,5 -6,-2 -2,-2 -1,-3 0,-3 1,-3 3,-2 3,-1 z m -127,16 l 32,-4 6,2 2,2 1,3 0,4 -4,4 -3,1 -32,4 -3,0 -3,-2 -2,-2 -1,-3 0,-3 2,-3 2,-2 3,-1 z m 886,-128 l 30,-4 5,0 3,2 2,2 1,3 0,3 -2,3 -2,2 -3,1 -2,0 -30,4 -3,0 -3,-2 -2,-2 -1,-3 2,-6 2,-2 3,-1 z m -1013,144 l 32,-4 3,0 3,1 2,3 1,3 0,3 -2,3 -2,2 -3,1 -32,4 -3,0 -3,-2 -2,-2 -1,-3 0,-3 2,-3 2,-2 3,-1 z m 1267,-177 l 17,-2 15,-2
 6,2 2,2 1,3 -1,4 -1,2 -3,2 -3,1 -14,2 -17,2 -3,0 -3,-2 -2,-2 -1,-3 0,-3 1,-3 3,-2 3,-1 z m 63,-7 l 32,-4 4,1 2,1 2,2 1,3 0,4 -4,4 -3,1 -32,4 -3,0 -3,-2 -2,-2 -1,-3 2,-6 2,-2 3,-1 z m -1267,175 l 17,-2 15,-2 4,1 2,1 2,2 1,3 0,4 -4,4 -3,1 -15,2 -17,2 -3,0 -3,-1 -2,-3 -1,-3 2,-6 2,-2 3,-1 z m 507,-71 l 32,-4 6,2 2,2 1,3 0,3 -2,3 -2,2 -3,1 -32,4 -3,0 -3,-2 -2,-2 -1,-3 0,-3 1,-3 3,-2 3,-1 z m 1204,-166 l 32,-4 3,0 3,1 2,2 1,3 0,4 -4,4 -3,1 -32,5 -3,0 -3,-2 -2,-2 -1,-3 0,-3 1,-3 3,-2 3,-1 z m 63,-9 l 9,-1 23,-3 6,2 2,2 1,3 0,3 -2,3 -2,2 -3,1 -23,3
 -9,1 -3,0 -3,-1 -2,-3 -1,-3 2,-6 2,-2 3,-1 z m 64,-8 l 25,-3 6,-1 4,1 3,1 2,2 1,3 0,3 -2,3 -2,2 -3,1 -7,1 -25,3 -3,0 -3,-2 -2,-2 -1,-3 0,-3 1,-3 3,-2 3,-1 z m -1268,175 l 9,-1 23,-3 4,1 2,1 2,2 1,3 0,3 -1,3 -3,2 -3,1 -23,3 -9,1 -3,0 -3,-2 -2,-2 -1,-3 2,-6 2,-2 3,-1 z m 64,-8 l 25,-3 7,-1 6,2 2,2 1,3 0,4 -4,4 -3,1 -7,1 -25,3 -3,0 -3,-2 -2,-2 -1,-3 0,-3 2,-3 2,-2 3,-1 z m 64,-7 l 31,-4 4,1 2,1 2,2 1,3 0,4 -1,2 -3,2 -3,1 -32,4 -3,0 -3,-2 -2,-2 -1,-3 2,-6 3,-2 3,-1 z m -571,79 l 32,-4 4,1 2,1 2,2 1,3 0,4 -1,2 -3,2 -3,1 -32,4 -3,0 -2,-1 -2,-3
 -1,-3 0,-3 1,-3 2,-2 3,-1 z m 1267,-180 l 31,-4 4,0 4,4 1,3 0,3 -1,3 -2,2 -3,1 -32,4 -3,0 -3,-1 -2,-3 -1,-3 0,-3 1,-3 3,-2 3,-1 z m -508,68 l 14,-2 18,-2 4,0 2,1 2,3 1,3 0,3 -1,3 -3,2 -3,1 -18,2 -13,2 -3,0 -3,-1 -2,-2 -1,-3 0,-3 1,-3 2,-3 3,-1 z m 1142,-155 l 32,-4 6,2 2,6 0,3 -1,3 -6,2 -32,4 -3,-1 -2,-1 -2,-3 -1,-3 0,-3 1,-2 3,-2 3,-1 z m 191,-20 l 32,-4 6,2 2,6 0,3 -1,3 -6,2 -32,4 -3,-1 -2,-1 -2,-3 -1,-3 0,-3 1,-2 3,-2 3,-1 z m -699,89 l 22,-3 10,-1 3,0 3,1 2,2 1,3 0,4 -1,2 -3,2 -3,1 -10,2 -21,3 -3,0 -3,-1 -2,-3 -1,-3 0,-3 1,-3 2,-2 3,-1 z m 572,-76 l 12,-1 19,-2
 4,0 4,4 1,3 0,3 -2,3 -2,2 -3,1 -19,2 -13,1 -3,0 -3,-2 -2,-2 -1,-3 2,-6 3,-2 3,-1 z m 63,-7 l 29,-3 6,0 3,2 2,2 1,3 0,3 -2,3 -2,2 -3,1 -3,0 -29,3 -3,0 -3,-1 -2,-3 -1,-3 2,-6 2,-2 3,-1 z m -1015,135 l 1,0 31,-3 3,0 3,1 2,3 1,3 0,3 -2,3 -2,1 -3,1 -31,4 -3,0 -3,-1 -3,-3 -1,-3 2,-6 2,-2 3,-1 z m 1143,-147 l 32,-3 6,2 2,6 0,3 -2,3 -2,1 -3,1 -32,3 -6,-2 -2,-3 -1,-3 1,-3 1,-2 3,-2 3,-1 z m 63,-5 l 32,-3 4,0 2,1 2,3 1,3 0,3 -2,3 -2,2 -3,1 -32,3 -3,0 -3,-2 -2,-2 -1,-3 2,-6 2,-2 3,-1 z m -698,83 l 31,-4 4,1 2,1 2,3 1,3 0,3 -2,3 -2,1 -3,1 -32,3 -3,0
 -3,-1 -2,-3 -1,-3 1,-3 1,-2 3,-2 3,-1 z m -634,88 l 32,-3 3,0 3,1 2,6 0,3 -1,3 -6,2 -32,4 -3,-1 -2,-1 -2,-3 -1,-3 0,-3 1,-2 3,-2 3,-1 z m 1396,-177 l 15,-2 17,-1 3,0 3,2 3,5 -2,6 -6,3 -16,1 -15,1 -3,0 -3,-1 -2,-3 -1,-3 0,-3 4,-4 3,-1 z m -1967,253 l 32,-2 4,0 4,4 1,3 0,3 -2,3 -5,3 -32,2 -3,0 -3,-2 -2,-2 -1,-3 2,-6 2,-2 3,-1 z m 2031,-259 l 31,-2 3,0 3,1 2,2 1,3 0,4 -1,3 -2,2 -3,1 -1,0 -32,2 -3,0 -4,-4 -1,-3 0,-3 2,-3 2,-2 3,-1 z"/>
<path fill="#376092" stroke="none" d="M 860,3563 l 80,-50 79,-58 1,-1 81,-42 80,-39 80,-44 80,-42 81,-40 81,-38 79,-46 79,-56 81,-61 1,-1 1,0 160,-68 81,-32 79,-43 80,-44 1,0 0,-1 80,-29 -1,1 81,-47 1,0 80,-31 80,-29 80,-30 81,-37 80,-36 1,-1 1,0 80,-14 80,-11 80,-21 80,-23 1,0 80,-6 81,-13 79,-21 80,-22 1,0 80,-5 -1,0 81,-18 4,0 3,1 2,2 1,3 0,4 -1,3 -2,2 -3,1 -81,18 -2,0 -80,5 2,0 -80,22 -81,21 -81,13 -80,6 1,0 -80,23 -82,21 -80,11 -80,14 2,-1 -80,36 -81,37 -80,32 -80,27 -80,31 1,0 -81,47 -1,0 -80,29 1,0 -80,44 -81,43 -81,32 -160,68 2,-1 -81,63 -81,56 -81,46 -79,38 -81,40 -80,42 -81,44 -79,39 -81,42 1,-1 -81,60 -80,50 -3,1 -3,0 -3,-2 -2,-2 -1,-3 0,-3
 2,-3 2,-2 z"/>
<path fill="#376092" stroke="none" d="M 1179,3599 l 5,-1 26,-5 3,0 3,1 2,3 1,3 0,3 -1,3 -2,2 -3,1 -27,5 -5,1 -3,0 -3,-2 -2,-2 -1,-3 0,-3 2,-3 2,-2 3,-1 z m -127,17 l 31,-5 4,1 3,1 2,2 1,3 0,3 -2,3 -2,2 -3,1 -32,5 -3,0 -3,-1 -2,-2 -1,-3 2,-6 2,-3 3,-1 z m 632,-97 l 31,-6 4,0 3,1 2,2 1,3 -2,6 -2,2 -3,1 -31,6 -3,0 -3,-1 -3,-2 -1,-3 2,-6 2,-2 3,-1 z m -758,119 l 17,-3 14,-2 4,0 2,1 2,2 1,3 0,3 -1,3 -2,2 -3,1 -15,3 -17,3 -3,0 -3,-1 -2,-3 -1,-3 0,-3 1,-3 3,-2 3,-1 z m -63,11 l 31,-5 3,0 3,1 2,2 1,3 0,3 -1,3 -2,2 -3,1 -32,6 -3,0 -3,-1 -2,-3 -1,-3 0,-3 1,-3 3,-2 3,-1 z m 378,-62 l 22,-4 10,-1 4,0
 2,1 2,3 1,3 0,3 -1,3 -3,2 -3,1 -9,1 -22,4 -3,0 -3,-1 -2,-2 -1,-3 0,-3 1,-3 2,-3 3,-1 z m 254,-34 l 10,-1 22,-4 3,0 3,1 2,3 1,3 0,3 -1,3 -2,2 -3,1 -23,4 -9,1 -3,0 -3,-1 -2,-3 -1,-3 0,-3 1,-3 2,-2 3,-1 z m 63,-10 l 27,-5 5,-1 3,0 3,1 2,2 1,3 0,4 -1,3 -2,2 -3,1 -6,1 -26,4 -3,0 -3,-1 -2,-2 -1,-3 0,-3 1,-3 2,-2 3,-1 z m 63,-12 l 31,-6 4,0 3,1 2,2 1,3 0,3 -1,3 -3,2 -3,1 -31,6 -3,0 -3,-1 -2,-2 -1,-3 0,-3 1,-3 2,-2 3,-1 z m -632,96 l 31,-5 4,0 2,1 2,2 1,3 0,3 -1,3 -2,2 -3,1 -32,6 -3,0 -3,-1 -2,-3 -1,-3 0,-3 1,-3 3,-2 3,-1 z m 1013,-145 l 31,-6 4,1
 2,1 2,2 1,3 0,3 -1,3 -2,2 -3,1 -32,5 -3,0 -3,-1 -2,-2 -1,-3 0,-3 1,-3 3,-2 3,-1 z m -697,95 l 32,-4 3,0 3,1 2,3 1,3 0,3 -2,3 -2,2 -3,1 -32,4 -3,0 -3,-1 -2,-3 -1,-3 2,-6 2,-2 3,-1 z m 127,-15 l 32,-4 3,0 3,1 2,3 1,3 0,3 -2,3 -2,2 -3,1 -32,4 -3,0 -3,-2 -2,-2 -1,-3 2,-6 2,-2 3,-1 z m 824,-110 l 32,-4 3,0 3,1 2,3 1,3 0,3 -2,3 -2,2 -3,1 -32,4 -3,0 -3,-2 -2,-2 -1,-3 2,-6 2,-2 3,-1 z m 382,-39 l 32,-4 6,2 2,2 1,3 0,4 -4,4 -3,1 -32,4 -3,0 -3,-2 -2,-2 -1,-3 2,-6 2,-2 3,-1 z m -827,88 l 15,-1 17,-2 6,2 2,2 1,3 0,4 -4,4 -3,1 -17,2 -15,1 -3,0 -3,-2 -2,-2
 -1,-3 2,-6 2,-2 3,-1 z m 128,-13 l 32,-3 6,2 2,6 0,3 -2,3 -2,1 -3,1 -32,3 -3,0 -3,-2 -2,-2 -1,-3 2,-6 6,-3 z m -824,119 l 32,-4 4,0 2,1 2,3 1,3 0,3 -1,3 -3,2 -3,1 -32,3 -3,0 -3,-1 -2,-2 -1,-3 2,-6 2,-2 3,-1 z m 950,-136 l 2,0 30,-3 4,1 2,1 2,3 1,3 0,3 -2,3 -2,1 -3,1 -30,3 -5,0 -3,-1 -2,-2 -1,-3 2,-6 2,-3 3,-1 z m 64,-5 l 18,-2 14,-1 3,0 3,1 2,3 1,3 0,3 -2,3 -2,2 -3,1 -14,1 -18,2 -6,-2 -2,-3 -1,-3 1,-3 1,-2 2,-2 3,-1 z m 255,-29 l 4,0 27,-3 4,0 4,4 1,3 0,3 -2,3 -2,2 -3,1 -27,3 -8,0 -3,-1 -2,-3 -1,-3 2,-6 3,-2 3,-1 z m 63,-7 l 21,-2 11,-1 3,0 3,2 2,2
 1,3 0,3 -2,3 -2,2 -3,1 -11,1 -21,2 -3,0 -3,-1 -2,-3 -1,-3 0,-3 2,-3 2,-2 3,-1 z m -699,77 l 31,-3 4,1 2,1 2,2 1,3 0,4 -4,4 -3,1 -32,3 -3,0 -3,-2 -2,-2 -1,-3 2,-6 3,-2 3,-1 z m 954,-101 l 7,-1 25,-2 3,1 3,2 3,5 -2,6 -6,2 -24,2 -7,1 -3,0 -3,-2 -2,-2 -1,-3 0,-3 1,-3 3,-2 3,-1 z m 192,-12 l 32,-3 6,2 1,2 1,3 0,4 -4,4 -3,1 -32,3 -3,0 -3,-2 -2,-2 -1,-3 2,-6 3,-2 3,-1 z m 383,-24 l 32,-3 6,2 2,6 0,3 -2,3 -2,1 -3,1 -32,3 -6,-2 -2,-3 -1,-3 1,-3 1,-2 3,-2 3,-1 z m -766,54 l 32,-3 3,0 3,1 2,6 0,3 -1,3 -6,2 -32,4 -3,0 -4,-4 -1,-3 0,-3 1,-3 3,-2 3,-1 z m -1142,145 l 32,-3
 3,0 3,1 2,6 0,3 -1,3 -3,2 -3,1 -32,3 -3,0 -2,-1 -2,-3 -1,-3 0,-3 1,-3 3,-2 3,-1 z m 951,-125 l 32,-3 3,0 3,1 2,6 0,3 -1,3 -3,2 -3,1 -32,3 -3,0 -4,-4 -1,-3 0,-3 1,-3 3,-2 3,-1 z m -445,51 l 31,-4 1,0 6,2 1,2 1,3 0,4 -1,2 -3,2 -3,1 -31,3 -3,0 -3,-1 -2,-3 -1,-3 0,-3 1,-2 3,-2 3,-1 z m 318,-36 l 32,-3 6,2 1,2 1,3 0,4 -1,2 -3,2 -3,1 -32,3 -3,0 -2,-1 -2,-3 -1,-3 0,-3 1,-3 3,-2 3,-1 z m 637,-61 l 32,-2 3,1 3,2 1,2 1,3 0,3 -2,3 -2,1 -3,1 -32,2 -6,-2 -3,-6 1,-3 4,-4 3,-1 z m -255,20 l 32,-2 3,0 3,2 1,2 1,3 0,3 -2,3 -2,2 -3,1 -32,2 -3,0 -3,-2 -2,-2
 -1,-3 2,-6 3,-2 3,-1 z m 382,-30 l 32,-2 4,1 2,1 2,2 1,3 0,4 -4,4 -3,1 -32,2 -3,0 -3,-2 -2,-2 -1,-3 2,-6 2,-2 3,-1 z m 64,-4 l 9,-1 24,-1 3,1 3,2 1,2 1,3 -2,6 -6,2 -22,1 -9,1 -6,-2 -2,-3 -1,-3 1,-3 1,-2 2,-2 3,-1 z m 128,-5 l 32,-2 3,0 3,2 3,5 -2,6 -6,3 -32,2 -3,-1 -2,-1 -2,-3 -1,-3 1,-3 1,-2 2,-2 3,-1 z m 64,-5 l 32,-2 6,2 2,2 1,3 -1,4 -1,2 -3,2 -3,1 -32,2 -3,0 -4,-4 -1,-3 0,-3 2,-3 2,-2 3,-1 z m 128,-9 l 10,-1 22,-1 3,1 3,2 1,2 1,3 -2,6 -6,2 -20,1 -11,1 -6,-2 -3,-6 1,-3 1,-2 3,-2 3,-1 z m 128,-5 l 32,-2 3,0 3,2 1,2 1,3 0,3 -2,3 -5,3 -32,2 -6,-2
 -2,-3 -1,-3 1,-3 1,-2 3,-2 3,-1 z m -383,22 l 25,-1 10,0 4,4 1,3 -2,6 -3,2 -3,1 -7,0 -25,1 -3,-1 -2,-1 -2,-3 -1,-3 2,-6 6,-2 z m 319,-19 l 27,-1 8,0 3,2 1,2 1,3 0,3 -2,3 -5,3 -6,0 -27,1 -3,-1 -2,-1 -2,-3 -1,-3 1,-3 2,-3 2,-1 3,-1 z m -639,38 l 23,-1 12,0 3,2 1,2 1,3 0,3 -2,3 -5,3 -9,0 -23,1 -3,0 -4,-4 -1,-3 0,-3 2,-3 2,-2 3,-1 z"/>
<text font-family="Calibri" font-size="73" fill="#000000"><tspan x="720" y="3703">0</tspan><tspan x="646,684,720" y="3557">500</tspan><tspan x="609,647,683,720" y="3411">1000</tspan><tspan x="609,647,683,720" y="3265">1500</tspan><tspan x="609,647,683,720" y="3119">2000</tspan><tspan x="609,647,683,720" y="2973">2500</tspan><tspan x="609,647,683,720" y="2827">3000</tspan><tspan x="609,647,683,720" y="2681">3500</tspan><tspan x="609,647,683,720" y="2535">4000</tspan><tspan x="609,647,683,720" y="2389">4500</tspan></text>
<path fill="#000000" stroke="none" d="M 742,3914 l 2,0 0,1 -1,1 0,1 -1,0 0,1 -1,0 0,1 -2,0 -11,-5 -13,13 5,11 0,2 -1,0 0,1 -1,0 0,1 -1,0 0,1 -1,0 -1,-1 0,-1 -20,-41 0,-2 1,0 1,-1 0,-1 1,0 2,-2 1,0 41,20 z m -40,-13 l 10,22 12,-12 -22,-10 z m 168,-130 l 2,2 1,3 1,2 0,3 -2,6 -2,2 -2,3 -4,4 -2,1 -1,1 -5,0 -3,-3 1,-1 3,0 1,-1 2,-1 1,-1 2,-1 3,-3 1,-2 1,-1 0,-6 -3,-3 -4,-2 -2,0 -4,2 -2,2 -2,1 -4,4 -2,-2 -1,0 0,-2 6,-6 1,-2 0,-3 -1,-2 -1,-1 -1,-2 -2,-2 -5,0 -1,1 -2,1 -1,2 -1,1 -1,2 0,1 -1,2 0,2 -2,0 -2,-2 0,-4 1,-2 1,-1 1,-2 1,-1 1,-2 3,-2 2,-2 2,-1 5,0 4,2 1,2 3,3
 1,2 0,5 -2,4 2,-1 2,-2 8,0 2,2 2,1 z m -19,34 l 1,0 0,2 -17,17 -2,0 -2,-2 0,-1 7,-7 -25,-25 -2,10 0,1 -1,0 0,1 -2,-2 -1,0 0,-2 3,-13 0,-1 1,0 0,-1 1,0 0,-1 2,0 29,29 5,-6 1,0 0,-1 1,0 0,1 1,0 0,1 z m -91,75 l 2,3 2,6 0,6 -2,2 -2,3 -1,1 -1,0 -1,1 -1,0 -1,1 -5,0 11,12 1,0 0,1 -1,0 0,1 -1,0 0,1 -1,0 0,1 -2,0 -32,-32 0,-1 3,-3 1,0 3,3 0,-3 1,-2 0,-2 1,-1 0,-1 1,-1 1,-2 3,-2 2,-1 3,-1 6,2 2,1 3,2 5,5 z m -6,2 l -2,-1 -2,-2 -6,-3 -2,1 -1,0 -3,3 -1,2 0,1 -1,2 0,3 1,2 9,9 6,0 4,-2 3,-6 -3,-6 -1,-1 -1,-2 z m 56,-34 l
 0,2 -1,0 0,1 -1,0 0,1 -2,0 -34,-33 0,-2 3,-3 1,0 34,34 z m -41,2 l 0,1 -1,0 -1,1 -1,0 0,1 -1,0 0,1 -1,0 0,8 1,1 14,15 1,1 0,1 -1,0 0,1 -1,0 0,1 -1,0 0,1 -2,0 -22,-23 -1,0 0,-1 1,0 0,-1 2,-2 1,0 4,3 -1,-2 0,-4 1,-1 0,-2 1,0 0,-1 1,0 0,-1 1,0 0,-1 2,0 0,-1 0,1 1,0 3,3 z m 29,10 l 0,2 -1,0 0,1 -1,0 0,1 -1,0 0,1 -1,0 -24,-24 1,0 0,-1 1,0 0,-1 1,0 0,-1 1,0 0,-1 1,1 23,22 z m 17,-42 l 1,1 0,2 -11,11 -1,0 -2,-2 0,-2 11,-11 1,0 0,1 1,0 z m -46,13 l 0,3 -2,2 -3,0 -2,-2 -1,-2 4,-4 2,1 2,2 z"/>
<path fill="#000000" stroke="none" d="M 1030,3771 l 2,3 1,2 1,3 0,2 -2,6 -2,3 -6,6 -2,1 -1,1 -2,0 -1,1 -1,0 0,-1 -1,0 -2,-2 0,-2 3,0 1,-1 2,-1 1,-1 4,-2 2,-4 1,-1 0,-5 -1,-1 -1,-2 -1,-1 -2,-1 -6,0 -2,1 -2,2 -2,1 -3,3 0,1 -2,0 0,-1 -1,0 0,-1 -1,0 0,-1 5,-5 2,-4 0,-5 -1,-1 -1,-2 -1,-1 -2,-1 -5,0 -1,1 -2,1 -3,6 0,1 -1,1 0,3 -1,0 -2,-2 -1,0 0,-4 1,-1 0,-2 1,-1 1,-2 1,-1 1,-2 3,-2 2,-1 3,-1 2,-1 2,1 2,0 2,2 2,1 1,2 1,1 1,2 0,5 -2,4 4,-2 3,-1 4,0 1,1 4,2 z m -17,34 l 0,2 -17,17 -2,0 -2,-2 0,-2 7,-6 -25,-25 -2,10 0,1 -2,0 -2,-2 0,-2 2,-12 1,0 0,-1 2,-2
 1,0 0,-1 1,0 0,1 28,28 6,-6 2,0 2,2 z m -68,69 l 0,1 -1,0 0,1 -2,2 -1,0 -14,-13 -1,-2 -2,-1 -1,-1 -2,0 -1,-1 -2,1 -1,1 -1,0 -2,2 0,3 -1,3 0,3 16,16 1,0 0,1 -1,0 0,2 -1,0 0,1 -3,0 -23,-22 0,-2 1,0 1,-1 0,-1 1,0 1,-1 0,1 3,3 0,-4 2,-6 4,-4 2,-1 3,-1 2,0 4,2 3,2 16,16 z m -27,27 l 0,1 -2,2 -1,0 0,1 -1,0 -3,-3 0,4 -1,3 -1,2 -4,4 -4,2 -3,0 -6,-3 -3,-2 -14,-14 0,-2 1,0 1,-1 0,-1 1,0 0,-1 1,0 0,1 14,13 3,3 2,1 4,0 2,-2 2,-4 1,-3 -1,-4 -15,-16 -1,0 0,-1 1,0 1,-1 0,-1 1,0 1,-1 1,0 23,23 z m -34,22 l 3,6 0,2 -2,4 -2,2
 0,1 -1,0 -1,1 -1,0 0,1 -3,0 -3,-3 0,-1 2,0 0,-1 3,0 0,-1 2,-2 0,-3 -27,-27 0,-2 1,0 0,-1 1,-1 1,0 0,-1 1,0 26,26 z m 76,-88 l 0,3 -15,15 3,3 2,1 6,0 2,-1 4,-4 1,-2 1,-1 0,-1 1,-1 0,-1 1,-1 0,-1 1,0 2,2 0,1 1,0 0,1 -1,1 0,1 -1,1 -1,2 -7,7 -2,1 -6,2 -6,-2 -3,-2 -6,-6 -2,-3 -2,-6 0,-3 1,-3 2,-2 2,-3 3,-2 2,-2 3,0 3,-1 2,1 3,1 3,2 3,3 z m -6,2 l -3,-2 -4,-1 -3,0 -3,2 -3,6 0,1 1,2 0,2 3,3 12,-13 z m 23,-17 l 0,1 -1,0 -10,11 -2,0 -1,-1 0,-1 -1,-1 0,-1 11,-10 0,-1 1,0 0,1 1,0 2,2 z"/>
<path fill="#000000" stroke="none" d="M 1016,3961 l 1,0 1,1 0,1 -1,0 0,1 -1,0 0,1 -1,1 -2,0 -11,-5 -13,14 5,10 0,2 -1,0 0,1 -1,0 0,1 -1,0 0,1 -2,0 0,-2 -20,-41 0,-1 2,-2 0,-1 1,0 2,-2 1,0 41,20 z m -40,-13 l 10,22 12,-11 -22,-11 z m 71,-58 l 0,2 -3,3 2,0 1,1 2,1 3,3 1,2 0,7 -2,4 -3,3 -2,1 -1,1 -2,0 1,1 0,2 1,0 1,1 1,0 2,-1 1,-1 6,-5 2,-1 2,-2 2,-1 5,0 2,1 1,1 3,6 0,2 -1,3 -1,2 -4,6 -6,4 -4,2 -4,0 -1,-1 -2,-1 0,-1 -1,-1 0,-1 -1,-1 0,-5 -5,0 -1,-1 -2,-4 -1,-1 0,-2 -1,0 -4,-2 -2,-2 -3,-6 0,-4 1,-3 2,-2 1,-2 1,0 10,-10 1,0 2,2 z m 18,27 l -2,-1 -2,2 -3,1 -6,6 0,4
 2,2 0,1 2,1 2,-1 3,-1 3,-2 2,-4 1,-1 1,-2 0,-1 -1,-1 0,-1 -2,-2 z m 108,-113 l 0,1 1,0 0,2 -17,17 -2,0 0,-1 -1,0 -1,-1 0,-2 7,-7 -25,-24 -2,10 -1,0 0,1 -2,0 0,-1 -1,0 0,-2 -1,0 0,-1 3,-12 0,-1 1,0 0,-1 1,0 1,-1 0,-1 2,0 28,29 6,-6 2,0 0,1 1,0 z m 18,-33 l 2,2 1,3 1,2 0,3 -2,6 -2,3 -5,5 -4,2 -1,1 -4,0 -1,-1 -1,0 0,-1 -1,-1 1,-1 2,0 4,-2 1,-1 2,-1 1,-2 2,-1 1,-2 1,-1 0,-4 -1,-2 0,-1 -2,-2 -4,-2 -2,1 -2,0 -2,1 -2,2 -2,1 -3,3 0,1 -1,0 -1,-1 -1,0 0,-1 -1,0 0,-2 6,-6 1,-2 0,-3 -1,-2 -1,-1 -1,-2 -2,-2 -5,0 -1,1 -2,1 -1,2
 -1,1 -1,2 -1,1 0,4 -1,0 0,1 -2,-2 -1,0 0,-5 1,-2 1,-1 1,-2 1,-1 1,-2 3,-2 2,-2 2,0 2,-1 3,0 4,2 1,2 3,3 1,2 0,5 -2,4 6,-3 4,0 6,3 z m -149,167 l 0,1 -1,0 0,1 -1,0 0,1 -1,0 -1,1 0,-1 -3,-3 0,4 -2,6 -4,4 -2,1 -3,1 -2,0 -4,-2 -2,-2 -3,-2 -14,-14 0,-1 1,0 0,-1 2,-2 1,0 14,13 3,3 2,1 1,0 2,1 1,-1 1,0 1,-1 1,-2 2,-6 -1,-3 -15,-16 -1,0 0,-1 1,0 0,-1 1,-1 1,0 0,-1 2,0 23,23 z m 51,-52 l 0,2 -1,0 0,1 -1,0 0,1 -2,0 -3,-3 0,7 -1,2 -4,4 -3,1 -2,1 -2,0 -2,-1 -3,-1 -4,-4 -14,-13 0,-2 1,0 0,-1 1,-1 1,0 0,-1 1,0 0,1
 15,15 4,2 3,0 2,-1 1,-1 2,-4 0,-7 -16,-16 0,-1 1,0 0,-1 2,-2 1,0 23,23 z m 38,-41 l 1,1 0,3 -1,0 0,1 -3,3 -4,2 -3,0 -4,-2 -2,-2 -13,-14 -4,4 -1,0 -1,-1 0,-1 -1,0 0,-2 3,-3 -5,-6 0,-1 3,-3 1,0 6,6 5,-6 3,0 0,1 1,1 0,1 -6,6 15,15 2,1 2,0 3,-3 0,-2 3,0 0,1 z m -22,13 l 1,2 1,1 1,3 0,2 -3,6 -5,5 -2,1 -2,0 0,1 -2,0 0,-1 -1,0 -1,-1 0,-1 -1,0 0,-1 1,0 0,-1 4,0 1,-1 2,-1 2,-2 1,-2 0,-2 1,-1 -1,-1 0,-1 -1,-1 -1,0 -1,-1 -3,0 -1,1 -1,0 -1,1 -2,0 -1,1 -2,0 -1,1 -4,0 -2,-1 -1,-1 -2,-1 -1,-1 -1,-2 0,-5 1,-3 2,-2 1,-2 1,0
 3,-3 2,0 1,-1 1,0 0,1 1,0 0,1 1,0 0,1 1,0 0,1 -2,0 0,1 -2,0 -2,2 -2,1 -2,2 0,4 2,2 6,0 1,-1 1,0 1,-1 2,-1 2,0 2,-1 3,0 1,1 2,1 1,1 z m -65,42 l -3,-1 -2,1 -3,2 -2,2 0,4 2,2 0,1 3,2 2,1 3,-1 4,-4 0,-5 -4,-4 z m 92,-82 l 1,1 0,2 -10,11 -2,0 -2,-2 0,-2 11,-10 0,-1 1,0 0,1 1,0 z"/>
<path fill="#000000" stroke="none" d="M 1139,3968 l 4,4 4,8 1,4 0,5 -1,4 -2,4 -4,3 -3,3 -4,3 -4,1 -4,0 -3,-1 -8,-4 -8,-8 -3,-4 -2,-8 0,-4 1,-4 2,-4 7,-7 4,-2 4,-1 3,0 8,2 8,6 z m -4,5 l -3,-2 -3,-3 -6,-2 -5,0 -6,4 -4,6 0,6 2,6 3,2 2,3 3,3 3,2 3,1 2,1 3,1 3,-1 6,-4 4,-6 0,-6 -1,-2 -6,-9 z m 219,-200 l 1,2 1,3 0,3 -1,3 -1,2 -4,6 -3,3 -4,2 -1,0 -1,1 -3,0 -3,-3 0,-1 1,0 1,-1 2,0 4,-2 3,-3 2,-1 2,-4 0,-3 -1,-2 0,-1 -1,-2 -4,-2 -3,0 -6,3 -5,5 -2,0 -2,-2 0,-1 5,-5 1,-2 1,-1 0,-4 -1,-2 -1,-1 -1,-2 -1,0 -2,-2 -3,0 -2,2 -2,1 -1,2 -1,1 -1,2 -1,1 0,4 -2,0 -2,-2 0,-1
 -1,-1 1,0 0,-2 1,-2 1,-1 0,-2 2,-2 1,-2 3,-1 2,-2 2,-1 4,0 6,3 2,2 2,4 0,5 -1,2 -1,1 4,-2 2,0 2,-1 2,1 2,0 2,1 4,4 z m -114,109 l 2,3 2,6 0,5 -2,3 -5,5 -1,0 -1,1 -6,0 3,3 0,1 -3,3 -1,0 0,-1 -34,-33 0,-2 1,0 1,-1 0,-1 1,0 1,-1 14,14 0,-4 1,-1 0,-2 1,-1 0,-1 2,-2 3,-2 2,-1 3,-1 3,0 2,2 3,1 3,2 5,5 z m -7,2 l -1,-2 -8,-4 -2,0 -1,1 -2,1 -2,2 0,2 -1,2 0,5 10,9 3,1 3,-1 4,-2 1,-1 1,-2 0,-4 -2,-4 -3,-3 z m 100,-80 l 1,1 0,2 -17,17 -2,0 -2,-2 0,-2 7,-6 -25,-25 -2,10 0,1 -2,0 -2,-2 0,-1 2,-13 1,0 0,-1 1,0 0,-1 1,0
 0,-1 1,0 0,-1 29,29 6,-6 2,0 0,1 1,0 z m -139,138 l 1,1 0,3 -1,1 0,1 -1,0 0,1 -1,0 -1,2 -4,2 -2,0 -1,-1 -4,-2 -15,-15 -4,3 -1,0 -2,-2 0,-1 3,-3 -5,-6 0,-2 1,0 0,-1 1,0 0,-1 2,0 5,5 6,-5 0,-1 1,0 1,1 1,0 1,1 0,2 -6,6 12,13 3,1 2,1 2,0 1,-1 1,0 0,-1 1,0 0,-2 1,-1 1,1 1,0 z m 16,-36 l 3,3 2,3 2,6 0,3 -1,3 -4,6 -6,4 -3,1 -3,0 -6,-2 -6,-4 -4,-6 -2,-6 0,-3 1,-3 4,-6 3,-3 6,-2 6,0 3,1 3,2 2,3 z m -7,1 l -4,-2 -2,0 -4,2 -3,1 -3,6 1,2 0,2 1,2 2,2 1,2 2,2 6,3 4,0 2,-1 2,-2 2,-1 1,-2 0,-7 -1,-2 -7,-7 z m 60,-53 l
 0,1 -16,16 2,2 4,2 6,0 2,-1 6,-6 0,-2 1,-1 0,-1 1,-1 0,-1 1,0 0,1 1,0 1,1 0,4 -1,1 -1,2 -1,1 -1,2 -2,2 -6,4 -2,1 -3,0 -6,-2 -3,-2 -4,-2 -4,-6 -1,-4 -1,-3 0,-3 1,-3 2,-2 2,-3 3,-2 2,-2 8,0 3,1 6,6 z m -6,2 l -3,-3 -4,-1 -3,0 -3,3 -1,2 -1,1 -1,2 0,1 1,2 0,2 1,2 1,1 13,-12 z m -83,102 l 1,1 1,0 0,4 -1,1 0,1 -1,2 -5,5 -3,2 -3,1 -2,0 -6,-2 -3,-2 -6,-6 -2,-3 -2,-6 1,-3 0,-3 2,-2 2,-3 2,-2 2,0 2,-2 4,0 3,3 0,1 -3,0 -1,1 -3,0 -3,3 -2,3 0,3 1,5 6,6 6,3 2,0 4,-2 2,-2 1,-2 1,-1 0,-4 1,-1 2,0 0,1 z m 100,-133 l 0,1
 1,0 -1,1 -1,0 0,1 -1,0 0,1 -1,0 -1,1 0,1 -1,1 0,2 1,1 0,4 15,15 0,3 -1,0 -1,1 0,1 -2,0 0,-1 -23,-22 0,-1 1,-1 0,-1 1,0 0,-1 2,0 3,3 0,-7 1,-1 0,-1 1,0 0,-1 1,-1 1,0 0,-1 1,0 1,-1 0,1 1,0 2,2 z m 24,-6 l 0,2 -11,11 -2,-2 -1,0 0,-2 11,-11 1,0 2,2 z"/>
<path fill="#000000" stroke="none" d="M 1381,3919 l 0,2 -1,1 -1,0 0,1 -2,0 -15,-15 -2,-1 -1,-1 -2,0 -1,-1 -2,2 -2,0 -2,4 0,3 1,4 15,16 1,0 0,1 -1,0 0,1 -1,0 0,1 -1,0 0,1 -2,0 -17,-17 -2,-1 -1,0 -2,1 -1,0 -2,1 0,2 -1,2 -1,3 1,3 16,16 0,2 -1,0 0,1 -1,0 0,1 -1,0 0,1 -2,0 -22,-23 0,-2 1,0 0,-1 1,0 0,-1 2,0 3,3 0,-7 2,-2 1,-2 3,-3 2,0 1,-1 2,0 2,1 1,0 0,-4 1,-2 0,-2 1,-1 0,-1 4,-4 4,-2 2,1 3,0 2,1 18,18 z m -129,97 l 4,4 2,4 1,5 1,4 -2,8 -2,4 -11,11 0,1 -2,0 -31,-31 0,-2 12,-12 4,-2 8,-2 8,2 8,6 z m -10,0 l -3,-1 -6,0 -6,2 -4,3 -4,5 25,25 5,-5 4,-6 1,-3
 0,-3 -2,-6 -2,-3 -8,-8 z m 252,-212 l 0,1 1,1 0,1 -18,17 -2,0 0,-1 -1,-1 0,-2 7,-7 -25,-24 -3,10 0,1 -2,0 0,-1 -1,0 0,-1 -1,-1 0,-1 3,-12 1,-1 0,-1 1,0 0,-1 1,0 1,-1 29,29 6,-6 2,0 0,1 1,0 z m -93,78 l 2,3 2,6 0,2 -2,6 -5,5 -2,0 -1,1 -5,0 2,3 1,0 0,1 -1,0 0,1 -1,0 0,1 -1,0 0,1 -1,-1 -34,-33 0,-2 3,-3 1,0 14,14 0,-5 1,-2 0,-1 5,-5 3,-2 5,0 6,2 8,8 z m -10,-2 l -4,-2 -4,0 -4,2 0,1 -1,1 0,1 -1,1 0,7 9,9 7,0 4,-2 1,-1 1,-2 0,-4 -3,-6 -5,-5 z m 121,-109 l 2,3 1,2 1,3 0,2 -2,6 -2,3 -5,5 -4,2 -1,1 -5,0 0,-1 -1,0 0,-1 -1,-1 1,-1
 2,0 1,-1 6,-3 3,-3 1,-2 1,-1 0,-3 -1,-2 0,-1 -1,-2 -4,-2 -5,0 -2,1 -2,2 -2,1 -3,3 0,1 -2,0 0,-1 -1,0 0,-1 -1,0 0,-2 6,-6 1,-2 0,-3 -1,-2 -1,-1 -1,-2 -2,-2 -5,0 -1,1 -2,1 -1,2 -1,1 -2,4 0,3 -1,0 0,1 -1,0 0,-1 -1,-1 -1,0 0,-5 1,-2 1,-1 0,-2 3,-3 3,-2 2,-2 2,0 2,-1 2,0 2,1 2,2 2,1 3,3 1,2 0,5 -2,4 6,-3 4,0 6,3 z m -89,81 l 1,1 0,2 -16,16 2,2 4,2 4,0 6,-3 2,-4 3,-3 0,-2 1,-1 1,0 0,1 1,0 0,1 1,0 0,4 -1,1 -1,2 -7,7 -9,3 -6,-2 -3,-2 -3,-3 -4,-6 -2,-6 0,-3 1,-3 2,-2 1,-3 6,-4 3,0 2,-1 3,1 2,1 3,2
 2,2 1,0 z m -5,3 l -4,-2 -3,-1 -3,0 -4,2 -2,4 0,5 2,4 1,1 13,-13 z m -137,139 l 1,1 0,2 -16,16 2,2 4,2 4,0 6,-3 2,-4 3,-3 0,-2 1,-1 1,0 0,1 1,0 0,1 1,0 0,4 -1,1 -1,2 -7,7 -9,3 -6,-2 -3,-2 -3,-3 -4,-6 -2,-6 0,-3 1,-3 2,-2 1,-3 6,-4 3,0 2,-1 3,1 2,1 3,2 2,2 1,0 z m -5,3 l -4,-2 -3,-1 -3,0 -4,2 -2,4 0,5 2,4 1,1 13,-13 z m 54,-49 l 0,2 -1,0 -15,15 2,2 4,2 6,0 2,-1 3,-3 1,-2 1,-1 1,-2 1,-1 0,-2 1,0 0,-1 2,2 1,0 0,3 -2,2 -1,2 -1,1 -2,4 -6,4 -3,1 -3,0 -6,-2 -6,-4 -3,-3 -2,-3 -1,-3 0,-7 1,-2 1,-3 2,-3 6,-4 8,0 2,1 3,2
 4,4 z m -7,2 l -3,-3 -3,-1 -4,1 -3,2 -1,2 -1,1 0,5 2,4 1,1 12,-12 z m -9,32 l 0,5 -3,3 -1,2 -3,3 -3,1 -2,1 -3,0 -6,-2 -6,-4 -3,-3 -2,-4 -2,-6 1,-3 0,-3 2,-2 2,-3 1,0 1,-1 2,-1 1,-1 1,0 1,-1 3,0 3,3 0,1 -1,1 -4,0 -2,1 -1,1 -2,1 -2,3 0,4 2,4 3,4 4,4 2,1 6,0 2,-1 2,-2 1,-2 1,-1 0,-2 1,-1 0,-3 1,0 3,3 z m 119,-158 l 1,1 0,1 1,0 0,1 -1,0 0,1 -2,0 0,1 -1,0 -1,1 0,2 -1,1 0,2 1,1 0,4 15,15 0,2 -2,2 -2,0 -23,-23 0,-1 1,0 0,-1 2,-2 1,0 3,4 0,-7 1,-1 0,-1 1,-1 0,-1 1,0 0,-1 1,0 1,-1 2,0 0,1 1,0 z m 24,-5 l 1,1
 0,1 -10,11 -2,0 -2,-2 0,-2 11,-10 0,-1 1,0 0,1 1,0 0,1 z"/>
<path fill="#000000" stroke="none" d="M 1608,3854 l 5,12 0,1 -2,2 0,1 -3,0 -5,-12 0,1 -1,0 0,-1 -30,-13 -1,-1 0,-1 1,-1 0,-1 1,0 0,-1 3,0 24,12 0,-1 -12,-24 0,-1 4,-4 1,1 15,31 z m -114,95 l 2,3 2,6 0,3 -1,3 -1,2 -2,3 -2,2 -1,0 -2,1 -6,0 2,3 1,0 0,2 -1,0 -2,2 -1,0 -34,-34 0,-2 1,0 0,-1 1,0 0,-1 2,0 14,13 0,-4 1,-2 0,-1 1,-2 4,-4 6,-2 2,1 6,2 3,2 5,5 z m -10,-1 l -4,-2 -4,0 -4,2 0,1 -1,0 0,2 -1,1 0,7 9,9 7,0 4,-2 2,-4 0,-4 -2,-4 -6,-6 z m 170,-143 l 1,0 0,2 -17,17 -2,0 -1,-1 -1,0 0,-2 7,-7 -25,-25 -2,10 -1,1 0,1 -1,0 0,-1 -1,0 0,-1 -1,0 0,-1 -1,-1 1,0 2,-13 1,0 0,-1
 1,0 0,-1 1,0 0,-1 2,0 28,29 7,-7 1,1 1,0 0,1 z m -234,176 l 0,1 1,0 0,1 -12,12 11,11 11,-11 2,0 0,1 1,0 0,1 1,0 0,2 -12,11 14,14 0,1 -1,1 0,1 -1,0 -1,1 -1,0 -31,-30 0,-1 -1,-1 1,-1 0,-1 15,-14 0,-1 1,0 0,1 1,0 1,1 z m 126,-66 l 0,1 -1,0 0,1 -2,2 -1,0 -3,-3 0,4 -1,3 -1,2 -4,4 -4,2 -3,0 -4,-2 -2,-2 -3,-2 -13,-13 -1,0 0,-1 4,-4 1,0 13,14 3,3 2,1 4,0 2,-1 1,-1 2,-4 0,-7 -16,-16 0,-2 1,0 0,-1 1,0 0,-1 2,0 23,23 z m 128,-146 l 1,1 0,2 -4,4 7,6 0,2 -3,3 -1,0 -7,-7 -14,14 -1,0 -1,-1 -1,0 0,-1 -1,-1 0,-1 -1,0 0,-1 -8,-31 0,-2 1,0
 0,-1 1,0 2,-2 0,-1 1,0 0,-1 2,0 21,21 3,-4 1,0 1,1 1,0 z m -29,-11 l 0,1 8,28 10,-11 -18,-18 z m -74,131 l 0,2 -1,1 0,1 -2,0 -3,-2 0,3 -1,2 -1,3 -1,2 -2,2 -4,2 -6,0 -5,-5 -1,-2 0,-5 2,-4 2,-3 6,-6 -3,-3 -2,-1 -5,0 -1,1 -2,1 -1,2 -1,1 -1,2 0,1 -1,2 0,2 -3,0 0,-1 -1,-1 0,-3 1,-1 0,-2 1,-1 1,-2 1,-1 1,-2 3,-1 2,-2 3,-1 4,0 2,1 2,2 2,1 15,15 z m -14,-6 l -7,7 0,2 -1,1 0,3 2,2 2,1 4,0 2,-2 3,-6 0,-3 -5,-5 z m -93,91 l 0,2 -1,0 -15,15 2,2 6,3 2,0 4,-2 6,-6 0,-2 1,-1 0,-1 1,-1 2,0 0,1 1,0 0,5 -2,2 -1,2 -3,3 -6,4 -3,1 -6,0
 -9,-6 -4,-6 -2,-6 0,-3 1,-3 4,-6 2,-2 6,-2 2,0 6,2 2,1 4,4 z m -6,2 l -4,-3 -3,-1 -3,1 -3,2 -3,3 0,6 1,1 1,2 1,1 13,-12 z m 113,-129 l 0,1 1,0 0,2 -1,0 0,1 -2,0 0,1 -1,0 0,1 -1,1 0,7 1,2 15,15 0,1 -3,3 -1,0 -23,-23 0,-1 2,-2 0,-1 2,0 3,4 0,-9 3,-3 1,0 0,-1 2,0 1,1 1,0 z m -69,71 l 0,2 -1,0 0,1 -1,0 -2,2 0,1 -1,1 0,4 1,2 0,2 15,14 0,2 -3,3 -1,0 -23,-23 0,-2 1,0 0,-1 1,0 0,-1 2,0 3,3 0,-7 1,-2 1,0 0,-1 1,0 0,-1 1,-1 3,0 2,2 z m 116,-100 l 1,1 0,2 -11,10 0,1 -1,0 -2,-2 0,-2 10,-11 2,0 0,1 1,0 z"/>
<path fill="#000000" stroke="none" d="M 1706,3914 l 1,0 0,2 -1,1 -1,0 0,1 -1,0 0,1 -2,0 -11,-5 -13,13 5,11 0,2 -2,2 -1,0 0,1 -1,0 0,-1 -1,0 0,-1 -19,-41 -1,-1 1,0 0,-1 2,-2 1,0 0,-1 1,0 0,-1 1,0 42,20 z m -41,-13 l 11,22 11,-12 -22,-10 z m 149,-96 l 1,0 0,2 -17,17 -2,0 0,-1 -1,0 0,-1 -1,0 0,-1 1,0 6,-7 -24,-25 -3,10 0,1 -1,1 -3,-3 0,-1 3,-13 0,-1 1,0 0,-1 1,0 0,-1 2,0 29,29 6,-6 0,-1 1,0 0,1 1,0 0,1 z m -93,72 l 4,6 2,6 0,6 -1,2 -2,3 -1,1 -2,0 -1,1 -1,0 -1,1 -5,0 12,12 0,1 -1,0 0,1 -1,0 0,1 -1,0 0,1 -2,0 -31,-32 -1,0 0,-1 1,0 0,-1 1,-1 1,0 0,-1 1,0 3,3 0,-1 1,-2
 0,-4 1,-1 0,-1 1,-1 1,-2 3,-2 2,-1 3,-1 6,2 2,1 6,4 z m -4,5 l -2,-1 -2,-2 -4,-2 -1,-1 -2,1 -2,0 -2,2 0,1 -1,0 -1,2 0,8 9,9 6,0 3,-1 2,-1 2,-4 0,-2 -1,-2 0,-2 -1,-2 -3,-3 z m 118,-113 l 0,1 1,1 0,1 -1,0 -3,4 7,6 0,2 -1,0 0,1 -1,0 0,1 -1,0 0,1 -2,0 -7,-7 -13,13 0,1 -1,0 -1,-1 -1,0 0,-1 -1,0 0,-1 -1,0 0,-2 -8,-31 0,-2 1,-1 1,0 0,-1 2,-2 1,0 0,-1 1,0 21,21 4,-4 1,0 1,1 1,0 z m -29,-11 l 0,1 7,28 11,-11 -18,-18 z m -33,90 l 0,2 -2,2 -2,0 -34,-33 0,-2 3,-3 1,0 34,34 z m -42,0 l 0,1 1,1 0,1 -1,0 -1,1 -1,0 0,1 -1,0 0,1 -1,0 0,8 16,16
 0,2 -1,0 0,1 -1,0 0,1 -1,0 0,1 -2,0 -22,-23 0,-2 1,0 0,-1 1,0 0,-1 2,0 3,3 0,-2 -1,-2 0,-1 1,-1 0,-3 1,0 1,-1 0,-1 1,0 0,-1 2,0 0,-1 1,0 0,1 1,0 0,1 1,0 z m 30,12 l 0,2 -1,0 0,1 -1,0 0,1 -1,0 0,1 -1,0 0,-1 -23,-22 0,-2 1,0 0,-1 1,0 0,-1 1,0 0,-1 1,0 0,1 23,22 z m 18,-42 l 1,1 0,2 -1,0 -10,10 0,1 -2,0 -1,-1 0,-1 -1,-1 0,-1 11,-11 1,0 1,1 1,0 z m -47,13 l 0,3 -2,2 -3,0 -2,-2 -1,-2 4,-4 2,1 2,2 z"/>
<path fill="#000000" stroke="none" d="M 1976,3805 l 0,2 -17,17 -2,0 -1,-1 0,-1 -1,0 0,-1 7,-7 -24,-25 -3,10 0,1 -2,0 -2,-2 0,-2 3,-12 0,-1 1,0 0,-1 1,-1 1,0 0,-1 1,0 0,1 29,28 6,-6 1,0 2,2 z m -95,96 l 0,1 -1,1 0,1 -1,0 -1,1 -1,0 -3,-3 0,4 -1,3 -1,2 -4,4 -4,2 -3,0 -6,-3 -3,-2 -14,-14 0,-1 4,-4 1,0 0,1 16,16 2,1 4,0 2,-1 1,-1 2,-4 0,-7 -16,-16 0,-1 1,-1 0,-1 1,0 1,-1 1,0 23,23 z m 27,-27 l 0,1 -1,1 0,1 -1,0 0,1 -2,0 -14,-13 -1,-2 -2,-1 -1,-1 -2,0 -1,-1 -2,1 -1,1 -1,0 -1,2 -2,6 1,3 16,16 0,2 -1,0 0,1 -1,0 0,1 -3,0 -22,-22 0,-1 -1,0 2,-2 0,-1 1,0 1,-1 0,1 3,3 1,-4
 0,-3 2,-3 1,-2 2,-2 3,-1 2,-1 2,0 3,1 2,1 18,18 z m 88,-103 l 0,1 -4,4 7,7 0,1 -2,2 0,1 -3,0 -6,-7 -14,14 -2,0 -2,-2 0,-1 -1,-1 0,-1 -8,-31 0,-2 1,0 0,-1 1,0 0,-1 1,-1 1,0 2,-2 21,21 4,-3 1,-1 3,3 z m -30,-12 l 7,28 11,-10 -18,-18 z m -119,164 l 3,6 0,2 -3,6 -1,1 -1,0 0,1 -1,0 -1,1 -3,0 0,-1 -1,0 -1,-1 0,-1 -1,0 0,-1 2,0 0,-1 3,0 0,-1 2,-2 0,-3 -27,-27 0,-2 1,0 1,-1 0,-1 1,0 0,-1 1,0 26,26 z m 76,-89 l 0,4 -15,15 2,2 4,2 5,0 2,-1 4,-4 1,-2 2,-2 0,-1 1,-1 0,-2 1,0 1,1 1,0 0,1 1,1 0,1 -1,1 0,1 -1,1 -1,2 -1,1 -1,2 -2,1 -2,3
 -9,3 -6,-2 -3,-2 -6,-6 -2,-3 -2,-6 1,-3 0,-3 2,-2 2,-3 3,-2 2,-2 3,0 3,-1 3,1 2,1 3,2 2,2 1,0 z m -6,3 l -3,-2 -3,-1 -4,0 -3,2 -2,4 0,5 2,4 1,1 12,-13 z m 23,-17 l 0,1 -11,11 -2,0 -1,-1 0,-1 -1,-1 12,-12 0,1 1,0 2,2 z"/>
<path fill="#000000" stroke="none" d="M 1980,3961 l 1,0 0,2 -1,1 -1,0 0,1 -1,1 -2,0 -11,-5 -13,14 5,10 0,2 -1,0 0,1 -1,0 0,1 -1,0 0,1 -1,0 -1,-1 0,-1 -20,-41 0,-1 1,0 0,-1 1,-1 0,-1 1,0 2,-2 1,0 42,20 z m -41,-13 l 10,22 12,-11 -22,-11 z m 71,-59 l 1,1 0,1 -4,4 2,0 1,1 2,1 3,3 2,4 0,2 -1,3 -2,4 -3,3 -2,1 -1,1 -1,0 0,3 1,0 1,1 1,0 2,-1 1,-1 6,-5 2,-1 2,-2 2,-1 5,0 2,1 1,1 3,6 0,2 -1,3 -1,2 -4,6 -3,2 -2,2 -2,1 -3,1 -3,0 -2,-1 -3,-3 0,-1 -1,-1 0,-5 -4,0 -2,-1 -2,-4 0,-1 -1,-2 -1,0 -2,-1 -5,-5 -2,-4 0,-2 1,-2 0,-3 2,-2 1,-2 1,0 10,-10 1,0 1,1 1,0 z m 18,28 l -2,-1
 -2,2 -2,1 -7,7 0,1 1,1 0,2 1,1 0,1 2,1 2,-1 3,-1 3,-2 2,-2 1,-2 1,-1 0,-3 -1,-1 0,-1 -2,-2 z m 109,-112 l 0,2 -17,17 -2,0 0,-1 -1,0 -1,-1 0,-2 7,-7 -25,-24 -2,10 -1,1 -1,0 -2,-2 0,-2 2,-12 1,0 0,-2 1,0 2,-2 1,0 28,29 6,-6 2,0 2,2 z m -81,81 l 1,0 0,1 -1,0 0,1 -1,0 0,1 -1,0 0,1 -1,0 -3,-3 0,4 -1,3 -1,2 -4,4 -3,1 -2,1 -2,0 -2,-1 -3,-1 -4,-4 -14,-13 0,-2 1,0 0,-1 1,-1 1,0 0,-1 1,0 0,1 15,15 4,2 4,0 2,-2 2,-4 1,-3 -1,-4 -16,-16 0,-1 1,0 0,-1 2,-2 2,0 22,23 z m -51,51 l 0,2 -1,0 0,1 -1,1 -1,0 0,1 -1,0 0,-1 -3,-3 0,4 -2,6
 -4,4 -4,2 -3,0 -4,-2 -2,-2 -3,-2 -14,-14 0,-1 1,0 0,-1 2,-2 2,0 16,16 2,1 1,0 2,1 1,-1 2,0 1,-1 1,-2 1,-3 0,-6 -16,-16 0,-2 1,0 0,-1 1,0 0,-1 2,0 23,22 z m 151,-168 l 0,1 1,1 0,1 -1,0 -3,4 7,7 0,1 -1,0 0,1 -2,2 -2,0 -7,-7 -13,13 0,1 -2,0 0,-1 -1,0 0,-1 -1,0 0,-1 -1,0 0,-2 -8,-31 0,-2 1,-1 1,0 0,-1 2,-2 1,0 0,-1 1,0 21,21 4,-4 1,0 1,1 1,0 z m -29,-10 l 7,28 11,-11 -18,-17 z m -33,86 l 2,2 -1,1 0,1 -2,2 0,1 -4,2 -1,1 -4,0 -4,-2 -2,-2 -13,-14 -3,3 0,1 -2,0 -1,-1 0,-1 -1,-1 0,-1 4,-3 -6,-6 0,-1 1,0 0,-1 1,-1 1,0 0,-1 1,0 6,6
 6,-6 2,0 0,1 1,1 0,1 -6,6 15,15 2,1 2,0 3,-3 0,-1 1,0 0,-1 2,0 0,1 z m -22,13 l 1,2 1,1 1,3 0,4 -1,2 -7,7 -2,1 -2,0 0,1 -1,0 -1,-1 -1,0 -1,-1 0,-1 -1,0 0,-1 1,0 1,-1 3,0 1,-1 2,-1 2,-2 1,-2 1,-1 0,-3 -2,-2 -1,0 -1,-1 -2,0 -1,1 -2,0 -1,1 -2,0 -1,1 -2,0 -1,1 -3,0 -2,-1 -1,-1 -2,-1 -1,-1 -1,-2 -1,-1 0,-4 1,-3 2,-2 1,-2 1,0 3,-3 2,0 1,-1 1,0 0,1 1,0 2,2 0,1 -1,0 -1,1 -2,0 -2,2 -2,1 0,1 -2,2 0,3 1,1 2,1 5,0 1,-1 2,0 1,-1 2,-1 1,0 2,-1 3,0 1,1 2,1 1,1 z m 28,-40 l 1,1 0,2 -1,0 -10,11 -2,0 -1,-1
 0,-1 -1,-1 0,-1 11,-10 0,-1 1,0 1,1 1,0 z m -93,82 l -3,-1 -2,1 -3,2 -1,1 0,1 -1,2 0,1 1,1 0,1 4,4 2,1 3,-1 4,-4 0,-5 -4,-4 z"/>
<path fill="#000000" stroke="none" d="M 2102,3968 l 4,4 3,4 2,8 0,5 -1,4 -2,4 -3,3 -8,6 -3,1 -4,0 -4,-1 -8,-4 -8,-8 -4,-8 -1,-4 0,-4 1,-4 2,-4 4,-4 4,-3 3,-2 4,-1 4,0 4,1 3,1 8,6 z m -4,5 l -3,-2 -3,-3 -2,-1 -3,-1 -6,0 -6,4 -4,6 0,6 1,3 2,3 2,2 2,3 3,3 3,2 9,3 2,-1 6,-4 4,-6 0,-6 -1,-2 -1,-3 -2,-3 -3,-3 z m 103,-94 l 4,6 2,6 0,5 -1,3 -3,3 -2,1 -1,1 -1,0 -1,1 -6,0 3,3 0,2 -1,0 0,1 -1,0 -1,1 -34,-34 -1,0 0,-1 3,-3 1,0 0,-1 1,0 0,1 13,13 0,-2 1,-2 0,-3 1,-1 0,-1 2,-2 3,-2 2,-1 3,-1 3,0 3,2 2,1 6,4 z m -6,3 l -8,-4 -2,0 -1,1 -2,1 -1,1 0,1 -1,1 0,3 -1,1
 0,2 1,2 9,9 3,1 6,-2 2,-1 1,-1 0,-2 1,-2 -1,-2 0,-2 -1,-2 -5,-5 z m 101,-78 l 1,1 0,2 -17,17 -2,0 -1,-1 0,-1 -1,0 0,-1 7,-7 -24,-25 -3,10 0,1 -2,0 -2,-2 0,-1 3,-13 0,-1 1,0 0,-1 1,0 0,-1 1,0 0,-1 1,0 0,1 29,28 6,-6 1,0 0,1 1,0 z m 20,-35 l 2,2 -4,4 6,7 1,1 -1,1 0,1 -1,0 0,1 -1,0 0,1 -2,0 -7,-7 -13,13 -1,0 0,1 -1,0 0,-1 -2,-2 -1,0 0,-2 -9,-32 1,0 0,-1 1,-1 0,-1 1,-1 1,0 2,-2 1,0 21,21 4,-4 2,0 0,1 z m -28,-11 l 7,29 11,-11 -18,-18 z m -63,95 l 1,1 0,2 -15,15 3,3 2,1 6,0 2,-1 6,-6 1,-2 0,-1 1,-1 0,-2 1,0 0,1 1,0 1,1 0,1
 1,0 0,1 -1,1 0,1 -1,1 -1,2 -1,1 -1,2 -4,4 -3,2 -3,1 -3,0 -6,-2 -6,-4 -3,-3 -2,-3 -1,-4 -1,-3 1,-3 0,-3 2,-2 2,-3 3,-2 2,-2 9,0 2,1 3,2 2,2 0,1 z m -5,3 l -3,-3 -4,-1 -3,0 -3,3 -1,2 -1,1 -1,2 0,1 1,2 0,2 3,3 12,-12 z m -63,86 l 1,1 0,3 -1,1 0,1 -1,1 -1,0 -1,2 -4,2 -2,0 -1,-1 -4,-2 -15,-15 -3,3 -2,0 -2,-2 0,-1 3,-3 -5,-6 0,-2 1,0 0,-1 1,0 0,-1 2,0 6,5 6,-6 1,1 1,0 1,1 0,2 -6,6 13,13 4,2 2,0 2,-1 1,-1 0,-2 1,0 0,-1 1,0 0,1 1,0 z m 17,-36 l 4,6 2,6 0,3 -1,3 -4,6 -6,4 -3,1 -3,0 -6,-2 -6,-4 -4,-6 -2,-6 0,-3 1,-3
 4,-6 3,-3 6,-2 6,0 3,1 3,2 3,3 z m -4,4 l -2,-1 -2,-2 -4,-2 -2,0 -6,3 -2,2 -1,2 0,4 1,2 0,2 2,2 1,2 2,2 6,3 4,0 3,-1 3,-3 2,-4 -1,-3 0,-2 -2,-4 -2,-2 z m -32,48 l 0,1 1,0 0,5 -1,1 0,2 -2,2 -2,1 -2,2 -3,2 -2,1 -3,0 -6,-2 -3,-2 -6,-6 -2,-3 -1,-3 0,-6 1,-3 1,-2 2,-3 2,-2 2,0 2,-2 5,0 0,1 1,0 1,1 0,2 -3,0 -1,1 -3,0 -3,3 -2,3 0,3 2,5 3,4 3,2 6,3 2,0 1,-1 2,-1 2,-2 1,-2 1,-1 0,-2 1,-1 0,-2 2,0 0,1 1,0 z m 99,-133 l 1,0 0,2 -2,0 0,1 -1,0 0,1 -1,0 0,1 -1,0 0,9 16,16 -1,1 0,1 -1,0 0,1 -1,0 0,1 -1,0
 -23,-23 -1,0 0,-1 1,0 0,-1 2,-2 1,0 4,3 -1,-2 0,-5 1,-1 0,-1 1,0 0,-1 1,-1 1,0 0,-1 1,0 1,-1 3,3 z m 23,-7 l 2,2 -12,12 0,-1 -1,0 -1,-1 -1,0 0,-2 11,-11 2,0 0,1 z"/>
<path fill="#000000" stroke="none" d="M 2344,3919 l 1,0 0,1 -1,0 0,1 -2,2 -2,0 -15,-15 -2,-1 -1,-1 -1,0 -1,-1 -2,1 -1,1 -2,0 -1,2 0,2 -1,3 1,4 16,16 0,1 -1,0 0,1 -1,0 0,1 -1,0 0,1 -2,0 -13,-14 -1,-1 -2,-1 -1,-1 -2,-1 -1,0 -2,1 -1,0 -1,1 -2,4 0,6 16,16 0,2 -2,2 -1,0 0,1 -1,0 -23,-23 0,-2 1,0 0,-1 1,0 0,-1 2,0 3,3 0,-7 2,-2 1,-2 3,-3 2,0 1,-1 3,0 1,1 1,0 0,-2 1,-2 0,-4 1,-1 0,-1 4,-4 2,-1 3,-1 2,1 2,0 2,1 18,18 z m -129,97 l 4,4 2,4 2,5 0,8 -4,8 -11,11 0,1 -2,0 -31,-31 0,-1 1,-1 7,-8 4,-4 4,-2 8,-2 8,2 8,6 z m -10,0 l -3,-1 -6,0 -6,2 -4,3 -4,5 25,25 5,-5
 4,-6 1,-3 0,-6 -1,-3 -11,-11 z m 159,-134 l 2,3 2,6 0,2 -2,6 -5,5 -1,0 -1,1 -6,0 3,3 0,1 -1,0 0,1 -1,1 -1,0 0,1 -1,-1 -34,-33 0,-2 1,0 0,-1 1,0 0,-1 1,0 0,-1 1,0 14,14 0,-4 1,-1 0,-2 1,-1 0,-1 2,-2 3,-2 2,-2 6,0 2,1 3,1 8,8 z m -10,-2 l -4,-2 -4,0 -1,1 -2,1 -2,2 0,1 -1,1 0,7 9,9 7,0 4,-2 1,-1 1,-2 0,-4 -3,-6 -5,-5 z m 103,-76 l 0,1 1,0 0,2 -17,17 -2,0 -2,-2 0,-2 7,-7 -25,-24 -2,10 -1,1 -1,0 -2,-2 0,-2 2,-12 1,0 0,-1 2,-2 1,0 0,-1 1,0 28,29 6,-6 2,0 1,1 z m 21,-33 l 0,1 -1,0 -3,4 6,7 1,0 0,1 -1,0 0,1 -2,2 -2,0 -7,-7 -13,14
 -2,0 0,-1 -1,0 0,-1 -1,0 -1,-1 0,-2 -8,-31 -1,0 1,-1 0,-1 1,-1 1,0 0,-1 2,-2 1,0 0,-1 1,0 21,21 4,-3 0,-1 1,0 3,3 z m -30,-12 l 7,28 11,-10 -18,-18 z m -204,235 l 1,1 0,2 -16,16 2,2 4,2 4,0 6,-3 2,-2 1,-2 1,-1 0,-1 1,-1 0,-1 1,-1 0,-1 1,0 0,1 1,0 1,1 0,4 -1,1 -1,2 -7,7 -6,2 -2,1 -3,-1 -4,-1 -3,-2 -3,-3 -4,-6 -2,-6 0,-3 1,-3 2,-2 2,-3 2,-2 3,-2 3,0 2,-1 6,2 4,4 1,0 z m -5,3 l -3,-2 -4,-1 -3,0 -3,2 -3,6 0,1 1,2 0,2 1,2 1,1 13,-13 z m 147,-145 l 1,1 0,2 -16,16 2,2 4,2 4,0 6,-3 2,-2 1,-2 1,-1 0,-1 1,-1 0,-1 1,-1 0,-1 1,0 0,1
 1,0 1,1 0,4 -1,1 -1,2 -7,7 -9,3 -2,-1 -4,-1 -3,-2 -3,-3 -4,-6 -2,-6 0,-3 1,-3 2,-2 2,-3 2,-2 3,-2 3,0 2,-1 6,2 4,4 1,0 z m -5,3 l -3,-2 -4,-1 -3,0 -3,2 -3,6 0,1 1,2 0,2 1,2 1,1 13,-13 z m -88,93 l 0,2 -1,0 -15,15 2,2 4,2 6,0 2,-1 3,-3 1,-2 1,-1 1,-2 1,-1 0,-2 1,0 0,-1 1,1 1,0 0,1 1,0 0,3 -1,1 0,1 -1,2 -1,1 -1,2 -2,2 -6,4 -3,1 -3,0 -6,-2 -6,-4 -4,-6 -1,-3 -1,-4 0,-3 4,-8 6,-4 8,0 2,1 3,2 4,4 z m -7,2 l -3,-3 -3,-1 -3,1 -4,2 -1,2 -1,1 0,5 2,4 1,1 12,-12 z m -10,31 l 1,0 0,6 -1,1 0,1 -1,1 -1,2 -1,1 -3,2 -3,1 -2,1
 -3,0 -6,-2 -6,-4 -3,-3 -2,-4 -1,-3 0,-6 1,-3 1,-2 2,-3 1,0 1,-1 2,-1 1,-1 1,0 1,-1 3,0 3,3 0,1 -1,1 -4,0 -2,2 -2,1 -2,3 -1,4 2,4 3,4 3,2 2,2 2,1 5,0 2,-1 4,-4 0,-3 1,-1 0,-3 2,0 0,1 1,1 z m 120,-157 l 2,2 0,1 -1,0 0,1 -2,0 0,1 -1,0 0,1 -1,1 0,7 1,2 14,15 1,0 0,1 -1,0 0,1 -2,2 -2,0 -22,-23 -1,0 0,-1 1,0 0,-1 1,0 0,-1 1,0 0,-1 1,0 4,4 -1,-2 0,-5 1,-1 0,-1 1,-1 0,-1 1,0 0,-1 1,0 1,-1 2,0 0,1 1,0 z m 24,-5 l 1,1 1,0 0,1 -1,0 -10,11 -2,0 -2,-2 0,-2 11,-10 0,-1 1,0 0,1 1,0 0,1 z"/>
<path fill="#000000" stroke="none" d="M 2636,3772 l 2,3 1,3 0,6 -1,3 -2,3 -4,4 -2,1 -1,1 -2,1 -1,1 -1,0 -1,1 -1,0 -3,-3 0,-1 1,0 0,-1 2,0 2,-1 1,-1 2,-1 3,-3 2,-4 0,-6 -3,-3 -1,-2 -2,-1 -5,0 -2,1 -5,5 -2,1 -1,2 -1,1 -2,0 -14,-14 0,-1 -1,-1 1,-1 14,-15 2,0 0,1 1,0 1,1 0,2 -11,12 9,9 1,-1 0,-1 2,-2 6,-4 2,-1 3,-1 3,1 2,0 6,6 z m -65,82 l 5,12 0,1 -2,2 0,1 -3,0 -4,-12 -1,1 -1,0 0,-1 -30,-13 -1,-1 0,-1 1,-1 0,-1 1,0 1,-1 2,0 25,12 0,-1 -12,-24 -1,-1 1,0 0,-1 3,-3 1,0 0,1 15,31 z m -114,95 l 2,3 2,6 0,3 -1,3 -1,2 -2,3 -2,2 -1,0 -1,1 -7,0 3,3 0,2 -1,0 0,1 -1,0
 0,1 -2,0 -34,-34 0,-1 3,-3 1,0 14,13 0,-3 1,-1 0,-2 1,-1 0,-2 2,-2 3,-2 2,-1 3,-1 3,1 2,1 3,1 3,2 5,5 z m -10,-1 l -4,-2 -4,0 -1,1 -2,1 -1,1 -1,0 0,2 -1,1 0,7 9,9 7,0 4,-2 2,-4 0,-4 -2,-4 -6,-6 z m 170,-143 l 1,0 0,2 -17,17 -2,0 -1,-1 -1,0 0,-2 7,-7 -25,-25 -2,10 0,1 -1,0 0,1 -1,0 0,-1 -1,-1 -1,0 0,-2 2,-13 1,0 0,-1 1,0 0,-1 1,0 0,-1 2,0 28,29 6,-6 1,0 0,-1 1,1 1,0 0,1 z m -233,177 l 0,1 -12,12 11,11 11,-11 2,0 0,1 1,0 0,1 1,0 0,2 -12,11 14,14 0,1 -1,1 0,1 -1,0 0,1 -2,0 -31,-31 0,-3 15,-14 1,-1 3,3 z m 125,-67 l 0,1 -2,2 0,1
 -2,0 -3,-3 0,4 -1,3 -2,4 -2,2 -3,1 -2,1 -3,0 -4,-2 -2,-2 -3,-2 -14,-14 1,0 0,-1 1,0 0,-1 1,-1 1,0 0,-1 1,0 13,14 2,2 4,2 3,0 2,-1 1,-1 2,-4 0,-7 -16,-16 0,-2 1,0 0,-1 1,0 0,-1 2,0 23,23 z m 26,-25 l 0,1 -1,0 -1,1 0,1 -2,0 -2,-2 0,3 -1,2 -1,3 -4,4 -4,2 -6,0 -3,-3 -1,-2 -2,-2 0,-5 2,-4 3,-3 2,-3 3,-3 -4,-4 -6,0 -5,5 0,2 -1,1 0,2 -1,1 0,1 -2,0 -2,-2 0,-3 1,-1 0,-2 1,-1 1,-2 3,-3 2,-1 2,-2 3,-1 4,0 2,1 2,2 2,1 16,16 z m -15,-7 l -4,4 -1,2 -1,1 -1,2 -1,1 0,2 1,1 0,1 1,1 2,1 4,0 2,-2 3,-6 0,-3 -5,-5 z m -93,91 l 0,2
 -1,0 -15,15 2,2 6,3 2,0 4,-2 6,-6 0,-2 1,-1 0,-1 1,-1 2,0 0,1 1,0 0,5 -2,2 -1,2 -3,3 -6,4 -2,1 -6,0 -6,-4 -4,-2 -4,-6 -2,-6 0,-3 1,-3 4,-6 3,-2 2,-1 3,-1 3,0 2,1 3,1 2,1 4,4 z m -6,2 l -3,-3 -4,-1 -3,1 -3,2 -1,2 -1,1 -1,2 0,2 1,2 0,1 1,2 1,1 13,-12 z m 113,-129 l 1,1 0,2 -1,1 -1,0 -2,2 0,1 -1,1 0,4 1,2 0,2 15,15 0,2 -1,0 0,1 -1,0 0,1 -2,0 -23,-23 0,-1 3,-3 1,0 3,4 0,-8 1,-1 0,-1 2,-2 1,0 0,-1 3,0 0,1 1,0 z m -69,71 l 0,1 1,0 0,1 -1,0 -1,1 -1,0 0,1 -1,0 -1,1 0,2 -1,1 0,1 1,2 0,4 15,14 0,3 -1,0
 0,1 -1,0 0,1 -2,0 -23,-23 0,-1 2,-2 0,-1 2,0 3,3 0,-6 1,-1 0,-2 1,0 0,-1 1,0 0,-1 1,0 0,-1 3,0 2,2 z m 116,-100 l 1,1 0,2 -11,11 -1,0 -2,-2 0,-2 11,-11 1,0 0,1 1,0 z"/>
<path fill="#000000" stroke="none" d="M 2669,3914 l 1,0 0,3 -1,0 -1,1 -1,0 0,1 -2,0 -10,-5 -14,13 5,11 0,3 -1,0 -1,1 -1,0 0,1 -1,0 0,-1 -1,-1 -19,-41 0,-2 1,0 0,-1 1,-1 1,0 0,-1 1,0 0,-1 2,0 41,20 z m -41,-13 l 11,22 11,-12 -22,-10 z m 169,-129 l 2,3 1,3 0,3 -2,6 -4,6 -1,1 -2,1 -1,1 -2,1 -1,1 -2,0 0,1 -2,0 0,-1 -1,0 0,-1 -1,0 0,-1 -1,0 0,-1 1,0 1,-1 2,0 2,-1 7,-7 1,-2 0,-4 -1,-2 -1,-1 -2,-4 -2,-1 -6,0 -2,1 -6,6 -1,2 -1,1 -2,0 -15,-15 0,-2 15,-15 2,0 0,1 1,0 1,1 0,2 -12,12 9,9 4,-4 3,-2 2,-2 3,-1 2,-1 3,1 2,0 3,2 4,4 z m -18,34 l 0,1 -1,0 -17,17 -2,0 0,-1 -1,0 0,-2 7,-7
 -25,-25 -3,10 0,2 -1,0 -2,-2 0,-1 -1,0 0,-1 3,-13 3,-3 1,0 29,29 6,-6 0,-1 1,0 0,1 1,0 2,2 z m -95,71 l 6,9 1,3 0,3 -1,3 -1,2 -2,3 -1,1 -1,0 -1,1 -2,0 -1,1 -5,0 12,12 0,1 -1,0 0,1 -1,0 0,1 -1,0 0,1 -1,0 -32,-32 0,-2 1,0 0,-1 1,0 0,-1 2,0 3,3 0,-7 3,-3 0,-2 3,-2 3,-1 2,-1 9,3 2,2 3,2 z m -4,5 l -2,-1 -2,-2 -4,-2 -1,-1 -2,1 -2,0 -2,2 0,1 -1,0 0,2 -1,1 0,7 9,9 6,0 3,-1 2,-1 2,-4 0,-4 -2,-4 -3,-3 z m 56,-34 l 0,3 -1,0 -1,1 -2,0 -34,-33 0,-2 1,0 0,-1 1,0 0,-1 1,0 0,-1 2,0 33,34 z m -42,0 l 0,1 1,0 0,2 -1,0 0,1 -1,0
 -1,1 -1,0 0,1 -1,0 0,6 1,2 0,1 15,15 0,2 -2,2 -1,0 0,1 -1,0 -23,-23 0,-2 1,0 0,-1 1,0 0,-1 2,0 3,3 0,-7 1,-2 3,-3 1,0 0,-1 1,0 0,1 1,0 0,1 1,0 z m 30,12 l 0,2 -3,3 -1,0 0,-1 -23,-22 0,-2 1,0 0,-1 1,0 0,-1 1,0 0,-1 1,0 0,1 23,22 z m 18,-42 l 1,1 0,2 -11,10 0,1 -2,0 -1,-1 0,-1 -1,-1 1,-1 10,-11 2,0 0,1 1,0 z m -47,13 l 0,3 -2,2 -3,0 -2,-2 0,-3 1,-1 2,-1 1,-1 3,3 z"/>
<path fill="#000000" stroke="none" d="M 2955,3770 l 2,3 2,2 1,3 0,3 -2,6 -4,6 -4,4 -2,1 -1,0 -1,1 -3,0 0,-1 -1,0 -1,-1 0,-2 1,0 1,-1 1,0 2,-1 1,-1 2,-1 3,-3 2,-4 0,-5 -1,-2 -3,-3 -4,-2 -2,0 -1,1 -2,0 -2,2 -3,2 -1,2 -3,3 0,1 -1,0 -1,-1 -1,0 -13,-14 -1,0 0,-2 16,-16 1,1 1,0 0,1 1,1 0,1 -12,12 9,9 4,-4 3,-2 2,-2 3,-1 5,0 3,1 2,1 2,2 z m -17,34 l 1,1 0,1 1,0 -1,0 0,1 -17,17 -2,0 0,-1 -1,0 0,-2 -1,0 1,0 0,-1 7,-6 -25,-25 -3,10 0,1 -2,0 -1,-1 0,-1 -1,0 0,-2 3,-12 0,-1 1,0 0,-1 1,-1 1,0 0,-1 1,0 0,1 29,28 6,-6 2,0 0,1 z m -94,97 l 0,2 -1,0 0,1 -1,0 0,1
 -2,0 -3,-3 0,4 -1,3 -2,4 -2,2 -3,1 -2,1 -3,0 -6,-3 -3,-2 -13,-14 -1,-1 1,0 0,-1 1,0 0,-1 1,-1 1,0 0,-1 1,0 0,1 15,15 2,1 1,1 4,0 2,-1 1,-1 2,-4 0,-7 -16,-16 0,-1 1,-1 0,-1 1,0 1,-1 1,0 23,23 z m 27,-27 l 0,2 -1,1 -1,0 0,1 -2,0 -15,-15 -2,-1 -1,-1 -2,0 -1,-1 -2,2 -2,0 -1,2 -1,3 0,6 16,16 0,2 -1,0 0,1 -1,0 0,1 -2,0 -23,-22 0,-2 1,0 0,-1 1,-1 1,0 0,-1 0,1 1,0 3,3 0,-7 2,-3 1,-2 3,-2 4,-2 2,0 3,1 2,1 18,18 z m -63,47 l 4,4 1,2 0,6 -1,2 -3,3 -1,0 0,1 -1,0 -1,1 -3,0 0,-1 -1,0 0,-1 -1,0 0,-2 1,0 1,-1 2,0 2,-2
 0,-4 -2,-2 -1,-2 -24,-23 0,-2 1,0 1,-1 0,-1 1,0 1,-1 1,0 23,24 z m 78,-87 l 1,1 0,2 -16,16 2,2 4,2 6,0 2,-1 2,-2 2,-4 3,-3 0,-3 2,0 0,1 1,0 0,1 1,0 0,3 -2,2 -1,2 -1,1 -1,2 -4,4 -9,3 -6,-2 -3,-2 -6,-6 -2,-3 -1,-3 0,-6 1,-3 1,-2 2,-3 6,-4 2,0 3,-1 3,1 2,1 3,2 2,2 1,0 z m -6,3 l -3,-2 -3,-1 -4,0 -3,2 -2,4 0,5 2,4 1,1 12,-13 z m 22,-18 l 1,1 0,1 -11,11 -1,0 -2,-2 0,-2 10,-10 1,0 0,-1 0,1 2,0 0,1 z"/>
<path fill="#000000" stroke="none" d="M 2943,3961 l 1,0 0,2 -3,3 -2,0 -10,-5 -14,14 5,10 0,2 -2,2 -1,0 0,1 -1,0 0,-1 -1,-1 -19,-41 0,-2 2,-2 1,0 0,-1 1,0 0,-1 1,0 42,20 z m -41,-13 l 11,22 11,-11 -22,-11 z m 216,-176 l 2,3 1,3 0,3 -2,6 -4,6 -1,1 -2,1 -1,1 -2,1 -1,1 -2,0 0,1 -2,0 0,-1 -1,0 0,-1 -1,0 0,-1 -1,0 0,-1 1,0 1,-1 2,0 2,-1 1,-1 2,-1 1,-2 3,-3 1,-2 0,-4 -1,-2 -1,-1 -1,-2 -3,-3 -6,0 -2,1 -6,6 -1,2 -1,1 -2,0 -15,-15 0,-2 15,-15 2,0 0,1 1,0 1,1 0,2 -12,12 9,9 4,-4 3,-2 2,-2 3,-1 7,0 3,2 4,4 z m -145,117 l 1,1 0,2 -4,3 2,0 2,1 4,4 2,4 0,5 -2,4 -3,3 -2,1 -1,1 -2,0
 0,2 2,2 1,0 2,-1 1,-1 6,-5 2,-1 2,-2 2,-1 5,0 2,1 3,3 1,2 0,4 -1,3 -1,2 -4,6 -3,2 -2,2 -2,1 -3,1 -3,0 -1,-1 -2,-1 -2,-2 0,-1 -1,-1 0,-5 -4,0 -2,-1 -2,-4 0,-3 -2,0 -2,-1 -3,-3 -1,-2 -2,-2 -1,-2 0,-2 1,-2 0,-3 2,-2 1,-2 1,0 10,-10 1,0 1,1 1,0 z m 18,28 l -2,-1 -2,2 -2,1 -6,6 0,5 1,0 0,2 3,1 4,-2 3,-2 2,-2 1,-2 1,-1 0,-4 -3,-3 z m 109,-112 l 0,2 -17,17 -2,0 0,-1 -1,0 0,-1 -1,0 0,-2 7,-7 -25,-24 -2,10 -1,1 -1,0 -2,-2 0,-2 3,-12 0,-2 1,0 2,-2 1,0 29,29 6,-6 1,0 2,2 z m -80,81 l 0,1 -1,1 -1,0 0,1 -1,0 0,1 -1,0 -3,-3 0,4 -1,3
 -1,2 -4,4 -4,2 -3,0 -4,-2 -2,-2 -3,-2 -14,-13 0,-2 1,0 1,-1 0,-1 1,0 0,-1 1,0 0,1 14,13 3,3 2,1 4,0 2,-2 2,-4 1,-3 -1,-4 -15,-16 -1,0 0,-1 1,0 1,-1 0,-1 1,0 0,-1 2,0 23,23 z m -52,51 l 0,2 -2,2 -1,0 0,1 -4,-4 0,4 -2,6 -1,2 -3,2 -4,2 -3,0 -4,-2 -2,-2 -3,-2 -13,-14 -1,0 0,-1 1,0 1,-1 0,-1 1,0 0,-1 2,0 16,16 2,1 1,0 2,1 1,-1 2,0 1,-1 1,-2 1,-3 0,-6 -16,-16 0,-2 1,0 0,-1 1,0 0,-1 2,0 23,22 z m 89,-92 l 2,2 -1,1 0,2 -1,0 0,1 -1,1 -4,2 -1,1 -4,0 -2,-1 -17,-17 -3,3 0,1 -1,0 -2,-2 0,-1 -1,0 0,-1 1,0 3,-3 -6,-6 0,-1 1,0
 0,-1 1,0 0,-1 1,0 0,-1 2,0 5,6 6,-6 2,0 0,1 2,2 -1,0 -6,6 15,15 2,1 2,0 2,-2 1,0 0,-2 1,0 0,-1 2,0 0,1 z m -19,16 l 0,7 -2,4 -3,3 -2,1 -2,2 -2,0 -1,1 -1,0 -2,-2 -1,0 0,-1 -1,0 0,-1 1,0 1,-1 4,0 4,-4 1,-2 1,-1 0,-3 -2,-2 -1,0 -1,-1 -2,0 -1,1 -2,0 -1,1 -2,0 -1,1 -2,0 -1,1 -3,0 -2,-1 -1,-1 -2,-1 -1,-1 -1,-2 -1,-1 0,-2 1,-2 0,-3 2,-2 1,-2 1,0 3,-3 2,0 1,-1 1,0 3,3 0,1 -1,0 -1,1 -2,0 -5,5 0,1 -1,1 0,1 1,1 0,1 1,0 1,1 5,0 1,-1 2,0 1,-1 2,-1 1,0 2,-1 3,0 1,1 2,1 4,4 z m 25,-43 l 1,1 0,2 -11,11
 -2,0 -1,-1 0,-1 -1,-1 11,-11 0,-1 2,0 0,1 1,0 z m -93,82 l -3,-1 -2,1 -4,4 -1,2 0,1 1,1 0,1 4,4 3,1 2,-1 5,-5 0,-3 -5,-5 z"/>
<path fill="#000000" stroke="none" d="M 3066,3968 l 6,8 2,8 0,5 -1,4 -2,4 -3,3 -8,6 -3,1 -4,0 -4,-1 -8,-4 -8,-8 -4,-8 -1,-4 2,-8 2,-4 3,-4 4,-3 3,-2 4,-1 4,0 8,2 8,6 z m -10,0 l -6,-2 -6,0 -6,4 -2,3 -2,6 0,3 3,6 2,2 2,3 3,3 3,2 9,3 3,-1 2,-2 3,-2 4,-6 1,-3 -1,-3 -1,-2 -1,-3 -2,-3 -8,-8 z m 221,-199 l 4,6 1,3 0,3 -2,6 -2,3 -6,6 -2,1 -1,1 -5,0 -1,-1 0,-1 -1,0 0,-1 1,-1 2,0 1,-1 1,0 2,-1 5,-5 1,-2 1,-1 0,-4 -3,-6 -4,-2 -5,0 -2,1 -2,2 -2,1 -1,2 -4,4 -1,0 -1,-1 -14,-13 0,-3 15,-15 2,0 0,1 1,0 1,1 0,2 -12,12 9,9 6,-6 3,-2 3,-1 2,-1 3,0 2,1 3,2 2,1 z m -17,36 l 0,1
 1,0 -1,0 0,1 -17,17 -2,0 0,-1 -1,0 0,-1 -1,-1 1,0 0,-1 7,-6 -25,-25 -3,10 0,1 -2,0 -1,-1 0,-1 -1,0 0,-1 3,-13 0,-1 1,0 0,-1 1,0 2,-2 0,1 29,28 6,-6 1,0 2,2 z m -96,74 l 6,9 1,3 0,3 -1,2 -1,3 -5,5 -2,0 -1,1 -6,0 3,3 0,2 -1,0 0,1 -1,0 -1,1 0,-1 -34,-33 0,-2 1,0 0,-1 1,-1 1,0 0,-1 1,0 0,1 14,13 0,-7 3,-3 0,-1 3,-2 3,-1 2,-1 3,0 6,3 2,2 3,2 z m -6,3 l -6,-3 -1,-1 -2,0 -4,2 0,1 -2,2 0,8 9,9 3,1 6,-2 2,-1 1,-1 1,-2 0,-4 -2,-4 -5,-5 z m -38,60 l 1,1 0,4 -4,4 -2,1 -1,1 -2,0 -6,-3 -15,-15 -3,3 -2,0 -1,-1 0,-1 -1,0 0,-1
 4,-3 -6,-6 0,-1 1,-1 0,-1 1,0 1,-1 1,0 6,5 6,-5 0,-1 1,0 0,1 1,0 1,1 0,2 -6,6 13,13 4,2 2,0 2,-1 1,-1 0,-1 1,0 0,-2 1,0 0,1 1,0 z m 17,-36 l 4,6 2,6 0,3 -1,3 -4,6 -6,4 -3,1 -3,0 -6,-2 -2,-2 -3,-2 -3,-3 -2,-3 -2,-6 1,-3 0,-3 2,-3 3,-3 2,-3 6,-2 6,0 3,1 3,2 3,3 z m -4,4 l -2,-1 -2,-2 -4,-2 -2,0 -6,3 -1,2 -2,2 0,4 3,6 4,4 6,3 4,0 2,-1 3,-3 2,-4 0,-3 -3,-6 -2,-2 z m 57,-56 l 0,1 -16,16 2,2 4,2 6,0 2,-1 3,-3 1,-2 1,-1 1,-2 0,-1 1,-1 0,-1 1,-1 1,1 1,0 0,1 1,1 0,1 -1,1 0,1 -1,1 -1,2 -1,1 -2,4 -6,4 -3,1
 -3,0 -6,-2 -6,-4 -3,-3 -2,-3 -1,-4 0,-6 1,-3 1,-2 2,-3 6,-4 8,0 2,1 3,2 4,4 z m -7,2 l -3,-3 -3,-1 -4,0 -3,3 -1,2 -1,1 0,5 2,4 1,1 12,-12 z m -82,102 l 0,1 1,0 0,5 -1,1 0,2 -3,3 -3,2 -2,2 -3,1 -3,0 -6,-2 -3,-2 -6,-6 -2,-3 -1,-3 0,-6 1,-3 2,-2 1,-3 2,-1 1,-1 1,0 2,-2 5,0 0,1 1,0 1,1 0,2 -2,0 -2,1 -2,0 -3,3 -2,3 -1,3 2,5 3,4 3,2 6,3 2,0 1,-1 4,-2 1,-1 1,-2 0,-1 1,-2 0,-3 2,0 1,1 z m 98,-134 l 1,1 1,0 0,2 -2,0 0,1 -1,0 0,1 -1,0 0,1 -1,0 0,7 1,2 15,15 0,2 -1,0 0,1 -1,0 0,1 -1,0 0,1 -1,0 -24,-24 1,0 0,-1
 1,-1 1,0 0,-1 1,0 4,3 0,-2 -1,-2 0,-1 1,-2 0,-2 1,0 1,-1 0,-1 1,0 0,-1 1,0 1,-1 1,0 0,1 1,0 0,1 z m 25,-6 l 1,1 0,1 -11,11 0,1 -1,-1 -1,0 -2,-2 0,-1 11,-11 2,0 0,1 1,0 z"/>
<path fill="#000000" stroke="none" d="M 3308,3919 l 0,1 -3,3 -2,0 -13,-14 -1,-1 -2,-1 -1,-1 -2,0 -1,-1 -2,1 -1,1 -1,0 -2,4 0,7 16,16 0,1 -1,0 0,1 -1,0 0,1 -1,0 0,1 -1,0 -15,-15 -2,-1 -1,-1 -2,-1 -1,0 -2,1 -1,0 -1,1 -2,4 0,6 16,16 0,2 -3,3 -1,0 -23,-23 0,-2 1,0 0,-1 1,0 0,-1 2,0 3,3 0,-4 1,-3 2,-4 3,-3 2,0 1,-1 3,0 2,1 1,0 0,-8 1,-1 0,-1 4,-4 2,-1 3,-1 2,1 2,0 2,1 4,4 15,14 z m -130,97 l 4,4 2,4 2,5 0,8 -4,8 -11,11 0,1 -2,0 -31,-31 0,-1 1,-1 7,-8 4,-4 4,-2 8,-2 8,2 8,6 z m -4,5 l -3,-2 -3,-3 -3,-1 -6,0 -6,2 -8,8 26,25 4,-5 3,-3 3,-9 -2,-6 -2,-3 -3,-3 z m 263,-251 l 2,3
 2,2 1,3 0,3 -2,6 -4,6 -4,4 -2,0 -1,1 -2,1 -2,0 -2,-2 0,-1 -1,0 0,-1 2,0 1,-1 1,0 1,-1 4,-2 1,-2 3,-3 1,-2 0,-4 -1,-2 -1,-1 -1,-2 -2,-1 -2,-2 -3,0 -2,1 -2,0 -4,4 -1,2 -3,3 -2,0 -1,-1 -14,-13 0,-3 15,-14 0,-1 1,0 0,1 1,0 2,2 0,1 -12,12 9,9 4,-4 3,-2 2,-2 3,-1 5,0 2,1 3,1 2,2 z m -110,112 l 2,3 2,6 0,5 -2,3 -5,5 -1,0 -1,1 -6,0 3,3 0,1 -2,2 -1,0 0,1 0,-1 -1,0 -34,-34 0,-1 1,0 0,-1 1,0 1,-1 0,-1 2,0 13,14 0,-4 1,-1 0,-2 1,-1 0,-1 2,-2 3,-2 2,-2 6,0 3,1 2,1 8,8 z m -6,1 l -2,-1 -2,-2 -4,-2 -4,0 -1,1 -2,1 -2,2
 0,2 -1,2 0,3 1,2 9,9 6,0 6,-3 0,-2 1,-2 -5,-10 z m 100,-78 l 0,2 -17,17 -2,0 -1,-1 0,-1 -1,0 0,-2 7,-7 -25,-24 -2,10 0,1 -2,0 -2,-2 0,-2 3,-12 0,-1 2,-2 1,0 0,-1 1,0 29,29 5,-6 2,0 2,2 z m -71,48 l 0,3 -15,15 3,3 2,1 4,0 6,-3 2,-2 1,-2 1,-1 0,-1 1,-1 0,-1 1,-1 0,-1 1,0 2,2 0,1 1,0 0,1 -1,1 0,1 -1,1 -1,2 -7,7 -2,1 -6,2 -6,-2 -3,-2 -6,-6 -2,-3 -2,-6 0,-3 1,-3 2,-2 2,-3 3,-2 2,-2 3,0 3,-1 2,1 3,1 3,2 3,3 z m -6,2 l -3,-2 -4,-1 -3,0 -3,2 -3,6 0,1 1,2 0,2 3,3 12,-13 z m -136,140 l 0,3 -15,15 3,3 2,1 4,0 6,-3 2,-2 1,-2 1,-1
 0,-1 1,-1 0,-1 1,-1 0,-1 1,0 2,2 0,1 1,0 0,1 -1,1 0,1 -1,1 -1,2 -7,7 -2,1 -6,2 -6,-2 -3,-2 -6,-6 -2,-3 -2,-6 0,-3 1,-3 2,-2 2,-3 3,-2 2,-2 3,0 3,-1 2,1 3,1 3,2 3,3 z m -6,2 l -3,-2 -4,-1 -3,0 -3,2 -3,6 0,1 1,2 0,2 3,3 12,-13 z m 54,-49 l 0,2 -1,0 -15,15 2,2 4,2 6,0 2,-1 6,-6 0,-2 1,-1 0,-1 1,-1 0,-1 1,0 0,1 1,0 0,1 1,0 0,4 -1,1 -1,2 -1,1 -1,2 -2,2 -6,4 -3,1 -3,0 -6,-2 -6,-4 -4,-6 -1,-3 -1,-4 0,-3 1,-2 4,-6 2,-2 3,-2 8,0 3,1 6,6 z m -6,2 l -3,-3 -4,-1 -3,1 -3,2 -1,2 -1,1 -1,2 0,1 1,2 0,2 1,2 1,1 13,-12 z m
 -11,31 l 1,0 0,6 -1,1 0,1 -1,1 -1,2 -1,1 -3,2 -2,1 -3,1 -3,0 -6,-2 -6,-4 -2,-3 -2,-4 -2,-3 0,-6 1,-3 2,-2 1,-3 2,0 3,-3 1,0 1,-1 4,0 0,1 1,0 0,1 1,1 0,2 -5,0 -2,2 -2,1 -2,3 -1,4 2,4 8,8 2,1 5,0 4,-2 1,-1 1,-2 0,-1 1,-2 0,-4 2,0 0,1 1,0 0,1 z m 121,-157 l 0,1 1,1 0,1 -1,0 0,1 -2,0 0,1 -1,0 0,1 -1,1 0,7 1,2 15,15 0,1 -3,3 -2,0 -22,-23 -1,0 3,-3 0,-1 2,0 3,4 0,-2 -1,-2 0,-1 1,-2 0,-2 2,-2 0,-1 1,0 1,-1 2,0 1,1 1,0 z m 25,-4 l 0,1 -11,11 -2,0 -1,-1 0,-1 -1,-1 12,-12 3,3 z"/>
<text font-family="Calibri" font-size="73" fill="#000000" font-weight="700" transform="translate(567,3116) rotate(-90)"><tspan x="0,38,77,117,156" y="0">Count</tspan></text>
<text font-family="Calibri" font-size="73" fill="#000000" font-weight="700"><tspan x="2085,2149,2188,2228,2253" y="4168">Month</tspan></text>
<text font-family="Calibri" font-size="131" fill="#000000" font-weight="700"><tspan x="1158,1242,1312,1382,1444,1476,1543" y="2241">Google </tspan><tspan x="1573,1657,1702,1772,1842,1912,1964" y="2241">Groups </tspan><tspan x="1996,2064,2134,2185,2230" y="2241">Post/</tspan><tspan x="2287,2341,2411,2481,2513,2568,2620" y="2241">Topics </tspan><tspan x="2651,2692,2759" y="2241">(4/</tspan><tspan x="2815,2882,2949" y="2241">13 </tspan><tspan x="2978,3024,3094,3139,3209,3279,3341,3411" y="2241">through </tspan><tspan x="3443,3510" y="2241">1/</tspan><tspan x="3567,3633,3700" y="2241">16)</tspan></text>
<path fill="#C00000" stroke="none" d="M 3689,3076 l 184,0 3,1 3,2 1,2 1,3 -2,6 -6,2 -184,0 -3,-1 -2,-1 -2,-3 -1,-3 1,-3 4,-4 3,-1 z"/>
<text font-family="Calibri" font-size="73" fill="#000000"><tspan x="3894,3932,3971,3999,4024,4052,4069,4091" y="3106">Posts - </tspan><tspan x="4108,4153,4189,4207,4245,4290,4326,4354" y="3106">HelpDesk</tspan></text>
<path fill="#C00000" stroke="none" d="M 3689,3208 l 32,0 3,1 3,2 1,2 1,3 -2,6 -6,2 -32,0 -3,-1 -2,-1 -2,-3 -1,-3 1,-3 4,-4 3,-1 z m 64,0 l 32,0 3,1 3,2 1,2 1,3 -2,6 -6,2 -32,0 -3,-1 -2,-1 -2,-3 -1,-3 1,-3 4,-4 3,-1 z m 64,0 l 32,0 3,1 3,2 1,2 1,3 -2,6 -6,2 -32,0 -3,-1 -2,-1 -2,-3 -1,-3 1,-3 4,-4 3,-1 z"/>
<text font-family="Calibri" font-size="73" fill="#000000"><tspan x="3894,3930,3968,4007,4024,4054,4083,4100,4122" y="3238">Topics - </tspan><tspan x="4138,4184,4220,4237,4275,4321,4356,4385" y="3238">HelpDesk</tspan></text>
<path fill="#376092" stroke="none" d="M 3689,3340 l 184,0 3,1 3,2 1,2 1,3 -2,6 -6,2 -184,0 -3,-1 -2,-1 -2,-3 -1,-3 1,-3 4,-4 3,-1 z"/>
<text font-family="Calibri" font-size="73" fill="#000000"><tspan x="3894,3932,3971,3999,4024,4052,4069,4091" y="3370">Posts - </tspan><tspan x="4108,4153,4169,4197,4228,4267,4296" y="3370">Discuss</tspan></text>
<path fill="#376092" stroke="none" d="M 3689,3472 l 32,0 3,1 3,2 1,2 1,3 -2,6 -6,2 -32,0 -3,-1 -2,-1 -2,-3 -1,-3 1,-3 4,-4 3,-1 z m 64,0 l 32,0 3,1 3,2 1,2 1,3 -2,6 -6,2 -32,0 -3,-1 -2,-1 -2,-3 -1,-3 1,-3 4,-4 3,-1 z m 64,0 l 32,0 3,1 3,2 1,2 1,3 -2,6 -6,2 -32,0 -3,-1 -2,-1 -2,-3 -1,-3 1,-3 4,-4 3,-1 z"/>
<text font-family="Calibri" font-size="73" fill="#000000"><tspan x="3894,3930,3968,4007,4024,4054,4083,4100,4122" y="3502">Topics - </tspan><tspan x="4138,4184,4200,4228,4260,4298,4326" y="3502">Discuss</tspan></text>
<path fill="#868686" stroke="none" d="M 4492,2058 l 0,1 2,0 0,4 -4085,0 0,2213 -5,0 0,-2216 1,0 0,-1 1,0 0,-1 4086,0 z"/>
<path fill="#868686" stroke="none" d="M 4494,2063 l 0,2217 -4089,0 0,-1 -1,0 0,-3 4085,0 0,-2213 5,0 z"/>
</g>
</svg>
