<?xml version="1.0" standalone="no"?>
<svg xml:space="preserve" width="100%" height="100%" viewBox="0 0 4897 6337" preserveAspectRatio="xMidYMid"
  fill-rule="nonzero" stroke-linecap="round" stroke-linejoin="round"
  xmlns="http://www.w3.org/2000/svg"
  xmlns:xlink="http://www.w3.org/1999/xlink"
  xmlns:svgmaker="http://www.svgmaker.com/svgns">
<svgmaker:init width="215.9mm" height="279.4mm" viewBox="0 0 4897 6337" view="fit"
  crop="none" cropWidth="180.3mm" cropHeight="90.9mm" cropBox="404 2138 4090 2062"/>
<title>Untitled</title>
<desc>
  Generated by SVGmaker V3 Version 3.61.E702.64
  MAY-16-2016, 08:27
</desc>
<defs><clipPath id="page_clip"><rect x="0" y="0" width="4897" height="6337"/></clipPath></defs>
<g id="Page_1" clip-path="url(#page_clip)" svgmaker:mediaBox="0 0 4897 6337">
<rect x="407" y="2141" width="4085" height="2057" fill="#FFFFFF" stroke="none"/>
<rect x="827" y="2656" width="3576" height="1170" fill="#FFFFFF" stroke="none"/>
<path fill="#868686" stroke="none" d="M 827,3677 l 3576,0 0,6 -3576,0 0,-6 z m 0,-146 l 3576,0 0,6 -3576,0 0,-6 z m 0,-147 l 3576,0 0,6 -3576,0 0,-6 z m 0,-146 l 3576,0 0,6 -3576,0 0,-6 z m 0,-146 l 3576,0 0,6 -3576,0 0,-6 z m 0,-147 l 3576,0 0,6 -3576,0 0,-6 z m 0,-146 l 3576,0 0,6 -3576,0 0,-6 z m 0,-146 l 3576,0 0,6 -3576,0 0,-6 z"/>
<path fill="#4F81BD" stroke="none" d="M 3936,2657 l 110,0 0,1169 -110,0 0,-1169 z m -275,144 l 110,0 0,1025 -110,0 0,-1025 z m -276,112 l 110,0 0,913 -110,0 0,-913 z m -275,180 l 110,0 0,733 -110,0 0,-733 z m -275,209 l 110,0 0,524 -110,0 0,-524 z m -275,120 l 110,0 0,404 -110,0 0,-404 z m -275,41 l 110,0 0,363 -110,0 0,-363 z m -275,166 l 110,0 0,197 -110,0 0,-197 z m 2201,79 l 110,0 0,118 -110,0 0,-118 z m -2476,14 l 110,0 0,104 -110,0 0,-104 z m -276,59 l 110,0 0,45 -110,0 0,-45 z m -275,19 l 110,0 0,26 -110,0 0,-26 z m -275,10 l 110,0 0,16 -110,0 0,-16 z"/>
<rect x="824" y="2656" width="6" height="1170" fill="#868686" stroke="none"/>
<path fill="#868686" stroke="none" d="M 801,3823 l 26,0 0,6 -26,0 0,-6 z m 0,-146 l 26,0 0,6 -26,0 0,-6 z m 0,-146 l 26,0 0,6 -26,0 0,-6 z m 0,-147 l 26,0 0,6 -26,0 0,-6 z m 0,-146 l 26,0 0,6 -26,0 0,-6 z m 0,-146 l 26,0 0,6 -26,0 0,-6 z m 0,-147 l 26,0 0,6 -26,0 0,-6 z m 0,-146 l 26,0 0,6 -26,0 0,-6 z m 0,-146 l 26,0 0,6 -26,0 0,-6 z"/>
<rect x="827" y="3823" width="3576" height="6" fill="#868686" stroke="none"/>
<path fill="#868686" stroke="none" d="M 830,3826 l 0,26 -6,0 0,-26 6,0 z m 275,0 l 0,26 -6,0 0,-26 6,0 z m 275,0 l 0,26 -6,0 0,-26 6,0 z m 275,0 l 0,26 -6,0 0,-26 6,0 z m 275,0 l 0,26 -6,0 0,-26 6,0 z m 275,0 l 0,26 -6,0 0,-26 6,0 z m 275,0 l 0,26 -6,0 0,-26 6,0 z m 276,0 l 0,26 -6,0 0,-26 6,0 z m 275,0 l 0,26 -6,0 0,-26 6,0 z m 275,0 l 0,26 -6,0 0,-26 6,0 z m 275,0 l 0,26 -6,0 0,-26 6,0 z m 275,0 l 0,26 -6,0 0,-26 6,0 z m 275,0 l 0,26 -6,0 0,-26 6,0 z m 275,0 l 0,26 -6,0 0,-26 6,0 z"/>
<text font-family="Calibri" font-size="80" fill="#000000"><tspan x="923,964" y="3753">11</tspan><tspan x="1198,1239" y="3742">18</tspan><tspan x="1473,1515" y="3723">31</tspan><tspan x="1749,1790" y="3665">71</tspan><tspan x="2004,2045,2086" y="3571">135</tspan><tspan x="2279,2320,2361" y="3406">248</tspan><tspan x="2554,2595,2636" y="3365">276</tspan><tspan x="2829,2870,2911" y="3245">358</tspan><tspan x="3104,3145,3187" y="3036">501</tspan><tspan x="3379,3421,3462" y="2856">624</tspan><tspan x="3654,3696,3737" y="2743">701</tspan><tspan x="3930,3971,4012" y="2600">799</tspan><tspan x="4225,4266" y="3650">81</tspan><tspan x="712" y="3849">0</tspan><tspan x="630,671,712" y="3703">100</tspan><tspan x="630,671,712" y="3557">200</tspan><tspan x="630,671,712" y="3411">300</tspan><tspan x="630,671,712" y="3264">400</tspan><tspan x="630,671,712" y="3118">500</tspan><tspan x="630,671,712" y="2972">600</tspan><tspan x="630,671,712" y="2825">700</tspan><tspan x="630,671,712" y="2679">800</tspan><tspan x="883,924,965,1006" y="3954">2004</tspan><tspan x="1158,1199,1240,1281" y="3954">2005</tspan><tspan x="1433,1475,1515,1556" y="3954">2006</tspan><tspan x="1709,1750,1790,1831" y="3954">2007</tspan><tspan x="1984,2025,2065,2106" y="3954">2008</tspan><tspan x="2259,2300,2340,2382" y="3954">2009</tspan><tspan x="2534,2575,2615,2657" y="3954">2010</tspan><tspan x="2809,2850,2891,2932" y="3954">2011</tspan><tspan x="3084,3126,3166,3207" y="3954">2012</tspan><tspan x="3360,3401,3441,3482" y="3954">2013</tspan><tspan x="3635,3676,3716,3757" y="3954">2014</tspan><tspan x="3910,3951,3991,4032" y="3954">2015</tspan><tspan x="4185,4226,4266,4308" y="3954">2016</tspan></text>
<text font-family="Calibri" font-size="80" fill="#000000" font-weight="700" transform="translate(584,3391) rotate(-90)"><tspan x="0,42,63,91,131,159,179,222,266" y="0">Citations</tspan></text>
<text font-family="Calibri" font-size="80" fill="#000000" font-weight="700"><tspan x="2540,2583,2623,2663" y="4076">Year</tspan></text>
<text font-family="Calibri" font-size="145" fill="#000000" font-weight="700"><tspan x="1592,1669,1747,1824,1951,2024,2102" y="2339">PubMed </tspan><tspan x="2134,2210,2279,2329,2406,2463,2523,2594,2671,2745" y="2339">Cytoscape </tspan><tspan x="2779,2855,2890,2940,3010,3060,3095,3173,3250,3307" y="2339">Citations </tspan><tspan x="2131,2204" y="2516">2/</tspan><tspan x="2266,2340,2413" y="2516">10/</tspan><tspan x="2475,2549,2622,2695" y="2516">2016</tspan></text>
<path fill="#868686" stroke="none" d="M 4492,2138 l 0,1 2,0 0,5 -4084,0 0,2051 -6,0 0,-2054 1,0 0,-2 2,0 0,-1 4085,0 z"/>
<path fill="#868686" stroke="none" d="M 4494,2144 l 0,2056 -4089,0 0,-1 -1,0 0,-4 4085,0 0,-2051 5,0 z"/>
</g>
</svg>
