<?xml version="1.0" standalone="no"?>
<svg xml:space="preserve" width="100%" height="100%" viewBox="0 0 4897 6337" preserveAspectRatio="xMidYMid"
  fill-rule="nonzero" stroke-linecap="round" stroke-linejoin="round"
  xmlns="http://www.w3.org/2000/svg"
  xmlns:xlink="http://www.w3.org/1999/xlink"
  xmlns:svgmaker="http://www.svgmaker.com/svgns">
<svgmaker:init width="215.9mm" height="279.4mm" viewBox="0 0 4897 6337" view="fit"
  crop="none" cropWidth="180.3mm" cropHeight="122.0mm" cropBox="404 1785 4090 2768"/>
<title>Untitled</title>
<desc>
  Generated by SVGmaker V3 Version 3.61.E702.64
  MAY-16-2016, 08:20
</desc>
<defs><clipPath id="page_clip"><rect x="0" y="0" width="4897" height="6337"/></clipPath></defs>
<g id="Page_1" clip-path="url(#page_clip)" svgmaker:mediaBox="0 0 4897 6337">
<rect x="407" y="1787" width="4085" height="2763" fill="#FFFFFF" stroke="none"/>
<path fill="#4572A7" stroke="none" d="M 2449,3381 l 934,27 0,-48 -2,-48 -5,-47 -6,-46 -10,-45 -11,-45 -13,-44 -16,-43 -17,-42 -20,-40 -21,-40 -23,-39 -25,-37 -27,-36 -28,-35 -30,-33 -32,-32 -33,-31 -34,-28 -36,-27 -37,-26 -39,-23 -40,-22 -40,-20 -42,-18 -43,-16 -44,-14 -45,-12 -46,-9 -47,-7 -47,-5 -48,-3 -27,0 0,934 z"/>
<path fill="#AA4643" stroke="none" d="M 2449,3381 l 97,929 43,-6 43,-7 42,-9 41,-12 41,-13 39,-14 39,-17 37,-18 37,-19 36,-22 34,-22 34,-25 32,-25 31,-27 30,-28 29,-30 27,-31 26,-32 25,-33 23,-34 22,-35 20,-36 18,-37 17,-38 15,-39 14,-40 11,-41 10,-41 8,-42 6,-42 5,-43 2,-44 -934,-27 z"/>
<path fill="#89A54E" stroke="none" d="M 2449,3381 l -729,584 39,45 41,42 43,40 46,36 47,34 50,30 51,27 52,24 54,21 55,17 57,14 57,10 58,7 58,3 59,-1 59,-4 -97,-929 z"/>
<path fill="#71588F" stroke="none" d="M 2449,3381 l -903,-238 -13,54 -9,54 -6,54 -3,55 0,54 4,54 6,54 10,53 13,52 16,52 18,51 22,49 25,49 27,47 31,46 33,44 729,-584 z"/>
<path fill="#4198AF" stroke="none" d="M 2449,3381 l -541,-761 -33,24 -31,26 -31,27 -29,28 -28,30 -26,30 -25,32 -24,33 -22,33 -21,35 -19,36 -18,36 -16,37 -15,38 -13,39 -11,39 903,238 z"/>
<path fill="#DB843D" stroke="none" d="M 2449,3381 l 0,-934 -36,1 -36,2 -36,3 -36,5 -36,6 -35,8 -35,9 -34,10 -34,12 -34,13 -33,14 -32,15 -32,17 -31,18 -31,19 -30,21 541,761 z"/>
<path fill="#000000" stroke="none" d="M 2090,4246 l -422,86 -37,0 0,-6 36,0 -1,0 422,-86 2,6 z m 1046,-232 l 139,154 -2,-1 36,0 0,6 -36,0 -2,-1 -139,-154 4,-4 z m -1457,-1162 l -134,-122 2,1 -36,0 0,-6 36,0 2,1 134,122 -4,4 z m 483,-360 l -77,-171 3,2 -37,0 0,-6 37,0 3,2 77,171 -6,2 z m 954,237 l 32,-171 1,-1 2,-1 37,0 0,6 -37,0 3,-2 -32,171 -6,-2 z m -1581,849 l -139,-7 -37,0 0,-6 37,0 139,7 0,6 z"/>
<text font-family="Calibri" font-size="80" fill="#000000"><tspan x="3201,3253,3293,3320,3378,3420,3448,3484,3534,3575,3617,3657,3685,3723,3750,3768,3811" y="2560">NetworkGeneration</tspan><tspan x="3457,3498,3539" y="2658">25%</tspan><tspan x="3324,3373,3411,3438,3476,3522,3540,3571,3613,3651,3669,3687,3719,3758,3785,3803,3845" y="4172">DataVisualization</tspan><tspan x="3536,3577,3618" y="4270">23%</tspan><tspan x="1155,1206,1234,1272,1314,1356,1403,1445,1483,1501,1537,1568,1586" y="4330">GraphAnalysis</tspan><tspan x="1317,1358,1400" y="4429">16%</tspan><tspan x="1020,1063,1081,1123,1154,1182,1222,1250,1268,1310" y="3569">Clustering</tspan><tspan x="1114,1155,1197" y="3668">15%</tspan><tspan x="937,990,1033,1060,1102,1120,1162,1200,1236,1283,1325,1363,1381,1417,1448,1467" y="2729">OntologyAnalysis</tspan><tspan x="1148,1189,1230" y="2828">11%</tspan><tspan x="1448,1502,1544,1562,1580,1622,1662,1712,1750,1777,1815,1835,1900,1942,1984,2012" y="2321">OnlineDataImport</tspan><tspan x="1674,1716,1757" y="2420">10%</tspan></text>
<text font-family="Calibri" font-size="145" fill="#000000" font-weight="700"><tspan x="1010,1070,1147,1224" y="1986">Top </tspan><tspan x="1258,1345,1422,1500" y="1986">App </tspan><tspan x="1533,1601,1650,1728,1777,1850" y="1986">Store </tspan><tspan x="1883,1967,2015,2065,2114,2185,2245,2295,2331,2408,2485,2543" y="1986">Attractions </tspan><tspan x="2577,2653,2721" y="1986">by </tspan><tspan x="2756,2832,2902,2950,3024,3091,3168,3221,3289" y="1986">Category </tspan><tspan x="3321,3366,3440,3513,3586,3624,3697,3770,3844,3889" y="1986">(175,279) </tspan><tspan x="1531,1576,1649" y="2163">(6/</tspan><tspan x="1712,1785" y="2163">1/</tspan><tspan x="1847,1921,1994,2067,2141" y="2163">2012 </tspan><tspan x="2173,2223,2300,2350,2427,2504,2573,2650" y="2163">through </tspan><tspan x="2685,2758" y="2163">2/</tspan><tspan x="2821,2894,2967" y="2163">10/</tspan><tspan x="3030,3103,3176,3250,3323" y="2163">2016)</tspan></text>
<path fill="#868686" stroke="none" d="M 4492,1785 l 0,1 2,0 0,5 -4084,0 0,2756 -6,0 0,-2759 1,0 0,-2 2,0 0,-1 4085,0 z"/>
<path fill="#868686" stroke="none" d="M 4494,1791 l 0,2762 -4089,0 0,-2 -1,0 0,-4 4085,0 0,-2756 5,0 z"/>
</g>
</svg>
