<?xml version="1.0" encoding="UTF-8" standalone="no"?>
<svg width="1308px" height="1114px" viewBox="0 0 1308 1114" version="1.1" xmlns="http://www.w3.org/2000/svg" xmlns:xlink="http://www.w3.org/1999/xlink">
    <!-- Generator: Sketch 3.7.2 (28276) - http://www.bohemiancoding.com/sketch -->
    <title>Web_Site_Sessions_Total</title>
    <desc>Created with Sketch.</desc>
    <defs></defs>
    <g id="Page-1" stroke="none" stroke-width="1" fill="none" fill-rule="evenodd">
        <g id="Web_Site_Sessions_Total" transform="translate(-1.000000, 0.000000)">
            <g id="Page_1-Clipped">
                <g id="Page_1">
                    <polygon id="Shape" fill="#4572A7" points="608 503 1104 585 1108 559 1110 534 1111 509 1110 483 1109 458 1106 434 1102 409 1097 385 1091 362 1075 316 1065 294 1054 272 1043 251 1017 210 987 172 953 137 917 106 877 78 856 65 834 54 811 43 765 25 740 18 715 12 690 7 670 4 649 2 608 0"></polygon>
                    <polygon id="Shape" fill="#AA4643" points="608 503 1011 803 1028 779 1044 753 1058 727 1071 700 1082 672 1091 643 1098 614 1104 585"></polygon>
                    <polygon id="Shape" fill="#89A54E" points="608 503 851 943 897 915 918 899 939 882 958 864 977 844 994 824 1011 803"></polygon>
                    <polygon id="Shape" fill="#71588F" points="608 503 687 999 730 990 772 978 812 962 851 943"></polygon>
                    <polygon id="Shape" fill="#4198AF" points="608 503 524 998 565 1003 606 1005 646 1004 687 999"></polygon>
                    <polygon id="Shape" fill="#DB843D" points="608 503 387 954 420 969 454 981 489 991 524 998"></polygon>
                    <polygon id="Shape" fill="#93A9CF" points="608 503 288 890 311 908 336 925 361 940 387 954"></polygon>
                    <polygon id="Shape" fill="#D19392" points="608 503 217 818 233 838 269 874 288 890"></polygon>
                    <polygon id="Shape" fill="#B9CD96" points="608 503 166 741 177 761 189 781 203 800 217 818"></polygon>
                    <polygon id="Shape" fill="#A99BBD" points="608 503 139 684 152 713 166 741"></polygon>
                    <polygon id="Shape" fill="#91C3D5" points="608 503 608 0 582 1 557 3 532 6 507 10 483 16 459 23 435 31 413 40 390 50 369 61 348 73 327 86 288 115 253 147 220 183 191 222 178 242 166 263 155 285 145 307 136 330 128 353 121 377 115 402 111 426 108 452 106 477 105 503 107 549 110 572 114 595 119 618 124 640 139 684"></polygon>
                    <path d="M252,858 L159,959 L139,959 L139,956 L157,956 L156,956 L249,855 L252,858 L252,858 Z M990,176 L1080,78 L1099,78 L1099,81 L1081,81 L1083,81 L993,179 L990,176 L990,176 Z M337,926 L292,1024 L290,1025 L271,1025 L271,1022 L290,1022 L289,1023 L334,925 L337,926 L337,926 Z M190,782 L106,837 L87,837 L87,834 L105,834 L189,779 L190,782 L190,782 Z M1071,698 L1168,739 L1167,739 L1185,739 L1185,742 L1167,742 L1070,701 L1071,698 L1071,698 Z M193,220 L106,179 L88,179 L88,176 L107,176 L194,217 L193,220 L193,220 Z M456,982 L413,1053 L411,1054 L393,1054 L393,1051 L411,1051 L410,1052 L453,981 L456,982 L456,982 Z M773,978 L796,1041 L794,1040 L813,1040 L813,1043 L794,1043 L793,1042 L770,979 L773,978 L773,978 Z M940,881 L970,920 L968,919 L987,919 L987,922 L968,922 L967,921 L937,882 L940,881 L940,881 Z" id="Shape" fill="#000000"></path>
                    <text id="United" fill="#000000" font-family="Calibri" font-size="33.5872" font-weight="normal">
                        <tspan x="1107" y="81">United</tspan>
                    </text>
                    <text id="States" fill="#000000" font-family="Calibri" font-size="33.5872" font-weight="normal">
                        <tspan x="1228" y="81">States</tspan>
                    </text>
                    <text id="28%" fill="#000000" font-family="Calibri" font-size="33.5872" font-weight="normal">
                        <tspan x="1183" y="131">28%</tspan>
                    </text>
                    <text id="India" fill="#000000" font-family="Calibri" font-size="33.5872" font-weight="normal">
                        <tspan x="1193" y="741">India</tspan>
                    </text>
                    <text id="7%" fill="#000000" font-family="Calibri" font-size="33.5872" font-weight="normal">
                        <tspan x="1209" y="791">7%</tspan>
                    </text>
                    <text id="China" fill="#000000" font-family="Calibri" font-size="33.5872" font-weight="normal">
                        <tspan x="995" y="921">China</tspan>
                    </text>
                    <text id="7%" fill="#000000" font-family="Calibri" font-size="33.5872" font-weight="normal">
                        <tspan x="1016" y="971">7%</tspan>
                    </text>
                    <text id="United" fill="#000000" font-family="Calibri" font-size="33.5872" font-weight="normal">
                        <tspan x="820" y="1043">United</tspan>
                    </text>
                    <text id="Kingdom" fill="#000000" font-family="Calibri" font-size="33.5872" font-weight="normal">
                        <tspan x="942" y="1043">Kingdom</tspan>
                    </text>
                    <text id="5%" fill="#000000" font-family="Calibri" font-size="33.5872" font-weight="normal">
                        <tspan x="929" y="1093">5%</tspan>
                    </text>
                    <text id="Germany" fill="#000000" font-family="Calibri" font-size="33.5872" font-weight="normal">
                        <tspan x="449" y="1060">Germany</tspan>
                    </text>
                    <text id="5%" fill="#000000" font-family="Calibri" font-size="33.5872" font-weight="normal">
                        <tspan x="500" y="1110">5%</tspan>
                    </text>
                    <text id="Japan" fill="#000000" font-family="Calibri" font-size="33.5872" font-weight="normal">
                        <tspan x="293" y="1063">Japan</tspan>
                    </text>
                    <text id="5%" fill="#000000" font-family="Calibri" font-size="33.5872" font-weight="normal">
                        <tspan x="316" y="1113">5%</tspan>
                    </text>
                    <text id="France" fill="#000000" font-family="Calibri" font-size="33.5872" font-weight="normal">
                        <tspan x="156" y="1025">France</tspan>
                    </text>
                    <text id="4%" fill="#000000" font-family="Calibri" font-size="33.5872" font-weight="normal">
                        <tspan x="186" y="1075">4%</tspan>
                    </text>
                    <text id="Canada" fill="#000000" font-family="Calibri" font-size="33.5872" font-weight="normal">
                        <tspan x="11" y="959">Canada</tspan>
                    </text>
                    <text id="3%" fill="#000000" font-family="Calibri" font-size="33.5872" font-weight="normal">
                        <tspan x="48" y="1009">3%</tspan>
                    </text>
                    <text id="Italy" fill="#000000" font-family="Calibri" font-size="33.5872" font-weight="normal">
                        <tspan x="12" y="836">Italy</tspan>
                    </text>
                    <text id="3%" fill="#000000" font-family="Calibri" font-size="33.5872" font-weight="normal">
                        <tspan x="22" y="886">3%</tspan>
                    </text>
                    <text id="Spain" fill="#000000" font-family="Calibri" font-size="33.5872" font-weight="normal">
                        <tspan x="37" y="710">Spain</tspan>
                    </text>
                    <text id="2%" fill="#000000" font-family="Calibri" font-size="33.5872" font-weight="normal">
                        <tspan x="58" y="760">2%</tspan>
                    </text>
                    <text id="Other" fill="#000000" font-family="Calibri" font-size="33.5872" font-weight="normal">
                        <tspan x="0" y="129">Other</tspan>
                    </text>
                    <text id="31%" fill="#000000" font-family="Calibri" font-size="33.5872" font-weight="normal">
                        <tspan x="13" y="179">31%</tspan>
                    </text>
                </g>
            </g>
        </g>
    </g>
</svg>