<?xml version="1.0" standalone="no"?>
<svg xml:space="preserve" width="100%" height="100%" viewBox="0 0 4897 6337" preserveAspectRatio="xMidYMid"
  fill-rule="nonzero" stroke-linecap="round" stroke-linejoin="round"
  xmlns="http://www.w3.org/2000/svg"
  xmlns:xlink="http://www.w3.org/1999/xlink"
  xmlns:svgmaker="http://www.svgmaker.com/svgns">
<svgmaker:init width="215.9mm" height="279.4mm" viewBox="0 0 4897 6337" view="fit"
  crop="none" cropWidth="180.3mm" cropHeight="90.4mm" cropBox="404 2144 4090 2050"/>
<title>Untitled</title>
<desc>
  Generated by SVGmaker V3 Version 3.61.E702.64
  MAY-16-2016, 08:18
</desc>
<defs><clipPath id="page_clip"><rect x="0" y="0" width="4897" height="6337"/></clipPath></defs>
<g id="Page_1" clip-path="url(#page_clip)" svgmaker:mediaBox="0 0 4897 6337">
<rect x="406" y="2146" width="4086" height="2047" fill="#FFFFFF" stroke="none"/>
<path fill="#4572A7" stroke="none" d="M 2449,3321 l 345,601 30,-18 30,-20 27,-21 27,-23 25,-23 24,-24 22,-26 21,-26 20,-28 18,-28 17,-29 16,-29 13,-31 13,-30 11,-32 9,-32 8,-32 7,-33 8,-66 1,-33 0,-34 -1,-33 -4,-34 -5,-33 -6,-34 -9,-33 -10,-33 -11,-32 -14,-33 -15,-32 -17,-31 -24,-39 -27,-38 -29,-35 -31,-33 -33,-31 -34,-28 -37,-26 -38,-24 -40,-21 -41,-19 -42,-16 -43,-13 -44,-10 -45,-8 -46,-4 -46,-2 0,692 z"/>
<path fill="#AA4643" stroke="none" d="M 2449,3321 l -324,613 40,19 41,17 41,14 42,12 43,8 43,6 43,3 43,1 43,-2 43,-5 43,-8 42,-10 42,-13 41,-15 40,-18 39,-21 -345,-601 z"/>
<path fill="#89A54E" stroke="none" d="M 2449,3321 l -519,460 21,23 22,22 23,20 24,20 25,19 26,17 27,17 27,15 324,-613 z"/>
<path fill="#71588F" stroke="none" d="M 2449,3321 l -638,271 11,26 13,25 13,24 15,24 31,47 36,43 519,-460 z"/>
<path fill="#4198AF" stroke="none" d="M 2449,3321 l -691,55 3,28 4,27 5,28 6,27 7,27 8,27 20,52 638,-271 z"/>
<path fill="#DB843D" stroke="none" d="M 2449,3321 l -693,-8 0,32 2,31 691,-55 z"/>
<path fill="#93A9CF" stroke="none" d="M 2449,3321 l -690,-65 -2,29 -1,28 693,8 z"/>
<path fill="#D19392" stroke="none" d="M 2449,3321 l -685,-105 -3,20 -2,20 690,65 z"/>
<path fill="#B9CD96" stroke="none" d="M 2449,3321 l -679,-137 -6,32 685,105 z"/>
<path fill="#A99BBD" stroke="none" d="M 2449,3321 l -672,-170 -7,33 679,137 z"/>
<path fill="#91C3D5" stroke="none" d="M 2449,3321 l 0,-692 -30,1 -29,2 -29,3 -29,4 -28,5 -28,7 -28,8 -27,8 -26,10 -27,11 -25,12 -25,13 -49,29 -46,33 -43,36 -40,40 -36,43 -34,46 -29,49 -13,25 -13,26 -11,27 -10,28 -9,28 -8,28 672,170 z"/>
<path fill="#000000" stroke="none" d="M 1772,3169 l -504,-377 1,0 -28,0 0,-4 29,0 504,377 -2,4 z m -6,33 l -382,-219 1,0 -28,0 0,-4 29,0 382,219 -2,4 z m 12,285 l -223,300 -2,1 -29,0 0,-4 29,0 -2,1 223,-300 4,2 z m 245,380 l -145,209 -2,1 -28,0 0,-4 28,0 -2,1 145,-209 4,2 z m -266,-521 l -172,181 -1,1 -28,0 0,-4 28,0 -1,1 172,-181 2,2 z m 108,346 l -87,269 -2,1 -29,0 0,-4 29,0 -2,1 87,-269 4,2 z m -108,-405 l -301,69 -28,0 0,-4 28,0 301,-69 0,4 z m 1360,-145 l 133,-144 1,-1 29,0 0,4 -29,0 1,-1 -133,144 -2,-2 z m -1356,96 l -358,-49 -28,0 0,-4 28,0 358,49 0,4 z m 700,774 l 490,25 28,0 0,4 -28,0 -490,-25 0,-4 z m -439,-1235 l -207,-59 1,0 -28,0 0,-4 29,0 207,59 -2,4 z"/>
<text font-family="Calibri" font-size="63" fill="#000000"><tspan x="3290,3320,3353,3386,3416,3431,3462,3477,3501" y="2999">google / </tspan><tspan x="3515,3549,3571,3601,3631,3664,3678" y="2999">organic</tspan><tspan x="3442,3475,3507" y="3077">42%</tspan><tspan x="2990,3009,3042,3056,3078,3110,3137,3158,3177,3192,3216" y="4039">(direct) / </tspan><tspan x="3230,3249,3283,3316,3349,3381" y="4039">(none)</tspan><tspan x="3139,3172,3204" y="4117">16%</tspan><tspan x="1526,1556,1590,1623,1653,1667,1699,1713,1738" y="4089">google / </tspan><tspan x="1752,1779,1812" y="4089">cpc</tspan><tspan x="1644,1677" y="4167">6%</tspan><tspan x="1381,1407,1436,1457,1491,1515,1542,1572,1605,1637,1653,1686,1708" y="3960">cytoscape.org</tspan><tspan x="1521,1553" y="4038">5%</tspan><tspan x="1217,1247,1280,1313,1343,1357,1389,1405,1432,1465" y="3786">google.com</tspan><tspan x="1327,1360" y="3864">5%</tspan><tspan x="1052,1082,1115,1148,1173,1189,1216,1244,1265,1299,1323,1350,1380,1413,1445,1461,1494,1516" y="3526">apps.cytoscape.org</tspan><tspan x="1261,1293" y="3604">1%</tspan><tspan x="1031,1064,1094,1109,1142,1175,1190,1215" y="3355">baidu / </tspan><tspan x="1229,1262,1284,1314,1345,1378,1392" y="3355">organic</tspan><tspan x="1186,1219" y="3432">1%</tspan><tspan x="1054,1084,1117,1151,1181,1195,1227,1242,1269,1303,1318,1333" y="3188">google.co.in</tspan><tspan x="1171,1204" y="3265">1%</tspan><tspan x="839,873,903,924,954,983,997,1021,1055,1085,1099,1113,1139,1169,1190,1204,1238,1271,1287,1313" y="2981">datavisualization.ch</tspan><tspan x="1055,1087" y="3059">1%</tspan><tspan x="906,936,969,1002,1032,1047,1078,1094,1121,1154,1170,1203" y="2790">google.co.uk</tspan><tspan x="1030,1063" y="2868">1%</tspan><tspan x="1637,1671,1692,1725,1757" y="2716">other</tspan><tspan x="1653,1686,1718" y="2794">21%</tspan></text>
<text font-family="Calibri" font-size="102" fill="#000000" font-weight="700"><tspan x="1670,1724,1773,1807,1861,1902,1944,1994,2048,2099,2126,2180,2215,2263" y="2253">Cytoscape.org </tspan><tspan x="2286,2341,2391,2422,2472,2509,2543,2593,2617" y="2253">Referral </tspan><tspan x="2640,2688,2743,2798,2832,2875,2926,2966" y="2253">Sources </tspan><tspan x="2988,3020,3072,3098,3149,3201,3252,3278,3330,3381,3432" y="2253">(1,492,596)</tspan><tspan x="1924,1956,2007" y="2376">(1/</tspan><tspan x="2050,2102" y="2376">1/</tspan><tspan x="2145,2197,2248,2300,2351" y="2376">2012 </tspan><tspan x="2373,2408,2463,2498,2552,2607,2655,2710" y="2376">through </tspan><tspan x="2732,2783" y="2376">2/</tspan><tspan x="2827,2878,2930" y="2376">10/</tspan><tspan x="2973,3025,3076,3128,3179" y="2376">1016)</tspan></text>
<path fill="#868686" stroke="none" d="M 4492,2144 l 0,1 2,0 0,3 -4086,0 0,2042 -4,0 0,-2044 1,0 0,-1 1,0 0,-1 4086,0 z"/>
<path fill="#868686" stroke="none" d="M 4494,2148 l 0,2046 -4090,0 0,-4 4086,0 0,-2042 4,0 z"/>
</g>
</svg>
