<?xml version="1.0" encoding="UTF-8" standalone="no"?>
<svg width="2826px" height="1539px" viewBox="0 0 2826 1539" version="1.1" xmlns="http://www.w3.org/2000/svg" xmlns:xlink="http://www.w3.org/1999/xlink">
    <!-- Generator: Sketch 3.7.2 (28276) - http://www.bohemiancoding.com/sketch -->
    <title>Web_Site_Referrals_Total</title>
    <desc>Created with Sketch.</desc>
    <defs></defs>
    <g id="Page-1" stroke="none" stroke-width="1" fill="none" fill-rule="evenodd">
        <g id="Web_Site_Referrals_Total" transform="translate(-2.000000, 0.000000)">
            <g id="Page_1-Clipped">
                <g id="Page_1">
                    <polygon id="Shape" fill="#4572A7" points="1610 692 1955 1293 1985 1275 2015 1255 2042 1234 2069 1211 2094 1188 2118 1164 2140 1138 2161 1112 2181 1084 2199 1056 2216 1027 2232 998 2245 967 2258 937 2269 905 2278 873 2286 841 2293 808 2301 742 2302 709 2302 675 2301 642 2297 608 2292 575 2286 541 2277 508 2267 475 2256 443 2242 410 2227 378 2210 347 2186 308 2159 270 2130 235 2099 202 2066 171 2032 143 1995 117 1957 93 1917 72 1876 53 1834 37 1791 24 1747 14 1702 6 1656 2 1610 0"></polygon>
                    <polygon id="Shape" fill="#AA4643" points="1610 692 1286 1305 1326 1324 1367 1341 1408 1355 1450 1367 1493 1375 1536 1381 1579 1384 1622 1385 1665 1383 1708 1378 1751 1370 1793 1360 1835 1347 1876 1332 1916 1314 1955 1293"></polygon>
                    <polygon id="Shape" fill="#89A54E" points="1610 692 1091 1152 1112 1175 1134 1197 1157 1217 1181 1237 1206 1256 1232 1273 1259 1290 1286 1305"></polygon>
                    <polygon id="Shape" fill="#71588F" points="1610 692 972 963 983 989 996 1014 1009 1038 1024 1062 1055 1109 1091 1152"></polygon>
                    <polygon id="Shape" fill="#4198AF" points="1610 692 919 747 922 775 926 802 931 830 937 857 944 884 952 911 972 963"></polygon>
                    <polygon id="Shape" fill="#DB843D" points="1610 692 917 684 917 716 919 747"></polygon>
                    <polygon id="Shape" fill="#93A9CF" points="1610 692 920 627 918 656 917 684"></polygon>
                    <polygon id="Shape" fill="#D19392" points="1610 692 925 587 922 607 920 627"></polygon>
                    <polygon id="Shape" fill="#B9CD96" points="1610 692 931 555 925 587"></polygon>
                    <polygon id="Shape" fill="#A99BBD" points="1610 692 938 522 931 555"></polygon>
                    <polygon id="Shape" fill="#91C3D5" points="1610 692 1610 0 1580 1 1551 3 1522 6 1493 10 1465 15 1437 22 1409 30 1382 38 1356 48 1329 59 1304 71 1279 84 1230 113 1184 146 1141 182 1101 222 1065 265 1031 311 1002 360 989 385 976 411 965 438 955 466 946 494 938 522"></polygon>
                    <path d="M933,540 L429,163 L430,163 L402,163 L402,159 L431,159 L935,536 L933,540 L933,540 Z M927,573 L545,354 L546,354 L518,354 L518,350 L547,350 L929,569 L927,573 L927,573 Z M939,858 L716,1158 L714,1159 L685,1159 L685,1155 L714,1155 L712,1156 L935,856 L939,858 L939,858 Z M1184,1238 L1039,1447 L1037,1448 L1009,1448 L1009,1444 L1037,1444 L1035,1445 L1180,1236 L1184,1238 L1184,1238 Z M918,717 L746,898 L745,899 L717,899 L717,895 L745,895 L744,896 L916,715 L918,717 L918,717 Z M1026,1063 L939,1332 L937,1333 L908,1333 L908,1329 L937,1329 L935,1330 L1022,1061 L1026,1063 L1026,1063 Z M918,658 L617,727 L589,727 L589,723 L617,723 L918,654 L918,658 L918,658 Z M2278,513 L2411,369 L2412,368 L2441,368 L2441,372 L2412,372 L2413,371 L2280,515 L2278,513 L2278,513 Z M922,609 L564,560 L536,560 L536,556 L564,556 L922,605 L922,609 L922,609 Z M1622,1383 L2112,1408 L2140,1408 L2140,1412 L2112,1412 L1622,1387 L1622,1383 L1622,1383 Z M1183,148 L976,89 L977,89 L949,89 L949,85 L978,85 L1185,144 L1183,148 L1183,148 Z" id="Shape" fill="#000000"></path>
                    <text id="google-/" fill="#000000" font-family="Calibri" font-size="51.6096" font-weight="normal">
                        <tspan x="2451" y="370">google /</tspan>
                    </text>
                    <text id="organic" fill="#000000" font-family="Calibri" font-size="51.6096" font-weight="normal">
                        <tspan x="2676" y="370">organic</tspan>
                    </text>
                    <text id="42%" fill="#000000" font-family="Calibri" font-size="51.6096" font-weight="normal">
                        <tspan x="2603" y="448">42%</tspan>
                    </text>
                    <text id="(direct)-/" fill="#000000" font-family="Calibri" font-size="51.6096" font-weight="normal">
                        <tspan x="2151" y="1410">(direct) /</tspan>
                    </text>
                    <text id="(none)" fill="#000000" font-family="Calibri" font-size="51.6096" font-weight="normal">
                        <tspan x="2391" y="1410">(none)</tspan>
                    </text>
                    <text id="16%" fill="#000000" font-family="Calibri" font-size="51.6096" font-weight="normal">
                        <tspan x="2300" y="1488">16%</tspan>
                    </text>
                    <text id="google-/" fill="#000000" font-family="Calibri" font-size="51.6096" font-weight="normal">
                        <tspan x="687" y="1460">google /</tspan>
                    </text>
                    <text id="cpc" fill="#000000" font-family="Calibri" font-size="51.6096" font-weight="normal">
                        <tspan x="913" y="1460">cpc</tspan>
                    </text>
                    <text id="6%" fill="#000000" font-family="Calibri" font-size="51.6096" font-weight="normal">
                        <tspan x="805" y="1538">6%</tspan>
                    </text>
                    <text id="cytoscape.org" fill="#000000" font-family="Calibri" font-size="51.6096" font-weight="normal">
                        <tspan x="542" y="1331">cytoscape.org</tspan>
                    </text>
                    <text id="5%" fill="#000000" font-family="Calibri" font-size="51.6096" font-weight="normal">
                        <tspan x="682" y="1409">5%</tspan>
                    </text>
                    <text id="google.com" fill="#000000" font-family="Calibri" font-size="51.6096" font-weight="normal">
                        <tspan x="378" y="1157">google.com</tspan>
                    </text>
                    <text id="5%" fill="#000000" font-family="Calibri" font-size="51.6096" font-weight="normal">
                        <tspan x="488" y="1235">5%</tspan>
                    </text>
                    <text id="apps.cytoscape.org" fill="#000000" font-family="Calibri" font-size="51.6096" font-weight="normal">
                        <tspan x="213" y="897">apps.cytoscape.org</tspan>
                    </text>
                    <text id="1%" fill="#000000" font-family="Calibri" font-size="51.6096" font-weight="normal">
                        <tspan x="422" y="975">1%</tspan>
                    </text>
                    <text id="baidu-/" fill="#000000" font-family="Calibri" font-size="51.6096" font-weight="normal">
                        <tspan x="192" y="726">baidu /</tspan>
                    </text>
                    <text id="organic" fill="#000000" font-family="Calibri" font-size="51.6096" font-weight="normal">
                        <tspan x="390" y="726">organic</tspan>
                    </text>
                    <text id="1%" fill="#000000" font-family="Calibri" font-size="51.6096" font-weight="normal">
                        <tspan x="347" y="803">1%</tspan>
                    </text>
                    <text id="google.co.in" fill="#000000" font-family="Calibri" font-size="51.6096" font-weight="normal">
                        <tspan x="215" y="559">google.co.in</tspan>
                    </text>
                    <text id="1%" fill="#000000" font-family="Calibri" font-size="51.6096" font-weight="normal">
                        <tspan x="332" y="636">1%</tspan>
                    </text>
                    <text id="datavisualization.ch" fill="#000000" font-family="Calibri" font-size="51.6096" font-weight="normal">
                        <tspan x="0" y="352">datavisualization.ch</tspan>
                    </text>
                    <text id="1%" fill="#000000" font-family="Calibri" font-size="51.6096" font-weight="normal">
                        <tspan x="216" y="430">1%</tspan>
                    </text>
                    <text id="google.co.uk" fill="#000000" font-family="Calibri" font-size="51.6096" font-weight="normal">
                        <tspan x="67" y="161">google.co.uk</tspan>
                    </text>
                    <text id="1%" fill="#000000" font-family="Calibri" font-size="51.6096" font-weight="normal">
                        <tspan x="191" y="239">1%</tspan>
                    </text>
                    <text id="other" fill="#000000" font-family="Calibri" font-size="51.6096" font-weight="normal">
                        <tspan x="798" y="87">other</tspan>
                    </text>
                    <text id="21%" fill="#000000" font-family="Calibri" font-size="51.6096" font-weight="normal">
                        <tspan x="814" y="165">21%</tspan>
                    </text>
                </g>
            </g>
        </g>
    </g>
</svg>