<?xml version="1.0" encoding="UTF-8" standalone="no"?>
<svg width="2582px" height="2158px" viewBox="0 0 2582 2158" version="1.1" xmlns="http://www.w3.org/2000/svg" xmlns:xlink="http://www.w3.org/1999/xlink">
    <!-- Generator: Sketch 3.8.3 (29802) - http://www.bohemiancoding.com/sketch -->
    <title>Web_Site_Visits_By_Country_Prior_Year</title>
    <desc>Created with Sketch.</desc>
    <defs></defs>
    <g id="Page-1" stroke="none" stroke-width="1" fill="none" fill-rule="evenodd">
        <g id="Web_Site_Visits_By_Country_Prior_Year" transform="translate(-3.000000, -9.000000)">
            <g id="Page_1-Clipped">
                <g id="Page_1">
                    <polygon id="Shape" fill="#4572A7" points="1238 983 2212 956 2210 907 2205 859 2197 811 2188 764 2176 718 2162 673 2146 629 2128 586 2108 544 2086 503 2062 463 2037 425 2010 388 1981 352 1950 318 1918 285 1884 254 1849 224 1812 196 1775 170 1735 145 1695 123 1654 102 1611 83 1567 66 1523 51 1477 39 1431 28 1384 20 1336 14 1287 10 1238 9"></polygon>
                    <polygon id="Shape" fill="#AA4643" points="1238 983 2096 1446 2124 1389 2149 1330 2170 1270 2178 1240 2186 1209 2193 1178 2199 1147 2204 1115 2207 1084 2210 1052 2212 1020 2212 956"></polygon>
                    <polygon id="Shape" fill="#89A54E" points="1238 983 1759 1807 1811 1772 1860 1734 1907 1692 1950 1648 1991 1601 2029 1552 2064 1500 2096 1446"></polygon>
                    <polygon id="Shape" fill="#71588F" points="1238 983 1480 1928 1517 1918 1553 1906 1589 1893 1659 1863 1693 1845 1726 1827 1759 1807"></polygon>
                    <polygon id="Shape" fill="#4198AF" points="1238 983 1184 1957 1221 1958 1259 1958 1296 1956 1333 1953 1370 1949 1407 1943 1444 1936 1480 1928"></polygon>
                    <polygon id="Shape" fill="#DB843D" points="1238 983 940 1912 1000 1929 1061 1942 1122 1951 1184 1957"></polygon>
                    <polygon id="Shape" fill="#93A9CF" points="1238 983 743 1823 790 1849 839 1873 889 1894 940 1912"></polygon>
                    <polygon id="Shape" fill="#D19392" points="1238 983 598 1719 633 1748 668 1774 705 1800 743 1823"></polygon>
                    <polygon id="Shape" fill="#B9CD96" points="1238 983 488 1606 514 1636 541 1664 569 1692 598 1719"></polygon>
                    <polygon id="Shape" fill="#A99BBD" points="1238 983 412 1501 448 1554 488 1606"></polygon>
                    <polygon id="Shape" fill="#91C3D5" points="1238 983 1238 9 1188 10 1138 14 1090 20 1042 29 995 40 948 53 903 68 859 86 816 105 774 127 733 150 693 175 655 203 618 231 583 262 549 294 516 328 486 363 457 400 430 438 404 478 381 519 359 561 340 604 322 648 307 693 294 740 283 787 274 835 268 883 264 933 263 983 265 1051 268 1085 278 1153 292 1219 301 1252 311 1285 322 1317 334 1349 362 1411 378 1441 394 1472 412 1501"></polygon>
                    <path d="M1916,283 L2091,73 L2092,72 L2128,72 L2128,77 L2092,77 L2094,76 L1919,286 L1916,283 L1916,283 Z M670,1776 L491,1980 L489,1981 L453,1981 L453,1976 L489,1976 L488,1977 L667,1773 L670,1776 L670,1776 Z M542,1666 L382,1812 L380,1813 L344,1813 L344,1808 L380,1808 L379,1809 L539,1663 L542,1666 L542,1666 Z M842,1874 L757,2050 L754,2051 L719,2051 L719,2046 L754,2046 L752,2047 L837,1871 L842,1874 L842,1874 Z M385,514 L210,452 L174,452 L174,447 L211,447 L386,509 L385,514 L385,514 Z M2187,1206 L2382,1259 L2381,1259 L2417,1259 L2417,1264 L2381,1264 L2186,1211 L2187,1206 L2187,1206 Z M1627,1878 L1677,2001 L1674,1999 L1710,1999 L1710,2004 L1674,2004 L1672,2002 L1622,1879 L1627,1878 L1627,1878 Z M1063,1942 L1033,2049 L1030,2051 L994,2051 L994,2046 L1030,2046 L1028,2048 L1058,1941 L1063,1942 L1063,1942 Z M1952,1647 L2015,1712 L2013,1711 L2049,1711 L2049,1716 L2013,1716 L2012,1715 L1949,1650 L1952,1647 L1952,1647 Z M450,1557 L383,1591 L345,1591 L345,1586 L381,1586 L380,1586 L447,1552 L450,1557 L450,1557 Z" id="Shape" fill="#000000"></path>
                    <text id="United" fill="#000000" font-family="Calibri" font-size="79" font-weight="normal">
                        <tspan x="2141" y="75">United</tspan>
                    </text>
                    <text id="States" fill="#000000" font-family="Calibri" font-size="79" font-weight="normal">
                        <tspan x="2379" y="75">States</tspan>
                    </text>
                    <text id="25%" fill="#000000" font-family="Calibri" font-size="79" font-weight="normal">
                        <tspan x="2290" y="172">25%</tspan>
                    </text>
                    <text id="India" fill="#000000" font-family="Calibri" font-size="79" font-weight="normal">
                        <tspan x="2431" y="1261">India</tspan>
                    </text>
                    <text id="8%" fill="#000000" font-family="Calibri" font-size="79" font-weight="normal">
                        <tspan x="2462" y="1359">8%</tspan>
                    </text>
                    <text id="China" fill="#000000" font-family="Calibri" font-size="79" font-weight="normal">
                        <tspan x="2062" y="1714">China</tspan>
                    </text>
                    <text id="8%" fill="#000000" font-family="Calibri" font-size="79" font-weight="normal">
                        <tspan x="2105" y="1812">8%</tspan>
                    </text>
                    <text id="United" fill="#000000" font-family="Calibri" font-size="79" font-weight="normal">
                        <tspan x="1723" y="2002">United</tspan>
                    </text>
                    <text id="Kingdom" fill="#000000" font-family="Calibri" font-size="79" font-weight="normal">
                        <tspan x="1961" y="2002">Kingdom</tspan>
                    </text>
                    <text id="5%" fill="#000000" font-family="Calibri" font-size="79" font-weight="normal">
                        <tspan x="1937" y="2100">5%</tspan>
                    </text>
                    <text id="Germany" fill="#000000" font-family="Calibri" font-size="79" font-weight="normal">
                        <tspan x="1081" y="2062">Germany</tspan>
                    </text>
                    <text id="5%" fill="#000000" font-family="Calibri" font-size="79" font-weight="normal">
                        <tspan x="1180" y="2160">5%</tspan>
                    </text>
                    <text id="Japan" fill="#000000" font-family="Calibri" font-size="79" font-weight="normal">
                        <tspan x="798" y="2067">Japan</tspan>
                    </text>
                    <text id="4%" fill="#000000" font-family="Calibri" font-size="79" font-weight="normal">
                        <tspan x="842" y="2165">4%</tspan>
                    </text>
                    <text id="France" fill="#000000" font-family="Calibri" font-size="79" font-weight="normal">
                        <tspan x="489" y="2067">France</tspan>
                    </text>
                    <text id="3%" fill="#000000" font-family="Calibri" font-size="79" font-weight="normal">
                        <tspan x="550" y="2165">3%</tspan>
                    </text>
                    <text id="Canada" fill="#000000" font-family="Calibri" font-size="79" font-weight="normal">
                        <tspan x="201" y="1978">Canada</tspan>
                    </text>
                    <text id="3%" fill="#000000" font-family="Calibri" font-size="79" font-weight="normal">
                        <tspan x="273" y="2076">3%</tspan>
                    </text>
                    <text id="Italy" fill="#000000" font-family="Calibri" font-size="79" font-weight="normal">
                        <tspan x="194" y="1811">Italy</tspan>
                    </text>
                    <text id="3%" fill="#000000" font-family="Calibri" font-size="79" font-weight="normal">
                        <tspan x="215" y="1909">3%</tspan>
                    </text>
                    <text id="Brazil" fill="#000000" font-family="Calibri" font-size="79" font-weight="normal">
                        <tspan x="155" y="1590">Brazil</tspan>
                    </text>
                    <text id="2%" fill="#000000" font-family="Calibri" font-size="79" font-weight="normal">
                        <tspan x="195" y="1688">2%</tspan>
                    </text>
                    <text id="Other" fill="#000000" font-family="Calibri" font-size="79" font-weight="normal">
                        <tspan x="0" y="352">Other</tspan>
                    </text>
                    <text id="34%" fill="#000000" font-family="Calibri" font-size="79" font-weight="normal">
                        <tspan x="25" y="450">34%</tspan>
                    </text>
                </g>
            </g>
        </g>
    </g>
</svg>