<?xml version="1.0" encoding="UTF-8" standalone="no"?>
<svg width="2603px" height="1580px" viewBox="0 0 2603 1580" version="1.1" xmlns="http://www.w3.org/2000/svg" xmlns:xlink="http://www.w3.org/1999/xlink">
    <!-- Generator: Sketch 3.8.3 (29802) - http://www.bohemiancoding.com/sketch -->
    <title>Web_Site_Referrals_Prior_Year</title>
    <desc>Created with Sketch.</desc>
    <defs></defs>
    <g id="Page-1" stroke="none" stroke-width="1" fill="none" fill-rule="evenodd">
        <g id="Web_Site_Referrals_Prior_Year" transform="translate(-1.000000, -17.000000)">
            <g id="Page_1-Clipped">
                <g id="Page_1">
                    <polygon id="Shape" fill="#4572A7" points="1369 749 1801 1290 1828 1267 1854 1243 1878 1218 1901 1192 1923 1165 1943 1137 1961 1108 1978 1079 1993 1049 2007 1018 2019 987 2030 956 2039 924 2046 891 2052 859 2057 826 2060 793 2061 759 2061 726 2059 693 2055 660 2050 627 2043 594 2035 561 2025 529 2013 497 2000 466 1985 435 1969 404 1950 374 1931 345 1909 317 1884 287 1857 258 1829 232 1799 207 1768 184 1736 162 1703 143 1669 125 1634 109 1598 96 1561 84 1524 74 1486 67 1447 61 1408 58 1369 57"></polygon>
                    <polygon id="Shape" fill="#AA4643" points="1369 749 1136 1402 1179 1416 1222 1427 1265 1435 1309 1440 1353 1442 1396 1442 1440 1439 1483 1433 1526 1424 1568 1413 1609 1399 1650 1382 1690 1363 1728 1341 1765 1317 1801 1290"></polygon>
                    <polygon id="Shape" fill="#89A54E" points="1369 749 823 1176 855 1214 889 1249 925 1282 964 1312 1004 1339 1047 1363 1091 1384 1136 1402"></polygon>
                    <polygon id="Shape" fill="#71588F" points="1369 749 727 1010 747 1054 769 1096 795 1137 823 1176"></polygon>
                    <polygon id="Shape" fill="#4198AF" points="1369 749 691 892 698 922 706 952 716 981 727 1010"></polygon>
                    <polygon id="Shape" fill="#DB843D" points="1369 749 677 780 681 836 691 892"></polygon>
                    <polygon id="Shape" fill="#93A9CF" points="1369 749 677 711 676 746 677 780"></polygon>
                    <polygon id="Shape" fill="#D19392" points="1369 749 681 666 679 689 677 711"></polygon>
                    <polygon id="Shape" fill="#B9CD96" points="1369 749 687 627 681 666"></polygon>
                    <polygon id="Shape" fill="#A99BBD" points="1369 749 695 590 691 608 687 627"></polygon>
                    <polygon id="Shape" fill="#91C3D5" points="1369 749 1369 57 1339 58 1309 60 1280 63 1251 67 1222 73 1194 79 1166 87 1139 96 1112 106 1085 118 1060 130 1034 143 1010 157 985 173 939 206 896 243 856 284 819 328 786 375 771 399 757 425 744 451 732 477 721 505 711 532 695 590"></polygon>
                    <path d="M708,953 L485,1259 L483,1260 L455,1260 L455,1256 L483,1256 L481,1257 L704,951 L708,953 L708,953 Z M682,837 L514,1029 L513,1030 L485,1030 L485,1026 L513,1026 L511,1027 L679,835 L682,837 L682,837 Z M771,1097 L671,1355 L669,1356 L640,1356 L640,1352 L669,1352 L667,1353 L767,1095 L771,1097 L771,1097 Z M966,1312 L822,1504 L820,1505 L792,1505 L792,1501 L820,1501 L818,1502 L962,1310 L966,1312 L966,1312 Z M2020,519 L2153,365 L2155,364 L2183,364 L2183,368 L2155,368 L2157,367 L2024,521 L2020,519 L2020,519 Z M678,746 L557,891 L555,892 L526,892 L526,888 L555,888 L553,889 L674,744 L678,746 L678,746 Z M689,609 L603,448 L605,449 L576,449 L576,445 L605,445 L607,446 L693,607 L689,609 L689,609 Z M684,648 L349,608 L321,608 L321,604 L349,604 L684,644 L684,648 L684,648 Z M679,690 L407,721 L378,721 L378,717 L407,717 L679,686 L679,690 L679,690 Z M938,207 L864,138 L865,139 L836,139 L836,135 L865,135 L866,136 L940,205 L938,207 L938,207 Z M1483,1431 L1758,1433 L1787,1433 L1787,1437 L1758,1437 L1483,1435 L1483,1431 L1483,1431 Z" id="Shape" fill="#000000"></path>
                    <text id="google-/" fill="#000000" font-family="Calibri" font-size="63" font-weight="normal">
                        <tspan x="2193" y="367">google /</tspan>
                    </text>
                    <text id="organic" fill="#000000" font-family="Calibri" font-size="63" font-weight="normal">
                        <tspan x="2419" y="367">organic</tspan>
                    </text>
                    <text id="39%" fill="#000000" font-family="Calibri" font-size="63" font-weight="normal">
                        <tspan x="2346" y="444">39%</tspan>
                    </text>
                    <text id="(direct)-/" fill="#000000" font-family="Calibri" font-size="63" font-weight="normal">
                        <tspan x="1797" y="1436">(direct) /</tspan>
                    </text>
                    <text id="(none)" fill="#000000" font-family="Calibri" font-size="63" font-weight="normal">
                        <tspan x="2038" y="1436">(none)</tspan>
                    </text>
                    <text id="16%" fill="#000000" font-family="Calibri" font-size="63" font-weight="normal">
                        <tspan x="1947" y="1513">16%</tspan>
                    </text>
                    <text id="google-/" fill="#000000" font-family="Calibri" font-size="63" font-weight="normal">
                        <tspan x="470" y="1517">google /</tspan>
                    </text>
                    <text id="cpc" fill="#000000" font-family="Calibri" font-size="63" font-weight="normal">
                        <tspan x="696" y="1517">cpc</tspan>
                    </text>
                    <text id="9%" fill="#000000" font-family="Calibri" font-size="63" font-weight="normal">
                        <tspan x="588" y="1595">9%</tspan>
                    </text>
                    <text id="google.com" fill="#000000" font-family="Calibri" font-size="63" font-weight="normal">
                        <tspan x="332" y="1354">google.com</tspan>
                    </text>
                    <text id="4%" fill="#000000" font-family="Calibri" font-size="63" font-weight="normal">
                        <tspan x="443" y="1431">4%</tspan>
                    </text>
                    <text id="cytoscape.org" fill="#000000" font-family="Calibri" font-size="63" font-weight="normal">
                        <tspan x="88" y="1258">cytoscape.org</tspan>
                    </text>
                    <text id="3%" fill="#000000" font-family="Calibri" font-size="63" font-weight="normal">
                        <tspan x="228" y="1336">3%</tspan>
                    </text>
                    <text id="baidu" fill="#000000" font-family="Calibri" font-size="63" font-weight="normal">
                        <tspan x="332" y="1029">baidu</tspan>
                    </text>
                    <text id="3%" fill="#000000" font-family="Calibri" font-size="63" font-weight="normal">
                        <tspan x="365" y="1106">3%</tspan>
                    </text>
                    <text id="apps.cytoscape.org" fill="#000000" font-family="Calibri" font-size="63" font-weight="normal">
                        <tspan x="22" y="890">apps.cytoscape.org</tspan>
                    </text>
                    <text id="2%" fill="#000000" font-family="Calibri" font-size="63" font-weight="normal">
                        <tspan x="231" y="968">2%</tspan>
                    </text>
                    <text id="bing" fill="#000000" font-family="Calibri" font-size="63" font-weight="normal">
                        <tspan x="259" y="719">bing</tspan>
                    </text>
                    <text id="1%" fill="#000000" font-family="Calibri" font-size="63" font-weight="normal">
                        <tspan x="275" y="797">1%</tspan>
                    </text>
                    <text id="google.co.in" fill="#000000" font-family="Calibri" font-size="63" font-weight="normal">
                        <tspan x="0" y="607">google.co.in</tspan>
                    </text>
                    <text id="1%" fill="#000000" font-family="Calibri" font-size="63" font-weight="normal">
                        <tspan x="117" y="684">1%</tspan>
                    </text>
                    <text id="datavizualization.ch" fill="#000000" font-family="Calibri" font-size="63" font-weight="normal">
                        <tspan x="59" y="447">datavizualization.ch</tspan>
                    </text>
                    <text id="1%" fill="#000000" font-family="Calibri" font-size="63" font-weight="normal">
                        <tspan x="274" y="525">1%</tspan>
                    </text>
                    <text id="other" fill="#000000" font-family="Calibri" font-size="63" font-weight="normal">
                        <tspan x="702" y="60">other</tspan>
                    </text>
                    <text id="21%" fill="#000000" font-family="Calibri" font-size="63" font-weight="normal">
                        <tspan x="717" y="137">21%</tspan>
                    </text>
                </g>
            </g>
        </g>
    </g>
</svg>