<?xml version="1.0" standalone="no"?>
<svg xml:space="preserve" width="100%" height="100%" viewBox="0 0 4897 6337" preserveAspectRatio="xMidYMid"
  fill-rule="nonzero" stroke-linecap="round" stroke-linejoin="round"
  xmlns="http://www.w3.org/2000/svg"
  xmlns:xlink="http://www.w3.org/1999/xlink"
  xmlns:svgmaker="http://www.svgmaker.com/svgns">
<svgmaker:init width="215.9mm" height="279.4mm" viewBox="0 0 4897 6337" view="fit"
  crop="none" cropWidth="180.3mm" cropHeight="126.0mm" cropBox="405 1740 4089 2858"/>
<title>Untitled</title>
<desc>
  Generated by SVGmaker V3 Version 3.61.E702.64
  MAY-16-2016, 08:17
</desc>
<defs><clipPath id="page_clip"><rect x="0" y="0" width="4897" height="6337"/></clipPath></defs>
<g id="Page_1" clip-path="url(#page_clip)" svgmaker:mediaBox="0 0 4897 6337">
<rect x="407" y="1743" width="4084" height="2852" fill="#FFFFFF" stroke="none"/>
<path fill="#4572A7" stroke="none" d="M 2449,3380 l 974,-27 -2,-49 -5,-48 -8,-48 -9,-47 -12,-46 -14,-45 -16,-44 -18,-43 -20,-42 -22,-41 -24,-40 -25,-38 -27,-37 -29,-36 -31,-34 -32,-33 -34,-31 -35,-30 -37,-28 -37,-26 -40,-25 -40,-22 -41,-21 -43,-19 -44,-17 -44,-15 -46,-12 -46,-11 -47,-8 -48,-6 -49,-4 -49,-1 0,974 z"/>
<path fill="#AA4643" stroke="none" d="M 2449,3380 l 858,463 28,-57 25,-59 21,-60 8,-30 8,-31 7,-31 6,-31 5,-32 3,-31 3,-32 2,-32 0,-64 -974,27 z"/>
<path fill="#89A54E" stroke="none" d="M 2449,3380 l 521,824 52,-35 49,-38 47,-42 43,-44 41,-47 38,-49 35,-52 32,-54 -858,-463 z"/>
<path fill="#71588F" stroke="none" d="M 2449,3380 l 242,945 37,-10 36,-12 36,-13 70,-30 34,-18 33,-18 33,-20 -521,-824 z"/>
<path fill="#4198AF" stroke="none" d="M 2449,3380 l -54,974 37,1 38,0 37,-2 37,-3 37,-4 37,-6 37,-7 36,-8 -242,-945 z"/>
<path fill="#DB843D" stroke="none" d="M 2449,3380 l -298,929 60,17 61,13 61,9 62,6 54,-974 z"/>
<path fill="#93A9CF" stroke="none" d="M 2449,3380 l -495,840 47,26 49,24 50,21 51,18 298,-929 z"/>
<path fill="#D19392" stroke="none" d="M 2449,3380 l -640,736 35,29 35,26 37,26 38,23 495,-840 z"/>
<path fill="#B9CD96" stroke="none" d="M 2449,3380 l -750,623 26,30 27,28 28,28 29,27 640,-736 z"/>
<path fill="#A99BBD" stroke="none" d="M 2449,3380 l -826,518 36,53 40,52 750,-623 z"/>
<path fill="#91C3D5" stroke="none" d="M 2449,3380 l 0,-974 -50,1 -50,4 -48,6 -48,9 -47,11 -47,13 -45,15 -44,18 -43,19 -42,22 -41,23 -40,25 -38,28 -37,28 -35,31 -34,32 -33,34 -30,35 -29,37 -27,38 -26,40 -23,41 -22,42 -19,43 -18,44 -15,45 -13,47 -11,47 -9,48 -6,48 -4,50 -1,50 2,68 3,34 10,68 14,66 9,33 10,33 11,32 12,32 28,62 16,30 16,31 18,29 826,-518 z"/>
<path fill="#000000" stroke="none" d="M 3127,2680 l 175,-210 1,-1 36,0 0,5 -36,0 2,-1 -175,210 -3,-3 z m -1246,1493 l -179,204 -2,1 -36,0 0,-5 36,0 -1,1 179,-204 3,3 z m -128,-110 l -160,146 -2,1 -36,0 0,-5 36,0 -1,1 160,-146 3,3 z m 300,208 l -85,176 -3,1 -35,0 0,-5 35,0 -2,1 85,-176 5,3 z m -457,-1360 l -175,-62 -36,0 0,-5 37,0 175,62 -1,5 z m 1802,692 l 195,53 -1,0 36,0 0,5 -36,0 -195,-53 1,-5 z m -560,672 l 50,123 -3,-2 36,0 0,5 -36,0 -2,-2 -50,-123 5,-1 z m -564,64 l -30,107 -3,2 -36,0 0,-5 36,0 -2,2 30,-107 5,1 z m 889,-295 l 63,65 -2,-1 36,0 0,5 -36,0 -1,-1 -63,-65 3,-3 z m -1502,-90 l -67,34 -38,0 0,-5 36,0 -1,0 67,-34 3,5 z"/>
<text font-family="Calibri" font-size="79" fill="#000000"><tspan x="3352,3403,3445,3463,3490,3530,3572" y="2472">United </tspan><tspan x="3590,3627,3654,3692,3719,3759" y="2472">States</tspan><tspan x="3501,3542,3583" y="2569">25%</tspan><tspan x="3642,3662,3704,3746,3764" y="3658">India</tspan><tspan x="3673,3714" y="3756">8%</tspan><tspan x="3273,3316,3358,3376,3418" y="4111">China</tspan><tspan x="3316,3357" y="4209">8%</tspan><tspan x="2934,2985,3027,3045,3072,3112,3154" y="4399">United </tspan><tspan x="3172,3214,3232,3273,3311,3353,3395" y="4399">Kingdom</tspan><tspan x="3148,3189" y="4497">5%</tspan><tspan x="2292,2342,2381,2409,2473,2511,2553" y="4459">Germany</tspan><tspan x="2391,2432" y="4557">5%</tspan><tspan x="2009,2035,2072,2114,2152" y="4464">Japan</tspan><tspan x="2053,2093" y="4562">4%</tspan><tspan x="1700,1737,1765,1803,1845,1879" y="4464">France</tspan><tspan x="1761,1802" y="4562">3%</tspan><tspan x="1412,1455,1493,1534,1572,1614" y="4375">Canada</tspan><tspan x="1484,1525" y="4473">3%</tspan><tspan x="1405,1425,1452,1490,1508" y="4208">Italy</tspan><tspan x="1426,1467" y="4306">3%</tspan><tspan x="1366,1410,1438,1476,1508,1526" y="3987">Brazil</tspan><tspan x="1406,1447" y="4085">2%</tspan><tspan x="1211,1264,1291,1332,1372" y="2749">Other</tspan><tspan x="1236,1277,1317" y="2847">34%</tspan></text>
<text font-family="Calibri" font-size="143" fill="#000000" font-weight="700"><tspan x="1464,1540,1609,1658,1735,1792,1851,1922,1998,2071,2109,2186,2235,2303" y="1940">Cytoscape.org </tspan><tspan x="2338,2406,2478,2535,2592,2627,2704,2781,2838" y="1940">Sessions </tspan><tspan x="2872,2917,2989,3062,3135,3172,3245,3318,3391" y="1940">(481,807)</tspan><tspan x="1537,1582,1655" y="2116">(1/</tspan><tspan x="1717,1790" y="2116">1/</tspan><tspan x="1852,1925,1997,2070,2143" y="2116">2015 </tspan><tspan x="2175,2225,2302,2351,2428,2504,2572,2649" y="2116">through </tspan><tspan x="2684,2757" y="2116">2/</tspan><tspan x="2819,2892,2964" y="2116">10/</tspan><tspan x="3026,3099,3172,3245,3318" y="2116">2016)</tspan></text>
<path fill="#868686" stroke="none" d="M 4492,1740 l 0,1 2,0 0,5 -4083,0 0,2846 -6,0 0,-2849 1,0 0,-2 2,0 0,-1 4084,0 z"/>
<path fill="#868686" stroke="none" d="M 4494,1746 l 0,2852 -4088,0 0,-2 -1,0 0,-4 4084,0 0,-2846 5,0 z"/>
</g>
</svg>
