<?xml version="1.0" standalone="no"?>
<svg xml:space="preserve" width="100%" height="100%" viewBox="0 0 4897 6337" preserveAspectRatio="xMidYMid"
  fill-rule="nonzero" stroke-linecap="round" stroke-linejoin="round"
  xmlns="http://www.w3.org/2000/svg"
  xmlns:xlink="http://www.w3.org/1999/xlink"
  xmlns:svgmaker="http://www.svgmaker.com/svgns">
<svgmaker:init width="215.9mm" height="279.4mm" viewBox="0 0 4897 6337" view="fit"
  crop="none" cropWidth="180.3mm" cropHeight="90.4mm" cropBox="404 2144 4090 2050"/>
<title>Untitled</title>
<desc>
  Generated by SVGmaker V3 Version 3.61.E702.64
  MAY-16-2016, 08:18
</desc>
<defs><clipPath id="page_clip"><rect x="0" y="0" width="4897" height="6337"/></clipPath></defs>
<g id="Page_1" clip-path="url(#page_clip)" svgmaker:mediaBox="0 0 4897 6337">
<rect x="406" y="2146" width="4086" height="2047" fill="#FFFFFF" stroke="none"/>
<path fill="#4572A7" stroke="none" d="M 2449,3321 l 432,541 27,-23 26,-24 24,-25 23,-26 22,-27 20,-28 18,-29 17,-29 15,-30 14,-31 12,-31 11,-31 9,-32 7,-33 6,-32 5,-33 3,-33 1,-34 0,-33 -2,-33 -4,-33 -5,-33 -7,-33 -8,-33 -10,-32 -12,-32 -13,-31 -15,-31 -16,-31 -19,-30 -19,-29 -22,-28 -25,-30 -27,-29 -28,-26 -30,-25 -31,-23 -32,-22 -33,-19 -34,-18 -35,-16 -36,-13 -37,-12 -37,-10 -38,-7 -39,-6 -39,-3 -39,-1 0,692 z"/>
<path fill="#AA4643" stroke="none" d="M 2449,3321 l -233,653 43,14 43,11 43,8 44,5 44,2 43,0 44,-3 43,-6 43,-9 42,-11 41,-14 41,-17 40,-19 38,-22 37,-24 36,-27 -432,-541 z"/>
<path fill="#89A54E" stroke="none" d="M 2449,3321 l -546,427 32,38 34,35 36,33 39,30 40,27 43,24 44,21 45,18 233,-653 z"/>
<path fill="#71588F" stroke="none" d="M 2449,3321 l -642,261 20,44 22,42 26,41 28,39 546,-427 z"/>
<path fill="#4198AF" stroke="none" d="M 2449,3321 l -678,143 7,30 8,30 10,29 11,29 642,-261 z"/>
<path fill="#DB843D" stroke="none" d="M 2449,3321 l -692,31 4,56 10,56 678,-143 z"/>
<path fill="#93A9CF" stroke="none" d="M 2449,3321 l -692,-38 -1,35 1,34 692,-31 z"/>
<path fill="#D19392" stroke="none" d="M 2449,3321 l -688,-83 -2,23 -2,22 692,38 z"/>
<path fill="#B9CD96" stroke="none" d="M 2449,3321 l -682,-122 -6,39 688,83 z"/>
<path fill="#A99BBD" stroke="none" d="M 2449,3321 l -674,-159 -4,18 -4,19 682,122 z"/>
<path fill="#91C3D5" stroke="none" d="M 2449,3321 l 0,-692 -30,1 -30,2 -29,3 -29,4 -29,6 -28,6 -28,8 -27,9 -27,10 -27,12 -25,12 -26,13 -24,14 -25,16 -46,33 -43,37 -40,41 -37,44 -33,47 -15,24 -14,26 -13,26 -12,26 -11,28 -10,27 -16,58 674,159 z"/>
<path fill="#000000" stroke="none" d="M 1788,3525 l -223,306 -2,1 -28,0 0,-4 28,0 -2,1 223,-306 4,2 z m -26,-116 l -168,192 -1,1 -28,0 0,-4 28,0 -2,1 168,-192 3,2 z m 89,260 l -100,258 -2,1 -29,0 0,-4 29,0 -2,1 100,-258 4,2 z m 195,215 l -144,192 -2,1 -28,0 0,-4 28,0 -2,1 144,-192 4,2 z m 1054,-793 l 133,-154 2,-1 28,0 0,4 -28,0 2,-1 -133,154 -4,-2 z m -1342,227 l -121,145 -2,1 -29,0 0,-4 29,0 -2,1 121,-145 4,2 z m 11,-137 l -86,-161 2,1 -29,0 0,-4 29,0 2,1 86,161 -4,2 z m -5,39 l -335,-40 -28,0 0,-4 28,0 335,40 0,4 z m -5,42 l -272,31 -29,0 0,-4 29,0 272,-31 0,4 z m 259,-483 l -74,-69 1,1 -29,0 0,-4 29,0 1,1 74,69 -2,2 z m 545,1224 l 275,2 29,0 0,4 -29,0 -275,-2 0,-4 z"/>
<text font-family="Calibri" font-size="63" fill="#000000"><tspan x="3273,3303,3337,3370,3400,3414,3446,3460,3485" y="2939">google / </tspan><tspan x="3499,3532,3554,3584,3614,3648,3662" y="2939">organic</tspan><tspan x="3426,3458,3491" y="3016">39%</tspan><tspan x="2877,2896,2930,2944,2966,2998,3024,3046,3065,3079,3104" y="4008">(direct) / </tspan><tspan x="3118,3137,3170,3203,3237,3268" y="4008">(none)</tspan><tspan x="3027,3059,3092" y="4085">16%</tspan><tspan x="1550,1581,1614,1647,1677,1691,1723,1737,1762" y="4089">google / </tspan><tspan x="1776,1803,1836" y="4089">cpc</tspan><tspan x="1668,1701" y="4167">9%</tspan><tspan x="1412,1443,1476,1509,1539,1553,1585,1601,1628,1661" y="3926">google.com</tspan><tspan x="1523,1556" y="4003">4%</tspan><tspan x="1168,1195,1224,1245,1278,1303,1330,1360,1393,1425,1440,1474,1496" y="3830">cytoscape.org</tspan><tspan x="1308,1341" y="3908">3%</tspan><tspan x="1412,1445,1475,1489,1523" y="3601">baidu</tspan><tspan x="1445,1477" y="3678">3%</tspan><tspan x="1102,1132,1166,1199,1223,1239,1266,1295,1316,1349,1374,1401,1431,1464,1496,1512,1545,1567" y="3462">apps.cytoscape.org</tspan><tspan x="1311,1344" y="3540">2%</tspan><tspan x="1339,1372,1386,1419" y="3291">bing</tspan><tspan x="1355,1388" y="3369">1%</tspan><tspan x="1080,1110,1143,1177,1207,1221,1253,1269,1295,1329,1345,1359" y="3179">google.co.in</tspan><tspan x="1197,1230" y="3256">1%</tspan><tspan x="1139,1172,1202,1223,1253,1282,1296,1321,1355,1385,1399,1413,1438,1469,1490,1504,1537,1571,1586,1613" y="3019">datavizualization.ch</tspan><tspan x="1354,1386" y="3097">1%</tspan><tspan x="1782,1815,1836,1869,1901" y="2632">other</tspan><tspan x="1797,1830,1862" y="2709">21%</tspan></text>
<text font-family="Calibri" font-size="102" fill="#000000" font-weight="700"><tspan x="1670,1724,1773,1807,1861,1902,1944,1994,2048,2099,2126,2180,2215,2263" y="2253">Cytoscape.org </tspan><tspan x="2286,2341,2391,2422,2472,2509,2543,2593,2617" y="2253">Referral </tspan><tspan x="2640,2688,2743,2798,2832,2875,2926,2966" y="2253">Sources </tspan><tspan x="2988,3020,3072,3123,3174,3201,3252,3303,3355" y="2253">(481,807)</tspan><tspan x="1885,1917,1968" y="2376">(1/</tspan><tspan x="2012,2063" y="2376">1/</tspan><tspan x="2107,2158,2210,2261,2312" y="2376">2015 </tspan><tspan x="2335,2369,2424,2459,2514,2568,2616,2671" y="2376">through </tspan><tspan x="2693,2745" y="2376">2/</tspan><tspan x="2788,2840,2891" y="2376">10/</tspan><tspan x="2935,2986,3037,3089,3140" y="2376">1016)</tspan></text>
<path fill="#868686" stroke="none" d="M 4492,2144 l 0,1 2,0 0,3 -4086,0 0,2042 -4,0 0,-2044 1,0 0,-1 1,0 0,-1 4086,0 z"/>
<path fill="#868686" stroke="none" d="M 4494,2148 l 0,2046 -4090,0 0,-4 4086,0 0,-2042 4,0 z"/>
</g>
</svg>
