<?xml version="1.0" standalone="no"?>
<svg xml:space="preserve" width="100%" height="100%" viewBox="0 0 2448 3168" preserveAspectRatio="xMidYMid"
  fill-rule="nonzero" stroke-linecap="round" stroke-linejoin="round"
  xmlns="http://www.w3.org/2000/svg"
  xmlns:xlink="http://www.w3.org/1999/xlink"
  xmlns:svgmaker="http://www.svgmaker.com/svgns">
<svgmaker:init width="215.9mm" height="279.4mm" viewBox="0 0 2448 3168" view="fit"
  crop="none" cropWidth="180.4mm" cropHeight="129.6mm" cropBox="202 849 2045 1470"/>
<title>Untitled</title>
<desc>
  Generated by SVGmaker V3 Version 3.61.E702.64
  MAY-16-2016, 08:16
</desc>
<defs><clipPath id="page_clip"><rect x="0" y="0" width="2448" height="3168"/></clipPath></defs>
<g id="Page_1" clip-path="url(#page_clip)" svgmaker:mediaBox="0 0 2448 3168">
<rect x="203" y="850" width="2042" height="1467" fill="#FFFFFF" stroke="none"/>
<path fill="#4572A7" stroke="none" d="M 1224,1692 l 496,82 4,-26 2,-25 1,-25 -1,-26 -1,-25 -3,-24 -4,-25 -5,-24 -6,-23 -16,-46 -10,-22 -11,-22 -11,-21 -26,-41 -30,-38 -34,-35 -36,-31 -40,-28 -21,-13 -22,-11 -23,-11 -46,-18 -25,-7 -25,-6 -25,-5 -20,-3 -21,-2 -41,-2 0,503 z"/>
<path fill="#AA4643" stroke="none" d="M 1224,1692 l 403,300 17,-24 16,-26 14,-26 13,-27 11,-28 9,-29 7,-29 6,-29 -496,-82 z"/>
<path fill="#89A54E" stroke="none" d="M 1224,1692 l 243,440 46,-28 21,-16 21,-17 19,-18 19,-20 17,-20 17,-21 -403,-300 z"/>
<path fill="#71588F" stroke="none" d="M 1224,1692 l 79,496 43,-9 42,-12 40,-16 39,-19 -243,-440 z"/>
<path fill="#4198AF" stroke="none" d="M 1224,1692 l -84,495 41,5 41,2 40,-1 41,-5 -79,-496 z"/>
<path fill="#DB843D" stroke="none" d="M 1224,1692 l -221,451 33,15 34,12 35,10 35,7 84,-495 z"/>
<path fill="#93A9CF" stroke="none" d="M 1224,1692 l -320,387 23,18 25,17 25,15 26,14 221,-451 z"/>
<path fill="#D19392" stroke="none" d="M 1224,1692 l -391,315 16,20 36,36 19,16 320,-387 z"/>
<path fill="#B9CD96" stroke="none" d="M 1224,1692 l -442,238 11,20 12,20 14,19 14,18 391,-315 z"/>
<path fill="#A99BBD" stroke="none" d="M 1224,1692 l -469,181 13,29 14,28 442,-238 z"/>
<path fill="#91C3D5" stroke="none" d="M 1224,1692 l 0,-503 -26,1 -25,2 -25,3 -25,4 -24,6 -24,7 -24,8 -22,9 -23,10 -21,11 -21,12 -21,13 -39,29 -35,32 -33,36 -29,39 -13,20 -12,21 -11,22 -10,22 -9,23 -8,23 -7,24 -6,25 -4,24 -3,26 -2,25 -1,26 2,46 3,23 4,23 5,23 5,22 15,44 469,-181 z"/>
<path fill="#000000" stroke="none" d="M 868,2047 l -93,101 -20,0 0,-3 18,0 -1,0 93,-101 3,3 z m 738,-682 l 90,-98 19,0 0,3 -18,0 2,0 -90,98 -3,-3 z m -653,750 l -45,98 -2,1 -19,0 0,-3 19,0 -1,1 45,-98 3,1 z m -147,-144 l -84,55 -19,0 0,-3 18,0 84,-55 1,3 z m 881,-84 l 97,41 -1,0 18,0 0,3 -18,0 -97,-41 1,-3 z m -878,-478 l -87,-41 -18,0 0,-3 19,0 87,41 -1,3 z m 263,762 l -43,71 -2,1 -18,0 0,-3 18,0 -1,1 43,-71 3,1 z m 317,-4 l 23,63 -2,-1 19,0 0,3 -19,0 -1,-1 -23,-63 3,-1 z m 167,-97 l 30,39 -2,-1 19,0 0,3 -19,0 -1,-1 -30,-39 3,-1 z"/>
<text font-family="Calibri" font-size="41" fill="#000000"><tspan x="1723,1749,1771,1780,1793,1813,1835" y="1270">United </tspan><tspan x="1844,1862,1875,1895,1908,1928" y="1270">States</tspan><tspan x="1799,1819,1840" y="1320">28%</tspan><tspan x="1809,1819,1840,1862,1871" y="1930">India</tspan><tspan x="1825,1846" y="1980">7%</tspan><tspan x="1611,1632,1653,1663,1684" y="2110">China</tspan><tspan x="1632,1652" y="2160">7%</tspan><tspan x="1436,1463,1484,1493,1507,1527,1548" y="2232">United </tspan><tspan x="1558,1579,1588,1610,1629,1650,1672" y="2232">Kingdom</tspan><tspan x="1545,1566" y="2282">5%</tspan><tspan x="1065,1090,1111,1125,1157,1177,1198" y="2249">Germany</tspan><tspan x="1116,1136" y="2299">5%</tspan><tspan x="909,922,942,963,983" y="2252">Japan</tspan><tspan x="932,952" y="2302">5%</tspan><tspan x="772,790,804,823,845,862" y="2214">France</tspan><tspan x="802,822" y="2264">4%</tspan><tspan x="627,648,668,689,708,730" y="2148">Canada</tspan><tspan x="664,684" y="2198">3%</tspan><tspan x="628,638,651,671,680" y="2025">Italy</tspan><tspan x="638,658" y="2075">3%</tspan><tspan x="653,672,693,713,722" y="1899">Spain</tspan><tspan x="674,694" y="1949">2%</tspan><tspan x="616,642,656,677,697" y="1318">Other</tspan><tspan x="629,649,670" y="1368">31%</tspan></text>
<text font-family="Calibri" font-size="74" fill="#000000" font-weight="700"><tspan x="693,732,766,791,830,860,890,927,967,1004,1023,1063,1088,1123" y="952">Cytoscape.org </tspan><tspan x="1138,1173,1209,1239,1268,1287,1327,1366,1396" y="952">Sessions </tspan><tspan x="1411,1434,1471,1491,1528,1566,1604,1623,1661,1698,1735" y="952">(1,492,628)</tspan><tspan x="758,780,818" y="1041">(1/</tspan><tspan x="850,887" y="1041">1/</tspan><tspan x="919,957,994,1032,1070" y="1041">2012 </tspan><tspan x="1084,1109,1149,1175,1214,1254,1289,1329" y="1041">through </tspan><tspan x="1343,1381" y="1041">2/</tspan><tspan x="1412,1450,1488" y="1041">10/</tspan><tspan x="1519,1557,1595,1632,1670" y="1041">2016)</tspan></text>
<path fill="#868686" stroke="none" d="M 202,851 l 2,-2 2042,0 1,1 0,1469 -2044,0 -1,-1 0,-1467 z m 3,1467 l -1,-2 2042,0 -2,2 0,-1467 2,1 -2042,0 1,-1 0,1467 z"/>
</g>
</svg>
