<?xml version="1.0" standalone="no"?>
<svg xml:space="preserve" width="100%" height="100%" viewBox="0 0 4897 6337" preserveAspectRatio="xMidYMid"
  fill-rule="nonzero" stroke-linecap="round" stroke-linejoin="round"
  xmlns="http://www.w3.org/2000/svg"
  xmlns:xlink="http://www.w3.org/1999/xlink"
  xmlns:svgmaker="http://www.svgmaker.com/svgns">
<svgmaker:init width="215.9mm" height="279.4mm" viewBox="0 0 4897 6337" view="fit"
  crop="none" cropWidth="180.3mm" cropHeight="125.1mm" cropBox="404 1750 4090 2838"/>
<title>Untitled</title>
<desc>
  Generated by SVGmaker V3 Version 3.61.E702.64
  DEC-06-2016, 14:47
</desc>
<defs><clipPath id="page_clip"><rect x="0" y="0" width="4897" height="6337"/></clipPath></defs>
<g id="Page_1" clip-path="url(#page_clip)" svgmaker:mediaBox="0 0 4897 6337">
<rect x="406" y="1752" width="4085" height="2833" fill="#FFFFFF" stroke="none"/>
<path fill="#40699C" stroke="none" d="M 2449,3389 l 917,-267 -12,-38 -13,-37 -15,-36 -16,-36 -17,-34 -19,-34 -20,-33 -21,-32 -23,-31 -23,-30 -25,-28 -26,-28 -27,-27 -28,-26 -29,-24 -29,-23 -31,-23 -32,-21 -32,-19 -33,-19 -34,-17 -70,-30 -36,-13 -37,-11 -37,-10 -37,-9 -38,-7 -39,-6 -39,-4 -39,-2 -40,-1 0,956 z"/>
<path fill="#9E413E" stroke="none" d="M 2449,3389 l 681,670 44,-48 40,-50 36,-52 33,-54 29,-56 25,-57 21,-59 18,-61 7,-30 6,-31 5,-31 4,-31 3,-31 2,-31 1,-32 0,-31 -1,-32 -2,-31 -3,-32 -4,-32 -12,-62 -7,-32 -9,-31 -917,267 z"/>
<path fill="#7F9A48" stroke="none" d="M 2449,3389 l 64,953 44,-4 43,-6 43,-8 42,-9 42,-12 41,-14 40,-15 40,-17 39,-19 37,-20 37,-23 36,-24 35,-25 34,-28 33,-28 31,-31 -681,-670 z"/>
<path fill="#695185" stroke="none" d="M 2449,3389 l -509,809 32,19 34,19 33,16 34,16 35,14 35,12 36,12 36,9 37,9 36,7 38,5 37,4 37,3 38,1 37,0 38,-2 -64,-953 z"/>
<path fill="#3C8DA3" stroke="none" d="M 2449,3389 l -827,479 31,49 33,47 36,45 39,43 41,40 44,38 46,36 48,32 509,-809 z"/>
<path fill="#CC7B38" stroke="none" d="M 2449,3389 l -944,150 8,43 10,43 11,42 14,42 16,41 17,40 20,39 21,39 827,-479 z"/>
<path fill="#4F81BD" stroke="none" d="M 2449,3389 l -936,-195 -8,43 -5,42 -4,44 -2,43 0,43 1,44 4,43 6,43 944,-150 z"/>
<path fill="#C0504D" stroke="none" d="M 2449,3389 l -855,-426 -26,56 -22,57 -18,58 -15,60 936,195 z"/>
<path fill="#9BBB59" stroke="none" d="M 2449,3389 l -719,-629 -39,47 -36,50 -32,52 -29,54 855,426 z"/>
<path fill="#8064A2" stroke="none" d="M 2449,3389 l -548,-783 -46,35 -44,37 -42,40 -39,42 719,629 z"/>
<path fill="#4BACC6" stroke="none" d="M 2449,3389 l -357,-887 -50,22 -48,24 -47,28 -46,30 548,783 z"/>
<path fill="#F79646" stroke="none" d="M 2449,3389 l -175,-939 -46,10 -46,12 -45,14 -45,16 357,887 z"/>
<path fill="#AABAD7" stroke="none" d="M 2449,3389 l 0,-956 -44,1 -44,3 -43,6 -44,7 175,939 z"/>
<path fill="#000000" stroke="none" d="M 1812,2681 l -577,124 -38,0 0,-6 37,0 -1,0 577,-124 2,6 z m 182,-129 l -663,-95 -37,0 0,-6 37,0 663,95 0,6 z m -446,526 l -292,199 -2,1 -38,0 0,-6 38,0 -2,1 292,-199 4,4 z m 108,-218 l -403,121 -39,0 0,-6 38,0 -1,0 403,-121 2,6 z m 525,-386 l -319,-108 1,0 -38,0 0,-6 39,0 319,108 -2,6 z m 669,1781 l 187,173 -2,-1 37,0 0,6 -37,0 -2,-1 -187,-173 4,-4 z m 171,-1633 l 263,-106 39,0 0,6 -38,0 1,0 -263,106 -2,-6 z m -1524,745 l -95,199 -3,2 -38,0 0,-6 38,0 -3,2 95,-199 6,2 z m 54,342 l -23,224 -1,2 -2,1 -38,0 0,-6 38,0 -3,3 23,-224 6,0 z m 213,344 l -42,154 -3,2 -37,0 0,-6 37,0 -3,2 42,-154 6,2 z m 1612,-434 l 146,40 -1,0 38,0 0,6 -39,0 -146,-40 2,-6 z m -1018,-1182 l -21,-126 3,3 -38,0 0,-6 38,0 2,1
 1,1 21,126 -6,1 z m -140,1878 l -8,115 -1,2 -2,1 -38,0 0,-6 38,0 -3,3 8,-115 6,0 z"/>
<text font-family="Calibri" font-size="84" fill="#000000"><tspan x="3290,3344,3364,3416,3487" y="2419">NIGMS</tspan><tspan x="3335,3378,3421" y="2520">20%</tspan><tspan x="3571,3625,3670" y="3663">NCI</tspan><tspan x="3559,3601,3644" y="3765">17%</tspan><tspan x="3085,3139,3191,3226,3272,3293" y="4433">NHLBI </tspan><tspan x="3116,3159,3201" y="4534">11%</tspan><tspan x="1963,2017,2037,2085,2106" y="4450">NIAID</tspan><tspan x="1988,2030,2073" y="4552">10%</tspan><tspan x="1548,1602,1623" y="4207">NIA</tspan><tspan x="1558,1601" y="4309">8%</tspan><tspan x="1256,1310,1331,1382,1432" y="3933">NIDDK</tspan><tspan x="1315,1358" y="4035">6%</tspan><tspan x="816,890,932,950,969,1005,1048,1115,1156" y="3566">Wellcome </tspan><tspan x="1176,1217,1246,1289,1322" y="3566">Trust</tspan><tspan x="1033,1075" y="3668">6%</tspan><tspan x="981,1035,1087,1139,1183" y="3275">NHGRI</tspan><tspan x="1042,1085" y="3377">4%</tspan><tspan x="1005,1059,1080,1151" y="2979">NIMH</tspan><tspan x="1053,1096" y="3081">4%</tspan><tspan x="980,1034,1055,1095,1147" y="2803">NIEHS</tspan><tspan x="1032,1075" y="2905">4%</tspan><tspan x="653,699,718,761,789,831,866,910,953,997,1016,1059,1099,1136" y="2353">Biotechnology </tspan><tspan x="1155,1195,1238,1282" y="2353">and </tspan><tspan x="653,699,718,761,780,824,863,882,917,957,975" y="2455">Biological </tspan><tspan x="995,1034,1069,1088,1129,1173,1208,1250,1282" y="2455">Sciences </tspan><tspan x="680,725,766,799,840,880,909,944,988" y="2556">Research </tspan><tspan x="1006,1051,1095,1138,1182,1217,1236" y="2556">Council</tspan><tspan x="917,960" y="2658">4%</tspan><tspan x="1596,1650,1671,1725,1776" y="2364">NINDS</tspan><tspan x="1654,1697" y="2466">3%</tspan><tspan x="1868,1939,1980,2024,2043,2078,2117,2136" y="2211">Medical </tspan><tspan x="2156,2201,2242,2274,2316,2355,2385,2420,2464" y="2211">Research </tspan><tspan x="2042,2086,2130,2174,2217,2253,2271" y="2313">Council</tspan><tspan x="2115,2158" y="2413">3%</tspan></text>
<text font-family="Calibri" font-size="150" fill="#000000" font-weight="700"><tspan x="837,898,978,1058" y="1940">Top </tspan><tspan x="1093,1169,1245" y="1940">13 </tspan><tspan x="1279,1347,1427,1507,1588,1624,1704,1775" y="1940">Funding </tspan><tspan x="1810,1900,1969,2045,2125,2187,2224,2300,2359" y="1940">Agencies </tspan><tspan x="2394,2440,2520,2573" y="1940">for </tspan><tspan x="2606,2685,2757,2808,2888,2947,3008,3082,3162,3238" y="1940">Cytoscape </tspan><tspan x="3273,3352,3389,3440,3512,3564,3601,3681,3761" y="1940">Citations</tspan><tspan x="1659,1706,1782,1820,1896,1972,2048" y="2123">(1,661 </tspan><tspan x="2082,2157,2227,2303,2382,2434,2493" y="2123">events </tspan><tspan x="2525,2575,2649,2729" y="2123">Jan </tspan><tspan x="2763,2798,2874,2950" y="2123">&apos;15)</tspan></text>
<path fill="#868686" stroke="none" d="M 4492,1750 l 0,1 2,0 0,5 -4084,0 0,2827 -6,0 0,-2830 1,0 0,-2 2,0 0,-1 4085,0 z"/>
<path fill="#868686" stroke="none" d="M 4494,1756 l 0,2832 -4089,0 0,-1 -1,0 0,-4 4085,0 0,-2827 5,0 z"/>
</g>
</svg>
