<?xml version="1.0" standalone="no"?>
<svg xml:space="preserve" width="100%" height="100%" viewBox="0 0 4897 6337" preserveAspectRatio="xMidYMid"
  fill-rule="nonzero" stroke-linecap="round" stroke-linejoin="round"
  xmlns="http://www.w3.org/2000/svg"
  xmlns:xlink="http://www.w3.org/1999/xlink"
  xmlns:svgmaker="http://www.svgmaker.com/svgns">
<svgmaker:init width="215.9mm" height="279.4mm" viewBox="0 0 4897 6337" view="fit"
  crop="none" cropWidth="180.3mm" cropHeight="124.6mm" cropBox="404 1756 4090 2825"/>
<title>Untitled</title>
<desc>
  Generated by SVGmaker V3 Version 3.61.E702.64
  DEC-06-2016, 14:46
</desc>
<defs><clipPath id="page_clip"><rect x="0" y="0" width="4897" height="6337"/></clipPath></defs>
<g id="Page_1" clip-path="url(#page_clip)" svgmaker:mediaBox="0 0 4897 6337">
<rect x="406" y="1758" width="4085" height="2820" fill="#FFFFFF" stroke="none"/>
<path fill="#40699C" stroke="none" d="M 2449,3387 l 946,93 4,-49 1,-48 -2,-48 -4,-47 -6,-47 -8,-46 -11,-46 -12,-44 -15,-44 -17,-43 -19,-42 -21,-41 -23,-39 -24,-39 -26,-37 -29,-36 -29,-35 -32,-33 -33,-31 -34,-30 -36,-29 -38,-27 -38,-24 -40,-24 -42,-21 -42,-19 -44,-17 -44,-15 -46,-13 -47,-11 -47,-8 -49,-6 -46,-4 -47,-1 0,951 z"/>
<path fill="#9E413E" stroke="none" d="M 2449,3387 l 349,885 31,-13 30,-14 59,-30 55,-34 53,-38 51,-41 47,-45 43,-47 41,-50 37,-53 33,-55 30,-57 26,-60 11,-30 10,-31 10,-32 8,-31 7,-33 6,-32 5,-33 4,-33 -946,-93 z"/>
<path fill="#7F9A48" stroke="none" d="M 2449,3387 l -171,936 66,10 33,3 33,2 66,0 33,-1 33,-3 33,-4 32,-5 33,-6 32,-7 32,-8 31,-10 32,-10 31,-12 -349,-885 z"/>
<path fill="#695185" stroke="none" d="M 2449,3387 l -602,737 48,37 50,33 52,30 53,27 55,23 57,20 57,16 59,13 171,-936 z"/>
<path fill="#3C8DA3" stroke="none" d="M 2449,3387 l -853,422 24,45 26,44 28,42 31,40 32,39 35,37 37,35 38,33 602,-737 z"/>
<path fill="#CC7B38" stroke="none" d="M 2449,3387 l -947,86 5,44 7,43 8,43 11,43 13,41 15,42 16,40 19,40 853,-422 z"/>
<path fill="#4F81BD" stroke="none" d="M 2449,3387 l -928,-207 -7,36 -6,37 -5,36 -3,37 -2,37 0,36 1,37 3,37 947,-86 z"/>
<path fill="#C0504D" stroke="none" d="M 2449,3387 l -833,-459 -16,30 -14,30 -14,31 -12,32 -12,31 -10,33 -9,32 -8,33 928,207 z"/>
<path fill="#9BBB59" stroke="none" d="M 2449,3387 l -692,-652 -40,45 -36,47 -34,50 -31,51 833,459 z"/>
<path fill="#8064A2" stroke="none" d="M 2449,3387 l -529,-790 -43,31 -42,33 -40,36 -38,38 692,652 z"/>
<path fill="#4BACC6" stroke="none" d="M 2449,3387 l -362,-879 -43,19 -42,21 -42,24 -40,25 529,790 z"/>
<path fill="#F79646" stroke="none" d="M 2449,3387 l -184,-933 -45,10 -45,13 -44,14 -44,17 362,879 z"/>
<path fill="#AABAD7" stroke="none" d="M 2449,3387 l 0,-951 -46,1 -46,4 -46,5 -46,8 184,933 z"/>
<path fill="#000000" stroke="none" d="M 1680,2830 l -369,-88 1,0 -37,0 0,-6 38,0 369,88 -2,6 z m 320,-280 l -127,-188 2,1 -37,0 0,-6 37,0 2,1 127,188 -4,4 z m -167,113 l -127,-117 2,1 -37,0 0,-6 37,0 2,1 127,117 -4,4 z m 1377,1295 l 137,110 -2,-1 37,0 0,6 -37,0 -2,-1 -137,-110 4,-4 z m -1652,-904 l -152,-79 1,0 -37,0 0,-6 38,0 152,79 -2,6 z m 495,1198 l -48,165 -3,2 -37,0 0,-6 37,0 -3,2 48,-165 6,2 z m 302,-1814 l 161,-56 38,0 0,6 -37,0 1,0 -161,56 -2,-6 z m 796,309 l 80,-98 2,-1 37,0 0,6 -37,0 2,-1 -80,98 -4,-4 z m -1443,1234 l -46,132 -3,2 -37,0 0,-6 37,0 -3,2 46,-132 6,2 z m 836,351 l 83,90 -2,-1 37,0 0,6 -37,0 -2,-1 -83,-90 4,-4 z m -1011,-683 l -120,-52 1,0 -37,0 0,-6 38,0 120,52 -2,6 z m -34,-320 l -137,-40 1,0 -38,0 0,-6
 39,0 137,40 -2,6 z m 673,-852 l 0,-97 6,0 0,97 -6,0 z"/>
<text font-family="Calibri" font-size="83" fill="#000000"><tspan x="3237,3291,3312,3364,3434" y="2551">NIGMS</tspan><tspan x="3283,3325,3368" y="2652">27%</tspan><tspan x="3395,3449,3493" y="4071">NCI</tspan><tspan x="3383,3425,3468" y="4173">17%</tspan><tspan x="2676,2729,2750,2798,2818" y="4444">NIAID</tspan><tspan x="2722,2765" y="4545">9%</tspan><tspan x="1748,1802,1853,1888,1934" y="4417">NHLBI</tspan><tspan x="1800,1843" y="4519">8%</tspan><tspan x="1392,1446,1466,1517,1568" y="4113">NIDDK</tspan><tspan x="1451,1493" y="4214">7%</tspan><tspan x="1178,1232,1276,1321" y="3595">NCRR</tspan><tspan x="1222,1264" y="3696">6%</tspan><tspan x="1091,1145,1196,1248,1293" y="3287">NHGRI</tspan><tspan x="1152,1194" y="3388">5%</tspan><tspan x="1154,1208,1228,1269,1321" y="2973">NIEHS</tspan><tspan x="1206,1248" y="3074">4%</tspan><tspan x="1067,1121,1142,1212" y="2740">NIMH</tspan><tspan x="1115,1157" y="2842">4%</tspan><tspan x="1129,1202,1244,1262,1281,1316,1360,1426,1467" y="2545">Wellcome </tspan><tspan x="1487,1527,1556,1600,1632" y="2545">Trust</tspan><tspan x="1344,1387" y="2647">4%</tspan><tspan x="1715,1769,1789" y="2260">NIA</tspan><tspan x="1725,1768" y="2361">3%</tspan><tspan x="2064,2117,2138,2192,2243" y="2258">NINDS</tspan><tspan x="2122,2164" y="2359">3%</tspan><tspan x="2539,2593,2628" y="2284">NLM</tspan><tspan x="2568,2610" y="2386">3%</tspan></text>
<text font-family="Calibri" font-size="149" fill="#000000" font-weight="700"><tspan x="965,1026,1106,1185" y="1963">Top </tspan><tspan x="1219,1295,1370" y="1963">13 </tspan><tspan x="1405,1473,1553,1632,1712,1748,1828,1898" y="1963">Funding </tspan><tspan x="1933,2023,2091,2167,2247,2309,2345,2420,2479" y="1963">Agencies </tspan><tspan x="2514,2560,2640,2692" y="1963">for </tspan><tspan x="2725,2804,2875,2926,3006,3065,3126,3199,3279,3354" y="1963">Cytoscape </tspan><tspan x="3390,3468,3504,3555,3627,3679,3715,3795,3875" y="1963">Citations</tspan><tspan x="1670,1717,1792,1831,1906,1982,2057" y="2145">(6,794 </tspan><tspan x="2091,2166,2235,2311,2389,2441,2500" y="2145">events </tspan><tspan x="2532,2591,2627,2707,2769,2844" y="2145">since </tspan><tspan x="2880,2955,3031,3106,3182" y="2145">2004)</tspan></text>
<path fill="#868686" stroke="none" d="M 4492,1756 l 0,1 2,0 0,5 -4084,0 0,2814 -6,0 0,-2817 1,0 0,-2 2,0 0,-1 4085,0 z"/>
<path fill="#868686" stroke="none" d="M 4494,1762 l 0,2819 -4089,0 0,-1 -1,0 0,-4 4085,0 0,-2814 5,0 z"/>
</g>
</svg>
