<?xml version="1.0" standalone="no"?>
<svg xml:space="preserve" width="100%" height="100%" viewBox="0 0 4897 6337" preserveAspectRatio="xMidYMid"
  fill-rule="nonzero" stroke-linecap="round" stroke-linejoin="round"
  xmlns="http://www.w3.org/2000/svg"
  xmlns:xlink="http://www.w3.org/1999/xlink"
  xmlns:svgmaker="http://www.svgmaker.com/svgns">
<svgmaker:init width="215.9mm" height="279.4mm" viewBox="0 0 4897 6337" view="fit"
  crop="none" cropWidth="180.3mm" cropHeight="144.4mm" cropBox="404 1531 4090 3275"/>
<title>Untitled</title>
<desc>
  Generated by SVGmaker V3 Version 3.61.E702.64
  DEC-06-2016, 14:38
</desc>
<defs><clipPath id="page_clip"><rect x="0" y="0" width="4897" height="6337"/></clipPath></defs>
<g id="Page_1" clip-path="url(#page_clip)" svgmaker:mediaBox="0 0 4897 6337">
<rect x="407" y="1535" width="4083" height="3268" fill="#FFFFFF" stroke="none"/>
<path fill="#4572A7" stroke="none" d="M 2449,3411 l 1116,-45 -4,-56 -6,-55 -9,-54 -11,-53 -14,-52 -17,-51 -18,-50 -21,-49 -23,-48 -26,-46 -27,-45 -30,-43 -31,-42 -33,-41 -35,-39 -37,-37 -39,-35 -40,-33 -42,-32 -43,-30 -45,-27 -46,-26 -47,-23 -48,-22 -50,-19 -51,-16 -51,-15 -53,-11 -54,-10 -54,-7 -55,-4 -56,-1 0,1117 z"/>
<path fill="#AA4643" stroke="none" d="M 2449,3411 l 970,553 19,-34 17,-35 17,-36 15,-36 14,-36 12,-37 11,-37 10,-38 9,-38 7,-38 6,-38 4,-39 3,-39 2,-39 1,-39 -1,-39 -1116,45 z"/>
<path fill="#89A54E" stroke="none" d="M 2449,3411 l 633,920 51,-37 48,-40 46,-42 44,-45 41,-48 39,-49 35,-52 33,-54 -970,-553 z"/>
<path fill="#71588F" stroke="none" d="M 2449,3411 l 260,1086 50,-13 49,-15 48,-18 47,-20 46,-22 46,-24 44,-26 43,-28 -633,-920 z"/>
<path fill="#4198AF" stroke="none" d="M 2449,3411 l -109,1112 47,4 46,1 46,0 47,-3 46,-4 46,-6 46,-8 45,-10 -260,-1086 z"/>
<path fill="#DB843D" stroke="none" d="M 2449,3411 l -396,1045 35,13 35,11 35,10 36,9 36,8 37,6 36,6 37,4 109,-1112 z"/>
<path fill="#93A9CF" stroke="none" d="M 2449,3411 l -620,929 53,34 56,30 57,28 58,24 396,-1045 z"/>
<path fill="#D19392" stroke="none" d="M 2449,3411 l -791,789 40,39 42,36 43,33 46,32 620,-929 z"/>
<path fill="#B9CD96" stroke="none" d="M 2449,3411 l -928,622 31,44 33,43 36,41 37,39 791,-789 z"/>
<path fill="#A99BBD" stroke="none" d="M 2449,3411 l -1014,469 19,40 21,38 22,38 24,37 928,-622 z"/>
<path fill="#91C3D5" stroke="none" d="M 2449,3411 l 0,-1117 -57,1 -57,5 -56,7 -55,10 -54,12 -53,15 -52,18 -51,20 -49,22 -49,25 -46,27 -46,29 -44,31 -42,33 -41,35 -38,37 -37,39 -36,40 -33,43 -31,43 -29,46 -27,47 -25,48 -22,49 -20,51 -18,52 -15,53 -12,54 -10,55 -7,56 -5,57 -1,57 2,61 5,60 8,60 12,59 14,59 18,58 21,56 24,56 1014,-469 z"/>
<path fill="#000000" stroke="none" d="M 3220,2603 l 177,-241 2,-1 41,0 0,6 -41,0 2,-1 -177,241 -4,-4 z m -1478,1674 l -183,232 -2,1 -41,0 0,-6 41,0 -2,1 183,-232 4,4 z m 1162,151 l 292,141 -1,0 42,0 0,6 -43,0 -292,-141 2,-6 z m -1316,-306 l -166,145 -2,1 -41,0 0,-6 41,0 -2,1 166,-145 4,4 z m 352,284 l -118,159 -2,1 -41,0 0,-6 41,0 -2,1 118,-159 4,4 z m -434,-1594 l -180,-83 1,0 -41,0 0,-6 42,0 180,83 -2,6 z m 691,1688 l -75,133 -3,2 -41,0 0,-6 41,0 -3,2 75,-133 6,2 z m 1338,-828 l 199,61 -1,0 42,0 0,6 -43,0 -199,-61 2,-6 z m -262,493 l 65,73 -2,-1 42,0 0,6 -42,0 -2,-1 -65,-73 4,-4 z m -1795,-204 l -50,82 -3,1 -41,0 0,-6 41,0 -3,1 50,-82 6,4 z"/>
<text font-family="Calibri" font-size="92" fill="#000000"><tspan x="3456,3514,3562,3582,3613,3659,3707" y="2364">United </tspan><tspan x="3728,3770,3801,3844,3875,3921" y="2364">States</tspan><tspan x="3626,3673,3720" y="2476">24%</tspan><tspan x="3789,3838,3886,3907,3955" y="3736">China</tspan><tspan x="3838,3885" y="3848">9%</tspan><tspan x="3393,3416,3464,3512,3533" y="4240">India</tspan><tspan x="3429,3476" y="4352">7%</tspan><tspan x="3252,3309,3355,3387,3460,3503,3551" y="4573">Germany</tspan><tspan x="3366,3413" y="4685">6%</tspan><tspan x="2213,2271,2319,2340,2371,2416,2464" y="4647">United </tspan><tspan x="2485,2533,2554,2602,2645,2693,2741" y="4647">Kingdom</tspan><tspan x="2457,2504" y="4759">5%</tspan><tspan x="1815,1857,1889,1933,1981,2020" y="4645">France</tspan><tspan x="1885,1931" y="4757">4%</tspan><tspan x="1554,1583,1627,1675,1718" y="4563">Japan</tspan><tspan x="1604,1651" y="4676">4%</tspan><tspan x="1227,1276,1319,1367,1411,1459" y="4507">Canada</tspan><tspan x="1309,1356" y="4619">3%</tspan><tspan x="1206,1229,1260,1304,1324" y="4266">Italy</tspan><tspan x="1231,1277" y="4378">3%</tspan><tspan x="917,959,1007,1055,1086,1134" y="4041">South </tspan><tspan x="1155,1203,1251,1283,1328" y="4041">Korea</tspan><tspan x="1088,1135" y="4153">3%</tspan><tspan x="1086,1147,1178,1226,1271" y="2614">Other</tspan><tspan x="1115,1162,1208" y="2726">32%</tspan></text>
<text font-family="Calibri" font-size="165" fill="#000000" font-weight="700"><tspan x="1592,1691,1779,1867" y="1706">App </tspan><tspan x="1905,1983,2039,2127,2183,2266" y="1706">Store </tspan><tspan x="2304,2401,2441,2506,2547,2604,2669" y="1706">Visits </tspan><tspan x="2708,2759,2843,2926,3010,3053,3136,3220,3303" y="1706">(231.266)</tspan><tspan x="1386,1437,1521" y="1907">(1/</tspan><tspan x="1592,1675" y="1907">1/</tspan><tspan x="1746,1830,1913,1997,2080" y="1907">2015 </tspan><tspan x="2117,2174,2262,2318,2406,2494,2572,2660" y="1907">through </tspan><tspan x="2700,2783,2867" y="1907">10/</tspan><tspan x="2938,3021,3104" y="1907">19/</tspan><tspan x="3175,3259,3342,3426,3509" y="1907">2016)</tspan></text>
<path fill="#868686" stroke="none" d="M 404,1535 l 1,-3 3,-1 4083,0 2,1 1,3 0,3268 -1,2 -2,1 -4083,0 -3,-1 -1,-2 0,-3268 z m 7,3268 l -3,-4 4083,0 -4,4 0,-3268 4,3 -4083,0 3,-3 0,3268 z"/>
</g>
</svg>
