<?xml version="1.0" standalone="no"?>
<svg xml:space="preserve" width="100%" height="100%" viewBox="0 0 4897 6337" preserveAspectRatio="xMidYMid"
  fill-rule="nonzero" stroke-linecap="round" stroke-linejoin="round"
  xmlns="http://www.w3.org/2000/svg"
  xmlns:xlink="http://www.w3.org/1999/xlink"
  xmlns:svgmaker="http://www.svgmaker.com/svgns">
<svgmaker:init width="215.9mm" height="279.4mm" viewBox="0 0 4897 6337" view="fit"
  crop="none" cropWidth="180.3mm" cropHeight="128.3mm" cropBox="404 1713 4090 2911"/>
<title>Untitled</title>
<desc>
  Generated by SVGmaker V3 Version 3.61.E702.64
  DEC-06-2016, 14:39
</desc>
<defs><clipPath id="page_clip"><rect x="0" y="0" width="4897" height="6337"/></clipPath></defs>
<g id="Page_1" clip-path="url(#page_clip)" svgmaker:mediaBox="0 0 4897 6337">
<rect x="407" y="1716" width="4085" height="2906" fill="#FFFFFF" stroke="none"/>
<path fill="#4572A7" stroke="none" d="M 2449,3361 l 960,331 16,-50 13,-50 10,-50 8,-50 6,-51 2,-50 1,-50 -2,-49 -5,-49 -7,-49 -9,-48 -12,-48 -13,-47 -16,-46 -18,-45 -21,-44 -22,-44 -25,-42 -26,-41 -28,-40 -31,-38 -32,-37 -34,-36 -36,-34 -38,-32 -39,-30 -41,-29 -43,-27 -44,-24 -46,-23 -48,-21 -49,-18 -40,-13 -41,-11 -40,-9 -42,-8 -42,-6 -41,-4 -43,-3 -42,-1 0,1016 z"/>
<path fill="#AA4643" stroke="none" d="M 2449,3361 l -155,1003 45,6 46,4 45,2 45,0 44,-2 44,-4 44,-6 43,-8 43,-9 42,-12 42,-13 41,-15 40,-17 39,-18 39,-20 37,-21 37,-24 36,-24 68,-54 32,-30 31,-30 30,-32 29,-34 27,-34 25,-36 24,-37 23,-39 21,-39 19,-41 18,-42 16,-43 -960,-331 z"/>
<path fill="#89A54E" stroke="none" d="M 2449,3361 l -630,796 53,39 55,36 57,31 59,28 61,24 62,21 31,8 32,8 33,6 32,6 155,-1003 z"/>
<path fill="#71588F" stroke="none" d="M 2449,3361 l -688,747 29,25 29,24 630,-796 z"/>
<path fill="#4198AF" stroke="none" d="M 2449,3361 l -729,707 21,20 20,20 688,-747 z"/>
<path fill="#DB843D" stroke="none" d="M 2449,3361 l -757,677 28,30 729,-707 z"/>
<path fill="#93A9CF" stroke="none" d="M 2449,3361 l -781,649 24,28 757,-677 z"/>
<path fill="#D19392" stroke="none" d="M 2449,3361 l -798,628 17,21 781,-649 z"/>
<path fill="#B9CD96" stroke="none" d="M 2449,3361 l -807,616 9,12 798,-628 z"/>
<path fill="#A99BBD" stroke="none" d="M 2449,3361 l -815,605 8,11 807,-616 z"/>
<path fill="#91C3D5" stroke="none" d="M 2449,3361 l 0,-1016 -52,1 -52,4 -51,7 -50,9 -49,11 -48,14 -47,16 -46,18 -45,20 -44,23 -42,24 -42,27 -39,28 -39,30 -37,32 -35,34 -33,35 -32,37 -30,38 -29,40 -26,41 -25,43 -22,44 -20,45 -18,46 -16,47 -14,48 -11,49 -9,50 -7,51 -4,52 -1,52 1,41 2,40 4,41 6,40 7,40 9,39 10,39 12,39 14,38 15,37 16,37 18,36 19,36 21,35 22,34 24,33 815,-605 z"/>
<path fill="#000000" stroke="none" d="M 1636,3973 l -517,-577 1,1 -36,0 0,-5 36,0 2,1 517,577 -3,3 z m 9,11 l -460,-420 1,1 -36,0 0,-5 36,0 2,1 460,420 -3,3 z m 96,107 l -745,242 -37,0 0,-5 36,0 745,-242 1,5 z m 50,44 l -419,340 -2,1 -36,0 0,-5 36,0 -1,1 419,-340 3,3 z m -132,-133 l -534,-129 -36,0 0,-5 37,0 534,129 -1,5 z m 48,53 l -531,105 -37,0 0,-5 36,0 531,-105 1,5 z m -166,-1149 l -221,-205 1,1 -36,0 0,-5 36,0 2,1 221,205 -3,3 z m 1734,-138 l 289,-131 37,0 0,5 -36,0 2,0 -289,131 -3,-5 z m -300,1460 l 228,133 -2,0 35,0 0,5 -36,0 -228,-133 3,-5 z m -1295,-201 l -623,-48 -36,0 0,-5 37,0 623,48 -1,5 z m 365,266 l -103,123 -2,1 -36,0 0,-5 36,0 -1,1 103,-123 3,3 z"/>
<text font-family="Calibri" font-size="79" fill="#000000"><tspan x="3574,3612,3654,3696,3734,3752" y="2542">google</tspan><tspan x="3614,3655,3696" y="2640">30%</tspan><tspan x="3249,3283,3319,3346,3388,3419,3453,3491,3533,3573,3592,3634,3662" y="4364">cytoscape.org</tspan><tspan x="3406,3447,3488" y="4462">22%</tspan><tspan x="1657,1681,1723,1741,1769,1809,1843,1870" y="4415">(direct)</tspan><tspan x="1726,1767" y="4513">8%</tspan><tspan x="598,640,678,705,747,803,841,877,911,953,1017,1081,1122,1164,1195,1215,1257,1285" y="4491">pathwaycommons.org</tspan><tspan x="911,952" y="4589">1%</tspan><tspan x="766,808,846,863,905" y="4330">baidu</tspan><tspan x="808,849" y="4428">1%</tspan><tspan x="641,679,719,761,801,865,902,944,962,1000,1020,1062,1090" y="4157">genemania.org</tspan><tspan x="836,877" y="4255">1%</tspan><tspan x="431,469,509,551,591,633,675,702,744,762,803,841,877,897,939,967" y="3976">geneontology.org</tspan><tspan x="669,710" y="4074">1%</tspan><tspan x="960,1002,1020,1061" y="3773">bing</tspan><tspan x="981,1022" y="3871">1%</tspan><tspan x="539,596,614,650,668,688,721,757,784,826,857,891,929,971,1011,1031,1072,1100" y="3562">wiki.cytoscape.org</tspan><tspan x="789,830" y="3660">0%</tspan><tspan x="542,576,618,636,673,715,742,760,780,822,856,887,929,949,989,1030" y="3395">chianti.ucsd.edu</tspan><tspan x="758,799" y="3493">0%</tspan><tspan x="1117,1158,1185,1227,1267" y="2602">other</tspan><tspan x="1137,1177,1218" y="2700">35%</tspan></text>
<text font-family="Calibri" font-size="128" fill="#000000" font-weight="700"><tspan x="1045,1123,1191,1260" y="1850">App </tspan><tspan x="1288,1349,1392,1461,1505,1569" y="1850">Store </tspan><tspan x="1597,1667,1730,1769,1833,1878,1921,1984,2015" y="1850">Referral </tspan><tspan x="2044,2105,2174,2242,2286,2340,2404,2455" y="1850">Sources </tspan><tspan x="2483,2523,2587,2652,2717,2750,2815,2879,2944,2984" y="1850">(433,950) </tspan><tspan x="1171,1211,1276" y="2006">(6/</tspan><tspan x="1331,1396" y="2006">1/</tspan><tspan x="1451,1515,1580,1645,1710" y="2006">2012 </tspan><tspan x="1738,1782,1850,1894,1963,2032,2093,2162" y="2006">through </tspan><tspan x="2189,2254,2319" y="2006">10/</tspan><tspan x="2374,2439,2504" y="2006">19/</tspan><tspan x="2558,2623,2688,2753,2818" y="2006">2016)</tspan></text>
<path fill="#868686" stroke="none" d="M 4492,1713 l 0,1 2,0 0,5 -4084,0 0,2900 -6,0 0,-2903 1,0 0,-1 1,0 0,-1 1,0 0,-1 4085,0 z"/>
<path fill="#868686" stroke="none" d="M 4494,1719 l 0,2905 -4089,0 0,-1 -1,0 0,-4 4085,0 0,-2900 5,0 z"/>
</g>
</svg>
