<?xml version="1.0" standalone="no"?>
<svg xml:space="preserve" width="100%" height="100%" viewBox="0 0 4897 6337" preserveAspectRatio="xMidYMid"
  fill-rule="nonzero" stroke-linecap="round" stroke-linejoin="round"
  xmlns="http://www.w3.org/2000/svg"
  xmlns:xlink="http://www.w3.org/1999/xlink"
  xmlns:svgmaker="http://www.svgmaker.com/svgns">
<svgmaker:init width="215.9mm" height="279.4mm" viewBox="0 0 4897 6337" view="fit"
  crop="none" cropWidth="180.3mm" cropHeight="144.4mm" cropBox="404 1531 4090 3275"/>
<title>Untitled</title>
<desc>
  Generated by SVGmaker V3 Version 3.61.E702.64
  DEC-06-2016, 14:37
</desc>
<defs><clipPath id="page_clip"><rect x="0" y="0" width="4897" height="6337"/></clipPath></defs>
<g id="Page_1" clip-path="url(#page_clip)" svgmaker:mediaBox="0 0 4897 6337">
<rect x="407" y="1535" width="4083" height="3268" fill="#FFFFFF" stroke="none"/>
<path fill="#4572A7" stroke="none" d="M 2449,3411 l 1117,-2 -2,-57 -4,-57 -7,-56 -10,-55 -13,-54 -15,-53 -17,-51 -20,-51 -23,-49 -24,-49 -27,-46 -29,-45 -32,-44 -33,-42 -35,-41 -37,-38 -39,-37 -40,-35 -42,-34 -44,-31 -45,-29 -47,-26 -48,-25 -50,-22 -50,-20 -52,-18 -53,-15 -54,-12 -55,-10 -56,-7 -57,-5 -57,-1 0,1117 z"/>
<path fill="#AA4643" stroke="none" d="M 2449,3411 l 951,585 20,-33 18,-35 18,-34 16,-35 15,-36 26,-72 11,-37 10,-37 8,-38 7,-38 6,-38 5,-38 3,-39 2,-38 1,-39 -1117,2 z"/>
<path fill="#89A54E" stroke="none" d="M 2449,3411 l 636,918 47,-34 44,-37 43,-38 41,-41 38,-43 37,-45 33,-46 32,-49 -951,-585 z"/>
<path fill="#71588F" stroke="none" d="M 2449,3411 l 252,1088 51,-13 51,-16 50,-18 48,-20 48,-22 47,-25 45,-27 44,-29 -636,-918 z"/>
<path fill="#4198AF" stroke="none" d="M 2449,3411 l -142,1108 50,5 49,3 50,1 49,-1 49,-4 50,-6 48,-8 49,-10 -252,-1088 z"/>
<path fill="#DB843D" stroke="none" d="M 2449,3411 l -512,993 44,22 45,19 45,18 46,15 47,13 47,12 48,9 48,7 142,-1108 z"/>
<path fill="#93A9CF" stroke="none" d="M 2449,3411 l -710,862 47,37 48,34 51,32 52,28 512,-993 z"/>
<path fill="#D19392" stroke="none" d="M 2449,3411 l -875,695 38,45 40,43 42,40 45,39 710,-862 z"/>
<path fill="#B9CD96" stroke="none" d="M 2449,3411 l -993,513 26,47 29,47 30,45 33,43 875,-695 z"/>
<path fill="#A99BBD" stroke="none" d="M 2449,3411 l -1065,340 15,45 18,43 19,43 20,42 993,-513 z"/>
<path fill="#91C3D5" stroke="none" d="M 2449,3411 l 0,-1117 -57,1 -57,5 -56,7 -55,10 -54,12 -53,15 -52,18 -51,20 -49,22 -49,25 -46,27 -46,29 -44,31 -42,33 -41,35 -38,37 -37,39 -36,40 -33,43 -31,43 -29,46 -27,47 -25,48 -22,49 -20,51 -18,52 -15,53 -12,54 -10,55 -7,56 -5,57 -1,57 1,43 2,43 10,86 8,42 9,43 11,42 12,41 1065,-340 z"/>
<path fill="#000000" stroke="none" d="M 3236,2618 l 177,-240 2,-1 42,0 0,6 -42,0 2,-1 -177,240 -4,-4 z m -1582,1578 l -224,181 -2,1 -41,0 0,-6 41,0 -2,1 224,-181 4,4 z m 1248,233 l 292,141 -1,0 41,0 0,6 -42,0 -292,-141 2,-6 z m -1066,-83 l -123,157 -2,1 -41,0 0,-6 41,0 -2,1 123,-157 4,4 z m -323,-326 l -171,119 -2,1 -41,0 0,-6 41,0 -2,1 171,-119 4,4 z m 32,-1265 l -177,-97 1,0 -42,0 0,-6 43,0 177,97 -2,6 z m 575,1724 l -76,154 -3,2 -41,0 0,-6 41,0 -3,2 76,-154 6,2 z m 1405,-768 l 199,67 -1,0 41,0 0,6 -42,0 -199,-67 2,-6 z m -263,466 l 65,77 -2,-1 41,0 0,6 -41,0 -2,-1 -65,-77 4,-4 z m -1843,-336 l -53,59 -2,1 -41,0 0,-6 41,0 -2,1 53,-59 4,4 z"/>
<text font-family="Calibri" font-size="92" fill="#000000"><tspan x="3472,3530,3578,3599,3630,3675,3723" y="2380">United </tspan><tspan x="3744,3786,3817,3860,3891,3937" y="2380">States</tspan><tspan x="3642,3689,3736" y="2492">25%</tspan><tspan x="3779,3828,3876,3896,3944" y="3781">China</tspan><tspan x="3828,3875" y="3893">9%</tspan><tspan x="3381,3404,3452,3500,3521" y="4256">India</tspan><tspan x="3417,3464" y="4368">7%</tspan><tspan x="3248,3290,3322,3366,3414,3453" y="4573">France</tspan><tspan x="3318,3365" y="4685">6%</tspan><tspan x="2098,2156,2204,2225,2256,2301,2349" y="4647">United </tspan><tspan x="2370,2418,2439,2487,2530,2578,2626" y="4647">Kingdom</tspan><tspan x="2343,2389" y="4759">6%</tspan><tspan x="1647,1704,1750,1782,1855,1898,1946" y="4653">Germany</tspan><tspan x="1761,1808" y="4765">5%</tspan><tspan x="1445,1475,1518,1566,1610" y="4501">Japan</tspan><tspan x="1495,1542" y="4613">3%</tspan><tspan x="1214,1237,1268,1312,1332" y="4375">Italy</tspan><tspan x="1238,1285" y="4487">3%</tspan><tspan x="1010,1059,1103,1151,1194,1242" y="4137">Canada</tspan><tspan x="1093,1139" y="4249">3%</tspan><tspan x="856,898,946,994,1025,1073" y="3898">South </tspan><tspan x="1094,1142,1190,1222,1267" y="3898">Korea</tspan><tspan x="1027,1074" y="4010">3%</tspan><tspan x="1127,1188,1219,1267,1312" y="2543">Other</tspan><tspan x="1156,1203,1250" y="2655">30%</tspan></text>
<text font-family="Calibri" font-size="165" fill="#000000" font-weight="700"><tspan x="1517,1617,1705,1793" y="1760">App </tspan><tspan x="1830,1908,1964,2052,2108,2192" y="1760">Store </tspan><tspan x="2229,2327,2367,2432,2472,2529,2594" y="1760">Visits </tspan><tspan x="2633,2684,2768,2851,2935,2977,3061,3144,3228" y="1760">(433,950)</tspan><tspan x="1311,1363,1446" y="1961">(6/</tspan><tspan x="1517,1601" y="1961">1/</tspan><tspan x="1671,1755,1838,1922,2005" y="1961">2012 </tspan><tspan x="2042,2099,2187,2243,2331,2419,2497,2585" y="1961">through </tspan><tspan x="2625,2708,2792" y="1961">10/</tspan><tspan x="2863,2946,3030" y="1961">19/</tspan><tspan x="3101,3184,3268,3351,3435" y="1961">2016)</tspan></text>
<path fill="#868686" stroke="none" d="M 404,1535 l 1,-3 3,-1 4083,0 2,1 1,3 0,3268 -1,2 -2,1 -4083,0 -3,-1 -1,-2 0,-3268 z m 7,3268 l -3,-4 4083,0 -4,4 0,-3268 4,3 -4083,0 3,-3 0,3268 z"/>
</g>
</svg>
