<?xml version="1.0" standalone="no"?>
<svg xml:space="preserve" width="100%" height="100%" viewBox="0 0 4897 6337" preserveAspectRatio="xMidYMid"
  fill-rule="nonzero" stroke-linecap="round" stroke-linejoin="round"
  xmlns="http://www.w3.org/2000/svg"
  xmlns:xlink="http://www.w3.org/1999/xlink"
  xmlns:svgmaker="http://www.svgmaker.com/svgns">
<svgmaker:init width="215.9mm" height="279.4mm" viewBox="0 0 4897 6337" view="fit"
  crop="none" cropWidth="180.3mm" cropHeight="122.0mm" cropBox="404 1785 4090 2768"/>
<title>Untitled</title>
<desc>
  Generated by SVGmaker V3 Version 3.61.E702.64
  DEC-06-2016, 14:37
</desc>
<defs><clipPath id="page_clip"><rect x="0" y="0" width="4897" height="6337"/></clipPath></defs>
<g id="Page_1" clip-path="url(#page_clip)" svgmaker:mediaBox="0 0 4897 6337">
<rect x="407" y="1787" width="4085" height="2763" fill="#FFFFFF" stroke="none"/>
<path fill="#4572A7" stroke="none" d="M 2449,3381 l 919,-168 -8,-41 -11,-41 -12,-39 -13,-39 -15,-38 -17,-38 -19,-36 -19,-35 -22,-34 -22,-33 -24,-32 -25,-31 -27,-30 -28,-29 -29,-27 -30,-26 -31,-25 -32,-24 -33,-22 -34,-21 -35,-19 -36,-18 -37,-16 -37,-15 -39,-13 -39,-11 -39,-10 -40,-8 -41,-7 -41,-4 -42,-3 -42,-1 0,934 z"/>
<path fill="#AA4643" stroke="none" d="M 2449,3381 l 337,871 39,-16 37,-17 37,-19 35,-21 35,-22 33,-23 32,-24 31,-26 29,-27 29,-28 27,-30 25,-30 25,-32 23,-32 21,-33 20,-34 19,-35 17,-36 16,-37 14,-37 12,-38 11,-38 9,-39 8,-39 6,-40 4,-40 3,-41 0,-40 -1,-41 -3,-41 -4,-42 -7,-41 -919,168 z"/>
<path fill="#89A54E" stroke="none" d="M 2449,3381 l -565,744 49,35 51,32 53,28 54,24 56,21 56,17 57,14 58,10 59,6 59,3 59,-1 59,-5 58,-8 59,-13 58,-16 57,-20 -337,-871 z"/>
<path fill="#71588F" stroke="none" d="M 2449,3381 l -934,-16 1,56 4,55 7,54 10,54 14,53 16,52 19,50 23,50 25,48 28,47 30,45 34,43 36,42 38,39 41,37 43,35 565,-744 z"/>
<path fill="#4198AF" stroke="none" d="M 2449,3381 l -641,-680 -33,33 -32,35 -30,36 -27,37 -26,39 -24,40 -22,41 -19,41 -18,43 -15,44 -14,44 -11,45 -9,46 -6,46 -5,47 -2,47 934,16 z"/>
<path fill="#DB843D" stroke="none" d="M 2449,3381 l 0,-934 -44,1 -45,3 -44,6 -43,7 -43,9 -42,11 -42,14 -41,15 -41,17 -39,19 -39,21 -38,23 -37,24 -35,26 -35,28 -33,30 641,680 z"/>
<path fill="#000000" stroke="none" d="M 2101,2514 l -92,-170 3,2 -37,0 0,-6 37,0 3,2 92,170 -6,2 z m 218,1795 l -237,75 -37,0 0,-6 36,0 -1,0 237,-75 2,6 z m 947,-473 l 146,106 -2,-1 37,0 0,6 -37,0 -2,-1 -146,-106 4,-4 z m -1673,-830 l -140,-87 2,0 -36,0 0,-6 38,0 140,87 -4,6 z m 1451,-342 l 28,-177 1,-2 2,-1 36,0 0,6 -36,0 3,-3 -28,177 -6,0 z m -1434,1128 l -136,32 -37,0 0,-6 36,0 -1,0 136,-32 2,6 z"/>
<text font-family="Calibri" font-size="80" fill="#000000"><tspan x="3126,3175,3213,3240,3279,3324,3342,3373,3415,3453,3471,3490,3522,3560,3587,3605,3647" y="2488">DataVisualization</tspan><tspan x="3338,3379,3420" y="2586">22%</tspan><tspan x="3460,3512,3552,3579,3637,3679,3707,3743,3793,3834,3876,3916,3944,3982,4009,4027,4070" y="3945">NetworkGeneration</tspan><tspan x="3716,3757,3798" y="4044">22%</tspan><tspan x="1488,1540,1580,1607,1665,1707,1735,1771,1817,1860,1898,1916,1952,1983,2001" y="4382">NetworkAnalysis</tspan><tspan x="1691,1732,1773" y="4481">16%</tspan><tspan x="1097,1140,1158,1200,1232,1259,1299,1327,1345,1387" y="3822">Clustering</tspan><tspan x="1191,1233,1274" y="3921">15%</tspan><tspan x="768,807,849,877,895,929,972,1036,1076,1118,1145,1192,1234,1272,1290,1326,1357,1376" y="2917">EnrichmentAnalysis</tspan><tspan x="1018,1059,1100" y="3015">13%</tspan><tspan x="1500,1550,1579,1617,1659,1701,1747,1790,1828,1846,1882,1913,1931" y="2344">GraphAnalysis</tspan><tspan x="1662,1703,1744" y="2442">12%</tspan></text>
<text font-family="Calibri" font-size="145" fill="#000000" font-weight="700"><tspan x="1048,1107,1184,1262" y="1986">Top </tspan><tspan x="1295,1382,1459,1537" y="1986">App </tspan><tspan x="1570,1638,1688,1765,1814,1887" y="1986">Store </tspan><tspan x="1921,2004,2052,2102,2151,2222,2282,2332,2368,2445,2522,2580" y="1986">Attractions </tspan><tspan x="2614,2690,2758" y="1986">by </tspan><tspan x="2793,2869,2939,2988,3061,3128,3206,3258,3326" y="1986">Category </tspan><tspan x="3358,3403,3477,3550,3587,3661,3734,3807,3853" y="1986">(97,095) </tspan><tspan x="1495,1540,1613" y="2163">(1/</tspan><tspan x="1675,1749" y="2163">1/</tspan><tspan x="1811,1884,1958,2031,2104" y="2163">2015 </tspan><tspan x="2137,2187,2264,2313,2391,2468,2536,2614" y="2163">through </tspan><tspan x="2649,2722,2796" y="2163">10/</tspan><tspan x="2858,2931,3005" y="2163">19/</tspan><tspan x="3067,3140,3214,3287,3360" y="2163">2016)</tspan></text>
<path fill="#868686" stroke="none" d="M 4492,1785 l 0,1 2,0 0,5 -4084,0 0,2756 -6,0 0,-2759 1,0 0,-2 2,0 0,-1 4085,0 z"/>
<path fill="#868686" stroke="none" d="M 4494,1791 l 0,2762 -4089,0 0,-2 -1,0 0,-4 4085,0 0,-2756 5,0 z"/>
</g>
</svg>
