<?xml version="1.0" standalone="no"?>
<svg xml:space="preserve" width="100%" height="100%" viewBox="0 0 4897 6337" preserveAspectRatio="xMidYMid"
  fill-rule="nonzero" stroke-linecap="round" stroke-linejoin="round"
  xmlns="http://www.w3.org/2000/svg"
  xmlns:xlink="http://www.w3.org/1999/xlink"
  xmlns:svgmaker="http://www.svgmaker.com/svgns">
<svgmaker:init width="215.9mm" height="279.4mm" viewBox="0 0 4897 6337" view="fit"
  crop="none" cropWidth="180.3mm" cropHeight="122.0mm" cropBox="404 1785 4090 2768"/>
<title>Untitled</title>
<desc>
  Generated by SVGmaker V3 Version 3.61.E702.64
  DEC-06-2016, 14:36
</desc>
<defs><clipPath id="page_clip"><rect x="0" y="0" width="4897" height="6337"/></clipPath></defs>
<g id="Page_1" clip-path="url(#page_clip)" svgmaker:mediaBox="0 0 4897 6337">
<rect x="407" y="1787" width="4085" height="2763" fill="#FFFFFF" stroke="none"/>
<path fill="#4572A7" stroke="none" d="M 2449,3381 l 934,-12 -2,-48 -4,-47 -6,-46 -9,-45 -11,-45 -13,-44 -14,-43 -17,-42 -19,-40 -21,-40 -23,-39 -24,-37 -26,-36 -28,-35 -29,-34 -31,-32 -33,-30 -33,-29 -36,-27 -36,-26 -38,-24 -39,-22 -40,-20 -41,-19 -42,-16 -43,-15 -44,-12 -45,-10 -46,-8 -46,-6 -47,-4 -48,-1 0,934 z"/>
<path fill="#AA4643" stroke="none" d="M 2449,3381 l 124,926 44,-7 42,-9 42,-10 41,-13 41,-14 39,-16 38,-18 38,-20 36,-21 35,-22 35,-24 33,-26 31,-27 31,-28 29,-29 28,-31 26,-32 25,-33 24,-35 22,-35 20,-36 19,-38 17,-38 16,-39 14,-40 12,-40 10,-41 8,-42 7,-43 4,-43 3,-44 0,-44 -934,12 z"/>
<path fill="#89A54E" stroke="none" d="M 2449,3381 l -690,629 40,41 42,39 44,35 45,33 48,30 49,26 50,24 52,21 53,17 54,14 55,12 56,7 56,5 56,1 57,-2 57,-6 -124,-926 z"/>
<path fill="#71588F" stroke="none" d="M 2449,3381 l -913,-197 -10,55 -7,56 -4,56 0,55 3,55 7,55 9,54 13,54 16,53 19,51 22,51 25,49 28,48 31,47 34,44 37,43 690,-629 z"/>
<path fill="#4198AF" stroke="none" d="M 2449,3381 l -575,-736 -32,26 -30,27 -29,29 -28,29 -26,31 -25,31 -24,33 -22,34 -21,35 -19,35 -18,36 -16,38 -14,37 -13,39 -11,39 -10,40 913,197 z"/>
<path fill="#DB843D" stroke="none" d="M 2449,3381 l 0,-934 -39,1 -39,2 -38,4 -38,6 -38,7 -38,9 -37,10 -37,12 -36,13 -36,15 -35,16 -34,18 -34,19 -33,21 -32,22 -31,23 575,736 z"/>
<path fill="#000000" stroke="none" d="M 2130,4262 l -420,86 -37,0 0,-6 36,0 -1,0 420,-86 2,6 z m 1028,-272 l 140,146 -2,-1 36,0 0,6 -36,0 -2,-1 -140,-146 4,-4 z m -1016,-1491 l -92,-171 3,2 -36,0 0,-6 36,0 3,2 92,171 -6,2 z m -486,388 l -136,-113 2,1 -36,0 0,-6 36,0 2,1 136,113 -4,4 z m 1447,-172 l 31,-174 1,-1 2,-1 36,0 0,6 -36,0 3,-2 -31,174 -6,-2 z m -1556,912 l -139,2 -36,0 0,-6 36,0 139,-2 0,6 z"/>
<text font-family="Calibri" font-size="80" fill="#000000"><tspan x="3187,3239,3279,3306,3363,3406,3434,3470,3520,3560,3602,3643,3671,3709,3736,3754,3796" y="2543">NetworkGeneration</tspan><tspan x="3443,3484,3525" y="2641">25%</tspan><tspan x="3347,3396,3434,3461,3499,3544,3563,3594,3636,3674,3692,3710,3742,3781,3808,3826,3868" y="4139">DataVisualization</tspan><tspan x="3558,3600,3641" y="4238">23%</tspan><tspan x="1198,1248,1276,1314,1356,1399,1445,1487,1525,1543,1579,1611,1629" y="4347">GraphAnalysis</tspan><tspan x="1359,1401,1442" y="4445">15%</tspan><tspan x="1032,1076,1094,1136,1167,1194,1234,1262,1280,1323" y="3627">Clustering</tspan><tspan x="1127,1168,1209" y="3726">15%</tspan><tspan x="913,966,1008,1035,1077,1096,1138,1176,1212,1258,1301,1339,1357,1393,1424,1442" y="2773">OntologyAnalysis</tspan><tspan x="1124,1165,1206" y="2871">11%</tspan><tspan x="1460,1512,1552,1580,1637,1679,1707,1743,1789,1832,1870,1888,1924,1955,1973" y="2328">NetworkAnalysis</tspan><tspan x="1663,1704,1745" y="2427">11%</tspan></text>
<text font-family="Calibri" font-size="145" fill="#000000" font-weight="700"><tspan x="1010,1070,1147,1224" y="1986">Top </tspan><tspan x="1258,1345,1422,1500" y="1986">App </tspan><tspan x="1533,1601,1650,1728,1777,1850" y="1986">Store </tspan><tspan x="1883,1967,2015,2065,2114,2185,2245,2295,2331,2408,2485,2543" y="1986">Attractions </tspan><tspan x="2577,2653,2721" y="1986">by </tspan><tspan x="2756,2832,2902,2950,3024,3091,3168,3221,3289" y="1986">Category </tspan><tspan x="3321,3366,3440,3513,3586,3624,3697,3770,3844,3889" y="1986">(211,378) </tspan><tspan x="1495,1540,1613" y="2163">(6/</tspan><tspan x="1675,1749" y="2163">1/</tspan><tspan x="1811,1884,1958,2031,2104" y="2163">2012 </tspan><tspan x="2137,2187,2264,2313,2391,2468,2536,2614" y="2163">through </tspan><tspan x="2649,2722,2796" y="2163">10/</tspan><tspan x="2858,2931,3005" y="2163">19/</tspan><tspan x="3067,3140,3214,3287,3360" y="2163">2016)</tspan></text>
<path fill="#868686" stroke="none" d="M 4492,1785 l 0,1 2,0 0,5 -4084,0 0,2756 -6,0 0,-2759 1,0 0,-2 2,0 0,-1 4085,0 z"/>
<path fill="#868686" stroke="none" d="M 4494,1791 l 0,2762 -4089,0 0,-2 -1,0 0,-4 4085,0 0,-2756 5,0 z"/>
</g>
</svg>
