<?xml version="1.0" standalone="no"?>
<svg xml:space="preserve" width="100%" height="100%" viewBox="0 0 4897 6337" preserveAspectRatio="xMidYMid"
  fill-rule="nonzero" stroke-linecap="round" stroke-linejoin="round"
  xmlns="http://www.w3.org/2000/svg"
  xmlns:xlink="http://www.w3.org/1999/xlink"
  xmlns:svgmaker="http://www.svgmaker.com/svgns">
<svgmaker:init width="215.9mm" height="279.4mm" viewBox="0 0 4897 6337" view="fit"
  crop="none" cropWidth="180.3mm" cropHeight="128.3mm" cropBox="404 1713 4090 2911"/>
<title>Untitled</title>
<desc>
  Generated by SVGmaker V3 Version 3.61.E702.64
  DEC-06-2016, 14:39
</desc>
<defs><clipPath id="page_clip"><rect x="0" y="0" width="4897" height="6337"/></clipPath></defs>
<g id="Page_1" clip-path="url(#page_clip)" svgmaker:mediaBox="0 0 4897 6337">
<rect x="407" y="1716" width="4085" height="2906" fill="#FFFFFF" stroke="none"/>
<path fill="#4572A7" stroke="none" d="M 2449,3361 l 908,454 22,-47 20,-48 17,-48 14,-49 12,-49 10,-49 7,-50 4,-49 2,-49 0,-50 -3,-49 -5,-48 -8,-49 -10,-47 -12,-48 -14,-46 -17,-46 -18,-45 -21,-44 -23,-44 -25,-42 -27,-41 -29,-39 -31,-39 -33,-36 -36,-36 -36,-34 -39,-32 -41,-30 -43,-29 -44,-26 -46,-25 -54,-25 -54,-21 -56,-19 -57,-15 -58,-12 -58,-8 -59,-5 -59,-2 0,1016 z"/>
<path fill="#AA4643" stroke="none" d="M 2449,3361 l 117,1009 63,-9 62,-14 61,-17 60,-20 57,-25 56,-27 55,-31 52,-34 50,-38 47,-40 45,-43 43,-46 39,-49 37,-52 34,-54 30,-56 -908,-454 z"/>
<path fill="#89A54E" stroke="none" d="M 2449,3361 l -401,933 31,13 62,22 64,18 32,7 32,6 33,6 32,4 33,3 33,2 33,1 33,0 34,-1 33,-2 33,-3 -117,-1009 z"/>
<path fill="#71588F" stroke="none" d="M 2449,3361 l -490,889 44,23 45,21 401,-933 z"/>
<path fill="#4198AF" stroke="none" d="M 2449,3361 l -559,847 34,22 35,20 490,-889 z"/>
<path fill="#DB843D" stroke="none" d="M 2449,3361 l -621,803 31,23 31,21 559,-847 z"/>
<path fill="#93A9CF" stroke="none" d="M 2449,3361 l -656,775 35,28 621,-803 z"/>
<path fill="#D19392" stroke="none" d="M 2449,3361 l -682,752 26,23 656,-775 z"/>
<path fill="#B9CD96" stroke="none" d="M 2449,3361 l -696,739 14,13 682,-752 z"/>
<path fill="#A99BBD" stroke="none" d="M 2449,3361 l -708,727 12,12 696,-739 z"/>
<path fill="#91C3D5" stroke="none" d="M 2449,3361 l 0,-1016 -52,1 -52,4 -51,7 -50,9 -49,11 -48,14 -47,16 -46,18 -45,20 -44,23 -42,24 -42,27 -39,28 -39,30 -37,32 -35,34 -33,35 -32,37 -30,38 -29,40 -26,41 -25,43 -22,44 -20,45 -18,46 -16,47 -14,48 -11,49 -9,50 -7,51 -4,52 -1,52 1,51 4,51 6,51 9,49 12,50 13,48 16,48 19,47 20,46 23,44 26,44 27,42 30,41 31,40 34,38 36,37 708,-727 z"/>
<path fill="#000000" stroke="none" d="M 1745,4096 l -412,-347 1,1 -36,0 0,-5 36,0 2,1 412,347 -3,3 z m 15,13 l -649,-169 -36,0 0,-5 37,0 649,169 -1,5 z m 100,80 l -401,236 -38,0 0,-5 36,0 -1,0 401,-236 3,5 z m 65,42 l -296,244 -2,1 -36,0 0,-5 36,0 -1,1 296,-244 3,3 z m -418,-1251 l -222,-191 1,1 -36,0 0,-5 36,0 2,1 222,191 -3,3 z m 1806,-156 l 291,-118 36,0 0,5 -36,0 1,0 -291,118 -1,-5 z m -1011,1539 l 311,108 -1,0 36,0 0,5 -36,0 -311,-108 1,-5 z m -491,-210 l -324,99 -37,0 0,-5 36,0 324,-99 1,5 z m 1222,37 l 231,132 -2,0 35,0 0,5 -36,0 -231,-132 3,-5 z m -1254,-63 l -539,-43 -36,0 0,-5 37,0 539,43 -1,5 z m 226,145 l 0,125 -5,0 0,-125 5,0 z"/>
<text font-family="Calibri" font-size="79" fill="#000000"><tspan x="3613,3651,3693,3735,3773,3791" y="2611">google</tspan><tspan x="3653,3694,3735" y="2709">32%</tspan><tspan x="3310,3344,3380,3407,3449,3480,3514,3552,3594,3634,3653,3695,3723" y="4325">cytoscape.org</tspan><tspan x="3467,3508,3549" y="4423">16%</tspan><tspan x="2661,2685,2727,2745,2773,2813,2847,2874" y="4491">(direct)</tspan><tspan x="2730,2771" y="4589">8%</tspan><tspan x="1693,1735,1773,1800,1841,1898,1936,1972,2006,2048,2112,2175,2217,2259,2290,2310,2352,2380" y="4491">pathwaycommons.org</tspan><tspan x="2006,2047" y="4589">2%</tspan><tspan x="1398,1440,1478,1496,1538" y="4486">baidu</tspan><tspan x="1440,1481" y="4584">1%</tspan><tspan x="924,961,1001,1043,1083,1147,1185,1227,1245,1282,1302,1344,1372" y="4423">genemania.org</tspan><tspan x="1118,1159" y="4521">1%</tspan><tspan x="866,904,944,985,1025,1067,1109,1136,1178,1196,1238,1276,1311,1331,1373,1401" y="4249">geneontology.org</tspan><tspan x="1103,1144" y="4347">1%</tspan><tspan x="1053,1095,1113,1155" y="4082">bing</tspan><tspan x="1074,1115" y="4180">1%</tspan><tspan x="587,629,692,710,744,771,813,855,873,904,924,958,999" y="3938">omictools.com</tspan><tspan x="776,817" y="4035">0%</tspan><tspan x="961,1003,1045,1063,1090,1128,1148,1182,1224" y="3748">quita.com</tspan><tspan x="1075,1116" y="3846">0%</tspan><tspan x="1081,1123,1150,1192,1232" y="2690">other</tspan><tspan x="1101,1142,1183" y="2788">38%</tspan></text>
<text font-family="Calibri" font-size="128" fill="#000000" font-weight="700"><tspan x="1045,1123,1191,1260" y="1850">App </tspan><tspan x="1288,1349,1392,1461,1505,1569" y="1850">Store </tspan><tspan x="1597,1667,1730,1769,1833,1878,1921,1984,2015" y="1850">Referral </tspan><tspan x="2044,2105,2174,2242,2286,2340,2404,2455" y="1850">Sources </tspan><tspan x="2483,2523,2587,2652,2717,2750,2815,2879,2944,2984" y="1850">(231,266) </tspan><tspan x="1171,1211,1276" y="2006">(1/</tspan><tspan x="1331,1396" y="2006">1/</tspan><tspan x="1451,1515,1580,1645,1710" y="2006">2015 </tspan><tspan x="1738,1782,1850,1894,1963,2032,2093,2162" y="2006">through </tspan><tspan x="2189,2254,2319" y="2006">10/</tspan><tspan x="2374,2439,2504" y="2006">19/</tspan><tspan x="2558,2623,2688,2753,2818" y="2006">2016)</tspan></text>
<path fill="#868686" stroke="none" d="M 4492,1713 l 0,1 2,0 0,5 -4084,0 0,2900 -6,0 0,-2903 1,0 0,-1 1,0 0,-1 1,0 0,-1 4085,0 z"/>
<path fill="#868686" stroke="none" d="M 4494,1719 l 0,2905 -4089,0 0,-1 -1,0 0,-4 4085,0 0,-2900 5,0 z"/>
</g>
</svg>
