<?xml version="1.0" standalone="no"?>
<svg xml:space="preserve" width="100%" height="100%" viewBox="0 0 4897 6337" preserveAspectRatio="xMidYMid"
  fill-rule="nonzero" stroke-linecap="round" stroke-linejoin="round"
  xmlns="http://www.w3.org/2000/svg"
  xmlns:xlink="http://www.w3.org/1999/xlink"
  xmlns:svgmaker="http://www.svgmaker.com/svgns">
<svgmaker:init width="215.9mm" height="279.4mm" viewBox="0 0 4897 6337" view="fit"
  crop="none" cropWidth="180.3mm" cropHeight="124.6mm" cropBox="404 1756 4090 2826"/>
<title>Untitled</title>
<desc>
  Generated by SVGmaker V3 Version 3.61.E702.64
  DEC-06-2016, 14:46
</desc>
<defs><clipPath id="page_clip"><rect x="0" y="0" width="4897" height="6337"/></clipPath></defs>
<g id="Page_1" clip-path="url(#page_clip)" svgmaker:mediaBox="0 0 4897 6337">
<rect x="406" y="1759" width="4085" height="2820" fill="#FFFFFF" stroke="none"/>
<path fill="#4F81BD" stroke="none" d="M 2449,3393 l -713,-620 -31,38 -29,38 -26,40 -25,40 -22,42 -20,42 -17,43 -16,43 -13,44 -11,45 -9,45 -6,45 -5,45 -2,45 0,46 2,45 4,45 7,45 8,45 11,44 13,44 15,43 17,42 19,42 21,41 24,40 25,39 28,38 30,36 31,36 34,34 36,33 38,31 38,29 40,26 40,24 42,22 42,20 43,18 43,15 44,13 45,11 44,9 46,6 45,5 45,2 45,0 46,-2 45,-4 45,-7 44,-8 44,-11 44,-13 43,-15 43,-17 41,-19 41,-21 40,-24 39,-25 38,-28 37,-29 36,-32 34,-34 33,-36 31,-37 29,-39 26,-40 24,-40 22,-41 20,-43 18,-42 15,-44 13,-44 11,-44 9,-45 6,-45 5,-45 2,-45 0,-46 -2,-45 -4,-45 -7,-45 -8,-45 -11,-44 -13,-44 -15,-43 -17,-42 -19,-42 -21,-41 -24,-40 -25,-39 -28,-38 -29,-36 -32,-36 -34,-34 -36,-33 -33,-27 -34,-26
 -35,-24 -35,-22 -37,-21 -38,-19 -38,-17 -39,-16 -39,-14 -41,-12 -40,-10 -42,-9 -41,-6 -42,-5 -42,-3 -43,-1 0,945 z"/>
<path fill="#C0504D" stroke="none" d="M 2449,3393 l -185,-926 -38,8 -38,10 -37,12 -37,13 -36,14 -35,16 -35,17 -33,19 -34,20 -32,21 -31,23 -30,24 -30,26 -28,26 -28,28 -26,29 713,620 z"/>
<path fill="#9BBB59" stroke="none" d="M 2449,3393 l -61,-943 -62,6 -31,5 -31,6 185,926 z"/>
<path fill="#8064A2" stroke="none" d="M 2449,3393 l -22,-944 -39,1 61,943 z"/>
<path fill="#4BACC6" stroke="none" d="M 2449,3393 l 0,-945 -22,1 22,944 z"/>
<path fill="#000000" stroke="none" d="M 2326,2459 l -786,-71 -38,0 0,-6 38,0 786,71 0,6 z m 110,-13 l 236,-174 2,-1 39,0 0,6 -39,0 2,-1 -236,174 -4,-4 z m -30,5 l -195,-197 2,1 -39,0 0,-6 39,0 2,1 195,197 -4,4 z m -432,128 l -423,53 -38,0 0,-6 38,0 423,-53 0,6 z"/>
<text font-family="Calibri" font-size="84" fill="#000000"><tspan x="3607,3661,3706,3725,3753,3796,3840" y="3272">United </tspan><tspan x="3859,3898,3927,3967,3996,4038" y="3272">States</tspan><tspan x="3765,3808,3852" y="3376">86%</tspan><tspan x="945,999,1043,1062,1091,1133,1178" y="2630">United </tspan><tspan x="1197,1241,1260,1305,1345,1389,1434" y="2630">Kingdom</tspan><tspan x="1149,1193,1236" y="2733">11%</tspan><tspan x="1235,1280,1320,1365,1405,1450" y="2386">Canada</tspan><tspan x="1311,1354" y="2490">2%</tspan><tspan x="1716,1737,1782,1810,1852,1882,1926,1967,1995,2014,2059,2103,2143" y="2253">International</tspan><tspan x="1887,1931" y="2356">1%</tspan><tspan x="2727,2776,2820,2853,2882,2911,2930" y="2275">Austria</tspan><tspan x="2797,2840" y="2379">0%</tspan></text>
<text font-family="Calibri" font-size="152" fill="#000000" font-weight="700"><tspan x="909,990,1071,1153,1233,1286,1340,1377,1454,1514" y="1917">Countries </tspan><tspan x="1550,1620,1702,1783,1865,1902,1983,2055" y="1917">Funding </tspan><tspan x="2091,2172,2245,2296,2378,2438,2501,2576,2657,2735" y="1917">Cytoscape </tspan><tspan x="2769,2850,2887,2939,3013,3066,3103,3184,3266,3326" y="1917">Citations </tspan><tspan x="1259,1307,1384,1423,1501,1578,1655" y="2104">(1,661 </tspan><tspan x="1690,1766,1837,1914,1995,2048,2108" y="2104">events </tspan><tspan x="2141,2201,2238,2320,2383,2460" y="2104">since </tspan><tspan x="2496,2547,2622,2704" y="2104">Jan </tspan><tspan x="2738,2774,2851,2928" y="2104">&apos;15)</tspan></text>
<path fill="#868686" stroke="none" d="M 4491,1756 l 0,1 3,0 0,6 -4084,0 0,2813 -6,0 0,-2817 1,0 0,-2 2,0 0,-1 4084,0 z"/>
<path fill="#868686" stroke="none" d="M 4494,1763 l 0,2819 -4089,0 0,-2 -1,0 0,-4 4084,0 0,-2813 6,0 z"/>
</g>
</svg>
