<?xml version="1.0" standalone="no"?>
<svg xml:space="preserve" width="100%" height="100%" viewBox="0 0 4897 6337" preserveAspectRatio="xMidYMid"
  fill-rule="nonzero" stroke-linecap="round" stroke-linejoin="round"
  xmlns="http://www.w3.org/2000/svg"
  xmlns:xlink="http://www.w3.org/1999/xlink"
  xmlns:svgmaker="http://www.svgmaker.com/svgns">
<svgmaker:init width="215.9mm" height="279.4mm" viewBox="0 0 4897 6337" view="fit"
  crop="none" cropWidth="180.3mm" cropHeight="124.6mm" cropBox="404 1756 4090 2826"/>
<title>Untitled</title>
<desc>
  Generated by SVGmaker V3 Version 3.61.E702.64
  DEC-06-2016, 14:45
</desc>
<defs><clipPath id="page_clip"><rect x="0" y="0" width="4897" height="6337"/></clipPath></defs>
<g id="Page_1" clip-path="url(#page_clip)" svgmaker:mediaBox="0 0 4897 6337">
<rect x="406" y="1759" width="4085" height="2820" fill="#FFFFFF" stroke="none"/>
<path fill="#4572A7" stroke="none" d="M 2449,3393 l -580,-746 -38,31 -35,32 -34,34 -32,35 -29,36 -28,38 -25,38 -24,40 -21,41 -19,41 -18,42 -15,43 -13,44 -11,44 -9,44 -6,45 -5,45 -2,45 -1,46 2,45 4,45 7,46 8,45 11,44 13,44 15,44 18,43 19,43 22,42 25,41 26,40 29,39 31,38 32,35 34,34 35,32 36,29 38,28 38,25 40,24 41,21 41,20 42,17 43,15 44,13 44,11 44,9 45,7 45,5 45,2 46,0 45,-2 45,-4 46,-6 45,-8 44,-11 44,-13 44,-15 43,-18 43,-19 42,-22 41,-25 40,-26 39,-29 38,-31 35,-32 34,-34 32,-35 29,-36 28,-38 25,-39 24,-39 21,-41 20,-41 17,-43 15,-43 13,-43 11,-44 9,-45 7,-44 4,-46 3,-45 0,-45 -2,-46 -4,-45 -6,-45 -9,-45 -11,-45 -13,-44 -15,-44 -17,-43 -20,-43 -22,-42 -24,-41 -27,-40 -29,-39 -34,-42 -37,-40
 -39,-37 -41,-35 -42,-33 -44,-30 -46,-27 -47,-25 -49,-22 -49,-19 -51,-17 -52,-13 -52,-11 -54,-8 -54,-4 -54,-2 0,945 z"/>
<path fill="#AA4643" stroke="none" d="M 2449,3393 l -154,-932 -58,11 -56,15 -56,18 -55,22 -53,25 -51,29 -49,31 -48,35 580,746 z"/>
<path fill="#89A54E" stroke="none" d="M 2449,3393 l -35,-944 -30,1 -29,3 -30,3 -30,5 154,932 z"/>
<path fill="#71588F" stroke="none" d="M 2449,3393 l -14,-945 -21,1 35,944 z"/>
<path fill="#4198AF" stroke="none" d="M 2449,3393 l -5,-945 -9,0 14,945 z"/>
<path fill="#DB843D" stroke="none" d="M 2449,3393 l 0,-945 -5,0 5,945 z"/>
<path fill="#000000" stroke="none" d="M 2072,2530 l -777,223 -40,0 0,-6 39,0 -1,0 777,-223 2,6 z m 352,-78 l -653,-190 1,0 -38,0 0,-6 39,0 653,190 -2,6 z m 20,-7 l 150,-92 40,0 0,6 -38,0 2,0 -150,92 -4,-6 z m -90,11 l -1141,2 -38,0 0,-6 38,0 1141,-2 0,6 z m 83,-8 l -4,-120 3,3 -38,0 0,-6 38,0 2,1 1,2 4,120 -6,0 z"/>
<text font-family="Calibri" font-size="84" fill="#000000"><tspan x="3726,3780,3824,3843,3872,3914,3959" y="3389">United </tspan><tspan x="3978,4017,4045,4086,4114,4157" y="3389">States</tspan><tspan x="3884,3927,3970" y="3493">90%</tspan><tspan x="687,741,786,805,833,876,920" y="2751">United </tspan><tspan x="939,984,1003,1047,1087,1132,1176" y="2751">Kingdom</tspan><tspan x="914,957" y="2854">8%</tspan><tspan x="908,953,993,1038,1078,1123" y="2456">Canada</tspan><tspan x="984,1027" y="2560">2%</tspan><tspan x="1275,1296,1341,1369,1412,1441,1486,1526,1555,1574,1618,1663,1703" y="2260">International</tspan><tspan x="1447,1490" y="2364">0%</tspan><tspan x="2214,2262,2307,2339,2368,2398,2417" y="2226">Austria</tspan><tspan x="2283,2327" y="2330">0%</tspan><tspan x="2626,2647,2675,2716,2735" y="2254">Italy</tspan><tspan x="2648,2691" y="2357">0%</tspan></text>
<text font-family="Calibri" font-size="152" fill="#000000" font-weight="700"><tspan x="1380,1461,1542,1624,1704,1757,1811,1848,1925,1986" y="1917">Countries </tspan><tspan x="2022,2092,2173,2254,2336,2373,2454,2526" y="1917">Funding </tspan><tspan x="2562,2643,2716,2768,2849,2910,2972,3047,3129,3206" y="1917">Cytoscape </tspan><tspan x="3241,3321,3358,3410,3484,3537,3574,3656,3737" y="1917">Citations</tspan><tspan x="1792,1840,1917,1956,2033,2111,2188" y="2104">(6,794 </tspan><tspan x="2223,2299,2370,2447,2527,2580,2641" y="2104">events </tspan><tspan x="2674,2734,2771,2852,2916,2993" y="2104">since </tspan><tspan x="3029,3106,3184,3261,3338" y="2104">2004)</tspan></text>
<path fill="#868686" stroke="none" d="M 4491,1756 l 0,1 3,0 0,6 -4084,0 0,2813 -6,0 0,-2817 1,0 0,-2 2,0 0,-1 4084,0 z"/>
<path fill="#868686" stroke="none" d="M 4494,1763 l 0,2819 -4089,0 0,-2 -1,0 0,-4 4084,0 0,-2813 6,0 z"/>
</g>
</svg>
