<?xml version="1.0" standalone="no"?>
<svg xml:space="preserve" width="100%" height="100%" viewBox="0 0 4897 6337" preserveAspectRatio="xMidYMid"
  fill-rule="nonzero" stroke-linecap="round" stroke-linejoin="round"
  xmlns="http://www.w3.org/2000/svg"
  xmlns:xlink="http://www.w3.org/1999/xlink"
  xmlns:svgmaker="http://www.svgmaker.com/svgns">
<svgmaker:init width="215.9mm" height="279.4mm" viewBox="0 0 4897 6337" view="fit"
  crop="none" cropWidth="180.3mm" cropHeight="93.9mm" cropBox="404 2104 4090 2129"/>
<title>Untitled</title>
<desc>
  Generated by SVGmaker V3 Version 3.61.E702.64
  DEC-06-2016, 14:49
</desc>
<defs><clipPath id="page_clip"><rect x="0" y="0" width="4897" height="6337"/></clipPath></defs>
<g id="Page_1" clip-path="url(#page_clip)" svgmaker:mediaBox="0 0 4897 6337">
<rect x="407" y="2107" width="4084" height="2123" fill="#FFFFFF" stroke="none"/>
<path fill="#4572A7" stroke="none" d="M 2449,3315 l 683,129 6,-35 4,-35 2,-35 0,-35 -1,-35 -3,-34 -5,-34 -6,-33 -8,-33 -10,-32 -11,-32 -12,-31 -14,-30 -16,-30 -16,-29 -19,-28 -19,-27 -21,-26 -22,-25 -23,-24 -24,-23 -26,-22 -27,-21 -27,-19 -29,-18 -30,-17 -30,-15 -32,-14 -32,-13 -34,-10 -34,-9 -35,-8 -32,-5 -32,-4 -33,-2 -32,-1 0,695 z"/>
<path fill="#AA4643" stroke="none" d="M 2449,3315 l -118,686 35,5 35,3 35,2 34,0 34,-2 34,-4 33,-5 33,-7 33,-8 31,-10 32,-11 30,-13 30,-14 30,-15 28,-17 28,-19 26,-19 26,-21 25,-22 23,-23 23,-24 22,-26 20,-26 19,-28 18,-28 16,-30 15,-30 14,-31 12,-33 11,-33 9,-33 7,-35 -683,-129 z"/>
<path fill="#89A54E" stroke="none" d="M 2449,3315 l -519,464 41,42 44,38 23,18 24,17 50,30 25,13 27,13 26,11 28,10 27,10 29,8 28,6 29,6 118,-686 z"/>
<path fill="#71588F" stroke="none" d="M 2449,3315 l -674,172 12,40 14,40 16,38 18,38 21,36 23,35 24,33 27,32 519,-464 z"/>
<path fill="#4198AF" stroke="none" d="M 2449,3315 l -691,-77 -3,31 -1,32 -1,31 2,31 3,32 4,31 6,30 7,31 674,-172 z"/>
<path fill="#DB843D" stroke="none" d="M 2449,3315 l -629,-297 -12,26 -20,54 -8,27 -8,28 -6,28 -4,28 -4,29 691,77 z"/>
<path fill="#93A9CF" stroke="none" d="M 2449,3315 l -509,-474 -35,40 -32,44 -28,45 -25,48 629,297 z"/>
<path fill="#D19392" stroke="none" d="M 2449,3315 l -353,-599 -42,27 -40,30 -38,33 -36,35 509,474 z"/>
<path fill="#B9CD96" stroke="none" d="M 2449,3315 l -183,-671 -44,14 -44,16 -41,20 -41,22 353,599 z"/>
<path fill="#A99BBD" stroke="none" d="M 2449,3315 l 0,-695 -46,2 -46,4 -46,8 -45,10 183,671 z"/>
<path fill="#000000" stroke="none" d="M 1757,3367 l -246,106 -44,0 0,-7 42,0 -1,0 246,-106 3,7 z m 420,-689 l -222,-90 1,0 -43,0 0,-7 45,0 222,90 -3,7 z m -338,966 l -78,185 -4,2 -42,0 0,-7 42,0 -3,2 78,-185 7,3 z m 35,-716 l -238,45 -44,0 0,-7 43,0 238,-45 1,7 z m 241,997 l -52,129 -4,2 -43,0 0,-7 43,0 -3,2 52,-129 7,3 z m 732,-42 l 121,73 -2,0 43,0 0,7 -43,0 -1,-1 -121,-73 3,-6 z m -834,-1107 l -403,-21 -43,0 0,-7 44,0 403,21 -1,7 z m -232,353 l -108,58 -45,0 0,-7 43,0 -1,0 108,-58 3,7 z m 1203,-261 l 108,-5 43,0 0,7 -42,0 -108,5 -1,-7 z"/>
<text font-family="Calibri" font-size="95" fill="#000000"><tspan x="3151,3195,3235,3256" y="2868">Sci </tspan><tspan x="3278,3329,3376" y="2868">Rep</tspan><tspan x="3205,3254,3303" y="2984">28%</tspan><tspan x="3024,3073,3113,3163,3207" y="3960">PLoS </tspan><tspan x="3228,3291,3341" y="3960">One</tspan><tspan x="3124,3172,3221" y="4076">25%</tspan><tspan x="1417,1469,1550,1601" y="4053">BMC </tspan><tspan x="1622,1682,1729,1779,1829,1905,1926,1966" y="4053">Genomics</tspan><tspan x="1627,1676,1724" y="4170">11%</tspan><tspan x="1038,1099,1149,1189,1211,1258,1280,1320" y="3829">Nucleic </tspan><tspan x="1341,1396,1436,1458,1507,1544" y="3829">Acids </tspan><tspan x="1567,1618,1665" y="3829">Res</tspan><tspan x="1312,1360" y="3945">8%</tspan><tspan x="1139,1219,1269,1290" y="3470">Mol </tspan><tspan x="1313,1364,1411,1433,1454" y="3470">Cell </tspan><tspan x="1078,1127,1160,1210,1242,1289,1339,1415,1436,1477" y="3586">Proteomics</tspan><tspan x="1238,1287" y="3701">6%</tspan><tspan x="1017,1061,1094,1144,1194,1226" y="3184">Front </tspan><tspan x="1247,1328,1349,1390,1423,1473,1523,1544,1594" y="3184">Microbiol</tspan><tspan x="1258,1307" y="3300">5%</tspan><tspan x="1025,1069,1102,1152,1202,1234" y="2970">Front </tspan><tspan x="1255,1304,1325,1370,1420,1452" y="2970">Plant </tspan><tspan x="1475,1519,1559" y="2970">Sci</tspan><tspan x="1244,1293" y="3086">5%</tspan><tspan x="1042,1104,1149,1181" y="2752">Nat </tspan><tspan x="1202,1253,1303,1379,1455,1505" y="2752">Commun</tspan><tspan x="1240,1289" y="2868">4%</tspan><tspan x="1528,1580,1661,1712" y="2470">BMC </tspan><tspan x="1342,1394,1416,1465,1487,1537,1565,1615,1648,1724,1769,1801,1823,1863" y="2586">Bioinformatics</tspan><tspan x="1563,1611" y="2701">4%</tspan><tspan x="2031,2112,2162,2183" y="2443">Mol </tspan><tspan x="2206,2286,2334,2383" y="2443">Med </tspan><tspan x="2405,2456,2503" y="2443">Rep</tspan><tspan x="2234,2283" y="2560">4%</tspan></text>
<text font-family="Calibri" font-size="171" fill="#000000" font-weight="700"><tspan x="970,1040,1132,1223" y="2342">Top </tspan><tspan x="1262,1352,1434,1492,1584,1651,1721,1806,1897,1983" y="2342">Cytoscape </tspan><tspan x="2023,2113,2154,2212,2296,2355,2396,2488,2579" y="2342">Citation </tspan><tspan x="2619,2712,2799,2890,2981,3068,3136" y="2342">Venues </tspan><tspan x="3174,3254,3296,3387,3458,3545" y="2342">Since </tspan><tspan x="3584,3671,3757,3844" y="2342">2015</tspan></text>
<path fill="#868686" stroke="none" d="M 4492,2104 l 0,1 2,0 0,6 -4082,0 0,2116 -8,0 0,-2120 1,0 0,-1 1,0 0,-1 2,0 0,-1 4084,0 z"/>
<path fill="#868686" stroke="none" d="M 4494,2111 l 0,2122 -4089,0 0,-2 -1,0 0,-4 4084,0 0,-2116 6,0 z"/>
</g>
</svg>
