<?xml version="1.0" standalone="no"?>
<svg xml:space="preserve" width="100%" height="100%" viewBox="0 0 4897 6337" preserveAspectRatio="xMidYMid"
  fill-rule="nonzero" stroke-linecap="round" stroke-linejoin="round"
  xmlns="http://www.w3.org/2000/svg"
  xmlns:xlink="http://www.w3.org/1999/xlink"
  xmlns:svgmaker="http://www.svgmaker.com/svgns">
<svgmaker:init width="215.9mm" height="279.4mm" viewBox="0 0 4897 6337" view="fit"
  crop="none" cropWidth="180.3mm" cropHeight="94.7mm" cropBox="404 2095 4090 2148"/>
<title>Untitled</title>
<desc>
  Generated by SVGmaker V3 Version 3.61.E702.64
  DEC-06-2016, 14:48
</desc>
<defs><clipPath id="page_clip"><rect x="0" y="0" width="4897" height="6337"/></clipPath></defs>
<g id="Page_1" clip-path="url(#page_clip)" svgmaker:mediaBox="0 0 4897 6337">
<rect x="407" y="2099" width="4084" height="2141" fill="#FFFFFF" stroke="none"/>
<path fill="#4572A7" stroke="none" d="M 2449,3317 l 649,269 13,-34 11,-34 10,-34 7,-34 6,-35 4,-34 2,-34 1,-35 -1,-34 -3,-34 -4,-33 -6,-34 -8,-33 -9,-32 -10,-32 -12,-32 -14,-31 -15,-30 -34,-58 -20,-28 -20,-27 -22,-26 -24,-25 -24,-24 -26,-23 -27,-21 -29,-20 -29,-19 -31,-18 -32,-16 -33,-15 -32,-12 -33,-11 -34,-9 -34,-8 -34,-6 -34,-4 -34,-3 -35,-1 0,704 z"/>
<path fill="#AA4643" stroke="none" d="M 2449,3317 l 342,614 26,-15 24,-16 48,-35 44,-38 41,-43 37,-45 17,-24 16,-24 15,-26 14,-25 13,-27 12,-27 -649,-269 z"/>
<path fill="#89A54E" stroke="none" d="M 2449,3317 l -99,696 29,3 28,3 29,1 28,0 29,-2 28,-2 28,-3 28,-5 28,-6 28,-7 27,-7 54,-20 26,-11 26,-12 25,-14 -342,-614 z"/>
<path fill="#71588F" stroke="none" d="M 2449,3317 l -497,497 42,39 45,35 47,31 24,14 25,13 25,12 26,11 27,10 26,9 27,8 28,7 56,10 99,-696 z"/>
<path fill="#4198AF" stroke="none" d="M 2449,3317 l -689,143 12,50 16,48 20,48 22,45 26,44 29,42 32,40 35,37 497,-497 z"/>
<path fill="#DB843D" stroke="none" d="M 2449,3317 l -680,-181 -9,40 -7,40 -5,41 -2,41 0,40 2,41 5,41 7,40 689,-143 z"/>
<path fill="#93A9CF" stroke="none" d="M 2449,3317 l -565,-420 -19,27 -18,29 -17,29 -15,29 -26,62 -11,31 -9,32 680,181 z"/>
<path fill="#D19392" stroke="none" d="M 2449,3317 l -384,-589 -26,17 -25,19 -24,20 -23,20 -22,22 -42,46 -19,25 565,420 z"/>
<path fill="#B9CD96" stroke="none" d="M 2449,3317 l -181,-680 -27,8 -52,18 -26,11 -25,12 -25,13 -48,29 384,589 z"/>
<path fill="#A99BBD" stroke="none" d="M 2449,3317 l 0,-704 -46,2 -45,4 -45,8 -45,10 181,680 z"/>
<path fill="#000000" stroke="none" d="M 2161,2678 l -288,-136 1,0 -43,0 0,-7 45,0 288,136 -3,7 z m -345,337 l -334,80 -44,0 0,-7 43,0 334,-80 1,7 z m -67,284 l -94,191 -4,2 -43,0 0,-7 43,0 -3,2 94,-191 7,3 z m 1281,-374 l 67,-165 2,-1 1,-1 43,0 0,7 -43,0 4,-2 -67,165 -7,-3 z m -1196,727 l -10,187 -1,2 -3,1 -43,0 0,-7 43,0 -3,3 10,-187 7,1 z m 745,353 l 119,54 -2,0 43,0 0,7 -44,0 -119,-54 3,-7 z m -441,-59 l -21,117 -1,2 -3,1 -43,0 0,-7 43,0 -3,3 21,-117 7,1 z m 216,-1325 l -41,-68 3,2 -43,0 0,-7 43,0 2,1 1,1 41,68 -6,3 z m 619,1160 l 117,-28 43,0 0,7 -43,0 1,0 -117,28 -1,-7 z m -1007,-973 l -256,-11 -43,0 0,-7 44,0 256,11 -1,7 z"/>
<text font-family="Calibri" font-size="95" fill="#000000"><tspan x="3159,3208,3248,3298,3342" y="2762">PLoS </tspan><tspan x="3363,3426,3476" y="2762">One</tspan><tspan x="3259,3307,3356" y="2878">31%</tspan><tspan x="3149,3201,3282,3333" y="3756">BMC </tspan><tspan x="3354,3414,3461,3511,3561,3637,3659,3699" y="3756">Genomics</tspan><tspan x="3360,3409,3458" y="3873">11%</tspan><tspan x="2943,2996,3076,3128" y="3968">BMC </tspan><tspan x="2755,2808,2829,2879,2901,2950,2979,3029,3062,3138,3183,3216,3237,3277" y="4085">Bioinformatics</tspan><tspan x="2953,3002,3050" y="4200">10%</tspan><tspan x="1782,1826,1866,1887" y="4076">Sci </tspan><tspan x="1909,1960,2008" y="4076">Rep</tspan><tspan x="1838,1886,1935" y="4193">10%</tspan><tspan x="1098,1160,1210,1250,1272,1319,1341,1381" y="3839">Nucleic </tspan><tspan x="1403,1457,1498,1519,1569,1606" y="3839">Acids </tspan><tspan x="1628,1680,1727" y="3839">Res</tspan><tspan x="1373,1422" y="3955">9%</tspan><tspan x="1067,1120,1201,1252" y="3489">BMC </tspan><tspan x="1273,1317,1360,1397,1429" y="3489">Syst </tspan><tspan x="1450,1503,1524,1574" y="3489">Biol</tspan><tspan x="1273,1322" y="3605">8%</tspan><tspan x="1109,1190,1240,1262" y="3092">Mol </tspan><tspan x="1284,1335,1383,1404,1426" y="3092">Cell </tspan><tspan x="1050,1099,1132,1182,1214,1262,1312,1388,1409,1449" y="3208">Proteomics</tspan><tspan x="1209,1258" y="3324">6%</tspan><tspan x="1095,1147,1168,1218,1240,1290,1318,1368,1401,1478,1523,1555,1576,1617" y="2794">Bioinformatics</tspan><tspan x="1316,1365" y="2910">6%</tspan><tspan x="1138,1187,1227,1277,1321" y="2539">PLoS </tspan><tspan x="1343,1394,1444,1520,1570,1620,1652" y="2539">Comput </tspan><tspan x="1673,1725,1747,1797" y="2539">Biol</tspan><tspan x="1420,1469" y="2655">5%</tspan><tspan x="1954,2014,2061,2111,2161,2237,2285" y="2436">Genome </tspan><tspan x="2306,2358,2380,2430" y="2436">Biol</tspan><tspan x="2144,2193" y="2552">4%</tspan></text>
<text font-family="Calibri" font-size="171" fill="#000000" font-weight="700"><tspan x="967,1037,1129,1220" y="2333">Top </tspan><tspan x="1259,1350,1432,1490,1582,1649,1719,1804,1895,1982" y="2333">Cytoscape </tspan><tspan x="2021,2112,2153,2212,2295,2354,2396,2488,2579" y="2333">Citation </tspan><tspan x="2619,2712,2799,2891,2982,3069,3137" y="2333">Venues </tspan><tspan x="3175,3256,3297,3389,3460,3547" y="2333">Since </tspan><tspan x="3586,3673,3760,3846" y="2333">2004</tspan></text>
<path fill="#868686" stroke="none" d="M 4492,2095 l 0,1 2,0 0,6 -4082,0 0,2134 -8,0 0,-2137 1,0 0,-2 1,0 0,-1 2,0 0,-1 4084,0 z"/>
<path fill="#868686" stroke="none" d="M 4494,2102 l 0,2141 -4089,0 0,-2 -1,0 0,-5 4084,0 0,-2134 6,0 z"/>
</g>
</svg>
