<?xml version="1.0" standalone="no"?>
<svg xml:space="preserve" width="100%" height="100%" viewBox="0 0 4897 6337" preserveAspectRatio="xMidYMid"
  fill-rule="nonzero" stroke-linecap="round" stroke-linejoin="round"
  xmlns="http://www.w3.org/2000/svg"
  xmlns:xlink="http://www.w3.org/1999/xlink"
  xmlns:svgmaker="http://www.svgmaker.com/svgns">
<svgmaker:init width="215.9mm" height="279.4mm" viewBox="0 0 4897 6337" view="fit"
  crop="none" cropWidth="180.3mm" cropHeight="98.0mm" cropBox="404 2058 4090 2222"/>
<title>Untitled</title>
<desc>
  Generated by SVGmaker V3 Version 3.61.E702.64
  DEC-06-2016, 14:49
</desc>
<defs><clipPath id="page_clip"><rect x="0" y="0" width="4897" height="6337"/></clipPath></defs>
<g id="Page_1" clip-path="url(#page_clip)" svgmaker:mediaBox="0 0 4897 6337">
<rect x="406" y="2060" width="4086" height="2218" fill="#FFFFFF" stroke="none"/>
<rect x="824" y="2528" width="2746" height="1098" fill="#FFFFFF" stroke="none"/>
<path fill="#868686" stroke="none" d="M 824,3441 l 2745,0 0,5 -2745,0 0,-5 z m 0,-183 l 2745,0 0,5 -2745,0 0,-5 z m 0,-183 l 2745,0 0,5 -2745,0 0,-5 z m 0,-183 l 2745,0 0,5 -2745,0 0,-5 z m 0,-183 l 2745,0 0,5 -2745,0 0,-5 z m 0,-183 l 2745,0 0,5 -2745,0 0,-5 z"/>
<rect x="822" y="2528" width="5" height="1098" fill="#868686" stroke="none"/>
<path fill="#868686" stroke="none" d="M 800,3624 l 24,0 0,5 -24,0 0,-5 z m 0,-183 l 24,0 0,5 -24,0 0,-5 z m 0,-183 l 24,0 0,5 -24,0 0,-5 z m 0,-183 l 24,0 0,5 -24,0 0,-5 z m 0,-183 l 24,0 0,5 -24,0 0,-5 z m 0,-183 l 24,0 0,5 -24,0 0,-5 z m 0,-183 l 24,0 0,5 -24,0 0,-5 z"/>
<rect x="824" y="3624" width="2745" height="5" fill="#868686" stroke="none"/>
<path fill="#868686" stroke="none" d="M 827,3626 l 0,23 -5,0 0,-23 5,0 z m 130,0 l 0,23 -5,0 0,-23 5,0 z m 131,0 l 0,23 -5,0 0,-23 5,0 z m 131,0 l 0,23 -5,0 0,-23 5,0 z m 131,0 l 0,23 -5,0 0,-23 5,0 z m 130,0 l 0,23 -5,0 0,-23 5,0 z m 131,0 l 0,23 -5,0 0,-23 5,0 z m 131,0 l 0,23 -5,0 0,-23 5,0 z m 131,0 l 0,23 -5,0 0,-23 5,0 z m 130,0 l 0,23 -5,0 0,-23 5,0 z m 131,0 l 0,23 -5,0 0,-23 5,0 z m 131,0 l 0,23 -5,0 0,-23 5,0 z m 130,0 l 0,23 -5,0 0,-23 5,0 z m 131,0 l 0,23 -5,0 0,-23 5,0 z m 131,0 l 0,23 -5,0 0,-23 5,0 z m 131,0 l 0,23 -5,0 0,-23 5,0 z m 130,0 l 0,23 -5,0 0,-23 5,0 z m 131,0 l 0,23 -5,0 0,-23 5,0 z m 131,0 l 0,23 -5,0 0,-23 5,0 z m 131,0 l 0,23 -5,0 0,-23 5,0 z m
 130,0 l 0,23 -5,0 0,-23 5,0 z m 131,0 l 0,23 -5,0 0,-23 5,0 z"/>
<path fill="#C00000" stroke="none" d="M 854,3603 l 65,-28 1,-1 66,-15 65,-21 -2,1 65,-34 66,-39 1,0 0,-1 65,-24 66,-16 66,-21 64,-22 67,-21 -2,1 65,-34 66,-29 67,-21 65,-21 -2,1 65,-33 1,0 1,-1 66,-14 65,-20 -1,1 65,-31 66,-23 66,-19 65,-25 66,-19 64,-27 66,-25 65,-27 65,-30 66,-23 66,-17 66,-18 65,-15 65,-19 67,-12 -2,1 65,-27 65,-25 67,-20 64,-22 66,-13 -2,1 66,-32 66,-28 65,-32 66,-25 3,0 6,2 2,6 -2,6 -3,1 -65,24 -66,32 -65,28 -66,32 0,1 -1,0 -64,13 -66,22 -65,19 -65,24 -65,27 -1,1 -1,0 -65,12 -65,19 -65,15 -66,18 -65,17 -65,21 -65,30 -65,28 -66,24 -66,29 -64,18 -67,26 -65,19 -65,21 -65,31 -1,1 -65,20 -66,14 2,-1 -65,33 -1,0 -1,1 -65,21 -65,19 -64,29 -65,34 -1,0 -1,1 -65,21
 -66,22 -66,21 -64,15 -65,24 1,0 -66,39 -65,34 -1,0 -1,1 -65,21 -66,15 1,-1 -65,28 -3,1 -6,-2 -2,-6 2,-6 3,-1 z"/>
<path fill="#C00000" stroke="none" d="M 3275,3370 l 31,-5 4,0 3,1 2,3 1,3 0,3 -2,3 -2,2 -3,1 -32,5 -3,0 -3,-2 -2,-2 -1,-3 0,-3 1,-3 3,-2 3,-1 z m -2164,217 l 6,-1 25,-4 3,0 3,1 2,2 1,3 0,3 -1,3 -2,2 -3,1 -26,5 -6,1 -3,0 -3,-2 -2,-2 -1,-3 0,-3 1,-3 3,-2 3,-1 z m 445,-49 l 19,-3 12,-2 4,1 2,1 2,2 1,3 0,4 -1,2 -2,2 -3,1 -13,2 -19,3 -3,0 -3,-2 -2,-2 -1,-3 0,-3 1,-3 3,-2 3,-1 z m 1400,-137 l 32,-5 3,0 3,1 2,3 1,3 0,3 -1,3 -3,2 -3,1 -31,5 -3,0 -3,-2 -2,-2 -1,-3 0,-3 1,-3 2,-2 3,-1 z m -1463,145 l 17,-2 14,-2 3,0 3,2 2,2 1,3 0,3 -2,3 -2,2 -3,1 -14,2 -18,2 -6,-2 -2,-3 -1,-3 1,-3 1,-2 3,-2 3,-1 z m
 126,-17 l 21,-3 11,-1 6,2 3,5 0,4 -4,4 -3,1 -11,1 -21,3 -3,0 -3,-2 -2,-2 -1,-3 2,-6 2,-2 3,-1 z m 191,-19 l 26,-4 6,-1 6,2 2,3 1,3 0,3 -2,3 -2,1 -3,1 -6,1 -26,3 -3,0 -3,-1 -2,-2 -1,-3 2,-6 2,-2 3,-1 z m 191,-20 l 31,-4 4,0 3,2 2,2 1,3 0,3 -2,3 -2,2 -3,1 -1,0 -31,4 -3,0 -3,-2 -2,-2 -1,-3 2,-6 2,-2 3,-1 z m 127,-15 l 32,-4 6,2 2,2 1,3 0,4 -4,4 -3,1 -32,4 -3,0 -3,-1 -2,-3 -1,-3 2,-6 2,-2 3,-1 z m 382,-39 l 32,-4 3,0 3,1 2,3 1,3 0,3 -2,3 -2,2 -3,1 -32,4 -3,0 -3,-1 -2,-3 -1,-3 2,-6 2,-2 3,-1 z m 828,-76 l 2,0 30,-4 6,2 2,2 1,3 0,4 -4,4 -3,1 -30,4 -5,0
 -3,-1 -2,-3 -1,-3 2,-6 2,-2 3,-1 z m 127,-17 l 6,-1 26,-3 3,0 3,1 2,3 1,3 0,3 -2,3 -2,2 -3,1 -26,3 -6,1 -3,0 -3,-2 -2,-2 -1,-3 0,-3 1,-3 3,-2 3,-1 z m -2292,233 l 10,-2 23,-2 3,0 3,1 2,6 0,3 -1,3 -3,2 -3,1 -22,2 -9,2 -3,0 -3,-2 -2,-2 -1,-3 0,-3 1,-3 2,-2 3,-1 z m 1274,-132 l 32,-4 6,2 1,2 1,3 0,4 -1,2 -3,2 -3,1 -32,4 -3,-1 -2,-1 -2,-3 -1,-3 0,-3 1,-2 3,-2 3,-1 z m 955,-92 l 3,0 28,-4 4,0 2,1 2,2 1,3 0,4 -1,3 -2,2 -3,1 -29,4 -6,0 -3,-1 -2,-3 -1,-3 0,-3 1,-3 3,-2 3,-1 z m -1528,151 l 28,-3 7,0 3,2 2,2 1,3 -2,6 -3,2 -3,1 -3,0 -29,3 -3,-1 -2,-1 -2,-3 -1,-3
 0,-3 4,-4 3,-1 z m 64,-6 l 29,-3 6,0 2,1 2,3 1,3 0,3 -1,3 -3,2 -3,1 -2,0 -30,3 -6,-2 -2,-3 -1,-3 1,-3 1,-2 3,-2 3,-1 z m -636,67 l 11,-1 20,-2 4,1 2,1 2,2 1,3 0,4 -4,4 -3,1 -21,2 -11,1 -6,-2 -2,-3 -1,-3 1,-3 1,-2 3,-2 3,-1 z m 63,-6 l 14,-1 18,-2 6,2 2,2 1,3 0,4 -4,4 -3,1 -18,2 -14,1 -3,0 -3,-2 -2,-2 -1,-3 0,-3 2,-3 2,-2 3,-1 z m 827,-90 l 32,-3 3,0 3,1 2,3 1,3 -2,6 -6,2 -31,4 -3,0 -3,-2 -2,-2 -1,-3 0,-3 2,-3 2,-2 3,-1 z m 127,-12 l 32,-3 4,0 4,4 1,3 0,3 -2,3 -2,2 -3,1 -32,3 -3,0 -3,-2 -2,-2 -1,-3 2,-6 2,-2 3,-1 z m 64,-6 l 32,-3 6,2 2,2 1,3 -2,6
 -6,3 -31,3 -3,0 -3,-2 -2,-2 -1,-3 2,-6 2,-2 3,-1 z m -700,72 l 23,-2 9,-1 6,2 2,3 1,3 -2,6 -6,2 -8,1 -24,2 -3,0 -4,-4 -1,-3 0,-3 2,-3 5,-3 z m 891,-93 l 32,-3 6,2 2,3 1,3 -2,6 -6,2 -32,3 -3,-1 -2,-1 -2,-3 -1,-3 0,-3 4,-4 3,-1 z m 128,-11 l 32,-3 6,2 2,6 0,3 -2,3 -2,1 -3,1 -32,3 -6,-2 -3,-6 1,-3 1,-2 3,-2 3,-1 z m -1655,176 l 5,0 27,-3 3,0 3,1 2,3 1,3 0,3 -2,3 -2,2 -3,1 -27,3 -8,0 -3,-1 -2,-3 -1,-3 2,-6 2,-2 3,-1 z m 1973,-203 l 32,-3 3,0 3,2 2,2 1,3 0,3 -2,3 -2,2 -3,1 -32,3 -3,0 -3,-2 -2,-2 -1,-3 0,-3 2,-3 2,-2 3,-1 z m 128,-12 l 32,-3 6,2 2,6 0,3 -2,3 -2,1
 -3,1 -32,3 -6,-2 -3,-6 1,-3 1,-2 3,-2 3,-1 z m -2292,233 l 32,-3 6,2 2,2 1,3 0,4 -4,4 -3,1 -32,3 -3,0 -3,-2 -2,-2 -1,-3 2,-6 2,-2 3,-1 z m 64,-6 l 1,0 31,-3 6,2 2,2 1,3 -1,4 -1,2 -3,2 -3,1 -30,3 -5,0 -4,-4 -1,-3 0,-3 2,-3 5,-3 z m 64,-6 l 3,0 29,-3 6,2 2,6 0,3 -2,3 -2,1 -3,1 -28,3 -7,0 -3,-2 -2,-2 -1,-3 2,-6 3,-2 3,-1 z m 1272,-138 l 32,-3 6,2 2,6 0,3 -2,3 -2,1 -3,1 -32,3 -3,0 -4,-4 -1,-3 0,-3 1,-3 3,-2 3,-1 z m -827,90 l 15,-2 17,-1 3,0 3,1 2,6 0,3 -2,3 -2,1 -3,1 -32,4 -3,-1 -2,-1 -2,-3 -1,-3 0,-3 1,-2 3,-2 3,-1 z m 636,-69 l 32,-4 6,2 1,2 1,3 0,4 -1,2
 -3,2 -3,1 -32,3 -3,0 -2,-1 -2,-3 -1,-3 0,-3 1,-2 3,-2 3,-1 z m -318,34 l 24,-2 7,-1 4,0 2,1 2,3 1,3 0,3 -1,3 -3,2 -3,1 -7,1 -25,2 -3,-1 -2,-1 -2,-3 -1,-3 0,-3 4,-4 3,-1 z m -510,51 l 11,-1 22,-1 3,0 3,2 1,2 1,3 0,3 -2,3 -5,3 -21,1 -11,1 -3,0 -3,-2 -2,-2 -1,-3 2,-6 2,-2 3,-1 z m 1975,-194 l 32,-2 6,2 1,2 1,3 0,4 -4,4 -3,1 -32,2 -6,-2 -2,-3 -1,-3 1,-3 1,-2 3,-2 3,-1 z m -574,49 l 32,-2 3,0 3,1 2,6 0,3 -2,3 -2,1 -3,1 -32,3 -3,0 -3,-1 -2,-3 -1,-3 2,-6 3,-2 3,-1 z m 191,-14 l 32,-2 4,1 2,1 2,3 1,3 -2,6 -6,2 -32,2 -3,0 -4,-4 -1,-3 2,-6 5,-3 z m 64,-4 l 32,-2 6,2
 3,6 -2,6 -6,2 -32,2 -3,0 -4,-4 -1,-3 2,-6 5,-3 z m -127,8 l 31,-2 4,1 2,1 2,3 1,3 -2,6 -6,2 -31,2 -3,0 -3,-2 -2,-2 -1,-3 2,-6 3,-2 3,-1 z m 318,-29 l 32,-2 3,0 3,1 2,6 0,3 -1,3 -3,2 -3,1 -32,2 -3,0 -2,-1 -2,-3 -1,-3 0,-3 1,-3 3,-2 3,-1 z m 445,-49 l 7,-1 3,0 3,2 2,2 1,3 0,3 -2,3 -2,2 -3,1 -7,1 -3,0 -3,-2 -2,-2 -1,-3 0,-3 1,-3 3,-2 3,-1 z"/>
<path fill="#376092" stroke="none" d="M 854,3550 l 65,-31 65,-37 66,-27 65,-25 66,-27 65,-26 65,-25 66,-25 65,-28 65,-35 65,-39 1,0 1,-1 65,-21 66,-21 65,-20 64,-27 66,-27 66,-19 -1,1 65,-29 67,-21 65,-18 66,-19 64,-24 65,-22 2,0 66,-9 65,-7 64,-13 66,-14 1,0 65,-4 66,-8 64,-13 65,-14 2,0 66,-3 64,-11 65,-10 65,-18 1,0 65,-6 65,-12 65,-20 1,0 65,-9 67,-2 65,0 3,1 3,2 1,2 1,3 -2,6 -6,2 -65,0 -65,2 -65,9 1,0 -67,20 -65,12 -65,6 1,0 -67,18 -65,10 -66,11 -66,3 2,0 -65,14 -66,13 -67,8 -65,4 2,0 -66,14 -66,13 -65,7 -66,9 2,0 -65,21 -66,25 -66,19 -65,18 -65,19 -65,29 0,1 -1,0 -64,17 -66,27 -66,29 -65,20 -66,21 -65,21 2,-1 -65,39 -67,35 -65,29 -66,24 -65,25 -65,26
 -66,28 -65,24 -64,27 -67,37 -65,31 -3,1 -3,-1 -2,-1 -2,-3 -1,-3 1,-3 1,-2 3,-2 z"/>
<path fill="#376092" stroke="none" d="M 1491,3527 l 19,-3 13,-2 6,2 2,2 1,3 0,3 -2,3 -2,2 -3,1 -13,2 -18,3 -3,0 -6,-4 -1,-3 2,-6 2,-2 3,-1 z m -445,52 l 6,-1 26,-3 4,1 2,1 2,2 1,3 0,4 -4,4 -3,1 -26,3 -6,1 -3,0 -3,-2 -2,-2 -1,-3 2,-6 2,-2 3,-1 z m 64,-7 l 7,-1 25,-3 3,0 3,1 2,3 1,3 0,3 -2,3 -2,2 -3,1 -25,3 -7,1 -3,0 -3,-2 -2,-2 -1,-3 2,-6 2,-2 3,-1 z m 318,-36 l 16,-2 15,-2 4,0 3,1 2,2 1,3 0,4 -4,4 -3,1 -16,3 -16,2 -3,0 -3,-1 -2,-3 -1,-3 0,-3 2,-3 2,-2 3,-1 z m -572,67 l 32,-4 6,2 2,2 1,3 0,3 -2,3 -2,2 -3,1 -32,4 -3,0 -3,-2 -2,-2 -1,-3 0,-3 2,-3 2,-2 3,-1 z m 64,-8 l 1,0 30,-4 3,0 3,1
 2,3 1,3 0,3 -1,3 -3,2 -3,1 -30,4 -5,0 -2,-1 -2,-3 -1,-3 0,-3 1,-3 3,-2 3,-1 z m 635,-77 l 20,-3 12,-1 6,2 1,2 1,3 0,4 -4,4 -3,1 -11,1 -20,3 -3,0 -3,-2 -2,-2 -1,-3 0,-3 1,-3 3,-2 3,-1 z m -254,32 l 12,-1 20,-2 6,2 2,2 1,3 -1,4 -1,2 -3,2 -3,1 -19,2 -12,1 -3,0 -3,-2 -2,-2 -1,-3 0,-3 2,-3 5,-3 z m -318,37 l 4,-1 28,-3 3,0 3,1 2,3 1,3 0,3 -2,3 -2,2 -3,1 -28,3 -7,0 -3,-1 -2,-2 -1,-3 0,-3 1,-3 3,-2 3,-1 z m 254,-31 l 11,-1 21,-2 6,2 3,5 0,4 -4,4 -3,1 -21,2 -11,1 -3,0 -3,-2 -2,-2 -1,-3 2,-6 2,-2 3,-1 z m 382,-44 l 21,-2 11,-1 6,2 2,6 0,3 -2,3 -2,1 -3,1 -10,1
 -22,2 -6,-2 -2,-3 -1,-3 1,-3 1,-2 3,-2 3,-1 z m 64,-5 l 23,-2 8,-1 4,1 2,1 2,3 1,3 0,3 -2,3 -2,1 -3,1 -8,1 -24,2 -6,-2 -3,-6 1,-3 1,-2 3,-2 3,-1 z m 63,-5 l 25,-2 7,-1 6,2 2,2 1,3 0,4 -4,4 -3,1 -7,1 -25,2 -3,0 -3,-2 -2,-2 -1,-3 2,-6 2,-2 3,-1 z m 255,-23 l 31,-3 1,0 6,2 3,5 -1,4 -1,2 -3,2 -3,1 -31,3 -3,0 -3,-1 -2,-3 -1,-3 0,-3 2,-3 2,-2 3,-1 z m 128,-11 l 32,-3 6,2 1,2 1,3 0,4 -4,4 -3,1 -32,3 -3,0 -3,-2 -2,-2 -1,-3 2,-6 6,-3 z m 64,-5 l 31,-3 4,1 2,1 2,3 1,3 0,3 -2,3 -2,1 -3,1 -32,3 -6,-2 -3,-6 1,-3 1,-2 3,-2 3,-1 z m 127,-9 l 32,-3 3,0 3,2 2,2
 1,3 -2,6 -3,2 -3,1 -31,3 -6,-2 -2,-3 -1,-3 0,-3 4,-4 3,-1 z m -1147,109 l 10,-1 22,-2 4,0 2,1 2,3 1,3 0,3 -1,3 -3,2 -3,1 -22,2 -9,1 -3,0 -3,-1 -2,-3 -1,-3 0,-3 1,-3 2,-2 3,-1 z m 192,-19 l 14,-1 17,-2 4,0 2,1 2,2 1,3 0,4 -1,2 -3,2 -3,1 -17,3 -15,1 -3,0 -4,-4 -1,-3 0,-3 1,-3 3,-2 3,-1 z m 445,-49 l 26,-3 9,0 3,2 1,2 1,3 0,3 -2,3 -5,3 -5,0 -26,3 -3,0 -3,-1 -2,-3 -1,-3 0,-3 1,-3 3,-2 3,-1 z m 1469,-88 l 32,-3 6,2 2,6 0,3 -2,3 -2,1 -3,1 -32,3 -3,-1 -2,-1 -2,-3 -1,-3 0,-3 4,-4 3,-1 z m -1214,67 l 32,-3 6,2 2,2 1,3 -1,4 -1,2 -3,2 -3,1 -32,2 -3,0 -2,-1 -2,-3
 -1,-3 0,-3 4,-4 3,-1 z m 192,-16 l 31,-2 4,1 2,1 2,3 1,3 -2,6 -6,2 -31,2 -3,0 -3,-2 -2,-2 -1,-3 2,-6 6,-3 z m -383,32 l 28,-2 7,0 3,2 1,2 1,3 0,3 -2,3 -5,3 -4,0 -28,2 -6,-2 -3,-6 1,-3 1,-2 3,-2 3,-1 z m 574,-43 l 32,-2 3,1 3,2 3,5 -2,6 -6,2 -32,2 -3,-1 -2,-1 -2,-3 -1,-3 0,-3 4,-4 3,-1 z m 128,-7 l 32,-2 6,2 1,2 1,3 0,4 -4,4 -3,1 -32,2 -6,-2 -3,-6 1,-3 4,-4 3,-1 z m 256,-12 l 32,-2 6,2 2,6 0,3 -2,3 -2,1 -3,1 -32,2 -3,0 -3,-2 -2,-2 -1,-3 2,-6 3,-2 3,-1 z m 192,-8 l 32,-2 6,2 2,6 -2,6 -6,2 -32,2 -3,-1 -2,-1 -2,-3 -1,-3 2,-6 6,-2 z m 63,-4 l 32,-2 6,2 3,5 -1,4 -1,2
 -3,2 -3,1 -32,2 -3,0 -4,-4 -1,-3 2,-6 5,-3 z m 128,-6 l 32,-2 6,2 3,6 -2,6 -6,2 -32,2 -3,-1 -2,-1 -2,-3 -1,-3 0,-3 4,-4 3,-1 z m -1277,75 l 29,-2 6,0 2,1 2,3 1,3 0,3 -2,3 -2,2 -3,1 -2,0 -30,2 -3,0 -3,-2 -3,-5 2,-6 6,-3 z m 574,-41 l 32,-2 3,0 3,2 1,2 1,3 0,3 -2,3 -5,3 -32,2 -3,-1 -2,-1 -2,-3 -1,-3 0,-3 4,-4 3,-1 z m 384,-19 l 32,-1 3,0 3,2 1,2 1,3 -2,6 -6,3 -32,1 -3,-1 -2,-1 -2,-3 -1,-3 2,-6 6,-2 z m 64,-3 l 32,-1 6,2 2,6 -2,6 -6,2 -32,1 -3,0 -4,-4 -1,-3 2,-6 6,-3 z m -576,27 l 32,-1 4,1 4,4 1,3 -2,6 -6,2 -32,1 -6,-2 -2,-6 1,-3 1,-2 2,-2 3,-1 z m 256,-13 l 32,-1 3,1
 3,2 1,2 1,3 0,3 -2,3 -2,1 -3,1 -32,1 -3,0 -3,-2 -2,-2 -1,-3 1,-3 2,-3 5,-3 z m 511,-24 l 32,-1 4,1 2,1 2,3 1,3 -2,6 -6,2 -32,1 -3,-1 -2,-1 -2,-3 -1,-3 1,-3 1,-2 2,-2 3,-1 z m -447,22 l 32,-1 6,2 1,2 1,3 0,4 -4,4 -3,1 -32,1 -3,0 -3,-2 -2,-2 -1,-3 2,-6 3,-2 3,-1 z m 64,-3 l 32,-1 6,2 1,2 1,3 0,4 -4,4 -3,1 -32,1 -3,0 -3,-2 -2,-2 -1,-3 2,-6 3,-2 3,-1 z m 575,-29 l 32,-1 3,1 3,2 1,2 1,3 0,3 -2,3 -2,1 -3,1 -32,1 -6,-2 -2,-3 -1,-3 1,-3 4,-4 3,-1 z m 64,-1 l 32,0 3,1 3,2 1,2 1,3 -2,6 -6,2 -32,0 -3,-1 -2,-1 -2,-3 -1,-3 1,-3 4,-4 3,-1 z m 64,0 l 32,0 3,1
 3,2 1,2 1,3 -2,6 -6,2 -32,0 -3,-1 -2,-1 -2,-3 -1,-3 1,-3 4,-4 3,-1 z m 64,0 l 2,0 3,1 3,2 1,2 1,3 -2,6 -6,2 -2,0 -3,-1 -2,-1 -2,-3 -1,-3 1,-3 4,-4 3,-1 z"/>
<path fill="#3D96AE" stroke="none" d="M 3505,3616 l 0,1 32,0 0,1 4,0 0,1 2,0 0,1 1,0 0,2 1,0 0,7 -1,0 0,1 -210,0 0,-3 -1,0 0,-1 1,0 0,-3 1,0 0,-2 1,0 0,-1 2,0 0,-1 3,0 0,-1 65,0 0,-1 33,0 0,-1 66,0 z"/>
<path fill="#DA8137" stroke="none" d="M 3541,3613 l 0,1 2,0 0,1 1,0 0,2 1,0 0,7 -1,0 0,2 -1,0 0,1 -2,0 0,1 -4,0 0,1 -65,0 0,1 -138,0 0,-3 -1,0 0,-1 1,0 0,-3 1,0 0,-2 1,0 0,-1 2,0 0,-1 3,0 0,-1 65,0 0,-1 17,0 0,-1 16,0 0,-1 16,0 0,-1 16,0 0,-1 70,0 z"/>
<text font-family="Calibri" font-size="73" fill="#000000"><tspan x="721" y="3648">0</tspan><tspan x="610,647,684,721" y="3465">1000</tspan><tspan x="610,647,684,721" y="3282">2000</tspan><tspan x="610,647,684,721" y="3099">3000</tspan><tspan x="610,647,684,721" y="2916">4000</tspan><tspan x="610,647,684,721" y="2732">5000</tspan><tspan x="610,647,684,721" y="2549">6000</tspan></text>
<text font-family="Calibri" font-size="73" fill="#000000" transform="translate(883,3909) rotate(-90)"><tspan x="0,42,80,106,123,139" y="0">April-</tspan><tspan x="161,199" y="0">13</tspan></text>
<text font-family="Calibri" font-size="73" fill="#000000" transform="translate(1014,3906) rotate(-90)"><tspan x="0,24,62,100,136" y="0">June-</tspan><tspan x="159,195" y="0">13</tspan></text>
<text font-family="Calibri" font-size="73" fill="#000000" transform="translate(1144,3976) rotate(-90)"><tspan x="0,42,80,115,153,182,206" y="0">August-</tspan><tspan x="229,266" y="0">13</tspan></text>
<text font-family="Calibri" font-size="73" fill="#000000" transform="translate(1275,4012) rotate(-90)"><tspan x="0,48,79,104,142,181,217,243" y="0">October-</tspan><tspan x="265,302" y="0">13</tspan></text>
<text font-family="Calibri" font-size="73" fill="#000000" transform="translate(1406,4077) rotate(-90)"><tspan x="0,45,82,113,149,208,246,281,307" y="0">December-</tspan><tspan x="330,366" y="0">13</tspan></text>
<text font-family="Calibri" font-size="73" fill="#000000" transform="translate(1537,4035) rotate(-90)"><tspan x="0,34,70,108,133,172,207,233,265" y="0">February-</tspan><tspan x="287,325" y="0">14</tspan></text>
<text font-family="Calibri" font-size="73" fill="#000000" transform="translate(1667,3909) rotate(-90)"><tspan x="0,42,80,106,123,139" y="0">April-</tspan><tspan x="161,199" y="0">14</tspan></text>
<text font-family="Calibri" font-size="73" fill="#000000" transform="translate(1798,3906) rotate(-90)"><tspan x="0,24,62,100,136" y="0">June-</tspan><tspan x="159,195" y="0">14</tspan></text>
<text font-family="Calibri" font-size="73" fill="#000000" transform="translate(1929,3976) rotate(-90)"><tspan x="0,42,80,115,153,182,206" y="0">August-</tspan><tspan x="229,266" y="0">14</tspan></text>
<text font-family="Calibri" font-size="73" fill="#000000" transform="translate(2060,4012) rotate(-90)"><tspan x="0,48,79,104,142,181,217,243" y="0">October-</tspan><tspan x="265,302" y="0">14</tspan></text>
<text font-family="Calibri" font-size="73" fill="#000000" transform="translate(2190,4077) rotate(-90)"><tspan x="0,45,82,113,149,208,246,281,307" y="0">December-</tspan><tspan x="330,366" y="0">14</tspan></text>
<text font-family="Calibri" font-size="73" fill="#000000" transform="translate(2321,4035) rotate(-90)"><tspan x="0,34,70,108,133,172,207,233,265" y="0">February-</tspan><tspan x="287,325" y="0">15</tspan></text>
<text font-family="Calibri" font-size="73" fill="#000000" transform="translate(2452,3909) rotate(-90)"><tspan x="0,42,80,106,123,139" y="0">April-</tspan><tspan x="161,199" y="0">15</tspan></text>
<text font-family="Calibri" font-size="73" fill="#000000" transform="translate(2582,3906) rotate(-90)"><tspan x="0,24,62,100,136" y="0">June-</tspan><tspan x="159,195" y="0">15</tspan></text>
<text font-family="Calibri" font-size="73" fill="#000000" transform="translate(2713,3976) rotate(-90)"><tspan x="0,42,80,115,153,182,206" y="0">August-</tspan><tspan x="229,266" y="0">15</tspan></text>
<text font-family="Calibri" font-size="73" fill="#000000" transform="translate(2844,4012) rotate(-90)"><tspan x="0,48,79,104,142,181,217,243" y="0">October-</tspan><tspan x="265,302" y="0">15</tspan></text>
<text font-family="Calibri" font-size="73" fill="#000000" transform="translate(2975,4077) rotate(-90)"><tspan x="0,45,82,113,149,208,246,281,307" y="0">December-</tspan><tspan x="330,366" y="0">15</tspan></text>
<text font-family="Calibri" font-size="73" fill="#000000" transform="translate(3105,4035) rotate(-90)"><tspan x="0,34,70,108,133,172,207,233,265" y="0">February-</tspan><tspan x="287,325" y="0">16</tspan></text>
<text font-family="Calibri" font-size="73" fill="#000000" transform="translate(3236,3909) rotate(-90)"><tspan x="0,42,80,106,123,139" y="0">April-</tspan><tspan x="161,199" y="0">16</tspan></text>
<text font-family="Calibri" font-size="73" fill="#000000" transform="translate(3367,3906) rotate(-90)"><tspan x="0,24,62,100,136" y="0">June-</tspan><tspan x="159,195" y="0">16</tspan></text>
<text font-family="Calibri" font-size="73" fill="#000000" transform="translate(3498,3976) rotate(-90)"><tspan x="0,42,80,115,153,182,206" y="0">August-</tspan><tspan x="229,266" y="0">16</tspan></text>
<text font-family="Calibri" font-size="73" fill="#000000" font-weight="700" transform="translate(568,3169) rotate(-90)"><tspan x="0,38,77,117,156" y="0">Count</tspan></text>
<text font-family="Calibri" font-size="73" fill="#000000" font-weight="700"><tspan x="2094,2158,2197,2236,2262" y="4168">Month</tspan></text>
<text font-family="Calibri" font-size="131" fill="#000000" font-weight="700"><tspan x="1395,1464,1534,1641,1711,1743,1807,1853,1885,1946,2013" y="2241">Cumulative </tspan><tspan x="2043,2127,2197,2267,2329,2361,2428" y="2241">Google </tspan><tspan x="2458,2542,2587,2657,2727,2797,2849" y="2241">Groups </tspan><tspan x="2881,2949,3019,3070,3115" y="2241">Post/</tspan><tspan x="3172,3226,3296,3366,3398,3453" y="2241">Topics</tspan><tspan x="1905,1946,2013" y="2401">(4/</tspan><tspan x="2069,2136,2202" y="2401">13 </tspan><tspan x="2232,2277,2348,2392,2463,2533,2595,2665" y="2401">through </tspan><tspan x="2697,2764" y="2401">9/</tspan><tspan x="2820,2887,2954" y="2401">16)</tspan></text>
<path fill="#C00000" stroke="none" d="M 3689,3025 l 184,0 3,1 3,2 1,2 1,3 -2,6 -6,2 -184,0 -3,-1 -2,-1 -2,-3 -1,-3 1,-3 4,-4 3,-1 z"/>
<text font-family="Calibri" font-size="73" fill="#000000"><tspan x="3895,3932,3972,4000,4025,4053,4069,4091" y="3054">Posts - </tspan><tspan x="4108,4153,4190,4207,4245,4290,4327,4355" y="3054">HelpDesk</tspan></text>
<path fill="#C00000" stroke="none" d="M 3689,3157 l 32,0 3,1 3,2 1,2 1,3 -2,6 -6,2 -32,0 -3,-1 -2,-1 -2,-3 -1,-3 1,-3 4,-4 3,-1 z m 64,0 l 32,0 3,1 3,2 1,2 1,3 -2,6 -6,2 -32,0 -3,-1 -2,-1 -2,-3 -1,-3 1,-3 4,-4 3,-1 z m 64,0 l 32,0 3,1 3,2 1,2 1,3 -2,6 -6,2 -32,0 -3,-1 -2,-1 -2,-3 -1,-3 1,-3 4,-4 3,-1 z"/>
<text font-family="Calibri" font-size="73" fill="#000000"><tspan x="3895,3931,3969,4007,4025,4055,4084,4100,4122" y="3186">Topics - </tspan><tspan x="4139,4184,4221,4237,4276,4321,4357,4386" y="3186">HelpDesk</tspan></text>
<path fill="#376092" stroke="none" d="M 3689,3289 l 184,0 3,1 3,2 1,2 1,3 -2,6 -6,2 -184,0 -3,-1 -2,-1 -2,-3 -1,-3 1,-3 4,-4 3,-1 z"/>
<text font-family="Calibri" font-size="73" fill="#000000"><tspan x="3895,3932,3972,4000,4025,4053,4069,4091" y="3318">Posts - </tspan><tspan x="4108,4153,4170,4198,4229,4267,4297" y="3318">Discuss</tspan></text>
<path fill="#376092" stroke="none" d="M 3689,3421 l 32,0 3,1 3,2 1,2 1,3 -2,6 -6,2 -32,0 -3,-1 -2,-1 -2,-3 -1,-3 1,-3 4,-4 3,-1 z m 64,0 l 32,0 3,1 3,2 1,2 1,3 -2,6 -6,2 -32,0 -3,-1 -2,-1 -2,-3 -1,-3 1,-3 4,-4 3,-1 z m 64,0 l 32,0 3,1 3,2 1,2 1,3 -2,6 -6,2 -32,0 -3,-1 -2,-1 -2,-3 -1,-3 1,-3 4,-4 3,-1 z"/>
<text font-family="Calibri" font-size="73" fill="#000000"><tspan x="3895,3931,3969,4007,4025,4055,4084,4100,4122" y="3450">Topics - </tspan><tspan x="4139,4184,4201,4229,4260,4298,4327" y="3450">Discuss</tspan></text>
<path fill="#3D96AE" stroke="none" d="M 3689,3553 l 184,0 3,1 3,2 1,2 1,3 -2,6 -6,2 -184,0 -3,-1 -2,-1 -2,-3 -1,-3 1,-3 4,-4 3,-1 z"/>
<text font-family="Calibri" font-size="73" fill="#000000"><tspan x="3895,3932,3972,4000,4025,4053,4069,4091" y="3582">Posts - </tspan><tspan x="4108,4150,4189,4227,4272,4308" y="3582">AppDev</tspan></text>
<path fill="#DA8137" stroke="none" d="M 3689,3685 l 184,0 3,1 3,2 1,2 1,3 -2,6 -6,2 -184,0 -3,-1 -2,-1 -2,-3 -1,-3 1,-3 4,-4 3,-1 z"/>
<text font-family="Calibri" font-size="73" fill="#000000"><tspan x="3895,3931,3969,4007,4025,4055,4084,4100,4122" y="3714">Topics - </tspan><tspan x="4139,4182,4220,4258,4303,4339" y="3714">AppDev</tspan></text>
<path fill="#868686" stroke="none" d="M 4492,2058 l 0,1 2,0 0,4 -4084,0 0,2213 -6,0 0,-2215 1,0 0,-2 2,0 0,-1 4085,0 z"/>
<path fill="#868686" stroke="none" d="M 4494,2063 l 0,2217 -4090,0 0,-4 4086,0 0,-2213 4,0 z"/>
</g>
</svg>
