<?xml version="1.0" standalone="no"?>
<svg xml:space="preserve" width="100%" height="100%" viewBox="0 0 4897 6337" preserveAspectRatio="xMidYMid"
  fill-rule="nonzero" stroke-linecap="round" stroke-linejoin="round"
  xmlns="http://www.w3.org/2000/svg"
  xmlns:xlink="http://www.w3.org/1999/xlink"
  xmlns:svgmaker="http://www.svgmaker.com/svgns">
<svgmaker:init width="215.9mm" height="279.4mm" viewBox="0 0 4897 6337" view="fit"
  crop="none" cropWidth="180.3mm" cropHeight="111.4mm" cropBox="404 1906 4090 2526"/>
<title>Untitled</title>
<desc>
  Generated by SVGmaker V3 Version 3.61.E702.64
  DEC-06-2016, 14:50
</desc>
<defs><clipPath id="page_clip"><rect x="0" y="0" width="4897" height="6337"/></clipPath></defs>
<g id="Page_1" clip-path="url(#page_clip)" svgmaker:mediaBox="0 0 4897 6337">
<rect x="407" y="1908" width="4085" height="2521" fill="#FFFFFF" stroke="none"/>
<rect x="888" y="2447" width="2886" height="1480" fill="#FFFFFF" stroke="none"/>
<path fill="#868686" stroke="none" d="M 888,3677 l 2886,0 0,6 -2886,0 0,-6 z m 0,-247 l 2886,0 0,6 -2886,0 0,-6 z m 0,-246 l 2886,0 0,6 -2886,0 0,-6 z m 0,-247 l 2886,0 0,6 -2886,0 0,-6 z m 0,-246 l 2886,0 0,6 -2886,0 0,-6 z m 0,-247 l 2886,0 0,6 -2886,0 0,-6 z"/>
<rect x="885" y="2447" width="6" height="1480" fill="#868686" stroke="none"/>
<path fill="#868686" stroke="none" d="M 862,3924 l 26,0 0,6 -26,0 0,-6 z m 0,-247 l 26,0 0,6 -26,0 0,-6 z m 0,-247 l 26,0 0,6 -26,0 0,-6 z m 0,-246 l 26,0 0,6 -26,0 0,-6 z m 0,-247 l 26,0 0,6 -26,0 0,-6 z m 0,-246 l 26,0 0,6 -26,0 0,-6 z m 0,-247 l 26,0 0,6 -26,0 0,-6 z"/>
<rect x="888" y="3924" width="2886" height="6" fill="#868686" stroke="none"/>
<path fill="#868686" stroke="none" d="M 891,3927 l 0,26 -6,0 0,-26 6,0 z m 20,0 l 0,26 -6,0 0,-26 6,0 z m 20,0 l 0,26 -6,0 0,-26 6,0 z m 19,0 l 0,26 -6,0 0,-26 6,0 z m 20,0 l 0,26 -6,0 0,-26 6,0 z m 20,0 l 0,26 -6,0 0,-26 6,0 z m 19,0 l 0,26 -6,0 0,-26 6,0 z m 20,0 l 0,26 -6,0 0,-26 6,0 z m 19,0 l 0,26 -6,0 0,-26 6,0 z m 20,0 l 0,26 -6,0 0,-26 6,0 z m 20,0 l 0,26 -6,0 0,-26 6,0 z m 19,0 l 0,26 -6,0 0,-26 6,0 z m 20,0 l 0,26 -6,0 0,-26 6,0 z m 20,0 l 0,26 -6,0 0,-26 6,0 z m 19,0 l 0,26 -6,0 0,-26 6,0 z m 20,0 l 0,26 -6,0 0,-26 6,0 z m 19,0 l 0,26 -6,0 0,-26 6,0 z m 20,0 l 0,26 -6,0 0,-26 6,0 z"/>
<path fill="#868686" stroke="none" d="M 1245,3927 l 0,26 -6,0 0,-26 6,0 z m 19,0 l 0,26 -6,0 0,-26 6,0 z m 20,0 l 0,26 -6,0 0,-26 6,0 z m 20,0 l 0,26 -6,0 0,-26 6,0 z m 19,0 l 0,26 -6,0 0,-26 6,0 z m 20,0 l 0,26 -6,0 0,-26 6,0 z m 19,0 l 0,26 -6,0 0,-26 6,0 z m 20,0 l 0,26 -6,0 0,-26 6,0 z m 20,0 l 0,26 -6,0 0,-26 6,0 z m 19,0 l 0,26 -6,0 0,-26 6,0 z m 20,0 l 0,26 -6,0 0,-26 6,0 z m 20,0 l 0,26 -6,0 0,-26 6,0 z m 19,0 l 0,26 -6,0 0,-26 6,0 z m 20,0 l 0,26 -6,0 0,-26 6,0 z m 20,0 l 0,26 -6,0 0,-26 6,0 z m 19,0 l 0,26 -6,0 0,-26 6,0 z m 20,0 l 0,26 -6,0 0,-26 6,0 z m 19,0 l 0,26 -6,0 0,-26 6,0 z"/>
<path fill="#868686" stroke="none" d="M 1598,3927 l 0,26 -6,0 0,-26 6,0 z m 20,0 l 0,26 -6,0 0,-26 6,0 z m 19,0 l 0,26 -6,0 0,-26 6,0 z m 20,0 l 0,26 -6,0 0,-26 6,0 z m 20,0 l 0,26 -6,0 0,-26 6,0 z m 19,0 l 0,26 -6,0 0,-26 6,0 z m 20,0 l 0,26 -6,0 0,-26 6,0 z m 19,0 l 0,26 -6,0 0,-26 6,0 z m 20,0 l 0,26 -6,0 0,-26 6,0 z m 20,0 l 0,26 -6,0 0,-26 6,0 z m 19,0 l 0,26 -6,0 0,-26 6,0 z m 20,0 l 0,26 -6,0 0,-26 6,0 z m 20,0 l 0,26 -6,0 0,-26 6,0 z m 19,0 l 0,26 -6,0 0,-26 6,0 z m 20,0 l 0,26 -6,0 0,-26 6,0 z m 19,0 l 0,26 -6,0 0,-26 6,0 z m 20,0 l 0,26 -6,0 0,-26 6,0 z m 20,0 l 0,26 -6,0 0,-26 6,0 z"/>
<path fill="#868686" stroke="none" d="M 1951,3927 l 0,26 -6,0 0,-26 6,0 z m 20,0 l 0,26 -6,0 0,-26 6,0 z m 20,0 l 0,26 -6,0 0,-26 6,0 z m 19,0 l 0,26 -6,0 0,-26 6,0 z m 20,0 l 0,26 -6,0 0,-26 6,0 z m 20,0 l 0,26 -6,0 0,-26 6,0 z m 19,0 l 0,26 -6,0 0,-26 6,0 z m 20,0 l 0,26 -6,0 0,-26 6,0 z m 19,0 l 0,26 -6,0 0,-26 6,0 z m 20,0 l 0,26 -6,0 0,-26 6,0 z m 20,0 l 0,26 -6,0 0,-26 6,0 z m 19,0 l 0,26 -6,0 0,-26 6,0 z m 20,0 l 0,26 -6,0 0,-26 6,0 z m 20,0 l 0,26 -6,0 0,-26 6,0 z m 19,0 l 0,26 -6,0 0,-26 6,0 z m 20,0 l 0,26 -6,0 0,-26 6,0 z m 19,0 l 0,26 -6,0 0,-26 6,0 z m 20,0 l 0,26 -6,0 0,-26 6,0 z"/>
<path fill="#868686" stroke="none" d="M 2305,3927 l 0,26 -6,0 0,-26 6,0 z m 19,0 l 0,26 -6,0 0,-26 6,0 z m 20,0 l 0,26 -6,0 0,-26 6,0 z m 20,0 l 0,26 -6,0 0,-26 6,0 z m 19,0 l 0,26 -6,0 0,-26 6,0 z m 20,0 l 0,26 -6,0 0,-26 6,0 z m 19,0 l 0,26 -6,0 0,-26 6,0 z m 20,0 l 0,26 -6,0 0,-26 6,0 z m 20,0 l 0,26 -6,0 0,-26 6,0 z m 19,0 l 0,26 -6,0 0,-26 6,0 z m 20,0 l 0,26 -6,0 0,-26 6,0 z m 20,0 l 0,26 -6,0 0,-26 6,0 z m 19,0 l 0,26 -6,0 0,-26 6,0 z m 20,0 l 0,26 -6,0 0,-26 6,0 z m 20,0 l 0,26 -6,0 0,-26 6,0 z m 19,0 l 0,26 -6,0 0,-26 6,0 z m 20,0 l 0,26 -6,0 0,-26 6,0 z m 19,0 l 0,26 -6,0 0,-26 6,0 z"/>
<path fill="#868686" stroke="none" d="M 2658,3927 l 0,26 -6,0 0,-26 6,0 z m 20,0 l 0,26 -6,0 0,-26 6,0 z m 19,0 l 0,26 -6,0 0,-26 6,0 z m 20,0 l 0,26 -6,0 0,-26 6,0 z m 20,0 l 0,26 -6,0 0,-26 6,0 z m 19,0 l 0,26 -6,0 0,-26 6,0 z m 20,0 l 0,26 -6,0 0,-26 6,0 z m 19,0 l 0,26 -6,0 0,-26 6,0 z m 20,0 l 0,26 -6,0 0,-26 6,0 z m 20,0 l 0,26 -6,0 0,-26 6,0 z m 19,0 l 0,26 -6,0 0,-26 6,0 z m 20,0 l 0,26 -6,0 0,-26 6,0 z m 20,0 l 0,26 -6,0 0,-26 6,0 z m 19,0 l 0,26 -6,0 0,-26 6,0 z m 20,0 l 0,26 -6,0 0,-26 6,0 z m 20,0 l 0,26 -6,0 0,-26 6,0 z m 19,0 l 0,26 -6,0 0,-26 6,0 z m 20,0 l 0,26 -6,0 0,-26 6,0 z"/>
<path fill="#868686" stroke="none" d="M 3011,3927 l 0,26 -6,0 0,-26 6,0 z m 20,0 l 0,26 -6,0 0,-26 6,0 z m 20,0 l 0,26 -6,0 0,-26 6,0 z m 19,0 l 0,26 -6,0 0,-26 6,0 z m 20,0 l 0,26 -6,0 0,-26 6,0 z m 20,0 l 0,26 -6,0 0,-26 6,0 z m 19,0 l 0,26 -6,0 0,-26 6,0 z m 20,0 l 0,26 -6,0 0,-26 6,0 z m 19,0 l 0,26 -6,0 0,-26 6,0 z m 20,0 l 0,26 -6,0 0,-26 6,0 z m 20,0 l 0,26 -6,0 0,-26 6,0 z m 19,0 l 0,26 -6,0 0,-26 6,0 z m 20,0 l 0,26 -6,0 0,-26 6,0 z m 20,0 l 0,26 -6,0 0,-26 6,0 z m 19,0 l 0,26 -6,0 0,-26 6,0 z m 20,0 l 0,26 -6,0 0,-26 6,0 z m 19,0 l 0,26 -6,0 0,-26 6,0 z m 20,0 l 0,26 -6,0 0,-26 6,0 z"/>
<path fill="#868686" stroke="none" d="M 3365,3927 l 0,26 -6,0 0,-26 6,0 z m 19,0 l 0,26 -6,0 0,-26 6,0 z m 20,0 l 0,26 -6,0 0,-26 6,0 z m 20,0 l 0,26 -6,0 0,-26 6,0 z m 19,0 l 0,26 -6,0 0,-26 6,0 z m 20,0 l 0,26 -6,0 0,-26 6,0 z m 20,0 l 0,26 -6,0 0,-26 6,0 z m 19,0 l 0,26 -6,0 0,-26 6,0 z m 20,0 l 0,26 -6,0 0,-26 6,0 z m 19,0 l 0,26 -6,0 0,-26 6,0 z m 20,0 l 0,26 -6,0 0,-26 6,0 z m 20,0 l 0,26 -6,0 0,-26 6,0 z m 19,0 l 0,26 -6,0 0,-26 6,0 z m 20,0 l 0,26 -6,0 0,-26 6,0 z m 20,0 l 0,26 -6,0 0,-26 6,0 z m 19,0 l 0,26 -6,0 0,-26 6,0 z m 20,0 l 0,26 -6,0 0,-26 6,0 z m 19,0 l 0,26 -6,0 0,-26 6,0 z m 20,0 l 0,26 -6,0 0,-26 6,0 z m 20,0 l 0,26 -6,0 0,-26 6,0 z m
 19,0 l 0,26 -6,0 0,-26 6,0 z m 20,0 l 0,26 -6,0 0,-26 6,0 z"/>
<path fill="#4A7EBB" stroke="none" d="M 3768,2860 l 0,1 1,0 0,1 2,0 0,1 1,0 0,1 1,0 0,8 -1,0 0,1 -1,0 0,2 -2,0 0,1 -1,0 0,1 -4,0 0,1 -18,0 0,1 -6,0 0,1 -7,0 0,1 -7,0 0,1 -3,0 0,1 -2,0 0,1 -3,0 0,1 -2,0 0,1 -3,0 0,1 -2,0 0,1 -3,0 0,1 -2,0 0,1 -2,0 0,1 -2,0 0,1 -2,0 0,1 -2,0 0,1 -2,0 0,1 -2,0 0,1 -2,0 0,1 -3,0 0,1 -3,0 0,1 -3,0 0,1 -4,0 0,1 -3,0 0,1 -3,0 0,1 -4,0 0,1 -3,0 0,1 -3,0 0,1 -4,0 0,1 -3,0 0,1 -3,0 0,1 -3,0 0,1 -1,0 0,1 -2,0 0,1 -1,0 0,1 -1,0 0,1 -1,0 0,1 -2,0 0,1 -1,0 0,1 -1,0 0,1
 -1,0 0,1 -2,0 0,1 -1,0 0,1 -1,0 0,1 -2,0 0,1 -1,0 0,1 -2,0 0,1 -3,0 0,1 -3,0 0,1 -4,0 0,1 -3,0 0,1 -3,0 0,1 -6,0 0,1 -6,0 0,1 -6,0 0,1 -7,0 0,1 -4,0 0,1 -5,0 0,1 -4,0 0,1 -5,0 0,1 -2,0 0,1 -3,0 0,1 -2,0 0,1 -3,0 0,1 -2,0 0,1 -3,0 0,1 -2,0 0,1 -3,0 0,1 -2,0 0,1 -2,0 0,1 -3,0 0,1 -2,0 0,1 -2,0 0,1 -3,0 0,1 -2,0 0,1 -3,0 0,1 -3,0 0,1 -4,0 0,1 -3,0 0,1 -4,0 0,1 -3,0 0,1 -4,0 0,1 -4,0 0,1 -5,0 0,1 -5,0 0,1 -5,0 0,1 -3,0 0,1 -4,0 0,1 -4,0 0,1 -4,0 0,1
 -4,0 0,1 -2,0 0,1 -3,0 0,1 -2,0 0,1 -3,0 0,1 -2,0 0,1 -3,0 0,1 -2,0 0,1 -3,0 0,1 -3,0 0,1 -3,0 0,1 -4,0 0,1 -3,0 0,1 -3,0 0,1 -5,0 0,1 -2,0 0,1 -2,0 0,1 -2,0 0,1 -2,0 0,1 -2,0 0,1 -2,0 0,1 -2,0 0,1 -3,0 0,1 -2,0 0,1 -2,0 0,1 -2,0 0,1 -2,0 0,1 -3,0 0,1 -2,0 0,1 -2,0 0,1 -2,0 0,1 -3,0 0,1 -2,0 0,1 -2,0 0,1 -2,0 0,1 -2,0 0,1 -2,0 0,1 -2,0 0,1 -2,0 0,1 -2,0 0,1 -3,0 0,1 -2,0 0,1 -2,0 0,1 -2,0 0,1 -2,0 0,1 -3,0 0,1 -2,0 0,1 -2,0 0,1 -2,0 0,1 -3,0 0,1
 -1,0 0,1 -2,0 0,1 -2,0 0,1 -2,0 0,1 -2,0 0,1 -1,0 0,1 -2,0 0,1 -2,0 0,1 -2,0 0,1 -2,0 0,1 -3,0 0,1 -2,0 0,1 -3,0 0,1 -3,0 0,1 -2,0 0,1 -3,0 0,1 -3,0 0,1 -3,0 0,1 -2,0 0,1 -3,0 0,1 -2,0 0,1 -3,0 0,1 -2,0 0,1 -3,0 0,1 -2,0 0,1 -3,0 0,1 -2,0 0,1 -3,0 0,1 -3,0 0,1 -2,0 0,1 -3,0 0,1 -3,0 0,1 -3,0 0,1 -2,0 0,1 -2,0 0,1 -2,0 0,1 -2,0 0,1 -2,0 0,1 -2,0 0,1 -2,0 0,1 -2,0 0,1 -3,0 0,1 -1,0 0,1 -2,0 0,1 -1,0 0,1 -2,0 0,1 -1,0 0,1 -2,0 0,1 -1,0 0,1 -1,0 0,1
 -2,0 0,1 -1,0 0,1 -2,0 0,1 -1,0 0,1 -2,0 0,1 -2,0 0,1 -2,0 0,1 -3,0 0,1 -3,0 0,1 -2,0 0,1 -3,0 0,1 -3,0 0,1 -3,0 0,1 -2,0 0,1 -3,0 0,1 -3,0 0,1 -3,0 0,1 -3,0 0,1 -3,0 0,1 -3,0 0,1 -2,0 0,1 -3,0 0,1 -2,0 0,1 -3,0 0,1 -2,0 0,1 -3,0 0,1 -2,0 0,1 -1,0 0,1 -1,0 0,1 -1,0 0,1 -1,0 0,1 -1,0 0,1 -1,0 0,1 -1,0 0,1 -1,0 0,1 -1,0 0,1 -1,0 0,1 -1,0 0,1 -1,0 0,1 -1,0 0,1 -1,0 0,1 -1,0 0,1 -1,0 0,1 -1,0 0,1 -1,0 0,1 -1,0 0,1 -1,0 0,1 -1,0 0,1 -1,0 0,1 -1,0 0,1
 -1,0 0,1 -1,0 0,1 -1,0 0,1 -1,0 0,1 -2,0 0,1 -1,0 0,1 -1,0 0,1 -1,0 0,1 -1,0 0,1 -1,0 0,1 -1,0 0,1 -1,0 0,1 -1,0 0,1 -2,0 0,1 -2,0 0,1 -2,0 0,1 -2,0 0,1 -2,0 0,1 -2,0 0,1 -2,0 0,1 -2,0 0,1 -2,0 0,1 -2,0 0,1 -2,0 0,1 -2,0 0,1 -1,0 0,1 -2,0 0,1 -2,0 0,1 -1,0 0,1 -2,0 0,1 -2,0 0,1 -2,0 0,1 -1,0 0,1 -2,0 0,1 -2,0 0,1 -3,0 0,1 -2,0 0,1 -3,0 0,1 -2,0 0,1 -3,0 0,1 -2,0 0,1 -3,0 0,1 -2,0 0,1 -2,0 0,1 -1,0 0,1 -1,0 0,1 -2,0 0,1 -1,0 0,1 -1,0 0,1 -2,0 0,1
 -1,0 0,1 -1,0 0,1 -2,0 0,1 -1,0 0,1 -1,0 0,1 -2,0 0,1 -1,0 0,1 -1,0 0,1 -2,0 0,1 -1,0 0,1 -2,0 0,1 -2,0 0,1 -1,0 0,1 -2,0 0,1 -2,0 0,1 -2,0 0,1 -1,0 0,1 -2,0 0,1 -2,0 0,1 -2,0 0,1 -2,0 0,1 -2,0 0,1 -2,0 0,1 -2,0 0,1 -2,0 0,1 -2,0 0,1 -2,0 0,1 -2,0 0,1 -2,0 0,1 -1,0 0,1 -1,0 0,1 -1,0 0,1 -2,0 0,1 -1,0 0,1 -1,0 0,1 -1,0 0,1 -2,0 0,1 -1,0 0,1 -1,0 0,1 -1,0 0,1 -2,0 0,1 -1,0 0,1 -1,0 0,1 -1,0 0,1 -2,0 0,1 -1,0 0,1 -2,0 0,1 -1,0 0,1 -2,0 0,1 -1,0 0,1
 -2,0 0,1 -1,0 0,1 -2,0 0,1 -1,0 0,1 -2,0 0,1 -1,0 0,1 -4,0 0,1 -25,0 0,-1 1,0 0,-1 1,0 0,-1 1,0 0,-1 1,0 0,-1 1,0 0,-1 1,0 0,-1 1,0 0,-1 1,0 0,-1 1,0 0,-1 1,0 0,-1 1,0 0,-1 1,0 0,-1 1,0 0,-1 1,0 0,-1 1,0 0,-1 2,0 0,-1 2,0 0,-1 1,0 0,-1 2,0 0,-1 1,0 0,-1 2,0 0,-1 1,0 0,-1 2,0 0,-1 1,0 0,-1 2,0 0,-1 1,0 0,-1 2,0 0,-1 1,0 0,-1 2,0 0,-1 1,0 0,-1 1,0 0,-1 2,0 0,-1 1,0 0,-1 1,0 0,-1 1,0 0,-1 2,0 0,-1 1,0 0,-1 1,0 0,-1 2,0 0,-1 1,0 0,-1 1,0 0,-1 1,0 0,-1
 2,0 0,-1 2,0 0,-1 2,0 0,-1 2,0 0,-1 2,0 0,-1 2,0 0,-1 2,0 0,-1 2,0 0,-1 2,0 0,-1 2,0 0,-1 2,0 0,-1 2,0 0,-1 2,0 0,-1 1,0 0,-1 2,0 0,-1 2,0 0,-1 1,0 0,-1 2,0 0,-1 2,0 0,-1 1,0 0,-1 2,0 0,-1 1,0 0,-1 2,0 0,-1 1,0 0,-1 2,0 0,-1 1,0 0,-1 2,0 0,-1 1,0 0,-1 1,0 0,-1 2,0 0,-1 1,0 0,-1 2,0 0,-1 1,0 0,-1 2,0 0,-1 1,0 0,-1 1,0 0,-1 2,0 0,-1 3,0 0,-1 2,0 0,-1 3,0 0,-1 2,0 0,-1 3,0 0,-1 2,0 0,-1 3,0 0,-1 2,0 0,-2 2,0 0,-1 2,0 0,-1 1,0 0,-1 2,0 0,-1 2,0 0,-1
 2,0 0,-1 1,0 0,-1 2,0 0,-1 2,0 0,-1 1,0 0,-1 3,0 0,-1 2,0 0,-1 2,0 0,-1 2,0 0,-1 2,0 0,-1 2,0 0,-1 2,0 0,-1 2,0 0,-1 2,0 0,-1 2,0 0,-1 1,0 0,-1 1,0 0,-1 1,0 0,-1 1,0 0,-1 1,0 0,-1 1,0 0,-1 1,0 0,-1 1,0 0,-1 2,0 0,-1 1,0 0,-1 1,0 0,-1 1,0 0,-1 1,0 0,-1 1,0 0,-1 1,0 0,-1 1,0 0,-1 1,0 0,-1 2,0 0,-1 1,0 0,-1 1,0 0,-1 1,0 0,-1 1,0 0,-1 1,0 0,-1 1,0 0,-1 1,0 0,-1 1,0 0,-1 1,0 0,-1 1,0 0,-1 1,0 0,-1 1,0 0,-1 1,0 0,-1 1,0 0,-1 1,0 0,-1 1,0 0,-1 1,0 0,-1
 1,0 0,-1 2,0 0,-1 3,0 0,-1 2,0 0,-1 3,0 0,-1 2,0 0,-1 3,0 0,-1 2,0 0,-1 3,0 0,-1 2,0 0,-1 3,0 0,-1 2,0 0,-1 3,0 0,-1 2,0 0,-1 3,0 0,-1 2,0 0,-1 3,0 0,-1 2,0 0,-1 4,0 0,-1 3,0 0,-1 3,0 0,-1 3,0 0,-1 3,0 0,-1 3,0 0,-1 1,0 0,-1 2,0 0,-1 1,0 0,-1 2,0 0,-1 1,0 0,-1 1,0 0,-1 2,0 0,-1 1,0 0,-1 2,0 0,-1 1,0 0,-1 2,0 0,-1 1,0 0,-1 1,0 0,-1 1,0 0,-1 3,0 0,-1 2,0 0,-1 2,0 0,-1 2,0 0,-1 2,0 0,-1 2,0 0,-1 2,0 0,-1 2,0 0,-1 2,0 0,-1 3,0 0,-1 3,0 0,-1 2,0 0,-1
 3,0 0,-1 3,0 0,-1 2,0 0,-1 3,0 0,-1 2,0 0,-1 3,0 0,-1 3,0 0,-1 3,0 0,-1 3,0 0,-1 3,0 0,-1 3,0 0,-1 2,0 0,-1 3,0 0,-1 3,0 0,-1 3,0 0,-1 2,0 0,-1 3,0 0,-1 3,0 0,-1 2,0 0,-1 1,0 0,-1 2,0 0,-1 2,0 0,-1 2,0 0,-1 2,0 0,-1 1,0 0,-1 2,0 0,-1 2,0 0,-1 2,0 0,-1 2,0 0,-1 1,0 0,-1 3,0 0,-1 2,0 0,-1 2,0 0,-1 2,0 0,-1 3,0 0,-1 2,0 0,-1 2,0 0,-1 2,0 0,-1 2,0 0,-1 3,0 0,-1 2,0 0,-1 2,0 0,-1 2,0 0,-1 2,0 0,-1 2,0 0,-1 2,0 0,-1 2,0 0,-1 2,0 0,-1 3,0 0,-1 2,0 0,-1
 2,0 0,-1 2,0 0,-1 3,0 0,-1 2,0 0,-1 2,0 0,-1 2,0 0,-1 2,0 0,-1 3,0 0,-1 2,0 0,-1 2,0 0,-1 2,0 0,-1 2,0 0,-1 2,0 0,-1 2,0 0,-1 2,0 0,-1 2,0 0,-1 1,0 0,-1 4,0 0,-1 3,0 0,-1 3,0 0,-1 4,0 0,-1 3,0 0,-1 3,0 0,-1 3,0 0,-1 3,0 0,-1 3,0 0,-1 3,0 0,-1 3,0 0,-1 3,0 0,-1 2,0 0,-1 4,0 0,-1 3,0 0,-1 3,0 0,-1 3,0 0,-1 3,0 0,-1 3,0 0,-1 6,0 0,-1 5,0 0,-1 5,0 0,-1 5,0 0,-1 4,0 0,-1 3,0 0,-1 3,0 0,-1 3,0 0,-1 3,0 0,-1 3,0 0,-1 4,0 0,-1 3,0 0,-1 3,0 0,-1 3,0 0,-1
 3,0 0,-1 3,0 0,-1 3,0 0,-1 2,0 0,-1 3,0 0,-1 2,0 0,-1 3,0 0,-1 2,0 0,-1 3,0 0,-1 2,0 0,-1 4,0 0,-1 3,0 0,-1 3,0 0,-1 4,0 0,-1 3,0 0,-1 3,0 0,-1 7,0 0,-1 7,0 0,-1 7,0 0,-1 2,0 0,-1 3,0 0,-1 3,0 0,-1 4,0 0,-1 3,0 0,-1 3,0 0,-1 1,0 0,-1 2,0 0,-1 1,0 0,-1 1,0 0,-1 1,0 0,-1 2,0 0,-1 1,0 0,-1 1,0 0,-1 1,0 0,-1 2,0 0,-1 1,0 0,-1 1,0 0,-1 1,0 0,-1 2,0 0,-1 1,0 0,-1 4,0 0,-1 3,0 0,-1 3,0 0,-1 4,0 0,-1 3,0 0,-1 3,0 0,-1 4,0 0,-1 3,0 0,-1 3,0 0,-1 4,0 0,-1
 3,0 0,-1 3,0 0,-1 3,0 0,-1 3,0 0,-1 2,0 0,-1 3,0 0,-1 2,0 0,-1 3,0 0,-1 2,0 0,-1 3,0 0,-1 3,0 0,-1 2,0 0,-1 3,0 0,-1 3,0 0,-1 2,0 0,-1 3,0 0,-1 2,0 0,-1 2,0 0,-1 7,0 0,-1 7,0 0,-1 6,0 0,-1 24,0 z"/>
<rect x="2985" y="3224" width="1" height="1" fill="#4A7EBB" stroke="none"/>
<path fill="#4A7EBB" stroke="none" d="M 2983,3225 l 0,1 -1,0 0,1 -1,0 0,1 -1,0 0,1 -1,0 0,1 -1,0 0,1 -1,0 0,1 -1,0 0,1 -1,0 0,1 -1,0 0,1 -1,0 0,1 -1,0 0,1 -1,0 0,1 -1,0 0,1 -1,0 0,1 -1,0 0,1 -1,0 0,1 -1,0 0,1 -1,0 0,2 -1,0 0,1 -1,0 0,2 -1,0 0,1 -1,0 0,2 -1,0 0,1 -1,0 0,2 -1,0 0,1 -1,0 0,2 -1,0 0,1 -1,0 0,2 -1,0 0,1 -1,0 0,2 -1,0 0,1 -1,0 0,2 -1,0 0,1 -1,0 0,2 -1,0 0,1 -1,0 0,2 -2,0 0,1 -1,0 0,1 -1,0 0,1 -2,0 0,1 -1,0 0,1 -1,0 0,1 -2,0 0,1 -1,0 0,1 -1,0 0,1 -2,0 0,1 -1,0 0,1 -1,0 0,1 -2,0 0,1
 -1,0 0,1 -1,0 0,1 -2,0 0,1 -1,0 0,1 -1,0 0,1 -1,0 0,1 -2,0 0,1 -1,0 0,1 -1,0 0,1 -1,0 0,1 -2,0 0,1 -1,0 0,1 -1,0 0,1 -1,0 0,1 -2,0 0,1 -1,0 0,1 -1,0 0,1 -1,0 0,1 -2,0 0,1 -1,0 0,1 -2,0 0,1 -2,0 0,1 -1,0 0,1 -2,0 0,1 -2,0 0,1 -1,0 0,1 -2,0 0,1 -2,0 0,1 -1,0 0,1 -2,0 0,1 -2,0 0,1 -2,0 0,1 -2,0 0,1 -2,0 0,1 -2,0 0,1 -2,0 0,1 -2,0 0,1 -2,0 0,1 -2,0 0,1 -3,0 0,1 -1,0 0,1 -2,0 0,1 -1,0 0,1 -2,0 0,1 -1,0 0,1 -2,0 0,1 -2,0 0,1 -1,0 0,1 -2,0 0,1 -1,0 0,1
 -2,0 0,1 -2,0 0,1 -1,0 0,1 -2,0 0,1 -1,0 0,1 -2,0 0,1 -1,0 0,1 -2,0 0,1 -1,0 0,1 -2,0 0,1 -1,0 0,1 -2,0 0,1 -1,0 0,1 -2,0 0,1 -4,0 0,1 -2,0 0,1 -2,0 0,1 -3,0 0,1 -2,0 0,1 -2,0 0,1 -3,0 0,1 -2,0 0,1 -3,0 0,1 -1,0 0,1 -2,0 0,1 -2,0 0,1 -2,0 0,1 -2,0 0,1 -2,0 0,1 -2,0 0,1 -2,0 0,1 -2,0 0,1 -2,0 0,1 -2,0 0,1 -2,0 0,1 -2,0 0,1 -2,0 0,1 -2,0 0,1 -2,0 0,1 -2,0 0,1 -2,0 0,1 -2,0 0,1 -3,0 0,1 -2,0 0,1 -2,0 0,1 -3,0 0,1 -2,0 0,1 -2,0 0,1 -3,0 0,1 -2,0 0,1
 -3,0 0,1 -2,0 0,1 -2,0 0,1 -2,0 0,1 -2,0 0,1 -3,0 0,1 -2,0 0,1 -2,0 0,1 -2,0 0,1 -3,0 0,1 -2,0 0,1 -3,0 0,1 -3,0 0,1 -3,0 0,1 -3,0 0,1 -3,0 0,1 -1,0 0,1 -1,0 0,1 -1,0 0,1 -1,0 0,1 -1,0 0,1 -1,0 0,1 -1,0 0,1 -1,0 0,1 -2,0 0,1 -1,0 0,1 -1,0 0,1 -1,0 0,1 -1,0 0,1 -1,0 0,1 -1,0 0,1 -1,0 0,1 -1,0 0,1 -2,0 0,1 -3,0 0,1 -2,0 0,1 -3,0 0,1 -3,0 0,1 -2,0 0,1 -3,0 0,1 -3,0 0,1 -3,0 0,1 -1,0 0,1 -5,0 0,1 -5,0 0,1 -5,0 0,1 -5,0 0,1 -4,0 0,1 -5,0 0,1 -4,0 0,1
 -5,0 0,1 -2,0 0,1 -2,0 0,1 -3,0 0,1 -2,0 0,1 -2,0 0,1 -3,0 0,1 -2,0 0,1 -2,0 0,1 -3,0 0,1 -4,0 0,1 -4,0 0,1 -4,0 0,1 -4,0 0,1 -4,0 0,1 -3,0 0,1 -4,0 0,1 -4,0 0,1 -4,0 0,1 -4,0 0,1 -4,0 0,1 -5,0 0,1 -5,0 0,1 -5,0 0,1 -2,0 0,1 -3,0 0,1 -2,0 0,1 -3,0 0,1 -2,0 0,1 -3,0 0,1 -2,0 0,1 -2,0 0,1 -1,0 0,1 -2,0 0,1 -1,0 0,1 -2,0 0,1 -1,0 0,1 -2,0 0,1 -1,0 0,1 -1,0 0,1 -2,0 0,1 -1,0 0,1 -2,0 0,1 -1,0 0,1 -2,0 0,1 -1,0 0,1 -2,0 0,1 -2,0 0,1 -2,0 0,1 -2,0 0,1
 -1,0 0,1 -2,0 0,1 -2,0 0,1 -2,0 0,1 -2,0 0,1 -3,0 0,1 -2,0 0,1 -3,0 0,1 -2,0 0,1 -3,0 0,1 -2,0 0,1 -3,0 0,1 -3,0 0,1 -2,0 0,1 -2,0 0,1 -2,0 0,1 -2,0 0,1 -2,0 0,1 -2,0 0,1 -2,0 0,1 -2,0 0,1 -2,0 0,1 -2,0 0,1 -2,0 0,1 -4,0 0,1 -4,0 0,1 -4,0 0,1 -4,0 0,1 -4,0 0,1 -4,0 0,1 -5,0 0,1 -5,0 0,1 -5,0 0,1 -4,0 0,1 -5,0 0,1 -5,0 0,1 -5,0 0,1 -2,0 0,1 -3,0 0,1 -2,0 0,1 -3,0 0,1 -2,0 0,1 -3,0 0,1 -2,0 0,1 -3,0 0,1 -2,0 0,1 -6,0 0,1 -6,0 0,1 -7,0 0,1 -6,0 0,1
 -6,0 0,1 -7,0 0,1 -4,0 0,1 -5,0 0,1 -5,0 0,1 -5,0 0,1 -4,0 0,1 -4,0 0,1 -4,0 0,1 -4,0 0,1 -4,0 0,1 -5,0 0,1 -5,0 0,1 -5,0 0,1 -6,0 0,1 -3,0 0,1 -3,0 0,1 -2,0 0,1 -3,0 0,1 -3,0 0,1 -3,0 0,1 -2,0 0,1 -3,0 0,1 -2,0 0,1 -3,0 0,1 -2,0 0,1 -3,0 0,1 -2,0 0,1 -3,0 0,1 -3,0 0,1 -4,0 0,1 -3,0 0,1 -4,0 0,1 -3,0 0,1 -4,0 0,1 -3,0 0,1 -4,0 0,1 -3,0 0,1 -4,0 0,1 -4,0 0,1 -3,0 0,1 -3,0 0,1 -4,0 0,1 -3,0 0,1 -3,0 0,1 -7,0 0,1 -18,0 0,1 -4,0 0,1 -5,0 0,1 -4,0 0,1
 -5,0 0,1 -4,0 0,1 -4,0 0,1 -4,0 0,1 -4,0 0,1 -4,0 0,1 -2,0 0,1 -3,0 0,1 -2,0 0,1 -3,0 0,1 -2,0 0,1 -3,0 0,1 -3,0 0,1 -2,0 0,1 -2,0 0,1 -2,0 0,1 -2,0 0,1 -2,0 0,1 -2,0 0,1 -2,0 0,1 -2,0 0,1 -2,0 0,1 -3,0 0,1 -4,0 0,1 -4,0 0,1 -4,0 0,1 -4,0 0,1 -4,0 0,1 -2,0 0,1 -2,0 0,1 -2,0 0,1 -2,0 0,1 -2,0 0,1 -2,0 0,1 -2,0 0,1 -2,0 0,1 -3,0 0,1 -3,0 0,1 -3,0 0,1 -4,0 0,1 -3,0 0,1 -3,0 0,1 -4,0 0,1 -3,0 0,1 -3,0 0,1 -4,0 0,1 -3,0 0,1 -3,0 0,1 -4,0 0,1 -2,0 0,1
 -2,0 0,1 -2,0 0,1 -2,0 0,1 -2,0 0,1 -2,0 0,1 -2,0 0,1 -2,0 0,1 -2,0 0,1 -2,0 0,1 -4,0 0,1 -4,0 0,1 -4,0 0,1 -4,0 0,1 -4,0 0,1 -3,0 0,1 -4,0 0,1 -4,0 0,1 -4,0 0,1 -5,0 0,1 -10,0 0,1 -11,0 0,1 -18,0 0,1 -4,0 0,1 -5,0 0,1 -5,0 0,1 -5,0 0,1 -4,0 0,1 -4,0 0,1 -4,0 0,1 -4,0 0,1 -4,0 0,1 -4,0 0,1 -4,0 0,1 -4,0 0,1 -4,0 0,1 -5,0 0,1 -2,0 0,1 -2,0 0,1 -3,0 0,1 -2,0 0,1 -2,0 0,1 -2,0 0,1 -3,0 0,1 -1,0 0,1 -2,0 0,1 -2,0 0,1 -2,0 0,1 -2,0 0,1 -2,0 0,1 -2,0 0,1
 -2,0 0,1 -2,0 0,1 -2,0 0,1 -2,0 0,1 -2,0 0,1 -2,0 0,1 -2,0 0,1 -2,0 0,1 -2,0 0,1 -2,0 0,1 -2,0 0,1 -2,0 0,1 -3,0 0,1 -3,0 0,1 -3,0 0,1 -4,0 0,1 -3,0 0,1 -3,0 0,1 -4,0 0,1 -1,0 0,1 -1,0 0,1 -1,0 0,1 -1,0 0,1 -1,0 0,1 -1,0 0,1 -1,0 0,1 -1,0 0,1 -1,0 0,1 -1,0 0,1 -1,0 0,1 -1,0 0,1 -1,0 0,1 -1,0 0,1 -1,0 0,1 -2,0 0,1 -1,0 0,1 -2,0 0,1 -2,0 0,1 -2,0 0,1 -3,0 0,1 -2,0 0,1 -2,0 0,1 -3,0 0,1 -2,0 0,1 -3,0 0,1 -1,0 0,1 -5,0 0,1 -5,0 0,1 -5,0 0,1 -5,0 0,1
 -4,0 0,1 -5,0 0,1 -5,0 0,1 -5,0 0,1 -3,0 0,1 -3,0 0,1 -4,0 0,1 -3,0 0,1 -3,0 0,1 -4,0 0,1 -5,0 0,1 -5,0 0,1 -5,0 0,1 -5,0 0,1 -5,0 0,1 -5,0 0,1 -5,0 0,1 -6,0 0,1 -9,0 0,1 -9,0 0,1 -5,0 0,1 -5,0 0,1 -5,0 0,1 -5,0 0,1 -2,0 0,1 -2,0 0,1 -2,0 0,1 -2,0 0,1 -2,0 0,1 -2,0 0,1 -2,0 0,1 -2,0 0,1 -2,0 0,1 -2,0 0,1 -3,0 0,1 -2,0 0,1 -3,0 0,1 -2,0 0,1 -3,0 0,1 -2,0 0,1 -3,0 0,1 -1,0 0,1 -4,0 0,1 -5,0 0,1 -5,0 0,1 -5,0 0,1 -3,0 0,1 -4,0 0,1 -4,0 0,1 -4,0 0,1
 -4,0 0,1 -2,0 0,1 -3,0 0,1 -3,0 0,1 -3,0 0,1 -3,0 0,1 -3,0 0,1 -3,0 0,1 -2,0 0,1 -3,0 0,1 -2,0 0,1 -3,0 0,1 -3,0 0,1 -2,0 0,1 -3,0 0,1 -3,0 0,1 -3,0 0,1 -4,0 0,1 -4,0 0,1 -4,0 0,1 -4,0 0,1 -4,0 0,1 -5,0 0,1 -5,0 0,1 -5,0 0,1 -3,0 0,1 -3,0 0,1 -4,0 0,1 -3,0 0,1 -3,0 0,1 -4,0 0,1 -4,0 0,1 -5,0 0,1 -5,0 0,1 -5,0 0,1 -2,0 0,1 -3,0 0,1 -2,0 0,1 -3,0 0,1 -3,0 0,1 -2,0 0,1 -3,0 0,1 -3,0 0,1 -3,0 0,1 -4,0 0,1 -4,0 0,1 -4,0 0,1 -4,0 0,1 -3,0 0,1 -4,0 0,1
 -4,0 0,1 -4,0 0,1 -4,0 0,1 -3,0 0,1 -4,0 0,1 -3,0 0,1 -4,0 0,1 -3,0 0,1 -4,0 0,1 -4,0 0,1 -5,0 0,1 -4,0 0,1 -5,0 0,1 -4,0 0,1 -4,0 0,1 -4,0 0,1 -4,0 0,1 -4,0 0,1 -2,0 0,1 -3,0 0,1 -3,0 0,1 -2,0 0,1 -3,0 0,1 -3,0 0,1 -3,0 0,1 -2,0 0,1 -6,0 0,1 -6,0 0,1 -7,0 0,1 -5,0 0,1 -5,0 0,1 -5,0 0,1 -6,0 0,1 -6,0 0,1 -6,0 0,1 -7,0 0,1 -6,0 0,1 -7,0 0,1 -7,0 0,1 -6,0 0,1 -6,0 0,1 -7,0 0,1 -4,0 0,1 -5,0 0,1 -4,0 0,1 -5,0 0,1 -2,0 0,1 -3,0 0,1 -2,0 0,1 -3,0 0,1
 -3,0 0,1 -2,0 0,1 -3,0 0,1 -3,0 0,1 -4,0 0,1 -5,0 0,1 -5,0 0,1 -5,0 0,1 -3,0 0,1 -3,0 0,1 -3,0 0,1 -3,0 0,1 -3,0 0,1 -4,0 0,1 -3,0 0,1 -4,0 0,1 -3,0 0,1 -4,0 0,1 -3,0 0,1 -4,0 0,1 -4,0 0,1 -4,0 0,1 -4,0 0,1 -4,0 0,1 -4,0 0,1 -6,0 0,1 -6,0 0,1 -7,0 0,1 -5,0 0,1 -5,0 0,1 -5,0 0,1 -6,0 0,1 -9,0 0,1 -10,0 0,1 -10,0 0,1 -9,0 0,1 -4,0 0,1 -4,0 0,1 -4,0 0,1 -4,0 0,1 -4,0 0,1 -4,0 0,1 -5,0 0,1 -5,0 0,1 -5,0 0,1 -5,0 0,1 -5,0 0,1 -5,0 0,1 -11,0 0,-1 -1,0 0,-1
 -1,0 0,-1 -1,0 0,-1 -1,0 0,-2 -1,0 0,-4 1,0 0,-3 1,0 0,-1 1,0 0,-1 1,0 0,-1 1,0 0,-1 2,0 0,-1 5,0 0,-1 5,0 0,-1 5,0 0,-1 5,0 0,-1 5,0 0,-1 5,0 0,-1 5,0 0,-1 4,0 0,-1 4,0 0,-1 4,0 0,-1 4,0 0,-1 4,0 0,-1 4,0 0,-1 11,0 0,-1 10,0 0,-1 10,0 0,-1 9,0 0,-1 5,0 0,-1 5,0 0,-1 5,0 0,-1 4,0 0,-1 7,0 0,-1 7,0 0,-1 7,0 0,-1 4,0 0,-1 4,0 0,-1 3,0 0,-1 4,0 0,-1 3,0 0,-1 4,0 0,-1 3,0 0,-1 3,0 0,-1 3,0 0,-1 3,0 0,-1 3,0 0,-1 4,0 0,-1 3,0 0,-1 3,0 0,-1 3,0 0,-1 3,0 0,-1
 3,0 0,-1 6,0 0,-1 5,0 0,-1 5,0 0,-1 5,0 0,-1 3,0 0,-1 3,0 0,-1 3,0 0,-1 2,0 0,-1 3,0 0,-1 3,0 0,-1 2,0 0,-1 4,0 0,-1 4,0 0,-1 4,0 0,-1 4,0 0,-1 4,0 0,-1 7,0 0,-1 7,0 0,-1 7,0 0,-1 7,0 0,-1 7,0 0,-1 6,0 0,-1 7,0 0,-1 6,0 0,-1 6,0 0,-1 5,0 0,-1 5,0 0,-1 5,0 0,-1 4,0 0,-1 7,0 0,-1 7,0 0,-1 8,0 0,-1 3,0 0,-1 3,0 0,-1 2,0 0,-1 3,0 0,-1 3,0 0,-1 2,0 0,-1 3,0 0,-1 3,0 0,-1 3,0 0,-1 3,0 0,-1 3,0 0,-1 3,0 0,-1 2,0 0,-1 5,0 0,-1 5,0 0,-1 5,0 0,-1 5,0 0,-1
 4,0 0,-1 3,0 0,-1 3,0 0,-1 3,0 0,-1 3,0 0,-1 3,0 0,-1 5,0 0,-1 4,0 0,-1 4,0 0,-1 4,0 0,-1 4,0 0,-1 4,0 0,-1 4,0 0,-1 4,0 0,-1 4,0 0,-1 3,0 0,-1 3,0 0,-1 3,0 0,-1 3,0 0,-1 2,0 0,-1 3,0 0,-1 3,0 0,-1 2,0 0,-1 5,0 0,-1 4,0 0,-1 4,0 0,-1 4,0 0,-1 4,0 0,-1 3,0 0,-1 3,0 0,-1 3,0 0,-1 3,0 0,-1 3,0 0,-1 3,0 0,-1 6,0 0,-1 5,0 0,-1 5,0 0,-1 5,0 0,-1 4,0 0,-1 4,0 0,-1 4,0 0,-1 4,0 0,-1 3,0 0,-1 3,0 0,-1 3,0 0,-1 3,0 0,-1 2,0 0,-1 3,0 0,-1 3,0 0,-1 2,0 0,-1
 3,0 0,-1 3,0 0,-1 3,0 0,-1 3,0 0,-1 3,0 0,-1 3,0 0,-1 2,0 0,-1 4,0 0,-1 3,0 0,-1 3,0 0,-1 3,0 0,-1 3,0 0,-1 3,0 0,-1 6,0 0,-1 5,0 0,-1 5,0 0,-1 7,0 0,-1 2,0 0,-1 3,0 0,-1 2,0 0,-1 3,0 0,-1 2,0 0,-1 3,0 0,-1 2,0 0,-1 2,0 0,-1 2,0 0,-1 2,0 0,-1 2,0 0,-1 1,0 0,-1 2,0 0,-1 2,0 0,-1 2,0 0,-1 2,0 0,-1 1,0 0,-1 2,0 0,-1 5,0 0,-1 5,0 0,-1 5,0 0,-1 5,0 0,-1 10,0 0,-1 10,0 0,-1 5,0 0,-1 5,0 0,-1 5,0 0,-1 4,0 0,-1 5,0 0,-1 5,0 0,-1 5,0 0,-1 5,0 0,-1 3,0 0,-1
 3,0 0,-1 3,0 0,-1 3,0 0,-1 3,0 0,-1 3,0 0,-1 6,0 0,-1 5,0 0,-1 5,0 0,-1 5,0 0,-1 5,0 0,-1 5,0 0,-1 5,0 0,-1 6,0 0,-1 2,0 0,-1 3,0 0,-1 2,0 0,-1 2,0 0,-1 3,0 0,-1 2,0 0,-1 2,0 0,-1 1,0 0,-1 1,0 0,-1 1,0 0,-1 1,0 0,-1 1,0 0,-1 1,0 0,-1 1,0 0,-1 1,0 0,-1 1,0 0,-1 1,0 0,-1 1,0 0,-1 1,0 0,-1 1,0 0,-1 1,0 0,-1 1,0 0,-1 1,0 0,-1 1,0 0,-1 1,0 0,-1 2,0 0,-1 1,0 0,-1 4,0 0,-1 3,0 0,-1 3,0 0,-1 4,0 0,-1 3,0 0,-1 3,0 0,-1 3,0 0,-1 3,0 0,-1 2,0 0,-1 3,0 0,-1
 2,0 0,-1 3,0 0,-1 2,0 0,-1 2,0 0,-1 2,0 0,-1 2,0 0,-1 2,0 0,-1 2,0 0,-1 1,0 0,-1 2,0 0,-1 2,0 0,-1 2,0 0,-1 2,0 0,-1 1,0 0,-1 3,0 0,-1 2,0 0,-1 3,0 0,-1 2,0 0,-1 2,0 0,-1 3,0 0,-1 2,0 0,-1 2,0 0,-1 2,0 0,-1 4,0 0,-1 4,0 0,-1 4,0 0,-1 4,0 0,-1 4,0 0,-1 4,0 0,-1 4,0 0,-1 4,0 0,-1 4,0 0,-1 4,0 0,-1 5,0 0,-1 5,0 0,-1 5,0 0,-1 4,0 0,-1 22,0 0,-1 10,0 0,-1 9,0 0,-1 3,0 0,-1 4,0 0,-1 4,0 0,-1 4,0 0,-1 3,0 0,-1 4,0 0,-1 4,0 0,-1 4,0 0,-1 4,0 0,-1 4,0 0,-1
 2,0 0,-1 2,0 0,-1 2,0 0,-1 2,0 0,-1 2,0 0,-1 2,0 0,-1 2,0 0,-1 2,0 0,-1 1,0 0,-1 1,0 0,-1 4,0 0,-1 3,0 0,-1 3,0 0,-1 4,0 0,-1 3,0 0,-1 3,0 0,-1 4,0 0,-1 3,0 0,-1 3,0 0,-1 4,0 0,-1 3,0 0,-1 3,0 0,-1 3,0 0,-1 3,0 0,-1 2,0 0,-1 3,0 0,-1 2,0 0,-1 3,0 0,-1 2,0 0,-1 3,0 0,-1 3,0 0,-1 3,0 0,-1 3,0 0,-1 3,0 0,-1 3,0 0,-1 3,0 0,-1 3,0 0,-1 2,0 0,-1 3,0 0,-1 2,0 0,-1 2,0 0,-1 3,0 0,-1 2,0 0,-1 2,0 0,-1 3,0 0,-1 3,0 0,-1 3,0 0,-1 3,0 0,-1 3,0 0,-1 3,0 0,-1
 2,0 0,-1 3,0 0,-1 3,0 0,-1 3,0 0,-1 3,0 0,-1 3,0 0,-1 3,0 0,-1 2,0 0,-1 5,0 0,-1 5,0 0,-1 5,0 0,-1 5,0 0,-1 22,0 0,-1 1,0 0,-1 3,0 0,-1 3,0 0,-1 4,0 0,-1 3,0 0,-1 3,0 0,-1 4,0 0,-1 4,0 0,-1 4,0 0,-1 4,0 0,-1 4,0 0,-1 4,0 0,-1 3,0 0,-1 3,0 0,-1 3,0 0,-1 3,0 0,-1 3,0 0,-1 3,0 0,-1 3,0 0,-1 3,0 0,-1 3,0 0,-1 3,0 0,-1 3,0 0,-1 2,0 0,-1 4,0 0,-1 3,0 0,-1 3,0 0,-1 3,0 0,-1 3,0 0,-1 3,0 0,-1 1,0 0,-1 5,0 0,-1 5,0 0,-1 5,0 0,-1 5,0 0,-1 4,0 0,-1 4,0 0,-1
 4,0 0,-1 4,0 0,-1 4,0 0,-1 5,0 0,-1 5,0 0,-1 5,0 0,-1 4,0 0,-1 7,0 0,-1 7,0 0,-1 7,0 0,-1 7,0 0,-1 6,0 0,-1 7,0 0,-1 2,0 0,-1 3,0 0,-1 2,0 0,-1 3,0 0,-1 2,0 0,-1 3,0 0,-1 2,0 0,-1 4,0 0,-1 3,0 0,-1 4,0 0,-1 3,0 0,-1 4,0 0,-1 3,0 0,-1 5,0 0,-1 5,0 0,-1 5,0 0,-1 4,0 0,-1 4,0 0,-1 4,0 0,-1 4,0 0,-1 4,0 0,-1 4,0 0,-1 2,0 0,-1 2,0 0,-1 2,0 0,-1 2,0 0,-1 2,0 0,-1 2,0 0,-1 2,0 0,-1 2,0 0,-1 2,0 0,-1 3,0 0,-1 3,0 0,-1 3,0 0,-1 3,0 0,-1 3,0 0,-1 3,0 0,-1
 2,0 0,-1 1,0 0,-1 2,0 0,-1 2,0 0,-1 2,0 0,-1 2,0 0,-1 1,0 0,-1 2,0 0,-1 2,0 0,-1 2,0 0,-1 2,0 0,-1 1,0 0,-1 2,0 0,-1 1,0 0,-1 2,0 0,-1 1,0 0,-1 2,0 0,-1 1,0 0,-1 2,0 0,-1 1,0 0,-1 2,0 0,-1 1,0 0,-1 2,0 0,-1 1,0 0,-1 2,0 0,-1 3,0 0,-1 2,0 0,-1 3,0 0,-1 2,0 0,-1 3,0 0,-1 2,0 0,-1 3,0 0,-1 2,0 0,-1 4,0 0,-1 3,0 0,-1 4,0 0,-1 3,0 0,-1 4,0 0,-1 3,0 0,-1 4,0 0,-1 4,0 0,-1 4,0 0,-1 4,0 0,-1 3,0 0,-1 4,0 0,-1 4,0 0,-1 4,0 0,-1 4,0 0,-1 4,0 0,-1 3,0 0,-1
 3,0 0,-1 3,0 0,-1 2,0 0,-1 3,0 0,-1 3,0 0,-1 2,0 0,-1 4,0 0,-1 3,0 0,-1 3,0 0,-1 4,0 0,-1 3,0 0,-1 3,0 0,-1 5,0 0,-1 5,0 0,-1 5,0 0,-1 7,0 0,-1 3,0 0,-1 3,0 0,-1 2,0 0,-1 3,0 0,-1 3,0 0,-1 1,0 0,-1 1,0 0,-1 1,0 0,-1 1,0 0,-1 1,0 0,-1 1,0 0,-1 1,0 0,-1 1,0 0,-1 1,0 0,-1 2,0 0,-1 1,0 0,-1 1,0 0,-1 1,0 0,-1 1,0 0,-1 1,0 0,-1 1,0 0,-1 1,0 0,-1 1,0 0,-1 2,0 0,-1 1,0 0,-1 3,0 0,-1 3,0 0,-1 3,0 0,-1 3,0 0,-1 3,0 0,-1 3,0 0,-1 2,0 0,-1 3,0 0,-1 2,0 0,-1
 2,0 0,-1 2,0 0,-1 3,0 0,-1 2,0 0,-1 2,0 0,-1 2,0 0,-1 3,0 0,-1 3,0 0,-1 2,0 0,-1 3,0 0,-1 3,0 0,-1 2,0 0,-1 3,0 0,-1 2,0 0,-1 2,0 0,-1 2,0 0,-1 2,0 0,-1 2,0 0,-1 2,0 0,-1 2,0 0,-1 2,0 0,-1 2,0 0,-1 2,0 0,-1 1,0 0,-1 2,0 0,-1 2,0 0,-1 2,0 0,-1 2,0 0,-1 2,0 0,-1 2,0 0,-1 2,0 0,-1 2,0 0,-1 2,0 0,-1 1,0 0,-1 3,0 0,-1 3,0 0,-1 2,0 0,-1 3,0 0,-1 3,0 0,-1 2,0 0,-1 3,0 0,-1 2,0 0,-2 2,0 0,-1 1,0 0,-1 2,0 0,-1 1,0 0,-1 2,0 0,-1 1,0 0,-1 2,0 0,-1 1,0 0,-1
 2,0 0,-1 1,0 0,-1 2,0 0,-1 1,0 0,-1 2,0 0,-1 2,0 0,-1 1,0 0,-1 2,0 0,-1 1,0 0,-1 2,0 0,-1 2,0 0,-1 1,0 0,-1 2,0 0,-1 1,0 0,-1 2,0 0,-1 1,0 0,-1 3,0 0,-1 2,0 0,-1 2,0 0,-1 3,0 0,-1 2,0 0,-1 2,0 0,-1 3,0 0,-1 2,0 0,-1 2,0 0,-1 2,0 0,-1 1,0 0,-1 2,0 0,-1 1,0 0,-1 2,0 0,-1 1,0 0,-1 2,0 0,-1 1,0 0,-1 2,0 0,-1 1,0 0,-1 2,0 0,-1 1,0 0,-1 2,0 0,-1 1,0 0,-1 2,0 0,-1 1,0 0,-1 2,0 0,-1 1,0 0,-1 1,0 0,-1 2,0 0,-1 1,0 0,-1 2,0 0,-1 1,0 0,-1 2,0 0,-1 1,0 0,-1
 1,0 0,-1 2,0 0,-1 1,0 0,-1 1,0 0,-1 2,0 0,-1 1,0 0,-1 1,0 0,-1 2,0 0,-1 1,0 0,-1 1,0 0,-1 2,0 0,-1 1,0 0,-1 1,0 0,-1 2,0 0,-2 1,0 0,-2 1,0 0,-1 1,0 0,-2 1,0 0,-1 1,0 0,-2 1,0 0,-1 1,0 0,-2 1,0 0,-1 1,0 0,-2 1,0 0,-1 1,0 0,-2 1,0 0,-1 1,0 0,-2 1,0 0,-1 1,0 0,-2 1,0 0,-1 1,0 0,-2 1,0 0,-2 1,0 0,-1 1,0 0,-1 2,0 0,-1 1,0 0,-1 1,0 0,-1 1,0 0,-1 25,0 z"/>
<path fill="#C00000" stroke="none" d="M 1428,3910 l 59,0 20,-1 19,0 20,-1 20,0 18,-1 20,-3 19,-2 20,-3 19,-5 18,-6 21,-5 19,-7 20,-5 19,-6 20,-7 18,-8 21,-8 19,-6 21,-6 38,-12 20,-6 3,0 20,-1 18,-3 -3,1 20,-9 18,-11 2,0 1,-1 20,-5 20,-4 18,-6 20,-6 -1,1 20,-10 1,0 0,-1 19,-6 21,-5 18,-6 21,-4 20,-4 -2,1 19,-8 21,-8 20,-6 18,-7 20,-10 20,-9 18,-11 2,0 2,-1 20,-2 -1,0 19,-5 19,-6 2,0 20,-3 19,-3 18,-6 -1,1 20,-10 20,-7 19,-9 40,-14 20,-8 1,-1 19,-4 20,-4 19,-6 20,-5 19,-6 -2,1 19,-11 2,0 1,-1 20,-5 -2,1 20,-10 19,-9 20,-9 1,-1 1,0 20,-4 -3,1 19,-11 21,-9 19,-12 19,-11 2,0 20,-8 -2,1 19,-13 21,-12 21,-8 -2,1 19,-13 20,-14
 19,-15 18,-19 2,-2 20,-13 18,-14 21,-14 1,-1 20,-9 18,-11 -1,1 40,-34 -1,1 19,-22 1,0 0,-1 20,-17 1,0 1,-1 20,-11 19,-10 -2,2 22,-22 19,-8 -1,0 20,-12 20,-13 20,-9 19,-12 -2,2 20,-21 1,-1 1,0 19,-14 19,-18 19,-16 21,-15 20,-14 1,-1 19,-8 20,-11 -2,1 20,-16 1,-1 1,0 19,-8 20,-10 19,-10 -2,1 20,-18 20,-17 1,0 1,-1 19,-10 19,-13 1,-1 1,0 20,-8 -3,1 19,-18 20,-17 -3,6 20,-221 1,-4 3,-2 19,-13 3,-1 4,-1 3,2 2,2 2,3 0,4 -2,3 -2,2 -19,13 4,-6 -20,221 -1,3 -2,3 -20,17 -19,18 -1,1 -2,0 -20,8 2,-1 -21,15 -19,10 2,-1 -20,17 -20,18 -1,1 -1,0 -19,10 -21,10 -19,8 3,-1 -20,16 -1,1 -1,0 -21,11 -19,8
 2,-1 -20,14 -19,15 -19,16 -21,18 -19,14 1,-1 -20,21 0,1 -1,1 -21,12 -18,9 -20,13 -20,12 -2,0 -19,8 3,-2 -22,22 -19,10 -20,11 2,-1 -20,17 1,-1 -19,22 -1,1 -40,34 -1,0 -1,1 -19,11 -20,9 1,-1 -19,14 -20,16 -20,13 1,-2 -19,21 -21,17 -20,12 -19,13 -1,1 -1,0 -19,8 -19,10 -19,13 -1,1 -1,0 -20,8 1,0 -18,11 -21,12 -20,9 -19,11 -1,1 -1,0 -20,4 2,-1 -20,9 -19,9 -20,10 -1,1 -1,0 -20,5 2,-1 -19,11 -1,1 -21,6 -18,5 -21,6 -20,4 -19,4 1,-1 -20,8 -20,9 -18,5 -21,9 -18,7 -20,10 -1,1 -22,6 -19,3 -20,3 2,0 -21,6 -19,5 -1,0 -20,2 3,-1 -19,11 -20,9 -21,10 -19,9 -20,5 -20,7 -19,8 0,1 -1,0 -20,4 -19,4 -20,6 -19,5
 -19,6 1,-1 -20,10 -1,1 -40,12 -20,4 -20,5 2,-1 -19,11 -20,9 -1,1 -2,0 -20,3 -20,1 3,0 -20,6 -19,6 -21,6 -19,4 -19,7 -20,7 -19,8 -20,9 -21,6 -18,4 -21,8 -19,5 -20,6 -21,5 -20,3 -19,2 -21,3 -19,1 -20,0 -20,1 -19,0 -20,1 -59,0 -3,-1 -3,-2 -2,-2 -1,-4 1,-3 2,-3 3,-2 3,-1 z"/>
<path fill="#FFC000" stroke="none" d="M 3701,3884 l 20,-11 1,0 1,-1 20,-5 20,-3 3,0 3,2 3,3 1,3 0,3 -4,6 -4,1 -18,3 -20,5 2,-1 -20,11 -3,1 -4,0 -3,-2 -2,-3 -1,-3 0,-4 2,-3 3,-2 z"/>
<text font-family="Calibri" font-size="84" fill="#000000"><tspan x="768" y="3952">0</tspan><tspan x="683,726,768" y="3705">500</tspan><tspan x="641,684,726,769" y="3458">1000</tspan><tspan x="641,684,726,769" y="3212">1500</tspan><tspan x="641,684,726,769" y="2965">2000</tspan><tspan x="641,684,726,769" y="2719">2500</tspan><tspan x="641,684,726,769" y="2472">3000</tspan></text>
<text font-family="Calibri" font-size="84" fill="#000000" transform="translate(927,4182) rotate(-90)"><tspan x="0,27,71,90" y="0">Jul-</tspan><tspan x="115,158,201" y="0">04&#x2026;</tspan></text>
<text font-family="Calibri" font-size="84" fill="#000000" transform="translate(1045,4203) rotate(-90)"><tspan x="0,27,67,111" y="0">Jan-</tspan><tspan x="136,179,221" y="0">05&#x2026;</tspan></text>
<text font-family="Calibri" font-size="84" fill="#000000" transform="translate(1163,4182) rotate(-90)"><tspan x="0,27,71,90" y="0">Jul-</tspan><tspan x="115,158,201" y="0">05&#x2026;</tspan></text>
<text font-family="Calibri" font-size="84" fill="#000000" transform="translate(1281,4203) rotate(-90)"><tspan x="0,27,67,111" y="0">Jan-</tspan><tspan x="136,179,221" y="0">06&#x2026;</tspan></text>
<text font-family="Calibri" font-size="84" fill="#000000" transform="translate(1399,4182) rotate(-90)"><tspan x="0,27,71,90" y="0">Jul-</tspan><tspan x="115,158,201" y="0">06&#x2026;</tspan></text>
<text font-family="Calibri" font-size="84" fill="#000000" transform="translate(1516,4203) rotate(-90)"><tspan x="0,27,67,111" y="0">Jan-</tspan><tspan x="136,179,221" y="0">07&#x2026;</tspan></text>
<text font-family="Calibri" font-size="84" fill="#000000" transform="translate(1634,4182) rotate(-90)"><tspan x="0,27,71,90" y="0">Jul-</tspan><tspan x="115,158,201" y="0">07&#x2026;</tspan></text>
<text font-family="Calibri" font-size="84" fill="#000000" transform="translate(1752,4203) rotate(-90)"><tspan x="0,27,67,111" y="0">Jan-</tspan><tspan x="136,179,221" y="0">08&#x2026;</tspan></text>
<text font-family="Calibri" font-size="84" fill="#000000" transform="translate(1870,4182) rotate(-90)"><tspan x="0,27,71,90" y="0">Jul-</tspan><tspan x="115,158,201" y="0">08&#x2026;</tspan></text>
<text font-family="Calibri" font-size="84" fill="#000000" transform="translate(1987,4203) rotate(-90)"><tspan x="0,27,67,111" y="0">Jan-</tspan><tspan x="136,179,221" y="0">09&#x2026;</tspan></text>
<text font-family="Calibri" font-size="84" fill="#000000" transform="translate(2105,4182) rotate(-90)"><tspan x="0,27,71,90" y="0">Jul-</tspan><tspan x="115,158,201" y="0">09&#x2026;</tspan></text>
<text font-family="Calibri" font-size="84" fill="#000000" transform="translate(2223,4203) rotate(-90)"><tspan x="0,27,67,111" y="0">Jan-</tspan><tspan x="136,179,221" y="0">10&#x2026;</tspan></text>
<text font-family="Calibri" font-size="84" fill="#000000" transform="translate(2341,4182) rotate(-90)"><tspan x="0,27,71,90" y="0">Jul-</tspan><tspan x="115,158,201" y="0">10&#x2026;</tspan></text>
<text font-family="Calibri" font-size="84" fill="#000000" transform="translate(2459,4203) rotate(-90)"><tspan x="0,27,67,111" y="0">Jan-</tspan><tspan x="136,179,221" y="0">11&#x2026;</tspan></text>
<text font-family="Calibri" font-size="84" fill="#000000" transform="translate(2576,4182) rotate(-90)"><tspan x="0,27,71,90" y="0">Jul-</tspan><tspan x="115,158,201" y="0">11&#x2026;</tspan></text>
<text font-family="Calibri" font-size="84" fill="#000000" transform="translate(2694,4203) rotate(-90)"><tspan x="0,27,67,111" y="0">Jan-</tspan><tspan x="136,179,221" y="0">12&#x2026;</tspan></text>
<text font-family="Calibri" font-size="84" fill="#000000" transform="translate(2812,4182) rotate(-90)"><tspan x="0,27,71,90" y="0">Jul-</tspan><tspan x="115,158,201" y="0">12&#x2026;</tspan></text>
<text font-family="Calibri" font-size="84" fill="#000000" transform="translate(2930,4203) rotate(-90)"><tspan x="0,27,67,111" y="0">Jan-</tspan><tspan x="136,179,221" y="0">13&#x2026;</tspan></text>
<text font-family="Calibri" font-size="84" fill="#000000" transform="translate(3047,4182) rotate(-90)"><tspan x="0,27,71,90" y="0">Jul-</tspan><tspan x="115,158,201" y="0">13&#x2026;</tspan></text>
<text font-family="Calibri" font-size="84" fill="#000000" transform="translate(3165,4203) rotate(-90)"><tspan x="0,27,67,111" y="0">Jan-</tspan><tspan x="136,179,221" y="0">14&#x2026;</tspan></text>
<text font-family="Calibri" font-size="84" fill="#000000" transform="translate(3283,4182) rotate(-90)"><tspan x="0,27,71,90" y="0">Jul-</tspan><tspan x="115,158,201" y="0">14&#x2026;</tspan></text>
<text font-family="Calibri" font-size="84" fill="#000000" transform="translate(3401,4203) rotate(-90)"><tspan x="0,27,67,111" y="0">Jan-</tspan><tspan x="136,179,221" y="0">15&#x2026;</tspan></text>
<text font-family="Calibri" font-size="84" fill="#000000" transform="translate(3519,4182) rotate(-90)"><tspan x="0,27,71,90" y="0">Jul-</tspan><tspan x="115,158,201" y="0">15&#x2026;</tspan></text>
<text font-family="Calibri" font-size="84" fill="#000000" transform="translate(3636,4203) rotate(-90)"><tspan x="0,27,67,111" y="0">Jan-</tspan><tspan x="136,179,221" y="0">16&#x2026;</tspan></text>
<text font-family="Calibri" font-size="84" fill="#000000" transform="translate(3754,4182) rotate(-90)"><tspan x="0,27,71,90" y="0">Jul-</tspan><tspan x="115,158,201" y="0">16&#x2026;</tspan></text>
<text font-family="Calibri" font-size="84" fill="#000000" font-weight="700" transform="translate(593,3453) rotate(-90)"><tspan x="0,74,116,184,229,271,301" y="0">Member </tspan><tspan x="321,365,410,455,500" y="0">Count</tspan></text>
<text font-family="Calibri" font-size="84" fill="#000000" font-weight="700"><tspan x="2213,2286,2331,2377,2406" y="4302">Month</tspan></text>
<text font-family="Calibri" font-size="152" fill="#000000" font-weight="700"><tspan x="1585,1681,1762,1843,1915,1951,2028,2125,2176,2257,2338,2418,2478" y="2116">GoogleGroups </tspan><tspan x="2515,2647,2724,2847,2928,3005,3056,3116,3197,3234,3315" y="2116">Membership </tspan><tspan x="1822,1869,1946" y="2301">(7/</tspan><tspan x="2011,2088,2165" y="2301">04 </tspan><tspan x="2198,2251,2332,2383,2464,2545,2617,2698" y="2301">through </tspan><tspan x="2735,2811" y="2301">9/</tspan><tspan x="2876,2953,3030" y="2301">16)</tspan></text>
<path fill="#4A7EBB" stroke="none" d="M 3906,3230 l 161,0 4,1 2,2 2,3 1,3 -1,4 -4,4 -4,1 -161,0 -3,-1 -3,-2 -2,-2 -1,-4 1,-3 2,-3 3,-2 3,-1 z"/>
<text font-family="Calibri" font-size="84" fill="#000000"><tspan x="4085,4136,4156,4189,4225,4269,4301" y="3264">Discuss</tspan></text>
<path fill="#C00000" stroke="none" d="M 3906,3382 l 161,0 4,1 2,2 2,3 1,3 -1,4 -4,4 -4,1 -161,0 -3,-1 -3,-2 -2,-2 -1,-4 1,-3 2,-3 3,-2 3,-1 z"/>
<text font-family="Calibri" font-size="84" fill="#000000"><tspan x="4085,4137,4179,4198,4242,4294,4336,4369" y="3416">HelpDesk</tspan></text>
<path fill="#FFC000" stroke="none" d="M 3906,3534 l 161,0 4,1 2,2 2,3 1,3 -1,4 -4,4 -4,1 -161,0 -3,-1 -3,-2 -2,-2 -1,-4 1,-3 2,-3 3,-2 3,-1 z"/>
<text font-family="Calibri" font-size="84" fill="#000000"><tspan x="4085,4133,4177,4221,4274,4315" y="3568">AppDev</tspan></text>
<path fill="#868686" stroke="none" d="M 4492,1906 l 0,1 2,0 0,5 -4084,0 0,2515 -6,0 0,-2518 1,0 0,-2 2,0 0,-1 4085,0 z"/>
<path fill="#868686" stroke="none" d="M 4494,1912 l 0,2520 -4089,0 0,-1 -1,0 0,-4 4085,0 0,-2515 5,0 z"/>
</g>
</svg>
