<?xml version="1.0" standalone="no"?>
<svg xml:space="preserve" width="100%" height="100%" viewBox="0 0 4897 6337" preserveAspectRatio="xMidYMid"
  fill-rule="nonzero" stroke-linecap="round" stroke-linejoin="round"
  xmlns="http://www.w3.org/2000/svg"
  xmlns:xlink="http://www.w3.org/1999/xlink"
  xmlns:svgmaker="http://www.svgmaker.com/svgns">
<svgmaker:init width="215.9mm" height="279.4mm" viewBox="0 0 4897 6337" view="fit"
  crop="none" cropWidth="180.3mm" cropHeight="102.3mm" cropBox="404 2009 4090 2320"/>
<title>Untitled</title>
<desc>
  Generated by SVGmaker V3 Version 3.61.E702.64
  DEC-06-2016, 14:44
</desc>
<defs><clipPath id="page_clip"><rect x="0" y="0" width="4897" height="6337"/></clipPath></defs>
<g id="Page_1" clip-path="url(#page_clip)" svgmaker:mediaBox="0 0 4897 6337">
<rect x="407" y="2012" width="4084" height="2315" fill="#FFFFFF" stroke="none"/>
<rect x="899" y="2563" width="3497" height="1261" fill="#FFFFFF" stroke="none"/>
<path fill="#868686" stroke="none" d="M 899,3681 l 3497,0 0,6 -3497,0 0,-6 z m 0,-141 l 3497,0 0,6 -3497,0 0,-6 z m 0,-140 l 3497,0 0,6 -3497,0 0,-6 z m 0,-140 l 3497,0 0,6 -3497,0 0,-6 z m 0,-140 l 3497,0 0,6 -3497,0 0,-6 z m 0,-140 l 3497,0 0,6 -3497,0 0,-6 z m 0,-140 l 3497,0 0,6 -3497,0 0,-6 z m 0,-140 l 3497,0 0,6 -3497,0 0,-6 z m 0,-140 l 3497,0 0,6 -3497,0 0,-6 z"/>
<path fill="#4F81BD" stroke="none" d="M 4000,2616 l 93,0 0,1208 -93,0 0,-1208 z m 233,77 l 93,0 0,1131 -93,0 0,-1131 z m -466,4 l 93,0 0,1127 -93,0 0,-1127 z m -233,180 l 93,0 0,947 -93,0 0,-947 z m -233,123 l 93,0 0,824 -93,0 0,-824 z m -233,42 l 93,0 0,782 -93,0 0,-782 z m -234,312 l 94,0 0,470 -94,0 0,-470 z m -233,49 l 94,0 0,421 -94,0 0,-421 z m -233,161 l 93,0 0,260 -93,0 0,-260 z m -233,106 l 93,0 0,154 -93,0 0,-154 z m -233,42 l 93,0 0,112 -93,0 0,-112 z m -233,56 l 93,0 0,56 -93,0 0,-56 z m -233,28 l 93,0 0,28 -93,0 0,-28 z m -234,21 l 94,0 0,7 -94,0 0,-7 z"/>
<rect x="896" y="2563" width="6" height="1261" fill="#868686" stroke="none"/>
<path fill="#868686" stroke="none" d="M 872,3821 l 27,0 0,6 -27,0 0,-6 z m 0,-140 l 27,0 0,6 -27,0 0,-6 z m 0,-141 l 27,0 0,6 -27,0 0,-6 z m 0,-140 l 27,0 0,6 -27,0 0,-6 z m 0,-140 l 27,0 0,6 -27,0 0,-6 z m 0,-140 l 27,0 0,6 -27,0 0,-6 z m 0,-140 l 27,0 0,6 -27,0 0,-6 z m 0,-140 l 27,0 0,6 -27,0 0,-6 z m 0,-140 l 27,0 0,6 -27,0 0,-6 z m 0,-140 l 27,0 0,6 -27,0 0,-6 z"/>
<rect x="899" y="3821" width="3497" height="6" fill="#868686" stroke="none"/>
<path fill="#868686" stroke="none" d="M 902,3824 l 0,27 -6,0 0,-27 6,0 z m 233,0 l 0,27 -6,0 0,-27 6,0 z m 234,0 l 0,27 -6,0 0,-27 6,0 z m 233,0 l 0,27 -6,0 0,-27 6,0 z m 233,0 l 0,27 -6,0 0,-27 6,0 z m 233,0 l 0,27 -6,0 0,-27 6,0 z m 233,0 l 0,27 -6,0 0,-27 6,0 z m 233,0 l 0,27 -6,0 0,-27 6,0 z m 233,0 l 0,27 -6,0 0,-27 6,0 z m 234,0 l 0,27 -6,0 0,-27 6,0 z m 233,0 l 0,27 -6,0 0,-27 6,0 z m 233,0 l 0,27 -6,0 0,-27 6,0 z m 233,0 l 0,27 -6,0 0,-27 6,0 z m 233,0 l 0,27 -6,0 0,-27 6,0 z m 233,0 l 0,27 -6,0 0,-27 6,0 z m 233,0 l 0,27 -6,0 0,-27 6,0 z"/>
<text font-family="Calibri" font-size="86" fill="#000000"><tspan x="995" y="3762">0</tspan><tspan x="1206,1250" y="3755">10</tspan><tspan x="1439,1483" y="3734">40</tspan><tspan x="1672,1716" y="3706">80</tspan><tspan x="1884,1928,1972" y="3650">160</tspan><tspan x="2117,2161,2205" y="3608">220</tspan><tspan x="2350,2394,2438" y="3503">370</tspan><tspan x="2583,2627,2671" y="3342">600</tspan><tspan x="2816,2860,2904" y="3293">670</tspan><tspan x="3027,3071,3115,3159" y="2981">1116</tspan><tspan x="3260,3304,3348,3392" y="2939">1176</tspan><tspan x="3493,3537,3581,3625" y="2816">1351</tspan><tspan x="3726,3770,3814,3858" y="2636">1608</tspan><tspan x="3959,4003,4047,4092" y="2554">1725</tspan><tspan x="4192,4237,4281,4325" y="2632">1614</tspan><tspan x="777" y="3849">0</tspan><tspan x="690,734,777" y="3709">200</tspan><tspan x="690,734,777" y="3569">400</tspan><tspan x="690,734,777" y="3429">600</tspan><tspan x="690,734,777" y="3288">800</tspan><tspan x="646,690,733,778" y="3148">1000</tspan><tspan x="646,690,733,778" y="3008">1200</tspan><tspan x="646,690,733,778" y="2868">1400</tspan><tspan x="646,690,733,778" y="2728">1600</tspan><tspan x="646,690,733,778" y="2588">1800</tspan><tspan x="930,974,1017,1061" y="3961">2002</tspan><tspan x="1163,1207,1250,1294" y="3961">2003</tspan><tspan x="1396,1440,1483,1528" y="3961">2004</tspan><tspan x="1629,1674,1717,1761" y="3961">2005</tspan><tspan x="1863,1907,1950,1994" y="3961">2006</tspan><tspan x="2096,2140,2183,2227" y="3961">2007</tspan><tspan x="2329,2373,2416,2460" y="3961">2008</tspan><tspan x="2562,2606,2649,2693" y="3961">2009</tspan><tspan x="2795,2839,2882,2926" y="3961">2010</tspan><tspan x="3028,3072,3115,3160" y="3961">2011</tspan><tspan x="3261,3306,3349,3393" y="3961">2012</tspan><tspan x="3495,3539,3582,3626" y="3961">2013</tspan><tspan x="3728,3772,3815,3859" y="3961">2014</tspan><tspan x="3961,4005,4048,4092" y="3961">2015</tspan><tspan x="4194,4238,4281,4326" y="3961">2016</tspan><tspan x="4183,4208,4254,4295,4325,4354" y="4066">(part)</tspan></text>
<text font-family="Calibri" font-size="86" fill="#000000" font-weight="700" transform="translate(597,3301) rotate(-90)"><tspan x="0,45,91,137,184" y="0">Count</tspan></text>
<text font-family="Calibri" font-size="86" fill="#000000" font-weight="700"><tspan x="2357,2402,2445,2488" y="4129">Year</tspan></text>
<text font-family="Calibri" font-size="155" fill="#000000" font-weight="700"><tspan x="1039,1138,1221,1304,1377,1415,1493" y="2224">Google </tspan><tspan x="1529,1602,1666,1749,1832,1870,1946,2001" y="2224">Scholar </tspan><tspan x="2038,2119,2194,2246,2329,2390,2454,2530,2613,2692" y="2224">Cytoscape </tspan><tspan x="2728,2810,2848,2900,2976,3029,3067,3150,3233,3294" y="2224">Citations </tspan><tspan x="3331,3379,3458,3536,3576,3654,3733,3811,3860" y="2224">(10,740) </tspan><tspan x="1633,1712" y="2414">1/</tspan><tspan x="1778,1857" y="2414">1/</tspan><tspan x="1924,2002,2081,2159,2238" y="2414">2002 </tspan><tspan x="2272,2326,2409,2464,2546" y="2414">thru </tspan><tspan x="2583,2661,2740" y="2414">11/</tspan><tspan x="2807,2885" y="2414">1/</tspan><tspan x="2952,3030,3109,3188" y="2414">2016</tspan></text>
<path fill="#868686" stroke="none" d="M 4492,2009 l 0,1 2,0 0,5 -4083,0 0,2309 -7,0 0,-2312 1,0 0,-2 2,0 0,-1 4085,0 z"/>
<path fill="#868686" stroke="none" d="M 4494,2015 l 0,2314 -4089,0 0,-1 -1,0 0,-4 4085,0 0,-2309 5,0 z"/>
</g>
</svg>
