<?xml version="1.0" standalone="no"?>
<svg xml:space="preserve" width="100%" height="100%" viewBox="0 0 4897 6337" preserveAspectRatio="xMidYMid"
  fill-rule="nonzero" stroke-linecap="round" stroke-linejoin="round"
  xmlns="http://www.w3.org/2000/svg"
  xmlns:xlink="http://www.w3.org/1999/xlink"
  xmlns:svgmaker="http://www.svgmaker.com/svgns">
<svgmaker:init width="215.9mm" height="279.4mm" viewBox="0 0 4897 6337" view="fit"
  crop="none" cropWidth="180.3mm" cropHeight="90.9mm" cropBox="404 2138 4090 2062"/>
<title>Untitled</title>
<desc>
  Generated by SVGmaker V3 Version 3.61.E702.64
  DEC-06-2016, 14:41
</desc>
<defs><clipPath id="page_clip"><rect x="0" y="0" width="4897" height="6337"/></clipPath></defs>
<g id="Page_1" clip-path="url(#page_clip)" svgmaker:mediaBox="0 0 4897 6337">
<rect x="407" y="2141" width="4085" height="2057" fill="#FFFFFF" stroke="none"/>
<rect x="827" y="2656" width="3576" height="1072" fill="#FFFFFF" stroke="none"/>
<path fill="#868686" stroke="none" d="M 827,3606 l 3576,0 0,6 -3576,0 0,-6 z m 0,-119 l 3576,0 0,6 -3576,0 0,-6 z m 0,-119 l 3576,0 0,6 -3576,0 0,-6 z m 0,-120 l 3576,0 0,6 -3576,0 0,-6 z m 0,-119 l 3576,0 0,6 -3576,0 0,-6 z m 0,-119 l 3576,0 0,6 -3576,0 0,-6 z m 0,-119 l 3576,0 0,6 -3576,0 0,-6 z m 0,-119 l 3576,0 0,6 -3576,0 0,-6 z m 0,-119 l 3576,0 0,6 -3576,0 0,-6 z"/>
<path fill="#4F81BD" stroke="none" d="M 3936,2712 l 110,0 0,1016 -110,0 0,-1016 z m -275,174 l 110,0 0,842 -110,0 0,-842 z m 550,84 l 110,0 0,758 -110,0 0,-758 z m -826,13 l 110,0 0,745 -110,0 0,-745 z m -275,143 l 110,0 0,602 -110,0 0,-602 z m -275,174 l 110,0 0,428 -110,0 0,-428 z m -275,98 l 110,0 0,330 -110,0 0,-330 z m -275,32 l 110,0 0,298 -110,0 0,-298 z m -275,136 l 110,0 0,162 -110,0 0,-162 z m -275,77 l 110,0 0,85 -110,0 0,-85 z m -276,48 l 110,0 0,37 -110,0 0,-37 z m -275,16 l 110,0 0,21 -110,0 0,-21 z m -275,8 l 110,0 0,13 -110,0 0,-13 z"/>
<rect x="824" y="2656" width="6" height="1072" fill="#868686" stroke="none"/>
<path fill="#868686" stroke="none" d="M 801,3725 l 26,0 0,6 -26,0 0,-6 z m 0,-119 l 26,0 0,6 -26,0 0,-6 z m 0,-119 l 26,0 0,6 -26,0 0,-6 z m 0,-119 l 26,0 0,6 -26,0 0,-6 z m 0,-120 l 26,0 0,6 -26,0 0,-6 z m 0,-119 l 26,0 0,6 -26,0 0,-6 z m 0,-119 l 26,0 0,6 -26,0 0,-6 z m 0,-119 l 26,0 0,6 -26,0 0,-6 z m 0,-119 l 26,0 0,6 -26,0 0,-6 z m 0,-119 l 26,0 0,6 -26,0 0,-6 z"/>
<rect x="827" y="3725" width="3576" height="6" fill="#868686" stroke="none"/>
<path fill="#868686" stroke="none" d="M 830,3728 l 0,26 -6,0 0,-26 6,0 z m 275,0 l 0,26 -6,0 0,-26 6,0 z m 275,0 l 0,26 -6,0 0,-26 6,0 z m 275,0 l 0,26 -6,0 0,-26 6,0 z m 275,0 l 0,26 -6,0 0,-26 6,0 z m 275,0 l 0,26 -6,0 0,-26 6,0 z m 275,0 l 0,26 -6,0 0,-26 6,0 z m 276,0 l 0,26 -6,0 0,-26 6,0 z m 275,0 l 0,26 -6,0 0,-26 6,0 z m 275,0 l 0,26 -6,0 0,-26 6,0 z m 275,0 l 0,26 -6,0 0,-26 6,0 z m 275,0 l 0,26 -6,0 0,-26 6,0 z m 275,0 l 0,26 -6,0 0,-26 6,0 z m 275,0 l 0,26 -6,0 0,-26 6,0 z"/>
<text font-family="Calibri" font-size="80" fill="#000000"><tspan x="923,964" y="3657">11</tspan><tspan x="1198,1239" y="3649">18</tspan><tspan x="1473,1515" y="3634">31</tspan><tspan x="1749,1790" y="3586">71</tspan><tspan x="2004,2045,2086" y="3509">136</tspan><tspan x="2279,2320,2361" y="3373">250</tspan><tspan x="2554,2595,2636" y="3341">277</tspan><tspan x="2829,2870,2911" y="3243">359</tspan><tspan x="3104,3145,3187" y="3069">505</tspan><tspan x="3379,3421,3462" y="2926">625</tspan><tspan x="3654,3696,3737" y="2828">707</tspan><tspan x="3930,3971,4012" y="2654">853</tspan><tspan x="4205,4246,4287" y="2913">636</tspan><tspan x="712" y="3751">0</tspan><tspan x="630,671,712" y="3632">100</tspan><tspan x="630,671,712" y="3513">200</tspan><tspan x="630,671,712" y="3394">300</tspan><tspan x="630,671,712" y="3275">400</tspan><tspan x="630,671,712" y="3156">500</tspan><tspan x="630,671,712" y="3037">600</tspan><tspan x="630,671,712" y="2917">700</tspan><tspan x="630,671,712" y="2798">800</tspan><tspan x="630,671,712" y="2679">900</tspan><tspan x="883,924,965,1006" y="3856">2004</tspan><tspan x="1158,1199,1240,1281" y="3856">2005</tspan><tspan x="1433,1475,1515,1556" y="3856">2006</tspan><tspan x="1709,1750,1790,1831" y="3856">2007</tspan><tspan x="1984,2025,2065,2106" y="3856">2008</tspan><tspan x="2259,2300,2340,2382" y="3856">2009</tspan><tspan x="2534,2575,2615,2657" y="3856">2010</tspan><tspan x="2809,2850,2891,2932" y="3856">2011</tspan><tspan x="3084,3126,3166,3207" y="3856">2012</tspan><tspan x="3360,3401,3441,3482" y="3856">2013</tspan><tspan x="3635,3676,3716,3757" y="3856">2014</tspan><tspan x="3910,3951,3991,4032" y="3856">2015</tspan><tspan x="4185,4226,4266,4307" y="3856">2016</tspan><tspan x="4175,4199,4241,4279,4307,4334" y="3954">(Part)</tspan></text>
<text font-family="Calibri" font-size="80" fill="#000000" font-weight="700" transform="translate(584,3342) rotate(-90)"><tspan x="0,42,63,91,131,159,179,222,266" y="0">Citations</tspan></text>
<text font-family="Calibri" font-size="80" fill="#000000" font-weight="700"><tspan x="2540,2583,2623,2663" y="4076">Year</tspan></text>
<text font-family="Calibri" font-size="145" fill="#000000" font-weight="700"><tspan x="1369,1446,1524,1601,1719,1792,1869" y="2339">Pubmed </tspan><tspan x="1903,1979,2048,2097,2175,2232,2291,2363,2440,2514" y="2339">Cytoscape </tspan><tspan x="2547,2623,2658,2707,2778,2828,2863,2941,3018,3075" y="2339">Citations </tspan><tspan x="3109,3155,3228,3265,3339,3412,3485" y="2339">(4,479)</tspan><tspan x="1650,1724" y="2516">1/</tspan><tspan x="1786,1859" y="2516">1/</tspan><tspan x="1922,1995,2068,2142,2215" y="2516">2004 </tspan><tspan x="2247,2297,2375,2426,2503" y="2516">thru </tspan><tspan x="2538,2611,2684" y="2516">10/</tspan><tspan x="2747,2820,2893" y="2516">15/</tspan><tspan x="2956,3029,3102,3176" y="2516">2016</tspan></text>
<path fill="#868686" stroke="none" d="M 4492,2138 l 0,1 2,0 0,5 -4084,0 0,2051 -6,0 0,-2054 1,0 0,-2 2,0 0,-1 4085,0 z"/>
<path fill="#868686" stroke="none" d="M 4494,2144 l 0,2056 -4089,0 0,-1 -1,0 0,-4 4085,0 0,-2051 5,0 z"/>
</g>
</svg>
