<?xml version="1.0" standalone="no"?>
<svg xml:space="preserve" width="100%" height="100%" viewBox="0 0 4897 6337" preserveAspectRatio="xMidYMid"
  fill-rule="nonzero" stroke-linecap="round" stroke-linejoin="round"
  xmlns="http://www.w3.org/2000/svg"
  xmlns:xlink="http://www.w3.org/1999/xlink"
  xmlns:svgmaker="http://www.svgmaker.com/svgns">
<svgmaker:init width="215.9mm" height="279.4mm" viewBox="0 0 4897 6337" view="fit"
  crop="none" cropWidth="180.3mm" cropHeight="126.0mm" cropBox="405 1740 4089 2858"/>
<title>Untitled</title>
<desc>
  Generated by SVGmaker V3 Version 3.61.E702.64
  DEC-06-2016, 14:34
</desc>
<defs><clipPath id="page_clip"><rect x="0" y="0" width="4897" height="6337"/></clipPath></defs>
<g id="Page_1" clip-path="url(#page_clip)" svgmaker:mediaBox="0 0 4897 6337">
<rect x="407" y="1743" width="4084" height="2852" fill="#FFFFFF" stroke="none"/>
<path fill="#4572A7" stroke="none" d="M 2449,3380 l 973,-56 -4,-48 -6,-47 -9,-47 -10,-46 -13,-44 -15,-44 -16,-43 -19,-42 -21,-41 -22,-40 -24,-38 -26,-37 -27,-36 -30,-35 -30,-33 -32,-31 -34,-31 -35,-28 -36,-27 -37,-26 -39,-23 -40,-22 -41,-20 -41,-18 -43,-16 -44,-14 -45,-13 -45,-10 -46,-8 -47,-5 -48,-4 -48,-1 0,974 z"/>
<path fill="#AA4643" stroke="none" d="M 2449,3380 l 845,486 17,-31 16,-32 15,-32 14,-33 12,-33 11,-33 10,-34 9,-34 7,-34 6,-35 5,-35 4,-35 4,-70 -1,-36 -1,-35 -973,56 z"/>
<path fill="#89A54E" stroke="none" d="M 2449,3380 l 488,844 55,-34 52,-37 49,-41 47,-43 43,-47 40,-49 37,-52 34,-55 -845,-486 z"/>
<path fill="#71588F" stroke="none" d="M 2449,3380 l 209,952 37,-9 36,-10 35,-11 36,-13 34,-14 35,-16 33,-17 33,-18 -488,-844 z"/>
<path fill="#4198AF" stroke="none" d="M 2449,3380 l -77,972 36,2 36,1 36,0 36,-2 36,-3 35,-5 36,-6 35,-7 -209,-952 z"/>
<path fill="#DB843D" stroke="none" d="M 2449,3380 l -324,920 30,10 30,9 31,8 31,7 62,11 63,7 77,-972 z"/>
<path fill="#93A9CF" stroke="none" d="M 2449,3380 l -513,829 45,26 47,24 48,22 49,19 324,-920 z"/>
<path fill="#D19392" stroke="none" d="M 2449,3380 l -651,726 33,28 34,27 35,25 36,23 513,-829 z"/>
<path fill="#B9CD96" stroke="none" d="M 2449,3380 l -754,618 24,29 25,27 27,27 27,25 651,-726 z"/>
<path fill="#A99BBD" stroke="none" d="M 2449,3380 l -830,512 36,54 40,52 754,-618 z"/>
<path fill="#91C3D5" stroke="none" d="M 2449,3380 l 0,-974 -50,1 -50,4 -48,6 -48,9 -47,11 -47,13 -45,15 -44,18 -43,19 -42,22 -41,23 -40,25 -38,28 -37,28 -35,31 -34,32 -33,34 -30,35 -29,37 -27,38 -26,40 -23,41 -22,42 -19,43 -18,44 -15,45 -13,47 -11,47 -9,48 -6,48 -4,50 -1,50 2,68 3,33 4,34 12,66 8,33 8,32 10,32 11,32 12,31 13,32 14,30 15,30 16,30 17,29 830,-512 z"/>
<path fill="#000000" stroke="none" d="M 3116,2670 l 175,-211 1,-1 36,0 0,5 -36,0 2,-1 -175,211 -3,-3 z m -1250,1492 l -180,204 -2,1 -36,0 0,-5 36,0 -1,1 180,-204 3,3 z m -120,-106 l -161,143 -2,1 -36,0 0,-5 36,0 -1,1 161,-143 3,3 z m 284,205 l -85,186 -3,1 -36,0 0,-5 36,0 -2,1 85,-186 5,3 z m -433,-1353 l -174,-62 -36,0 0,-5 37,0 174,62 -1,5 z m 1801,694 l 196,52 -1,0 36,0 0,5 -36,0 -196,-52 1,-5 z m -594,687 l 48,123 -3,-2 36,0 0,5 -36,0 -2,-2 -48,-123 5,-1 z m -555,45 l -41,112 -3,2 -36,0 0,-5 36,0 -2,2 41,-112 5,1 z m 892,-267 l 62,73 -2,-1 36,0 0,5 -36,0 -1,-1 -62,-73 3,-3 z m -1484,-118 l -66,33 -38,0 0,-5 36,0 -1,0 66,-33 3,5 z"/>
<text font-family="Calibri" font-size="79" fill="#000000"><tspan x="3341,3392,3434,3452,3479,3519,3561" y="2461">United </tspan><tspan x="3579,3616,3643,3680,3707,3747" y="2461">States</tspan><tspan x="3490,3531,3572" y="2559">24%</tspan><tspan x="3642,3685,3727,3745,3787" y="3656">China</tspan><tspan x="3685,3726" y="3754">9%</tspan><tspan x="3250,3270,3312,3354,3372" y="4142">India</tspan><tspan x="3281,3322" y="4240">8%</tspan><tspan x="2899,2950,2992,3010,3036,3076,3118" y="4413">United </tspan><tspan x="3136,3178,3196,3238,3276,3318,3360" y="4413">Kingdom</tspan><tspan x="3112,3153" y="4511">5%</tspan><tspan x="2246,2296,2336,2364,2428,2466,2508" y="4459">Germany</tspan><tspan x="2346,2387" y="4557">5%</tspan><tspan x="1973,1999,2036,2078,2116" y="4464">Japan</tspan><tspan x="2017,2057" y="4562">4%</tspan><tspan x="1677,1714,1741,1779,1821,1855" y="4454">France</tspan><tspan x="1738,1778" y="4552">3%</tspan><tspan x="1396,1439,1477,1519,1557,1599" y="4364">Canada</tspan><tspan x="1468,1509" y="4462">3%</tspan><tspan x="1397,1417,1444,1482,1500" y="4198">Italy</tspan><tspan x="1418,1459" y="4296">3%</tspan><tspan x="1360,1404,1432,1470,1502,1520" y="3981">Brazil</tspan><tspan x="1400,1441" y="4079">2%</tspan><tspan x="1212,1265,1292,1334,1374" y="2746">Other</tspan><tspan x="1237,1278,1319" y="2844">34%</tspan></text>
<text font-family="Calibri" font-size="143" fill="#000000" font-weight="700"><tspan x="1464,1540,1609,1658,1735,1792,1851,1922,1998,2071,2109,2186,2235,2303" y="1940">Cytoscape.org </tspan><tspan x="2338,2406,2478,2535,2592,2627,2704,2781,2838" y="1940">Sessions </tspan><tspan x="2872,2917,2989,3062,3135,3172,3245,3318,3391" y="1940">(789,087)</tspan><tspan x="1500,1545,1618" y="2116">(1/</tspan><tspan x="1680,1753" y="2116">1/</tspan><tspan x="1815,1888,1960,2033,2106" y="2116">2015 </tspan><tspan x="2138,2188,2265,2314,2391,2467,2535,2612" y="2116">through </tspan><tspan x="2647,2720,2793" y="2116">10/</tspan><tspan x="2855,2928,3000" y="2116">19/</tspan><tspan x="3062,3135,3208,3281,3354" y="2116">2016)</tspan></text>
<path fill="#868686" stroke="none" d="M 4492,1740 l 0,1 2,0 0,5 -4083,0 0,2846 -6,0 0,-2849 1,0 0,-2 2,0 0,-1 4084,0 z"/>
<path fill="#868686" stroke="none" d="M 4494,1746 l 0,2852 -4088,0 0,-2 -1,0 0,-4 4084,0 0,-2846 5,0 z"/>
</g>
</svg>
