<?xml version="1.0" standalone="no"?>
<svg xml:space="preserve" width="100%" height="100%" viewBox="0 0 4897 6337" preserveAspectRatio="xMidYMid"
  fill-rule="nonzero" stroke-linecap="round" stroke-linejoin="round"
  xmlns="http://www.w3.org/2000/svg"
  xmlns:xlink="http://www.w3.org/1999/xlink"
  xmlns:svgmaker="http://www.svgmaker.com/svgns">
<svgmaker:init width="215.9mm" height="279.4mm" viewBox="0 0 4897 6337" view="fit"
  crop="none" cropWidth="180.3mm" cropHeight="126.0mm" cropBox="405 1740 4089 2858"/>
<title>Untitled</title>
<desc>
  Generated by SVGmaker V3 Version 3.61.E702.64
  DEC-06-2016, 14:33
</desc>
<defs><clipPath id="page_clip"><rect x="0" y="0" width="4897" height="6337"/></clipPath></defs>
<g id="Page_1" clip-path="url(#page_clip)" svgmaker:mediaBox="0 0 4897 6337">
<rect x="407" y="1743" width="4084" height="2852" fill="#FFFFFF" stroke="none"/>
<path fill="#4572A7" stroke="none" d="M 2449,3380 l 969,109 4,-50 2,-50 -1,-49 -3,-48 -6,-48 -8,-48 -10,-47 -12,-46 -15,-45 -17,-44 -19,-43 -20,-42 -23,-41 -25,-40 -26,-38 -29,-38 -30,-35 -32,-35 -33,-33 -35,-31 -36,-29 -38,-28 -40,-26 -40,-25 -42,-22 -44,-20 -44,-18 -46,-16 -47,-14 -47,-12 -49,-9 -50,-7 -54,-4 -54,-2 0,974 z"/>
<path fill="#AA4643" stroke="none" d="M 2449,3380 l 806,548 32,-50 29,-52 25,-53 22,-55 19,-56 15,-57 13,-57 8,-59 -969,-109 z"/>
<path fill="#89A54E" stroke="none" d="M 2449,3380 l 471,854 49,-29 48,-32 45,-35 44,-37 41,-40 38,-42 36,-44 34,-47 -806,-548 z"/>
<path fill="#71588F" stroke="none" d="M 2449,3380 l 160,962 41,-8 40,-9 40,-11 39,-13 39,-14 38,-16 37,-18 37,-19 -471,-854 z"/>
<path fill="#4198AF" stroke="none" d="M 2449,3380 l -147,964 38,5 39,4 38,2 39,0 38,-1 38,-2 39,-4 38,-6 -160,-962 z"/>
<path fill="#DB843D" stroke="none" d="M 2449,3380 l -412,884 32,14 32,13 33,12 66,20 34,8 34,7 34,6 147,-964 z"/>
<path fill="#93A9CF" stroke="none" d="M 2449,3380 l -602,767 45,33 47,31 48,28 50,25 412,-884 z"/>
<path fill="#D19392" stroke="none" d="M 2449,3380 l -740,635 32,35 34,34 35,33 37,30 602,-767 z"/>
<path fill="#B9CD96" stroke="none" d="M 2449,3380 l -840,495 23,37 24,35 26,35 27,33 740,-635 z"/>
<path fill="#A99BBD" stroke="none" d="M 2449,3380 l -895,388 26,54 29,53 840,-495 z"/>
<path fill="#91C3D5" stroke="none" d="M 2449,3380 l 0,-974 -50,1 -50,4 -48,6 -48,9 -47,11 -47,13 -45,15 -44,18 -43,19 -42,22 -41,23 -40,25 -38,28 -37,28 -35,31 -34,32 -33,34 -30,35 -29,37 -27,38 -26,40 -23,41 -22,42 -19,43 -18,44 -15,45 -13,47 -11,47 -9,48 -6,48 -4,50 -1,50 1,50 4,50 7,49 9,49 11,49 14,47 16,48 18,46 895,-388 z"/>
<path fill="#000000" stroke="none" d="M 1776,4086 l -184,200 -2,1 -36,0 0,-5 36,0 -1,1 184,-200 3,3 z m 1398,-1357 l 177,-197 1,-1 36,0 0,5 -36,0 2,-1 -177,197 -3,-3 z m -1233,1483 l -90,193 -3,1 -36,0 0,-5 36,0 -2,1 90,-193 5,3 z m -284,-262 l -165,112 -38,0 0,-5 36,0 -1,0 165,-112 3,5 z m 1707,-234 l 193,71 -1,0 36,0 0,5 -36,0 -193,-71 1,-5 z m -1731,-868 l -173,-76 1,0 -36,0 0,-5 37,0 173,76 -2,5 z m 536,1467 l -78,132 -3,1 -36,0 0,-5 36,0 -2,1 78,-132 5,3 z m 603,-14 l 46,124 -3,-2 36,0 0,5 -36,0 -2,-2 -46,-124 5,-1 z m 335,-202 l 60,75 -2,-1 36,0 0,5 -36,0 -1,-1 -60,-75 3,-3 z"/>
<text font-family="Calibri" font-size="79" fill="#000000"><tspan x="3402,3453,3494,3512,3539,3579,3621" y="2534">United </tspan><tspan x="3639,3676,3703,3741,3768,3808" y="2534">States</tspan><tspan x="3550,3591,3632" y="2632">27%</tspan><tspan x="3606,3626,3668,3710,3728" y="3790">India</tspan><tspan x="3637,3678" y="3888">8%</tspan><tspan x="3214,3257,3299,3317,3359" y="4176">China</tspan><tspan x="3257,3298" y="4274">7%</tspan><tspan x="2865,2915,2957,2975,3002,3042,3084" y="4426">United </tspan><tspan x="3102,3144,3162,3204,3242,3284,3326" y="4426">Kingdom</tspan><tspan x="3078,3119" y="4523">5%</tspan><tspan x="2150,2200,2240,2268,2332,2370,2412" y="4459">Germany</tspan><tspan x="2250,2291" y="4557">5%</tspan><tspan x="1856,1882,1920,1962,2000" y="4464">Japan</tspan><tspan x="1900,1941" y="4562">5%</tspan><tspan x="1583,1620,1648,1686,1727,1761" y="4404">France</tspan><tspan x="1644,1685" y="4502">4%</tspan><tspan x="1302,1345,1382,1424,1462,1504" y="4285">Canada</tspan><tspan x="1374,1414" y="4383">3%</tspan><tspan x="1304,1324,1351,1389,1407" y="4060">Italy</tspan><tspan x="1325,1366" y="4158">3%</tspan><tspan x="1354,1391,1433,1471,1489" y="3814">Spain</tspan><tspan x="1394,1435" y="3912">2%</tspan><tspan x="1251,1303,1330,1372,1412" y="2673">Other</tspan><tspan x="1275,1316,1357" y="2771">31%</tspan></text>
<text font-family="Calibri" font-size="143" fill="#000000" font-weight="700"><tspan x="1409,1485,1554,1603,1680,1737,1796,1867,1943,2016,2054,2131,2180,2248" y="1940">Cytoscape.org </tspan><tspan x="2283,2351,2423,2480,2537,2572,2649,2726,2783" y="1940">Sessions </tspan><tspan x="2817,2862,2934,2971,3044,3117,3190,3227,3300,3373,3445" y="1940">(1,799,876)</tspan><tspan x="1500,1545,1618" y="2116">(1/</tspan><tspan x="1680,1753" y="2116">1/</tspan><tspan x="1815,1888,1960,2033,2106" y="2116">2012 </tspan><tspan x="2138,2188,2265,2314,2391,2467,2535,2612" y="2116">through </tspan><tspan x="2647,2720,2793" y="2116">10/</tspan><tspan x="2855,2927,3000" y="2116">19/</tspan><tspan x="3062,3135,3208,3281,3354" y="2116">2016)</tspan></text>
<path fill="#868686" stroke="none" d="M 4492,1740 l 0,1 2,0 0,5 -4083,0 0,2846 -6,0 0,-2849 1,0 0,-2 2,0 0,-1 4084,0 z"/>
<path fill="#868686" stroke="none" d="M 4494,1746 l 0,2852 -4088,0 0,-2 -1,0 0,-4 4084,0 0,-2846 5,0 z"/>
</g>
</svg>
