<?xml version="1.0" standalone="no"?>
<svg xml:space="preserve" width="100%" height="100%" viewBox="0 0 4897 6337" preserveAspectRatio="xMidYMid"
  fill-rule="nonzero" stroke-linecap="round" stroke-linejoin="round"
  xmlns="http://www.w3.org/2000/svg"
  xmlns:xlink="http://www.w3.org/1999/xlink"
  xmlns:svgmaker="http://www.svgmaker.com/svgns">
<svgmaker:init width="215.9mm" height="279.4mm" viewBox="0 0 4897 6337" view="fit"
  crop="none" cropWidth="180.3mm" cropHeight="90.4mm" cropBox="404 2144 4090 2050"/>
<title>Untitled</title>
<desc>
  Generated by SVGmaker V3 Version 3.61.E702.64
  DEC-06-2016, 14:34
</desc>
<defs><clipPath id="page_clip"><rect x="0" y="0" width="4897" height="6337"/></clipPath></defs>
<g id="Page_1" clip-path="url(#page_clip)" svgmaker:mediaBox="0 0 4897 6337">
<rect x="406" y="2146" width="4086" height="2047" fill="#FFFFFF" stroke="none"/>
<path fill="#4572A7" stroke="none" d="M 2449,3321 l 384,577 29,-20 28,-22 26,-23 25,-24 24,-25 22,-26 21,-27 19,-28 18,-28 16,-30 15,-30 13,-30 12,-31 11,-32 16,-64 6,-33 4,-33 2,-33 1,-34 0,-33 -3,-33 -3,-34 -6,-33 -7,-33 -9,-33 -10,-33 -12,-32 -14,-32 -16,-31 -17,-31 -19,-30 -25,-35 -27,-33 -29,-32 -30,-29 -33,-27 -34,-26 -35,-23 -36,-21 -38,-19 -39,-16 -40,-14 -41,-12 -41,-9 -42,-7 -43,-4 -43,-1 0,692 z"/>
<path fill="#AA4643" stroke="none" d="M 2449,3321 l -295,627 42,18 42,15 43,12 44,10 43,6 44,4 44,1 44,-2 44,-5 43,-7 43,-10 43,-13 41,-16 41,-18 40,-21 38,-24 -384,-577 z"/>
<path fill="#89A54E" stroke="none" d="M 2449,3321 l -516,463 24,25 25,24 26,23 27,21 29,20 29,19 30,17 31,15 295,-627 z"/>
<path fill="#71588F" stroke="none" d="M 2449,3321 l -635,277 11,25 13,25 28,48 32,45 35,43 516,-463 z"/>
<path fill="#4198AF" stroke="none" d="M 2449,3321 l -688,82 8,50 11,50 15,48 19,47 635,-277 z"/>
<path fill="#DB843D" stroke="none" d="M 2449,3321 l -693,8 1,37 4,37 688,-82 z"/>
<path fill="#93A9CF" stroke="none" d="M 2449,3321 l -691,-55 -1,32 -1,31 693,-8 z"/>
<path fill="#D19392" stroke="none" d="M 2449,3321 l -686,-96 -3,21 -2,20 691,55 z"/>
<path fill="#B9CD96" stroke="none" d="M 2449,3321 l -680,-132 -4,18 -2,18 686,96 z"/>
<path fill="#A99BBD" stroke="none" d="M 2449,3321 l -673,-165 -7,33 680,132 z"/>
<path fill="#91C3D5" stroke="none" d="M 2449,3321 l 0,-692 -30,1 -29,2 -29,3 -29,4 -29,5 -28,7 -28,8 -27,9 -27,10 -26,11 -26,12 -25,13 -49,29 -46,33 -43,37 -40,40 -36,43 -34,47 -15,24 -14,25 -13,26 -12,26 -11,27 -10,28 -9,28 -8,29 673,165 z"/>
<path fill="#000000" stroke="none" d="M 1771,3174 l -504,-376 1,0 -28,0 0,-4 29,0 504,376 -2,4 z m 11,330 l -223,303 -2,1 -29,0 0,-4 29,0 -2,1 223,-303 4,2 z m -17,-295 l -395,-141 1,0 -28,0 0,-4 29,0 395,141 -2,4 z m -7,158 l -168,185 -1,1 -28,0 0,-4 28,0 -1,1 168,-185 2,2 z m 279,511 l -143,198 -2,1 -29,0 0,-4 29,0 -2,1 143,-198 4,2 z m -169,-181 l -87,270 -2,1 -28,0 0,-4 28,0 -2,1 87,-270 4,2 z m -112,-397 l -302,72 -28,0 0,-4 28,0 302,-72 0,4 z m 1354,-180 l 133,-149 2,-1 28,0 0,4 -28,0 1,-1 -133,149 -3,-2 z m -1350,128 l -358,-47 -28,0 0,-4 28,0 358,47 0,4 z m 740,762 l 531,27 28,0 0,4 -28,0 -531,-27 0,-4 z m -480,-1232 l -206,-59 1,0 -29,0 0,-4 30,0 206,59 -2,4 z"/>
<text font-family="Calibri" font-size="63" fill="#000000"><tspan x="3283,3313,3346,3380,3410,3424,3456,3470,3494" y="2973">google / </tspan><tspan x="3509,3542,3564,3594,3624,3657,3672" y="2973">organic</tspan><tspan x="3436,3468,3501" y="3050">41%</tspan><tspan x="3070,3089,3122,3137,3159,3190,3217,3239,3258,3272,3296" y="4039">(direct) / </tspan><tspan x="3311,3330,3363,3396,3429,3461" y="4039">(none)</tspan><tspan x="3220,3252,3284" y="4117">16%</tspan><tspan x="1542,1572,1605,1638,1668,1683,1714,1729,1753" y="4089">google / </tspan><tspan x="1767,1794,1827" y="4089">cpc</tspan><tspan x="1660,1692" y="4167">6%</tspan><tspan x="1443,1473,1506,1540,1570,1584,1616,1631,1658,1691" y="3966">google.com</tspan><tspan x="1554,1586" y="4044">5%</tspan><tspan x="1162,1189,1217,1239,1272,1296,1323,1353,1387,1418,1434,1467,1490" y="3806">cytoscape.org</tspan><tspan x="1302,1334" y="3883">5%</tspan><tspan x="1408,1441,1471,1485,1518" y="3552">baidu</tspan><tspan x="1441,1473" y="3629">2%</tspan><tspan x="922,952,985,1018,1043,1059,1086,1114,1135,1169,1193,1220,1250,1283,1315,1331,1364,1386" y="3370">apps.cytoscape.org</tspan><tspan x="1131,1163" y="3447">1%</tspan><tspan x="1053,1083,1116,1149,1179,1194,1225,1241,1268,1301,1317,1331" y="3199">google.co.in</tspan><tspan x="1170,1202" y="3277">1%</tspan><tspan x="1240,1273,1288,1321" y="2989">bing</tspan><tspan x="1257,1289" y="3067">1%</tspan><tspan x="905,935,968,1001,1031,1046,1077,1093,1120,1153,1169,1202" y="2796">google.co.uk</tspan><tspan x="1029,1061" y="2874">1%</tspan><tspan x="1635,1669,1690,1723,1755" y="2718">other</tspan><tspan x="1651,1684,1716" y="2795">21%</tspan></text>
<text font-family="Calibri" font-size="102" fill="#000000" font-weight="700"><tspan x="1670,1724,1773,1807,1861,1902,1944,1994,2048,2099,2126,2180,2215,2263" y="2253">Cytoscape.org </tspan><tspan x="2286,2341,2391,2422,2472,2509,2543,2593,2617" y="2253">Referral </tspan><tspan x="2640,2688,2743,2798,2832,2875,2926,2966" y="2253">Sources </tspan><tspan x="2988,3020,3072,3098,3149,3201,3252,3278,3330,3381,3432" y="2253">(1,799,876)</tspan><tspan x="1898,1929,1981" y="2376">(1/</tspan><tspan x="2024,2076" y="2376">1/</tspan><tspan x="2119,2171,2222,2274,2325" y="2376">2012 </tspan><tspan x="2347,2382,2437,2472,2526,2581,2629,2684" y="2376">through </tspan><tspan x="2706,2757,2809" y="2376">10/</tspan><tspan x="2852,2904,2955" y="2376">19/</tspan><tspan x="2999,3050,3102,3153,3204" y="2376">1016)</tspan></text>
<path fill="#868686" stroke="none" d="M 4492,2144 l 0,1 2,0 0,3 -4086,0 0,2042 -4,0 0,-2044 1,0 0,-1 1,0 0,-1 4086,0 z"/>
<path fill="#868686" stroke="none" d="M 4494,2148 l 0,2046 -4090,0 0,-4 4086,0 0,-2042 4,0 z"/>
</g>
</svg>
