<?xml version="1.0" standalone="no"?>
<svg xml:space="preserve" width="100%" height="100%" viewBox="0 0 4897 6337" preserveAspectRatio="xMidYMid"
  fill-rule="nonzero" stroke-linecap="round" stroke-linejoin="round"
  xmlns="http://www.w3.org/2000/svg"
  xmlns:xlink="http://www.w3.org/1999/xlink"
  xmlns:svgmaker="http://www.svgmaker.com/svgns">
<svgmaker:init width="215.9mm" height="279.4mm" viewBox="0 0 4897 6337" view="fit"
  crop="none" cropWidth="180.3mm" cropHeight="109.8mm" cropBox="404 1924 4090 2491"/>
<title>Untitled</title>
<desc>
  Generated by SVGmaker V3 Version 3.61.E702.64
  DEC-06-2016, 14:32
</desc>
<defs><clipPath id="page_clip"><rect x="0" y="0" width="4897" height="6337"/></clipPath></defs>
<g id="Page_1" clip-path="url(#page_clip)" svgmaker:mediaBox="0 0 4897 6337">
<rect x="406" y="1925" width="4087" height="2488" fill="#FFFFFF" stroke="none"/>
<rect x="716" y="2243" width="3168" height="1940" fill="#FFFFFF" stroke="none"/>
<path fill="#868686" stroke="none" d="M 715,3858 l 3168,0 0,3 -3168,0 0,-3 z m 0,-323 l 3168,0 0,3 -3168,0 0,-3 z m 0,-323 l 3168,0 0,3 -3168,0 0,-3 z m 0,-324 l 3168,0 0,3 -3168,0 0,-3 z m 0,-323 l 3168,0 0,3 -3168,0 0,-3 z m 0,-323 l 3168,0 0,3 -3168,0 0,-3 z"/>
<rect x="714" y="2243" width="3" height="1940" fill="#868686" stroke="none"/>
<path fill="#868686" stroke="none" d="M 699,4182 l 16,0 0,3 -16,0 0,-3 z m 0,-324 l 16,0 0,3 -16,0 0,-3 z m 0,-323 l 16,0 0,3 -16,0 0,-3 z m 0,-323 l 16,0 0,3 -16,0 0,-3 z m 0,-324 l 16,0 0,3 -16,0 0,-3 z m 0,-323 l 16,0 0,3 -16,0 0,-3 z m 0,-323 l 16,0 0,3 -16,0 0,-3 z"/>
<rect x="715" y="4182" width="3168" height="3" fill="#868686" stroke="none"/>
<path fill="#868686" stroke="none" d="M 717,4183 l 0,15 -3,0 0,-15 3,0 z m 61,0 l 0,15 -3,0 0,-15 3,0 z m 61,0 l 0,15 -3,0 0,-15 3,0 z m 61,0 l 0,15 -3,0 0,-15 3,0 z m 61,0 l 0,15 -3,0 0,-15 3,0 z m 61,0 l 0,15 -3,0 0,-15 3,0 z"/>
<path fill="#868686" stroke="none" d="M 1083,4183 l 0,15 -3,0 0,-15 3,0 z m 61,0 l 0,15 -3,0 0,-15 3,0 z m 61,0 l 0,15 -3,0 0,-15 3,0 z m 60,0 l 0,15 -3,0 0,-15 3,0 z m 61,0 l 0,15 -3,0 0,-15 3,0 z m 61,0 l 0,15 -3,0 0,-15 3,0 z"/>
<path fill="#868686" stroke="none" d="M 1448,4183 l 0,15 -3,0 0,-15 3,0 z m 61,0 l 0,15 -3,0 0,-15 3,0 z m 61,0 l 0,15 -3,0 0,-15 3,0 z m 61,0 l 0,15 -3,0 0,-15 3,0 z m 61,0 l 0,15 -3,0 0,-15 3,0 z m 61,0 l 0,15 -3,0 0,-15 3,0 z"/>
<path fill="#868686" stroke="none" d="M 1814,4183 l 0,15 -3,0 0,-15 3,0 z m 61,0 l 0,15 -3,0 0,-15 3,0 z m 61,0 l 0,15 -3,0 0,-15 3,0 z m 61,0 l 0,15 -3,0 0,-15 3,0 z m 61,0 l 0,15 -3,0 0,-15 3,0 z m 60,0 l 0,15 -3,0 0,-15 3,0 z"/>
<path fill="#868686" stroke="none" d="M 2179,4183 l 0,15 -3,0 0,-15 3,0 z m 61,0 l 0,15 -3,0 0,-15 3,0 z m 61,0 l 0,15 -3,0 0,-15 3,0 z m 61,0 l 0,15 -3,0 0,-15 3,0 z m 61,0 l 0,15 -3,0 0,-15 3,0 z m 61,0 l 0,15 -3,0 0,-15 3,0 z"/>
<path fill="#868686" stroke="none" d="M 2545,4183 l 0,15 -3,0 0,-15 3,0 z m 61,0 l 0,15 -3,0 0,-15 3,0 z m 61,0 l 0,15 -3,0 0,-15 3,0 z m 61,0 l 0,15 -3,0 0,-15 3,0 z m 61,0 l 0,15 -3,0 0,-15 3,0 z m 61,0 l 0,15 -3,0 0,-15 3,0 z"/>
<path fill="#868686" stroke="none" d="M 2911,4183 l 0,15 -3,0 0,-15 3,0 z m 61,0 l 0,15 -3,0 0,-15 3,0 z m 60,0 l 0,15 -3,0 0,-15 3,0 z m 61,0 l 0,15 -3,0 0,-15 3,0 z m 61,0 l 0,15 -3,0 0,-15 3,0 z m 61,0 l 0,15 -3,0 0,-15 3,0 z"/>
<path fill="#868686" stroke="none" d="M 3276,4183 l 0,15 -3,0 0,-15 3,0 z m 61,0 l 0,15 -3,0 0,-15 3,0 z m 61,0 l 0,15 -3,0 0,-15 3,0 z m 61,0 l 0,15 -3,0 0,-15 3,0 z m 61,0 l 0,15 -3,0 0,-15 3,0 z m 61,0 l 0,15 -3,0 0,-15 3,0 z m 61,0 l 0,15 -3,0 0,-15 3,0 z m 61,0 l 0,15 -3,0 0,-15 3,0 z m 61,0 l 0,15 -3,0 0,-15 3,0 z m 61,0 l 0,15 -3,0 0,-15 3,0 z m 60,0 l 0,15 -3,0 0,-15 3,0 z"/>
<path fill="#416FA6" stroke="none" d="M 741,3459 l 61,-162 4,-4 60,-18 61,-16 -3,2 61,-73 3,-2 3,0 61,12 61,15 -3,0 61,-17 -2,1 61,-41 1,0 61,-29 2,-1 1,0 3,2 61,65 -3,-2 61,2 1,0 61,16 2,1 1,1 61,66 -8,-1 61,-54 2,0 1,-1 61,-9 -3,1 60,-53 2,-1 3,0 2,1 1,2 61,133 -9,0 61,-121 3,-3 4,0 61,28 -1,0 61,13 2,2 61,60 -6,-1 122,-64 3,-1 3,1 61,50 61,66 -6,-2 61,-25 3,0 2,1 61,36 -3,-1 61,-8 2,0 2,1 61,56 60,43 -3,-1 61,10 -2,0 61,-22 2,0 61,9 -1,0 61,-10 61,-8 -4,2 61,-95 4,-2 61,-6 60,-12 2,0 61,8 -4,1 61,-50 -1,1 61,-82 4,-2 2,0 2,1 61,58 -2,-1 61,24 -7,4 60,-159 4,-4 3,0 2,1 61,51 -4,-1 61,-5
 -3,1 61,-57 2,-1 3,0 61,12 2,1 1,2 61,98 61,111 1,1 0,1 61,386 -1,4 -4,2 -4,-1 -2,-4 -61,-386 1,2 -61,-111 -61,-98 3,3 -61,-12 5,-2 -61,57 -1,1 -2,1 -61,5 -2,0 -2,-1 -61,-51 9,-3 -60,159 -1,2 -4,2 -3,0 -61,-24 0,-1 -1,-1 -61,-58 8,0 -61,82 -1,1 -61,50 -2,1 -2,0 -61,-8 2,0 -62,12 -61,6 4,-3 -61,95 -2,2 -2,1 -61,8 -61,10 -1,0 -61,-9 2,0 -61,22 -2,0 -61,-10 -1,0 -2,-1 -60,-43 -61,-56 4,1 -61,8 -1,0 -2,-1 -61,-36 5,1 -61,25 -4,0 -3,-2 -60,-64 -61,-50 6,0 -122,64 -3,1 -3,-2 -61,-60 2,2 -61,-13 -1,-1 -61,-28 7,-2 -61,121 -2,2 -3,1 -3,-1 -2,-2 -61,-133 9,2 -60,53 -1,1 -2,0 -61,9 3,-1 -61,54 -2,1
 -2,0 -4,-2 -61,-66 3,2 -61,-16 1,0 -61,-2 -4,-2 -61,-65 7,1 -61,29 1,0 -61,41 -1,1 -1,0 -61,17 -3,0 -61,-15 -61,-12 6,-2 -61,73 -1,1 -2,1 -61,16 -60,18 4,-4 -61,162 -1,2 -2,2 -4,0 -2,-1 -2,-4 0,-2 z"/>
<path fill="#00B050" stroke="none" d="M 741,3607 l 61,-398 0,-1 1,-2 60,-87 1,0 61,-62 2,-2 61,-11 -2,1 61,-58 2,-1 2,0 4,2 61,90 -9,0 61,-68 1,0 0,-1 61,-46 3,-1 2,0 61,22 -1,0 61,9 -5,2 61,-95 2,-1 3,-1 2,1 2,2 61,111 -8,-2 61,-44 -1,2 61,-101 1,-2 2,-1 2,0 2,1 61,33 -5,-1 60,-27 4,0 3,3 61,108 -1,-2 61,54 -8,2 61,-99 2,-2 2,-1 3,1 2,1 61,70 -1,-1 61,41 -9,2 61,-143 2,-2 3,-1 3,1 2,2 61,103 -4,-3 61,5 -2,0 61,-16 3,0 3,2 61,74 -9,0 61,-68 4,-2 2,0 2,1 61,46 61,61 -8,0 60,-80 2,-1 3,-1 2,1 2,2 61,99 -6,-3 61,-19 1,0 122,-14 2,0 61,23 -5,1 61,-46 3,-1 2,0 61,16 -5,1 61,-46 2,-1 3,0
 61,12 -6,2 61,-78 4,-2 3,1 2,1 61,67 -7,-1 61,-37 3,-1 3,1 61,54 -8,1 60,-76 1,0 0,-1 61,-53 1,0 61,-39 2,-1 2,0 4,4 61,172 -10,-2 61,-89 4,-2 2,0 2,2 61,60 1,1 1,0 61,159 0,2 61,375 -1,4 -4,2 -4,-1 -2,-4 -61,-375 0,1 -61,-159 2,2 -61,-60 8,0 -61,89 -2,1 -3,1 -3,-1 -2,-3 -61,-172 8,3 -61,39 1,0 -61,53 1,-1 -60,76 -4,2 -2,0 -2,-1 -61,-54 6,0 -61,37 -2,1 -1,0 -4,-2 -61,-67 9,0 -61,78 -6,2 -61,-12 5,-1 -61,46 -2,1 -3,0 -61,-16 5,-1 -61,46 -3,1 -2,0 -61,-23 2,0 -122,14 1,0 -61,19 -3,-1 -3,-2 -61,-99 9,1 -60,80 -4,2 -2,0 -2,-2 -61,-59 -61,-46 8,-1 -61,68 -2,1 -3,1 -4,-2 -61,-74
 6,2 -61,16 -2,0 -61,-5 -2,-1 -2,-2 -61,-103 10,0 -61,143 -2,2 -2,1 -2,0 -3,-1 -61,-41 -1,-1 -61,-70 9,-1 -61,99 -2,2 -2,1 -2,0 -2,-1 -61,-54 -1,-1 0,-1 -61,-108 7,2 -60,27 -3,1 -2,-1 -61,-33 7,-2 -61,101 0,1 -1,1 -61,44 -2,1 -3,0 -2,-1 -1,-2 -61,-111 9,0 -61,95 -2,2 -3,1 -61,-9 -1,0 -61,-22 5,-1 -61,46 1,-1 -61,68 -2,1 -3,1 -4,-2 -61,-90 8,0 -61,58 -1,1 -2,1 -61,11 3,-2 -61,62 1,0 -60,87 1,-3 -61,398 -2,4 -4,1 -4,-2 -1,-4 z"/>
<path fill="#C00000" stroke="none" d="M 741,3489 l 61,-398 2,-4 3,-1 60,0 61,-10 61,-3 61,-5 -5,3 61,-157 3,-2 3,-1 4,1 1,4 61,556 61,335 -10,-2 61,-78 -1,3 61,-958 1,-3 3,-2 61,-12 4,1 3,3 61,196 -7,-4 61,-23 -3,2 61,-65 3,-2 2,0 2,1 2,2 61,111 -2,-2 60,31 -4,-1 61,-13 1,0 61,-2 -1,0 61,-17 3,0 61,18 2,1 1,1 61,95 1,2 0,1 61,631 -9,-4 61,-40 -2,4 61,-607 2,-4 2,-1 3,0 61,13 2,1 1,2 61,134 -9,-1 61,-78 2,-1 1,-1 61,-15 4,0 61,27 2,2 60,75 -7,-1 61,-37 2,-1 1,0 3,1 61,56 -7,0 61,-47 1,0 1,-1 61,-19 -2,1 61,-48 2,-1 1,0 61,-3 -4,2 61,-68 4,-2 61,-1 2,0 2,1 61,48 -6,0 61,-37 -2,1 61,-85 1,0 1,-1
 61,-39 0,-1 61,-25 -3,4 60,-166 2,-2 1,-2 3,0 2,1 61,32 -7,1 61,-77 2,-1 3,-1 3,1 2,2 61,154 -9,-2 61,-41 2,-1 2,0 4,2 61,85 61,83 1,2 0,1 61,453 -1,4 -2,2 -2,0 -4,-1 -2,-4 -61,-453 1,3 -61,-83 -61,-85 8,1 -61,41 -3,1 -2,0 -4,-4 -61,-154 10,2 -61,77 -3,2 -2,0 -2,-1 -61,-32 8,-3 -60,166 -1,2 -2,2 -61,25 0,-1 -61,39 2,-1 -61,85 -1,1 -1,0 -61,37 -3,1 -3,-1 -61,-48 4,1 -61,1 4,-2 -61,68 -4,2 -61,3 3,-1 -61,48 -1,1 -1,0 -61,19 2,-1 -61,47 -3,1 -4,-1 -61,-56 6,0 -61,37 -2,1 -1,0 -4,-2 -60,-75 2,1 -61,-27 4,1 -61,15 3,-2 -61,78 -2,1 -3,1 -3,-1 -2,-2 -61,-134 4,3 -61,-13 7,-5 -61,607
 -1,2 -2,2 -61,40 -2,1 -3,-1 -2,-1 -1,-3 -61,-631 1,2 -61,-95 3,3 -61,-18 3,0 -61,17 -1,0 -61,2 1,0 -61,13 -2,0 -2,-1 -60,-31 -2,-2 -61,-111 8,1 -61,65 -2,2 -61,23 -2,0 -2,-1 -3,-3 -61,-196 7,4 -61,12 4,-5 -61,958 0,2 -1,1 -61,78 -3,2 -3,0 -3,-2 -1,-3 -61,-336 -61,-556 11,1 -61,157 -2,3 -3,1 -61,5 -61,3 -61,10 -61,0 6,-5 -61,398 -2,4 -4,1 -4,-2 -1,-4 z"/>
<path fill="#E46C0A" stroke="none" d="M 741,3515 l 61,-533 0,-1 1,-1 60,-113 1,-2 3,-1 61,-5 -3,1 61,-46 -2,2 61,-139 2,-2 3,-1 4,1 1,2 61,137 -1,-2 61,54 -8,2 61,-109 1,-1 1,-2 61,-25 -1,1 61,-45 2,-1 2,0 61,9 2,1 62,62 61,65 -8,0 61,-73 1,0 0,-1 61,-54 3,-1 2,0 60,23 2,1 1,1 61,89 -1,0 61,65 -7,-1 61,-55 2,-1 3,0 61,13 1,0 0,1 61,35 -5,-1 61,-27 4,0 3,2 61,81 -9,0 61,-74 3,-2 3,0 61,19 2,1 1,1 61,92 -3,-2 61,14 4,4 61,250 -10,-2 61,-81 0,1 60,-113 3,-3 2,0 2,1 61,29 -7,1 61,-66 1,-1 1,0 61,-36 -2,1 61,-92 1,0 1,-1 61,-37 61,-28 -1,1 61,-52 2,-1 2,0 4,2 61,72 -4,-2 61,8 -3,1 61,-39 -2,1
 61,-90 1,0 1,-1 61,-30 2,-1 2,0 61,24 -6,2 60,-82 2,-1 3,-1 4,2 61,89 -6,-2 61,-19 3,0 3,2 61,74 -9,1 61,-127 1,-2 3,-1 3,1 2,2 61,120 -7,-2 61,-39 2,-1 3,0 2,2 1,3 61,519 -1,4 -2,2 -2,0 -4,-1 -2,-4 -61,-519 8,4 -61,39 -2,1 -2,0 -2,-1 -1,-2 -61,-120 9,0 -61,127 -1,2 -3,1 -3,-1 -2,-1 -61,-74 6,2 -61,19 -3,0 -3,-2 -61,-89 9,0 -60,82 -3,2 -4,0 -61,-24 5,-1 -61,30 2,-1 -61,90 -1,1 -1,0 -61,39 -1,1 -2,0 -61,-8 -4,-2 -61,-72 8,1 -61,52 -1,0 -61,27 -61,37 2,-1 -61,92 -1,1 -1,0 -61,36 2,-1 -61,66 -3,2 -4,-1 -61,-29 7,-2 -60,113 0,1 -61,81 -6,2 -4,-4 -61,-250 4,4 -61,-14 -1,-1 -2,-1
 -61,-92 3,2 -61,-19 6,-2 -61,74 -2,1 -3,1 -4,-2 -61,-81 7,1 -61,27 -3,1 -2,-1 -61,-35 1,1 -61,-13 5,-1 -61,55 -2,1 -2,0 -4,-2 -61,-65 -61,-89 2,2 -60,-23 6,-1 -61,54 1,-1 -61,73 -4,2 -2,-1 -3,-1 -60,-65 -61,-61 3,2 -61,-9 4,-1 -61,45 -1,0 0,1 -61,25 2,-3 -61,109 -2,2 -2,1 -2,0 -2,-1 -61,-54 -2,-2 -61,-137 11,0 -61,139 -2,2 -61,46 -1,1 -2,0 -61,5 4,-3 -60,113 1,-2 -61,533 0,2 -2,2 -4,1 -2,0 -2,-2 -1,-4 z"/>
<path fill="#4BACC6" stroke="none" d="M 741,3402 l 61,-501 0,-1 1,-1 60,-124 0,-1 61,-64 4,-2 61,-10 -1,0 61,-20 2,0 2,1 3,3 61,165 -10,-1 61,-97 61,-107 2,-2 3,-1 61,9 -5,2 61,-69 1,-1 1,0 61,-31 2,-1 3,0 2,2 1,2 61,182 -7,-4 61,-19 -3,3 61,-105 0,-1 1,0 61,-63 3,-2 3,0 60,27 -2,0 61,3 3,1 2,3 61,216 -11,0 61,-191 4,-4 2,0 3,1 61,45 -5,-1 61,-17 3,0 3,2 61,82 -9,0 61,-66 2,-1 1,-1 61,-12 3,0 2,2 61,64 -2,-2 61,15 2,1 1,1 61,72 -3,-2 61,13 1,0 0,1 61,37 2,1 1,2 60,205 -1,-2 61,70 -2,-1 61,34 1,1 1,0 61,83 -9,1 61,-114 0,-1 1,-1 61,-47 2,-1 1,0 61,-1 61,-7 -5,3 61,-129 4,-3 4,0 61,25 0,1
 61,36 -6,1 61,-63 2,-2 3,0 2,2 2,4 0,1 -2,2 -61,63 -3,2 -3,-1 -61,-36 0,1 -61,-25 7,-3 -61,129 -1,2 -3,1 -61,7 -61,1 3,-1 -61,47 1,-2 -61,114 -2,2 -2,1 -3,-1 -2,-1 -61,-83 2,1 -61,-34 -1,0 -1,-1 -61,-70 0,-1 -1,-1 -60,-205 3,3 -61,-37 1,1 -61,-13 -1,-1 -2,-1 -61,-72 3,2 -61,-15 -1,-1 -2,-1 -61,-64 6,2 -61,12 3,-2 -61,66 -2,1 -3,1 -4,-2 -61,-82 6,2 -61,17 -2,0 -3,-1 -61,-45 9,-3 -61,191 -2,3 -4,1 -3,-1 -2,-3 -61,-216 5,4 -61,-3 -1,0 -1,-1 -60,-27 6,-1 -61,63 1,-1 -61,105 -1,2 -2,1 -61,19 -4,0 -3,-4 -61,-182 8,3 -61,31 2,-1 -61,69 -2,2 -3,0 -61,-9 5,-3 -61,107 -61,97 -2,2 -3,1 -3,-1 -2,-3 -61,-165
 7,4 -61,20 -1,0 -61,10 3,-2 -61,64 1,-1 -60,124 1,-2 -61,501 0,2 -2,2 -4,1 -2,0 -2,-2 -1,-4 z"/>
<path fill="#376092" stroke="none" d="M 3398,3941 l 18,-13 4,-1 4,2 1,2 0,2 -2,4 -18,13 -2,1 -2,0 -4,-2 -1,-2 0,-2 2,-4 z m -2454,38 l 18,-12 2,-1 2,0 4,2 1,4 -1,2 -2,2 -18,12 -2,1 -2,0 -4,-2 -1,-2 0,-2 3,-4 z m 853,-18 l 18,-13 4,-1 2,0 1,2 1,4 0,2 -2,1 -17,14 -4,1 -4,-2 -1,-2 0,-2 2,-4 z m 1894,-27 l 18,13 2,4 0,2 -1,2 -2,2 -2,0 -4,-1 -17,-13 -2,-2 0,-6 4,-2 2,0 2,1 z m -2083,18 l 18,-12 2,-1 2,0 2,1 1,1 1,2 0,2 -2,4 -18,12 -2,1 -2,0 -4,-2 -1,-2 0,-2 3,-4 z m 124,-14 l 18,13 2,4 0,2 -1,2 -4,2 -2,0 -2,-1 -18,-12 -2,-4 0,-2 1,-2 2,-2 6,0 z m 2096,74 l 11,19 1,2 0,2 -1,2 -1,1 -2,1 -2,0 -4,-3 -11,-18 -1,-2 0,-2 3,-4
 2,-1 2,0 2,1 1,2 z m -459,-46 l 0,1 -6,0 18,-13 5,0 2,2 1,4 0,1 -2,2 -17,13 -3,1 -3,-1 -1,0 -2,-4 0,-4 4,-2 4,0 z m -1601,-3 l 17,12 -7,0 1,-1 2,-1 2,0 4,2 1,4 0,2 -3,3 -3,1 -4,-1 -16,-12 -2,-1 -1,-2 0,-2 1,-2 2,-2 6,0 z m 1563,-18 l 19,10 2,4 0,4 -4,3 -2,0 -2,-1 -19,-11 -2,-1 0,-6 4,-3 2,0 2,1 z m 474,29 l 12,19 0,4 -2,4 -4,0 -4,-2 -11,-19 -1,-2 0,-2 3,-4 4,0 2,1 1,1 z m -3022,5 l 19,-11 4,0 3,2 1,2 0,2 -3,4 -19,10 -2,1 -2,0 -4,-3 0,-4 3,-3 z m 2420,-18 l 19,-11 4,0 3,3 1,2 0,2 -1,2 -2,1 -19,11 -4,0 -4,-3 0,-4 1,-2 2,-1 z m -2459,39 l 19,-11 4,0 4,2 0,4 -3,4 -19,10
 -2,1 -2,0 -3,-3 -1,-2 0,-2 3,-3 z m 83,-25 l 19,10 3,4 0,2 -1,2 -3,2 -4,0 -19,-10 -2,-1 -1,-2 0,-4 4,-3 4,0 z m 2080,-8 l 19,-9 2,-1 2,0 4,3 0,4 -3,4 -20,9 -4,0 -2,-1 -1,-2 0,-4 1,-2 2,-1 z m -1719,-35 l 21,-9 4,0 3,3 0,4 -3,3 -20,9 -4,0 -3,-3 -1,-2 1,-2 2,-3 z m 727,14 l 20,-8 4,0 3,3 0,4 -3,3 -20,8 -2,1 -2,-1 -4,-3 0,-2 1,-2 3,-3 z m -802,19 l -4,0 19,-7 2,-1 2,1 3,2 0,4 -3,4 -18,8 -4,0 -2,-1 -3,-3 -1,-2 0,-2 4,-3 5,0 z m 161,-35 l 20,9 3,3 0,4 -4,3 -4,0 -20,-9 -3,-3 0,-4 4,-3 4,0 z m 2289,21 l 20,-9 4,0 3,3 1,2 -1,2 -3,3 -20,9 -4,0 -3,-3 0,-4 3,-3 z m -2415,-2 l 20,-9 4,0
 3,3 1,2 0,2 -3,3 -21,9 -4,0 -2,-1 -1,-2 0,-4 3,-3 z m 496,-22 l 13,-9 3,-1 2,0 5,1 4,3 0,4 -2,4 -4,0 -6,-1 5,-1 -14,9 -2,1 -2,0 -4,-2 0,-6 2,-2 z m -415,-13 l 2,-1 5,0 17,8 3,4 0,4 -3,3 -2,0 -2,-1 -18,-8 5,1 -3,1 -4,0 -3,-3 0,-4 3,-4 z m -159,35 l 21,8 3,3 0,4 -3,3 -4,0 -20,-8 -3,-3 -1,-2 0,-2 1,-2 2,-1 4,0 z m 807,-8 l 21,8 3,3 0,4 -3,3 -4,0 -20,-8 -3,-3 -1,-2 0,-2 1,-2 2,-1 4,0 z m 428,16 l 21,8 3,3 0,4 -3,3 -4,0 -21,-8 -3,-3 0,-4 3,-3 4,0 z m 646,-1 l 20,8 4,3 0,4 -4,3 -4,0 -20,-8 -3,-3 0,-4 3,-3 4,0 z m 490,-29 l 20,7 4,3 0,4 -1,2 -2,2 -4,0 -21,-8 -3,-3
 0,-4 3,-3 4,0 z m -1440,9 l 21,6 4,3 0,6 -2,1 -4,1 -22,-6 -3,-3 -1,-4 3,-3 4,-1 z m -432,31 l 21,-6 4,1 3,3 0,4 -4,3 -21,6 -4,0 -3,-4 0,-2 1,-2 3,-3 z m -589,-12 l 6,-4 2,-1 1,0 14,-2 4,1 3,4 -1,4 -2,2 -2,0 -15,2 2,-1 -6,4 -2,1 -2,0 -2,-1 -2,-4 0,-1 2,-4 z m 1888,27 l 10,-1 -2,1 11,-6 4,0 2,1 1,2 0,4 -3,3 -10,5 -1,1 -1,0 -10,1 -4,0 -2,-4 0,-2 1,-2 4,-3 z m -1380,-23 l 21,7 3,3 0,4 -3,3 -4,0 -21,-6 -3,-3 0,-4 3,-3 2,-1 2,0 z m 773,-15 l 8,-1 2,0 14,6 3,3 0,4 -3,3 -4,0 -14,-5 3,0 -7,1 -4,0 -3,-4 1,-4 4,-3 z m -572,-20 l 21,5 4,3 0,4 -3,4 -4,0 -21,-6 -2,0 -2,-4 0,-2
 3,-3 2,-1 2,0 z m 1793,18 l 7,2 14,3 3,3 1,4 -3,3 -4,1 -14,-3 -8,-3 -3,-3 0,-4 3,-3 4,0 z m 244,19 l 9,6 -4,-1 11,-1 2,0 4,2 0,4 -1,2 -2,2 -2,0 -11,2 -2,0 -2,-1 -8,-7 -2,-1 0,-2 1,-4 1,-2 2,0 4,1 z m -1248,13 l 21,4 4,3 1,4 -3,4 -4,0 -21,-4 -2,0 -2,-2 -1,-4 3,-4 4,-1 z m 174,25 l 21,4 4,2 1,4 -2,4 -4,1 -22,-4 -2,0 -2,-2 -1,-4 2,-4 5,-1 z m -1294,-66 l 21,5 4,2 1,4 -3,4 -4,0 -21,-4 -2,0 -2,-2 -1,-4 3,-4 4,-1 z m 2290,-9 l 21,-4 4,1 3,3 -1,4 -4,3 -21,4 -4,0 -3,-4 1,-4 4,-3 z m -1127,58 l 22,5 4,2 0,4 -2,4 -4,0 -22,-4 -2,0 -2,-4 0,-2 2,-4 4,-1 z m 175,24 l -2,0 21,-4 2,0 4,2
 0,6 -4,3 -20,4 -4,0 -3,-3 -1,-2 0,-2 1,-2 1,-1 2,-1 3,0 z m 40,-9 l 19,-4 3,0 5,1 1,4 0,2 -1,2 -2,2 -4,0 1,0 -20,4 -4,0 -2,-4 0,-2 1,-2 3,-3 z m -904,-63 l 7,-5 3,-1 2,0 13,5 3,3 0,4 -3,3 -4,0 -12,-4 5,-1 -7,5 -2,1 -2,0 -4,-2 -1,-2 0,-2 2,-4 z m 1160,38 l 10,4 -2,0 11,-1 4,1 2,4 0,2 -4,4 -2,0 -10,1 -3,0 -10,-5 -3,-3 0,-4 3,-3 4,0 z m -1591,-30 l 17,3 5,1 3,2 1,4 -2,4 -4,1 -6,-1 -16,-3 -3,-3 -1,-2 0,-2 1,-2 1,-1 2,-1 2,0 z m 2123,10 l 22,4 3,3 1,4 -3,4 -4,0 -21,-5 -2,0 -2,-4 0,-2 1,-2 1,-1 2,-1 2,0 z m 80,-18 l 3,-2 1,0 18,-3 2,0 4,2 0,6 -2,2 -2,0
 -17,4 1,0 -4,1 -4,0 -3,-3 -1,-2 1,-2 3,-3 z m -2160,16 l 22,4 4,2 0,6 -2,2 -4,1 -22,-4 -3,-3 -1,-2 0,-2 1,-2 1,-1 2,-1 2,0 z m -419,-5 l 22,-3 4,1 2,2 0,4 -1,2 -2,2 -2,0 -21,3 -2,0 -2,-1 -3,-4 1,-4 4,-2 z m 1193,6 l 21,-3 2,0 2,1 3,3 -1,4 -4,3 -22,3 -4,0 -2,-4 1,-4 4,-3 z m 1546,11 l 22,-3 2,0 2,1 2,4 -1,4 -4,2 -22,3 -4,-1 -2,-4 1,-4 4,-2 z m -940,26 l 22,-3 4,1 2,2 0,2 -1,4 -2,2 -2,0 -22,3 -4,-1 -2,-4 1,-4 4,-2 z m 417,-48 l 1,0 1,-1 1,0 21,-3 4,1 2,2 0,2 -1,4 -2,2 -2,0 -21,3 2,-1 0,1 -5,0 -2,-1 -1,-2 0,-4 1,-2 1,-1 z m -1929,-2 l 22,-3 4,1 2,2 0,6 -2,2 -2,0
 -22,3 -4,-1 -2,-4 0,-2 1,-2 1,-1 2,-1 z m 1252,53 l 11,2 10,1 4,2 1,2 0,2 -1,4 -4,1 -13,-1 -10,-2 -3,-3 -1,-2 0,-2 1,-2 1,-1 2,-1 2,0 z m -608,-61 l 6,-3 4,0 14,4 4,3 0,4 -3,3 -4,0 -14,-3 3,0 -6,2 -4,0 -4,-3 0,-2 1,-2 3,-3 z m -426,43 l 10,3 -3,0 11,-3 2,0 2,1 1,1 1,2 0,4 -3,3 -11,3 -3,0 -11,-4 -3,-3 0,-4 3,-3 4,0 z m 645,-23 l 22,2 4,2 1,4 0,2 -2,2 -4,1 -22,-2 -4,-2 -1,-4 2,-4 2,-1 2,0 z m 901,20 l 22,-2 2,0 2,1 2,2 0,4 -1,2 -4,2 -22,2 -2,0 -2,-1 -2,-4 1,-4 4,-2 z m 44,-5 l 3,0 20,2 4,2 1,4 0,2 -2,2 -2,1 -2,0 -20,-2 1,0 -2,0 -4,-1 -2,-4 1,-4 4,-2 z m
 -513,30 l 22,2 4,1 1,2 0,2 -1,4 -2,2 -2,0 -22,-2 -2,0 -2,-2 -2,-4 2,-4 4,-1 z m -1701,-2 l 22,-3 4,1 2,4 -1,4 -2,2 -2,0 -22,2 -4,0 -2,-4 1,-4 4,-2 z m 2381,-60 l 18,-2 2,0 1,1 4,2 2,3 0,4 -4,3 -2,0 -2,-1 -3,-2 3,1 -18,2 -4,0 -2,-4 1,-4 4,-3 z m -122,37 l 19,2 -3,1 2,-2 4,0 4,3 0,4 -1,2 -4,2 -1,1 -2,0 -19,-2 -4,-2 -1,-2 0,-2 2,-4 2,-1 2,0 z m -2299,25 l 4,3 -3,-1 17,-2 4,1 2,2 0,2 -1,4 -2,2 -2,0 -17,2 -1,0 -8,-4 -1,-2 0,-4 4,-3 4,0 z m 2167,-21 l 22,-2 4,2 1,4 0,2 -1,2 -4,1 -22,2 -4,-1 -1,-4 0,-2 1,-2 4,-2 z m 818,76 l 7,12 1,2 0,2 -1,2 -4,2 -2,0 -2,-1 -1,-2
 -8,-12 0,-4 1,-2 1,-1 2,-1 2,0 4,3 z m -1764,-105 l 22,1 4,1 1,4 -1,4 -2,2 -2,0 -22,-1 -2,0 -2,-2 -2,-4 2,-4 4,-1 z m 44,1 l 17,1 5,1 4,2 1,2 0,4 -2,2 -9,0 -16,-1 -4,-1 -2,-4 2,-4 4,-2 z m 214,21 l 22,1 4,2 2,2 0,4 -2,2 -4,1 -22,-1 -4,-1 -1,-4 1,-4 4,-2 z m 435,24 l 22,-1 4,1 2,2 0,2 -1,4 -2,2 -2,0 -22,1 -2,0 -2,-1 -2,-4 1,-4 4,-2 z m -391,-22 l 22,0 4,2 2,2 0,4 -2,2 -4,1 -24,0 -2,-2 -1,-4 1,-4 4,-1 z m 44,1 l 20,0 3,1 4,2 1,4 -3,4 -7,0 1,0 -21,0 -2,-2 -1,-4 1,-4 4,-1 z m -368,-26 l 4,2 1,2 0,2 -1,4 -4,1 -22,0 -4,-2 -2,-4 2,-4 2,-1 24,0 z"/>
<path fill="#00B050" stroke="none" d="M 3747,3818 l 16,16 2,4 -2,4 -4,2 -4,-2 -15,-16 -2,-2 0,-4 2,-2 4,-1 3,1 z m -2760,106 l 15,-16 4,-2 2,0 2,1 2,4 -2,4 -14,17 -4,2 -4,-2 -2,-4 0,-2 1,-2 z m 2575,-153 l 16,15 2,4 -2,4 -4,2 -4,-2 -16,-15 -1,-4 1,-4 4,-1 4,1 z m 32,30 l 16,15 2,4 -2,4 -4,2 -4,-2 -16,-15 -1,-4 1,-4 4,-1 4,1 z m 89,-43 l 16,15 2,2 0,2 -1,4 -4,2 -4,-2 -16,-15 -2,-2 0,-2 1,-4 4,-1 4,1 z m -2666,133 l 14,-16 4,-2 2,0 2,1 2,4 -2,4 -14,17 -4,2 -4,-2 -1,-4 1,-4 z m 70,-6 l 17,14 2,4 0,2 -1,2 -4,2 -4,-2 -17,-14 -2,-3 0,-2 1,-2 2,-2 2,0 4,1 z m 651,-50 l 14,17 1,4 0,2 -2,2 -2,1 -2,0 -4,-2 -14,-17 -1,-4 2,-4 2,-1 2,0 4,2 z m
 28,34 l 14,17 1,4 0,2 -2,2 -2,1 -2,0 -4,-2 -14,-17 -1,-4 2,-4 2,-1 2,0 4,2 z m 224,-22 l 18,-12 2,-1 2,0 4,3 1,4 -1,2 -2,1 -18,12 -2,1 -2,0 -4,-3 -1,-2 0,-2 1,-2 2,-1 z m 1201,-89 l 12,18 1,4 -1,2 -2,2 -4,1 -2,-1 -1,-2 -12,-18 -1,-2 0,-2 2,-4 2,-1 2,0 4,3 z m 24,37 l 12,18 1,4 -1,2 -2,2 -4,1 -2,-1 -2,-2 -11,-18 -1,-2 0,-2 2,-4 2,-1 2,0 4,3 z m 500,-7 l 16,15 2,2 0,2 -1,4 -4,2 -4,-2 -16,-15 -1,-4 1,-4 4,-1 3,1 z m 64,61 l 15,16 2,2 0,3 -4,4 -3,0 -2,-2 -16,-15 -1,-4 1,-4 4,-1 4,1 z m -2733,9 l 4,-2 2,0 2,1 16,14 2,2 0,2 -1,4 -4,2 -4,-2 -16,-13 8,-1 -1,1 -4,2 -4,-2 -1,-4
 1,-4 z m 2571,-51 l 14,-17 4,-1 4,1 2,4 -2,4 -14,16 -4,2 -2,0 -2,-1 -1,-4 1,-4 z m 29,-33 l 14,-17 4,-1 4,1 2,4 -2,3 -14,17 -4,2 -2,0 -2,-1 -1,-4 1,-4 z m -2880,247 l 12,-19 4,-2 2,0 2,1 1,1 1,2 0,2 -1,2 -12,19 -1,1 -2,1 -2,0 -4,-2 -1,-2 0,-2 1,-2 z m 1106,-158 l 18,-12 2,-1 2,0 4,2 1,2 0,2 -2,4 -19,12 -2,1 -2,0 -2,-1 -1,-1 -1,-2 0,-2 2,-4 z m 1032,20 l 18,-12 2,-1 2,0 4,2 1,2 0,2 -3,4 -18,12 -2,1 -2,0 -4,-3 0,-6 2,-1 z m -2114,101 l 12,-19 4,-2 2,0 2,1 2,4 0,2 -1,2 -12,18 -1,1 -2,1 -2,0 -4,-2 -1,-2 0,-2 1,-2 z m -48,73 l 12,-18 4,-2 4,0 2,4 0,2 -1,2 -12,18 -4,3 -2,0 -2,-1 -2,-4
 0,-2 1,-2 z m 677,-182 l 19,10 3,4 0,4 -2,2 -2,1 -4,-1 -19,-11 -2,-1 -1,-2 0,-2 2,-4 2,-1 2,0 2,1 z m 822,-22 l 19,11 2,1 1,2 0,2 -2,4 -2,1 -2,0 -2,-1 -19,-11 -3,-3 0,-2 1,-2 3,-3 2,0 2,1 z m 896,-28 l 11,-19 4,-2 4,0 2,4 0,4 -11,19 -4,3 -2,0 -2,-1 -3,-4 0,-2 1,-2 z m -21,32 l 6,-1 -4,3 8,-14 1,-2 2,-1 2,0 2,1 3,3 0,2 -1,2 -8,14 -2,2 -2,1 -5,1 -4,-1 -3,-4 1,-4 4,-2 z m 123,-26 l 10,16 -5,-2 5,0 2,1 2,3 -1,4 -2,2 -2,0 -3,1 -3,-1 -2,-2 -11,-16 0,-4 1,-2 1,-1 2,-1 2,0 4,2 z m -2417,121 l 19,-12 4,0 4,2 0,4 -2,4 -19,11 -2,1 -2,0 -4,-3 0,-4 1,-2 1,-1 z m 1015,-67 l 5,-1 -3,1
 15,-10 2,-1 2,0 4,3 1,4 -1,2 -2,1 -14,10 -1,1 -10,0 -2,-4 0,-2 1,-2 1,-1 2,-1 z m 827,15 l 19,10 2,1 1,2 0,4 -4,3 -4,0 -19,-11 -3,-3 0,-4 4,-3 2,0 2,1 z m -967,-71 l 20,-11 4,0 2,1 1,1 1,2 0,2 -3,4 -19,10 -2,1 -2,0 -4,-3 0,-4 1,-2 1,-1 z m -38,21 l 19,-11 4,0 4,3 0,4 -1,2 -1,1 -20,11 -4,0 -2,-1 -1,-1 -1,-2 0,-3 1,-2 2,-1 z m 1500,-63 l 11,-19 4,-2 4,0 2,4 0,4 -11,19 -2,2 -2,1 -4,-1 -2,-2 0,-6 z m 648,98 l 10,19 1,2 0,2 -3,3 -2,1 -2,0 -3,-3 -11,-19 0,-6 4,-2 2,0 4,3 z m -2349,11 l 19,11 1,1 1,2 0,4 -4,3 -2,0 -2,-1 -19,-10 -2,-4 0,-4 4,-2 4,0 z m 2370,27 l 11,19 0,4 -3,4
 -4,0 -2,-1 -1,-1 -11,-20 0,-4 1,-2 1,-1 6,0 2,2 z m -1130,-8 l 19,-10 4,0 4,3 0,4 -1,2 -2,1 -19,10 -4,0 -4,-2 0,-4 3,-4 z m 612,-82 l 20,-9 4,0 3,3 0,4 -3,3 -20,9 -2,1 -2,0 -3,-3 0,-4 3,-4 z m 125,-35 l 19,-10 4,0 4,3 0,4 -1,2 -2,1 -19,10 -4,0 -4,-2 0,-4 3,-4 z m -1317,43 l 21,8 3,3 0,4 -4,3 -4,0 -20,-8 -2,-1 -1,-2 0,-4 3,-3 2,-1 2,1 z m 619,54 l 17,-8 2,-1 1,0 3,1 4,2 1,4 -3,4 -7,0 4,-1 -17,9 -4,0 -4,-2 0,-4 3,-4 z m -1245,6 l 21,-8 4,0 2,1 1,2 0,4 -3,3 -21,9 -4,0 -3,-3 0,-4 3,-4 z m -289,-13 l 20,-8 2,0 2,1 3,3 0,4 -3,3 -21,8 -4,0 -2,-2 -1,-2 0,-2 1,-2 3,-3 z m 1203,-26 l
 21,-8 4,0 3,3 0,4 -3,3 -21,8 -4,0 -2,-1 -1,-2 0,-4 3,-3 z m -832,7 l 21,-8 2,0 2,1 3,3 0,4 -1,2 -2,1 -21,7 -4,0 -3,-3 0,-4 3,-3 z m 1790,-61 l 2,0 6,-1 6,3 0,3 -1,4 -4,1 -6,1 2,-1 -15,7 -4,0 -2,-1 -1,-2 0,-4 1,-2 16,-8 z m 110,-30 l 11,-5 1,-1 10,-2 4,1 2,2 0,6 -4,2 -9,2 1,-1 -11,6 -4,0 -4,-2 0,-4 3,-4 z m -1941,107 l 3,-2 18,-6 4,0 2,1 1,2 0,4 -3,3 -17,7 -4,1 -4,0 -3,-3 0,-4 3,-3 z m 1088,-2 l 14,2 1,0 1,1 7,3 3,4 0,4 -4,3 -2,0 -2,-1 -7,-4 2,1 -14,-2 -2,0 -2,-2 -1,-4 2,-4 4,-1 z m -465,-33 l 21,-6 2,0 2,1 3,3 -1,4 -3,3 -21,6 -4,0 -3,-4 0,-2 1,-2 3,-3 z m
 337,7 l 21,7 4,3 0,4 -3,3 -4,0 -21,-6 -3,-3 -1,-2 0,-2 3,-3 2,-1 2,0 z m 1356,105 l 9,16 1,2 0,2 -1,2 -4,2 -2,0 -3,-3 -9,-16 -1,-2 0,-2 3,-4 4,0 2,1 1,2 z m -905,-102 l 21,-5 4,1 3,4 -1,4 -2,2 -2,0 -21,5 -4,-1 -3,-4 1,-3 4,-3 z m -75,39 l 10,1 -3,1 9,-7 4,0 4,2 1,2 0,2 -3,4 -10,6 -1,1 -2,0 -10,-1 -4,-1 -1,-4 2,-4 1,-1 3,-1 z m -954,-52 l 21,7 3,3 0,4 -3,3 -4,0 -21,-7 -3,-3 0,-4 3,-3 4,0 z m 41,14 l 10,3 -4,1 9,-6 2,-1 2,0 4,2 1,4 -1,2 -2,2 -10,6 -2,1 -2,0 -10,-4 -3,-3 -1,-2 0,-2 3,-3 4,0 z m 242,-23 l 9,-3 2,0 2,1 11,6 2,1 1,2 0,2 -2,4 -2,1 -2,0 -2,-1
 -11,-6 4,1 -9,2 -4,0 -3,-3 0,-2 1,-2 3,-3 z m -866,33 l 21,7 3,3 0,4 -3,3 -4,0 -21,-7 -3,-3 0,-4 3,-3 4,0 z m -88,3 l 22,-7 2,0 4,4 0,4 -3,3 -21,6 -4,0 -3,-4 0,-4 2,-1 1,-1 z m 1204,-28 l 3,-1 3,0 18,6 4,3 0,4 -3,3 -4,0 -18,-5 3,0 -2,1 -4,0 -4,-4 0,-2 2,-4 2,-1 z m -1286,55 l 10,-1 -1,0 11,-4 4,0 3,3 0,4 -3,3 -12,5 -1,0 -10,1 -4,-1 -2,-4 1,-4 4,-2 z m 1870,-45 l 21,6 4,2 0,4 -3,4 -4,0 -21,-5 -3,-3 -1,-2 0,-2 3,-3 2,-1 2,0 z m -957,-29 l 12,1 2,0 9,4 2,1 1,2 0,4 -1,2 -4,2 -2,-1 -10,-3 2,0 -12,-1 -4,-1 -1,-4 2,-4 4,-2 z m -788,34 l 6,-2 3,0 15,5 3,3 0,4 -3,3 -4,1
 -14,-5 3,0 -6,2 -4,-1 -3,-3 0,-2 1,-2 3,-3 z m 1495,29 l 22,4 3,3 1,4 -2,4 -4,0 -22,-4 -2,0 -2,-2 -1,-4 3,-4 4,-1 z m -1165,-33 l 22,-4 4,1 2,2 0,6 -2,2 -2,0 -22,4 -4,-1 -2,-4 0,-2 1,-2 1,-1 2,-1 z m 918,12 l 22,4 4,3 0,4 -3,4 -4,0 -21,-5 -2,0 -2,-4 0,-2 1,-2 1,-1 2,-1 2,0 z m 982,-103 l 22,-4 2,0 4,2 0,6 -4,3 -22,4 -4,-1 -2,-4 0,-2 1,-2 3,-2 z m -2611,164 l 22,3 4,2 1,4 -2,4 -4,1 -22,-3 -2,0 -2,-2 -1,-4 2,-4 4,-1 z m 2362,-89 l 22,-3 4,1 2,2 0,6 -2,2 -2,0 -22,3 -4,0 -2,-4 0,-2 1,-2 3,-3 z m -2320,89 l 22,-3 4,1 2,2 0,6 -2,2 -2,0 -22,3 -2,0 -2,-1 -2,-4 0,-2 1,-2 3,-2 z m 2039,-79 l
 12,-3 3,0 9,2 3,3 0,6 -2,2 -4,0 -9,-2 3,0 -13,3 -4,-1 -3,-4 1,-4 4,-2 z m -2127,78 l 5,-3 2,-1 1,0 16,2 4,2 1,4 0,2 -2,2 -4,1 -16,-2 3,-1 -5,3 -2,1 -1,0 -4,-3 -1,-2 0,-2 1,-2 2,-1 z m 1718,-52 l 22,3 4,3 0,6 -2,2 -4,0 -22,-3 -2,0 -2,-4 0,-2 2,-4 4,-1 z m -1206,1 l 22,-2 4,1 2,2 0,2 -1,4 -4,2 -22,2 -4,-1 -2,-4 1,-4 4,-2 z m 2022,-72 l 22,-2 4,1 2,2 0,2 -1,4 -2,2 -2,0 -22,2 -4,-1 -2,-4 1,-4 4,-2 z m -1600,84 l 22,-3 4,1 2,4 -1,4 -2,2 -2,0 -22,2 -4,0 -2,-4 0,-2 1,-2 4,-2 z m 1279,-28 l 21,-2 2,0 2,1 3,3 -1,4 -4,3 -22,2 -4,0 -2,-4 0,-2 1,-2 4,-3 z m -1955,44 l 22,-2 2,0
 4,2 0,6 -4,3 -22,2 -4,-1 -2,-4 0,-2 1,-2 1,-1 2,-1 z m 1707,-9 l 22,1 4,2 1,4 0,2 -2,2 -2,1 -2,0 -22,-1 -4,-1 -1,-4 1,-3 1,-1 4,-2 z m -794,-72 l 22,1 4,2 1,4 0,2 -2,2 -4,1 -22,-1 -2,0 -2,-2 -1,-4 2,-4 4,-1 z m 246,45 l 22,-1 4,1 2,2 0,2 -1,4 -2,2 -2,0 -22,1 -2,0 -2,-2 -2,-4 1,-4 4,-1 z m 89,-2 l 22,0 4,1 1,4 -1,5 -4,1 -22,0 -4,-1 -1,-2 -1,-3 2,-4 4,-1 z m -45,0 l 23,0 4,1 1,4 -1,5 -4,1 -22,0 -4,-1 -2,-4 1,-4 4,-2 z"/>
<path fill="#C00000" stroke="none" d="M 3739,3613 l 16,16 2,4 -2,4 -4,2 -4,-2 -16,-16 -1,-4 1,-4 4,-1 4,1 z m 31,32 l 16,15 2,4 -2,4 -4,2 -4,-2 -15,-16 -2,-2 0,-3 4,-4 3,0 2,2 z m -2758,169 l 16,-15 4,-1 4,1 2,4 -2,4 -16,15 -4,2 -4,-2 -1,-4 1,-4 z m 1219,-100 l 16,-15 4,-1 4,1 2,4 -2,4 -16,15 -4,2 -4,-2 -1,-4 1,-4 z m 512,124 l 10,-9 -1,1 5,-7 4,-2 2,0 2,1 2,4 0,2 -1,2 -5,7 -1,1 -10,8 -4,2 -4,-2 -1,-4 0,-2 2,-2 z m -272,-58 l 13,17 2,4 -2,4 -2,1 -2,0 -4,-2 -14,-17 -1,-2 0,-2 2,-4 4,-1 2,0 2,2 z m 386,7 l 14,17 1,2 0,2 -2,4 -2,1 -2,0 -4,-2 -14,-17 -1,-4 2,-4 2,-1 2,0 4,2 z m -1243,-65 l 18,13 1,1 1,2 0,2 -1,2 -2,2 -2,1 -4,-1
 -18,-13 -2,-4 0,-2 1,-2 4,-2 2,0 2,1 z m 1040,113 l 15,16 2,4 -2,4 -4,1 -2,0 -17,-17 -1,-4 1,-4 4,-1 4,1 z m 30,31 l 15,16 -7,-1 4,-1 4,1 2,4 -2,4 -1,1 -2,1 -1,0 -4,-2 -15,-15 -1,-4 1,-4 4,-1 3,1 z m -1294,-307 l 16,15 2,2 0,2 -1,3 -2,2 -2,0 -4,-1 -16,-14 -2,-2 0,-2 1,-4 4,-2 2,0 2,1 z m 1319,308 l 17,-15 2,-1 2,0 4,2 1,2 0,2 -2,4 -17,14 -3,1 -2,0 -2,-2 -1,-4 0,-2 1,-1 z m -211,-53 l 14,18 1,2 0,2 -2,3 -4,1 -2,0 -2,-2 -13,-17 -1,-4 1,-4 4,-1 4,2 z m 331,-61 l 14,17 1,4 0,2 -2,2 -3,1 -4,-2 -14,-17 -1,-4 0,-2 2,-2 4,-1 2,0 1,2 z m 735,-215 l 14,17 1,4 0,1 -2,2 -4,2 -2,-1 -1,-1 -14,-17
 -1,-4 1,-4 4,-1 2,0 2,2 z m 28,34 l 14,17 1,4 0,1 -2,2 -4,2 -2,-1 -1,-1 -14,-17 -1,-4 1,-4 4,-1 2,0 2,2 z m -2347,596 l 18,-12 6,0 2,2 1,2 0,2 -3,4 -18,12 -4,1 -2,-1 -2,-2 0,-6 2,-2 z m 686,-418 l 18,-13 6,0 2,2 1,2 0,2 -1,2 -1,1 -18,13 -2,1 -2,0 -4,-2 -1,-2 0,-2 2,-4 z m 839,55 l 12,-18 4,-2 2,0 2,1 2,4 0,2 -1,2 -12,18 -4,2 -2,0 -2,-1 -2,-2 0,-2 1,-4 z m 25,-36 l 12,-18 4,-2 2,0 2,1 2,2 0,2 -1,4 -12,18 -4,2 -2,0 -2,-1 -2,-4 0,-2 1,-2 z m 525,-85 l 18,-12 2,-1 2,0 4,2 1,2 0,2 -3,4 -18,12 -2,1 -2,0 -4,-2 0,-6 2,-2 z m -1749,45 l 18,-11 6,0 2,2 1,2 0,2 -3,3 -19,12 -4,1
 -2,-1 -2,-4 0,-2 3,-4 z m 631,21 l 1,-7 2,-4 10,-10 4,-1 2,0 2,2 2,4 -2,3 -11,10 2,-3 -1,8 -3,4 -6,0 -2,-4 0,-2 z m 1155,-90 l 6,-5 -2,2 6,-12 3,-3 4,0 3,3 0,4 -5,13 -2,2 -7,5 -4,1 -2,-1 -2,-2 -1,-2 0,-2 1,-2 2,-1 z m -1008,142 l 19,-12 6,0 2,2 0,4 -2,4 -19,11 -2,1 -2,0 -4,-3 0,-4 1,-2 1,-1 z m 613,-4 l 19,-12 4,0 4,2 0,4 -2,4 -19,11 -2,1 -2,0 -4,-3 0,-4 1,-2 1,-1 z m 233,-34 l 11,-19 3,-2 4,0 3,4 0,2 -1,2 -10,19 -4,2 -4,0 -3,-4 0,-2 1,-2 z m -1658,-15 l 3,1 -4,1 16,-10 2,-1 2,0 2,1 2,4 0,2 -1,2 -1,1 -17,10 -2,1 -2,0 -3,-1 -2,0 -1,-2 -1,-4 3,-4 4,-1 z m 1679,-23 l 11,-19 1,-2
 2,-1 2,0 2,1 3,3 0,4 -11,19 -4,3 -2,0 -2,-1 -2,-3 0,-4 z m 485,-137 l 19,11 3,4 0,2 -1,2 -4,2 -4,0 -18,-11 -3,-4 0,-2 2,-4 6,0 z m -1410,131 l 9,20 1,2 0,2 -3,3 -2,1 -2,0 -4,-3 -9,-20 0,-4 3,-4 4,0 3,3 z m 18,40 l 10,20 0,4 -3,3 -2,1 -2,0 -3,-3 -10,-20 0,-4 3,-4 4,0 3,3 z m 782,22 l 20,9 3,4 0,4 -4,3 -2,0 -2,-1 -20,-9 -3,-3 0,-4 4,-3 4,0 z m -763,18 l 7,17 -7,-2 2,-2 2,-1 2,0 4,3 1,2 0,2 -1,2 -2,1 -3,2 -2,1 -2,0 -2,-1 -2,-2 -7,-17 -1,-2 3,-6 4,0 4,3 z m -678,-53 l 14,10 -5,-1 4,-1 4,0 3,3 0,4 -3,3 -5,2 -2,0 -3,-1 -14,-10 -2,-3 0,-2 1,-2 4,-3 2,0 2,1 z m 249,23 l
 6,1 -5,1 13,-9 2,-1 2,0 4,2 1,2 0,2 -2,4 -13,9 -2,1 -3,0 -6,-2 -4,-4 0,-2 3,-3 2,-1 2,0 z m -617,374 l 9,-6 -2,4 1,-10 2,-4 2,-1 2,0 4,2 1,4 -1,10 -1,2 -2,2 -9,6 -2,1 -2,0 -4,-2 -1,-2 0,-2 3,-4 z m 157,-512 l 9,21 0,4 -2,2 -2,1 -4,0 -3,-3 -8,-21 0,-4 3,-3 4,0 3,3 z m 17,41 l 8,20 0,4 -3,4 -4,0 -3,-4 -9,-20 0,-2 1,-2 3,-3 4,0 2,1 1,2 z m -275,360 l 8,20 0,4 -3,3 -4,0 -3,-3 -8,-20 -1,-2 1,-2 3,-3 2,-1 4,2 1,2 z m 16,41 l 8,20 0,4 -3,3 -4,0 -3,-3 -8,-20 -1,-2 1,-2 3,-4 2,0 2,1 3,3 z m 16,41 l 8,20 0,4 -3,3 -4,0 -3,-3 -8,-20 -1,-2 1,-2 3,-4 2,0 2,1
 3,3 z m 2162,-491 l 9,-20 3,-3 4,0 2,1 1,2 0,4 -9,21 -3,3 -4,0 -3,-4 0,-4 z m 17,-40 l 9,-20 3,-3 2,-1 2,1 3,3 0,4 -9,20 -3,3 -4,0 -3,-3 0,-4 z m 17,-41 l 9,-20 3,-3 4,0 3,3 0,4 -9,21 -3,3 -2,0 -2,-1 -3,-3 0,-4 z m -2668,420 l 8,-20 4,-3 4,0 3,3 0,4 -8,20 -4,4 -4,0 -3,-4 0,-4 z m 17,-40 l 8,-21 3,-3 4,0 3,3 0,4 -8,21 -3,3 -4,0 -2,-1 -2,-4 1,-2 z m 3090,-121 l 8,21 0,4 -3,3 -4,0 -4,-3 -8,-21 0,-2 2,-4 2,-1 4,0 3,3 z m -2863,35 l 6,2 -5,2 11,-11 4,-1 3,1 2,2 0,2 -2,4 -11,10 -3,2 -3,0 -6,-3 -3,-3 0,-4 1,-2 2,-1 4,0 z m 365,-300 l 1,-3 2,-2 3,0 3,1 14,12 2,4 0,2 -1,2 -4,2
 -4,-2 -14,-11 9,-4 0,4 -2,4 -4,1 -4,-2 -1,-2 0,-6 z m 1823,255 l 10,-1 -4,3 5,-10 4,-3 2,0 2,1 2,3 0,4 -6,10 -2,2 -2,1 -10,1 -4,-1 -2,-4 0,-2 1,-2 4,-2 z m -910,-108 l 3,-3 2,-1 3,0 2,1 1,2 8,17 0,4 -3,3 -2,1 -2,0 -3,-3 -8,-17 9,1 -2,3 -4,2 -4,-2 -1,-4 1,-4 z m -1473,157 l 8,-21 3,-3 4,0 3,3 0,4 -8,21 -3,3 -4,0 -3,-3 0,-4 z m -16,41 l 8,-21 3,-3 4,0 3,3 0,4 -8,21 -3,3 -4,0 -2,-1 -1,-2 0,-4 z m 649,-291 l 8,21 0,4 -1,2 -2,1 -4,0 -3,-3 -8,-21 0,-4 3,-3 4,0 3,3 z m 49,123 l 8,20 0,4 -3,3 -2,1 -2,-1 -3,-3 -8,-20 0,-4 3,-3 4,0 3,3 z m -569,91 l 21,8 3,3 0,4 -3,3 -4,0 -21,-8
 -3,-3 0,-4 1,-2 2,-1 4,0 z m 912,-61 l 21,8 3,3 0,4 -3,3 -4,0 -21,-7 -3,-3 0,-4 3,-3 2,-1 2,0 z m -586,412 l 8,20 0,4 -3,3 -4,0 -3,-3 -8,-20 0,-4 3,-4 2,0 2,1 3,3 z m 2388,-563 l 20,-8 4,0 3,3 0,4 -3,3 -20,8 -4,0 -3,-3 -1,-2 1,-2 3,-3 z m -2673,228 l 21,8 3,3 0,4 -3,3 -4,0 -21,-8 -3,-3 0,-4 1,-2 2,-1 4,0 z m 2856,-142 l 8,21 0,4 -3,3 -4,0 -3,-3 -8,-21 0,-4 3,-3 4,0 3,3 z m 16,41 l 8,21 0,4 -3,3 -4,0 -3,-3 -8,-21 0,-4 3,-3 4,0 3,3 z m 16,41 l 8,21 0,4 -3,3 -4,0 -3,-3 -8,-21 0,-4 3,-3 4,0 3,3 z m -2148,-14 l 21,-8 2,0 4,2 1,2 0,4 -4,3 -20,7 -4,0 -3,-3 0,-4 3,-3 z m 454,337 l 9,-1
 -5,5 2,-13 3,-4 4,-1 4,3 0,4 -2,12 -2,4 -3,1 -9,1 -4,0 -2,-4 1,-4 4,-3 z m -282,-326 l 22,6 3,3 1,4 -3,3 -4,1 -21,-6 -3,-3 -1,-2 0,-2 1,-2 1,-1 4,-1 z m 533,20 l 1,0 0,-1 19,-5 2,0 2,1 3,3 0,4 -2,2 -2,0 -19,6 1,-1 -1,1 -2,1 -2,0 -4,-3 -1,-2 0,-2 1,-2 4,-2 z m -1267,43 l 6,21 0,4 -4,3 -4,0 -3,-4 -6,-21 1,-4 3,-3 4,1 3,3 z m -32,-30 l 21,7 4,3 0,3 -3,4 -4,0 -21,-6 -3,-3 -1,-2 0,-2 3,-3 2,-1 2,0 z m 67,158 l 6,21 -1,4 -3,3 -4,-1 -3,-3 -6,-22 0,-2 4,-4 2,0 2,1 3,3 z m 1273,-183 l 21,-6 3,0 3,2 0,1 1,4 0,1 -2,2 -4,1 -2,0 -1,-2 -1,0 6,2 -21,6 -4,-1 -1,-1 -1,-2
 0,-4 3,-3 z m 1010,-250 l 21,7 3,3 0,4 -3,3 -4,0 -21,-7 -3,-3 0,-4 3,-3 4,0 z m -2624,288 l 22,-6 3,1 3,3 0,4 -4,3 -21,5 -4,0 -3,-4 0,-2 1,-2 1,-1 2,-1 z m 318,60 l 5,21 0,4 -3,3 -4,-1 -3,-3 -6,-21 0,-2 1,-2 3,-3 2,0 2,1 3,3 z m 2150,-174 l 22,5 4,3 0,4 -3,3 -4,1 -21,-5 -3,-3 -1,-2 0,-2 4,-4 2,0 z m -1790,50 l 21,5 4,2 0,6 -2,2 -4,1 -22,-5 -4,-4 0,-2 3,-4 4,-1 z m -326,251 l 6,21 0,4 -4,3 -4,0 -2,-4 -6,-21 0,-2 1,-2 3,-3 2,0 4,2 0,2 z m -23,-85 l 6,21 0,4 -4,3 -4,0 -3,-4 -5,-21 0,-2 1,-2 3,-3 2,0 4,4 z m 870,-185 l 10,-1 4,1 2,4 2,11 -1,4 -2,2 -6,0 -2,-4 -2,-12 6,5 -10,1 -4,0
 -2,-4 0,-2 1,-2 4,-3 z m -1156,72 l 7,-2 3,0 14,6 3,3 0,4 -3,3 -4,0 -14,-5 4,0 -7,2 -4,-1 -3,-3 0,-2 1,-2 3,-3 z m 185,-10 l 3,-2 2,-2 3,0 17,6 4,2 0,4 -3,4 -4,0 -17,-5 5,-2 -3,3 -3,2 -4,-2 -2,-2 0,-4 2,-2 z m 1881,30 l 14,-1 -2,1 6,-4 2,-1 2,0 4,3 0,4 -1,2 -1,1 -7,4 -1,1 -1,0 -14,1 -4,-1 -2,-4 0,-2 1,-2 4,-2 z m 733,-236 l 10,-5 3,0 2,1 9,5 3,4 0,2 -1,2 -1,1 -2,1 -2,0 -2,-1 -9,-5 4,1 -10,4 -4,0 -4,-3 0,-2 1,-2 3,-3 z m -1089,254 l 4,0 17,-4 4,1 3,4 -1,4 -4,2 -18,4 -6,0 -2,-1 -2,-4 1,-4 4,-2 z m 43,-8 l 21,-5 4,1 3,3 -1,4 -4,3 -21,4 -4,0 -3,-4 1,-4 4,-2 z m
 -426,13 l 4,-21 3,-4 4,-1 4,3 0,4 -4,21 0,2 -2,2 -4,1 -4,-3 -1,-4 z m -150,-78 l 4,22 -1,4 -4,2 -4,-1 -2,-4 -4,-21 1,-4 4,-3 4,1 2,2 0,2 z m 1486,-231 l 21,-4 2,0 2,1 3,3 -1,4 -4,3 -21,4 -4,-1 -3,-4 1,-4 4,-2 z m -1359,439 l 4,-21 3,-4 4,-1 4,3 0,4 -4,21 0,2 -2,2 -4,1 -4,-3 -1,-4 z m -91,9 l 4,22 -1,4 -4,2 -4,-1 -2,-4 -4,-21 1,-4 4,-3 4,1 2,4 z m 14,87 l 4,21 -1,4 -4,3 -4,-1 -2,-4 -4,-21 1,-4 4,-3 4,1 2,2 0,2 z m 62,-9 l 4,-22 2,-3 2,-1 2,0 4,2 1,4 -4,22 -2,4 -6,0 -2,-2 -1,-4 z m 46,-260 l 4,-22 1,-2 1,-1 2,-1 2,0 4,2 1,4 -4,22 -2,4 -6,0 -2,-2 -1,-4 z m -23,130 l 4,-22 1,-2 1,-1
 2,-1 2,0 4,2 1,4 -4,22 -2,4 -6,0 -2,-2 -1,-4 z m -400,-191 l 12,0 12,5 3,3 0,4 -3,3 -4,0 -11,-4 2,0 -10,0 -4,-1 -2,-4 1,-4 4,-2 z m 308,286 l 4,22 -1,4 -2,2 -6,0 -2,-4 -4,-22 1,-4 4,-2 2,0 4,2 0,2 z m -28,-173 l 3,21 0,4 -4,3 -4,-1 -3,-4 -3,-22 0,-2 1,-2 3,-2 4,1 3,4 z m -715,-173 l 3,-22 2,-4 4,-1 4,2 1,4 -3,22 0,2 -2,2 -4,1 -2,0 -2,-2 -1,-4 z m 729,259 l 3,22 0,4 -4,3 -4,-1 -2,-4 -4,-22 0,-2 1,-2 4,-2 2,0 2,1 2,3 z m -94,-204 l 22,-3 4,1 2,4 -1,4 -2,2 -2,0 -22,3 -4,-1 -2,-4 1,-4 4,-2 z m 1267,-40 l 2,-3 2,-2 4,-1 17,4 4,3 0,4 -2,3 -4,1 -18,-4 6,-3 -2,4 -1,1 -2,1 -4,0
 -3,-4 0,-2 1,-2 z m -1195,114 l 4,22 0,2 -1,2 -2,2 -6,0 -2,-4 -3,-22 0,-2 1,-2 1,-1 2,-1 2,0 4,2 0,2 z m -738,177 l 3,-21 2,-4 2,-1 2,0 4,2 1,4 -3,22 0,2 -2,2 -6,0 -2,-2 -1,-4 z m 874,-98 l 4,-22 1,-2 1,-1 2,-1 2,0 4,2 0,4 -3,22 -3,4 -6,0 -2,-4 0,-2 z m -121,8 l 3,22 0,4 -2,2 -6,0 -3,-4 -3,-22 0,-2 1,-2 1,-1 2,-1 2,0 2,1 3,3 z m 989,-117 l 14,-1 3,0 7,3 3,4 0,2 -1,2 -3,3 -4,0 -7,-4 3,1 -14,1 -2,0 -2,-1 -2,-4 0,-2 1,-2 4,-2 z m -891,239 l 4,-22 1,-2 1,-1 2,-1 2,0 4,2 0,4 -3,22 -3,4 -6,0 -2,-4 0,-2 z m -62,81 l 22,-3 2,0 4,2 0,6 -2,2 -2,0 -22,4 -4,-1 -2,-4 0,-2
 1,-2 1,-1 2,-1 z m 1388,-560 l 7,2 -3,0 14,-2 2,0 4,2 0,6 -2,2 -2,0 -14,3 -2,0 -8,-3 -3,-3 0,-4 3,-3 2,-1 2,1 z m -2172,404 l 2,-22 2,-4 4,-1 4,2 1,4 -2,22 0,2 -2,2 -4,1 -4,-2 -1,-4 z m 18,-175 l 2,-22 2,-4 2,-1 2,0 4,2 1,4 -3,22 0,2 -2,2 -4,1 -3,-2 -1,-2 0,-2 z m 1197,76 l 22,-2 2,0 4,2 0,2 -1,5 -4,2 -22,2 -4,-1 -2,-4 1,-4 4,-2 z m 478,-60 l 22,-2 2,0 2,1 2,3 -1,5 -4,2 -22,2 -4,-1 -2,-4 1,-4 4,-2 z m -1689,115 l 3,-22 2,-4 4,-1 4,2 0,4 -2,22 0,2 -2,2 -4,1 -2,0 -2,-2 -1,-4 z m 1815,-95 l 22,-2 4,1 2,4 -1,4 -2,2 -2,0 -22,2 -2,0 -2,-1 -2,-4 1,-4 4,-2 z m -1810,51 l 2,-22 2,-4 4,-1
 4,2 1,4 -2,22 -2,4 -4,1 -2,0 -2,-2 -1,-2 0,-2 z m -22,219 l 2,-22 2,-4 4,-1 4,2 1,4 -2,22 -2,4 -4,1 -2,0 -2,-2 -1,-2 0,-2 z m 44,-438 l 2,-22 2,-4 4,-1 4,2 1,4 -2,22 -2,4 -2,1 -4,0 -2,-2 -1,-2 0,-2 z m 1540,189 l 22,-2 4,1 2,2 0,2 -1,4 -2,2 -2,0 -22,2 -4,-1 -2,-4 1,-4 4,-2 z m -1580,205 l 2,-22 2,-4 4,-1 4,2 1,2 0,2 -2,22 0,2 -2,2 -2,1 -4,0 -2,-2 -1,-4 z m 31,-306 l 2,-22 2,-4 4,-1 4,2 1,4 -2,22 0,2 -2,2 -4,1 -4,-2 -1,-4 z m -40,394 l 2,-22 2,-4 4,-1 4,2 1,2 0,2 -2,22 0,2 -2,2 -4,1 -4,-2 -1,-4 z m 31,-307 l 2,-22 2,-3 2,-1 2,0 4,2 1,2 0,2 -2,21 0,2 -2,2 -2,1 -4,0
 -2,-2 -1,-4 z m 22,-219 l 2,-21 2,-4 2,-1 2,0 4,2 1,2 0,2 -2,22 0,2 -2,2 -6,0 -2,-2 -1,-4 z m 382,150 l 22,-1 4,1 2,2 0,2 -1,4 -2,2 -2,0 -22,1 -2,0 -2,-2 -2,-4 1,-4 4,-1 z"/>
<path fill="#E46C0A" stroke="none" d="M 2314,3638 l 16,16 2,4 -2,4 -4,2 -4,-2 -16,-16 -1,-4 1,-4 4,-1 4,1 z m -1324,-28 l 16,-15 4,-1 4,1 1,4 0,2 -2,2 -16,15 -4,2 -4,-2 -1,-2 0,-2 2,-4 z m 32,-30 l 16,-15 4,-1 4,1 2,4 -2,4 -16,15 -4,2 -4,-2 -1,-4 1,-4 z m 40,-15 l 15,16 2,4 -2,4 -4,2 -4,-2 -15,-16 -1,-4 1,-4 4,-1 4,1 z m 30,32 l 16,16 2,4 -2,3 -2,2 -4,0 -19,-19 0,-4 2,-2 4,-1 3,1 z m 94,46 l 15,-16 4,-1 4,1 2,4 -2,4 -15,16 -4,2 -4,-2 -1,-4 1,-4 z m 551,-90 l 15,17 2,4 -2,4 -2,1 -2,0 -4,-2 -15,-16 -1,-4 0,-2 2,-2 4,-1 3,1 z m 30,33 l 14,17 2,4 -2,4 -2,1 -2,0 -4,-2 -15,-16 -1,-2 0,-2 2,-4 4,-1 4,1 z m 707,197 l 16,-15 4,-1 1,0 2,2 2,4
 -2,3 -16,15 -4,2 -4,-2 -1,-4 0,-2 2,-2 z m 372,-159 l 17,14 2,4 0,2 -1,2 -4,2 -4,-2 -17,-13 -2,-2 0,-2 1,-4 4,-2 2,0 2,1 z m -1630,-13 l 14,-14 1,0 3,-2 4,0 3,3 0,4 -2,3 -3,1 1,-1 -13,14 -3,2 -4,-2 -2,-2 0,-2 1,-4 z m 1067,-4 l 15,16 2,2 0,3 -4,4 -3,0 -2,-2 -16,-15 -1,-4 1,-4 4,-1 4,1 z m -857,-58 l 16,14 2,2 0,2 -1,4 -4,2 -4,-2 -16,-14 -2,-2 0,-1 1,-4 2,-2 2,0 4,1 z m 33,28 l 17,14 2,2 0,2 -1,4 -4,2 -2,0 -2,-1 -17,-14 -1,-4 1,-4 4,-2 1,0 2,1 z m 701,62 l 18,-14 2,-1 2,0 3,2 1,4 0,2 -2,2 -17,14 -4,1 -2,-1 -1,-1 -1,-4 1,-4 z m 794,5 l 17,-14 4,-1 1,0 2,2 2,4 -2,3 -17,15 -3,1
 -2,0 -2,-2 -1,-4 1,-4 z m 321,-704 l 14,17 2,4 -2,4 -4,1 -2,0 -2,-2 -14,-16 -1,-4 1,-4 4,-1 4,1 z m -1707,616 l 18,-13 2,-1 2,0 3,2 1,4 0,2 -2,2 -17,13 -2,1 -2,0 -4,-2 -1,-2 0,-2 2,-4 z m -737,87 l 17,-13 4,-1 2,0 2,2 1,4 0,1 -2,2 -17,14 -4,1 -2,0 -2,-2 -1,-2 0,-2 2,-4 z m 2198,-17 l 17,13 2,2 0,2 -1,4 -1,1 -2,1 -2,0 -2,-1 -18,-13 -2,-4 0,-2 1,-2 4,-2 2,0 2,1 z m 517,-703 l 13,-17 4,-2 2,0 2,1 2,4 0,2 -1,2 -14,17 -4,2 -2,0 -2,-1 -1,-4 1,-4 z m 27,-34 l 14,-17 1,-2 2,0 4,1 2,2 0,2 -1,3 -13,18 -4,2 -4,-1 -2,-2 0,-2 1,-4 z m -1478,725 l 19,12 2,4 0,2 -1,2 -2,2 -2,0 -4,-1 -18,-12 -2,-4
 0,-2 1,-2 1,-1 2,-1 2,0 2,1 z m 37,25 l 18,12 2,4 0,2 -1,2 -2,2 -1,0 -4,-1 -19,-12 -2,-4 0,-2 1,-2 4,-2 2,0 2,1 z m -1008,-13 l 18,12 2,4 0,2 -1,2 -1,1 -2,1 -2,0 -2,-1 -19,-12 -2,-3 0,-2 1,-2 4,-3 2,0 2,1 z m 1386,123 l 1,0 14,-9 6,0 2,4 0,2 -3,4 -14,8 1,-1 -4,4 -4,2 -4,-2 -1,-4 0,-2 6,-6 z m 33,-20 l 19,-12 2,-1 2,0 4,3 0,4 -1,2 -1,1 -19,12 -2,1 -2,0 -2,-1 -2,-4 0,-2 1,-2 1,-1 z m -1743,-52 l 2,-9 1,-1 1,-2 10,-8 2,-1 2,0 4,2 1,2 0,2 -2,4 -10,8 2,-3 -3,9 -3,4 -3,0 -3,-3 -1,-2 0,-2 z m 737,-97 l -2,1 15,-11 4,-1 2,0 2,2 1,4 0,1 -2,2 -15,12 -1,1 -8,0 -3,-4
 1,-4 6,-3 z m 1178,119 l 19,11 2,4 0,4 -4,2 -4,0 -19,-12 -1,-1 -1,-2 0,-4 4,-3 2,0 2,1 z m -302,22 l 10,19 0,4 -3,4 -4,0 -2,-1 -1,-2 -10,-19 -1,-2 3,-6 4,0 4,3 z m 365,-45 l 3,-3 2,0 2,1 3,3 0,2 -1,2 -9,20 -4,2 -4,0 -2,-1 -1,-2 0,-2 11,-22 z m 822,-822 l 5,-6 -1,1 6,-13 1,-1 4,-2 2,1 3,3 0,4 -6,13 0,1 -5,6 -2,2 -2,0 -4,-1 -2,-4 0,-2 1,-2 z m -1214,829 l 8,4 2,2 7,12 0,4 -3,4 -4,0 -2,-1 -7,-14 2,2 -7,-3 -2,-1 -1,-2 0,-4 1,-2 2,-1 4,0 z m 1354,-846 l 10,-20 3,-2 2,-1 2,1 3,3 0,4 -11,22 -2,1 -2,0 -2,-1 -3,-3 0,-4 z m -2580,814 l 16,10 -8,1 3,-3 4,-1 4,1 2,4 -2,4 -6,4 -2,0 -2,-1
 -15,-10 -2,-2 0,-2 1,-4 1,-1 2,-1 2,0 2,1 z m 2219,-690 l 19,-11 6,0 2,2 0,4 -2,4 -19,10 -2,1 -2,0 -4,-3 0,-4 1,-2 1,-1 z m -1184,650 l 10,-8 2,0 1,-1 9,-1 4,1 2,4 -1,4 -2,2 -2,0 -9,1 3,-1 -10,8 -4,1 -2,0 -2,-2 -1,-4 0,-2 2,-2 z m 152,53 l 19,9 3,4 0,4 -1,2 -2,1 -2,0 -2,-1 -20,-9 -2,-1 -1,-2 0,-4 4,-3 4,0 z m -1093,-78 l 20,-10 4,0 2,1 1,2 0,4 -3,3 -20,10 -4,0 -2,-1 -1,-2 0,-4 3,-3 z m 1179,174 l 10,19 0,4 -3,4 -4,0 -2,-1 -1,-2 -10,-19 0,-4 2,-4 4,0 4,3 z m 354,-104 l 10,-19 4,-3 4,0 2,4 0,4 -10,19 -3,3 -4,0 -3,-4 0,-4 z m 973,-859 l 9,-19 1,-2 2,-1 5,0 1,1 1,2 0,5 -10,19 -3,3
 -4,0 -3,-4 0,-2 1,-2 z m -696,855 l 1,1 -6,-1 19,-8 4,0 4,3 0,4 -3,3 -19,8 -3,1 -3,-1 -1,-1 -2,-3 0,-2 1,-2 2,-2 6,0 z m 34,-17 l 21,-9 4,0 2,1 1,2 0,4 -3,3 -20,9 -4,0 -3,-3 -1,-2 2,-4 1,-1 z m 521,-819 l 9,-20 1,-2 2,-1 4,0 3,4 0,4 -9,20 -3,3 -4,0 -3,-4 0,-4 z m 18,-40 l 9,-20 1,-2 2,-1 4,0 3,4 0,4 -9,20 -3,3 -2,0 -2,-1 -3,-3 0,-4 z m 18,-40 l 9,-20 1,-2 2,-1 4,0 2,1 1,2 0,4 -9,21 -3,3 -2,0 -2,-1 -3,-3 0,-4 z m 28,-5 l 8,20 0,4 -3,4 -4,0 -3,-3 -9,-21 0,-4 3,-3 5,0 2,1 1,2 z m -1807,883 l 20,-9 4,0 4,3 0,4 -3,4 -21,8 -4,0 -3,-3 0,-4 3,-3 z m 1912,-874 l 2,-2 3,-1 4,1
 1,4 0,2 -1,4 -2,2 -2,0 -4,-1 -2,-4 0,-2 10,2 -8,18 -4,3 -2,0 -2,-1 -2,-3 -1,-2 10,-20 z m -550,177 l 1,-4 4,-4 3,0 3,2 11,13 2,4 -2,4 -4,1 -2,0 -2,-2 -12,-13 10,-2 -2,4 0,2 -2,2 -4,0 -3,-3 -1,-2 0,-2 z m 477,-104 l 9,20 0,4 -3,3 -4,0 -4,-3 -8,-20 0,-4 3,-3 4,0 3,3 z m -2764,812 l 21,-7 4,0 3,3 0,4 -3,3 -21,8 -4,0 -3,-4 0,-4 1,-2 2,-1 z m 343,-58 l 21,-8 4,0 2,1 1,2 0,4 -4,3 -20,8 -4,0 -3,-3 0,-4 3,-3 z m 41,-16 l 19,-7 4,0 4,1 1,4 -1,4 -2,2 -4,0 1,0 -18,7 -4,0 -3,-4 0,-4 1,-2 2,-1 z m 463,60 l 20,8 4,3 0,4 -3,3 -4,0 -21,-7 -3,-3 0,-4 3,-3 2,-1 2,0 z m 1901,-839 l 8,20
 0,4 -3,3 -2,1 -2,-1 -3,-3 -8,-20 0,-4 3,-3 4,0 3,3 z m -946,950 l 6,4 -7,2 6,-13 1,-1 2,-1 4,0 2,1 1,2 0,4 -7,13 -1,2 -2,1 -2,0 -2,-1 -7,-4 -2,-1 -1,-2 0,-2 1,-2 4,-3 2,0 2,1 z m -1882,-105 l 21,6 4,3 0,4 -3,3 -4,1 -21,-7 -3,-3 -1,-2 0,-2 3,-3 4,0 z m 2354,-658 l 7,-21 1,-2 1,-1 4,-1 4,3 0,4 -6,21 -3,4 -4,0 -3,-3 -1,-2 0,-2 z m -2484,930 l 6,-21 3,-3 2,-1 2,0 3,3 1,4 -6,21 -3,4 -4,0 -3,-3 -1,-2 0,-2 z m 35,-127 l 6,-21 3,-3 2,-1 2,0 4,3 0,3 -6,22 -3,3 -4,1 -3,-3 -1,-2 0,-2 z m 2031,-145 l 6,-11 1,-2 2,-1 3,0 2,1 8,6 2,4 -2,4 -3,2 -2,0 -2,-1 -8,-6 8,-2 -5,11 -1,2
 -2,1 -2,0 -2,-1 -3,-3 0,-4 z m 380,-531 l 6,-21 3,-3 2,-1 2,0 4,3 0,4 -6,21 -3,3 -4,0 -2,-1 -1,-1 -1,-2 0,-2 z m 13,-43 l 6,-21 3,-3 4,0 4,3 0,4 -7,21 -3,3 -4,0 -3,-3 0,-4 z m 12,-42 l 7,-21 3,-3 4,0 2,1 1,1 0,4 -6,22 -3,3 -4,0 -3,-3 -1,-4 z m -1373,625 l 5,2 -4,0 16,-6 4,0 2,1 1,2 0,4 -3,3 -15,7 -4,0 -6,-2 -3,-3 0,-4 3,-3 2,-1 2,0 z m 1148,-10 l 10,-9 4,-1 3,1 7,6 2,2 0,2 -1,3 -2,2 -1,0 -4,-1 -8,-5 7,0 -10,8 -3,1 -2,0 -2,-2 -1,-3 1,-4 z m -2222,188 l 5,-21 3,-3 2,-1 2,0 4,3 0,4 -6,21 -3,4 -4,0 -3,-3 0,-4 z m 148,-175 l 17,5 -3,0 4,-1 4,0 3,3 0,4 -4,3 -4,2 -3,0
 -17,-5 -3,-3 -1,-2 0,-2 3,-3 2,-1 2,0 z m 1051,-26 l 2,0 21,5 3,3 1,4 -3,4 -4,0 -21,-5 1,0 -4,-1 -1,-5 1,-4 4,-1 z m 664,102 l 6,-1 -1,0 16,-4 2,0 2,1 3,3 0,4 -4,3 -16,4 -1,0 -5,1 -4,-1 -2,-4 0,-2 1,-2 1,-1 2,-1 z m 42,-11 l 22,-5 2,0 4,2 0,6 -2,2 -2,0 -21,6 -4,0 -3,-4 1,-4 3,-3 z m -1882,25 l 6,-21 3,-3 2,-1 2,0 3,3 0,4 -5,21 -3,4 -4,0 -3,-3 -1,-2 0,-2 z m -35,128 l 6,-22 3,-3 3,0 4,2 0,4 -6,22 0,1 -2,2 -6,0 -2,-4 0,-2 z m 739,-256 l 21,-5 2,0 2,1 3,3 -1,4 -1,2 -2,0 -22,5 -4,0 -3,-4 1,-4 4,-2 z m 516,23 l 19,4 -2,0 4,0 2,1 3,3 -1,4 -4,3 -5,0 -19,-5 -3,-2 -1,-4
 3,-3 2,-1 2,0 z m 1296,-641 l 6,7 -5,-2 13,-2 4,1 2,2 0,6 -4,2 -14,2 -2,0 -3,-2 -5,-6 -1,-4 1,-4 4,-1 4,1 z m -128,156 l 2,-13 0,-1 3,-8 3,-3 2,-1 2,0 3,3 0,4 -2,8 0,-1 -2,13 0,2 -2,2 -2,1 -4,0 -2,-2 -1,-4 z m 242,-190 l 6,-3 1,-1 1,0 15,-1 2,0 2,1 2,3 -1,4 -2,2 -2,0 -15,2 2,-1 -6,4 -4,0 -4,-2 0,-4 3,-4 z m -965,860 l 4,9 -8,-2 8,-8 4,-1 2,0 2,2 2,4 -2,3 -9,8 -2,2 -2,0 -3,-1 -1,-2 -5,-9 0,-4 2,-3 2,-1 2,0 4,3 z m 697,-451 l 3,-22 2,-4 4,-1 4,2 1,4 -3,22 0,2 -2,2 -4,1 -4,-2 -1,-4 z m -31,262 l 3,-22 2,-4 4,-1 4,2 1,4 -3,22 0,2 -2,2 -4,1 -2,0 -2,-2 -1,-4 z m
 221,-637 l 22,-3 2,0 2,1 2,3 -1,4 -4,3 -22,3 -4,-1 -2,-4 1,-4 4,-2 z m -169,200 l 3,-22 2,-4 4,-1 4,2 1,4 -3,22 0,2 -2,2 -4,1 -2,0 -2,-2 -1,-4 z m -586,537 l 22,-3 4,1 2,4 -1,4 -2,2 -2,0 -22,3 -4,-1 -2,-4 1,-4 4,-2 z m 555,-275 l 3,-22 2,-4 4,-1 4,2 1,4 -3,22 0,2 -2,2 -4,1 -2,0 -2,-2 -1,-4 z m 26,-218 l 3,-22 2,-4 2,-1 2,0 4,2 1,4 -3,22 0,2 -2,2 -4,1 -4,-2 -1,-4 z m 648,-320 l 3,22 -1,4 -2,2 -2,0 -4,-1 -2,-4 -3,-22 1,-4 4,-2 4,1 2,2 0,2 z m -82,-43 l 5,11 -10,0 4,-8 3,-3 4,0 3,4 0,2 -5,10 -2,2 -3,1 -3,-1 -2,-2 -4,-12 -1,-2 1,-2 3,-4 2,0 4,2 1,2 z m -852,798 l 2,1 -3,-1 19,2
 4,2 1,2 0,4 -2,2 -2,1 -2,0 -19,-2 -1,0 -2,-1 -2,-2 -2,-4 0,-2 1,-2 4,-1 4,1 z m -831,-38 l 22,-3 4,1 2,2 0,6 -2,2 -2,0 -22,3 -4,0 -2,-4 0,-2 1,-2 3,-3 z m 1096,-223 l 3,-22 1,-2 1,-1 2,-1 2,0 4,2 1,4 -3,22 0,2 -2,2 -6,0 -2,-2 -1,-4 z m 683,-363 l 3,22 -1,4 -2,2 -4,0 -2,-1 -2,-4 -3,-21 1,-4 4,-2 2,0 4,2 0,2 z m -693,451 l 3,-22 2,-4 4,-1 4,2 0,4 -2,22 0,2 -2,2 -4,1 -4,-2 -1,-4 z m -215,178 l 20,2 -4,1 1,-1 4,-1 4,1 2,4 -2,4 -2,2 -2,1 -2,0 -20,-2 -4,-2 -1,-4 2,-4 2,-1 2,0 z m 543,-726 l 22,-2 4,1 2,4 -1,4 -2,2 -2,0 -22,2 -2,0 -2,-1 -2,-4 0,-2 1,-2 4,-2 z m 43,-4 l 22,-2
 4,1 2,2 0,4 -1,2 -2,2 -2,0 -22,2 -4,-1 -2,-4 1,-4 4,-2 z m -381,639 l 2,-22 2,-4 4,-1 4,2 1,5 -3,21 0,2 -2,2 -2,1 -4,0 -2,-4 0,-2 z m -1517,-32 l 22,-2 4,2 2,2 0,2 -1,4 -4,1 -22,2 -3,0 -3,-6 1,-4 4,-1 z m 1548,-230 l 2,-22 2,-4 4,-1 4,2 1,2 0,2 -2,22 -2,4 -5,1 -2,0 -2,-4 0,-2 z m 644,-538 l 3,22 -1,4 -4,2 -4,-1 -2,-4 -2,-22 0,-2 1,-2 1,-1 2,-1 4,1 2,2 0,2 z m 5,44 l 2,22 0,4 -4,2 -4,-1 -3,-4 -2,-22 1,-4 4,-2 2,0 2,1 2,2 0,2 z m 5,43 l 2,22 -1,4 -2,2 -4,0 -2,-1 -2,-4 -2,-21 0,-2 1,-2 4,-3 4,1 2,4 z m 9,88 l 2,22 0,2 -1,2 -4,2 -4,-1 -2,-4 -2,-22 1,-4 4,-2 4,1
 2,2 0,2 z m 5,44 l 2,22 -1,4 -4,2 -4,-1 -2,-4 -2,-22 0,-2 1,-2 4,-2 2,0 2,1 2,4 z m 9,87 l 2,22 0,2 -1,2 -2,2 -2,0 -4,-1 -2,-4 -2,-22 1,-4 4,-2 4,1 2,2 0,2 z m 5,44 l 2,22 -1,4 -2,2 -2,0 -4,-1 -2,-4 -2,-22 0,-2 1,-2 1,-1 2,-1 5,1 2,4 z m 4,44 l 2,22 0,4 -4,2 -4,-1 -2,-4 -3,-22 1,-4 4,-2 2,0 2,1 2,2 0,2 z m 9,87 l 3,22 -1,4 -2,2 -2,0 -4,-1 -2,-4 -2,-22 0,-2 1,-2 3,-2 4,1 2,2 0,2 z m 5,44 l 2,22 0,4 -2,2 -2,0 -5,-1 -2,-4 -2,-22 1,-4 4,-2 4,1 2,2 0,2 z m -695,-31 l 2,-22 3,-3 2,-1 2,0 4,2 0,4 -2,22 -2,4 -6,0 -2,-2 -1,-4 z m -31,262 l 2,-21 2,-4 2,-1 2,0
 4,2 1,2 0,2 -2,22 -2,4 -6,0 -2,-2 -1,-2 0,-2 z m 717,-319 l 2,22 -1,4 -2,2 -4,0 -2,-1 -2,-4 -2,-21 1,-4 4,-2 2,0 2,1 2,3 z m -1608,396 l 21,-2 4,1 2,2 0,6 -4,2 -22,2 -4,-1 -2,-4 0,-2 1,-2 4,-2 z m -542,-64 l 21,2 4,2 1,2 0,4 -2,2 -4,1 -22,-3 -2,0 -2,-4 0,-2 1,-2 1,-1 2,-1 2,0 z m -45,-4 l 9,0 14,1 4,2 1,4 -2,4 -2,1 -2,0 -14,-1 1,0 -11,0 -2,-1 -1,-4 1,-4 4,-2 z m -272,13 l 22,-1 4,2 1,4 -1,4 -4,1 -22,1 -2,0 -2,-2 -2,-4 2,-4 4,-1 z m 540,59 l 22,0 4,1 2,2 0,5 -2,2 -4,1 -22,0 -4,-1 -1,-5 1,-4 4,-1 z"/>
<path fill="#4BACC6" stroke="none" d="M 993,2828 l 16,15 2,4 -2,4 -4,2 -4,-2 -15,-16 -2,-2 0,-3 4,-4 3,0 2,2 z m 31,31 l 16,15 2,4 -2,4 -4,2 -4,-2 -15,-16 -1,-3 1,-4 4,-1 3,1 z"/>
<path fill="#A597B9" stroke="none" d="M 3195,3016 l 16,-15 2,-2 2,0 4,2 2,4 -2,3 -16,16 -4,2 -4,-2 -1,-4 1,-4 z m -1276,-207 l 15,-17 4,-1 4,1 2,4 -2,4 -15,16 -3,2 -2,0 -2,-1 -2,-2 0,-2 1,-4 z m -650,43 l 15,16 1,2 0,2 -2,4 -4,2 -4,-2 -14,-17 -1,-4 0,-2 2,-2 4,-1 1,0 2,2 z m 370,-144 l 15,-17 4,-2 1,0 2,1 2,2 0,2 -1,4 -15,17 -3,2 -4,-2 -2,-2 0,-1 1,-4 z m 106,-2 l 18,-13 2,-1 2,0 4,2 1,4 -1,2 -2,2 -17,13 -2,1 -2,0 -4,-2 -1,-2 0,-2 2,-4 z m 652,333 l 12,-18 4,-3 2,0 2,1 2,2 1,2 -1,4 -12,18 -2,2 -2,1 -4,-1 -2,-2 0,-6 z m 756,-62 l 12,18 1,4 -1,2 -2,2 -2,1 -2,0 -4,-3 -11,-18 -1,-2 0,-2 2,-4 2,-1 2,0 4,3 z m -1205,-201 l 12,-13 1,-1
 1,0 3,-2 2,-1 2,0 4,2 0,4 -2,4 -4,2 2,-1 -12,13 -2,2 -2,0 -4,-1 -2,-4 0,-2 1,-2 z m -707,42 l 14,17 1,4 0,2 -2,2 -3,1 -2,0 -2,-2 -15,-16 -1,-2 0,-2 2,-4 4,-1 4,1 z m 369,-77 l 15,-17 4,-1 3,1 2,2 0,2 -1,3 -14,17 -4,2 -4,-2 -2,-3 0,-2 1,-2 z m -256,-18 l 13,-17 4,-2 2,0 2,1 2,2 0,2 -1,4 -13,17 -4,2 -2,0 -2,-1 -2,-4 0,-2 1,-2 z m 27,-34 l 13,-18 4,-2 2,0 2,1 2,4 0,2 -1,2 -13,17 -2,2 -2,0 -4,-1 -2,-2 0,-1 1,-4 z m 1436,480 l 13,-17 2,-2 2,0 4,1 2,4 0,1 -1,2 -13,18 -4,2 -2,0 -2,-1 -2,-2 0,-2 1,-4 z m 27,-35 l 13,-17 2,-2 2,0 4,1 2,4 -1,3 -14,18 -3,2 -2,0 -2,-1 -2,-2
 0,-2 1,-4 z m -1166,-437 l 19,12 1,1 1,2 0,4 -2,2 -2,1 -4,-1 -19,-12 -2,-4 0,-2 1,-2 4,-2 1,0 2,1 z m 501,94 l 19,-12 2,-1 2,0 2,1 1,1 1,2 0,2 -2,4 -19,12 -2,1 -2,0 -2,-1 -2,-4 0,-2 1,-2 1,-1 z m 242,211 l 12,-18 2,-2 6,0 2,2 1,2 -1,4 -12,18 -4,3 -2,0 -2,-1 -2,-2 0,-6 z m -1268,-33 l 11,-19 4,-2 4,0 2,2 1,2 -1,4 -11,19 -4,3 -2,0 -2,-1 -2,-4 0,-4 z m 831,-221 l 18,-12 4,0 4,2 1,2 0,2 -3,4 -18,11 -2,1 -2,0 -4,-2 -1,-2 0,-2 3,-4 z m 68,13 l 12,19 1,2 0,2 -3,4 -4,1 -2,-1 -1,-2 -12,-19 0,-6 4,-2 2,0 2,1 1,1 z m 24,38 l 11,18 1,2 0,2 -2,4 -2,1 -2,0 -4,-3 -12,-18 0,-4 2,-4 2,-1
 2,0 4,3 z m 538,325 l 19,10 3,4 0,2 -2,4 -2,1 -2,0 -2,-1 -19,-11 -3,-3 0,-4 4,-3 2,0 2,1 z m 55,68 l 11,20 1,2 0,2 -1,2 -4,2 -2,0 -4,-3 -10,-19 -1,-2 0,-2 3,-4 4,0 2,1 1,1 z m 50,66 l 20,11 1,1 1,2 0,4 -4,3 -2,0 -2,-1 -19,-11 -3,-3 0,-2 2,-4 2,-1 2,0 2,1 z m 411,-318 l 11,18 1,2 0,2 -2,4 -4,1 -2,-1 -2,-2 -12,-19 0,-6 4,-2 2,0 4,3 z m -806,-24 l 9,5 2,2 5,11 1,2 0,2 -3,3 -4,0 -4,-3 -5,-10 3,2 -9,-4 -3,-4 0,-2 1,-2 3,-3 2,0 2,1 z m -303,-191 l 4,-2 2,0 2,1 1,2 11,17 1,4 -1,2 -4,2 -2,0 -2,-1 -1,-1 -11,-18 7,2 -1,1 -2,1 -2,0 -4,-3 0,-4 1,-2 1,-1 z m 670,506 l 9,17
 -2,-2 4,2 1,2 0,2 -1,2 -3,3 -2,0 -4,-2 -2,-2 -10,-17 0,-4 1,-2 1,-1 2,-1 2,0 4,3 z m 485,-217 l 12,19 -8,-1 0,-1 4,-1 1,0 4,4 0,3 -4,4 -2,0 -2,-1 -2,-2 -12,-18 0,-6 2,-2 6,0 1,2 z m -1676,-206 l 22,-11 2,0 3,3 1,2 0,2 -3,3 -22,11 -2,0 -2,-1 -1,-2 0,-4 2,-3 z m 39,-20 l 20,-11 4,0 2,1 1,1 1,2 0,2 -3,4 -19,10 -2,1 -2,0 -4,-3 0,-4 2,-3 z m 39,-21 l 19,-10 -2,1 1,-1 4,-1 4,1 2,4 -2,4 -1,1 -1,0 -19,10 -2,1 -2,0 -2,-1 -1,-2 0,-6 2,-1 z m 566,45 l 3,0 -2,1 16,-11 4,0 2,1 1,1 1,2 0,2 -2,4 -17,10 -1,1 -8,0 -2,-4 1,-4 4,-3 z m 75,-25 l 11,20 0,4 -1,2 -2,1 -4,0 -2,-1
 -1,-1 -11,-22 0,-2 1,-2 4,-2 2,1 3,2 z m 21,39 l 10,19 1,2 0,3 -1,2 -2,1 -4,0 -3,-2 -11,-20 0,-4 1,-2 4,-2 2,0 2,1 1,2 z m 21,39 l 10,19 0,4 -2,4 -4,0 -4,-2 -11,-22 0,-2 3,-3 2,-1 2,0 4,3 z m 24,30 l 19,11 3,3 0,4 -4,3 -2,0 -2,-1 -19,-10 -2,-1 -1,-2 0,-2 1,-2 3,-3 4,0 z m 363,259 l 11,19 0,4 -3,4 -4,0 -2,-1 -1,-1 -11,-20 0,-4 1,-2 1,-1 2,-1 2,0 4,3 z m -1539,-108 l 11,-19 4,-3 2,0 2,1 2,3 0,4 -11,19 -4,3 -2,0 -4,-2 0,-6 z m 22,-38 l 11,-19 4,-3 2,0 2,1 2,3 0,4 -11,19 -4,3 -2,0 -2,-1 -1,-1 -1,-2 0,-4 z m 1641,238 l 11,-19 4,-3 2,0 2,1 1,1 1,2 0,4 -11,19 -1,2 -2,1 -4,0
 -3,-4 0,-4 z m 22,-38 l 11,-19 1,-2 2,-1 4,0 3,4 0,2 -1,2 -10,19 -4,3 -2,0 -2,-1 -1,-1 -1,-2 0,-4 z m -1620,-277 l 9,-20 6,-3 2,1 3,3 0,2 -1,2 -9,20 -1,2 -2,1 -4,0 -3,-4 0,-4 z m 1584,349 l 1,1 -7,2 10,-18 3,-2 4,0 3,4 0,2 -1,2 -10,17 -1,2 -2,1 -2,0 -4,-2 -1,-1 -1,-2 0,-4 4,-3 2,0 2,1 z m -180,-175 l 1,0 -3,-2 19,10 2,4 0,4 -4,2 -4,0 -18,-11 -1,-1 -2,-1 0,-5 3,-3 4,0 3,3 z m -684,-258 l 4,-14 1,-1 0,-1 5,-6 4,-1 4,1 2,4 0,2 -1,2 -5,5 1,-2 -4,14 -3,4 -4,0 -3,-3 -1,-2 0,-2 z m -701,44 l 9,-19 4,-3 4,0 3,3 0,2 -1,2 -9,20 -1,2 -2,1 -5,0 -1,-1 -1,-2 0,-5 z m 1157,63 l 9,20 0,4
 -3,3 -4,0 -3,-3 -9,-20 -1,-2 0,-2 1,-2 2,-1 4,0 4,3 z m 36,80 l 9,20 1,2 0,2 -3,3 -4,0 -4,-3 -9,-20 0,-4 1,-2 2,-1 4,0 3,3 z m -1174,-182 l 9,-20 1,-2 2,-1 4,0 2,1 1,2 0,5 -9,19 -4,3 -4,0 -1,-1 -2,-4 1,-2 z m 2015,133 l 14,-13 2,-2 3,0 4,4 0,2 -2,3 -14,14 -3,2 -4,-2 -1,-4 1,-4 z m -2171,-94 l 7,20 1,2 -1,2 -3,3 -4,0 -3,-3 -8,-21 0,-2 2,-4 2,-1 2,0 4,2 1,2 z m 265,-85 l 7,-20 1,-2 4,-2 2,1 4,3 0,4 -8,20 -3,3 -4,0 -3,-3 -1,-2 1,-2 z m -438,50 l 21,-8 4,0 3,3 0,4 -3,4 -21,8 -4,0 -3,-4 0,-4 1,-2 2,-1 z m 453,-91 l 8,-20 3,-3 2,-1 2,0 3,4 1,2 -1,2 -7,20 -4,3 -4,0 -3,-3
 0,-4 z m 1191,218 l 9,20 0,4 -3,3 -2,1 -2,-1 -3,-3 -9,-20 0,-4 3,-3 4,0 3,3 z m 17,41 l 9,20 0,4 -3,3 -4,0 -3,-3 -9,-20 0,-4 3,-3 2,-1 2,1 3,3 z m 17,40 l 9,20 0,4 -3,4 -4,0 -3,-3 -9,-21 0,-4 1,-2 2,-1 4,0 3,3 z m -1458,-50 l 7,20 1,2 -1,2 -3,4 -4,0 -3,-4 -8,-20 0,-2 1,-2 3,-3 4,0 2,1 1,2 z m 1933,-33 l 7,-21 3,-3 2,-1 2,0 4,3 0,4 -7,21 -3,3 -4,1 -3,-3 -1,-4 z m -668,13 l 9,20 0,4 -3,3 -4,0 -2,-1 -1,-2 -9,-20 0,-4 1,-2 2,-1 4,0 2,1 1,2 z m 682,-55 l 6,-19 3,-3 2,-1 2,0 2,1 4,3 0,3 -3,4 -6,0 7,-4 -6,19 -1,2 -2,2 -4,0 -3,-3 -1,-2 0,-2 z m -2196,-49 l 7,-21 1,-2 2,-1 4,0
 4,3 0,4 -8,21 -3,3 -4,0 -3,-3 0,-4 z m 217,42 l 8,20 0,4 -3,3 -4,0 -3,-3 -8,-20 0,-4 3,-4 2,0 2,1 3,3 z m 16,41 l 8,20 0,4 -3,3 -4,0 -3,-3 -8,-20 0,-4 3,-3 2,-1 2,1 3,3 z m -280,40 l 8,-20 3,-3 4,0 3,3 0,4 -7,20 -4,3 -2,1 -2,-1 -3,-3 0,-4 z m 627,-329 l 7,21 0,4 -3,3 -4,0 -3,-3 -8,-21 0,-2 1,-2 3,-3 4,0 3,3 z m 14,42 l 8,21 0,4 -4,3 -4,0 -3,-4 -7,-20 0,-4 3,-3 4,0 3,3 z m -143,121 l 8,-20 3,-3 4,0 3,3 0,4 -8,20 -3,3 -2,1 -2,-1 -3,-3 0,-4 z m -482,125 l 7,-20 1,-2 4,-2 2,0 2,1 2,2 0,4 -8,21 -3,3 -4,0 -3,-3 0,-4 z m 15,-41 l 8,-21 3,-3 4,0 3,3 0,4 -8,21 -3,3 -4,0
 -3,-3 0,-4 z m 2171,133 l 7,-21 3,-3 4,0 4,3 0,4 -7,21 -3,3 -4,0 -3,-3 -1,-2 0,-2 z m -1531,-255 l 5,15 -8,-3 8,-4 2,0 3,3 1,2 0,2 -3,3 -8,4 -3,0 -1,-2 -2,-2 -5,-14 0,-2 1,-2 3,-3 4,0 2,1 1,2 z m 368,207 l 6,-21 3,-3 2,-1 2,0 3,3 1,4 -6,21 -3,4 -4,0 -3,-3 -1,-2 0,-2 z m 12,-42 l 6,-21 3,-3 2,-1 2,0 3,3 1,4 -6,21 -3,3 -4,1 -3,-3 -1,-2 0,-2 z m 24,-85 l 6,-21 3,-3 2,-1 2,0 4,3 0,4 -6,21 -3,4 -4,0 -3,-3 -1,-2 0,-2 z m -584,-4 l 1,1 -10,1 8,-19 3,-3 4,0 3,3 0,4 -7,19 -2,3 -3,1 -2,0 -3,-2 0,-1 -1,-3 1,-4 4,-1 4,1 z m 572,47 l 6,-22 3,-3 4,0 4,2 0,4 -6,22 -3,3 -4,0
 -4,-4 0,-2 z m -407,-164 l 7,20 0,4 -3,3 -4,0 -3,-3 -7,-21 0,-4 3,-3 2,0 2,1 3,3 z m 1407,331 l 4,-5 4,-2 16,-1 4,1 2,4 0,2 -4,4 -2,0 -15,1 4,-2 -4,5 -4,2 -2,0 -2,-1 -2,-4 0,-2 1,-2 z m 126,7 l 7,-21 1,-2 1,-1 4,0 4,3 0,4 -7,21 -3,3 -4,0 -3,-3 0,-4 z m 27,-84 l 7,-20 3,-3 2,-1 2,0 3,3 0,4 -7,21 -3,3 -4,0 -3,-3 0,-4 z m -1308,-301 l 8,5 -6,0 10,-7 2,-1 2,0 4,2 1,2 0,2 -2,4 -10,7 -3,1 -4,-1 -8,-5 -2,-4 0,-2 1,-2 1,-1 2,-1 2,0 2,1 z m 1246,373 l 21,5 4,3 0,4 -3,4 -4,0 -21,-5 -3,-3 -1,-2 0,-2 3,-3 2,-1 2,0 z m -2035,-255 l 1,0 19,-4 2,0 2,1 3,3 0,4 -4,3 -19,4 -2,0
 -2,1 -2,-1 -3,-3 0,-4 1,-2 4,-2 z m 2160,84 l 21,6 4,2 0,4 -3,4 -4,0 -21,-6 -3,-3 -1,-2 0,-2 3,-3 4,0 z m -1678,-269 l 4,-6 2,-1 3,-1 3,1 2,3 5,14 0,4 -4,3 -4,0 -3,-4 -5,-14 10,2 -5,5 -1,2 -2,0 -4,-1 -2,-1 0,-2 1,-4 z m 416,252 l 4,21 -1,4 -4,3 -4,-1 -2,-4 -4,-22 1,-4 4,-2 4,1 2,4 z m 7,43 l 4,22 -1,4 -2,2 -4,0 -2,-1 -2,-4 -4,-21 1,-4 4,-3 4,1 2,2 0,2 z m -29,-174 l 4,22 -1,4 -2,2 -6,0 -2,-4 -4,-22 1,-4 4,-2 2,0 4,2 0,2 z m -834,55 l 20,-4 2,0 2,1 3,3 -1,4 -3,3 -21,4 -4,0 -2,-4 0,-2 1,-2 3,-3 z m 819,-141 l 4,21 0,4 -4,3 -4,-1 -3,-4 -3,-22 0,-2 1,-2 3,-2 4,1 2,2 0,2 z m
 -1006,499 l 3,-21 2,-4 2,-1 2,0 4,2 1,4 -3,22 0,2 -2,2 -4,1 -4,-3 -1,-4 z m -29,218 l 3,-21 2,-4 4,-1 4,2 1,2 0,2 -3,22 0,2 -2,2 -4,1 -4,-2 -1,-5 z m 1057,-587 l 4,22 0,2 -1,2 -4,2 -4,-1 -2,-4 -3,-21 0,-2 1,-2 3,-3 4,1 2,2 0,2 z m -1011,238 l 3,-21 2,-4 4,-1 4,2 1,4 -3,22 0,2 -2,2 -4,1 -4,-3 -1,-4 z m -40,306 l 3,-22 2,-4 4,-1 4,2 1,4 -3,22 0,2 -2,2 -4,1 -2,0 -2,-2 -1,-4 z m 17,-131 l 3,-22 2,-4 4,-1 4,3 1,4 -3,21 0,2 -2,2 -2,1 -4,0 -2,-2 -1,-4 z m -34,262 l 3,-22 2,-4 4,-1 4,2 1,4 -3,22 0,2 -2,2 -4,1 -2,0 -2,-2 -1,-4 z m 1704,-529 l 3,-4 4,-2 18,0 4,1 1,4 -1,5 -4,1 -18,0
 5,-3 -2,4 -4,3 -2,0 -2,-1 -2,-2 0,-6 z m -628,-103 l 3,22 0,4 -2,2 -6,0 -3,-4 -3,-22 0,-2 1,-2 1,-1 2,-1 2,0 2,1 3,3 z m 283,-43 l 22,-3 2,0 4,2 0,6 -4,3 -22,3 -4,-1 -2,-4 0,-2 1,-2 1,-1 2,-1 z m -261,173 l 3,22 0,4 -2,2 -6,0 -3,-4 -3,-22 0,-2 1,-2 1,-1 2,-1 2,0 2,1 3,3 z m -1047,109 l 3,-22 2,-3 2,-1 2,0 4,2 1,2 0,2 -3,22 0,2 -2,2 -6,0 -2,-2 -1,-4 z m -28,218 l 3,-22 1,-2 1,-1 2,-1 2,0 4,2 1,4 -3,22 -2,4 -6,0 -2,-2 -1,-2 0,-2 z m 1031,-587 l 3,22 0,4 -2,2 -6,0 -2,-4 -4,-22 0,-2 1,-2 1,-1 2,-1 2,0 2,1 3,3 z m -1008,413 l 3,-22 2,-4 4,-1 4,2 0,4 -2,22 -3,4 -4,1 -2,0
 -2,-4 0,-2 z m -17,131 l 2,-22 3,-4 4,-1 4,2 0,4 -3,22 0,2 -2,2 -4,1 -3,-2 -1,-2 0,-2 z m -23,174 l 3,-22 1,-2 1,-1 2,-1 2,0 4,2 0,4 -2,22 -3,4 -6,0 -2,-4 0,-2 z m 2169,-360 l 22,-1 4,1 1,4 0,2 -1,2 -2,2 -2,0 -22,1 -4,-1 -2,-4 2,-4 4,-2 z m -1070,-54 l 2,12 -11,-1 3,-10 3,-3 4,0 2,1 1,1 1,4 -3,10 -2,3 -4,1 -3,-1 -2,-4 -2,-11 1,-4 4,-3 4,1 2,4 z m 646,-77 l 21,0 4,1 2,2 0,5 -1,2 -2,1 -4,0 -3,-3 -1,0 5,3 -21,0 -4,-1 -1,-2 -1,-3 2,-4 4,-1 z"/>
<text font-family="Calibri" font-size="50" fill="#000000"><tspan x="645" y="4198">0</tspan><tspan x="569,595,620,645" y="3875">2000</tspan><tspan x="569,595,620,645" y="3552">4000</tspan><tspan x="569,595,620,645" y="3228">6000</tspan><tspan x="569,595,620,645" y="2905">8000</tspan><tspan x="544,570,595,620,645" y="2582">10000</tspan><tspan x="544,570,595,620,645" y="2259">12000</tspan><tspan x="734" y="4263">0</tspan><tspan x="978" y="4263">4</tspan><tspan x="1222" y="4263">8</tspan><tspan x="1453,1478" y="4263">12</tspan><tspan x="1697,1722" y="4263">16</tspan><tspan x="1940,1966" y="4263">20</tspan><tspan x="2184,2210" y="4263">24</tspan><tspan x="2428,2453" y="4263">28</tspan><tspan x="2671,2697" y="4263">32</tspan><tspan x="2915,2941" y="4263">36</tspan><tspan x="3159,3184" y="4263">40</tspan><tspan x="3403,3428" y="4263">44</tspan><tspan x="3646,3672" y="4263">48</tspan></text>
<text font-family="Calibri" font-size="50" fill="#000000" font-weight="700" transform="translate(516,3276) rotate(-90)"><tspan x="0,26,53,79,106" y="0">Count</tspan></text>
<text font-family="Calibri" font-size="50" fill="#000000" font-weight="700"><tspan x="2241,2286,2311,2336" y="4339">Week</tspan></text>
<text font-family="Calibri" font-size="89" fill="#000000" font-weight="700"><tspan x="1213,1261,1303,1334,1382,1417,1454,1498,1546,1591,1615,1663,1693,1736" y="2048">Cytoscape.org </tspan><tspan x="1757,1800,1821,1857,1879,1910,1945" y="2048">visits </tspan><tspan x="1966,2010,2058,2106" y="2048">and </tspan><tspan x="2127,2174,2217,2247,2295,2331,2367,2412,2459,2505" y="2048">Cytoscape </tspan><tspan x="2526,2583,2630,2697,2745,2767,2814,2859,2907,2942" y="2048">Downloads </tspan><tspan x="2963,2991,3033,3055,3099" y="2048">(via </tspan><tspan x="3120,3168,3216,3282,3330,3352,3400,3444,3492,3515,3563,3611,3659,3687" y="2048">download.php) </tspan><tspan x="2206,2234,2280,2325,2371,2416" y="2158">(2012 </tspan><tspan x="2436" y="2158">-</tspan><tspan x="2484,2529,2574,2620,2665" y="2158">2016)</tspan></text>
<path fill="#416FA6" stroke="none" d="M 3965,2890 l 125,0 5,1 1,4 -1,5 -5,1 -125,0 -4,-1 -1,-5 1,-4 4,-1 z"/>
<text font-family="Calibri" font-size="50" fill="#000000"><tspan x="4106,4131,4156,4181,4206" y="2911">2012 </tspan><tspan x="4218,4246,4257,4277,4288,4305" y="2911">Visits</tspan></text>
<path fill="#00B050" stroke="none" d="M 3965,2980 l 125,0 5,1 1,4 -1,5 -5,1 -125,0 -4,-1 -1,-5 1,-4 4,-1 z"/>
<text font-family="Calibri" font-size="50" fill="#000000"><tspan x="4106,4131,4156,4181,4206" y="3001">2013 </tspan><tspan x="4218,4246,4257,4277,4288,4305" y="3001">Visits</tspan></text>
<path fill="#C00000" stroke="none" d="M 3965,3070 l 125,0 5,1 1,4 -1,5 -5,1 -125,0 -4,-1 -1,-5 1,-4 4,-1 z"/>
<text font-family="Calibri" font-size="50" fill="#000000"><tspan x="4106,4131,4156,4181,4206" y="3091">2014 </tspan><tspan x="4218,4246,4257,4277,4288,4305" y="3091">Visits</tspan></text>
<path fill="#E46C0A" stroke="none" d="M 3965,3160 l 125,0 5,1 1,4 -1,5 -5,1 -125,0 -4,-1 -1,-5 1,-4 4,-1 z"/>
<text font-family="Calibri" font-size="50" fill="#000000"><tspan x="4106,4131,4156,4181,4206" y="3181">2015 </tspan><tspan x="4218,4246,4257,4277,4288,4305" y="3181">Visits</tspan></text>
<path fill="#4BACC6" stroke="none" d="M 3965,3250 l 125,0 5,1 1,4 -1,5 -5,1 -125,0 -4,-1 -1,-5 1,-4 4,-1 z"/>
<text font-family="Calibri" font-size="50" fill="#000000"><tspan x="4106,4131,4156,4181,4206" y="3271">2016 </tspan><tspan x="4218,4246,4257,4277,4288,4305" y="3271">Visits</tspan></text>
<path fill="#376092" stroke="none" d="M 3965,3340 l 22,0 5,1 1,4 -1,5 -5,1 -22,0 -4,-1 -1,-5 1,-4 4,-1 z m 44,0 l 22,0 5,1 1,4 -1,5 -5,1 -22,0 -4,-1 -1,-5 1,-4 4,-1 z m 44,0 l 22,0 5,1 1,4 -1,5 -5,1 -22,0 -4,-1 -1,-5 1,-4 4,-1 z"/>
<text font-family="Calibri" font-size="50" fill="#000000"><tspan x="4106,4131,4156,4181,4206" y="3361">2012 </tspan><tspan x="4218,4249,4275,4310,4336,4347,4374,4398,4424" y="3361">Downloads</tspan></text>
<path fill="#00B050" stroke="none" d="M 3965,3430 l 22,0 5,1 1,4 -1,5 -5,1 -22,0 -4,-1 -1,-5 1,-4 4,-1 z m 44,0 l 22,0 5,1 1,4 -1,5 -5,1 -22,0 -4,-1 -1,-5 1,-4 4,-1 z m 44,0 l 22,0 5,1 1,4 -1,5 -5,1 -22,0 -4,-1 -1,-5 1,-4 4,-1 z"/>
<text font-family="Calibri" font-size="50" fill="#000000"><tspan x="4106,4131,4156,4181,4206" y="3451">2013 </tspan><tspan x="4218,4249,4275,4310,4336,4347,4374,4398,4424" y="3451">Downloads</tspan></text>
<path fill="#C00000" stroke="none" d="M 3965,3520 l 22,0 5,1 1,4 -1,5 -5,1 -22,0 -4,-1 -1,-5 1,-4 4,-1 z m 44,0 l 22,0 5,1 1,4 -1,5 -5,1 -22,0 -4,-1 -1,-5 1,-4 4,-1 z m 44,0 l 22,0 5,1 1,4 -1,5 -5,1 -22,0 -4,-1 -1,-5 1,-4 4,-1 z"/>
<text font-family="Calibri" font-size="50" fill="#000000"><tspan x="4106,4131,4156,4181,4206" y="3541">2014 </tspan><tspan x="4218,4249,4275,4310,4336,4347,4374,4398,4424" y="3541">Downloads</tspan></text>
<path fill="#E46C0A" stroke="none" d="M 3965,3610 l 22,0 5,1 1,4 -1,5 -5,1 -22,0 -4,-1 -1,-5 1,-4 4,-1 z m 44,0 l 22,0 5,1 1,4 -1,5 -5,1 -22,0 -4,-1 -1,-5 1,-4 4,-1 z m 44,0 l 22,0 5,1 1,4 -1,5 -5,1 -22,0 -4,-1 -1,-5 1,-4 4,-1 z"/>
<text font-family="Calibri" font-size="50" fill="#000000"><tspan x="4106,4131,4156,4181,4206" y="3631">2015 </tspan><tspan x="4218,4249,4275,4310,4336,4347,4374,4398,4424" y="3631">Downloads</tspan></text>
<path fill="#A597B9" stroke="none" d="M 3965,3700 l 22,0 5,1 1,4 -1,5 -5,1 -22,0 -4,-1 -1,-5 1,-4 4,-1 z m 44,0 l 22,0 5,1 1,4 -1,5 -5,1 -22,0 -4,-1 -1,-5 1,-4 4,-1 z m 44,0 l 22,0 5,1 1,4 -1,5 -5,1 -22,0 -4,-1 -1,-5 1,-4 4,-1 z"/>
<text font-family="Calibri" font-size="50" fill="#000000"><tspan x="4106,4131,4156,4181,4206" y="3721">2016 </tspan><tspan x="4218,4249,4275,4310,4336,4347,4374,4398,4424" y="3721">Downloads</tspan></text>
<path fill="#868686" stroke="none" d="M 4493,1924 l 0,1 1,0 0,2 -4086,0 0,2485 -4,0 0,-2487 2,0 0,-1 4087,0 z"/>
<path fill="#868686" stroke="none" d="M 4494,1927 l 0,2488 -4090,0 0,-3 4087,0 0,-2485 3,0 z"/>
</g>
</svg>
