<?xml version="1.0" standalone="no"?>
<svg xml:space="preserve" width="100%" height="100%" viewBox="0 0 4897 6337" preserveAspectRatio="xMidYMid"
  fill-rule="nonzero" stroke-linecap="round" stroke-linejoin="round"
  xmlns="http://www.w3.org/2000/svg"
  xmlns:xlink="http://www.w3.org/1999/xlink"
  xmlns:svgmaker="http://www.svgmaker.com/svgns">
<svgmaker:init width="215.9mm" height="279.4mm" viewBox="0 0 4897 6337" view="fit"
  crop="none" cropWidth="180.3mm" cropHeight="90.4mm" cropBox="404 2144 4090 2050"/>
<title>Untitled</title>
<desc>
  Generated by SVGmaker V3 Version 3.61.E702.64
  DEC-06-2016, 14:35
</desc>
<defs><clipPath id="page_clip"><rect x="0" y="0" width="4897" height="6337"/></clipPath></defs>
<g id="Page_1" clip-path="url(#page_clip)" svgmaker:mediaBox="0 0 4897 6337">
<rect x="406" y="2146" width="4086" height="2047" fill="#FFFFFF" stroke="none"/>
<path fill="#4572A7" stroke="none" d="M 2449,3321 l 480,499 25,-25 24,-27 22,-27 20,-28 19,-29 17,-29 16,-30 14,-31 12,-31 11,-32 9,-32 8,-33 6,-32 5,-33 3,-34 1,-33 0,-33 -2,-33 -3,-33 -5,-33 -7,-33 -8,-32 -9,-33 -12,-31 -13,-31 -14,-31 -16,-30 -18,-30 -19,-29 -21,-28 -23,-27 -24,-26 -25,-25 -26,-23 -27,-22 -28,-20 -29,-19 -30,-18 -31,-16 -31,-14 -32,-13 -33,-11 -33,-9 -34,-8 -34,-6 -35,-4 -35,-3 -35,-1 0,692 z"/>
<path fill="#AA4643" stroke="none" d="M 2449,3321 l -199,664 45,12 45,9 46,5 46,3 45,0 45,-4 45,-6 45,-9 43,-12 43,-15 42,-18 41,-21 39,-23 38,-26 36,-29 35,-31 -480,-499 z"/>
<path fill="#89A54E" stroke="none" d="M 2449,3321 l -530,447 34,37 36,35 39,32 41,29 43,25 44,23 46,20 48,16 199,-664 z"/>
<path fill="#71588F" stroke="none" d="M 2449,3321 l -636,277 22,45 25,44 28,42 31,39 530,-447 z"/>
<path fill="#4198AF" stroke="none" d="M 2449,3321 l -676,151 8,32 9,32 11,31 12,31 636,-277 z"/>
<path fill="#DB843D" stroke="none" d="M 2449,3321 l -692,40 2,28 3,28 5,28 6,27 676,-151 z"/>
<path fill="#93A9CF" stroke="none" d="M 2449,3321 l -693,-25 0,32 1,33 692,-40 z"/>
<path fill="#D19392" stroke="none" d="M 2449,3321 l -689,-78 -2,27 -2,26 693,25 z"/>
<path fill="#B9CD96" stroke="none" d="M 2449,3321 l -683,-120 -6,42 689,78 z"/>
<path fill="#A99BBD" stroke="none" d="M 2449,3321 l -676,-152 -7,32 683,120 z"/>
<path fill="#91C3D5" stroke="none" d="M 2449,3321 l 0,-692 -30,1 -30,2 -30,3 -29,4 -29,6 -29,7 -28,8 -27,9 -27,10 -27,12 -26,12 -26,14 -24,14 -25,16 -46,34 -43,37 -40,41 -37,45 -33,47 -15,25 -14,26 -13,26 -12,27 -11,28 -9,28 -9,29 -7,29 676,152 z"/>
<path fill="#000000" stroke="none" d="M 1792,3537 l -221,309 -2,1 -28,0 0,-4 28,0 -2,1 221,-309 4,2 z m -28,-119 l -171,193 -1,1 -28,0 0,-4 28,0 -2,1 171,-193 3,2 z m 98,270 l -100,261 -2,1 -28,0 0,-4 28,0 -2,1 100,-261 4,2 z m 209,214 l -142,174 -2,1 -29,0 0,-4 29,0 -2,1 142,-174 4,2 z m 1018,-841 l 132,-159 2,-1 28,0 0,4 -28,0 2,-1 -132,159 -4,-2 z m -1331,268 l -121,146 -2,1 -29,0 0,-4 29,0 -2,1 121,-146 4,2 z m 10,-143 l -86,-160 2,1 -29,0 0,-4 29,0 2,1 86,160 -4,2 z m -5,38 l -334,-39 -29,0 0,-4 29,0 334,39 0,4 z m -5,47 l -272,32 -29,0 0,-4 29,0 272,-32 0,4 z m 257,-489 l -74,-70 1,1 -29,0 0,-4 29,0 1,1 74,70 -2,2 z m 597,1211 l 328,12 29,0 0,4 -29,0 -328,-12 0,-4 z"/>
<text font-family="Calibri" font-size="63" fill="#000000"><tspan x="3261,3292,3325,3358,3388,3402,3434,3448,3473" y="2903">google / </tspan><tspan x="3487,3520,3542,3573,3603,3636,3650" y="2903">organic</tspan><tspan x="3414,3447,3479" y="2981">38%</tspan><tspan x="2979,2998,3032,3046,3068,3100,3127,3148,3167,3181,3206" y="4008">(direct) / </tspan><tspan x="3220,3239,3272,3305,3339,3370" y="4008">(none)</tspan><tspan x="3129,3161,3194" y="4085">17%</tspan><tspan x="1577,1607,1640,1674,1704,1718,1750,1764,1788" y="4089">google / </tspan><tspan x="1803,1829,1863" y="4089">cpc</tspan><tspan x="1695,1727" y="4167">9%</tspan><tspan x="1424,1454,1487,1521,1551,1565,1597,1613,1639,1673" y="3949">google.com</tspan><tspan x="1535,1567" y="4026">5%</tspan><tspan x="1388,1421,1451,1465,1499" y="3845">baidu</tspan><tspan x="1421,1454" y="3923">3%</tspan><tspan x="1197,1224,1253,1274,1307,1332,1359,1389,1422,1454,1470,1503,1525" y="3611">cytoscape.org</tspan><tspan x="1337,1370" y="3688">3%</tspan><tspan x="1102,1132,1166,1199,1223,1239,1266,1295,1316,1349,1374,1401,1431,1464,1496,1512,1545,1567" y="3475">apps.cytoscape.org</tspan><tspan x="1311,1344" y="3552">1%</tspan><tspan x="1338,1371,1385,1419" y="3302">bing</tspan><tspan x="1354,1387" y="3379">1%</tspan><tspan x="1080,1110,1143,1176,1206,1220,1252,1268,1295,1328,1344,1358" y="3183">google.co.in</tspan><tspan x="1197,1229" y="3261">1%</tspan><tspan x="1137,1171,1201,1222,1252,1281,1295,1320,1354,1384,1398,1412,1437,1468,1489,1503,1536,1570,1585,1612" y="3025">datavizualization.ch</tspan><tspan x="1353,1385" y="3102">1%</tspan><tspan x="1778,1812,1833,1866,1898" y="2634">other</tspan><tspan x="1794,1827,1859" y="2712">21%</tspan></text>
<text font-family="Calibri" font-size="102" fill="#000000" font-weight="700"><tspan x="1670,1724,1773,1807,1861,1902,1944,1994,2048,2099,2126,2180,2215,2263" y="2253">Cytoscape.org </tspan><tspan x="2286,2341,2391,2422,2472,2509,2543,2593,2617" y="2253">Referral </tspan><tspan x="2640,2688,2743,2798,2832,2875,2926,2966" y="2253">Sources </tspan><tspan x="2988,3020,3072,3123,3174,3201,3252,3303,3355" y="2253">(789,087)</tspan><tspan x="1859,1891,1942" y="2376">(1/</tspan><tspan x="1986,2037" y="2376">1/</tspan><tspan x="2081,2132,2184,2235,2286" y="2376">2015 </tspan><tspan x="2309,2343,2398,2433,2487,2542,2590,2645" y="2376">through </tspan><tspan x="2667,2719,2770" y="2376">10/</tspan><tspan x="2814,2865,2916" y="2376">19/</tspan><tspan x="2960,3011,3063,3114,3166" y="2376">1016)</tspan></text>
<path fill="#868686" stroke="none" d="M 4492,2144 l 0,1 2,0 0,3 -4086,0 0,2042 -4,0 0,-2044 1,0 0,-1 1,0 0,-1 4086,0 z"/>
<path fill="#868686" stroke="none" d="M 4494,2148 l 0,2046 -4090,0 0,-4 4086,0 0,-2042 4,0 z"/>
</g>
</svg>
