<?xml version="1.0" encoding="utf-8" standalone="no"?>
<!DOCTYPE svg PUBLIC "-//W3C//DTD SVG 1.1//EN"
  "http://www.w3.org/Graphics/SVG/1.1/DTD/svg11.dtd">
<!-- Created with matplotlib (https://matplotlib.org/) -->
<svg height="345.6pt" version="1.1" viewBox="0 0 460.8 345.6" width="460.8pt" xmlns="http://www.w3.org/2000/svg" xmlns:xlink="http://www.w3.org/1999/xlink">
 <defs>
  <style type="text/css">
*{stroke-linecap:butt;stroke-linejoin:round;}
  </style>
 </defs>
 <g id="figure_1">
  <g id="patch_1">
   <path d="M 0 345.6 
L 460.8 345.6 
L 460.8 0 
L 0 0 
z
" style="fill:#ffffff;"/>
  </g>
  <g id="axes_1">
   <g id="patch_2">
    <path d="M 56.928125 304.44375 
L 450 304.44375 
L 450 25.918125 
L 56.928125 25.918125 
z
" style="fill:#ffffff;"/>
   </g>
   <g id="matplotlib.axis_1">
    <g id="xtick_1">
     <g id="line2d_1">
      <defs>
       <path d="M 0 0 
L 0 3.5 
" id="m5556d97bc0" style="stroke:#000000;stroke-width:0.8;"/>
      </defs>
      <g>
       <use style="stroke:#000000;stroke-width:0.8;" x="83.768747" xlink:href="#m5556d97bc0" y="304.44375"/>
      </g>
     </g>
     <g id="text_1">
      <!-- 2013 -->
      <defs>
       <path d="M 19.1875 8.296875 
L 53.609375 8.296875 
L 53.609375 0 
L 7.328125 0 
L 7.328125 8.296875 
Q 12.9375 14.109375 22.625 23.890625 
Q 32.328125 33.6875 34.8125 36.53125 
Q 39.546875 41.84375 41.421875 45.53125 
Q 43.3125 49.21875 43.3125 52.78125 
Q 43.3125 58.59375 39.234375 62.25 
Q 35.15625 65.921875 28.609375 65.921875 
Q 23.96875 65.921875 18.8125 64.3125 
Q 13.671875 62.703125 7.8125 59.421875 
L 7.8125 69.390625 
Q 13.765625 71.78125 18.9375 73 
Q 24.125 74.21875 28.421875 74.21875 
Q 39.75 74.21875 46.484375 68.546875 
Q 53.21875 62.890625 53.21875 53.421875 
Q 53.21875 48.921875 51.53125 44.890625 
Q 49.859375 40.875 45.40625 35.40625 
Q 44.1875 33.984375 37.640625 27.21875 
Q 31.109375 20.453125 19.1875 8.296875 
z
" id="DejaVuSans-50"/>
       <path d="M 31.78125 66.40625 
Q 24.171875 66.40625 20.328125 58.90625 
Q 16.5 51.421875 16.5 36.375 
Q 16.5 21.390625 20.328125 13.890625 
Q 24.171875 6.390625 31.78125 6.390625 
Q 39.453125 6.390625 43.28125 13.890625 
Q 47.125 21.390625 47.125 36.375 
Q 47.125 51.421875 43.28125 58.90625 
Q 39.453125 66.40625 31.78125 66.40625 
z
M 31.78125 74.21875 
Q 44.046875 74.21875 50.515625 64.515625 
Q 56.984375 54.828125 56.984375 36.375 
Q 56.984375 17.96875 50.515625 8.265625 
Q 44.046875 -1.421875 31.78125 -1.421875 
Q 19.53125 -1.421875 13.0625 8.265625 
Q 6.59375 17.96875 6.59375 36.375 
Q 6.59375 54.828125 13.0625 64.515625 
Q 19.53125 74.21875 31.78125 74.21875 
z
" id="DejaVuSans-48"/>
       <path d="M 12.40625 8.296875 
L 28.515625 8.296875 
L 28.515625 63.921875 
L 10.984375 60.40625 
L 10.984375 69.390625 
L 28.421875 72.90625 
L 38.28125 72.90625 
L 38.28125 8.296875 
L 54.390625 8.296875 
L 54.390625 0 
L 12.40625 0 
z
" id="DejaVuSans-49"/>
       <path d="M 40.578125 39.3125 
Q 47.65625 37.796875 51.625 33 
Q 55.609375 28.21875 55.609375 21.1875 
Q 55.609375 10.40625 48.1875 4.484375 
Q 40.765625 -1.421875 27.09375 -1.421875 
Q 22.515625 -1.421875 17.65625 -0.515625 
Q 12.796875 0.390625 7.625 2.203125 
L 7.625 11.71875 
Q 11.71875 9.328125 16.59375 8.109375 
Q 21.484375 6.890625 26.8125 6.890625 
Q 36.078125 6.890625 40.9375 10.546875 
Q 45.796875 14.203125 45.796875 21.1875 
Q 45.796875 27.640625 41.28125 31.265625 
Q 36.765625 34.90625 28.71875 34.90625 
L 20.21875 34.90625 
L 20.21875 43.015625 
L 29.109375 43.015625 
Q 36.375 43.015625 40.234375 45.921875 
Q 44.09375 48.828125 44.09375 54.296875 
Q 44.09375 59.90625 40.109375 62.90625 
Q 36.140625 65.921875 28.71875 65.921875 
Q 24.65625 65.921875 20.015625 65.03125 
Q 15.375 64.15625 9.8125 62.3125 
L 9.8125 71.09375 
Q 15.4375 72.65625 20.34375 73.4375 
Q 25.25 74.21875 29.59375 74.21875 
Q 40.828125 74.21875 47.359375 69.109375 
Q 53.90625 64.015625 53.90625 55.328125 
Q 53.90625 49.265625 50.4375 45.09375 
Q 46.96875 40.921875 40.578125 39.3125 
z
" id="DejaVuSans-51"/>
      </defs>
      <g transform="translate(71.043747 319.042187)scale(0.1 -0.1)">
       <use xlink:href="#DejaVuSans-50"/>
       <use x="63.623047" xlink:href="#DejaVuSans-48"/>
       <use x="127.246094" xlink:href="#DejaVuSans-49"/>
       <use x="190.869141" xlink:href="#DejaVuSans-51"/>
      </g>
     </g>
    </g>
    <g id="xtick_2">
     <g id="line2d_2">
      <g>
       <use style="stroke:#000000;stroke-width:0.8;" x="125.761147" xlink:href="#m5556d97bc0" y="304.44375"/>
      </g>
     </g>
     <g id="text_2">
      <!-- 2014 -->
      <defs>
       <path d="M 37.796875 64.3125 
L 12.890625 25.390625 
L 37.796875 25.390625 
z
M 35.203125 72.90625 
L 47.609375 72.90625 
L 47.609375 25.390625 
L 58.015625 25.390625 
L 58.015625 17.1875 
L 47.609375 17.1875 
L 47.609375 0 
L 37.796875 0 
L 37.796875 17.1875 
L 4.890625 17.1875 
L 4.890625 26.703125 
z
" id="DejaVuSans-52"/>
      </defs>
      <g transform="translate(113.036147 319.042187)scale(0.1 -0.1)">
       <use xlink:href="#DejaVuSans-50"/>
       <use x="63.623047" xlink:href="#DejaVuSans-48"/>
       <use x="127.246094" xlink:href="#DejaVuSans-49"/>
       <use x="190.869141" xlink:href="#DejaVuSans-52"/>
      </g>
     </g>
    </g>
    <g id="xtick_3">
     <g id="line2d_3">
      <g>
       <use style="stroke:#000000;stroke-width:0.8;" x="167.753547" xlink:href="#m5556d97bc0" y="304.44375"/>
      </g>
     </g>
     <g id="text_3">
      <!-- 2015 -->
      <defs>
       <path d="M 10.796875 72.90625 
L 49.515625 72.90625 
L 49.515625 64.59375 
L 19.828125 64.59375 
L 19.828125 46.734375 
Q 21.96875 47.46875 24.109375 47.828125 
Q 26.265625 48.1875 28.421875 48.1875 
Q 40.625 48.1875 47.75 41.5 
Q 54.890625 34.8125 54.890625 23.390625 
Q 54.890625 11.625 47.5625 5.09375 
Q 40.234375 -1.421875 26.90625 -1.421875 
Q 22.3125 -1.421875 17.546875 -0.640625 
Q 12.796875 0.140625 7.71875 1.703125 
L 7.71875 11.625 
Q 12.109375 9.234375 16.796875 8.0625 
Q 21.484375 6.890625 26.703125 6.890625 
Q 35.15625 6.890625 40.078125 11.328125 
Q 45.015625 15.765625 45.015625 23.390625 
Q 45.015625 31 40.078125 35.4375 
Q 35.15625 39.890625 26.703125 39.890625 
Q 22.75 39.890625 18.8125 39.015625 
Q 14.890625 38.140625 10.796875 36.28125 
z
" id="DejaVuSans-53"/>
      </defs>
      <g transform="translate(155.028547 319.042187)scale(0.1 -0.1)">
       <use xlink:href="#DejaVuSans-50"/>
       <use x="63.623047" xlink:href="#DejaVuSans-48"/>
       <use x="127.246094" xlink:href="#DejaVuSans-49"/>
       <use x="190.869141" xlink:href="#DejaVuSans-53"/>
      </g>
     </g>
    </g>
    <g id="xtick_4">
     <g id="line2d_4">
      <g>
       <use style="stroke:#000000;stroke-width:0.8;" x="209.6309" xlink:href="#m5556d97bc0" y="304.44375"/>
      </g>
     </g>
     <g id="text_4">
      <!-- 2016 -->
      <defs>
       <path d="M 33.015625 40.375 
Q 26.375 40.375 22.484375 35.828125 
Q 18.609375 31.296875 18.609375 23.390625 
Q 18.609375 15.53125 22.484375 10.953125 
Q 26.375 6.390625 33.015625 6.390625 
Q 39.65625 6.390625 43.53125 10.953125 
Q 47.40625 15.53125 47.40625 23.390625 
Q 47.40625 31.296875 43.53125 35.828125 
Q 39.65625 40.375 33.015625 40.375 
z
M 52.59375 71.296875 
L 52.59375 62.3125 
Q 48.875 64.0625 45.09375 64.984375 
Q 41.3125 65.921875 37.59375 65.921875 
Q 27.828125 65.921875 22.671875 59.328125 
Q 17.53125 52.734375 16.796875 39.40625 
Q 19.671875 43.65625 24.015625 45.921875 
Q 28.375 48.1875 33.59375 48.1875 
Q 44.578125 48.1875 50.953125 41.515625 
Q 57.328125 34.859375 57.328125 23.390625 
Q 57.328125 12.15625 50.6875 5.359375 
Q 44.046875 -1.421875 33.015625 -1.421875 
Q 20.359375 -1.421875 13.671875 8.265625 
Q 6.984375 17.96875 6.984375 36.375 
Q 6.984375 53.65625 15.1875 63.9375 
Q 23.390625 74.21875 37.203125 74.21875 
Q 40.921875 74.21875 44.703125 73.484375 
Q 48.484375 72.75 52.59375 71.296875 
z
" id="DejaVuSans-54"/>
      </defs>
      <g transform="translate(196.9059 319.042187)scale(0.1 -0.1)">
       <use xlink:href="#DejaVuSans-50"/>
       <use x="63.623047" xlink:href="#DejaVuSans-48"/>
       <use x="127.246094" xlink:href="#DejaVuSans-49"/>
       <use x="190.869141" xlink:href="#DejaVuSans-54"/>
      </g>
     </g>
    </g>
    <g id="xtick_5">
     <g id="line2d_5">
      <g>
       <use style="stroke:#000000;stroke-width:0.8;" x="251.738347" xlink:href="#m5556d97bc0" y="304.44375"/>
      </g>
     </g>
     <g id="text_5">
      <!-- 2017 -->
      <defs>
       <path d="M 8.203125 72.90625 
L 55.078125 72.90625 
L 55.078125 68.703125 
L 28.609375 0 
L 18.3125 0 
L 43.21875 64.59375 
L 8.203125 64.59375 
z
" id="DejaVuSans-55"/>
      </defs>
      <g transform="translate(239.013347 319.042187)scale(0.1 -0.1)">
       <use xlink:href="#DejaVuSans-50"/>
       <use x="63.623047" xlink:href="#DejaVuSans-48"/>
       <use x="127.246094" xlink:href="#DejaVuSans-49"/>
       <use x="190.869141" xlink:href="#DejaVuSans-55"/>
      </g>
     </g>
    </g>
    <g id="xtick_6">
     <g id="line2d_6">
      <g>
       <use style="stroke:#000000;stroke-width:0.8;" x="293.730748" xlink:href="#m5556d97bc0" y="304.44375"/>
      </g>
     </g>
     <g id="text_6">
      <!-- 2018 -->
      <defs>
       <path d="M 31.78125 34.625 
Q 24.75 34.625 20.71875 30.859375 
Q 16.703125 27.09375 16.703125 20.515625 
Q 16.703125 13.921875 20.71875 10.15625 
Q 24.75 6.390625 31.78125 6.390625 
Q 38.8125 6.390625 42.859375 10.171875 
Q 46.921875 13.96875 46.921875 20.515625 
Q 46.921875 27.09375 42.890625 30.859375 
Q 38.875 34.625 31.78125 34.625 
z
M 21.921875 38.8125 
Q 15.578125 40.375 12.03125 44.71875 
Q 8.5 49.078125 8.5 55.328125 
Q 8.5 64.0625 14.71875 69.140625 
Q 20.953125 74.21875 31.78125 74.21875 
Q 42.671875 74.21875 48.875 69.140625 
Q 55.078125 64.0625 55.078125 55.328125 
Q 55.078125 49.078125 51.53125 44.71875 
Q 48 40.375 41.703125 38.8125 
Q 48.828125 37.15625 52.796875 32.3125 
Q 56.78125 27.484375 56.78125 20.515625 
Q 56.78125 9.90625 50.3125 4.234375 
Q 43.84375 -1.421875 31.78125 -1.421875 
Q 19.734375 -1.421875 13.25 4.234375 
Q 6.78125 9.90625 6.78125 20.515625 
Q 6.78125 27.484375 10.78125 32.3125 
Q 14.796875 37.15625 21.921875 38.8125 
z
M 18.3125 54.390625 
Q 18.3125 48.734375 21.84375 45.5625 
Q 25.390625 42.390625 31.78125 42.390625 
Q 38.140625 42.390625 41.71875 45.5625 
Q 45.3125 48.734375 45.3125 54.390625 
Q 45.3125 60.0625 41.71875 63.234375 
Q 38.140625 66.40625 31.78125 66.40625 
Q 25.390625 66.40625 21.84375 63.234375 
Q 18.3125 60.0625 18.3125 54.390625 
z
" id="DejaVuSans-56"/>
      </defs>
      <g transform="translate(281.005748 319.042187)scale(0.1 -0.1)">
       <use xlink:href="#DejaVuSans-50"/>
       <use x="63.623047" xlink:href="#DejaVuSans-48"/>
       <use x="127.246094" xlink:href="#DejaVuSans-49"/>
       <use x="190.869141" xlink:href="#DejaVuSans-56"/>
      </g>
     </g>
    </g>
    <g id="xtick_7">
     <g id="line2d_7">
      <g>
       <use style="stroke:#000000;stroke-width:0.8;" x="335.378005" xlink:href="#m5556d97bc0" y="304.44375"/>
      </g>
     </g>
     <g id="text_7">
      <!-- 2019 -->
      <defs>
       <path d="M 10.984375 1.515625 
L 10.984375 10.5 
Q 14.703125 8.734375 18.5 7.8125 
Q 22.3125 6.890625 25.984375 6.890625 
Q 35.75 6.890625 40.890625 13.453125 
Q 46.046875 20.015625 46.78125 33.40625 
Q 43.953125 29.203125 39.59375 26.953125 
Q 35.25 24.703125 29.984375 24.703125 
Q 19.046875 24.703125 12.671875 31.3125 
Q 6.296875 37.9375 6.296875 49.421875 
Q 6.296875 60.640625 12.9375 67.421875 
Q 19.578125 74.21875 30.609375 74.21875 
Q 43.265625 74.21875 49.921875 64.515625 
Q 56.59375 54.828125 56.59375 36.375 
Q 56.59375 19.140625 48.40625 8.859375 
Q 40.234375 -1.421875 26.421875 -1.421875 
Q 22.703125 -1.421875 18.890625 -0.6875 
Q 15.09375 0.046875 10.984375 1.515625 
z
M 30.609375 32.421875 
Q 37.25 32.421875 41.125 36.953125 
Q 45.015625 41.5 45.015625 49.421875 
Q 45.015625 57.28125 41.125 61.84375 
Q 37.25 66.40625 30.609375 66.40625 
Q 23.96875 66.40625 20.09375 61.84375 
Q 16.21875 57.28125 16.21875 49.421875 
Q 16.21875 41.5 20.09375 36.953125 
Q 23.96875 32.421875 30.609375 32.421875 
z
" id="DejaVuSans-57"/>
      </defs>
      <g transform="translate(322.653005 319.042187)scale(0.1 -0.1)">
       <use xlink:href="#DejaVuSans-50"/>
       <use x="63.623047" xlink:href="#DejaVuSans-48"/>
       <use x="127.246094" xlink:href="#DejaVuSans-49"/>
       <use x="190.869141" xlink:href="#DejaVuSans-57"/>
      </g>
     </g>
    </g>
    <g id="xtick_8">
     <g id="line2d_8">
      <g>
       <use style="stroke:#000000;stroke-width:0.8;" x="377.370405" xlink:href="#m5556d97bc0" y="304.44375"/>
      </g>
     </g>
     <g id="text_8">
      <!-- 2020 -->
      <g transform="translate(364.645405 319.042187)scale(0.1 -0.1)">
       <use xlink:href="#DejaVuSans-50"/>
       <use x="63.623047" xlink:href="#DejaVuSans-48"/>
       <use x="127.246094" xlink:href="#DejaVuSans-50"/>
       <use x="190.869141" xlink:href="#DejaVuSans-48"/>
      </g>
     </g>
    </g>
    <g id="xtick_9">
     <g id="line2d_9">
      <g>
       <use style="stroke:#000000;stroke-width:0.8;" x="419.477853" xlink:href="#m5556d97bc0" y="304.44375"/>
      </g>
     </g>
     <g id="text_9">
      <!-- 2021 -->
      <g transform="translate(406.752853 319.042187)scale(0.1 -0.1)">
       <use xlink:href="#DejaVuSans-50"/>
       <use x="63.623047" xlink:href="#DejaVuSans-48"/>
       <use x="127.246094" xlink:href="#DejaVuSans-50"/>
       <use x="190.869141" xlink:href="#DejaVuSans-49"/>
      </g>
     </g>
    </g>
    <g id="text_10">
     <!-- Year -->
     <defs>
      <path d="M -0.984375 72.90625 
L 19.578125 72.90625 
L 36.1875 46.921875 
L 52.78125 72.90625 
L 73.390625 72.90625 
L 45.609375 30.71875 
L 45.609375 0 
L 26.8125 0 
L 26.8125 30.71875 
z
" id="DejaVuSans-Bold-89"/>
      <path d="M 62.984375 27.484375 
L 62.984375 22.515625 
L 22.125 22.515625 
Q 22.75 16.359375 26.5625 13.28125 
Q 30.375 10.203125 37.203125 10.203125 
Q 42.71875 10.203125 48.5 11.84375 
Q 54.296875 13.484375 60.40625 16.796875 
L 60.40625 3.328125 
Q 54.203125 0.984375 48 -0.21875 
Q 41.796875 -1.421875 35.59375 -1.421875 
Q 20.75 -1.421875 12.515625 6.125 
Q 4.296875 13.671875 4.296875 27.296875 
Q 4.296875 40.671875 12.375 48.328125 
Q 20.453125 56 34.625 56 
Q 47.515625 56 55.25 48.234375 
Q 62.984375 40.484375 62.984375 27.484375 
z
M 45.015625 33.296875 
Q 45.015625 38.28125 42.109375 41.328125 
Q 39.203125 44.390625 34.515625 44.390625 
Q 29.4375 44.390625 26.265625 41.53125 
Q 23.09375 38.671875 22.3125 33.296875 
z
" id="DejaVuSans-Bold-101"/>
      <path d="M 32.90625 24.609375 
Q 27.4375 24.609375 24.671875 22.75 
Q 21.921875 20.90625 21.921875 17.28125 
Q 21.921875 13.96875 24.140625 12.078125 
Q 26.375 10.203125 30.328125 10.203125 
Q 35.25 10.203125 38.625 13.734375 
Q 42 17.28125 42 22.609375 
L 42 24.609375 
z
M 59.625 31.203125 
L 59.625 0 
L 42 0 
L 42 8.109375 
Q 38.484375 3.125 34.078125 0.84375 
Q 29.6875 -1.421875 23.390625 -1.421875 
Q 14.890625 -1.421875 9.59375 3.53125 
Q 4.296875 8.5 4.296875 16.40625 
Q 4.296875 26.03125 10.90625 30.515625 
Q 17.53125 35.015625 31.6875 35.015625 
L 42 35.015625 
L 42 36.375 
Q 42 40.53125 38.71875 42.453125 
Q 35.453125 44.390625 28.515625 44.390625 
Q 22.90625 44.390625 18.0625 43.265625 
Q 13.234375 42.140625 9.078125 39.890625 
L 9.078125 53.21875 
Q 14.703125 54.59375 20.359375 55.296875 
Q 26.03125 56 31.6875 56 
Q 46.484375 56 53.046875 50.171875 
Q 59.625 44.34375 59.625 31.203125 
z
" id="DejaVuSans-Bold-97"/>
      <path d="M 49.03125 39.796875 
Q 46.734375 40.875 44.453125 41.375 
Q 42.1875 41.890625 39.890625 41.890625 
Q 33.15625 41.890625 29.515625 37.5625 
Q 25.875 33.25 25.875 25.203125 
L 25.875 0 
L 8.40625 0 
L 8.40625 54.6875 
L 25.875 54.6875 
L 25.875 45.703125 
Q 29.25 51.078125 33.609375 53.53125 
Q 37.984375 56 44.09375 56 
Q 44.96875 56 45.984375 55.921875 
Q 47.015625 55.859375 48.96875 55.609375 
z
" id="DejaVuSans-Bold-114"/>
     </defs>
     <g transform="translate(240.619531 332.720312)scale(0.1 -0.1)">
      <use xlink:href="#DejaVuSans-Bold-89"/>
      <use x="72.271484" xlink:href="#DejaVuSans-Bold-101"/>
      <use x="140.09375" xlink:href="#DejaVuSans-Bold-97"/>
      <use x="207.574219" xlink:href="#DejaVuSans-Bold-114"/>
     </g>
    </g>
   </g>
   <g id="matplotlib.axis_2">
    <g id="ytick_1">
     <g id="line2d_10">
      <defs>
       <path d="M 0 0 
L -3.5 0 
" id="m9f37dc0c47" style="stroke:#000000;stroke-width:0.8;"/>
      </defs>
      <g>
       <use style="stroke:#000000;stroke-width:0.8;" x="56.928125" xlink:href="#m9f37dc0c47" y="291.817902"/>
      </g>
     </g>
     <g id="text_11">
      <!-- 0 -->
      <g transform="translate(43.565625 295.617121)scale(0.1 -0.1)">
       <use xlink:href="#DejaVuSans-48"/>
      </g>
     </g>
    </g>
    <g id="ytick_2">
     <g id="line2d_11">
      <g>
       <use style="stroke:#000000;stroke-width:0.8;" x="56.928125" xlink:href="#m9f37dc0c47" y="257.410358"/>
      </g>
     </g>
     <g id="text_12">
      <!-- 1000 -->
      <g transform="translate(24.478125 261.209577)scale(0.1 -0.1)">
       <use xlink:href="#DejaVuSans-49"/>
       <use x="63.623047" xlink:href="#DejaVuSans-48"/>
       <use x="127.246094" xlink:href="#DejaVuSans-48"/>
       <use x="190.869141" xlink:href="#DejaVuSans-48"/>
      </g>
     </g>
    </g>
    <g id="ytick_3">
     <g id="line2d_12">
      <g>
       <use style="stroke:#000000;stroke-width:0.8;" x="56.928125" xlink:href="#m9f37dc0c47" y="223.002815"/>
      </g>
     </g>
     <g id="text_13">
      <!-- 2000 -->
      <g transform="translate(24.478125 226.802033)scale(0.1 -0.1)">
       <use xlink:href="#DejaVuSans-50"/>
       <use x="63.623047" xlink:href="#DejaVuSans-48"/>
       <use x="127.246094" xlink:href="#DejaVuSans-48"/>
       <use x="190.869141" xlink:href="#DejaVuSans-48"/>
      </g>
     </g>
    </g>
    <g id="ytick_4">
     <g id="line2d_13">
      <g>
       <use style="stroke:#000000;stroke-width:0.8;" x="56.928125" xlink:href="#m9f37dc0c47" y="188.595271"/>
      </g>
     </g>
     <g id="text_14">
      <!-- 3000 -->
      <g transform="translate(24.478125 192.39449)scale(0.1 -0.1)">
       <use xlink:href="#DejaVuSans-51"/>
       <use x="63.623047" xlink:href="#DejaVuSans-48"/>
       <use x="127.246094" xlink:href="#DejaVuSans-48"/>
       <use x="190.869141" xlink:href="#DejaVuSans-48"/>
      </g>
     </g>
    </g>
    <g id="ytick_5">
     <g id="line2d_14">
      <g>
       <use style="stroke:#000000;stroke-width:0.8;" x="56.928125" xlink:href="#m9f37dc0c47" y="154.187727"/>
      </g>
     </g>
     <g id="text_15">
      <!-- 4000 -->
      <g transform="translate(24.478125 157.986946)scale(0.1 -0.1)">
       <use xlink:href="#DejaVuSans-52"/>
       <use x="63.623047" xlink:href="#DejaVuSans-48"/>
       <use x="127.246094" xlink:href="#DejaVuSans-48"/>
       <use x="190.869141" xlink:href="#DejaVuSans-48"/>
      </g>
     </g>
    </g>
    <g id="ytick_6">
     <g id="line2d_15">
      <g>
       <use style="stroke:#000000;stroke-width:0.8;" x="56.928125" xlink:href="#m9f37dc0c47" y="119.780184"/>
      </g>
     </g>
     <g id="text_16">
      <!-- 5000 -->
      <g transform="translate(24.478125 123.579402)scale(0.1 -0.1)">
       <use xlink:href="#DejaVuSans-53"/>
       <use x="63.623047" xlink:href="#DejaVuSans-48"/>
       <use x="127.246094" xlink:href="#DejaVuSans-48"/>
       <use x="190.869141" xlink:href="#DejaVuSans-48"/>
      </g>
     </g>
    </g>
    <g id="ytick_7">
     <g id="line2d_16">
      <g>
       <use style="stroke:#000000;stroke-width:0.8;" x="56.928125" xlink:href="#m9f37dc0c47" y="85.37264"/>
      </g>
     </g>
     <g id="text_17">
      <!-- 6000 -->
      <g transform="translate(24.478125 89.171859)scale(0.1 -0.1)">
       <use xlink:href="#DejaVuSans-54"/>
       <use x="63.623047" xlink:href="#DejaVuSans-48"/>
       <use x="127.246094" xlink:href="#DejaVuSans-48"/>
       <use x="190.869141" xlink:href="#DejaVuSans-48"/>
      </g>
     </g>
    </g>
    <g id="ytick_8">
     <g id="line2d_17">
      <g>
       <use style="stroke:#000000;stroke-width:0.8;" x="56.928125" xlink:href="#m9f37dc0c47" y="50.965096"/>
      </g>
     </g>
     <g id="text_18">
      <!-- 7000 -->
      <g transform="translate(24.478125 54.764315)scale(0.1 -0.1)">
       <use xlink:href="#DejaVuSans-55"/>
       <use x="63.623047" xlink:href="#DejaVuSans-48"/>
       <use x="127.246094" xlink:href="#DejaVuSans-48"/>
       <use x="190.869141" xlink:href="#DejaVuSans-48"/>
      </g>
     </g>
    </g>
    <g id="text_19">
     <!-- # Downloads -->
     <defs>
      <path d="M 44.484375 71.78125 
L 39.796875 52.984375 
L 52.6875 52.984375 
L 57.421875 71.78125 
L 68.21875 71.78125 
L 63.484375 52.984375 
L 77 52.984375 
L 77 42.578125 
L 60.890625 42.578125 
L 57.515625 29.203125 
L 71.390625 29.203125 
L 71.390625 18.703125 
L 54.984375 18.703125 
L 50.296875 0 
L 39.5 0 
L 44.1875 18.703125 
L 31.296875 18.703125 
L 26.609375 0 
L 15.71875 0 
L 20.40625 18.703125 
L 6.78125 18.703125 
L 6.78125 29.203125 
L 22.796875 29.203125 
L 26.21875 42.578125 
L 12.40625 42.578125 
L 12.40625 52.984375 
L 28.90625 52.984375 
L 33.59375 71.78125 
z
M 50 42.578125 
L 37.109375 42.578125 
L 33.6875 29.203125 
L 46.578125 29.203125 
z
" id="DejaVuSans-Bold-35"/>
      <path id="DejaVuSans-Bold-32"/>
      <path d="M 27.984375 58.6875 
L 27.984375 14.203125 
L 34.71875 14.203125 
Q 46.234375 14.203125 52.3125 19.921875 
Q 58.40625 25.640625 58.40625 36.53125 
Q 58.40625 47.359375 52.34375 53.015625 
Q 46.296875 58.6875 34.71875 58.6875 
z
M 9.1875 72.90625 
L 29 72.90625 
Q 45.609375 72.90625 53.734375 70.53125 
Q 61.859375 68.171875 67.671875 62.5 
Q 72.796875 57.5625 75.28125 51.109375 
Q 77.78125 44.671875 77.78125 36.53125 
Q 77.78125 28.265625 75.28125 21.796875 
Q 72.796875 15.328125 67.671875 10.40625 
Q 61.8125 4.734375 53.609375 2.359375 
Q 45.40625 0 29 0 
L 9.1875 0 
z
" id="DejaVuSans-Bold-68"/>
      <path d="M 34.421875 43.5 
Q 28.609375 43.5 25.5625 39.328125 
Q 22.515625 35.15625 22.515625 27.296875 
Q 22.515625 19.4375 25.5625 15.25 
Q 28.609375 11.078125 34.421875 11.078125 
Q 40.140625 11.078125 43.15625 15.25 
Q 46.1875 19.4375 46.1875 27.296875 
Q 46.1875 35.15625 43.15625 39.328125 
Q 40.140625 43.5 34.421875 43.5 
z
M 34.421875 56 
Q 48.53125 56 56.46875 48.375 
Q 64.40625 40.765625 64.40625 27.296875 
Q 64.40625 13.8125 56.46875 6.1875 
Q 48.53125 -1.421875 34.421875 -1.421875 
Q 20.265625 -1.421875 12.28125 6.1875 
Q 4.296875 13.8125 4.296875 27.296875 
Q 4.296875 40.765625 12.28125 48.375 
Q 20.265625 56 34.421875 56 
z
" id="DejaVuSans-Bold-111"/>
      <path d="M 3.515625 54.6875 
L 20.515625 54.6875 
L 29.6875 17 
L 38.921875 54.6875 
L 53.515625 54.6875 
L 62.703125 17.390625 
L 71.921875 54.6875 
L 88.921875 54.6875 
L 74.515625 0 
L 55.421875 0 
L 46.1875 37.59375 
L 37.015625 0 
L 17.921875 0 
z
" id="DejaVuSans-Bold-119"/>
      <path d="M 63.375 33.296875 
L 63.375 0 
L 45.796875 0 
L 45.796875 5.421875 
L 45.796875 25.484375 
Q 45.796875 32.5625 45.484375 35.25 
Q 45.171875 37.9375 44.390625 39.203125 
Q 43.359375 40.921875 41.59375 41.875 
Q 39.84375 42.828125 37.59375 42.828125 
Q 32.125 42.828125 29 38.59375 
Q 25.875 34.375 25.875 26.90625 
L 25.875 0 
L 8.40625 0 
L 8.40625 54.6875 
L 25.875 54.6875 
L 25.875 46.6875 
Q 29.828125 51.46875 34.265625 53.734375 
Q 38.71875 56 44.09375 56 
Q 53.5625 56 58.46875 50.1875 
Q 63.375 44.390625 63.375 33.296875 
z
" id="DejaVuSans-Bold-110"/>
      <path d="M 8.40625 75.984375 
L 25.875 75.984375 
L 25.875 0 
L 8.40625 0 
z
" id="DejaVuSans-Bold-108"/>
      <path d="M 45.609375 46.6875 
L 45.609375 75.984375 
L 63.1875 75.984375 
L 63.1875 0 
L 45.609375 0 
L 45.609375 7.90625 
Q 42 3.078125 37.640625 0.828125 
Q 33.296875 -1.421875 27.59375 -1.421875 
Q 17.484375 -1.421875 10.984375 6.609375 
Q 4.5 14.65625 4.5 27.296875 
Q 4.5 39.9375 10.984375 47.96875 
Q 17.484375 56 27.59375 56 
Q 33.25 56 37.625 53.734375 
Q 42 51.46875 45.609375 46.6875 
z
M 34.078125 11.28125 
Q 39.703125 11.28125 42.65625 15.375 
Q 45.609375 19.484375 45.609375 27.296875 
Q 45.609375 35.109375 42.65625 39.203125 
Q 39.703125 43.3125 34.078125 43.3125 
Q 28.515625 43.3125 25.5625 39.203125 
Q 22.609375 35.109375 22.609375 27.296875 
Q 22.609375 19.484375 25.5625 15.375 
Q 28.515625 11.28125 34.078125 11.28125 
z
" id="DejaVuSans-Bold-100"/>
      <path d="M 51.125 52.984375 
L 51.125 39.703125 
Q 45.515625 42.046875 40.28125 43.21875 
Q 35.0625 44.390625 30.421875 44.390625 
Q 25.4375 44.390625 23.015625 43.140625 
Q 20.609375 41.890625 20.609375 39.3125 
Q 20.609375 37.203125 22.4375 36.078125 
Q 24.265625 34.96875 29 34.421875 
L 32.078125 33.984375 
Q 45.515625 32.28125 50.140625 28.375 
Q 54.78125 24.46875 54.78125 16.109375 
Q 54.78125 7.375 48.328125 2.96875 
Q 41.890625 -1.421875 29.109375 -1.421875 
Q 23.6875 -1.421875 17.890625 -0.5625 
Q 12.109375 0.296875 6 2 
L 6 15.28125 
Q 11.234375 12.75 16.71875 11.46875 
Q 22.21875 10.203125 27.875 10.203125 
Q 33.015625 10.203125 35.59375 11.609375 
Q 38.1875 13.03125 38.1875 15.828125 
Q 38.1875 18.171875 36.40625 19.3125 
Q 34.625 20.453125 29.296875 21.09375 
L 26.21875 21.484375 
Q 14.546875 22.953125 9.859375 26.90625 
Q 5.171875 30.859375 5.171875 38.921875 
Q 5.171875 47.609375 11.125 51.796875 
Q 17.09375 56 29.390625 56 
Q 34.234375 56 39.546875 55.265625 
Q 44.875 54.546875 51.125 52.984375 
z
" id="DejaVuSans-Bold-115"/>
     </defs>
     <g transform="translate(18.398438 201.954375)rotate(-90)scale(0.1 -0.1)">
      <use xlink:href="#DejaVuSans-Bold-35"/>
      <use x="83.789062" xlink:href="#DejaVuSans-Bold-32"/>
      <use x="118.603516" xlink:href="#DejaVuSans-Bold-68"/>
      <use x="201.611328" xlink:href="#DejaVuSans-Bold-111"/>
      <use x="270.3125" xlink:href="#DejaVuSans-Bold-119"/>
      <use x="362.695312" xlink:href="#DejaVuSans-Bold-110"/>
      <use x="433.886719" xlink:href="#DejaVuSans-Bold-108"/>
      <use x="468.164062" xlink:href="#DejaVuSans-Bold-111"/>
      <use x="536.865234" xlink:href="#DejaVuSans-Bold-97"/>
      <use x="604.345703" xlink:href="#DejaVuSans-Bold-100"/>
      <use x="675.927734" xlink:href="#DejaVuSans-Bold-115"/>
     </g>
    </g>
   </g>
   <g id="line2d_18">
    <path clip-path="url(#p435ffb51cd)" d="M 74.795028 291.542642 
L 74.910076 290.992121 
L 75.025124 291.232974 
L 75.140171 290.269562 
L 75.485314 291.714679 
L 75.71541 291.026528 
L 75.945505 290.682453 
L 76.060553 290.888898 
L 76.1756 291.473826 
L 76.635791 290.235155 
L 76.750839 291.370604 
L 76.865886 290.820083 
L 76.980934 291.680272 
L 77.095982 291.508234 
L 77.21103 291.060936 
L 77.326077 291.336196 
L 77.556173 288.858853 
L 77.786268 290.71686 
L 77.901316 290.269562 
L 78.131411 290.71686 
L 78.246459 290.372785 
L 78.361506 289.581412 
L 78.591602 290.30397 
L 78.706649 291.508234 
L 78.936745 289.478189 
L 79.051792 290.613638 
L 79.16684 290.544823 
L 79.396935 289.787857 
L 79.511983 290.992121 
L 79.627031 288.583593 
L 79.857126 290.888898 
L 79.972174 288.170702 
L 80.202269 290.820083 
L 80.317317 291.060936 
L 80.547412 289.374966 
L 80.66246 289.822264 
L 80.777507 289.512596 
L 81.007603 290.4416 
L 81.12265 291.129751 
L 81.237698 288.033072 
L 81.467793 290.200747 
L 81.582841 289.959895 
L 81.697889 288.583593 
L 81.812936 291.198566 
L 82.043032 290.30397 
L 82.273127 290.923306 
L 82.388175 289.822264 
L 82.503222 291.026528 
L 82.61827 290.888898 
L 82.733318 290.957713 
L 82.848365 291.336196 
L 82.963413 290.923306 
L 83.078461 291.060936 
L 83.193508 289.409374 
L 83.308556 291.026528 
L 83.423604 290.131932 
L 83.538651 290.476008 
L 83.653699 291.473826 
L 83.883794 289.306151 
L 84.11389 289.822264 
L 84.228937 291.473826 
L 84.343985 291.439419 
L 84.459033 289.891079 
L 84.574081 290.30397 
L 84.689128 289.684634 
L 84.919224 290.957713 
L 85.034271 290.613638 
L 85.264367 290.888898 
L 85.494462 289.787857 
L 85.60951 289.512596 
L 85.839605 290.888898 
L 85.954653 290.200747 
L 86.0697 290.613638 
L 86.184748 290.510415 
L 86.299796 289.478189 
L 86.759986 291.095343 
L 86.875034 289.030891 
L 86.990082 290.57923 
L 87.105129 288.996483 
L 87.220177 289.030891 
L 87.335225 289.787857 
L 87.450272 289.202929 
L 87.56532 290.785676 
L 87.680368 288.618 
L 87.795415 288.721223 
L 87.910463 287.861034 
L 88.140558 290.613638 
L 88.370654 289.202929 
L 88.600749 288.20511 
L 88.715797 287.551366 
L 88.945892 290.4416 
L 89.06094 290.131932 
L 89.175987 291.405011 
L 89.291035 288.033072 
L 89.406083 288.514778 
L 89.52113 287.826627 
L 89.636178 289.237336 
L 89.751226 288.273925 
L 89.866273 290.888898 
L 89.981321 290.785676 
L 90.211416 288.824446 
L 90.326464 289.478189 
L 90.441512 289.271744 
L 90.556559 289.374966 
L 90.671607 289.168521 
L 90.786655 291.301789 
L 90.901702 288.996483 
L 91.01675 290.097525 
L 91.131798 286.932031 
L 91.476941 291.129751 
L 91.591988 290.30397 
L 91.822084 286.863216 
L 92.052179 289.374966 
L 92.167227 288.686815 
L 92.397322 289.994302 
L 92.51237 287.344921 
L 92.742465 288.239517 
L 92.857513 287.516959 
L 93.087608 290.372785 
L 93.202656 289.581412 
L 93.432751 284.42028 
L 93.547799 288.858853 
L 93.662847 288.583593 
L 93.777894 289.271744 
L 93.892942 289.134113 
L 94.00799 290.200747 
L 94.238085 287.344921 
L 94.46818 288.790038 
L 94.583228 287.276106 
L 94.813323 290.200747 
L 94.928371 287.276106 
L 95.043419 289.340559 
L 95.273514 286.932031 
L 95.503609 290.407193 
L 95.733705 287.000846 
L 95.848752 286.51914 
L 95.9638 288.033072 
L 96.193895 284.592318 
L 96.308943 289.856672 
L 96.539038 286.484733 
L 96.654086 288.136295 
L 96.769134 287.172883 
L 96.884181 285.142838 
L 96.999229 285.486914 
L 97.114277 283.491276 
L 97.229324 288.75563 
L 97.45942 283.835352 
L 97.574467 285.727767 
L 97.689515 285.452506 
L 97.804563 286.175065 
L 97.91961 289.925487 
L 98.149706 285.865397 
L 98.264753 286.175065 
L 98.379801 287.207291 
L 98.494849 286.175065 
L 98.724944 289.306151 
L 98.839992 288.893261 
L 99.070087 284.833171 
L 99.185135 283.835352 
L 99.300182 285.314876 
L 99.41523 279.672039 
L 99.530278 289.306151 
L 99.645325 289.065298 
L 99.875421 283.732129 
L 99.990469 285.521321 
L 100.105516 284.213835 
L 100.335612 288.996483 
L 100.450659 286.415918 
L 100.565707 286.415918 
L 100.795802 284.764355 
L 100.91085 285.280469 
L 101.255993 289.030891 
L 101.371041 281.495639 
L 101.486088 284.179427 
L 101.601136 282.871941 
L 101.716184 285.177246 
L 101.831231 284.55791 
L 101.946279 287.826627 
L 102.061327 287.826627 
L 102.176374 286.587955 
L 102.291422 283.938574 
L 102.40647 283.972982 
L 102.521517 281.151563 
L 102.751613 287.276106 
L 102.86666 288.962076 
L 103.096756 284.489095 
L 103.211803 283.147201 
L 103.441899 285.486914 
L 103.671994 288.824446 
L 103.902089 285.074023 
L 104.132185 283.181608 
L 104.247232 284.041797 
L 104.36228 288.686815 
L 104.477328 287.344921 
L 104.707423 281.013933 
L 104.822471 280.807488 
L 105.167614 288.75563 
L 105.282661 288.20511 
L 105.512757 278.226922 
L 105.627804 268.59281 
L 105.742852 273.478681 
L 105.972947 287.138476 
L 106.087995 288.170702 
L 106.31809 284.317057 
L 106.433138 282.32142 
L 106.663233 284.661133 
L 106.778281 289.237336 
L 107.123424 282.803125 
L 107.238472 282.73431 
L 107.353519 281.702084 
L 107.468567 283.250423 
L 107.583615 287.929849 
L 107.698663 287.241699 
L 107.81371 281.461231 
L 107.928758 284.764355 
L 108.043806 281.048341 
L 108.503996 288.962076 
L 108.849139 280.704265 
L 108.964187 281.874122 
L 109.194282 288.308332 
L 109.424378 284.179427 
L 109.539425 283.628906 
L 109.654473 281.667676 
L 109.999616 290.131932 
L 110.114664 288.858853 
L 110.344759 284.936393 
L 110.459807 283.663314 
L 110.574854 283.972982 
L 110.80495 286.10625 
L 110.919997 288.411555 
L 111.035045 284.523503 
L 111.150093 286.003027 
L 111.380188 279.981707 
L 111.610283 288.445963 
L 111.725331 288.75563 
L 111.955426 281.874122 
L 112.070474 282.837533 
L 112.185522 285.968619 
L 112.300569 283.697722 
L 112.530665 288.927668 
L 112.76076 284.110612 
L 112.875808 279.981707 
L 112.990855 283.972982 
L 113.105903 280.807488 
L 113.220951 288.273925 
L 113.566094 279.465594 
L 113.681141 282.493458 
L 113.796189 281.358009 
L 114.026284 287.654589 
L 114.141332 287.792219 
L 114.371427 279.740854 
L 114.486475 283.147201 
L 114.71657 281.633269 
L 114.946666 288.583593 
L 115.176761 282.906348 
L 115.291809 283.663314 
L 115.406857 280.669858 
L 115.521904 281.702084 
L 115.752 287.757812 
L 115.982095 281.358009 
L 116.21219 278.26133 
L 116.442286 284.69554 
L 116.902476 282.046159 
L 117.017524 273.065791 
L 117.247619 288.962076 
L 117.362667 286.38151 
L 117.592762 277.194696 
L 117.70781 284.28265 
L 117.822858 277.469956 
L 118.052953 287.104068 
L 118.168001 287.276106 
L 118.283048 281.667676 
L 118.398096 282.011752 
L 118.513144 280.77308 
L 118.628191 281.151563 
L 118.743239 279.327964 
L 118.858287 290.02871 
L 118.973334 286.932031 
L 119.088382 276.71299 
L 119.20343 278.67422 
L 119.318477 267.250916 
L 119.433525 280.394597 
L 119.548573 279.500001 
L 119.66362 287.035253 
L 120.008763 281.392416 
L 120.238859 278.846258 
L 120.468954 286.691178 
L 120.584002 285.211653 
L 120.699049 278.364552 
L 120.814097 282.252605 
L 120.929145 280.119337 
L 121.044192 282.424642 
L 121.15924 280.841895 
L 121.274288 286.897623 
L 121.389335 285.658952 
L 121.504383 279.534409 
L 121.619431 280.704265 
L 121.849526 283.904167 
L 122.079621 285.762174 
L 122.194669 286.278287 
L 122.309717 278.502182 
L 122.424764 281.358009 
L 122.539812 275.302281 
L 122.65486 283.250423 
L 122.769907 281.461231 
L 122.884955 286.484733 
L 123.000003 285.142838 
L 123.115051 281.013933 
L 123.230098 283.594499 
L 123.345146 281.770899 
L 123.460194 282.59668 
L 123.575241 281.495639 
L 123.690289 288.033072 
L 124.035432 282.940756 
L 124.15048 275.680764 
L 124.265527 278.708628 
L 124.380575 286.24388 
L 124.495623 284.385872 
L 124.725718 286.037435 
L 124.840766 285.624544 
L 124.955813 284.69554 
L 125.185909 287.344921 
L 125.416004 286.10625 
L 125.531052 287.138476 
L 125.646099 282.803125 
L 125.761147 286.691178 
L 125.991242 282.493458 
L 126.10629 284.833171 
L 126.221338 284.833171 
L 126.451433 282.699903 
L 126.566481 279.121518 
L 126.796576 279.844077 
L 126.911624 285.486914 
L 127.026671 284.076205 
L 127.141719 279.740854 
L 127.256767 279.706447 
L 127.371814 280.291375 
L 127.486862 278.81185 
L 127.716957 286.209472 
L 127.832005 286.415918 
L 128.292196 272.37764 
L 128.522291 285.246061 
L 128.637339 283.388054 
L 128.752386 283.628906 
L 128.867434 280.841895 
L 128.982482 275.164651 
L 129.097529 283.353646 
L 129.212577 281.598861 
L 129.327625 284.179427 
L 129.672768 279.224741 
L 129.902863 282.837533 
L 130.017911 281.013933 
L 130.132958 284.523503 
L 130.248006 283.181608 
L 130.363054 275.233466 
L 130.478101 278.330145 
L 130.593149 270.898115 
L 130.708197 271.758304 
L 130.938292 285.762174 
L 131.05334 285.762174 
L 131.283435 277.779624 
L 131.513531 275.508726 
L 131.743626 283.835352 
L 131.858674 284.489095 
L 132.088769 275.439911 
L 132.203817 269.625036 
L 132.433912 279.947299 
L 132.54896 284.351465 
L 132.664007 283.009571 
L 132.779055 270.313187 
L 132.894103 277.297918 
L 133.00915 274.820575 
L 133.124198 278.467775 
L 133.239246 277.641994 
L 133.469341 287.035253 
L 133.699436 273.753941 
L 133.814484 272.618493 
L 133.929532 278.777443 
L 134.044579 276.16247 
L 134.159627 284.454688 
L 134.274675 283.043978 
L 134.50477 271.861527 
L 134.619818 275.027021 
L 134.734865 274.373277 
L 135.080008 283.422461 
L 135.195056 275.990432 
L 135.310104 260.094147 
L 135.770294 282.18379 
L 135.885342 281.908529 
L 136.230485 269.349776 
L 136.575628 286.175065 
L 136.690676 281.942937 
L 136.805723 270.072334 
L 136.920771 270.55404 
L 137.035819 277.951662 
L 137.150866 273.891572 
L 137.380962 285.796582 
L 137.726105 274.958205 
L 137.841152 277.814032 
L 137.9562 274.682945 
L 138.186295 285.934212 
L 138.301343 284.076205 
L 138.531439 272.6529 
L 138.646486 281.667676 
L 138.761534 280.36019 
L 138.876582 281.117156 
L 138.991629 285.005208 
L 139.221725 277.091473 
L 139.336772 277.538771 
L 139.45182 275.439911 
L 139.566868 282.355827 
L 139.681915 279.603224 
L 139.912011 284.592318 
L 140.142106 272.343232 
L 140.257154 278.467775 
L 140.372201 277.366734 
L 140.487249 280.36019 
L 140.602297 286.622363 
L 140.717344 285.452506 
L 140.94744 272.962568 
L 141.062487 277.229103 
L 141.292583 274.510907 
L 141.40763 284.179427 
L 141.522678 280.463412 
L 141.752773 268.936885 
L 141.867821 272.205602 
L 141.982869 269.969112 
L 142.212964 281.598861 
L 142.328012 284.179427 
L 142.558107 274.61413 
L 142.673155 278.570998 
L 142.788202 274.029202 
L 143.018298 286.071842 
L 143.133345 285.486914 
L 143.478488 270.69167 
L 143.593536 266.459542 
L 143.938679 286.553548 
L 144.053727 279.362371 
L 144.168774 279.981707 
L 144.283822 273.857164 
L 144.513917 279.534409 
L 144.628965 285.555729 
L 144.744013 285.555729 
L 145.089156 270.519632 
L 145.204203 277.710809 
L 145.319251 277.366734 
L 145.434299 288.34274 
L 145.779442 274.20124 
L 145.894489 279.396779 
L 146.009537 271.242191 
L 146.124585 274.304462 
L 146.35468 287.551366 
L 146.584776 273.650719 
L 146.699823 276.059247 
L 146.814871 275.267873 
L 147.044966 286.415918 
L 147.275062 278.123699 
L 147.390109 271.861527 
L 147.505157 272.859345 
L 147.965348 285.590136 
L 148.195443 268.799255 
L 148.425538 275.956024 
L 148.655634 286.725585 
L 148.885729 275.543134 
L 149.000777 277.297918 
L 149.115824 271.586266 
L 149.34592 279.465594 
L 149.460967 282.218197 
L 149.691063 273.788349 
L 149.80611 277.814032 
L 150.036206 277.229103 
L 150.266301 285.590136 
L 150.381349 283.525684 
L 150.611444 272.102379 
L 150.726492 272.136787 
L 151.186682 285.899804 
L 151.30173 273.375458 
L 151.416778 275.164651 
L 151.531825 270.657263 
L 151.876968 291.783494 
L 152.107064 278.605405 
L 152.222111 273.444274 
L 152.337159 273.306643 
L 152.452207 261.504856 
L 152.682302 273.788349 
L 152.79735 278.502182 
L 152.912397 269.143331 
L 153.027445 271.999157 
L 153.142493 268.489587 
L 153.25754 274.923798 
L 153.372588 273.581904 
L 153.602683 281.530046 
L 153.832779 263.087603 
L 153.947827 271.964749 
L 154.062874 269.797074 
L 154.29297 283.250423 
L 154.75316 269.384183 
L 154.983256 274.33887 
L 155.098303 281.289194 
L 155.213351 281.220378 
L 155.443446 273.753941 
L 155.673542 269.625036 
L 155.788589 277.641994 
L 155.903637 276.540952 
L 156.018685 280.22256 
L 156.133732 273.444274 
L 156.24878 274.820575 
L 156.363828 274.166832 
L 156.593923 270.898115 
L 156.708971 284.936393 
L 156.824018 282.73431 
L 157.054114 262.674712 
L 157.284209 276.747398 
L 157.399257 269.934704 
L 157.629352 283.078386 
L 157.7444 274.442092 
L 157.859447 274.648538 
L 157.974495 273.100198 
L 158.20459 276.3001 
L 158.319638 283.732129 
L 158.549733 275.646356 
L 158.664781 264.739165 
L 158.779829 277.469956 
L 158.894876 272.412047 
L 159.009924 275.095836 
L 159.124972 284.454688 
L 159.240019 274.88939 
L 159.355067 274.648538 
L 159.585162 270.382002 
L 159.70021 271.173376 
L 159.815258 274.923798 
L 159.930305 283.800944 
L 160.045353 280.77308 
L 160.160401 258.373769 
L 160.390496 278.502182 
L 160.505544 276.644175 
L 160.620591 278.364552 
L 160.735639 284.523503 
L 160.850687 282.011752 
L 161.080782 268.31755 
L 161.19583 273.650719 
L 161.310877 272.859345 
L 161.425925 276.57536 
L 161.540973 284.351465 
L 161.656021 280.841895 
L 161.771068 272.996975 
L 161.886116 276.71299 
L 162.116211 272.893753 
L 162.231259 273.857164 
L 162.346307 283.491276 
L 162.461354 279.121518 
L 162.576402 263.947792 
L 162.69145 265.771391 
L 162.806497 272.859345 
L 162.921545 272.756123 
L 163.036593 276.16247 
L 163.15164 283.353646 
L 163.266688 271.827119 
L 163.381736 275.405504 
L 163.611831 270.760485 
L 163.956974 284.110612 
L 164.072022 283.560091 
L 164.302117 274.545315 
L 164.417165 270.27878 
L 164.532212 273.547496 
L 164.64726 272.24001 
L 164.762308 284.626725 
L 164.877355 277.882847 
L 164.992403 277.814032 
L 165.222498 273.100198 
L 165.337546 273.822757 
L 165.567641 282.149382 
L 165.682689 283.009571 
L 165.797737 274.373277 
L 165.912784 276.196877 
L 166.027832 275.577541 
L 166.14288 271.758304 
L 166.372975 286.622363 
L 166.488023 283.904167 
L 166.60307 268.764848 
L 166.718118 282.631088 
L 166.833166 281.942937 
L 166.948213 280.291375 
L 167.063261 285.314876 
L 167.178309 284.936393 
L 167.293356 283.732129 
L 167.523452 274.682945 
L 167.638499 283.766537 
L 167.753547 278.949481 
L 167.868595 283.491276 
L 168.09869 282.493458 
L 168.328785 277.125881 
L 168.443833 278.467775 
L 168.558881 272.033564 
L 168.904024 283.628906 
L 169.134119 267.078878 
L 169.249167 275.439911 
L 169.364215 270.8293 
L 169.479262 272.859345 
L 169.59431 282.59668 
L 169.709358 264.360682 
L 169.824405 275.749579 
L 169.939453 264.257459 
L 170.169548 275.233466 
L 170.284596 274.958205 
L 170.514691 284.007389 
L 170.629739 270.794893 
L 170.744787 275.508726 
L 170.859834 264.051014 
L 171.320025 283.319239 
L 171.780216 258.580215 
L 172.010311 282.699903 
L 172.125359 275.061428 
L 172.240406 276.71299 
L 172.355454 275.680764 
L 172.470502 270.037927 
L 172.585549 271.517451 
L 172.930692 280.36019 
L 173.04574 277.125881 
L 173.160788 263.259641 
L 173.275835 272.92816 
L 173.390883 271.655081 
L 173.620978 282.32142 
L 173.851074 272.859345 
L 173.966121 270.27878 
L 174.081169 271.655081 
L 174.196217 268.420772 
L 174.311264 274.098017 
L 174.426312 286.278287 
L 174.54136 283.525684 
L 174.771455 273.753941 
L 174.886503 268.351957 
L 175.116598 276.16247 
L 175.231646 281.977344 
L 175.461741 264.463905 
L 175.576789 272.859345 
L 175.806884 271.723896 
L 175.921932 272.446455 
L 176.152027 282.59668 
L 176.382122 270.69167 
L 176.612218 274.270055 
L 176.727266 274.992613 
L 176.842313 281.977344 
L 176.957361 280.119337 
L 177.072409 262.365045 
L 177.187456 273.581904 
L 177.302504 273.547496 
L 177.417552 248.98051 
L 177.647647 284.076205 
L 177.762695 281.530046 
L 177.99279 271.242191 
L 178.107838 269.693851 
L 178.222885 275.405504 
L 178.337933 268.936885 
L 178.452981 272.067972 
L 178.568028 283.009571 
L 178.683076 268.420772 
L 178.798124 273.685126 
L 179.028219 265.427316 
L 179.258314 281.874122 
L 179.373362 280.291375 
L 179.9486 252.111597 
L 180.063648 281.702084 
L 180.178696 281.392416 
L 180.408791 266.941248 
L 180.523839 261.367226 
L 180.638886 270.863708 
L 180.753934 270.347595 
L 180.868982 283.560091 
L 180.984029 281.598861 
L 181.214125 264.326274 
L 181.329172 269.487406 
L 181.44422 263.259641 
L 181.674315 284.626725 
L 181.789363 283.904167 
L 181.904411 267.835844 
L 182.134506 274.579722 
L 182.249554 250.94174 
L 182.479649 274.61413 
L 182.594697 280.532228 
L 182.709744 272.480862 
L 182.824792 273.444274 
L 183.054887 267.422953 
L 183.284983 284.729948 
L 183.515078 274.4765 
L 183.630126 275.027021 
L 183.745173 257.960879 
L 183.975269 271.655081 
L 184.090316 270.519632 
L 184.205364 279.121518 
L 184.320412 277.401141 
L 184.43546 268.86807 
L 184.550507 274.20124 
L 184.665555 273.100198 
L 184.780603 267.113286 
L 185.010698 281.151563 
L 185.125746 260.197369 
L 185.355841 275.783987 
L 185.470889 268.59281 
L 185.585936 277.538771 
L 185.700984 271.620674 
L 185.816032 283.869759 
L 185.931079 263.775754 
L 186.046127 271.792711 
L 186.161175 265.599354 
L 186.506318 285.005208 
L 186.736413 263.156418 
L 186.851461 265.805799 
L 186.966508 271.999157 
L 187.081556 270.106742 
L 187.196604 270.347595 
L 187.311651 284.454688 
L 187.426699 269.693851 
L 187.656794 272.033564 
L 187.88689 269.418591 
L 188.116985 283.422461 
L 188.34708 272.51527 
L 188.462128 272.171194 
L 188.577176 270.313187 
L 188.807271 265.599354 
L 188.922319 281.151563 
L 189.037366 281.633269 
L 189.152414 270.726078 
L 189.267462 272.24001 
L 189.382509 271.655081 
L 189.612605 279.018296 
L 189.727652 274.923798 
L 189.8427 284.454688 
L 189.957748 261.332818 
L 190.072795 275.027021 
L 190.187843 274.063609 
L 190.417938 278.467775 
L 190.532986 283.869759 
L 190.648034 283.009571 
L 190.878129 264.360682 
L 190.993177 265.08324 
L 191.33832 286.175065 
L 191.453367 284.970801 
L 191.683463 239.139953 
L 191.79851 272.446455 
L 191.913558 273.409866 
L 192.028606 270.037927 
L 192.143654 271.138968 
L 192.258701 277.986069 
L 192.373749 269.969112 
L 192.488797 252.799747 
L 192.603844 270.863708 
L 192.718892 258.993105 
L 192.83394 274.063609 
L 192.948987 269.315368 
L 193.064035 281.013933 
L 193.29413 257.995286 
L 193.409178 272.824938 
L 193.524226 250.012736 
L 193.639273 266.425135 
L 193.754321 251.870744 
L 193.869369 264.980018 
L 193.984416 261.573671 
L 194.214512 274.61413 
L 194.329559 272.6529 
L 194.674702 282.011752 
L 194.904798 263.431678 
L 195.019845 273.272236 
L 195.134893 255.930834 
L 195.364988 280.601043 
L 195.480036 274.098017 
L 195.595084 275.405504 
L 195.825179 273.134606 
L 196.055274 263.259641 
L 196.28537 277.057066 
L 196.515465 264.94561 
L 196.630513 273.581904 
L 196.74556 270.898115 
L 196.860608 272.274417 
L 197.090703 279.259148 
L 197.320799 264.154237 
L 197.435846 264.567127 
L 197.550894 245.608571 
L 197.665942 276.196877 
L 197.780989 268.076697 
L 197.896037 278.708628 
L 198.011085 266.838025 
L 198.126132 272.171194 
L 198.24118 270.55404 
L 198.356228 271.173376 
L 198.471275 265.461723 
L 198.586323 285.211653 
L 198.701371 270.622855 
L 198.816418 278.846258 
L 199.046514 269.831481 
L 199.276609 279.775262 
L 199.391657 280.63545 
L 199.621752 258.064102 
L 199.7368 275.027021 
L 199.851848 272.51527 
L 200.196991 282.149382 
L 200.427086 268.799255 
L 200.542134 268.31755 
L 200.657181 266.35632 
L 200.772229 270.141149 
L 200.887277 281.082748 
L 201.002324 276.334507 
L 201.117372 241.066775 
L 201.577563 275.818394 
L 201.69261 278.743035 
L 201.807658 277.607586 
L 201.922706 264.223052 
L 202.037753 267.319731 
L 202.152801 267.113286 
L 202.382896 274.717353 
L 202.612992 272.79053 
L 202.728039 264.360682 
L 202.843087 264.773573 
L 202.958135 263.12201 
L 203.073182 263.328456 
L 203.303278 276.988251 
L 203.418325 276.506545 
L 203.648421 266.425135 
L 203.763468 272.37764 
L 203.878516 267.354138 
L 204.108611 278.53659 
L 204.223659 261.883339 
L 204.338707 265.874614 
L 204.453754 258.993105 
L 204.568802 267.250916 
L 204.68385 267.182101 
L 204.798897 269.762666 
L 204.913945 280.49782 
L 205.028993 278.364552 
L 205.14404 269.280961 
L 205.259088 271.104561 
L 205.374136 268.73044 
L 205.604231 276.43773 
L 206.179469 267.319731 
L 206.294517 268.489587 
L 206.409565 266.941248 
L 206.524612 282.45905 
L 206.63966 278.880665 
L 206.869755 268.627217 
L 206.984803 266.046652 
L 207.099851 272.51527 
L 207.214898 271.345413 
L 207.329946 280.256967 
L 207.444994 277.607586 
L 207.560042 259.715664 
L 207.675089 271.723896 
L 207.905185 267.422953 
L 208.250328 278.777443 
L 208.480423 274.235647 
L 208.595471 276.644175 
L 208.710518 282.252605 
L 208.825566 282.390235 
L 208.940614 283.112793 
L 209.170709 274.442092 
L 209.285757 276.816213 
L 209.400804 275.611949 
L 209.6309 283.250423 
L 209.745947 282.355827 
L 209.860995 283.009571 
L 210.206138 260.679075 
L 210.436233 268.971293 
L 210.666329 274.88939 
L 210.896424 263.534901 
L 211.011472 265.909022 
L 211.126519 251.285815 
L 211.241567 255.105053 
L 211.356615 278.983888 
L 211.471662 276.231285 
L 211.701758 266.838025 
L 211.816805 261.057558 
L 211.931853 269.384183 
L 212.046901 244.92042 
L 212.161948 274.992613 
L 212.276996 260.816705 
L 212.507091 266.76921 
L 212.622139 269.212146 
L 212.737187 266.63158 
L 212.852234 270.96693 
L 212.967282 281.185971 
L 213.08233 275.543134 
L 213.197377 280.153745 
L 213.312425 267.973474 
L 213.427473 268.351957 
L 213.54252 249.496623 
L 213.657568 266.115467 
L 213.772616 256.618985 
L 213.887663 269.280961 
L 214.002711 248.326767 
L 214.117759 264.601535 
L 214.347854 263.775754 
L 214.462902 249.186955 
L 214.692997 278.708628 
L 214.808045 260.094147 
L 214.923092 267.422953 
L 215.03814 252.386857 
L 215.153188 263.500493 
L 215.268236 259.784479 
L 215.383283 276.57536 
L 215.613379 251.07937 
L 215.843474 267.698214 
L 215.958522 266.872433 
L 216.188617 273.616311 
L 216.53376 258.304954 
L 216.763855 266.803618 
L 216.878903 268.764848 
L 216.993951 265.530539 
L 217.108998 271.173376 
L 217.339094 249.978329 
L 217.454141 262.055377 
L 217.569189 262.020969 
L 217.914332 277.710809 
L 218.144427 237.832466 
L 218.259475 239.552843 
L 218.374523 261.986562 
L 218.48957 258.476992 
L 218.604618 278.743035 
L 218.834713 262.98438 
L 218.949761 264.704757 
L 219.064809 254.176049 
L 219.179856 260.851113 
L 219.294904 275.267873 
L 219.524999 245.918239 
L 219.640047 264.223052 
L 219.755095 249.565438 
L 219.870142 261.298411 
L 219.98519 257.238321 
L 220.100238 262.193007 
L 220.215285 279.844077 
L 220.445381 263.844569 
L 220.675476 248.464397 
L 220.905571 268.31755 
L 221.020619 259.06192 
L 221.135667 269.934704 
L 221.250714 236.421757 
L 221.365762 264.773573 
L 221.595857 247.397763 
L 221.825953 277.194696 
L 221.941 277.125881 
L 222.401191 233.118632 
L 222.631286 277.538771 
L 222.746334 260.782297 
L 222.861382 261.711301 
L 223.091477 251.251408 
L 223.206525 245.05805 
L 223.43662 280.084929 
L 223.551668 262.193007 
L 223.666716 269.418591 
L 223.781763 250.322404 
L 223.896811 264.980018 
L 224.011859 262.98438 
L 224.241954 273.409866 
L 224.357002 269.521814 
L 224.472049 259.887701 
L 224.587097 259.956516 
L 224.702145 262.124192 
L 224.817192 214.366521 
L 225.162335 275.680764 
L 225.277383 254.623347 
L 225.392431 268.558402 
L 225.507478 266.975655 
L 225.622526 238.795877 
L 225.852621 273.031383 
L 226.082717 281.667676 
L 226.312812 253.384676 
L 226.542907 265.358501 
L 226.657955 267.870251 
L 226.773003 265.048833 
L 226.88805 253.487898 
L 227.003098 226.030678 
L 227.233193 266.665987 
L 227.348241 269.212146 
L 227.463289 278.123699 
L 227.578336 273.719534 
L 227.693384 256.034056 
L 227.808432 261.814524 
L 227.923479 259.956516 
L 228.038527 248.911695 
L 228.153575 251.251408 
L 228.268622 273.134606 
L 228.613765 260.369407 
L 228.728813 257.272728 
L 228.843861 236.524979 
L 229.073956 279.740854 
L 229.304051 248.808472 
L 229.534147 236.903462 
L 229.87929 274.786168 
L 229.994337 276.816213 
L 230.109385 265.186463 
L 230.224433 266.046652 
L 230.33948 260.816705 
L 230.454528 263.775754 
L 230.569576 262.124192 
L 230.799671 276.506545 
L 231.029767 259.543626 
L 231.259862 278.983888 
L 231.37491 259.302773 
L 231.489957 279.155926 
L 231.605005 257.582396 
L 231.720053 267.147693 
L 231.950148 252.421264 
L 232.295291 276.128062 
L 232.410339 275.130243 
L 232.640434 260.713482 
L 232.755482 256.55017 
L 232.870529 238.382987 
L 233.100625 276.609768 
L 233.215672 277.125881 
L 233.445768 260.059739 
L 233.560815 258.408177 
L 233.675863 237.798058 
L 233.905958 278.708628 
L 234.136054 257.823249 
L 234.251101 267.904659 
L 234.366149 254.451309 
L 234.481197 261.16078 
L 234.596244 260.300592 
L 234.711292 276.609768 
L 234.941387 267.870251 
L 235.056435 262.57149 
L 235.171483 266.287504 
L 235.28653 265.771391 
L 235.401578 259.268366 
L 235.516626 276.334507 
L 235.631673 276.128062 
L 235.746721 275.027021 
L 235.861769 256.653392 
L 236.091864 271.207783 
L 236.206912 269.040108 
L 236.321959 279.224741 
L 236.437007 276.781805 
L 236.552055 237.522798 
L 236.78215 265.461723 
L 236.897198 274.442092 
L 237.012245 262.605897 
L 237.127293 279.568816 
L 237.242341 277.263511 
L 237.357388 265.392908 
L 237.472436 265.461723 
L 237.587484 264.567127 
L 237.702531 264.601535 
L 237.932627 273.478681 
L 238.047674 272.343232 
L 238.507865 255.896426 
L 238.737961 270.003519 
L 238.968056 245.470941 
L 239.083104 247.913876 
L 239.198151 254.485717 
L 239.313199 269.212146 
L 239.428247 268.214327 
L 239.543294 278.639813 
L 239.888437 251.07937 
L 240.003485 259.302773 
L 240.118533 253.556713 
L 240.23358 240.344217 
L 240.463676 276.024839 
L 240.578723 238.692654 
L 240.808819 260.059739 
L 240.923866 249.840699 
L 241.153962 272.102379 
L 241.384057 268.59281 
L 241.7292 242.374262 
L 241.959295 270.622855 
L 242.074343 261.16078 
L 242.189391 267.422953 
L 242.304438 264.498312 
L 242.419486 251.251408 
L 242.649581 262.502675 
L 242.764629 274.20124 
L 242.879677 270.96693 
L 242.994724 263.844569 
L 243.109772 237.832466 
L 243.22482 265.427316 
L 243.339867 264.051014 
L 243.454915 259.027513 
L 243.68501 277.882847 
L 243.915106 258.270547 
L 244.030153 264.601535 
L 244.145201 249.840699 
L 244.375296 271.689489 
L 244.490344 255.827611 
L 244.605392 264.67035 
L 244.720439 262.949973 
L 244.835487 266.046652 
L 244.950535 247.500986 
L 245.18063 275.921617 
L 245.410725 260.919928 
L 245.525773 212.955812 
L 245.985964 274.61413 
L 246.101012 270.003519 
L 246.216059 253.350268 
L 246.331107 253.0406 
L 246.446155 262.98438 
L 246.561202 252.386857 
L 246.791298 273.237828 
L 246.906345 274.545315 
L 247.021393 258.580215 
L 247.136441 263.672531 
L 247.251488 229.299395 
L 247.481584 269.212146 
L 247.596631 273.444274 
L 247.826727 267.147693 
L 247.941774 255.930834 
L 248.056822 261.436041 
L 248.17187 257.444766 
L 248.401965 271.207783 
L 248.517013 269.865889 
L 248.862156 233.772376 
L 248.977203 252.283634 
L 249.092251 249.462216 
L 249.322346 273.581904 
L 249.552442 256.515762 
L 249.667489 266.459542 
L 249.897585 257.169505 
L 250.012632 270.760485 
L 250.242728 239.105545 
L 250.357775 263.638124 
L 250.587871 260.507037 
L 250.817966 270.588447 
L 251.048061 258.408177 
L 251.163109 267.250916 
L 251.278157 263.706939 
L 251.393204 271.689489 
L 251.508252 271.242191 
L 251.738347 259.19955 
L 251.853395 264.085422 
L 251.968443 255.517943 
L 252.08349 255.999649 
L 252.198538 254.58894 
L 252.428633 269.487406 
L 252.543681 268.799255 
L 252.773776 252.62771 
L 252.888824 259.027513 
L 253.003872 257.651211 
L 253.118919 242.511892 
L 253.233967 274.682945 
L 253.809206 246.571982 
L 254.039301 269.590629 
L 254.154349 273.065791 
L 254.384444 252.834155 
L 254.499492 254.485717 
L 254.614539 268.179919 
L 254.729587 249.290178 
L 254.959682 277.607586 
L 255.07473 255.449128 
L 255.304825 268.627217 
L 255.419873 265.943429 
L 255.534921 268.902478 
L 255.649968 280.36019 
L 255.765016 272.274417 
L 255.995111 236.903462 
L 256.225207 261.986562 
L 256.340254 259.853294 
L 256.57035 275.199058 
L 256.915493 243.681748 
L 257.03054 262.84675 
L 257.145588 262.502675 
L 257.375683 276.231285 
L 257.605779 257.616803 
L 257.720826 261.504856 
L 257.835874 279.706447 
L 257.950922 259.784479 
L 258.065969 278.158107 
L 258.411112 253.866381 
L 258.52616 260.266184 
L 258.756255 243.37208 
L 258.986351 275.680764 
L 259.216446 258.339362 
L 259.331494 262.089784 
L 259.446541 241.961371 
L 259.791684 269.865889 
L 260.02178 248.533212 
L 260.251875 256.137279 
L 260.366923 247.29454 
L 260.597018 272.6529 
L 260.827113 250.735295 
L 260.942161 253.075008 
L 261.057209 253.866381 
L 261.172257 260.094147 
L 261.287304 273.547496 
L 261.402352 269.865889 
L 261.5174 228.129539 
L 261.632447 230.572474 
L 261.747495 224.413524 
L 261.97759 255.655573 
L 262.207686 268.936885 
L 262.437781 249.565438 
L 262.667876 241.101183 
L 262.897972 272.756123 
L 263.358162 246.468759 
L 263.818353 276.128062 
L 264.048448 252.283634 
L 264.163496 224.516747 
L 264.508639 275.577541 
L 264.623687 271.930342 
L 264.738734 257.754434 
L 264.853782 260.88552 
L 264.96883 236.490572 
L 265.313973 279.534409 
L 265.774163 251.492261 
L 265.889211 251.526668 
L 266.119306 275.302281 
L 266.464449 249.049325 
L 266.579497 256.894245 
L 266.809592 239.03673 
L 267.039688 272.893753 
L 267.154735 245.815016 
L 267.269783 257.926471 
L 267.499878 216.224528 
L 267.729974 271.689489 
L 267.845021 260.988743 
L 268.075117 221.38566 
L 268.305212 255.758796 
L 268.42026 259.887701 
L 268.650355 271.655081 
L 268.880451 254.244864 
L 268.995498 251.629891 
L 269.110546 243.784971 
L 269.225594 247.466578 
L 269.340641 261.02315 
L 269.455689 257.135098 
L 269.570737 219.734098 
L 269.685784 251.939559 
L 269.800832 250.115959 
L 269.91588 238.038911 
L 270.145975 272.721715 
L 270.261023 271.070153 
L 270.37607 244.404307 
L 270.491118 265.977837 
L 270.721213 245.642978 
L 270.951309 267.594991 
L 271.066356 262.261822 
L 271.181404 240.309809 
L 271.296452 247.466578 
L 271.411499 245.780608 
L 271.526547 247.948284 
L 271.756642 265.633761 
L 271.87169 267.04447 
L 271.986738 255.930834 
L 272.101785 255.586758 
L 272.216833 253.935196 
L 272.331881 221.488883 
L 272.561976 272.51527 
L 272.677024 243.716156 
L 272.792071 268.111104 
L 273.022167 249.221363 
L 273.137214 250.219182 
L 273.36731 270.932523 
L 273.482357 270.69167 
L 273.712453 256.584577 
L 273.8275 260.851113 
L 273.942548 255.311498 
L 274.057596 256.6878 
L 274.172643 260.025332 
L 274.287691 250.872925 
L 274.517786 258.408177 
L 274.747882 249.290178 
L 274.862929 249.806291 
L 274.977977 237.006685 
L 275.093025 264.016607 
L 275.208072 198.057345 
L 275.438168 256.928653 
L 275.553215 256.481355 
L 275.668263 257.203913 
L 275.898358 264.360682 
L 276.013406 246.709612 
L 276.243501 257.307136 
L 276.473597 250.528849 
L 276.588645 271.379821 
L 276.933788 257.169505 
L 277.048835 220.112581 
L 277.278931 260.88552 
L 277.393978 268.248734 
L 277.624074 251.113778 
L 277.739121 260.575852 
L 277.854169 224.619969 
L 277.969217 245.33331 
L 278.084264 244.060231 
L 278.31436 267.388546 
L 278.659503 244.369899 
L 278.889598 253.0406 
L 279.004646 264.429497 
L 279.119693 264.498312 
L 279.234741 257.10069 
L 279.349789 230.262806 
L 279.464836 257.169505 
L 279.579884 254.416902 
L 279.809979 275.233466 
L 279.925027 273.237828 
L 280.27017 247.879469 
L 280.385218 229.36821 
L 280.615313 274.545315 
L 280.845408 253.694344 
L 280.960456 251.698706 
L 281.075504 237.419575 
L 281.305599 264.085422 
L 281.420647 268.627217 
L 281.535694 246.434352 
L 281.650742 255.689981 
L 281.76579 250.391219 
L 281.880837 251.801929 
L 281.995885 217.910498 
L 282.22598 266.734803 
L 282.456076 258.132917 
L 282.571123 234.460527 
L 282.686171 251.801929 
L 282.801219 247.29454 
L 283.146362 273.065791 
L 283.261409 265.014425 
L 283.376457 233.978821 
L 283.491505 260.438222 
L 283.606552 256.928653 
L 283.836648 265.840206 
L 283.951695 264.842388 
L 284.066743 252.042781 
L 284.181791 255.070645 
L 284.296839 252.180412 
L 284.411886 259.371588 
L 284.526934 259.405996 
L 284.641982 266.838025 
L 284.757029 264.567127 
L 284.987125 245.264495 
L 285.102172 252.042781 
L 285.21722 245.470941 
L 285.332268 253.006193 
L 285.447315 269.0057 
L 285.562363 264.39509 
L 285.792458 243.888194 
L 286.022554 250.907332 
L 286.137601 234.288489 
L 286.252649 269.384183 
L 286.367697 268.179919 
L 286.597792 246.055869 
L 286.71284 254.382494 
L 286.827887 213.816 
L 287.057983 271.379821 
L 287.288078 250.184774 
L 287.518173 243.131228 
L 287.633221 242.546299 
L 287.748269 245.470941 
L 287.863316 269.625036 
L 287.978364 269.831481 
L 288.208459 247.707431 
L 288.323507 246.021461 
L 288.553602 253.315861 
L 288.66865 257.479173 
L 288.783698 266.459542 
L 289.013793 241.479666 
L 289.243888 254.348087 
L 289.358936 255.105053 
L 289.473984 265.530539 
L 289.589031 262.674712 
L 289.704079 220.043766 
L 289.934174 235.045455 
L 290.049222 232.671334 
L 290.279317 267.629399 
L 290.509413 214.022446 
L 290.739508 248.808472 
L 290.854556 226.305939 
L 291.084651 267.526176 
L 291.199699 270.106742 
L 291.429794 247.982691 
L 291.544842 248.602027 
L 291.659889 251.044963 
L 291.889985 270.96693 
L 292.12008 251.801929 
L 292.235128 260.025332 
L 292.350176 254.8642 
L 292.580271 262.98438 
L 292.695319 274.373277 
L 292.925414 263.362863 
L 293.040462 262.881158 
L 293.155509 257.203913 
L 293.270557 264.842388 
L 293.385605 264.39509 
L 293.730748 272.480862 
L 293.960843 253.143823 
L 294.190938 258.029694 
L 294.305986 270.69167 
L 294.421034 266.838025 
L 294.536081 225.721011 
L 294.651129 248.429989 
L 294.766177 247.638616 
L 294.996272 243.028005 
L 295.226367 267.113286 
L 295.57151 211.407472 
L 295.801606 221.041585 
L 296.031701 267.010063 
L 296.376844 202.461511 
L 296.606939 254.072826 
L 296.721987 262.84675 
L 297.297225 235.940051 
L 297.527321 264.635942 
L 297.642368 264.739165 
L 297.757416 242.752745 
L 297.872464 244.851605 
L 297.987511 250.460034 
L 298.102559 248.085914 
L 298.332654 265.220871 
L 298.447702 266.184282 
L 298.677797 256.274909 
L 298.792845 231.432663 
L 298.907893 253.384676 
L 299.02294 251.07937 
L 299.137988 239.552843 
L 299.253036 263.810161 
L 299.368083 260.74789 
L 299.713227 224.998452 
L 299.943322 266.700395 
L 300.173417 246.193499 
L 300.288465 232.843372 
L 300.51856 249.668661 
L 300.633608 247.948284 
L 300.748656 238.279764 
L 300.863703 262.468267 
L 301.093799 212.439699 
L 301.208846 243.681748 
L 301.323894 241.686111 
L 301.438942 194.685406 
L 301.669037 266.528357 
L 302.01418 233.29067 
L 302.129228 221.041585 
L 302.359323 260.025332 
L 302.474371 265.220871 
L 302.704466 215.192302 
L 302.819514 252.662117 
L 302.934561 237.35076 
L 303.049609 198.332606 
L 303.279704 261.848931 
L 303.394752 230.641289 
L 303.5098 233.118632 
L 303.739895 250.700887 
L 303.96999 234.322896 
L 304.085038 256.756615 
L 304.200086 250.80411 
L 304.430181 198.229383 
L 304.545229 204.422741 
L 304.660276 217.772868 
L 304.775324 262.468267 
L 304.890372 250.287997 
L 305.005419 211.063397 
L 305.120467 249.909514 
L 305.235515 245.918239 
L 305.350562 248.911695 
L 305.580658 265.358501 
L 305.810753 246.124684 
L 305.925801 223.07163 
L 306.155896 242.305447 
L 306.270944 242.133409 
L 306.385991 260.988743 
L 306.501039 234.598157 
L 306.731134 247.638616 
L 306.96123 236.490572 
L 307.076277 243.750563 
L 307.191325 233.29067 
L 307.306373 262.296229 
L 307.536468 252.834155 
L 307.766564 243.991416 
L 307.881611 249.599846 
L 307.996659 263.053195 
L 308.111707 198.676681 
L 308.226754 239.484028 
L 308.341802 215.054672 
L 308.45685 230.813327 
L 308.571897 210.616099 
L 308.801993 268.214327 
L 308.91704 263.225233 
L 309.262183 235.079862 
L 309.377231 240.757107 
L 309.492279 229.643471 
L 309.722374 259.681256 
L 309.837422 246.124684 
L 309.952469 291.783494 
L 310.182565 229.161765 
L 310.297612 231.05418 
L 310.41266 255.00183 
L 310.527708 238.8991 
L 310.642755 256.618985 
L 310.757803 243.09682 
L 310.987898 243.440896 
L 311.102946 220.422249 
L 311.333041 267.113286 
L 311.448089 240.275401 
L 311.563137 147.719109 
L 311.678184 248.361174 
L 311.793232 215.914861 
L 312.023327 265.771391 
L 312.138375 269.177738 
L 312.253423 228.95532 
L 312.483518 252.352449 
L 312.598566 228.439206 
L 312.713613 253.384676 
L 312.828661 244.060231 
L 312.943709 265.874614 
L 313.058756 252.90297 
L 313.173804 223.794188 
L 313.288852 247.225725 
L 313.518947 197.265972 
L 313.633995 250.735295 
L 314.094185 228.198354 
L 314.324281 250.735295 
L 314.439328 269.900297 
L 314.554376 265.874614 
L 314.784471 229.884323 
L 314.899519 253.969604 
L 315.129615 232.946595 
L 315.244662 274.33887 
L 315.35971 241.858148 
L 315.474758 248.739657 
L 315.589805 218.013721 
L 315.819901 247.845061 
L 315.934948 256.894245 
L 316.049996 236.352942 
L 316.165044 265.048833 
L 316.280091 244.232269 
L 316.395139 243.888194 
L 316.510187 250.769702 
L 316.625234 239.03673 
L 316.740282 255.173868 
L 316.85533 232.258444 
L 316.970377 260.438222 
L 317.200473 217.807275 
L 317.31552 222.796369 
L 317.660663 263.913384 
L 317.775711 258.78666 
L 318.005806 234.322896 
L 318.581045 270.347595 
L 318.81114 248.361174 
L 318.926188 242.546299 
L 319.041235 216.809457 
L 319.271331 265.08324 
L 319.386378 260.025332 
L 319.501426 241.342035 
L 319.616474 243.303265 
L 319.731521 257.857656 
L 319.846569 246.709612 
L 320.076664 259.233958 
L 320.191712 257.444766 
L 320.30676 246.227907 
L 320.536855 211.682733 
L 320.76695 226.099494 
L 320.881998 269.280961 
L 320.997046 265.117648 
L 321.112093 245.849424 
L 321.227141 250.563257 
L 321.342189 250.081551 
L 321.457236 268.971293 
L 321.572284 260.541445 
L 321.687332 208.448424 
L 321.917427 237.109907 
L 322.032475 238.417394 
L 322.147522 257.995286 
L 322.26257 202.908809 
L 322.377618 246.159091 
L 322.492665 247.569801 
L 322.607713 178.445046 
L 322.837809 241.754926 
L 323.067904 263.706939 
L 323.297999 239.518436 
L 323.413047 238.8991 
L 323.75819 263.362863 
L 324.103333 243.716156 
L 324.333428 250.494442 
L 324.448476 246.434352 
L 324.563524 228.095131 
L 324.678571 266.425135 
L 324.793619 232.430482 
L 325.023714 247.225725 
L 325.138762 252.421264 
L 325.25381 250.872925 
L 325.483905 261.264003 
L 325.598953 238.658247 
L 325.714 241.169998 
L 325.829048 248.636435 
L 325.944096 240.7227 
L 326.059143 247.432171 
L 326.174191 265.048833 
L 326.289239 261.986562 
L 326.634382 223.794188 
L 326.864477 257.307136 
L 326.979525 249.875106 
L 327.094572 235.045455 
L 327.20962 252.042781 
L 327.324668 203.287292 
L 327.439715 248.326767 
L 327.554763 244.197861 
L 327.669811 256.206094 
L 327.784858 255.793204 
L 328.014954 206.211933 
L 328.130001 242.649522 
L 328.245049 231.811146 
L 328.360097 244.92042 
L 328.475144 226.512384 
L 328.70524 261.711301 
L 328.820287 252.90297 
L 328.935335 208.792499 
L 329.050383 251.251408 
L 329.16543 246.74402 
L 329.280478 223.518928 
L 329.395526 263.362863 
L 329.510573 257.892064 
L 329.855716 210.444061 
L 329.970764 207.588235 
L 330.200859 258.92429 
L 330.315907 252.111597 
L 330.430955 208.448424 
L 330.66105 242.339854 
L 330.776098 254.279272 
L 330.891146 227.854278 
L 331.121241 258.78666 
L 331.236289 238.073319 
L 331.351336 239.862511 
L 331.466384 206.349563 
L 331.581432 237.21313 
L 331.696479 205.902265 
L 331.811527 253.419083 
L 331.926575 250.356812 
L 332.041622 211.028989 
L 332.15667 241.169998 
L 332.271718 241.376443 
L 332.386765 240.791515 
L 332.616861 256.894245 
L 332.731908 253.625528 
L 332.962004 237.316353 
L 333.077051 237.041092 
L 333.192099 241.101183 
L 333.307147 199.81213 
L 333.537242 262.812343 
L 333.767337 242.95919 
L 333.882385 241.823741 
L 333.997433 204.732409 
L 334.227528 258.236139 
L 334.457623 268.351957 
L 334.687719 237.970096 
L 334.917814 264.39509 
L 335.147909 268.179919 
L 335.262957 261.091965 
L 335.378005 261.711301 
L 335.493052 255.621166 
L 335.6081 237.935689 
L 335.723148 291.783494 
L 335.953243 249.737476 
L 336.183338 216.018083 
L 336.298386 242.787152 
L 336.413434 222.521109 
L 336.643529 291.783494 
L 336.873624 240.7227 
L 336.988672 235.079862 
L 337.10372 240.585069 
L 337.218767 214.400929 
L 337.448863 267.491769 
L 337.678958 206.556009 
L 337.794006 239.346398 
L 337.909053 239.071137 
L 338.024101 215.914861 
L 338.254197 255.758796 
L 338.369244 233.806783 
L 338.484292 236.249719 
L 338.59934 257.720026 
L 338.714387 250.528849 
L 338.829435 235.458345 
L 339.174578 266.838025 
L 339.519721 236.456164 
L 339.749816 250.528849 
L 339.864864 198.848719 
L 339.979912 246.227907 
L 340.094959 235.974459 
L 340.210007 252.249227 
L 340.440102 210.168801 
L 340.670198 257.10069 
L 340.785245 254.485717 
L 340.900293 240.86033 
L 341.015341 242.855967 
L 341.130388 242.546299 
L 341.245436 236.146496 
L 341.360484 202.874402 
L 341.590579 259.990924 
L 341.935722 210.168801 
L 342.05077 202.839994 
L 342.280865 266.390727 
L 342.51096 241.13559 
L 342.626008 246.262314 
L 342.971151 228.198354 
L 343.086199 251.698706 
L 343.201246 247.879469 
L 343.431342 229.402618 
L 343.546389 181.8858 
L 343.661437 232.671334 
L 343.776485 228.129539 
L 344.00658 260.713482 
L 344.236675 233.806783 
L 344.351723 229.849916 
L 344.466771 198.229383 
L 344.581818 209.687095 
L 344.696866 262.020969 
L 344.811914 258.373769 
L 345.042009 223.794188 
L 345.157057 242.099001 
L 345.272104 216.809457 
L 345.5022 262.055377 
L 345.617248 255.758796 
L 345.732295 222.830777 
L 345.962391 233.910006 
L 346.192486 214.641781 
L 346.307534 257.410358 
L 346.422581 253.247045 
L 346.537629 220.319026 
L 346.652677 236.456164 
L 346.767724 222.658739 
L 346.882772 224.379116 
L 347.112867 254.829792 
L 347.227915 253.143823 
L 347.342963 195.545595 
L 347.45801 209.136574 
L 347.573058 240.757107 
L 347.688106 222.039403 
L 347.918201 251.561076 
L 348.033249 249.840699 
L 348.148296 216.809457 
L 348.263344 237.419575 
L 348.378392 212.542921 
L 348.493439 221.764143 
L 348.608487 202.977624 
L 348.723535 212.130031 
L 348.838582 236.903462 
L 348.95363 195.958485 
L 349.183725 38.578381 
L 349.413821 232.361666 
L 349.643916 255.105053 
L 349.874011 226.787644 
L 350.104107 240.585069 
L 350.219154 239.828103 
L 350.334202 212.783774 
L 350.44925 264.53272 
L 350.794393 198.779904 
L 351.024488 243.200043 
L 351.139536 259.750071 
L 351.254583 258.64903 
L 351.484679 239.828103 
L 351.599726 201.188432 
L 351.714774 241.41085 
L 351.829822 240.137771 
L 351.944869 264.911203 
L 352.059917 257.582396 
L 352.290012 194.100478 
L 352.40506 198.022938 
L 352.520108 249.668661 
L 352.635155 248.84288 
L 352.865251 256.206094 
L 352.980298 243.200043 
L 353.095346 243.165635 
L 353.325442 248.429989 
L 353.555537 267.835844 
L 353.670585 266.803618 
L 353.90068 245.918239 
L 354.015728 218.323389 
L 354.130775 244.438714 
L 354.245823 229.471433 
L 354.360871 249.186955 
L 354.475918 227.613425 
L 354.590966 230.469252 
L 354.706014 246.159091 
L 354.821061 239.690473 
L 354.936109 239.518436 
L 355.051157 243.337673 
L 355.166204 253.281453 
L 355.281252 248.98051 
L 355.3963 188.939346 
L 355.511347 213.67837 
L 355.626395 208.998944 
L 355.741443 179.477272 
L 355.85649 246.055869 
L 355.971538 244.404307 
L 356.086586 257.616803 
L 356.201633 243.681748 
L 356.316681 200.913172 
L 356.776872 263.431678 
L 356.891919 257.169505 
L 357.006967 231.879961 
L 357.237062 238.107726 
L 357.467158 247.088095 
L 357.582205 257.651211 
L 357.697253 253.281453 
L 357.812301 243.440896 
L 357.927348 247.432171 
L 358.157444 236.112089 
L 358.272491 247.535393 
L 358.387539 291.198566 
L 358.732682 202.943217 
L 358.962777 260.851113 
L 359.077825 246.055869 
L 359.30792 256.55017 
L 359.422968 227.613425 
L 359.538016 230.400436 
L 359.768111 242.787152 
L 359.883159 247.053688 
L 359.998206 267.835844 
L 360.113254 229.849916 
L 360.343349 251.389038 
L 360.688492 222.727554 
L 360.918588 254.416902 
L 361.148683 246.778427 
L 361.263731 237.798058 
L 361.493826 257.031875 
L 361.608874 254.8642 
L 361.723922 264.463905 
L 361.954017 234.254081 
L 362.069065 244.438714 
L 362.184112 211.889178 
L 362.529255 255.930834 
L 362.644303 244.232269 
L 362.759351 247.741838 
L 362.874398 234.494934 
L 363.219541 265.633761 
L 363.334589 260.507037 
L 363.79478 216.843864 
L 364.024875 263.741346 
L 364.25497 219.802913 
L 364.370018 240.894737 
L 364.485066 201.566915 
L 364.715161 246.227907 
L 364.830209 262.743527 
L 364.945256 262.055377 
L 365.060304 204.973262 
L 365.175352 209.61828 
L 365.290399 202.530326 
L 365.635542 259.646849 
L 365.75059 262.020969 
L 365.865638 245.05805 
L 365.980685 254.58894 
L 366.210781 215.50197 
L 366.325828 250.219182 
L 366.440876 233.256263 
L 366.555924 236.421757 
L 366.786019 253.659936 
L 366.901067 256.240502 
L 367.016114 243.23445 
L 367.24621 265.977837 
L 367.591353 243.440896 
L 367.7064 202.083028 
L 367.936496 238.348579 
L 368.051543 265.117648 
L 368.166591 264.051014 
L 368.396686 228.439206 
L 368.511734 232.981002 
L 368.626782 193.137067 
L 368.856877 252.283634 
L 368.971925 252.008374 
L 369.086973 218.013721 
L 369.20202 224.103856 
L 369.317068 236.215311 
L 369.432116 231.570293 
L 369.662211 261.057558 
L 369.777259 254.933015 
L 369.892306 233.737968 
L 370.007354 241.858148 
L 370.237449 239.105545 
L 370.352497 220.456656 
L 370.467545 249.565438 
L 370.582592 215.020264 
L 370.812688 233.806783 
L 370.927735 206.108711 
L 371.157831 245.780608 
L 371.272878 248.98051 
L 371.387926 188.388826 
L 371.502974 188.423233 
L 371.618021 186.565226 
L 371.733069 197.025119 
L 371.848117 188.629678 
L 371.963164 208.964537 
L 372.078212 255.483536 
L 372.19326 246.916057 
L 372.308307 206.143118 
L 372.423355 237.109907 
L 372.538403 237.694836 
L 372.65345 243.681748 
L 372.768498 204.594779 
L 372.883546 257.926471 
L 372.998593 222.796369 
L 373.228689 239.243175 
L 373.343736 233.737968 
L 373.458784 239.621658 
L 373.573832 235.664791 
L 373.688879 259.715664 
L 373.803927 251.217 
L 373.918975 228.576837 
L 374.034022 230.331621 
L 374.14907 186.014705 
L 374.494213 251.320223 
L 374.724308 230.056361 
L 374.839356 198.470236 
L 374.954404 235.286308 
L 375.184499 213.884816 
L 375.299547 257.995286 
L 375.414594 250.597665 
L 375.64469 206.383971 
L 375.759737 214.813819 
L 375.989833 248.292359 
L 376.10488 233.56593 
L 376.219928 254.8642 
L 376.334976 246.365537 
L 376.450024 251.389038 
L 376.565071 245.746201 
L 376.680119 205.902265 
L 376.795167 247.604208 
L 376.910214 194.823036 
L 377.14031 252.318042 
L 377.255357 264.326274 
L 377.370405 256.206094 
L 377.485453 216.603011 
L 377.6005 261.264003 
L 377.715548 255.208275 
L 377.830596 256.791022 
L 377.945643 250.769702 
L 378.060691 205.592598 
L 378.290786 232.396074 
L 378.405834 240.378624 
L 378.520882 268.523995 
L 378.635929 260.713482 
L 378.866025 203.906628 
L 378.981072 237.626021 
L 379.09612 212.198846 
L 379.326215 263.225233 
L 379.441263 262.743527 
L 379.556311 242.890375 
L 379.671358 246.021461 
L 379.786406 242.133409 
L 380.131549 272.102379 
L 380.246597 269.040108 
L 380.361644 218.288981 
L 380.476692 233.841191 
L 380.59174 231.363848 
L 380.706787 248.017099 
L 380.821835 246.60639 
L 380.936883 259.990924 
L 381.166978 233.221855 
L 381.282026 232.568112 
L 381.397073 209.583873 
L 381.512121 223.656558 
L 381.627169 204.766816 
L 381.742216 254.657755 
L 381.857264 250.322404 
L 382.087359 232.981002 
L 382.202407 227.579018 
L 382.317455 232.396074 
L 382.432502 228.301576 
L 382.54755 215.742823 
L 382.662598 238.210949 
L 382.777645 230.228399 
L 382.892693 173.834435 
L 383.122788 222.796369 
L 383.467931 255.552351 
L 383.582979 230.125176 
L 383.698027 230.125176 
L 383.813074 198.607866 
L 383.928122 203.45933 
L 384.04317 217.4632 
L 384.158218 203.493737 
L 384.388313 232.808965 
L 384.618408 172.630171 
L 384.848504 230.813327 
L 384.963551 239.965734 
L 385.078599 238.073319 
L 385.193647 230.606882 
L 385.308694 208.276386 
L 385.423742 222.658739 
L 385.53879 187.528637 
L 385.653837 247.879469 
L 385.768885 223.656558 
L 385.883933 242.855967 
L 385.99898 185.292147 
L 386.229076 240.757107 
L 386.344123 231.983183 
L 386.574219 242.924782 
L 386.689266 222.693147 
L 386.804314 233.910006 
L 386.919362 137.672106 
L 387.034409 225.548973 
L 387.149457 221.213622 
L 387.379552 253.006193 
L 387.4946 247.982691 
L 387.609648 227.26935 
L 387.724695 226.959682 
L 387.839743 203.631368 
L 387.954791 223.243667 
L 388.069838 196.474598 
L 388.299934 244.197861 
L 388.530029 223.931818 
L 388.645077 232.636927 
L 388.760124 230.159584 
L 388.875172 235.148677 
L 388.99022 221.729735 
L 389.220315 231.914368 
L 389.335363 203.218477 
L 389.45041 222.899592 
L 389.565458 212.783774 
L 389.680506 216.671827 
L 389.795553 239.793696 
L 390.025649 200.052983 
L 390.140696 208.001126 
L 390.255744 139.358076 
L 390.600887 225.858641 
L 390.715935 216.293344 
L 390.830982 176.793483 
L 391.406221 241.032367 
L 391.866412 208.826907 
L 391.981459 179.442864 
L 392.211555 221.351252 
L 392.326602 231.570293 
L 392.44165 188.595271 
L 392.556698 192.139248 
L 392.671745 167.606669 
L 392.786793 214.745004 
L 392.901841 192.036025 
L 393.016888 245.711793 
L 393.246984 196.990712 
L 393.362031 203.941035 
L 393.477079 203.115254 
L 393.592127 207.553827 
L 393.822222 222.589924 
L 394.052317 208.001126 
L 394.167365 176.242963 
L 394.39746 212.542921 
L 394.512508 192.208063 
L 394.742603 224.207079 
L 394.972699 180.303053 
L 395.202794 203.424922 
L 395.317842 198.504644 
L 395.432889 228.404799 
L 395.547937 218.667464 
L 395.662985 195.683225 
L 395.778032 201.601322 
L 395.89308 152.639388 
L 396.123175 193.79081 
L 396.353271 231.295033 
L 396.583366 170.25605 
L 396.698414 210.788137 
L 396.813461 176.242963 
L 396.928509 220.353434 
L 397.043557 219.252392 
L 397.158604 229.884323 
L 397.273652 212.990219 
L 397.503747 227.647833 
L 397.733843 215.6396 
L 397.84889 230.882142 
L 397.963938 203.837813 
L 398.194033 221.52329 
L 398.309081 207.93231 
L 398.539176 217.18794 
L 398.654224 223.20926 
L 398.884319 221.592105 
L 398.999367 223.587743 
L 399.229462 220.525471 
L 399.34451 195.304742 
L 399.574606 249.324585 
L 399.689653 213.437517 
L 399.919749 220.387841 
L 400.034796 213.196665 
L 400.264892 231.811146 
L 400.379939 233.15304 
L 400.494987 217.979313 
L 400.610035 183.158879 
L 400.725082 212.336476 
L 400.84013 203.803405 
L 400.955178 209.790318 
L 401.070225 244.78279 
L 401.185273 237.006685 
L 401.415368 210.960174 
L 401.530416 202.392696 
L 401.875559 238.555024 
L 401.990607 239.31199 
L 402.105654 171.94202 
L 402.33575 213.196665 
L 402.450797 206.280748 
L 402.680893 234.322896 
L 402.79594 235.355123 
L 403.026036 198.711089 
L 403.256131 216.121306 
L 403.371179 219.596468 
L 403.486226 180.165423 
L 403.601274 238.210949 
L 403.946417 208.792499 
L 404.29156 253.625528 
L 404.406608 243.475303 
L 404.521655 165.438994 
L 404.636703 228.611244 
L 404.866798 226.443569 
L 405.096894 247.15691 
L 405.211941 241.651703 
L 405.557084 211.785955 
L 405.78718 232.396074 
L 406.017275 242.580707 
L 406.24737 178.273008 
L 406.362418 220.903954 
L 406.477466 194.134885 
L 406.707561 218.495426 
L 406.937656 195.235927 
L 407.052704 193.756402 
L 407.167752 195.717632 
L 407.2828 180.887981 
L 407.627943 245.298903 
L 407.74299 212.026808 
L 407.858038 217.015902 
L 408.088133 187.700675 
L 408.318229 233.634746 
L 408.433276 243.853786 
L 408.663372 188.388826 
L 408.778419 232.189629 
L 408.893467 233.325078 
L 409.23861 249.393401 
L 409.353658 224.826414 
L 409.468705 238.004504 
L 409.698801 203.87222 
L 409.813848 208.310793 
L 410.043944 245.402125 
L 410.274039 219.2868 
L 410.389087 231.948776 
L 410.504134 225.755418 
L 410.619182 196.096115 
L 410.73423 235.836828 
L 410.849277 197.644455 
L 411.079373 225.58338 
L 411.19442 210.065578 
L 411.424516 227.338165 
L 411.539563 226.822052 
L 411.654611 215.914861 
L 411.769659 222.899592 
L 411.884706 192.999437 
L 411.999754 227.062905 
L 412.114802 180.19983 
L 412.344897 251.457853 
L 412.69004 224.241486 
L 412.805088 222.899592 
L 412.920135 183.881437 
L 413.150231 255.999649 
L 413.495374 214.572966 
L 413.610421 228.920912 
L 413.725469 220.284619 
L 413.840517 230.056361 
L 413.955564 254.451309 
L 414.415755 196.853081 
L 414.64585 237.041092 
L 414.760898 249.290178 
L 415.106041 183.365324 
L 415.221089 228.370391 
L 415.336137 222.073811 
L 415.566232 236.180904 
L 415.68128 231.983183 
L 415.796327 223.62215 
L 416.026423 234.83901 
L 416.14147 169.636714 
L 416.371566 245.470941 
L 416.486613 223.140445 
L 416.601661 232.051999 
L 416.716709 227.062905 
L 416.946804 236.697017 
L 417.061852 196.543414 
L 417.176899 257.720026 
L 417.291947 252.593302 
L 417.406995 242.443077 
L 417.522042 197.885308 
L 417.752138 244.473122 
L 417.867185 239.759288 
L 417.982233 253.556713 
L 418.097281 243.23445 
L 418.212328 244.129046 
L 418.327376 184.053475 
L 418.442424 214.538559 
L 418.557471 203.115254 
L 418.672519 204.285111 
L 418.787567 263.12201 
L 419.017662 244.025824 
L 419.13271 252.593302 
L 419.247757 251.595483 
L 419.477853 226.684422 
L 419.5929 257.823249 
L 419.707948 211.992401 
L 419.822996 238.520617 
L 419.938043 231.501478 
L 420.168139 247.466578 
L 420.283186 246.640797 
L 420.398234 240.172179 
L 420.513282 186.393188 
L 420.628329 227.26935 
L 421.08852 210.547284 
L 421.203568 222.177034 
L 421.318615 222.314664 
L 421.433663 216.327751 
L 421.548711 231.05418 
L 421.778806 227.888686 
L 421.893854 235.871236 
L 422.008901 254.210457 
L 422.238997 230.778919 
L 422.354044 209.274205 
L 422.469092 222.245849 
L 422.58414 215.708415 
L 422.929283 251.801929 
L 423.044331 209.721503 
L 423.159378 217.394385 
L 423.274426 209.721503 
L 423.389474 234.116451 
L 423.504521 234.942232 
L 423.619569 240.413032 
L 423.849664 233.29067 
L 424.194807 241.582888 
L 424.309855 242.615114 
L 424.424903 218.770687 
L 424.53995 227.062905 
L 424.654998 220.387841 
L 424.770046 226.856459 
L 425.000141 157.766112 
L 425.230236 223.140445 
L 425.345284 241.479666 
L 425.460332 208.930129 
L 425.575379 228.542429 
L 425.690427 197.57564 
L 425.805475 219.768505 
L 425.920522 198.848719 
L 426.03557 240.172179 
L 426.150618 232.912187 
L 426.380713 173.146284 
L 426.495761 231.432663 
L 426.610808 229.058542 
L 426.725856 236.765832 
L 426.840904 236.112089 
L 426.955951 237.935689 
L 427.070999 198.126161 
L 427.186047 221.66092 
L 427.301094 176.242963 
L 427.53119 236.215311 
L 427.646237 231.501478 
L 427.761285 204.353926 
L 427.876333 223.656558 
L 428.106428 211.85477 
L 428.221476 217.291162 
L 428.451571 238.314172 
L 428.566619 234.116451 
L 428.911762 207.037714 
L 429.026809 217.32557 
L 429.141857 180.715943 
L 429.256905 245.780608 
L 429.371952 232.568112 
L 429.602048 182.642766 
L 429.832143 237.832466 
L 430.062239 234.804602 
L 430.177286 249.496623 
L 430.292334 235.595976 
L 430.522429 178.204193 
L 430.637477 233.084225 
L 430.752525 190.14361 
L 430.98262 238.520617 
L 431.212715 193.446735 
L 431.442811 227.062905 
L 431.557858 227.13172 
L 431.672906 237.178723 
L 431.787954 198.986349 
L 431.903001 200.018575 
L 432.018049 220.663102 
L 432.133097 188.560863 
L 432.133097 188.560863 
" style="fill:none;stroke:#1f77b4;stroke-linecap:square;stroke-width:1.5;"/>
   </g>
   <g id="patch_3">
    <path d="M 56.928125 304.44375 
L 56.928125 25.918125 
" style="fill:none;stroke:#000000;stroke-linecap:square;stroke-linejoin:miter;stroke-width:0.8;"/>
   </g>
   <g id="patch_4">
    <path d="M 450 304.44375 
L 450 25.918125 
" style="fill:none;stroke:#000000;stroke-linecap:square;stroke-linejoin:miter;stroke-width:0.8;"/>
   </g>
   <g id="patch_5">
    <path d="M 56.928125 304.44375 
L 450 304.44375 
" style="fill:none;stroke:#000000;stroke-linecap:square;stroke-linejoin:miter;stroke-width:0.8;"/>
   </g>
   <g id="patch_6">
    <path d="M 56.928125 25.918125 
L 450 25.918125 
" style="fill:none;stroke:#000000;stroke-linecap:square;stroke-linejoin:miter;stroke-width:0.8;"/>
   </g>
   <g id="text_20">
    <!-- Total App Downloads by Day (3,170,705) -->
    <defs>
     <path d="M 0.484375 72.90625 
L 67.671875 72.90625 
L 67.671875 58.6875 
L 43.5 58.6875 
L 43.5 0 
L 24.703125 0 
L 24.703125 58.6875 
L 0.484375 58.6875 
z
" id="DejaVuSans-Bold-84"/>
     <path d="M 27.484375 70.21875 
L 27.484375 54.6875 
L 45.515625 54.6875 
L 45.515625 42.1875 
L 27.484375 42.1875 
L 27.484375 19 
Q 27.484375 15.1875 29 13.84375 
Q 30.515625 12.5 35.015625 12.5 
L 44 12.5 
L 44 0 
L 29 0 
Q 18.65625 0 14.328125 4.3125 
Q 10.015625 8.640625 10.015625 19 
L 10.015625 42.1875 
L 1.3125 42.1875 
L 1.3125 54.6875 
L 10.015625 54.6875 
L 10.015625 70.21875 
z
" id="DejaVuSans-Bold-116"/>
     <path d="M 53.421875 13.28125 
L 24.03125 13.28125 
L 19.390625 0 
L 0.484375 0 
L 27.484375 72.90625 
L 49.90625 72.90625 
L 76.90625 0 
L 58.015625 0 
z
M 28.71875 26.8125 
L 48.6875 26.8125 
L 38.71875 55.8125 
z
" id="DejaVuSans-Bold-65"/>
     <path d="M 25.875 7.90625 
L 25.875 -20.796875 
L 8.40625 -20.796875 
L 8.40625 54.6875 
L 25.875 54.6875 
L 25.875 46.6875 
Q 29.5 51.46875 33.890625 53.734375 
Q 38.28125 56 44 56 
Q 54.109375 56 60.59375 47.96875 
Q 67.09375 39.9375 67.09375 27.296875 
Q 67.09375 14.65625 60.59375 6.609375 
Q 54.109375 -1.421875 44 -1.421875 
Q 38.28125 -1.421875 33.890625 0.84375 
Q 29.5 3.125 25.875 7.90625 
z
M 37.5 43.3125 
Q 31.890625 43.3125 28.875 39.1875 
Q 25.875 35.0625 25.875 27.296875 
Q 25.875 19.53125 28.875 15.40625 
Q 31.890625 11.28125 37.5 11.28125 
Q 43.109375 11.28125 46.0625 15.375 
Q 49.03125 19.484375 49.03125 27.296875 
Q 49.03125 35.109375 46.0625 39.203125 
Q 43.109375 43.3125 37.5 43.3125 
z
" id="DejaVuSans-Bold-112"/>
     <path d="M 37.5 11.28125 
Q 43.109375 11.28125 46.0625 15.375 
Q 49.03125 19.484375 49.03125 27.296875 
Q 49.03125 35.109375 46.0625 39.203125 
Q 43.109375 43.3125 37.5 43.3125 
Q 31.890625 43.3125 28.875 39.1875 
Q 25.875 35.0625 25.875 27.296875 
Q 25.875 19.53125 28.875 15.40625 
Q 31.890625 11.28125 37.5 11.28125 
z
M 25.875 46.6875 
Q 29.5 51.46875 33.890625 53.734375 
Q 38.28125 56 44 56 
Q 54.109375 56 60.59375 47.96875 
Q 67.09375 39.9375 67.09375 27.296875 
Q 67.09375 14.65625 60.59375 6.609375 
Q 54.109375 -1.421875 44 -1.421875 
Q 38.28125 -1.421875 33.890625 0.84375 
Q 29.5 3.125 25.875 7.90625 
L 25.875 0 
L 8.40625 0 
L 8.40625 75.984375 
L 25.875 75.984375 
z
" id="DejaVuSans-Bold-98"/>
     <path d="M 1.21875 54.6875 
L 18.703125 54.6875 
L 33.40625 17.578125 
L 45.90625 54.6875 
L 63.375 54.6875 
L 40.375 -5.171875 
Q 36.921875 -14.3125 32.296875 -17.9375 
Q 27.6875 -21.578125 20.125 -21.578125 
L 10.015625 -21.578125 
L 10.015625 -10.109375 
L 15.484375 -10.109375 
Q 19.921875 -10.109375 21.9375 -8.6875 
Q 23.96875 -7.28125 25.09375 -3.609375 
L 25.59375 -2.09375 
z
" id="DejaVuSans-Bold-121"/>
     <path d="M 37.703125 -13.1875 
L 23.1875 -13.1875 
Q 15.71875 -1.125 12.15625 9.734375 
Q 8.59375 20.609375 8.59375 31.296875 
Q 8.59375 42 12.171875 52.953125 
Q 15.765625 63.921875 23.1875 75.875 
L 37.703125 75.875 
Q 31.453125 64.3125 28.328125 53.25 
Q 25.203125 42.1875 25.203125 31.390625 
Q 25.203125 20.609375 28.296875 9.515625 
Q 31.390625 -1.5625 37.703125 -13.1875 
z
" id="DejaVuSans-Bold-40"/>
     <path d="M 46.578125 39.3125 
Q 53.953125 37.40625 57.78125 32.6875 
Q 61.625 27.984375 61.625 20.703125 
Q 61.625 9.859375 53.3125 4.21875 
Q 45.015625 -1.421875 29.109375 -1.421875 
Q 23.484375 -1.421875 17.84375 -0.515625 
Q 12.203125 0.390625 6.6875 2.203125 
L 6.6875 16.703125 
Q 11.96875 14.0625 17.15625 12.71875 
Q 22.359375 11.375 27.390625 11.375 
Q 34.859375 11.375 38.84375 13.953125 
Q 42.828125 16.546875 42.828125 21.390625 
Q 42.828125 26.375 38.75 28.9375 
Q 34.671875 31.5 26.703125 31.5 
L 19.1875 31.5 
L 19.1875 43.609375 
L 27.09375 43.609375 
Q 34.1875 43.609375 37.640625 45.828125 
Q 41.109375 48.046875 41.109375 52.59375 
Q 41.109375 56.78125 37.734375 59.078125 
Q 34.375 61.375 28.21875 61.375 
Q 23.6875 61.375 19.046875 60.34375 
Q 14.40625 59.328125 9.8125 57.328125 
L 9.8125 71.09375 
Q 15.375 72.65625 20.84375 73.4375 
Q 26.3125 74.21875 31.59375 74.21875 
Q 45.796875 74.21875 52.84375 69.546875 
Q 59.90625 64.890625 59.90625 55.515625 
Q 59.90625 49.125 56.53125 45.046875 
Q 53.171875 40.96875 46.578125 39.3125 
z
" id="DejaVuSans-Bold-51"/>
     <path d="M 10.203125 18.890625 
L 27.78125 18.890625 
L 27.78125 4 
L 15.71875 -14.203125 
L 5.328125 -14.203125 
L 10.203125 4 
z
" id="DejaVuSans-Bold-44"/>
     <path d="M 11.71875 12.984375 
L 28.328125 12.984375 
L 28.328125 60.109375 
L 11.28125 56.59375 
L 11.28125 69.390625 
L 28.21875 72.90625 
L 46.09375 72.90625 
L 46.09375 12.984375 
L 62.703125 12.984375 
L 62.703125 0 
L 11.71875 0 
z
" id="DejaVuSans-Bold-49"/>
     <path d="M 6.6875 72.90625 
L 61.625 72.90625 
L 61.625 62.3125 
L 33.203125 0 
L 14.890625 0 
L 41.796875 59.078125 
L 6.6875 59.078125 
z
" id="DejaVuSans-Bold-55"/>
     <path d="M 46 36.53125 
Q 46 50.203125 43.4375 55.78125 
Q 40.875 61.375 34.8125 61.375 
Q 28.765625 61.375 26.171875 55.78125 
Q 23.578125 50.203125 23.578125 36.53125 
Q 23.578125 22.703125 26.171875 17.03125 
Q 28.765625 11.375 34.8125 11.375 
Q 40.828125 11.375 43.40625 17.03125 
Q 46 22.703125 46 36.53125 
z
M 64.796875 36.375 
Q 64.796875 18.265625 56.984375 8.421875 
Q 49.171875 -1.421875 34.8125 -1.421875 
Q 20.40625 -1.421875 12.59375 8.421875 
Q 4.78125 18.265625 4.78125 36.375 
Q 4.78125 54.546875 12.59375 64.375 
Q 20.40625 74.21875 34.8125 74.21875 
Q 49.171875 74.21875 56.984375 64.375 
Q 64.796875 54.546875 64.796875 36.375 
z
" id="DejaVuSans-Bold-48"/>
     <path d="M 10.59375 72.90625 
L 57.328125 72.90625 
L 57.328125 59.078125 
L 25.59375 59.078125 
L 25.59375 47.796875 
Q 27.734375 48.390625 29.90625 48.703125 
Q 32.078125 49.03125 34.421875 49.03125 
Q 47.75 49.03125 55.171875 42.359375 
Q 62.59375 35.6875 62.59375 23.78125 
Q 62.59375 11.96875 54.515625 5.265625 
Q 46.4375 -1.421875 32.078125 -1.421875 
Q 25.875 -1.421875 19.796875 -0.21875 
Q 13.71875 0.984375 7.71875 3.421875 
L 7.71875 18.21875 
Q 13.671875 14.796875 19.015625 13.078125 
Q 24.359375 11.375 29.109375 11.375 
Q 35.9375 11.375 39.859375 14.71875 
Q 43.796875 18.0625 43.796875 23.78125 
Q 43.796875 29.546875 39.859375 32.859375 
Q 35.9375 36.1875 29.109375 36.1875 
Q 25.046875 36.1875 20.453125 35.125 
Q 15.875 34.078125 10.59375 31.890625 
z
" id="DejaVuSans-Bold-53"/>
     <path d="M 8.015625 -13.1875 
Q 14.265625 -1.5625 17.390625 9.515625 
Q 20.515625 20.609375 20.515625 31.390625 
Q 20.515625 42.1875 17.390625 53.25 
Q 14.265625 64.3125 8.015625 75.875 
L 22.515625 75.875 
Q 29.9375 63.921875 33.515625 52.953125 
Q 37.109375 42 37.109375 31.296875 
Q 37.109375 20.609375 33.546875 9.734375 
Q 29.984375 -1.125 22.515625 -13.1875 
z
" id="DejaVuSans-Bold-41"/>
    </defs>
    <g transform="translate(115.189375 19.918125)scale(0.12 -0.12)">
     <use xlink:href="#DejaVuSans-Bold-84"/>
     <use x="68.009766" xlink:href="#DejaVuSans-Bold-111"/>
     <use x="136.710938" xlink:href="#DejaVuSans-Bold-116"/>
     <use x="184.513672" xlink:href="#DejaVuSans-Bold-97"/>
     <use x="251.994141" xlink:href="#DejaVuSans-Bold-108"/>
     <use x="286.271484" xlink:href="#DejaVuSans-Bold-32"/>
     <use x="321.085938" xlink:href="#DejaVuSans-Bold-65"/>
     <use x="398.478516" xlink:href="#DejaVuSans-Bold-112"/>
     <use x="470.060547" xlink:href="#DejaVuSans-Bold-112"/>
     <use x="541.642578" xlink:href="#DejaVuSans-Bold-32"/>
     <use x="576.457031" xlink:href="#DejaVuSans-Bold-68"/>
     <use x="659.464844" xlink:href="#DejaVuSans-Bold-111"/>
     <use x="728.166016" xlink:href="#DejaVuSans-Bold-119"/>
     <use x="820.548828" xlink:href="#DejaVuSans-Bold-110"/>
     <use x="891.740234" xlink:href="#DejaVuSans-Bold-108"/>
     <use x="926.017578" xlink:href="#DejaVuSans-Bold-111"/>
     <use x="994.71875" xlink:href="#DejaVuSans-Bold-97"/>
     <use x="1062.199219" xlink:href="#DejaVuSans-Bold-100"/>
     <use x="1133.78125" xlink:href="#DejaVuSans-Bold-115"/>
     <use x="1193.302734" xlink:href="#DejaVuSans-Bold-32"/>
     <use x="1228.117188" xlink:href="#DejaVuSans-Bold-98"/>
     <use x="1299.699219" xlink:href="#DejaVuSans-Bold-121"/>
     <use x="1364.884766" xlink:href="#DejaVuSans-Bold-32"/>
     <use x="1399.699219" xlink:href="#DejaVuSans-Bold-68"/>
     <use x="1482.707031" xlink:href="#DejaVuSans-Bold-97"/>
     <use x="1550.140625" xlink:href="#DejaVuSans-Bold-121"/>
     <use x="1615.326172" xlink:href="#DejaVuSans-Bold-32"/>
     <use x="1650.140625" xlink:href="#DejaVuSans-Bold-40"/>
     <use x="1695.84375" xlink:href="#DejaVuSans-Bold-51"/>
     <use x="1765.423828" xlink:href="#DejaVuSans-Bold-44"/>
     <use x="1803.412109" xlink:href="#DejaVuSans-Bold-49"/>
     <use x="1872.992188" xlink:href="#DejaVuSans-Bold-55"/>
     <use x="1942.572266" xlink:href="#DejaVuSans-Bold-48"/>
     <use x="2012.152344" xlink:href="#DejaVuSans-Bold-44"/>
     <use x="2050.140625" xlink:href="#DejaVuSans-Bold-55"/>
     <use x="2119.720703" xlink:href="#DejaVuSans-Bold-48"/>
     <use x="2189.300781" xlink:href="#DejaVuSans-Bold-53"/>
     <use x="2258.880859" xlink:href="#DejaVuSans-Bold-41"/>
    </g>
   </g>
  </g>
  <g id="patch_7">
   <path d="M 0 345.6 
L 460.8 345.6 
L 460.8 0 
L 0 0 
z
" style="fill:none;stroke:#000000;stroke-linejoin:miter;stroke-width:2;"/>
  </g>
 </g>
 <defs>
  <clipPath id="p435ffb51cd">
   <rect height="278.525625" width="393.071875" x="56.928125" y="25.918125"/>
  </clipPath>
 </defs>
</svg>
