<?xml version="1.0" encoding="utf-8" standalone="no"?>
<!DOCTYPE svg PUBLIC "-//W3C//DTD SVG 1.1//EN"
  "http://www.w3.org/Graphics/SVG/1.1/DTD/svg11.dtd">
<!-- Created with matplotlib (https://matplotlib.org/) -->
<svg height="345.6pt" version="1.1" viewBox="0 0 460.8 345.6" width="460.8pt" xmlns="http://www.w3.org/2000/svg" xmlns:xlink="http://www.w3.org/1999/xlink">
 <defs>
  <style type="text/css">
*{stroke-linecap:butt;stroke-linejoin:round;}
  </style>
 </defs>
 <g id="figure_1">
  <g id="patch_1">
   <path d="M 0 345.6 
L 460.8 345.6 
L 460.8 0 
L 0 0 
z
" style="fill:#ffffff;"/>
  </g>
  <g id="axes_1">
   <g id="patch_2">
    <path d="M 63.290625 304.44375 
L 450 304.44375 
L 450 25.918125 
L 63.290625 25.918125 
z
" style="fill:#ffffff;"/>
   </g>
   <g id="matplotlib.axis_1">
    <g id="xtick_1">
     <g id="line2d_1">
      <defs>
       <path d="M 0 0 
L 0 3.5 
" id="mc65429e1b6" style="stroke:#000000;stroke-width:0.8;"/>
      </defs>
      <g>
       <use style="stroke:#000000;stroke-width:0.8;" x="124.863179" xlink:href="#mc65429e1b6" y="304.44375"/>
      </g>
     </g>
     <g id="text_1">
      <!-- 2015 -->
      <defs>
       <path d="M 19.1875 8.296875 
L 53.609375 8.296875 
L 53.609375 0 
L 7.328125 0 
L 7.328125 8.296875 
Q 12.9375 14.109375 22.625 23.890625 
Q 32.328125 33.6875 34.8125 36.53125 
Q 39.546875 41.84375 41.421875 45.53125 
Q 43.3125 49.21875 43.3125 52.78125 
Q 43.3125 58.59375 39.234375 62.25 
Q 35.15625 65.921875 28.609375 65.921875 
Q 23.96875 65.921875 18.8125 64.3125 
Q 13.671875 62.703125 7.8125 59.421875 
L 7.8125 69.390625 
Q 13.765625 71.78125 18.9375 73 
Q 24.125 74.21875 28.421875 74.21875 
Q 39.75 74.21875 46.484375 68.546875 
Q 53.21875 62.890625 53.21875 53.421875 
Q 53.21875 48.921875 51.53125 44.890625 
Q 49.859375 40.875 45.40625 35.40625 
Q 44.1875 33.984375 37.640625 27.21875 
Q 31.109375 20.453125 19.1875 8.296875 
z
" id="DejaVuSans-50"/>
       <path d="M 31.78125 66.40625 
Q 24.171875 66.40625 20.328125 58.90625 
Q 16.5 51.421875 16.5 36.375 
Q 16.5 21.390625 20.328125 13.890625 
Q 24.171875 6.390625 31.78125 6.390625 
Q 39.453125 6.390625 43.28125 13.890625 
Q 47.125 21.390625 47.125 36.375 
Q 47.125 51.421875 43.28125 58.90625 
Q 39.453125 66.40625 31.78125 66.40625 
z
M 31.78125 74.21875 
Q 44.046875 74.21875 50.515625 64.515625 
Q 56.984375 54.828125 56.984375 36.375 
Q 56.984375 17.96875 50.515625 8.265625 
Q 44.046875 -1.421875 31.78125 -1.421875 
Q 19.53125 -1.421875 13.0625 8.265625 
Q 6.59375 17.96875 6.59375 36.375 
Q 6.59375 54.828125 13.0625 64.515625 
Q 19.53125 74.21875 31.78125 74.21875 
z
" id="DejaVuSans-48"/>
       <path d="M 12.40625 8.296875 
L 28.515625 8.296875 
L 28.515625 63.921875 
L 10.984375 60.40625 
L 10.984375 69.390625 
L 28.421875 72.90625 
L 38.28125 72.90625 
L 38.28125 8.296875 
L 54.390625 8.296875 
L 54.390625 0 
L 12.40625 0 
z
" id="DejaVuSans-49"/>
       <path d="M 10.796875 72.90625 
L 49.515625 72.90625 
L 49.515625 64.59375 
L 19.828125 64.59375 
L 19.828125 46.734375 
Q 21.96875 47.46875 24.109375 47.828125 
Q 26.265625 48.1875 28.421875 48.1875 
Q 40.625 48.1875 47.75 41.5 
Q 54.890625 34.8125 54.890625 23.390625 
Q 54.890625 11.625 47.5625 5.09375 
Q 40.234375 -1.421875 26.90625 -1.421875 
Q 22.3125 -1.421875 17.546875 -0.640625 
Q 12.796875 0.140625 7.71875 1.703125 
L 7.71875 11.625 
Q 12.109375 9.234375 16.796875 8.0625 
Q 21.484375 6.890625 26.703125 6.890625 
Q 35.15625 6.890625 40.078125 11.328125 
Q 45.015625 15.765625 45.015625 23.390625 
Q 45.015625 31 40.078125 35.4375 
Q 35.15625 39.890625 26.703125 39.890625 
Q 22.75 39.890625 18.8125 39.015625 
Q 14.890625 38.140625 10.796875 36.28125 
z
" id="DejaVuSans-53"/>
      </defs>
      <g transform="translate(112.138179 319.042187)scale(0.1 -0.1)">
       <use xlink:href="#DejaVuSans-50"/>
       <use x="63.623047" xlink:href="#DejaVuSans-48"/>
       <use x="127.246094" xlink:href="#DejaVuSans-49"/>
       <use x="190.869141" xlink:href="#DejaVuSans-53"/>
      </g>
     </g>
    </g>
    <g id="xtick_2">
     <g id="line2d_2">
      <g>
       <use style="stroke:#000000;stroke-width:0.8;" x="174.121221" xlink:href="#mc65429e1b6" y="304.44375"/>
      </g>
     </g>
     <g id="text_2">
      <!-- 2016 -->
      <defs>
       <path d="M 33.015625 40.375 
Q 26.375 40.375 22.484375 35.828125 
Q 18.609375 31.296875 18.609375 23.390625 
Q 18.609375 15.53125 22.484375 10.953125 
Q 26.375 6.390625 33.015625 6.390625 
Q 39.65625 6.390625 43.53125 10.953125 
Q 47.40625 15.53125 47.40625 23.390625 
Q 47.40625 31.296875 43.53125 35.828125 
Q 39.65625 40.375 33.015625 40.375 
z
M 52.59375 71.296875 
L 52.59375 62.3125 
Q 48.875 64.0625 45.09375 64.984375 
Q 41.3125 65.921875 37.59375 65.921875 
Q 27.828125 65.921875 22.671875 59.328125 
Q 17.53125 52.734375 16.796875 39.40625 
Q 19.671875 43.65625 24.015625 45.921875 
Q 28.375 48.1875 33.59375 48.1875 
Q 44.578125 48.1875 50.953125 41.515625 
Q 57.328125 34.859375 57.328125 23.390625 
Q 57.328125 12.15625 50.6875 5.359375 
Q 44.046875 -1.421875 33.015625 -1.421875 
Q 20.359375 -1.421875 13.671875 8.265625 
Q 6.984375 17.96875 6.984375 36.375 
Q 6.984375 53.65625 15.1875 63.9375 
Q 23.390625 74.21875 37.203125 74.21875 
Q 40.921875 74.21875 44.703125 73.484375 
Q 48.484375 72.75 52.59375 71.296875 
z
" id="DejaVuSans-54"/>
      </defs>
      <g transform="translate(161.396221 319.042187)scale(0.1 -0.1)">
       <use xlink:href="#DejaVuSans-50"/>
       <use x="63.623047" xlink:href="#DejaVuSans-48"/>
       <use x="127.246094" xlink:href="#DejaVuSans-49"/>
       <use x="190.869141" xlink:href="#DejaVuSans-54"/>
      </g>
     </g>
    </g>
    <g id="xtick_3">
     <g id="line2d_3">
      <g>
       <use style="stroke:#000000;stroke-width:0.8;" x="223.514218" xlink:href="#mc65429e1b6" y="304.44375"/>
      </g>
     </g>
     <g id="text_3">
      <!-- 2017 -->
      <defs>
       <path d="M 8.203125 72.90625 
L 55.078125 72.90625 
L 55.078125 68.703125 
L 28.609375 0 
L 18.3125 0 
L 43.21875 64.59375 
L 8.203125 64.59375 
z
" id="DejaVuSans-55"/>
      </defs>
      <g transform="translate(210.789218 319.042187)scale(0.1 -0.1)">
       <use xlink:href="#DejaVuSans-50"/>
       <use x="63.623047" xlink:href="#DejaVuSans-48"/>
       <use x="127.246094" xlink:href="#DejaVuSans-49"/>
       <use x="190.869141" xlink:href="#DejaVuSans-55"/>
      </g>
     </g>
    </g>
    <g id="xtick_4">
     <g id="line2d_4">
      <g>
       <use style="stroke:#000000;stroke-width:0.8;" x="272.772261" xlink:href="#mc65429e1b6" y="304.44375"/>
      </g>
     </g>
     <g id="text_4">
      <!-- 2018 -->
      <defs>
       <path d="M 31.78125 34.625 
Q 24.75 34.625 20.71875 30.859375 
Q 16.703125 27.09375 16.703125 20.515625 
Q 16.703125 13.921875 20.71875 10.15625 
Q 24.75 6.390625 31.78125 6.390625 
Q 38.8125 6.390625 42.859375 10.171875 
Q 46.921875 13.96875 46.921875 20.515625 
Q 46.921875 27.09375 42.890625 30.859375 
Q 38.875 34.625 31.78125 34.625 
z
M 21.921875 38.8125 
Q 15.578125 40.375 12.03125 44.71875 
Q 8.5 49.078125 8.5 55.328125 
Q 8.5 64.0625 14.71875 69.140625 
Q 20.953125 74.21875 31.78125 74.21875 
Q 42.671875 74.21875 48.875 69.140625 
Q 55.078125 64.0625 55.078125 55.328125 
Q 55.078125 49.078125 51.53125 44.71875 
Q 48 40.375 41.703125 38.8125 
Q 48.828125 37.15625 52.796875 32.3125 
Q 56.78125 27.484375 56.78125 20.515625 
Q 56.78125 9.90625 50.3125 4.234375 
Q 43.84375 -1.421875 31.78125 -1.421875 
Q 19.734375 -1.421875 13.25 4.234375 
Q 6.78125 9.90625 6.78125 20.515625 
Q 6.78125 27.484375 10.78125 32.3125 
Q 14.796875 37.15625 21.921875 38.8125 
z
M 18.3125 54.390625 
Q 18.3125 48.734375 21.84375 45.5625 
Q 25.390625 42.390625 31.78125 42.390625 
Q 38.140625 42.390625 41.71875 45.5625 
Q 45.3125 48.734375 45.3125 54.390625 
Q 45.3125 60.0625 41.71875 63.234375 
Q 38.140625 66.40625 31.78125 66.40625 
Q 25.390625 66.40625 21.84375 63.234375 
Q 18.3125 60.0625 18.3125 54.390625 
z
" id="DejaVuSans-56"/>
      </defs>
      <g transform="translate(260.047261 319.042187)scale(0.1 -0.1)">
       <use xlink:href="#DejaVuSans-50"/>
       <use x="63.623047" xlink:href="#DejaVuSans-48"/>
       <use x="127.246094" xlink:href="#DejaVuSans-49"/>
       <use x="190.869141" xlink:href="#DejaVuSans-56"/>
      </g>
     </g>
    </g>
    <g id="xtick_5">
     <g id="line2d_5">
      <g>
       <use style="stroke:#000000;stroke-width:0.8;" x="322.030304" xlink:href="#mc65429e1b6" y="304.44375"/>
      </g>
     </g>
     <g id="text_5">
      <!-- 2019 -->
      <defs>
       <path d="M 10.984375 1.515625 
L 10.984375 10.5 
Q 14.703125 8.734375 18.5 7.8125 
Q 22.3125 6.890625 25.984375 6.890625 
Q 35.75 6.890625 40.890625 13.453125 
Q 46.046875 20.015625 46.78125 33.40625 
Q 43.953125 29.203125 39.59375 26.953125 
Q 35.25 24.703125 29.984375 24.703125 
Q 19.046875 24.703125 12.671875 31.3125 
Q 6.296875 37.9375 6.296875 49.421875 
Q 6.296875 60.640625 12.9375 67.421875 
Q 19.578125 74.21875 30.609375 74.21875 
Q 43.265625 74.21875 49.921875 64.515625 
Q 56.59375 54.828125 56.59375 36.375 
Q 56.59375 19.140625 48.40625 8.859375 
Q 40.234375 -1.421875 26.421875 -1.421875 
Q 22.703125 -1.421875 18.890625 -0.6875 
Q 15.09375 0.046875 10.984375 1.515625 
z
M 30.609375 32.421875 
Q 37.25 32.421875 41.125 36.953125 
Q 45.015625 41.5 45.015625 49.421875 
Q 45.015625 57.28125 41.125 61.84375 
Q 37.25 66.40625 30.609375 66.40625 
Q 23.96875 66.40625 20.09375 61.84375 
Q 16.21875 57.28125 16.21875 49.421875 
Q 16.21875 41.5 20.09375 36.953125 
Q 23.96875 32.421875 30.609375 32.421875 
z
" id="DejaVuSans-57"/>
      </defs>
      <g transform="translate(309.305304 319.042187)scale(0.1 -0.1)">
       <use xlink:href="#DejaVuSans-50"/>
       <use x="63.623047" xlink:href="#DejaVuSans-48"/>
       <use x="127.246094" xlink:href="#DejaVuSans-49"/>
       <use x="190.869141" xlink:href="#DejaVuSans-57"/>
      </g>
     </g>
    </g>
    <g id="xtick_6">
     <g id="line2d_6">
      <g>
       <use style="stroke:#000000;stroke-width:0.8;" x="370.613579" xlink:href="#mc65429e1b6" y="304.44375"/>
      </g>
     </g>
     <g id="text_6">
      <!-- 2020 -->
      <g transform="translate(357.888579 319.042187)scale(0.1 -0.1)">
       <use xlink:href="#DejaVuSans-50"/>
       <use x="63.623047" xlink:href="#DejaVuSans-48"/>
       <use x="127.246094" xlink:href="#DejaVuSans-50"/>
       <use x="190.869141" xlink:href="#DejaVuSans-48"/>
      </g>
     </g>
    </g>
    <g id="xtick_7">
     <g id="line2d_7">
      <g>
       <use style="stroke:#000000;stroke-width:0.8;" x="417.577412" xlink:href="#mc65429e1b6" y="304.44375"/>
      </g>
     </g>
     <g id="text_7">
      <!-- 2021 -->
      <g transform="translate(404.852412 319.042187)scale(0.1 -0.1)">
       <use xlink:href="#DejaVuSans-50"/>
       <use x="63.623047" xlink:href="#DejaVuSans-48"/>
       <use x="127.246094" xlink:href="#DejaVuSans-50"/>
       <use x="190.869141" xlink:href="#DejaVuSans-49"/>
      </g>
     </g>
    </g>
    <g id="text_8">
     <!-- Year -->
     <defs>
      <path d="M -0.984375 72.90625 
L 19.578125 72.90625 
L 36.1875 46.921875 
L 52.78125 72.90625 
L 73.390625 72.90625 
L 45.609375 30.71875 
L 45.609375 0 
L 26.8125 0 
L 26.8125 30.71875 
z
" id="DejaVuSans-Bold-89"/>
      <path d="M 62.984375 27.484375 
L 62.984375 22.515625 
L 22.125 22.515625 
Q 22.75 16.359375 26.5625 13.28125 
Q 30.375 10.203125 37.203125 10.203125 
Q 42.71875 10.203125 48.5 11.84375 
Q 54.296875 13.484375 60.40625 16.796875 
L 60.40625 3.328125 
Q 54.203125 0.984375 48 -0.21875 
Q 41.796875 -1.421875 35.59375 -1.421875 
Q 20.75 -1.421875 12.515625 6.125 
Q 4.296875 13.671875 4.296875 27.296875 
Q 4.296875 40.671875 12.375 48.328125 
Q 20.453125 56 34.625 56 
Q 47.515625 56 55.25 48.234375 
Q 62.984375 40.484375 62.984375 27.484375 
z
M 45.015625 33.296875 
Q 45.015625 38.28125 42.109375 41.328125 
Q 39.203125 44.390625 34.515625 44.390625 
Q 29.4375 44.390625 26.265625 41.53125 
Q 23.09375 38.671875 22.3125 33.296875 
z
" id="DejaVuSans-Bold-101"/>
      <path d="M 32.90625 24.609375 
Q 27.4375 24.609375 24.671875 22.75 
Q 21.921875 20.90625 21.921875 17.28125 
Q 21.921875 13.96875 24.140625 12.078125 
Q 26.375 10.203125 30.328125 10.203125 
Q 35.25 10.203125 38.625 13.734375 
Q 42 17.28125 42 22.609375 
L 42 24.609375 
z
M 59.625 31.203125 
L 59.625 0 
L 42 0 
L 42 8.109375 
Q 38.484375 3.125 34.078125 0.84375 
Q 29.6875 -1.421875 23.390625 -1.421875 
Q 14.890625 -1.421875 9.59375 3.53125 
Q 4.296875 8.5 4.296875 16.40625 
Q 4.296875 26.03125 10.90625 30.515625 
Q 17.53125 35.015625 31.6875 35.015625 
L 42 35.015625 
L 42 36.375 
Q 42 40.53125 38.71875 42.453125 
Q 35.453125 44.390625 28.515625 44.390625 
Q 22.90625 44.390625 18.0625 43.265625 
Q 13.234375 42.140625 9.078125 39.890625 
L 9.078125 53.21875 
Q 14.703125 54.59375 20.359375 55.296875 
Q 26.03125 56 31.6875 56 
Q 46.484375 56 53.046875 50.171875 
Q 59.625 44.34375 59.625 31.203125 
z
" id="DejaVuSans-Bold-97"/>
      <path d="M 49.03125 39.796875 
Q 46.734375 40.875 44.453125 41.375 
Q 42.1875 41.890625 39.890625 41.890625 
Q 33.15625 41.890625 29.515625 37.5625 
Q 25.875 33.25 25.875 25.203125 
L 25.875 0 
L 8.40625 0 
L 8.40625 54.6875 
L 25.875 54.6875 
L 25.875 45.703125 
Q 29.25 51.078125 33.609375 53.53125 
Q 37.984375 56 44.09375 56 
Q 44.96875 56 45.984375 55.921875 
Q 47.015625 55.859375 48.96875 55.609375 
z
" id="DejaVuSans-Bold-114"/>
     </defs>
     <g transform="translate(243.800781 332.720312)scale(0.1 -0.1)">
      <use xlink:href="#DejaVuSans-Bold-89"/>
      <use x="72.271484" xlink:href="#DejaVuSans-Bold-101"/>
      <use x="140.09375" xlink:href="#DejaVuSans-Bold-97"/>
      <use x="207.574219" xlink:href="#DejaVuSans-Bold-114"/>
     </g>
    </g>
   </g>
   <g id="matplotlib.axis_2">
    <g id="ytick_1">
     <g id="line2d_8">
      <defs>
       <path d="M 0 0 
L -3.5 0 
" id="maba2dcb858" style="stroke:#000000;stroke-width:0.8;"/>
      </defs>
      <g>
       <use style="stroke:#000000;stroke-width:0.8;" x="63.290625" xlink:href="#maba2dcb858" y="292.722023"/>
      </g>
     </g>
     <g id="text_9">
      <!-- 0 -->
      <g transform="translate(49.928125 296.521242)scale(0.1 -0.1)">
       <use xlink:href="#DejaVuSans-48"/>
      </g>
     </g>
    </g>
    <g id="ytick_2">
     <g id="line2d_9">
      <g>
       <use style="stroke:#000000;stroke-width:0.8;" x="63.290625" xlink:href="#maba2dcb858" y="243.325785"/>
      </g>
     </g>
     <g id="text_10">
      <!-- 2000 -->
      <g transform="translate(30.840625 247.125004)scale(0.1 -0.1)">
       <use xlink:href="#DejaVuSans-50"/>
       <use x="63.623047" xlink:href="#DejaVuSans-48"/>
       <use x="127.246094" xlink:href="#DejaVuSans-48"/>
       <use x="190.869141" xlink:href="#DejaVuSans-48"/>
      </g>
     </g>
    </g>
    <g id="ytick_3">
     <g id="line2d_10">
      <g>
       <use style="stroke:#000000;stroke-width:0.8;" x="63.290625" xlink:href="#maba2dcb858" y="193.929548"/>
      </g>
     </g>
     <g id="text_11">
      <!-- 4000 -->
      <defs>
       <path d="M 37.796875 64.3125 
L 12.890625 25.390625 
L 37.796875 25.390625 
z
M 35.203125 72.90625 
L 47.609375 72.90625 
L 47.609375 25.390625 
L 58.015625 25.390625 
L 58.015625 17.1875 
L 47.609375 17.1875 
L 47.609375 0 
L 37.796875 0 
L 37.796875 17.1875 
L 4.890625 17.1875 
L 4.890625 26.703125 
z
" id="DejaVuSans-52"/>
      </defs>
      <g transform="translate(30.840625 197.728766)scale(0.1 -0.1)">
       <use xlink:href="#DejaVuSans-52"/>
       <use x="63.623047" xlink:href="#DejaVuSans-48"/>
       <use x="127.246094" xlink:href="#DejaVuSans-48"/>
       <use x="190.869141" xlink:href="#DejaVuSans-48"/>
      </g>
     </g>
    </g>
    <g id="ytick_4">
     <g id="line2d_11">
      <g>
       <use style="stroke:#000000;stroke-width:0.8;" x="63.290625" xlink:href="#maba2dcb858" y="144.53331"/>
      </g>
     </g>
     <g id="text_12">
      <!-- 6000 -->
      <g transform="translate(30.840625 148.332529)scale(0.1 -0.1)">
       <use xlink:href="#DejaVuSans-54"/>
       <use x="63.623047" xlink:href="#DejaVuSans-48"/>
       <use x="127.246094" xlink:href="#DejaVuSans-48"/>
       <use x="190.869141" xlink:href="#DejaVuSans-48"/>
      </g>
     </g>
    </g>
    <g id="ytick_5">
     <g id="line2d_12">
      <g>
       <use style="stroke:#000000;stroke-width:0.8;" x="63.290625" xlink:href="#maba2dcb858" y="95.137073"/>
      </g>
     </g>
     <g id="text_13">
      <!-- 8000 -->
      <g transform="translate(30.840625 98.936291)scale(0.1 -0.1)">
       <use xlink:href="#DejaVuSans-56"/>
       <use x="63.623047" xlink:href="#DejaVuSans-48"/>
       <use x="127.246094" xlink:href="#DejaVuSans-48"/>
       <use x="190.869141" xlink:href="#DejaVuSans-48"/>
      </g>
     </g>
    </g>
    <g id="ytick_6">
     <g id="line2d_13">
      <g>
       <use style="stroke:#000000;stroke-width:0.8;" x="63.290625" xlink:href="#maba2dcb858" y="45.740835"/>
      </g>
     </g>
     <g id="text_14">
      <!-- 10000 -->
      <g transform="translate(24.478125 49.540054)scale(0.1 -0.1)">
       <use xlink:href="#DejaVuSans-49"/>
       <use x="63.623047" xlink:href="#DejaVuSans-48"/>
       <use x="127.246094" xlink:href="#DejaVuSans-48"/>
       <use x="190.869141" xlink:href="#DejaVuSans-48"/>
       <use x="254.492188" xlink:href="#DejaVuSans-48"/>
      </g>
     </g>
    </g>
    <g id="text_15">
     <!-- # Starts -->
     <defs>
      <path d="M 44.484375 71.78125 
L 39.796875 52.984375 
L 52.6875 52.984375 
L 57.421875 71.78125 
L 68.21875 71.78125 
L 63.484375 52.984375 
L 77 52.984375 
L 77 42.578125 
L 60.890625 42.578125 
L 57.515625 29.203125 
L 71.390625 29.203125 
L 71.390625 18.703125 
L 54.984375 18.703125 
L 50.296875 0 
L 39.5 0 
L 44.1875 18.703125 
L 31.296875 18.703125 
L 26.609375 0 
L 15.71875 0 
L 20.40625 18.703125 
L 6.78125 18.703125 
L 6.78125 29.203125 
L 22.796875 29.203125 
L 26.21875 42.578125 
L 12.40625 42.578125 
L 12.40625 52.984375 
L 28.90625 52.984375 
L 33.59375 71.78125 
z
M 50 42.578125 
L 37.109375 42.578125 
L 33.6875 29.203125 
L 46.578125 29.203125 
z
" id="DejaVuSans-Bold-35"/>
      <path id="DejaVuSans-Bold-32"/>
      <path d="M 59.90625 70.609375 
L 59.90625 55.171875 
Q 53.90625 57.859375 48.1875 59.21875 
Q 42.484375 60.59375 37.40625 60.59375 
Q 30.671875 60.59375 27.4375 58.734375 
Q 24.21875 56.890625 24.21875 52.984375 
Q 24.21875 50.046875 26.390625 48.40625 
Q 28.5625 46.78125 34.28125 45.609375 
L 42.28125 44 
Q 54.4375 41.546875 59.5625 36.5625 
Q 64.703125 31.59375 64.703125 22.40625 
Q 64.703125 10.359375 57.546875 4.46875 
Q 50.390625 -1.421875 35.6875 -1.421875 
Q 28.765625 -1.421875 21.78125 -0.09375 
Q 14.796875 1.21875 7.8125 3.8125 
L 7.8125 19.671875 
Q 14.796875 15.96875 21.3125 14.078125 
Q 27.828125 12.203125 33.890625 12.203125 
Q 40.046875 12.203125 43.3125 14.25 
Q 46.578125 16.3125 46.578125 20.125 
Q 46.578125 23.53125 44.359375 25.390625 
Q 42.140625 27.25 35.5 28.71875 
L 28.21875 30.328125 
Q 17.28125 32.671875 12.21875 37.796875 
Q 7.171875 42.921875 7.171875 51.609375 
Q 7.171875 62.5 14.203125 68.359375 
Q 21.234375 74.21875 34.421875 74.21875 
Q 40.4375 74.21875 46.78125 73.3125 
Q 53.125 72.40625 59.90625 70.609375 
z
" id="DejaVuSans-Bold-83"/>
      <path d="M 27.484375 70.21875 
L 27.484375 54.6875 
L 45.515625 54.6875 
L 45.515625 42.1875 
L 27.484375 42.1875 
L 27.484375 19 
Q 27.484375 15.1875 29 13.84375 
Q 30.515625 12.5 35.015625 12.5 
L 44 12.5 
L 44 0 
L 29 0 
Q 18.65625 0 14.328125 4.3125 
Q 10.015625 8.640625 10.015625 19 
L 10.015625 42.1875 
L 1.3125 42.1875 
L 1.3125 54.6875 
L 10.015625 54.6875 
L 10.015625 70.21875 
z
" id="DejaVuSans-Bold-116"/>
      <path d="M 51.125 52.984375 
L 51.125 39.703125 
Q 45.515625 42.046875 40.28125 43.21875 
Q 35.0625 44.390625 30.421875 44.390625 
Q 25.4375 44.390625 23.015625 43.140625 
Q 20.609375 41.890625 20.609375 39.3125 
Q 20.609375 37.203125 22.4375 36.078125 
Q 24.265625 34.96875 29 34.421875 
L 32.078125 33.984375 
Q 45.515625 32.28125 50.140625 28.375 
Q 54.78125 24.46875 54.78125 16.109375 
Q 54.78125 7.375 48.328125 2.96875 
Q 41.890625 -1.421875 29.109375 -1.421875 
Q 23.6875 -1.421875 17.890625 -0.5625 
Q 12.109375 0.296875 6 2 
L 6 15.28125 
Q 11.234375 12.75 16.71875 11.46875 
Q 22.21875 10.203125 27.875 10.203125 
Q 33.015625 10.203125 35.59375 11.609375 
Q 38.1875 13.03125 38.1875 15.828125 
Q 38.1875 18.171875 36.40625 19.3125 
Q 34.625 20.453125 29.296875 21.09375 
L 26.21875 21.484375 
Q 14.546875 22.953125 9.859375 26.90625 
Q 5.171875 30.859375 5.171875 38.921875 
Q 5.171875 47.609375 11.125 51.796875 
Q 17.09375 56 29.390625 56 
Q 34.234375 56 39.546875 55.265625 
Q 44.875 54.546875 51.125 52.984375 
z
" id="DejaVuSans-Bold-115"/>
     </defs>
     <g transform="translate(18.398438 188.3075)rotate(-90)scale(0.1 -0.1)">
      <use xlink:href="#DejaVuSans-Bold-35"/>
      <use x="83.789062" xlink:href="#DejaVuSans-Bold-32"/>
      <use x="118.603516" xlink:href="#DejaVuSans-Bold-83"/>
      <use x="190.625" xlink:href="#DejaVuSans-Bold-116"/>
      <use x="238.427734" xlink:href="#DejaVuSans-Bold-97"/>
      <use x="305.908203" xlink:href="#DejaVuSans-Bold-114"/>
      <use x="355.224609" xlink:href="#DejaVuSans-Bold-116"/>
      <use x="403.027344" xlink:href="#DejaVuSans-Bold-115"/>
     </g>
    </g>
   </g>
   <g id="line2d_14">
    <path clip-path="url(#p9e8b771f98)" d="M 80.868324 290.968456 
L 81.003277 287.609512 
L 81.138231 289.190192 
L 81.543092 288.795022 
L 81.678045 291.338928 
L 81.812999 291.783494 
L 81.947952 290.474494 
L 82.082906 288.004682 
L 82.352813 276.149585 
L 82.487766 279.014567 
L 82.62272 284.472851 
L 82.757673 284.127077 
L 82.892627 271.778018 
L 83.027581 272.074396 
L 83.162534 270.197339 
L 83.297488 270.123244 
L 83.432441 275.383943 
L 83.567395 285.633663 
L 83.702348 281.904247 
L 83.972255 267.480545 
L 84.377116 272.074396 
L 84.51207 281.410284 
L 84.647023 281.286794 
L 84.781977 264.294488 
L 84.91693 267.110074 
L 85.051884 261.750582 
L 85.186837 261.898771 
L 85.321791 266.443224 
L 85.456744 279.310944 
L 85.591698 277.162208 
L 85.726651 263.183073 
L 85.861605 262.540922 
L 85.996558 260.910846 
L 86.131512 261.77528 
L 86.401419 280.298869 
L 86.536373 277.878453 
L 86.80628 260.713261 
L 86.941233 260.86145 
L 87.076187 261.281318 
L 87.21114 263.08428 
L 87.346094 280.990416 
L 87.481047 276.149585 
L 87.616001 263.108978 
L 87.750955 261.750582 
L 87.885908 258.391638 
L 88.020862 259.330166 
L 88.290769 279.928397 
L 88.425722 278.001944 
L 88.560676 257.5766 
L 88.695629 255.20558 
L 88.830583 255.427863 
L 89.10049 265.158922 
L 89.235443 283.065058 
L 89.370397 278.915774 
L 89.505351 260.046412 
L 89.640304 258.836204 
L 89.910211 261.306016 
L 90.180118 281.73136 
L 90.315072 276.865831 
L 90.584979 258.391638 
L 90.719932 258.045864 
L 90.854886 259.651242 
L 90.98984 264.096903 
L 91.124793 280.81753 
L 91.529654 248.290107 
L 92.069468 277.13751 
L 92.204421 272.54366 
L 92.474328 248.586485 
L 92.879189 260.960242 
L 93.014143 275.581528 
L 93.149096 271.432244 
L 93.28405 246.783522 
L 93.419003 248.956956 
L 93.823864 261.454204 
L 93.958817 279.459133 
L 94.093771 272.14849 
L 94.228725 249.525013 
L 94.363678 250.587032 
L 94.498632 249.895485 
L 94.633585 251.624353 
L 94.768539 257.329619 
L 94.903492 276.050793 
L 95.038446 274.741792 
L 95.308353 251.253881 
L 95.443306 252.143014 
L 95.713213 256.909751 
L 95.848167 277.162208 
L 95.983121 275.013472 
L 96.253028 245.326333 
L 96.387981 245.301635 
L 96.522935 243.202295 
L 96.792842 281.262096 
L 96.927795 274.420717 
L 97.062749 255.180882 
L 97.197702 254.415241 
L 97.332656 246.091975 
L 97.46761 249.006353 
L 97.602563 259.305468 
L 97.737517 279.63202 
L 97.87247 277.507982 
L 98.142377 252.785165 
L 98.277331 246.635333 
L 98.412284 250.167164 
L 98.547238 258.638619 
L 98.682191 282.027737 
L 98.817145 273.012924 
L 99.087052 248.364202 
L 99.356959 256.835656 
L 99.491913 258.045864 
L 99.626866 279.706114 
L 99.76182 274.519509 
L 99.896773 255.823033 
L 100.031727 256.366392 
L 100.16668 250.463542 
L 100.301634 255.180882 
L 100.571541 278.545303 
L 100.706495 274.074943 
L 100.976402 246.511843 
L 101.111355 252.118316 
L 101.246309 245.449824 
L 101.381262 254.514033 
L 101.516216 281.286794 
L 101.651169 274.198434 
L 101.921076 243.572766 
L 102.05603 243.202295 
L 102.190984 245.672107 
L 102.460891 280.743435 
L 102.595844 270.83949 
L 102.730798 251.031598 
L 103.000705 244.535993 
L 103.270612 257.453109 
L 103.405565 278.619397 
L 103.540519 271.827414 
L 103.675472 250.512938 
L 103.810426 252.686372 
L 104.080333 244.659484 
L 104.215287 256.736864 
L 104.35024 280.54585 
L 104.485194 273.334 
L 104.620147 248.191315 
L 104.755101 253.550806 
L 104.890054 243.992634 
L 105.025008 246.80822 
L 105.294915 280.94102 
L 105.429869 271.061773 
L 105.564822 247.005805 
L 105.834729 258.070562 
L 105.969683 255.452562 
L 106.104636 264.170998 
L 106.23959 281.632568 
L 106.374543 275.235755 
L 106.509497 253.130938 
L 106.64445 249.278032 
L 106.779404 253.995373 
L 106.914357 252.735769 
L 107.184265 280.274171 
L 107.319218 274.050245 
L 107.454172 249.500315 
L 107.589125 251.476164 
L 107.724079 251.40207 
L 107.859032 251.179787 
L 107.993986 259.947619 
L 108.128939 280.249473 
L 108.263893 274.149038 
L 108.5338 246.734126 
L 108.668754 245.943786 
L 108.803707 250.710523 
L 109.073614 280.743435 
L 109.208568 273.679773 
L 109.478475 249.426221 
L 109.613428 244.881767 
L 109.883335 255.674845 
L 110.018289 279.780209 
L 110.153243 272.173188 
L 110.288196 248.537088 
L 110.42315 245.351031 
L 110.558103 248.067824 
L 110.693057 246.734126 
L 110.82801 253.797788 
L 110.962964 279.113359 
L 111.097917 271.111169 
L 111.232871 246.116673 
L 111.367824 243.498672 
L 111.502778 249.870787 
L 111.637731 249.154541 
L 111.772685 259.107883 
L 111.907639 278.693491 
L 112.042592 270.370225 
L 112.177546 246.981107 
L 112.312499 250.265957 
L 112.447453 248.635881 
L 112.582406 250.834013 
L 112.71736 250.241259 
L 112.852313 277.680869 
L 112.987267 276.816434 
L 113.257174 238.361463 
L 113.796988 275.482736 
L 113.931942 272.66715 
L 114.201849 245.62271 
L 114.336802 247.771447 
L 114.471756 240.806577 
L 114.606709 252.241806 
L 114.741663 274.939377 
L 114.876616 271.209961 
L 115.01157 241.30054 
L 115.146524 237.348841 
L 115.416431 243.720955 
L 115.551384 250.414145 
L 115.686338 278.471208 
L 115.821291 271.111169 
L 116.091198 234.557953 
L 116.226152 236.780784 
L 116.361105 232.804387 
L 116.631013 276.273076 
L 116.765966 266.517319 
L 116.90092 235.52118 
L 117.30578 231.124915 
L 117.575687 275.803811 
L 117.980548 239.645766 
L 118.115501 229.000876 
L 118.250455 230.211084 
L 118.385409 244.931163 
L 118.520362 274.198434 
L 118.655316 263.973413 
L 118.790269 228.03765 
L 119.060176 229.593631 
L 119.19513 226.111197 
L 119.465037 269.481093 
L 119.59999 261.404808 
L 119.734944 231.618877 
L 119.869898 226.679253 
L 120.004851 231.890556 
L 120.409712 267.801621 
L 120.544665 260.86145 
L 120.679619 231.791764 
L 120.814572 236.459708 
L 120.949526 235.051916 
L 121.084479 236.706689 
L 121.219433 248.240711 
L 121.354387 272.346075 
L 121.48934 264.763752 
L 121.624294 234.804934 
L 121.759247 235.669368 
L 121.894201 234.903727 
L 122.029154 236.360916 
L 122.164108 246.067276 
L 122.299061 271.580433 
L 122.434015 260.441582 
L 122.568968 229.396046 
L 122.703922 233.792311 
L 122.838875 233.372443 
L 122.973829 239.966841 
L 123.243736 277.038717 
L 123.513643 252.093617 
L 123.648597 258.539826 
L 123.78355 270.790093 
L 123.918504 270.666603 
L 124.188411 275.877906 
L 124.593272 259.626544 
L 124.728225 275.013472 
L 124.863179 275.902604 
L 124.998132 268.913036 
L 125.133086 269.505791 
L 125.268039 263.775828 
L 125.402993 242.683634 
L 125.6729 237.818105 
L 125.807853 237.842803 
L 126.07776 272.716547 
L 126.212714 264.566167 
L 126.347668 236.459708 
L 126.482621 236.83018 
L 126.617575 234.706142 
L 126.752528 225.888913 
L 126.887482 240.954766 
L 127.022435 269.110621 
L 127.157389 258.638619 
L 127.427296 229.371348 
L 127.562249 228.55631 
L 127.697203 222.875743 
L 127.96711 271.778018 
L 128.102064 263.849922 
L 128.237017 228.43282 
L 128.371971 229.099669 
L 128.506924 223.345007 
L 128.641878 224.703404 
L 128.911785 270.790093 
L 129.046738 259.527751 
L 129.181692 228.729197 
L 129.451599 221.517346 
L 129.586553 221.542045 
L 129.85646 269.77747 
L 129.991413 261.25662 
L 130.126367 231.248405 
L 130.26132 232.680896 
L 130.531227 226.086498 
L 130.666181 239.868049 
L 130.801134 272.27198 
L 130.936088 267.184168 
L 131.071042 238.80603 
L 131.205995 238.386162 
L 131.340949 239.744558 
L 131.475902 233.248953 
L 131.610856 241.942691 
L 131.745809 272.568358 
L 131.880763 263.627639 
L 132.015716 226.259385 
L 132.15067 228.062348 
L 132.285623 227.296706 
L 132.420577 227.370801 
L 132.555531 241.127653 
L 132.690484 272.197886 
L 132.825438 261.898771 
L 132.960391 227.494291 
L 133.095345 224.061253 
L 133.365252 230.507462 
L 133.500205 234.632047 
L 133.635159 265.899866 
L 133.770112 259.009091 
L 133.905066 221.07278 
L 134.040019 225.864215 
L 134.174973 219.615591 
L 134.309927 219.442704 
L 134.44488 236.385614 
L 134.579834 268.147395 
L 134.714787 256.613373 
L 134.849741 214.354892 
L 135.254601 223.987158 
L 135.389555 237.250048 
L 135.524508 270.715999 
L 135.659462 261.083733 
L 135.794416 222.875743 
L 135.929369 218.257195 
L 136.064323 219.096931 
L 136.199276 222.875743 
L 136.33423 234.261576 
L 136.469183 269.036527 
L 136.604137 259.206676 
L 136.874044 212.354344 
L 137.008997 212.477835 
L 137.413858 267.94981 
L 137.548812 260.342789 
L 137.818719 221.418554 
L 138.088626 215.392213 
L 138.358533 267.999206 
L 138.493486 252.538184 
L 138.62844 221.789026 
L 138.763393 220.801101 
L 139.033301 212.304948 
L 139.168254 228.334027 
L 139.303208 264.887243 
L 139.438161 253.155637 
L 139.573115 216.948194 
L 139.708068 211.638099 
L 139.843022 212.527231 
L 139.977975 216.404836 
L 140.112929 228.012952 
L 140.247882 263.775828 
L 140.382836 252.167712 
L 140.517789 216.750609 
L 140.652743 213.119986 
L 140.787697 216.108458 
L 141.057604 247.376277 
L 141.192557 265.875168 
L 141.327511 258.292845 
L 141.597418 217.886723 
L 141.732371 217.170478 
L 141.867325 221.714931 
L 142.002278 235.051916 
L 142.137232 267.184168 
L 142.272186 257.798883 
L 142.407139 213.58925 
L 142.677046 220.109554 
L 142.812 224.999781 
L 143.081907 267.94981 
L 143.21686 255.20558 
L 143.351814 215.219326 
L 143.486767 219.714384 
L 143.621721 210.255004 
L 143.756675 215.268722 
L 144.026582 268.591961 
L 144.161535 258.76211 
L 144.566396 213.169382 
L 144.701349 216.750609 
L 144.836303 234.063991 
L 144.971256 266.097451 
L 145.10621 252.958052 
L 145.376117 210.378495 
L 145.646024 224.950385 
L 145.915931 272.840037 
L 146.050885 260.07111 
L 146.185838 217.713836 
L 146.455745 207.044249 
L 146.590699 216.281345 
L 146.860606 272.049697 
L 146.99556 260.441582 
L 147.130513 220.628214 
L 147.265467 214.132609 
L 147.535374 218.158402 
L 147.670327 231.692971 
L 147.805281 268.913036 
L 147.940234 266.072753 
L 148.075188 222.036007 
L 148.345095 215.16993 
L 148.480048 218.874648 
L 148.615002 232.261028 
L 148.749956 267.851017 
L 148.884909 258.589223 
L 149.019863 216.454232 
L 149.154816 211.020646 
L 149.28977 225.66663 
L 149.424723 226.037102 
L 149.69463 271.876811 
L 149.829584 260.021714 
L 149.964537 226.209989 
L 150.099491 227.938857 
L 150.234445 224.35763 
L 150.369398 225.14797 
L 150.504352 239.793954 
L 150.639305 270.098546 
L 150.774259 262.145752 
L 150.909212 226.679253 
L 151.044166 226.605159 
L 151.179119 216.256647 
L 151.314073 225.197366 
L 151.58398 275.853208 
L 151.718933 270.641905 
L 151.988841 217.121081 
L 152.393701 240.016237 
L 152.528655 272.741245 
L 152.663608 264.887243 
L 152.798562 219.146327 
L 153.068469 230.112292 
L 153.203422 226.975631 
L 153.47333 275.458038 
L 153.608283 264.739054 
L 153.743237 231.297801 
L 153.87819 226.975631 
L 154.148097 229.593631 
L 154.283051 244.931163 
L 154.418004 273.729169 
L 154.552958 262.56562 
L 154.687911 231.100216 
L 154.822865 234.928425 
L 154.957818 228.630405 
L 155.092772 227.667178 
L 155.362679 270.197339 
L 155.497633 264.343884 
L 155.632586 228.012952 
L 155.76754 232.211632 
L 155.902493 229.568933 
L 156.037447 232.384519 
L 156.1724 243.103502 
L 156.307354 271.703924 
L 156.442307 262.244544 
L 156.712215 218.948742 
L 156.982122 231.075518 
L 157.117075 244.486597 
L 157.252029 273.951453 
L 157.386982 263.207771 
L 157.656889 226.926234 
L 157.926796 226.432272 
L 158.06175 239.596369 
L 158.196704 269.629282 
L 158.331657 259.750034 
L 158.601564 226.358178 
L 158.736518 226.605159 
L 158.871471 229.494839 
L 159.006425 239.744558 
L 159.141378 271.259358 
L 159.276332 259.997015 
L 159.411285 224.950385 
L 159.546239 219.096931 
L 159.681192 218.207799 
L 159.816146 218.874648 
L 159.9511 236.237425 
L 160.086053 269.332904 
L 160.221007 262.046959 
L 160.490914 218.627667 
L 160.625867 223.073328 
L 160.760821 220.529422 
L 161.030728 273.877358 
L 161.165681 260.787355 
L 161.435589 220.529422 
L 161.570542 220.628214 
L 161.705496 224.234139 
L 161.975403 269.184716 
L 162.110356 264.022809 
L 162.24531 228.704499 
L 162.515217 222.060705 
L 162.65017 224.505819 
L 162.920077 269.530489 
L 163.055031 257.996468 
L 163.324938 218.281893 
L 163.459892 212.329646 
L 163.594845 218.726459 
L 163.729799 235.348293 
L 163.864752 271.654528 
L 163.999706 257.70009 
L 164.134659 217.911421 
L 164.269613 215.021741 
L 164.404566 226.012404 
L 164.53952 219.022836 
L 164.674474 235.941048 
L 164.809427 270.370225 
L 164.944381 258.144657 
L 165.079334 214.182005 
L 165.214288 212.626024 
L 165.349241 209.514061 
L 165.484195 216.849402 
L 165.754102 267.94981 
L 165.889055 250.636428 
L 166.024009 217.26927 
L 166.293916 202.351606 
L 166.563823 229.568933 
L 166.698777 263.380658 
L 166.83373 250.908108 
L 166.968684 207.80989 
L 167.103637 208.328551 
L 167.238591 216.898798 
L 167.373544 206.89606 
L 167.643451 270.222037 
L 167.778405 253.945976 
L 167.913359 206.031626 
L 168.048312 211.09474 
L 168.183266 203.635908 
L 168.318219 207.80989 
L 168.588126 263.183073 
L 168.72308 243.943238 
L 168.858033 201.956436 
L 168.992987 197.905945 
L 169.12794 203.413625 
L 169.532801 261.009638 
L 169.667755 243.770351 
L 169.802708 206.945456 
L 169.937662 206.006928 
L 170.072615 202.796172 
L 170.342522 231.174311 
L 170.477476 259.132581 
L 170.612429 247.104597 
L 170.747383 212.230854 
L 170.882336 210.032721 
L 171.152244 211.514608 
L 171.422151 264.26979 
L 171.692058 202.030531 
L 171.827011 203.141946 
L 172.096918 213.836231 
L 172.366825 266.566715 
L 172.501779 255.47726 
L 172.636733 232.779689 
L 172.90664 244.758276 
L 173.176547 272.370773 
L 173.3115 274.964075 
L 173.581407 250.21656 
L 173.716361 250.587032 
L 173.851314 253.452014 
L 174.121221 275.112264 
L 174.256175 274.272528 
L 174.391129 262.442129 
L 174.526082 232.557406 
L 174.661036 232.359821 
L 174.930943 221.443252 
L 175.20085 261.627091 
L 175.335803 255.180882 
L 175.470757 214.824156 
L 175.60571 214.947647 
L 175.740664 214.009118 
L 175.875618 210.255004 
L 176.145525 266.986583 
L 176.280478 256.292298 
L 176.550385 208.946004 
L 176.685339 208.303853 
L 176.820292 214.280798 
L 177.090199 266.714904 
L 177.225153 253.822486 
L 177.360106 210.724269 
L 177.49506 206.574985 
L 177.630014 206.253909 
L 177.764967 210.452589 
L 177.899921 226.45697 
L 178.034874 266.220941 
L 178.169828 257.477807 
L 178.304781 218.97344 
L 178.439735 213.638647 
L 178.574688 214.206703 
L 178.709642 219.911969 
L 178.844595 237.842803 
L 178.979549 273.309301 
L 179.114503 264.66496 
L 179.38441 219.788478 
L 179.519363 225.839517 
L 179.654317 221.591441 
L 179.78927 235.619972 
L 179.924224 268.221489 
L 180.059177 258.045864 
L 180.329084 209.686948 
L 180.733945 224.999781 
L 180.868899 263.528846 
L 181.003852 248.364202 
L 181.138806 208.550834 
L 181.408713 211.588703 
L 181.543666 210.600778 
L 181.813573 262.886695 
L 181.948527 252.562882 
L 182.08348 213.144684 
L 182.218434 208.452042 
L 182.488341 211.020646 
L 182.758248 265.57879 
L 182.893202 250.932806 
L 183.028155 206.451494 
L 183.163109 205.512965 
L 183.298062 203.388927 
L 183.433016 203.067852 
L 183.702923 260.07111 
L 183.837877 258.045864 
L 183.97283 205.463569 
L 184.107784 207.439419 
L 184.242737 203.166644 
L 184.377691 209.884532 
L 184.512644 225.518442 
L 184.647598 265.776375 
L 184.782551 252.933353 
L 184.917505 210.032721 
L 185.052458 215.416911 
L 185.187412 210.798363 
L 185.322365 222.529969 
L 185.592273 267.15947 
L 185.727226 259.947619 
L 185.997133 209.686948 
L 186.132087 206.77257 
L 186.26704 209.637551 
L 186.401994 223.987158 
L 186.536947 268.295583 
L 186.671901 257.033241 
L 186.941808 204.376852 
L 187.076762 196.720435 
L 187.211715 197.239096 
L 187.481622 260.120506 
L 187.616576 248.216013 
L 187.751529 201.017908 
L 187.886483 206.994853 
L 188.021436 204.080475 
L 188.15639 209.341174 
L 188.291343 223.073328 
L 188.426297 257.625996 
L 188.56125 249.031051 
L 188.831158 199.264341 
L 188.966111 203.759399 
L 189.101065 204.40155 
L 189.370972 257.230826 
L 189.505925 243.325785 
L 189.640879 200.301662 
L 189.775832 205.068399 
L 189.910786 200.523945 
L 190.045739 201.585965 
L 190.315647 264.26979 
L 190.4506 257.304921 
L 190.585554 210.823061 
L 190.720507 211.242929 
L 190.990414 220.94929 
L 191.260321 265.282413 
L 191.395275 251.155089 
L 191.665182 194.275321 
L 191.800136 194.127133 
L 191.935089 194.472906 
L 192.070043 214.873552 
L 192.204996 262.713809 
L 192.33995 252.612278 
L 192.474903 203.858191 
L 192.74481 207.315928 
L 192.879764 199.313738 
L 193.014717 219.36861 
L 193.149671 263.677035 
L 193.284624 251.352674 
L 193.419578 198.795077 
L 193.554532 195.337341 
L 193.824439 207.143041 
L 193.959392 225.024479 
L 194.094346 267.925112 
L 194.229299 251.105693 
L 194.499206 201.585965 
L 194.63416 205.142494 
L 194.769113 205.512965 
L 194.904067 220.208346 
L 195.039021 261.108431 
L 195.173974 250.265957 
L 195.308928 197.757756 
L 195.443881 191.212755 
L 195.713788 208.377947 
L 195.848742 214.972345 
L 195.983695 257.033241 
L 196.118649 248.018428 
L 196.253602 191.237453 
L 196.388556 193.707265 
L 196.523509 199.560719 
L 196.658463 193.213302 
L 196.793417 217.985515 
L 196.92837 269.011829 
L 197.063324 248.537088 
L 197.198277 204.895512 
L 197.333231 204.747324 
L 197.468184 206.50089 
L 197.603138 204.623833 
L 197.738091 225.66663 
L 197.873045 266.36913 
L 198.007998 250.315353 
L 198.277906 200.054681 
L 198.412859 201.042606 
L 198.682766 233.446538 
L 198.81772 267.94981 
L 198.952673 257.403713 
L 199.22258 210.403193 
L 199.357534 216.800006 
L 199.492487 213.959722 
L 199.627441 230.92733 
L 199.762394 268.048602 
L 199.897348 252.71107 
L 200.032302 210.082117 
L 200.167255 204.722626 
L 200.302209 210.872457 
L 200.437162 210.748967 
L 200.572116 226.926234 
L 200.707069 267.974508 
L 200.842023 257.551902 
L 200.976976 207.29123 
L 201.11193 209.859834 
L 201.246883 208.674325 
L 201.381837 205.488267 
L 201.651744 266.566715 
L 201.786698 255.674845 
L 201.921651 208.575532 
L 202.191558 201.660059 
L 202.326512 212.601326 
L 202.596419 264.763752 
L 202.731372 254.736316 
L 202.866326 216.651817 
L 203.001279 214.601873 
L 203.136233 215.29342 
L 203.271187 208.254457 
L 203.40614 230.211084 
L 203.541094 272.346075 
L 203.676047 261.034336 
L 203.811001 212.379042 
L 203.945954 214.577175 
L 204.080908 213.366967 
L 204.215861 217.071685 
L 204.485768 271.308754 
L 204.620722 261.454204 
L 204.890629 208.797815 
L 205.025583 207.390022 
L 205.160536 214.107911 
L 205.430443 259.354864 
L 205.565397 255.378467 
L 205.70035 212.527231 
L 205.835304 210.773665 
L 205.970257 211.020646 
L 206.105211 207.908683 
L 206.240165 224.011856 
L 206.375118 255.526656 
L 206.510072 242.980012 
L 206.645025 202.647984 
L 206.779979 220.973988 
L 207.049886 208.007475 
L 207.184839 222.406479 
L 207.319793 260.095808 
L 207.724653 202.475097 
L 207.859607 196.39936 
L 207.994561 197.31319 
L 208.129514 215.663892 
L 208.264468 253.279127 
L 208.399421 238.089784 
L 208.534375 199.486624 
L 208.669328 200.425153 
L 208.804282 204.203965 
L 208.939235 211.317023 
L 209.074189 224.505819 
L 209.209142 253.649599 
L 209.344096 242.189672 
L 209.47905 203.191342 
L 209.748957 195.238548 
L 209.88391 198.62219 
L 210.153817 258.564525 
L 210.693631 190.842283 
L 210.828585 193.287397 
L 211.098492 256.909751 
L 211.233446 247.228088 
L 211.368399 198.918568 
L 211.503353 191.262151 
L 211.638306 196.325265 
L 211.908213 221.097478 
L 212.043167 259.972317 
L 212.17812 247.450371 
L 212.448027 193.262699 
L 212.582981 198.572794 
L 212.717935 192.521755 
L 212.852888 212.67542 
L 212.987842 250.834013 
L 213.122795 239.003615 
L 213.257749 191.336245 
L 213.392702 186.717697 
L 213.797563 218.034912 
L 213.932516 257.008543 
L 214.06747 239.32469 
L 214.202423 189.953151 
L 214.337377 201.1167 
L 214.472331 190.792887 
L 214.607284 195.806605 
L 214.877191 258.144657 
L 215.147098 200.301662 
L 215.282052 204.574437 
L 215.417005 192.348868 
L 215.551959 199.783002 
L 215.686912 216.35544 
L 215.821866 250.834013 
L 216.091773 190.150736 
L 216.226727 191.064566 
L 216.36168 188.397169 
L 216.496634 179.703431 
L 216.766541 253.37792 
L 217.171401 181.876866 
L 217.306355 182.617809 
L 217.441309 165.872485 
L 217.711216 230.65565 
L 217.846169 156.166124 
L 217.981123 163.328579 
L 218.116076 151.127708 
L 218.25103 99.311055 
L 218.385983 135.370308 
L 218.520937 141.174366 
L 218.790844 234.977821 
L 218.925797 190.422415 
L 219.330658 197.807152 
L 219.600565 255.180882 
L 219.735519 235.990444 
L 219.870472 183.334055 
L 220.005426 189.706169 
L 220.140379 188.397169 
L 220.275333 194.151831 
L 220.54524 260.46628 
L 220.950101 200.622738 
L 221.085054 197.436681 
L 221.220008 200.128776 
L 221.489915 261.059035 
L 221.759822 204.00638 
L 221.894775 216.972893 
L 222.029729 217.565647 
L 222.164682 229.939405 
L 222.43459 268.690753 
L 222.704497 245.795597 
L 222.83945 242.856521 
L 222.974404 236.953671 
L 223.244311 260.441582 
L 223.379264 270.543112 
L 223.514218 265.751677 
L 223.784125 224.332932 
L 223.919079 219.640289 
L 224.054032 219.566195 
L 224.323939 261.355412 
L 224.458893 242.066181 
L 224.593846 202.969059 
L 224.7288 202.425701 
L 224.863753 193.262699 
L 224.998707 195.584322 
L 225.268614 254.785712 
L 225.673475 198.572794 
L 225.943382 208.748419 
L 226.213289 259.577147 
L 226.348242 246.28956 
L 226.483196 209.686948 
L 226.618149 208.624928 
L 226.753103 223.345007 
L 226.888056 223.666083 
L 227.157964 269.135319 
L 227.292917 258.737411 
L 227.427871 218.232497 
L 227.562824 212.67542 
L 227.967685 228.531612 
L 228.102638 266.443224 
L 228.237592 250.09307 
L 228.372545 203.61121 
L 228.507499 200.252266 
L 228.642453 201.092002 
L 228.777406 191.237453 
L 229.047313 261.157827 
L 229.182267 238.633143 
L 229.31722 193.583774 
L 229.452174 193.50968 
L 229.587127 190.323622 
L 229.722081 192.299472 
L 229.991988 255.057392 
L 230.126941 237.126557 
L 230.261895 201.536568 
L 230.396849 195.856001 
L 230.531802 196.547548 
L 230.666756 200.746229 
L 230.936663 260.540374 
L 231.341523 197.905945 
L 231.61143 191.583226 
L 231.881338 254.909203 
L 232.016291 236.015142 
L 232.151245 188.100792 
L 232.421152 183.037677 
L 232.556105 188.199584 
L 232.826012 255.674845 
L 232.960966 237.818105 
L 233.095919 179.357658 
L 233.365826 188.199584 
L 233.50078 187.310452 
L 233.770687 250.982202 
L 233.905641 233.076066 
L 234.040594 180.790149 
L 234.175548 176.591468 
L 234.310501 175.875223 
L 234.445455 181.407602 
L 234.580408 203.981682 
L 234.715362 246.660031 
L 234.850315 229.692424 
L 234.985269 183.92681 
L 235.255176 173.775883 
L 235.525083 203.685305 
L 235.660037 251.426768 
L 235.79499 241.004162 
L 235.929944 194.670491 
L 236.064897 190.768189 
L 236.199851 178.320337 
L 236.334804 187.433943 
L 236.469758 210.329099 
L 236.604711 256.218203 
L 237.009572 175.233072 
L 237.144526 174.615619 
L 237.279479 192.027793 
L 237.549386 256.539279 
L 237.68434 238.163878 
L 237.954247 187.433943 
L 238.0892 176.665563 
L 238.224154 180.024507 
L 238.494061 252.266504 
L 238.629015 231.026122 
L 238.763968 182.642507 
L 238.898922 179.950413 
L 239.033875 167.650749 
L 239.303782 215.861477 
L 239.438736 256.613373 
L 239.573689 249.278032 
L 239.843597 195.831303 
L 239.97855 179.481148 
L 240.113504 188.545358 
L 240.383411 250.858712 
L 240.518364 238.559048 
L 240.653318 182.691904 
L 240.788271 186.594206 
L 241.058178 169.47841 
L 241.328085 253.056844 
L 241.463039 238.682539 
L 241.597993 174.936694 
L 241.732946 183.037677 
L 241.8679 178.27094 
L 242.002853 180.543167 
L 242.27276 258.910298 
L 242.407714 232.557406 
L 242.677621 172.244599 
L 242.812574 174.887298 
L 243.082482 208.797815 
L 243.217435 257.329619 
L 243.352389 252.809863 
L 243.622296 192.818132 
L 243.892203 182.840092 
L 244.027156 210.131514 
L 244.16211 259.972317 
L 244.297063 243.720955 
L 244.56697 185.112319 
L 244.836878 179.999809 
L 245.106785 260.688563 
L 245.241738 237.546425 
L 245.376692 181.506394 
L 245.781552 189.82966 
L 246.051459 259.700638 
L 246.186413 239.917445 
L 246.321367 186.569508 
L 246.45632 185.75447 
L 246.591274 192.916925 
L 246.726227 183.284659 
L 246.996134 262.664412 
L 247.131088 245.770899 
L 247.266041 193.880152 
L 247.535948 186.668301 
L 247.670902 183.65513 
L 247.940809 261.034336 
L 248.480623 187.409244 
L 248.615577 193.11451 
L 248.885484 259.428959 
L 249.020437 241.127653 
L 249.155391 190.150736 
L 249.290344 183.185866 
L 249.425298 190.422415 
L 249.560252 188.64415 
L 249.830159 253.89658 
L 249.965112 232.261028 
L 250.100066 190.422415 
L 250.235019 191.13866 
L 250.369973 181.876866 
L 250.63988 209.26708 
L 250.774833 255.230279 
L 250.909787 244.782974 
L 251.044741 197.189699 
L 251.179694 192.175981 
L 251.314648 196.00419 
L 251.449601 190.916377 
L 251.719508 242.066181 
L 251.854462 240.485502 
L 251.989415 196.300567 
L 252.124369 196.992114 
L 252.259322 196.349963 
L 252.394276 201.314285 
L 252.529229 216.972893 
L 252.664183 263.010186 
L 252.799137 249.771994 
L 252.93409 203.438323 
L 253.069044 204.599135 
L 253.203997 191.978396 
L 253.338951 200.795625 
L 253.473904 218.207799 
L 253.608858 259.107883 
L 253.743811 248.611183 
L 254.013718 208.847211 
L 254.148672 202.030531 
L 254.283626 203.685305 
L 254.553533 249.475617 
L 254.688486 247.351579 
L 254.82344 205.537664 
L 255.093347 193.484982 
L 255.2283 200.128776 
L 255.498207 248.685277 
L 255.633161 242.189672 
L 255.768114 200.375757 
L 255.903068 202.647984 
L 256.038022 196.226473 
L 256.172975 199.486624 
L 256.442882 258.959694 
L 256.577836 242.856521 
L 256.847743 195.040963 
L 256.982696 182.543715 
L 257.252603 220.084856 
L 257.387557 258.169355 
L 257.522511 239.053011 
L 257.657464 195.905397 
L 258.062325 184.074998 
L 258.332232 249.450919 
L 258.467185 238.731935 
L 258.602139 186.199037 
L 258.737092 181.679281 
L 258.872046 188.989924 
L 259.006999 183.729225 
L 259.276907 248.956956 
L 259.41186 236.731388 
L 259.546814 192.422963 
L 259.816721 188.347773 
L 259.951674 181.185318 
L 260.221581 256.835656 
L 260.356535 253.081542 
L 260.491488 216.948194 
L 260.626442 212.996495 
L 260.896349 215.318119 
L 261.031303 221.665535 
L 261.166256 253.674297 
L 261.30121 236.385614 
L 261.571117 183.506942 
L 261.70607 164.48939 
L 261.975977 210.650174 
L 262.110931 253.37792 
L 262.245884 230.038197 
L 262.515792 167.329674 
L 262.785699 179.505846 
L 262.920652 204.920211 
L 263.055606 251.303278 
L 263.190559 234.928425 
L 263.325513 178.443827 
L 263.460466 181.012432 
L 263.59542 189.162811 
L 263.730373 176.319789 
L 264.000281 253.279127 
L 264.135234 229.396046 
L 264.270188 177.999261 
L 264.405141 176.492676 
L 264.540095 186.050848 
L 264.675048 181.926262 
L 264.810002 202.722078 
L 264.944955 250.735221 
L 265.214862 175.25777 
L 265.349816 176.863148 
L 265.48477 177.653487 
L 265.619723 167.477863 
L 265.88963 245.968484 
L 266.024584 227.963555 
L 266.159537 181.95096 
L 266.564398 165.650202 
L 266.834305 242.905917 
L 267.239166 173.430109 
L 267.374119 176.517374 
L 267.644026 215.812081 
L 267.77898 247.845541 
L 267.913933 224.011856 
L 268.048887 170.071165 
L 268.18384 173.405411 
L 268.318794 167.996523 
L 268.453747 167.848334 
L 268.723655 248.487692 
L 269.128515 168.16941 
L 269.263469 171.380165 
L 269.398422 186.841188 
L 269.668329 248.981654 
L 269.803283 234.286274 
L 270.07319 174.492128 
L 270.208143 177.949865 
L 270.343097 184.964131 
L 270.613004 251.476164 
L 270.747958 229.643027 
L 270.882911 185.705074 
L 271.152818 191.978396 
L 271.287772 204.722626 
L 271.557679 260.98494 
L 272.097493 223.345007 
L 272.232447 230.65565 
L 272.637307 267.110074 
L 273.042168 209.489363 
L 273.177121 204.475644 
L 273.447028 252.068919 
L 273.851889 180.469073 
L 273.986843 188.545358 
L 274.121796 184.198489 
L 274.391703 226.234687 
L 274.526657 229.568933 
L 274.66161 186.371923 
L 274.796564 184.272583 
L 275.066471 170.762712 
L 275.201425 196.448756 
L 275.336378 250.167164 
L 275.471332 230.013499 
L 275.606285 174.665015 
L 275.741239 177.75228 
L 275.876192 174.07226 
L 276.011146 178.93779 
L 276.146099 202.845569 
L 276.281053 249.722598 
L 276.416006 224.382328 
L 276.55096 176.220997 
L 276.685914 175.924619 
L 276.955821 185.309904 
L 277.225728 251.40207 
L 277.360681 233.9405 
L 277.495635 191.13866 
L 277.630588 185.680376 
L 277.765542 187.433943 
L 277.900495 194.42351 
L 278.170402 244.363106 
L 278.305356 239.769256 
L 278.44031 202.672682 
L 278.710217 216.404836 
L 278.980124 221.912516 
L 279.115077 259.848827 
L 279.250031 255.650147 
L 279.519938 210.378495 
L 279.654891 201.78355 
L 279.789845 203.537116 
L 279.924799 218.602968 
L 280.059752 251.130391 
L 280.194706 229.568933 
L 280.329659 186.668301 
L 280.464613 182.568413 
L 280.599566 193.756661 
L 280.73452 192.867529 
L 281.004427 247.351579 
L 281.13938 226.358178 
L 281.274334 180.444375 
L 281.409287 180.913639 
L 281.544241 174.837902 
L 281.679195 178.93779 
L 281.949102 247.894937 
L 282.084055 235.496482 
L 282.219009 182.173243 
L 282.488916 172.195203 
L 282.623869 175.331864 
L 282.758823 198.548096 
L 282.893776 245.128748 
L 283.02873 225.641932 
L 283.163684 177.875771 
L 283.298637 171.18258 
L 283.433591 175.65294 
L 283.568544 169.601901 
L 283.838451 229.890009 
L 283.973405 229.74182 
L 284.108358 174.393336 
L 284.243312 167.082693 
L 284.513219 179.135375 
L 284.783126 245.993182 
L 284.91808 236.928973 
L 285.187987 177.702884 
L 285.727801 232.730292 
L 285.862754 213.515156 
L 285.997708 158.660634 
L 286.267615 170.145259 
L 286.402569 175.134279 
L 286.537522 200.178172 
L 286.672476 246.758824 
L 286.807429 225.913612 
L 286.942383 171.627146 
L 287.21229 162.884012 
L 287.347243 170.342844 
L 287.61715 241.942691 
L 287.752104 228.482216 
L 287.887058 160.414201 
L 288.156965 173.67709 
L 288.291918 169.47841 
L 288.426872 195.534925 
L 288.561825 245.993182 
L 288.696779 243.819748 
L 288.831732 205.216588 
L 288.966686 201.413078 
L 289.101639 175.356562 
L 289.236593 180.864243 
L 289.371546 201.215493 
L 289.5065 244.832371 
L 289.641454 229.988801 
L 289.776407 180.666658 
L 289.911361 177.381808 
L 290.046314 164.316503 
L 290.451175 231.124915 
L 290.586128 225.54314 
L 290.721082 164.291805 
L 290.856035 165.230334 
L 291.125943 173.67709 
L 291.39585 250.661127 
L 291.530803 229.74182 
L 291.80071 168.95975 
L 291.935664 168.441089 
L 292.070617 179.728129 
L 292.340524 242.066181 
L 292.475478 228.457518 
L 292.745385 172.516279 
L 292.880339 170.169957 
L 293.015292 178.221544 
L 293.285199 249.253334 
L 293.420153 223.023932 
L 293.555106 172.837354 
L 293.69006 173.430109 
L 293.825013 178.66611 
L 293.959967 175.875223 
L 294.229874 254.143561 
L 294.364828 235.298897 
L 294.499781 182.469621 
L 294.769688 170.342844 
L 294.904642 181.901564 
L 295.174549 256.810958 
L 295.309502 250.463542 
L 295.579409 181.728677 
L 295.714363 180.147997 
L 295.849316 183.284659 
L 296.119224 251.031598 
L 296.254177 231.84116 
L 296.524084 175.628242 
L 296.659038 176.270393 
L 296.793991 184.815942 
L 297.063898 243.967936 
L 297.198852 195.856001 
L 297.333805 97.853866 
L 297.603713 205.19189 
L 297.738666 191.731415 
L 297.87362 213.441062 
L 298.008573 254.341146 
L 298.143527 237.62052 
L 298.27848 195.460831 
L 298.413434 189.508584 
L 298.548387 191.583226 
L 298.818294 211.959174 
L 298.953248 248.956956 
L 299.088202 237.126557 
L 299.223155 191.780811 
L 299.358109 184.618357 
L 299.628016 190.397717 
L 299.897923 246.190767 
L 300.032876 236.805482 
L 300.16783 182.568413 
L 300.302783 185.952055 
L 300.437737 181.284111 
L 300.57269 187.705622 
L 300.842598 251.871334 
L 300.977551 237.645218 
L 301.247458 180.394979 
L 301.382412 186.001452 
L 301.517365 198.474002 
L 301.787272 252.266504 
L 301.922226 242.560144 
L 302.057179 193.806057 
L 302.327087 188.891132 
L 302.46204 191.435038 
L 302.731947 247.450371 
L 302.866901 242.584842 
L 303.001854 197.066209 
L 303.136808 196.028888 
L 303.271761 196.374662 
L 303.406715 199.881794 
L 303.676622 243.869144 
L 303.811575 236.064538 
L 303.946529 196.547548 
L 304.081483 195.337341 
L 304.216436 191.064566 
L 304.35139 200.351059 
L 304.621297 251.229183 
L 304.75625 233.570028 
L 304.891204 190.027245 
L 305.026157 188.767641 
L 305.161111 179.530545 
L 305.431018 208.921306 
L 305.565972 249.278032 
L 306.105786 170.960297 
L 306.240739 177.307714 
L 306.510646 242.881219 
L 306.6456 231.273103 
L 306.780553 179.06128 
L 306.915507 172.639769 
L 307.05046 182.444923 
L 307.185414 171.923524 
L 307.455321 242.708332 
L 307.590275 229.149065 
L 307.725228 178.715507 
L 307.860182 179.604639 
L 307.995135 176.023412 
L 308.130089 179.45645 
L 308.399996 250.957504 
L 308.534949 243.301087 
L 308.804857 183.877413 
L 308.93981 172.417486 
L 309.074764 180.098601 
L 309.209717 194.942171 
L 309.479624 239.868049 
L 309.614578 203.265437 
L 309.749531 205.19189 
L 309.884485 193.484982 
L 310.019438 199.511323 
L 310.289346 242.510747 
L 310.424299 227.444895 
L 310.694206 168.490485 
L 310.82916 168.070617 
L 310.964113 177.999261 
L 311.23402 241.720408 
L 311.638881 171.157882 
L 311.773834 175.430657 
L 311.908788 171.05909 
L 312.178695 238.262671 
L 312.313649 212.304948 
L 312.448602 164.415296 
L 312.583556 159.525068 
L 312.853463 174.096958 
L 312.988416 192.472359 
L 313.12337 231.075518 
L 313.258323 221.295063 
L 313.393277 162.019578 
L 313.528231 172.022316 
L 313.663184 168.342297 
L 313.933091 199.486624 
L 314.068045 229.692424 
L 314.202998 208.452042 
L 314.337952 155.721558 
L 314.607859 165.082145 
L 314.742812 167.428466 
L 314.877766 192.027793 
L 315.012719 237.22535 
L 315.147673 212.650722 
L 315.282627 165.082145 
L 315.41758 161.575012 
L 315.552534 169.35492 
L 315.687487 157.475124 
L 315.957394 235.595274 
L 316.092348 215.861477 
L 316.227301 161.031654 
L 316.362255 162.834616 
L 316.632162 174.220449 
L 316.902069 235.150708 
L 317.30693 160.661182 
L 317.441883 165.403221 
L 317.576837 165.600806 
L 317.846744 240.658388 
L 318.116651 157.993785 
L 318.251604 163.723748 
L 318.521512 150.411462 
L 318.791419 234.903727 
L 319.061326 170.046467 
L 319.196279 172.911449 
L 319.331233 162.711126 
L 319.60114 187.853811 
L 319.736093 240.139728 
L 320.006001 169.009146 
L 320.140954 169.058542 
L 320.410861 181.506394 
L 320.680768 243.548068 
L 320.950675 221.838422 
L 321.085629 225.592536 
L 321.355536 211.514608 
L 321.625443 244.906465 
L 321.89535 254.909203 
L 322.300211 191.41034 
L 322.435164 194.793982 
L 322.570118 217.318666 
L 322.705071 215.318119 
L 322.974978 155.128803 
L 323.109932 150.386764 
L 323.244886 157.203445 
L 323.514793 227.025027 
L 323.919653 156.635388 
L 324.054607 158.882917 
L 324.18956 149.645821 
L 324.459467 227.864763 
L 324.594421 204.944909 
L 324.864328 150.436161 
L 324.999282 153.819803 
L 325.134235 164.242409 
L 325.404142 237.324142 
L 325.539096 217.78793 
L 325.674049 175.405959 
L 325.809003 175.233072 
L 325.943956 179.604639 
L 326.07891 191.311547 
L 326.348817 253.229731 
L 326.483771 246.363654 
L 326.753678 200.523945 
L 326.888631 201.437776 
L 327.023585 192.867529 
L 327.158538 213.119986 
L 327.293492 254.810411 
L 327.428445 237.497029 
L 327.563399 187.409244 
L 327.698352 181.234715 
L 327.833306 183.729225 
L 327.96826 167.057995 
L 328.103213 185.211112 
L 328.238167 239.349388 
L 328.37312 212.033269 
L 328.508074 158.265464 
L 328.643027 158.808823 
L 328.912934 148.238028 
L 329.182841 225.049177 
L 329.317795 209.78574 
L 329.452748 145.768216 
L 329.587702 146.188084 
L 329.722656 142.977329 
L 329.857609 153.103557 
L 330.127516 230.186386 
L 330.26247 206.179815 
L 330.397423 147.521783 
L 330.532377 143.495989 
L 330.66733 144.335725 
L 330.802284 150.287972 
L 331.072191 224.160045 
L 331.207145 211.810986 
L 331.342098 150.436161 
L 331.612005 138.111799 
L 331.746959 151.967444 
L 332.016866 216.404836 
L 332.151819 209.094193 
L 332.421726 129.022892 
L 332.826587 177.875771 
L 332.961541 221.640837 
L 333.096494 209.884532 
L 333.231448 152.782482 
L 333.366401 143.002027 
L 333.501355 143.174914 
L 333.636308 132.925194 
L 333.906215 222.65346 
L 334.041169 197.31319 
L 334.176122 142.063498 
L 334.311076 133.740232 
L 334.44603 135.617289 
L 334.85089 235.718765 
L 334.985844 202.524493 
L 335.120797 135.444403 
L 335.255751 136.407629 
L 335.390704 130.554175 
L 335.525658 134.654063 
L 335.795565 212.403741 
L 335.930519 199.239643 
L 336.200426 121.95923 
L 336.470333 147.373594 
L 336.74024 222.208894 
L 336.875193 206.031626 
L 337.1451 150.781934 
L 337.280054 148.904877 
L 337.415007 150.436161 
L 337.549961 173.5536 
L 337.684915 219.714384 
L 337.819868 202.845569 
L 337.954822 153.152954 
L 338.089775 168.465787 
L 338.224729 200.919115 
L 338.359682 178.66611 
L 338.494636 194.42351 
L 338.629589 225.987706 
L 338.764543 203.09255 
L 339.03445 145.32365 
L 339.169404 149.892802 
L 339.304357 148.657896 
L 339.574264 223.196818 
L 339.709218 204.376852 
L 339.979125 138.902139 
L 340.249032 144.632103 
L 340.383985 170.688618 
L 340.518939 224.604611 
L 340.653892 210.427891 
L 340.9238 143.520687 
L 341.058753 142.43397 
L 341.193707 143.002027 
L 341.463614 227.76597 
L 341.598567 214.77476 
L 341.868474 151.004217 
L 342.138381 168.045919 
L 342.408289 228.926782 
L 342.543242 214.873552 
L 342.678196 155.69686 
L 342.813149 158.957012 
L 342.948103 154.585445 
L 343.352963 234.582651 
L 343.487917 222.282988 
L 343.757824 155.795652 
L 343.892777 162.340654 
L 344.027731 155.30169 
L 344.297638 232.927877 
L 344.702499 157.178747 
L 344.837452 159.525068 
L 344.972406 166.292353 
L 345.107359 185.556885 
L 345.242313 224.975083 
L 345.377266 210.897155 
L 345.51222 162.093673 
L 345.647174 153.59752 
L 345.782127 157.030558 
L 345.917081 164.563485 
L 346.186988 224.431724 
L 346.321941 212.724816 
L 346.456895 165.329126 
L 346.591848 157.648011 
L 346.726802 159.89554 
L 346.996709 191.113962 
L 347.131663 232.162236 
L 347.266616 209.26708 
L 347.40157 148.509707 
L 347.536523 155.993237 
L 347.671477 154.313765 
L 347.80643 163.452069 
L 348.076337 217.417459 
L 348.211291 204.105173 
L 348.481198 150.31267 
L 348.616151 149.349443 
L 348.751105 156.388407 
L 348.886059 176.789053 
L 349.021012 218.232497 
L 349.155966 204.327456 
L 349.425873 143.100819 
L 349.560826 145.200159 
L 349.69578 152.980067 
L 349.965687 222.900441 
L 350.10064 212.922401 
L 350.235594 159.599163 
L 350.370548 156.190822 
L 350.505501 158.290162 
L 350.640455 170.046467 
L 350.910362 234.977821 
L 351.045315 216.454232 
L 351.180269 171.701241 
L 351.315222 170.021769 
L 351.450176 171.034392 
L 351.585129 165.921881 
L 351.855036 233.323047 
L 351.98999 225.197366 
L 352.124944 179.604639 
L 352.259897 175.208374 
L 352.529804 190.274226 
L 352.664758 202.598587 
L 352.799711 237.274746 
L 352.934665 219.36861 
L 353.204572 165.106843 
L 353.339525 158.833521 
L 353.474479 165.625504 
L 353.744386 248.191315 
L 353.87934 197.239096 
L 354.014293 231.273103 
L 354.149247 216.997591 
L 354.419154 152.80718 
L 354.554107 149.52233 
L 354.824014 185.087621 
L 354.958968 227.272008 
L 355.363829 154.140878 
L 355.498782 153.32584 
L 355.903643 235.842255 
L 356.038596 208.08157 
L 356.17355 156.042634 
L 356.308503 153.424633 
L 356.443457 135.222119 
L 356.57841 142.532763 
L 356.848318 218.05961 
L 356.983271 198.548096 
L 357.118225 151.251199 
L 357.253178 146.879631 
L 357.523085 150.287972 
L 357.792992 220.035459 
L 357.927946 211.415816 
L 358.062899 189.409792 
L 358.197853 190.842283 
L 358.332807 185.976754 
L 358.46776 188.495962 
L 358.602714 194.250623 
L 358.737667 230.729745 
L 358.872621 218.010214 
L 359.142528 147.003122 
L 359.277481 148.262726 
L 359.412435 151.177104 
L 359.547388 173.800581 
L 359.682342 222.727554 
L 359.817295 206.303305 
L 359.952249 140.507517 
L 360.087203 137.469648 
L 360.222156 146.879631 
L 360.35711 145.249556 
L 360.627017 207.340626 
L 360.76197 192.373566 
L 360.896924 148.065141 
L 361.031877 144.039348 
L 361.166831 135.543195 
L 361.301784 140.853291 
L 361.571692 214.231401 
L 361.706645 203.413625 
L 361.841599 140.112347 
L 361.976552 136.605214 
L 362.111506 146.410367 
L 362.246459 145.051971 
L 362.516366 220.430629 
L 362.921227 133.64144 
L 363.05618 134.456478 
L 363.191134 131.912572 
L 363.461041 203.463022 
L 363.595995 194.201227 
L 363.865902 131.66559 
L 364.000855 132.480628 
L 364.135809 134.999836 
L 364.405716 215.021741 
L 364.540669 187.038773 
L 364.675623 135.963063 
L 364.810577 141.890611 
L 365.080484 136.25944 
L 365.350391 217.812629 
L 365.485344 195.781907 
L 365.620298 133.937817 
L 365.755251 128.948797 
L 366.025158 145.768216 
L 366.295065 218.701761 
L 366.430019 188.397169 
L 366.564973 122.132116 
L 366.699926 126.207306 
L 366.83488 124.330249 
L 366.969833 135.543195 
L 367.23974 214.354892 
L 367.644601 120.427946 
L 367.779554 109.264397 
L 368.049462 175.158977 
L 368.184415 215.589798 
L 368.319369 192.299472 
L 368.454322 138.803347 
L 368.589276 138.926837 
L 368.724229 152.41201 
L 368.859183 146.854933 
L 369.12909 214.552477 
L 369.398997 173.504204 
L 369.668904 189.903754 
L 369.803858 178.863695 
L 370.073765 210.082117 
L 370.343672 182.197941 
L 370.478625 226.629857 
L 370.748532 171.800033 
L 371.018439 203.537116 
L 371.153393 190.101339 
L 371.4233 117.735851 
L 371.693207 133.64144 
L 371.963114 212.477835 
L 372.098068 190.447113 
L 372.233021 144.039348 
L 372.367975 137.543743 
L 372.502928 137.44495 
L 372.637882 145.521235 
L 372.907789 216.651817 
L 373.042743 208.303853 
L 373.177696 169.799486 
L 373.447603 189.879056 
L 373.582557 198.548096 
L 373.852464 256.761562 
L 373.987417 239.497577 
L 374.122371 185.408697 
L 374.257324 182.642507 
L 374.392278 175.875223 
L 374.527232 162.167767 
L 374.797139 215.491005 
L 374.932092 205.784645 
L 375.067046 147.991047 
L 375.201999 150.757236 
L 375.336953 143.347801 
L 375.471906 146.064594 
L 375.60686 163.822541 
L 375.741813 207.464117 
L 375.876767 191.706717 
L 376.011721 138.679856 
L 376.146674 136.160648 
L 376.281628 131.5421 
L 376.551535 203.21604 
L 376.686488 97.92796 
L 376.821442 102.966376 
L 376.956395 131.714987 
L 377.091349 185.556885 
L 377.226302 177.826374 
L 377.361256 107.066264 
L 377.496209 94.865393 
L 377.766117 113.833549 
L 378.036024 177.060733 
L 378.170977 171.429562 
L 378.440884 117.143096 
L 378.575838 115.38953 
L 378.710791 125.515759 
L 378.980698 178.641412 
L 379.115652 163.205088 
L 379.385559 107.214453 
L 379.520513 99.335753 
L 379.655466 103.559131 
L 379.925373 173.207826 
L 380.060327 154.659539 
L 380.19528 103.855509 
L 380.330234 105.633773 
L 380.465187 96.594262 
L 380.600141 107.906 
L 380.870048 176.863148 
L 381.005002 166.317051 
L 381.139955 108.227076 
L 381.409862 96.470771 
L 381.544816 107.757811 
L 381.814723 163.797843 
L 381.949676 151.399387 
L 382.219583 91.407657 
L 382.354537 92.099204 
L 382.624444 117.637059 
L 382.759398 155.499275 
L 383.164258 74.118974 
L 383.434165 73.600313 
L 383.704072 154.733633 
L 383.97398 70.587143 
L 384.108933 71.79735 
L 384.243887 76.934559 
L 384.37884 99.953206 
L 384.648747 163.822541 
L 384.783701 146.780839 
L 385.053608 87.43126 
L 385.188561 68.858274 
L 385.323515 72.711181 
L 385.458468 92.54377 
L 385.593422 148.21333 
L 385.728376 140.680404 
L 385.863329 79.774843 
L 386.26819 63.572877 
L 386.538097 157.302238 
L 386.67305 140.161743 
L 386.808004 72.439502 
L 386.942957 72.686483 
L 387.212865 102.818188 
L 387.347818 117.118398 
L 387.482772 167.675447 
L 387.887632 94.64311 
L 388.157539 100.496564 
L 388.427446 173.578298 
L 388.5624 153.646916 
L 388.832307 95.631035 
L 388.967261 90.666713 
L 389.102214 97.705677 
L 389.372121 178.789601 
L 389.507075 152.461406 
L 389.642028 86.863203 
L 389.776982 96.470771 
L 389.911935 89.209524 
L 390.046889 98.347828 
L 390.316796 168.786863 
L 390.45175 162.019578 
L 390.586703 105.115113 
L 390.721657 103.559131 
L 390.991564 105.559679 
L 391.261471 183.235262 
L 391.396424 158.265464 
L 391.531378 108.572849 
L 391.666331 117.414776 
L 391.801285 136.92629 
L 391.936238 135.963063 
L 392.206146 175.677638 
L 392.341099 157.672709 
L 392.611006 106.621698 
L 392.880913 115.438926 
L 393.15082 193.534378 
L 393.285774 166.440542 
L 393.420727 106.597 
L 393.555681 109.758359 
L 393.825588 105.954849 
L 394.095495 184.618357 
L 394.230449 166.885108 
L 394.365402 118.67438 
L 394.635309 107.807208 
L 394.770263 114.055832 
L 395.04017 182.7413 
L 395.175124 168.416391 
L 395.310077 118.67438 
L 395.445031 111.017963 
L 395.579984 116.031681 
L 395.714938 110.375812 
L 395.984845 191.904302 
L 396.119798 172.36809 
L 396.254752 119.884588 
L 396.389705 113.586567 
L 396.524659 123.441117 
L 396.659612 120.847814 
L 396.92952 196.572246 
L 397.064473 173.652392 
L 397.199427 130.628269 
L 397.33438 126.824759 
L 397.604287 129.319269 
L 397.874194 202.573889 
L 398.279055 129.615646 
L 398.414009 129.665043 
L 398.548962 123.836287 
L 398.818869 200.178172 
L 398.953823 180.24679 
L 399.088776 135.172723 
L 399.22373 135.765478 
L 399.358683 130.578873 
L 399.493637 134.777553 
L 399.763544 199.758304 
L 399.898497 177.579393 
L 400.033451 132.875798 
L 400.168405 147.200707 
L 400.303358 134.407082 
L 400.438312 139.346705 
L 400.708219 200.499247 
L 400.843172 185.062923 
L 400.978126 137.395554 
L 401.113079 145.521235 
L 401.248033 126.15791 
L 401.382986 134.283591 
L 401.652894 206.451494 
L 401.787847 182.864791 
L 402.057754 126.306099 
L 402.192708 135.74078 
L 402.327661 133.690836 
L 402.597568 196.671039 
L 402.732522 178.443827 
L 402.867475 124.132664 
L 403.002429 121.56406 
L 403.137382 123.860985 
L 403.272336 128.528929 
L 403.542243 215.614496 
L 403.81215 124.651325 
L 403.947104 130.529477 
L 404.217011 114.20402 
L 404.486918 186.470716 
L 404.621871 167.403768 
L 404.756825 124.9724 
L 404.891779 134.579968 
L 405.161686 179.530545 
L 405.296639 183.506942 
L 405.431593 215.16993 
L 405.566546 194.522303 
L 405.7015 135.691384 
L 405.836453 132.801704 
L 405.971407 123.292928 
L 406.10636 123.441117 
L 406.376268 182.197941 
L 406.511221 161.377427 
L 406.646175 105.905452 
L 406.781128 109.807755 
L 406.916082 101.015225 
L 407.051035 100.323678 
L 407.320942 188.594754 
L 407.455896 159.475672 
L 407.725803 94.445525 
L 407.99571 104.053094 
L 408.265617 175.875223 
L 408.400571 153.152954 
L 408.535524 107.535528 
L 408.805431 103.608527 
L 408.940385 102.595905 
L 409.210292 189.607377 
L 409.480199 109.48668 
L 409.615153 106.251226 
L 409.750106 95.631035 
L 409.88506 98.002054 
L 410.154967 195.21385 
L 410.424874 103.015773 
L 410.559827 107.263849 
L 410.694781 104.744641 
L 410.829734 110.128831 
L 411.099641 188.24898 
L 411.369549 95.359356 
L 411.504502 103.756716 
L 411.639456 85.652995 
L 411.774409 103.559131 
L 412.044316 180.370281 
L 412.449177 103.262754 
L 412.58413 111.388435 
L 412.719084 104.966924 
L 412.988991 182.568413 
L 413.258898 91.778129 
L 413.393852 93.72928 
L 413.528805 102.669999 
L 413.663759 95.878016 
L 413.933666 176.44328 
L 414.068619 150.609047 
L 414.203573 99.854413 
L 414.338526 91.23477 
L 414.47348 92.173298 
L 414.608434 108.202377 
L 414.878341 185.112319 
L 415.148248 109.585472 
L 415.283201 116.994908 
L 415.418155 108.992717 
L 415.553108 112.252869 
L 415.823015 187.038773 
L 416.092923 123.885683 
L 416.227876 128.77591 
L 416.36283 139.914762 
L 416.632737 209.143589 
L 416.76769 200.20287 
L 417.037597 145.051971 
L 417.172551 147.348896 
L 417.307504 157.178747 
L 417.442458 228.605707 
L 417.712365 203.956984 
L 418.117226 123.26823 
L 418.252179 122.403796 
L 418.387133 112.524548 
L 418.65704 179.036582 
L 418.926947 98.199639 
L 419.0619 105.01632 
L 419.196854 89.357713 
L 419.331808 100.224885 
L 419.601715 165.625504 
L 419.871622 95.334658 
L 420.141529 100.694149 
L 420.276482 86.591524 
L 420.546389 169.033844 
L 420.681343 144.953178 
L 420.816297 92.42028 
L 420.95125 97.606885 
L 421.086204 95.556941 
L 421.221157 87.801731 
L 421.491064 172.442184 
L 421.895925 94.64311 
L 422.030878 107.090962 
L 422.165832 105.979547 
L 422.300785 123.243532 
L 422.435739 174.46743 
L 422.570693 157.425728 
L 422.705646 116.797323 
L 422.975553 163.377975 
L 423.380414 215.96027 
L 423.515367 192.225378 
L 423.785274 123.589305 
L 423.920228 120.057475 
L 424.055182 109.807755 
L 424.190135 126.997646 
L 424.325089 243.967936 
L 424.460042 221.714931 
L 424.594996 90.024562 
L 424.864903 76.317106 
L 424.999856 89.826977 
L 425.269763 170.466335 
L 425.404717 142.557461 
L 425.53967 81.232032 
L 425.674624 74.365955 
L 425.809578 75.847842 
L 426.079485 128.133759 
L 426.214438 166.144164 
L 426.619299 67.252897 
L 426.754252 61.794612 
L 426.889206 67.697463 
L 427.159113 162.686428 
L 427.294067 131.27042 
L 427.42902 49.371459 
L 427.563974 53.718327 
L 427.698927 38.578381 
L 428.103788 154.289067 
L 428.238741 120.032776 
L 428.373695 55.150818 
L 428.508648 53.100875 
L 428.643602 53.051478 
L 428.913509 112.697435 
L 429.048463 173.257222 
L 429.31837 75.403276 
L 429.453323 77.823691 
L 429.588277 75.230389 
L 429.72323 96.371979 
L 429.993137 188.817037 
L 430.128091 175.331864 
L 430.397998 57.423045 
L 430.667905 51.125025 
L 430.937812 162.217163 
L 431.207719 48.284741 
L 431.342673 51.026233 
L 431.61258 65.10416 
L 431.882487 149.077764 
L 432.017441 126.750665 
L 432.152394 63.819858 
L 432.287348 62.930726 
L 432.422301 162.488843 
L 432.422301 162.488843 
" style="fill:none;stroke:#1f77b4;stroke-linecap:square;stroke-width:1.5;"/>
   </g>
   <g id="patch_3">
    <path d="M 63.290625 304.44375 
L 63.290625 25.918125 
" style="fill:none;stroke:#000000;stroke-linecap:square;stroke-linejoin:miter;stroke-width:0.8;"/>
   </g>
   <g id="patch_4">
    <path d="M 450 304.44375 
L 450 25.918125 
" style="fill:none;stroke:#000000;stroke-linecap:square;stroke-linejoin:miter;stroke-width:0.8;"/>
   </g>
   <g id="patch_5">
    <path d="M 63.290625 304.44375 
L 450 304.44375 
" style="fill:none;stroke:#000000;stroke-linecap:square;stroke-linejoin:miter;stroke-width:0.8;"/>
   </g>
   <g id="patch_6">
    <path d="M 63.290625 25.918125 
L 450 25.918125 
" style="fill:none;stroke:#000000;stroke-linecap:square;stroke-linejoin:miter;stroke-width:0.8;"/>
   </g>
   <g id="text_16">
    <!-- Total Starts by Day (9,493,007) -->
    <defs>
     <path d="M 0.484375 72.90625 
L 67.671875 72.90625 
L 67.671875 58.6875 
L 43.5 58.6875 
L 43.5 0 
L 24.703125 0 
L 24.703125 58.6875 
L 0.484375 58.6875 
z
" id="DejaVuSans-Bold-84"/>
     <path d="M 34.421875 43.5 
Q 28.609375 43.5 25.5625 39.328125 
Q 22.515625 35.15625 22.515625 27.296875 
Q 22.515625 19.4375 25.5625 15.25 
Q 28.609375 11.078125 34.421875 11.078125 
Q 40.140625 11.078125 43.15625 15.25 
Q 46.1875 19.4375 46.1875 27.296875 
Q 46.1875 35.15625 43.15625 39.328125 
Q 40.140625 43.5 34.421875 43.5 
z
M 34.421875 56 
Q 48.53125 56 56.46875 48.375 
Q 64.40625 40.765625 64.40625 27.296875 
Q 64.40625 13.8125 56.46875 6.1875 
Q 48.53125 -1.421875 34.421875 -1.421875 
Q 20.265625 -1.421875 12.28125 6.1875 
Q 4.296875 13.8125 4.296875 27.296875 
Q 4.296875 40.765625 12.28125 48.375 
Q 20.265625 56 34.421875 56 
z
" id="DejaVuSans-Bold-111"/>
     <path d="M 8.40625 75.984375 
L 25.875 75.984375 
L 25.875 0 
L 8.40625 0 
z
" id="DejaVuSans-Bold-108"/>
     <path d="M 37.5 11.28125 
Q 43.109375 11.28125 46.0625 15.375 
Q 49.03125 19.484375 49.03125 27.296875 
Q 49.03125 35.109375 46.0625 39.203125 
Q 43.109375 43.3125 37.5 43.3125 
Q 31.890625 43.3125 28.875 39.1875 
Q 25.875 35.0625 25.875 27.296875 
Q 25.875 19.53125 28.875 15.40625 
Q 31.890625 11.28125 37.5 11.28125 
z
M 25.875 46.6875 
Q 29.5 51.46875 33.890625 53.734375 
Q 38.28125 56 44 56 
Q 54.109375 56 60.59375 47.96875 
Q 67.09375 39.9375 67.09375 27.296875 
Q 67.09375 14.65625 60.59375 6.609375 
Q 54.109375 -1.421875 44 -1.421875 
Q 38.28125 -1.421875 33.890625 0.84375 
Q 29.5 3.125 25.875 7.90625 
L 25.875 0 
L 8.40625 0 
L 8.40625 75.984375 
L 25.875 75.984375 
z
" id="DejaVuSans-Bold-98"/>
     <path d="M 1.21875 54.6875 
L 18.703125 54.6875 
L 33.40625 17.578125 
L 45.90625 54.6875 
L 63.375 54.6875 
L 40.375 -5.171875 
Q 36.921875 -14.3125 32.296875 -17.9375 
Q 27.6875 -21.578125 20.125 -21.578125 
L 10.015625 -21.578125 
L 10.015625 -10.109375 
L 15.484375 -10.109375 
Q 19.921875 -10.109375 21.9375 -8.6875 
Q 23.96875 -7.28125 25.09375 -3.609375 
L 25.59375 -2.09375 
z
" id="DejaVuSans-Bold-121"/>
     <path d="M 27.984375 58.6875 
L 27.984375 14.203125 
L 34.71875 14.203125 
Q 46.234375 14.203125 52.3125 19.921875 
Q 58.40625 25.640625 58.40625 36.53125 
Q 58.40625 47.359375 52.34375 53.015625 
Q 46.296875 58.6875 34.71875 58.6875 
z
M 9.1875 72.90625 
L 29 72.90625 
Q 45.609375 72.90625 53.734375 70.53125 
Q 61.859375 68.171875 67.671875 62.5 
Q 72.796875 57.5625 75.28125 51.109375 
Q 77.78125 44.671875 77.78125 36.53125 
Q 77.78125 28.265625 75.28125 21.796875 
Q 72.796875 15.328125 67.671875 10.40625 
Q 61.8125 4.734375 53.609375 2.359375 
Q 45.40625 0 29 0 
L 9.1875 0 
z
" id="DejaVuSans-Bold-68"/>
     <path d="M 37.703125 -13.1875 
L 23.1875 -13.1875 
Q 15.71875 -1.125 12.15625 9.734375 
Q 8.59375 20.609375 8.59375 31.296875 
Q 8.59375 42 12.171875 52.953125 
Q 15.765625 63.921875 23.1875 75.875 
L 37.703125 75.875 
Q 31.453125 64.3125 28.328125 53.25 
Q 25.203125 42.1875 25.203125 31.390625 
Q 25.203125 20.609375 28.296875 9.515625 
Q 31.390625 -1.5625 37.703125 -13.1875 
z
" id="DejaVuSans-Bold-40"/>
     <path d="M 10.015625 1.609375 
L 10.015625 15.09375 
Q 14.5 12.984375 18.59375 11.9375 
Q 22.703125 10.890625 26.703125 10.890625 
Q 35.109375 10.890625 39.796875 15.546875 
Q 44.484375 20.21875 45.3125 29.390625 
Q 42 26.953125 38.234375 25.734375 
Q 34.46875 24.515625 30.078125 24.515625 
Q 18.890625 24.515625 12.03125 31.03125 
Q 5.171875 37.546875 5.171875 48.1875 
Q 5.171875 59.96875 12.8125 67.046875 
Q 20.453125 74.125 33.296875 74.125 
Q 47.5625 74.125 55.375 64.5 
Q 63.1875 54.890625 63.1875 37.3125 
Q 63.1875 19.234375 54.046875 8.90625 
Q 44.921875 -1.421875 29 -1.421875 
Q 23.875 -1.421875 19.1875 -0.65625 
Q 14.5 0.09375 10.015625 1.609375 
z
M 33.203125 36.71875 
Q 38.140625 36.71875 40.625 39.90625 
Q 43.109375 43.109375 43.109375 49.515625 
Q 43.109375 55.859375 40.625 59.078125 
Q 38.140625 62.3125 33.203125 62.3125 
Q 28.265625 62.3125 25.78125 59.078125 
Q 23.296875 55.859375 23.296875 49.515625 
Q 23.296875 43.109375 25.78125 39.90625 
Q 28.265625 36.71875 33.203125 36.71875 
z
" id="DejaVuSans-Bold-57"/>
     <path d="M 10.203125 18.890625 
L 27.78125 18.890625 
L 27.78125 4 
L 15.71875 -14.203125 
L 5.328125 -14.203125 
L 10.203125 4 
z
" id="DejaVuSans-Bold-44"/>
     <path d="M 36.8125 57.421875 
L 16.21875 26.90625 
L 36.8125 26.90625 
z
M 33.6875 72.90625 
L 54.59375 72.90625 
L 54.59375 26.90625 
L 64.984375 26.90625 
L 64.984375 13.28125 
L 54.59375 13.28125 
L 54.59375 0 
L 36.8125 0 
L 36.8125 13.28125 
L 4.5 13.28125 
L 4.5 29.390625 
z
" id="DejaVuSans-Bold-52"/>
     <path d="M 46.578125 39.3125 
Q 53.953125 37.40625 57.78125 32.6875 
Q 61.625 27.984375 61.625 20.703125 
Q 61.625 9.859375 53.3125 4.21875 
Q 45.015625 -1.421875 29.109375 -1.421875 
Q 23.484375 -1.421875 17.84375 -0.515625 
Q 12.203125 0.390625 6.6875 2.203125 
L 6.6875 16.703125 
Q 11.96875 14.0625 17.15625 12.71875 
Q 22.359375 11.375 27.390625 11.375 
Q 34.859375 11.375 38.84375 13.953125 
Q 42.828125 16.546875 42.828125 21.390625 
Q 42.828125 26.375 38.75 28.9375 
Q 34.671875 31.5 26.703125 31.5 
L 19.1875 31.5 
L 19.1875 43.609375 
L 27.09375 43.609375 
Q 34.1875 43.609375 37.640625 45.828125 
Q 41.109375 48.046875 41.109375 52.59375 
Q 41.109375 56.78125 37.734375 59.078125 
Q 34.375 61.375 28.21875 61.375 
Q 23.6875 61.375 19.046875 60.34375 
Q 14.40625 59.328125 9.8125 57.328125 
L 9.8125 71.09375 
Q 15.375 72.65625 20.84375 73.4375 
Q 26.3125 74.21875 31.59375 74.21875 
Q 45.796875 74.21875 52.84375 69.546875 
Q 59.90625 64.890625 59.90625 55.515625 
Q 59.90625 49.125 56.53125 45.046875 
Q 53.171875 40.96875 46.578125 39.3125 
z
" id="DejaVuSans-Bold-51"/>
     <path d="M 46 36.53125 
Q 46 50.203125 43.4375 55.78125 
Q 40.875 61.375 34.8125 61.375 
Q 28.765625 61.375 26.171875 55.78125 
Q 23.578125 50.203125 23.578125 36.53125 
Q 23.578125 22.703125 26.171875 17.03125 
Q 28.765625 11.375 34.8125 11.375 
Q 40.828125 11.375 43.40625 17.03125 
Q 46 22.703125 46 36.53125 
z
M 64.796875 36.375 
Q 64.796875 18.265625 56.984375 8.421875 
Q 49.171875 -1.421875 34.8125 -1.421875 
Q 20.40625 -1.421875 12.59375 8.421875 
Q 4.78125 18.265625 4.78125 36.375 
Q 4.78125 54.546875 12.59375 64.375 
Q 20.40625 74.21875 34.8125 74.21875 
Q 49.171875 74.21875 56.984375 64.375 
Q 64.796875 54.546875 64.796875 36.375 
z
" id="DejaVuSans-Bold-48"/>
     <path d="M 6.6875 72.90625 
L 61.625 72.90625 
L 61.625 62.3125 
L 33.203125 0 
L 14.890625 0 
L 41.796875 59.078125 
L 6.6875 59.078125 
z
" id="DejaVuSans-Bold-55"/>
     <path d="M 8.015625 -13.1875 
Q 14.265625 -1.5625 17.390625 9.515625 
Q 20.515625 20.609375 20.515625 31.390625 
Q 20.515625 42.1875 17.390625 53.25 
Q 14.265625 64.3125 8.015625 75.875 
L 22.515625 75.875 
Q 29.9375 63.921875 33.515625 52.953125 
Q 37.109375 42 37.109375 31.296875 
Q 37.109375 20.609375 33.546875 9.734375 
Q 29.984375 -1.125 22.515625 -13.1875 
z
" id="DejaVuSans-Bold-41"/>
    </defs>
    <g transform="translate(150.068437 19.918125)scale(0.12 -0.12)">
     <use xlink:href="#DejaVuSans-Bold-84"/>
     <use x="68.009766" xlink:href="#DejaVuSans-Bold-111"/>
     <use x="136.710938" xlink:href="#DejaVuSans-Bold-116"/>
     <use x="184.513672" xlink:href="#DejaVuSans-Bold-97"/>
     <use x="251.994141" xlink:href="#DejaVuSans-Bold-108"/>
     <use x="286.271484" xlink:href="#DejaVuSans-Bold-32"/>
     <use x="321.085938" xlink:href="#DejaVuSans-Bold-83"/>
     <use x="393.107422" xlink:href="#DejaVuSans-Bold-116"/>
     <use x="440.910156" xlink:href="#DejaVuSans-Bold-97"/>
     <use x="508.390625" xlink:href="#DejaVuSans-Bold-114"/>
     <use x="557.707031" xlink:href="#DejaVuSans-Bold-116"/>
     <use x="605.509766" xlink:href="#DejaVuSans-Bold-115"/>
     <use x="665.03125" xlink:href="#DejaVuSans-Bold-32"/>
     <use x="699.845703" xlink:href="#DejaVuSans-Bold-98"/>
     <use x="771.427734" xlink:href="#DejaVuSans-Bold-121"/>
     <use x="836.613281" xlink:href="#DejaVuSans-Bold-32"/>
     <use x="871.427734" xlink:href="#DejaVuSans-Bold-68"/>
     <use x="954.435547" xlink:href="#DejaVuSans-Bold-97"/>
     <use x="1021.869141" xlink:href="#DejaVuSans-Bold-121"/>
     <use x="1087.054688" xlink:href="#DejaVuSans-Bold-32"/>
     <use x="1121.869141" xlink:href="#DejaVuSans-Bold-40"/>
     <use x="1167.572266" xlink:href="#DejaVuSans-Bold-57"/>
     <use x="1237.152344" xlink:href="#DejaVuSans-Bold-44"/>
     <use x="1275.140625" xlink:href="#DejaVuSans-Bold-52"/>
     <use x="1344.720703" xlink:href="#DejaVuSans-Bold-57"/>
     <use x="1414.300781" xlink:href="#DejaVuSans-Bold-51"/>
     <use x="1483.880859" xlink:href="#DejaVuSans-Bold-44"/>
     <use x="1521.869141" xlink:href="#DejaVuSans-Bold-48"/>
     <use x="1591.449219" xlink:href="#DejaVuSans-Bold-48"/>
     <use x="1661.029297" xlink:href="#DejaVuSans-Bold-55"/>
     <use x="1730.609375" xlink:href="#DejaVuSans-Bold-41"/>
    </g>
   </g>
  </g>
  <g id="patch_7">
   <path d="M 0 345.6 
L 460.8 345.6 
L 460.8 0 
L 0 0 
z
" style="fill:none;stroke:#000000;stroke-linejoin:miter;stroke-width:2;"/>
  </g>
 </g>
 <defs>
  <clipPath id="p9e8b771f98">
   <rect height="278.525625" width="386.709375" x="63.290625" y="25.918125"/>
  </clipPath>
 </defs>
</svg>
