<?xml version="1.0" encoding="utf-8" standalone="no"?>
<!DOCTYPE svg PUBLIC "-//W3C//DTD SVG 1.1//EN"
  "http://www.w3.org/Graphics/SVG/1.1/DTD/svg11.dtd">
<!-- Created with matplotlib (https://matplotlib.org/) -->
<svg height="345.6pt" version="1.1" viewBox="0 0 460.8 345.6" width="460.8pt" xmlns="http://www.w3.org/2000/svg" xmlns:xlink="http://www.w3.org/1999/xlink">
 <defs>
  <style type="text/css">
*{stroke-linecap:butt;stroke-linejoin:round;}
  </style>
 </defs>
 <g id="figure_1">
  <g id="patch_1">
   <path d="M 0 345.6 
L 460.8 345.6 
L 460.8 0 
L 0 0 
z
" style="fill:#ffffff;"/>
  </g>
  <g id="axes_1">
   <g id="patch_2">
    <path d="M 56.928125 304.44375 
L 450 304.44375 
L 450 25.918125 
L 56.928125 25.918125 
z
" style="fill:#ffffff;"/>
   </g>
   <g id="matplotlib.axis_1">
    <g id="xtick_1">
     <g id="line2d_1">
      <defs>
       <path d="M 0 0 
L 0 3.5 
" id="mea734fed29" style="stroke:#000000;stroke-width:0.8;"/>
      </defs>
      <g>
       <use style="stroke:#000000;stroke-width:0.8;" x="82.808936" xlink:href="#mea734fed29" y="304.44375"/>
      </g>
     </g>
     <g id="text_1">
      <!-- 2013 -->
      <defs>
       <path d="M 19.1875 8.296875 
L 53.609375 8.296875 
L 53.609375 0 
L 7.328125 0 
L 7.328125 8.296875 
Q 12.9375 14.109375 22.625 23.890625 
Q 32.328125 33.6875 34.8125 36.53125 
Q 39.546875 41.84375 41.421875 45.53125 
Q 43.3125 49.21875 43.3125 52.78125 
Q 43.3125 58.59375 39.234375 62.25 
Q 35.15625 65.921875 28.609375 65.921875 
Q 23.96875 65.921875 18.8125 64.3125 
Q 13.671875 62.703125 7.8125 59.421875 
L 7.8125 69.390625 
Q 13.765625 71.78125 18.9375 73 
Q 24.125 74.21875 28.421875 74.21875 
Q 39.75 74.21875 46.484375 68.546875 
Q 53.21875 62.890625 53.21875 53.421875 
Q 53.21875 48.921875 51.53125 44.890625 
Q 49.859375 40.875 45.40625 35.40625 
Q 44.1875 33.984375 37.640625 27.21875 
Q 31.109375 20.453125 19.1875 8.296875 
z
" id="DejaVuSans-50"/>
       <path d="M 31.78125 66.40625 
Q 24.171875 66.40625 20.328125 58.90625 
Q 16.5 51.421875 16.5 36.375 
Q 16.5 21.390625 20.328125 13.890625 
Q 24.171875 6.390625 31.78125 6.390625 
Q 39.453125 6.390625 43.28125 13.890625 
Q 47.125 21.390625 47.125 36.375 
Q 47.125 51.421875 43.28125 58.90625 
Q 39.453125 66.40625 31.78125 66.40625 
z
M 31.78125 74.21875 
Q 44.046875 74.21875 50.515625 64.515625 
Q 56.984375 54.828125 56.984375 36.375 
Q 56.984375 17.96875 50.515625 8.265625 
Q 44.046875 -1.421875 31.78125 -1.421875 
Q 19.53125 -1.421875 13.0625 8.265625 
Q 6.59375 17.96875 6.59375 36.375 
Q 6.59375 54.828125 13.0625 64.515625 
Q 19.53125 74.21875 31.78125 74.21875 
z
" id="DejaVuSans-48"/>
       <path d="M 12.40625 8.296875 
L 28.515625 8.296875 
L 28.515625 63.921875 
L 10.984375 60.40625 
L 10.984375 69.390625 
L 28.421875 72.90625 
L 38.28125 72.90625 
L 38.28125 8.296875 
L 54.390625 8.296875 
L 54.390625 0 
L 12.40625 0 
z
" id="DejaVuSans-49"/>
       <path d="M 40.578125 39.3125 
Q 47.65625 37.796875 51.625 33 
Q 55.609375 28.21875 55.609375 21.1875 
Q 55.609375 10.40625 48.1875 4.484375 
Q 40.765625 -1.421875 27.09375 -1.421875 
Q 22.515625 -1.421875 17.65625 -0.515625 
Q 12.796875 0.390625 7.625 2.203125 
L 7.625 11.71875 
Q 11.71875 9.328125 16.59375 8.109375 
Q 21.484375 6.890625 26.8125 6.890625 
Q 36.078125 6.890625 40.9375 10.546875 
Q 45.796875 14.203125 45.796875 21.1875 
Q 45.796875 27.640625 41.28125 31.265625 
Q 36.765625 34.90625 28.71875 34.90625 
L 20.21875 34.90625 
L 20.21875 43.015625 
L 29.109375 43.015625 
Q 36.375 43.015625 40.234375 45.921875 
Q 44.09375 48.828125 44.09375 54.296875 
Q 44.09375 59.90625 40.109375 62.90625 
Q 36.140625 65.921875 28.71875 65.921875 
Q 24.65625 65.921875 20.015625 65.03125 
Q 15.375 64.15625 9.8125 62.3125 
L 9.8125 71.09375 
Q 15.4375 72.65625 20.34375 73.4375 
Q 25.25 74.21875 29.59375 74.21875 
Q 40.828125 74.21875 47.359375 69.109375 
Q 53.90625 64.015625 53.90625 55.328125 
Q 53.90625 49.265625 50.4375 45.09375 
Q 46.96875 40.921875 40.578125 39.3125 
z
" id="DejaVuSans-51"/>
      </defs>
      <g transform="translate(70.083936 319.042187)scale(0.1 -0.1)">
       <use xlink:href="#DejaVuSans-50"/>
       <use x="63.623047" xlink:href="#DejaVuSans-48"/>
       <use x="127.246094" xlink:href="#DejaVuSans-49"/>
       <use x="190.869141" xlink:href="#DejaVuSans-51"/>
      </g>
     </g>
    </g>
    <g id="xtick_2">
     <g id="line2d_2">
      <g>
       <use style="stroke:#000000;stroke-width:0.8;" x="120.309912" xlink:href="#mea734fed29" y="304.44375"/>
      </g>
     </g>
     <g id="text_2">
      <!-- 2014 -->
      <defs>
       <path d="M 37.796875 64.3125 
L 12.890625 25.390625 
L 37.796875 25.390625 
z
M 35.203125 72.90625 
L 47.609375 72.90625 
L 47.609375 25.390625 
L 58.015625 25.390625 
L 58.015625 17.1875 
L 47.609375 17.1875 
L 47.609375 0 
L 37.796875 0 
L 37.796875 17.1875 
L 4.890625 17.1875 
L 4.890625 26.703125 
z
" id="DejaVuSans-52"/>
      </defs>
      <g transform="translate(107.584912 319.042187)scale(0.1 -0.1)">
       <use xlink:href="#DejaVuSans-50"/>
       <use x="63.623047" xlink:href="#DejaVuSans-48"/>
       <use x="127.246094" xlink:href="#DejaVuSans-49"/>
       <use x="190.869141" xlink:href="#DejaVuSans-52"/>
      </g>
     </g>
    </g>
    <g id="xtick_3">
     <g id="line2d_3">
      <g>
       <use style="stroke:#000000;stroke-width:0.8;" x="157.810888" xlink:href="#mea734fed29" y="304.44375"/>
      </g>
     </g>
     <g id="text_3">
      <!-- 2015 -->
      <defs>
       <path d="M 10.796875 72.90625 
L 49.515625 72.90625 
L 49.515625 64.59375 
L 19.828125 64.59375 
L 19.828125 46.734375 
Q 21.96875 47.46875 24.109375 47.828125 
Q 26.265625 48.1875 28.421875 48.1875 
Q 40.625 48.1875 47.75 41.5 
Q 54.890625 34.8125 54.890625 23.390625 
Q 54.890625 11.625 47.5625 5.09375 
Q 40.234375 -1.421875 26.90625 -1.421875 
Q 22.3125 -1.421875 17.546875 -0.640625 
Q 12.796875 0.140625 7.71875 1.703125 
L 7.71875 11.625 
Q 12.109375 9.234375 16.796875 8.0625 
Q 21.484375 6.890625 26.703125 6.890625 
Q 35.15625 6.890625 40.078125 11.328125 
Q 45.015625 15.765625 45.015625 23.390625 
Q 45.015625 31 40.078125 35.4375 
Q 35.15625 39.890625 26.703125 39.890625 
Q 22.75 39.890625 18.8125 39.015625 
Q 14.890625 38.140625 10.796875 36.28125 
z
" id="DejaVuSans-53"/>
      </defs>
      <g transform="translate(145.085888 319.042187)scale(0.1 -0.1)">
       <use xlink:href="#DejaVuSans-50"/>
       <use x="63.623047" xlink:href="#DejaVuSans-48"/>
       <use x="127.246094" xlink:href="#DejaVuSans-49"/>
       <use x="190.869141" xlink:href="#DejaVuSans-53"/>
      </g>
     </g>
    </g>
    <g id="xtick_4">
     <g id="line2d_4">
      <g>
       <use style="stroke:#000000;stroke-width:0.8;" x="195.209122" xlink:href="#mea734fed29" y="304.44375"/>
      </g>
     </g>
     <g id="text_4">
      <!-- 2016 -->
      <defs>
       <path d="M 33.015625 40.375 
Q 26.375 40.375 22.484375 35.828125 
Q 18.609375 31.296875 18.609375 23.390625 
Q 18.609375 15.53125 22.484375 10.953125 
Q 26.375 6.390625 33.015625 6.390625 
Q 39.65625 6.390625 43.53125 10.953125 
Q 47.40625 15.53125 47.40625 23.390625 
Q 47.40625 31.296875 43.53125 35.828125 
Q 39.65625 40.375 33.015625 40.375 
z
M 52.59375 71.296875 
L 52.59375 62.3125 
Q 48.875 64.0625 45.09375 64.984375 
Q 41.3125 65.921875 37.59375 65.921875 
Q 27.828125 65.921875 22.671875 59.328125 
Q 17.53125 52.734375 16.796875 39.40625 
Q 19.671875 43.65625 24.015625 45.921875 
Q 28.375 48.1875 33.59375 48.1875 
Q 44.578125 48.1875 50.953125 41.515625 
Q 57.328125 34.859375 57.328125 23.390625 
Q 57.328125 12.15625 50.6875 5.359375 
Q 44.046875 -1.421875 33.015625 -1.421875 
Q 20.359375 -1.421875 13.671875 8.265625 
Q 6.984375 17.96875 6.984375 36.375 
Q 6.984375 53.65625 15.1875 63.9375 
Q 23.390625 74.21875 37.203125 74.21875 
Q 40.921875 74.21875 44.703125 73.484375 
Q 48.484375 72.75 52.59375 71.296875 
z
" id="DejaVuSans-54"/>
      </defs>
      <g transform="translate(182.484122 319.042187)scale(0.1 -0.1)">
       <use xlink:href="#DejaVuSans-50"/>
       <use x="63.623047" xlink:href="#DejaVuSans-48"/>
       <use x="127.246094" xlink:href="#DejaVuSans-49"/>
       <use x="190.869141" xlink:href="#DejaVuSans-54"/>
      </g>
     </g>
    </g>
    <g id="xtick_5">
     <g id="line2d_5">
      <g>
       <use style="stroke:#000000;stroke-width:0.8;" x="232.81284" xlink:href="#mea734fed29" y="304.44375"/>
      </g>
     </g>
     <g id="text_5">
      <!-- 2017 -->
      <defs>
       <path d="M 8.203125 72.90625 
L 55.078125 72.90625 
L 55.078125 68.703125 
L 28.609375 0 
L 18.3125 0 
L 43.21875 64.59375 
L 8.203125 64.59375 
z
" id="DejaVuSans-55"/>
      </defs>
      <g transform="translate(220.08784 319.042187)scale(0.1 -0.1)">
       <use xlink:href="#DejaVuSans-50"/>
       <use x="63.623047" xlink:href="#DejaVuSans-48"/>
       <use x="127.246094" xlink:href="#DejaVuSans-49"/>
       <use x="190.869141" xlink:href="#DejaVuSans-55"/>
      </g>
     </g>
    </g>
    <g id="xtick_6">
     <g id="line2d_6">
      <g>
       <use style="stroke:#000000;stroke-width:0.8;" x="270.313816" xlink:href="#mea734fed29" y="304.44375"/>
      </g>
     </g>
     <g id="text_6">
      <!-- 2018 -->
      <defs>
       <path d="M 31.78125 34.625 
Q 24.75 34.625 20.71875 30.859375 
Q 16.703125 27.09375 16.703125 20.515625 
Q 16.703125 13.921875 20.71875 10.15625 
Q 24.75 6.390625 31.78125 6.390625 
Q 38.8125 6.390625 42.859375 10.171875 
Q 46.921875 13.96875 46.921875 20.515625 
Q 46.921875 27.09375 42.890625 30.859375 
Q 38.875 34.625 31.78125 34.625 
z
M 21.921875 38.8125 
Q 15.578125 40.375 12.03125 44.71875 
Q 8.5 49.078125 8.5 55.328125 
Q 8.5 64.0625 14.71875 69.140625 
Q 20.953125 74.21875 31.78125 74.21875 
Q 42.671875 74.21875 48.875 69.140625 
Q 55.078125 64.0625 55.078125 55.328125 
Q 55.078125 49.078125 51.53125 44.71875 
Q 48 40.375 41.703125 38.8125 
Q 48.828125 37.15625 52.796875 32.3125 
Q 56.78125 27.484375 56.78125 20.515625 
Q 56.78125 9.90625 50.3125 4.234375 
Q 43.84375 -1.421875 31.78125 -1.421875 
Q 19.734375 -1.421875 13.25 4.234375 
Q 6.78125 9.90625 6.78125 20.515625 
Q 6.78125 27.484375 10.78125 32.3125 
Q 14.796875 37.15625 21.921875 38.8125 
z
M 18.3125 54.390625 
Q 18.3125 48.734375 21.84375 45.5625 
Q 25.390625 42.390625 31.78125 42.390625 
Q 38.140625 42.390625 41.71875 45.5625 
Q 45.3125 48.734375 45.3125 54.390625 
Q 45.3125 60.0625 41.71875 63.234375 
Q 38.140625 66.40625 31.78125 66.40625 
Q 25.390625 66.40625 21.84375 63.234375 
Q 18.3125 60.0625 18.3125 54.390625 
z
" id="DejaVuSans-56"/>
      </defs>
      <g transform="translate(257.588816 319.042187)scale(0.1 -0.1)">
       <use xlink:href="#DejaVuSans-50"/>
       <use x="63.623047" xlink:href="#DejaVuSans-48"/>
       <use x="127.246094" xlink:href="#DejaVuSans-49"/>
       <use x="190.869141" xlink:href="#DejaVuSans-56"/>
      </g>
     </g>
    </g>
    <g id="xtick_7">
     <g id="line2d_7">
      <g>
       <use style="stroke:#000000;stroke-width:0.8;" x="307.506565" xlink:href="#mea734fed29" y="304.44375"/>
      </g>
     </g>
     <g id="text_7">
      <!-- 2019 -->
      <defs>
       <path d="M 10.984375 1.515625 
L 10.984375 10.5 
Q 14.703125 8.734375 18.5 7.8125 
Q 22.3125 6.890625 25.984375 6.890625 
Q 35.75 6.890625 40.890625 13.453125 
Q 46.046875 20.015625 46.78125 33.40625 
Q 43.953125 29.203125 39.59375 26.953125 
Q 35.25 24.703125 29.984375 24.703125 
Q 19.046875 24.703125 12.671875 31.3125 
Q 6.296875 37.9375 6.296875 49.421875 
Q 6.296875 60.640625 12.9375 67.421875 
Q 19.578125 74.21875 30.609375 74.21875 
Q 43.265625 74.21875 49.921875 64.515625 
Q 56.59375 54.828125 56.59375 36.375 
Q 56.59375 19.140625 48.40625 8.859375 
Q 40.234375 -1.421875 26.421875 -1.421875 
Q 22.703125 -1.421875 18.890625 -0.6875 
Q 15.09375 0.046875 10.984375 1.515625 
z
M 30.609375 32.421875 
Q 37.25 32.421875 41.125 36.953125 
Q 45.015625 41.5 45.015625 49.421875 
Q 45.015625 57.28125 41.125 61.84375 
Q 37.25 66.40625 30.609375 66.40625 
Q 23.96875 66.40625 20.09375 61.84375 
Q 16.21875 57.28125 16.21875 49.421875 
Q 16.21875 41.5 20.09375 36.953125 
Q 23.96875 32.421875 30.609375 32.421875 
z
" id="DejaVuSans-57"/>
      </defs>
      <g transform="translate(294.781565 319.042187)scale(0.1 -0.1)">
       <use xlink:href="#DejaVuSans-50"/>
       <use x="63.623047" xlink:href="#DejaVuSans-48"/>
       <use x="127.246094" xlink:href="#DejaVuSans-49"/>
       <use x="190.869141" xlink:href="#DejaVuSans-57"/>
      </g>
     </g>
    </g>
    <g id="xtick_8">
     <g id="line2d_8">
      <g>
       <use style="stroke:#000000;stroke-width:0.8;" x="345.007541" xlink:href="#mea734fed29" y="304.44375"/>
      </g>
     </g>
     <g id="text_8">
      <!-- 2020 -->
      <g transform="translate(332.282541 319.042187)scale(0.1 -0.1)">
       <use xlink:href="#DejaVuSans-50"/>
       <use x="63.623047" xlink:href="#DejaVuSans-48"/>
       <use x="127.246094" xlink:href="#DejaVuSans-50"/>
       <use x="190.869141" xlink:href="#DejaVuSans-48"/>
      </g>
     </g>
    </g>
    <g id="xtick_9">
     <g id="line2d_9">
      <g>
       <use style="stroke:#000000;stroke-width:0.8;" x="382.61126" xlink:href="#mea734fed29" y="304.44375"/>
      </g>
     </g>
     <g id="text_9">
      <!-- 2021 -->
      <g transform="translate(369.88626 319.042187)scale(0.1 -0.1)">
       <use xlink:href="#DejaVuSans-50"/>
       <use x="63.623047" xlink:href="#DejaVuSans-48"/>
       <use x="127.246094" xlink:href="#DejaVuSans-50"/>
       <use x="190.869141" xlink:href="#DejaVuSans-49"/>
      </g>
     </g>
    </g>
    <g id="xtick_10">
     <g id="line2d_10">
      <g>
       <use style="stroke:#000000;stroke-width:0.8;" x="420.112236" xlink:href="#mea734fed29" y="304.44375"/>
      </g>
     </g>
     <g id="text_10">
      <!-- 2022 -->
      <g transform="translate(407.387236 319.042187)scale(0.1 -0.1)">
       <use xlink:href="#DejaVuSans-50"/>
       <use x="63.623047" xlink:href="#DejaVuSans-48"/>
       <use x="127.246094" xlink:href="#DejaVuSans-50"/>
       <use x="190.869141" xlink:href="#DejaVuSans-50"/>
      </g>
     </g>
    </g>
    <g id="text_11">
     <!-- Year -->
     <defs>
      <path d="M -0.984375 72.90625 
L 19.578125 72.90625 
L 36.1875 46.921875 
L 52.78125 72.90625 
L 73.390625 72.90625 
L 45.609375 30.71875 
L 45.609375 0 
L 26.8125 0 
L 26.8125 30.71875 
z
" id="DejaVuSans-Bold-89"/>
      <path d="M 62.984375 27.484375 
L 62.984375 22.515625 
L 22.125 22.515625 
Q 22.75 16.359375 26.5625 13.28125 
Q 30.375 10.203125 37.203125 10.203125 
Q 42.71875 10.203125 48.5 11.84375 
Q 54.296875 13.484375 60.40625 16.796875 
L 60.40625 3.328125 
Q 54.203125 0.984375 48 -0.21875 
Q 41.796875 -1.421875 35.59375 -1.421875 
Q 20.75 -1.421875 12.515625 6.125 
Q 4.296875 13.671875 4.296875 27.296875 
Q 4.296875 40.671875 12.375 48.328125 
Q 20.453125 56 34.625 56 
Q 47.515625 56 55.25 48.234375 
Q 62.984375 40.484375 62.984375 27.484375 
z
M 45.015625 33.296875 
Q 45.015625 38.28125 42.109375 41.328125 
Q 39.203125 44.390625 34.515625 44.390625 
Q 29.4375 44.390625 26.265625 41.53125 
Q 23.09375 38.671875 22.3125 33.296875 
z
" id="DejaVuSans-Bold-101"/>
      <path d="M 32.90625 24.609375 
Q 27.4375 24.609375 24.671875 22.75 
Q 21.921875 20.90625 21.921875 17.28125 
Q 21.921875 13.96875 24.140625 12.078125 
Q 26.375 10.203125 30.328125 10.203125 
Q 35.25 10.203125 38.625 13.734375 
Q 42 17.28125 42 22.609375 
L 42 24.609375 
z
M 59.625 31.203125 
L 59.625 0 
L 42 0 
L 42 8.109375 
Q 38.484375 3.125 34.078125 0.84375 
Q 29.6875 -1.421875 23.390625 -1.421875 
Q 14.890625 -1.421875 9.59375 3.53125 
Q 4.296875 8.5 4.296875 16.40625 
Q 4.296875 26.03125 10.90625 30.515625 
Q 17.53125 35.015625 31.6875 35.015625 
L 42 35.015625 
L 42 36.375 
Q 42 40.53125 38.71875 42.453125 
Q 35.453125 44.390625 28.515625 44.390625 
Q 22.90625 44.390625 18.0625 43.265625 
Q 13.234375 42.140625 9.078125 39.890625 
L 9.078125 53.21875 
Q 14.703125 54.59375 20.359375 55.296875 
Q 26.03125 56 31.6875 56 
Q 46.484375 56 53.046875 50.171875 
Q 59.625 44.34375 59.625 31.203125 
z
" id="DejaVuSans-Bold-97"/>
      <path d="M 49.03125 39.796875 
Q 46.734375 40.875 44.453125 41.375 
Q 42.1875 41.890625 39.890625 41.890625 
Q 33.15625 41.890625 29.515625 37.5625 
Q 25.875 33.25 25.875 25.203125 
L 25.875 0 
L 8.40625 0 
L 8.40625 54.6875 
L 25.875 54.6875 
L 25.875 45.703125 
Q 29.25 51.078125 33.609375 53.53125 
Q 37.984375 56 44.09375 56 
Q 44.96875 56 45.984375 55.921875 
Q 47.015625 55.859375 48.96875 55.609375 
z
" id="DejaVuSans-Bold-114"/>
     </defs>
     <g transform="translate(240.619531 332.720312)scale(0.1 -0.1)">
      <use xlink:href="#DejaVuSans-Bold-89"/>
      <use x="72.271484" xlink:href="#DejaVuSans-Bold-101"/>
      <use x="140.09375" xlink:href="#DejaVuSans-Bold-97"/>
      <use x="207.574219" xlink:href="#DejaVuSans-Bold-114"/>
     </g>
    </g>
   </g>
   <g id="matplotlib.axis_2">
    <g id="ytick_1">
     <g id="line2d_11">
      <defs>
       <path d="M 0 0 
L -3.5 0 
" id="m6286fa65a3" style="stroke:#000000;stroke-width:0.8;"/>
      </defs>
      <g>
       <use style="stroke:#000000;stroke-width:0.8;" x="56.928125" xlink:href="#m6286fa65a3" y="291.817902"/>
      </g>
     </g>
     <g id="text_12">
      <!-- 0 -->
      <g transform="translate(43.565625 295.617121)scale(0.1 -0.1)">
       <use xlink:href="#DejaVuSans-48"/>
      </g>
     </g>
    </g>
    <g id="ytick_2">
     <g id="line2d_12">
      <g>
       <use style="stroke:#000000;stroke-width:0.8;" x="56.928125" xlink:href="#m6286fa65a3" y="257.410358"/>
      </g>
     </g>
     <g id="text_13">
      <!-- 1000 -->
      <g transform="translate(24.478125 261.209577)scale(0.1 -0.1)">
       <use xlink:href="#DejaVuSans-49"/>
       <use x="63.623047" xlink:href="#DejaVuSans-48"/>
       <use x="127.246094" xlink:href="#DejaVuSans-48"/>
       <use x="190.869141" xlink:href="#DejaVuSans-48"/>
      </g>
     </g>
    </g>
    <g id="ytick_3">
     <g id="line2d_13">
      <g>
       <use style="stroke:#000000;stroke-width:0.8;" x="56.928125" xlink:href="#m6286fa65a3" y="223.002815"/>
      </g>
     </g>
     <g id="text_14">
      <!-- 2000 -->
      <g transform="translate(24.478125 226.802033)scale(0.1 -0.1)">
       <use xlink:href="#DejaVuSans-50"/>
       <use x="63.623047" xlink:href="#DejaVuSans-48"/>
       <use x="127.246094" xlink:href="#DejaVuSans-48"/>
       <use x="190.869141" xlink:href="#DejaVuSans-48"/>
      </g>
     </g>
    </g>
    <g id="ytick_4">
     <g id="line2d_14">
      <g>
       <use style="stroke:#000000;stroke-width:0.8;" x="56.928125" xlink:href="#m6286fa65a3" y="188.595271"/>
      </g>
     </g>
     <g id="text_15">
      <!-- 3000 -->
      <g transform="translate(24.478125 192.39449)scale(0.1 -0.1)">
       <use xlink:href="#DejaVuSans-51"/>
       <use x="63.623047" xlink:href="#DejaVuSans-48"/>
       <use x="127.246094" xlink:href="#DejaVuSans-48"/>
       <use x="190.869141" xlink:href="#DejaVuSans-48"/>
      </g>
     </g>
    </g>
    <g id="ytick_5">
     <g id="line2d_15">
      <g>
       <use style="stroke:#000000;stroke-width:0.8;" x="56.928125" xlink:href="#m6286fa65a3" y="154.187727"/>
      </g>
     </g>
     <g id="text_16">
      <!-- 4000 -->
      <g transform="translate(24.478125 157.986946)scale(0.1 -0.1)">
       <use xlink:href="#DejaVuSans-52"/>
       <use x="63.623047" xlink:href="#DejaVuSans-48"/>
       <use x="127.246094" xlink:href="#DejaVuSans-48"/>
       <use x="190.869141" xlink:href="#DejaVuSans-48"/>
      </g>
     </g>
    </g>
    <g id="ytick_6">
     <g id="line2d_16">
      <g>
       <use style="stroke:#000000;stroke-width:0.8;" x="56.928125" xlink:href="#m6286fa65a3" y="119.780184"/>
      </g>
     </g>
     <g id="text_17">
      <!-- 5000 -->
      <g transform="translate(24.478125 123.579402)scale(0.1 -0.1)">
       <use xlink:href="#DejaVuSans-53"/>
       <use x="63.623047" xlink:href="#DejaVuSans-48"/>
       <use x="127.246094" xlink:href="#DejaVuSans-48"/>
       <use x="190.869141" xlink:href="#DejaVuSans-48"/>
      </g>
     </g>
    </g>
    <g id="ytick_7">
     <g id="line2d_17">
      <g>
       <use style="stroke:#000000;stroke-width:0.8;" x="56.928125" xlink:href="#m6286fa65a3" y="85.37264"/>
      </g>
     </g>
     <g id="text_18">
      <!-- 6000 -->
      <g transform="translate(24.478125 89.171859)scale(0.1 -0.1)">
       <use xlink:href="#DejaVuSans-54"/>
       <use x="63.623047" xlink:href="#DejaVuSans-48"/>
       <use x="127.246094" xlink:href="#DejaVuSans-48"/>
       <use x="190.869141" xlink:href="#DejaVuSans-48"/>
      </g>
     </g>
    </g>
    <g id="ytick_8">
     <g id="line2d_18">
      <g>
       <use style="stroke:#000000;stroke-width:0.8;" x="56.928125" xlink:href="#m6286fa65a3" y="50.965096"/>
      </g>
     </g>
     <g id="text_19">
      <!-- 7000 -->
      <g transform="translate(24.478125 54.764315)scale(0.1 -0.1)">
       <use xlink:href="#DejaVuSans-55"/>
       <use x="63.623047" xlink:href="#DejaVuSans-48"/>
       <use x="127.246094" xlink:href="#DejaVuSans-48"/>
       <use x="190.869141" xlink:href="#DejaVuSans-48"/>
      </g>
     </g>
    </g>
    <g id="text_20">
     <!-- # Downloads -->
     <defs>
      <path d="M 44.484375 71.78125 
L 39.796875 52.984375 
L 52.6875 52.984375 
L 57.421875 71.78125 
L 68.21875 71.78125 
L 63.484375 52.984375 
L 77 52.984375 
L 77 42.578125 
L 60.890625 42.578125 
L 57.515625 29.203125 
L 71.390625 29.203125 
L 71.390625 18.703125 
L 54.984375 18.703125 
L 50.296875 0 
L 39.5 0 
L 44.1875 18.703125 
L 31.296875 18.703125 
L 26.609375 0 
L 15.71875 0 
L 20.40625 18.703125 
L 6.78125 18.703125 
L 6.78125 29.203125 
L 22.796875 29.203125 
L 26.21875 42.578125 
L 12.40625 42.578125 
L 12.40625 52.984375 
L 28.90625 52.984375 
L 33.59375 71.78125 
z
M 50 42.578125 
L 37.109375 42.578125 
L 33.6875 29.203125 
L 46.578125 29.203125 
z
" id="DejaVuSans-Bold-35"/>
      <path id="DejaVuSans-Bold-32"/>
      <path d="M 27.984375 58.6875 
L 27.984375 14.203125 
L 34.71875 14.203125 
Q 46.234375 14.203125 52.3125 19.921875 
Q 58.40625 25.640625 58.40625 36.53125 
Q 58.40625 47.359375 52.34375 53.015625 
Q 46.296875 58.6875 34.71875 58.6875 
z
M 9.1875 72.90625 
L 29 72.90625 
Q 45.609375 72.90625 53.734375 70.53125 
Q 61.859375 68.171875 67.671875 62.5 
Q 72.796875 57.5625 75.28125 51.109375 
Q 77.78125 44.671875 77.78125 36.53125 
Q 77.78125 28.265625 75.28125 21.796875 
Q 72.796875 15.328125 67.671875 10.40625 
Q 61.8125 4.734375 53.609375 2.359375 
Q 45.40625 0 29 0 
L 9.1875 0 
z
" id="DejaVuSans-Bold-68"/>
      <path d="M 34.421875 43.5 
Q 28.609375 43.5 25.5625 39.328125 
Q 22.515625 35.15625 22.515625 27.296875 
Q 22.515625 19.4375 25.5625 15.25 
Q 28.609375 11.078125 34.421875 11.078125 
Q 40.140625 11.078125 43.15625 15.25 
Q 46.1875 19.4375 46.1875 27.296875 
Q 46.1875 35.15625 43.15625 39.328125 
Q 40.140625 43.5 34.421875 43.5 
z
M 34.421875 56 
Q 48.53125 56 56.46875 48.375 
Q 64.40625 40.765625 64.40625 27.296875 
Q 64.40625 13.8125 56.46875 6.1875 
Q 48.53125 -1.421875 34.421875 -1.421875 
Q 20.265625 -1.421875 12.28125 6.1875 
Q 4.296875 13.8125 4.296875 27.296875 
Q 4.296875 40.765625 12.28125 48.375 
Q 20.265625 56 34.421875 56 
z
" id="DejaVuSans-Bold-111"/>
      <path d="M 3.515625 54.6875 
L 20.515625 54.6875 
L 29.6875 17 
L 38.921875 54.6875 
L 53.515625 54.6875 
L 62.703125 17.390625 
L 71.921875 54.6875 
L 88.921875 54.6875 
L 74.515625 0 
L 55.421875 0 
L 46.1875 37.59375 
L 37.015625 0 
L 17.921875 0 
z
" id="DejaVuSans-Bold-119"/>
      <path d="M 63.375 33.296875 
L 63.375 0 
L 45.796875 0 
L 45.796875 5.421875 
L 45.796875 25.484375 
Q 45.796875 32.5625 45.484375 35.25 
Q 45.171875 37.9375 44.390625 39.203125 
Q 43.359375 40.921875 41.59375 41.875 
Q 39.84375 42.828125 37.59375 42.828125 
Q 32.125 42.828125 29 38.59375 
Q 25.875 34.375 25.875 26.90625 
L 25.875 0 
L 8.40625 0 
L 8.40625 54.6875 
L 25.875 54.6875 
L 25.875 46.6875 
Q 29.828125 51.46875 34.265625 53.734375 
Q 38.71875 56 44.09375 56 
Q 53.5625 56 58.46875 50.1875 
Q 63.375 44.390625 63.375 33.296875 
z
" id="DejaVuSans-Bold-110"/>
      <path d="M 8.40625 75.984375 
L 25.875 75.984375 
L 25.875 0 
L 8.40625 0 
z
" id="DejaVuSans-Bold-108"/>
      <path d="M 45.609375 46.6875 
L 45.609375 75.984375 
L 63.1875 75.984375 
L 63.1875 0 
L 45.609375 0 
L 45.609375 7.90625 
Q 42 3.078125 37.640625 0.828125 
Q 33.296875 -1.421875 27.59375 -1.421875 
Q 17.484375 -1.421875 10.984375 6.609375 
Q 4.5 14.65625 4.5 27.296875 
Q 4.5 39.9375 10.984375 47.96875 
Q 17.484375 56 27.59375 56 
Q 33.25 56 37.625 53.734375 
Q 42 51.46875 45.609375 46.6875 
z
M 34.078125 11.28125 
Q 39.703125 11.28125 42.65625 15.375 
Q 45.609375 19.484375 45.609375 27.296875 
Q 45.609375 35.109375 42.65625 39.203125 
Q 39.703125 43.3125 34.078125 43.3125 
Q 28.515625 43.3125 25.5625 39.203125 
Q 22.609375 35.109375 22.609375 27.296875 
Q 22.609375 19.484375 25.5625 15.375 
Q 28.515625 11.28125 34.078125 11.28125 
z
" id="DejaVuSans-Bold-100"/>
      <path d="M 51.125 52.984375 
L 51.125 39.703125 
Q 45.515625 42.046875 40.28125 43.21875 
Q 35.0625 44.390625 30.421875 44.390625 
Q 25.4375 44.390625 23.015625 43.140625 
Q 20.609375 41.890625 20.609375 39.3125 
Q 20.609375 37.203125 22.4375 36.078125 
Q 24.265625 34.96875 29 34.421875 
L 32.078125 33.984375 
Q 45.515625 32.28125 50.140625 28.375 
Q 54.78125 24.46875 54.78125 16.109375 
Q 54.78125 7.375 48.328125 2.96875 
Q 41.890625 -1.421875 29.109375 -1.421875 
Q 23.6875 -1.421875 17.890625 -0.5625 
Q 12.109375 0.296875 6 2 
L 6 15.28125 
Q 11.234375 12.75 16.71875 11.46875 
Q 22.21875 10.203125 27.875 10.203125 
Q 33.015625 10.203125 35.59375 11.609375 
Q 38.1875 13.03125 38.1875 15.828125 
Q 38.1875 18.171875 36.40625 19.3125 
Q 34.625 20.453125 29.296875 21.09375 
L 26.21875 21.484375 
Q 14.546875 22.953125 9.859375 26.90625 
Q 5.171875 30.859375 5.171875 38.921875 
Q 5.171875 47.609375 11.125 51.796875 
Q 17.09375 56 29.390625 56 
Q 34.234375 56 39.546875 55.265625 
Q 44.875 54.546875 51.125 52.984375 
z
" id="DejaVuSans-Bold-115"/>
     </defs>
     <g transform="translate(18.398438 201.954375)rotate(-90)scale(0.1 -0.1)">
      <use xlink:href="#DejaVuSans-Bold-35"/>
      <use x="83.789062" xlink:href="#DejaVuSans-Bold-32"/>
      <use x="118.603516" xlink:href="#DejaVuSans-Bold-68"/>
      <use x="201.611328" xlink:href="#DejaVuSans-Bold-111"/>
      <use x="270.3125" xlink:href="#DejaVuSans-Bold-119"/>
      <use x="362.695312" xlink:href="#DejaVuSans-Bold-110"/>
      <use x="433.886719" xlink:href="#DejaVuSans-Bold-108"/>
      <use x="468.164062" xlink:href="#DejaVuSans-Bold-111"/>
      <use x="536.865234" xlink:href="#DejaVuSans-Bold-97"/>
      <use x="604.345703" xlink:href="#DejaVuSans-Bold-100"/>
      <use x="675.927734" xlink:href="#DejaVuSans-Bold-115"/>
     </g>
    </g>
   </g>
   <g id="line2d_19">
    <path clip-path="url(#pfe4fc96468)" d="M 74.795028 291.542642 
L 74.897771 290.992121 
L 75.000513 291.232974 
L 75.103256 290.269562 
L 75.411483 291.714679 
L 75.616968 291.026528 
L 75.822452 290.682453 
L 75.925195 290.888898 
L 76.027937 291.473826 
L 76.438907 290.235155 
L 76.541649 291.370604 
L 76.644392 290.820083 
L 76.747134 291.680272 
L 76.849876 291.508234 
L 76.952619 291.060936 
L 77.055361 291.336196 
L 77.260846 288.858853 
L 77.466331 290.71686 
L 77.569073 290.269562 
L 77.774558 290.71686 
L 77.8773 290.372785 
L 77.980043 289.581412 
L 78.185528 290.30397 
L 78.28827 291.508234 
L 78.493755 289.478189 
L 78.596497 290.613638 
L 78.69924 290.544823 
L 78.904724 289.787857 
L 79.007467 290.992121 
L 79.110209 288.583593 
L 79.315694 290.888898 
L 79.418436 288.170702 
L 79.623921 290.820083 
L 79.726664 291.060936 
L 79.932148 289.374966 
L 80.034891 289.822264 
L 80.137633 289.512596 
L 80.343118 290.4416 
L 80.44586 291.129751 
L 80.548603 288.033072 
L 80.754088 290.200747 
L 80.85683 289.959895 
L 80.959572 288.583593 
L 81.062315 291.198566 
L 81.2678 290.30397 
L 81.473284 290.923306 
L 81.576027 289.822264 
L 81.678769 291.026528 
L 81.781512 290.888898 
L 81.884254 290.957713 
L 81.986996 291.336196 
L 82.089739 290.923306 
L 82.192481 291.060936 
L 82.295224 289.409374 
L 82.397966 291.026528 
L 82.500708 290.131932 
L 82.603451 290.476008 
L 82.706193 291.473826 
L 82.911678 289.306151 
L 83.117163 289.822264 
L 83.219905 291.473826 
L 83.322648 291.439419 
L 83.42539 289.891079 
L 83.528132 290.30397 
L 83.630875 289.684634 
L 83.83636 290.957713 
L 83.939102 290.613638 
L 84.144587 290.888898 
L 84.350072 289.787857 
L 84.452814 289.512596 
L 84.658299 290.888898 
L 84.761041 290.200747 
L 84.863784 290.613638 
L 84.966526 290.510415 
L 85.069268 289.478189 
L 85.480238 291.095343 
L 85.58298 289.030891 
L 85.685723 290.57923 
L 85.788465 288.996483 
L 85.891208 289.030891 
L 85.99395 289.787857 
L 86.096692 289.202929 
L 86.199435 290.785676 
L 86.302177 288.618 
L 86.40492 288.721223 
L 86.507662 287.861034 
L 86.713147 290.613638 
L 86.918632 289.202929 
L 87.226859 287.551366 
L 87.432344 290.4416 
L 87.535086 290.131932 
L 87.637828 291.405011 
L 87.740571 288.033072 
L 87.843313 288.514778 
L 87.946056 287.826627 
L 88.048798 289.237336 
L 88.15154 288.273925 
L 88.254283 290.888898 
L 88.357025 290.785676 
L 88.56251 288.824446 
L 88.665252 289.478189 
L 88.767995 289.271744 
L 88.870737 289.374966 
L 88.97348 289.168521 
L 89.076222 291.301789 
L 89.178964 288.996483 
L 89.281707 290.097525 
L 89.384449 286.932031 
L 89.692676 291.129751 
L 89.795419 290.30397 
L 90.000904 286.863216 
L 90.206388 289.374966 
L 90.309131 288.686815 
L 90.514616 289.994302 
L 90.617358 287.344921 
L 90.822843 288.239517 
L 90.925585 287.516959 
L 91.13107 290.372785 
L 91.233812 289.581412 
L 91.439297 284.42028 
L 91.54204 288.858853 
L 91.644782 288.583593 
L 91.747524 289.271744 
L 91.850267 289.134113 
L 91.953009 290.200747 
L 92.158494 287.344921 
L 92.363979 288.790038 
L 92.466721 287.276106 
L 92.672206 290.200747 
L 92.774948 287.276106 
L 92.877691 289.340559 
L 93.083176 286.932031 
L 93.28866 290.407193 
L 93.494145 287.000846 
L 93.596888 286.51914 
L 93.69963 288.033072 
L 93.905115 284.592318 
L 94.007857 289.856672 
L 94.213342 286.484733 
L 94.316084 288.136295 
L 94.418827 287.172883 
L 94.521569 285.142838 
L 94.624312 285.486914 
L 94.727054 283.491276 
L 94.829796 288.75563 
L 95.035281 283.835352 
L 95.138024 285.727767 
L 95.240766 285.452506 
L 95.343508 286.175065 
L 95.446251 289.925487 
L 95.651736 285.865397 
L 95.754478 286.175065 
L 95.85722 287.207291 
L 95.959963 286.175065 
L 96.165448 289.306151 
L 96.26819 288.893261 
L 96.473675 284.833171 
L 96.576417 283.835352 
L 96.67916 285.314876 
L 96.781902 279.672039 
L 96.884644 289.306151 
L 96.987387 289.065298 
L 97.192872 283.732129 
L 97.295614 285.521321 
L 97.398356 284.213835 
L 97.603841 288.996483 
L 97.809326 286.415918 
L 98.014811 284.764355 
L 98.117553 285.280469 
L 98.42578 289.030891 
L 98.528523 281.495639 
L 98.631265 284.179427 
L 98.734008 282.871941 
L 98.83675 285.177246 
L 98.939492 284.55791 
L 99.144977 287.826627 
L 99.24772 286.587955 
L 99.555947 281.151563 
L 99.761432 287.276106 
L 99.864174 288.962076 
L 100.172401 283.147201 
L 100.377886 285.486914 
L 100.583371 288.824446 
L 100.788856 285.074023 
L 100.99434 283.181608 
L 101.097083 284.041797 
L 101.199825 288.686815 
L 101.302568 287.344921 
L 101.508052 281.013933 
L 101.610795 280.807488 
L 101.919022 288.75563 
L 102.021764 288.20511 
L 102.227249 278.226922 
L 102.329992 268.59281 
L 102.432734 273.478681 
L 102.638219 287.138476 
L 102.740961 288.170702 
L 102.946446 284.317057 
L 103.049188 282.32142 
L 103.254673 284.661133 
L 103.357416 289.237336 
L 103.665643 282.803125 
L 103.768385 282.73431 
L 103.871128 281.702084 
L 103.97387 283.250423 
L 104.076612 287.929849 
L 104.179355 287.241699 
L 104.282097 281.461231 
L 104.38484 284.764355 
L 104.487582 281.048341 
L 104.898552 288.962076 
L 105.206779 280.704265 
L 105.309521 281.874122 
L 105.515006 288.308332 
L 105.720491 284.179427 
L 105.823233 283.628906 
L 105.925976 281.667676 
L 106.234203 290.131932 
L 106.336945 288.858853 
L 106.54243 284.936393 
L 106.645172 283.663314 
L 106.747915 283.972982 
L 106.9534 286.10625 
L 107.056142 288.411555 
L 107.158884 284.523503 
L 107.261627 286.003027 
L 107.467112 279.981707 
L 107.672596 288.445963 
L 107.775339 288.75563 
L 107.980824 281.874122 
L 108.083566 282.837533 
L 108.186309 285.968619 
L 108.289051 283.697722 
L 108.494536 288.927668 
L 108.802763 279.981707 
L 108.905505 283.972982 
L 109.008248 280.807488 
L 109.11099 288.273925 
L 109.419217 279.465594 
L 109.52196 282.493458 
L 109.624702 281.358009 
L 109.830187 287.654589 
L 109.932929 287.792219 
L 110.138414 279.740854 
L 110.241157 283.147201 
L 110.446641 281.633269 
L 110.652126 288.583593 
L 110.857611 282.906348 
L 110.960353 283.663314 
L 111.063096 280.669858 
L 111.165838 281.702084 
L 111.371323 287.757812 
L 111.576808 281.358009 
L 111.782293 278.26133 
L 111.987777 284.69554 
L 112.398747 282.046159 
L 112.501489 273.065791 
L 112.706974 288.962076 
L 112.912459 281.082748 
L 113.015201 277.194696 
L 113.117944 284.28265 
L 113.220686 277.469956 
L 113.426171 287.104068 
L 113.528913 287.276106 
L 113.631656 281.667676 
L 113.734398 282.011752 
L 113.837141 280.77308 
L 113.939883 281.151563 
L 114.042625 279.327964 
L 114.145368 290.02871 
L 114.24811 286.932031 
L 114.350853 276.71299 
L 114.453595 278.67422 
L 114.556337 267.250916 
L 114.65908 280.394597 
L 114.761822 279.500001 
L 114.864565 287.035253 
L 115.172792 281.392416 
L 115.378277 278.846258 
L 115.583761 286.691178 
L 115.686504 285.211653 
L 115.789246 278.364552 
L 115.891989 282.252605 
L 115.994731 280.119337 
L 116.097473 282.424642 
L 116.200216 280.841895 
L 116.302958 286.897623 
L 116.405701 285.658952 
L 116.508443 279.534409 
L 116.611185 280.704265 
L 116.81667 283.904167 
L 117.022155 285.762174 
L 117.124897 286.278287 
L 117.22764 278.502182 
L 117.330382 281.358009 
L 117.433125 275.302281 
L 117.535867 283.250423 
L 117.638609 281.461231 
L 117.741352 286.484733 
L 117.844094 285.142838 
L 117.946837 281.013933 
L 118.049579 283.594499 
L 118.152321 281.770899 
L 118.255064 282.59668 
L 118.357806 281.495639 
L 118.460549 288.033072 
L 118.768776 282.940756 
L 118.871518 275.680764 
L 118.974261 278.708628 
L 119.077003 286.24388 
L 119.179745 284.385872 
L 119.38523 286.037435 
L 119.487973 285.624544 
L 119.590715 284.69554 
L 119.7962 287.344921 
L 120.001685 286.10625 
L 120.104427 287.138476 
L 120.207169 282.803125 
L 120.309912 286.691178 
L 120.515397 282.493458 
L 120.720881 284.833171 
L 120.926366 282.699903 
L 121.029109 279.121518 
L 121.234593 279.844077 
L 121.337336 285.486914 
L 121.440078 284.076205 
L 121.645563 279.706447 
L 121.748305 280.291375 
L 121.851048 278.81185 
L 122.056533 286.209472 
L 122.159275 286.415918 
L 122.570245 272.37764 
L 122.775729 285.246061 
L 122.878472 283.388054 
L 122.981214 283.628906 
L 123.186699 275.164651 
L 123.289441 283.353646 
L 123.392184 281.598861 
L 123.494926 284.179427 
L 123.803153 279.224741 
L 124.008638 282.837533 
L 124.111381 281.013933 
L 124.214123 284.523503 
L 124.316865 283.181608 
L 124.419608 275.233466 
L 124.52235 278.330145 
L 124.625093 270.898115 
L 124.727835 271.758304 
L 124.93332 285.762174 
L 125.036062 285.762174 
L 125.241547 277.779624 
L 125.447032 275.508726 
L 125.652517 283.835352 
L 125.755259 284.489095 
L 126.063486 269.625036 
L 126.268971 279.947299 
L 126.371713 284.351465 
L 126.474456 283.009571 
L 126.577198 270.313187 
L 126.679941 277.297918 
L 126.782683 274.820575 
L 126.885425 278.467775 
L 126.988168 277.641994 
L 127.193653 287.035253 
L 127.399137 273.753941 
L 127.50188 272.618493 
L 127.604622 278.777443 
L 127.707365 276.16247 
L 127.810107 284.454688 
L 127.912849 283.043978 
L 128.118334 271.861527 
L 128.221077 275.027021 
L 128.323819 274.373277 
L 128.632046 283.422461 
L 128.734789 275.990432 
L 128.837531 260.094147 
L 129.248501 282.18379 
L 129.351243 281.908529 
L 129.65947 269.349776 
L 129.967697 286.175065 
L 130.07044 281.942937 
L 130.173182 270.072334 
L 130.275925 270.55404 
L 130.378667 277.951662 
L 130.481409 273.891572 
L 130.686894 285.796582 
L 130.995121 274.958205 
L 131.097864 277.814032 
L 131.200606 274.682945 
L 131.406091 285.934212 
L 131.508833 284.076205 
L 131.714318 272.6529 
L 131.817061 281.667676 
L 131.919803 280.36019 
L 132.022545 281.117156 
L 132.125288 285.005208 
L 132.330773 277.091473 
L 132.433515 277.538771 
L 132.536257 275.439911 
L 132.639 282.355827 
L 132.741742 279.603224 
L 132.947227 284.592318 
L 133.152712 272.343232 
L 133.255454 278.467775 
L 133.358197 277.366734 
L 133.460939 280.36019 
L 133.563681 286.622363 
L 133.666424 285.452506 
L 133.871909 272.962568 
L 133.974651 277.229103 
L 134.180136 274.510907 
L 134.282878 284.179427 
L 134.385621 280.463412 
L 134.591105 268.936885 
L 134.693848 272.205602 
L 134.79659 269.969112 
L 135.002075 281.598861 
L 135.104817 284.179427 
L 135.310302 274.61413 
L 135.413045 278.570998 
L 135.515787 274.029202 
L 135.721272 286.071842 
L 135.824014 285.486914 
L 136.234984 266.459542 
L 136.543211 286.553548 
L 136.645953 279.362371 
L 136.748696 279.981707 
L 136.851438 273.857164 
L 137.056923 279.534409 
L 137.262408 285.555729 
L 137.570635 270.519632 
L 137.878862 288.34274 
L 138.187089 274.20124 
L 138.289832 279.396779 
L 138.392574 271.242191 
L 138.495317 274.304462 
L 138.700801 287.551366 
L 138.906286 273.650719 
L 139.009029 276.059247 
L 139.111771 275.267873 
L 139.317256 286.415918 
L 139.522741 278.123699 
L 139.625483 271.861527 
L 139.728225 272.859345 
L 140.139195 285.590136 
L 140.34468 268.799255 
L 140.550165 275.956024 
L 140.755649 286.725585 
L 140.961134 275.543134 
L 141.063877 277.297918 
L 141.166619 271.586266 
L 141.372104 279.465594 
L 141.474846 282.218197 
L 141.680331 273.788349 
L 141.783073 277.814032 
L 141.885816 277.607586 
L 141.988558 277.229103 
L 142.194043 285.590136 
L 142.296785 283.525684 
L 142.50227 272.102379 
L 142.605013 272.136787 
L 143.015982 285.899804 
L 143.118725 273.375458 
L 143.221467 275.164651 
L 143.324209 270.657263 
L 143.632437 291.783494 
L 143.837921 278.605405 
L 144.146149 261.504856 
L 144.351633 273.788349 
L 144.454376 278.502182 
L 144.557118 269.143331 
L 144.659861 271.999157 
L 144.762603 268.489587 
L 144.865345 274.923798 
L 144.968088 273.581904 
L 145.173573 281.530046 
L 145.379057 263.087603 
L 145.4818 271.964749 
L 145.584542 269.797074 
L 145.790027 283.250423 
L 146.200997 269.384183 
L 146.406481 274.33887 
L 146.509224 281.289194 
L 146.611966 281.220378 
L 146.817451 273.753941 
L 147.022936 269.625036 
L 147.125678 277.641994 
L 147.228421 276.540952 
L 147.331163 280.22256 
L 147.433905 273.444274 
L 147.536648 274.820575 
L 147.63939 274.166832 
L 147.844875 270.898115 
L 147.947617 284.936393 
L 148.05036 282.73431 
L 148.255845 262.674712 
L 148.461329 276.747398 
L 148.564072 269.934704 
L 148.769557 283.078386 
L 148.872299 274.442092 
L 148.975041 274.648538 
L 149.077784 273.100198 
L 149.283269 276.3001 
L 149.386011 283.732129 
L 149.591496 275.646356 
L 149.694238 264.739165 
L 149.796981 277.469956 
L 149.899723 272.412047 
L 150.002465 275.095836 
L 150.105208 284.454688 
L 150.310693 274.648538 
L 150.516177 270.382002 
L 150.61892 271.173376 
L 150.721662 274.923798 
L 150.824405 283.800944 
L 150.927147 280.77308 
L 151.029889 258.373769 
L 151.235374 278.502182 
L 151.338117 276.644175 
L 151.440859 278.364552 
L 151.543601 284.523503 
L 151.646344 282.011752 
L 151.851829 268.31755 
L 151.954571 273.650719 
L 152.057313 272.859345 
L 152.160056 276.57536 
L 152.262798 284.351465 
L 152.365541 280.841895 
L 152.468283 272.996975 
L 152.571025 276.71299 
L 152.77651 272.893753 
L 152.879253 273.857164 
L 152.981995 283.491276 
L 153.084737 279.121518 
L 153.18748 263.947792 
L 153.290222 265.771391 
L 153.392965 272.859345 
L 153.495707 272.756123 
L 153.598449 276.16247 
L 153.701192 283.353646 
L 153.803934 271.827119 
L 153.906677 275.405504 
L 154.112161 270.760485 
L 154.420389 284.110612 
L 154.523131 283.560091 
L 154.728616 274.545315 
L 154.831358 270.27878 
L 154.934101 273.547496 
L 155.036843 272.24001 
L 155.139585 284.626725 
L 155.34507 277.814032 
L 155.550555 273.100198 
L 155.653297 273.822757 
L 155.858782 282.149382 
L 155.961525 283.009571 
L 156.064267 274.373277 
L 156.167009 276.196877 
L 156.269752 275.577541 
L 156.372494 271.758304 
L 156.577979 286.622363 
L 156.680721 283.904167 
L 156.783464 268.764848 
L 156.886206 282.631088 
L 156.988949 281.942937 
L 157.091691 280.291375 
L 157.194433 285.314876 
L 157.297176 284.936393 
L 157.399918 283.732129 
L 157.605403 274.682945 
L 157.708145 283.766537 
L 157.810888 278.949481 
L 157.91363 283.491276 
L 158.119115 282.493458 
L 158.3246 277.125881 
L 158.427342 278.467775 
L 158.530085 272.033564 
L 158.838312 283.628906 
L 159.043797 267.078878 
L 159.146539 275.439911 
L 159.249281 270.8293 
L 159.352024 272.859345 
L 159.454766 282.59668 
L 159.557509 264.360682 
L 159.660251 275.749579 
L 159.762993 264.257459 
L 159.968478 275.233466 
L 160.071221 274.958205 
L 160.276705 284.007389 
L 160.379448 270.794893 
L 160.48219 275.508726 
L 160.584933 264.051014 
L 160.995902 283.319239 
L 161.406872 258.580215 
L 161.612357 282.699903 
L 161.715099 275.061428 
L 161.817841 276.71299 
L 161.920584 275.680764 
L 162.023326 270.037927 
L 162.126069 271.517451 
L 162.434296 280.36019 
L 162.537038 277.125881 
L 162.639781 263.259641 
L 162.742523 272.92816 
L 162.845265 271.655081 
L 163.05075 282.32142 
L 163.256235 272.859345 
L 163.358977 270.27878 
L 163.46172 271.655081 
L 163.564462 268.420772 
L 163.667205 274.098017 
L 163.769947 286.278287 
L 163.872689 283.525684 
L 164.078174 273.753941 
L 164.180917 268.351957 
L 164.386401 276.16247 
L 164.489144 281.977344 
L 164.694629 264.463905 
L 164.797371 272.859345 
L 165.002856 271.723896 
L 165.105598 272.446455 
L 165.311083 282.59668 
L 165.516568 270.69167 
L 165.722053 274.270055 
L 165.824795 274.992613 
L 165.927537 281.977344 
L 166.03028 280.119337 
L 166.133022 262.365045 
L 166.235765 273.581904 
L 166.338507 273.547496 
L 166.441249 248.98051 
L 166.646734 284.076205 
L 166.749477 281.530046 
L 166.954961 271.242191 
L 167.057704 269.693851 
L 167.160446 275.405504 
L 167.263189 268.936885 
L 167.365931 272.067972 
L 167.468673 283.009571 
L 167.571416 268.420772 
L 167.674158 273.685126 
L 167.879643 265.427316 
L 168.085128 281.874122 
L 168.18787 280.291375 
L 168.701582 252.111597 
L 168.804325 281.702084 
L 168.907067 281.392416 
L 169.215294 261.367226 
L 169.523521 283.560091 
L 169.626264 281.598861 
L 169.831749 264.326274 
L 169.934491 269.487406 
L 170.037233 263.259641 
L 170.242718 284.626725 
L 170.345461 283.904167 
L 170.448203 267.835844 
L 170.653688 274.579722 
L 170.75643 250.94174 
L 170.961915 274.61413 
L 171.064657 280.532228 
L 171.1674 272.480862 
L 171.270142 273.444274 
L 171.475627 267.422953 
L 171.681112 284.729948 
L 171.886597 274.4765 
L 171.989339 275.027021 
L 172.092081 257.960879 
L 172.297566 271.655081 
L 172.400309 270.519632 
L 172.503051 279.121518 
L 172.605793 277.401141 
L 172.708536 268.86807 
L 172.811278 274.20124 
L 172.914021 273.100198 
L 173.016763 267.113286 
L 173.222248 281.151563 
L 173.32499 260.197369 
L 173.530475 275.783987 
L 173.633217 268.59281 
L 173.73596 277.538771 
L 173.838702 271.620674 
L 173.941445 283.869759 
L 174.044187 263.775754 
L 174.146929 271.792711 
L 174.249672 265.599354 
L 174.557899 285.005208 
L 174.763384 263.156418 
L 174.866126 265.805799 
L 174.968869 271.999157 
L 175.071611 270.106742 
L 175.174353 270.347595 
L 175.277096 284.454688 
L 175.379838 269.693851 
L 175.585323 272.033564 
L 175.790808 269.418591 
L 175.996293 283.422461 
L 176.201777 272.51527 
L 176.30452 272.171194 
L 176.407262 270.313187 
L 176.612747 265.599354 
L 176.818232 281.633269 
L 176.920974 270.726078 
L 177.023717 272.24001 
L 177.126459 271.655081 
L 177.331944 279.018296 
L 177.434686 274.923798 
L 177.537429 284.454688 
L 177.640171 261.332818 
L 177.742913 275.027021 
L 177.845656 274.063609 
L 178.051141 278.467775 
L 178.153883 283.869759 
L 178.256625 283.009571 
L 178.46211 264.360682 
L 178.564853 265.08324 
L 178.87308 286.175065 
L 178.975822 284.970801 
L 179.181307 239.139953 
L 179.386792 273.409866 
L 179.489534 270.037927 
L 179.592277 271.138968 
L 179.695019 277.986069 
L 179.797761 269.969112 
L 179.900504 252.799747 
L 180.003246 270.863708 
L 180.105989 258.993105 
L 180.208731 274.063609 
L 180.311473 269.315368 
L 180.414216 281.013933 
L 180.619701 257.995286 
L 180.722443 272.824938 
L 180.825186 250.012736 
L 180.927928 266.425135 
L 181.03067 251.870744 
L 181.133413 264.980018 
L 181.236155 261.573671 
L 181.44164 274.61413 
L 181.544382 272.6529 
L 181.85261 282.011752 
L 182.058094 263.431678 
L 182.160837 273.272236 
L 182.263579 255.930834 
L 182.469064 280.601043 
L 182.571806 274.098017 
L 182.674549 275.405504 
L 182.880034 273.134606 
L 183.085518 263.259641 
L 183.291003 277.057066 
L 183.496488 264.94561 
L 183.59923 273.581904 
L 183.701973 270.898115 
L 183.804715 272.274417 
L 184.0102 279.259148 
L 184.215685 264.154237 
L 184.318427 264.567127 
L 184.42117 245.608571 
L 184.523912 276.196877 
L 184.626654 268.076697 
L 184.729397 278.708628 
L 184.832139 266.838025 
L 184.934882 272.171194 
L 185.037624 270.55404 
L 185.140366 271.173376 
L 185.243109 265.461723 
L 185.345851 285.211653 
L 185.448594 270.622855 
L 185.551336 278.846258 
L 185.756821 269.831481 
L 185.962306 279.775262 
L 186.065048 280.63545 
L 186.270533 258.064102 
L 186.373275 275.027021 
L 186.476018 272.51527 
L 186.784245 282.149382 
L 186.98973 268.799255 
L 187.092472 268.31755 
L 187.195214 266.35632 
L 187.297957 270.141149 
L 187.400699 281.082748 
L 187.503442 276.334507 
L 187.606184 241.066775 
L 188.017154 275.818394 
L 188.119896 278.743035 
L 188.222638 277.607586 
L 188.325381 264.223052 
L 188.73635 274.717353 
L 188.941835 272.79053 
L 189.044578 264.360682 
L 189.14732 264.773573 
L 189.250062 263.12201 
L 189.352805 263.328456 
L 189.55829 276.988251 
L 189.661032 276.506545 
L 189.866517 266.425135 
L 189.969259 272.37764 
L 190.072002 267.354138 
L 190.277486 278.53659 
L 190.380229 261.883339 
L 190.482971 265.874614 
L 190.585714 258.993105 
L 190.688456 267.250916 
L 190.791198 267.182101 
L 190.893941 269.762666 
L 190.996683 280.49782 
L 191.099426 278.364552 
L 191.202168 269.280961 
L 191.30491 271.104561 
L 191.407653 268.73044 
L 191.613138 276.43773 
L 192.12685 267.319731 
L 192.229592 268.489587 
L 192.332334 266.941248 
L 192.435077 282.45905 
L 192.537819 278.880665 
L 192.743304 268.627217 
L 192.846046 266.046652 
L 192.948789 272.51527 
L 193.051531 271.345413 
L 193.154274 280.256967 
L 193.257016 277.607586 
L 193.359758 259.715664 
L 193.462501 271.723896 
L 193.667986 267.422953 
L 193.976213 278.777443 
L 194.181698 274.235647 
L 194.28444 276.644175 
L 194.489925 282.390235 
L 194.592667 283.112793 
L 194.798152 274.442092 
L 194.900894 276.816213 
L 195.003637 275.611949 
L 195.209122 283.250423 
L 195.311864 282.355827 
L 195.414606 283.009571 
L 195.722834 260.679075 
L 195.928318 268.971293 
L 196.133803 274.88939 
L 196.339288 263.534901 
L 196.44203 265.909022 
L 196.544773 251.285815 
L 196.647515 255.105053 
L 196.750258 278.983888 
L 196.853 276.231285 
L 197.058485 266.838025 
L 197.161227 261.057558 
L 197.26397 269.384183 
L 197.366712 244.92042 
L 197.469454 274.992613 
L 197.572197 260.816705 
L 197.777682 266.76921 
L 197.880424 269.212146 
L 197.983166 266.63158 
L 198.085909 270.96693 
L 198.188651 281.185971 
L 198.291394 275.543134 
L 198.394136 280.153745 
L 198.702363 249.496623 
L 198.805106 266.115467 
L 198.907848 256.618985 
L 199.01059 269.280961 
L 199.113333 248.326767 
L 199.216075 264.601535 
L 199.318818 264.016607 
L 199.42156 263.775754 
L 199.524302 249.186955 
L 199.729787 278.708628 
L 199.83253 260.094147 
L 199.935272 267.422953 
L 200.038014 252.386857 
L 200.140757 263.500493 
L 200.243499 259.784479 
L 200.346242 276.57536 
L 200.551726 251.07937 
L 200.757211 267.698214 
L 200.859954 266.872433 
L 201.065438 273.616311 
L 201.373666 258.304954 
L 201.57915 266.803618 
L 201.681893 268.764848 
L 201.784635 265.530539 
L 201.887378 271.173376 
L 202.092862 249.978329 
L 202.195605 262.055377 
L 202.298347 262.020969 
L 202.606574 277.710809 
L 202.812059 237.832466 
L 202.914802 239.552843 
L 203.017544 261.986562 
L 203.120286 258.476992 
L 203.223029 278.743035 
L 203.428514 262.98438 
L 203.531256 264.704757 
L 203.633998 254.176049 
L 203.736741 260.851113 
L 203.839483 275.267873 
L 204.044968 245.918239 
L 204.14771 264.223052 
L 204.250453 249.565438 
L 204.353195 261.298411 
L 204.455938 257.238321 
L 204.55868 262.193007 
L 204.661422 279.844077 
L 205.072392 248.464397 
L 205.277877 268.31755 
L 205.380619 259.06192 
L 205.483362 269.934704 
L 205.586104 236.421757 
L 205.688846 264.773573 
L 205.894331 247.397763 
L 206.099816 277.194696 
L 206.202558 277.125881 
L 206.613528 233.118632 
L 206.819013 277.538771 
L 206.921755 260.782297 
L 207.024498 261.711301 
L 207.229982 251.251408 
L 207.332725 245.05805 
L 207.53821 280.084929 
L 207.640952 262.193007 
L 207.743694 269.418591 
L 207.846437 250.322404 
L 207.949179 264.980018 
L 208.051922 262.98438 
L 208.257406 273.409866 
L 208.360149 269.521814 
L 208.462891 259.887701 
L 208.565634 259.956516 
L 208.668376 262.124192 
L 208.771118 214.366521 
L 209.079346 275.680764 
L 209.182088 254.623347 
L 209.28483 268.558402 
L 209.387573 266.975655 
L 209.490315 238.795877 
L 209.6958 273.031383 
L 209.901285 281.667676 
L 210.10677 253.384676 
L 210.312254 265.358501 
L 210.414997 267.870251 
L 210.517739 265.048833 
L 210.620482 253.487898 
L 210.723224 226.030678 
L 210.928709 266.665987 
L 211.031451 269.212146 
L 211.134194 278.123699 
L 211.236936 273.719534 
L 211.339678 256.034056 
L 211.442421 261.814524 
L 211.545163 259.956516 
L 211.647906 248.911695 
L 211.750648 251.251408 
L 211.85339 273.134606 
L 212.161618 260.369407 
L 212.26436 257.272728 
L 212.367102 236.524979 
L 212.572587 279.740854 
L 212.778072 248.808472 
L 212.983557 236.903462 
L 213.291784 274.786168 
L 213.394526 276.816213 
L 213.497269 265.186463 
L 213.600011 266.046652 
L 213.702754 260.816705 
L 213.805496 263.775754 
L 213.908238 262.124192 
L 214.113723 276.506545 
L 214.319208 259.543626 
L 214.524693 278.983888 
L 214.627435 259.302773 
L 214.730178 279.155926 
L 214.83292 257.582396 
L 214.935662 267.147693 
L 215.141147 252.421264 
L 215.449374 276.128062 
L 215.552117 275.130243 
L 215.757602 260.713482 
L 215.860344 256.55017 
L 215.963086 238.382987 
L 216.168571 276.609768 
L 216.271314 277.125881 
L 216.476798 260.059739 
L 216.579541 258.408177 
L 216.682283 237.798058 
L 216.887768 278.708628 
L 217.093253 257.823249 
L 217.195995 267.904659 
L 217.298738 254.451309 
L 217.40148 261.16078 
L 217.504222 260.300592 
L 217.606965 276.609768 
L 217.915192 262.57149 
L 218.017934 266.287504 
L 218.120677 265.771391 
L 218.223419 259.268366 
L 218.326162 276.334507 
L 218.428904 276.128062 
L 218.531646 275.027021 
L 218.634389 256.653392 
L 218.839874 271.207783 
L 218.942616 269.040108 
L 219.045358 279.224741 
L 219.148101 276.781805 
L 219.250843 237.522798 
L 219.456328 265.461723 
L 219.55907 274.442092 
L 219.661813 262.605897 
L 219.764555 279.568816 
L 219.867298 277.263511 
L 219.97004 265.392908 
L 220.072782 265.461723 
L 220.175525 264.567127 
L 220.278267 264.601535 
L 220.483752 273.478681 
L 220.586494 272.343232 
L 220.997464 255.896426 
L 221.202949 270.003519 
L 221.408434 245.470941 
L 221.511176 247.913876 
L 221.613918 254.485717 
L 221.716661 269.212146 
L 221.819403 268.214327 
L 221.922146 278.639813 
L 222.230373 251.07937 
L 222.333115 259.302773 
L 222.435858 253.556713 
L 222.5386 240.344217 
L 222.744085 276.024839 
L 222.846827 238.692654 
L 223.052312 260.059739 
L 223.155054 249.840699 
L 223.360539 272.102379 
L 223.566024 268.59281 
L 223.874251 242.374262 
L 224.079736 270.622855 
L 224.182478 261.16078 
L 224.285221 267.422953 
L 224.387963 264.498312 
L 224.490706 251.251408 
L 224.798933 274.20124 
L 224.901675 270.96693 
L 225.004418 263.844569 
L 225.10716 237.832466 
L 225.209902 265.427316 
L 225.312645 264.051014 
L 225.415387 259.027513 
L 225.620872 277.882847 
L 225.826357 258.270547 
L 225.929099 264.601535 
L 226.031842 249.840699 
L 226.237326 271.689489 
L 226.340069 255.827611 
L 226.442811 264.67035 
L 226.545554 262.949973 
L 226.648296 266.046652 
L 226.751038 247.500986 
L 226.956523 275.921617 
L 227.162008 260.919928 
L 227.26475 212.955812 
L 227.67572 274.61413 
L 227.778462 270.003519 
L 227.983947 253.0406 
L 228.08669 262.98438 
L 228.189432 252.386857 
L 228.394917 273.237828 
L 228.497659 274.545315 
L 228.600402 258.580215 
L 228.703144 263.672531 
L 228.805886 229.299395 
L 229.011371 269.212146 
L 229.114114 273.444274 
L 229.319598 267.147693 
L 229.422341 255.930834 
L 229.525083 261.436041 
L 229.627826 257.444766 
L 229.83331 271.207783 
L 229.936053 269.865889 
L 230.24428 233.772376 
L 230.347022 252.283634 
L 230.449765 249.462216 
L 230.65525 273.581904 
L 230.860734 256.515762 
L 230.963477 266.459542 
L 231.168962 257.169505 
L 231.271704 270.760485 
L 231.477189 239.105545 
L 231.579931 263.638124 
L 231.682674 262.502675 
L 231.785416 260.507037 
L 231.990901 270.588447 
L 232.196386 258.408177 
L 232.299128 267.250916 
L 232.40187 263.706939 
L 232.504613 271.689489 
L 232.607355 271.242191 
L 232.81284 259.19955 
L 232.915582 264.085422 
L 233.018325 255.517943 
L 233.121067 255.999649 
L 233.22381 254.58894 
L 233.429294 269.487406 
L 233.532037 268.799255 
L 233.737522 252.62771 
L 233.840264 259.027513 
L 233.943006 257.651211 
L 234.045749 242.511892 
L 234.148491 274.682945 
L 234.662203 246.571982 
L 234.867688 269.590629 
L 234.97043 273.065791 
L 235.175915 252.834155 
L 235.278658 254.485717 
L 235.3814 268.179919 
L 235.484142 249.290178 
L 235.689627 277.607586 
L 235.79237 255.449128 
L 235.997854 268.627217 
L 236.100597 265.943429 
L 236.203339 268.902478 
L 236.306082 280.36019 
L 236.408824 272.274417 
L 236.614309 236.903462 
L 236.819794 261.986562 
L 236.922536 259.853294 
L 237.128021 275.199058 
L 237.436248 243.681748 
L 237.53899 262.84675 
L 237.641733 262.502675 
L 237.847218 276.231285 
L 238.052702 257.616803 
L 238.155445 261.504856 
L 238.258187 279.706447 
L 238.36093 259.784479 
L 238.463672 278.158107 
L 238.771899 253.866381 
L 238.874642 260.266184 
L 239.080126 243.37208 
L 239.285611 275.680764 
L 239.491096 258.339362 
L 239.593838 262.089784 
L 239.696581 241.961371 
L 240.004808 269.865889 
L 240.210293 248.533212 
L 240.415778 256.137279 
L 240.51852 247.29454 
L 240.724005 272.6529 
L 240.92949 250.735295 
L 241.032232 253.075008 
L 241.134974 253.866381 
L 241.237717 260.094147 
L 241.340459 273.547496 
L 241.443202 269.865889 
L 241.545944 228.129539 
L 241.648686 230.572474 
L 241.751429 224.413524 
L 241.956914 255.655573 
L 242.162398 268.936885 
L 242.367883 249.565438 
L 242.573368 241.101183 
L 242.778853 272.756123 
L 243.189822 246.468759 
L 243.600792 276.128062 
L 243.806277 252.283634 
L 243.909019 224.516747 
L 244.217246 275.577541 
L 244.319989 271.930342 
L 244.422731 257.754434 
L 244.525474 260.88552 
L 244.628216 236.490572 
L 244.936443 279.534409 
L 245.347413 251.492261 
L 245.450155 251.526668 
L 245.65564 275.302281 
L 245.963867 249.049325 
L 246.06661 256.894245 
L 246.272094 239.03673 
L 246.477579 272.893753 
L 246.580322 245.815016 
L 246.683064 257.926471 
L 246.888549 216.224528 
L 247.094034 271.689489 
L 247.196776 260.988743 
L 247.402261 221.38566 
L 247.607746 255.758796 
L 247.710488 259.887701 
L 247.915973 271.655081 
L 248.121458 254.244864 
L 248.2242 251.629891 
L 248.326942 243.784971 
L 248.429685 247.466578 
L 248.532427 261.02315 
L 248.63517 257.135098 
L 248.737912 219.734098 
L 248.840654 251.939559 
L 248.943397 250.115959 
L 249.046139 238.038911 
L 249.251624 272.721715 
L 249.354366 271.070153 
L 249.457109 244.404307 
L 249.559851 265.977837 
L 249.765336 245.642978 
L 249.970821 267.594991 
L 250.073563 262.261822 
L 250.176306 240.309809 
L 250.279048 247.466578 
L 250.38179 245.780608 
L 250.484533 247.948284 
L 250.690018 265.633761 
L 250.79276 267.04447 
L 250.998245 255.586758 
L 251.100987 253.935196 
L 251.20373 221.488883 
L 251.409214 272.51527 
L 251.511957 243.716156 
L 251.614699 268.111104 
L 251.820184 249.221363 
L 251.922926 250.219182 
L 252.128411 270.932523 
L 252.231154 270.69167 
L 252.436638 256.584577 
L 252.539381 260.851113 
L 252.642123 255.311498 
L 252.744866 256.6878 
L 252.847608 260.025332 
L 252.95035 250.872925 
L 253.155835 258.408177 
L 253.36132 249.290178 
L 253.464062 249.806291 
L 253.566805 237.006685 
L 253.669547 264.016607 
L 253.77229 198.057345 
L 253.977775 256.928653 
L 254.080517 256.481355 
L 254.183259 257.203913 
L 254.388744 264.360682 
L 254.491487 246.709612 
L 254.696971 257.307136 
L 254.902456 250.528849 
L 255.005199 271.379821 
L 255.313426 257.169505 
L 255.416168 220.112581 
L 255.621653 260.88552 
L 255.724395 268.248734 
L 255.92988 251.113778 
L 256.032623 260.575852 
L 256.135365 224.619969 
L 256.443592 265.874614 
L 256.546335 267.388546 
L 256.854562 244.369899 
L 257.060047 253.0406 
L 257.265531 264.498312 
L 257.368274 257.10069 
L 257.471016 230.262806 
L 257.573759 257.169505 
L 257.676501 254.416902 
L 257.881986 275.233466 
L 257.984728 273.237828 
L 258.292955 247.879469 
L 258.395698 229.36821 
L 258.601183 274.545315 
L 258.806667 253.694344 
L 258.90941 251.698706 
L 259.012152 237.419575 
L 259.217637 264.085422 
L 259.320379 268.627217 
L 259.423122 246.434352 
L 259.525864 255.689981 
L 259.628607 250.391219 
L 259.731349 251.801929 
L 259.834091 217.910498 
L 260.039576 266.734803 
L 260.245061 258.132917 
L 260.347803 234.460527 
L 260.450546 251.801929 
L 260.553288 247.29454 
L 260.861515 273.065791 
L 260.964258 265.014425 
L 261.067 233.978821 
L 261.169743 260.438222 
L 261.272485 256.928653 
L 261.47797 265.840206 
L 261.580712 264.842388 
L 261.683455 252.042781 
L 261.786197 255.070645 
L 261.888939 252.180412 
L 262.197167 266.838025 
L 262.299909 264.567127 
L 262.505394 245.264495 
L 262.608136 252.042781 
L 262.710879 245.470941 
L 262.813621 253.006193 
L 262.916363 269.0057 
L 263.019106 264.39509 
L 263.224591 243.888194 
L 263.430075 250.907332 
L 263.532818 234.288489 
L 263.63556 269.384183 
L 263.738303 268.179919 
L 263.943787 246.055869 
L 264.04653 254.382494 
L 264.149272 213.816 
L 264.354757 271.379821 
L 264.662984 245.746201 
L 264.868469 242.546299 
L 264.971211 245.470941 
L 265.176696 269.831481 
L 265.382181 247.707431 
L 265.484923 246.021461 
L 265.690408 253.315861 
L 265.793151 257.479173 
L 265.895893 266.459542 
L 266.101378 241.479666 
L 266.512347 265.530539 
L 266.61509 262.674712 
L 266.717832 220.043766 
L 266.923317 235.045455 
L 267.026059 232.671334 
L 267.231544 267.629399 
L 267.437029 214.022446 
L 267.642514 248.808472 
L 267.745256 226.305939 
L 267.950741 267.526176 
L 268.053483 270.106742 
L 268.258968 247.982691 
L 268.361711 248.602027 
L 268.464453 251.044963 
L 268.669938 270.96693 
L 268.875423 251.801929 
L 268.978165 260.025332 
L 269.080907 254.8642 
L 269.286392 262.98438 
L 269.389135 274.373277 
L 269.594619 263.362863 
L 269.697362 262.881158 
L 269.800104 257.203913 
L 269.902847 264.842388 
L 270.005589 264.39509 
L 270.313816 272.480862 
L 270.519301 253.143823 
L 270.724786 258.029694 
L 270.827528 270.69167 
L 270.930271 266.838025 
L 271.033013 225.721011 
L 271.135755 248.429989 
L 271.238498 247.638616 
L 271.443983 243.028005 
L 271.649467 267.113286 
L 271.957695 211.407472 
L 272.163179 221.041585 
L 272.368664 267.010063 
L 272.676891 202.461511 
L 272.882376 254.072826 
L 272.985119 262.84675 
L 273.498831 235.940051 
L 273.704315 264.635942 
L 273.807058 264.739165 
L 273.9098 242.752745 
L 274.012543 244.851605 
L 274.115285 250.460034 
L 274.218027 248.085914 
L 274.423512 265.220871 
L 274.526255 266.184282 
L 274.731739 256.274909 
L 274.834482 231.432663 
L 274.937224 253.384676 
L 275.039967 251.07937 
L 275.142709 239.552843 
L 275.245451 263.810161 
L 275.348194 260.74789 
L 275.656421 224.998452 
L 275.861906 266.700395 
L 276.067391 246.193499 
L 276.170133 232.843372 
L 276.375618 249.668661 
L 276.47836 247.948284 
L 276.581103 238.279764 
L 276.683845 262.468267 
L 276.88933 212.439699 
L 276.992072 243.681748 
L 277.094815 241.686111 
L 277.197557 194.685406 
L 277.403042 266.528357 
L 277.814011 221.041585 
L 278.019496 260.025332 
L 278.122239 265.220871 
L 278.327723 215.192302 
L 278.430466 252.662117 
L 278.533208 237.35076 
L 278.635951 198.332606 
L 278.841435 261.848931 
L 278.944178 230.641289 
L 279.04692 233.118632 
L 279.252405 250.700887 
L 279.45789 234.322896 
L 279.560632 256.756615 
L 279.663375 250.80411 
L 279.868859 198.229383 
L 279.971602 204.422741 
L 280.074344 217.772868 
L 280.177087 262.468267 
L 280.279829 250.287997 
L 280.382571 211.063397 
L 280.485314 249.909514 
L 280.588056 245.918239 
L 280.690799 248.911695 
L 280.896283 265.358501 
L 281.101768 246.124684 
L 281.204511 223.07163 
L 281.409995 242.305447 
L 281.512738 242.133409 
L 281.61548 260.988743 
L 281.718223 234.598157 
L 281.923707 247.638616 
L 282.129192 236.490572 
L 282.231935 243.750563 
L 282.334677 233.29067 
L 282.437419 262.296229 
L 282.642904 252.834155 
L 282.848389 243.991416 
L 282.951131 249.599846 
L 283.053874 263.053195 
L 283.156616 198.676681 
L 283.259359 239.484028 
L 283.362101 215.054672 
L 283.464843 230.813327 
L 283.567586 210.616099 
L 283.773071 268.214327 
L 283.875813 263.225233 
L 284.18404 235.079862 
L 284.286783 240.757107 
L 284.389525 229.643471 
L 284.59501 259.681256 
L 284.697752 246.124684 
L 284.800495 291.783494 
L 285.005979 229.161765 
L 285.108722 231.05418 
L 285.211464 255.00183 
L 285.314207 238.8991 
L 285.416949 256.618985 
L 285.519691 243.09682 
L 285.622434 243.268858 
L 285.725176 243.440896 
L 285.827919 220.422249 
L 286.033403 267.113286 
L 286.136146 240.275401 
L 286.238888 147.719109 
L 286.341631 248.361174 
L 286.444373 215.914861 
L 286.649858 265.771391 
L 286.7526 269.177738 
L 286.855343 228.95532 
L 287.060827 252.352449 
L 287.16357 228.439206 
L 287.266312 253.384676 
L 287.369055 244.060231 
L 287.471797 265.874614 
L 287.574539 252.90297 
L 287.677282 223.794188 
L 287.780024 247.225725 
L 287.985509 197.265972 
L 288.088251 250.735295 
L 288.499221 228.198354 
L 288.704706 250.735295 
L 288.807448 269.900297 
L 288.910191 265.874614 
L 289.115675 229.884323 
L 289.218418 253.969604 
L 289.423903 232.946595 
L 289.526645 274.33887 
L 289.629387 241.858148 
L 289.73213 248.739657 
L 289.834872 218.013721 
L 290.040357 247.845061 
L 290.143099 256.894245 
L 290.245842 236.352942 
L 290.348584 265.048833 
L 290.554069 243.888194 
L 290.656811 250.769702 
L 290.759554 239.03673 
L 290.862296 255.173868 
L 290.965039 232.258444 
L 291.067781 260.438222 
L 291.273266 217.807275 
L 291.376008 222.796369 
L 291.684235 263.913384 
L 291.786978 258.78666 
L 291.992463 234.322896 
L 292.506175 270.347595 
L 292.711659 248.361174 
L 292.814402 242.546299 
L 292.917144 216.809457 
L 293.122629 265.08324 
L 293.225371 260.025332 
L 293.328114 241.342035 
L 293.430856 243.303265 
L 293.533599 257.857656 
L 293.636341 246.709612 
L 293.841826 259.233958 
L 293.944568 257.444766 
L 294.047311 246.227907 
L 294.252795 211.682733 
L 294.45828 226.099494 
L 294.561023 269.280961 
L 294.663765 265.117648 
L 294.766507 245.849424 
L 294.86925 250.563257 
L 294.971992 250.081551 
L 295.074735 268.971293 
L 295.177477 260.541445 
L 295.280219 208.448424 
L 295.485704 237.109907 
L 295.588447 238.417394 
L 295.691189 257.995286 
L 295.793931 202.908809 
L 295.999416 247.569801 
L 296.102159 178.445046 
L 296.307643 241.754926 
L 296.513128 263.706939 
L 296.718613 239.518436 
L 296.821355 238.8991 
L 297.129583 263.362863 
L 297.43781 243.716156 
L 297.643295 250.494442 
L 297.746037 246.434352 
L 297.848779 228.095131 
L 297.951522 266.425135 
L 298.054264 232.430482 
L 298.362491 252.421264 
L 298.465234 250.872925 
L 298.670719 261.264003 
L 298.773461 238.658247 
L 298.876203 241.169998 
L 298.978946 248.636435 
L 299.081688 240.7227 
L 299.184431 247.432171 
L 299.287173 265.048833 
L 299.389915 261.986562 
L 299.698143 223.794188 
L 299.903627 257.307136 
L 300.109112 235.045455 
L 300.211855 252.042781 
L 300.314597 203.287292 
L 300.417339 248.326767 
L 300.520082 244.197861 
L 300.622824 256.206094 
L 300.725567 255.793204 
L 300.931051 206.211933 
L 301.033794 242.649522 
L 301.136536 231.811146 
L 301.239279 244.92042 
L 301.342021 226.512384 
L 301.547506 261.711301 
L 301.650248 252.90297 
L 301.752991 208.792499 
L 301.855733 251.251408 
L 301.958475 246.74402 
L 302.061218 223.518928 
L 302.16396 263.362863 
L 302.266703 257.892064 
L 302.57493 210.444061 
L 302.677672 207.588235 
L 302.883157 258.92429 
L 302.985899 252.111597 
L 303.088642 208.448424 
L 303.294127 242.339854 
L 303.396869 254.279272 
L 303.499611 227.854278 
L 303.705096 258.78666 
L 303.807839 238.073319 
L 303.910581 239.862511 
L 304.013323 206.349563 
L 304.116066 237.21313 
L 304.218808 205.902265 
L 304.321551 253.419083 
L 304.424293 250.356812 
L 304.527035 211.028989 
L 304.73252 241.376443 
L 304.835263 240.791515 
L 305.040747 256.894245 
L 305.14349 253.625528 
L 305.348975 237.316353 
L 305.451717 237.041092 
L 305.554459 241.101183 
L 305.657202 199.81213 
L 305.862687 262.812343 
L 306.068171 242.95919 
L 306.170914 241.823741 
L 306.273656 204.732409 
L 306.479141 258.236139 
L 306.684626 268.351957 
L 306.890111 237.970096 
L 307.095595 264.39509 
L 307.30108 268.179919 
L 307.403823 261.091965 
L 307.506565 261.711301 
L 307.609307 255.621166 
L 307.71205 237.935689 
L 307.814792 291.783494 
L 308.020277 249.737476 
L 308.225762 216.018083 
L 308.328504 242.787152 
L 308.431247 222.521109 
L 308.636731 291.783494 
L 308.842216 240.7227 
L 308.944959 235.079862 
L 309.047701 240.585069 
L 309.150443 214.400929 
L 309.355928 267.491769 
L 309.561413 206.556009 
L 309.664155 239.346398 
L 309.766898 239.071137 
L 309.86964 215.914861 
L 310.075125 255.758796 
L 310.177867 233.806783 
L 310.28061 236.249719 
L 310.383352 257.720026 
L 310.486095 250.528849 
L 310.588837 235.458345 
L 310.897064 266.838025 
L 311.205291 236.456164 
L 311.410776 250.528849 
L 311.513519 198.848719 
L 311.616261 246.227907 
L 311.719003 235.974459 
L 311.821746 252.249227 
L 312.027231 210.168801 
L 312.232715 257.10069 
L 312.335458 254.485717 
L 312.4382 240.86033 
L 312.540943 242.855967 
L 312.643685 242.546299 
L 312.746427 236.146496 
L 312.84917 202.874402 
L 313.054655 259.990924 
L 313.362882 210.168801 
L 313.465624 202.839994 
L 313.671109 266.390727 
L 313.876594 241.13559 
L 313.979336 246.262314 
L 314.287563 228.198354 
L 314.390306 251.698706 
L 314.493048 247.879469 
L 314.698533 229.402618 
L 314.801275 181.8858 
L 314.904018 232.671334 
L 315.00676 228.129539 
L 315.212245 260.713482 
L 315.41773 233.806783 
L 315.520472 229.849916 
L 315.623215 198.229383 
L 315.725957 209.687095 
L 315.828699 262.020969 
L 315.931442 258.373769 
L 316.136927 223.794188 
L 316.239669 242.099001 
L 316.342411 216.809457 
L 316.547896 262.055377 
L 316.650639 255.758796 
L 316.753381 222.830777 
L 316.958866 233.910006 
L 317.164351 214.641781 
L 317.267093 257.410358 
L 317.369835 253.247045 
L 317.472578 220.319026 
L 317.57532 236.456164 
L 317.678063 222.658739 
L 317.780805 224.379116 
L 317.98629 254.829792 
L 318.089032 253.143823 
L 318.191775 195.545595 
L 318.294517 209.136574 
L 318.397259 240.757107 
L 318.500002 222.039403 
L 318.705487 251.561076 
L 318.808229 249.840699 
L 318.910971 216.809457 
L 319.013714 237.419575 
L 319.116456 212.542921 
L 319.219199 221.764143 
L 319.321941 202.977624 
L 319.424683 212.130031 
L 319.527426 236.903462 
L 319.630168 195.958485 
L 319.835653 38.578381 
L 320.041138 232.361666 
L 320.246623 255.105053 
L 320.452107 226.787644 
L 320.657592 240.585069 
L 320.760335 239.828103 
L 320.863077 212.783774 
L 320.965819 264.53272 
L 321.274047 198.779904 
L 321.479531 243.200043 
L 321.582274 259.750071 
L 321.685016 258.64903 
L 321.993243 201.188432 
L 322.095986 241.41085 
L 322.198728 240.137771 
L 322.301471 264.911203 
L 322.404213 257.582396 
L 322.609698 194.100478 
L 322.71244 198.022938 
L 322.815183 249.668661 
L 322.917925 248.84288 
L 323.12341 256.206094 
L 323.328895 243.165635 
L 323.534379 248.429989 
L 323.739864 267.835844 
L 323.842607 266.803618 
L 324.048091 245.918239 
L 324.150834 218.323389 
L 324.253576 244.438714 
L 324.356319 229.471433 
L 324.459061 249.186955 
L 324.561803 227.613425 
L 324.664546 230.469252 
L 324.767288 246.159091 
L 324.972773 239.518436 
L 325.075515 243.337673 
L 325.178258 253.281453 
L 325.281 248.98051 
L 325.383743 188.939346 
L 325.486485 213.67837 
L 325.589227 208.998944 
L 325.69197 179.477272 
L 325.794712 246.055869 
L 325.897455 244.404307 
L 326.000197 257.616803 
L 326.102939 243.681748 
L 326.205682 200.913172 
L 326.616652 263.431678 
L 326.719394 257.169505 
L 326.822136 231.879961 
L 327.027621 238.107726 
L 327.233106 247.088095 
L 327.335848 257.651211 
L 327.438591 253.281453 
L 327.541333 243.440896 
L 327.644076 247.432171 
L 327.84956 236.112089 
L 327.952303 247.535393 
L 328.055045 291.198566 
L 328.363272 202.943217 
L 328.568757 260.851113 
L 328.6715 246.055869 
L 328.876984 256.55017 
L 328.979727 227.613425 
L 329.082469 230.400436 
L 329.287954 242.787152 
L 329.390696 247.053688 
L 329.493439 267.835844 
L 329.596181 229.849916 
L 329.801666 251.389038 
L 330.109893 222.727554 
L 330.315378 254.416902 
L 330.520863 246.778427 
L 330.623605 237.798058 
L 330.82909 257.031875 
L 330.931832 254.8642 
L 331.034575 264.463905 
L 331.24006 234.254081 
L 331.342802 244.438714 
L 331.445544 211.889178 
L 331.753772 255.930834 
L 331.856514 244.232269 
L 331.959256 247.741838 
L 332.061999 234.494934 
L 332.370226 265.633761 
L 332.472968 260.507037 
L 332.883938 216.843864 
L 333.089423 263.741346 
L 333.294908 219.802913 
L 333.39765 240.894737 
L 333.500392 201.566915 
L 333.705877 246.227907 
L 333.80862 262.743527 
L 333.911362 262.055377 
L 334.014104 204.973262 
L 334.116847 209.61828 
L 334.219589 202.530326 
L 334.527816 259.646849 
L 334.630559 262.020969 
L 334.733301 245.05805 
L 334.836044 254.58894 
L 335.041528 215.50197 
L 335.144271 250.219182 
L 335.247013 233.256263 
L 335.349756 236.421757 
L 335.55524 253.659936 
L 335.657983 256.240502 
L 335.760725 243.23445 
L 335.96621 265.977837 
L 336.274437 243.440896 
L 336.37718 202.083028 
L 336.582664 238.348579 
L 336.685407 265.117648 
L 336.788149 264.051014 
L 336.993634 228.439206 
L 337.096376 232.981002 
L 337.199119 193.137067 
L 337.404604 252.283634 
L 337.507346 252.008374 
L 337.610088 218.013721 
L 338.021058 244.92042 
L 338.1238 261.057558 
L 338.226543 254.933015 
L 338.329285 233.737968 
L 338.432028 241.858148 
L 338.637512 239.105545 
L 338.740255 220.456656 
L 338.842997 249.565438 
L 338.94574 215.020264 
L 339.151224 233.806783 
L 339.253967 206.108711 
L 339.459452 245.780608 
L 339.562194 248.98051 
L 339.664936 188.388826 
L 339.767679 188.423233 
L 339.870421 186.565226 
L 339.973164 197.025119 
L 340.075906 188.629678 
L 340.178648 208.964537 
L 340.281391 255.483536 
L 340.384133 246.916057 
L 340.486876 206.143118 
L 340.69236 237.694836 
L 340.795103 243.681748 
L 340.897845 204.594779 
L 341.000588 257.926471 
L 341.10333 222.796369 
L 341.308815 239.243175 
L 341.411557 233.737968 
L 341.5143 239.621658 
L 341.617042 235.664791 
L 341.719784 259.715664 
L 341.822527 251.217 
L 342.130754 186.014705 
L 342.438981 251.320223 
L 342.644466 230.056361 
L 342.747208 198.470236 
L 342.849951 235.286308 
L 343.055436 213.884816 
L 343.158178 257.995286 
L 343.26092 250.597665 
L 343.466405 206.383971 
L 343.569148 214.813819 
L 343.774632 248.292359 
L 343.877375 233.56593 
L 343.980117 254.8642 
L 344.08286 246.365537 
L 344.185602 251.389038 
L 344.288344 245.746201 
L 344.391087 205.902265 
L 344.493829 247.604208 
L 344.596572 194.823036 
L 344.802056 252.318042 
L 344.904799 264.326274 
L 345.007541 256.206094 
L 345.110284 216.603011 
L 345.213026 261.264003 
L 345.315768 255.208275 
L 345.418511 256.791022 
L 345.521253 250.769702 
L 345.623996 205.592598 
L 345.82948 232.396074 
L 345.932223 240.378624 
L 346.034965 268.523995 
L 346.137708 260.713482 
L 346.343192 203.906628 
L 346.445935 237.626021 
L 346.548677 212.198846 
L 346.754162 263.225233 
L 346.856904 262.743527 
L 346.959647 242.890375 
L 347.062389 246.021461 
L 347.165132 242.133409 
L 347.473359 272.102379 
L 347.576101 269.040108 
L 347.678844 218.288981 
L 347.781586 233.841191 
L 347.884328 231.363848 
L 347.987071 248.017099 
L 348.089813 246.60639 
L 348.192556 259.990924 
L 348.39804 233.221855 
L 348.500783 232.568112 
L 348.603525 209.583873 
L 348.706268 223.656558 
L 348.80901 204.766816 
L 348.911752 254.657755 
L 349.014495 250.322404 
L 349.21998 232.981002 
L 349.322722 227.579018 
L 349.425464 232.396074 
L 349.528207 228.301576 
L 349.630949 215.742823 
L 349.733692 238.210949 
L 349.836434 230.228399 
L 349.939176 173.834435 
L 350.144661 222.796369 
L 350.452888 255.552351 
L 350.761116 198.607866 
L 350.863858 203.45933 
L 350.9666 217.4632 
L 351.069343 203.493737 
L 351.274828 232.808965 
L 351.480312 172.630171 
L 351.685797 230.813327 
L 351.78854 239.965734 
L 351.891282 238.073319 
L 351.994024 230.606882 
L 352.096767 208.276386 
L 352.199509 222.658739 
L 352.302252 187.528637 
L 352.404994 247.879469 
L 352.507736 223.656558 
L 352.610479 242.855967 
L 352.713221 185.292147 
L 352.918706 240.757107 
L 353.021448 231.983183 
L 353.226933 242.924782 
L 353.329676 222.693147 
L 353.432418 233.910006 
L 353.53516 137.672106 
L 353.637903 225.548973 
L 353.740645 221.213622 
L 353.94613 253.006193 
L 354.048872 247.982691 
L 354.3571 203.631368 
L 354.459842 223.243667 
L 354.562584 196.474598 
L 354.768069 244.197861 
L 354.973554 223.931818 
L 355.076296 232.636927 
L 355.179039 230.159584 
L 355.281781 235.148677 
L 355.384524 221.729735 
L 355.590008 231.914368 
L 355.692751 203.218477 
L 355.795493 222.899592 
L 355.898236 212.783774 
L 356.000978 216.671827 
L 356.10372 239.793696 
L 356.309205 200.052983 
L 356.411948 208.001126 
L 356.51469 139.358076 
L 356.822917 225.858641 
L 356.92566 216.293344 
L 357.028402 176.793483 
L 357.542114 241.032367 
L 357.953084 208.826907 
L 358.055826 179.442864 
L 358.261311 221.351252 
L 358.364053 231.570293 
L 358.466796 188.595271 
L 358.569538 192.139248 
L 358.67228 167.606669 
L 358.775023 214.745004 
L 358.877765 192.036025 
L 358.980508 245.711793 
L 359.185992 196.990712 
L 359.288735 203.941035 
L 359.391477 203.115254 
L 359.49422 207.553827 
L 359.699704 222.589924 
L 360.007932 176.242963 
L 360.213416 212.542921 
L 360.316159 192.208063 
L 360.521644 224.207079 
L 360.727128 180.303053 
L 360.932613 203.424922 
L 361.035356 198.504644 
L 361.138098 228.404799 
L 361.24084 218.667464 
L 361.343583 195.683225 
L 361.446325 201.601322 
L 361.549068 152.639388 
L 361.754552 193.79081 
L 361.960037 231.295033 
L 362.165522 170.25605 
L 362.268264 210.788137 
L 362.371007 176.242963 
L 362.473749 220.353434 
L 362.576492 219.252392 
L 362.679234 229.884323 
L 362.781976 212.990219 
L 362.987461 227.647833 
L 363.192946 215.6396 
L 363.295688 230.882142 
L 363.398431 203.837813 
L 363.603916 221.52329 
L 363.706658 207.93231 
L 364.014885 223.20926 
L 364.22037 221.592105 
L 364.323112 223.587743 
L 364.528597 220.525471 
L 364.63134 195.304742 
L 364.836824 249.324585 
L 364.939567 213.437517 
L 365.145052 220.387841 
L 365.247794 213.196665 
L 365.453279 231.811146 
L 365.556021 233.15304 
L 365.658764 217.979313 
L 365.761506 183.158879 
L 365.864248 212.336476 
L 365.966991 203.803405 
L 366.069733 209.790318 
L 366.172476 244.78279 
L 366.275218 237.006685 
L 366.480703 210.960174 
L 366.583445 202.392696 
L 366.994415 239.31199 
L 367.097157 171.94202 
L 367.302642 213.196665 
L 367.405384 206.280748 
L 367.610869 234.322896 
L 367.713612 235.355123 
L 367.919096 198.711089 
L 368.124581 216.121306 
L 368.227324 219.596468 
L 368.330066 180.165423 
L 368.432808 238.210949 
L 368.741036 208.792499 
L 369.049263 253.625528 
L 369.152005 243.475303 
L 369.254748 165.438994 
L 369.35749 228.611244 
L 369.460232 227.26935 
L 369.562975 226.443569 
L 369.76846 247.15691 
L 369.871202 241.651703 
L 370.179429 211.785955 
L 370.487656 242.236631 
L 370.590399 242.580707 
L 370.795884 178.273008 
L 370.898626 220.903954 
L 371.001368 194.134885 
L 371.206853 218.495426 
L 371.412338 195.235927 
L 371.51508 193.756402 
L 371.617823 195.717632 
L 371.720565 180.887981 
L 372.028792 245.298903 
L 372.131535 212.026808 
L 372.234277 217.015902 
L 372.439762 187.700675 
L 372.645247 233.634746 
L 372.747989 243.853786 
L 372.953474 188.388826 
L 373.158959 233.325078 
L 373.467186 249.393401 
L 373.569928 224.826414 
L 373.672671 238.004504 
L 373.878156 203.87222 
L 373.980898 208.310793 
L 374.186383 245.402125 
L 374.391868 219.2868 
L 374.49461 231.948776 
L 374.597352 225.755418 
L 374.700095 196.096115 
L 374.802837 235.836828 
L 374.90558 197.644455 
L 375.111064 225.58338 
L 375.213807 210.065578 
L 375.419292 227.338165 
L 375.522034 226.822052 
L 375.624776 215.914861 
L 375.727519 222.899592 
L 375.830261 192.999437 
L 375.933004 227.062905 
L 376.035746 180.19983 
L 376.241231 251.457853 
L 376.6522 222.899592 
L 376.754943 183.881437 
L 376.960428 255.999649 
L 377.268655 214.572966 
L 377.371397 228.920912 
L 377.47414 220.284619 
L 377.576882 230.056361 
L 377.679624 254.451309 
L 378.090594 196.853081 
L 378.296079 237.041092 
L 378.398821 249.290178 
L 378.707048 183.365324 
L 378.809791 228.370391 
L 378.912533 222.073811 
L 379.118018 236.180904 
L 379.323503 223.62215 
L 379.528988 234.83901 
L 379.63173 169.636714 
L 379.837215 245.470941 
L 379.939957 223.140445 
L 380.0427 232.051999 
L 380.145442 227.062905 
L 380.350927 236.697017 
L 380.453669 196.543414 
L 380.556412 257.720026 
L 380.761896 242.443077 
L 380.864639 197.885308 
L 381.070124 244.473122 
L 381.172866 239.759288 
L 381.275608 253.556713 
L 381.378351 243.23445 
L 381.481093 244.129046 
L 381.583836 184.053475 
L 381.686578 214.538559 
L 381.78932 203.115254 
L 381.892063 204.285111 
L 381.994805 263.12201 
L 382.20029 244.025824 
L 382.303032 252.593302 
L 382.405775 251.595483 
L 382.61126 226.684422 
L 382.714002 257.823249 
L 382.816744 211.992401 
L 382.919487 238.520617 
L 383.022229 231.501478 
L 383.227714 247.466578 
L 383.330456 246.640797 
L 383.433199 240.172179 
L 383.535941 186.393188 
L 383.638684 227.26935 
L 384.049653 210.547284 
L 384.255138 222.314664 
L 384.35788 216.327751 
L 384.460623 231.05418 
L 384.666108 227.888686 
L 384.76885 235.871236 
L 384.871592 254.210457 
L 385.077077 230.778919 
L 385.17982 209.274205 
L 385.282562 222.245849 
L 385.385304 215.708415 
L 385.693532 251.801929 
L 385.796274 209.721503 
L 385.899016 217.394385 
L 386.001759 209.721503 
L 386.207244 234.942232 
L 386.309986 240.413032 
L 386.515471 233.29067 
L 386.92644 242.615114 
L 387.029183 218.770687 
L 387.131925 227.062905 
L 387.234668 220.387841 
L 387.33741 226.856459 
L 387.542895 157.766112 
L 387.74838 223.140445 
L 387.851122 241.479666 
L 387.953864 208.930129 
L 388.056607 228.542429 
L 388.159349 197.57564 
L 388.262092 219.768505 
L 388.364834 198.848719 
L 388.467576 240.172179 
L 388.570319 232.912187 
L 388.775804 173.146284 
L 388.878546 231.432663 
L 388.981288 229.058542 
L 389.084031 236.765832 
L 389.186773 236.112089 
L 389.289516 237.935689 
L 389.392258 198.126161 
L 389.495 221.66092 
L 389.597743 176.242963 
L 389.803228 236.215311 
L 389.90597 231.501478 
L 390.008712 204.353926 
L 390.111455 223.656558 
L 390.31694 211.85477 
L 390.419682 217.291162 
L 390.625167 238.314172 
L 390.727909 234.116451 
L 391.036136 207.037714 
L 391.138879 217.32557 
L 391.241621 180.715943 
L 391.344364 245.780608 
L 391.447106 232.568112 
L 391.652591 182.642766 
L 391.858076 237.832466 
L 392.06356 234.804602 
L 392.166303 249.496623 
L 392.269045 235.595976 
L 392.47453 178.204193 
L 392.577272 233.084225 
L 392.680015 190.14361 
L 392.8855 238.520617 
L 393.090984 193.446735 
L 393.296469 227.062905 
L 393.399212 227.13172 
L 393.501954 237.178723 
L 393.604696 198.986349 
L 393.707439 200.018575 
L 393.810181 220.663102 
L 393.912924 188.560863 
L 394.015666 222.830777 
L 394.118408 212.302069 
L 394.323893 244.851605 
L 394.426636 155.908104 
L 394.63212 199.39924 
L 394.734863 205.42056 
L 394.837605 186.806079 
L 394.940348 245.367718 
L 395.04309 236.249719 
L 395.145832 237.832466 
L 395.248575 244.025824 
L 395.351317 157.043553 
L 395.45406 215.742823 
L 395.556802 212.611736 
L 395.659544 227.991908 
L 395.865029 195.992893 
L 395.967772 201.91099 
L 396.070514 176.965521 
L 396.173256 204.353926 
L 396.275999 202.908809 
L 396.378741 186.427596 
L 396.481484 231.914368 
L 396.686968 197.610047 
L 396.789711 216.843864 
L 396.892453 208.173163 
L 396.995196 214.160076 
L 397.097938 235.768013 
L 397.20068 217.428793 
L 397.303423 177.034336 
L 397.508908 209.515057 
L 397.61165 175.485997 
L 397.817135 238.555024 
L 397.919877 233.359485 
L 398.125362 207.588235 
L 398.433589 227.647833 
L 398.536332 237.0755 
L 398.844559 194.375738 
L 398.947301 198.057345 
L 399.050044 191.141429 
L 399.255529 230.503659 
L 399.358271 211.44188 
L 399.461013 217.256755 
L 399.666498 209.48065 
L 399.769241 209.790318 
L 399.974725 248.257952 
L 400.282953 220.766324 
L 400.385695 218.426611 
L 400.59118 236.215311 
L 400.693922 253.281453 
L 400.796665 249.531031 
L 401.104892 215.22671 
L 401.413119 254.829792 
L 401.515861 199.605685 
L 401.721346 209.824725 
L 401.824089 208.861314 
L 401.926831 225.514565 
L 402.029573 220.766324 
L 402.132316 236.972277 
L 402.235058 232.017591 
L 402.337801 211.71714 
L 402.440543 211.85477 
L 402.543285 201.119617 
L 402.74877 226.202716 
L 402.851513 191.175837 
L 402.954255 224.723192 
L 403.056997 187.975935 
L 403.15974 214.917042 
L 403.262482 209.274205 
L 403.365225 212.267661 
L 403.467967 222.142626 
L 403.570709 242.95919 
L 403.673452 208.998944 
L 403.776194 223.174852 
L 403.981679 200.981987 
L 404.289906 244.886012 
L 404.392649 250.632072 
L 404.495391 264.429497 
L 404.598133 217.60083 
L 404.803618 230.710104 
L 404.906361 222.727554 
L 405.009103 250.115959 
L 405.31733 220.319026 
L 405.420073 186.324373 
L 405.625557 217.32557 
L 405.7283 240.378624 
L 405.831042 235.011047 
L 406.036527 197.369195 
L 406.139269 207.003307 
L 406.242012 197.059527 
L 406.447497 240.103364 
L 406.550239 239.724881 
L 406.652981 203.803405 
L 406.961209 231.05418 
L 407.063951 200.052983 
L 407.166693 244.473122 
L 407.372178 230.710104 
L 407.474921 199.777723 
L 407.577663 206.177526 
L 407.783148 240.309809 
L 407.88589 231.639108 
L 407.988633 241.41085 
L 408.091375 222.796369 
L 408.194117 224.688784 
L 408.29686 216.809457 
L 408.399602 220.491064 
L 408.502345 229.402618 
L 408.605087 251.836336 
L 408.707829 241.307628 
L 408.810572 206.590416 
L 408.913314 226.065086 
L 409.118799 212.680551 
L 409.427026 248.223544 
L 409.529769 224.585562 
L 409.632511 172.767801 
L 409.735253 211.957993 
L 409.837996 190.694131 
L 409.940738 230.056361 
L 410.043481 222.177034 
L 410.146223 224.654377 
L 410.248965 188.457641 
L 410.762677 242.339854 
L 410.86542 239.931326 
L 411.070905 183.7094 
L 411.276389 214.091261 
L 411.379132 217.944906 
L 411.481874 206.659231 
L 411.584617 234.426119 
L 411.790101 201.188432 
L 411.892844 203.837813 
L 411.995586 219.080355 
L 412.098329 198.573459 
L 412.303813 222.658739 
L 412.406556 186.049113 
L 412.612041 217.772868 
L 412.714783 178.2386 
L 412.920268 243.165635 
L 413.02301 235.355123 
L 413.125753 203.528145 
L 413.228495 214.125668 
L 413.43398 209.721503 
L 413.639465 240.550662 
L 413.844949 204.525964 
L 413.947692 204.973262 
L 414.050434 219.42443 
L 414.153177 185.360962 
L 414.358661 247.845061 
L 414.461404 237.109907 
L 414.564146 55.266039 
L 414.769631 220.215804 
L 414.872373 202.702364 
L 415.077858 227.028497 
L 415.180601 185.980298 
L 415.386085 202.117436 
L 415.488828 199.708908 
L 415.694313 224.688784 
L 415.797055 232.533704 
L 415.899797 226.615607 
L 416.00254 199.53687 
L 416.105282 222.830777 
L 416.208025 217.635238 
L 416.413509 224.069448 
L 416.516252 242.339854 
L 416.618994 224.964045 
L 416.721737 165.438994 
L 416.824479 205.730228 
L 416.927221 166.19596 
L 417.132706 225.204897 
L 417.338191 237.694836 
L 417.749161 172.286095 
L 417.954645 238.555024 
L 418.057388 210.719322 
L 418.16013 212.370884 
L 418.262873 204.491556 
L 418.365615 214.366521 
L 418.468357 184.638403 
L 418.673842 229.781101 
L 418.776585 209.583873 
L 418.982069 216.947087 
L 419.084812 214.607374 
L 419.187554 135.814099 
L 419.393039 240.068956 
L 419.495781 227.441388 
L 419.598524 233.669153 
L 419.701266 223.037222 
L 419.804009 226.340346 
L 420.009493 252.868562 
L 420.214978 233.084225 
L 420.317721 232.464889 
L 420.420463 229.712286 
L 420.625948 200.018575 
L 420.72869 197.403602 
L 420.831433 225.480158 
L 420.934175 222.796369 
L 421.036917 212.955812 
L 421.13966 191.657542 
L 421.242402 211.785955 
L 421.345145 171.597944 
L 421.550629 223.897411 
L 421.858857 197.747678 
L 421.961599 204.113073 
L 422.064341 180.715943 
L 422.269826 220.043766 
L 422.372569 227.819871 
L 422.578053 212.508514 
L 422.680796 201.016394 
L 422.783538 206.659231 
L 423.091765 239.759288 
L 423.29725 228.370391 
L 423.399993 236.628202 
L 423.502735 234.83901 
L 423.605477 237.35076 
L 423.70822 225.824233 
L 423.810962 241.238813 
L 424.119189 180.750351 
L 424.324674 231.088587 
L 424.427417 242.133409 
L 424.530159 236.249719 
L 424.632901 209.239797 
L 424.941129 229.264988 
L 425.043871 215.949268 
L 425.146613 242.615114 
L 425.454841 193.825218 
L 425.763068 233.737968 
L 425.86581 232.602519 
L 425.968553 230.297214 
L 426.071295 216.465381 
L 426.174037 223.20926 
L 426.27678 203.87222 
L 426.482265 223.62215 
L 426.585007 223.48452 
L 426.687749 210.960174 
L 426.790492 162.617575 
L 426.893234 219.217985 
L 427.098719 194.410146 
L 427.201461 212.783774 
L 427.304204 195.545595 
L 427.406946 230.778919 
L 427.612431 192.827399 
L 427.715173 189.524275 
L 428.023401 220.491064 
L 428.126143 212.198846 
L 428.331628 190.074795 
L 428.43437 188.560863 
L 428.84534 227.234942 
L 428.948082 197.369195 
L 429.153567 213.368702 
L 429.256309 197.472417 
L 429.461794 233.978821 
L 429.564537 203.528145 
L 429.667279 219.527653 
L 429.770021 214.056853 
L 429.872764 199.846538 
L 429.975506 165.473402 
L 430.180991 222.349071 
L 430.283733 233.497115 
L 430.489218 163.787432 
L 430.694703 218.254574 
L 430.797445 185.016886 
L 430.900188 226.822052 
L 431.105673 209.859133 
L 431.208415 213.40311 
L 431.4139 193.51555 
L 431.619385 234.907825 
L 432.030354 184.500773 
L 432.133097 236.318534 
L 432.133097 236.318534 
" style="fill:none;stroke:#1f77b4;stroke-linecap:square;stroke-width:1.5;"/>
   </g>
   <g id="patch_3">
    <path d="M 56.928125 304.44375 
L 56.928125 25.918125 
" style="fill:none;stroke:#000000;stroke-linecap:square;stroke-linejoin:miter;stroke-width:0.8;"/>
   </g>
   <g id="patch_4">
    <path d="M 450 304.44375 
L 450 25.918125 
" style="fill:none;stroke:#000000;stroke-linecap:square;stroke-linejoin:miter;stroke-width:0.8;"/>
   </g>
   <g id="patch_5">
    <path d="M 56.928125 304.44375 
L 450 304.44375 
" style="fill:none;stroke:#000000;stroke-linecap:square;stroke-linejoin:miter;stroke-width:0.8;"/>
   </g>
   <g id="patch_6">
    <path d="M 56.928125 25.918125 
L 450 25.918125 
" style="fill:none;stroke:#000000;stroke-linecap:square;stroke-linejoin:miter;stroke-width:0.8;"/>
   </g>
   <g id="text_21">
    <!-- Total App Downloads by Day (3,994,052) -->
    <defs>
     <path d="M 0.484375 72.90625 
L 67.671875 72.90625 
L 67.671875 58.6875 
L 43.5 58.6875 
L 43.5 0 
L 24.703125 0 
L 24.703125 58.6875 
L 0.484375 58.6875 
z
" id="DejaVuSans-Bold-84"/>
     <path d="M 27.484375 70.21875 
L 27.484375 54.6875 
L 45.515625 54.6875 
L 45.515625 42.1875 
L 27.484375 42.1875 
L 27.484375 19 
Q 27.484375 15.1875 29 13.84375 
Q 30.515625 12.5 35.015625 12.5 
L 44 12.5 
L 44 0 
L 29 0 
Q 18.65625 0 14.328125 4.3125 
Q 10.015625 8.640625 10.015625 19 
L 10.015625 42.1875 
L 1.3125 42.1875 
L 1.3125 54.6875 
L 10.015625 54.6875 
L 10.015625 70.21875 
z
" id="DejaVuSans-Bold-116"/>
     <path d="M 53.421875 13.28125 
L 24.03125 13.28125 
L 19.390625 0 
L 0.484375 0 
L 27.484375 72.90625 
L 49.90625 72.90625 
L 76.90625 0 
L 58.015625 0 
z
M 28.71875 26.8125 
L 48.6875 26.8125 
L 38.71875 55.8125 
z
" id="DejaVuSans-Bold-65"/>
     <path d="M 25.875 7.90625 
L 25.875 -20.796875 
L 8.40625 -20.796875 
L 8.40625 54.6875 
L 25.875 54.6875 
L 25.875 46.6875 
Q 29.5 51.46875 33.890625 53.734375 
Q 38.28125 56 44 56 
Q 54.109375 56 60.59375 47.96875 
Q 67.09375 39.9375 67.09375 27.296875 
Q 67.09375 14.65625 60.59375 6.609375 
Q 54.109375 -1.421875 44 -1.421875 
Q 38.28125 -1.421875 33.890625 0.84375 
Q 29.5 3.125 25.875 7.90625 
z
M 37.5 43.3125 
Q 31.890625 43.3125 28.875 39.1875 
Q 25.875 35.0625 25.875 27.296875 
Q 25.875 19.53125 28.875 15.40625 
Q 31.890625 11.28125 37.5 11.28125 
Q 43.109375 11.28125 46.0625 15.375 
Q 49.03125 19.484375 49.03125 27.296875 
Q 49.03125 35.109375 46.0625 39.203125 
Q 43.109375 43.3125 37.5 43.3125 
z
" id="DejaVuSans-Bold-112"/>
     <path d="M 37.5 11.28125 
Q 43.109375 11.28125 46.0625 15.375 
Q 49.03125 19.484375 49.03125 27.296875 
Q 49.03125 35.109375 46.0625 39.203125 
Q 43.109375 43.3125 37.5 43.3125 
Q 31.890625 43.3125 28.875 39.1875 
Q 25.875 35.0625 25.875 27.296875 
Q 25.875 19.53125 28.875 15.40625 
Q 31.890625 11.28125 37.5 11.28125 
z
M 25.875 46.6875 
Q 29.5 51.46875 33.890625 53.734375 
Q 38.28125 56 44 56 
Q 54.109375 56 60.59375 47.96875 
Q 67.09375 39.9375 67.09375 27.296875 
Q 67.09375 14.65625 60.59375 6.609375 
Q 54.109375 -1.421875 44 -1.421875 
Q 38.28125 -1.421875 33.890625 0.84375 
Q 29.5 3.125 25.875 7.90625 
L 25.875 0 
L 8.40625 0 
L 8.40625 75.984375 
L 25.875 75.984375 
z
" id="DejaVuSans-Bold-98"/>
     <path d="M 1.21875 54.6875 
L 18.703125 54.6875 
L 33.40625 17.578125 
L 45.90625 54.6875 
L 63.375 54.6875 
L 40.375 -5.171875 
Q 36.921875 -14.3125 32.296875 -17.9375 
Q 27.6875 -21.578125 20.125 -21.578125 
L 10.015625 -21.578125 
L 10.015625 -10.109375 
L 15.484375 -10.109375 
Q 19.921875 -10.109375 21.9375 -8.6875 
Q 23.96875 -7.28125 25.09375 -3.609375 
L 25.59375 -2.09375 
z
" id="DejaVuSans-Bold-121"/>
     <path d="M 37.703125 -13.1875 
L 23.1875 -13.1875 
Q 15.71875 -1.125 12.15625 9.734375 
Q 8.59375 20.609375 8.59375 31.296875 
Q 8.59375 42 12.171875 52.953125 
Q 15.765625 63.921875 23.1875 75.875 
L 37.703125 75.875 
Q 31.453125 64.3125 28.328125 53.25 
Q 25.203125 42.1875 25.203125 31.390625 
Q 25.203125 20.609375 28.296875 9.515625 
Q 31.390625 -1.5625 37.703125 -13.1875 
z
" id="DejaVuSans-Bold-40"/>
     <path d="M 46.578125 39.3125 
Q 53.953125 37.40625 57.78125 32.6875 
Q 61.625 27.984375 61.625 20.703125 
Q 61.625 9.859375 53.3125 4.21875 
Q 45.015625 -1.421875 29.109375 -1.421875 
Q 23.484375 -1.421875 17.84375 -0.515625 
Q 12.203125 0.390625 6.6875 2.203125 
L 6.6875 16.703125 
Q 11.96875 14.0625 17.15625 12.71875 
Q 22.359375 11.375 27.390625 11.375 
Q 34.859375 11.375 38.84375 13.953125 
Q 42.828125 16.546875 42.828125 21.390625 
Q 42.828125 26.375 38.75 28.9375 
Q 34.671875 31.5 26.703125 31.5 
L 19.1875 31.5 
L 19.1875 43.609375 
L 27.09375 43.609375 
Q 34.1875 43.609375 37.640625 45.828125 
Q 41.109375 48.046875 41.109375 52.59375 
Q 41.109375 56.78125 37.734375 59.078125 
Q 34.375 61.375 28.21875 61.375 
Q 23.6875 61.375 19.046875 60.34375 
Q 14.40625 59.328125 9.8125 57.328125 
L 9.8125 71.09375 
Q 15.375 72.65625 20.84375 73.4375 
Q 26.3125 74.21875 31.59375 74.21875 
Q 45.796875 74.21875 52.84375 69.546875 
Q 59.90625 64.890625 59.90625 55.515625 
Q 59.90625 49.125 56.53125 45.046875 
Q 53.171875 40.96875 46.578125 39.3125 
z
" id="DejaVuSans-Bold-51"/>
     <path d="M 10.203125 18.890625 
L 27.78125 18.890625 
L 27.78125 4 
L 15.71875 -14.203125 
L 5.328125 -14.203125 
L 10.203125 4 
z
" id="DejaVuSans-Bold-44"/>
     <path d="M 10.015625 1.609375 
L 10.015625 15.09375 
Q 14.5 12.984375 18.59375 11.9375 
Q 22.703125 10.890625 26.703125 10.890625 
Q 35.109375 10.890625 39.796875 15.546875 
Q 44.484375 20.21875 45.3125 29.390625 
Q 42 26.953125 38.234375 25.734375 
Q 34.46875 24.515625 30.078125 24.515625 
Q 18.890625 24.515625 12.03125 31.03125 
Q 5.171875 37.546875 5.171875 48.1875 
Q 5.171875 59.96875 12.8125 67.046875 
Q 20.453125 74.125 33.296875 74.125 
Q 47.5625 74.125 55.375 64.5 
Q 63.1875 54.890625 63.1875 37.3125 
Q 63.1875 19.234375 54.046875 8.90625 
Q 44.921875 -1.421875 29 -1.421875 
Q 23.875 -1.421875 19.1875 -0.65625 
Q 14.5 0.09375 10.015625 1.609375 
z
M 33.203125 36.71875 
Q 38.140625 36.71875 40.625 39.90625 
Q 43.109375 43.109375 43.109375 49.515625 
Q 43.109375 55.859375 40.625 59.078125 
Q 38.140625 62.3125 33.203125 62.3125 
Q 28.265625 62.3125 25.78125 59.078125 
Q 23.296875 55.859375 23.296875 49.515625 
Q 23.296875 43.109375 25.78125 39.90625 
Q 28.265625 36.71875 33.203125 36.71875 
z
" id="DejaVuSans-Bold-57"/>
     <path d="M 36.8125 57.421875 
L 16.21875 26.90625 
L 36.8125 26.90625 
z
M 33.6875 72.90625 
L 54.59375 72.90625 
L 54.59375 26.90625 
L 64.984375 26.90625 
L 64.984375 13.28125 
L 54.59375 13.28125 
L 54.59375 0 
L 36.8125 0 
L 36.8125 13.28125 
L 4.5 13.28125 
L 4.5 29.390625 
z
" id="DejaVuSans-Bold-52"/>
     <path d="M 46 36.53125 
Q 46 50.203125 43.4375 55.78125 
Q 40.875 61.375 34.8125 61.375 
Q 28.765625 61.375 26.171875 55.78125 
Q 23.578125 50.203125 23.578125 36.53125 
Q 23.578125 22.703125 26.171875 17.03125 
Q 28.765625 11.375 34.8125 11.375 
Q 40.828125 11.375 43.40625 17.03125 
Q 46 22.703125 46 36.53125 
z
M 64.796875 36.375 
Q 64.796875 18.265625 56.984375 8.421875 
Q 49.171875 -1.421875 34.8125 -1.421875 
Q 20.40625 -1.421875 12.59375 8.421875 
Q 4.78125 18.265625 4.78125 36.375 
Q 4.78125 54.546875 12.59375 64.375 
Q 20.40625 74.21875 34.8125 74.21875 
Q 49.171875 74.21875 56.984375 64.375 
Q 64.796875 54.546875 64.796875 36.375 
z
" id="DejaVuSans-Bold-48"/>
     <path d="M 10.59375 72.90625 
L 57.328125 72.90625 
L 57.328125 59.078125 
L 25.59375 59.078125 
L 25.59375 47.796875 
Q 27.734375 48.390625 29.90625 48.703125 
Q 32.078125 49.03125 34.421875 49.03125 
Q 47.75 49.03125 55.171875 42.359375 
Q 62.59375 35.6875 62.59375 23.78125 
Q 62.59375 11.96875 54.515625 5.265625 
Q 46.4375 -1.421875 32.078125 -1.421875 
Q 25.875 -1.421875 19.796875 -0.21875 
Q 13.71875 0.984375 7.71875 3.421875 
L 7.71875 18.21875 
Q 13.671875 14.796875 19.015625 13.078125 
Q 24.359375 11.375 29.109375 11.375 
Q 35.9375 11.375 39.859375 14.71875 
Q 43.796875 18.0625 43.796875 23.78125 
Q 43.796875 29.546875 39.859375 32.859375 
Q 35.9375 36.1875 29.109375 36.1875 
Q 25.046875 36.1875 20.453125 35.125 
Q 15.875 34.078125 10.59375 31.890625 
z
" id="DejaVuSans-Bold-53"/>
     <path d="M 28.8125 13.8125 
L 60.890625 13.8125 
L 60.890625 0 
L 7.90625 0 
L 7.90625 13.8125 
L 34.515625 37.3125 
Q 38.09375 40.53125 39.796875 43.609375 
Q 41.5 46.6875 41.5 50 
Q 41.5 55.125 38.0625 58.25 
Q 34.625 61.375 28.90625 61.375 
Q 24.515625 61.375 19.28125 59.5 
Q 14.0625 57.625 8.109375 53.90625 
L 8.109375 69.921875 
Q 14.453125 72.015625 20.65625 73.109375 
Q 26.859375 74.21875 32.8125 74.21875 
Q 45.90625 74.21875 53.15625 68.453125 
Q 60.40625 62.703125 60.40625 52.390625 
Q 60.40625 46.4375 57.328125 41.28125 
Q 54.25 36.140625 44.390625 27.484375 
z
" id="DejaVuSans-Bold-50"/>
     <path d="M 8.015625 -13.1875 
Q 14.265625 -1.5625 17.390625 9.515625 
Q 20.515625 20.609375 20.515625 31.390625 
Q 20.515625 42.1875 17.390625 53.25 
Q 14.265625 64.3125 8.015625 75.875 
L 22.515625 75.875 
Q 29.9375 63.921875 33.515625 52.953125 
Q 37.109375 42 37.109375 31.296875 
Q 37.109375 20.609375 33.546875 9.734375 
Q 29.984375 -1.125 22.515625 -13.1875 
z
" id="DejaVuSans-Bold-41"/>
    </defs>
    <g transform="translate(115.189375 19.918125)scale(0.12 -0.12)">
     <use xlink:href="#DejaVuSans-Bold-84"/>
     <use x="68.009766" xlink:href="#DejaVuSans-Bold-111"/>
     <use x="136.710938" xlink:href="#DejaVuSans-Bold-116"/>
     <use x="184.513672" xlink:href="#DejaVuSans-Bold-97"/>
     <use x="251.994141" xlink:href="#DejaVuSans-Bold-108"/>
     <use x="286.271484" xlink:href="#DejaVuSans-Bold-32"/>
     <use x="321.085938" xlink:href="#DejaVuSans-Bold-65"/>
     <use x="398.478516" xlink:href="#DejaVuSans-Bold-112"/>
     <use x="470.060547" xlink:href="#DejaVuSans-Bold-112"/>
     <use x="541.642578" xlink:href="#DejaVuSans-Bold-32"/>
     <use x="576.457031" xlink:href="#DejaVuSans-Bold-68"/>
     <use x="659.464844" xlink:href="#DejaVuSans-Bold-111"/>
     <use x="728.166016" xlink:href="#DejaVuSans-Bold-119"/>
     <use x="820.548828" xlink:href="#DejaVuSans-Bold-110"/>
     <use x="891.740234" xlink:href="#DejaVuSans-Bold-108"/>
     <use x="926.017578" xlink:href="#DejaVuSans-Bold-111"/>
     <use x="994.71875" xlink:href="#DejaVuSans-Bold-97"/>
     <use x="1062.199219" xlink:href="#DejaVuSans-Bold-100"/>
     <use x="1133.78125" xlink:href="#DejaVuSans-Bold-115"/>
     <use x="1193.302734" xlink:href="#DejaVuSans-Bold-32"/>
     <use x="1228.117188" xlink:href="#DejaVuSans-Bold-98"/>
     <use x="1299.699219" xlink:href="#DejaVuSans-Bold-121"/>
     <use x="1364.884766" xlink:href="#DejaVuSans-Bold-32"/>
     <use x="1399.699219" xlink:href="#DejaVuSans-Bold-68"/>
     <use x="1482.707031" xlink:href="#DejaVuSans-Bold-97"/>
     <use x="1550.140625" xlink:href="#DejaVuSans-Bold-121"/>
     <use x="1615.326172" xlink:href="#DejaVuSans-Bold-32"/>
     <use x="1650.140625" xlink:href="#DejaVuSans-Bold-40"/>
     <use x="1695.84375" xlink:href="#DejaVuSans-Bold-51"/>
     <use x="1765.423828" xlink:href="#DejaVuSans-Bold-44"/>
     <use x="1803.412109" xlink:href="#DejaVuSans-Bold-57"/>
     <use x="1872.992188" xlink:href="#DejaVuSans-Bold-57"/>
     <use x="1942.572266" xlink:href="#DejaVuSans-Bold-52"/>
     <use x="2012.152344" xlink:href="#DejaVuSans-Bold-44"/>
     <use x="2050.140625" xlink:href="#DejaVuSans-Bold-48"/>
     <use x="2119.720703" xlink:href="#DejaVuSans-Bold-53"/>
     <use x="2189.300781" xlink:href="#DejaVuSans-Bold-50"/>
     <use x="2258.880859" xlink:href="#DejaVuSans-Bold-41"/>
    </g>
   </g>
  </g>
  <g id="patch_7">
   <path d="M 0 345.6 
L 460.8 345.6 
L 460.8 0 
L 0 0 
z
" style="fill:none;stroke:#000000;stroke-linejoin:miter;stroke-width:2;"/>
  </g>
 </g>
 <defs>
  <clipPath id="pfe4fc96468">
   <rect height="278.525625" width="393.071875" x="56.928125" y="25.918125"/>
  </clipPath>
 </defs>
</svg>
