<?xml version="1.0" encoding="utf-8" standalone="no"?>
<!DOCTYPE svg PUBLIC "-//W3C//DTD SVG 1.1//EN"
  "http://www.w3.org/Graphics/SVG/1.1/DTD/svg11.dtd">
<!-- Created with matplotlib (https://matplotlib.org/) -->
<svg height="345.6pt" version="1.1" viewBox="0 0 460.8 345.6" width="460.8pt" xmlns="http://www.w3.org/2000/svg" xmlns:xlink="http://www.w3.org/1999/xlink">
 <defs>
  <style type="text/css">
*{stroke-linecap:butt;stroke-linejoin:round;}
  </style>
 </defs>
 <g id="figure_1">
  <g id="patch_1">
   <path d="M 0 345.6 
L 460.8 345.6 
L 460.8 0 
L 0 0 
z
" style="fill:#ffffff;"/>
  </g>
  <g id="axes_1">
   <g id="patch_2">
    <path d="M 63.290625 304.44375 
L 450 304.44375 
L 450 25.918125 
L 63.290625 25.918125 
z
" style="fill:#ffffff;"/>
   </g>
   <g id="matplotlib.axis_1">
    <g id="xtick_1">
     <g id="line2d_1">
      <defs>
       <path d="M 0 0 
L 0 3.5 
" id="mdf06ed8348" style="stroke:#000000;stroke-width:0.8;"/>
      </defs>
      <g>
       <use style="stroke:#000000;stroke-width:0.8;" x="119.652282" xlink:href="#mdf06ed8348" y="304.44375"/>
      </g>
     </g>
     <g id="text_1">
      <!-- 2015 -->
      <defs>
       <path d="M 19.1875 8.296875 
L 53.609375 8.296875 
L 53.609375 0 
L 7.328125 0 
L 7.328125 8.296875 
Q 12.9375 14.109375 22.625 23.890625 
Q 32.328125 33.6875 34.8125 36.53125 
Q 39.546875 41.84375 41.421875 45.53125 
Q 43.3125 49.21875 43.3125 52.78125 
Q 43.3125 58.59375 39.234375 62.25 
Q 35.15625 65.921875 28.609375 65.921875 
Q 23.96875 65.921875 18.8125 64.3125 
Q 13.671875 62.703125 7.8125 59.421875 
L 7.8125 69.390625 
Q 13.765625 71.78125 18.9375 73 
Q 24.125 74.21875 28.421875 74.21875 
Q 39.75 74.21875 46.484375 68.546875 
Q 53.21875 62.890625 53.21875 53.421875 
Q 53.21875 48.921875 51.53125 44.890625 
Q 49.859375 40.875 45.40625 35.40625 
Q 44.1875 33.984375 37.640625 27.21875 
Q 31.109375 20.453125 19.1875 8.296875 
z
" id="DejaVuSans-50"/>
       <path d="M 31.78125 66.40625 
Q 24.171875 66.40625 20.328125 58.90625 
Q 16.5 51.421875 16.5 36.375 
Q 16.5 21.390625 20.328125 13.890625 
Q 24.171875 6.390625 31.78125 6.390625 
Q 39.453125 6.390625 43.28125 13.890625 
Q 47.125 21.390625 47.125 36.375 
Q 47.125 51.421875 43.28125 58.90625 
Q 39.453125 66.40625 31.78125 66.40625 
z
M 31.78125 74.21875 
Q 44.046875 74.21875 50.515625 64.515625 
Q 56.984375 54.828125 56.984375 36.375 
Q 56.984375 17.96875 50.515625 8.265625 
Q 44.046875 -1.421875 31.78125 -1.421875 
Q 19.53125 -1.421875 13.0625 8.265625 
Q 6.59375 17.96875 6.59375 36.375 
Q 6.59375 54.828125 13.0625 64.515625 
Q 19.53125 74.21875 31.78125 74.21875 
z
" id="DejaVuSans-48"/>
       <path d="M 12.40625 8.296875 
L 28.515625 8.296875 
L 28.515625 63.921875 
L 10.984375 60.40625 
L 10.984375 69.390625 
L 28.421875 72.90625 
L 38.28125 72.90625 
L 38.28125 8.296875 
L 54.390625 8.296875 
L 54.390625 0 
L 12.40625 0 
z
" id="DejaVuSans-49"/>
       <path d="M 10.796875 72.90625 
L 49.515625 72.90625 
L 49.515625 64.59375 
L 19.828125 64.59375 
L 19.828125 46.734375 
Q 21.96875 47.46875 24.109375 47.828125 
Q 26.265625 48.1875 28.421875 48.1875 
Q 40.625 48.1875 47.75 41.5 
Q 54.890625 34.8125 54.890625 23.390625 
Q 54.890625 11.625 47.5625 5.09375 
Q 40.234375 -1.421875 26.90625 -1.421875 
Q 22.3125 -1.421875 17.546875 -0.640625 
Q 12.796875 0.140625 7.71875 1.703125 
L 7.71875 11.625 
Q 12.109375 9.234375 16.796875 8.0625 
Q 21.484375 6.890625 26.703125 6.890625 
Q 35.15625 6.890625 40.078125 11.328125 
Q 45.015625 15.765625 45.015625 23.390625 
Q 45.015625 31 40.078125 35.4375 
Q 35.15625 39.890625 26.703125 39.890625 
Q 22.75 39.890625 18.8125 39.015625 
Q 14.890625 38.140625 10.796875 36.28125 
z
" id="DejaVuSans-53"/>
      </defs>
      <g transform="translate(106.927282 319.042187)scale(0.1 -0.1)">
       <use xlink:href="#DejaVuSans-50"/>
       <use x="63.623047" xlink:href="#DejaVuSans-48"/>
       <use x="127.246094" xlink:href="#DejaVuSans-49"/>
       <use x="190.869141" xlink:href="#DejaVuSans-53"/>
      </g>
     </g>
    </g>
    <g id="xtick_2">
     <g id="line2d_2">
      <g>
       <use style="stroke:#000000;stroke-width:0.8;" x="163.076039" xlink:href="#mdf06ed8348" y="304.44375"/>
      </g>
     </g>
     <g id="text_2">
      <!-- 2016 -->
      <defs>
       <path d="M 33.015625 40.375 
Q 26.375 40.375 22.484375 35.828125 
Q 18.609375 31.296875 18.609375 23.390625 
Q 18.609375 15.53125 22.484375 10.953125 
Q 26.375 6.390625 33.015625 6.390625 
Q 39.65625 6.390625 43.53125 10.953125 
Q 47.40625 15.53125 47.40625 23.390625 
Q 47.40625 31.296875 43.53125 35.828125 
Q 39.65625 40.375 33.015625 40.375 
z
M 52.59375 71.296875 
L 52.59375 62.3125 
Q 48.875 64.0625 45.09375 64.984375 
Q 41.3125 65.921875 37.59375 65.921875 
Q 27.828125 65.921875 22.671875 59.328125 
Q 17.53125 52.734375 16.796875 39.40625 
Q 19.671875 43.65625 24.015625 45.921875 
Q 28.375 48.1875 33.59375 48.1875 
Q 44.578125 48.1875 50.953125 41.515625 
Q 57.328125 34.859375 57.328125 23.390625 
Q 57.328125 12.15625 50.6875 5.359375 
Q 44.046875 -1.421875 33.015625 -1.421875 
Q 20.359375 -1.421875 13.671875 8.265625 
Q 6.984375 17.96875 6.984375 36.375 
Q 6.984375 53.65625 15.1875 63.9375 
Q 23.390625 74.21875 37.203125 74.21875 
Q 40.921875 74.21875 44.703125 73.484375 
Q 48.484375 72.75 52.59375 71.296875 
z
" id="DejaVuSans-54"/>
      </defs>
      <g transform="translate(150.351039 319.042187)scale(0.1 -0.1)">
       <use xlink:href="#DejaVuSans-50"/>
       <use x="63.623047" xlink:href="#DejaVuSans-48"/>
       <use x="127.246094" xlink:href="#DejaVuSans-49"/>
       <use x="190.869141" xlink:href="#DejaVuSans-54"/>
      </g>
     </g>
    </g>
    <g id="xtick_3">
     <g id="line2d_3">
      <g>
       <use style="stroke:#000000;stroke-width:0.8;" x="206.618765" xlink:href="#mdf06ed8348" y="304.44375"/>
      </g>
     </g>
     <g id="text_3">
      <!-- 2017 -->
      <defs>
       <path d="M 8.203125 72.90625 
L 55.078125 72.90625 
L 55.078125 68.703125 
L 28.609375 0 
L 18.3125 0 
L 43.21875 64.59375 
L 8.203125 64.59375 
z
" id="DejaVuSans-55"/>
      </defs>
      <g transform="translate(193.893765 319.042187)scale(0.1 -0.1)">
       <use xlink:href="#DejaVuSans-50"/>
       <use x="63.623047" xlink:href="#DejaVuSans-48"/>
       <use x="127.246094" xlink:href="#DejaVuSans-49"/>
       <use x="190.869141" xlink:href="#DejaVuSans-55"/>
      </g>
     </g>
    </g>
    <g id="xtick_4">
     <g id="line2d_4">
      <g>
       <use style="stroke:#000000;stroke-width:0.8;" x="250.042522" xlink:href="#mdf06ed8348" y="304.44375"/>
      </g>
     </g>
     <g id="text_4">
      <!-- 2018 -->
      <defs>
       <path d="M 31.78125 34.625 
Q 24.75 34.625 20.71875 30.859375 
Q 16.703125 27.09375 16.703125 20.515625 
Q 16.703125 13.921875 20.71875 10.15625 
Q 24.75 6.390625 31.78125 6.390625 
Q 38.8125 6.390625 42.859375 10.171875 
Q 46.921875 13.96875 46.921875 20.515625 
Q 46.921875 27.09375 42.890625 30.859375 
Q 38.875 34.625 31.78125 34.625 
z
M 21.921875 38.8125 
Q 15.578125 40.375 12.03125 44.71875 
Q 8.5 49.078125 8.5 55.328125 
Q 8.5 64.0625 14.71875 69.140625 
Q 20.953125 74.21875 31.78125 74.21875 
Q 42.671875 74.21875 48.875 69.140625 
Q 55.078125 64.0625 55.078125 55.328125 
Q 55.078125 49.078125 51.53125 44.71875 
Q 48 40.375 41.703125 38.8125 
Q 48.828125 37.15625 52.796875 32.3125 
Q 56.78125 27.484375 56.78125 20.515625 
Q 56.78125 9.90625 50.3125 4.234375 
Q 43.84375 -1.421875 31.78125 -1.421875 
Q 19.734375 -1.421875 13.25 4.234375 
Q 6.78125 9.90625 6.78125 20.515625 
Q 6.78125 27.484375 10.78125 32.3125 
Q 14.796875 37.15625 21.921875 38.8125 
z
M 18.3125 54.390625 
Q 18.3125 48.734375 21.84375 45.5625 
Q 25.390625 42.390625 31.78125 42.390625 
Q 38.140625 42.390625 41.71875 45.5625 
Q 45.3125 48.734375 45.3125 54.390625 
Q 45.3125 60.0625 41.71875 63.234375 
Q 38.140625 66.40625 31.78125 66.40625 
Q 25.390625 66.40625 21.84375 63.234375 
Q 18.3125 60.0625 18.3125 54.390625 
z
" id="DejaVuSans-56"/>
      </defs>
      <g transform="translate(237.317522 319.042187)scale(0.1 -0.1)">
       <use xlink:href="#DejaVuSans-50"/>
       <use x="63.623047" xlink:href="#DejaVuSans-48"/>
       <use x="127.246094" xlink:href="#DejaVuSans-49"/>
       <use x="190.869141" xlink:href="#DejaVuSans-56"/>
      </g>
     </g>
    </g>
    <g id="xtick_5">
     <g id="line2d_5">
      <g>
       <use style="stroke:#000000;stroke-width:0.8;" x="293.466279" xlink:href="#mdf06ed8348" y="304.44375"/>
      </g>
     </g>
     <g id="text_5">
      <!-- 2019 -->
      <defs>
       <path d="M 10.984375 1.515625 
L 10.984375 10.5 
Q 14.703125 8.734375 18.5 7.8125 
Q 22.3125 6.890625 25.984375 6.890625 
Q 35.75 6.890625 40.890625 13.453125 
Q 46.046875 20.015625 46.78125 33.40625 
Q 43.953125 29.203125 39.59375 26.953125 
Q 35.25 24.703125 29.984375 24.703125 
Q 19.046875 24.703125 12.671875 31.3125 
Q 6.296875 37.9375 6.296875 49.421875 
Q 6.296875 60.640625 12.9375 67.421875 
Q 19.578125 74.21875 30.609375 74.21875 
Q 43.265625 74.21875 49.921875 64.515625 
Q 56.59375 54.828125 56.59375 36.375 
Q 56.59375 19.140625 48.40625 8.859375 
Q 40.234375 -1.421875 26.421875 -1.421875 
Q 22.703125 -1.421875 18.890625 -0.6875 
Q 15.09375 0.046875 10.984375 1.515625 
z
M 30.609375 32.421875 
Q 37.25 32.421875 41.125 36.953125 
Q 45.015625 41.5 45.015625 49.421875 
Q 45.015625 57.28125 41.125 61.84375 
Q 37.25 66.40625 30.609375 66.40625 
Q 23.96875 66.40625 20.09375 61.84375 
Q 16.21875 57.28125 16.21875 49.421875 
Q 16.21875 41.5 20.09375 36.953125 
Q 23.96875 32.421875 30.609375 32.421875 
z
" id="DejaVuSans-57"/>
      </defs>
      <g transform="translate(280.741279 319.042187)scale(0.1 -0.1)">
       <use xlink:href="#DejaVuSans-50"/>
       <use x="63.623047" xlink:href="#DejaVuSans-48"/>
       <use x="127.246094" xlink:href="#DejaVuSans-49"/>
       <use x="190.869141" xlink:href="#DejaVuSans-57"/>
      </g>
     </g>
    </g>
    <g id="xtick_6">
     <g id="line2d_6">
      <g>
       <use style="stroke:#000000;stroke-width:0.8;" x="336.29519" xlink:href="#mdf06ed8348" y="304.44375"/>
      </g>
     </g>
     <g id="text_6">
      <!-- 2020 -->
      <g transform="translate(323.57019 319.042187)scale(0.1 -0.1)">
       <use xlink:href="#DejaVuSans-50"/>
       <use x="63.623047" xlink:href="#DejaVuSans-48"/>
       <use x="127.246094" xlink:href="#DejaVuSans-50"/>
       <use x="190.869141" xlink:href="#DejaVuSans-48"/>
      </g>
     </g>
    </g>
    <g id="xtick_7">
     <g id="line2d_7">
      <g>
       <use style="stroke:#000000;stroke-width:0.8;" x="377.69647" xlink:href="#mdf06ed8348" y="304.44375"/>
      </g>
     </g>
     <g id="text_7">
      <!-- 2021 -->
      <g transform="translate(364.97147 319.042187)scale(0.1 -0.1)">
       <use xlink:href="#DejaVuSans-50"/>
       <use x="63.623047" xlink:href="#DejaVuSans-48"/>
       <use x="127.246094" xlink:href="#DejaVuSans-50"/>
       <use x="190.869141" xlink:href="#DejaVuSans-49"/>
      </g>
     </g>
    </g>
    <g id="xtick_8">
     <g id="line2d_8">
      <g>
       <use style="stroke:#000000;stroke-width:0.8;" x="421.120227" xlink:href="#mdf06ed8348" y="304.44375"/>
      </g>
     </g>
     <g id="text_8">
      <!-- 2022 -->
      <g transform="translate(408.395227 319.042187)scale(0.1 -0.1)">
       <use xlink:href="#DejaVuSans-50"/>
       <use x="63.623047" xlink:href="#DejaVuSans-48"/>
       <use x="127.246094" xlink:href="#DejaVuSans-50"/>
       <use x="190.869141" xlink:href="#DejaVuSans-50"/>
      </g>
     </g>
    </g>
    <g id="text_9">
     <!-- Year -->
     <defs>
      <path d="M -0.984375 72.90625 
L 19.578125 72.90625 
L 36.1875 46.921875 
L 52.78125 72.90625 
L 73.390625 72.90625 
L 45.609375 30.71875 
L 45.609375 0 
L 26.8125 0 
L 26.8125 30.71875 
z
" id="DejaVuSans-Bold-89"/>
      <path d="M 62.984375 27.484375 
L 62.984375 22.515625 
L 22.125 22.515625 
Q 22.75 16.359375 26.5625 13.28125 
Q 30.375 10.203125 37.203125 10.203125 
Q 42.71875 10.203125 48.5 11.84375 
Q 54.296875 13.484375 60.40625 16.796875 
L 60.40625 3.328125 
Q 54.203125 0.984375 48 -0.21875 
Q 41.796875 -1.421875 35.59375 -1.421875 
Q 20.75 -1.421875 12.515625 6.125 
Q 4.296875 13.671875 4.296875 27.296875 
Q 4.296875 40.671875 12.375 48.328125 
Q 20.453125 56 34.625 56 
Q 47.515625 56 55.25 48.234375 
Q 62.984375 40.484375 62.984375 27.484375 
z
M 45.015625 33.296875 
Q 45.015625 38.28125 42.109375 41.328125 
Q 39.203125 44.390625 34.515625 44.390625 
Q 29.4375 44.390625 26.265625 41.53125 
Q 23.09375 38.671875 22.3125 33.296875 
z
" id="DejaVuSans-Bold-101"/>
      <path d="M 32.90625 24.609375 
Q 27.4375 24.609375 24.671875 22.75 
Q 21.921875 20.90625 21.921875 17.28125 
Q 21.921875 13.96875 24.140625 12.078125 
Q 26.375 10.203125 30.328125 10.203125 
Q 35.25 10.203125 38.625 13.734375 
Q 42 17.28125 42 22.609375 
L 42 24.609375 
z
M 59.625 31.203125 
L 59.625 0 
L 42 0 
L 42 8.109375 
Q 38.484375 3.125 34.078125 0.84375 
Q 29.6875 -1.421875 23.390625 -1.421875 
Q 14.890625 -1.421875 9.59375 3.53125 
Q 4.296875 8.5 4.296875 16.40625 
Q 4.296875 26.03125 10.90625 30.515625 
Q 17.53125 35.015625 31.6875 35.015625 
L 42 35.015625 
L 42 36.375 
Q 42 40.53125 38.71875 42.453125 
Q 35.453125 44.390625 28.515625 44.390625 
Q 22.90625 44.390625 18.0625 43.265625 
Q 13.234375 42.140625 9.078125 39.890625 
L 9.078125 53.21875 
Q 14.703125 54.59375 20.359375 55.296875 
Q 26.03125 56 31.6875 56 
Q 46.484375 56 53.046875 50.171875 
Q 59.625 44.34375 59.625 31.203125 
z
" id="DejaVuSans-Bold-97"/>
      <path d="M 49.03125 39.796875 
Q 46.734375 40.875 44.453125 41.375 
Q 42.1875 41.890625 39.890625 41.890625 
Q 33.15625 41.890625 29.515625 37.5625 
Q 25.875 33.25 25.875 25.203125 
L 25.875 0 
L 8.40625 0 
L 8.40625 54.6875 
L 25.875 54.6875 
L 25.875 45.703125 
Q 29.25 51.078125 33.609375 53.53125 
Q 37.984375 56 44.09375 56 
Q 44.96875 56 45.984375 55.921875 
Q 47.015625 55.859375 48.96875 55.609375 
z
" id="DejaVuSans-Bold-114"/>
     </defs>
     <g transform="translate(243.800781 332.720312)scale(0.1 -0.1)">
      <use xlink:href="#DejaVuSans-Bold-89"/>
      <use x="72.271484" xlink:href="#DejaVuSans-Bold-101"/>
      <use x="140.09375" xlink:href="#DejaVuSans-Bold-97"/>
      <use x="207.574219" xlink:href="#DejaVuSans-Bold-114"/>
     </g>
    </g>
   </g>
   <g id="matplotlib.axis_2">
    <g id="ytick_1">
     <g id="line2d_9">
      <defs>
       <path d="M 0 0 
L -3.5 0 
" id="m413bec42e8" style="stroke:#000000;stroke-width:0.8;"/>
      </defs>
      <g>
       <use style="stroke:#000000;stroke-width:0.8;" x="63.290625" xlink:href="#m413bec42e8" y="292.576325"/>
      </g>
     </g>
     <g id="text_10">
      <!-- 0 -->
      <g transform="translate(49.928125 296.375544)scale(0.1 -0.1)">
       <use xlink:href="#DejaVuSans-48"/>
      </g>
     </g>
    </g>
    <g id="ytick_2">
     <g id="line2d_10">
      <g>
       <use style="stroke:#000000;stroke-width:0.8;" x="63.290625" xlink:href="#m413bec42e8" y="250.848389"/>
      </g>
     </g>
     <g id="text_11">
      <!-- 2000 -->
      <g transform="translate(30.840625 254.647608)scale(0.1 -0.1)">
       <use xlink:href="#DejaVuSans-50"/>
       <use x="63.623047" xlink:href="#DejaVuSans-48"/>
       <use x="127.246094" xlink:href="#DejaVuSans-48"/>
       <use x="190.869141" xlink:href="#DejaVuSans-48"/>
      </g>
     </g>
    </g>
    <g id="ytick_3">
     <g id="line2d_11">
      <g>
       <use style="stroke:#000000;stroke-width:0.8;" x="63.290625" xlink:href="#m413bec42e8" y="209.120454"/>
      </g>
     </g>
     <g id="text_12">
      <!-- 4000 -->
      <defs>
       <path d="M 37.796875 64.3125 
L 12.890625 25.390625 
L 37.796875 25.390625 
z
M 35.203125 72.90625 
L 47.609375 72.90625 
L 47.609375 25.390625 
L 58.015625 25.390625 
L 58.015625 17.1875 
L 47.609375 17.1875 
L 47.609375 0 
L 37.796875 0 
L 37.796875 17.1875 
L 4.890625 17.1875 
L 4.890625 26.703125 
z
" id="DejaVuSans-52"/>
      </defs>
      <g transform="translate(30.840625 212.919673)scale(0.1 -0.1)">
       <use xlink:href="#DejaVuSans-52"/>
       <use x="63.623047" xlink:href="#DejaVuSans-48"/>
       <use x="127.246094" xlink:href="#DejaVuSans-48"/>
       <use x="190.869141" xlink:href="#DejaVuSans-48"/>
      </g>
     </g>
    </g>
    <g id="ytick_4">
     <g id="line2d_12">
      <g>
       <use style="stroke:#000000;stroke-width:0.8;" x="63.290625" xlink:href="#m413bec42e8" y="167.392518"/>
      </g>
     </g>
     <g id="text_13">
      <!-- 6000 -->
      <g transform="translate(30.840625 171.191737)scale(0.1 -0.1)">
       <use xlink:href="#DejaVuSans-54"/>
       <use x="63.623047" xlink:href="#DejaVuSans-48"/>
       <use x="127.246094" xlink:href="#DejaVuSans-48"/>
       <use x="190.869141" xlink:href="#DejaVuSans-48"/>
      </g>
     </g>
    </g>
    <g id="ytick_5">
     <g id="line2d_13">
      <g>
       <use style="stroke:#000000;stroke-width:0.8;" x="63.290625" xlink:href="#m413bec42e8" y="125.664582"/>
      </g>
     </g>
     <g id="text_14">
      <!-- 8000 -->
      <g transform="translate(30.840625 129.463801)scale(0.1 -0.1)">
       <use xlink:href="#DejaVuSans-56"/>
       <use x="63.623047" xlink:href="#DejaVuSans-48"/>
       <use x="127.246094" xlink:href="#DejaVuSans-48"/>
       <use x="190.869141" xlink:href="#DejaVuSans-48"/>
      </g>
     </g>
    </g>
    <g id="ytick_6">
     <g id="line2d_14">
      <g>
       <use style="stroke:#000000;stroke-width:0.8;" x="63.290625" xlink:href="#m413bec42e8" y="83.936647"/>
      </g>
     </g>
     <g id="text_15">
      <!-- 10000 -->
      <g transform="translate(24.478125 87.735866)scale(0.1 -0.1)">
       <use xlink:href="#DejaVuSans-49"/>
       <use x="63.623047" xlink:href="#DejaVuSans-48"/>
       <use x="127.246094" xlink:href="#DejaVuSans-48"/>
       <use x="190.869141" xlink:href="#DejaVuSans-48"/>
       <use x="254.492188" xlink:href="#DejaVuSans-48"/>
      </g>
     </g>
    </g>
    <g id="ytick_7">
     <g id="line2d_15">
      <g>
       <use style="stroke:#000000;stroke-width:0.8;" x="63.290625" xlink:href="#m413bec42e8" y="42.208711"/>
      </g>
     </g>
     <g id="text_16">
      <!-- 12000 -->
      <g transform="translate(24.478125 46.00793)scale(0.1 -0.1)">
       <use xlink:href="#DejaVuSans-49"/>
       <use x="63.623047" xlink:href="#DejaVuSans-50"/>
       <use x="127.246094" xlink:href="#DejaVuSans-48"/>
       <use x="190.869141" xlink:href="#DejaVuSans-48"/>
       <use x="254.492188" xlink:href="#DejaVuSans-48"/>
      </g>
     </g>
    </g>
    <g id="text_17">
     <!-- # Starts -->
     <defs>
      <path d="M 44.484375 71.78125 
L 39.796875 52.984375 
L 52.6875 52.984375 
L 57.421875 71.78125 
L 68.21875 71.78125 
L 63.484375 52.984375 
L 77 52.984375 
L 77 42.578125 
L 60.890625 42.578125 
L 57.515625 29.203125 
L 71.390625 29.203125 
L 71.390625 18.703125 
L 54.984375 18.703125 
L 50.296875 0 
L 39.5 0 
L 44.1875 18.703125 
L 31.296875 18.703125 
L 26.609375 0 
L 15.71875 0 
L 20.40625 18.703125 
L 6.78125 18.703125 
L 6.78125 29.203125 
L 22.796875 29.203125 
L 26.21875 42.578125 
L 12.40625 42.578125 
L 12.40625 52.984375 
L 28.90625 52.984375 
L 33.59375 71.78125 
z
M 50 42.578125 
L 37.109375 42.578125 
L 33.6875 29.203125 
L 46.578125 29.203125 
z
" id="DejaVuSans-Bold-35"/>
      <path id="DejaVuSans-Bold-32"/>
      <path d="M 59.90625 70.609375 
L 59.90625 55.171875 
Q 53.90625 57.859375 48.1875 59.21875 
Q 42.484375 60.59375 37.40625 60.59375 
Q 30.671875 60.59375 27.4375 58.734375 
Q 24.21875 56.890625 24.21875 52.984375 
Q 24.21875 50.046875 26.390625 48.40625 
Q 28.5625 46.78125 34.28125 45.609375 
L 42.28125 44 
Q 54.4375 41.546875 59.5625 36.5625 
Q 64.703125 31.59375 64.703125 22.40625 
Q 64.703125 10.359375 57.546875 4.46875 
Q 50.390625 -1.421875 35.6875 -1.421875 
Q 28.765625 -1.421875 21.78125 -0.09375 
Q 14.796875 1.21875 7.8125 3.8125 
L 7.8125 19.671875 
Q 14.796875 15.96875 21.3125 14.078125 
Q 27.828125 12.203125 33.890625 12.203125 
Q 40.046875 12.203125 43.3125 14.25 
Q 46.578125 16.3125 46.578125 20.125 
Q 46.578125 23.53125 44.359375 25.390625 
Q 42.140625 27.25 35.5 28.71875 
L 28.21875 30.328125 
Q 17.28125 32.671875 12.21875 37.796875 
Q 7.171875 42.921875 7.171875 51.609375 
Q 7.171875 62.5 14.203125 68.359375 
Q 21.234375 74.21875 34.421875 74.21875 
Q 40.4375 74.21875 46.78125 73.3125 
Q 53.125 72.40625 59.90625 70.609375 
z
" id="DejaVuSans-Bold-83"/>
      <path d="M 27.484375 70.21875 
L 27.484375 54.6875 
L 45.515625 54.6875 
L 45.515625 42.1875 
L 27.484375 42.1875 
L 27.484375 19 
Q 27.484375 15.1875 29 13.84375 
Q 30.515625 12.5 35.015625 12.5 
L 44 12.5 
L 44 0 
L 29 0 
Q 18.65625 0 14.328125 4.3125 
Q 10.015625 8.640625 10.015625 19 
L 10.015625 42.1875 
L 1.3125 42.1875 
L 1.3125 54.6875 
L 10.015625 54.6875 
L 10.015625 70.21875 
z
" id="DejaVuSans-Bold-116"/>
      <path d="M 51.125 52.984375 
L 51.125 39.703125 
Q 45.515625 42.046875 40.28125 43.21875 
Q 35.0625 44.390625 30.421875 44.390625 
Q 25.4375 44.390625 23.015625 43.140625 
Q 20.609375 41.890625 20.609375 39.3125 
Q 20.609375 37.203125 22.4375 36.078125 
Q 24.265625 34.96875 29 34.421875 
L 32.078125 33.984375 
Q 45.515625 32.28125 50.140625 28.375 
Q 54.78125 24.46875 54.78125 16.109375 
Q 54.78125 7.375 48.328125 2.96875 
Q 41.890625 -1.421875 29.109375 -1.421875 
Q 23.6875 -1.421875 17.890625 -0.5625 
Q 12.109375 0.296875 6 2 
L 6 15.28125 
Q 11.234375 12.75 16.71875 11.46875 
Q 22.21875 10.203125 27.875 10.203125 
Q 33.015625 10.203125 35.59375 11.609375 
Q 38.1875 13.03125 38.1875 15.828125 
Q 38.1875 18.171875 36.40625 19.3125 
Q 34.625 20.453125 29.296875 21.09375 
L 26.21875 21.484375 
Q 14.546875 22.953125 9.859375 26.90625 
Q 5.171875 30.859375 5.171875 38.921875 
Q 5.171875 47.609375 11.125 51.796875 
Q 17.09375 56 29.390625 56 
Q 34.234375 56 39.546875 55.265625 
Q 44.875 54.546875 51.125 52.984375 
z
" id="DejaVuSans-Bold-115"/>
     </defs>
     <g transform="translate(18.398438 188.3075)rotate(-90)scale(0.1 -0.1)">
      <use xlink:href="#DejaVuSans-Bold-35"/>
      <use x="83.789062" xlink:href="#DejaVuSans-Bold-32"/>
      <use x="118.603516" xlink:href="#DejaVuSans-Bold-83"/>
      <use x="190.625" xlink:href="#DejaVuSans-Bold-116"/>
      <use x="238.427734" xlink:href="#DejaVuSans-Bold-97"/>
      <use x="305.908203" xlink:href="#DejaVuSans-Bold-114"/>
      <use x="355.224609" xlink:href="#DejaVuSans-Bold-116"/>
      <use x="403.027344" xlink:href="#DejaVuSans-Bold-115"/>
     </g>
    </g>
   </g>
   <g id="line2d_16">
    <path clip-path="url(#p8042e11ce7)" d="M 80.868324 291.094983 
L 80.987293 288.257484 
L 81.106262 289.592778 
L 81.46317 289.258954 
L 81.701108 291.783494 
L 81.939047 288.591307 
L 82.176985 278.576603 
L 82.414923 285.60776 
L 82.533893 285.315664 
L 82.652862 274.88368 
L 82.771831 275.134048 
L 82.8908 273.548386 
L 83.009769 273.485795 
L 83.128739 277.92982 
L 83.247708 286.588366 
L 83.366677 283.437907 
L 83.604615 271.25335 
L 83.961523 275.134048 
L 84.080492 283.020628 
L 84.199461 282.916308 
L 84.318431 268.561898 
L 84.4374 270.94039 
L 84.556369 266.412909 
L 84.675338 266.538093 
L 84.794307 270.377063 
L 84.913277 281.247191 
L 85.032246 279.432025 
L 85.151215 267.62302 
L 85.270184 267.080556 
L 85.389153 265.703535 
L 85.508123 266.433773 
L 85.746061 282.081749 
L 85.86503 280.03708 
L 86.102969 265.536623 
L 86.221938 265.661807 
L 86.340907 266.016494 
L 86.459876 267.539564 
L 86.578845 282.66594 
L 86.697815 278.576603 
L 86.935753 266.412909 
L 87.054722 263.57541 
L 87.173691 264.368241 
L 87.41163 281.76879 
L 87.530599 280.1414 
L 87.768537 260.883958 
L 87.887506 261.071734 
L 88.125445 269.292137 
L 88.244414 284.418514 
L 88.363383 280.913367 
L 88.482352 264.973296 
L 88.601322 263.950961 
L 88.83926 266.037358 
L 89.077198 283.291859 
L 89.196168 279.181658 
L 89.434106 263.57541 
L 89.553075 263.283314 
L 89.672044 264.639472 
L 89.791014 268.394986 
L 89.909983 282.519893 
L 90.26689 255.042047 
L 90.742767 279.411161 
L 90.861736 275.530463 
L 91.099675 255.292415 
L 91.456582 265.745262 
L 91.575552 278.096731 
L 91.694521 274.591585 
L 91.81349 253.769345 
L 91.932459 255.605374 
L 92.289367 266.162542 
L 92.408336 281.372374 
L 92.527305 275.19664 
L 92.646274 256.085245 
L 92.765244 256.982396 
L 92.884213 256.398205 
L 93.003182 257.858683 
L 93.122151 262.678259 
L 93.24112 278.493147 
L 93.36009 277.387357 
L 93.598028 257.545723 
L 93.716997 258.296826 
L 93.954936 262.323572 
L 94.073905 279.432025 
L 94.192874 277.61686 
L 94.430812 252.538371 
L 94.549782 252.517507 
L 94.668751 250.74407 
L 94.906689 282.895444 
L 95.025658 277.116125 
L 95.144628 260.863094 
L 95.263597 260.216311 
L 95.382566 253.185154 
L 95.501535 255.647102 
L 95.620504 264.347377 
L 95.739473 281.518422 
L 95.858443 279.724121 
L 96.096381 258.839289 
L 96.21535 253.644161 
L 96.334319 256.627709 
L 96.453289 263.784049 
L 96.572258 283.542227 
L 96.691227 275.926879 
L 96.929165 255.104639 
L 97.167104 262.26098 
L 97.286073 263.283314 
L 97.405042 281.581014 
L 97.524011 277.199581 
L 97.642981 261.405557 
L 97.76195 261.864564 
L 97.880919 256.878076 
L 97.999888 260.863094 
L 98.237827 280.600408 
L 98.356796 276.824029 
L 98.594734 253.539841 
L 98.713703 258.275962 
L 98.832673 252.642691 
L 98.951642 260.299767 
L 99.070611 282.916308 
L 99.18958 276.928349 
L 99.427519 251.057029 
L 99.546488 250.74407 
L 99.665457 252.830466 
L 99.903395 282.457301 
L 100.022365 274.09085 
L 100.260303 254.937727 
L 100.379272 251.870724 
L 100.617211 262.782579 
L 100.73618 280.662999 
L 100.855149 274.925408 
L 100.974118 256.919804 
L 101.093087 258.755833 
L 101.331026 251.975044 
L 101.449995 262.177524 
L 101.568964 282.290389 
L 101.687933 276.19811 
L 101.806903 254.958591 
L 101.925872 259.486072 
L 102.044841 251.411717 
L 102.16381 253.790209 
L 102.401749 282.624212 
L 102.520718 274.278625 
L 102.639687 253.957121 
L 102.877625 263.304178 
L 102.996595 261.092598 
L 103.115564 268.457578 
L 103.234533 283.208404 
L 103.353502 277.804636 
L 103.59144 255.876606 
L 103.71041 259.861624 
L 103.829379 258.797561 
L 104.067317 282.060885 
L 104.186286 276.803165 
L 104.305256 256.064381 
L 104.424225 257.733499 
L 104.662163 257.483131 
L 104.781132 264.88984 
L 104.900102 282.040021 
L 105.019071 276.886621 
L 105.257009 253.727617 
L 105.375978 253.05997 
L 105.494948 257.086716 
L 105.732886 282.457301 
L 105.851855 276.490206 
L 106.089794 256.001789 
L 106.208763 252.162819 
L 106.446701 261.280373 
L 106.56567 281.643606 
L 106.68464 275.217504 
L 106.922578 252.559235 
L 107.041547 254.854271 
L 107.160516 253.727617 
L 107.279486 259.694712 
L 107.398455 281.080279 
L 107.517424 274.320353 
L 107.755362 250.994437 
L 107.874332 256.377341 
L 107.993301 255.772286 
L 108.11227 264.180465 
L 108.231239 280.725591 
L 108.350208 273.694434 
L 108.469178 253.936257 
L 108.588147 256.711164 
L 108.707116 255.334143 
L 108.826085 257.191036 
L 108.945054 256.6903 
L 109.064024 279.870169 
L 109.182993 279.13993 
L 109.420931 246.654732 
L 109.896808 278.013276 
L 110.015777 275.634783 
L 110.253716 252.788738 
L 110.372685 254.603904 
L 110.491654 248.720265 
L 110.610623 258.380282 
L 110.729592 277.554268 
L 110.848562 274.403809 
L 111.0865 245.799309 
L 111.324438 251.182213 
L 111.443408 256.836348 
L 111.562377 280.537816 
L 111.681346 274.320353 
L 111.919284 243.441681 
L 112.038253 245.319438 
L 112.157223 241.960339 
L 112.395161 278.680923 
L 112.51413 270.439655 
L 112.633099 244.255376 
L 112.990007 240.541589 
L 113.227945 278.284507 
L 113.703822 238.747288 
L 113.822791 239.769623 
L 113.941761 252.204547 
L 114.06073 276.928349 
L 114.179699 268.290667 
L 114.298668 237.933593 
L 114.536607 239.248023 
L 114.655576 236.306204 
L 114.893514 272.943331 
L 115.012483 266.120814 
L 115.250422 236.786075 
L 115.369391 241.188372 
L 115.726299 271.524582 
L 115.845268 265.661807 
L 115.964237 241.104916 
L 116.083206 245.048206 
L 116.202175 243.85896 
L 116.321145 245.256846 
L 116.440114 255.000319 
L 116.559083 275.363552 
L 116.678052 268.958314 
L 116.797021 243.650321 
L 116.915991 244.380559 
L 117.03496 243.733776 
L 117.153929 244.96475 
L 117.272898 253.16429 
L 117.391867 274.716769 
L 117.510837 265.307119 
L 117.629806 239.081112 
L 117.748775 242.794898 
L 117.867744 242.44021 
L 117.986713 248.01089 
L 118.224652 279.327706 
L 118.46259 258.255098 
L 118.938467 276.865757 
L 119.057436 278.347099 
L 119.414344 264.618608 
L 119.533313 277.61686 
L 119.652282 278.367963 
L 119.771251 272.46346 
L 119.89022 272.964195 
L 120.00919 268.123755 
L 120.247128 248.261257 
L 120.366097 246.195725 
L 120.485066 246.216589 
L 120.723005 275.676511 
L 120.841974 268.791402 
L 120.960943 245.048206 
L 121.079912 245.361166 
L 121.198882 243.566865 
L 121.317851 236.118428 
L 121.555789 272.630372 
L 121.674758 263.784049 
L 121.912697 239.060248 
L 122.031666 238.371737 
L 122.150635 233.573024 
L 122.388574 274.88368 
L 122.507543 268.186347 
L 122.626512 238.267417 
L 122.745481 238.830744 
L 122.86445 233.969439 
L 122.98342 235.116958 
L 123.221358 274.049122 
L 123.340327 264.535152 
L 123.578266 235.492509 
L 123.697235 232.425506 
L 123.816204 232.44637 
L 124.054142 273.193699 
L 124.173112 265.99563 
L 124.292081 240.645909 
L 124.41105 241.856019 
L 124.648988 236.28534 
L 124.767958 247.927434 
L 124.886927 275.30096 
L 125.005896 271.002982 
L 125.124865 247.030283 
L 125.243834 246.675596 
L 125.362804 247.823114 
L 125.481773 242.335891 
L 125.600742 249.680007 
L 125.719711 275.551327 
L 125.83868 267.998571 
L 125.95765 236.431388 
L 126.076619 237.954457 
L 126.195588 237.307674 
L 126.314557 237.370266 
L 126.433526 248.991496 
L 126.552496 275.238368 
L 126.671465 266.538093 
L 126.909403 234.574495 
L 127.147342 240.01999 
L 127.266311 243.504273 
L 127.38528 269.918056 
L 127.504249 264.097009 
L 127.623218 232.049954 
L 127.742187 236.097564 
L 127.861157 230.81898 
L 127.980126 230.672933 
L 128.218064 271.816677 
L 128.337033 262.073204 
L 128.456003 226.374955 
L 128.81291 234.511903 
L 128.931879 245.715853 
L 129.050849 273.98653 
L 129.169818 265.849582 
L 129.407756 229.671462 
L 129.526725 230.380837 
L 129.645695 233.573024 
L 129.764664 243.191313 
L 129.883633 272.56778 
L 130.002602 264.263921 
L 130.240541 224.684974 
L 130.35951 224.789294 
L 130.716417 271.649765 
L 130.835387 265.223663 
L 131.073325 232.34205 
L 131.311263 227.251242 
L 131.549202 271.691493 
L 131.668171 258.630649 
L 131.78714 232.655009 
L 131.906109 231.820451 
L 132.144048 224.643246 
L 132.263017 238.183961 
L 132.381986 269.062633 
L 132.500955 259.152249 
L 132.738894 224.079919 
L 132.857863 224.831022 
L 132.976832 228.106664 
L 133.095801 237.912729 
L 133.214771 268.123755 
L 133.33374 258.31769 
L 133.571678 225.331757 
L 133.690647 227.856297 
L 134.047555 269.897192 
L 134.166524 263.491954 
L 134.404463 229.358503 
L 134.523432 228.753447 
L 134.642401 232.592418 
L 134.76137 243.85896 
L 134.880339 271.002982 
L 134.999309 263.074675 
L 135.118278 225.728172 
L 135.356216 231.23626 
L 135.475185 235.367325 
L 135.713124 271.649765 
L 135.832093 260.883958 
L 135.951062 227.105194 
L 136.070031 230.902436 
L 136.189 222.911536 
L 136.30797 227.146922 
L 136.545908 272.192229 
L 136.664877 263.888369 
L 137.021785 225.373485 
L 137.140754 228.39876 
L 137.378692 270.084968 
L 137.497662 258.985337 
L 137.7356 223.015856 
L 138.092508 250.910981 
L 138.211477 275.780831 
L 138.330446 264.99416 
L 138.568384 225.456941 
L 138.687354 220.199221 
L 138.806323 228.002345 
L 139.044261 275.113184 
L 139.16323 265.307119 
L 139.401169 226.187179 
L 139.639107 229.588006 
L 139.758076 241.021461 
L 139.877046 272.46346 
L 139.996015 270.064104 
L 140.233953 229.462822 
L 140.352922 227.063466 
L 140.471892 230.193061 
L 140.590861 241.501332 
L 140.70983 271.566309 
L 140.828799 263.742322 
L 141.066738 223.55832 
L 141.185707 235.930652 
L 141.304676 236.243612 
L 141.542614 274.967136 
L 141.661584 264.952432 
L 141.780553 236.38966 
L 141.899522 237.850137 
L 142.018491 234.824862 
L 142.13746 235.492509 
L 142.25643 247.864842 
L 142.375399 273.464931 
L 142.494368 266.746733 
L 142.613337 236.786075 
L 142.732306 236.723483 
L 142.851276 227.981481 
L 142.970245 235.534237 
L 143.208183 278.326235 
L 143.327152 273.923938 
L 143.565091 228.71172 
L 143.921998 248.052618 
L 144.040967 275.697375 
L 144.159937 269.062633 
L 144.278906 230.422565 
L 144.516844 239.686167 
L 144.635813 237.036443 
L 144.873752 277.992412 
L 144.992721 268.93745 
L 145.230659 237.036443 
L 145.468598 239.248023 
L 145.706536 276.531934 
L 145.825505 267.10142 
L 145.944475 240.520725 
L 146.063444 243.75464 
L 146.301382 237.620634 
L 146.539321 273.548386 
L 146.65829 268.603626 
L 146.777259 237.912729 
L 146.896228 241.459604 
L 147.015197 239.227159 
L 147.134167 241.605652 
L 147.253136 250.660614 
L 147.372105 274.821088 
L 147.491074 266.830189 
L 147.729013 230.255653 
L 147.966951 240.499861 
L 148.08592 251.828996 
L 148.204889 276.71971 
L 148.323859 267.643884 
L 148.561797 236.994715 
L 148.799735 236.577435 
L 148.918705 247.69793 
L 149.037674 273.068515 
L 149.156643 264.722928 
L 149.394581 236.514844 
L 149.513551 236.723483 
L 149.63252 239.164567 
L 149.751489 247.823114 
L 149.870458 274.445537 
L 149.989427 264.931568 
L 150.227366 230.380837 
L 150.346335 229.629734 
L 150.465304 230.193061 
L 150.703243 272.818148 
L 150.822212 266.663277 
L 151.06015 229.984422 
L 151.179119 233.739936 
L 151.298089 231.590947 
L 151.536027 276.657118 
L 151.654996 265.599215 
L 151.892935 231.590947 
L 152.011904 231.674403 
L 152.130873 234.720542 
L 152.368811 272.692964 
L 152.48778 268.332394 
L 152.725719 234.803998 
L 152.844688 232.884513 
L 152.963657 234.950046 
L 153.201596 272.985059 
L 153.320565 263.241586 
L 153.558503 229.692326 
L 153.677472 224.66411 
L 153.796442 230.067877 
L 153.915411 244.109328 
L 154.03438 274.779361 
L 154.153349 262.991219 
L 154.391288 226.938282 
L 154.510257 236.222748 
L 154.629226 230.318245 
L 154.748195 244.610063 
L 154.867164 273.694434 
L 154.986134 263.36677 
L 155.105103 226.228907 
L 155.224072 224.914477 
L 155.343041 222.285617 
L 155.46201 228.482216 
L 155.699949 271.649765 
L 156.175826 216.235067 
L 156.413764 239.227159 
L 156.532733 267.789931 
L 156.651702 257.253628 
L 156.770672 220.846004 
L 156.889641 221.284147 
L 157.00861 228.523944 
L 157.127579 220.074037 
L 157.365518 273.56925 
L 157.484487 259.819896 
L 157.603456 219.343798 
L 157.722425 223.620911 
L 157.841394 217.319993 
L 157.960364 220.846004 
L 158.198302 267.62302 
L 158.317271 251.369989 
L 158.55521 212.479553 
L 158.674179 217.132217 
L 159.031086 265.78699 
L 159.150056 251.223941 
L 159.269025 220.115765 
L 159.387994 219.322934 
L 159.506963 216.610618 
L 159.744902 240.583317 
L 159.863871 264.201329 
L 159.98284 254.040577 
L 160.101809 224.580654 
L 160.220778 222.723761 
L 160.458717 223.975599 
L 160.696655 268.541034 
L 160.934593 215.963835 
L 161.053563 216.902714 
L 161.291501 225.936812 
L 161.529439 270.481383 
L 161.648409 261.113462 
L 161.767378 241.939475 
L 162.005316 252.0585 
L 162.243255 275.384416 
L 162.362224 277.575132 
L 162.600162 256.669436 
L 162.719131 256.982396 
L 162.838101 259.402616 
L 163.076039 277.700316 
L 163.195008 276.990941 
L 163.313977 266.997101 
L 163.432947 241.751699 
L 163.551916 241.584788 
L 163.789854 232.362914 
L 164.027793 266.30859 
L 164.146762 260.863094 
L 164.265731 226.771371 
L 164.3847 226.87569 
L 164.503669 226.08286 
L 164.622639 222.911536 
L 164.860577 270.836071 
L 164.979546 261.801973 
L 165.217485 221.805746 
L 165.336454 221.263283 
L 165.455423 226.312363 
L 165.693361 270.606567 
L 165.812331 259.715576 
L 166.050269 219.802805 
L 166.169238 219.531574 
L 166.288207 223.078448 
L 166.407177 236.598299 
L 166.526146 270.189288 
L 166.645115 262.803443 
L 166.883053 225.7699 
L 167.002023 226.249771 
L 167.120992 231.069348 
L 167.239961 246.216589 
L 167.35893 276.177246 
L 167.477899 268.874858 
L 167.715838 230.965028 
L 167.834807 236.0767 
L 167.953776 232.488098 
L 168.072745 244.338831 
L 168.191714 271.879269 
L 168.310684 263.283314 
L 168.548622 222.431665 
L 168.90553 235.367325 
L 169.024499 267.915115 
L 169.143468 255.104639 
L 169.262437 221.471923 
L 169.500376 224.038191 
L 169.619345 223.203632 
L 169.857283 267.372652 
L 169.976252 258.651513 
L 170.214191 221.388467 
L 170.452129 223.55832 
L 170.690068 269.646824 
L 170.809037 257.274492 
L 170.928006 219.698485 
L 171.046975 218.905655 
L 171.284914 216.840122 
L 171.522852 264.99416 
L 171.641821 263.283314 
L 171.76079 218.863927 
L 171.87976 220.533044 
L 171.998729 216.923578 
L 172.117698 222.598577 
L 172.236667 235.805469 
L 172.355636 269.813736 
L 172.474606 258.964473 
L 172.593575 222.723761 
L 172.712544 227.272106 
L 172.831513 223.370544 
L 172.950482 233.280929 
L 173.188421 270.982118 
L 173.30739 264.88984 
L 173.545328 222.431665 
L 173.664298 219.969717 
L 173.783267 222.389937 
L 173.902236 234.511903 
L 174.021205 271.941861 
L 174.140174 262.427892 
L 174.378113 217.945912 
L 174.497082 211.478082 
L 174.616051 211.916225 
L 174.85399 265.035888 
L 174.972959 254.979455 
L 175.091928 215.108413 
L 175.210897 220.157493 
L 175.329866 217.695545 
L 175.448836 222.13957 
L 175.567805 233.739936 
L 175.686774 262.928627 
L 175.805743 255.667966 
L 176.043682 213.627071 
L 176.28162 217.966776 
L 176.519558 262.594803 
L 176.638527 250.848389 
L 176.757497 214.503357 
L 176.876466 218.530103 
L 176.995435 214.691133 
L 177.114404 215.588284 
L 177.352343 268.541034 
L 177.471312 262.657395 
L 177.590281 223.391408 
L 177.70925 223.746095 
L 177.947189 231.945635 
L 178.185127 269.396457 
L 178.304096 257.462267 
L 178.542035 209.412549 
L 178.661004 209.287366 
L 178.779973 209.579461 
L 178.898942 226.813098 
L 179.017911 267.226604 
L 179.136881 258.693241 
L 179.25585 217.507769 
L 179.493788 220.428724 
L 179.612757 213.668799 
L 179.731727 230.610341 
L 179.850696 268.040299 
L 179.969665 257.629179 
L 180.088634 213.230655 
L 180.207603 210.3097 
L 180.445542 220.282677 
L 180.564511 235.388189 
L 180.68348 271.628901 
L 180.802449 257.420539 
L 181.040388 215.588284 
L 181.278326 218.905655 
L 181.397295 231.319716 
L 181.516265 265.870446 
L 181.635234 256.711164 
L 181.873172 206.825417 
L 182.111111 221.325875 
L 182.23008 226.896554 
L 182.349049 262.427892 
L 182.468018 254.812543 
L 182.586987 206.846281 
L 182.705957 208.932678 
L 182.824926 213.877438 
L 182.943895 208.515399 
L 183.062864 229.441958 
L 183.181833 272.546916 
L 183.300803 255.250687 
L 183.419772 218.384055 
L 183.538741 218.258872 
L 183.65771 219.740213 
L 183.776679 218.154552 
L 183.895649 235.930652 
L 184.014618 270.314471 
L 184.133587 256.752892 
L 184.371525 214.294718 
L 184.490494 215.129276 
L 184.728433 242.502802 
L 184.847402 271.649765 
L 184.966371 262.740851 
L 185.20431 223.03672 
L 185.323279 228.440488 
L 185.442248 226.041132 
L 185.561217 240.374678 
L 185.680186 271.733221 
L 185.799156 258.776697 
L 186.037094 218.238008 
L 186.156063 223.433136 
L 186.275032 223.328816 
L 186.394002 236.994715 
L 186.512971 271.670629 
L 186.63194 262.866035 
L 186.750909 220.40786 
L 186.869878 222.577713 
L 186.988848 221.576243 
L 187.107817 218.884791 
L 187.345755 270.481383 
L 187.464724 261.280373 
L 187.583694 221.492787 
L 187.821632 215.650876 
L 188.05957 242.335891 
L 188.17854 268.958314 
L 188.297509 260.487543 
L 188.416478 228.315304 
L 188.535447 226.583595 
L 188.654416 227.167786 
L 188.773386 221.221555 
L 189.011324 275.363552 
L 189.130293 265.807854 
L 189.249262 224.705838 
L 189.368232 226.562731 
L 189.487201 225.540396 
L 189.60617 228.669992 
L 189.844108 274.487265 
L 189.963078 266.162542 
L 190.201016 221.680562 
L 190.319985 220.491316 
L 190.438954 226.166315 
L 190.676893 264.389105 
L 190.795862 261.030006 
L 190.914831 224.831022 
L 191.0338 223.34968 
L 191.15277 223.55832 
L 191.271739 220.92946 
L 191.390708 234.532767 
L 191.509677 261.15519 
L 191.628646 250.556294 
L 191.747616 216.485434 
L 191.866585 231.966499 
L 192.104523 221.012915 
L 192.223492 233.176609 
L 192.342461 265.015024 
L 192.699369 216.339387 
L 192.818338 211.206851 
L 192.937307 211.978817 
L 193.056277 227.480745 
L 193.175246 259.256568 
L 193.294215 246.425228 
L 193.413184 213.814847 
L 193.532153 214.607677 
L 193.770092 223.808687 
L 193.889061 234.950046 
L 194.00803 259.569528 
L 194.126999 249.888647 
L 194.364938 213.230655 
L 194.483907 210.226244 
L 194.602876 213.084608 
L 194.840815 263.721458 
L 195.316691 206.512458 
L 195.435661 208.577991 
L 195.673599 262.323572 
L 195.792568 254.144896 
L 196.030507 206.867145 
L 196.149476 211.144259 
L 196.387414 232.070818 
L 196.506383 264.910704 
L 196.625353 254.332672 
L 196.863291 208.557127 
L 196.98226 213.04288 
L 197.101229 207.931208 
L 197.339168 257.191036 
L 197.458137 247.197195 
L 197.696075 203.028175 
L 198.052983 229.483686 
L 198.171952 262.407028 
L 198.290921 247.468427 
L 198.409891 205.761355 
L 198.52886 215.191868 
L 198.647829 206.47073 
L 198.766798 210.706115 
L 199.004737 263.36677 
L 199.242675 214.503357 
L 199.361644 218.112824 
L 199.480613 207.78516 
L 199.599583 214.065214 
L 199.718552 228.064937 
L 199.837521 257.191036 
L 200.075459 205.928267 
L 200.194429 206.700233 
L 200.313398 204.446925 
L 200.432367 197.102808 
L 200.670305 259.340024 
L 201.027213 198.938837 
L 201.146182 199.564756 
L 201.265151 185.418986 
L 201.50309 240.145174 
L 201.622059 177.219447 
L 201.741028 183.269998 
L 201.859997 172.963198 
L 201.978966 129.190593 
L 202.454843 243.796368 
L 202.573812 206.15777 
L 202.93072 212.396097 
L 203.168658 260.863094 
L 203.287628 244.651791 
L 203.406597 200.169812 
L 203.525566 205.552715 
L 203.644535 204.446925 
L 203.763504 209.308229 
L 204.001443 265.327983 
L 204.35835 214.774589 
L 204.47732 212.083137 
L 204.596289 214.35731 
L 204.834227 265.828718 
L 205.072166 217.632953 
L 205.191135 228.586536 
L 205.310104 229.087271 
L 205.429073 239.540119 
L 205.667012 272.275684 
L 205.90495 252.934786 
L 206.023919 250.451974 
L 206.142888 245.465486 
L 206.499796 273.840482 
L 206.618765 269.792872 
L 206.856704 234.803998 
L 206.975673 230.839844 
L 207.094642 230.777252 
L 207.33258 266.079086 
L 207.45155 249.784327 
L 207.570519 216.756666 
L 207.689488 216.297659 
L 207.808457 208.557127 
L 207.927426 210.51834 
L 208.165365 260.529271 
L 208.522272 213.04288 
L 208.760211 221.638834 
L 208.998149 264.57688 
L 209.117118 253.352066 
L 209.236087 222.431665 
L 209.355057 221.534515 
L 209.474026 233.969439 
L 209.592995 234.240671 
L 209.830933 272.651236 
L 209.949903 263.867505 
L 210.187841 224.956205 
L 210.544749 238.350873 
L 210.663718 270.377063 
L 210.782687 256.565117 
L 211.020625 214.46163 
L 211.139595 215.171004 
L 211.258564 206.846281 
L 211.496502 265.912174 
L 211.615471 246.884236 
L 211.734441 208.828358 
L 211.85341 208.765766 
L 211.972379 206.074314 
L 212.091348 207.743432 
L 212.329287 260.758774 
L 212.448256 245.611534 
L 212.686194 210.747843 
L 212.805163 211.332034 
L 212.924133 214.878909 
L 213.162071 265.390575 
L 213.518979 212.479553 
L 213.756917 207.138377 
L 213.994855 260.63359 
L 214.113825 244.672655 
L 214.232794 204.196557 
L 214.470732 199.919444 
L 214.589701 204.280013 
L 214.82764 261.280373 
L 214.946609 246.195725 
L 215.065578 196.810713 
L 215.303517 204.280013 
L 215.422486 203.52891 
L 215.660424 257.316219 
L 215.779393 242.189843 
L 216.017332 194.473948 
L 216.136301 193.868893 
L 216.25527 198.542422 
L 216.493208 253.665025 
L 216.612178 239.331479 
L 216.850116 197.123672 
L 216.969085 192.095456 
L 217.207024 217.361721 
L 217.325993 257.691771 
L 217.444962 248.887176 
L 217.6829 206.449866 
L 217.80187 195.934426 
L 217.920839 203.63323 
L 218.039808 222.974128 
L 218.158777 261.739381 
L 218.634654 192.804831 
L 218.753623 207.513928 
L 218.991562 262.010612 
L 219.110531 246.48782 
L 219.348469 203.63323 
L 219.467438 194.53654 
L 219.586408 197.37404 
L 219.824346 258.401146 
L 219.943315 240.458133 
L 220.062284 199.58562 
L 220.181254 197.311448 
L 220.300223 186.921192 
L 220.65713 262.073204 
L 220.7761 255.876606 
L 221.014038 210.726979 
L 221.133007 196.915033 
L 221.251976 204.572109 
L 221.489915 257.2119 
L 221.608884 246.821644 
L 221.727853 199.627348 
L 221.846822 202.923855 
L 222.084761 188.465126 
L 222.322699 259.068793 
L 222.441668 246.925963 
L 222.560638 193.076062 
L 222.679607 199.919444 
L 222.798576 195.892698 
L 222.917545 197.812183 
L 223.155484 264.013553 
L 223.512391 190.80189 
L 223.63136 193.034335 
L 223.869299 221.680562 
L 223.988268 262.678259 
L 224.107237 258.860153 
L 224.345176 208.181575 
L 224.583114 199.752532 
L 224.821052 264.910704 
L 224.940021 251.182213 
L 225.17796 201.672017 
L 225.415898 197.353176 
L 225.653837 265.515759 
L 225.772806 245.966221 
L 225.891775 198.625878 
L 226.248683 205.657035 
L 226.486621 264.6812 
L 226.60559 247.969162 
L 226.724559 202.902991 
L 226.843529 202.21448 
L 226.962498 208.265031 
L 227.081467 200.128084 
L 227.319405 267.184876 
L 227.438375 252.913922 
L 227.676313 204.342605 
L 227.914251 200.441043 
L 228.15219 265.807854 
L 228.628067 203.612366 
L 228.747036 208.431943 
L 228.984974 264.451696 
L 229.103943 248.991496 
L 229.341882 200.044628 
L 229.460851 206.15777 
L 229.57982 204.655565 
L 229.817759 259.778168 
L 230.293635 198.938837 
L 230.531574 222.076978 
L 230.650543 260.904822 
L 230.769512 252.079364 
L 231.007451 207.639112 
L 231.12642 210.873027 
L 231.245389 206.57505 
L 231.483327 249.784327 
L 231.602297 248.449033 
L 231.721266 211.123395 
L 231.840235 211.707586 
L 231.959204 211.165123 
L 232.078173 215.35878 
L 232.197143 228.586536 
L 232.316112 267.476972 
L 232.435081 256.293885 
L 232.55405 217.153081 
L 232.673019 218.133688 
L 232.791988 207.4722 
L 232.910958 214.920637 
L 233.029927 229.629734 
L 233.148896 264.180465 
L 233.267865 255.313279 
L 233.505804 221.72229 
L 233.624773 215.963835 
L 233.743742 217.361721 
L 233.98168 256.043517 
L 234.10065 254.249216 
L 234.338588 213.877438 
L 234.457557 208.744902 
L 234.576526 214.35731 
L 234.814465 255.37587 
L 234.933434 249.888647 
L 235.052403 214.565949 
L 235.171372 216.485434 
L 235.290342 211.060803 
L 235.409311 213.814847 
L 235.647249 264.055281 
L 235.766218 250.451974 
L 236.004157 210.059332 
L 236.123126 199.502165 
L 236.361064 231.215396 
L 236.480034 263.387634 
L 236.599003 247.238923 
L 236.836941 208.014663 
L 237.07488 200.795731 
L 237.312818 256.022653 
L 237.431787 246.967691 
L 237.669726 198.771926 
L 237.788695 204.94766 
L 237.907664 200.503635 
L 238.145602 255.605374 
L 238.264572 245.27771 
L 238.383541 207.847752 
L 238.621479 204.405197 
L 238.740448 198.354646 
L 238.978387 262.26098 
L 239.097356 259.089657 
L 239.335294 225.227437 
L 239.573233 227.18865 
L 239.692202 232.55069 
L 239.811171 259.590392 
L 239.93014 244.985614 
L 240.168079 200.315859 
L 240.287048 184.250604 
L 240.524986 223.24536 
L 240.643955 259.340024 
L 240.762925 239.623575 
L 241.000863 186.64996 
L 241.238801 196.935897 
L 241.47674 257.587451 
L 241.595709 243.75464 
L 241.714678 196.038746 
L 241.833647 198.208599 
L 241.952617 205.093708 
L 242.071586 194.244445 
L 242.309524 259.256568 
L 242.428493 239.081112 
L 242.547463 195.663195 
L 242.666432 194.390492 
L 242.785401 202.464848 
L 242.90437 198.980565 
L 243.023339 216.548026 
L 243.142309 257.10758 
L 243.380247 193.347294 
L 243.499216 194.703452 
L 243.618185 195.371099 
L 243.737155 186.775144 
L 243.975093 253.080834 
L 244.094062 237.871001 
L 244.332001 193.973213 
L 244.45097 191.469537 
L 244.569939 185.231211 
L 244.807877 250.493702 
L 245.164785 191.80336 
L 245.283754 194.411356 
L 245.521693 227.605929 
L 245.640662 254.666496 
L 245.759631 234.532767 
L 245.8786 188.965861 
L 245.997569 191.782496 
L 246.116539 187.213288 
L 246.235508 187.088104 
L 246.473446 255.208959 
L 246.830354 187.359335 
L 246.949323 190.071651 
L 247.068292 203.132495 
L 247.306231 255.626238 
L 247.4252 243.212177 
L 247.663138 192.700511 
L 247.782107 195.621467 
L 247.901077 201.546833 
L 248.139015 257.733499 
L 248.257984 239.289751 
L 248.376953 202.172752 
L 248.614892 207.4722 
L 248.733861 218.238008 
L 248.971799 265.766126 
L 249.447676 233.969439 
L 249.566645 240.145174 
L 249.923553 270.94039 
L 250.28046 222.264753 
L 250.39943 218.029368 
L 250.637368 258.234234 
L 250.994276 197.749591 
L 251.113245 204.572109 
L 251.232214 200.90005 
L 251.470152 236.410524 
L 251.589122 239.227159 
L 251.708091 202.73608 
L 251.82706 200.962642 
L 252.064998 189.550052 
L 252.183968 211.248578 
L 252.302937 256.627709 
L 252.421906 239.602711 
L 252.540875 192.846559 
L 252.659844 195.454555 
L 252.778814 192.345824 
L 252.897783 196.456025 
L 253.016752 216.652346 
L 253.135721 256.252157 
L 253.492629 193.910621 
L 253.730567 201.838929 
L 253.968506 257.670907 
L 254.087475 242.920082 
L 254.325413 202.151889 
L 254.444382 203.63323 
L 254.563352 209.537733 
L 254.80129 251.724676 
L 254.920259 247.843978 
L 255.039228 216.506298 
L 255.277167 228.106664 
L 255.515105 232.759329 
L 255.634074 264.806384 
L 255.753044 261.259509 
L 255.990982 223.015856 
L 256.109951 215.755196 
L 256.22892 217.236537 
L 256.34789 229.963558 
L 256.466859 257.441403 
L 256.585828 239.227159 
L 256.823766 199.523029 
L 256.942735 208.974406 
L 257.061705 208.223303 
L 257.299643 254.249216 
L 257.418612 236.514844 
L 257.537581 197.728727 
L 257.656551 198.125143 
L 257.77552 192.992607 
L 257.894489 196.456025 
L 258.132427 254.708223 
L 258.251397 244.234512 
L 258.489335 195.788378 
L 258.608304 190.760162 
L 258.727273 193.409886 
L 258.846243 213.022016 
L 258.965212 252.371459 
L 259.084181 235.909788 
L 259.322119 189.904739 
L 259.441089 193.681118 
L 259.560058 188.569445 
L 259.797996 239.498391 
L 259.916965 239.373207 
L 260.154904 186.441321 
L 260.392842 196.622937 
L 260.630781 253.101698 
L 260.74975 245.444622 
L 260.987688 195.412827 
L 261.463565 241.897747 
L 261.582534 225.66558 
L 261.701503 179.326708 
L 261.939442 189.028453 
L 262.058411 193.242974 
L 262.296349 253.748481 
L 262.415319 236.139292 
L 262.653257 184.167148 
L 262.772226 182.894446 
L 262.891195 189.195364 
L 263.129134 249.680007 
L 263.248103 238.309145 
L 263.367072 180.808049 
L 263.605011 192.012 
L 263.72398 188.465126 
L 263.842949 210.476612 
L 263.961918 253.101698 
L 264.080887 251.265669 
L 264.318826 215.442236 
L 264.437795 193.43075 
L 264.556764 198.083415 
L 264.675733 215.275324 
L 264.794702 252.121091 
L 264.913672 239.581847 
L 265.15161 195.141595 
L 265.270579 184.104556 
L 265.627487 240.541589 
L 265.746456 235.826333 
L 265.865425 184.083692 
L 265.984394 184.876523 
L 266.222333 192.012 
L 266.460271 257.044988 
L 266.936148 187.588839 
L 267.055117 197.123672 
L 267.293056 249.784327 
L 267.412025 238.288281 
L 267.649963 191.031394 
L 267.768932 189.049317 
L 267.887902 195.85097 
L 268.12584 255.855742 
L 268.363778 191.302625 
L 268.482748 191.80336 
L 268.601717 196.226522 
L 268.720686 193.868893 
L 268.958624 259.986807 
L 269.077594 244.0676 
L 269.315532 191.719905 
L 269.434501 189.195364 
L 269.55347 198.959701 
L 269.791409 262.240116 
L 269.910378 256.878076 
L 270.148316 198.813654 
L 270.267286 197.47836 
L 270.386255 200.128084 
L 270.624193 257.357947 
L 270.743162 241.146644 
L 270.981101 193.660254 
L 271.10007 194.202717 
L 271.219039 201.42165 
L 271.456978 251.390853 
L 271.575947 210.747843 
L 271.694916 127.959619 
L 271.932854 218.634423 
L 272.051824 207.263561 
L 272.289762 260.153719 
L 272.408731 246.028813 
L 272.64667 205.385804 
L 272.765639 207.138377 
L 273.003577 224.35115 
L 273.122546 255.605374 
L 273.241515 245.611534 
L 273.479454 201.254738 
L 273.717392 206.136906 
L 273.955331 253.26861 
L 274.0743 245.340302 
L 274.193269 199.523029 
L 274.312238 202.381392 
L 274.431207 198.438102 
L 274.550177 203.862734 
L 274.788115 258.067322 
L 274.907084 246.049677 
L 275.145023 197.686999 
L 275.263992 202.42312 
L 275.382961 212.959424 
L 275.620899 258.401146 
L 275.739869 250.201606 
L 275.977807 205.761355 
L 276.096776 204.864204 
L 276.215745 207.013193 
L 276.453684 254.332672 
L 276.572653 250.22247 
L 276.691622 211.770178 
L 276.810591 210.893891 
L 276.929561 211.185987 
L 277.04853 214.14867 
L 277.286468 251.307397 
L 277.405437 244.714383 
L 277.524407 211.332034 
L 277.643376 210.3097 
L 277.762345 206.700233 
L 277.881314 214.545085 
L 278.119253 257.524859 
L 278.238222 242.607122 
L 278.357191 205.823947 
L 278.47616 204.759884 
L 278.595129 196.956761 
L 278.833068 221.784882 
L 278.952037 255.876606 
L 279.427914 189.716964 
L 279.546883 195.079003 
L 279.784821 250.472838 
L 279.903791 240.666773 
L 280.141729 191.135713 
L 280.260698 199.418709 
L 280.379667 190.530658 
L 280.617606 250.32679 
L 280.736575 238.872472 
L 280.855544 196.26825 
L 280.974513 197.019352 
L 281.093482 193.994077 
L 281.212452 196.894169 
L 281.45039 257.295355 
L 281.569359 250.827525 
L 281.807298 200.628819 
L 281.926267 190.947938 
L 282.164205 209.975876 
L 282.402144 247.927434 
L 282.521113 217.007034 
L 282.640082 218.634423 
L 282.759051 208.744902 
L 282.87802 213.83571 
L 283.115959 250.159878 
L 283.234928 237.432858 
L 283.472866 187.630567 
L 283.591836 187.275879 
L 283.710805 195.663195 
L 283.948743 249.492232 
L 284.305651 189.883875 
L 284.42462 193.493342 
L 284.543589 189.80042 
L 284.781528 246.571276 
L 285.138435 180.056947 
L 285.376374 192.366688 
L 285.495343 207.88948 
L 285.614312 240.499861 
L 285.733281 232.23773 
L 285.85225 182.164207 
L 285.97122 190.614114 
L 286.090189 187.505383 
L 286.328127 213.814847 
L 286.447096 239.331479 
L 286.566066 221.388467 
L 286.685035 176.843896 
L 286.922973 184.751339 
L 287.041942 186.733416 
L 287.279881 245.694989 
L 287.39885 224.935341 
L 287.636788 181.788656 
L 287.755758 188.360806 
L 287.874727 178.325237 
L 288.112665 244.317967 
L 288.231634 227.647657 
L 288.350604 181.329649 
L 288.469573 182.852718 
L 288.707511 192.471007 
L 288.945449 243.942416 
L 289.302357 181.016689 
L 289.421326 185.022571 
L 289.540295 185.189483 
L 289.778234 248.595081 
L 290.016172 178.763381 
L 290.135141 183.603821 
L 290.37308 172.358142 
L 290.611018 243.733776 
L 290.848957 188.944997 
L 290.967926 191.365217 
L 291.086895 182.748398 
L 291.324833 203.987918 
L 291.443803 248.156938 
L 291.681741 188.06871 
L 291.80071 188.110438 
L 292.038649 198.625878 
L 292.276587 251.036165 
L 292.514525 232.696737 
L 292.633495 235.868061 
L 292.871433 223.975599 
L 293.228341 256.6903 
L 293.34731 260.63359 
L 293.704217 206.992329 
L 293.823187 209.850693 
L 293.942156 228.878631 
L 294.061125 227.18865 
L 294.299063 176.34316 
L 294.418033 172.337278 
L 294.537002 178.095734 
L 294.77494 237.078171 
L 295.131848 177.615862 
L 295.250817 179.514483 
L 295.369786 171.711359 
L 295.607725 237.787546 
L 295.964632 172.379006 
L 296.083601 175.23737 
L 296.202571 184.041964 
L 296.440509 245.778445 
L 296.559478 229.275047 
L 296.678447 193.472478 
L 296.797417 193.32643 
L 296.916386 197.019352 
L 297.035355 206.908873 
L 297.273293 259.214841 
L 297.392262 253.414657 
L 297.630201 214.691133 
L 297.74917 215.4631 
L 297.868139 208.223303 
L 297.987108 225.331757 
L 298.106078 260.550134 
L 298.225047 245.924493 
L 298.462985 198.396374 
L 298.581954 200.503635 
L 298.700924 186.420457 
L 298.819893 201.755473 
L 298.938862 247.489291 
L 299.057831 224.413742 
L 299.1768 178.992884 
L 299.29577 179.451891 
L 299.533708 170.522113 
L 299.771646 235.409053 
L 299.890616 222.515121 
L 300.009585 168.435716 
L 300.128554 168.790404 
L 300.247523 166.078088 
L 300.366492 174.632315 
L 300.604431 239.748759 
L 300.7234 219.468982 
L 300.961338 166.516231 
L 301.080308 167.225606 
L 301.199277 172.253823 
L 301.437215 234.65795 
L 301.556184 224.225966 
L 301.794123 166.203272 
L 301.913092 161.967886 
L 302.032061 173.672572 
L 302.27 228.106664 
L 302.388969 221.93093 
L 302.626907 154.289946 
L 302.983815 195.558875 
L 303.102784 232.529826 
L 303.221753 222.598577 
L 303.459692 166.098952 
L 303.578661 166.245 
L 303.69763 157.586453 
L 303.935568 233.385248 
L 304.054538 211.978817 
L 304.292476 158.274964 
L 304.411445 159.860626 
L 304.768353 244.422287 
L 304.887322 216.381115 
L 305.006291 159.714578 
L 305.12526 160.528273 
L 305.244229 155.583512 
L 305.363199 159.046931 
L 305.601137 224.726702 
L 305.720106 213.606207 
L 305.958045 148.322851 
L 306.314952 211.72845 
L 306.433921 233.009697 
L 306.552891 219.343798 
L 306.790829 172.671102 
L 306.909798 171.08544 
L 307.028767 172.379006 
L 307.147737 191.90768 
L 307.266706 230.902436 
L 307.385675 216.652346 
L 307.504644 174.674043 
L 307.623613 187.609703 
L 307.742583 215.024957 
L 307.861552 196.226522 
L 307.980521 209.537733 
L 308.09949 236.201884 
L 308.218459 216.860986 
L 308.456398 168.060165 
L 308.575367 171.919999 
L 308.694336 170.876801 
L 308.932275 233.844256 
L 309.051244 217.945912 
L 309.289182 162.635533 
L 309.527121 167.475974 
L 309.64609 189.48746 
L 309.765059 235.033502 
L 309.884028 223.057584 
L 310.121967 166.537095 
L 310.240936 165.619081 
L 310.359905 166.098952 
L 310.597843 237.70409 
L 310.716813 226.729643 
L 310.954751 172.858878 
L 311.192689 187.255015 
L 311.430628 238.684696 
L 311.549597 226.813098 
L 311.668566 176.823032 
L 311.787535 179.577075 
L 311.906505 175.884153 
L 312.263412 243.462545 
L 312.382381 233.072289 
L 312.62032 176.906487 
L 312.739289 182.435439 
L 312.858258 176.489208 
L 313.096196 242.064659 
L 313.453104 178.07487 
L 313.572073 180.056947 
L 313.691042 185.773674 
L 313.810012 202.047569 
L 313.928981 235.346461 
L 314.04795 223.454 
L 314.285888 175.049594 
L 314.404858 177.949686 
L 314.523827 184.313196 
L 314.761765 234.887454 
L 314.880734 224.997933 
L 315.118673 178.471285 
L 315.237642 180.369906 
L 315.47558 206.741961 
L 315.59455 241.417876 
L 315.713519 222.076978 
L 315.832488 170.751617 
L 315.951457 177.073399 
L 316.070426 175.654649 
L 316.189396 183.374317 
L 316.427334 228.962087 
L 316.546303 217.716409 
L 316.784242 172.274687 
L 316.903211 171.460992 
L 317.02218 177.407223 
L 317.141149 194.64086 
L 317.260118 229.650598 
L 317.379088 217.904184 
L 317.617026 166.182408 
L 317.735995 167.955845 
L 317.854964 174.527995 
L 318.092903 233.593888 
L 318.211872 225.164845 
L 318.330841 180.119538 
L 318.44981 177.240311 
L 318.56878 179.013748 
L 318.687749 188.944997 
L 318.925687 243.796368 
L 319.044656 228.148392 
L 319.163626 190.342883 
L 319.282595 188.924133 
L 319.401564 189.779556 
L 319.520533 185.460714 
L 319.758472 242.398482 
L 319.877441 235.534237 
L 320.115379 193.305566 
L 320.353318 206.032587 
L 320.472287 216.443706 
L 320.591256 245.736717 
L 320.710225 230.610341 
L 320.948164 184.772203 
L 321.067133 179.472755 
L 321.186102 185.210347 
L 321.42404 254.958591 
L 321.543009 211.916225 
L 321.661979 240.666773 
L 321.780948 228.6074 
L 322.018886 174.381947 
L 322.137855 171.60704 
L 322.375794 201.651153 
L 322.494763 237.28681 
L 322.97064 174.820091 
L 323.327547 244.526607 
L 323.803424 159.526802 
L 323.922393 165.702537 
L 324.160332 229.50455 
L 324.279301 213.022016 
L 324.517239 169.374595 
L 324.755178 172.253823 
L 324.993116 231.173668 
L 325.112085 223.892143 
L 325.231055 205.302348 
L 325.350024 206.512458 
L 325.468993 202.402256 
L 325.587962 204.530381 
L 325.706931 209.391685 
L 325.825901 240.207766 
L 325.94487 229.462822 
L 326.182808 169.478915 
L 326.301777 170.542977 
L 326.420747 173.004925 
L 326.539716 192.11632 
L 326.658685 233.44784 
L 326.777654 219.573302 
L 326.896623 163.991691 
L 327.015593 161.425423 
L 327.134562 169.374595 
L 327.253531 167.997573 
L 327.491469 220.449588 
L 327.610439 207.806024 
L 327.848377 166.975239 
L 327.967346 159.798034 
L 328.086315 164.283787 
L 328.324254 226.270635 
L 328.443223 217.132217 
L 328.562192 163.657868 
L 328.681161 160.695184 
L 328.800131 168.97818 
L 328.9191 167.830661 
L 329.157038 231.507491 
L 329.513946 158.191508 
L 329.632915 158.880019 
L 329.751884 156.731031 
L 329.989822 217.173945 
L 330.108792 209.349957 
L 330.34673 156.522391 
L 330.465699 157.210902 
L 330.584668 159.339027 
L 330.822607 226.938282 
L 331.060545 160.152721 
L 331.179514 165.160074 
L 331.417453 160.403089 
L 331.655391 229.295911 
L 331.77436 210.685251 
L 332.012299 154.227354 
L 332.250237 168.435716 
L 332.488176 230.047013 
L 332.607145 204.446925 
L 332.726114 148.468899 
L 332.845083 151.911454 
L 332.964052 150.325792 
L 333.083022 159.798034 
L 333.32096 226.374955 
L 333.677868 147.029285 
L 333.796837 137.598772 
L 334.034775 193.263838 
L 334.153744 227.418154 
L 334.272714 207.743432 
L 334.391683 162.552078 
L 334.510652 162.656397 
L 334.629621 174.048124 
L 334.74859 169.353731 
L 334.986529 226.541867 
L 335.224467 191.865952 
L 335.462406 205.719627 
L 335.581375 196.393433 
L 335.819313 222.765489 
L 336.057252 199.210069 
L 336.176221 236.744347 
L 336.414159 190.426339 
L 336.652098 217.236537 
L 336.771067 205.886539 
L 337.009005 144.755113 
L 337.246943 158.191508 
L 337.484882 224.789294 
L 337.603851 206.178634 
L 337.841789 161.488015 
L 337.960759 161.404559 
L 338.079728 168.227077 
L 338.317666 228.315304 
L 338.436635 221.263283 
L 338.555605 188.736357 
L 338.793543 205.698763 
L 338.912512 213.022016 
L 339.150451 262.198388 
L 339.26942 247.614474 
L 339.388389 201.922385 
L 339.507358 199.58562 
L 339.626327 193.868893 
L 339.745297 182.289391 
L 339.983235 227.334698 
L 340.102204 219.135158 
L 340.221173 170.313474 
L 340.340143 172.650238 
L 340.459112 166.391048 
L 340.578081 168.686084 
L 340.69705 183.687277 
L 340.816019 220.553908 
L 340.934989 207.242697 
L 341.053958 162.447758 
L 341.291896 156.418071 
L 341.529835 216.965306 
L 341.648804 128.022211 
L 341.767773 132.27846 
L 342.005711 202.047569 
L 342.124681 195.517147 
L 342.362619 125.435079 
L 342.600557 141.458606 
L 342.838496 194.870364 
L 342.957465 190.113379 
L 343.195403 144.254378 
L 343.314373 142.773036 
L 343.433342 151.327263 
L 343.67128 196.205658 
L 343.790249 183.165678 
L 344.028188 135.867063 
L 344.147157 129.211457 
L 344.266126 132.779195 
L 344.504065 191.615585 
L 344.623034 175.946745 
L 344.742003 133.029563 
L 344.860972 134.531769 
L 344.979941 126.895557 
L 345.098911 136.451254 
L 345.336849 194.703452 
L 345.455818 185.794538 
L 345.693756 128.981953 
L 345.812726 126.791237 
L 345.931695 136.32607 
L 346.169633 183.666413 
L 346.288602 173.192701 
L 346.526541 122.514123 
L 346.64551 123.098314 
L 346.883448 144.671657 
L 347.002418 176.65612 
L 347.359325 107.909346 
L 347.597264 107.471202 
L 347.835202 176.009337 
L 348.07314 104.925798 
L 348.19211 105.948133 
L 348.311079 110.287838 
L 348.430048 129.733056 
L 348.667986 183.687277 
L 348.786956 169.291139 
L 349.024894 119.155024 
L 349.143863 103.465321 
L 349.262832 106.7201 
L 349.381802 123.473866 
L 349.500771 170.501249 
L 349.61974 164.137739 
L 349.857678 108.556129 
L 349.976648 107.742434 
L 350.095617 99.000432 
L 350.333555 178.179189 
L 350.452524 163.699596 
L 350.571494 106.490596 
L 350.690463 106.699236 
L 350.928401 132.153276 
L 351.04737 144.233514 
L 351.16634 186.942056 
L 351.523247 125.247303 
L 351.761186 130.192063 
L 351.999124 191.928544 
L 352.118093 175.091322 
L 352.356032 126.081862 
L 352.475001 121.888204 
L 352.59397 127.834435 
L 352.831908 196.330841 
L 352.950878 174.089852 
L 353.069847 118.675153 
L 353.188816 126.791237 
L 353.307785 120.65723 
L 353.426754 128.376898 
L 353.664693 187.880935 
L 353.783662 182.164207 
L 353.902631 134.093625 
L 354.0216 132.779195 
L 354.259539 134.469177 
L 354.497477 200.086356 
L 354.616446 178.992884 
L 354.735415 137.014581 
L 354.854385 144.483881 
L 354.973354 160.966416 
L 355.092323 160.152721 
L 355.330261 193.701982 
L 355.449231 178.492149 
L 355.687169 135.366327 
L 355.925107 142.814764 
L 356.163046 208.78663 
L 356.282015 185.898858 
L 356.400984 135.345463 
L 356.519953 138.016051 
L 356.757892 134.803 
L 356.99583 201.254738 
L 357.114799 186.274409 
L 357.352738 140.832687 
L 357.471707 136.367798 
L 357.590676 141.646382 
L 357.828615 199.669076 
L 357.947584 187.567975 
L 358.185522 139.080114 
L 358.304491 143.315499 
L 358.423461 138.537651 
L 358.661399 207.409608 
L 358.780368 190.90621 
L 359.018307 141.249966 
L 359.137276 149.57469 
L 359.256245 147.383973 
L 359.494183 211.352898 
L 359.851091 152.433053 
L 360.089029 154.540314 
L 360.326968 216.422843 
L 360.683875 154.790682 
L 360.802845 154.832409 
L 360.921814 149.908513 
L 361.159752 214.399038 
L 361.278721 197.561816 
L 361.39769 159.485074 
L 361.51666 159.98581 
L 361.635629 155.604376 
L 361.754598 159.151251 
L 361.992536 214.04435 
L 362.111506 195.308507 
L 362.230475 157.544725 
L 362.349444 169.645827 
L 362.468413 158.838291 
L 362.587382 163.011085 
L 362.825321 214.670269 
L 362.94429 201.630289 
L 363.063259 161.362831 
L 363.182228 168.227077 
L 363.301198 151.869726 
L 363.420167 158.733971 
L 363.658105 219.698485 
L 364.015013 151.99491 
L 364.133982 159.964946 
L 364.252951 158.233236 
L 364.49089 211.436354 
L 364.609859 196.038746 
L 364.728828 150.158881 
L 364.847797 147.989028 
L 364.966766 149.929377 
L 365.085736 153.872667 
L 365.323674 227.439018 
L 365.561612 150.597024 
L 365.680582 155.562648 
L 365.91852 141.771566 
L 366.156458 202.819535 
L 366.275428 186.712552 
L 366.394397 150.868256 
L 366.513366 158.984339 
L 366.751304 196.956761 
L 366.870274 200.315859 
L 366.989243 227.063466 
L 367.108212 209.621189 
L 367.227181 159.923218 
L 367.34615 157.482133 
L 367.46512 149.449506 
L 367.584089 149.57469 
L 367.822027 199.210069 
L 367.940996 181.621744 
L 368.059966 134.761272 
L 368.178935 138.057779 
L 368.416873 130.046016 
L 368.654812 204.613837 
L 369.011719 125.080391 
L 369.249658 133.196475 
L 369.487596 193.868893 
L 369.606565 174.674043 
L 369.844503 133.48857 
L 370.082442 131.965501 
L 370.32038 205.469259 
L 370.558319 137.786548 
L 370.677288 135.053368 
L 370.796257 126.081862 
L 370.915226 128.084803 
L 371.153165 210.20538 
L 371.391103 132.320188 
L 371.510072 135.908791 
L 371.629041 133.780666 
L 371.748011 138.329011 
L 371.985949 204.321741 
L 372.223887 125.852358 
L 372.342857 132.946107 
L 372.461826 117.652819 
L 372.580795 132.779195 
L 372.818733 197.666135 
L 373.175641 132.528828 
L 373.29461 139.393073 
L 373.413579 133.968442 
L 373.651518 199.523029 
L 373.889456 122.827083 
L 374.008425 124.475336 
L 374.127395 132.028093 
L 374.246364 126.290501 
L 374.484302 194.348765 
L 374.603271 172.525054 
L 374.84121 122.368076 
L 374.960179 123.160906 
L 375.079148 136.701621 
L 375.317087 201.672017 
L 375.555025 137.870004 
L 375.673994 144.129194 
L 375.792963 137.369268 
L 375.911933 140.123312 
L 376.149871 203.299407 
L 376.387809 149.950241 
L 376.506779 154.081307 
L 376.625748 163.490956 
L 376.863686 221.972658 
L 376.982655 214.419902 
L 377.220594 167.830661 
L 377.339563 169.77101 
L 377.458532 178.07487 
L 377.577501 238.413465 
L 377.81544 217.591225 
L 378.172347 149.428642 
L 378.291316 148.698403 
L 378.410286 140.352816 
L 378.648224 196.539481 
L 378.886162 128.251714 
L 379.005132 134.01017 
L 379.124101 120.782414 
L 379.24307 129.96256 
L 379.481008 185.210347 
L 379.718947 125.831494 
L 379.956885 130.358975 
L 380.075854 118.44565 
L 380.313793 188.089574 
L 380.432762 167.747206 
L 380.551731 123.369546 
L 380.6707 127.750979 
L 380.78967 126.01927 
L 380.908639 119.467984 
L 381.146577 190.968802 
L 381.503485 125.247303 
L 381.622454 135.762743 
L 381.741423 134.823864 
L 381.860392 149.407778 
L 381.979362 192.679647 
L 382.098331 178.283509 
L 382.2173 143.962282 
L 382.455238 183.311726 
L 382.812146 227.731113 
L 382.931115 207.68084 
L 383.169054 149.699873 
L 383.288023 146.716326 
L 383.406992 138.057779 
L 383.525961 152.579101 
L 383.64493 251.390853 
L 383.7639 232.592418 
L 384.001838 113.876441 
L 384.120807 109.766239 
L 384.239776 121.178829 
L 384.477715 189.299684 
L 384.596684 165.723401 
L 384.834622 108.117985 
L 384.953592 109.369824 
L 385.19153 153.538843 
L 385.310499 185.64849 
L 385.667407 102.109163 
L 385.786376 97.498226 
L 385.905345 102.484714 
L 386.143283 182.727534 
L 386.262253 156.188567 
L 386.381222 87.00365 
L 386.500191 90.675708 
L 386.61916 77.886096 
L 386.976068 175.633785 
L 387.332975 90.154109 
L 387.451945 90.112381 
L 387.689883 140.498864 
L 387.808852 191.657313 
L 388.046791 108.994272 
L 388.16576 111.038941 
L 388.284729 108.848224 
L 388.403698 126.707781 
L 388.641637 204.801612 
L 388.760606 193.409886 
L 388.998544 93.805304 
L 389.236483 88.484992 
L 389.474421 182.331119 
L 389.712359 86.085635 
L 389.831329 88.401536 
L 390.069267 100.293998 
L 390.307205 171.231488 
L 390.426175 152.370461 
L 390.545144 99.209071 
L 390.664113 98.457968 
L 390.783082 107.51293 
L 390.902051 104.007784 
L 391.13999 172.441598 
L 391.496897 92.782969 
L 391.734836 118.612561 
L 391.972774 219.656758 
L 392.091743 202.068433 
L 392.329682 148.176804 
L 392.56762 107.241699 
L 392.686589 121.304013 
L 392.805559 184.563564 
L 392.924528 154.31081 
L 393.043497 91.760635 
L 393.162466 96.10034 
L 393.281435 94.765046 
L 393.519374 147.133605 
L 393.638343 195.266779 
L 393.876281 106.323684 
L 393.99525 110.100062 
L 394.11422 109.453279 
L 394.233189 112.415963 
L 394.471127 192.679647 
L 394.828035 116.547028 
L 394.947004 117.840594 
L 395.065973 123.932873 
L 395.303912 200.357587 
L 395.660819 124.141513 
L 395.898758 132.403644 
L 396.136696 199.773396 
L 396.612573 120.302543 
L 396.731542 121.387469 
L 396.96948 226.145452 
L 397.08845 201.31733 
L 397.326388 126.060998 
L 397.564326 135.408055 
L 397.802265 202.047569 
L 397.921234 176.572664 
L 398.040203 125.393351 
L 398.278142 134.531769 
L 398.397111 123.223498 
L 398.635049 209.767237 
L 398.991957 132.132412 
L 399.110926 134.364857 
L 399.229895 127.500612 
L 399.467834 197.37404 
L 399.586803 181.016689 
L 399.824741 123.724233 
L 400.06268 132.17414 
L 400.300618 199.376981 
L 400.419587 180.411634 
L 400.538556 127.897027 
L 400.657526 124.955208 
L 400.776495 127.375428 
L 400.895464 117.819731 
L 401.133402 195.245915 
L 401.252372 173.255293 
L 401.371341 129.482689 
L 401.49031 131.089214 
L 401.609279 136.096566 
L 401.728248 135.554103 
L 401.966187 194.43222 
L 402.085156 178.200053 
L 402.204125 131.256126 
L 402.323094 131.882045 
L 402.442063 134.865592 
L 402.561033 125.768902 
L 402.798971 202.590032 
L 402.91794 189.967331 
L 403.155879 131.005758 
L 403.274848 132.4871 
L 403.393817 139.226162 
L 403.631755 200.148948 
L 403.750725 185.460714 
L 403.869694 135.574967 
L 403.988663 140.102448 
L 404.226601 127.855299 
L 404.46454 204.864204 
L 404.583509 178.846836 
L 404.702478 127.750979 
L 404.821447 127.792707 
L 404.940417 130.442431 
L 405.059386 136.826805 
L 405.297324 199.293525 
L 405.535263 134.90732 
L 405.654232 135.22028 
L 405.773201 128.460354 
L 405.89217 138.85061 
L 406.130109 198.855382 
L 406.605985 122.305484 
L 406.724955 135.825335 
L 406.962893 205.198028 
L 407.319801 126.707781 
L 407.43877 122.993995 
L 407.557739 126.186182 
L 407.795677 200.315859 
L 408.152585 121.241421 
L 408.271554 122.117708 
L 408.390523 125.831494 
L 408.509493 151.410719 
L 408.747431 209.496005 
L 409.104339 126.290501 
L 409.223308 122.159436 
L 409.461246 177.97055 
L 409.580215 159.77717 
L 409.699185 111.3519 
L 409.818154 116.588756 
L 409.937123 130.046016 
L 410.29403 217.257401 
L 410.413 204.676429 
L 410.650938 141.708974 
L 410.888876 131.715133 
L 411.007846 135.950519 
L 411.126815 186.545641 
L 411.245784 169.541507 
L 411.364753 124.642248 
L 411.483722 124.454472 
L 411.602692 107.283427 
L 411.721661 110.35043 
L 411.959599 188.235622 
L 412.078568 167.100423 
L 412.316507 98.311921 
L 412.435476 108.076258 
L 412.554445 107.638114 
L 412.792384 192.700511 
L 413.26826 89.966333 
L 413.38723 99.688942 
L 413.625168 187.296743 
L 413.744137 164.847114 
L 413.982076 112.123867 
L 414.101045 98.562288 
L 414.220014 109.24464 
L 414.457952 181.517424 
L 414.695891 78.178192 
L 414.81486 91.718907 
L 414.933829 89.52819 
L 415.052798 103.465321 
L 415.290737 174.799227 
L 415.647644 85.417988 
L 415.766614 83.853191 
L 415.885583 93.054201 
L 416.123521 170.751617 
L 416.24249 144.10833 
L 416.36146 86.043908 
L 416.480429 84.833797 
L 416.718367 106.135909 
L 416.956306 182.080751 
L 417.075275 142.272301 
L 417.194244 57.522863 
L 417.432182 98.708336 
L 417.551152 85.68922 
L 417.78909 180.870641 
L 418.145997 89.152639 
L 418.264967 95.244917 
L 418.383936 85.918724 
L 418.621874 188.444262 
L 418.859813 89.778558 
L 418.978782 98.353649 
L 419.21672 116.588756 
L 419.454659 195.371099 
L 419.692597 123.745097 
L 419.930535 134.364857 
L 420.049505 151.348127 
L 420.168474 206.408138 
L 420.287443 209.016134 
L 420.525381 144.400426 
L 420.644351 141.542062 
L 420.882289 168.894724 
L 421.001258 231.945635 
L 421.120227 220.92946 
L 421.477135 115.754198 
L 421.596104 122.472395 
L 421.715073 103.277545 
L 422.071981 112.040411 
L 422.19095 94.201719 
L 422.309919 102.150891 
L 422.428889 99.563759 
L 422.547858 100.753005 
L 422.785796 161.926159 
L 423.023735 47.257791 
L 423.261673 102.735082 
L 423.380642 88.484992 
L 423.618581 172.587646 
L 423.975488 78.637199 
L 424.094457 126.520005 
L 424.213427 38.578381 
L 424.451365 200.503635 
L 424.570334 216.506298 
L 424.808273 178.596469 
L 425.046211 167.580294 
L 425.284149 206.888009 
L 425.403119 184.480108 
L 425.641057 121.470925 
L 425.760026 125.601991 
L 425.878995 119.676624 
L 426.116934 179.597939 
L 426.235903 162.885901 
L 426.473841 117.485907 
L 426.71178 101.232876 
L 426.949718 168.66522 
L 427.425595 73.880214 
L 427.544564 91.802363 
L 427.782502 172.92147 
L 428.13941 82.663945 
L 428.377348 71.54345 
L 428.615287 160.319633 
L 428.853225 67.349792 
L 428.972194 80.264588 
L 429.091164 61.653929 
L 429.210133 66.869921 
L 429.448071 147.071013 
L 429.56704 135.512375 
L 429.804979 55.081779 
L 429.923948 45.818178 
L 430.042917 55.56165 
L 430.280856 140.749231 
L 430.756732 38.703564 
L 430.875702 52.849335 
L 431.11364 138.95493 
L 431.232609 110.35043 
L 431.351578 50.596026 
L 431.470548 50.220475 
L 431.589517 61.007146 
L 431.708486 44.065604 
L 431.946424 135.929655 
L 432.065394 128.564674 
L 432.303332 56.417073 
L 432.422301 136.764213 
L 432.422301 136.764213 
" style="fill:none;stroke:#1f77b4;stroke-linecap:square;stroke-width:1.5;"/>
   </g>
   <g id="patch_3">
    <path d="M 63.290625 304.44375 
L 63.290625 25.918125 
" style="fill:none;stroke:#000000;stroke-linecap:square;stroke-linejoin:miter;stroke-width:0.8;"/>
   </g>
   <g id="patch_4">
    <path d="M 450 304.44375 
L 450 25.918125 
" style="fill:none;stroke:#000000;stroke-linecap:square;stroke-linejoin:miter;stroke-width:0.8;"/>
   </g>
   <g id="patch_5">
    <path d="M 63.290625 304.44375 
L 450 304.44375 
" style="fill:none;stroke:#000000;stroke-linecap:square;stroke-linejoin:miter;stroke-width:0.8;"/>
   </g>
   <g id="patch_6">
    <path d="M 63.290625 25.918125 
L 450 25.918125 
" style="fill:none;stroke:#000000;stroke-linecap:square;stroke-linejoin:miter;stroke-width:0.8;"/>
   </g>
   <g id="text_18">
    <!-- Total Starts by Day (12,130,660) -->
    <defs>
     <path d="M 0.484375 72.90625 
L 67.671875 72.90625 
L 67.671875 58.6875 
L 43.5 58.6875 
L 43.5 0 
L 24.703125 0 
L 24.703125 58.6875 
L 0.484375 58.6875 
z
" id="DejaVuSans-Bold-84"/>
     <path d="M 34.421875 43.5 
Q 28.609375 43.5 25.5625 39.328125 
Q 22.515625 35.15625 22.515625 27.296875 
Q 22.515625 19.4375 25.5625 15.25 
Q 28.609375 11.078125 34.421875 11.078125 
Q 40.140625 11.078125 43.15625 15.25 
Q 46.1875 19.4375 46.1875 27.296875 
Q 46.1875 35.15625 43.15625 39.328125 
Q 40.140625 43.5 34.421875 43.5 
z
M 34.421875 56 
Q 48.53125 56 56.46875 48.375 
Q 64.40625 40.765625 64.40625 27.296875 
Q 64.40625 13.8125 56.46875 6.1875 
Q 48.53125 -1.421875 34.421875 -1.421875 
Q 20.265625 -1.421875 12.28125 6.1875 
Q 4.296875 13.8125 4.296875 27.296875 
Q 4.296875 40.765625 12.28125 48.375 
Q 20.265625 56 34.421875 56 
z
" id="DejaVuSans-Bold-111"/>
     <path d="M 8.40625 75.984375 
L 25.875 75.984375 
L 25.875 0 
L 8.40625 0 
z
" id="DejaVuSans-Bold-108"/>
     <path d="M 37.5 11.28125 
Q 43.109375 11.28125 46.0625 15.375 
Q 49.03125 19.484375 49.03125 27.296875 
Q 49.03125 35.109375 46.0625 39.203125 
Q 43.109375 43.3125 37.5 43.3125 
Q 31.890625 43.3125 28.875 39.1875 
Q 25.875 35.0625 25.875 27.296875 
Q 25.875 19.53125 28.875 15.40625 
Q 31.890625 11.28125 37.5 11.28125 
z
M 25.875 46.6875 
Q 29.5 51.46875 33.890625 53.734375 
Q 38.28125 56 44 56 
Q 54.109375 56 60.59375 47.96875 
Q 67.09375 39.9375 67.09375 27.296875 
Q 67.09375 14.65625 60.59375 6.609375 
Q 54.109375 -1.421875 44 -1.421875 
Q 38.28125 -1.421875 33.890625 0.84375 
Q 29.5 3.125 25.875 7.90625 
L 25.875 0 
L 8.40625 0 
L 8.40625 75.984375 
L 25.875 75.984375 
z
" id="DejaVuSans-Bold-98"/>
     <path d="M 1.21875 54.6875 
L 18.703125 54.6875 
L 33.40625 17.578125 
L 45.90625 54.6875 
L 63.375 54.6875 
L 40.375 -5.171875 
Q 36.921875 -14.3125 32.296875 -17.9375 
Q 27.6875 -21.578125 20.125 -21.578125 
L 10.015625 -21.578125 
L 10.015625 -10.109375 
L 15.484375 -10.109375 
Q 19.921875 -10.109375 21.9375 -8.6875 
Q 23.96875 -7.28125 25.09375 -3.609375 
L 25.59375 -2.09375 
z
" id="DejaVuSans-Bold-121"/>
     <path d="M 27.984375 58.6875 
L 27.984375 14.203125 
L 34.71875 14.203125 
Q 46.234375 14.203125 52.3125 19.921875 
Q 58.40625 25.640625 58.40625 36.53125 
Q 58.40625 47.359375 52.34375 53.015625 
Q 46.296875 58.6875 34.71875 58.6875 
z
M 9.1875 72.90625 
L 29 72.90625 
Q 45.609375 72.90625 53.734375 70.53125 
Q 61.859375 68.171875 67.671875 62.5 
Q 72.796875 57.5625 75.28125 51.109375 
Q 77.78125 44.671875 77.78125 36.53125 
Q 77.78125 28.265625 75.28125 21.796875 
Q 72.796875 15.328125 67.671875 10.40625 
Q 61.8125 4.734375 53.609375 2.359375 
Q 45.40625 0 29 0 
L 9.1875 0 
z
" id="DejaVuSans-Bold-68"/>
     <path d="M 37.703125 -13.1875 
L 23.1875 -13.1875 
Q 15.71875 -1.125 12.15625 9.734375 
Q 8.59375 20.609375 8.59375 31.296875 
Q 8.59375 42 12.171875 52.953125 
Q 15.765625 63.921875 23.1875 75.875 
L 37.703125 75.875 
Q 31.453125 64.3125 28.328125 53.25 
Q 25.203125 42.1875 25.203125 31.390625 
Q 25.203125 20.609375 28.296875 9.515625 
Q 31.390625 -1.5625 37.703125 -13.1875 
z
" id="DejaVuSans-Bold-40"/>
     <path d="M 11.71875 12.984375 
L 28.328125 12.984375 
L 28.328125 60.109375 
L 11.28125 56.59375 
L 11.28125 69.390625 
L 28.21875 72.90625 
L 46.09375 72.90625 
L 46.09375 12.984375 
L 62.703125 12.984375 
L 62.703125 0 
L 11.71875 0 
z
" id="DejaVuSans-Bold-49"/>
     <path d="M 28.8125 13.8125 
L 60.890625 13.8125 
L 60.890625 0 
L 7.90625 0 
L 7.90625 13.8125 
L 34.515625 37.3125 
Q 38.09375 40.53125 39.796875 43.609375 
Q 41.5 46.6875 41.5 50 
Q 41.5 55.125 38.0625 58.25 
Q 34.625 61.375 28.90625 61.375 
Q 24.515625 61.375 19.28125 59.5 
Q 14.0625 57.625 8.109375 53.90625 
L 8.109375 69.921875 
Q 14.453125 72.015625 20.65625 73.109375 
Q 26.859375 74.21875 32.8125 74.21875 
Q 45.90625 74.21875 53.15625 68.453125 
Q 60.40625 62.703125 60.40625 52.390625 
Q 60.40625 46.4375 57.328125 41.28125 
Q 54.25 36.140625 44.390625 27.484375 
z
" id="DejaVuSans-Bold-50"/>
     <path d="M 10.203125 18.890625 
L 27.78125 18.890625 
L 27.78125 4 
L 15.71875 -14.203125 
L 5.328125 -14.203125 
L 10.203125 4 
z
" id="DejaVuSans-Bold-44"/>
     <path d="M 46.578125 39.3125 
Q 53.953125 37.40625 57.78125 32.6875 
Q 61.625 27.984375 61.625 20.703125 
Q 61.625 9.859375 53.3125 4.21875 
Q 45.015625 -1.421875 29.109375 -1.421875 
Q 23.484375 -1.421875 17.84375 -0.515625 
Q 12.203125 0.390625 6.6875 2.203125 
L 6.6875 16.703125 
Q 11.96875 14.0625 17.15625 12.71875 
Q 22.359375 11.375 27.390625 11.375 
Q 34.859375 11.375 38.84375 13.953125 
Q 42.828125 16.546875 42.828125 21.390625 
Q 42.828125 26.375 38.75 28.9375 
Q 34.671875 31.5 26.703125 31.5 
L 19.1875 31.5 
L 19.1875 43.609375 
L 27.09375 43.609375 
Q 34.1875 43.609375 37.640625 45.828125 
Q 41.109375 48.046875 41.109375 52.59375 
Q 41.109375 56.78125 37.734375 59.078125 
Q 34.375 61.375 28.21875 61.375 
Q 23.6875 61.375 19.046875 60.34375 
Q 14.40625 59.328125 9.8125 57.328125 
L 9.8125 71.09375 
Q 15.375 72.65625 20.84375 73.4375 
Q 26.3125 74.21875 31.59375 74.21875 
Q 45.796875 74.21875 52.84375 69.546875 
Q 59.90625 64.890625 59.90625 55.515625 
Q 59.90625 49.125 56.53125 45.046875 
Q 53.171875 40.96875 46.578125 39.3125 
z
" id="DejaVuSans-Bold-51"/>
     <path d="M 46 36.53125 
Q 46 50.203125 43.4375 55.78125 
Q 40.875 61.375 34.8125 61.375 
Q 28.765625 61.375 26.171875 55.78125 
Q 23.578125 50.203125 23.578125 36.53125 
Q 23.578125 22.703125 26.171875 17.03125 
Q 28.765625 11.375 34.8125 11.375 
Q 40.828125 11.375 43.40625 17.03125 
Q 46 22.703125 46 36.53125 
z
M 64.796875 36.375 
Q 64.796875 18.265625 56.984375 8.421875 
Q 49.171875 -1.421875 34.8125 -1.421875 
Q 20.40625 -1.421875 12.59375 8.421875 
Q 4.78125 18.265625 4.78125 36.375 
Q 4.78125 54.546875 12.59375 64.375 
Q 20.40625 74.21875 34.8125 74.21875 
Q 49.171875 74.21875 56.984375 64.375 
Q 64.796875 54.546875 64.796875 36.375 
z
" id="DejaVuSans-Bold-48"/>
     <path d="M 36.1875 35.984375 
Q 31.25 35.984375 28.78125 32.78125 
Q 26.3125 29.59375 26.3125 23.1875 
Q 26.3125 16.796875 28.78125 13.59375 
Q 31.25 10.40625 36.1875 10.40625 
Q 41.15625 10.40625 43.625 13.59375 
Q 46.09375 16.796875 46.09375 23.1875 
Q 46.09375 29.59375 43.625 32.78125 
Q 41.15625 35.984375 36.1875 35.984375 
z
M 59.421875 71 
L 59.421875 57.515625 
Q 54.78125 59.71875 50.671875 60.765625 
Q 46.578125 61.8125 42.671875 61.8125 
Q 34.28125 61.8125 29.59375 57.140625 
Q 24.90625 52.484375 24.125 43.3125 
Q 27.34375 45.703125 31.09375 46.890625 
Q 34.859375 48.09375 39.3125 48.09375 
Q 50.484375 48.09375 57.34375 41.546875 
Q 64.203125 35.015625 64.203125 24.421875 
Q 64.203125 12.703125 56.53125 5.640625 
Q 48.875 -1.421875 35.984375 -1.421875 
Q 21.78125 -1.421875 13.984375 8.171875 
Q 6.203125 17.78125 6.203125 35.40625 
Q 6.203125 53.46875 15.3125 63.796875 
Q 24.421875 74.125 40.28125 74.125 
Q 45.3125 74.125 50.046875 73.34375 
Q 54.78125 72.5625 59.421875 71 
z
" id="DejaVuSans-Bold-54"/>
     <path d="M 8.015625 -13.1875 
Q 14.265625 -1.5625 17.390625 9.515625 
Q 20.515625 20.609375 20.515625 31.390625 
Q 20.515625 42.1875 17.390625 53.25 
Q 14.265625 64.3125 8.015625 75.875 
L 22.515625 75.875 
Q 29.9375 63.921875 33.515625 52.953125 
Q 37.109375 42 37.109375 31.296875 
Q 37.109375 20.609375 33.546875 9.734375 
Q 29.984375 -1.125 22.515625 -13.1875 
z
" id="DejaVuSans-Bold-41"/>
    </defs>
    <g transform="translate(145.89375 19.918125)scale(0.12 -0.12)">
     <use xlink:href="#DejaVuSans-Bold-84"/>
     <use x="68.009766" xlink:href="#DejaVuSans-Bold-111"/>
     <use x="136.710938" xlink:href="#DejaVuSans-Bold-116"/>
     <use x="184.513672" xlink:href="#DejaVuSans-Bold-97"/>
     <use x="251.994141" xlink:href="#DejaVuSans-Bold-108"/>
     <use x="286.271484" xlink:href="#DejaVuSans-Bold-32"/>
     <use x="321.085938" xlink:href="#DejaVuSans-Bold-83"/>
     <use x="393.107422" xlink:href="#DejaVuSans-Bold-116"/>
     <use x="440.910156" xlink:href="#DejaVuSans-Bold-97"/>
     <use x="508.390625" xlink:href="#DejaVuSans-Bold-114"/>
     <use x="557.707031" xlink:href="#DejaVuSans-Bold-116"/>
     <use x="605.509766" xlink:href="#DejaVuSans-Bold-115"/>
     <use x="665.03125" xlink:href="#DejaVuSans-Bold-32"/>
     <use x="699.845703" xlink:href="#DejaVuSans-Bold-98"/>
     <use x="771.427734" xlink:href="#DejaVuSans-Bold-121"/>
     <use x="836.613281" xlink:href="#DejaVuSans-Bold-32"/>
     <use x="871.427734" xlink:href="#DejaVuSans-Bold-68"/>
     <use x="954.435547" xlink:href="#DejaVuSans-Bold-97"/>
     <use x="1021.869141" xlink:href="#DejaVuSans-Bold-121"/>
     <use x="1087.054688" xlink:href="#DejaVuSans-Bold-32"/>
     <use x="1121.869141" xlink:href="#DejaVuSans-Bold-40"/>
     <use x="1167.572266" xlink:href="#DejaVuSans-Bold-49"/>
     <use x="1237.152344" xlink:href="#DejaVuSans-Bold-50"/>
     <use x="1306.732422" xlink:href="#DejaVuSans-Bold-44"/>
     <use x="1344.720703" xlink:href="#DejaVuSans-Bold-49"/>
     <use x="1414.300781" xlink:href="#DejaVuSans-Bold-51"/>
     <use x="1483.880859" xlink:href="#DejaVuSans-Bold-48"/>
     <use x="1553.460938" xlink:href="#DejaVuSans-Bold-44"/>
     <use x="1591.449219" xlink:href="#DejaVuSans-Bold-54"/>
     <use x="1661.029297" xlink:href="#DejaVuSans-Bold-54"/>
     <use x="1730.609375" xlink:href="#DejaVuSans-Bold-48"/>
     <use x="1800.189453" xlink:href="#DejaVuSans-Bold-41"/>
    </g>
   </g>
  </g>
  <g id="patch_7">
   <path d="M 0 345.6 
L 460.8 345.6 
L 460.8 0 
L 0 0 
z
" style="fill:none;stroke:#000000;stroke-linejoin:miter;stroke-width:2;"/>
  </g>
 </g>
 <defs>
  <clipPath id="p8042e11ce7">
   <rect height="278.525625" width="386.709375" x="63.290625" y="25.918125"/>
  </clipPath>
 </defs>
</svg>
