<?xml version="1.0" encoding="UTF-8" standalone="no"?>
<svg width="1771px" height="1220px" viewBox="0 0 1771 1220" version="1.1" xmlns="http://www.w3.org/2000/svg" xmlns:xlink="http://www.w3.org/1999/xlink" xmlns:sketch="http://www.bohemiancoding.com/sketch/ns">
    <!-- Generator: Sketch 3.2.2 (9983) - http://www.bohemiancoding.com/sketch -->
    <title>app _store_referrals</title>
    <desc>Created with Sketch.</desc>
    <defs></defs>
    <g id="Page-1" stroke="none" stroke-width="1" fill="none" fill-rule="evenodd" sketch:type="MSPage">
        <g id="app-_store_referrals" sketch:type="MSLayerGroup" transform="translate(-1.000000, -6.000000)">
            <g id="Page-1">
                <g id="App-Store-Referrals-Jun-2012-to-Feb-2015-by-Source.001">
                    <g id="Page_1-Clipped">
                        <g id="Page_1">
                            <path d="M1009,703 L1306,1134 L1328,1118 L1349,1101 L1368,1084 L1387,1065 L1404,1046 L1421,1026 L1436,1005 L1450,984 L1463,962 L1475,940 L1486,917 L1496,894 L1505,870 L1512,846 L1518,822 L1523,797 L1527,772 L1530,747 L1532,697 L1531,672 L1529,647 L1521,597 L1515,572 L1508,547 L1500,523 L1490,499 L1479,475 L1467,451 L1454,429 L1439,406 L1420,380 L1378,332 L1355,311 L1330,291 L1305,272 L1279,255 L1251,240 L1223,226 L1194,214 L1165,204 L1135,195 L1104,189 L1073,184 L1041,181 L1009,180 L1009,703 L1009,703 Z" id="Shape" fill="#4572A7" sketch:type="MSShapeGroup"></path>
                            <path d="M1009,703 L505,562 L498,588 L493,614 L489,640 L487,666 L486,692 L486,718 L487,744 L493,794 L498,819 L505,844 L512,868 L520,891 L530,915 L541,937 L553,960 L565,981 L579,1002 L610,1042 L644,1079 L682,1112 L724,1142 L746,1156 L768,1168 L792,1180 L816,1190 L841,1199 L867,1207 L895,1214 L924,1220 L952,1223 L981,1226 L1038,1226 L1067,1223 L1095,1219 L1123,1214 L1150,1207 L1178,1198 L1205,1188 L1231,1177 L1257,1164 L1282,1150 L1306,1134 L1009,703 L1009,703 Z" id="Shape" fill="#AA4643" sketch:type="MSShapeGroup"></path>
                            <path d="M1009,703 L717,269 L680,297 L645,327 L613,360 L585,396 L559,435 L538,475 L519,518 L505,562 L1009,703 L1009,703 Z" id="Shape" fill="#89A54E" sketch:type="MSShapeGroup"></path>
                            <path d="M1009,703 L749,249 L717,269 L1009,703 L1009,703 Z" id="Shape" fill="#71588F" sketch:type="MSShapeGroup"></path>
                            <path d="M1009,703 L767,239 L749,249 L1009,703 L1009,703 Z" id="Shape" fill="#4198AF" sketch:type="MSShapeGroup"></path>
                            <path d="M1009,703 L786,230 L767,239 L1009,703 L1009,703 Z" id="Shape" fill="#DB843D" sketch:type="MSShapeGroup"></path>
                            <path d="M1009,703 L801,223 L786,230 L1009,703 L1009,703 Z" id="Shape" fill="#93A9CF" sketch:type="MSShapeGroup"></path>
                            <path d="M1009,703 L815,217 L801,223 L1009,703 L1009,703 Z" id="Shape" fill="#D19392" sketch:type="MSShapeGroup"></path>
                            <path d="M1009,703 L824,213 L815,217 L1009,703 L1009,703 Z" id="Shape" fill="#B9CD96" sketch:type="MSShapeGroup"></path>
                            <path d="M1009,703 L834,210 L824,213 L1009,703 L1009,703 Z" id="Shape" fill="#A99BBD" sketch:type="MSShapeGroup"></path>
                            <path d="M1009,703 L1009,180 L964,182 L920,188 L877,197 L834,210 L1009,703 L1009,703 Z" id="Shape" fill="#91C3D5" sketch:type="MSShapeGroup"></path>
                            <path d="M829,210 L1332,23 L1351,23 L1351,26 L1332,26 L1333,26 L830,213 L829,210 L829,210 Z M920,186 L1220,126 L1238,126 L1238,129 L1220,129 L1221,129 L921,189 L920,186 L920,186 Z M585,398 L214,614 L194,614 L194,611 L213,611 L584,395 L585,398 L585,398 Z M808,221 L302,90 L284,90 L284,87 L303,87 L809,218 L808,221 L808,221 Z M733,260 L398,449 L379,449 L379,446 L397,446 L732,257 L733,260 L733,260 Z M793,228 L340,148 L321,148 L321,145 L341,145 L794,225 L793,228 L793,228 Z M759,245 L481,298 L462,298 L462,295 L480,295 L758,242 L759,245 L759,245 Z M818,216 L741,63 L742,64 L724,64 L724,61 L742,61 L744,62 L821,215 L818,216 L818,216 Z M777,236 L320,246 L301,246 L301,243 L319,243 L776,233 L777,236 L777,236 Z M1509,546 L1594,587 L1593,587 L1611,587 L1611,590 L1593,590 L1508,549 L1509,546 L1509,546 Z M705,1131 L529,1141 L510,1141 L510,1138 L528,1138 L704,1128 L705,1131 L705,1131 Z" id="Shape" fill="#000000" sketch:type="MSShapeGroup"></path>
                            <text id="cytoscape.org" fill="#000000" sketch:type="MSTextLayer" font-family="Calibri" font-size="27.5146342" font-weight="normal">
                                <tspan x="1618" y="590">cytoscape.org</tspan>
                            </text>
                            <text id="40%" fill="#000000" sketch:type="MSTextLayer" font-family="Calibri" font-size="27.5146342" font-weight="normal">
                                <tspan x="1699" y="640">40%</tspan>
                            </text>
                            <text id="google" fill="#000000" sketch:type="MSTextLayer" font-family="Calibri" font-size="27.5146342" font-weight="normal">
                                <tspan x="394" y="1141">google</tspan>
                            </text>
                            <text id="39%" fill="#000000" sketch:type="MSTextLayer" font-family="Calibri" font-size="27.5146342" font-weight="normal">
                                <tspan x="415" y="1191">39%</tspan>
                            </text>
                            <text id="(direct)" fill="#000000" sketch:type="MSTextLayer" font-family="Calibri" font-size="27.5146342" font-weight="normal">
                                <tspan x="69" y="614">(direct)</tspan>
                            </text>
                            <text id="11%" fill="#000000" sketch:type="MSTextLayer" font-family="Calibri" font-size="27.5146342" font-weight="normal">
                                <tspan x="94" y="664">11%</tspan>
                            </text>
                            <text id="pathwaycommons.org" fill="#000000" sketch:type="MSTextLayer" font-family="Calibri" font-size="27.5146342" font-weight="normal">
                                <tspan x="0" y="449">pathwaycommons.org</tspan>
                            </text>
                            <text id="1%" fill="#000000" sketch:type="MSTextLayer" font-family="Calibri" font-size="27.5146342" font-weight="normal">
                                <tspan x="161" y="499">1%</tspan>
                            </text>
                            <text id="baidu" fill="#000000" sketch:type="MSTextLayer" font-family="Calibri" font-size="27.5146342" font-weight="normal">
                                <tspan x="364" y="298">baidu</tspan>
                            </text>
                            <text id="1%" fill="#000000" sketch:type="MSTextLayer" font-family="Calibri" font-size="27.5146342" font-weight="normal">
                                <tspan x="386" y="348">1%</tspan>
                            </text>
                            <text id="geneontology.org" fill="#000000" sketch:type="MSTextLayer" font-family="Calibri" font-size="27.5146342" font-weight="normal">
                                <tspan x="1" y="246">geneontology.org</tspan>
                            </text>
                            <text id="1%" fill="#000000" sketch:type="MSTextLayer" font-family="Calibri" font-size="27.5146342" font-weight="normal">
                                <tspan x="122" y="296">1%</tspan>
                            </text>
                            <text id="chianti.ucsd.edu" fill="#000000" sketch:type="MSTextLayer" font-family="Calibri" font-size="27.5146342" font-weight="normal">
                                <tspan x="45" y="147">chianti.ucsd.edu</tspan>
                            </text>
                            <text id="1%" fill="#000000" sketch:type="MSTextLayer" font-family="Calibri" font-size="27.5146342" font-weight="normal">
                                <tspan x="156" y="197">1%</tspan>
                            </text>
                            <text id="bing" fill="#000000" sketch:type="MSTextLayer" font-family="Calibri" font-size="27.5146342" font-weight="normal">
                                <tspan x="218" y="40">bing</tspan>
                            </text>
                            <text id="1%" fill="#000000" sketch:type="MSTextLayer" font-family="Calibri" font-size="27.5146342" font-weight="normal">
                                <tspan x="230" y="90">1%</tspan>
                            </text>
                            <text id="wiki.cytoscape.org" fill="#000000" sketch:type="MSTextLayer" font-family="Calibri" font-size="27.5146342" font-weight="normal">
                                <tspan x="413" y="64">wiki.cytoscape.org</tspan>
                            </text>
                            <text id="0%" fill="#000000" sketch:type="MSTextLayer" font-family="Calibri" font-size="27.5146342" font-weight="normal">
                                <tspan x="541" y="114">0%</tspan>
                            </text>
                            <text id="bioinformatics.oxfordj" fill="#000000" sketch:type="MSTextLayer" font-family="Calibri" font-size="27.5146342" font-weight="normal">
                                <tspan x="1358" y="26">bioinformatics.oxfordj</tspan>
                            </text>
                            <text id="ournals.org" fill="#000000" sketch:type="MSTextLayer" font-family="Calibri" font-size="27.5146342" font-weight="normal">
                                <tspan x="1448" y="76">ournals.org</tspan>
                            </text>
                            <text id="0%" fill="#000000" sketch:type="MSTextLayer" font-family="Calibri" font-size="27.5146342" font-weight="normal">
                                <tspan x="1517" y="125">0%</tspan>
                            </text>
                            <text id="other" fill="#000000" sketch:type="MSTextLayer" font-family="Calibri" font-size="27.5146342" font-weight="normal">
                                <tspan x="1245" y="129">other</tspan>
                            </text>
                            <text id="5%" fill="#000000" sketch:type="MSTextLayer" font-family="Calibri" font-size="27.5146342" font-weight="normal">
                                <tspan x="1266" y="179">5%</tspan>
                            </text>
                        </g>
                    </g>
                </g>
            </g>
        </g>
    </g>
</svg>