<?xml version="1.0" encoding="UTF-8" standalone="no"?>
<svg width="4083px" height="3634px" viewBox="0 0 4083 3634" version="1.1" xmlns="http://www.w3.org/2000/svg" xmlns:xlink="http://www.w3.org/1999/xlink" xmlns:sketch="http://www.bohemiancoding.com/sketch/ns">
    <!-- Generator: Sketch 3.2.2 (9983) - http://www.bohemiancoding.com/sketch -->
    <title>App Store Visits Jun 2012 to Feb 2015 by Country.001</title>
    <desc>Created with Sketch.</desc>
    <defs></defs>
    <g id="Page-1" stroke="none" stroke-width="1" fill="none" fill-rule="evenodd" sketch:type="MSPage">
        <g id="App-Store-Visits-Jun-2012-to-Feb-2015-by-Country.001" sketch:type="MSLayerGroup">
            <g id="Page_1-Clipped">
                <g id="Page_1">
                    <rect id="Rectangle-path" fill="#FFFFFF" sketch:type="MSShapeGroup" x="0" y="0" width="4083" height="3634"></rect>
                    <path d="M2041,2086 L3283,2131 L3284,2067 L3281,2004 L3276,1941 L3267,1880 L3255,1819 L3241,1760 L3223,1701 L3203,1644 L3180,1588 L3155,1534 L3127,1481 L3096,1429 L3063,1379 L3028,1331 L2991,1284 L2951,1240 L2910,1197 L2866,1156 L2820,1118 L2773,1082 L2724,1048 L2673,1016 L2620,986 L2566,960 L2510,935 L2453,914 L2395,895 L2335,879 L2275,866 L2213,856 L2150,849 L2086,845 L2064,844 L2041,844 L2041,2086 L2041,2086 Z" id="Shape" fill="#4572A7" sketch:type="MSShapeGroup"></path>
                    <path d="M2041,2086 L3081,2766 L3104,2730 L3125,2694 L3145,2657 L3164,2619 L3181,2581 L3197,2542 L3212,2502 L3226,2462 L3238,2422 L3258,2340 L3266,2299 L3272,2257 L3277,2215 L3281,2173 L3283,2131 L2041,2086 L2041,2086 Z" id="Shape" fill="#AA4643" sketch:type="MSShapeGroup"></path>
                    <path d="M2041,2086 L2632,3180 L2666,3161 L2699,3141 L2763,3098 L2824,3051 L2882,3001 L2937,2947 L2989,2890 L3037,2829 L3081,2766 L2041,2086 L2041,2086 Z" id="Shape" fill="#89A54E" sketch:type="MSShapeGroup"></path>
                    <path d="M2041,2086 L2186,3320 L2244,3312 L2302,3301 L2359,3287 L2416,3271 L2471,3252 L2526,3231 L2580,3207 L2632,3180 L2041,2086 L2041,2086 Z" id="Shape" fill="#71588F" sketch:type="MSShapeGroup"></path>
                    <path d="M2041,2086 L1721,3287 L1778,3301 L1835,3312 L1893,3320 L1952,3326 L2010,3328 L2069,3329 L2127,3326 L2186,3320 L2041,2086 L2041,2086 Z" id="Shape" fill="#4198AF" sketch:type="MSShapeGroup"></path>
                    <path d="M2041,2086 L1349,3118 L1392,3146 L1437,3171 L1482,3195 L1528,3218 L1575,3238 L1623,3256 L1672,3273 L1721,3287 L2041,2086 L2041,2086 Z" id="Shape" fill="#DB843D" sketch:type="MSShapeGroup"></path>
                    <path d="M2041,2086 L1132,2933 L1182,2984 L1235,3032 L1291,3077 L1349,3118 L2041,2086 L2041,2086 Z" id="Shape" fill="#93A9CF" sketch:type="MSShapeGroup"></path>
                    <path d="M2041,2086 L984,2738 L1018,2790 L1054,2840 L1092,2888 L1132,2933 L2041,2086 L2041,2086 Z" id="Shape" fill="#D19392" sketch:type="MSShapeGroup"></path>
                    <path d="M2041,2086 L879,2525 L901,2581 L926,2635 L954,2687 L984,2738 L2041,2086 L2041,2086 Z" id="Shape" fill="#B9CD96" sketch:type="MSShapeGroup"></path>
                    <path d="M2041,2086 L820,2311 L831,2366 L845,2420 L861,2473 L879,2525 L2041,2086 L2041,2086 Z" id="Shape" fill="#A99BBD" sketch:type="MSShapeGroup"></path>
                    <path d="M2041,2086 L2041,844 L1977,846 L1914,850 L1852,858 L1791,869 L1731,883 L1672,900 L1614,919 L1558,942 L1503,966 L1449,994 L1397,1024 L1347,1056 L1298,1091 L1251,1128 L1206,1167 L1163,1208 L1122,1251 L1083,1296 L1046,1343 L1011,1392 L979,1442 L949,1494 L921,1548 L897,1603 L874,1659 L855,1717 L838,1776 L824,1836 L813,1897 L805,1959 L801,2022 L799,2086 L800,2143 L804,2199 L811,2255 L820,2311 L2041,2086 L2041,2086 Z" id="Shape" fill="#91C3D5" sketch:type="MSShapeGroup"></path>
                    <path d="M2933,1221 L3114,959 L3115,959 L3116,958 L3161,958 L3161,965 L3116,965 L3119,963 L2938,1225 L2933,1221 L2933,1221 Z M1056,2842 L862,3059 L861,3060 L813,3060 L813,3053 L859,3053 L857,3054 L1051,2837 L1056,2842 L1056,2842 Z M2417,3268 L2694,3426 L2692,3426 L2738,3426 L2738,3433 L2691,3433 L2414,3275 L2417,3268 L2417,3268 Z M1238,3034 L1109,3205 L1108,3206 L1060,3206 L1060,3199 L1106,3199 L1104,3200 L1233,3029 L1238,3034 L1238,3034 Z M1531,3219 L1435,3428 L1431,3430 L1386,3430 L1386,3423 L1431,3423 L1428,3425 L1524,3216 L1531,3219 L1531,3219 Z M1084,1294 L903,1169 L905,1170 L859,1170 L859,1163 L906,1163 L907,1164 L1088,1289 L1084,1294 L1084,1294 Z M928,2637 L751,2743 L750,2744 L703,2744 L703,2737 L749,2737 L748,2737 L925,2631 L928,2637 L928,2637 Z M3227,2459 L3429,2540 L3427,2540 L3473,2540 L3473,2547 L3426,2547 L3224,2466 L3227,2459 L3227,2459 Z M2885,2999 L2949,3095 L2946,3093 L2992,3093 L2992,3100 L2946,3100 L2944,3098 L2880,3002 L2885,2999 L2885,2999 Z M846,2422 L788,2463 L787,2464 L740,2464 L740,2457 L786,2457 L784,2458 L842,2417 L846,2422 L846,2422 Z" id="Shape" fill="#000000" sketch:type="MSShapeGroup"></path>
                    <text id="United" fill="#000000" sketch:type="MSTextLayer" font-family="Calibri" font-size="83.5584" font-weight="normal">
                        <tspan x="3179" y="962">United</tspan>
                    </text>
                    <text id="States" fill="#000000" sketch:type="MSTextLayer" font-family="Calibri" font-size="83.5584" font-weight="normal">
                        <tspan x="3481" y="962">States</tspan>
                    </text>
                    <text id="25%" fill="#000000" sketch:type="MSTextLayer" font-family="Calibri" font-size="83.5584" font-weight="normal">
                        <tspan x="3368" y="1086">25%</tspan>
                    </text>
                    <text id="China" fill="#000000" sketch:type="MSTextLayer" font-family="Calibri" font-size="83.5584" font-weight="normal">
                        <tspan x="3489" y="2544">China</tspan>
                    </text>
                    <text id="9%" fill="#000000" sketch:type="MSTextLayer" font-family="Calibri" font-size="83.5584" font-weight="normal">
                        <tspan x="3544" y="2668">9%</tspan>
                    </text>
                    <text id="France" fill="#000000" sketch:type="MSTextLayer" font-family="Calibri" font-size="83.5584" font-weight="normal">
                        <tspan x="3008" y="3096">France</tspan>
                    </text>
                    <text id="8%" fill="#000000" sketch:type="MSTextLayer" font-family="Calibri" font-size="83.5584" font-weight="normal">
                        <tspan x="3086" y="3221">8%</tspan>
                    </text>
                    <text id="India" fill="#000000" sketch:type="MSTextLayer" font-family="Calibri" font-size="83.5584" font-weight="normal">
                        <tspan x="2756" y="3430">India</tspan>
                    </text>
                    <text id="6%" fill="#000000" sketch:type="MSTextLayer" font-family="Calibri" font-size="83.5584" font-weight="normal">
                        <tspan x="2795" y="3555">6%</tspan>
                    </text>
                    <text id="United" fill="#000000" sketch:type="MSTextLayer" font-family="Calibri" font-size="83.5584" font-weight="normal">
                        <tspan x="1372" y="3461">United</tspan>
                    </text>
                    <text id="Kingdom" fill="#000000" sketch:type="MSTextLayer" font-family="Calibri" font-size="83.5584" font-weight="normal">
                        <tspan x="1675" y="3461">Kingdom</tspan>
                    </text>
                    <text id="6%" fill="#000000" sketch:type="MSTextLayer" font-family="Calibri" font-size="83.5584" font-weight="normal">
                        <tspan x="1644" y="3586">6%</tspan>
                    </text>
                    <text id="Germany" fill="#000000" sketch:type="MSTextLayer" font-family="Calibri" font-size="83.5584" font-weight="normal">
                        <tspan x="993" y="3427">Germany</tspan>
                    </text>
                    <text id="5%" fill="#000000" sketch:type="MSTextLayer" font-family="Calibri" font-size="83.5584" font-weight="normal">
                        <tspan x="1120" y="3551">5%</tspan>
                    </text>
                    <text id="Italy" fill="#000000" sketch:type="MSTextLayer" font-family="Calibri" font-size="83.5584" font-weight="normal">
                        <tspan x="869" y="3202">Italy</tspan>
                    </text>
                    <text id="4%" fill="#000000" sketch:type="MSTextLayer" font-family="Calibri" font-size="83.5584" font-weight="normal">
                        <tspan x="895" y="3327">4%</tspan>
                    </text>
                    <text id="Japan" fill="#000000" sketch:type="MSTextLayer" font-family="Calibri" font-size="83.5584" font-weight="normal">
                        <tspan x="563" y="3056">Japan</tspan>
                    </text>
                    <text id="3%" fill="#000000" sketch:type="MSTextLayer" font-family="Calibri" font-size="83.5584" font-weight="normal">
                        <tspan x="619" y="3181">3%</tspan>
                    </text>
                    <text id="Canada" fill="#000000" sketch:type="MSTextLayer" font-family="Calibri" font-size="83.5584" font-weight="normal">
                        <tspan x="382" y="2740">Canada</tspan>
                    </text>
                    <text id="3%" fill="#000000" sketch:type="MSTextLayer" font-family="Calibri" font-size="83.5584" font-weight="normal">
                        <tspan x="474" y="2865">3%</tspan>
                    </text>
                    <text id="South" fill="#000000" sketch:type="MSTextLayer" font-family="Calibri" font-size="83.5584" font-weight="normal">
                        <tspan x="220" y="2460">South</tspan>
                    </text>
                    <text id="Korea" fill="#000000" sketch:type="MSTextLayer" font-family="Calibri" font-size="83.5584" font-weight="normal">
                        <tspan x="485" y="2460">Korea</tspan>
                    </text>
                    <text id="3%" fill="#000000" sketch:type="MSTextLayer" font-family="Calibri" font-size="83.5584" font-weight="normal">
                        <tspan x="411" y="2585">3%</tspan>
                    </text>
                    <text id="Other" fill="#000000" sketch:type="MSTextLayer" font-family="Calibri" font-size="83.5584" font-weight="normal">
                        <tspan x="637" y="1042">Other</tspan>
                    </text>
                    <text id="28%" fill="#000000" sketch:type="MSTextLayer" font-family="Calibri" font-size="83.5584" font-weight="normal">
                        <tspan x="669" y="1167">28%</tspan>
                    </text>
                    <text id="App" fill="#000000" sketch:type="MSTextLayer" font-family="Calibri" font-size="150.7328" font-weight="bold">
                        <tspan x="1091" y="250">App</tspan>
                    </text>
                    <text id="Store" fill="#000000" sketch:type="MSTextLayer" font-family="Calibri" font-size="150.7328" font-weight="bold">
                        <tspan x="1439" y="250">Store</tspan>
                    </text>
                    <text id="Visits" fill="#000000" sketch:type="MSTextLayer" font-family="Calibri" font-size="150.7328" font-weight="bold">
                        <tspan x="1883" y="250">Visits</tspan>
                    </text>
                    <text id="(218,731)" fill="#000000" sketch:type="MSTextLayer" font-family="Calibri" font-size="150.7328" font-weight="bold">
                        <tspan x="2332" y="250">(218,731)</tspan>
                    </text>
                    <text id="(6/" fill="#000000" sketch:type="MSTextLayer" font-family="Calibri" font-size="150.7328" font-weight="bold">
                        <tspan x="907" y="474">(6/</tspan>
                    </text>
                    <text id="1/" fill="#000000" sketch:type="MSTextLayer" font-family="Calibri" font-size="150.7328" font-weight="bold">
                        <tspan x="1136" y="474">1/</tspan>
                    </text>
                    <text id="2012" fill="#000000" sketch:type="MSTextLayer" font-family="Calibri" font-size="150.7328" font-weight="bold">
                        <tspan x="1308" y="474">2012</tspan>
                    </text>
                    <text id="through" fill="#000000" sketch:type="MSTextLayer" font-family="Calibri" font-size="150.7328" font-weight="bold">
                        <tspan x="1720" y="474">through</tspan>
                    </text>
                    <text id="2/" fill="#000000" sketch:type="MSTextLayer" font-family="Calibri" font-size="150.7328" font-weight="bold">
                        <tspan x="2369" y="474">2/</tspan>
                    </text>
                    <text id="22/" fill="#000000" sketch:type="MSTextLayer" font-family="Calibri" font-size="150.7328" font-weight="bold">
                        <tspan x="2540" y="474">22/</tspan>
                    </text>
                    <text id="2015)" fill="#000000" sketch:type="MSTextLayer" font-family="Calibri" font-size="150.7328" font-weight="bold">
                        <tspan x="2805" y="474">2015)</tspan>
                    </text>
                </g>
            </g>
        </g>
    </g>
</svg>