<?xml version="1.0" encoding="UTF-8" standalone="no"?>
<svg width="3425px" height="2744px" viewBox="0 0 3425 2744" version="1.1" xmlns="http://www.w3.org/2000/svg" xmlns:xlink="http://www.w3.org/1999/xlink" xmlns:sketch="http://www.bohemiancoding.com/sketch/ns">
    <!-- Generator: Sketch 3.2.2 (9983) - http://www.bohemiancoding.com/sketch -->
    <title>app _store_visits_by_country</title>
    <desc>Created with Sketch.</desc>
    <defs></defs>
    <g id="Page-1" stroke="none" stroke-width="1" fill="none" fill-rule="evenodd" sketch:type="MSPage">
        <g id="app-_store_visits_by_country" sketch:type="MSLayerGroup" transform="translate(-2.000000, 0.000000)">
            <g id="Page-1">
                <g id="App-Store-Visits-Jun-2012-to-Feb-2015-by-Country.001">
                    <g id="Page_1-Clipped">
                        <g id="Page_1">
                            <path d="M1821,1242 L3063,1287 L3064,1223 L3061,1160 L3056,1097 L3047,1036 L3035,975 L3021,916 L3003,857 L2983,800 L2960,744 L2935,690 L2907,637 L2876,585 L2843,535 L2808,487 L2771,440 L2731,396 L2690,353 L2646,312 L2600,274 L2553,238 L2504,204 L2453,172 L2400,142 L2346,116 L2290,91 L2233,70 L2175,51 L2115,35 L2055,22 L1993,12 L1930,5 L1866,1 L1844,0 L1821,0 L1821,1242 L1821,1242 Z" id="Shape" fill="#4572A7" sketch:type="MSShapeGroup"></path>
                            <path d="M1821,1242 L2861,1922 L2884,1886 L2905,1850 L2925,1813 L2944,1775 L2961,1737 L2977,1698 L2992,1658 L3006,1618 L3018,1578 L3038,1496 L3046,1455 L3052,1413 L3057,1371 L3061,1329 L3063,1287 L1821,1242 L1821,1242 Z" id="Shape" fill="#AA4643" sketch:type="MSShapeGroup"></path>
                            <path d="M1821,1242 L2412,2336 L2446,2317 L2479,2297 L2543,2254 L2604,2207 L2662,2157 L2717,2103 L2769,2046 L2817,1985 L2861,1922 L1821,1242 L1821,1242 Z" id="Shape" fill="#89A54E" sketch:type="MSShapeGroup"></path>
                            <path d="M1821,1242 L1966,2476 L2024,2468 L2082,2457 L2139,2443 L2196,2427 L2251,2408 L2306,2387 L2360,2363 L2412,2336 L1821,1242 L1821,1242 Z" id="Shape" fill="#71588F" sketch:type="MSShapeGroup"></path>
                            <path d="M1821,1242 L1501,2443 L1558,2457 L1615,2468 L1673,2476 L1732,2482 L1790,2484 L1849,2485 L1907,2482 L1966,2476 L1821,1242 L1821,1242 Z" id="Shape" fill="#4198AF" sketch:type="MSShapeGroup"></path>
                            <path d="M1821,1242 L1129,2274 L1172,2302 L1217,2327 L1262,2351 L1308,2374 L1355,2394 L1403,2412 L1452,2429 L1501,2443 L1821,1242 L1821,1242 Z" id="Shape" fill="#DB843D" sketch:type="MSShapeGroup"></path>
                            <path d="M1821,1242 L912,2089 L962,2140 L1015,2188 L1071,2233 L1129,2274 L1821,1242 L1821,1242 Z" id="Shape" fill="#93A9CF" sketch:type="MSShapeGroup"></path>
                            <path d="M1821,1242 L764,1894 L798,1946 L834,1996 L872,2044 L912,2089 L1821,1242 L1821,1242 Z" id="Shape" fill="#D19392" sketch:type="MSShapeGroup"></path>
                            <path d="M1821,1242 L659,1681 L681,1737 L706,1791 L734,1843 L764,1894 L1821,1242 L1821,1242 Z" id="Shape" fill="#B9CD96" sketch:type="MSShapeGroup"></path>
                            <path d="M1821,1242 L600,1467 L611,1522 L625,1576 L641,1629 L659,1681 L1821,1242 L1821,1242 Z" id="Shape" fill="#A99BBD" sketch:type="MSShapeGroup"></path>
                            <path d="M1821,1242 L1821,0 L1757,2 L1694,6 L1632,14 L1571,25 L1511,39 L1452,56 L1394,75 L1338,98 L1283,122 L1229,150 L1177,180 L1127,212 L1078,247 L1031,284 L986,323 L943,364 L902,407 L863,452 L826,499 L791,548 L759,598 L729,650 L701,704 L677,759 L654,815 L635,873 L618,932 L604,992 L593,1053 L585,1115 L581,1178 L579,1242 L580,1299 L584,1355 L591,1411 L600,1467 L1821,1242 L1821,1242 Z" id="Shape" fill="#91C3D5" sketch:type="MSShapeGroup"></path>
                            <path d="M2713,377 L2894,115 L2895,115 L2896,114 L2941,114 L2941,121 L2896,121 L2899,119 L2718,381 L2713,377 L2713,377 Z M836,1998 L642,2215 L641,2216 L593,2216 L593,2209 L639,2209 L637,2210 L831,1993 L836,1998 L836,1998 Z M2197,2424 L2474,2582 L2472,2582 L2518,2582 L2518,2589 L2471,2589 L2194,2431 L2197,2424 L2197,2424 Z M1018,2190 L889,2361 L888,2362 L840,2362 L840,2355 L886,2355 L884,2356 L1013,2185 L1018,2190 L1018,2190 Z M1311,2375 L1215,2584 L1211,2586 L1166,2586 L1166,2579 L1211,2579 L1208,2581 L1304,2372 L1311,2375 L1311,2375 Z M864,450 L683,325 L685,326 L639,326 L639,319 L686,319 L687,320 L868,445 L864,450 L864,450 Z M708,1793 L531,1899 L530,1900 L483,1900 L483,1893 L529,1893 L528,1893 L705,1787 L708,1793 L708,1793 Z M3007,1615 L3209,1696 L3207,1696 L3253,1696 L3253,1703 L3206,1703 L3004,1622 L3007,1615 L3007,1615 Z M2665,2155 L2729,2251 L2726,2249 L2772,2249 L2772,2256 L2726,2256 L2724,2254 L2660,2158 L2665,2155 L2665,2155 Z M626,1578 L568,1619 L567,1620 L520,1620 L520,1613 L566,1613 L564,1614 L622,1573 L626,1578 L626,1578 Z" id="Shape" fill="#000000" sketch:type="MSShapeGroup"></path>
                            <text id="United" fill="#000000" sketch:type="MSTextLayer" font-family="Calibri" font-size="68.4510413" font-weight="normal">
                                <tspan x="2959" y="118">United</tspan>
                            </text>
                            <text id="States" fill="#000000" sketch:type="MSTextLayer" font-family="Calibri" font-size="68.4510413" font-weight="normal">
                                <tspan x="3261" y="118">States</tspan>
                            </text>
                            <text id="25%" fill="#000000" sketch:type="MSTextLayer" font-family="Calibri" font-size="68.4510413" font-weight="normal">
                                <tspan x="3148" y="242">25%</tspan>
                            </text>
                            <text id="China" fill="#000000" sketch:type="MSTextLayer" font-family="Calibri" font-size="68.4510413" font-weight="normal">
                                <tspan x="3269" y="1700">China</tspan>
                            </text>
                            <text id="9%" fill="#000000" sketch:type="MSTextLayer" font-family="Calibri" font-size="68.4510413" font-weight="normal">
                                <tspan x="3324" y="1824">9%</tspan>
                            </text>
                            <text id="France" fill="#000000" sketch:type="MSTextLayer" font-family="Calibri" font-size="68.4510413" font-weight="normal">
                                <tspan x="2788" y="2252">France</tspan>
                            </text>
                            <text id="8%" fill="#000000" sketch:type="MSTextLayer" font-family="Calibri" font-size="68.4510413" font-weight="normal">
                                <tspan x="2866" y="2377">8%</tspan>
                            </text>
                            <text id="India" fill="#000000" sketch:type="MSTextLayer" font-family="Calibri" font-size="68.4510413" font-weight="normal">
                                <tspan x="2536" y="2586">India</tspan>
                            </text>
                            <text id="6%" fill="#000000" sketch:type="MSTextLayer" font-family="Calibri" font-size="68.4510413" font-weight="normal">
                                <tspan x="2575" y="2711">6%</tspan>
                            </text>
                            <text id="United" fill="#000000" sketch:type="MSTextLayer" font-family="Calibri" font-size="68.4510413" font-weight="normal">
                                <tspan x="1152" y="2617">United</tspan>
                            </text>
                            <text id="Kingdom" fill="#000000" sketch:type="MSTextLayer" font-family="Calibri" font-size="68.4510413" font-weight="normal">
                                <tspan x="1455" y="2617">Kingdom</tspan>
                            </text>
                            <text id="6%" fill="#000000" sketch:type="MSTextLayer" font-family="Calibri" font-size="68.4510413" font-weight="normal">
                                <tspan x="1424" y="2742">6%</tspan>
                            </text>
                            <text id="Germany" fill="#000000" sketch:type="MSTextLayer" font-family="Calibri" font-size="68.4510413" font-weight="normal">
                                <tspan x="773" y="2583">Germany</tspan>
                            </text>
                            <text id="5%" fill="#000000" sketch:type="MSTextLayer" font-family="Calibri" font-size="68.4510413" font-weight="normal">
                                <tspan x="900" y="2707">5%</tspan>
                            </text>
                            <text id="Italy" fill="#000000" sketch:type="MSTextLayer" font-family="Calibri" font-size="68.4510413" font-weight="normal">
                                <tspan x="649" y="2358">Italy</tspan>
                            </text>
                            <text id="4%" fill="#000000" sketch:type="MSTextLayer" font-family="Calibri" font-size="68.4510413" font-weight="normal">
                                <tspan x="675" y="2483">4%</tspan>
                            </text>
                            <text id="Japan" fill="#000000" sketch:type="MSTextLayer" font-family="Calibri" font-size="68.4510413" font-weight="normal">
                                <tspan x="343" y="2212">Japan</tspan>
                            </text>
                            <text id="3%" fill="#000000" sketch:type="MSTextLayer" font-family="Calibri" font-size="68.4510413" font-weight="normal">
                                <tspan x="399" y="2337">3%</tspan>
                            </text>
                            <text id="Canada" fill="#000000" sketch:type="MSTextLayer" font-family="Calibri" font-size="68.4510413" font-weight="normal">
                                <tspan x="162" y="1896">Canada</tspan>
                            </text>
                            <text id="3%" fill="#000000" sketch:type="MSTextLayer" font-family="Calibri" font-size="68.4510413" font-weight="normal">
                                <tspan x="254" y="2021">3%</tspan>
                            </text>
                            <text id="South" fill="#000000" sketch:type="MSTextLayer" font-family="Calibri" font-size="68.4510413" font-weight="normal">
                                <tspan x="0" y="1616">South</tspan>
                            </text>
                            <text id="Korea" fill="#000000" sketch:type="MSTextLayer" font-family="Calibri" font-size="68.4510413" font-weight="normal">
                                <tspan x="265" y="1616">Korea</tspan>
                            </text>
                            <text id="3%" fill="#000000" sketch:type="MSTextLayer" font-family="Calibri" font-size="68.4510413" font-weight="normal">
                                <tspan x="191" y="1741">3%</tspan>
                            </text>
                            <text id="Other" fill="#000000" sketch:type="MSTextLayer" font-family="Calibri" font-size="68.4510413" font-weight="normal">
                                <tspan x="417" y="198">Other</tspan>
                            </text>
                            <text id="28%" fill="#000000" sketch:type="MSTextLayer" font-family="Calibri" font-size="68.4510413" font-weight="normal">
                                <tspan x="449" y="323">28%</tspan>
                            </text>
                        </g>
                    </g>
                </g>
            </g>
        </g>
    </g>
</svg>