<?xml version="1.0" encoding="UTF-8" standalone="no"?>
<svg width="2042px" height="1494px" viewBox="0 0 2042 1494" version="1.1" xmlns="http://www.w3.org/2000/svg" xmlns:xlink="http://www.w3.org/1999/xlink" xmlns:sketch="http://www.bohemiancoding.com/sketch/ns">
    <!-- Generator: Sketch 3.2.2 (9983) - http://www.bohemiancoding.com/sketch -->
    <title>App Store Referrals Jun 2012 to Feb 2015 by Source.001</title>
    <desc>Created with Sketch.</desc>
    <defs></defs>
    <g id="Page-1" stroke="none" stroke-width="1" fill="none" fill-rule="evenodd" sketch:type="MSPage">
        <g id="App-Store-Referrals-Jun-2012-to-Feb-2015-by-Source.001" sketch:type="MSLayerGroup">
            <g id="Page_1-Clipped">
                <g id="Page_1">
                    <rect id="Rectangle-path" fill="#FFFFFF" sketch:type="MSShapeGroup" x="0" y="0" width="2042" height="1494"></rect>
                    <path d="M1021,844 L1318,1275 L1340,1259 L1361,1242 L1380,1225 L1399,1206 L1416,1187 L1433,1167 L1448,1146 L1462,1125 L1475,1103 L1487,1081 L1498,1058 L1508,1035 L1517,1011 L1524,987 L1530,963 L1535,938 L1539,913 L1542,888 L1544,838 L1543,813 L1541,788 L1533,738 L1527,713 L1520,688 L1512,664 L1502,640 L1491,616 L1479,592 L1466,570 L1451,547 L1432,521 L1390,473 L1367,452 L1342,432 L1317,413 L1291,396 L1263,381 L1235,367 L1206,355 L1177,345 L1147,336 L1116,330 L1085,325 L1053,322 L1021,321 L1021,844 L1021,844 Z" id="Shape" fill="#4572A7" sketch:type="MSShapeGroup"></path>
                    <path d="M1021,844 L517,703 L510,729 L505,755 L501,781 L499,807 L498,833 L498,859 L499,885 L505,935 L510,960 L517,985 L524,1009 L532,1032 L542,1056 L553,1078 L565,1101 L577,1122 L591,1143 L622,1183 L656,1220 L694,1253 L736,1283 L758,1297 L780,1309 L804,1321 L828,1331 L853,1340 L879,1348 L907,1355 L936,1361 L964,1364 L993,1367 L1050,1367 L1079,1364 L1107,1360 L1135,1355 L1162,1348 L1190,1339 L1217,1329 L1243,1318 L1269,1305 L1294,1291 L1318,1275 L1021,844 L1021,844 Z" id="Shape" fill="#AA4643" sketch:type="MSShapeGroup"></path>
                    <path d="M1021,844 L729,410 L692,438 L657,468 L625,501 L597,537 L571,576 L550,616 L531,659 L517,703 L1021,844 L1021,844 Z" id="Shape" fill="#89A54E" sketch:type="MSShapeGroup"></path>
                    <path d="M1021,844 L761,390 L729,410 L1021,844 L1021,844 Z" id="Shape" fill="#71588F" sketch:type="MSShapeGroup"></path>
                    <path d="M1021,844 L779,380 L761,390 L1021,844 L1021,844 Z" id="Shape" fill="#4198AF" sketch:type="MSShapeGroup"></path>
                    <path d="M1021,844 L798,371 L779,380 L1021,844 L1021,844 Z" id="Shape" fill="#DB843D" sketch:type="MSShapeGroup"></path>
                    <path d="M1021,844 L813,364 L798,371 L1021,844 L1021,844 Z" id="Shape" fill="#93A9CF" sketch:type="MSShapeGroup"></path>
                    <path d="M1021,844 L827,358 L813,364 L1021,844 L1021,844 Z" id="Shape" fill="#D19392" sketch:type="MSShapeGroup"></path>
                    <path d="M1021,844 L836,354 L827,358 L1021,844 L1021,844 Z" id="Shape" fill="#B9CD96" sketch:type="MSShapeGroup"></path>
                    <path d="M1021,844 L846,351 L836,354 L1021,844 L1021,844 Z" id="Shape" fill="#A99BBD" sketch:type="MSShapeGroup"></path>
                    <path d="M1021,844 L1021,321 L976,323 L932,329 L889,338 L846,351 L1021,844 L1021,844 Z" id="Shape" fill="#91C3D5" sketch:type="MSShapeGroup"></path>
                    <path d="M841,351 L1344,164 L1363,164 L1363,167 L1344,167 L1345,167 L842,354 L841,351 L841,351 Z M932,327 L1232,267 L1250,267 L1250,270 L1232,270 L1233,270 L933,330 L932,327 L932,327 Z M597,539 L226,755 L206,755 L206,752 L225,752 L596,536 L597,539 L597,539 Z M820,362 L314,231 L296,231 L296,228 L315,228 L821,359 L820,362 L820,362 Z M745,401 L410,590 L391,590 L391,587 L409,587 L744,398 L745,401 L745,401 Z M805,369 L352,289 L333,289 L333,286 L353,286 L806,366 L805,369 L805,369 Z M771,386 L493,439 L474,439 L474,436 L492,436 L770,383 L771,386 L771,386 Z M830,357 L753,204 L754,205 L736,205 L736,202 L754,202 L756,203 L833,356 L830,357 L830,357 Z M789,377 L332,387 L313,387 L313,384 L331,384 L788,374 L789,377 L789,377 Z M1521,687 L1606,728 L1605,728 L1623,728 L1623,731 L1605,731 L1520,690 L1521,687 L1521,687 Z M717,1272 L541,1282 L522,1282 L522,1279 L540,1279 L716,1269 L717,1272 L717,1272 Z" id="Shape" fill="#000000" sketch:type="MSShapeGroup"></path>
                    <text id="cytoscape.org" fill="#000000" sketch:type="MSTextLayer" font-family="Calibri" font-size="33.5872" font-weight="normal">
                        <tspan x="1630" y="731">cytoscape.org</tspan>
                    </text>
                    <text id="40%" fill="#000000" sketch:type="MSTextLayer" font-family="Calibri" font-size="33.5872" font-weight="normal">
                        <tspan x="1711" y="781">40%</tspan>
                    </text>
                    <text id="google" fill="#000000" sketch:type="MSTextLayer" font-family="Calibri" font-size="33.5872" font-weight="normal">
                        <tspan x="406" y="1282">google</tspan>
                    </text>
                    <text id="39%" fill="#000000" sketch:type="MSTextLayer" font-family="Calibri" font-size="33.5872" font-weight="normal">
                        <tspan x="427" y="1332">39%</tspan>
                    </text>
                    <text id="(direct)" fill="#000000" sketch:type="MSTextLayer" font-family="Calibri" font-size="33.5872" font-weight="normal">
                        <tspan x="81" y="755">(direct)</tspan>
                    </text>
                    <text id="11%" fill="#000000" sketch:type="MSTextLayer" font-family="Calibri" font-size="33.5872" font-weight="normal">
                        <tspan x="106" y="805">11%</tspan>
                    </text>
                    <text id="pathwaycommons.org" fill="#000000" sketch:type="MSTextLayer" font-family="Calibri" font-size="33.5872" font-weight="normal">
                        <tspan x="12" y="590">pathwaycommons.org</tspan>
                    </text>
                    <text id="1%" fill="#000000" sketch:type="MSTextLayer" font-family="Calibri" font-size="33.5872" font-weight="normal">
                        <tspan x="173" y="640">1%</tspan>
                    </text>
                    <text id="baidu" fill="#000000" sketch:type="MSTextLayer" font-family="Calibri" font-size="33.5872" font-weight="normal">
                        <tspan x="376" y="439">baidu</tspan>
                    </text>
                    <text id="1%" fill="#000000" sketch:type="MSTextLayer" font-family="Calibri" font-size="33.5872" font-weight="normal">
                        <tspan x="398" y="489">1%</tspan>
                    </text>
                    <text id="geneontology.org" fill="#000000" sketch:type="MSTextLayer" font-family="Calibri" font-size="33.5872" font-weight="normal">
                        <tspan x="13" y="387">geneontology.org</tspan>
                    </text>
                    <text id="1%" fill="#000000" sketch:type="MSTextLayer" font-family="Calibri" font-size="33.5872" font-weight="normal">
                        <tspan x="134" y="437">1%</tspan>
                    </text>
                    <text id="chianti.ucsd.edu" fill="#000000" sketch:type="MSTextLayer" font-family="Calibri" font-size="33.5872" font-weight="normal">
                        <tspan x="57" y="288">chianti.ucsd.edu</tspan>
                    </text>
                    <text id="1%" fill="#000000" sketch:type="MSTextLayer" font-family="Calibri" font-size="33.5872" font-weight="normal">
                        <tspan x="168" y="338">1%</tspan>
                    </text>
                    <text id="bing" fill="#000000" sketch:type="MSTextLayer" font-family="Calibri" font-size="33.5872" font-weight="normal">
                        <tspan x="230" y="181">bing</tspan>
                    </text>
                    <text id="1%" fill="#000000" sketch:type="MSTextLayer" font-family="Calibri" font-size="33.5872" font-weight="normal">
                        <tspan x="242" y="231">1%</tspan>
                    </text>
                    <text id="wiki.cytoscape.org" fill="#000000" sketch:type="MSTextLayer" font-family="Calibri" font-size="33.5872" font-weight="normal">
                        <tspan x="425" y="205">wiki.cytoscape.org</tspan>
                    </text>
                    <text id="0%" fill="#000000" sketch:type="MSTextLayer" font-family="Calibri" font-size="33.5872" font-weight="normal">
                        <tspan x="553" y="255">0%</tspan>
                    </text>
                    <text id="bioinformatics.oxfordj" fill="#000000" sketch:type="MSTextLayer" font-family="Calibri" font-size="33.5872" font-weight="normal">
                        <tspan x="1370" y="167">bioinformatics.oxfordj</tspan>
                    </text>
                    <text id="ournals.org" fill="#000000" sketch:type="MSTextLayer" font-family="Calibri" font-size="33.5872" font-weight="normal">
                        <tspan x="1460" y="217">ournals.org</tspan>
                    </text>
                    <text id="0%" fill="#000000" sketch:type="MSTextLayer" font-family="Calibri" font-size="33.5872" font-weight="normal">
                        <tspan x="1529" y="266">0%</tspan>
                    </text>
                    <text id="other" fill="#000000" sketch:type="MSTextLayer" font-family="Calibri" font-size="33.5872" font-weight="normal">
                        <tspan x="1257" y="270">other</tspan>
                    </text>
                    <text id="5%" fill="#000000" sketch:type="MSTextLayer" font-family="Calibri" font-size="33.5872" font-weight="normal">
                        <tspan x="1278" y="320">5%</tspan>
                    </text>
                    <text id="App" fill="#000000" sketch:type="MSTextLayer" font-family="Calibri" font-size="54.0672" font-weight="bold">
                        <tspan x="320" y="69">App</tspan>
                    </text>
                    <text id="Store" fill="#000000" sketch:type="MSTextLayer" font-family="Calibri" font-size="54.0672" font-weight="bold">
                        <tspan x="444" y="69">Store</tspan>
                    </text>
                    <text id="Referral" fill="#000000" sketch:type="MSTextLayer" font-family="Calibri" font-size="54.0672" font-weight="bold">
                        <tspan x="602" y="69">Referral</tspan>
                    </text>
                    <text id="Sources" fill="#000000" sketch:type="MSTextLayer" font-family="Calibri" font-size="54.0672" font-weight="bold">
                        <tspan x="830" y="69">Sources</tspan>
                    </text>
                    <text id="(218,731)" fill="#000000" sketch:type="MSTextLayer" font-family="Calibri" font-size="54.0672" font-weight="bold">
                        <tspan x="1053" y="69">(218,731)</tspan>
                    </text>
                    <text id="(6/" fill="#000000" sketch:type="MSTextLayer" font-family="Calibri" font-size="54.0672" font-weight="bold">
                        <tspan x="401" y="148">(6/</tspan>
                    </text>
                    <text id="1/" fill="#000000" sketch:type="MSTextLayer" font-family="Calibri" font-size="54.0672" font-weight="bold">
                        <tspan x="483" y="148">1/</tspan>
                    </text>
                    <text id="2012" fill="#000000" sketch:type="MSTextLayer" font-family="Calibri" font-size="54.0672" font-weight="bold">
                        <tspan x="544" y="148">2012</tspan>
                    </text>
                    <text id="through" fill="#000000" sketch:type="MSTextLayer" font-family="Calibri" font-size="54.0672" font-weight="bold">
                        <tspan x="690" y="148">through</tspan>
                    </text>
                    <text id="2/" fill="#000000" sketch:type="MSTextLayer" font-family="Calibri" font-size="54.0672" font-weight="bold">
                        <tspan x="920" y="148">2/</tspan>
                    </text>
                    <text id="22/" fill="#000000" sketch:type="MSTextLayer" font-family="Calibri" font-size="54.0672" font-weight="bold">
                        <tspan x="981" y="148">22/</tspan>
                    </text>
                    <text id="2015)" fill="#000000" sketch:type="MSTextLayer" font-family="Calibri" font-size="54.0672" font-weight="bold">
                        <tspan x="1075" y="148">2015)</tspan>
                    </text>
                </g>
            </g>
        </g>
    </g>
</svg>