<?xml version="1.0" encoding="UTF-8" standalone="no"?>
<svg width="2816px" height="2151px" viewBox="0 0 2816 2151" version="1.1" xmlns="http://www.w3.org/2000/svg" xmlns:xlink="http://www.w3.org/1999/xlink" xmlns:sketch="http://www.bohemiancoding.com/sketch/ns">
    <!-- Generator: Sketch 3.2.2 (9983) - http://www.bohemiancoding.com/sketch -->
    <title>app_store_top_downloads</title>
    <desc>Created with Sketch.</desc>
    <defs></defs>
    <g id="Page-1" stroke="none" stroke-width="1" fill="none" fill-rule="evenodd" sketch:type="MSPage">
        <g id="app_store_top_downloads" sketch:type="MSLayerGroup" transform="translate(-2.000000, -13.000000)">
            <g id="Page-1">
                <g id="App-Store-Top-Downloads-Jun-2012-to-Feb-2015-by-Category.001">
                    <g id="Page_1-Clipped">
                        <g id="Page_1">
                            <path d="M1540,1103 L2474,1100 L2473,1052 L2469,1005 L2463,958 L2455,912 L2444,867 L2432,823 L2417,780 L2400,737 L2381,696 L2361,656 L2338,617 L2314,579 L2288,543 L2260,507 L2231,474 L2200,441 L2167,411 L2133,381 L2098,354 L2062,328 L2024,304 L1985,281 L1944,261 L1903,242 L1861,225 L1817,211 L1773,198 L1728,188 L1682,180 L1635,174 L1588,170 L1540,169 L1540,1103 L1540,1103 Z" id="Shape" fill="#4572A7" sketch:type="MSShapeGroup"></path>
                            <path d="M1540,1103 L1696,2024 L1738,2016 L1779,2006 L1819,1995 L1859,1981 L1898,1966 L1935,1950 L1972,1932 L2008,1912 L2043,1891 L2077,1868 L2109,1844 L2141,1819 L2171,1792 L2200,1764 L2228,1735 L2255,1705 L2280,1674 L2304,1641 L2327,1608 L2348,1573 L2367,1538 L2385,1502 L2402,1464 L2417,1427 L2430,1388 L2442,1348 L2452,1308 L2460,1268 L2466,1227 L2471,1185 L2473,1143 L2474,1100 L1540,1103 L1540,1103 Z" id="Shape" fill="#AA4643" sketch:type="MSShapeGroup"></path>
                            <path d="M1540,1103 L815,1691 L856,1739 L900,1783 L947,1824 L995,1861 L1046,1896 L1099,1926 L1154,1953 L1211,1977 L1268,1996 L1327,2012 L1387,2024 L1418,2029 L1448,2032 L1479,2035 L1510,2037 L1572,2037 L1603,2035 L1665,2029 L1696,2024 L1540,1103 L1540,1103 Z" id="Shape" fill="#89A54E" sketch:type="MSShapeGroup"></path>
                            <path d="M1540,1103 L625,914 L616,966 L610,1017 L607,1069 L606,1121 L609,1172 L614,1223 L622,1274 L633,1324 L646,1373 L662,1422 L681,1470 L703,1517 L727,1562 L754,1607 L783,1650 L815,1691 L1540,1103 L1540,1103 Z" id="Shape" fill="#71588F" sketch:type="MSShapeGroup"></path>
                            <path d="M1540,1103 L960,371 L928,397 L898,425 L869,453 L841,483 L815,514 L790,546 L767,579 L745,613 L724,648 L705,684 L688,720 L672,758 L658,796 L645,835 L634,874 L625,914 L1540,1103 L1540,1103 Z" id="Shape" fill="#4198AF" sketch:type="MSShapeGroup"></path>
                            <path d="M1540,1103 L1540,169 L1501,170 L1462,172 L1423,176 L1384,182 L1346,189 L1308,198 L1270,209 L1233,221 L1197,234 L1125,266 L1091,284 L1057,304 L1024,325 L991,347 L960,371 L1540,1103 L1540,1103 Z" id="Shape" fill="#DB843D" sketch:type="MSShapeGroup"></path>
                            <path d="M1212,1980 L791,2067 L753,2067 L753,2061 L790,2061 L789,2061 L1210,1974 L1212,1980 L1212,1980 Z M2257,1703 L2397,1846 L2395,1845 L2431,1845 L2431,1851 L2395,1851 L2393,1850 L2253,1707 L2257,1703 L2257,1703 Z M1230,222 L1138,51 L1141,53 L1105,53 L1105,47 L1141,47 L1144,49 L1236,220 L1230,222 L1230,222 Z M743,615 L607,503 L609,504 L573,504 L573,498 L609,498 L611,499 L747,611 L743,615 L743,615 Z M2197,441 L2228,266 L2229,265 L2231,264 L2268,264 L2268,270 L2231,270 L2234,268 L2203,443 L2197,441 L2197,441 Z M633,1327 L493,1325 L457,1325 L457,1319 L493,1319 L633,1321 L633,1327 L633,1327 Z" id="Shape" fill="#000000" sketch:type="MSShapeGroup"></path>
                            <text id="NetworkGeneration" fill="#000000" sketch:type="MSTextLayer" font-family="Calibri" font-size="53.6870912" font-weight="normal">
                                <tspan x="2281" y="268">NetworkGeneration</tspan>
                            </text>
                            <text id="25%" fill="#000000" sketch:type="MSTextLayer" font-family="Calibri" font-size="53.6870912" font-weight="normal">
                                <tspan x="2537" y="366">25%</tspan>
                            </text>
                            <text id="DataVisualization" fill="#000000" sketch:type="MSTextLayer" font-family="Calibri" font-size="53.6870912" font-weight="normal">
                                <tspan x="2446" y="1849">DataVisualization</tspan>
                            </text>
                            <text id="22%" fill="#000000" sketch:type="MSTextLayer" font-family="Calibri" font-size="53.6870912" font-weight="normal">
                                <tspan x="2658" y="1948">22%</tspan>
                            </text>
                            <text id="GraphAnalysis" fill="#000000" sketch:type="MSTextLayer" font-family="Calibri" font-size="53.6870912" font-weight="normal">
                                <tspan x="278" y="2065">GraphAnalysis</tspan>
                            </text>
                            <text id="17%" fill="#000000" sketch:type="MSTextLayer" font-family="Calibri" font-size="53.6870912" font-weight="normal">
                                <tspan x="440" y="2163">17%</tspan>
                            </text>
                            <text id="Clustering" fill="#000000" sketch:type="MSTextLayer" font-family="Calibri" font-size="53.6870912" font-weight="normal">
                                <tspan x="117" y="1323">Clustering</tspan>
                            </text>
                            <text id="14%" fill="#000000" sketch:type="MSTextLayer" font-family="Calibri" font-size="53.6870912" font-weight="normal">
                                <tspan x="212" y="1422">14%</tspan>
                            </text>
                            <text id="OntologyAnalysis" fill="#000000" sketch:type="MSTextLayer" font-family="Calibri" font-size="53.6870912" font-weight="normal">
                                <tspan x="0" y="502">OntologyAnalysis</tspan>
                            </text>
                            <text id="11%" fill="#000000" sketch:type="MSTextLayer" font-family="Calibri" font-size="53.6870912" font-weight="normal">
                                <tspan x="211" y="601">11%</tspan>
                            </text>
                            <text id="OnlineDataImport" fill="#000000" sketch:type="MSTextLayer" font-family="Calibri" font-size="53.6870912" font-weight="normal">
                                <tspan x="502" y="51">OnlineDataImport</tspan>
                            </text>
                            <text id="11%" fill="#000000" sketch:type="MSTextLayer" font-family="Calibri" font-size="53.6870912" font-weight="normal">
                                <tspan x="728" y="150">11%</tspan>
                            </text>
                        </g>
                    </g>
                </g>
            </g>
        </g>
    </g>
</svg>