<?xml version="1.0" encoding="UTF-8" standalone="no"?>
<svg width="4085px" height="2763px" viewBox="0 0 4085 2763" version="1.1" xmlns="http://www.w3.org/2000/svg" xmlns:xlink="http://www.w3.org/1999/xlink" xmlns:sketch="http://www.bohemiancoding.com/sketch/ns">
    <!-- Generator: Sketch 3.2.2 (9983) - http://www.bohemiancoding.com/sketch -->
    <title>App Store Top Downloads Jun 2012 to Feb 2015 by Category.001</title>
    <desc>Created with Sketch.</desc>
    <defs></defs>
    <g id="Page-1" stroke="none" stroke-width="1" fill="none" fill-rule="evenodd" sketch:type="MSPage">
        <g id="App-Store-Top-Downloads-Jun-2012-to-Feb-2015-by-Category.001" sketch:type="MSLayerGroup">
            <g id="Page_1-Clipped">
                <g id="Page_1">
                    <rect id="Rectangle-path" fill="#FFFFFF" sketch:type="MSShapeGroup" x="0" y="0" width="4085" height="2763"></rect>
                    <path d="M2042,1594 L2976,1591 L2975,1543 L2971,1496 L2965,1449 L2957,1403 L2946,1358 L2934,1314 L2919,1271 L2902,1228 L2883,1187 L2863,1147 L2840,1108 L2816,1070 L2790,1034 L2762,998 L2733,965 L2702,932 L2669,902 L2635,872 L2600,845 L2564,819 L2526,795 L2487,772 L2446,752 L2405,733 L2363,716 L2319,702 L2275,689 L2230,679 L2184,671 L2137,665 L2090,661 L2042,660 L2042,1594 L2042,1594 Z" id="Shape" fill="#4572A7" sketch:type="MSShapeGroup"></path>
                    <path d="M2042,1594 L2198,2515 L2240,2507 L2281,2497 L2321,2486 L2361,2472 L2400,2457 L2437,2441 L2474,2423 L2510,2403 L2545,2382 L2579,2359 L2611,2335 L2643,2310 L2673,2283 L2702,2255 L2730,2226 L2757,2196 L2782,2165 L2806,2132 L2829,2099 L2850,2064 L2869,2029 L2887,1993 L2904,1955 L2919,1918 L2932,1879 L2944,1839 L2954,1799 L2962,1759 L2968,1718 L2973,1676 L2975,1634 L2976,1591 L2042,1594 L2042,1594 Z" id="Shape" fill="#AA4643" sketch:type="MSShapeGroup"></path>
                    <path d="M2042,1594 L1317,2182 L1358,2230 L1402,2274 L1449,2315 L1497,2352 L1548,2387 L1601,2417 L1656,2444 L1713,2468 L1770,2487 L1829,2503 L1889,2515 L1920,2520 L1950,2523 L1981,2526 L2012,2528 L2074,2528 L2105,2526 L2167,2520 L2198,2515 L2042,1594 L2042,1594 Z" id="Shape" fill="#89A54E" sketch:type="MSShapeGroup"></path>
                    <path d="M2042,1594 L1127,1405 L1118,1457 L1112,1508 L1109,1560 L1108,1612 L1111,1663 L1116,1714 L1124,1765 L1135,1815 L1148,1864 L1164,1913 L1183,1961 L1205,2008 L1229,2053 L1256,2098 L1285,2141 L1317,2182 L2042,1594 L2042,1594 Z" id="Shape" fill="#71588F" sketch:type="MSShapeGroup"></path>
                    <path d="M2042,1594 L1462,862 L1430,888 L1400,916 L1371,944 L1343,974 L1317,1005 L1292,1037 L1269,1070 L1247,1104 L1226,1139 L1207,1175 L1190,1211 L1174,1249 L1160,1287 L1147,1326 L1136,1365 L1127,1405 L2042,1594 L2042,1594 Z" id="Shape" fill="#4198AF" sketch:type="MSShapeGroup"></path>
                    <path d="M2042,1594 L2042,660 L2003,661 L1964,663 L1925,667 L1886,673 L1848,680 L1810,689 L1772,700 L1735,712 L1699,725 L1627,757 L1593,775 L1559,795 L1526,816 L1493,838 L1462,862 L2042,1594 L2042,1594 Z" id="Shape" fill="#DB843D" sketch:type="MSShapeGroup"></path>
                    <path d="M1714,2471 L1293,2558 L1255,2558 L1255,2552 L1292,2552 L1291,2552 L1712,2465 L1714,2471 L1714,2471 Z M2759,2194 L2899,2337 L2897,2336 L2933,2336 L2933,2342 L2897,2342 L2895,2341 L2755,2198 L2759,2194 L2759,2194 Z M1732,713 L1640,542 L1643,544 L1607,544 L1607,538 L1643,538 L1646,540 L1738,711 L1732,713 L1732,713 Z M1245,1106 L1109,994 L1111,995 L1075,995 L1075,989 L1111,989 L1113,990 L1249,1102 L1245,1106 L1245,1106 Z M2699,932 L2730,757 L2731,756 L2733,755 L2770,755 L2770,761 L2733,761 L2736,759 L2705,934 L2699,932 L2699,932 Z M1135,1818 L995,1816 L959,1816 L959,1810 L995,1810 L1135,1812 L1135,1818 L1135,1818 Z" id="Shape" fill="#000000" sketch:type="MSShapeGroup"></path>
                    <text id="NetworkGeneration" fill="#000000" sketch:type="MSTextLayer" font-family="Calibri" font-size="65.536" font-weight="normal">
                        <tspan x="2783" y="759">NetworkGeneration</tspan>
                    </text>
                    <text id="25%" fill="#000000" sketch:type="MSTextLayer" font-family="Calibri" font-size="65.536" font-weight="normal">
                        <tspan x="3039" y="857">25%</tspan>
                    </text>
                    <text id="DataVisualization" fill="#000000" sketch:type="MSTextLayer" font-family="Calibri" font-size="65.536" font-weight="normal">
                        <tspan x="2948" y="2340">DataVisualization</tspan>
                    </text>
                    <text id="22%" fill="#000000" sketch:type="MSTextLayer" font-family="Calibri" font-size="65.536" font-weight="normal">
                        <tspan x="3160" y="2439">22%</tspan>
                    </text>
                    <text id="GraphAnalysis" fill="#000000" sketch:type="MSTextLayer" font-family="Calibri" font-size="65.536" font-weight="normal">
                        <tspan x="780" y="2556">GraphAnalysis</tspan>
                    </text>
                    <text id="17%" fill="#000000" sketch:type="MSTextLayer" font-family="Calibri" font-size="65.536" font-weight="normal">
                        <tspan x="942" y="2654">17%</tspan>
                    </text>
                    <text id="Clustering" fill="#000000" sketch:type="MSTextLayer" font-family="Calibri" font-size="65.536" font-weight="normal">
                        <tspan x="619" y="1814">Clustering</tspan>
                    </text>
                    <text id="14%" fill="#000000" sketch:type="MSTextLayer" font-family="Calibri" font-size="65.536" font-weight="normal">
                        <tspan x="714" y="1913">14%</tspan>
                    </text>
                    <text id="OntologyAnalysis" fill="#000000" sketch:type="MSTextLayer" font-family="Calibri" font-size="65.536" font-weight="normal">
                        <tspan x="502" y="993">OntologyAnalysis</tspan>
                    </text>
                    <text id="11%" fill="#000000" sketch:type="MSTextLayer" font-family="Calibri" font-size="65.536" font-weight="normal">
                        <tspan x="713" y="1092">11%</tspan>
                    </text>
                    <text id="OnlineDataImport" fill="#000000" sketch:type="MSTextLayer" font-family="Calibri" font-size="65.536" font-weight="normal">
                        <tspan x="1004" y="542">OnlineDataImport</tspan>
                    </text>
                    <text id="11%" fill="#000000" sketch:type="MSTextLayer" font-family="Calibri" font-size="65.536" font-weight="normal">
                        <tspan x="1230" y="641">11%</tspan>
                    </text>
                    <text id="Top" fill="#000000" sketch:type="MSTextLayer" font-family="Calibri" font-size="118.784" font-weight="bold">
                        <tspan x="603" y="199">Top</tspan>
                    </text>
                    <text id="App" fill="#000000" sketch:type="MSTextLayer" font-family="Calibri" font-size="118.784" font-weight="bold">
                        <tspan x="851" y="199">App</tspan>
                    </text>
                    <text id="Store" fill="#000000" sketch:type="MSTextLayer" font-family="Calibri" font-size="118.784" font-weight="bold">
                        <tspan x="1126" y="199">Store</tspan>
                    </text>
                    <text id="Attractions" fill="#000000" sketch:type="MSTextLayer" font-family="Calibri" font-size="118.784" font-weight="bold">
                        <tspan x="1476" y="199">Attractions</tspan>
                    </text>
                    <text id="by" fill="#000000" sketch:type="MSTextLayer" font-family="Calibri" font-size="118.784" font-weight="bold">
                        <tspan x="2170" y="199">by</tspan>
                    </text>
                    <text id="Category" fill="#000000" sketch:type="MSTextLayer" font-family="Calibri" font-size="118.784" font-weight="bold">
                        <tspan x="2349" y="199">Category</tspan>
                    </text>
                    <text id="(132,791)" fill="#000000" sketch:type="MSTextLayer" font-family="Calibri" font-size="118.784" font-weight="bold">
                        <tspan x="2914" y="199">(132,791)</tspan>
                    </text>
                    <text id="(6/" fill="#000000" sketch:type="MSTextLayer" font-family="Calibri" font-size="118.784" font-weight="bold">
                        <tspan x="1124" y="376">(6/</tspan>
                    </text>
                    <text id="1/" fill="#000000" sketch:type="MSTextLayer" font-family="Calibri" font-size="118.784" font-weight="bold">
                        <tspan x="1305" y="376">1/</tspan>
                    </text>
                    <text id="2012" fill="#000000" sketch:type="MSTextLayer" font-family="Calibri" font-size="118.784" font-weight="bold">
                        <tspan x="1440" y="376">2012</tspan>
                    </text>
                    <text id="through" fill="#000000" sketch:type="MSTextLayer" font-family="Calibri" font-size="118.784" font-weight="bold">
                        <tspan x="1766" y="376">through</tspan>
                    </text>
                    <text id="2/" fill="#000000" sketch:type="MSTextLayer" font-family="Calibri" font-size="118.784" font-weight="bold">
                        <tspan x="2278" y="376">2/</tspan>
                    </text>
                    <text id="22/" fill="#000000" sketch:type="MSTextLayer" font-family="Calibri" font-size="118.784" font-weight="bold">
                        <tspan x="2414" y="376">22/</tspan>
                    </text>
                    <text id="2015)" fill="#000000" sketch:type="MSTextLayer" font-family="Calibri" font-size="118.784" font-weight="bold">
                        <tspan x="2623" y="376">2015)</tspan>
                    </text>
                </g>
            </g>
        </g>
    </g>
</svg>