<?xml version="1.0" encoding="UTF-8" standalone="no"?>
<svg width="707px" height="282px" viewBox="0 0 707 282" version="1.1" xmlns="http://www.w3.org/2000/svg" xmlns:xlink="http://www.w3.org/1999/xlink" xmlns:sketch="http://www.bohemiancoding.com/sketch/ns">
    <!-- Generator: Sketch 3.2.2 (9983) - http://www.bohemiancoding.com/sketch -->
    <title>bugs</title>
    <desc>Created with Sketch.</desc>
    <defs></defs>
    <g id="Page-1" stroke="none" stroke-width="1" fill="none" fill-rule="evenodd" sketch:type="MSPage">
        <g id="bugs" sketch:type="MSLayerGroup">
            <g id="Page-1">
                <g id="Redmine-Issues">
                    <g id="Group">
                        <text id="2011-03-30" fill="#000000" sketch:type="MSTextLayer" font-family="Helvetica" font-size="12" font-weight="normal">
                            <tspan x="0.5" y="264">2011-03-30</tspan>
                        </text>
                        <text id="2011-08-26" fill="#000000" sketch:type="MSTextLayer" font-family="Helvetica" font-size="12" font-weight="normal">
                            <tspan x="62.345" y="281">2011-08-26</tspan>
                        </text>
                        <path d="M92.845,249 L92.845,266" id="Shape" stroke="#000000" stroke-width="0.5" sketch:type="MSShapeGroup"></path>
                        <path d="M92.845,0 L92.845,249" id="Shape" stroke="#666666" stroke-dasharray="5" fill="#000000" sketch:type="MSShapeGroup"></path>
                        <text id="2012-01-23" fill="#000000" sketch:type="MSTextLayer" font-family="Helvetica" font-size="12" font-weight="normal">
                            <tspan x="123.69" y="264">2012-01-23</tspan>
                        </text>
                        <path d="M154.69,0 L154.69,249" id="Shape" stroke="#666666" stroke-dasharray="5" fill="#000000" sketch:type="MSShapeGroup"></path>
                        <text id="2012-06-21" fill="#000000" sketch:type="MSTextLayer" font-family="Helvetica" font-size="12" font-weight="normal">
                            <tspan x="185.535" y="281">2012-06-21</tspan>
                        </text>
                        <path d="M216.535,249 L216.535,266" id="Shape" stroke="#000000" stroke-width="0.5" sketch:type="MSShapeGroup"></path>
                        <path d="M216.535,0 L216.535,249" id="Shape" stroke="#666666" stroke-dasharray="5" fill="#000000" sketch:type="MSShapeGroup"></path>
                        <text id="2012-11-18" fill="#000000" sketch:type="MSTextLayer" font-family="Helvetica" font-size="12" font-weight="normal">
                            <tspan x="247.88" y="264">2012-11-18</tspan>
                        </text>
                        <path d="M278.38,0 L278.38,249" id="Shape" stroke="#666666" stroke-dasharray="5" fill="#000000" sketch:type="MSShapeGroup"></path>
                        <text id="2013-04-17" fill="#000000" sketch:type="MSTextLayer" font-family="Helvetica" font-size="12" font-weight="normal">
                            <tspan x="309.225" y="281">2013-04-17</tspan>
                        </text>
                        <path d="M340.225,249 L340.225,266" id="Shape" stroke="#000000" stroke-width="0.5" sketch:type="MSShapeGroup"></path>
                        <path d="M340.225,0 L340.225,249" id="Shape" stroke="#666666" stroke-dasharray="5" fill="#000000" sketch:type="MSShapeGroup"></path>
                        <text id="2013-09-14" fill="#000000" sketch:type="MSTextLayer" font-family="Helvetica" font-size="12" font-weight="normal">
                            <tspan x="371.07" y="264">2013-09-14</tspan>
                        </text>
                        <path d="M402.07,0 L402.07,249" id="Shape" stroke="#666666" stroke-dasharray="5" fill="#000000" sketch:type="MSShapeGroup"></path>
                        <text id="2014-02-10" fill="#000000" sketch:type="MSTextLayer" font-family="Helvetica" font-size="12" font-weight="normal">
                            <tspan x="432.915" y="281">2014-02-10</tspan>
                        </text>
                        <path d="M463.915,249 L463.915,266" id="Shape" stroke="#000000" stroke-width="0.5" sketch:type="MSShapeGroup"></path>
                        <path d="M463.915,0 L463.915,249" id="Shape" stroke="#666666" stroke-dasharray="5" fill="#000000" sketch:type="MSShapeGroup"></path>
                        <text id="2014-07-10" fill="#000000" sketch:type="MSTextLayer" font-family="Helvetica" font-size="12" font-weight="normal">
                            <tspan x="494.76" y="264">2014-07-10</tspan>
                        </text>
                        <path d="M525.76,0 L525.76,249" id="Shape" stroke="#666666" stroke-dasharray="5" fill="#000000" sketch:type="MSShapeGroup"></path>
                        <text id="2014-12-07" fill="#000000" sketch:type="MSTextLayer" font-family="Helvetica" font-size="12" font-weight="normal">
                            <tspan x="556.605" y="281">2014-12-07</tspan>
                        </text>
                        <path d="M587.605,249 L587.605,266" id="Shape" stroke="#000000" stroke-width="0.5" sketch:type="MSShapeGroup"></path>
                        <path d="M587.605,0 L587.605,249" id="Shape" stroke="#666666" stroke-dasharray="5" fill="#000000" sketch:type="MSShapeGroup"></path>
                        <text id="0" fill="#000000" sketch:type="MSTextLayer" font-family="Helvetica" font-size="12" font-weight="normal">
                            <tspan x="21" y="253">0</tspan>
                        </text>
                        <text id="266" fill="#000000" sketch:type="MSTextLayer" font-family="Helvetica" font-size="12" font-weight="normal">
                            <tspan x="7" y="229.390533">266</tspan>
                        </text>
                        <path d="M31,225.390533 L644,225.390533" id="Shape" stroke="#666666" stroke-dasharray="5" fill="#000000" sketch:type="MSShapeGroup"></path>
                        <text id="532" fill="#000000" sketch:type="MSTextLayer" font-family="Helvetica" font-size="12" font-weight="normal">
                            <tspan x="7" y="205.781065">532</tspan>
                        </text>
                        <path d="M31,201.781065 L644,201.781065" id="Shape" stroke="#666666" stroke-dasharray="5" fill="#000000" sketch:type="MSShapeGroup"></path>
                        <text id="798" fill="#000000" sketch:type="MSTextLayer" font-family="Helvetica" font-size="12" font-weight="normal">
                            <tspan x="7" y="182.171598">798</tspan>
                        </text>
                        <path d="M31,178.171598 L644,178.171598" id="Shape" stroke="#666666" stroke-dasharray="5" fill="#000000" sketch:type="MSShapeGroup"></path>
                        <text id="1064" fill="#000000" sketch:type="MSTextLayer" font-family="Helvetica" font-size="12" font-weight="normal">
                            <tspan x="1" y="158.56213">1064</tspan>
                        </text>
                        <path d="M31,154.56213 L644,154.56213" id="Shape" stroke="#666666" stroke-dasharray="5" fill="#000000" sketch:type="MSShapeGroup"></path>
                        <text id="1330" fill="#000000" sketch:type="MSTextLayer" font-family="Helvetica" font-size="12" font-weight="normal">
                            <tspan x="1" y="134.952663">1330</tspan>
                        </text>
                        <path d="M31,130.952663 L644,130.952663" id="Shape" stroke="#666666" stroke-dasharray="5" fill="#000000" sketch:type="MSShapeGroup"></path>
                        <text id="1596" fill="#000000" sketch:type="MSTextLayer" font-family="Helvetica" font-size="12" font-weight="normal">
                            <tspan x="1" y="111.343195">1596</tspan>
                        </text>
                        <path d="M31,107.343195 L644,107.343195" id="Shape" stroke="#666666" stroke-dasharray="5" fill="#000000" sketch:type="MSShapeGroup"></path>
                        <text id="1862" fill="#000000" sketch:type="MSTextLayer" font-family="Helvetica" font-size="12" font-weight="normal">
                            <tspan x="1" y="87.7337278">1862</tspan>
                        </text>
                        <path d="M31,83.7337278 L644,83.7337278" id="Shape" stroke="#666666" stroke-dasharray="5" fill="#000000" sketch:type="MSShapeGroup"></path>
                        <text id="2128" fill="#000000" sketch:type="MSTextLayer" font-family="Helvetica" font-size="12" font-weight="normal">
                            <tspan x="1" y="64.1242604">2128</tspan>
                        </text>
                        <path d="M31,60.1242604 L644,60.1242604" id="Shape" stroke="#666666" stroke-dasharray="5" fill="#000000" sketch:type="MSShapeGroup"></path>
                        <text id="2394" fill="#000000" sketch:type="MSTextLayer" font-family="Helvetica" font-size="12" font-weight="normal">
                            <tspan x="1" y="40.5147929">2394</tspan>
                        </text>
                        <path d="M31,36.5147929 L644,36.5147929" id="Shape" stroke="#666666" stroke-dasharray="5" fill="#000000" sketch:type="MSShapeGroup"></path>
                        <path d="M31,249 L31,249 L31.412754,248.911243 L42.5571128,248.911243 L42.9698669,248.822485 L48.3356692,248.822485 L48.7484233,248.733728 L59.480028,248.733728 L59.8927821,226.455621 L60.3055361,226.455621 L60.7182901,226.366864 L61.9565522,226.366864 L62.3693062,225.83432 L62.7820603,225.745562 L63.1948143,225.745562 L63.6075683,225.568047 L64.8458304,225.568047 L65.2585844,225.301775 L65.6713385,225.301775 L66.0840925,225.12426 L66.4968465,225.035503 L67.3223546,225.035503 L67.7351086,224.857988 L68.1478626,224.680473 L68.5606167,224.236686 L68.9733707,223.615385 L69.3861247,223.43787 L70.6243868,223.43787 L71.0371409,223.349112 L71.4498949,223.349112 L71.8626489,222.816568 L73.513665,222.816568 L73.9264191,222.639053 L74.3391731,222.372781 L75.9901892,222.372781 L76.4029432,222.284024 L76.8156973,222.017751 L77.2284513,221.840237 L77.6412053,221.751479 L78.0539594,221.662722 L78.8794674,221.662722 L79.2922214,221.485207 L79.7049755,221.39645 L80.1177295,221.307692 L80.5304835,220.952663 L80.9432376,220.863905 L82.1814996,220.863905 L82.5942537,220.775148 L85.0707779,220.775148 L85.4835319,220.686391 L85.8962859,220.597633 L86.3090399,220.597633 L86.721794,220.508876 L87.547302,220.508876 L87.9600561,220.420118 L88.3728101,220.065089 L88.7855641,219.443787 L89.1983181,219.35503 L91.6748423,219.35503 L92.0875964,219.266272 L92.5003504,219.088757 L94.5641205,219.088757 L94.9768746,219 L97.4533987,219 L97.8661528,218.911243 L99.5171689,218.911243 L99.9299229,218.64497 L100.342677,218.467456 L100.755431,218.378698 L103.644709,218.378698 L104.057463,218.201183 L104.882971,218.201183 L105.295725,217.934911 L105.708479,217.579882 L106.121233,217.491124 L106.533987,217.491124 L106.946741,217.402367 L107.772249,217.402367 L108.185004,216.071006 L108.597758,215.982249 L109.010512,215.982249 L109.423266,215.272189 L109.83602,215.183432 L111.074282,215.183432 L111.487036,214.91716 L111.89979,214.650888 L112.312544,214.56213 L112.725298,214.56213 L113.138052,214.473373 L114.376314,214.473373 L114.789068,214.384615 L115.614576,214.384615 L116.02733,214.295858 L116.440084,214.118343 L116.852838,214.118343 L117.265592,214.029586 L117.678346,213.674556 L118.0911,213.230769 L122.631395,213.230769 L123.044149,213.142012 L123.456903,213.142012 L123.869657,212.87574 L125.107919,212.87574 L125.520673,212.786982 L126.346181,212.786982 L126.758935,212.52071 L127.997197,212.52071 L128.409951,212.254438 L128.822705,211.988166 L129.235459,211.721893 L130.886475,211.721893 L131.299229,211.455621 L131.711983,211.366864 L132.124737,211.189349 L132.537491,210.301775 L132.950245,210.12426 L133.775753,210.12426 L134.188507,207.372781 L134.601261,207.106509 L135.426769,207.106509 L135.839523,206.840237 L136.665032,206.840237 L137.077786,206.662722 L137.49054,206.218935 L137.903294,206.130178 L138.316048,206.04142 L139.55431,206.04142 L139.967064,205.775148 L140.379818,205.686391 L145.332866,205.686391 L145.74562,205.597633 L146.158374,205.331361 L146.571128,205.331361 L146.983882,204.887574 L147.396636,204.532544 L148.222144,204.532544 L148.634898,204 L149.047652,203.733728 L149.460406,203.556213 L149.87316,203.289941 L150.285915,201.692308 L151.111423,201.692308 L151.524177,201.60355 L151.936931,201.337278 L152.349685,200.627219 L152.762439,199.650888 L153.175193,199.384615 L154.000701,199.384615 L154.413455,199.118343 L154.826209,198.674556 L155.238963,198.230769 L155.651717,197.964497 L156.064471,197.87574 L156.889979,197.87574 L157.302733,197.786982 L157.715487,197.698225 L158.128241,197.698225 L158.540995,197.52071 L159.779257,197.52071 L160.192011,197.16568 L160.604765,196.988166 L161.017519,196.810651 L161.430273,196.544379 L161.843027,196.455621 L162.668535,196.455621 L163.081289,196.100592 L163.494043,195.745562 L163.906797,195.656805 L164.319552,195.390533 L166.383322,195.390533 L166.796076,195.301775 L167.20883,195.035503 L167.621584,194.591716 L168.447092,194.591716 L168.859846,194.325444 L169.2726,194.325444 L169.685354,194.059172 L170.098108,192.994083 L170.510862,192.816568 L171.33637,192.816568 L171.749124,192.284024 L172.161878,191.840237 L172.574632,190.775148 L172.987386,190.686391 L173.40014,190.508876 L173.812894,190.508876 L174.225648,189.798817 L174.638402,189.532544 L175.051156,189.266272 L175.46391,188.289941 L175.876664,186.248521 L176.289418,186.071006 L177.940434,186.071006 L178.353189,185.893491 L178.765943,185.715976 L179.178697,185.183432 L180.004205,185.183432 L180.416959,185.094675 L180.829713,184.384615 L181.242467,184.384615 L181.655221,183.763314 L182.893483,183.763314 L183.306237,183.674556 L183.718991,183.674556 L184.131745,183.408284 L184.957253,183.408284 L185.370007,183.319527 L185.782761,183.319527 L186.195515,183.142012 L186.608269,182.786982 L187.021023,182.786982 L187.433777,182.52071 L188.672039,182.52071 L189.084793,182.343195 L189.497547,180.745562 L189.910301,180.745562 L190.323055,180.301775 L190.735809,179.946746 L191.561317,179.946746 L191.974071,179.059172 L192.386826,178.970414 L192.79958,178.615385 L193.212334,178.260355 L193.625088,177.727811 L194.450596,177.727811 L194.86335,177.372781 L195.276104,176.928994 L195.688858,175.775148 L196.101612,175.597633 L196.514366,174.976331 L197.339874,174.976331 L197.752628,174.443787 L198.165382,173.822485 L198.99089,173.822485 L199.403644,173.556213 L200.229152,173.556213 L200.641906,173.112426 L201.05466,172.579882 L201.467414,170.360947 L201.880168,170.094675 L202.292922,169.650888 L203.11843,169.650888 L203.531184,169.295858 L203.943938,168.497041 L204.356692,168.497041 L204.769446,168.053254 L205.1822,167.698225 L206.420463,167.698225 L206.833217,167.254438 L207.245971,167.076923 L207.658725,166.721893 L208.071479,166.278107 L208.896987,166.278107 L209.309741,166.100592 L209.722495,165.47929 L210.135249,164.946746 L210.548003,163.970414 L210.960757,163.43787 L211.786265,163.43787 L212.199019,163.08284 L212.611773,162.550296 L213.024527,162.106509 L213.437281,162.017751 L213.850035,160.863905 L214.675543,160.863905 L215.088297,160.775148 L215.501051,160.065089 L215.913805,159.621302 L216.326559,159.443787 L216.739313,158.911243 L217.564821,158.911243 L217.977575,158.378698 L218.390329,158.112426 L218.803083,157.846154 L219.215837,157.491124 L219.628591,156.95858 L220.4541,156.95858 L220.866854,156.071006 L221.279608,155.893491 L221.692362,155.272189 L222.105116,154.384615 L222.51787,153.763314 L222.930624,153.674556 L223.343378,153.674556 L223.756132,152.87574 L224.168886,152.16568 L224.58164,151.366864 L224.994394,151.278107 L225.407148,151.011834 L225.819902,150.923077 L226.232656,150.923077 L226.64541,150.568047 L227.058164,150.301775 L227.470918,149.857988 L227.883672,149.059172 L229.121934,149.059172 L229.534688,148.526627 L229.947442,148.260355 L230.360196,147.816568 L230.77295,147.550296 L231.185704,147.106509 L231.598458,147.106509 L232.011212,147.017751 L232.423966,146.307692 L232.83672,146.130178 L233.249474,145.597633 L233.662228,145.420118 L234.074982,145.331361 L234.487737,145.242604 L234.900491,145.242604 L235.313245,145.153846 L235.725999,144.35503 L236.138753,144.266272 L236.551507,143.64497 L236.964261,143.467456 L237.789769,143.467456 L238.202523,143.289941 L238.615277,143.112426 L239.028031,142.846154 L239.440785,142.668639 L239.853539,142.491124 L240.266293,142.491124 L240.679047,142.402367 L241.091801,142.224852 L241.504555,141.692308 L241.917309,141.248521 L242.330063,140.627219 L242.742817,140.272189 L243.981079,140.272189 L244.393833,140.005917 L244.806587,139.295858 L245.219341,138.674556 L246.870357,138.674556 L247.283111,137.964497 L247.695865,137.786982 L248.108619,137.698225 L248.521374,137.343195 L249.346882,137.343195 L249.759636,137.254438 L250.17239,136.633136 L250.585144,136.366864 L250.997898,136.011834 L251.410652,135.47929 L253.061668,135.47929 L253.474422,135.12426 L253.887176,134.769231 L254.29993,134.591716 L255.125438,134.591716 L255.538192,134.414201 L255.950946,133.792899 L256.3637,133.43787 L256.776454,133.260355 L258.840224,133.260355 L259.252978,132.905325 L259.665732,132.461538 L260.078486,132.106509 L261.316748,132.106509 L261.729502,131.662722 L262.142256,131.218935 L262.555011,131.130178 L263.793273,131.130178 L264.206027,130.863905 L264.618781,130.508876 L265.031535,130.331361 L265.444289,130.242604 L266.682551,130.242604 L267.095305,129.710059 L267.508059,129.532544 L267.920813,129.35503 L268.333567,129.35503 L268.746321,129.088757 L269.571829,129.088757 L269.984583,128.64497 L270.397337,128.64497 L270.810091,128.378698 L271.222845,128.023669 L271.635599,127.934911 L272.461107,127.934911 L272.873861,127.846154 L273.286615,127.757396 L273.699369,127.402367 L274.112123,127.313609 L275.763139,127.313609 L276.175893,126.95858 L276.588648,126.869822 L277.001402,126.692308 L277.414156,126.159763 L278.239664,126.159763 L278.652418,125.893491 L279.065172,125.627219 L279.477926,124.739645 L281.128942,124.739645 L281.541696,124.295858 L281.95445,124.029586 L282.367204,123.674556 L282.779958,123.585799 L283.192712,123.497041 L283.605466,123.497041 L284.01822,123.408284 L284.430974,123.053254 L284.843728,123.053254 L285.256482,122.87574 L285.669236,122.786982 L286.08199,122.431953 L286.907498,122.431953 L287.320252,122.343195 L287.733006,122.343195 L288.14576,121.544379 L288.971268,121.544379 L289.384022,121.366864 L289.796776,121.366864 L290.20953,121.278107 L290.622285,121.278107 L291.035039,121.100592 L291.447793,120.47929 L291.860547,120.390533 L294.337071,120.390533 L294.749825,120.035503 L295.162579,119.946746 L295.988087,119.946746 L296.400841,119.857988 L296.813595,119.769231 L299.290119,119.769231 L299.702873,119.680473 L300.115627,119.236686 L300.528381,118.881657 L302.179397,118.881657 L302.592151,118.526627 L304.243167,118.526627 L304.655922,118.43787 L305.068676,118.260355 L305.48143,118.08284 L305.894184,118.08284 L306.306938,117.639053 L307.132446,117.639053 L307.5452,117.284024 L307.957954,117.195266 L308.370708,117.017751 L308.783462,116.485207 L309.196216,116.39645 L309.60897,116.307692 L310.021724,116.307692 L310.434478,116.04142 L310.847232,115.863905 L311.259986,115.863905 L311.67274,115.775148 L312.911002,115.775148 L313.323756,115.153846 L313.73651,114.798817 L314.149264,114.532544 L314.562018,114.266272 L314.974772,114.177515 L315.80028,114.177515 L316.213034,114.088757 L316.625788,114 L317.038542,113.822485 L317.451296,113.289941 L317.86405,113.201183 L318.689559,113.201183 L319.102313,113.023669 L319.515067,112.579882 L319.927821,112.491124 L320.340575,112.136095 L320.753329,111.95858 L321.578837,111.95858 L321.991591,111.60355 L322.404345,111.514793 L322.817099,111.071006 L323.229853,110.715976 L323.642607,110.360947 L324.055361,110.272189 L324.468115,110.183432 L324.880869,110.094675 L325.293623,109.473373 L325.706377,109.207101 L326.119131,108.852071 L326.531885,108.585799 L327.357393,108.585799 L327.770147,108.497041 L328.182901,108.319527 L328.595655,107.609467 L329.008409,107.343195 L329.421163,107.254438 L329.833917,107.16568 L330.246671,107.16568 L330.659425,106.366864 L331.072179,105.83432 L331.484933,105.47929 L331.897687,105.301775 L332.310441,105.035503 L333.961458,105.035503 L334.374212,104.857988 L334.786966,104.502959 L336.025228,104.502959 L336.437982,103.881657 L336.850736,103.43787 L337.26349,103.349112 L337.676244,102.905325 L338.088998,102.639053 L338.914506,102.639053 L339.32726,102.284024 L339.740014,102.195266 L340.565522,102.195266 L340.978276,102.106509 L341.803784,102.106509 L342.216538,101.928994 L342.629292,101.840237 L343.042046,101.751479 L343.4548,101.751479 L343.867554,101.573964 L344.280308,101.573964 L344.693062,101.485207 L345.105816,101.39645 L345.51857,101.307692 L345.931324,101.307692 L346.344078,101.130178 L346.756833,100.952663 L347.582341,100.952663 L347.995095,100.775148 L348.407849,100.597633 L348.820603,100.597633 L349.233357,100.508876 L351.709881,100.508876 L352.122635,100.331361 L353.360897,100.331361 L353.773651,99.887574 L355.011913,99.887574 L355.424667,99.7988166 L356.662929,99.7988166 L357.075683,99.7100592 L357.488437,99.5325444 L357.901191,99.443787 L358.313945,99.3550296 L358.726699,99.2662722 L359.139453,99.1775148 L359.552207,98.556213 L359.964961,98.2899408 L360.377715,98.2011834 L360.79047,98.112426 L361.203224,97.3136095 L361.615978,97.3136095 L362.028732,97.2248521 L362.441486,97.1360947 L362.85424,96.8698225 L363.266994,96.1597633 L363.679748,96.0710059 L364.91801,96.0710059 L365.330764,95.9822485 L365.743518,95.8047337 L366.156272,95.4497041 L366.569026,94.9171598 L366.98178,94.739645 L367.394534,94.5621302 L367.807288,94.5621302 L368.220042,94.4733728 L369.04555,94.4733728 L369.458304,94.3846154 L369.871058,94.3846154 L370.283812,94.295858 L370.696566,94.295858 L371.10932,94.2071006 L371.522074,94.1183432 L371.934828,93.852071 L372.347582,93.852071 L372.760336,93.7633136 L373.17309,93.6745562 L373.998598,93.6745562 L374.411352,93.5857988 L374.824107,93.408284 L375.236861,93.0532544 L376.475123,93.0532544 L376.887877,92.964497 L377.300631,92.8757396 L377.713385,92.6982249 L378.126139,92.6094675 L378.538893,92.4319527 L379.777155,92.4319527 L380.189909,92.3431953 L380.602663,92.2544379 L381.015417,92.0769231 L381.428171,91.8994083 L382.253679,91.8994083 L382.666433,91.6331361 L383.079187,91.6331361 L383.491941,91.2781065 L383.904695,90.9230769 L385.555711,90.9230769 L385.968465,90.4792899 L386.381219,90.3017751 L386.793973,89.9467456 L387.206727,89.591716 L388.032235,89.591716 L388.444989,89.5029586 L388.857744,89.4142012 L389.270498,89.2366864 L389.683252,88.9704142 L390.096006,88.8816568 L390.50876,88.8816568 L390.921514,88.7928994 L391.334268,88.7928994 L391.747022,88.6153846 L392.159776,88.5266272 L392.57253,88.3491124 L392.985284,88.1715976 L394.223546,88.1715976 L394.6363,87.5502959 L395.049054,87.5502959 L395.461808,87.2840237 L395.874562,86.7514793 L396.70007,86.7514793 L397.112824,86.5739645 L397.525578,86.3964497 L397.938332,86.3964497 L398.351086,86.2189349 L400.82761,86.2189349 L401.240364,86.1301775 L401.653118,85.8639053 L402.478626,85.8639053 L402.891381,85.6863905 L403.304135,85.5976331 L403.716889,85.5088757 L404.129643,85.2426036 L405.367905,85.2426036 L405.780659,85.1538462 L406.193413,85.0650888 L406.606167,84.9763314 L407.018921,84.7100592 L407.431675,84.5325444 L408.257183,84.5325444 L408.669937,84.2662722 L409.082691,84.0887574 L409.495445,83.8224852 L409.908199,83.6449704 L410.320953,83.556213 L410.733707,83.4674556 L411.146461,83.4674556 L411.559215,83.2899408 L411.971969,83.112426 L412.384723,83.0236686 L412.797477,82.6686391 L413.210231,82.3136095 L414.861247,82.3136095 L415.274001,82.2248521 L415.686755,82.1360947 L416.099509,82.0473373 L416.925018,82.0473373 L417.337772,81.7810651 L417.750526,81.6923077 L418.16328,81.5147929 L418.576034,81.1597633 L418.988788,80.8047337 L419.401542,80.8047337 L419.814296,80.7159763 L420.22705,80.6272189 L420.639804,80.0946746 L421.052558,79.739645 L421.465312,79.3846154 L421.878066,79.2071006 L422.703574,79.2071006 L423.116328,78.7633136 L423.529082,78.3195266 L423.941836,77.7869822 L424.35459,77.4319527 L424.767344,77.3431953 L425.180098,77.2544379 L425.592852,77.2544379 L426.005606,76.8106509 L426.41836,76.5443787 L426.831114,76.1893491 L427.243868,76.0118343 L427.656622,75.9230769 L428.069376,75.9230769 L428.48213,75.8343195 L428.894884,75.3905325 L429.307638,74.9467456 L429.720392,74.7692308 L430.133146,74.147929 L430.5459,73.9704142 L430.958655,73.8816568 L431.371409,73.704142 L431.784163,72.9053254 L432.196917,72.5502959 L432.609671,72.1065089 L434.260687,72.1065089 L434.673441,71.9289941 L435.086195,71.7514793 L435.498949,71.3076923 L435.911703,70.7751479 L436.324457,70.5088757 L437.149965,70.5088757 L437.562719,70.1538462 L437.975473,69.7100592 L438.388227,69.5325444 L438.800981,68.2011834 L439.213735,67.4023669 L440.039243,67.4023669 L440.451997,66.6923077 L440.864751,66.4260355 L441.277505,65.7159763 L441.690259,65.5384615 L442.103013,65.4497041 L442.928521,65.4497041 L443.341275,65.2721893 L445.8178,65.2721893 L446.230554,65.183432 L447.056062,65.183432 L447.468816,65.0946746 L448.707078,65.0946746 L449.119832,64.9171598 L449.532586,64.3846154 L449.94534,64.2071006 L450.358094,64.1183432 L450.770848,63.7633136 L451.596356,63.7633136 L452.00911,63.4970414 L452.421864,63.3195266 L452.834618,63.1420118 L453.247372,62.964497 L454.07288,62.964497 L454.485634,62.8757396 L454.898388,62.7869822 L455.311142,62.6982249 L455.723896,62.6094675 L456.13665,61.9881657 L456.549404,61.8106509 L456.962158,61.7218935 L457.374912,61.7218935 L457.787666,61.5443787 L458.20042,61.4556213 L458.613174,61.3668639 L459.025929,61.2781065 L459.438683,61.1893491 L460.264191,61.1893491 L460.676945,60.9230769 L461.089699,60.8343195 L461.502453,60.6568047 L461.915207,60.4792899 L462.327961,60.1242604 L463.153469,60.1242604 L463.566223,59.9467456 L463.978977,59.8579882 L464.391731,59.3254438 L464.804485,58.8816568 L465.217239,58.7928994 L465.629993,58.704142 L466.042747,58.704142 L466.455501,58.6153846 L466.868255,58.4378698 L467.281009,58.3491124 L467.693763,57.9053254 L468.106517,57.816568 L468.519271,57.7278107 L468.932025,57.7278107 L469.344779,57.5502959 L469.757533,57.3727811 L470.170287,57.2840237 L470.583041,57.1952663 L471.408549,57.1952663 L471.821303,57.1065089 L472.234057,57.1065089 L472.646811,56.8402367 L473.059566,56.4852071 L473.885074,56.4852071 L474.297828,56.3964497 L474.710582,56.3964497 L475.123336,56.3076923 L475.948844,56.3076923 L476.361598,56.2189349 L476.774352,56.2189349 L477.187106,56.1301775 L477.59986,56.0414201 L478.425368,56.0414201 L478.838122,55.8639053 L479.250876,55.7751479 L479.66363,55.5088757 L480.489138,55.5088757 L480.901892,55.4201183 L481.314646,55.3313609 L481.7274,55.1538462 L482.140154,55.0650888 L482.552908,54.887574 L483.378416,54.887574 L483.79117,54.7988166 L484.203924,54.6213018 L484.616678,54.6213018 L485.029432,54.2662722 L485.442186,54.0887574 L486.267694,54.0887574 L486.680448,54 L487.093203,54 L487.505957,53.6449704 L487.918711,53.6449704 L488.331465,53.556213 L488.744219,53.556213 L489.156973,53.3786982 L489.569727,53.0236686 L489.982481,53.0236686 L490.395235,52.9349112 L490.807989,52.8461538 L492.459005,52.8461538 L492.871759,52.6686391 L493.284513,52.5798817 L493.697267,52.4911243 L494.110021,52.1360947 L494.522775,52.0473373 L494.935529,52.0473373 L495.348283,51.8698225 L495.761037,51.5147929 L496.173791,51.3372781 L496.586545,50.9822485 L496.999299,50.7159763 L497.824807,50.7159763 L498.237561,50.3609467 L499.063069,50.3609467 L499.475823,50.0946746 L499.888577,49.9171598 L500.714085,49.9171598 L501.12684,49.8284024 L501.539594,49.8284024 L501.952348,49.739645 L502.365102,49.6508876 L502.777856,49.5621302 L503.19061,49.4733728 L504.428872,49.4733728 L504.841626,49.295858 L505.25438,49.295858 L505.667134,49.2071006 L506.905396,49.2071006 L507.31815,49.0295858 L507.730904,49.0295858 L508.143658,48.9408284 L508.556412,48.6745562 L509.38192,48.6745562 L509.794674,48.5857988 L510.207428,48.4970414 L510.620182,48.4970414 L511.032936,48.3195266 L511.858444,48.3195266 L512.271198,48.2307692 L513.096706,48.2307692 L513.50946,48.0532544 L513.922214,47.964497 L514.334968,47.8757396 L515.160477,47.8757396 L515.573231,47.6982249 L515.985985,47.5207101 L516.398739,47.4319527 L516.811493,47.3431953 L517.224247,47.3431953 L517.637001,47.2544379 L518.049755,47.2544379 L518.462509,47.0769231 L518.875263,46.9881657 L519.288017,46.9881657 L519.700771,46.7218935 L520.526279,46.7218935 L520.939033,46.4556213 L521.351787,46.3668639 L521.764541,46.2781065 L522.177295,46.2781065 L522.590049,46.1893491 L523.828311,46.1893491 L524.241065,46.1005917 L525.066573,46.1005917 L525.479327,45.9230769 L525.892081,45.8343195 L527.543097,45.8343195 L527.955851,45.6568047 L528.368605,45.3905325 L528.781359,45.3017751 L529.606868,45.3017751 L530.019622,45.2130178 L530.432376,45.1242604 L530.84513,44.8579882 L531.257884,44.591716 L531.670638,44.5029586 L533.321654,44.5029586 L533.734408,44.4142012 L534.97267,44.4142012 L535.385424,44.3254438 L536.210932,44.3254438 L536.623686,44.2366864 L537.03644,43.9704142 L537.449194,43.8816568 L538.274702,43.8816568 L538.687456,43.7928994 L539.10021,43.5266272 L539.925718,43.5266272 L540.338472,43.1715976 L541.16398,43.1715976 L541.576734,42.7278107 L541.989488,42.5502959 L542.402242,42.4615385 L542.814996,42.3727811 L543.227751,42.2840237 L544.053259,42.2840237 L544.466013,42.1065089 L544.878767,42.1065089 L545.291521,42.0177515 L545.704275,41.9289941 L546.117029,41.9289941 L546.529783,41.8402367 L546.942537,41.8402367 L547.355291,41.5739645 L548.180799,41.5739645 L548.593553,41.4852071 L549.006307,41.3076923 L549.831815,41.3076923 L550.244569,41.1301775 L550.657323,40.9526627 L551.070077,40.7751479 L551.482831,40.7751479 L551.895585,40.6863905 L552.721093,40.6863905 L553.133847,40.5976331 L553.546601,40.4201183 L553.959355,40.2426036 L554.372109,40.2426036 L554.784863,40.0650888 L555.197617,40.0650888 L555.610371,39.9763314 L556.023125,39.887574 L556.435879,39.443787 L556.848633,39.0887574 L557.261388,39.0887574 L557.674142,38.8224852 L558.49965,38.8224852 L558.912404,38.556213 L559.325158,38.4674556 L559.737912,38.2899408 L560.150666,38.2899408 L560.56342,38.2011834 L560.976174,38.112426 L561.388928,38.112426 L561.801682,38.0236686 L562.214436,37.9349112 L562.62719,37.6686391 L563.039944,37.4911243 L563.452698,37.0473373 L563.865452,36.9585799 L564.278206,36.9585799 L564.69096,36.8698225 L565.103714,36.6923077 L565.516468,36.5147929 L565.929222,36.4260355 L566.341976,36.0710059 L566.75473,35.9822485 L567.167484,35.9822485 L567.580238,35.8934911 L567.992992,35.8934911 L568.405746,35.8047337 L568.8185,35.2721893 L569.231254,35.0059172 L569.644008,35.0059172 L570.056762,34.9171598 L570.469516,34.9171598 L570.88227,34.6508876 L571.295025,34.295858 L571.707779,34.2071006 L572.120533,34.2071006 L572.533287,34.1183432 L573.358795,34.1183432 L573.771549,34.0295858 L574.184303,33.9408284 L574.597057,33.852071 L575.009811,33.7633136 L575.835319,33.7633136 L576.248073,33.5857988 L576.660827,33.408284 L577.073581,33.3195266 L577.486335,33.1420118 L577.899089,32.964497 L579.137351,32.964497 L579.550105,32.8757396 L579.962859,32.7869822 L580.375613,32.6982249 L582.439383,32.6982249 L582.852137,32.2544379 L583.264891,32.2544379 L583.677645,32.1656805 L584.090399,31.8994083 L584.503153,31.8994083 L584.915907,31.8106509 L585.741416,31.8106509 L586.15417,31.6331361 L586.566924,31.5443787 L586.979678,31.4556213 L587.392432,31.3668639 L587.805186,31.1893491 L588.21794,30.6568047 L588.630694,30.5680473 L589.043448,30.4792899 L589.456202,30.3017751 L590.28171,30.3017751 L590.694464,30.2130178 L591.107218,30.1242604 L591.519972,30.1242604 L591.932726,30.035503 L592.34548,29.9467456 L592.758234,29.9467456 L593.170988,29.8579882 L598.53679,29.8579882 L598.949544,29.7692308 L599.362299,29.591716 L599.775053,29.4142012 L600.187807,29.3254438 L600.600561,29.147929 L601.013315,29.0591716 L601.426069,28.8816568 L602.251577,28.8816568 L602.664331,28.7928994 L603.077085,28.1715976 L603.489839,27.9053254 L603.902593,27.7278107 L605.140855,27.7278107 L605.553609,27.4615385 L605.966363,26.9289941 L606.379117,26.8402367 L606.791871,26.8402367 L607.204625,26.7514793 L609.268395,26.7514793 L609.681149,26.5739645 L610.506657,26.5739645 L610.919411,26.3964497 L611.332165,26.3076923 L611.744919,26.1301775 L612.157673,25.8639053 L612.570427,25.5976331 L613.395936,25.5976331 L613.80869,25.2426036 L614.221444,25.1538462 L614.634198,25.1538462 L615.046952,24.9763314 L617.110722,24.9763314 L617.523476,24.7988166 L617.93623,24.1775148 L618.761738,24.1775148 L619.174492,24.0887574 L619.587246,24.0887574 L620,24 L620,249 L31,249 L31,249 Z" id="Shape" fill-opacity="0.2" fill="#CC0000" sketch:type="MSShapeGroup"></path>
                        <path d="M31,249 L31,249 L31.412754,248.911243 L42.5571128,248.911243 L42.9698669,248.822485 L48.3356692,248.822485 L48.7484233,248.733728 L59.480028,248.733728 L59.8927821,226.455621 L60.3055361,226.455621 L60.7182901,226.366864 L61.9565522,226.366864 L62.3693062,225.83432 L62.7820603,225.745562 L63.1948143,225.745562 L63.6075683,225.568047 L64.8458304,225.568047 L65.2585844,225.301775 L65.6713385,225.301775 L66.0840925,225.12426 L66.4968465,225.035503 L67.3223546,225.035503 L67.7351086,224.857988 L68.1478626,224.680473 L68.5606167,224.236686 L68.9733707,223.615385 L69.3861247,223.43787 L70.6243868,223.43787 L71.0371409,223.349112 L71.4498949,223.349112 L71.8626489,222.816568 L73.513665,222.816568 L73.9264191,222.639053 L74.3391731,222.372781 L75.9901892,222.372781 L76.4029432,222.284024 L76.8156973,222.017751 L77.2284513,221.840237 L77.6412053,221.751479 L78.0539594,221.662722 L78.8794674,221.662722 L79.2922214,221.485207 L79.7049755,221.39645 L80.1177295,221.307692 L80.5304835,220.952663 L80.9432376,220.863905 L82.1814996,220.863905 L82.5942537,220.775148 L85.0707779,220.775148 L85.4835319,220.686391 L85.8962859,220.597633 L86.3090399,220.597633 L86.721794,220.508876 L87.547302,220.508876 L87.9600561,220.420118 L88.3728101,220.065089 L88.7855641,219.443787 L89.1983181,219.35503 L91.6748423,219.35503 L92.0875964,219.266272 L92.5003504,219.088757 L94.5641205,219.088757 L94.9768746,219 L97.4533987,219 L97.8661528,218.911243 L99.5171689,218.911243 L99.9299229,218.64497 L100.342677,218.467456 L100.755431,218.378698 L103.644709,218.378698 L104.057463,218.201183 L104.882971,218.201183 L105.295725,217.934911 L105.708479,217.579882 L106.121233,217.491124 L106.533987,217.491124 L106.946741,217.402367 L107.772249,217.402367 L108.185004,216.071006 L108.597758,215.982249 L109.010512,215.982249 L109.423266,215.272189 L109.83602,215.183432 L111.074282,215.183432 L111.487036,214.91716 L111.89979,214.650888 L112.312544,214.56213 L112.725298,214.56213 L113.138052,214.473373 L114.376314,214.473373 L114.789068,214.384615 L115.614576,214.384615 L116.02733,214.295858 L116.440084,214.118343 L116.852838,214.118343 L117.265592,214.029586 L117.678346,213.674556 L118.0911,213.230769 L122.631395,213.230769 L123.044149,213.142012 L123.456903,213.142012 L123.869657,212.87574 L125.107919,212.87574 L125.520673,212.786982 L126.346181,212.786982 L126.758935,212.52071 L127.997197,212.52071 L128.409951,212.254438 L128.822705,211.988166 L129.235459,211.721893 L130.886475,211.721893 L131.299229,211.455621 L131.711983,211.366864 L132.124737,211.189349 L132.537491,210.301775 L132.950245,210.12426 L133.775753,210.12426 L134.188507,207.372781 L134.601261,207.106509 L135.426769,207.106509 L135.839523,206.840237 L136.665032,206.840237 L137.077786,206.662722 L137.49054,206.218935 L137.903294,206.130178 L138.316048,206.04142 L139.55431,206.04142 L139.967064,205.775148 L140.379818,205.686391 L145.332866,205.686391 L145.74562,205.597633 L146.158374,205.331361 L146.571128,205.331361 L146.983882,204.887574 L147.396636,204.532544 L148.222144,204.532544 L148.634898,204 L149.047652,203.733728 L149.460406,203.556213 L149.87316,203.289941 L150.285915,201.692308 L151.111423,201.692308 L151.524177,201.60355 L151.936931,201.337278 L152.349685,200.627219 L152.762439,199.650888 L153.175193,199.384615 L154.000701,199.384615 L154.413455,199.118343 L154.826209,198.674556 L155.238963,198.230769 L155.651717,197.964497 L156.064471,197.87574 L156.889979,197.87574 L157.302733,197.786982 L157.715487,197.698225 L158.128241,197.698225 L158.540995,197.52071 L159.779257,197.52071 L160.192011,197.16568 L160.604765,196.988166 L161.017519,196.810651 L161.430273,196.544379 L161.843027,196.455621 L162.668535,196.455621 L163.081289,196.100592 L163.494043,195.745562 L163.906797,195.656805 L164.319552,195.390533 L166.383322,195.390533 L166.796076,195.301775 L167.20883,195.035503 L167.621584,194.591716 L168.447092,194.591716 L168.859846,194.325444 L169.2726,194.325444 L169.685354,194.059172 L170.098108,192.994083 L170.510862,192.816568 L171.33637,192.816568 L171.749124,192.284024 L172.161878,191.840237 L172.574632,190.775148 L172.987386,190.686391 L173.40014,190.508876 L173.812894,190.508876 L174.225648,189.798817 L174.638402,189.532544 L175.051156,189.266272 L175.46391,188.289941 L175.876664,186.248521 L176.289418,186.071006 L177.940434,186.071006 L178.353189,185.893491 L178.765943,185.715976 L179.178697,185.183432 L180.004205,185.183432 L180.416959,185.094675 L180.829713,184.384615 L181.242467,184.384615 L181.655221,183.763314 L182.893483,183.763314 L183.306237,183.674556 L183.718991,183.674556 L184.131745,183.408284 L184.957253,183.408284 L185.370007,183.319527 L185.782761,183.319527 L186.195515,183.142012 L186.608269,182.786982 L187.021023,182.786982 L187.433777,182.52071 L188.672039,182.52071 L189.084793,182.343195 L189.497547,180.745562 L189.910301,180.745562 L190.323055,180.301775 L190.735809,179.946746 L191.561317,179.946746 L191.974071,179.059172 L192.386826,178.970414 L192.79958,178.615385 L193.212334,178.260355 L193.625088,177.727811 L194.450596,177.727811 L194.86335,177.372781 L195.276104,176.928994 L195.688858,175.775148 L196.101612,175.597633 L196.514366,174.976331 L197.339874,174.976331 L197.752628,174.443787 L198.165382,173.822485 L198.99089,173.822485 L199.403644,173.556213 L200.229152,173.556213 L200.641906,173.112426 L201.05466,172.579882 L201.467414,170.360947 L201.880168,170.094675 L202.292922,169.650888 L203.11843,169.650888 L203.531184,169.295858 L203.943938,168.497041 L204.356692,168.497041 L204.769446,168.053254 L205.1822,167.698225 L206.420463,167.698225 L206.833217,167.254438 L207.245971,167.076923 L207.658725,166.721893 L208.071479,166.278107 L208.896987,166.278107 L209.309741,166.100592 L209.722495,165.47929 L210.135249,164.946746 L210.548003,163.970414 L210.960757,163.43787 L211.786265,163.43787 L212.199019,163.08284 L212.611773,162.550296 L213.024527,162.106509 L213.437281,162.017751 L213.850035,160.863905 L214.675543,160.863905 L215.088297,160.775148 L215.501051,160.065089 L215.913805,159.621302 L216.326559,159.443787 L216.739313,158.911243 L217.564821,158.911243 L217.977575,158.378698 L218.390329,158.112426 L218.803083,157.846154 L219.215837,157.491124 L219.628591,156.95858 L220.4541,156.95858 L220.866854,156.071006 L221.279608,155.893491 L221.692362,155.272189 L222.105116,154.384615 L222.51787,153.763314 L222.930624,153.674556 L223.343378,153.674556 L223.756132,152.87574 L224.168886,152.16568 L224.58164,151.366864 L224.994394,151.278107 L225.407148,151.011834 L225.819902,150.923077 L226.232656,150.923077 L226.64541,150.568047 L227.058164,150.301775 L227.470918,149.857988 L227.883672,149.059172 L229.121934,149.059172 L229.534688,148.526627 L229.947442,148.260355 L230.360196,147.816568 L230.77295,147.550296 L231.185704,147.106509 L231.598458,147.106509 L232.011212,147.017751 L232.423966,146.307692 L232.83672,146.130178 L233.249474,145.597633 L233.662228,145.420118 L234.074982,145.331361 L234.487737,145.242604 L234.900491,145.242604 L235.313245,145.153846 L235.725999,144.35503 L236.138753,144.266272 L236.551507,143.64497 L236.964261,143.467456 L237.789769,143.467456 L238.202523,143.289941 L238.615277,143.112426 L239.028031,142.846154 L239.440785,142.668639 L239.853539,142.491124 L240.266293,142.491124 L240.679047,142.402367 L241.091801,142.224852 L241.504555,141.692308 L241.917309,141.248521 L242.330063,140.627219 L242.742817,140.272189 L243.981079,140.272189 L244.393833,140.005917 L244.806587,139.295858 L245.219341,138.674556 L246.870357,138.674556 L247.283111,137.964497 L247.695865,137.786982 L248.108619,137.698225 L248.521374,137.343195 L249.346882,137.343195 L249.759636,137.254438 L250.17239,136.633136 L250.585144,136.366864 L250.997898,136.011834 L251.410652,135.47929 L253.061668,135.47929 L253.474422,135.12426 L253.887176,134.769231 L254.29993,134.591716 L255.125438,134.591716 L255.538192,134.414201 L255.950946,133.792899 L256.3637,133.43787 L256.776454,133.260355 L258.840224,133.260355 L259.252978,132.905325 L259.665732,132.461538 L260.078486,132.106509 L261.316748,132.106509 L261.729502,131.662722 L262.142256,131.218935 L262.555011,131.130178 L263.793273,131.130178 L264.206027,130.863905 L264.618781,130.508876 L265.031535,130.331361 L265.444289,130.242604 L266.682551,130.242604 L267.095305,129.710059 L267.508059,129.532544 L267.920813,129.35503 L268.333567,129.35503 L268.746321,129.088757 L269.571829,129.088757 L269.984583,128.64497 L270.397337,128.64497 L270.810091,128.378698 L271.222845,128.023669 L271.635599,127.934911 L272.461107,127.934911 L272.873861,127.846154 L273.286615,127.757396 L273.699369,127.402367 L274.112123,127.313609 L275.763139,127.313609 L276.175893,126.95858 L276.588648,126.869822 L277.001402,126.692308 L277.414156,126.159763 L278.239664,126.159763 L278.652418,125.893491 L279.065172,125.627219 L279.477926,124.739645 L281.128942,124.739645 L281.541696,124.295858 L281.95445,124.029586 L282.367204,123.674556 L282.779958,123.585799 L283.192712,123.497041 L283.605466,123.497041 L284.01822,123.408284 L284.430974,123.053254 L284.843728,123.053254 L285.256482,122.87574 L285.669236,122.786982 L286.08199,122.431953 L286.907498,122.431953 L287.320252,122.343195 L287.733006,122.343195 L288.14576,121.544379 L288.971268,121.544379 L289.384022,121.366864 L289.796776,121.366864 L290.20953,121.278107 L290.622285,121.278107 L291.035039,121.100592 L291.447793,120.47929 L291.860547,120.390533 L294.337071,120.390533 L294.749825,120.035503 L295.162579,119.946746 L295.988087,119.946746 L296.400841,119.857988 L296.813595,119.769231 L299.290119,119.769231 L299.702873,119.680473 L300.115627,119.236686 L300.528381,118.881657 L302.179397,118.881657 L302.592151,118.526627 L304.243167,118.526627 L304.655922,118.43787 L305.068676,118.260355 L305.48143,118.08284 L305.894184,118.08284 L306.306938,117.639053 L307.132446,117.639053 L307.5452,117.284024 L307.957954,117.195266 L308.370708,117.017751 L308.783462,116.485207 L309.196216,116.39645 L309.60897,116.307692 L310.021724,116.307692 L310.434478,116.04142 L310.847232,115.863905 L311.259986,115.863905 L311.67274,115.775148 L312.911002,115.775148 L313.323756,115.153846 L313.73651,114.798817 L314.149264,114.532544 L314.562018,114.266272 L314.974772,114.177515 L315.80028,114.177515 L316.213034,114.088757 L316.625788,114 L317.038542,113.822485 L317.451296,113.289941 L317.86405,113.201183 L318.689559,113.201183 L319.102313,113.023669 L319.515067,112.579882 L319.927821,112.491124 L320.340575,112.136095 L320.753329,111.95858 L321.578837,111.95858 L321.991591,111.60355 L322.404345,111.514793 L322.817099,111.071006 L323.229853,110.715976 L323.642607,110.360947 L324.055361,110.272189 L324.468115,110.183432 L324.880869,110.094675 L325.293623,109.473373 L325.706377,109.207101 L326.119131,108.852071 L326.531885,108.585799 L327.357393,108.585799 L327.770147,108.497041 L328.182901,108.319527 L328.595655,107.609467 L329.008409,107.343195 L329.421163,107.254438 L329.833917,107.16568 L330.246671,107.16568 L330.659425,106.366864 L331.072179,105.83432 L331.484933,105.47929 L331.897687,105.301775 L332.310441,105.035503 L333.961458,105.035503 L334.374212,104.857988 L334.786966,104.502959 L336.025228,104.502959 L336.437982,103.881657 L336.850736,103.43787 L337.26349,103.349112 L337.676244,102.905325 L338.088998,102.639053 L338.914506,102.639053 L339.32726,102.284024 L339.740014,102.195266 L340.565522,102.195266 L340.978276,102.106509 L341.803784,102.106509 L342.216538,101.928994 L342.629292,101.840237 L343.042046,101.751479 L343.4548,101.751479 L343.867554,101.573964 L344.280308,101.573964 L344.693062,101.485207 L345.105816,101.39645 L345.51857,101.307692 L345.931324,101.307692 L346.344078,101.130178 L346.756833,100.952663 L347.582341,100.952663 L347.995095,100.775148 L348.407849,100.597633 L348.820603,100.597633 L349.233357,100.508876 L351.709881,100.508876 L352.122635,100.331361 L353.360897,100.331361 L353.773651,99.887574 L355.011913,99.887574 L355.424667,99.7988166 L356.662929,99.7988166 L357.075683,99.7100592 L357.488437,99.5325444 L357.901191,99.443787 L358.313945,99.3550296 L358.726699,99.2662722 L359.139453,99.1775148 L359.552207,98.556213 L359.964961,98.2899408 L360.377715,98.2011834 L360.79047,98.112426 L361.203224,97.3136095 L361.615978,97.3136095 L362.028732,97.2248521 L362.441486,97.1360947 L362.85424,96.8698225 L363.266994,96.1597633 L363.679748,96.0710059 L364.91801,96.0710059 L365.330764,95.9822485 L365.743518,95.8047337 L366.156272,95.4497041 L366.569026,94.9171598 L366.98178,94.739645 L367.394534,94.5621302 L367.807288,94.5621302 L368.220042,94.4733728 L369.04555,94.4733728 L369.458304,94.3846154 L369.871058,94.3846154 L370.283812,94.295858 L370.696566,94.295858 L371.10932,94.2071006 L371.522074,94.1183432 L371.934828,93.852071 L372.347582,93.852071 L372.760336,93.7633136 L373.17309,93.6745562 L373.998598,93.6745562 L374.411352,93.5857988 L374.824107,93.408284 L375.236861,93.0532544 L376.475123,93.0532544 L376.887877,92.964497 L377.300631,92.8757396 L377.713385,92.6982249 L378.126139,92.6094675 L378.538893,92.4319527 L379.777155,92.4319527 L380.189909,92.3431953 L380.602663,92.2544379 L381.015417,92.0769231 L381.428171,91.8994083 L382.253679,91.8994083 L382.666433,91.6331361 L383.079187,91.6331361 L383.491941,91.2781065 L383.904695,90.9230769 L385.555711,90.9230769 L385.968465,90.4792899 L386.381219,90.3017751 L386.793973,89.9467456 L387.206727,89.591716 L388.032235,89.591716 L388.444989,89.5029586 L388.857744,89.4142012 L389.270498,89.2366864 L389.683252,88.9704142 L390.096006,88.8816568 L390.50876,88.8816568 L390.921514,88.7928994 L391.334268,88.7928994 L391.747022,88.6153846 L392.159776,88.5266272 L392.57253,88.3491124 L392.985284,88.1715976 L394.223546,88.1715976 L394.6363,87.5502959 L395.049054,87.5502959 L395.461808,87.2840237 L395.874562,86.7514793 L396.70007,86.7514793 L397.112824,86.5739645 L397.525578,86.3964497 L397.938332,86.3964497 L398.351086,86.2189349 L400.82761,86.2189349 L401.240364,86.1301775 L401.653118,85.8639053 L402.478626,85.8639053 L402.891381,85.6863905 L403.304135,85.5976331 L403.716889,85.5088757 L404.129643,85.2426036 L405.367905,85.2426036 L405.780659,85.1538462 L406.193413,85.0650888 L406.606167,84.9763314 L407.018921,84.7100592 L407.431675,84.5325444 L408.257183,84.5325444 L408.669937,84.2662722 L409.082691,84.0887574 L409.495445,83.8224852 L409.908199,83.6449704 L410.320953,83.556213 L410.733707,83.4674556 L411.146461,83.4674556 L411.559215,83.2899408 L411.971969,83.112426 L412.384723,83.0236686 L412.797477,82.6686391 L413.210231,82.3136095 L414.861247,82.3136095 L415.274001,82.2248521 L415.686755,82.1360947 L416.099509,82.0473373 L416.925018,82.0473373 L417.337772,81.7810651 L417.750526,81.6923077 L418.16328,81.5147929 L418.576034,81.1597633 L418.988788,80.8047337 L419.401542,80.8047337 L419.814296,80.7159763 L420.22705,80.6272189 L420.639804,80.0946746 L421.052558,79.739645 L421.465312,79.3846154 L421.878066,79.2071006 L422.703574,79.2071006 L423.116328,78.7633136 L423.529082,78.3195266 L423.941836,77.7869822 L424.35459,77.4319527 L424.767344,77.3431953 L425.180098,77.2544379 L425.592852,77.2544379 L426.005606,76.8106509 L426.41836,76.5443787 L426.831114,76.1893491 L427.243868,76.0118343 L427.656622,75.9230769 L428.069376,75.9230769 L428.48213,75.8343195 L428.894884,75.3905325 L429.307638,74.9467456 L429.720392,74.7692308 L430.133146,74.147929 L430.5459,73.9704142 L430.958655,73.8816568 L431.371409,73.704142 L431.784163,72.9053254 L432.196917,72.5502959 L432.609671,72.1065089 L434.260687,72.1065089 L434.673441,71.9289941 L435.086195,71.7514793 L435.498949,71.3076923 L435.911703,70.7751479 L436.324457,70.5088757 L437.149965,70.5088757 L437.562719,70.1538462 L437.975473,69.7100592 L438.388227,69.5325444 L438.800981,68.2011834 L439.213735,67.4023669 L440.039243,67.4023669 L440.451997,66.6923077 L440.864751,66.4260355 L441.277505,65.7159763 L441.690259,65.5384615 L442.103013,65.4497041 L442.928521,65.4497041 L443.341275,65.2721893 L445.8178,65.2721893 L446.230554,65.183432 L447.056062,65.183432 L447.468816,65.0946746 L448.707078,65.0946746 L449.119832,64.9171598 L449.532586,64.3846154 L449.94534,64.2071006 L450.358094,64.1183432 L450.770848,63.7633136 L451.596356,63.7633136 L452.00911,63.4970414 L452.421864,63.3195266 L452.834618,63.1420118 L453.247372,62.964497 L454.07288,62.964497 L454.485634,62.8757396 L454.898388,62.7869822 L455.311142,62.6982249 L455.723896,62.6094675 L456.13665,61.9881657 L456.549404,61.8106509 L456.962158,61.7218935 L457.374912,61.7218935 L457.787666,61.5443787 L458.20042,61.4556213 L458.613174,61.3668639 L459.025929,61.2781065 L459.438683,61.1893491 L460.264191,61.1893491 L460.676945,60.9230769 L461.089699,60.8343195 L461.502453,60.6568047 L461.915207,60.4792899 L462.327961,60.1242604 L463.153469,60.1242604 L463.566223,59.9467456 L463.978977,59.8579882 L464.391731,59.3254438 L464.804485,58.8816568 L465.217239,58.7928994 L465.629993,58.704142 L466.042747,58.704142 L466.455501,58.6153846 L466.868255,58.4378698 L467.281009,58.3491124 L467.693763,57.9053254 L468.106517,57.816568 L468.519271,57.7278107 L468.932025,57.7278107 L469.344779,57.5502959 L469.757533,57.3727811 L470.170287,57.2840237 L470.583041,57.1952663 L471.408549,57.1952663 L471.821303,57.1065089 L472.234057,57.1065089 L472.646811,56.8402367 L473.059566,56.4852071 L473.885074,56.4852071 L474.297828,56.3964497 L474.710582,56.3964497 L475.123336,56.3076923 L475.948844,56.3076923 L476.361598,56.2189349 L476.774352,56.2189349 L477.187106,56.1301775 L477.59986,56.0414201 L478.425368,56.0414201 L478.838122,55.8639053 L479.250876,55.7751479 L479.66363,55.5088757 L480.489138,55.5088757 L480.901892,55.4201183 L481.314646,55.3313609 L481.7274,55.1538462 L482.140154,55.0650888 L482.552908,54.887574 L483.378416,54.887574 L483.79117,54.7988166 L484.203924,54.6213018 L484.616678,54.6213018 L485.029432,54.2662722 L485.442186,54.0887574 L486.267694,54.0887574 L486.680448,54 L487.093203,54 L487.505957,53.6449704 L487.918711,53.6449704 L488.331465,53.556213 L488.744219,53.556213 L489.156973,53.3786982 L489.569727,53.0236686 L489.982481,53.0236686 L490.395235,52.9349112 L490.807989,52.8461538 L492.459005,52.8461538 L492.871759,52.6686391 L493.284513,52.5798817 L493.697267,52.4911243 L494.110021,52.1360947 L494.522775,52.0473373 L494.935529,52.0473373 L495.348283,51.8698225 L495.761037,51.5147929 L496.173791,51.3372781 L496.586545,50.9822485 L496.999299,50.7159763 L497.824807,50.7159763 L498.237561,50.3609467 L499.063069,50.3609467 L499.475823,50.0946746 L499.888577,49.9171598 L500.714085,49.9171598 L501.12684,49.8284024 L501.539594,49.8284024 L501.952348,49.739645 L502.365102,49.6508876 L502.777856,49.5621302 L503.19061,49.4733728 L504.428872,49.4733728 L504.841626,49.295858 L505.25438,49.295858 L505.667134,49.2071006 L506.905396,49.2071006 L507.31815,49.0295858 L507.730904,49.0295858 L508.143658,48.9408284 L508.556412,48.6745562 L509.38192,48.6745562 L509.794674,48.5857988 L510.207428,48.4970414 L510.620182,48.4970414 L511.032936,48.3195266 L511.858444,48.3195266 L512.271198,48.2307692 L513.096706,48.2307692 L513.50946,48.0532544 L513.922214,47.964497 L514.334968,47.8757396 L515.160477,47.8757396 L515.573231,47.6982249 L515.985985,47.5207101 L516.398739,47.4319527 L516.811493,47.3431953 L517.224247,47.3431953 L517.637001,47.2544379 L518.049755,47.2544379 L518.462509,47.0769231 L518.875263,46.9881657 L519.288017,46.9881657 L519.700771,46.7218935 L520.526279,46.7218935 L520.939033,46.4556213 L521.351787,46.3668639 L521.764541,46.2781065 L522.177295,46.2781065 L522.590049,46.1893491 L523.828311,46.1893491 L524.241065,46.1005917 L525.066573,46.1005917 L525.479327,45.9230769 L525.892081,45.8343195 L527.543097,45.8343195 L527.955851,45.6568047 L528.368605,45.3905325 L528.781359,45.3017751 L529.606868,45.3017751 L530.019622,45.2130178 L530.432376,45.1242604 L530.84513,44.8579882 L531.257884,44.591716 L531.670638,44.5029586 L533.321654,44.5029586 L533.734408,44.4142012 L534.97267,44.4142012 L535.385424,44.3254438 L536.210932,44.3254438 L536.623686,44.2366864 L537.03644,43.9704142 L537.449194,43.8816568 L538.274702,43.8816568 L538.687456,43.7928994 L539.10021,43.5266272 L539.925718,43.5266272 L540.338472,43.1715976 L541.16398,43.1715976 L541.576734,42.7278107 L541.989488,42.5502959 L542.402242,42.4615385 L542.814996,42.3727811 L543.227751,42.2840237 L544.053259,42.2840237 L544.466013,42.1065089 L544.878767,42.1065089 L545.291521,42.0177515 L545.704275,41.9289941 L546.117029,41.9289941 L546.529783,41.8402367 L546.942537,41.8402367 L547.355291,41.5739645 L548.180799,41.5739645 L548.593553,41.4852071 L549.006307,41.3076923 L549.831815,41.3076923 L550.244569,41.1301775 L550.657323,40.9526627 L551.070077,40.7751479 L551.482831,40.7751479 L551.895585,40.6863905 L552.721093,40.6863905 L553.133847,40.5976331 L553.546601,40.4201183 L553.959355,40.2426036 L554.372109,40.2426036 L554.784863,40.0650888 L555.197617,40.0650888 L555.610371,39.9763314 L556.023125,39.887574 L556.435879,39.443787 L556.848633,39.0887574 L557.261388,39.0887574 L557.674142,38.8224852 L558.49965,38.8224852 L558.912404,38.556213 L559.325158,38.4674556 L559.737912,38.2899408 L560.150666,38.2899408 L560.56342,38.2011834 L560.976174,38.112426 L561.388928,38.112426 L561.801682,38.0236686 L562.214436,37.9349112 L562.62719,37.6686391 L563.039944,37.4911243 L563.452698,37.0473373 L563.865452,36.9585799 L564.278206,36.9585799 L564.69096,36.8698225 L565.103714,36.6923077 L565.516468,36.5147929 L565.929222,36.4260355 L566.341976,36.0710059 L566.75473,35.9822485 L567.167484,35.9822485 L567.580238,35.8934911 L567.992992,35.8934911 L568.405746,35.8047337 L568.8185,35.2721893 L569.231254,35.0059172 L569.644008,35.0059172 L570.056762,34.9171598 L570.469516,34.9171598 L570.88227,34.6508876 L571.295025,34.295858 L571.707779,34.2071006 L572.120533,34.2071006 L572.533287,34.1183432 L573.358795,34.1183432 L573.771549,34.0295858 L574.184303,33.9408284 L574.597057,33.852071 L575.009811,33.7633136 L575.835319,33.7633136 L576.248073,33.5857988 L576.660827,33.408284 L577.073581,33.3195266 L577.486335,33.1420118 L577.899089,32.964497 L579.137351,32.964497 L579.550105,32.8757396 L579.962859,32.7869822 L580.375613,32.6982249 L582.439383,32.6982249 L582.852137,32.2544379 L583.264891,32.2544379 L583.677645,32.1656805 L584.090399,31.8994083 L584.503153,31.8994083 L584.915907,31.8106509 L585.741416,31.8106509 L586.15417,31.6331361 L586.566924,31.5443787 L586.979678,31.4556213 L587.392432,31.3668639 L587.805186,31.1893491 L588.21794,30.6568047 L588.630694,30.5680473 L589.043448,30.4792899 L589.456202,30.3017751 L590.28171,30.3017751 L590.694464,30.2130178 L591.107218,30.1242604 L591.519972,30.1242604 L591.932726,30.035503 L592.34548,29.9467456 L592.758234,29.9467456 L593.170988,29.8579882 L598.53679,29.8579882 L598.949544,29.7692308 L599.362299,29.591716 L599.775053,29.4142012 L600.187807,29.3254438 L600.600561,29.147929 L601.013315,29.0591716 L601.426069,28.8816568 L602.251577,28.8816568 L602.664331,28.7928994 L603.077085,28.1715976 L603.489839,27.9053254 L603.902593,27.7278107 L605.140855,27.7278107 L605.553609,27.4615385 L605.966363,26.9289941 L606.379117,26.8402367 L606.791871,26.8402367 L607.204625,26.7514793 L609.268395,26.7514793 L609.681149,26.5739645 L610.506657,26.5739645 L610.919411,26.3964497 L611.332165,26.3076923 L611.744919,26.1301775 L612.157673,25.8639053 L612.570427,25.5976331 L613.395936,25.5976331 L613.80869,25.2426036 L614.221444,25.1538462 L614.634198,25.1538462 L615.046952,24.9763314 L617.110722,24.9763314 L617.523476,24.7988166 L617.93623,24.1775148 L618.761738,24.1775148 L619.174492,24.0887574 L619.587246,24.0887574 L620,24" id="Shape" stroke="#FF0000" sketch:type="MSShapeGroup"></path>
                        <path d="M42.5571128,249 L42.5571128,249 L42.9698669,248.911243 L61.9565522,248.911243 L62.3693062,248.64497 L64.8458304,248.64497 L65.2585844,248.467456 L65.6713385,248.378698 L66.0840925,248.289941 L67.7351086,248.289941 L68.1478626,248.201183 L68.5606167,248.023669 L68.9733707,245.982249 L70.2116328,245.982249 L70.6243868,245.893491 L71.4498949,245.893491 L71.8626489,245.804734 L73.9264191,245.804734 L74.3391731,245.715976 L97.0406447,245.715976 L97.4533987,245.627219 L122.631395,245.627219 L123.044149,245.538462 L135.426769,245.538462 L135.839523,245.449704 L139.967064,245.449704 L140.379818,245.272189 L145.74562,245.272189 L146.158374,245.183432 L146.571128,245.183432 L146.983882,245.005917 L151.111423,245.005917 L151.524177,244.739645 L155.238963,244.739645 L155.651717,244.650888 L161.843027,244.650888 L162.255781,244.56213 L162.668535,244.56213 L163.081289,244.473373 L163.494043,244.384615 L163.906797,244.384615 L164.319552,244.295858 L170.098108,244.295858 L170.510862,244.207101 L172.987386,244.207101 L173.40014,244.029586 L173.812894,244.029586 L174.225648,243.940828 L175.051156,243.940828 L175.46391,243.852071 L175.876664,243.674556 L180.004205,243.674556 L180.416959,243.585799 L181.655221,243.585799 L182.067975,243.497041 L182.893483,243.497041 L183.306237,192.461538 L184.131745,192.461538 L184.544499,192.372781 L184.957253,192.284024 L185.782761,192.284024 L186.195515,191.04142 L186.608269,190.508876 L187.021023,190.065089 L187.433777,189.532544 L187.846531,189.266272 L188.672039,189.266272 L189.084793,189 L189.497547,188.201183 L189.910301,188.112426 L190.323055,188.023669 L190.735809,187.491124 L191.561317,187.491124 L191.974071,187.224852 L192.386826,186.514793 L192.79958,186.248521 L193.212334,185.715976 L193.625088,185.005917 L194.450596,185.005917 L194.86335,183.852071 L195.276104,183.230769 L195.688858,182.52071 L196.101612,182.076923 L196.514366,181.366864 L196.92712,181.189349 L197.339874,181.189349 L197.752628,180.83432 L198.165382,180.301775 L198.578136,180.301775 L198.99089,179.059172 L199.403644,178.970414 L200.229152,178.970414 L200.641906,177.816568 L201.05466,177.639053 L201.467414,177.017751 L201.880168,176.573964 L202.292922,176.39645 L203.531184,176.39645 L203.943938,175.952663 L204.356692,175.686391 L204.769446,175.597633 L205.1822,175.242604 L206.007708,175.242604 L206.420463,175.153846 L206.833217,174.621302 L207.245971,174.443787 L207.658725,174.177515 L208.071479,174.088757 L208.896987,174.088757 L209.309741,173.556213 L209.722495,173.023669 L210.135249,172.491124 L210.548003,171.514793 L210.960757,170.804734 L211.786265,170.804734 L212.199019,170.538462 L212.611773,170.360947 L213.024527,170.094675 L213.437281,169.56213 L213.850035,169.118343 L214.675543,169.118343 L215.088297,168.319527 L215.501051,167.698225 L215.913805,167.343195 L216.326559,166.810651 L216.739313,165.745562 L217.152067,165.568047 L217.564821,165.568047 L217.977575,165.390533 L218.390329,165.213018 L218.803083,164.857988 L219.215837,164.591716 L219.628591,164.059172 L220.4541,164.059172 L220.866854,163.970414 L221.279608,163.704142 L221.692362,163.08284 L222.105116,162.461538 L222.51787,161.840237 L222.930624,161.751479 L223.343378,161.751479 L223.756132,160.775148 L224.168886,160.420118 L224.58164,159.443787 L226.64541,159.443787 L227.058164,159.35503 L227.470918,159.266272 L227.883672,159.177515 L228.296426,159 L229.121934,159 L229.534688,158.201183 L229.947442,158.023669 L230.360196,157.846154 L230.77295,157.402367 L231.185704,157.047337 L232.011212,157.047337 L232.423966,156.426036 L232.83672,155.893491 L233.249474,155.449704 L233.662228,155.183432 L234.074982,155.094675 L235.313245,155.094675 L235.725999,154.739645 L236.138753,154.56213 L236.551507,154.029586 L236.964261,153.585799 L237.789769,153.585799 L238.202523,153.053254 L238.615277,152.87574 L239.028031,152.609467 L239.440785,152.431953 L239.853539,152.16568 L240.679047,152.16568 L241.091801,151.721893 L241.504555,148.615385 L241.917309,147.994083 L242.330063,147.727811 L242.742817,147.461538 L243.568325,147.461538 L243.981079,147.106509 L244.393833,146.840237 L244.806587,146.130178 L245.219341,145.597633 L245.632095,144.887574 L246.870357,144.887574 L247.283111,144.798817 L247.695865,144.710059 L248.108619,144.621302 L248.521374,143.822485 L249.759636,143.822485 L250.17239,143.733728 L250.585144,143.378698 L250.997898,143.289941 L251.410652,143.023669 L252.23616,143.023669 L252.648914,142.934911 L253.061668,142.668639 L253.474422,142.579882 L253.887176,141.869822 L254.29993,141.514793 L255.538192,141.514793 L255.950946,141.071006 L256.3637,140.449704 L256.776454,140.094675 L259.252978,140.094675 L259.665732,139.739645 L260.078486,139.295858 L261.316748,139.295858 L261.729502,139.118343 L262.142256,138.763314 L262.555011,138.408284 L262.967765,138.230769 L263.793273,138.230769 L264.206027,138.142012 L264.618781,137.964497 L265.031535,137.87574 L266.682551,137.87574 L267.095305,137.431953 L267.508059,137.254438 L267.920813,137.16568 L268.333567,136.899408 L268.746321,136.810651 L269.571829,136.810651 L269.984583,136.544379 L270.397337,136.544379 L270.810091,136.366864 L271.222845,136.100592 L271.635599,135.923077 L272.461107,135.923077 L272.873861,135.83432 L273.286615,135.568047 L273.699369,135.390533 L274.112123,135.390533 L274.524877,135.301775 L275.763139,135.301775 L276.175893,135.035503 L276.588648,134.946746 L277.001402,134.147929 L277.414156,133.43787 L278.239664,133.43787 L278.652418,133.08284 L279.065172,132.106509 L279.477926,131.751479 L279.89068,131.662722 L281.128942,131.662722 L281.541696,131.04142 L281.95445,130.686391 L282.367204,130.420118 L282.779958,130.420118 L283.192712,130.153846 L284.01822,130.153846 L284.430974,130.065089 L284.843728,129.266272 L285.256482,129 L285.669236,128.201183 L286.08199,128.112426 L287.733006,128.112426 L288.14576,128.023669 L289.796776,128.023669 L290.20953,127.934911 L290.622285,127.846154 L291.035039,127.846154 L291.447793,127.579882 L294.337071,127.579882 L294.749825,127.313609 L296.400841,127.313609 L296.813595,127.224852 L298.877365,127.224852 L299.290119,127.047337 L299.702873,126.95858 L300.115627,126.60355 L300.528381,126.248521 L300.941135,126.159763 L303.004905,126.159763 L303.417659,126.071006 L305.068676,126.071006 L305.48143,125.804734 L305.894184,125.627219 L308.370708,125.627219 L308.783462,125.360947 L311.259986,125.360947 L311.67274,125.272189 L312.085494,125.094675 L312.911002,125.094675 L313.323756,124.118343 L313.73651,123.940828 L314.149264,123.940828 L314.562018,123.852071 L316.213034,123.852071 L316.625788,123.763314 L317.038542,123.763314 L317.451296,123.319527 L317.86405,122.964497 L319.102313,122.964497 L319.515067,122.698225 L319.927821,122.609467 L320.340575,121.810651 L321.578837,121.810651 L321.991591,121.633136 L322.817099,121.633136 L323.229853,121.189349 L323.642607,120.47929 L324.055361,120.47929 L324.468115,120.301775 L324.880869,119.857988 L325.293623,119.414201 L325.706377,119.147929 L326.119131,118.704142 L326.531885,118.526627 L327.357393,118.526627 L327.770147,118.43787 L328.182901,118.08284 L328.595655,117.461538 L329.008409,116.840237 L329.421163,116.485207 L330.246671,116.485207 L330.659425,116.130178 L331.072179,115.153846 L331.484933,114.976331 L331.897687,114.710059 L333.13595,114.710059 L333.548704,114.443787 L333.961458,114.35503 L334.374212,114.35503 L334.786966,114.088757 L336.025228,114.088757 L336.437982,113.911243 L336.850736,113.733728 L337.26349,113.64497 L337.676244,113.467456 L338.088998,113.112426 L338.914506,113.112426 L339.32726,112.934911 L339.740014,112.757396 L340.152768,112.579882 L344.693062,112.579882 L345.105816,112.491124 L345.931324,112.491124 L346.344078,112.402367 L346.756833,112.313609 L347.582341,112.313609 L347.995095,112.224852 L351.709881,112.224852 L352.122635,112.136095 L353.360897,112.136095 L353.773651,112.047337 L354.599159,112.047337 L355.011913,111.95858 L356.250175,111.95858 L356.662929,111.869822 L357.075683,111.692308 L357.901191,111.692308 L358.313945,111.60355 L359.139453,111.60355 L359.552207,111.514793 L359.964961,111.426036 L360.377715,111.337278 L360.79047,111.337278 L361.203224,110.715976 L361.615978,110.715976 L362.028732,110.627219 L362.441486,110.627219 L362.85424,110.538462 L364.91801,110.538462 L365.330764,110.449704 L365.743518,110.449704 L366.156272,110.272189 L366.569026,110.094675 L366.98178,109.828402 L367.807288,109.828402 L368.220042,109.739645 L368.632796,108.763314 L369.04555,108.674556 L369.458304,108.497041 L371.10932,108.497041 L371.522074,108.142012 L371.934828,107.964497 L372.347582,107.964497 L372.760336,107.786982 L374.411352,107.786982 L374.824107,107.698225 L375.236861,107.698225 L375.649615,107.52071 L378.126139,107.52071 L378.538893,107.16568 L379.777155,107.16568 L380.189909,106.899408 L380.602663,106.899408 L381.015417,106.810651 L381.428171,106.633136 L382.666433,106.633136 L383.079187,106.455621 L383.491941,106.189349 L383.904695,106.189349 L384.317449,106.011834 L385.555711,106.011834 L385.968465,105.656805 L386.381219,105.12426 L388.032235,105.12426 L388.444989,105.035503 L389.270498,105.035503 L389.683252,104.591716 L391.334268,104.591716 L391.747022,104.236686 L392.57253,104.236686 L392.985284,104.147929 L395.049054,104.147929 L395.461808,103.881657 L395.874562,103.792899 L397.112824,103.792899 L397.525578,103.526627 L397.938332,103.526627 L398.351086,103.08284 L400.414856,103.08284 L400.82761,102.994083 L402.891381,102.994083 L403.304135,102.727811 L403.716889,102.727811 L404.129643,102.639053 L405.367905,102.639053 L405.780659,102.550296 L406.193413,102.372781 L406.606167,102.372781 L407.018921,102.284024 L407.431675,102.195266 L408.669937,102.195266 L409.082691,102.106509 L409.495445,102.106509 L409.908199,101.218935 L410.320953,100.775148 L411.559215,100.775148 L411.971969,100.686391 L412.384723,100.686391 L412.797477,100.597633 L413.210231,100.065089 L413.622985,100.065089 L414.035739,99.9763314 L414.448493,99.887574 L414.861247,99.7988166 L415.274001,99.7988166 L415.686755,99.7100592 L416.099509,99.6213018 L416.925018,99.6213018 L417.337772,99.443787 L417.750526,99.443787 L418.16328,99.2662722 L418.576034,98.9112426 L418.988788,98.6449704 L419.814296,98.6449704 L420.22705,98.556213 L420.639804,98.4674556 L421.052558,98.3786982 L421.465312,97.3136095 L421.878066,96.8698225 L422.703574,96.8698225 L423.116328,96.1597633 L423.529082,95.8047337 L423.941836,95.3609467 L424.35459,95.0059172 L424.767344,94.739645 L425.592852,94.739645 L426.005606,93.852071 L426.41836,93.3195266 L426.831114,92.7869822 L427.243868,92.2544379 L427.656622,91.8994083 L428.069376,91.8994083 L428.48213,91.8106509 L428.894884,91.6331361 L429.307638,91.5443787 L429.720392,91.5443787 L430.133146,90.9230769 L430.5459,90.5680473 L430.958655,90.5680473 L431.371409,90.4792899 L431.784163,89.8579882 L432.196917,89.6804734 L432.609671,89.5029586 L433.022425,89.5029586 L433.435179,89.4142012 L434.260687,89.4142012 L434.673441,89.3254438 L435.498949,89.3254438 L435.911703,88.6153846 L436.324457,88.4378698 L437.149965,88.4378698 L437.562719,88.0828402 L437.975473,87.9940828 L438.388227,87.9940828 L438.800981,87.7278107 L439.213735,86.9289941 L440.039243,86.9289941 L440.451997,86.5739645 L440.864751,86.3964497 L441.277505,86.1301775 L445.8178,86.1301775 L446.230554,85.9526627 L448.707078,85.9526627 L449.119832,85.6863905 L449.532586,85.5088757 L449.94534,85.5088757 L450.358094,85.2426036 L450.770848,85.0650888 L451.596356,85.0650888 L452.00911,84.887574 L452.421864,84.6213018 L452.834618,84.1775148 L453.247372,84.0887574 L453.660126,84 L455.311142,84 L455.723896,83.7337278 L456.13665,83.6449704 L456.549404,83.556213 L458.20042,83.556213 L458.613174,83.4674556 L459.025929,83.2011834 L459.438683,83.0236686 L460.264191,83.0236686 L460.676945,82.9349112 L461.089699,82.8461538 L461.502453,82.7573964 L461.915207,82.7573964 L462.327961,82.5798817 L463.566223,82.5798817 L463.978977,82.4023669 L464.391731,82.3136095 L466.868255,82.3136095 L467.281009,82.0473373 L467.693763,81.5147929 L470.995795,81.5147929 L471.408549,81.0710059 L471.821303,81.0710059 L472.234057,80.9822485 L472.646811,80.8934911 L473.059566,80.8934911 L473.47232,80.0946746 L473.885074,79.739645 L475.53609,79.739645 L475.948844,79.6508876 L478.838122,79.6508876 L479.250876,79.4733728 L480.489138,79.4733728 L480.901892,79.3846154 L481.314646,79.295858 L481.7274,79.2071006 L482.140154,79.2071006 L482.552908,79.1183432 L484.616678,79.1183432 L485.029432,79.0295858 L485.442186,78.852071 L486.267694,78.852071 L486.680448,78.5857988 L487.093203,78.3195266 L487.505957,78.3195266 L487.918711,78.2307692 L488.331465,78.0532544 L489.156973,78.0532544 L489.569727,77.964497 L489.982481,77.6094675 L490.395235,77.5207101 L490.807989,77.3431953 L492.459005,77.3431953 L492.871759,76.7218935 L493.284513,76.5443787 L493.697267,76.3668639 L494.110021,76.2781065 L494.935529,76.2781065 L495.348283,76.1893491 L495.761037,76.1893491 L496.173791,76.1005917 L496.586545,75.8343195 L496.999299,75.3905325 L498.237561,75.3905325 L498.650315,75.3017751 L499.063069,75.2130178 L499.475823,75.1242604 L499.888577,74.7692308 L501.539594,74.7692308 L501.952348,74.6804734 L502.365102,74.591716 L504.841626,74.591716 L505.25438,74.4142012 L511.032936,74.4142012 L511.44569,74.3254438 L515.160477,74.3254438 L515.573231,74.2366864 L515.985985,74.147929 L516.398739,74.0591716 L516.811493,73.9704142 L517.224247,73.8816568 L518.462509,73.8816568 L518.875263,73.7928994 L520.939033,73.7928994 L521.351787,73.6153846 L522.177295,73.6153846 L522.590049,73.260355 L527.955851,73.260355 L528.368605,73.1715976 L530.84513,73.1715976 L531.257884,73.0828402 L533.734408,73.0828402 L534.147162,72.9940828 L534.559916,72.816568 L536.210932,72.816568 L536.623686,72.5502959 L537.03644,72.1065089 L537.449194,71.9289941 L538.274702,71.9289941 L538.687456,71.8402367 L541.16398,71.8402367 L541.576734,71.7514793 L541.989488,71.4852071 L542.402242,71.4852071 L542.814996,71.3964497 L544.466013,71.3964497 L544.878767,71.0414201 L545.704275,71.0414201 L546.117029,70.9526627 L547.355291,70.9526627 L547.768045,70.7751479 L548.180799,70.6863905 L549.831815,70.6863905 L550.244569,70.5976331 L550.657323,70.1538462 L551.070077,69.7988166 L551.482831,69.6213018 L551.895585,69.5325444 L552.308339,69.5325444 L552.721093,69.443787 L553.133847,69.3550296 L553.959355,69.3550296 L554.372109,69.2662722 L554.784863,69.1775148 L556.023125,69.1775148 L556.435879,68.2011834 L556.848633,68.2011834 L557.261388,68.112426 L558.49965,68.112426 L558.912404,67.8461538 L559.325158,67.7573964 L559.737912,67.6686391 L560.150666,67.3136095 L561.388928,67.3136095 L561.801682,66.6035503 L562.214436,65.9822485 L562.62719,65.7159763 L563.039944,65.5384615 L564.278206,65.5384615 L564.69096,65.3609467 L565.103714,65.183432 L565.516468,65.0059172 L565.929222,64.9171598 L566.341976,64.4733728 L567.167484,64.4733728 L567.580238,64.295858 L567.992992,64.1183432 L568.405746,63.9408284 L568.8185,63.7633136 L569.231254,63.6745562 L570.056762,63.6745562 L570.469516,62.3431953 L579.962859,62.3431953 L580.375613,62.0769231 L583.264891,62.0769231 L583.677645,61.8106509 L585.741416,61.8106509 L586.15417,61.6331361 L586.566924,61.5443787 L587.392432,61.5443787 L587.805186,61.3668639 L588.21794,61.3668639 L588.630694,61.2781065 L589.043448,61.0118343 L589.456202,60.9230769 L591.107218,60.9230769 L591.519972,60.7455621 L591.932726,60.6568047 L600.187807,60.6568047 L600.600561,60.3017751 L601.013315,59.9467456 L602.251577,59.9467456 L602.664331,59.7692308 L603.077085,59.5029586 L603.489839,59.4142012 L603.902593,58.8816568 L604.315347,58.7928994 L605.553609,58.7928994 L605.966363,58.5266272 L606.379117,57.816568 L606.791871,57.5502959 L607.617379,57.5502959 L608.030133,57.3727811 L608.442887,57.0177515 L608.855641,56.7514793 L611.332165,56.7514793 L611.744919,56.5739645 L612.983181,56.5739645 L613.395936,56.4852071 L614.221444,56.4852071 L614.634198,56.3964497 L615.046952,56.2189349 L616.697968,56.2189349 L617.110722,56.1301775 L617.523476,55.9526627 L617.93623,55.8639053 L620,55.8639053 L620,249 L42.5571128,249 L42.5571128,249 Z" id="Shape" fill-opacity="0.2" fill="#0000CC" sketch:type="MSShapeGroup"></path>
                        <path d="M42.5571128,249 L42.5571128,249 L42.9698669,248.911243 L61.9565522,248.911243 L62.3693062,248.64497 L64.8458304,248.64497 L65.2585844,248.467456 L65.6713385,248.378698 L66.0840925,248.289941 L67.7351086,248.289941 L68.1478626,248.201183 L68.5606167,248.023669 L68.9733707,245.982249 L70.2116328,245.982249 L70.6243868,245.893491 L71.4498949,245.893491 L71.8626489,245.804734 L73.9264191,245.804734 L74.3391731,245.715976 L97.0406447,245.715976 L97.4533987,245.627219 L122.631395,245.627219 L123.044149,245.538462 L135.426769,245.538462 L135.839523,245.449704 L139.967064,245.449704 L140.379818,245.272189 L145.74562,245.272189 L146.158374,245.183432 L146.571128,245.183432 L146.983882,245.005917 L151.111423,245.005917 L151.524177,244.739645 L155.238963,244.739645 L155.651717,244.650888 L161.843027,244.650888 L162.255781,244.56213 L162.668535,244.56213 L163.081289,244.473373 L163.494043,244.384615 L163.906797,244.384615 L164.319552,244.295858 L170.098108,244.295858 L170.510862,244.207101 L172.987386,244.207101 L173.40014,244.029586 L173.812894,244.029586 L174.225648,243.940828 L175.051156,243.940828 L175.46391,243.852071 L175.876664,243.674556 L180.004205,243.674556 L180.416959,243.585799 L181.655221,243.585799 L182.067975,243.497041 L182.893483,243.497041 L183.306237,192.461538 L184.131745,192.461538 L184.544499,192.372781 L184.957253,192.284024 L185.782761,192.284024 L186.195515,191.04142 L186.608269,190.508876 L187.021023,190.065089 L187.433777,189.532544 L187.846531,189.266272 L188.672039,189.266272 L189.084793,189 L189.497547,188.201183 L189.910301,188.112426 L190.323055,188.023669 L190.735809,187.491124 L191.561317,187.491124 L191.974071,187.224852 L192.386826,186.514793 L192.79958,186.248521 L193.212334,185.715976 L193.625088,185.005917 L194.450596,185.005917 L194.86335,183.852071 L195.276104,183.230769 L195.688858,182.52071 L196.101612,182.076923 L196.514366,181.366864 L196.92712,181.189349 L197.339874,181.189349 L197.752628,180.83432 L198.165382,180.301775 L198.578136,180.301775 L198.99089,179.059172 L199.403644,178.970414 L200.229152,178.970414 L200.641906,177.816568 L201.05466,177.639053 L201.467414,177.017751 L201.880168,176.573964 L202.292922,176.39645 L203.531184,176.39645 L203.943938,175.952663 L204.356692,175.686391 L204.769446,175.597633 L205.1822,175.242604 L206.007708,175.242604 L206.420463,175.153846 L206.833217,174.621302 L207.245971,174.443787 L207.658725,174.177515 L208.071479,174.088757 L208.896987,174.088757 L209.309741,173.556213 L209.722495,173.023669 L210.135249,172.491124 L210.548003,171.514793 L210.960757,170.804734 L211.786265,170.804734 L212.199019,170.538462 L212.611773,170.360947 L213.024527,170.094675 L213.437281,169.56213 L213.850035,169.118343 L214.675543,169.118343 L215.088297,168.319527 L215.501051,167.698225 L215.913805,167.343195 L216.326559,166.810651 L216.739313,165.745562 L217.152067,165.568047 L217.564821,165.568047 L217.977575,165.390533 L218.390329,165.213018 L218.803083,164.857988 L219.215837,164.591716 L219.628591,164.059172 L220.4541,164.059172 L220.866854,163.970414 L221.279608,163.704142 L221.692362,163.08284 L222.105116,162.461538 L222.51787,161.840237 L222.930624,161.751479 L223.343378,161.751479 L223.756132,160.775148 L224.168886,160.420118 L224.58164,159.443787 L226.64541,159.443787 L227.058164,159.35503 L227.470918,159.266272 L227.883672,159.177515 L228.296426,159 L229.121934,159 L229.534688,158.201183 L229.947442,158.023669 L230.360196,157.846154 L230.77295,157.402367 L231.185704,157.047337 L232.011212,157.047337 L232.423966,156.426036 L232.83672,155.893491 L233.249474,155.449704 L233.662228,155.183432 L234.074982,155.094675 L235.313245,155.094675 L235.725999,154.739645 L236.138753,154.56213 L236.551507,154.029586 L236.964261,153.585799 L237.789769,153.585799 L238.202523,153.053254 L238.615277,152.87574 L239.028031,152.609467 L239.440785,152.431953 L239.853539,152.16568 L240.679047,152.16568 L241.091801,151.721893 L241.504555,148.615385 L241.917309,147.994083 L242.330063,147.727811 L242.742817,147.461538 L243.568325,147.461538 L243.981079,147.106509 L244.393833,146.840237 L244.806587,146.130178 L245.219341,145.597633 L245.632095,144.887574 L246.870357,144.887574 L247.283111,144.798817 L247.695865,144.710059 L248.108619,144.621302 L248.521374,143.822485 L249.759636,143.822485 L250.17239,143.733728 L250.585144,143.378698 L250.997898,143.289941 L251.410652,143.023669 L252.23616,143.023669 L252.648914,142.934911 L253.061668,142.668639 L253.474422,142.579882 L253.887176,141.869822 L254.29993,141.514793 L255.538192,141.514793 L255.950946,141.071006 L256.3637,140.449704 L256.776454,140.094675 L259.252978,140.094675 L259.665732,139.739645 L260.078486,139.295858 L261.316748,139.295858 L261.729502,139.118343 L262.142256,138.763314 L262.555011,138.408284 L262.967765,138.230769 L263.793273,138.230769 L264.206027,138.142012 L264.618781,137.964497 L265.031535,137.87574 L266.682551,137.87574 L267.095305,137.431953 L267.508059,137.254438 L267.920813,137.16568 L268.333567,136.899408 L268.746321,136.810651 L269.571829,136.810651 L269.984583,136.544379 L270.397337,136.544379 L270.810091,136.366864 L271.222845,136.100592 L271.635599,135.923077 L272.461107,135.923077 L272.873861,135.83432 L273.286615,135.568047 L273.699369,135.390533 L274.112123,135.390533 L274.524877,135.301775 L275.763139,135.301775 L276.175893,135.035503 L276.588648,134.946746 L277.001402,134.147929 L277.414156,133.43787 L278.239664,133.43787 L278.652418,133.08284 L279.065172,132.106509 L279.477926,131.751479 L279.89068,131.662722 L281.128942,131.662722 L281.541696,131.04142 L281.95445,130.686391 L282.367204,130.420118 L282.779958,130.420118 L283.192712,130.153846 L284.01822,130.153846 L284.430974,130.065089 L284.843728,129.266272 L285.256482,129 L285.669236,128.201183 L286.08199,128.112426 L287.733006,128.112426 L288.14576,128.023669 L289.796776,128.023669 L290.20953,127.934911 L290.622285,127.846154 L291.035039,127.846154 L291.447793,127.579882 L294.337071,127.579882 L294.749825,127.313609 L296.400841,127.313609 L296.813595,127.224852 L298.877365,127.224852 L299.290119,127.047337 L299.702873,126.95858 L300.115627,126.60355 L300.528381,126.248521 L300.941135,126.159763 L303.004905,126.159763 L303.417659,126.071006 L305.068676,126.071006 L305.48143,125.804734 L305.894184,125.627219 L308.370708,125.627219 L308.783462,125.360947 L311.259986,125.360947 L311.67274,125.272189 L312.085494,125.094675 L312.911002,125.094675 L313.323756,124.118343 L313.73651,123.940828 L314.149264,123.940828 L314.562018,123.852071 L316.213034,123.852071 L316.625788,123.763314 L317.038542,123.763314 L317.451296,123.319527 L317.86405,122.964497 L319.102313,122.964497 L319.515067,122.698225 L319.927821,122.609467 L320.340575,121.810651 L321.578837,121.810651 L321.991591,121.633136 L322.817099,121.633136 L323.229853,121.189349 L323.642607,120.47929 L324.055361,120.47929 L324.468115,120.301775 L324.880869,119.857988 L325.293623,119.414201 L325.706377,119.147929 L326.119131,118.704142 L326.531885,118.526627 L327.357393,118.526627 L327.770147,118.43787 L328.182901,118.08284 L328.595655,117.461538 L329.008409,116.840237 L329.421163,116.485207 L330.246671,116.485207 L330.659425,116.130178 L331.072179,115.153846 L331.484933,114.976331 L331.897687,114.710059 L333.13595,114.710059 L333.548704,114.443787 L333.961458,114.35503 L334.374212,114.35503 L334.786966,114.088757 L336.025228,114.088757 L336.437982,113.911243 L336.850736,113.733728 L337.26349,113.64497 L337.676244,113.467456 L338.088998,113.112426 L338.914506,113.112426 L339.32726,112.934911 L339.740014,112.757396 L340.152768,112.579882 L344.693062,112.579882 L345.105816,112.491124 L345.931324,112.491124 L346.344078,112.402367 L346.756833,112.313609 L347.582341,112.313609 L347.995095,112.224852 L351.709881,112.224852 L352.122635,112.136095 L353.360897,112.136095 L353.773651,112.047337 L354.599159,112.047337 L355.011913,111.95858 L356.250175,111.95858 L356.662929,111.869822 L357.075683,111.692308 L357.901191,111.692308 L358.313945,111.60355 L359.139453,111.60355 L359.552207,111.514793 L359.964961,111.426036 L360.377715,111.337278 L360.79047,111.337278 L361.203224,110.715976 L361.615978,110.715976 L362.028732,110.627219 L362.441486,110.627219 L362.85424,110.538462 L364.91801,110.538462 L365.330764,110.449704 L365.743518,110.449704 L366.156272,110.272189 L366.569026,110.094675 L366.98178,109.828402 L367.807288,109.828402 L368.220042,109.739645 L368.632796,108.763314 L369.04555,108.674556 L369.458304,108.497041 L371.10932,108.497041 L371.522074,108.142012 L371.934828,107.964497 L372.347582,107.964497 L372.760336,107.786982 L374.411352,107.786982 L374.824107,107.698225 L375.236861,107.698225 L375.649615,107.52071 L378.126139,107.52071 L378.538893,107.16568 L379.777155,107.16568 L380.189909,106.899408 L380.602663,106.899408 L381.015417,106.810651 L381.428171,106.633136 L382.666433,106.633136 L383.079187,106.455621 L383.491941,106.189349 L383.904695,106.189349 L384.317449,106.011834 L385.555711,106.011834 L385.968465,105.656805 L386.381219,105.12426 L388.032235,105.12426 L388.444989,105.035503 L389.270498,105.035503 L389.683252,104.591716 L391.334268,104.591716 L391.747022,104.236686 L392.57253,104.236686 L392.985284,104.147929 L395.049054,104.147929 L395.461808,103.881657 L395.874562,103.792899 L397.112824,103.792899 L397.525578,103.526627 L397.938332,103.526627 L398.351086,103.08284 L400.414856,103.08284 L400.82761,102.994083 L402.891381,102.994083 L403.304135,102.727811 L403.716889,102.727811 L404.129643,102.639053 L405.367905,102.639053 L405.780659,102.550296 L406.193413,102.372781 L406.606167,102.372781 L407.018921,102.284024 L407.431675,102.195266 L408.669937,102.195266 L409.082691,102.106509 L409.495445,102.106509 L409.908199,101.218935 L410.320953,100.775148 L411.559215,100.775148 L411.971969,100.686391 L412.384723,100.686391 L412.797477,100.597633 L413.210231,100.065089 L413.622985,100.065089 L414.035739,99.9763314 L414.448493,99.887574 L414.861247,99.7988166 L415.274001,99.7988166 L415.686755,99.7100592 L416.099509,99.6213018 L416.925018,99.6213018 L417.337772,99.443787 L417.750526,99.443787 L418.16328,99.2662722 L418.576034,98.9112426 L418.988788,98.6449704 L419.814296,98.6449704 L420.22705,98.556213 L420.639804,98.4674556 L421.052558,98.3786982 L421.465312,97.3136095 L421.878066,96.8698225 L422.703574,96.8698225 L423.116328,96.1597633 L423.529082,95.8047337 L423.941836,95.3609467 L424.35459,95.0059172 L424.767344,94.739645 L425.592852,94.739645 L426.005606,93.852071 L426.41836,93.3195266 L426.831114,92.7869822 L427.243868,92.2544379 L427.656622,91.8994083 L428.069376,91.8994083 L428.48213,91.8106509 L428.894884,91.6331361 L429.307638,91.5443787 L429.720392,91.5443787 L430.133146,90.9230769 L430.5459,90.5680473 L430.958655,90.5680473 L431.371409,90.4792899 L431.784163,89.8579882 L432.196917,89.6804734 L432.609671,89.5029586 L433.022425,89.5029586 L433.435179,89.4142012 L434.260687,89.4142012 L434.673441,89.3254438 L435.498949,89.3254438 L435.911703,88.6153846 L436.324457,88.4378698 L437.149965,88.4378698 L437.562719,88.0828402 L437.975473,87.9940828 L438.388227,87.9940828 L438.800981,87.7278107 L439.213735,86.9289941 L440.039243,86.9289941 L440.451997,86.5739645 L440.864751,86.3964497 L441.277505,86.1301775 L445.8178,86.1301775 L446.230554,85.9526627 L448.707078,85.9526627 L449.119832,85.6863905 L449.532586,85.5088757 L449.94534,85.5088757 L450.358094,85.2426036 L450.770848,85.0650888 L451.596356,85.0650888 L452.00911,84.887574 L452.421864,84.6213018 L452.834618,84.1775148 L453.247372,84.0887574 L453.660126,84 L455.311142,84 L455.723896,83.7337278 L456.13665,83.6449704 L456.549404,83.556213 L458.20042,83.556213 L458.613174,83.4674556 L459.025929,83.2011834 L459.438683,83.0236686 L460.264191,83.0236686 L460.676945,82.9349112 L461.089699,82.8461538 L461.502453,82.7573964 L461.915207,82.7573964 L462.327961,82.5798817 L463.566223,82.5798817 L463.978977,82.4023669 L464.391731,82.3136095 L466.868255,82.3136095 L467.281009,82.0473373 L467.693763,81.5147929 L470.995795,81.5147929 L471.408549,81.0710059 L471.821303,81.0710059 L472.234057,80.9822485 L472.646811,80.8934911 L473.059566,80.8934911 L473.47232,80.0946746 L473.885074,79.739645 L475.53609,79.739645 L475.948844,79.6508876 L478.838122,79.6508876 L479.250876,79.4733728 L480.489138,79.4733728 L480.901892,79.3846154 L481.314646,79.295858 L481.7274,79.2071006 L482.140154,79.2071006 L482.552908,79.1183432 L484.616678,79.1183432 L485.029432,79.0295858 L485.442186,78.852071 L486.267694,78.852071 L486.680448,78.5857988 L487.093203,78.3195266 L487.505957,78.3195266 L487.918711,78.2307692 L488.331465,78.0532544 L489.156973,78.0532544 L489.569727,77.964497 L489.982481,77.6094675 L490.395235,77.5207101 L490.807989,77.3431953 L492.459005,77.3431953 L492.871759,76.7218935 L493.284513,76.5443787 L493.697267,76.3668639 L494.110021,76.2781065 L494.935529,76.2781065 L495.348283,76.1893491 L495.761037,76.1893491 L496.173791,76.1005917 L496.586545,75.8343195 L496.999299,75.3905325 L498.237561,75.3905325 L498.650315,75.3017751 L499.063069,75.2130178 L499.475823,75.1242604 L499.888577,74.7692308 L501.539594,74.7692308 L501.952348,74.6804734 L502.365102,74.591716 L504.841626,74.591716 L505.25438,74.4142012 L511.032936,74.4142012 L511.44569,74.3254438 L515.160477,74.3254438 L515.573231,74.2366864 L515.985985,74.147929 L516.398739,74.0591716 L516.811493,73.9704142 L517.224247,73.8816568 L518.462509,73.8816568 L518.875263,73.7928994 L520.939033,73.7928994 L521.351787,73.6153846 L522.177295,73.6153846 L522.590049,73.260355 L527.955851,73.260355 L528.368605,73.1715976 L530.84513,73.1715976 L531.257884,73.0828402 L533.734408,73.0828402 L534.147162,72.9940828 L534.559916,72.816568 L536.210932,72.816568 L536.623686,72.5502959 L537.03644,72.1065089 L537.449194,71.9289941 L538.274702,71.9289941 L538.687456,71.8402367 L541.16398,71.8402367 L541.576734,71.7514793 L541.989488,71.4852071 L542.402242,71.4852071 L542.814996,71.3964497 L544.466013,71.3964497 L544.878767,71.0414201 L545.704275,71.0414201 L546.117029,70.9526627 L547.355291,70.9526627 L547.768045,70.7751479 L548.180799,70.6863905 L549.831815,70.6863905 L550.244569,70.5976331 L550.657323,70.1538462 L551.070077,69.7988166 L551.482831,69.6213018 L551.895585,69.5325444 L552.308339,69.5325444 L552.721093,69.443787 L553.133847,69.3550296 L553.959355,69.3550296 L554.372109,69.2662722 L554.784863,69.1775148 L556.023125,69.1775148 L556.435879,68.2011834 L556.848633,68.2011834 L557.261388,68.112426 L558.49965,68.112426 L558.912404,67.8461538 L559.325158,67.7573964 L559.737912,67.6686391 L560.150666,67.3136095 L561.388928,67.3136095 L561.801682,66.6035503 L562.214436,65.9822485 L562.62719,65.7159763 L563.039944,65.5384615 L564.278206,65.5384615 L564.69096,65.3609467 L565.103714,65.183432 L565.516468,65.0059172 L565.929222,64.9171598 L566.341976,64.4733728 L567.167484,64.4733728 L567.580238,64.295858 L567.992992,64.1183432 L568.405746,63.9408284 L568.8185,63.7633136 L569.231254,63.6745562 L570.056762,63.6745562 L570.469516,62.3431953 L579.962859,62.3431953 L580.375613,62.0769231 L583.264891,62.0769231 L583.677645,61.8106509 L585.741416,61.8106509 L586.15417,61.6331361 L586.566924,61.5443787 L587.392432,61.5443787 L587.805186,61.3668639 L588.21794,61.3668639 L588.630694,61.2781065 L589.043448,61.0118343 L589.456202,60.9230769 L591.107218,60.9230769 L591.519972,60.7455621 L591.932726,60.6568047 L600.187807,60.6568047 L600.600561,60.3017751 L601.013315,59.9467456 L602.251577,59.9467456 L602.664331,59.7692308 L603.077085,59.5029586 L603.489839,59.4142012 L603.902593,58.8816568 L604.315347,58.7928994 L605.553609,58.7928994 L605.966363,58.5266272 L606.379117,57.816568 L606.791871,57.5502959 L607.617379,57.5502959 L608.030133,57.3727811 L608.442887,57.0177515 L608.855641,56.7514793 L611.332165,56.7514793 L611.744919,56.5739645 L612.983181,56.5739645 L613.395936,56.4852071 L614.221444,56.4852071 L614.634198,56.3964497 L615.046952,56.2189349 L616.697968,56.2189349 L617.110722,56.1301775 L617.523476,55.9526627 L617.93623,55.8639053 L620,55.8639053" id="Shape" stroke="#0000FF" sketch:type="MSShapeGroup"></path>
                        <g transform="translate(31.000000, 0.000000)"></g>
                    </g>
                    <g id="Group" transform="translate(654.000000, 20.000000)">
                        <rect id="Rectangle-path" fill="#FF0000" sketch:type="MSShapeGroup" x="0" y="0" width="12" height="12"></rect>
                        <g id="Created" transform="translate(17.000000, 2.000000)" font-size="10" font-family="Helvetica" fill="#000000" sketch:type="MSTextLayer" font-weight="normal">
                            <text>
                                <tspan x="0" y="10">Created</tspan>
                            </text>
                        </g>
                        <rect id="Rectangle-path" fill="#0000FF" sketch:type="MSShapeGroup" x="0" y="17" width="12" height="12"></rect>
                        <g id="Closed" transform="translate(17.000000, 19.000000)" font-size="10" font-family="Helvetica" fill="#000000" sketch:type="MSTextLayer" font-weight="normal">
                            <text>
                                <tspan x="0" y="10">Closed</tspan>
                            </text>
                        </g>
                    </g>
                </g>
            </g>
        </g>
    </g>
</svg>