<?xml version="1.0" encoding="UTF-8" standalone="no"?>
<svg width="3695px" height="2101px" viewBox="0 0 3695 2101" version="1.1" xmlns="http://www.w3.org/2000/svg" xmlns:xlink="http://www.w3.org/1999/xlink" xmlns:sketch="http://www.bohemiancoding.com/sketch/ns">
    <!-- Generator: Sketch 3.2.2 (9983) - http://www.bohemiancoding.com/sketch -->
    <title>funding</title>
    <desc>Created with Sketch.</desc>
    <defs></defs>
    <g id="Page-1" stroke="none" stroke-width="1" fill="none" fill-rule="evenodd" sketch:type="MSPage">
        <g id="funding" sketch:type="MSLayerGroup" transform="translate(-91.000000, 0.000000)">
            <g id="Page-1">
                <g id="Countries-Funding-Cites-Jan-2004-to-Feb-2015-from-MedLine.001">
                    <g id="Page_1-Clipped">
                        <g id="Page_1">
                            <path d="M1987,1157 L1439,388 L1400,417 L1363,448 L1328,480 L1295,514 L1264,549 L1235,585 L1208,623 L1183,661 L1159,701 L1138,742 L1119,783 L1102,825 L1088,868 L1075,912 L1064,956 L1056,1000 L1049,1045 L1045,1090 L1043,1136 L1043,1181 L1045,1227 L1049,1272 L1056,1317 L1065,1362 L1076,1407 L1089,1452 L1105,1495 L1123,1539 L1143,1582 L1166,1624 L1191,1665 L1218,1705 L1247,1744 L1278,1781 L1310,1816 L1344,1849 L1379,1880 L1416,1909 L1453,1936 L1492,1961 L1532,1985 L1572,2006 L1614,2025 L1656,2042 L1699,2056 L1743,2069 L1787,2080 L1831,2089 L1876,2095 L1921,2099 L1966,2101 L2012,2101 L2057,2099 L2103,2095 L2148,2088 L2193,2079 L2238,2068 L2282,2055 L2326,2039 L2369,2021 L2412,2001 L2454,1978 L2495,1953 L2535,1926 L2574,1897 L2611,1866 L2646,1834 L2679,1800 L2710,1765 L2739,1728 L2766,1691 L2791,1652 L2815,1613 L2836,1572 L2855,1530 L2872,1488 L2886,1445 L2899,1402 L2910,1358 L2919,1313 L2925,1268 L2929,1223 L2931,1178 L2931,1133 L2929,1087 L2925,1042 L2918,997 L2909,952 L2898,907 L2885,862 L2869,819 L2851,775 L2831,733 L2808,691 L2783,649 L2756,609 L2722,564 L2685,520 L2646,480 L2604,442 L2561,407 L2516,374 L2469,344 L2420,317 L2370,293 L2318,272 L2265,254 L2211,239 L2156,227 L2101,219 L2044,214 L1987,212 L1987,1157 L1987,1157 Z" id="Shape" fill="#4572A7" sketch:type="MSShapeGroup"></path>
                            <path d="M1987,1157 L1838,224 L1784,234 L1732,247 L1680,264 L1629,283 L1580,305 L1531,330 L1484,358 L1439,388 L1987,1157 L1987,1157 Z" id="Shape" fill="#AA4643" sketch:type="MSShapeGroup"></path>
                            <path d="M1987,1157 L1966,213 L1934,214 L1902,216 L1838,224 L1987,1157 L1987,1157 Z" id="Shape" fill="#89A54E" sketch:type="MSShapeGroup"></path>
                            <path d="M1987,1157 L1976,212 L1966,213 L1987,1157 L1987,1157 Z" id="Shape" fill="#71588F" sketch:type="MSShapeGroup"></path>
                            <path d="M1987,1157 L1983,212 L1976,212 L1987,1157 L1987,1157 Z" id="Shape" fill="#4198AF" sketch:type="MSShapeGroup"></path>
                            <path d="M1987,1157 L1987,212 L1983,212 L1987,1157 L1987,1157 Z" id="Shape" fill="#DB843D" sketch:type="MSShapeGroup"></path>
                            <path d="M1630,286 L894,508 L855,508 L855,502 L893,502 L892,502 L1628,280 L1630,286 L1630,286 Z M1985,215 L1277,107 L1238,107 L1238,101 L1277,101 L1985,209 L1985,215 L1985,215 Z M1969,210 L2205,51 L2207,50 L2245,50 L2245,56 L2207,56 L2209,55 L1973,214 L1969,210 L1969,210 Z M1902,219 L796,243 L758,243 L758,237 L796,237 L1902,213 L1902,219 L1902,219 Z M1980,209 L2390,179 L2428,179 L2428,185 L2390,185 L1980,215 L1980,209 L1980,209 Z" id="Shape" fill="#000000" sketch:type="MSShapeGroup"></path>
                            <rect id="Rectangle-path" fill="#4572A7" sketch:type="MSShapeGroup" x="3219" y="1121" width="46" height="46"></rect>
                            <text id="United" fill="#000000" sketch:type="MSTextLayer" font-family="Calibri" font-size="56.3714458" font-weight="normal">
                                <tspan x="3308" y="1160">United</tspan>
                            </text>
                            <text id="States," fill="#000000" sketch:type="MSTextLayer" font-family="Calibri" font-size="56.3714458" font-weight="normal">
                                <tspan x="3493" y="1160">States,</tspan>
                            </text>
                            <text id="3961," fill="#000000" sketch:type="MSTextLayer" font-family="Calibri" font-size="56.3714458" font-weight="normal">
                                <tspan x="3661" y="1161">3961,</tspan>
                            </text>
                            <text id="90%" fill="#000000" sketch:type="MSTextLayer" font-family="Calibri" font-size="56.3714458" font-weight="normal">
                                <tspan x="3583" y="1263">90%</tspan>
                            </text>
                            <rect id="Rectangle-path" fill="#AA4643" sketch:type="MSShapeGroup" x="91" y="463" width="46" height="47"></rect>
                            <text id="United" fill="#000000" sketch:type="MSTextLayer" font-family="Calibri" font-size="56.3714458" font-weight="normal">
                                <tspan x="169" y="506">United</tspan>
                            </text>
                            <text id="Kingdom," fill="#000000" sketch:type="MSTextLayer" font-family="Calibri" font-size="56.3714458" font-weight="normal">
                                <tspan x="341" y="506">Kingdom,</tspan>
                            </text>
                            <text id="322," fill="#000000" sketch:type="MSTextLayer" font-family="Calibri" font-size="56.3714458" font-weight="normal">
                                <tspan x="686" y="506">322,</tspan>
                            </text>
                            <text id="8%" fill="#000000" sketch:type="MSTextLayer" font-family="Calibri" font-size="56.3714458" font-weight="normal">
                                <tspan x="412" y="610">8%</tspan>
                            </text>
                            <rect id="Rectangle-path" fill="#89A54E" sketch:type="MSShapeGroup" x="131" y="187" width="47" height="47"></rect>
                            <text id="Canada," fill="#000000" sketch:type="MSTextLayer" font-family="Calibri" font-size="56.3714458" font-weight="normal">
                                <tspan x="221" y="241">Canada,</tspan>
                            </text>
                            <text id="95," fill="#000000" sketch:type="MSTextLayer" font-family="Calibri" font-size="56.3714458" font-weight="normal">
                                <tspan x="517" y="241">95,</tspan>
                            </text>
                            <text id="2%" fill="#000000" sketch:type="MSTextLayer" font-family="Calibri" font-size="56.3714458" font-weight="normal">
                                <tspan x="643" y="241">2%</tspan>
                            </text>
                            <rect id="Rectangle-path" fill="#71588F" sketch:type="MSShapeGroup" x="2287" y="0" width="47" height="47"></rect>
                            <text id="International," fill="#000000" sketch:type="MSTextLayer" font-family="Calibri" font-size="56.3714458" font-weight="normal">
                                <tspan x="2378" y="54">International,</tspan>
                            </text>
                            <text id="8," fill="#000000" sketch:type="MSTextLayer" font-family="Calibri" font-size="56.3714458" font-weight="normal">
                                <tspan x="2865" y="54">8,</tspan>
                            </text>
                            <text id="0%" fill="#000000" sketch:type="MSTextLayer" font-family="Calibri" font-size="56.3714458" font-weight="normal">
                                <tspan x="2949" y="54">0%</tspan>
                            </text>
                            <rect id="Rectangle-path" fill="#4198AF" sketch:type="MSShapeGroup" x="2470" y="130" width="47" height="46"></rect>
                            <text id="Italy," fill="#000000" sketch:type="MSTextLayer" font-family="Calibri" font-size="56.3714458" font-weight="normal">
                                <tspan x="2561" y="183">Italy,</tspan>
                            </text>
                            <text id="5," fill="#000000" sketch:type="MSTextLayer" font-family="Calibri" font-size="56.3714458" font-weight="normal">
                                <tspan x="2749" y="183">5,</tspan>
                            </text>
                            <text id="0%" fill="#000000" sketch:type="MSTextLayer" font-family="Calibri" font-size="56.3714458" font-weight="normal">
                                <tspan x="2832" y="183">0%</tspan>
                            </text>
                            <rect id="Rectangle-path" fill="#DB843D" sketch:type="MSShapeGroup" x="666" y="51" width="46" height="47"></rect>
                            <text id="Austria," fill="#000000" sketch:type="MSTextLayer" font-family="Calibri" font-size="56.3714458" font-weight="normal">
                                <tspan x="756" y="105">Austria,</tspan>
                            </text>
                            <text id="3," fill="#000000" sketch:type="MSTextLayer" font-family="Calibri" font-size="56.3714458" font-weight="normal">
                                <tspan x="1040" y="105">3,</tspan>
                            </text>
                            <text id="0%" fill="#000000" sketch:type="MSTextLayer" font-family="Calibri" font-size="56.3714458" font-weight="normal">
                                <tspan x="1124" y="105">0%</tspan>
                            </text>
                        </g>
                    </g>
                </g>
            </g>
        </g>
    </g>
</svg>