<?xml version="1.0" encoding="UTF-8" standalone="no"?>
<svg width="3413px" height="2374px" viewBox="0 0 3413 2374" version="1.1" xmlns="http://www.w3.org/2000/svg" xmlns:xlink="http://www.w3.org/1999/xlink" xmlns:sketch="http://www.bohemiancoding.com/sketch/ns">
    <!-- Generator: Sketch 3.2.2 (9983) - http://www.bohemiancoding.com/sketch -->
    <title>funding_agency</title>
    <desc>Created with Sketch.</desc>
    <defs></defs>
    <g id="Page-1" stroke="none" stroke-width="1" fill="none" fill-rule="evenodd" sketch:type="MSPage">
        <g id="funding_agency" sketch:type="MSLayerGroup" transform="translate(0.000000, -1.000000)">
            <g id="Page-1">
                <g id="Top-Funding-Agencies-for-Cites-Jan-2004-to-Feb-2015-from-MedLine.001">
                    <g id="Page_1-Clipped">
                        <g id="Page_1">
                            <path d="M1789,1186 L2734,1494 L2749,1445 L2761,1396 L2770,1346 L2777,1297 L2781,1248 L2783,1199 L2783,1150 L2780,1101 L2774,1053 L2767,1006 L2757,959 L2745,912 L2731,867 L2714,822 L2696,778 L2675,735 L2652,693 L2628,652 L2601,612 L2573,574 L2542,537 L2510,501 L2476,467 L2441,434 L2403,403 L2364,374 L2324,347 L2281,321 L2237,298 L2192,276 L2145,257 L2097,240 L2059,229 L2021,219 L1983,210 L1945,204 L1906,198 L1867,194 L1828,192 L1789,191 L1789,1186 L1789,1186 Z" id="Shape" fill="#4572A7" sketch:type="MSShapeGroup"></path>
                            <path d="M1789,1186 L2059,2143 L2118,2124 L2175,2102 L2231,2077 L2285,2048 L2336,2016 L2386,1981 L2433,1943 L2478,1903 L2520,1860 L2559,1814 L2596,1766 L2630,1716 L2661,1663 L2689,1609 L2713,1552 L2734,1494 L1789,1186 L1789,1186 Z" id="Shape" fill="#AA4643" sketch:type="MSShapeGroup"></path>
                            <path d="M1789,1186 L1543,2149 L1575,2157 L1607,2163 L1671,2173 L1704,2176 L1736,2178 L1769,2180 L1801,2180 L1834,2179 L1866,2177 L1899,2174 L1931,2170 L1963,2165 L1995,2159 L2059,2143 L1789,1186 L1789,1186 Z" id="Shape" fill="#89A54E" sketch:type="MSShapeGroup"></path>
                            <path d="M1789,1186 L1107,1910 L1154,1952 L1204,1990 L1256,2025 L1310,2057 L1366,2086 L1423,2111 L1483,2132 L1543,2149 L1789,1186 L1789,1186 Z" id="Shape" fill="#71588F" sketch:type="MSShapeGroup"></path>
                            <path d="M1789,1186 L859,1539 L881,1591 L905,1642 L932,1691 L962,1739 L995,1785 L1030,1828 L1067,1870 L1107,1910 L1789,1186 L1789,1186 Z" id="Shape" fill="#4198AF" sketch:type="MSShapeGroup"></path>
                            <path d="M1789,1186 L798,1099 L795,1155 L795,1211 L798,1267 L804,1323 L813,1378 L825,1432 L841,1486 L859,1539 L1789,1186 L1789,1186 Z" id="Shape" fill="#DB843D" sketch:type="MSShapeGroup"></path>
                            <path d="M1789,1186 L916,708 L893,754 L871,801 L853,849 L837,898 L823,947 L812,997 L804,1048 L798,1099 L1789,1186 L1789,1186 Z" id="Shape" fill="#93A9CF" sketch:type="MSShapeGroup"></path>
                            <path d="M1789,1186 L1114,455 L1085,483 L1057,512 L1030,542 L1005,573 L981,605 L958,639 L936,673 L916,708 L1789,1186 L1789,1186 Z" id="Shape" fill="#D19392" sketch:type="MSShapeGroup"></path>
                            <path d="M1789,1186 L1377,281 L1341,298 L1306,316 L1272,336 L1238,357 L1206,380 L1174,404 L1144,429 L1114,455 L1789,1186 L1789,1186 Z" id="Shape" fill="#B9CD96" sketch:type="MSShapeGroup"></path>
                            <path d="M1789,1186 L1633,204 L1600,210 L1567,217 L1534,225 L1502,234 L1470,244 L1439,255 L1408,267 L1377,281 L1789,1186 L1789,1186 Z" id="Shape" fill="#A99BBD" sketch:type="MSShapeGroup"></path>
                            <path d="M1789,1186 L1789,191 L1749,192 L1710,194 L1671,198 L1633,204 L1789,1186 L1789,1186 Z" id="Shape" fill="#91C3D5" sketch:type="MSShapeGroup"></path>
                            <path d="M1709,191 L1973,52 L2013,52 L2013,58 L1974,58 L1975,58 L1711,197 L1709,191 L1709,191 Z M2480,1901 L2605,2050 L2603,2049 L2641,2049 L2641,2055 L2603,2055 L2601,2054 L2476,1905 L2480,1901 L2480,1901 Z M1313,2058 L1258,2230 L1255,2232 L1216,2232 L1216,2226 L1255,2226 L1252,2228 L1307,2056 L1313,2058 L1313,2058 Z M965,1740 L912,1877 L909,1879 L870,1879 L870,1873 L909,1873 L906,1875 L959,1738 L965,1740 L965,1740 Z M1237,360 L1126,299 L1127,299 L1088,299 L1088,293 L1128,293 L1239,354 L1237,360 L1237,360 Z M1004,576 L853,530 L854,530 L815,530 L815,524 L855,524 L1006,570 L1004,576 L1004,576 Z M2590,600 L2633,509 L2636,507 L2675,507 L2675,513 L2636,513 L2639,511 L2596,602 L2590,600 L2590,600 Z M803,1326 L676,1295 L677,1295 L639,1295 L639,1289 L678,1289 L805,1320 L803,1326 L803,1326 Z M1499,234 L1468,85 L1474,83 L1505,232 L1499,234 L1499,234 Z M837,900 L697,890 L658,890 L658,884 L697,884 L837,894 L837,900 L837,900 Z M1804,2180 L1804,2283 L1798,2283 L1798,2180 L1804,2180 L1804,2180 Z" id="Shape" fill="#000000" sketch:type="MSShapeGroup"></path>
                            <rect id="Rectangle-path" fill="#4572A7" sketch:type="MSShapeGroup" x="2719" y="456" width="47" height="47"></rect>
                            <text id="NIGMS," fill="#000000" sketch:type="MSTextLayer" font-family="Calibri" font-size="58.3847117" font-weight="normal">
                                <tspan x="2810" y="511">NIGMS,</tspan>
                            </text>
                            <text id="1042," fill="#000000" sketch:type="MSTextLayer" font-family="Calibri" font-size="58.3847117" font-weight="normal">
                                <tspan x="3097" y="511">1042,</tspan>
                            </text>
                            <text id="30%" fill="#000000" sketch:type="MSTextLayer" font-family="Calibri" font-size="58.3847117" font-weight="normal">
                                <tspan x="3314" y="511">30%</tspan>
                            </text>
                            <rect id="Rectangle-path" fill="#AA4643" sketch:type="MSShapeGroup" x="2685" y="1998" width="47" height="47"></rect>
                            <text id="NCI," fill="#000000" sketch:type="MSTextLayer" font-family="Calibri" font-size="58.3847117" font-weight="normal">
                                <tspan x="2776" y="2053">NCI,</tspan>
                            </text>
                            <text id="542," fill="#000000" sketch:type="MSTextLayer" font-family="Calibri" font-size="58.3847117" font-weight="normal">
                                <tspan x="2941" y="2053">542,</tspan>
                            </text>
                            <text id="16%" fill="#000000" sketch:type="MSTextLayer" font-family="Calibri" font-size="58.3847117" font-weight="normal">
                                <tspan x="3114" y="2053">16%</tspan>
                            </text>
                            <rect id="Rectangle-path" fill="#89A54E" sketch:type="MSShapeGroup" x="1713" y="2311" width="47" height="48"></rect>
                            <text id="NIAID," fill="#000000" sketch:type="MSTextLayer" font-family="Calibri" font-size="58.3847117" font-weight="normal">
                                <tspan x="1805" y="2366">NIAID,</tspan>
                            </text>
                            <text id="290," fill="#000000" sketch:type="MSTextLayer" font-family="Calibri" font-size="58.3847117" font-weight="normal">
                                <tspan x="2048" y="2366">290,</tspan>
                            </text>
                            <text id="8%" fill="#000000" sketch:type="MSTextLayer" font-family="Calibri" font-size="58.3847117" font-weight="normal">
                                <tspan x="2221" y="2366">8%</tspan>
                            </text>
                            <rect id="Rectangle-path" fill="#71588F" sketch:type="MSShapeGroup" x="597" y="2176" width="47" height="47"></rect>
                            <text id="NCRR," fill="#000000" sketch:type="MSTextLayer" font-family="Calibri" font-size="58.3847117" font-weight="normal">
                                <tspan x="688" y="2230">NCRR,</tspan>
                            </text>
                            <text id="279," fill="#000000" sketch:type="MSTextLayer" font-family="Calibri" font-size="58.3847117" font-weight="normal">
                                <tspan x="925" y="2230">279,</tspan>
                            </text>
                            <text id="8%" fill="#000000" sketch:type="MSTextLayer" font-family="Calibri" font-size="58.3847117" font-weight="normal">
                                <tspan x="1098" y="2230">8%</tspan>
                            </text>
                            <rect id="Rectangle-path" fill="#4198AF" sketch:type="MSShapeGroup" x="218" y="1823" width="47" height="47"></rect>
                            <text id="NIDDK," fill="#000000" sketch:type="MSTextLayer" font-family="Calibri" font-size="58.3847117" font-weight="normal">
                                <tspan x="309" y="1877">NIDDK,</tspan>
                            </text>
                            <text id="250," fill="#000000" sketch:type="MSTextLayer" font-family="Calibri" font-size="58.3847117" font-weight="normal">
                                <tspan x="579" y="1877">250,</tspan>
                            </text>
                            <text id="7%" fill="#000000" sketch:type="MSTextLayer" font-family="Calibri" font-size="58.3847117" font-weight="normal">
                                <tspan x="752" y="1877">7%</tspan>
                            </text>
                            <rect id="Rectangle-path" fill="#DB843D" sketch:type="MSShapeGroup" x="0" y="1238" width="48" height="48"></rect>
                            <text id="NHLBI," fill="#000000" sketch:type="MSTextLayer" font-family="Calibri" font-size="58.3847117" font-weight="normal">
                                <tspan x="92" y="1293">NHLBI,</tspan>
                            </text>
                            <text id="249," fill="#000000" sketch:type="MSTextLayer" font-family="Calibri" font-size="58.3847117" font-weight="normal">
                                <tspan x="348" y="1293">249,</tspan>
                            </text>
                            <text id="7%" fill="#000000" sketch:type="MSTextLayer" font-family="Calibri" font-size="58.3847117" font-weight="normal">
                                <tspan x="521" y="1293">7%</tspan>
                            </text>
                            <rect id="Rectangle-path" fill="#93A9CF" sketch:type="MSShapeGroup" x="68" y="833" width="48" height="48"></rect>
                            <text id="NLM," fill="#000000" sketch:type="MSTextLayer" font-family="Calibri" font-size="58.3847117" font-weight="normal">
                                <tspan x="160" y="888">NLM,</tspan>
                            </text>
                            <text id="229," fill="#000000" sketch:type="MSTextLayer" font-family="Calibri" font-size="58.3847117" font-weight="normal">
                                <tspan x="368" y="888">229,</tspan>
                            </text>
                            <text id="7%" fill="#000000" sketch:type="MSTextLayer" font-family="Calibri" font-size="58.3847117" font-weight="normal">
                                <tspan x="540" y="888">7%</tspan>
                            </text>
                            <rect id="Rectangle-path" fill="#D19392" sketch:type="MSShapeGroup" x="159" y="473" width="47" height="48"></rect>
                            <text id="NHGRI," fill="#000000" sketch:type="MSTextLayer" font-family="Calibri" font-size="58.3847117" font-weight="normal">
                                <tspan x="251" y="528">NHGRI,</tspan>
                            </text>
                            <text id="179," fill="#000000" sketch:type="MSTextLayer" font-family="Calibri" font-size="58.3847117" font-weight="normal">
                                <tspan x="525" y="528">179,</tspan>
                            </text>
                            <text id="5%" fill="#000000" sketch:type="MSTextLayer" font-family="Calibri" font-size="58.3847117" font-weight="normal">
                                <tspan x="697" y="528">5%</tspan>
                            </text>
                            <rect id="Rectangle-path" fill="#B9CD96" sketch:type="MSShapeGroup" x="451" y="243" width="48" height="47"></rect>
                            <text id="NIEHS," fill="#000000" sketch:type="MSTextLayer" font-family="Calibri" font-size="58.3847117" font-weight="normal">
                                <tspan x="543" y="297">NIEHS,</tspan>
                            </text>
                            <text id="176," fill="#000000" sketch:type="MSTextLayer" font-family="Calibri" font-size="58.3847117" font-weight="normal">
                                <tspan x="799" y="297">176,</tspan>
                            </text>
                            <text id="5%" fill="#000000" sketch:type="MSTextLayer" font-family="Calibri" font-size="58.3847117" font-weight="normal">
                                <tspan x="971" y="297">5%</tspan>
                            </text>
                            <rect id="Rectangle-path" fill="#A99BBD" sketch:type="MSShapeGroup" x="842" y="30" width="47" height="48"></rect>
                            <text id="NIMH," fill="#000000" sketch:type="MSTextLayer" font-family="Calibri" font-size="58.3847117" font-weight="normal">
                                <tspan x="933" y="85">NIMH,</tspan>
                            </text>
                            <text id="149," fill="#000000" sketch:type="MSTextLayer" font-family="Calibri" font-size="58.3847117" font-weight="normal">
                                <tspan x="1179" y="85">149,</tspan>
                            </text>
                            <text id="4%" fill="#000000" sketch:type="MSTextLayer" font-family="Calibri" font-size="58.3847117" font-weight="normal">
                                <tspan x="1353" y="85">4%</tspan>
                            </text>
                            <rect id="Rectangle-path" fill="#91C3D5" sketch:type="MSShapeGroup" x="2057" y="1" width="47" height="47"></rect>
                            <text id="Wellcome" fill="#000000" sketch:type="MSTextLayer" font-family="Calibri" font-size="58.3847117" font-weight="normal">
                                <tspan x="2148" y="56">Wellcome</tspan>
                            </text>
                            <text id="Trust," fill="#000000" sketch:type="MSTextLayer" font-family="Calibri" font-size="58.3847117" font-weight="normal">
                                <tspan x="2522" y="56">Trust,</tspan>
                            </text>
                            <text id="87," fill="#000000" sketch:type="MSTextLayer" font-family="Calibri" font-size="58.3847117" font-weight="normal">
                                <tspan x="2744" y="56">87,</tspan>
                            </text>
                            <text id="3%" fill="#000000" sketch:type="MSTextLayer" font-family="Calibri" font-size="58.3847117" font-weight="normal">
                                <tspan x="2448" y="162">3%</tspan>
                            </text>
                        </g>
                    </g>
                </g>
            </g>
        </g>
    </g>
</svg>