<?xml version="1.0" encoding="UTF-8" standalone="no"?>
<svg width="3435px" height="2769px" viewBox="0 0 3435 2769" version="1.1" xmlns="http://www.w3.org/2000/svg" xmlns:xlink="http://www.w3.org/1999/xlink" xmlns:sketch="http://www.bohemiancoding.com/sketch/ns">
    <!-- Generator: Sketch 3.2.2 (9983) - http://www.bohemiancoding.com/sketch -->
    <title>Top Funding Agencies for Cites Jan 2004 to Feb 2015 from MedLine.001</title>
    <desc>Created with Sketch.</desc>
    <defs></defs>
    <g id="Page-1" stroke="none" stroke-width="1" fill="none" fill-rule="evenodd" sketch:type="MSPage">
        <g id="Top-Funding-Agencies-for-Cites-Jan-2004-to-Feb-2015-from-MedLine.001" sketch:type="MSLayerGroup" transform="translate(0.000000, -34.000000)">
            <g id="Page_1-Clipped">
                <g id="Page_1">
                    <path d="M1789,1612 L2734,1920 L2749,1871 L2761,1822 L2770,1772 L2777,1723 L2781,1674 L2783,1625 L2783,1576 L2780,1527 L2774,1479 L2767,1432 L2757,1385 L2745,1338 L2731,1293 L2714,1248 L2696,1204 L2675,1161 L2652,1119 L2628,1078 L2601,1038 L2573,1000 L2542,963 L2510,927 L2476,893 L2441,860 L2403,829 L2364,800 L2324,773 L2281,747 L2237,724 L2192,702 L2145,683 L2097,666 L2059,655 L2021,645 L1983,636 L1945,630 L1906,624 L1867,620 L1828,618 L1789,617 L1789,1612 L1789,1612 Z" id="Shape" fill="#4572A7" sketch:type="MSShapeGroup"></path>
                    <path d="M1789,1612 L2059,2569 L2118,2550 L2175,2528 L2231,2503 L2285,2474 L2336,2442 L2386,2407 L2433,2369 L2478,2329 L2520,2286 L2559,2240 L2596,2192 L2630,2142 L2661,2089 L2689,2035 L2713,1978 L2734,1920 L1789,1612 L1789,1612 Z" id="Shape" fill="#AA4643" sketch:type="MSShapeGroup"></path>
                    <path d="M1789,1612 L1543,2575 L1575,2583 L1607,2589 L1671,2599 L1704,2602 L1736,2604 L1769,2606 L1801,2606 L1834,2605 L1866,2603 L1899,2600 L1931,2596 L1963,2591 L1995,2585 L2059,2569 L1789,1612 L1789,1612 Z" id="Shape" fill="#89A54E" sketch:type="MSShapeGroup"></path>
                    <path d="M1789,1612 L1107,2336 L1154,2378 L1204,2416 L1256,2451 L1310,2483 L1366,2512 L1423,2537 L1483,2558 L1543,2575 L1789,1612 L1789,1612 Z" id="Shape" fill="#71588F" sketch:type="MSShapeGroup"></path>
                    <path d="M1789,1612 L859,1965 L881,2017 L905,2068 L932,2117 L962,2165 L995,2211 L1030,2254 L1067,2296 L1107,2336 L1789,1612 L1789,1612 Z" id="Shape" fill="#4198AF" sketch:type="MSShapeGroup"></path>
                    <path d="M1789,1612 L798,1525 L795,1581 L795,1637 L798,1693 L804,1749 L813,1804 L825,1858 L841,1912 L859,1965 L1789,1612 L1789,1612 Z" id="Shape" fill="#DB843D" sketch:type="MSShapeGroup"></path>
                    <path d="M1789,1612 L916,1134 L893,1180 L871,1227 L853,1275 L837,1324 L823,1373 L812,1423 L804,1474 L798,1525 L1789,1612 L1789,1612 Z" id="Shape" fill="#93A9CF" sketch:type="MSShapeGroup"></path>
                    <path d="M1789,1612 L1114,881 L1085,909 L1057,938 L1030,968 L1005,999 L981,1031 L958,1065 L936,1099 L916,1134 L1789,1612 L1789,1612 Z" id="Shape" fill="#D19392" sketch:type="MSShapeGroup"></path>
                    <path d="M1789,1612 L1377,707 L1341,724 L1306,742 L1272,762 L1238,783 L1206,806 L1174,830 L1144,855 L1114,881 L1789,1612 L1789,1612 Z" id="Shape" fill="#B9CD96" sketch:type="MSShapeGroup"></path>
                    <path d="M1789,1612 L1633,630 L1600,636 L1567,643 L1534,651 L1502,660 L1470,670 L1439,681 L1408,693 L1377,707 L1789,1612 L1789,1612 Z" id="Shape" fill="#A99BBD" sketch:type="MSShapeGroup"></path>
                    <path d="M1789,1612 L1789,617 L1749,618 L1710,620 L1671,624 L1633,630 L1789,1612 L1789,1612 Z" id="Shape" fill="#91C3D5" sketch:type="MSShapeGroup"></path>
                    <path d="M1709,617 L1973,478 L2013,478 L2013,484 L1974,484 L1975,484 L1711,623 L1709,617 L1709,617 Z M2480,2327 L2605,2476 L2603,2475 L2641,2475 L2641,2481 L2603,2481 L2601,2480 L2476,2331 L2480,2327 L2480,2327 Z M1313,2484 L1258,2656 L1255,2658 L1216,2658 L1216,2652 L1255,2652 L1252,2654 L1307,2482 L1313,2484 L1313,2484 Z M965,2166 L912,2303 L909,2305 L870,2305 L870,2299 L909,2299 L906,2301 L959,2164 L965,2166 L965,2166 Z M1237,786 L1126,725 L1127,725 L1088,725 L1088,719 L1128,719 L1239,780 L1237,786 L1237,786 Z M1004,1002 L853,956 L854,956 L815,956 L815,950 L855,950 L1006,996 L1004,1002 L1004,1002 Z M2590,1026 L2633,935 L2636,933 L2675,933 L2675,939 L2636,939 L2639,937 L2596,1028 L2590,1026 L2590,1026 Z M803,1752 L676,1721 L677,1721 L639,1721 L639,1715 L678,1715 L805,1746 L803,1752 L803,1752 Z M1499,660 L1468,511 L1474,509 L1505,658 L1499,660 L1499,660 Z M837,1326 L697,1316 L658,1316 L658,1310 L697,1310 L837,1320 L837,1326 L837,1326 Z M1804,2606 L1804,2709 L1798,2709 L1798,2606 L1804,2606 L1804,2606 Z" id="Shape" fill="#000000" sketch:type="MSShapeGroup"></path>
                    <rect id="Rectangle-path" fill="#4572A7" sketch:type="MSShapeGroup" x="2719" y="882" width="47" height="47"></rect>
                    <text id="NIGMS," fill="#000000" sketch:type="MSTextLayer" font-family="Calibri" font-size="71.2704" font-weight="normal">
                        <tspan x="2810" y="937">NIGMS,</tspan>
                    </text>
                    <text id="1042," fill="#000000" sketch:type="MSTextLayer" font-family="Calibri" font-size="71.2704" font-weight="normal">
                        <tspan x="3097" y="937">1042,</tspan>
                    </text>
                    <text id="30%" fill="#000000" sketch:type="MSTextLayer" font-family="Calibri" font-size="71.2704" font-weight="normal">
                        <tspan x="3314" y="937">30%</tspan>
                    </text>
                    <rect id="Rectangle-path" fill="#AA4643" sketch:type="MSShapeGroup" x="2685" y="2424" width="47" height="47"></rect>
                    <text id="NCI," fill="#000000" sketch:type="MSTextLayer" font-family="Calibri" font-size="71.2704" font-weight="normal">
                        <tspan x="2776" y="2479">NCI,</tspan>
                    </text>
                    <text id="542," fill="#000000" sketch:type="MSTextLayer" font-family="Calibri" font-size="71.2704" font-weight="normal">
                        <tspan x="2941" y="2479">542,</tspan>
                    </text>
                    <text id="16%" fill="#000000" sketch:type="MSTextLayer" font-family="Calibri" font-size="71.2704" font-weight="normal">
                        <tspan x="3114" y="2479">16%</tspan>
                    </text>
                    <rect id="Rectangle-path" fill="#89A54E" sketch:type="MSShapeGroup" x="1713" y="2737" width="47" height="48"></rect>
                    <text id="NIAID," fill="#000000" sketch:type="MSTextLayer" font-family="Calibri" font-size="71.2704" font-weight="normal">
                        <tspan x="1805" y="2792">NIAID,</tspan>
                    </text>
                    <text id="290," fill="#000000" sketch:type="MSTextLayer" font-family="Calibri" font-size="71.2704" font-weight="normal">
                        <tspan x="2048" y="2792">290,</tspan>
                    </text>
                    <text id="8%" fill="#000000" sketch:type="MSTextLayer" font-family="Calibri" font-size="71.2704" font-weight="normal">
                        <tspan x="2221" y="2792">8%</tspan>
                    </text>
                    <rect id="Rectangle-path" fill="#71588F" sketch:type="MSShapeGroup" x="597" y="2602" width="47" height="47"></rect>
                    <text id="NCRR," fill="#000000" sketch:type="MSTextLayer" font-family="Calibri" font-size="71.2704" font-weight="normal">
                        <tspan x="688" y="2656">NCRR,</tspan>
                    </text>
                    <text id="279," fill="#000000" sketch:type="MSTextLayer" font-family="Calibri" font-size="71.2704" font-weight="normal">
                        <tspan x="925" y="2656">279,</tspan>
                    </text>
                    <text id="8%" fill="#000000" sketch:type="MSTextLayer" font-family="Calibri" font-size="71.2704" font-weight="normal">
                        <tspan x="1098" y="2656">8%</tspan>
                    </text>
                    <rect id="Rectangle-path" fill="#4198AF" sketch:type="MSShapeGroup" x="218" y="2249" width="47" height="47"></rect>
                    <text id="NIDDK," fill="#000000" sketch:type="MSTextLayer" font-family="Calibri" font-size="71.2704" font-weight="normal">
                        <tspan x="309" y="2303">NIDDK,</tspan>
                    </text>
                    <text id="250," fill="#000000" sketch:type="MSTextLayer" font-family="Calibri" font-size="71.2704" font-weight="normal">
                        <tspan x="579" y="2303">250,</tspan>
                    </text>
                    <text id="7%" fill="#000000" sketch:type="MSTextLayer" font-family="Calibri" font-size="71.2704" font-weight="normal">
                        <tspan x="752" y="2303">7%</tspan>
                    </text>
                    <rect id="Rectangle-path" fill="#DB843D" sketch:type="MSShapeGroup" x="0" y="1664" width="48" height="48"></rect>
                    <text id="NHLBI," fill="#000000" sketch:type="MSTextLayer" font-family="Calibri" font-size="71.2704" font-weight="normal">
                        <tspan x="92" y="1719">NHLBI,</tspan>
                    </text>
                    <text id="249," fill="#000000" sketch:type="MSTextLayer" font-family="Calibri" font-size="71.2704" font-weight="normal">
                        <tspan x="348" y="1719">249,</tspan>
                    </text>
                    <text id="7%" fill="#000000" sketch:type="MSTextLayer" font-family="Calibri" font-size="71.2704" font-weight="normal">
                        <tspan x="521" y="1719">7%</tspan>
                    </text>
                    <rect id="Rectangle-path" fill="#93A9CF" sketch:type="MSShapeGroup" x="68" y="1259" width="48" height="48"></rect>
                    <text id="NLM," fill="#000000" sketch:type="MSTextLayer" font-family="Calibri" font-size="71.2704" font-weight="normal">
                        <tspan x="160" y="1314">NLM,</tspan>
                    </text>
                    <text id="229," fill="#000000" sketch:type="MSTextLayer" font-family="Calibri" font-size="71.2704" font-weight="normal">
                        <tspan x="368" y="1314">229,</tspan>
                    </text>
                    <text id="7%" fill="#000000" sketch:type="MSTextLayer" font-family="Calibri" font-size="71.2704" font-weight="normal">
                        <tspan x="540" y="1314">7%</tspan>
                    </text>
                    <rect id="Rectangle-path" fill="#D19392" sketch:type="MSShapeGroup" x="159" y="899" width="47" height="48"></rect>
                    <text id="NHGRI," fill="#000000" sketch:type="MSTextLayer" font-family="Calibri" font-size="71.2704" font-weight="normal">
                        <tspan x="251" y="954">NHGRI,</tspan>
                    </text>
                    <text id="179," fill="#000000" sketch:type="MSTextLayer" font-family="Calibri" font-size="71.2704" font-weight="normal">
                        <tspan x="525" y="954">179,</tspan>
                    </text>
                    <text id="5%" fill="#000000" sketch:type="MSTextLayer" font-family="Calibri" font-size="71.2704" font-weight="normal">
                        <tspan x="697" y="954">5%</tspan>
                    </text>
                    <rect id="Rectangle-path" fill="#B9CD96" sketch:type="MSShapeGroup" x="451" y="669" width="48" height="47"></rect>
                    <text id="NIEHS," fill="#000000" sketch:type="MSTextLayer" font-family="Calibri" font-size="71.2704" font-weight="normal">
                        <tspan x="543" y="723">NIEHS,</tspan>
                    </text>
                    <text id="176," fill="#000000" sketch:type="MSTextLayer" font-family="Calibri" font-size="71.2704" font-weight="normal">
                        <tspan x="799" y="723">176,</tspan>
                    </text>
                    <text id="5%" fill="#000000" sketch:type="MSTextLayer" font-family="Calibri" font-size="71.2704" font-weight="normal">
                        <tspan x="971" y="723">5%</tspan>
                    </text>
                    <rect id="Rectangle-path" fill="#A99BBD" sketch:type="MSShapeGroup" x="842" y="456" width="47" height="48"></rect>
                    <text id="NIMH," fill="#000000" sketch:type="MSTextLayer" font-family="Calibri" font-size="71.2704" font-weight="normal">
                        <tspan x="933" y="511">NIMH,</tspan>
                    </text>
                    <text id="149," fill="#000000" sketch:type="MSTextLayer" font-family="Calibri" font-size="71.2704" font-weight="normal">
                        <tspan x="1179" y="511">149,</tspan>
                    </text>
                    <text id="4%" fill="#000000" sketch:type="MSTextLayer" font-family="Calibri" font-size="71.2704" font-weight="normal">
                        <tspan x="1353" y="511">4%</tspan>
                    </text>
                    <rect id="Rectangle-path" fill="#91C3D5" sketch:type="MSShapeGroup" x="2057" y="427" width="47" height="47"></rect>
                    <text id="Wellcome" fill="#000000" sketch:type="MSTextLayer" font-family="Calibri" font-size="71.2704" font-weight="normal">
                        <tspan x="2148" y="482">Wellcome</tspan>
                    </text>
                    <text id="Trust," fill="#000000" sketch:type="MSTextLayer" font-family="Calibri" font-size="71.2704" font-weight="normal">
                        <tspan x="2522" y="482">Trust,</tspan>
                    </text>
                    <text id="87," fill="#000000" sketch:type="MSTextLayer" font-family="Calibri" font-size="71.2704" font-weight="normal">
                        <tspan x="2744" y="482">87,</tspan>
                    </text>
                    <text id="3%" fill="#000000" sketch:type="MSTextLayer" font-family="Calibri" font-size="71.2704" font-weight="normal">
                        <tspan x="2448" y="588">3%</tspan>
                    </text>
                    <text id="Top" fill="#000000" sketch:type="MSTextLayer" font-family="Calibri" font-size="127.7952" font-weight="bold">
                        <tspan x="938" y="122">Top</tspan>
                    </text>
                    <text id="11" fill="#000000" sketch:type="MSTextLayer" font-family="Calibri" font-size="127.7952" font-weight="bold">
                        <tspan x="1205" y="122">11</tspan>
                    </text>
                    <text id="Funding" fill="#000000" sketch:type="MSTextLayer" font-family="Calibri" font-size="127.7952" font-weight="bold">
                        <tspan x="1398" y="122">Funding</tspan>
                    </text>
                    <text id="Agency" fill="#000000" sketch:type="MSTextLayer" font-family="Calibri" font-size="127.7952" font-weight="bold">
                        <tspan x="1951" y="122">Agency</tspan>
                    </text>
                    <text id="for" fill="#000000" sketch:type="MSTextLayer" font-family="Calibri" font-size="127.7952" font-weight="bold">
                        <tspan x="2454" y="122">for</tspan>
                    </text>
                    <text id="Cytoscape" fill="#000000" sketch:type="MSTextLayer" font-family="Calibri" font-size="127.7952" font-weight="bold">
                        <tspan x="619" y="313">Cytoscape</tspan>
                    </text>
                    <text id="Citations" fill="#000000" sketch:type="MSTextLayer" font-family="Calibri" font-size="127.7952" font-weight="bold">
                        <tspan x="1313" y="313">Citations</tspan>
                    </text>
                    <text id="(4,396" fill="#000000" sketch:type="MSTextLayer" font-family="Calibri" font-size="127.7952" font-weight="bold">
                        <tspan x="1918" y="313">(4,396</tspan>
                    </text>
                    <text id="citations)" fill="#000000" sketch:type="MSTextLayer" font-family="Calibri" font-size="127.7952" font-weight="bold">
                        <tspan x="2359" y="313">citations)</tspan>
                    </text>
                </g>
            </g>
        </g>
    </g>
</svg>