<?xml version="1.0" encoding="UTF-8" standalone="no"?>
<svg width="3964px" height="2454px" viewBox="0 0 3964 2454" version="1.1" xmlns="http://www.w3.org/2000/svg" xmlns:xlink="http://www.w3.org/1999/xlink" xmlns:sketch="http://www.bohemiancoding.com/sketch/ns">
    <!-- Generator: Sketch 3.2.2 (9983) - http://www.bohemiancoding.com/sketch -->
    <title>Countries Funding Cites Jan 2004 to Feb 2015 from MedLine.001</title>
    <desc>Created with Sketch.</desc>
    <defs></defs>
    <g id="Page-1" stroke="none" stroke-width="1" fill="none" fill-rule="evenodd" sketch:type="MSPage">
        <g id="Countries-Funding-Cites-Jan-2004-to-Feb-2015-from-MedLine.001" sketch:type="MSLayerGroup" transform="translate(0.000000, -34.000000)">
            <g id="Page_1-Clipped">
                <g id="Page_1">
                    <path d="M1987,1544 L1439,775 L1400,804 L1363,835 L1328,867 L1295,901 L1264,936 L1235,972 L1208,1010 L1183,1048 L1159,1088 L1138,1129 L1119,1170 L1102,1212 L1088,1255 L1075,1299 L1064,1343 L1056,1387 L1049,1432 L1045,1477 L1043,1523 L1043,1568 L1045,1614 L1049,1659 L1056,1704 L1065,1749 L1076,1794 L1089,1839 L1105,1882 L1123,1926 L1143,1969 L1166,2011 L1191,2052 L1218,2092 L1247,2131 L1278,2168 L1310,2203 L1344,2236 L1379,2267 L1416,2296 L1453,2323 L1492,2348 L1532,2372 L1572,2393 L1614,2412 L1656,2429 L1699,2443 L1743,2456 L1787,2467 L1831,2476 L1876,2482 L1921,2486 L1966,2488 L2012,2488 L2057,2486 L2103,2482 L2148,2475 L2193,2466 L2238,2455 L2282,2442 L2326,2426 L2369,2408 L2412,2388 L2454,2365 L2495,2340 L2535,2313 L2574,2284 L2611,2253 L2646,2221 L2679,2187 L2710,2152 L2739,2115 L2766,2078 L2791,2039 L2815,2000 L2836,1959 L2855,1917 L2872,1875 L2886,1832 L2899,1789 L2910,1745 L2919,1700 L2925,1655 L2929,1610 L2931,1565 L2931,1520 L2929,1474 L2925,1429 L2918,1384 L2909,1339 L2898,1294 L2885,1249 L2869,1206 L2851,1162 L2831,1120 L2808,1078 L2783,1036 L2756,996 L2722,951 L2685,907 L2646,867 L2604,829 L2561,794 L2516,761 L2469,731 L2420,704 L2370,680 L2318,659 L2265,641 L2211,626 L2156,614 L2101,606 L2044,601 L1987,599 L1987,1544 L1987,1544 Z" id="Shape" fill="#4572A7" sketch:type="MSShapeGroup"></path>
                    <path d="M1987,1544 L1838,611 L1784,621 L1732,634 L1680,651 L1629,670 L1580,692 L1531,717 L1484,745 L1439,775 L1987,1544 L1987,1544 Z" id="Shape" fill="#AA4643" sketch:type="MSShapeGroup"></path>
                    <path d="M1987,1544 L1966,600 L1934,601 L1902,603 L1838,611 L1987,1544 L1987,1544 Z" id="Shape" fill="#89A54E" sketch:type="MSShapeGroup"></path>
                    <path d="M1987,1544 L1976,599 L1966,600 L1987,1544 L1987,1544 Z" id="Shape" fill="#71588F" sketch:type="MSShapeGroup"></path>
                    <path d="M1987,1544 L1983,599 L1976,599 L1987,1544 L1987,1544 Z" id="Shape" fill="#4198AF" sketch:type="MSShapeGroup"></path>
                    <path d="M1987,1544 L1987,599 L1983,599 L1987,1544 L1987,1544 Z" id="Shape" fill="#DB843D" sketch:type="MSShapeGroup"></path>
                    <path d="M1630,673 L894,895 L855,895 L855,889 L893,889 L892,889 L1628,667 L1630,673 L1630,673 Z M1985,602 L1277,494 L1238,494 L1238,488 L1277,488 L1985,596 L1985,602 L1985,602 Z M1969,597 L2205,438 L2207,437 L2245,437 L2245,443 L2207,443 L2209,442 L1973,601 L1969,597 L1969,597 Z M1902,606 L796,630 L758,630 L758,624 L796,624 L1902,600 L1902,606 L1902,606 Z M1980,596 L2390,566 L2428,566 L2428,572 L2390,572 L1980,602 L1980,596 L1980,596 Z" id="Shape" fill="#000000" sketch:type="MSShapeGroup"></path>
                    <rect id="Rectangle-path" fill="#4572A7" sketch:type="MSShapeGroup" x="3219" y="1493" width="46" height="46"></rect>
                    <text id="United" fill="#000000" sketch:type="MSTextLayer" font-family="Calibri" font-size="68.8128" font-weight="normal">
                        <tspan x="3308" y="1547">United</tspan>
                    </text>
                    <text id="States," fill="#000000" sketch:type="MSTextLayer" font-family="Calibri" font-size="68.8128" font-weight="normal">
                        <tspan x="3560" y="1547">States,</tspan>
                    </text>
                    <text id="3961," fill="#000000" sketch:type="MSTextLayer" font-family="Calibri" font-size="68.8128" font-weight="normal">
                        <tspan x="3812" y="1547">3961,</tspan>
                    </text>
                    <text id="90%" fill="#000000" sketch:type="MSTextLayer" font-family="Calibri" font-size="68.8128" font-weight="normal">
                        <tspan x="3583" y="1650">90%</tspan>
                    </text>
                    <rect id="Rectangle-path" fill="#AA4643" sketch:type="MSShapeGroup" x="0" y="839" width="46" height="47"></rect>
                    <text id="United" fill="#000000" sketch:type="MSTextLayer" font-family="Calibri" font-size="68.8128" font-weight="normal">
                        <tspan x="89" y="893">United</tspan>
                    </text>
                    <text id="Kingdom," fill="#000000" sketch:type="MSTextLayer" font-family="Calibri" font-size="68.8128" font-weight="normal">
                        <tspan x="341" y="893">Kingdom,</tspan>
                    </text>
                    <text id="322," fill="#000000" sketch:type="MSTextLayer" font-family="Calibri" font-size="68.8128" font-weight="normal">
                        <tspan x="686" y="893">322,</tspan>
                    </text>
                    <text id="8%" fill="#000000" sketch:type="MSTextLayer" font-family="Calibri" font-size="68.8128" font-weight="normal">
                        <tspan x="412" y="997">8%</tspan>
                    </text>
                    <rect id="Rectangle-path" fill="#89A54E" sketch:type="MSShapeGroup" x="131" y="574" width="47" height="47"></rect>
                    <text id="Canada," fill="#000000" sketch:type="MSTextLayer" font-family="Calibri" font-size="68.8128" font-weight="normal">
                        <tspan x="221" y="628">Canada,</tspan>
                    </text>
                    <text id="95," fill="#000000" sketch:type="MSTextLayer" font-family="Calibri" font-size="68.8128" font-weight="normal">
                        <tspan x="517" y="628">95,</tspan>
                    </text>
                    <text id="2%" fill="#000000" sketch:type="MSTextLayer" font-family="Calibri" font-size="68.8128" font-weight="normal">
                        <tspan x="643" y="628">2%</tspan>
                    </text>
                    <rect id="Rectangle-path" fill="#71588F" sketch:type="MSShapeGroup" x="2287" y="387" width="47" height="47"></rect>
                    <text id="International," fill="#000000" sketch:type="MSTextLayer" font-family="Calibri" font-size="68.8128" font-weight="normal">
                        <tspan x="2378" y="441">International,</tspan>
                    </text>
                    <text id="8," fill="#000000" sketch:type="MSTextLayer" font-family="Calibri" font-size="68.8128" font-weight="normal">
                        <tspan x="2865" y="441">8,</tspan>
                    </text>
                    <text id="0%" fill="#000000" sketch:type="MSTextLayer" font-family="Calibri" font-size="68.8128" font-weight="normal">
                        <tspan x="2949" y="441">0%</tspan>
                    </text>
                    <rect id="Rectangle-path" fill="#4198AF" sketch:type="MSShapeGroup" x="2470" y="517" width="47" height="46"></rect>
                    <text id="Italy," fill="#000000" sketch:type="MSTextLayer" font-family="Calibri" font-size="68.8128" font-weight="normal">
                        <tspan x="2561" y="570">Italy,</tspan>
                    </text>
                    <text id="5," fill="#000000" sketch:type="MSTextLayer" font-family="Calibri" font-size="68.8128" font-weight="normal">
                        <tspan x="2749" y="570">5,</tspan>
                    </text>
                    <text id="0%" fill="#000000" sketch:type="MSTextLayer" font-family="Calibri" font-size="68.8128" font-weight="normal">
                        <tspan x="2832" y="570">0%</tspan>
                    </text>
                    <rect id="Rectangle-path" fill="#DB843D" sketch:type="MSShapeGroup" x="666" y="438" width="46" height="47"></rect>
                    <text id="Austria," fill="#000000" sketch:type="MSTextLayer" font-family="Calibri" font-size="68.8128" font-weight="normal">
                        <tspan x="756" y="492">Austria,</tspan>
                    </text>
                    <text id="3," fill="#000000" sketch:type="MSTextLayer" font-family="Calibri" font-size="68.8128" font-weight="normal">
                        <tspan x="1040" y="492">3,</tspan>
                    </text>
                    <text id="0%" fill="#000000" sketch:type="MSTextLayer" font-family="Calibri" font-size="68.8128" font-weight="normal">
                        <tspan x="1124" y="492">0%</tspan>
                    </text>
                    <text id="Countries" fill="#000000" sketch:type="MSTextLayer" font-family="Calibri" font-size="124.5184" font-weight="bold">
                        <tspan x="1415" y="119">Countries</tspan>
                    </text>
                    <text id="Funding" fill="#000000" sketch:type="MSTextLayer" font-family="Calibri" font-size="124.5184" font-weight="bold">
                        <tspan x="2057" y="119">Funding</tspan>
                    </text>
                    <text id="Cytoscape" fill="#000000" sketch:type="MSTextLayer" font-family="Calibri" font-size="124.5184" font-weight="bold">
                        <tspan x="844" y="305">Cytoscape</tspan>
                    </text>
                    <text id="Citations" fill="#000000" sketch:type="MSTextLayer" font-family="Calibri" font-size="124.5184" font-weight="bold">
                        <tspan x="1522" y="305">Citations</tspan>
                    </text>
                    <text id="(4,396" fill="#000000" sketch:type="MSTextLayer" font-family="Calibri" font-size="124.5184" font-weight="bold">
                        <tspan x="2115" y="305">(4,396</tspan>
                    </text>
                    <text id="citations)" fill="#000000" sketch:type="MSTextLayer" font-family="Calibri" font-size="124.5184" font-weight="bold">
                        <tspan x="2545" y="305">citations)</tspan>
                    </text>
                </g>
            </g>
        </g>
    </g>
</svg>