<?xml version="1.0" encoding="UTF-8" standalone="no"?>
<svg width="3829px" height="1819px" viewBox="0 0 3829 1819" version="1.1" xmlns="http://www.w3.org/2000/svg" xmlns:xlink="http://www.w3.org/1999/xlink" xmlns:sketch="http://www.bohemiancoding.com/sketch/ns">
    <!-- Generator: Sketch 3.2.2 (9983) - http://www.bohemiancoding.com/sketch -->
    <title>Google Groups Posts Topics Apr 2013 to Feb 2015 by Week.001</title>
    <desc>Created with Sketch.</desc>
    <defs></defs>
    <g id="Page-1" stroke="none" stroke-width="1" fill="none" fill-rule="evenodd" sketch:type="MSPage">
        <g id="Google-Groups-Posts-Topics-Apr-2013-to-Feb-2015-by-Week.001" sketch:type="MSLayerGroup" transform="translate(-19.000000, -18.000000)">
            <g id="Page_1-Clipped">
                <g id="Page_1">
                    <path d="M313,1116 L2893,1116 L2893,1121 L313,1121 L313,1116 L313,1116 Z M313,899 L2893,899 L2893,904 L313,904 L313,899 L313,899 Z M313,683 L2893,683 L2893,688 L313,688 L313,683 L313,683 Z M313,466 L2893,466 L2893,471 L313,471 L313,466 L313,466 Z M313,250 L2893,250 L2893,255 L313,255 L313,250 L313,250 Z M313,33 L2893,33 L2893,38 L313,38 L313,33 L313,33 Z" id="Shape" fill="#868686" sketch:type="MSShapeGroup"></path>
                    <rect id="Rectangle-path" fill="#868686" sketch:type="MSShapeGroup" x="311" y="35" width="5" height="1299"></rect>
                    <path d="M290,1332 L313,1332 L313,1337 L290,1337 L290,1332 L290,1332 Z M290,1116 L313,1116 L313,1121 L290,1121 L290,1116 L290,1116 Z M290,899 L313,899 L313,904 L290,904 L290,899 L290,899 Z M290,683 L313,683 L313,688 L290,688 L290,683 L290,683 Z M290,466 L313,466 L313,471 L290,471 L290,466 L290,466 Z M290,250 L313,250 L313,255 L290,255 L290,250 L290,250 Z M290,33 L313,33 L313,38 L290,38 L290,33 L290,33 Z" id="Shape" fill="#868686" sketch:type="MSShapeGroup"></path>
                    <rect id="Rectangle-path" fill="#868686" sketch:type="MSShapeGroup" x="313" y="1332" width="2580" height="5"></rect>
                    <path d="M316,1334 L316,1358 L311,1358 L311,1334 L316,1334 L316,1334 Z M468,1334 L468,1358 L463,1358 L463,1334 L468,1334 L468,1334 Z M620,1334 L620,1358 L615,1358 L615,1334 L620,1334 L620,1334 Z M772,1334 L772,1358 L767,1358 L767,1334 L772,1334 L772,1334 Z M923,1334 L923,1358 L918,1358 L918,1334 L923,1334 L923,1334 Z M1075,1334 L1075,1358 L1070,1358 L1070,1334 L1075,1334 L1075,1334 Z M1227,1334 L1227,1358 L1222,1358 L1222,1334 L1227,1334 L1227,1334 Z M1379,1334 L1379,1358 L1374,1358 L1374,1334 L1379,1334 L1379,1334 Z M1530,1334 L1530,1358 L1525,1358 L1525,1334 L1530,1334 L1530,1334 Z M1682,1334 L1682,1358 L1677,1358 L1677,1334 L1682,1334 L1682,1334 Z M1834,1334 L1834,1358 L1829,1358 L1829,1334 L1834,1334 L1834,1334 Z M1986,1334 L1986,1358 L1981,1358 L1981,1334 L1986,1334 L1986,1334 Z M2137,1334 L2137,1358 L2132,1358 L2132,1334 L2137,1334 L2137,1334 Z M2289,1334 L2289,1358 L2284,1358 L2284,1334 L2289,1334 L2289,1334 Z M2441,1334 L2441,1358 L2436,1358 L2436,1334 L2441,1334 L2441,1334 Z M2593,1334 L2593,1358 L2588,1358 L2588,1334 L2593,1334 L2593,1334 Z M2744,1334 L2744,1358 L2739,1358 L2739,1334 L2744,1334 L2744,1334 Z M2896,1334 L2896,1358 L2891,1358 L2891,1334 L2896,1334 L2896,1334 Z" id="Shape" fill="#868686" sketch:type="MSShapeGroup"></path>
                    <path d="M387,1290 L539,1222 L540,1221 L691,1187 L842,1136 L841,1137 L993,1058 L1145,966 L1146,966 L1297,907 L1450,869 L1601,819 L1753,768 L1904,718 L1903,719 L2055,638 L2208,571 L2361,521 L2511,471 L2510,472 L2662,395 L2663,395 L2664,394 L2816,361 L2820,361 L2823,362 L2825,364 L2826,367 L2826,371 L2825,374 L2823,376 L2820,377 L2668,410 L2670,409 L2518,486 L2517,486 L2516,487 L2365,537 L2214,585 L2063,652 L1911,733 L1910,733 L1909,734 L1606,835 L1454,885 L1303,921 L1152,980 L1153,980 L1001,1072 L849,1151 L848,1151 L848,1152 L695,1203 L544,1237 L545,1236 L393,1304 L390,1305 L384,1303 L382,1297 L384,1291 L387,1290 L387,1290 Z" id="Shape" fill="#C00000" sketch:type="MSShapeGroup"></path>
                    <path d="M1025,1244 L1056,1238 L1063,1240 L1065,1242 L1066,1245 L1066,1248 L1064,1251 L1062,1253 L1059,1254 L1028,1260 L1022,1258 L1019,1256 L1018,1253 L1020,1247 L1022,1245 L1025,1244 L1025,1244 Z M1088,1233 L1119,1227 L1123,1227 L1126,1228 L1128,1231 L1129,1234 L1129,1237 L1127,1240 L1125,1242 L1122,1243 L1091,1248 L1088,1248 L1085,1247 L1082,1245 L1081,1242 L1083,1236 L1085,1234 L1088,1233 L1088,1233 Z M1979,1141 L2011,1136 L2017,1138 L2019,1140 L2020,1143 L2020,1146 L2018,1149 L2016,1151 L2013,1152 L1981,1157 L1978,1157 L1975,1155 L1973,1153 L1972,1150 L1972,1147 L1973,1144 L1976,1142 L1979,1141 L1979,1141 Z M2169,1114 L2201,1109 L2207,1111 L2209,1113 L2210,1116 L2210,1120 L2206,1124 L2203,1125 L2171,1130 L2168,1130 L2165,1128 L2163,1126 L2162,1123 L2164,1117 L2166,1115 L2169,1114 L2169,1114 Z M2551,1076 L2583,1071 L2589,1073 L2591,1075 L2592,1078 L2592,1082 L2588,1086 L2585,1087 L2553,1092 L2550,1092 L2547,1090 L2545,1088 L2544,1085 L2546,1079 L2548,1077 L2551,1076 L2551,1076 Z M835,1270 L844,1269 L867,1266 L870,1266 L873,1268 L875,1270 L876,1273 L876,1276 L874,1279 L872,1281 L869,1282 L846,1285 L837,1286 L834,1286 L831,1284 L829,1282 L828,1279 L830,1273 L832,1271 L835,1270 L835,1270 Z M962,1254 L994,1249 L1000,1251 L1002,1253 L1003,1256 L1003,1260 L999,1264 L996,1265 L964,1269 L961,1269 L958,1268 L956,1265 L955,1262 L955,1259 L956,1257 L959,1255 L962,1254 L962,1254 Z M1151,1222 L1183,1218 L1189,1220 L1192,1225 L1192,1228 L1190,1231 L1185,1234 L1153,1238 L1147,1236 L1145,1233 L1144,1230 L1145,1227 L1146,1225 L1148,1223 L1151,1222 L1151,1222 Z M2042,1131 L2074,1127 L2077,1127 L2080,1128 L2082,1131 L2083,1134 L2083,1137 L2081,1140 L2079,1142 L2076,1143 L2060,1145 L2045,1147 L2042,1147 L2039,1146 L2036,1144 L2035,1141 L2037,1135 L2039,1132 L2042,1131 L2042,1131 Z M1916,1151 L1947,1146 L1951,1146 L1953,1147 L1955,1149 L1956,1152 L1956,1156 L1955,1159 L1953,1161 L1950,1162 L1918,1166 L1915,1166 L1912,1165 L1910,1163 L1909,1160 L1909,1157 L1910,1154 L1913,1152 L1916,1151 L1916,1151 Z M898,1262 L930,1258 L934,1258 L936,1259 L938,1262 L939,1265 L939,1268 L938,1271 L935,1273 L932,1274 L901,1278 L898,1278 L895,1276 L893,1274 L892,1271 L892,1268 L893,1265 L895,1263 L898,1262 L898,1262 Z M2106,1122 L2137,1118 L2141,1118 L2145,1122 L2146,1125 L2146,1128 L2145,1131 L2143,1133 L2140,1134 L2108,1138 L2105,1138 L2102,1137 L2100,1134 L2099,1131 L2099,1128 L2100,1125 L2103,1123 L2106,1122 L2106,1122 Z M2614,1067 L2646,1063 L2650,1063 L2652,1064 L2654,1066 L2655,1069 L2655,1073 L2654,1075 L2651,1077 L2648,1078 L2617,1083 L2614,1083 L2611,1081 L2609,1079 L2608,1076 L2608,1073 L2609,1070 L2611,1068 L2614,1067 L2614,1067 Z M1215,1214 L1247,1211 L1250,1211 L1253,1213 L1255,1215 L1256,1218 L1256,1221 L1254,1224 L1252,1226 L1249,1227 L1217,1230 L1214,1230 L1211,1229 L1209,1226 L1208,1223 L1208,1220 L1210,1217 L1212,1215 L1215,1214 L1215,1214 Z M1279,1207 L1299,1205 L1311,1204 L1317,1206 L1319,1212 L1319,1215 L1317,1218 L1315,1219 L1312,1220 L1301,1221 L1280,1223 L1277,1223 L1274,1222 L1272,1219 L1271,1216 L1273,1210 L1276,1208 L1279,1207 L1279,1207 Z M1470,1194 L1502,1191 L1508,1193 L1510,1195 L1511,1198 L1511,1201 L1509,1204 L1504,1207 L1472,1210 L1469,1210 L1466,1208 L1464,1206 L1463,1203 L1465,1197 L1470,1194 L1470,1194 Z M1598,1182 L1603,1181 L1629,1178 L1633,1179 L1635,1180 L1637,1182 L1638,1185 L1638,1189 L1634,1193 L1631,1194 L1605,1197 L1596,1197 L1593,1196 L1591,1193 L1590,1190 L1591,1187 L1592,1185 L1595,1183 L1598,1182 L1598,1182 Z M1661,1175 L1693,1172 L1696,1172 L1699,1173 L1701,1176 L1702,1179 L1702,1182 L1700,1185 L1698,1186 L1695,1187 L1663,1191 L1660,1191 L1657,1189 L1655,1187 L1654,1184 L1656,1178 L1658,1176 L1661,1175 L1661,1175 Z M1789,1162 L1821,1159 L1827,1161 L1829,1167 L1829,1170 L1827,1173 L1825,1174 L1822,1175 L1790,1178 L1787,1178 L1784,1176 L1782,1174 L1781,1171 L1783,1165 L1789,1162 L1789,1162 Z M1852,1157 L1884,1154 L1888,1155 L1890,1156 L1892,1158 L1893,1161 L1893,1164 L1891,1167 L1886,1170 L1854,1173 L1848,1171 L1845,1165 L1846,1162 L1847,1160 L1849,1158 L1852,1157 L1852,1157 Z M772,1276 L803,1273 L807,1273 L811,1277 L812,1280 L812,1283 L810,1286 L808,1288 L805,1289 L773,1292 L767,1290 L765,1287 L764,1284 L765,1281 L766,1279 L769,1277 L772,1276 L772,1276 Z M517,1299 L541,1297 L548,1296 L552,1297 L554,1298 L556,1301 L557,1304 L557,1307 L555,1310 L553,1311 L550,1312 L543,1313 L518,1315 L515,1315 L512,1314 L510,1311 L509,1308 L511,1302 L514,1300 L517,1299 L517,1299 Z M389,1312 L421,1309 L424,1309 L427,1311 L429,1313 L430,1316 L430,1319 L428,1322 L426,1324 L423,1325 L391,1328 L388,1328 L385,1326 L383,1324 L382,1321 L384,1315 L386,1313 L389,1312 L389,1312 Z M580,1293 L612,1290 L618,1292 L621,1298 L621,1301 L619,1304 L617,1305 L614,1306 L582,1309 L579,1309 L576,1307 L573,1302 L575,1296 L577,1294 L580,1293 L580,1293 Z M2297,1099 L2328,1096 L2332,1097 L2334,1098 L2336,1101 L2337,1104 L2337,1107 L2335,1110 L2333,1111 L2330,1112 L2298,1115 L2295,1115 L2292,1114 L2290,1111 L2289,1108 L2291,1102 L2294,1100 L2297,1099 L2297,1099 Z M2678,1059 L2710,1056 L2714,1057 L2716,1058 L2718,1061 L2719,1064 L2719,1067 L2717,1070 L2715,1071 L2712,1072 L2680,1075 L2677,1075 L2674,1073 L2672,1071 L2671,1068 L2673,1062 L2675,1060 L2678,1059 L2678,1059 Z M2742,1054 L2774,1051 L2780,1053 L2782,1056 L2783,1059 L2781,1065 L2775,1067 L2743,1070 L2740,1070 L2736,1066 L2735,1063 L2735,1060 L2737,1057 L2739,1055 L2742,1054 L2742,1054 Z M453,1306 L485,1303 L488,1303 L491,1304 L493,1310 L493,1313 L492,1316 L489,1318 L486,1319 L454,1322 L451,1321 L449,1320 L447,1317 L446,1314 L446,1311 L447,1309 L450,1307 L453,1306 L453,1306 Z M2233,1106 L2265,1103 L2268,1103 L2271,1104 L2273,1110 L2273,1113 L2272,1116 L2269,1118 L2266,1119 L2234,1122 L2231,1122 L2227,1118 L2226,1115 L2226,1112 L2227,1109 L2230,1107 L2233,1106 L2233,1106 Z M2488,1083 L2513,1081 L2519,1080 L2523,1081 L2525,1082 L2527,1084 L2528,1087 L2528,1090 L2527,1093 L2525,1095 L2522,1096 L2515,1097 L2489,1099 L2486,1099 L2482,1095 L2481,1092 L2481,1089 L2483,1086 L2485,1084 L2488,1083 L2488,1083 Z M708,1282 L740,1279 L743,1279 L746,1280 L748,1286 L748,1289 L747,1292 L744,1294 L741,1295 L709,1298 L706,1297 L704,1296 L702,1293 L701,1290 L701,1287 L702,1285 L705,1283 L708,1282 L708,1282 Z M1725,1168 L1755,1165 L1760,1165 L1763,1167 L1764,1169 L1765,1172 L1765,1175 L1764,1178 L1761,1180 L1758,1181 L1757,1181 L1726,1184 L1723,1184 L1719,1180 L1718,1177 L1718,1174 L1719,1171 L1722,1169 L1725,1168 L1725,1168 Z M1534,1188 L1566,1185 L1569,1185 L1572,1186 L1574,1192 L1574,1195 L1573,1198 L1570,1200 L1567,1201 L1535,1204 L1532,1204 L1528,1200 L1527,1197 L1527,1194 L1528,1191 L1531,1189 L1534,1188 L1534,1188 Z M1407,1199 L1439,1197 L1442,1197 L1445,1199 L1446,1201 L1447,1204 L1447,1207 L1445,1210 L1440,1213 L1408,1215 L1402,1213 L1400,1210 L1399,1207 L1400,1204 L1401,1202 L1404,1200 L1407,1199 L1407,1199 Z M644,1287 L676,1285 L679,1285 L682,1286 L684,1289 L685,1292 L683,1298 L677,1300 L646,1303 L643,1303 L640,1302 L638,1299 L637,1296 L637,1293 L639,1290 L641,1288 L644,1287 L644,1287 Z M2360,1093 L2362,1093 L2392,1091 L2396,1091 L2400,1095 L2401,1098 L2401,1101 L2399,1104 L2397,1106 L2394,1107 L2364,1109 L2359,1109 L2356,1107 L2354,1105 L2353,1102 L2355,1096 L2357,1094 L2360,1093 L2360,1093 Z M2424,1088 L2456,1086 L2459,1086 L2462,1087 L2464,1090 L2465,1093 L2463,1099 L2457,1101 L2425,1104 L2422,1104 L2418,1100 L2417,1097 L2417,1094 L2419,1091 L2421,1089 L2424,1088 L2424,1088 Z M1343,1202 L1375,1201 L1378,1201 L1381,1203 L1382,1205 L1383,1208 L1383,1211 L1381,1214 L1379,1216 L1376,1217 L1344,1218 L1341,1218 L1338,1216 L1336,1214 L1335,1211 L1337,1205 L1343,1202 L1343,1202 Z M2806,1049 L2817,1048 L2821,1049 L2823,1050 L2825,1052 L2826,1055 L2826,1059 L2822,1063 L2819,1064 L2807,1065 L2804,1064 L2802,1063 L2800,1060 L2799,1057 L2799,1054 L2803,1050 L2806,1049 L2806,1049 Z" id="Shape" fill="#C00000" sketch:type="MSShapeGroup"></path>
                    <path d="M387,1163 L539,1090 L689,1002 L842,940 L994,881 L1146,817 L1297,754 L1449,695 L1601,638 L1753,570 L1903,487 L2055,395 L2056,395 L2056,394 L2208,343 L2361,294 L2512,246 L2663,182 L2815,118 L2818,117 L2824,119 L2826,125 L2824,131 L2821,132 L2669,196 L2516,262 L2365,310 L2214,359 L2062,410 L2063,409 L1911,501 L1759,584 L1607,653 L1455,709 L1303,768 L1152,831 L1000,896 L848,954 L697,1016 L545,1104 L393,1177 L390,1178 L387,1177 L385,1176 L383,1173 L382,1170 L383,1167 L384,1165 L387,1163 L387,1163 Z" id="Shape" fill="#376092" sketch:type="MSShapeGroup"></path>
                    <path d="M579,1266 L611,1261 L617,1263 L619,1265 L620,1268 L620,1271 L619,1274 L616,1276 L613,1277 L582,1282 L579,1282 L576,1281 L573,1278 L572,1275 L574,1269 L576,1267 L579,1266 L579,1266 Z M1024,1212 L1055,1207 L1059,1208 L1062,1209 L1064,1211 L1065,1214 L1065,1218 L1061,1222 L1058,1223 L1026,1228 L1023,1228 L1020,1226 L1018,1224 L1017,1221 L1017,1218 L1018,1215 L1021,1213 L1024,1212 L1024,1212 Z M1087,1203 L1119,1198 L1125,1200 L1127,1202 L1128,1205 L1128,1208 L1126,1211 L1124,1213 L1121,1214 L1089,1219 L1086,1219 L1083,1217 L1081,1215 L1080,1212 L1082,1206 L1084,1204 L1087,1203 L1087,1203 Z M1913,1102 L1944,1097 L1948,1098 L1951,1099 L1953,1101 L1954,1104 L1954,1108 L1950,1112 L1947,1113 L1915,1118 L1912,1118 L1909,1116 L1907,1114 L1906,1111 L1906,1108 L1907,1105 L1910,1103 L1913,1102 L1913,1102 Z M1976,1093 L2008,1088 L2014,1090 L2016,1092 L2017,1095 L2017,1098 L2015,1101 L2013,1103 L2010,1104 L1978,1109 L1975,1109 L1972,1107 L1970,1105 L1969,1102 L1971,1096 L1973,1094 L1976,1093 L1976,1093 Z M1786,1122 L1818,1117 L1821,1117 L1824,1118 L1826,1121 L1827,1124 L1827,1127 L1826,1130 L1823,1132 L1820,1133 L1789,1138 L1786,1138 L1783,1137 L1781,1134 L1780,1131 L1780,1128 L1781,1125 L1783,1123 L1786,1122 L1786,1122 Z M1849,1112 L1881,1107 L1884,1107 L1887,1108 L1889,1111 L1890,1114 L1890,1117 L1889,1120 L1887,1122 L1884,1123 L1852,1128 L1849,1128 L1846,1127 L1844,1124 L1843,1121 L1843,1118 L1844,1115 L1846,1113 L1849,1112 L1849,1112 Z M516,1275 L541,1272 L548,1271 L551,1271 L554,1272 L556,1275 L557,1278 L557,1281 L555,1284 L553,1286 L550,1287 L543,1288 L518,1291 L515,1291 L512,1289 L510,1287 L509,1284 L509,1281 L511,1278 L513,1276 L516,1275 L516,1275 Z M1597,1149 L1603,1148 L1628,1145 L1631,1145 L1634,1146 L1636,1148 L1637,1151 L1637,1155 L1636,1157 L1633,1159 L1630,1160 L1605,1164 L1598,1165 L1595,1165 L1592,1163 L1590,1161 L1589,1158 L1591,1152 L1594,1150 L1597,1149 L1597,1149 Z M1723,1131 L1755,1127 L1758,1127 L1761,1129 L1763,1131 L1764,1134 L1764,1137 L1762,1140 L1760,1142 L1757,1143 L1725,1147 L1722,1147 L1719,1146 L1717,1143 L1716,1140 L1718,1134 L1720,1132 L1723,1131 L1723,1131 Z M389,1291 L421,1287 L427,1289 L429,1291 L430,1294 L430,1297 L428,1300 L426,1302 L423,1303 L391,1307 L388,1307 L385,1305 L383,1303 L382,1300 L382,1297 L384,1294 L386,1292 L389,1291 L389,1291 Z M2550,1042 L2582,1038 L2588,1040 L2590,1042 L2591,1045 L2591,1049 L2587,1053 L2584,1054 L2552,1058 L2549,1058 L2546,1057 L2544,1054 L2543,1051 L2543,1048 L2544,1045 L2547,1043 L2550,1042 L2550,1042 Z M1151,1194 L1183,1190 L1189,1192 L1190,1194 L1191,1197 L1191,1201 L1190,1203 L1187,1205 L1184,1206 L1152,1210 L1149,1210 L1145,1206 L1144,1203 L1144,1200 L1145,1197 L1148,1195 L1151,1194 L1151,1194 Z M1660,1140 L1691,1136 L1695,1136 L1697,1137 L1699,1140 L1700,1143 L1700,1146 L1699,1149 L1697,1151 L1694,1152 L1662,1156 L1659,1156 L1656,1155 L1654,1152 L1653,1149 L1653,1146 L1654,1143 L1657,1141 L1660,1140 L1660,1140 Z M770,1240 L801,1236 L805,1237 L807,1238 L809,1240 L810,1243 L810,1246 L809,1249 L806,1251 L803,1252 L771,1256 L768,1256 L764,1252 L763,1249 L763,1246 L764,1243 L767,1241 L770,1240 L770,1240 Z M452,1283 L484,1279 L488,1280 L490,1281 L492,1283 L493,1286 L493,1289 L492,1292 L489,1294 L486,1295 L454,1299 L451,1299 L447,1295 L446,1292 L446,1289 L447,1286 L449,1284 L452,1283 L452,1283 Z M642,1257 L674,1252 L677,1252 L680,1253 L682,1255 L683,1258 L683,1262 L682,1265 L679,1267 L676,1268 L645,1272 L642,1272 L639,1271 L637,1269 L636,1266 L636,1263 L637,1260 L639,1258 L642,1257 L642,1257 Z M2039,1084 L2058,1081 L2072,1080 L2078,1082 L2080,1088 L2080,1091 L2078,1094 L2076,1095 L2073,1096 L2060,1097 L2042,1100 L2039,1100 L2036,1098 L2034,1096 L2033,1093 L2033,1090 L2034,1087 L2036,1085 L2039,1084 L2039,1084 Z M897,1226 L929,1223 L932,1223 L935,1224 L937,1227 L938,1230 L936,1236 L933,1238 L930,1239 L899,1242 L896,1242 L893,1240 L891,1238 L890,1235 L890,1232 L892,1229 L894,1227 L897,1226 L897,1226 Z M1214,1187 L1246,1184 L1250,1184 L1252,1185 L1254,1188 L1255,1191 L1255,1194 L1253,1197 L1251,1199 L1248,1200 L1216,1203 L1213,1203 L1210,1201 L1208,1199 L1207,1196 L1209,1190 L1211,1188 L1214,1187 L1214,1187 Z M961,1220 L992,1216 L996,1217 L998,1218 L1000,1221 L1001,1224 L1001,1227 L999,1230 L997,1231 L994,1232 L962,1235 L959,1235 L956,1234 L954,1231 L953,1228 L954,1225 L955,1223 L958,1221 L961,1220 L961,1220 Z M706,1247 L738,1244 L741,1244 L744,1245 L746,1248 L747,1251 L747,1254 L745,1257 L743,1258 L740,1259 L708,1263 L705,1263 L702,1262 L700,1259 L699,1256 L699,1253 L701,1250 L703,1248 L706,1247 L706,1247 Z M1278,1180 L1299,1178 L1310,1177 L1316,1179 L1318,1181 L1319,1184 L1319,1188 L1315,1192 L1312,1193 L1301,1194 L1280,1196 L1277,1196 L1274,1194 L1272,1192 L1271,1189 L1273,1183 L1275,1181 L1278,1180 L1278,1180 Z M1406,1168 L1437,1165 L1441,1166 L1443,1167 L1445,1169 L1446,1172 L1446,1176 L1442,1180 L1439,1181 L1407,1184 L1404,1184 L1401,1182 L1399,1180 L1398,1177 L1400,1171 L1403,1169 L1406,1168 L1406,1168 Z M1469,1162 L1501,1159 L1504,1159 L1507,1160 L1509,1163 L1510,1166 L1510,1169 L1508,1172 L1506,1174 L1503,1175 L1471,1178 L1468,1178 L1465,1176 L1463,1174 L1462,1171 L1464,1165 L1466,1163 L1469,1162 L1469,1162 Z M2231,1069 L2263,1066 L2269,1068 L2272,1074 L2272,1077 L2270,1080 L2268,1081 L2265,1082 L2233,1085 L2230,1085 L2227,1083 L2225,1081 L2224,1078 L2226,1072 L2231,1069 L2231,1069 Z M2295,1064 L2327,1061 L2333,1063 L2335,1065 L2336,1068 L2335,1072 L2334,1074 L2331,1076 L2328,1077 L2296,1080 L2293,1079 L2291,1078 L2289,1075 L2288,1072 L2288,1069 L2292,1065 L2295,1064 L2295,1064 Z M2423,1054 L2455,1051 L2461,1053 L2463,1059 L2463,1062 L2461,1065 L2459,1066 L2456,1067 L2424,1070 L2418,1068 L2416,1065 L2415,1062 L2416,1059 L2417,1057 L2420,1055 L2423,1054 L2423,1054 Z M2487,1049 L2513,1047 L2518,1046 L2524,1048 L2526,1050 L2527,1053 L2527,1057 L2523,1061 L2520,1062 L2515,1063 L2488,1065 L2482,1063 L2479,1057 L2480,1054 L2481,1052 L2484,1050 L2487,1049 L2487,1049 Z M833,1232 L844,1231 L865,1229 L871,1231 L873,1233 L874,1236 L874,1239 L872,1242 L867,1245 L846,1247 L835,1248 L832,1248 L829,1247 L827,1244 L826,1241 L828,1235 L830,1233 L833,1232 L833,1232 Z M2613,1034 L2645,1031 L2648,1031 L2651,1032 L2653,1034 L2654,1037 L2654,1041 L2650,1045 L2647,1046 L2615,1050 L2612,1050 L2609,1049 L2607,1046 L2606,1043 L2608,1037 L2610,1035 L2613,1034 L2613,1034 Z M1533,1155 L1565,1152 L1571,1154 L1572,1156 L1573,1159 L1573,1163 L1572,1165 L1569,1167 L1566,1168 L1535,1171 L1532,1171 L1529,1170 L1527,1167 L1526,1164 L1526,1161 L1527,1158 L1530,1156 L1533,1155 L1533,1155 Z M1342,1174 L1374,1171 L1380,1173 L1381,1175 L1382,1178 L1382,1182 L1381,1184 L1378,1186 L1375,1187 L1343,1190 L1340,1190 L1336,1186 L1335,1183 L1335,1180 L1337,1177 L1339,1175 L1342,1174 L1342,1174 Z M2168,1074 L2200,1072 L2203,1072 L2206,1074 L2207,1076 L2208,1079 L2208,1082 L2206,1085 L2201,1088 L2169,1090 L2163,1088 L2161,1085 L2160,1082 L2161,1079 L2162,1077 L2165,1075 L2168,1074 L2168,1074 Z M2104,1078 L2136,1076 L2142,1078 L2143,1080 L2144,1083 L2144,1087 L2140,1091 L2137,1092 L2105,1094 L2102,1094 L2099,1092 L2096,1087 L2098,1081 L2101,1079 L2104,1078 L2104,1078 Z M2677,1027 L2709,1025 L2713,1026 L2715,1027 L2717,1030 L2718,1033 L2716,1039 L2710,1041 L2678,1043 L2675,1043 L2671,1039 L2670,1036 L2672,1030 L2674,1028 L2677,1027 L2677,1027 Z M2741,1023 L2773,1021 L2779,1023 L2782,1028 L2781,1032 L2780,1034 L2777,1036 L2774,1037 L2742,1039 L2739,1039 L2735,1035 L2734,1032 L2736,1026 L2738,1024 L2741,1023 L2741,1023 Z M2359,1058 L2362,1058 L2391,1056 L2397,1058 L2398,1060 L2399,1063 L2399,1067 L2395,1071 L2392,1072 L2364,1074 L2357,1074 L2353,1070 L2352,1067 L2352,1064 L2353,1061 L2356,1059 L2359,1058 L2359,1058 Z M2805,1019 L2817,1018 L2821,1019 L2823,1020 L2825,1022 L2826,1025 L2825,1029 L2824,1031 L2821,1033 L2818,1034 L2806,1035 L2803,1034 L2801,1033 L2799,1030 L2798,1027 L2798,1024 L2802,1020 L2805,1019 L2805,1019 Z" id="Shape" fill="#376092" sketch:type="MSShapeGroup"></path>
                    <text id="0" fill="#000000" sketch:type="MSTextLayer" font-family="Calibri" font-size="59.8016" font-weight="normal">
                        <tspan x="210" y="1357">0</tspan>
                    </text>
                    <text id="500" fill="#000000" sketch:type="MSTextLayer" font-family="Calibri" font-size="59.8016" font-weight="normal">
                        <tspan x="136" y="1140">500</tspan>
                    </text>
                    <text id="1000" fill="#000000" sketch:type="MSTextLayer" font-family="Calibri" font-size="59.8016" font-weight="normal">
                        <tspan x="99" y="923">1000</tspan>
                    </text>
                    <text id="1500" fill="#000000" sketch:type="MSTextLayer" font-family="Calibri" font-size="59.8016" font-weight="normal">
                        <tspan x="99" y="707">1500</tspan>
                    </text>
                    <text id="2000" fill="#000000" sketch:type="MSTextLayer" font-family="Calibri" font-size="59.8016" font-weight="normal">
                        <tspan x="99" y="490">2000</tspan>
                    </text>
                    <text id="2500" fill="#000000" sketch:type="MSTextLayer" font-family="Calibri" font-size="59.8016" font-weight="normal">
                        <tspan x="99" y="274">2500</tspan>
                    </text>
                    <text id="3000" fill="#000000" sketch:type="MSTextLayer" font-family="Calibri" font-size="59.8016" font-weight="normal">
                        <tspan x="99" y="57">3000</tspan>
                    </text>
                    <path d="M268,1567 L269,1568 L270,1568 L270,1569 L268,1571 L268,1572 L267,1572 L267,1573 L265,1573 L254,1568 L241,1581 L246,1592 L246,1593 L244,1595 L244,1596 L241,1596 L241,1595 L221,1554 L221,1552 L222,1552 L222,1551 L223,1551 L223,1550 L224,1550 L225,1549 L225,1548 L227,1548 L268,1567 L268,1567 Z M228,1555 L238,1577 L250,1565 L228,1555 L228,1555 Z M377,1458 L378,1459 L378,1461 L361,1478 L359,1478 L358,1477 L358,1476 L357,1476 L357,1475 L364,1468 L339,1443 L337,1453 L337,1454 L335,1454 L333,1452 L333,1451 L336,1438 L336,1437 L337,1437 L337,1436 L338,1436 L338,1435 L339,1435 L339,1434 L340,1435 L369,1463 L374,1457 L376,1457 L376,1458 L377,1458 L377,1458 Z M396,1425 L398,1427 L399,1429 L400,1432 L400,1435 L399,1438 L398,1440 L394,1446 L390,1450 L388,1451 L387,1451 L385,1452 L382,1452 L381,1451 L381,1450 L380,1450 L379,1449 L380,1448 L381,1448 L383,1447 L384,1447 L386,1446 L387,1445 L389,1444 L392,1441 L394,1437 L394,1432 L393,1431 L392,1429 L391,1428 L389,1427 L385,1427 L379,1430 L374,1435 L372,1435 L370,1433 L370,1432 L375,1427 L376,1425 L377,1424 L377,1421 L375,1417 L372,1414 L371,1414 L369,1413 L368,1414 L367,1414 L366,1415 L364,1416 L363,1418 L362,1419 L361,1421 L361,1422 L360,1424 L360,1426 L358,1426 L356,1424 L356,1420 L357,1418 L358,1417 L361,1411 L364,1410 L366,1408 L368,1407 L373,1407 L377,1409 L380,1412 L382,1416 L382,1421 L381,1423 L380,1424 L384,1422 L386,1422 L388,1421 L390,1422 L392,1422 L394,1424 L396,1425 L396,1425 Z M286,1534 L288,1537 L290,1543 L290,1548 L286,1554 L285,1555 L284,1555 L283,1556 L282,1556 L281,1557 L276,1557 L288,1569 L287,1570 L287,1571 L286,1571 L286,1572 L285,1572 L285,1573 L283,1573 L283,1572 L251,1541 L251,1540 L253,1538 L253,1537 L255,1537 L258,1540 L258,1536 L259,1535 L259,1533 L260,1532 L260,1530 L262,1528 L265,1526 L267,1525 L270,1524 L273,1524 L276,1526 L278,1527 L281,1529 L286,1534 L286,1534 Z M280,1536 L278,1535 L276,1533 L270,1530 L268,1530 L267,1531 L265,1532 L264,1533 L264,1534 L263,1536 L263,1537 L262,1538 L262,1542 L263,1544 L272,1553 L275,1553 L278,1552 L282,1550 L283,1549 L285,1545 L282,1539 L281,1538 L280,1536 L280,1536 Z M336,1502 L336,1503 L333,1506 L332,1506 L298,1472 L298,1471 L299,1470 L299,1469 L300,1469 L301,1468 L302,1468 L336,1502 L336,1502 Z M294,1503 L295,1503 L295,1505 L293,1505 L293,1506 L292,1506 L291,1507 L291,1508 L290,1508 L290,1515 L291,1517 L305,1532 L306,1533 L306,1534 L305,1534 L305,1535 L304,1535 L304,1536 L303,1536 L302,1537 L279,1514 L278,1514 L278,1513 L281,1510 L282,1510 L286,1513 L285,1511 L285,1506 L286,1505 L286,1504 L287,1504 L287,1503 L288,1502 L289,1502 L289,1501 L290,1501 L291,1500 L292,1500 L292,1501 L294,1503 L294,1503 Z M324,1514 L324,1516 L323,1516 L323,1517 L322,1517 L322,1518 L320,1518 L320,1519 L297,1496 L297,1495 L296,1495 L297,1495 L297,1494 L298,1494 L298,1493 L299,1492 L300,1492 L300,1491 L301,1491 L324,1514 L324,1514 Z M342,1473 L342,1475 L331,1486 L329,1484 L328,1484 L328,1482 L339,1471 L340,1471 L342,1473 L342,1473 Z M294,1483 L295,1485 L295,1487 L293,1489 L291,1490 L290,1490 L288,1488 L287,1486 L288,1485 L289,1483 L290,1482 L293,1482 L294,1483 L294,1483 Z" id="Shape" fill="#000000" sketch:type="MSShapeGroup"></path>
                    <path d="M439,1551 L439,1552 L436,1555 L434,1555 L406,1527 L423,1567 L423,1568 L421,1570 L420,1570 L420,1571 L419,1571 L379,1553 L407,1582 L408,1582 L408,1583 L406,1585 L406,1586 L403,1586 L372,1555 L372,1554 L373,1553 L373,1552 L376,1550 L377,1549 L377,1548 L381,1548 L382,1549 L415,1563 L401,1530 L401,1525 L402,1524 L402,1523 L405,1521 L405,1520 L408,1520 L439,1551 L439,1551 Z M551,1429 L552,1432 L552,1435 L551,1438 L550,1440 L546,1446 L544,1448 L542,1449 L541,1450 L539,1451 L538,1451 L537,1452 L534,1452 L531,1449 L531,1448 L533,1448 L534,1447 L535,1447 L539,1445 L545,1439 L546,1437 L546,1434 L545,1432 L544,1431 L543,1429 L542,1428 L540,1427 L537,1427 L531,1430 L526,1435 L524,1435 L522,1433 L522,1432 L527,1427 L528,1425 L529,1424 L529,1421 L527,1417 L524,1414 L523,1414 L521,1413 L520,1414 L518,1414 L516,1416 L515,1418 L514,1419 L513,1421 L512,1422 L512,1425 L511,1426 L509,1426 L509,1425 L508,1425 L508,1423 L507,1423 L507,1422 L508,1421 L508,1420 L509,1418 L510,1417 L510,1415 L512,1413 L513,1411 L516,1410 L518,1408 L520,1407 L524,1407 L530,1410 L532,1412 L534,1416 L534,1421 L533,1423 L532,1424 L536,1422 L538,1422 L540,1421 L542,1422 L544,1422 L551,1429 L551,1429 Z M483,1508 L488,1519 L488,1521 L486,1523 L486,1524 L483,1524 L483,1523 L478,1512 L477,1512 L447,1499 L447,1498 L446,1498 L446,1496 L447,1496 L447,1495 L448,1495 L449,1494 L449,1493 L450,1493 L451,1494 L475,1505 L476,1505 L464,1481 L463,1480 L467,1476 L468,1476 L468,1477 L483,1508 L483,1508 Z M529,1458 L529,1459 L530,1459 L530,1461 L513,1478 L511,1478 L509,1476 L509,1475 L516,1468 L491,1443 L489,1453 L489,1454 L487,1454 L485,1452 L485,1451 L487,1438 L488,1438 L488,1437 L489,1437 L489,1436 L490,1436 L490,1435 L491,1435 L491,1434 L491,1435 L492,1435 L520,1463 L526,1457 L528,1457 L528,1458 L529,1458 L529,1458 Z M464,1526 L464,1527 L461,1530 L458,1527 L458,1530 L456,1536 L454,1538 L450,1540 L449,1541 L447,1542 L445,1542 L439,1539 L438,1537 L437,1534 L436,1532 L438,1528 L439,1525 L441,1522 L446,1517 L441,1512 L438,1512 L436,1514 L434,1515 L433,1517 L432,1518 L431,1520 L430,1521 L430,1522 L429,1523 L429,1525 L428,1525 L428,1524 L426,1524 L426,1522 L425,1522 L425,1520 L426,1519 L426,1518 L428,1516 L429,1514 L430,1513 L431,1511 L434,1509 L436,1507 L438,1506 L442,1506 L444,1507 L446,1509 L448,1510 L464,1526 L464,1526 Z M449,1520 L443,1526 L442,1528 L442,1532 L443,1533 L443,1534 L447,1536 L451,1534 L453,1532 L454,1530 L454,1524 L449,1520 L449,1520 Z M494,1473 L494,1475 L483,1485 L483,1486 L482,1486 L482,1485 L481,1484 L480,1484 L480,1482 L491,1471 L492,1471 L494,1473 L494,1473 Z" id="Shape" fill="#000000" sketch:type="MSShapeGroup"></path>
                    <path d="M682,1459 L682,1461 L665,1478 L663,1478 L663,1477 L662,1477 L661,1476 L661,1474 L668,1467 L643,1443 L641,1453 L640,1454 L639,1454 L637,1452 L637,1450 L639,1438 L640,1438 L640,1436 L641,1436 L643,1434 L644,1434 L672,1463 L678,1457 L680,1457 L682,1459 L682,1459 Z M699,1425 L701,1427 L702,1430 L703,1432 L703,1435 L701,1441 L699,1444 L693,1450 L691,1451 L690,1452 L685,1452 L685,1451 L684,1451 L683,1450 L683,1448 L686,1448 L687,1447 L689,1446 L690,1445 L692,1444 L695,1441 L696,1439 L697,1438 L697,1433 L696,1432 L695,1430 L694,1429 L690,1427 L688,1428 L686,1428 L684,1429 L682,1431 L680,1432 L677,1435 L677,1436 L676,1436 L675,1435 L674,1435 L674,1434 L673,1433 L673,1432 L674,1432 L676,1429 L678,1428 L680,1424 L680,1419 L679,1418 L678,1416 L677,1415 L675,1414 L670,1414 L669,1415 L667,1416 L666,1418 L665,1419 L664,1421 L664,1422 L663,1424 L663,1427 L662,1427 L662,1426 L661,1426 L659,1424 L659,1421 L660,1420 L660,1418 L661,1417 L662,1415 L663,1414 L664,1412 L667,1410 L669,1408 L672,1408 L674,1407 L676,1407 L680,1409 L682,1411 L683,1413 L684,1414 L685,1416 L685,1421 L683,1425 L689,1422 L693,1422 L699,1425 L699,1425 Z M614,1527 L614,1529 L613,1529 L613,1530 L612,1530 L612,1531 L611,1531 L611,1532 L610,1532 L595,1517 L593,1516 L592,1515 L590,1514 L589,1514 L587,1515 L586,1515 L583,1518 L582,1520 L582,1527 L598,1543 L599,1543 L599,1544 L598,1544 L598,1545 L596,1547 L594,1547 L571,1524 L571,1523 L572,1523 L572,1522 L573,1522 L573,1521 L574,1521 L574,1520 L575,1520 L575,1521 L578,1524 L578,1520 L580,1514 L584,1510 L586,1509 L589,1508 L591,1508 L595,1510 L598,1512 L600,1514 L614,1527 L614,1527 Z M586,1555 L587,1555 L587,1556 L586,1556 L586,1557 L585,1557 L585,1558 L584,1558 L584,1559 L583,1559 L583,1558 L580,1555 L580,1559 L578,1565 L574,1569 L570,1571 L567,1571 L563,1569 L561,1567 L558,1565 L544,1552 L544,1550 L545,1550 L545,1549 L546,1549 L546,1548 L547,1548 L547,1547 L548,1547 L562,1561 L564,1562 L565,1563 L567,1564 L568,1565 L570,1565 L571,1564 L572,1564 L573,1563 L575,1559 L576,1556 L575,1552 L560,1536 L559,1536 L559,1535 L560,1535 L560,1534 L561,1534 L561,1533 L562,1533 L562,1532 L564,1532 L586,1555 L586,1555 Z M553,1577 L556,1583 L556,1585 L554,1589 L552,1591 L552,1592 L551,1592 L550,1593 L549,1593 L549,1594 L546,1594 L543,1591 L543,1590 L544,1590 L545,1589 L547,1589 L548,1588 L548,1587 L549,1587 L550,1586 L550,1583 L523,1556 L523,1554 L526,1551 L527,1551 L553,1577 L553,1577 Z M628,1488 L629,1489 L629,1491 L628,1492 L614,1507 L617,1510 L619,1511 L623,1511 L627,1509 L633,1503 L633,1501 L634,1500 L634,1499 L635,1499 L635,1498 L636,1498 L638,1500 L638,1504 L637,1505 L636,1507 L632,1511 L629,1513 L627,1515 L621,1517 L615,1515 L612,1513 L606,1507 L604,1504 L602,1498 L602,1495 L603,1492 L605,1489 L607,1487 L610,1485 L612,1483 L615,1482 L618,1482 L620,1483 L623,1484 L625,1486 L628,1487 L628,1488 L628,1488 Z M623,1491 L620,1489 L616,1487 L613,1488 L610,1490 L609,1492 L608,1493 L607,1495 L607,1497 L608,1499 L608,1500 L610,1502 L611,1504 L623,1491 L623,1491 Z M645,1472 L646,1473 L646,1475 L645,1475 L635,1486 L633,1486 L632,1485 L632,1484 L631,1483 L631,1482 L642,1472 L642,1471 L643,1471 L643,1472 L645,1472 L645,1472 Z" id="Shape" fill="#000000" sketch:type="MSShapeGroup"></path>
                    <path d="M786,1508 L791,1519 L792,1520 L791,1521 L791,1522 L789,1524 L787,1524 L787,1523 L782,1512 L782,1513 L781,1513 L780,1512 L750,1499 L749,1498 L749,1497 L750,1497 L750,1496 L751,1495 L752,1495 L752,1494 L753,1494 L753,1493 L754,1494 L779,1505 L767,1481 L767,1479 L768,1479 L768,1478 L770,1476 L771,1476 L771,1477 L772,1477 L786,1508 L786,1508 Z M833,1458 L834,1458 L834,1460 L817,1477 L817,1478 L815,1478 L815,1477 L814,1477 L814,1476 L813,1476 L813,1474 L820,1467 L795,1442 L793,1452 L793,1453 L792,1454 L791,1454 L791,1453 L790,1453 L790,1452 L789,1452 L789,1450 L791,1438 L791,1437 L792,1437 L792,1436 L793,1436 L795,1434 L796,1434 L824,1463 L830,1457 L832,1457 L833,1458 L833,1458 Z M851,1425 L853,1427 L854,1430 L855,1432 L855,1435 L854,1438 L853,1440 L849,1446 L845,1450 L843,1451 L842,1452 L837,1452 L837,1451 L836,1451 L836,1450 L835,1450 L835,1448 L836,1448 L838,1447 L839,1447 L841,1446 L842,1445 L844,1444 L847,1441 L848,1439 L849,1438 L849,1432 L846,1429 L842,1427 L840,1427 L836,1429 L834,1431 L832,1432 L828,1436 L828,1435 L827,1435 L825,1433 L825,1432 L826,1432 L828,1429 L830,1427 L831,1425 L832,1424 L832,1421 L831,1419 L830,1418 L829,1416 L827,1414 L826,1414 L825,1413 L824,1414 L822,1414 L821,1415 L819,1416 L818,1418 L817,1419 L816,1421 L816,1422 L815,1424 L815,1426 L813,1426 L811,1424 L811,1421 L812,1420 L812,1418 L813,1417 L814,1415 L815,1414 L816,1412 L819,1410 L821,1408 L823,1407 L828,1407 L834,1410 L837,1416 L837,1421 L835,1425 L837,1424 L839,1422 L847,1422 L849,1424 L851,1425 L851,1425 Z M756,1537 L756,1539 L755,1539 L755,1540 L754,1540 L754,1541 L752,1541 L749,1538 L749,1542 L747,1548 L746,1550 L743,1552 L741,1553 L736,1553 L730,1550 L727,1548 L714,1534 L713,1534 L713,1533 L714,1533 L714,1532 L715,1532 L715,1531 L716,1531 L716,1530 L718,1530 L734,1546 L736,1547 L740,1547 L742,1546 L743,1545 L745,1541 L745,1534 L729,1519 L729,1517 L732,1514 L733,1514 L756,1537 L756,1537 Z M768,1525 L768,1527 L767,1527 L767,1528 L766,1528 L766,1529 L765,1529 L765,1530 L764,1530 L764,1529 L730,1496 L730,1494 L731,1494 L731,1493 L732,1492 L733,1492 L733,1491 L734,1491 L734,1492 L768,1525 L768,1525 Z M724,1561 L725,1563 L725,1569 L724,1571 L719,1576 L715,1576 L713,1574 L713,1573 L712,1573 L713,1573 L713,1572 L715,1572 L716,1571 L717,1571 L719,1569 L719,1565 L717,1563 L716,1561 L692,1538 L692,1537 L696,1533 L724,1561 L724,1561 Z M798,1474 L798,1475 L797,1475 L786,1486 L785,1486 L784,1485 L784,1484 L783,1483 L783,1482 L794,1471 L795,1471 L798,1474 L798,1474 Z" id="Shape" fill="#000000" sketch:type="MSShapeGroup"></path>
                    <path d="M828,1615 L829,1615 L830,1616 L830,1617 L829,1617 L829,1618 L828,1618 L828,1619 L827,1619 L826,1620 L825,1620 L814,1615 L800,1628 L806,1639 L806,1641 L805,1641 L805,1642 L804,1642 L804,1643 L803,1643 L803,1644 L802,1644 L801,1643 L801,1642 L781,1601 L781,1599 L782,1599 L783,1598 L783,1597 L784,1597 L786,1595 L787,1595 L828,1615 L828,1615 Z M787,1602 L798,1624 L809,1612 L787,1602 L787,1602 Z M858,1543 L859,1544 L859,1546 L856,1549 L858,1549 L859,1550 L861,1551 L862,1551 L864,1554 L865,1556 L865,1562 L863,1566 L857,1572 L855,1572 L855,1573 L856,1574 L856,1575 L857,1575 L858,1576 L859,1576 L861,1575 L862,1574 L868,1569 L870,1567 L874,1565 L879,1565 L881,1566 L882,1567 L885,1573 L885,1575 L884,1578 L883,1580 L879,1586 L873,1590 L869,1592 L865,1592 L864,1591 L862,1590 L862,1589 L860,1587 L860,1581 L855,1581 L854,1580 L852,1576 L851,1575 L851,1573 L850,1572 L848,1572 L846,1571 L844,1569 L841,1563 L841,1559 L842,1556 L844,1554 L845,1552 L847,1550 L848,1550 L856,1542 L858,1542 L858,1543 L858,1543 Z M878,1571 L876,1570 L874,1570 L872,1571 L870,1573 L864,1578 L864,1583 L866,1585 L868,1586 L870,1586 L873,1585 L877,1581 L878,1579 L879,1578 L879,1576 L880,1575 L879,1573 L879,1572 L878,1571 L878,1571 Z M985,1458 L985,1459 L986,1459 L986,1460 L968,1477 L968,1478 L967,1478 L967,1477 L966,1477 L966,1476 L965,1476 L965,1474 L972,1467 L947,1442 L944,1452 L944,1454 L943,1454 L941,1452 L941,1451 L940,1451 L940,1450 L943,1438 L943,1437 L944,1437 L944,1436 L945,1435 L946,1435 L946,1434 L947,1434 L976,1463 L982,1457 L984,1457 L985,1458 L985,1458 Z M1003,1425 L1005,1427 L1006,1430 L1007,1432 L1007,1435 L1006,1438 L1005,1440 L1001,1446 L998,1449 L994,1451 L993,1452 L989,1452 L986,1449 L987,1448 L988,1448 L989,1447 L990,1447 L994,1445 L997,1442 L999,1441 L1001,1437 L1001,1434 L1000,1432 L1000,1431 L998,1429 L994,1427 L992,1427 L988,1429 L986,1431 L984,1432 L981,1435 L979,1435 L978,1434 L977,1434 L977,1432 L982,1427 L983,1425 L984,1424 L984,1421 L983,1419 L982,1418 L981,1416 L979,1414 L978,1414 L976,1413 L975,1414 L974,1414 L973,1415 L971,1416 L970,1418 L969,1419 L968,1421 L967,1422 L967,1426 L965,1426 L963,1424 L963,1420 L964,1418 L965,1417 L965,1415 L968,1412 L971,1410 L973,1408 L975,1407 L979,1407 L985,1410 L987,1412 L989,1416 L989,1421 L987,1425 L989,1424 L991,1422 L999,1422 L1001,1424 L1003,1425 L1003,1425 Z M854,1592 L854,1593 L853,1593 L853,1594 L852,1594 L852,1595 L850,1595 L847,1592 L847,1596 L845,1602 L841,1606 L838,1607 L832,1607 L830,1606 L828,1604 L825,1602 L811,1588 L811,1586 L812,1586 L812,1585 L813,1585 L814,1584 L815,1584 L829,1597 L832,1600 L834,1601 L838,1601 L840,1599 L842,1595 L843,1592 L842,1589 L827,1573 L826,1573 L826,1572 L830,1568 L831,1568 L831,1569 L854,1592 L854,1592 Z M905,1540 L905,1542 L904,1542 L904,1543 L903,1543 L903,1544 L902,1544 L898,1540 L898,1547 L897,1550 L893,1554 L890,1555 L888,1556 L886,1556 L884,1555 L881,1554 L877,1550 L863,1537 L863,1535 L866,1532 L867,1532 L880,1546 L886,1549 L887,1550 L888,1550 L889,1549 L891,1549 L892,1548 L894,1544 L894,1537 L878,1521 L878,1519 L879,1519 L879,1518 L880,1518 L881,1517 L882,1517 L905,1540 L905,1540 Z M943,1498 L944,1499 L944,1502 L943,1503 L943,1504 L942,1504 L942,1505 L941,1505 L940,1507 L936,1509 L934,1509 L933,1508 L929,1506 L914,1491 L910,1495 L910,1494 L909,1494 L908,1493 L907,1493 L907,1491 L910,1488 L905,1482 L905,1480 L906,1480 L906,1479 L907,1479 L907,1478 L909,1478 L915,1483 L920,1478 L921,1478 L921,1477 L922,1478 L923,1478 L923,1479 L924,1480 L924,1481 L918,1487 L931,1500 L935,1502 L937,1502 L939,1501 L939,1500 L940,1500 L940,1498 L941,1498 L941,1497 L942,1498 L943,1498 L943,1498 Z M921,1512 L922,1514 L923,1515 L924,1517 L924,1519 L923,1522 L921,1526 L916,1531 L914,1531 L913,1532 L912,1532 L912,1533 L910,1533 L910,1532 L909,1532 L907,1530 L907,1529 L908,1529 L908,1528 L910,1528 L912,1527 L913,1526 L915,1525 L918,1522 L918,1520 L919,1519 L918,1518 L918,1517 L916,1515 L912,1515 L911,1516 L910,1516 L909,1517 L907,1517 L906,1518 L904,1518 L903,1519 L899,1519 L897,1518 L896,1517 L894,1516 L893,1515 L892,1513 L892,1507 L894,1503 L898,1499 L899,1499 L900,1498 L901,1498 L902,1497 L904,1497 L904,1498 L905,1498 L906,1499 L906,1501 L905,1501 L904,1502 L903,1502 L901,1503 L900,1504 L899,1504 L898,1506 L897,1507 L897,1510 L898,1511 L898,1512 L899,1513 L905,1513 L906,1512 L907,1512 L908,1511 L910,1510 L912,1510 L914,1509 L917,1509 L918,1510 L920,1511 L921,1512 L921,1512 Z M858,1555 L856,1554 L853,1553 L851,1554 L848,1555 L847,1557 L846,1558 L846,1562 L848,1564 L848,1565 L851,1567 L853,1568 L856,1567 L860,1563 L860,1559 L859,1558 L859,1557 L858,1555 L858,1555 Z M949,1473 L949,1475 L938,1486 L937,1486 L935,1484 L935,1482 L946,1471 L947,1471 L949,1473 L949,1473 Z" id="Shape" fill="#000000" sketch:type="MSShapeGroup"></path>
                    <path d="M1023,1573 L1024,1573 L1024,1574 L1022,1576 L1022,1577 L1019,1577 L1002,1560 L997,1560 L996,1561 L995,1561 L993,1565 L993,1572 L1009,1588 L1009,1589 L1006,1592 L1005,1592 L990,1577 L988,1576 L987,1575 L985,1575 L984,1574 L982,1575 L981,1575 L980,1576 L978,1580 L978,1587 L994,1603 L994,1604 L991,1607 L990,1607 L967,1584 L967,1582 L968,1582 L968,1581 L969,1581 L969,1580 L971,1580 L974,1583 L974,1576 L976,1574 L977,1572 L979,1571 L980,1570 L982,1569 L983,1568 L986,1568 L988,1569 L989,1569 L988,1567 L989,1565 L989,1562 L990,1561 L990,1559 L992,1557 L994,1556 L996,1554 L1001,1554 L1003,1555 L1005,1555 L1023,1573 L1023,1573 Z M1158,1429 L1159,1432 L1159,1435 L1158,1438 L1157,1440 L1153,1446 L1150,1449 L1146,1451 L1145,1451 L1144,1452 L1141,1452 L1138,1449 L1138,1448 L1139,1448 L1140,1447 L1142,1447 L1146,1445 L1152,1439 L1153,1437 L1153,1434 L1152,1432 L1151,1431 L1150,1429 L1149,1428 L1147,1427 L1144,1427 L1138,1430 L1133,1435 L1131,1435 L1129,1433 L1129,1432 L1134,1427 L1135,1425 L1136,1424 L1136,1420 L1135,1418 L1134,1417 L1133,1415 L1132,1415 L1130,1413 L1127,1413 L1125,1415 L1123,1416 L1122,1418 L1121,1419 L1120,1421 L1119,1422 L1119,1426 L1116,1426 L1116,1425 L1115,1424 L1115,1423 L1114,1423 L1114,1422 L1115,1422 L1115,1420 L1116,1418 L1117,1417 L1117,1415 L1119,1413 L1120,1411 L1123,1410 L1125,1408 L1127,1407 L1131,1407 L1137,1410 L1139,1412 L1141,1416 L1141,1421 L1140,1423 L1139,1424 L1143,1422 L1145,1422 L1147,1421 L1149,1422 L1151,1422 L1158,1429 L1158,1429 Z M1043,1536 L1045,1539 L1047,1545 L1047,1550 L1045,1553 L1040,1558 L1039,1558 L1038,1559 L1032,1559 L1035,1562 L1035,1563 L1034,1563 L1034,1564 L1033,1565 L1032,1565 L1032,1566 L1031,1566 L1031,1565 L997,1532 L997,1530 L998,1530 L999,1529 L999,1528 L1000,1528 L1001,1527 L1015,1541 L1015,1537 L1016,1536 L1016,1534 L1017,1533 L1017,1532 L1019,1530 L1022,1528 L1024,1527 L1027,1526 L1030,1526 L1032,1528 L1035,1529 L1038,1531 L1043,1536 L1043,1536 Z M1036,1538 L1035,1536 L1027,1532 L1025,1532 L1024,1533 L1022,1534 L1020,1536 L1020,1538 L1019,1540 L1019,1545 L1028,1554 L1032,1555 L1035,1554 L1039,1552 L1040,1551 L1041,1549 L1041,1545 L1039,1541 L1036,1538 L1036,1538 Z M1136,1458 L1137,1459 L1137,1461 L1120,1478 L1118,1478 L1116,1476 L1116,1474 L1123,1468 L1098,1443 L1096,1453 L1096,1454 L1094,1454 L1092,1452 L1092,1451 L1094,1438 L1095,1438 L1095,1437 L1096,1437 L1096,1436 L1097,1436 L1097,1435 L1098,1435 L1098,1434 L1127,1463 L1133,1457 L1135,1457 L1135,1458 L1136,1458 L1136,1458 Z M882,1702 L883,1704 L884,1707 L884,1710 L883,1713 L882,1715 L880,1718 L874,1724 L872,1725 L871,1726 L866,1726 L864,1724 L864,1723 L863,1723 L863,1722 L864,1722 L865,1721 L868,1721 L870,1720 L871,1719 L873,1718 L876,1715 L877,1713 L878,1712 L878,1707 L875,1704 L873,1703 L868,1703 L864,1705 L862,1705 L860,1706 L858,1706 L856,1707 L851,1707 L847,1705 L845,1703 L844,1701 L842,1699 L842,1692 L843,1689 L851,1681 L853,1681 L854,1680 L857,1680 L857,1681 L858,1681 L858,1682 L859,1682 L859,1684 L858,1685 L856,1685 L855,1686 L853,1686 L848,1691 L848,1693 L847,1694 L847,1696 L849,1698 L849,1699 L851,1700 L852,1700 L854,1701 L856,1700 L858,1700 L859,1699 L861,1699 L865,1697 L867,1697 L870,1696 L874,1696 L878,1698 L882,1702 L882,1702 Z M932,1647 L934,1650 L936,1656 L936,1661 L934,1664 L929,1669 L928,1669 L927,1670 L922,1670 L933,1681 L933,1684 L932,1684 L932,1685 L931,1685 L930,1686 L929,1686 L929,1685 L897,1654 L897,1652 L898,1652 L898,1651 L899,1651 L899,1650 L901,1650 L904,1653 L904,1649 L905,1648 L905,1646 L906,1645 L906,1643 L908,1641 L911,1639 L913,1638 L916,1637 L919,1637 L921,1639 L924,1640 L927,1642 L932,1647 L932,1647 Z M925,1649 L924,1647 L916,1643 L914,1643 L913,1644 L911,1645 L909,1647 L909,1649 L908,1651 L908,1656 L917,1665 L921,1666 L924,1665 L928,1663 L929,1662 L930,1660 L930,1656 L928,1652 L925,1649 L925,1649 Z M959,1638 L959,1639 L958,1639 L958,1641 L957,1641 L957,1642 L956,1643 L952,1645 L951,1646 L947,1646 L945,1645 L928,1628 L925,1632 L924,1632 L921,1629 L925,1625 L919,1620 L919,1618 L920,1618 L920,1617 L921,1617 L921,1616 L922,1616 L922,1615 L924,1615 L929,1621 L935,1615 L936,1615 L938,1617 L938,1618 L932,1624 L947,1639 L949,1640 L951,1640 L953,1638 L954,1638 L954,1636 L955,1636 L955,1635 L956,1635 L959,1638 L959,1638 Z M1066,1508 L1066,1509 L1050,1525 L1052,1527 L1056,1529 L1062,1529 L1064,1528 L1070,1522 L1070,1520 L1071,1519 L1071,1518 L1072,1517 L1072,1516 L1073,1516 L1073,1517 L1074,1517 L1075,1518 L1075,1522 L1074,1523 L1073,1525 L1072,1526 L1071,1528 L1069,1530 L1063,1534 L1061,1535 L1058,1535 L1052,1533 L1049,1531 L1045,1529 L1041,1523 L1040,1519 L1039,1516 L1039,1513 L1040,1510 L1042,1508 L1044,1505 L1047,1503 L1049,1501 L1057,1501 L1060,1502 L1066,1508 L1066,1508 Z M1060,1510 L1057,1507 L1053,1506 L1050,1507 L1047,1509 L1046,1511 L1045,1512 L1044,1514 L1044,1515 L1045,1517 L1045,1519 L1046,1521 L1047,1522 L1060,1510 L1060,1510 Z M972,1602 L972,1604 L971,1604 L956,1619 L958,1621 L964,1624 L966,1624 L970,1622 L976,1616 L976,1614 L977,1613 L977,1611 L980,1611 L980,1612 L981,1612 L981,1616 L980,1617 L979,1619 L978,1620 L977,1622 L975,1624 L969,1628 L966,1629 L963,1629 L957,1627 L951,1623 L947,1617 L945,1611 L945,1608 L946,1605 L949,1599 L952,1597 L958,1595 L960,1595 L963,1596 L965,1596 L968,1598 L972,1602 L972,1602 Z M966,1604 L962,1601 L959,1600 L956,1601 L953,1603 L950,1606 L950,1612 L951,1613 L952,1615 L953,1616 L966,1604 L966,1604 Z M901,1671 L902,1672 L902,1673 L901,1674 L887,1689 L890,1692 L892,1693 L898,1693 L900,1692 L906,1686 L906,1684 L907,1683 L907,1682 L908,1681 L908,1680 L909,1680 L909,1681 L910,1681 L911,1682 L911,1686 L910,1687 L909,1689 L902,1696 L899,1698 L897,1699 L894,1699 L888,1697 L885,1695 L881,1692 L879,1690 L877,1686 L875,1680 L875,1677 L876,1674 L878,1672 L880,1669 L883,1667 L885,1665 L893,1665 L896,1666 L898,1668 L901,1670 L901,1671 L901,1671 Z M896,1673 L893,1671 L889,1670 L886,1670 L883,1672 L880,1678 L880,1679 L881,1681 L881,1683 L882,1685 L883,1686 L896,1673 L896,1673 Z M1077,1479 L1077,1480 L1078,1480 L1077,1481 L1076,1481 L1076,1482 L1075,1482 L1073,1484 L1073,1485 L1072,1486 L1072,1489 L1073,1491 L1073,1493 L1088,1508 L1088,1511 L1087,1511 L1085,1513 L1084,1513 L1084,1512 L1061,1490 L1061,1489 L1062,1488 L1062,1487 L1063,1487 L1063,1486 L1065,1486 L1068,1489 L1068,1482 L1069,1481 L1069,1480 L1070,1480 L1070,1479 L1071,1478 L1072,1478 L1072,1477 L1073,1477 L1074,1476 L1074,1477 L1075,1477 L1077,1479 L1077,1479 Z M1101,1473 L1101,1475 L1090,1485 L1090,1486 L1089,1486 L1089,1485 L1088,1484 L1087,1484 L1087,1482 L1098,1471 L1099,1471 L1101,1473 L1101,1473 Z" id="Shape" fill="#000000" sketch:type="MSShapeGroup"></path>
                    <path d="M1098,1626 L1102,1634 L1103,1638 L1103,1642 L1102,1646 L1100,1650 L1093,1657 L1089,1659 L1081,1661 L1077,1660 L1073,1658 L1065,1652 L1059,1644 L1057,1636 L1057,1632 L1058,1628 L1060,1624 L1063,1620 L1067,1617 L1071,1615 L1075,1614 L1078,1613 L1082,1614 L1090,1618 L1098,1626 L1098,1626 Z M1090,1627 L1087,1624 L1084,1622 L1078,1620 L1076,1619 L1073,1620 L1067,1624 L1063,1630 L1063,1636 L1064,1638 L1065,1641 L1068,1644 L1070,1647 L1073,1650 L1076,1652 L1078,1653 L1084,1655 L1087,1654 L1093,1650 L1097,1644 L1097,1638 L1096,1635 L1094,1632 L1092,1630 L1090,1627 L1090,1627 Z M1306,1424 L1308,1427 L1310,1429 L1311,1432 L1311,1434 L1309,1440 L1305,1446 L1301,1448 L1300,1449 L1298,1450 L1297,1451 L1296,1451 L1295,1452 L1293,1452 L1293,1451 L1292,1451 L1291,1450 L1291,1449 L1290,1449 L1290,1448 L1291,1448 L1292,1447 L1293,1447 L1294,1446 L1296,1446 L1298,1445 L1304,1439 L1305,1437 L1305,1434 L1304,1432 L1303,1431 L1302,1429 L1301,1428 L1299,1427 L1296,1427 L1294,1428 L1292,1428 L1285,1435 L1283,1435 L1281,1433 L1281,1431 L1284,1429 L1286,1427 L1287,1425 L1288,1424 L1288,1420 L1287,1418 L1286,1417 L1285,1415 L1284,1415 L1282,1413 L1279,1413 L1277,1415 L1275,1416 L1274,1418 L1273,1419 L1272,1421 L1271,1422 L1271,1425 L1270,1426 L1269,1426 L1268,1425 L1268,1424 L1267,1424 L1267,1423 L1266,1423 L1266,1422 L1267,1421 L1267,1419 L1269,1417 L1269,1415 L1271,1413 L1272,1411 L1275,1410 L1277,1408 L1279,1407 L1285,1407 L1287,1409 L1289,1410 L1292,1413 L1293,1415 L1293,1421 L1292,1423 L1291,1424 L1297,1421 L1301,1421 L1305,1423 L1306,1424 L1306,1424 Z M1288,1458 L1288,1459 L1289,1459 L1289,1461 L1272,1478 L1270,1478 L1268,1476 L1268,1474 L1275,1467 L1250,1443 L1248,1453 L1248,1454 L1246,1454 L1244,1452 L1244,1450 L1246,1438 L1249,1435 L1250,1435 L1250,1434 L1251,1434 L1279,1463 L1285,1457 L1287,1457 L1288,1458 L1288,1458 Z M1195,1536 L1197,1539 L1199,1545 L1199,1550 L1197,1553 L1192,1558 L1191,1558 L1190,1559 L1184,1559 L1187,1561 L1187,1563 L1186,1563 L1186,1564 L1185,1565 L1183,1565 L1149,1531 L1149,1530 L1150,1530 L1150,1529 L1151,1529 L1151,1528 L1152,1528 L1152,1527 L1153,1527 L1167,1541 L1167,1537 L1168,1536 L1168,1534 L1169,1533 L1169,1532 L1171,1530 L1174,1528 L1176,1526 L1182,1526 L1184,1527 L1187,1528 L1195,1536 L1195,1536 Z M1185,1534 L1181,1532 L1177,1532 L1176,1533 L1174,1534 L1172,1536 L1172,1537 L1171,1538 L1171,1545 L1180,1554 L1187,1554 L1191,1552 L1192,1551 L1193,1549 L1193,1545 L1190,1539 L1185,1534 L1185,1534 Z M1165,1560 L1168,1562 L1170,1565 L1171,1569 L1172,1572 L1172,1575 L1171,1578 L1167,1584 L1161,1588 L1158,1589 L1155,1589 L1149,1587 L1143,1583 L1139,1577 L1137,1571 L1137,1568 L1138,1564 L1142,1558 L1148,1554 L1151,1554 L1154,1553 L1160,1555 L1163,1557 L1165,1560 L1165,1560 Z M1158,1561 L1154,1559 L1149,1559 L1147,1561 L1145,1562 L1142,1568 L1143,1570 L1143,1572 L1144,1574 L1146,1576 L1147,1578 L1149,1580 L1155,1583 L1159,1583 L1161,1582 L1165,1578 L1166,1576 L1166,1570 L1165,1568 L1158,1561 L1158,1561 Z M1217,1506 L1218,1507 L1218,1509 L1202,1525 L1204,1527 L1208,1529 L1212,1529 L1218,1526 L1220,1524 L1221,1522 L1222,1521 L1222,1520 L1223,1519 L1223,1518 L1224,1517 L1224,1516 L1225,1516 L1225,1517 L1226,1517 L1227,1518 L1227,1522 L1226,1523 L1225,1525 L1218,1532 L1215,1533 L1213,1534 L1210,1535 L1207,1534 L1203,1533 L1200,1531 L1197,1528 L1193,1522 L1191,1516 L1191,1513 L1192,1510 L1194,1508 L1196,1505 L1198,1503 L1201,1501 L1204,1500 L1206,1500 L1212,1502 L1216,1506 L1217,1506 L1217,1506 Z M1212,1509 L1209,1507 L1205,1506 L1202,1506 L1199,1508 L1196,1514 L1196,1515 L1197,1517 L1197,1519 L1198,1521 L1199,1522 L1212,1509 L1212,1509 Z M1149,1596 L1149,1597 L1150,1597 L1150,1600 L1148,1602 L1148,1603 L1147,1603 L1144,1606 L1139,1606 L1135,1604 L1120,1589 L1116,1592 L1115,1592 L1113,1590 L1113,1589 L1116,1585 L1111,1580 L1110,1580 L1110,1579 L1111,1579 L1111,1578 L1112,1578 L1112,1577 L1113,1577 L1113,1576 L1115,1576 L1120,1581 L1126,1575 L1128,1575 L1128,1576 L1129,1576 L1130,1577 L1130,1579 L1124,1585 L1136,1597 L1139,1599 L1141,1600 L1143,1600 L1146,1597 L1146,1596 L1147,1595 L1148,1595 L1148,1596 L1149,1596 L1149,1596 Z M1129,1612 L1130,1612 L1130,1613 L1131,1613 L1131,1617 L1130,1618 L1130,1619 L1129,1621 L1124,1626 L1121,1628 L1118,1629 L1116,1629 L1110,1627 L1107,1625 L1101,1619 L1099,1616 L1098,1612 L1097,1609 L1098,1607 L1098,1604 L1100,1601 L1105,1596 L1106,1596 L1108,1595 L1113,1595 L1113,1596 L1115,1598 L1114,1599 L1111,1599 L1110,1600 L1108,1600 L1107,1601 L1105,1602 L1103,1606 L1103,1609 L1104,1614 L1110,1620 L1116,1623 L1118,1623 L1122,1621 L1124,1619 L1125,1617 L1126,1616 L1126,1612 L1127,1611 L1127,1610 L1128,1610 L1128,1611 L1129,1612 L1129,1612 Z M1228,1478 L1229,1478 L1229,1479 L1230,1480 L1229,1480 L1229,1481 L1228,1481 L1228,1482 L1226,1482 L1226,1483 L1225,1484 L1225,1485 L1224,1486 L1224,1489 L1225,1491 L1225,1493 L1240,1508 L1240,1511 L1239,1511 L1238,1512 L1236,1512 L1213,1490 L1213,1488 L1214,1488 L1214,1487 L1215,1487 L1215,1486 L1217,1486 L1220,1489 L1220,1481 L1222,1479 L1222,1478 L1223,1478 L1223,1477 L1225,1477 L1225,1476 L1227,1476 L1227,1477 L1228,1477 L1228,1478 L1228,1478 Z M1253,1473 L1253,1474 L1242,1485 L1241,1485 L1240,1484 L1239,1484 L1239,1482 L1250,1471 L1251,1471 L1253,1473 L1253,1473 Z" id="Shape" fill="#000000" sketch:type="MSShapeGroup"></path>
                    <path d="M1208,1690 L1208,1691 L1209,1692 L1209,1693 L1208,1693 L1208,1694 L1206,1695 L1206,1696 L1205,1696 L1204,1697 L1203,1697 L1202,1696 L1199,1696 L1171,1687 L1169,1687 L1166,1686 L1164,1685 L1161,1684 L1169,1692 L1189,1711 L1189,1713 L1188,1713 L1188,1714 L1187,1714 L1187,1715 L1186,1715 L1186,1716 L1184,1716 L1153,1685 L1153,1683 L1154,1683 L1154,1682 L1157,1679 L1158,1679 L1159,1678 L1162,1678 L1163,1679 L1185,1685 L1187,1686 L1189,1686 L1191,1687 L1192,1688 L1194,1688 L1198,1690 L1199,1690 L1173,1664 L1173,1663 L1175,1661 L1176,1661 L1176,1660 L1177,1660 L1177,1659 L1208,1690 L1208,1690 Z M1327,1573 L1327,1575 L1326,1576 L1325,1576 L1325,1577 L1323,1577 L1308,1562 L1306,1561 L1305,1560 L1303,1560 L1302,1559 L1301,1560 L1300,1560 L1298,1561 L1297,1563 L1297,1565 L1296,1568 L1297,1572 L1313,1588 L1313,1589 L1312,1589 L1312,1590 L1311,1590 L1311,1591 L1310,1591 L1310,1592 L1308,1592 L1291,1575 L1289,1574 L1286,1574 L1284,1576 L1282,1580 L1282,1586 L1298,1602 L1298,1604 L1297,1604 L1297,1605 L1296,1605 L1296,1606 L1295,1606 L1295,1607 L1294,1607 L1294,1606 L1271,1584 L1271,1582 L1272,1582 L1272,1581 L1273,1581 L1273,1580 L1275,1580 L1278,1583 L1278,1576 L1280,1574 L1281,1571 L1283,1570 L1284,1569 L1286,1569 L1287,1568 L1289,1568 L1291,1569 L1292,1569 L1292,1565 L1293,1563 L1293,1561 L1294,1560 L1294,1559 L1298,1555 L1302,1553 L1304,1553 L1307,1554 L1309,1555 L1311,1557 L1313,1558 L1327,1573 L1327,1573 Z M1440,1458 L1440,1459 L1441,1459 L1441,1461 L1424,1478 L1422,1478 L1422,1477 L1421,1477 L1420,1476 L1420,1474 L1427,1467 L1402,1443 L1400,1453 L1399,1453 L1399,1454 L1397,1454 L1397,1453 L1396,1453 L1396,1451 L1395,1451 L1395,1450 L1398,1438 L1398,1437 L1399,1437 L1399,1436 L1400,1436 L1401,1435 L1401,1434 L1403,1434 L1431,1463 L1437,1457 L1439,1457 L1439,1458 L1440,1458 L1440,1458 Z M1458,1425 L1460,1427 L1461,1430 L1462,1432 L1462,1435 L1460,1441 L1458,1444 L1453,1449 L1449,1451 L1448,1452 L1444,1452 L1443,1451 L1442,1451 L1442,1450 L1441,1449 L1442,1448 L1444,1448 L1448,1446 L1449,1445 L1451,1444 L1452,1442 L1454,1441 L1455,1439 L1456,1438 L1456,1435 L1455,1433 L1455,1432 L1454,1430 L1453,1429 L1449,1427 L1447,1428 L1445,1428 L1443,1429 L1441,1431 L1439,1432 L1436,1435 L1436,1436 L1435,1436 L1434,1435 L1433,1435 L1433,1434 L1432,1434 L1432,1432 L1438,1426 L1439,1424 L1439,1421 L1438,1419 L1437,1418 L1436,1416 L1434,1414 L1429,1414 L1428,1415 L1426,1416 L1425,1418 L1424,1419 L1423,1421 L1422,1422 L1422,1426 L1421,1426 L1421,1427 L1419,1425 L1418,1425 L1418,1420 L1419,1418 L1420,1417 L1421,1415 L1422,1414 L1423,1412 L1426,1410 L1428,1408 L1430,1408 L1432,1407 L1435,1407 L1439,1409 L1440,1411 L1443,1414 L1444,1416 L1444,1421 L1442,1425 L1448,1422 L1452,1422 L1458,1425 L1458,1425 Z M1347,1536 L1349,1539 L1350,1542 L1351,1544 L1351,1547 L1349,1553 L1344,1558 L1341,1558 L1339,1559 L1336,1559 L1339,1561 L1339,1563 L1338,1563 L1338,1564 L1337,1564 L1337,1565 L1335,1565 L1301,1531 L1301,1530 L1303,1528 L1304,1528 L1304,1527 L1305,1527 L1319,1541 L1319,1537 L1320,1536 L1320,1534 L1321,1533 L1321,1532 L1325,1528 L1328,1526 L1333,1526 L1339,1528 L1347,1536 L1347,1536 Z M1337,1534 L1333,1532 L1329,1532 L1328,1533 L1326,1534 L1324,1536 L1324,1537 L1323,1538 L1323,1545 L1332,1554 L1339,1554 L1343,1552 L1345,1548 L1345,1545 L1342,1539 L1337,1534 L1337,1534 Z M1241,1614 L1241,1615 L1255,1645 L1255,1647 L1254,1647 L1254,1648 L1253,1648 L1253,1649 L1252,1650 L1251,1650 L1251,1651 L1250,1651 L1249,1650 L1220,1637 L1220,1636 L1219,1636 L1218,1635 L1219,1635 L1219,1634 L1220,1634 L1220,1633 L1221,1632 L1222,1632 L1222,1631 L1223,1631 L1248,1644 L1249,1644 L1249,1643 L1236,1618 L1236,1617 L1239,1614 L1241,1614 L1241,1614 Z M1369,1506 L1370,1507 L1370,1509 L1354,1525 L1356,1527 L1360,1529 L1364,1529 L1368,1527 L1374,1521 L1374,1520 L1375,1519 L1375,1517 L1376,1516 L1377,1516 L1378,1517 L1378,1518 L1379,1518 L1379,1522 L1378,1523 L1377,1525 L1373,1529 L1367,1533 L1361,1535 L1355,1533 L1352,1531 L1349,1528 L1345,1522 L1343,1516 L1343,1513 L1344,1510 L1346,1507 L1350,1503 L1353,1501 L1356,1500 L1358,1500 L1361,1501 L1363,1502 L1366,1504 L1368,1506 L1369,1506 L1369,1506 Z M1364,1509 L1360,1507 L1357,1506 L1354,1506 L1351,1508 L1350,1510 L1348,1512 L1348,1517 L1349,1518 L1351,1522 L1364,1509 L1364,1509 Z M1227,1650 L1231,1656 L1233,1662 L1233,1665 L1232,1668 L1228,1674 L1222,1678 L1219,1679 L1213,1679 L1210,1677 L1208,1675 L1205,1673 L1202,1670 L1200,1667 L1198,1661 L1199,1658 L1199,1655 L1201,1652 L1206,1647 L1209,1645 L1212,1644 L1218,1644 L1221,1645 L1224,1647 L1227,1650 L1227,1650 Z M1223,1654 L1221,1653 L1219,1651 L1217,1650 L1215,1650 L1213,1649 L1207,1652 L1206,1654 L1204,1656 L1204,1660 L1207,1666 L1213,1672 L1215,1673 L1217,1673 L1219,1674 L1223,1672 L1226,1669 L1228,1665 L1228,1663 L1227,1661 L1226,1658 L1225,1656 L1223,1654 L1223,1654 Z M1276,1602 L1276,1603 L1260,1619 L1262,1621 L1266,1623 L1272,1623 L1274,1622 L1277,1619 L1278,1617 L1279,1616 L1280,1614 L1281,1613 L1281,1611 L1282,1610 L1283,1611 L1284,1611 L1284,1612 L1285,1612 L1285,1615 L1283,1617 L1282,1619 L1281,1620 L1280,1622 L1276,1626 L1273,1628 L1270,1629 L1267,1629 L1261,1627 L1258,1625 L1253,1620 L1250,1616 L1249,1613 L1249,1607 L1250,1604 L1251,1602 L1253,1599 L1259,1595 L1267,1595 L1269,1596 L1272,1598 L1276,1602 L1276,1602 Z M1269,1603 L1266,1601 L1263,1600 L1259,1600 L1256,1602 L1254,1606 L1254,1611 L1256,1615 L1257,1616 L1269,1603 L1269,1603 Z M1380,1478 L1381,1478 L1381,1481 L1379,1481 L1379,1482 L1378,1482 L1378,1483 L1376,1485 L1376,1489 L1377,1491 L1377,1493 L1392,1508 L1392,1510 L1391,1510 L1391,1511 L1390,1512 L1388,1512 L1365,1489 L1365,1488 L1366,1488 L1366,1487 L1367,1486 L1368,1486 L1368,1485 L1372,1489 L1372,1481 L1373,1480 L1373,1479 L1374,1478 L1375,1478 L1375,1477 L1376,1477 L1377,1476 L1378,1476 L1380,1478 L1380,1478 Z M1403,1472 L1404,1473 L1404,1475 L1394,1486 L1392,1486 L1390,1484 L1390,1482 L1401,1472 L1401,1471 L1402,1471 L1402,1472 L1403,1472 L1403,1472 Z" id="Shape" fill="#000000" sketch:type="MSShapeGroup"></path>
                    <path d="M1479,1573 L1479,1574 L1478,1575 L1478,1576 L1477,1576 L1476,1577 L1475,1577 L1460,1562 L1458,1561 L1457,1560 L1455,1559 L1454,1559 L1453,1560 L1452,1560 L1450,1561 L1448,1565 L1448,1572 L1464,1587 L1464,1588 L1465,1588 L1464,1588 L1464,1590 L1463,1590 L1463,1591 L1462,1591 L1462,1592 L1460,1592 L1443,1575 L1442,1575 L1441,1574 L1438,1574 L1437,1575 L1435,1576 L1434,1578 L1434,1580 L1433,1583 L1434,1586 L1450,1602 L1450,1604 L1449,1604 L1449,1605 L1448,1605 L1448,1606 L1446,1606 L1446,1607 L1423,1584 L1423,1583 L1422,1583 L1425,1580 L1426,1580 L1429,1583 L1429,1579 L1430,1576 L1431,1574 L1433,1571 L1435,1570 L1436,1569 L1437,1569 L1438,1568 L1443,1568 L1444,1569 L1444,1565 L1445,1563 L1445,1560 L1447,1558 L1447,1557 L1450,1555 L1454,1553 L1456,1553 L1459,1554 L1461,1555 L1463,1557 L1465,1558 L1479,1573 L1479,1573 Z M1350,1670 L1356,1678 L1357,1683 L1358,1687 L1356,1695 L1354,1699 L1342,1711 L1341,1711 L1340,1710 L1310,1681 L1310,1677 L1318,1670 L1322,1666 L1326,1664 L1334,1662 L1342,1664 L1346,1666 L1350,1670 L1350,1670 Z M1345,1675 L1343,1672 L1340,1670 L1334,1668 L1331,1669 L1327,1669 L1324,1671 L1317,1678 L1342,1704 L1346,1699 L1349,1696 L1351,1693 L1352,1690 L1352,1687 L1350,1681 L1348,1678 L1345,1675 L1345,1675 Z M1611,1427 L1613,1430 L1614,1432 L1614,1435 L1612,1441 L1610,1443 L1608,1446 L1606,1448 L1604,1449 L1603,1450 L1601,1451 L1600,1452 L1596,1452 L1595,1451 L1594,1451 L1594,1450 L1593,1449 L1593,1448 L1596,1448 L1597,1447 L1603,1444 L1604,1442 L1608,1438 L1608,1434 L1607,1432 L1604,1429 L1602,1428 L1601,1427 L1599,1427 L1595,1429 L1593,1431 L1591,1432 L1587,1436 L1586,1436 L1586,1435 L1585,1435 L1585,1434 L1584,1434 L1584,1432 L1590,1426 L1591,1424 L1591,1421 L1590,1419 L1589,1418 L1588,1416 L1586,1414 L1581,1414 L1580,1415 L1578,1416 L1577,1418 L1576,1419 L1575,1421 L1574,1422 L1574,1426 L1573,1426 L1573,1427 L1572,1426 L1571,1426 L1571,1425 L1570,1425 L1570,1423 L1569,1423 L1570,1422 L1570,1420 L1571,1418 L1572,1417 L1572,1415 L1575,1412 L1578,1410 L1580,1408 L1582,1408 L1584,1407 L1586,1407 L1590,1409 L1595,1414 L1596,1416 L1596,1421 L1594,1425 L1596,1424 L1598,1422 L1604,1422 L1608,1424 L1611,1427 L1611,1427 Z M1592,1458 L1592,1459 L1593,1459 L1593,1460 L1575,1478 L1574,1478 L1572,1476 L1572,1474 L1579,1467 L1554,1442 L1551,1453 L1551,1454 L1550,1454 L1549,1453 L1548,1453 L1548,1452 L1547,1451 L1547,1450 L1550,1438 L1550,1437 L1551,1437 L1551,1436 L1552,1436 L1552,1435 L1553,1435 L1553,1434 L1554,1434 L1583,1463 L1589,1457 L1591,1457 L1591,1458 L1592,1458 L1592,1458 Z M1499,1535 L1501,1538 L1503,1544 L1503,1547 L1501,1553 L1496,1558 L1491,1558 L1490,1559 L1488,1559 L1491,1562 L1490,1563 L1490,1564 L1489,1564 L1489,1565 L1487,1565 L1453,1531 L1453,1530 L1454,1529 L1454,1528 L1455,1528 L1455,1527 L1457,1527 L1471,1541 L1471,1536 L1472,1534 L1472,1533 L1474,1531 L1475,1529 L1477,1528 L1480,1526 L1485,1526 L1491,1528 L1494,1530 L1499,1535 L1499,1535 Z M1492,1537 L1490,1536 L1487,1533 L1485,1532 L1481,1532 L1477,1534 L1477,1535 L1476,1536 L1476,1537 L1475,1538 L1475,1545 L1484,1554 L1491,1554 L1495,1552 L1497,1548 L1497,1545 L1494,1539 L1492,1537 L1492,1537 Z M1427,1600 L1427,1604 L1412,1619 L1414,1621 L1418,1623 L1423,1623 L1426,1622 L1428,1620 L1430,1616 L1432,1614 L1432,1613 L1433,1612 L1433,1610 L1435,1610 L1435,1611 L1436,1611 L1436,1612 L1437,1613 L1437,1614 L1436,1615 L1436,1616 L1435,1617 L1434,1619 L1433,1620 L1432,1622 L1430,1623 L1428,1626 L1425,1628 L1422,1629 L1419,1629 L1413,1627 L1410,1625 L1404,1619 L1402,1616 L1401,1613 L1401,1604 L1403,1602 L1405,1599 L1411,1595 L1413,1595 L1416,1594 L1419,1595 L1421,1596 L1424,1598 L1426,1600 L1427,1600 L1427,1600 Z M1421,1603 L1418,1601 L1415,1600 L1411,1600 L1408,1602 L1406,1606 L1406,1611 L1408,1615 L1409,1616 L1421,1603 L1421,1603 Z M1522,1507 L1522,1509 L1506,1525 L1508,1527 L1512,1529 L1516,1529 L1520,1527 L1523,1524 L1524,1522 L1525,1521 L1526,1519 L1527,1518 L1527,1517 L1528,1516 L1529,1516 L1530,1517 L1530,1518 L1531,1518 L1531,1520 L1530,1522 L1529,1523 L1529,1525 L1525,1529 L1519,1533 L1513,1535 L1507,1533 L1504,1531 L1501,1528 L1495,1519 L1495,1513 L1497,1507 L1499,1505 L1505,1501 L1508,1500 L1510,1500 L1513,1501 L1515,1502 L1518,1504 L1520,1505 L1522,1507 L1522,1507 Z M1515,1509 L1509,1505 L1506,1506 L1502,1508 L1501,1510 L1500,1511 L1500,1517 L1501,1518 L1503,1522 L1515,1509 L1515,1509 Z M1380,1649 L1380,1651 L1364,1667 L1366,1669 L1370,1671 L1374,1671 L1378,1669 L1381,1666 L1382,1664 L1383,1663 L1384,1661 L1385,1660 L1385,1659 L1386,1658 L1387,1658 L1388,1659 L1388,1660 L1389,1660 L1389,1662 L1388,1664 L1387,1665 L1387,1667 L1383,1671 L1377,1675 L1371,1677 L1365,1675 L1362,1673 L1359,1670 L1353,1661 L1353,1655 L1355,1649 L1357,1647 L1363,1643 L1366,1642 L1368,1642 L1371,1643 L1373,1644 L1376,1646 L1378,1647 L1380,1649 L1380,1649 Z M1373,1651 L1367,1647 L1364,1648 L1360,1650 L1359,1652 L1358,1653 L1358,1659 L1359,1660 L1361,1664 L1373,1651 L1373,1651 Z M1410,1634 L1412,1636 L1412,1639 L1411,1640 L1411,1641 L1410,1643 L1409,1644 L1408,1646 L1405,1649 L1399,1651 L1397,1651 L1391,1649 L1385,1645 L1382,1641 L1380,1638 L1378,1632 L1379,1629 L1379,1626 L1381,1624 L1383,1621 L1385,1619 L1387,1619 L1388,1618 L1389,1618 L1390,1617 L1393,1617 L1393,1618 L1394,1618 L1396,1620 L1396,1621 L1394,1621 L1393,1622 L1391,1622 L1389,1623 L1388,1624 L1386,1625 L1384,1628 L1384,1632 L1385,1636 L1391,1642 L1397,1645 L1401,1645 L1403,1644 L1405,1642 L1406,1640 L1407,1639 L1407,1634 L1408,1634 L1408,1633 L1410,1633 L1410,1634 L1410,1634 Z M1532,1479 L1532,1480 L1533,1480 L1533,1481 L1532,1481 L1531,1482 L1530,1482 L1528,1484 L1528,1486 L1527,1487 L1527,1490 L1528,1492 L1528,1494 L1543,1509 L1543,1511 L1542,1511 L1540,1513 L1539,1513 L1516,1490 L1516,1488 L1517,1488 L1517,1487 L1518,1487 L1518,1486 L1520,1486 L1523,1490 L1523,1482 L1525,1480 L1525,1479 L1526,1479 L1526,1478 L1527,1478 L1528,1477 L1530,1477 L1532,1479 L1532,1479 Z M1555,1472 L1556,1473 L1556,1475 L1545,1486 L1544,1486 L1542,1484 L1542,1482 L1553,1472 L1553,1471 L1554,1471 L1554,1472 L1555,1472 L1555,1472 Z" id="Shape" fill="#000000" sketch:type="MSShapeGroup"></path>
                    <path d="M1696,1508 L1702,1520 L1702,1521 L1700,1523 L1700,1524 L1697,1524 L1692,1513 L1691,1513 L1691,1512 L1661,1499 L1660,1499 L1660,1497 L1661,1496 L1661,1495 L1662,1495 L1662,1494 L1665,1494 L1689,1506 L1677,1481 L1677,1479 L1678,1479 L1680,1477 L1681,1477 L1681,1476 L1681,1477 L1682,1477 L1682,1478 L1696,1508 L1696,1508 Z M1744,1459 L1744,1461 L1727,1478 L1725,1478 L1725,1477 L1724,1477 L1724,1476 L1723,1475 L1723,1474 L1724,1474 L1730,1467 L1706,1443 L1703,1453 L1703,1454 L1701,1454 L1701,1453 L1700,1453 L1700,1452 L1699,1452 L1699,1450 L1702,1438 L1702,1437 L1705,1434 L1706,1434 L1735,1463 L1741,1457 L1742,1457 L1744,1459 L1744,1459 Z M1635,1568 L1636,1569 L1635,1569 L1635,1571 L1634,1571 L1634,1572 L1631,1572 L1628,1569 L1628,1576 L1627,1579 L1623,1583 L1620,1584 L1614,1584 L1611,1583 L1593,1565 L1593,1563 L1594,1563 L1594,1562 L1595,1562 L1595,1561 L1597,1561 L1612,1576 L1616,1578 L1620,1578 L1622,1576 L1624,1572 L1624,1566 L1608,1550 L1608,1548 L1609,1548 L1610,1547 L1610,1546 L1611,1546 L1612,1545 L1613,1545 L1635,1568 L1635,1568 Z M1608,1595 L1608,1598 L1607,1598 L1607,1599 L1606,1599 L1605,1600 L1604,1600 L1604,1599 L1591,1586 L1589,1585 L1587,1583 L1586,1583 L1584,1582 L1582,1582 L1581,1583 L1579,1584 L1577,1588 L1577,1595 L1593,1611 L1593,1612 L1591,1614 L1590,1614 L1590,1615 L1589,1615 L1566,1592 L1566,1590 L1567,1590 L1567,1589 L1568,1589 L1568,1588 L1570,1588 L1573,1591 L1573,1584 L1575,1582 L1576,1579 L1579,1578 L1581,1576 L1585,1576 L1588,1577 L1592,1579 L1608,1595 L1608,1595 Z M1763,1423 L1764,1424 L1764,1426 L1760,1430 L1767,1437 L1767,1438 L1766,1438 L1766,1439 L1764,1441 L1763,1441 L1756,1434 L1742,1447 L1742,1448 L1740,1448 L1740,1447 L1739,1447 L1739,1446 L1738,1446 L1738,1445 L1737,1444 L1737,1443 L1729,1412 L1729,1410 L1730,1410 L1730,1409 L1731,1409 L1731,1408 L1733,1406 L1734,1406 L1734,1405 L1736,1405 L1756,1426 L1760,1422 L1761,1422 L1762,1423 L1763,1423 L1763,1423 Z M1734,1413 L1742,1441 L1752,1430 L1734,1413 L1734,1413 Z M1550,1642 L1553,1648 L1553,1650 L1550,1656 L1549,1657 L1548,1657 L1547,1658 L1546,1658 L1546,1659 L1543,1659 L1541,1657 L1541,1656 L1540,1656 L1540,1655 L1542,1655 L1542,1654 L1544,1654 L1547,1651 L1547,1648 L1520,1621 L1520,1619 L1521,1619 L1521,1618 L1522,1617 L1523,1617 L1523,1616 L1524,1616 L1550,1642 L1550,1642 Z M1582,1623 L1579,1626 L1578,1626 L1575,1624 L1575,1629 L1574,1632 L1570,1636 L1566,1638 L1562,1638 L1560,1637 L1559,1636 L1557,1635 L1556,1633 L1554,1631 L1554,1626 L1555,1624 L1556,1621 L1564,1613 L1561,1610 L1559,1609 L1558,1609 L1557,1608 L1556,1609 L1554,1609 L1553,1610 L1551,1611 L1550,1613 L1549,1614 L1549,1616 L1547,1618 L1547,1620 L1546,1621 L1545,1621 L1545,1620 L1544,1620 L1543,1619 L1543,1616 L1544,1615 L1544,1613 L1545,1612 L1546,1610 L1547,1609 L1548,1607 L1551,1605 L1553,1604 L1556,1603 L1560,1603 L1564,1605 L1582,1623 L1582,1623 Z M1567,1616 L1563,1620 L1562,1622 L1561,1623 L1560,1625 L1559,1626 L1559,1628 L1560,1630 L1561,1631 L1563,1632 L1565,1632 L1569,1630 L1572,1624 L1572,1621 L1567,1616 L1567,1616 Z M1660,1543 L1660,1546 L1659,1546 L1659,1547 L1656,1547 L1654,1545 L1654,1548 L1653,1551 L1652,1553 L1647,1558 L1645,1559 L1639,1559 L1634,1554 L1633,1552 L1633,1548 L1634,1545 L1635,1543 L1639,1537 L1643,1534 L1640,1531 L1638,1530 L1633,1530 L1632,1531 L1630,1532 L1629,1534 L1628,1535 L1627,1537 L1627,1538 L1626,1540 L1626,1542 L1623,1542 L1623,1541 L1622,1541 L1622,1537 L1623,1536 L1623,1534 L1624,1533 L1625,1531 L1627,1529 L1630,1527 L1632,1525 L1634,1524 L1639,1524 L1641,1525 L1643,1527 L1645,1528 L1660,1543 L1660,1543 Z M1646,1537 L1639,1544 L1639,1546 L1638,1547 L1638,1550 L1640,1552 L1642,1553 L1646,1553 L1649,1550 L1650,1548 L1650,1542 L1646,1537 L1646,1537 Z M1661,1503 L1661,1504 L1660,1505 L1659,1505 L1658,1506 L1657,1506 L1657,1507 L1656,1508 L1656,1515 L1657,1517 L1672,1532 L1672,1533 L1669,1536 L1667,1536 L1645,1513 L1644,1513 L1645,1512 L1645,1511 L1646,1511 L1648,1509 L1652,1513 L1652,1511 L1651,1509 L1651,1508 L1652,1506 L1652,1504 L1655,1501 L1656,1501 L1656,1500 L1658,1500 L1661,1503 L1661,1503 Z M1707,1472 L1708,1473 L1708,1475 L1697,1486 L1696,1486 L1693,1483 L1705,1471 L1706,1471 L1706,1472 L1707,1472 L1707,1472 Z" id="Shape" fill="#000000" sketch:type="MSShapeGroup"></path>
                    <path d="M1895,1458 L1895,1459 L1896,1460 L1896,1461 L1895,1461 L1878,1478 L1876,1478 L1876,1477 L1875,1476 L1875,1475 L1882,1468 L1857,1443 L1854,1453 L1854,1454 L1852,1454 L1852,1453 L1851,1453 L1851,1452 L1850,1452 L1850,1451 L1853,1438 L1856,1435 L1857,1435 L1857,1434 L1857,1435 L1886,1463 L1892,1457 L1894,1457 L1894,1458 L1895,1458 L1895,1458 Z M1848,1508 L1854,1519 L1854,1521 L1852,1523 L1852,1524 L1849,1524 L1849,1523 L1844,1512 L1843,1512 L1813,1499 L1812,1498 L1812,1496 L1813,1496 L1813,1495 L1814,1495 L1814,1494 L1815,1494 L1815,1493 L1816,1493 L1816,1494 L1817,1494 L1841,1505 L1829,1481 L1829,1479 L1830,1479 L1833,1476 L1834,1477 L1848,1508 L1848,1508 Z M1732,1600 L1735,1603 L1737,1606 L1739,1612 L1739,1615 L1738,1617 L1737,1620 L1735,1623 L1734,1624 L1733,1624 L1732,1625 L1730,1625 L1729,1626 L1724,1626 L1726,1629 L1727,1629 L1727,1630 L1726,1630 L1726,1631 L1725,1632 L1724,1632 L1724,1633 L1723,1633 L1689,1599 L1689,1597 L1690,1597 L1690,1596 L1691,1596 L1691,1595 L1692,1595 L1692,1594 L1693,1594 L1693,1595 L1707,1608 L1707,1603 L1708,1602 L1708,1601 L1709,1599 L1713,1595 L1719,1593 L1721,1594 L1727,1596 L1729,1598 L1732,1600 L1732,1600 Z M1728,1605 L1726,1604 L1723,1601 L1719,1599 L1717,1599 L1713,1601 L1713,1602 L1712,1603 L1712,1605 L1711,1606 L1711,1613 L1720,1622 L1727,1622 L1729,1621 L1732,1618 L1733,1616 L1733,1612 L1731,1608 L1728,1605 L1728,1605 Z M1662,1636 L1662,1637 L1661,1637 L1649,1649 L1661,1660 L1672,1649 L1674,1649 L1674,1650 L1675,1650 L1675,1651 L1676,1651 L1676,1652 L1664,1664 L1678,1677 L1678,1679 L1677,1679 L1677,1680 L1676,1680 L1676,1681 L1675,1681 L1675,1682 L1673,1682 L1643,1652 L1643,1651 L1642,1650 L1643,1649 L1643,1648 L1658,1633 L1659,1633 L1662,1636 L1662,1636 Z M1787,1569 L1787,1570 L1786,1570 L1786,1571 L1785,1572 L1784,1572 L1784,1573 L1783,1573 L1783,1572 L1780,1569 L1780,1573 L1778,1579 L1774,1583 L1770,1585 L1767,1585 L1763,1583 L1761,1581 L1758,1579 L1744,1565 L1744,1564 L1745,1564 L1745,1563 L1746,1563 L1746,1562 L1747,1562 L1747,1561 L1749,1561 L1765,1577 L1767,1578 L1768,1579 L1770,1579 L1771,1578 L1773,1578 L1774,1577 L1775,1575 L1776,1572 L1776,1566 L1760,1550 L1759,1550 L1759,1549 L1760,1549 L1760,1548 L1761,1548 L1761,1547 L1762,1547 L1762,1546 L1764,1546 L1787,1569 L1787,1569 Z M1916,1424 L1916,1426 L1912,1429 L1919,1436 L1919,1438 L1918,1438 L1918,1439 L1917,1439 L1917,1440 L1916,1440 L1916,1441 L1915,1441 L1908,1434 L1894,1447 L1894,1448 L1893,1448 L1890,1445 L1890,1444 L1889,1444 L1889,1443 L1881,1412 L1881,1410 L1882,1410 L1882,1409 L1883,1408 L1883,1407 L1884,1407 L1885,1406 L1886,1406 L1886,1405 L1888,1405 L1908,1426 L1912,1422 L1914,1422 L1916,1424 L1916,1424 Z M1886,1412 L1894,1441 L1904,1430 L1886,1412 L1886,1412 Z M1812,1543 L1812,1545 L1810,1547 L1808,1547 L1806,1545 L1806,1548 L1805,1550 L1804,1553 L1799,1558 L1797,1559 L1793,1559 L1791,1558 L1790,1557 L1788,1556 L1786,1554 L1785,1552 L1785,1547 L1786,1545 L1787,1542 L1789,1540 L1791,1537 L1795,1534 L1792,1531 L1790,1530 L1789,1530 L1788,1529 L1787,1530 L1785,1530 L1784,1531 L1782,1532 L1781,1534 L1780,1535 L1779,1537 L1779,1538 L1778,1539 L1778,1541 L1777,1542 L1776,1542 L1775,1541 L1774,1541 L1774,1537 L1775,1536 L1775,1534 L1776,1533 L1777,1531 L1778,1530 L1779,1528 L1782,1526 L1786,1524 L1791,1524 L1795,1526 L1812,1543 L1812,1543 Z M1798,1537 L1791,1544 L1791,1546 L1790,1547 L1790,1549 L1791,1551 L1792,1552 L1794,1553 L1796,1553 L1800,1551 L1802,1547 L1802,1542 L1798,1537 L1798,1537 Z M1705,1628 L1705,1630 L1704,1630 L1689,1645 L1691,1647 L1695,1649 L1701,1649 L1703,1648 L1706,1645 L1707,1643 L1708,1642 L1709,1640 L1710,1639 L1710,1637 L1711,1637 L1711,1636 L1712,1637 L1713,1637 L1713,1638 L1714,1639 L1714,1641 L1713,1642 L1713,1643 L1712,1645 L1711,1646 L1710,1648 L1708,1650 L1702,1654 L1699,1655 L1696,1655 L1690,1653 L1684,1649 L1680,1643 L1679,1640 L1678,1636 L1678,1633 L1682,1625 L1688,1621 L1696,1621 L1698,1622 L1701,1624 L1705,1628 L1705,1628 Z M1698,1630 L1695,1627 L1692,1626 L1689,1627 L1685,1629 L1684,1631 L1683,1632 L1683,1637 L1685,1641 L1686,1642 L1698,1630 L1698,1630 Z M1812,1501 L1812,1502 L1813,1503 L1813,1504 L1812,1504 L1812,1505 L1810,1505 L1810,1506 L1809,1506 L1809,1507 L1808,1508 L1808,1515 L1809,1517 L1824,1532 L1824,1533 L1823,1533 L1823,1534 L1822,1534 L1822,1535 L1821,1535 L1821,1536 L1819,1536 L1797,1513 L1796,1512 L1797,1512 L1797,1511 L1798,1510 L1799,1510 L1799,1509 L1801,1509 L1804,1513 L1804,1511 L1803,1509 L1803,1508 L1804,1506 L1804,1504 L1806,1502 L1806,1501 L1807,1501 L1808,1500 L1811,1500 L1811,1501 L1812,1501 L1812,1501 Z M1742,1571 L1742,1572 L1743,1572 L1743,1574 L1742,1574 L1738,1578 L1738,1582 L1739,1584 L1739,1586 L1754,1601 L1754,1603 L1751,1606 L1750,1606 L1750,1605 L1727,1583 L1727,1581 L1728,1581 L1728,1580 L1729,1580 L1729,1579 L1731,1579 L1734,1582 L1734,1574 L1736,1572 L1736,1571 L1737,1571 L1738,1570 L1739,1570 L1739,1569 L1740,1569 L1740,1570 L1741,1570 L1741,1571 L1742,1571 L1742,1571 Z M1860,1473 L1860,1475 L1849,1485 L1849,1486 L1848,1486 L1848,1485 L1847,1484 L1846,1484 L1845,1483 L1845,1482 L1846,1482 L1856,1471 L1858,1471 L1860,1473 L1860,1473 Z" id="Shape" fill="#000000" sketch:type="MSShapeGroup"></path>
                    <path d="M1913,1594 L1913,1596 L1912,1596 L1912,1597 L1911,1597 L1911,1598 L1910,1598 L1910,1599 L1908,1599 L1880,1570 L1897,1610 L1897,1612 L1896,1612 L1896,1613 L1895,1613 L1895,1614 L1894,1614 L1894,1615 L1893,1615 L1853,1597 L1882,1626 L1882,1627 L1881,1627 L1881,1628 L1880,1629 L1879,1629 L1879,1630 L1877,1630 L1846,1599 L1846,1597 L1850,1593 L1851,1593 L1851,1592 L1852,1592 L1853,1591 L1854,1591 L1854,1592 L1856,1592 L1889,1607 L1889,1606 L1875,1573 L1875,1571 L1874,1571 L1874,1570 L1875,1569 L1875,1568 L1879,1564 L1880,1564 L1880,1563 L1881,1563 L1881,1564 L1883,1564 L1913,1594 L1913,1594 Z M2005,1502 L2005,1504 L2004,1504 L2004,1505 L2003,1505 L2003,1506 L2002,1506 L2002,1507 L2000,1507 L1987,1493 L1984,1490 L1983,1490 L1981,1489 L1978,1489 L1977,1490 L1975,1491 L1973,1495 L1973,1502 L1989,1518 L1989,1520 L1988,1521 L1987,1521 L1987,1522 L1985,1522 L1951,1488 L1951,1487 L1954,1484 L1956,1484 L1969,1498 L1969,1494 L1970,1491 L1971,1489 L1975,1485 L1977,1484 L1980,1483 L1982,1483 L1986,1485 L1989,1487 L1991,1489 L2005,1502 L2005,1502 Z M2047,1458 L2047,1459 L2048,1459 L2048,1461 L2030,1478 L2029,1478 L2027,1476 L2027,1474 L2034,1467 L2009,1443 L2006,1453 L2006,1454 L2004,1454 L2004,1453 L2003,1453 L2003,1452 L2002,1451 L2002,1450 L2005,1438 L2005,1437 L2006,1437 L2006,1436 L2007,1436 L2009,1434 L2038,1463 L2044,1457 L2046,1457 L2046,1458 L2047,1458 L2047,1458 Z M2068,1424 L2068,1425 L2064,1429 L2071,1436 L2071,1438 L2069,1440 L2068,1440 L2067,1441 L2067,1440 L2060,1433 L2046,1447 L2044,1447 L2043,1446 L2043,1445 L2042,1445 L2042,1444 L2041,1443 L2033,1411 L2033,1410 L2036,1407 L2037,1407 L2037,1406 L2038,1405 L2040,1405 L2061,1426 L2064,1422 L2066,1422 L2068,1424 L2068,1424 Z M2038,1412 L2046,1440 L2056,1430 L2038,1412 L2038,1412 Z M1938,1569 L1938,1571 L1937,1571 L1937,1572 L1936,1573 L1934,1573 L1932,1571 L1932,1574 L1931,1576 L1930,1579 L1926,1583 L1922,1585 L1917,1585 L1915,1584 L1913,1582 L1910,1576 L1911,1573 L1912,1571 L1913,1568 L1915,1566 L1917,1563 L1920,1560 L1916,1556 L1911,1556 L1910,1557 L1908,1558 L1905,1561 L1905,1563 L1904,1564 L1904,1566 L1903,1567 L1903,1568 L1901,1568 L1899,1566 L1899,1564 L1900,1563 L1900,1562 L1901,1560 L1902,1559 L1902,1557 L1905,1554 L1907,1553 L1910,1551 L1912,1550 L1916,1550 L1918,1551 L1920,1553 L1922,1554 L1938,1569 L1938,1569 Z M1923,1563 L1920,1567 L1917,1570 L1916,1572 L1916,1575 L1917,1577 L1917,1578 L1919,1579 L1923,1579 L1927,1575 L1928,1573 L1928,1568 L1923,1563 L1923,1563 Z M1977,1523 L1977,1524 L1978,1525 L1978,1530 L1975,1533 L1974,1535 L1971,1538 L1968,1539 L1966,1540 L1963,1540 L1957,1538 L1951,1534 L1948,1530 L1946,1527 L1944,1521 L1946,1515 L1947,1513 L1949,1510 L1951,1508 L1953,1508 L1954,1507 L1955,1507 L1956,1506 L1959,1506 L1962,1509 L1962,1510 L1961,1511 L1957,1511 L1955,1512 L1954,1513 L1952,1514 L1950,1517 L1950,1521 L1952,1525 L1955,1529 L1959,1533 L1961,1534 L1967,1534 L1969,1533 L1971,1531 L1972,1529 L1973,1528 L1973,1526 L1974,1525 L1974,1522 L1975,1522 L1976,1523 L1977,1523 L1977,1523 Z M1939,1528 L1939,1530 L1938,1530 L1937,1531 L1936,1531 L1935,1532 L1935,1533 L1934,1533 L1934,1538 L1935,1540 L1935,1542 L1950,1557 L1950,1559 L1948,1561 L1947,1561 L1946,1562 L1946,1561 L1923,1539 L1923,1537 L1924,1537 L1924,1536 L1925,1536 L1925,1535 L1927,1535 L1930,1538 L1930,1530 L1931,1529 L1931,1528 L1932,1527 L1933,1527 L1935,1525 L1936,1525 L1939,1528 L1939,1528 Z M2010,1472 L2011,1473 L2011,1475 L2001,1486 L1999,1486 L1997,1484 L1997,1482 L2008,1472 L2008,1471 L2009,1471 L2009,1472 L2010,1472 L2010,1472 Z" id="Shape" fill="#000000" sketch:type="MSShapeGroup"></path>
                    <path d="M2090,1567 L2090,1568 L2091,1568 L2091,1570 L2090,1570 L2089,1571 L2089,1572 L2088,1572 L2088,1573 L2086,1573 L2075,1568 L2062,1581 L2067,1592 L2067,1593 L2065,1595 L2065,1596 L2062,1596 L2062,1595 L2042,1554 L2042,1552 L2043,1552 L2043,1551 L2044,1551 L2044,1550 L2045,1550 L2046,1549 L2046,1548 L2048,1548 L2090,1567 L2090,1567 Z M2049,1555 L2059,1577 L2071,1565 L2049,1555 L2049,1555 Z M2198,1458 L2199,1459 L2199,1461 L2182,1478 L2180,1478 L2179,1477 L2179,1476 L2178,1476 L2178,1475 L2185,1468 L2160,1443 L2158,1453 L2158,1454 L2156,1454 L2154,1452 L2154,1451 L2157,1438 L2157,1437 L2158,1437 L2158,1436 L2159,1436 L2159,1435 L2160,1435 L2160,1434 L2161,1435 L2190,1463 L2196,1457 L2197,1457 L2197,1458 L2198,1458 L2198,1458 Z M2107,1534 L2109,1537 L2111,1543 L2111,1548 L2107,1554 L2106,1555 L2105,1555 L2104,1556 L2103,1556 L2102,1557 L2097,1557 L2109,1569 L2108,1570 L2108,1571 L2107,1571 L2107,1572 L2106,1572 L2106,1573 L2104,1573 L2104,1572 L2073,1541 L2072,1541 L2072,1540 L2073,1540 L2073,1539 L2074,1538 L2074,1537 L2076,1537 L2079,1540 L2079,1536 L2080,1535 L2080,1533 L2081,1532 L2081,1530 L2083,1528 L2086,1526 L2088,1525 L2091,1524 L2094,1524 L2097,1526 L2099,1527 L2102,1529 L2107,1534 L2107,1534 Z M2101,1536 L2099,1535 L2097,1533 L2091,1530 L2089,1530 L2088,1531 L2086,1532 L2085,1533 L2085,1534 L2084,1536 L2084,1537 L2083,1538 L2083,1542 L2084,1544 L2093,1553 L2096,1553 L2099,1552 L2103,1550 L2104,1549 L2106,1545 L2103,1539 L2102,1538 L2101,1536 L2101,1536 Z M2218,1423 L2219,1424 L2219,1425 L2220,1425 L2216,1429 L2222,1436 L2223,1437 L2222,1438 L2222,1439 L2221,1439 L2221,1440 L2220,1440 L2220,1441 L2218,1441 L2211,1434 L2197,1448 L2196,1448 L2196,1447 L2195,1446 L2194,1446 L2194,1445 L2193,1445 L2193,1443 L2184,1412 L2184,1411 L2185,1411 L2185,1410 L2186,1409 L2186,1408 L2187,1407 L2188,1407 L2190,1405 L2191,1405 L2212,1426 L2216,1422 L2218,1422 L2218,1423 L2218,1423 Z M2190,1412 L2197,1441 L2208,1430 L2190,1412 L2190,1412 Z M2157,1502 L2157,1503 L2154,1506 L2153,1506 L2119,1472 L2119,1471 L2120,1470 L2120,1469 L2121,1469 L2122,1468 L2123,1468 L2157,1502 L2157,1502 Z M2115,1503 L2116,1503 L2116,1505 L2114,1505 L2114,1506 L2113,1506 L2112,1507 L2112,1508 L2111,1508 L2111,1515 L2112,1517 L2126,1532 L2127,1533 L2127,1534 L2126,1534 L2126,1535 L2125,1535 L2125,1536 L2124,1536 L2123,1537 L2100,1514 L2099,1514 L2099,1513 L2102,1510 L2103,1510 L2107,1513 L2106,1511 L2106,1506 L2107,1505 L2107,1504 L2108,1504 L2108,1503 L2109,1502 L2110,1502 L2110,1501 L2111,1501 L2112,1500 L2113,1500 L2113,1501 L2115,1503 L2115,1503 Z M2145,1514 L2145,1516 L2144,1516 L2144,1517 L2143,1517 L2143,1518 L2141,1518 L2141,1519 L2118,1496 L2118,1495 L2117,1495 L2118,1495 L2118,1494 L2119,1494 L2119,1493 L2120,1492 L2121,1492 L2121,1491 L2122,1491 L2145,1514 L2145,1514 Z M2162,1472 L2164,1474 L2152,1486 L2150,1484 L2149,1484 L2149,1482 L2160,1471 L2162,1471 L2162,1472 L2162,1472 Z M2115,1483 L2116,1485 L2116,1487 L2114,1489 L2112,1490 L2111,1490 L2109,1488 L2108,1486 L2109,1485 L2110,1483 L2111,1482 L2114,1482 L2115,1483 L2115,1483 Z" id="Shape" fill="#000000" sketch:type="MSShapeGroup"></path>
                    <path d="M2260,1551 L2260,1552 L2257,1555 L2255,1555 L2227,1527 L2244,1567 L2244,1568 L2242,1570 L2241,1570 L2241,1571 L2240,1571 L2200,1553 L2229,1582 L2229,1583 L2227,1585 L2227,1586 L2224,1586 L2193,1555 L2193,1554 L2194,1553 L2194,1552 L2197,1550 L2198,1549 L2198,1548 L2202,1548 L2203,1549 L2236,1563 L2222,1530 L2222,1525 L2223,1524 L2223,1523 L2226,1521 L2226,1520 L2229,1520 L2260,1551 L2260,1551 Z M2304,1508 L2309,1519 L2309,1521 L2307,1523 L2307,1524 L2304,1524 L2304,1523 L2299,1512 L2298,1512 L2268,1499 L2268,1498 L2267,1498 L2267,1496 L2268,1496 L2268,1495 L2269,1495 L2270,1494 L2270,1493 L2271,1493 L2272,1494 L2297,1505 L2285,1481 L2284,1480 L2288,1476 L2289,1476 L2289,1477 L2304,1508 L2304,1508 Z M2350,1458 L2351,1459 L2351,1461 L2334,1478 L2332,1478 L2330,1476 L2330,1475 L2337,1468 L2312,1443 L2310,1453 L2310,1454 L2308,1454 L2306,1452 L2306,1451 L2308,1438 L2309,1438 L2309,1437 L2310,1437 L2310,1436 L2311,1436 L2311,1435 L2312,1435 L2312,1434 L2312,1435 L2313,1435 L2341,1463 L2347,1457 L2349,1457 L2349,1458 L2350,1458 L2350,1458 Z M2370,1423 L2371,1424 L2371,1426 L2367,1429 L2374,1436 L2374,1439 L2373,1439 L2371,1441 L2370,1441 L2363,1434 L2350,1447 L2349,1447 L2349,1448 L2348,1448 L2348,1447 L2347,1447 L2347,1446 L2346,1446 L2346,1445 L2345,1445 L2345,1444 L2344,1443 L2336,1412 L2336,1411 L2337,1410 L2337,1409 L2339,1407 L2340,1407 L2340,1406 L2341,1406 L2341,1405 L2343,1405 L2364,1426 L2367,1422 L2370,1422 L2370,1423 L2370,1423 Z M2341,1412 L2349,1441 L2359,1430 L2341,1412 L2341,1412 Z M2285,1526 L2285,1527 L2282,1530 L2279,1527 L2279,1530 L2277,1536 L2275,1538 L2271,1540 L2270,1541 L2268,1542 L2266,1542 L2260,1539 L2259,1537 L2258,1534 L2257,1532 L2259,1528 L2260,1525 L2262,1522 L2267,1517 L2262,1512 L2259,1512 L2257,1514 L2255,1515 L2254,1517 L2253,1518 L2252,1520 L2251,1521 L2251,1522 L2250,1523 L2250,1525 L2249,1525 L2249,1524 L2247,1524 L2247,1522 L2246,1522 L2246,1520 L2247,1519 L2247,1518 L2249,1516 L2250,1514 L2251,1513 L2252,1511 L2255,1509 L2257,1507 L2259,1506 L2263,1506 L2265,1507 L2267,1509 L2269,1510 L2285,1526 L2285,1526 Z M2270,1520 L2264,1526 L2263,1528 L2263,1532 L2264,1533 L2264,1534 L2268,1536 L2272,1534 L2274,1532 L2275,1530 L2275,1524 L2270,1520 L2270,1520 Z M2315,1473 L2315,1475 L2304,1485 L2304,1486 L2303,1486 L2303,1485 L2302,1484 L2301,1484 L2301,1482 L2312,1471 L2313,1471 L2315,1473 L2315,1473 Z" id="Shape" fill="#000000" sketch:type="MSShapeGroup"></path>
                    <path d="M2503,1459 L2503,1461 L2486,1478 L2484,1478 L2484,1477 L2483,1477 L2482,1476 L2482,1474 L2489,1467 L2464,1443 L2462,1453 L2461,1454 L2460,1454 L2458,1452 L2458,1450 L2460,1438 L2461,1438 L2461,1436 L2462,1436 L2464,1434 L2465,1434 L2493,1463 L2499,1457 L2501,1457 L2503,1459 L2503,1459 Z M2408,1555 L2408,1556 L2407,1556 L2407,1557 L2406,1557 L2406,1558 L2405,1558 L2405,1559 L2404,1559 L2404,1558 L2401,1555 L2401,1559 L2399,1565 L2395,1569 L2391,1571 L2388,1571 L2384,1569 L2382,1567 L2379,1565 L2365,1552 L2365,1550 L2366,1550 L2366,1549 L2367,1549 L2367,1548 L2368,1548 L2368,1547 L2369,1547 L2383,1561 L2385,1562 L2386,1563 L2388,1564 L2389,1565 L2391,1565 L2392,1564 L2393,1564 L2394,1563 L2396,1559 L2397,1556 L2396,1552 L2381,1536 L2380,1536 L2380,1535 L2381,1535 L2381,1534 L2382,1534 L2382,1533 L2383,1533 L2383,1532 L2385,1532 L2408,1555 L2408,1555 Z M2435,1527 L2435,1529 L2434,1529 L2434,1530 L2433,1530 L2433,1531 L2432,1531 L2432,1532 L2431,1532 L2416,1517 L2414,1516 L2413,1515 L2411,1514 L2410,1514 L2408,1515 L2407,1515 L2404,1518 L2404,1520 L2403,1523 L2403,1527 L2419,1543 L2420,1543 L2420,1544 L2419,1544 L2419,1545 L2417,1547 L2415,1547 L2392,1524 L2392,1523 L2393,1523 L2393,1522 L2394,1522 L2394,1521 L2395,1521 L2395,1520 L2396,1520 L2396,1521 L2399,1524 L2399,1520 L2401,1514 L2405,1510 L2407,1509 L2410,1508 L2412,1508 L2416,1510 L2419,1512 L2421,1514 L2435,1527 L2435,1527 Z M2522,1423 L2522,1424 L2523,1425 L2523,1426 L2522,1426 L2519,1430 L2526,1437 L2526,1438 L2525,1438 L2525,1439 L2523,1441 L2521,1441 L2514,1434 L2501,1447 L2501,1448 L2499,1448 L2499,1447 L2498,1447 L2498,1446 L2497,1446 L2497,1445 L2496,1445 L2496,1443 L2488,1412 L2488,1410 L2489,1410 L2489,1409 L2490,1409 L2490,1408 L2492,1406 L2493,1406 L2493,1405 L2494,1405 L2515,1426 L2519,1422 L2520,1422 L2521,1423 L2522,1423 L2522,1423 Z M2493,1413 L2500,1441 L2511,1430 L2493,1413 L2493,1413 Z M2374,1577 L2377,1583 L2377,1585 L2375,1589 L2373,1591 L2373,1592 L2372,1592 L2371,1593 L2370,1593 L2370,1594 L2367,1594 L2364,1591 L2364,1590 L2365,1590 L2366,1589 L2368,1589 L2369,1588 L2369,1587 L2370,1587 L2371,1586 L2371,1583 L2344,1556 L2344,1554 L2347,1551 L2348,1551 L2374,1577 L2374,1577 Z M2449,1488 L2450,1489 L2450,1492 L2435,1507 L2438,1510 L2440,1511 L2444,1511 L2448,1509 L2454,1503 L2454,1501 L2455,1500 L2455,1499 L2456,1499 L2456,1498 L2458,1498 L2458,1499 L2459,1500 L2459,1501 L2460,1501 L2460,1502 L2459,1502 L2459,1504 L2458,1505 L2457,1507 L2453,1511 L2450,1513 L2448,1515 L2442,1517 L2436,1515 L2433,1513 L2427,1507 L2425,1504 L2423,1498 L2423,1495 L2424,1492 L2426,1489 L2428,1487 L2431,1485 L2433,1483 L2436,1482 L2439,1482 L2441,1483 L2444,1484 L2447,1486 L2449,1487 L2449,1488 L2449,1488 Z M2444,1491 L2441,1489 L2437,1487 L2434,1488 L2431,1490 L2430,1492 L2429,1493 L2428,1495 L2428,1497 L2429,1499 L2429,1500 L2431,1502 L2432,1504 L2444,1491 L2444,1491 Z M2466,1472 L2467,1473 L2467,1475 L2466,1475 L2456,1486 L2454,1486 L2453,1485 L2453,1484 L2452,1483 L2452,1482 L2463,1472 L2463,1471 L2464,1471 L2464,1472 L2466,1472 L2466,1472 Z" id="Shape" fill="#000000" sketch:type="MSShapeGroup"></path>
                    <path d="M2607,1508 L2612,1519 L2613,1520 L2612,1521 L2612,1522 L2610,1524 L2608,1524 L2608,1523 L2603,1512 L2603,1513 L2602,1513 L2601,1512 L2572,1499 L2571,1499 L2570,1498 L2570,1497 L2571,1497 L2571,1496 L2572,1495 L2573,1495 L2573,1494 L2574,1494 L2574,1493 L2575,1494 L2600,1505 L2588,1481 L2588,1479 L2589,1479 L2589,1478 L2591,1476 L2592,1476 L2593,1477 L2607,1508 L2607,1508 Z M2654,1458 L2655,1458 L2655,1460 L2638,1477 L2638,1478 L2637,1478 L2636,1477 L2635,1477 L2635,1476 L2634,1476 L2634,1474 L2641,1467 L2616,1442 L2614,1452 L2614,1453 L2613,1454 L2612,1454 L2612,1453 L2611,1453 L2611,1452 L2610,1452 L2610,1450 L2612,1438 L2613,1437 L2613,1436 L2614,1436 L2616,1434 L2617,1434 L2645,1463 L2651,1457 L2653,1457 L2654,1458 L2654,1458 Z M2577,1537 L2577,1539 L2576,1539 L2576,1540 L2575,1540 L2575,1541 L2573,1541 L2570,1538 L2570,1542 L2568,1548 L2567,1550 L2564,1552 L2562,1553 L2557,1553 L2551,1550 L2548,1548 L2535,1534 L2534,1534 L2534,1533 L2535,1533 L2535,1532 L2536,1532 L2536,1531 L2537,1531 L2537,1530 L2539,1530 L2555,1546 L2557,1547 L2561,1547 L2563,1546 L2564,1545 L2566,1541 L2566,1534 L2550,1519 L2550,1517 L2553,1514 L2554,1514 L2577,1537 L2577,1537 Z M2674,1423 L2674,1424 L2675,1425 L2675,1426 L2674,1426 L2671,1430 L2678,1436 L2678,1438 L2677,1438 L2677,1439 L2676,1439 L2676,1440 L2675,1440 L2675,1441 L2673,1441 L2666,1434 L2653,1447 L2653,1448 L2652,1448 L2650,1446 L2649,1446 L2649,1445 L2648,1445 L2648,1443 L2640,1412 L2640,1410 L2641,1409 L2642,1409 L2642,1408 L2645,1405 L2646,1405 L2667,1426 L2671,1422 L2672,1422 L2673,1423 L2674,1423 L2674,1423 Z M2645,1412 L2652,1441 L2663,1430 L2645,1412 L2645,1412 Z M2589,1525 L2589,1527 L2588,1527 L2588,1528 L2587,1528 L2587,1529 L2586,1529 L2586,1530 L2585,1530 L2585,1529 L2551,1496 L2551,1494 L2552,1494 L2552,1493 L2553,1492 L2554,1492 L2554,1491 L2555,1491 L2555,1492 L2589,1525 L2589,1525 Z M2545,1561 L2546,1563 L2546,1569 L2545,1571 L2540,1576 L2536,1576 L2534,1574 L2534,1572 L2536,1572 L2537,1571 L2538,1571 L2540,1569 L2540,1565 L2538,1563 L2537,1561 L2513,1538 L2513,1537 L2517,1533 L2518,1533 L2518,1534 L2545,1561 L2545,1561 Z M2618,1472 L2619,1473 L2619,1475 L2618,1475 L2608,1485 L2608,1486 L2606,1486 L2605,1485 L2605,1484 L2604,1483 L2604,1482 L2615,1471 L2616,1471 L2617,1472 L2618,1472 L2618,1472 Z" id="Shape" fill="#000000" sketch:type="MSShapeGroup"></path>
                    <path d="M2649,1615 L2650,1615 L2651,1616 L2651,1617 L2650,1617 L2650,1618 L2649,1618 L2649,1619 L2648,1619 L2647,1620 L2646,1620 L2635,1615 L2622,1628 L2627,1639 L2627,1641 L2626,1641 L2626,1642 L2625,1642 L2625,1643 L2624,1643 L2624,1644 L2623,1644 L2622,1643 L2622,1642 L2602,1601 L2602,1599 L2603,1599 L2604,1598 L2604,1597 L2605,1597 L2607,1595 L2608,1595 L2649,1615 L2649,1615 Z M2609,1602 L2608,1602 L2619,1624 L2630,1612 L2609,1602 L2609,1602 Z M2679,1543 L2680,1544 L2680,1546 L2677,1549 L2679,1549 L2680,1550 L2682,1551 L2683,1551 L2685,1554 L2686,1556 L2686,1562 L2684,1566 L2678,1572 L2676,1572 L2676,1573 L2677,1574 L2677,1575 L2678,1575 L2679,1576 L2680,1576 L2682,1575 L2683,1574 L2689,1569 L2691,1567 L2695,1565 L2700,1565 L2702,1566 L2703,1567 L2706,1573 L2706,1575 L2705,1578 L2704,1580 L2700,1586 L2694,1590 L2690,1592 L2686,1592 L2685,1591 L2683,1590 L2683,1589 L2682,1588 L2682,1587 L2681,1586 L2681,1581 L2676,1581 L2675,1580 L2673,1576 L2672,1575 L2672,1573 L2671,1572 L2669,1572 L2667,1571 L2665,1569 L2662,1563 L2662,1559 L2663,1556 L2665,1554 L2666,1552 L2668,1550 L2669,1550 L2677,1542 L2679,1542 L2679,1543 L2679,1543 Z M2699,1571 L2697,1570 L2695,1570 L2693,1571 L2691,1573 L2685,1578 L2685,1583 L2687,1585 L2689,1586 L2691,1586 L2694,1585 L2698,1581 L2699,1579 L2700,1578 L2701,1576 L2701,1575 L2700,1573 L2700,1572 L2699,1571 L2699,1571 Z M2806,1458 L2806,1459 L2807,1459 L2807,1460 L2789,1478 L2788,1478 L2788,1477 L2787,1477 L2787,1476 L2786,1476 L2786,1474 L2793,1467 L2768,1442 L2765,1452 L2765,1454 L2764,1454 L2762,1452 L2762,1451 L2761,1451 L2761,1450 L2764,1438 L2764,1437 L2765,1437 L2765,1436 L2766,1435 L2767,1435 L2767,1434 L2769,1434 L2797,1463 L2803,1457 L2805,1457 L2806,1458 L2806,1458 Z M2675,1592 L2675,1593 L2674,1593 L2674,1594 L2673,1594 L2673,1595 L2671,1595 L2668,1592 L2668,1596 L2666,1602 L2662,1606 L2660,1607 L2653,1607 L2651,1606 L2649,1604 L2646,1602 L2632,1588 L2632,1587 L2633,1586 L2633,1585 L2634,1585 L2635,1584 L2636,1584 L2650,1597 L2653,1600 L2655,1601 L2659,1601 L2661,1599 L2663,1595 L2664,1592 L2663,1589 L2648,1573 L2647,1573 L2647,1572 L2651,1568 L2652,1568 L2652,1569 L2675,1592 L2675,1592 Z M2826,1424 L2826,1426 L2822,1430 L2829,1436 L2830,1437 L2829,1437 L2829,1439 L2828,1439 L2826,1441 L2825,1441 L2818,1434 L2805,1447 L2805,1448 L2803,1448 L2803,1447 L2802,1447 L2802,1446 L2801,1446 L2801,1445 L2800,1445 L2800,1443 L2791,1412 L2791,1411 L2792,1411 L2792,1410 L2795,1407 L2795,1406 L2796,1406 L2797,1405 L2798,1405 L2819,1426 L2823,1422 L2824,1422 L2826,1424 L2826,1424 Z M2797,1412 L2804,1441 L2815,1430 L2797,1412 L2797,1412 Z M2726,1540 L2726,1542 L2725,1542 L2725,1543 L2724,1543 L2724,1544 L2723,1544 L2719,1540 L2719,1547 L2718,1550 L2714,1554 L2711,1555 L2709,1556 L2707,1556 L2705,1555 L2702,1554 L2698,1550 L2684,1537 L2684,1535 L2687,1532 L2688,1532 L2701,1546 L2707,1549 L2708,1550 L2709,1550 L2710,1549 L2712,1549 L2713,1548 L2715,1544 L2715,1537 L2699,1521 L2699,1520 L2702,1517 L2703,1517 L2726,1540 L2726,1540 Z M2764,1498 L2765,1499 L2765,1502 L2764,1503 L2764,1504 L2763,1505 L2762,1505 L2761,1507 L2757,1509 L2755,1509 L2754,1508 L2750,1506 L2735,1491 L2731,1495 L2731,1494 L2730,1494 L2729,1493 L2728,1493 L2728,1491 L2731,1488 L2726,1482 L2726,1480 L2727,1480 L2727,1479 L2728,1479 L2728,1478 L2730,1478 L2736,1483 L2741,1478 L2742,1478 L2742,1477 L2743,1478 L2744,1478 L2744,1479 L2745,1480 L2745,1481 L2739,1487 L2752,1500 L2756,1502 L2758,1502 L2760,1501 L2760,1500 L2761,1500 L2761,1498 L2762,1498 L2762,1497 L2763,1498 L2764,1498 L2764,1498 Z M2742,1512 L2743,1514 L2744,1515 L2745,1517 L2745,1519 L2744,1522 L2742,1526 L2737,1531 L2735,1531 L2734,1532 L2733,1532 L2733,1533 L2731,1533 L2731,1532 L2730,1532 L2728,1530 L2728,1529 L2729,1529 L2729,1528 L2731,1528 L2733,1527 L2734,1526 L2736,1525 L2739,1522 L2739,1520 L2740,1519 L2739,1518 L2739,1517 L2737,1515 L2733,1515 L2732,1516 L2731,1516 L2730,1517 L2728,1517 L2727,1518 L2725,1518 L2724,1519 L2720,1519 L2718,1518 L2717,1517 L2715,1516 L2714,1515 L2713,1513 L2713,1507 L2714,1505 L2716,1503 L2717,1501 L2719,1499 L2720,1499 L2721,1498 L2722,1498 L2723,1497 L2725,1497 L2725,1498 L2726,1498 L2727,1499 L2727,1501 L2726,1501 L2725,1502 L2724,1502 L2722,1503 L2721,1504 L2720,1504 L2719,1506 L2718,1507 L2718,1510 L2719,1511 L2719,1512 L2720,1513 L2726,1513 L2727,1512 L2728,1512 L2729,1511 L2731,1510 L2733,1510 L2735,1509 L2738,1509 L2739,1510 L2741,1511 L2742,1512 L2742,1512 Z M2679,1555 L2677,1554 L2674,1553 L2672,1554 L2669,1555 L2668,1557 L2667,1558 L2667,1562 L2669,1564 L2669,1565 L2672,1567 L2674,1568 L2677,1567 L2681,1563 L2681,1559 L2680,1558 L2680,1557 L2679,1555 L2679,1555 Z M2770,1473 L2770,1475 L2759,1486 L2758,1486 L2756,1484 L2756,1482 L2767,1471 L2768,1471 L2770,1473 L2770,1473 Z" id="Shape" fill="#000000" sketch:type="MSShapeGroup"></path>
                    <g id="Group" transform="translate(37.500000, 702.500000) rotate(-90.000000) translate(-37.500000, -702.500000) translate(-37.000000, 666.000000)" font-size="59.8016" font-family="Calibri" fill="#000000" sketch:type="MSTextLayer" font-weight="bold">
                        <text id="Count">
                            <tspan x="0" y="57">Count</tspan>
                        </text>
                    </g>
                    <text id="Month" fill="#000000" sketch:type="MSTextLayer" font-family="Calibri" font-size="59.8016" font-weight="bold">
                        <tspan x="1501" y="1836">Month</tspan>
                    </text>
                    <path d="M3013,744 L3198,744 L3201,745 L3204,747 L3205,749 L3206,752 L3204,758 L3198,760 L3013,760 L3010,759 L3008,758 L3006,755 L3005,752 L3006,749 L3010,745 L3013,744 L3013,744 Z" id="Shape" fill="#C00000" sketch:type="MSShapeGroup"></path>
                    <text id="Total" fill="#000000" sketch:type="MSTextLayer" font-family="Calibri" font-size="59.8016" font-weight="normal">
                        <tspan x="3219" y="774">Total</tspan>
                    </text>
                    <text id="Posts" fill="#000000" sketch:type="MSTextLayer" font-family="Calibri" font-size="59.8016" font-weight="normal">
                        <tspan x="3386" y="774">Posts</tspan>
                    </text>
                    <text id="(Helpdesk)" fill="#000000" sketch:type="MSTextLayer" font-family="Calibri" font-size="59.8016" font-weight="normal">
                        <tspan x="3560" y="774">(Helpdesk)</tspan>
                    </text>
                    <path d="M3013,876 L3045,876 L3048,877 L3051,879 L3052,881 L3053,884 L3051,890 L3045,892 L3013,892 L3010,891 L3008,890 L3006,887 L3005,884 L3006,881 L3010,877 L3013,876 L3013,876 Z M3077,876 L3109,876 L3112,877 L3115,879 L3116,881 L3117,884 L3115,890 L3109,892 L3077,892 L3074,891 L3072,890 L3070,887 L3069,884 L3070,881 L3074,877 L3077,876 L3077,876 Z M3141,876 L3173,876 L3176,877 L3179,879 L3180,881 L3181,884 L3179,890 L3173,892 L3141,892 L3138,891 L3136,890 L3134,887 L3133,884 L3134,881 L3138,877 L3141,876 L3141,876 Z" id="Shape" fill="#C00000" sketch:type="MSShapeGroup"></path>
                    <text id="Total" fill="#000000" sketch:type="MSTextLayer" font-family="Calibri" font-size="59.8016" font-weight="normal">
                        <tspan x="3219" y="906">Total</tspan>
                    </text>
                    <text id="Topics" fill="#000000" sketch:type="MSTextLayer" font-family="Calibri" font-size="59.8016" font-weight="normal">
                        <tspan x="3386" y="906">Topics</tspan>
                    </text>
                    <text id="(Helpdesk)" fill="#000000" sketch:type="MSTextLayer" font-family="Calibri" font-size="59.8016" font-weight="normal">
                        <tspan x="3591" y="906">(Helpdesk)</tspan>
                    </text>
                    <path d="M3013,1009 L3198,1009 L3201,1010 L3204,1012 L3205,1014 L3206,1017 L3204,1023 L3198,1025 L3013,1025 L3010,1024 L3008,1023 L3006,1020 L3005,1017 L3006,1014 L3010,1010 L3013,1009 L3013,1009 Z" id="Shape" fill="#376092" sketch:type="MSShapeGroup"></path>
                    <text id="Total" fill="#000000" sketch:type="MSTextLayer" font-family="Calibri" font-size="59.8016" font-weight="normal">
                        <tspan x="3219" y="1038">Total</tspan>
                    </text>
                    <text id="Posts" fill="#000000" sketch:type="MSTextLayer" font-family="Calibri" font-size="59.8016" font-weight="normal">
                        <tspan x="3386" y="1038">Posts</tspan>
                    </text>
                    <text id="(Discuss)" fill="#000000" sketch:type="MSTextLayer" font-family="Calibri" font-size="59.8016" font-weight="normal">
                        <tspan x="3560" y="1038">(Discuss)</tspan>
                    </text>
                    <path d="M3013,1141 L3045,1141 L3048,1142 L3051,1144 L3052,1146 L3053,1149 L3051,1155 L3045,1157 L3013,1157 L3010,1156 L3008,1155 L3006,1152 L3005,1149 L3006,1146 L3010,1142 L3013,1141 L3013,1141 Z M3077,1141 L3109,1141 L3112,1142 L3115,1144 L3116,1146 L3117,1149 L3115,1155 L3109,1157 L3077,1157 L3074,1156 L3072,1155 L3070,1152 L3069,1149 L3070,1146 L3074,1142 L3077,1141 L3077,1141 Z M3141,1141 L3173,1141 L3176,1142 L3179,1144 L3180,1146 L3181,1149 L3179,1155 L3173,1157 L3141,1157 L3138,1156 L3136,1155 L3134,1152 L3133,1149 L3134,1146 L3138,1142 L3141,1141 L3141,1141 Z" id="Shape" fill="#376092" sketch:type="MSShapeGroup"></path>
                    <text id="Total" fill="#000000" sketch:type="MSTextLayer" font-family="Calibri" font-size="59.8016" font-weight="normal">
                        <tspan x="3219" y="1170">Total</tspan>
                    </text>
                    <text id="Topics" fill="#000000" sketch:type="MSTextLayer" font-family="Calibri" font-size="59.8016" font-weight="normal">
                        <tspan x="3386" y="1170">Topics</tspan>
                    </text>
                    <text id="(Discuss)" fill="#000000" sketch:type="MSTextLayer" font-family="Calibri" font-size="59.8016" font-weight="normal">
                        <tspan x="3591" y="1170">(Discuss)</tspan>
                    </text>
                </g>
            </g>
        </g>
    </g>
</svg>