<?xml version="1.0" encoding="UTF-8" standalone="no"?>
<svg width="3818px" height="1819px" viewBox="0 0 3818 1819" version="1.1" xmlns="http://www.w3.org/2000/svg" xmlns:xlink="http://www.w3.org/1999/xlink" xmlns:sketch="http://www.bohemiancoding.com/sketch/ns">
    <!-- Generator: Sketch 3.2.2 (9983) - http://www.bohemiancoding.com/sketch -->
    <title>Google Groups Posts Topics Apr 2013 to Feb 2015 by Week.001 (2)</title>
    <desc>Created with Sketch.</desc>
    <defs></defs>
    <g id="Page-1" stroke="none" stroke-width="1" fill="none" fill-rule="evenodd" sketch:type="MSPage">
        <g id="Google-Groups-Posts-Topics-Apr-2013-to-Feb-2015-by-Week.001-(2)" sketch:type="MSLayerGroup" transform="translate(-19.000000, -18.000000)">
            <g id="Page_1-Clipped">
                <g id="Page_1">
                    <path d="M313,1117 L3227,1117 L3227,1122 L313,1122 L313,1117 L313,1117 Z M313,962 L3227,962 L3227,967 L313,967 L313,962 L313,962 Z M313,807 L3227,807 L3227,812 L313,812 L313,807 L313,807 Z M313,652 L3227,652 L3227,657 L313,657 L313,652 L313,652 Z M313,497 L3227,497 L3227,502 L313,502 L313,497 L313,497 Z M313,343 L3227,343 L3227,348 L313,348 L313,343 L313,343 Z M313,188 L3227,188 L3227,193 L313,193 L313,188 L313,188 Z M313,33 L3227,33 L3227,38 L313,38 L313,33 L313,33 Z" id="Shape" fill="#868686" sketch:type="MSShapeGroup"></path>
                    <rect id="Rectangle-path" fill="#868686" sketch:type="MSShapeGroup" x="313" y="1271" width="2914" height="5"></rect>
                    <path d="M316,1273 L316,1297 L311,1297 L311,1273 L316,1273 L316,1273 Z M443,1273 L443,1297 L438,1297 L438,1273 L443,1273 L443,1273 Z M570,1273 L570,1297 L565,1297 L565,1273 L570,1273 L570,1273 Z M697,1273 L697,1297 L692,1297 L692,1273 L697,1273 L697,1273 Z M823,1273 L823,1297 L818,1297 L818,1273 L823,1273 L823,1273 Z M950,1273 L950,1297 L945,1297 L945,1273 L950,1273 L950,1273 Z M1077,1273 L1077,1297 L1072,1297 L1072,1273 L1077,1273 L1077,1273 Z M1203,1273 L1203,1297 L1198,1297 L1198,1273 L1203,1273 L1203,1273 Z M1330,1273 L1330,1297 L1325,1297 L1325,1273 L1330,1273 L1330,1273 Z M1457,1273 L1457,1297 L1452,1297 L1452,1273 L1457,1273 L1457,1273 Z M1583,1273 L1583,1297 L1578,1297 L1578,1273 L1583,1273 L1583,1273 Z M1710,1273 L1710,1297 L1705,1297 L1705,1273 L1710,1273 L1710,1273 Z M1837,1273 L1837,1297 L1832,1297 L1832,1273 L1837,1273 L1837,1273 Z M1963,1273 L1963,1297 L1958,1297 L1958,1273 L1963,1273 L1963,1273 Z M2090,1273 L2090,1297 L2085,1297 L2085,1273 L2090,1273 L2090,1273 Z M2217,1273 L2217,1297 L2212,1297 L2212,1273 L2217,1273 L2217,1273 Z M2344,1273 L2344,1297 L2339,1297 L2339,1273 L2344,1273 L2344,1273 Z M2470,1273 L2470,1297 L2465,1297 L2465,1273 L2470,1273 L2470,1273 Z M2597,1273 L2597,1297 L2592,1297 L2592,1273 L2597,1273 L2597,1273 Z M2724,1273 L2724,1297 L2719,1297 L2719,1273 L2724,1273 L2724,1273 Z M2850,1273 L2850,1297 L2845,1297 L2845,1273 L2850,1273 L2850,1273 Z M2977,1273 L2977,1297 L2972,1297 L2972,1273 L2977,1273 L2977,1273 Z M3104,1273 L3104,1297 L3099,1297 L3099,1273 L3104,1273 L3104,1273 Z M3230,1273 L3230,1297 L3225,1297 L3225,1273 L3230,1273 L3230,1273 Z" id="Shape" fill="#868686" sketch:type="MSShapeGroup"></path>
                    <path d="M374,1240 L501,1191 L502,1190 L629,1166 L755,1129 L881,1074 L1007,1008 L1008,1008 L1008,1007 L1134,965 L1262,938 L1516,866 L1642,830 L1641,831 L1768,774 L1895,725 L2022,690 L2149,654 L2275,600 L2276,599 L2402,575 L2529,541 L2655,490 L2782,451 L2909,419 L3036,378 L3163,346 L3166,346 L3169,347 L3172,349 L3173,352 L3173,355 L3172,358 L3170,361 L3167,362 L3040,394 L2913,435 L2786,467 L2661,504 L2533,557 L2405,591 L2279,615 L2281,614 L2153,670 L2026,706 L1901,740 L1774,788 L1647,845 L1647,846 L1646,846 L1520,882 L1266,954 L1139,981 L1013,1023 L1015,1022 L887,1088 L759,1145 L632,1182 L505,1206 L507,1205 L380,1254 L377,1255 L371,1253 L369,1247 L371,1241 L374,1240 L374,1240 Z" id="Shape" fill="#C00000" sketch:type="MSShapeGroup"></path>
                    <path d="M949,1200 L981,1195 L987,1197 L989,1199 L990,1202 L990,1206 L986,1210 L983,1211 L951,1216 L948,1216 L945,1215 L943,1212 L942,1209 L944,1203 L946,1201 L949,1200 L949,1200 Z M822,1217 L854,1213 L858,1214 L860,1215 L862,1217 L863,1220 L863,1224 L859,1228 L856,1229 L824,1233 L821,1233 L818,1231 L816,1229 L815,1226 L817,1220 L819,1218 L822,1217 L822,1217 Z M1650,1139 L1682,1135 L1688,1137 L1690,1139 L1691,1142 L1691,1145 L1689,1148 L1687,1150 L1684,1151 L1652,1155 L1649,1155 L1646,1153 L1644,1151 L1643,1148 L1645,1142 L1647,1140 L1650,1139 L1650,1139 Z M1714,1131 L1746,1127 L1752,1129 L1754,1131 L1755,1134 L1755,1137 L1753,1140 L1751,1142 L1748,1143 L1716,1147 L1713,1147 L1710,1145 L1708,1143 L1707,1140 L1707,1137 L1708,1134 L1711,1132 L1714,1131 L1714,1131 Z M2542,1055 L2574,1051 L2580,1053 L2582,1055 L2583,1058 L2583,1062 L2579,1066 L2576,1067 L2544,1071 L2541,1071 L2538,1069 L2536,1067 L2535,1064 L2537,1058 L2539,1056 L2542,1055 L2542,1055 Z M2606,1048 L2638,1044 L2644,1046 L2646,1048 L2647,1051 L2646,1055 L2645,1057 L2642,1059 L2639,1060 L2608,1064 L2602,1062 L2600,1059 L2599,1056 L2599,1053 L2603,1049 L2606,1048 L2606,1048 Z M2670,1041 L2701,1037 L2705,1038 L2707,1039 L2709,1042 L2710,1045 L2710,1048 L2708,1051 L2706,1052 L2703,1053 L2671,1057 L2668,1057 L2665,1055 L2663,1053 L2662,1050 L2664,1044 L2667,1042 L2670,1041 L2670,1041 Z M886,1210 L917,1205 L921,1205 L923,1206 L925,1209 L926,1212 L926,1215 L925,1218 L923,1220 L920,1221 L888,1225 L885,1225 L882,1224 L880,1222 L879,1219 L879,1216 L880,1213 L883,1211 L886,1210 L886,1210 Z M2160,1089 L2192,1085 L2198,1087 L2199,1089 L2200,1092 L2200,1095 L2199,1098 L2196,1100 L2193,1101 L2162,1105 L2159,1105 L2156,1103 L2154,1101 L2153,1098 L2153,1095 L2154,1092 L2157,1090 L2160,1089 L2160,1089 Z M759,1224 L791,1220 L797,1222 L798,1224 L799,1227 L799,1231 L798,1233 L795,1235 L792,1236 L761,1240 L758,1240 L755,1238 L753,1236 L752,1233 L752,1230 L753,1227 L756,1225 L759,1224 L759,1224 Z M1076,1185 L1108,1182 L1112,1182 L1114,1183 L1116,1186 L1117,1189 L1117,1192 L1115,1195 L1113,1197 L1110,1198 L1078,1201 L1072,1199 L1070,1196 L1069,1193 L1070,1190 L1071,1188 L1073,1186 L1076,1185 L1076,1185 Z M1268,1172 L1300,1169 L1303,1169 L1306,1171 L1308,1173 L1309,1176 L1307,1182 L1301,1185 L1269,1188 L1266,1187 L1264,1186 L1262,1183 L1261,1180 L1261,1177 L1265,1173 L1268,1172 L1268,1172 Z M1459,1155 L1491,1152 L1497,1154 L1500,1160 L1500,1163 L1498,1166 L1496,1167 L1493,1168 L1461,1171 L1458,1171 L1455,1169 L1453,1167 L1452,1164 L1454,1158 L1456,1156 L1459,1155 L1459,1155 Z M1777,1123 L1809,1120 L1813,1120 L1815,1121 L1817,1124 L1818,1127 L1818,1130 L1816,1133 L1814,1135 L1811,1136 L1779,1139 L1776,1139 L1773,1137 L1771,1135 L1770,1132 L1772,1126 L1774,1124 L1777,1123 L1777,1123 Z M1841,1116 L1873,1113 L1876,1113 L1879,1114 L1881,1117 L1882,1120 L1882,1123 L1880,1126 L1878,1128 L1875,1129 L1843,1132 L1840,1132 L1837,1130 L1834,1125 L1836,1119 L1838,1117 L1841,1116 L1841,1116 Z M1969,1104 L2001,1101 L2007,1103 L2008,1105 L2009,1108 L2009,1112 L2005,1116 L2002,1117 L1970,1120 L1964,1118 L1962,1115 L1961,1112 L1962,1109 L1963,1107 L1966,1105 L1969,1104 L1969,1104 Z M2223,1081 L2255,1078 L2259,1078 L2261,1079 L2263,1082 L2264,1085 L2264,1088 L2262,1091 L2260,1092 L2257,1093 L2225,1097 L2222,1097 L2219,1096 L2217,1093 L2216,1090 L2218,1084 L2220,1082 L2223,1081 L2223,1081 Z M2351,1070 L2383,1067 L2389,1069 L2392,1075 L2390,1081 L2384,1083 L2352,1086 L2349,1085 L2347,1084 L2345,1081 L2344,1078 L2344,1075 L2348,1071 L2351,1070 L2351,1070 Z M631,1235 L663,1232 L667,1233 L669,1234 L671,1236 L672,1239 L672,1243 L668,1247 L665,1248 L633,1251 L630,1251 L627,1249 L624,1244 L626,1238 L628,1236 L631,1235 L631,1235 Z M376,1255 L408,1252 L414,1254 L417,1260 L417,1263 L415,1266 L413,1267 L410,1268 L378,1271 L375,1271 L372,1269 L370,1267 L369,1264 L371,1258 L373,1256 L376,1255 L376,1255 Z M2733,1034 L2765,1031 L2768,1031 L2771,1033 L2773,1035 L2774,1038 L2774,1041 L2772,1044 L2770,1046 L2767,1047 L2735,1050 L2732,1050 L2729,1048 L2726,1043 L2728,1037 L2730,1035 L2733,1034 L2733,1034 Z M2797,1028 L2829,1025 L2832,1025 L2835,1027 L2837,1029 L2838,1032 L2836,1038 L2833,1040 L2830,1041 L2798,1044 L2795,1043 L2793,1042 L2791,1039 L2790,1036 L2790,1033 L2794,1029 L2797,1028 L2797,1028 Z M2861,1022 L2893,1019 L2896,1019 L2899,1020 L2901,1026 L2901,1029 L2899,1032 L2897,1034 L2894,1035 L2862,1038 L2856,1036 L2854,1033 L2853,1030 L2854,1027 L2855,1025 L2858,1023 L2861,1022 L2861,1022 Z M2924,1016 L2956,1013 L2960,1013 L2962,1014 L2964,1017 L2965,1020 L2965,1023 L2963,1026 L2961,1028 L2958,1029 L2926,1032 L2920,1030 L2918,1027 L2917,1024 L2918,1021 L2919,1019 L2921,1017 L2924,1016 L2924,1016 Z M2988,1010 L3020,1007 L3023,1007 L3026,1008 L3028,1011 L3029,1014 L3027,1020 L3024,1022 L3021,1023 L2990,1026 L2984,1024 L2982,1021 L2981,1018 L2982,1015 L2983,1013 L2985,1011 L2988,1010 L2988,1010 Z M1332,1166 L1364,1163 L1370,1165 L1372,1171 L1372,1174 L1370,1177 L1368,1178 L1365,1179 L1333,1182 L1330,1182 L1326,1178 L1325,1175 L1325,1172 L1326,1169 L1329,1167 L1332,1166 L1332,1166 Z M1013,1191 L1045,1188 L1048,1188 L1051,1190 L1052,1192 L1053,1195 L1053,1198 L1052,1201 L1049,1203 L1046,1204 L1014,1207 L1011,1206 L1009,1205 L1007,1202 L1006,1199 L1006,1196 L1007,1194 L1010,1192 L1013,1191 L1013,1191 Z M2096,1094 L2128,1092 L2132,1092 L2136,1096 L2137,1099 L2135,1105 L2132,1107 L2129,1108 L2098,1110 L2092,1108 L2090,1105 L2089,1102 L2090,1099 L2091,1097 L2093,1095 L2096,1094 L2096,1094 Z M440,1249 L472,1247 L475,1247 L478,1249 L480,1251 L481,1254 L479,1260 L476,1262 L473,1263 L441,1265 L438,1265 L436,1264 L434,1261 L433,1258 L433,1255 L435,1252 L437,1250 L440,1249 L440,1249 Z M1396,1161 L1427,1158 L1431,1158 L1435,1162 L1436,1165 L1436,1168 L1434,1171 L1432,1173 L1429,1174 L1397,1176 L1394,1176 L1391,1175 L1389,1172 L1388,1169 L1389,1166 L1390,1164 L1393,1162 L1396,1161 L1396,1161 Z M2287,1074 L2319,1072 L2323,1073 L2325,1074 L2327,1076 L2328,1079 L2327,1083 L2326,1085 L2323,1087 L2320,1088 L2288,1090 L2285,1090 L2281,1086 L2280,1083 L2282,1077 L2287,1074 L2287,1074 Z M1140,1179 L1172,1177 L1176,1178 L1178,1179 L1180,1182 L1181,1185 L1179,1191 L1173,1193 L1141,1195 L1138,1194 L1136,1193 L1134,1190 L1133,1187 L1134,1184 L1135,1182 L1137,1180 L1140,1179 L1140,1179 Z M2479,1060 L2511,1058 L2514,1058 L2517,1059 L2519,1065 L2519,1068 L2517,1071 L2515,1072 L2512,1073 L2480,1076 L2477,1076 L2474,1074 L2472,1072 L2471,1069 L2473,1063 L2476,1061 L2479,1060 L2479,1060 Z M1523,1150 L1555,1147 L1561,1149 L1563,1151 L1564,1154 L1563,1158 L1562,1160 L1559,1162 L1556,1163 L1524,1165 L1521,1165 L1519,1164 L1517,1161 L1516,1158 L1516,1155 L1520,1151 L1523,1150 L1523,1150 Z M695,1229 L727,1227 L730,1227 L733,1228 L735,1231 L736,1234 L736,1237 L734,1240 L732,1241 L729,1242 L697,1245 L694,1245 L691,1243 L689,1241 L688,1238 L690,1232 L692,1230 L695,1229 L695,1229 Z M568,1239 L600,1237 L606,1239 L608,1245 L608,1248 L606,1251 L604,1252 L601,1253 L569,1255 L566,1255 L563,1253 L560,1248 L562,1242 L565,1240 L568,1239 L568,1239 Z M1204,1175 L1236,1173 L1240,1174 L1244,1178 L1245,1181 L1243,1187 L1237,1189 L1205,1191 L1202,1191 L1198,1187 L1197,1184 L1199,1178 L1201,1176 L1204,1175 L1204,1175 Z M2033,1098 L2064,1096 L2068,1097 L2070,1098 L2072,1100 L2073,1103 L2073,1107 L2069,1111 L2066,1112 L2034,1114 L2031,1114 L2028,1112 L2026,1110 L2025,1107 L2027,1101 L2033,1098 L2033,1098 Z M3052,1004 L3084,1002 L3087,1002 L3090,1004 L3092,1006 L3093,1009 L3091,1015 L3085,1018 L3053,1020 L3050,1019 L3048,1018 L3046,1015 L3045,1012 L3045,1009 L3049,1005 L3052,1004 L3052,1004 Z M3116,999 L3148,997 L3154,999 L3156,1005 L3156,1008 L3154,1011 L3152,1012 L3149,1013 L3117,1015 L3114,1015 L3111,1013 L3109,1011 L3108,1008 L3110,1002 L3113,1000 L3116,999 L3116,999 Z M504,1244 L536,1242 L539,1242 L542,1244 L543,1246 L544,1249 L544,1252 L542,1255 L537,1258 L505,1260 L502,1259 L500,1258 L498,1255 L497,1252 L497,1249 L501,1245 L504,1244 L504,1244 Z M1905,1109 L1937,1107 L1940,1107 L1943,1108 L1945,1114 L1945,1117 L1944,1120 L1938,1122 L1906,1125 L1903,1125 L1899,1121 L1898,1118 L1898,1115 L1900,1112 L1902,1110 L1905,1109 L1905,1109 Z M2415,1065 L2447,1063 L2450,1063 L2453,1065 L2454,1067 L2455,1070 L2455,1073 L2454,1076 L2451,1078 L2448,1079 L2416,1081 L2413,1081 L2409,1077 L2408,1074 L2408,1071 L2410,1068 L2412,1066 L2415,1065 L2415,1065 Z M1587,1144 L1619,1142 L1625,1144 L1626,1146 L1627,1149 L1627,1153 L1626,1155 L1623,1157 L1620,1158 L1588,1160 L1585,1160 L1581,1156 L1580,1153 L1580,1150 L1582,1147 L1584,1145 L1587,1144 L1587,1144 Z" id="Shape" fill="#C00000" sketch:type="MSShapeGroup"></path>
                    <path d="M374,1149 L501,1097 L627,1034 L754,988 L882,947 L1008,901 L1134,856 L1261,813 L1389,773 L1515,725 L1641,666 L1767,600 L1768,600 L1769,599 L1896,563 L2022,527 L2149,493 L2401,401 L2529,370 L2655,322 L2782,288 L2909,258 L3036,225 L3163,185 L3166,185 L3169,186 L3171,188 L3173,191 L3173,194 L3172,197 L3170,199 L3167,201 L3040,241 L2913,274 L2786,304 L2661,336 L2533,386 L2407,416 L2281,462 L2153,509 L2026,543 L1900,579 L1773,615 L1775,614 L1647,680 L1521,739 L1393,789 L1267,829 L1140,872 L1014,916 L886,963 L760,1004 L635,1048 L507,1111 L380,1163 L377,1164 L371,1162 L369,1156 L371,1150 L374,1149 L374,1149 Z" id="Shape" fill="#376092" sketch:type="MSShapeGroup"></path>
                    <path d="M503,1226 L535,1222 L538,1222 L541,1224 L543,1226 L544,1229 L544,1232 L542,1235 L540,1237 L537,1238 L505,1242 L502,1242 L499,1240 L497,1238 L496,1235 L498,1229 L500,1227 L503,1226 L503,1226 Z M885,1186 L917,1182 L923,1184 L925,1186 L926,1189 L926,1192 L924,1195 L922,1197 L919,1198 L887,1202 L884,1202 L881,1200 L879,1198 L878,1195 L880,1189 L882,1187 L885,1186 L885,1186 Z M1458,1130 L1490,1126 L1496,1128 L1498,1130 L1499,1133 L1499,1137 L1495,1141 L1492,1142 L1460,1146 L1457,1146 L1454,1144 L1452,1142 L1451,1139 L1453,1133 L1455,1131 L1458,1130 L1458,1130 Z M1585,1113 L1617,1109 L1620,1109 L1623,1110 L1625,1113 L1626,1116 L1626,1119 L1624,1122 L1622,1124 L1619,1125 L1587,1129 L1584,1129 L1581,1128 L1579,1125 L1578,1122 L1580,1116 L1582,1114 L1585,1113 L1585,1113 Z M1712,1097 L1744,1093 L1750,1095 L1752,1097 L1753,1100 L1753,1103 L1751,1106 L1746,1109 L1714,1113 L1711,1113 L1708,1111 L1706,1109 L1705,1106 L1707,1100 L1709,1098 L1712,1097 L1712,1097 Z M440,1233 L472,1229 L478,1231 L480,1237 L480,1240 L479,1243 L473,1245 L441,1249 L438,1249 L434,1245 L433,1242 L433,1239 L434,1236 L437,1234 L440,1233 L440,1233 Z M1522,1122 L1553,1118 L1557,1118 L1559,1119 L1561,1122 L1562,1125 L1562,1128 L1561,1131 L1559,1133 L1556,1134 L1524,1138 L1521,1138 L1518,1137 L1516,1134 L1515,1131 L1515,1128 L1516,1125 L1519,1123 L1522,1122 L1522,1122 Z M567,1218 L598,1214 L602,1214 L606,1218 L607,1221 L607,1224 L606,1227 L603,1229 L600,1230 L569,1234 L566,1234 L563,1232 L561,1230 L560,1227 L560,1224 L561,1221 L564,1219 L567,1218 L567,1218 Z M694,1203 L726,1200 L732,1202 L734,1204 L735,1207 L735,1211 L731,1215 L728,1216 L696,1219 L693,1219 L690,1218 L688,1215 L687,1212 L687,1209 L689,1206 L691,1204 L694,1203 L694,1203 Z M1012,1171 L1044,1168 L1048,1168 L1052,1172 L1053,1175 L1053,1178 L1051,1181 L1049,1183 L1046,1184 L1014,1187 L1011,1187 L1008,1185 L1006,1183 L1005,1180 L1007,1174 L1009,1172 L1012,1171 L1012,1171 Z M1076,1165 L1108,1162 L1111,1162 L1114,1164 L1116,1166 L1117,1169 L1115,1175 L1112,1177 L1109,1178 L1078,1181 L1072,1179 L1070,1176 L1069,1173 L1069,1170 L1073,1166 L1076,1165 L1076,1165 Z M1204,1154 L1236,1151 L1242,1153 L1244,1159 L1244,1162 L1242,1165 L1240,1166 L1237,1167 L1205,1170 L1199,1168 L1197,1165 L1196,1162 L1197,1159 L1198,1157 L1201,1155 L1204,1154 L1204,1154 Z M1267,1149 L1299,1146 L1303,1146 L1307,1150 L1308,1153 L1308,1156 L1306,1159 L1301,1162 L1269,1165 L1263,1163 L1260,1157 L1261,1154 L1262,1152 L1264,1150 L1267,1149 L1267,1149 Z M1331,1143 L1363,1140 L1369,1142 L1372,1148 L1372,1151 L1370,1154 L1368,1155 L1365,1156 L1333,1159 L1330,1159 L1327,1157 L1325,1155 L1324,1152 L1326,1146 L1328,1144 L1331,1143 L1331,1143 Z M376,1240 L408,1237 L411,1237 L414,1238 L416,1241 L417,1244 L417,1247 L415,1250 L413,1251 L410,1252 L378,1256 L375,1256 L372,1254 L369,1249 L371,1243 L376,1240 L376,1240 Z M630,1210 L662,1207 L666,1207 L668,1208 L670,1211 L671,1214 L671,1217 L669,1220 L667,1222 L664,1223 L632,1226 L629,1226 L626,1224 L624,1222 L623,1219 L625,1213 L627,1211 L630,1210 L630,1210 Z M2159,1065 L2191,1062 L2194,1062 L2197,1063 L2199,1066 L2200,1069 L2200,1072 L2198,1075 L2196,1076 L2193,1077 L2161,1081 L2158,1081 L2155,1079 L2153,1077 L2152,1074 L2152,1071 L2154,1068 L2159,1065 L2159,1065 Z M2478,1040 L2510,1037 L2516,1039 L2519,1045 L2517,1051 L2511,1053 L2479,1056 L2476,1055 L2474,1054 L2472,1051 L2471,1048 L2471,1045 L2475,1041 L2478,1040 L2478,1040 Z M2606,1029 L2637,1026 L2641,1026 L2645,1030 L2646,1033 L2646,1036 L2644,1039 L2642,1041 L2639,1042 L2607,1045 L2604,1045 L2601,1043 L2599,1041 L2598,1038 L2600,1032 L2603,1030 L2606,1029 L2606,1029 Z M2797,1015 L2829,1012 L2835,1014 L2837,1017 L2838,1020 L2836,1026 L2830,1028 L2798,1031 L2795,1031 L2791,1027 L2790,1024 L2790,1021 L2792,1018 L2794,1016 L2797,1015 L2797,1015 Z M1649,1104 L1680,1101 L1684,1101 L1686,1102 L1688,1105 L1689,1108 L1689,1111 L1688,1114 L1685,1116 L1682,1117 L1650,1120 L1647,1120 L1645,1119 L1643,1116 L1642,1113 L1642,1110 L1643,1107 L1646,1105 L1649,1104 L1649,1104 Z M949,1178 L980,1175 L984,1175 L986,1176 L988,1179 L989,1182 L989,1185 L988,1188 L982,1190 L951,1194 L948,1194 L945,1193 L943,1190 L942,1187 L942,1184 L943,1181 L946,1179 L949,1178 L949,1178 Z M1395,1137 L1427,1134 L1430,1134 L1433,1135 L1435,1141 L1435,1144 L1434,1147 L1431,1149 L1428,1150 L1397,1153 L1394,1153 L1391,1152 L1389,1149 L1388,1146 L1388,1143 L1389,1140 L1392,1138 L1395,1137 L1395,1137 Z M2223,1058 L2254,1055 L2258,1055 L2260,1056 L2262,1059 L2263,1062 L2263,1065 L2262,1068 L2256,1070 L2224,1074 L2221,1074 L2217,1070 L2216,1067 L2216,1064 L2217,1061 L2220,1059 L2223,1058 L2223,1058 Z M1140,1159 L1172,1156 L1178,1158 L1180,1164 L1180,1167 L1179,1170 L1173,1172 L1141,1175 L1138,1174 L1136,1173 L1134,1170 L1133,1167 L1133,1164 L1137,1160 L1140,1159 L1140,1159 Z M2542,1035 L2574,1032 L2577,1032 L2580,1034 L2581,1036 L2582,1039 L2582,1042 L2581,1045 L2578,1047 L2575,1048 L2543,1051 L2540,1051 L2536,1047 L2535,1044 L2535,1041 L2536,1038 L2539,1036 L2542,1035 L2542,1035 Z M758,1197 L790,1194 L796,1196 L797,1198 L798,1201 L798,1205 L794,1209 L791,1210 L759,1213 L756,1213 L752,1209 L751,1206 L751,1203 L752,1200 L755,1198 L758,1197 L758,1197 Z M2861,1010 L2893,1007 L2899,1009 L2901,1015 L2901,1018 L2899,1021 L2897,1022 L2894,1023 L2862,1026 L2859,1025 L2857,1024 L2855,1021 L2854,1018 L2854,1015 L2858,1011 L2861,1010 L2861,1010 Z M1776,1090 L1808,1088 L1814,1090 L1817,1095 L1816,1099 L1815,1101 L1812,1103 L1809,1104 L1777,1106 L1774,1105 L1772,1104 L1770,1101 L1769,1098 L1769,1095 L1773,1091 L1776,1090 L1776,1090 Z M1840,1086 L1872,1084 L1875,1085 L1878,1087 L1881,1092 L1879,1098 L1873,1100 L1841,1102 L1838,1102 L1834,1098 L1833,1095 L1833,1092 L1835,1089 L1837,1087 L1840,1086 L1840,1086 Z M2351,1048 L2383,1046 L2389,1048 L2391,1054 L2389,1060 L2383,1062 L2351,1064 L2348,1063 L2346,1062 L2344,1059 L2343,1056 L2344,1053 L2345,1051 L2348,1049 L2351,1048 L2351,1048 Z M2414,1044 L2446,1042 L2452,1044 L2455,1049 L2454,1053 L2453,1055 L2450,1057 L2447,1058 L2415,1060 L2412,1060 L2408,1056 L2407,1053 L2409,1047 L2414,1044 L2414,1044 Z M1904,1082 L1936,1080 L1942,1082 L1943,1084 L1944,1087 L1944,1091 L1940,1095 L1937,1096 L1905,1098 L1902,1098 L1899,1096 L1897,1094 L1896,1091 L1898,1085 L1901,1083 L1904,1082 L1904,1082 Z M1968,1077 L2000,1075 L2006,1077 L2007,1079 L2008,1082 L2008,1085 L2006,1088 L2001,1091 L1969,1093 L1966,1093 L1963,1091 L1960,1086 L1962,1080 L1965,1078 L1968,1077 L1968,1077 Z M2032,1073 L2064,1071 L2070,1073 L2071,1075 L2072,1078 L2071,1082 L2070,1084 L2067,1086 L2064,1087 L2033,1089 L2027,1087 L2025,1084 L2024,1081 L2025,1078 L2026,1076 L2029,1074 L2032,1073 L2032,1073 Z M2670,1023 L2701,1021 L2705,1022 L2707,1023 L2709,1026 L2710,1029 L2708,1035 L2702,1037 L2671,1039 L2668,1039 L2665,1037 L2663,1035 L2662,1032 L2664,1026 L2667,1024 L2670,1023 L2670,1023 Z M2733,1019 L2765,1017 L2769,1018 L2771,1019 L2773,1022 L2774,1025 L2772,1031 L2766,1033 L2734,1035 L2731,1035 L2727,1031 L2726,1028 L2728,1022 L2730,1020 L2733,1019 L2733,1019 Z M822,1191 L853,1189 L857,1189 L859,1190 L861,1193 L862,1196 L862,1199 L860,1202 L858,1204 L855,1205 L823,1207 L820,1207 L817,1205 L815,1203 L814,1200 L816,1194 L819,1192 L822,1191 L822,1191 Z M2096,1069 L2127,1067 L2131,1068 L2133,1069 L2135,1072 L2136,1075 L2134,1081 L2128,1083 L2096,1085 L2093,1084 L2091,1083 L2089,1080 L2088,1077 L2089,1074 L2090,1072 L2093,1070 L2096,1069 L2096,1069 Z M2925,1005 L2957,1003 L2963,1005 L2965,1011 L2965,1014 L2963,1017 L2961,1018 L2958,1019 L2926,1021 L2923,1021 L2920,1019 L2917,1014 L2919,1008 L2922,1006 L2925,1005 L2925,1005 Z M2989,1001 L3021,999 L3027,1001 L3029,1007 L3029,1010 L3027,1013 L3025,1014 L3022,1015 L2990,1017 L2987,1017 L2984,1015 L2981,1010 L2983,1004 L2986,1002 L2989,1001 L2989,1001 Z M2287,1051 L2319,1050 L2322,1050 L2325,1052 L2326,1054 L2327,1057 L2327,1060 L2325,1063 L2320,1066 L2288,1067 L2285,1067 L2282,1065 L2280,1063 L2279,1060 L2281,1054 L2287,1051 L2287,1051 Z M3053,997 L3085,996 L3091,998 L3092,1000 L3093,1003 L3092,1007 L3091,1009 L3088,1011 L3085,1012 L3054,1013 L3051,1013 L3048,1011 L3046,1009 L3045,1006 L3047,1000 L3050,998 L3053,997 L3053,997 Z M3117,994 L3149,993 L3155,995 L3156,997 L3157,1000 L3156,1004 L3155,1006 L3152,1008 L3149,1009 L3117,1010 L3114,1010 L3110,1006 L3109,1003 L3111,997 L3114,995 L3117,994 L3117,994 Z" id="Shape" fill="#376092" sketch:type="MSShapeGroup"></path>
                    <text id="0" fill="#000000" sketch:type="MSTextLayer" font-family="Calibri" font-size="59.8016" font-weight="normal">
                        <tspan x="210" y="1295">0</tspan>
                    </text>
                    <text id="500" fill="#000000" sketch:type="MSTextLayer" font-family="Calibri" font-size="59.8016" font-weight="normal">
                        <tspan x="136" y="1141">500</tspan>
                    </text>
                    <text id="1000" fill="#000000" sketch:type="MSTextLayer" font-family="Calibri" font-size="59.8016" font-weight="normal">
                        <tspan x="99" y="986">1000</tspan>
                    </text>
                    <text id="1500" fill="#000000" sketch:type="MSTextLayer" font-family="Calibri" font-size="59.8016" font-weight="normal">
                        <tspan x="99" y="831">1500</tspan>
                    </text>
                    <text id="2000" fill="#000000" sketch:type="MSTextLayer" font-family="Calibri" font-size="59.8016" font-weight="normal">
                        <tspan x="99" y="676">2000</tspan>
                    </text>
                    <text id="2500" fill="#000000" sketch:type="MSTextLayer" font-family="Calibri" font-size="59.8016" font-weight="normal">
                        <tspan x="99" y="522">2500</tspan>
                    </text>
                    <text id="3000" fill="#000000" sketch:type="MSTextLayer" font-family="Calibri" font-size="59.8016" font-weight="normal">
                        <tspan x="99" y="367">3000</tspan>
                    </text>
                    <text id="3500" fill="#000000" sketch:type="MSTextLayer" font-family="Calibri" font-size="59.8016" font-weight="normal">
                        <tspan x="99" y="212">3500</tspan>
                    </text>
                    <text id="4000" fill="#000000" sketch:type="MSTextLayer" font-family="Calibri" font-size="59.8016" font-weight="normal">
                        <tspan x="99" y="57">4000</tspan>
                    </text>
                    <g id="Group" transform="translate(382.500000, 1445.500000) rotate(-90.000000) translate(-382.500000, -1445.500000) translate(271.000000, 1409.000000)" font-size="59.8016" font-family="Calibri" fill="#000000" sketch:type="MSTextLayer" font-weight="normal">
                        <text id="April-">
                            <tspan x="0" y="57">April-</tspan>
                        </text>
                        <text id="13">
                            <tspan x="162" y="57">13</tspan>
                        </text>
                    </g>
                    <g id="Group" transform="translate(509.500000, 1441.000000) rotate(-90.000000) translate(-509.500000, -1441.000000) translate(402.500000, 1404.500000)" font-size="59.8016" font-family="Calibri" fill="#000000" sketch:type="MSTextLayer" font-weight="normal">
                        <text id="May-">
                            <tspan x="0" y="57">May-</tspan>
                        </text>
                        <text id="13">
                            <tspan x="153" y="57">13</tspan>
                        </text>
                    </g>
                    <g id="Group" transform="translate(636.500000, 1444.000000) rotate(-90.000000) translate(-636.500000, -1444.000000) translate(526.500000, 1407.500000)" font-size="59.8016" font-family="Calibri" fill="#000000" sketch:type="MSTextLayer" font-weight="normal">
                        <text id="June-">
                            <tspan x="0" y="57">June-</tspan>
                        </text>
                        <text id="13">
                            <tspan x="159" y="57">13</tspan>
                        </text>
                    </g>
                    <g id="Group" transform="translate(762.500000, 1431.500000) rotate(-90.000000) translate(-762.500000, -1431.500000) translate(665.000000, 1395.000000)" font-size="59.8016" font-family="Calibri" fill="#000000" sketch:type="MSTextLayer" font-weight="normal">
                        <text id="July-">
                            <tspan x="0" y="57">July-</tspan>
                        </text>
                        <text id="13">
                            <tspan x="134" y="57">13</tspan>
                        </text>
                    </g>
                    <g id="Group" transform="translate(889.500000, 1479.000000) rotate(-90.000000) translate(-889.500000, -1479.000000) translate(744.500000, 1442.500000)" font-size="59.8016" font-family="Calibri" fill="#000000" sketch:type="MSTextLayer" font-weight="normal">
                        <text id="August-">
                            <tspan x="0" y="57">August-</tspan>
                        </text>
                        <text id="13">
                            <tspan x="229" y="57">13</tspan>
                        </text>
                    </g>
                    <g id="Group" transform="translate(1016.500000, 1539.500000) rotate(-90.000000) translate(-1016.500000, -1539.500000) translate(811.000000, 1503.000000)" font-size="59.8016" font-family="Calibri" fill="#000000" sketch:type="MSTextLayer" font-weight="normal">
                        <text id="September-">
                            <tspan x="0" y="57">September-</tspan>
                        </text>
                        <text id="13">
                            <tspan x="350" y="57">13</tspan>
                        </text>
                    </g>
                    <g id="Group" transform="translate(1143.500000, 1497.000000) rotate(-90.000000) translate(-1143.500000, -1497.000000) translate(980.500000, 1460.500000)" font-size="59.8016" font-family="Calibri" fill="#000000" sketch:type="MSTextLayer" font-weight="normal">
                        <text id="October-">
                            <tspan x="0" y="57">October-</tspan>
                        </text>
                        <text id="13">
                            <tspan x="265" y="57">13</tspan>
                        </text>
                    </g>
                    <g id="Group" transform="translate(1269.500000, 1532.500000) rotate(-90.000000) translate(-1269.500000, -1532.500000) translate(1071.000000, 1496.000000)" font-size="59.8016" font-family="Calibri" fill="#000000" sketch:type="MSTextLayer" font-weight="normal">
                        <text id="November-">
                            <tspan x="0" y="57">November-</tspan>
                        </text>
                        <text id="13">
                            <tspan x="336" y="57">13</tspan>
                        </text>
                    </g>
                    <g id="Group" transform="translate(1396.500000, 1529.000000) rotate(-90.000000) translate(-1396.500000, -1529.000000) translate(1201.500000, 1492.500000)" font-size="59.8016" font-family="Calibri" fill="#000000" sketch:type="MSTextLayer" font-weight="normal">
                        <text id="December-">
                            <tspan x="0" y="57">December-</tspan>
                        </text>
                        <text id="13">
                            <tspan x="329" y="57">13</tspan>
                        </text>
                    </g>
                    <g id="Group" transform="translate(1523.500000, 1490.000000) rotate(-90.000000) translate(-1523.500000, -1490.000000) translate(1367.500000, 1453.500000)" font-size="59.8016" font-family="Calibri" fill="#000000" sketch:type="MSTextLayer" font-weight="normal">
                        <text id="January-">
                            <tspan x="0" y="57">January-</tspan>
                        </text>
                        <text id="14">
                            <tspan x="251" y="57">14</tspan>
                        </text>
                    </g>
                    <g id="Group" transform="translate(1649.500000, 1508.500000) rotate(-90.000000) translate(-1649.500000, -1508.500000) translate(1475.000000, 1472.000000)" font-size="59.8016" font-family="Calibri" fill="#000000" sketch:type="MSTextLayer" font-weight="normal">
                        <text id="February-">
                            <tspan x="0" y="57">February-</tspan>
                        </text>
                        <text id="14">
                            <tspan x="288" y="57">14</tspan>
                        </text>
                    </g>
                    <g id="Group" transform="translate(1776.500000, 1471.500000) rotate(-90.000000) translate(-1776.500000, -1471.500000) translate(1639.000000, 1435.000000)" font-size="59.8016" font-family="Calibri" fill="#000000" sketch:type="MSTextLayer" font-weight="normal">
                        <text id="March-">
                            <tspan x="0" y="57">March-</tspan>
                        </text>
                        <text id="14">
                            <tspan x="214" y="57">14</tspan>
                        </text>
                    </g>
                    <g id="Group" transform="translate(1903.500000, 1445.500000) rotate(-90.000000) translate(-1903.500000, -1445.500000) translate(1792.000000, 1409.000000)" font-size="59.8016" font-family="Calibri" fill="#000000" sketch:type="MSTextLayer" font-weight="normal">
                        <text id="April-">
                            <tspan x="0" y="57">April-</tspan>
                        </text>
                        <text id="14">
                            <tspan x="162" y="57">14</tspan>
                        </text>
                    </g>
                    <g id="Group" transform="translate(2029.500000, 1441.000000) rotate(-90.000000) translate(-2029.500000, -1441.000000) translate(1922.500000, 1404.500000)" font-size="59.8016" font-family="Calibri" fill="#000000" sketch:type="MSTextLayer" font-weight="normal">
                        <text id="May-">
                            <tspan x="0" y="57">May-</tspan>
                        </text>
                        <text id="14">
                            <tspan x="153" y="57">14</tspan>
                        </text>
                    </g>
                    <g id="Group" transform="translate(2156.500000, 1444.000000) rotate(-90.000000) translate(-2156.500000, -1444.000000) translate(2046.500000, 1407.500000)" font-size="59.8016" font-family="Calibri" fill="#000000" sketch:type="MSTextLayer" font-weight="normal">
                        <text id="June-">
                            <tspan x="0" y="57">June-</tspan>
                        </text>
                        <text id="14">
                            <tspan x="159" y="57">14</tspan>
                        </text>
                    </g>
                    <g id="Group" transform="translate(2283.500000, 1431.500000) rotate(-90.000000) translate(-2283.500000, -1431.500000) translate(2186.000000, 1395.000000)" font-size="59.8016" font-family="Calibri" fill="#000000" sketch:type="MSTextLayer" font-weight="normal">
                        <text id="July-">
                            <tspan x="0" y="57">July-</tspan>
                        </text>
                        <text id="14">
                            <tspan x="134" y="57">14</tspan>
                        </text>
                    </g>
                    <g id="Group" transform="translate(2409.500000, 1479.000000) rotate(-90.000000) translate(-2409.500000, -1479.000000) translate(2264.500000, 1442.500000)" font-size="59.8016" font-family="Calibri" fill="#000000" sketch:type="MSTextLayer" font-weight="normal">
                        <text id="August-">
                            <tspan x="0" y="57">August-</tspan>
                        </text>
                        <text id="14">
                            <tspan x="229" y="57">14</tspan>
                        </text>
                    </g>
                    <g id="Group" transform="translate(2536.500000, 1539.500000) rotate(-90.000000) translate(-2536.500000, -1539.500000) translate(2331.000000, 1503.000000)" font-size="59.8016" font-family="Calibri" fill="#000000" sketch:type="MSTextLayer" font-weight="normal">
                        <text id="September-">
                            <tspan x="0" y="57">September-</tspan>
                        </text>
                        <text id="14">
                            <tspan x="350" y="57">14</tspan>
                        </text>
                    </g>
                    <g id="Group" transform="translate(2663.500000, 1497.000000) rotate(-90.000000) translate(-2663.500000, -1497.000000) translate(2500.500000, 1460.500000)" font-size="59.8016" font-family="Calibri" fill="#000000" sketch:type="MSTextLayer" font-weight="normal">
                        <text id="October-">
                            <tspan x="0" y="57">October-</tspan>
                        </text>
                        <text id="14">
                            <tspan x="265" y="57">14</tspan>
                        </text>
                    </g>
                    <g id="Group" transform="translate(2790.500000, 1532.500000) rotate(-90.000000) translate(-2790.500000, -1532.500000) translate(2592.000000, 1496.000000)" font-size="59.8016" font-family="Calibri" fill="#000000" sketch:type="MSTextLayer" font-weight="normal">
                        <text id="November-">
                            <tspan x="0" y="57">November-</tspan>
                        </text>
                        <text id="14">
                            <tspan x="336" y="57">14</tspan>
                        </text>
                    </g>
                    <g id="Group" transform="translate(2916.500000, 1529.000000) rotate(-90.000000) translate(-2916.500000, -1529.000000) translate(2721.500000, 1492.500000)" font-size="59.8016" font-family="Calibri" fill="#000000" sketch:type="MSTextLayer" font-weight="normal">
                        <text id="December-">
                            <tspan x="0" y="57">December-</tspan>
                        </text>
                        <text id="14">
                            <tspan x="329" y="57">14</tspan>
                        </text>
                    </g>
                    <g id="Group" transform="translate(3043.500000, 1490.000000) rotate(-90.000000) translate(-3043.500000, -1490.000000) translate(2887.500000, 1453.500000)" font-size="59.8016" font-family="Calibri" fill="#000000" sketch:type="MSTextLayer" font-weight="normal">
                        <text id="January-">
                            <tspan x="0" y="57">January-</tspan>
                        </text>
                        <text id="15">
                            <tspan x="251" y="57">15</tspan>
                        </text>
                    </g>
                    <g id="Group" transform="translate(3170.500000, 1508.500000) rotate(-90.000000) translate(-3170.500000, -1508.500000) translate(2996.000000, 1472.000000)" font-size="59.8016" font-family="Calibri" fill="#000000" sketch:type="MSTextLayer" font-weight="normal">
                        <text id="February-">
                            <tspan x="0" y="57">February-</tspan>
                        </text>
                        <text id="15">
                            <tspan x="288" y="57">15</tspan>
                        </text>
                    </g>
                    <g id="Group" transform="translate(37.500000, 672.500000) rotate(-90.000000) translate(-37.500000, -672.500000) translate(-37.000000, 636.000000)" font-size="59.8016" font-family="Calibri" fill="#000000" sketch:type="MSTextLayer" font-weight="bold">
                        <text id="Count">
                            <tspan x="0" y="57">Count</tspan>
                        </text>
                    </g>
                    <text id="Month" fill="#000000" sketch:type="MSTextLayer" font-family="Calibri" font-size="59.8016" font-weight="bold">
                        <tspan x="1668" y="1836">Month</tspan>
                    </text>
                    <path d="M3318,532 L3502,532 L3505,533 L3508,535 L3509,537 L3510,540 L3508,546 L3502,548 L3318,548 L3315,547 L3313,546 L3311,543 L3310,540 L3311,537 L3315,533 L3318,532 L3318,532 Z" id="Shape" fill="#C00000" sketch:type="MSShapeGroup"></path>
                    <text id="Total" fill="#000000" sketch:type="MSTextLayer" font-family="Calibri" font-size="59.8016" font-weight="normal">
                        <tspan x="3523" y="562">Total</tspan>
                    </text>
                    <text id="Posts" fill="#000000" sketch:type="MSTextLayer" font-family="Calibri" font-size="59.8016" font-weight="normal">
                        <tspan x="3690" y="562">Posts</tspan>
                    </text>
                    <path d="M3318,664 L3350,664 L3353,665 L3356,667 L3357,669 L3358,672 L3356,678 L3350,680 L3318,680 L3315,679 L3313,678 L3311,675 L3310,672 L3311,669 L3315,665 L3318,664 L3318,664 Z M3382,664 L3414,664 L3417,665 L3420,667 L3421,669 L3422,672 L3420,678 L3414,680 L3382,680 L3379,679 L3377,678 L3375,675 L3374,672 L3375,669 L3379,665 L3382,664 L3382,664 Z M3446,664 L3478,664 L3481,665 L3484,667 L3485,669 L3486,672 L3484,678 L3478,680 L3446,680 L3443,679 L3441,678 L3439,675 L3438,672 L3439,669 L3443,665 L3446,664 L3446,664 Z" id="Shape" fill="#C00000" sketch:type="MSShapeGroup"></path>
                    <text id="Total" fill="#000000" sketch:type="MSTextLayer" font-family="Calibri" font-size="59.8016" font-weight="normal">
                        <tspan x="3523" y="694">Total</tspan>
                    </text>
                    <text id="Topics" fill="#000000" sketch:type="MSTextLayer" font-family="Calibri" font-size="59.8016" font-weight="normal">
                        <tspan x="3690" y="694">Topics</tspan>
                    </text>
                    <path d="M3318,797 L3502,797 L3505,798 L3508,800 L3509,802 L3510,805 L3508,811 L3502,813 L3318,813 L3315,812 L3313,811 L3311,808 L3310,805 L3311,802 L3315,798 L3318,797 L3318,797 Z" id="Shape" fill="#376092" sketch:type="MSShapeGroup"></path>
                    <text id="Total" fill="#000000" sketch:type="MSTextLayer" font-family="Calibri" font-size="59.8016" font-weight="normal">
                        <tspan x="3523" y="826">Total</tspan>
                    </text>
                    <text id="Posts" fill="#000000" sketch:type="MSTextLayer" font-family="Calibri" font-size="59.8016" font-weight="normal">
                        <tspan x="3690" y="826">Posts</tspan>
                    </text>
                    <path d="M3318,929 L3350,929 L3353,930 L3356,932 L3357,934 L3358,937 L3356,943 L3350,945 L3318,945 L3315,944 L3313,943 L3311,940 L3310,937 L3311,934 L3315,930 L3318,929 L3318,929 Z M3382,929 L3414,929 L3417,930 L3420,932 L3421,934 L3422,937 L3420,943 L3414,945 L3382,945 L3379,944 L3377,943 L3375,940 L3374,937 L3375,934 L3379,930 L3382,929 L3382,929 Z M3446,929 L3478,929 L3481,930 L3484,932 L3485,934 L3486,937 L3484,943 L3478,945 L3446,945 L3443,944 L3441,943 L3439,940 L3438,937 L3439,934 L3443,930 L3446,929 L3446,929 Z" id="Shape" fill="#376092" sketch:type="MSShapeGroup"></path>
                    <text id="Total" fill="#000000" sketch:type="MSTextLayer" font-family="Calibri" font-size="59.8016" font-weight="normal">
                        <tspan x="3523" y="958">Total</tspan>
                    </text>
                    <text id="Topics" fill="#000000" sketch:type="MSTextLayer" font-family="Calibri" font-size="59.8016" font-weight="normal">
                        <tspan x="3690" y="958">Topics</tspan>
                    </text>
                </g>
            </g>
        </g>
    </g>
</svg>