<?xml version="1.0" encoding="UTF-8" standalone="no"?>
<svg width="3775px" height="1812px" viewBox="0 0 3775 1812" version="1.1" xmlns="http://www.w3.org/2000/svg" xmlns:xlink="http://www.w3.org/1999/xlink" xmlns:sketch="http://www.bohemiancoding.com/sketch/ns">
    <!-- Generator: Sketch 3.2.2 (9983) - http://www.bohemiancoding.com/sketch -->
    <title>google_groups</title>
    <desc>Created with Sketch.</desc>
    <defs></defs>
    <g id="Page-1" stroke="none" stroke-width="1" fill="none" fill-rule="evenodd" sketch:type="MSPage">
        <g id="google_groups" sketch:type="MSLayerGroup" transform="translate(-16.000000, -15.000000)">
            <g id="Page-1">
                <g id="Google-Groups-Posts-Topics-Apr-2013-to-Feb-2015-by-Week.001">
                    <g id="Page_1-Clipped">
                        <g id="Page_1">
                            <path d="M303,1106 L2883,1106 L2883,1111 L303,1111 L303,1106 L303,1106 Z M303,889 L2883,889 L2883,894 L303,894 L303,889 L303,889 Z M303,673 L2883,673 L2883,678 L303,678 L303,673 L303,673 Z M303,456 L2883,456 L2883,461 L303,461 L303,456 L303,456 Z M303,240 L2883,240 L2883,245 L303,245 L303,240 L303,240 Z M303,23 L2883,23 L2883,28 L303,28 L303,23 L303,23 Z" id="Shape" fill="#868686" sketch:type="MSShapeGroup"></path>
                            <rect id="Rectangle-path" fill="#868686" sketch:type="MSShapeGroup" x="303" y="1322" width="2580" height="5"></rect>
                            <path d="M306,1324 L306,1348 L301,1348 L301,1324 L306,1324 L306,1324 Z M458,1324 L458,1348 L453,1348 L453,1324 L458,1324 L458,1324 Z M610,1324 L610,1348 L605,1348 L605,1324 L610,1324 L610,1324 Z M762,1324 L762,1348 L757,1348 L757,1324 L762,1324 L762,1324 Z M913,1324 L913,1348 L908,1348 L908,1324 L913,1324 L913,1324 Z M1065,1324 L1065,1348 L1060,1348 L1060,1324 L1065,1324 L1065,1324 Z M1217,1324 L1217,1348 L1212,1348 L1212,1324 L1217,1324 L1217,1324 Z M1369,1324 L1369,1348 L1364,1348 L1364,1324 L1369,1324 L1369,1324 Z M1520,1324 L1520,1348 L1515,1348 L1515,1324 L1520,1324 L1520,1324 Z M1672,1324 L1672,1348 L1667,1348 L1667,1324 L1672,1324 L1672,1324 Z M1824,1324 L1824,1348 L1819,1348 L1819,1324 L1824,1324 L1824,1324 Z M1976,1324 L1976,1348 L1971,1348 L1971,1324 L1976,1324 L1976,1324 Z M2127,1324 L2127,1348 L2122,1348 L2122,1324 L2127,1324 L2127,1324 Z M2279,1324 L2279,1348 L2274,1348 L2274,1324 L2279,1324 L2279,1324 Z M2431,1324 L2431,1348 L2426,1348 L2426,1324 L2431,1324 L2431,1324 Z M2583,1324 L2583,1348 L2578,1348 L2578,1324 L2583,1324 L2583,1324 Z M2734,1324 L2734,1348 L2729,1348 L2729,1324 L2734,1324 L2734,1324 Z M2886,1324 L2886,1348 L2881,1348 L2881,1324 L2886,1324 L2886,1324 Z" id="Shape" fill="#868686" sketch:type="MSShapeGroup"></path>
                            <path d="M377,1280 L529,1212 L530,1211 L681,1177 L832,1126 L831,1127 L983,1048 L1135,956 L1136,956 L1287,897 L1440,859 L1591,809 L1743,758 L1894,708 L1893,709 L2045,628 L2198,561 L2351,511 L2501,461 L2500,462 L2652,385 L2653,385 L2654,384 L2806,351 L2810,351 L2813,352 L2815,354 L2816,357 L2816,361 L2815,364 L2813,366 L2810,367 L2658,400 L2660,399 L2508,476 L2507,476 L2506,477 L2355,527 L2204,575 L2053,642 L1901,723 L1900,723 L1899,724 L1596,825 L1444,875 L1293,911 L1142,970 L1143,970 L991,1062 L839,1141 L838,1141 L838,1142 L685,1193 L534,1227 L535,1226 L383,1294 L380,1295 L374,1293 L372,1287 L374,1281 L377,1280 L377,1280 Z" id="Shape" fill="#C00000" sketch:type="MSShapeGroup"></path>
                            <path d="M1015,1234 L1046,1228 L1053,1230 L1055,1232 L1056,1235 L1056,1238 L1054,1241 L1052,1243 L1049,1244 L1018,1250 L1012,1248 L1009,1246 L1008,1243 L1010,1237 L1012,1235 L1015,1234 L1015,1234 Z M1078,1223 L1109,1217 L1113,1217 L1116,1218 L1118,1221 L1119,1224 L1119,1227 L1117,1230 L1115,1232 L1112,1233 L1081,1238 L1078,1238 L1075,1237 L1072,1235 L1071,1232 L1073,1226 L1075,1224 L1078,1223 L1078,1223 Z M1969,1131 L2001,1126 L2007,1128 L2009,1130 L2010,1133 L2010,1136 L2008,1139 L2006,1141 L2003,1142 L1971,1147 L1968,1147 L1965,1145 L1963,1143 L1962,1140 L1962,1137 L1963,1134 L1966,1132 L1969,1131 L1969,1131 Z M2159,1104 L2191,1099 L2197,1101 L2199,1103 L2200,1106 L2200,1110 L2196,1114 L2193,1115 L2161,1120 L2158,1120 L2155,1118 L2153,1116 L2152,1113 L2154,1107 L2156,1105 L2159,1104 L2159,1104 Z M2541,1066 L2573,1061 L2579,1063 L2581,1065 L2582,1068 L2582,1072 L2578,1076 L2575,1077 L2543,1082 L2540,1082 L2537,1080 L2535,1078 L2534,1075 L2536,1069 L2538,1067 L2541,1066 L2541,1066 Z M825,1260 L834,1259 L857,1256 L860,1256 L863,1258 L865,1260 L866,1263 L866,1266 L864,1269 L862,1271 L859,1272 L836,1275 L827,1276 L824,1276 L821,1274 L819,1272 L818,1269 L820,1263 L822,1261 L825,1260 L825,1260 Z M952,1244 L984,1239 L990,1241 L992,1243 L993,1246 L993,1250 L989,1254 L986,1255 L954,1259 L951,1259 L948,1258 L946,1255 L945,1252 L945,1249 L946,1247 L949,1245 L952,1244 L952,1244 Z M1141,1212 L1173,1208 L1179,1210 L1182,1215 L1182,1218 L1180,1221 L1175,1224 L1143,1228 L1137,1226 L1135,1223 L1134,1220 L1135,1217 L1136,1215 L1138,1213 L1141,1212 L1141,1212 Z M2032,1121 L2064,1117 L2067,1117 L2070,1118 L2072,1121 L2073,1124 L2073,1127 L2071,1130 L2069,1132 L2066,1133 L2050,1135 L2035,1137 L2032,1137 L2029,1136 L2026,1134 L2025,1131 L2027,1125 L2029,1122 L2032,1121 L2032,1121 Z M1906,1141 L1937,1136 L1941,1136 L1943,1137 L1945,1139 L1946,1142 L1946,1146 L1945,1149 L1943,1151 L1940,1152 L1908,1156 L1905,1156 L1902,1155 L1900,1153 L1899,1150 L1899,1147 L1900,1144 L1903,1142 L1906,1141 L1906,1141 Z M888,1252 L920,1248 L924,1248 L926,1249 L928,1252 L929,1255 L929,1258 L928,1261 L925,1263 L922,1264 L891,1268 L888,1268 L885,1266 L883,1264 L882,1261 L882,1258 L883,1255 L885,1253 L888,1252 L888,1252 Z M2096,1112 L2127,1108 L2131,1108 L2135,1112 L2136,1115 L2136,1118 L2135,1121 L2133,1123 L2130,1124 L2098,1128 L2095,1128 L2092,1127 L2090,1124 L2089,1121 L2089,1118 L2090,1115 L2093,1113 L2096,1112 L2096,1112 Z M2604,1057 L2636,1053 L2640,1053 L2642,1054 L2644,1056 L2645,1059 L2645,1063 L2644,1065 L2641,1067 L2638,1068 L2607,1073 L2604,1073 L2601,1071 L2599,1069 L2598,1066 L2598,1063 L2599,1060 L2601,1058 L2604,1057 L2604,1057 Z M1205,1204 L1237,1201 L1240,1201 L1243,1203 L1245,1205 L1246,1208 L1246,1211 L1244,1214 L1242,1216 L1239,1217 L1207,1220 L1204,1220 L1201,1219 L1199,1216 L1198,1213 L1198,1210 L1200,1207 L1202,1205 L1205,1204 L1205,1204 Z M1269,1197 L1289,1195 L1301,1194 L1307,1196 L1309,1202 L1309,1205 L1307,1208 L1305,1209 L1302,1210 L1291,1211 L1270,1213 L1267,1213 L1264,1212 L1262,1209 L1261,1206 L1263,1200 L1266,1198 L1269,1197 L1269,1197 Z M1460,1184 L1492,1181 L1498,1183 L1500,1185 L1501,1188 L1501,1191 L1499,1194 L1494,1197 L1462,1200 L1459,1200 L1456,1198 L1454,1196 L1453,1193 L1455,1187 L1460,1184 L1460,1184 Z M1588,1172 L1593,1171 L1619,1168 L1623,1169 L1625,1170 L1627,1172 L1628,1175 L1628,1179 L1624,1183 L1621,1184 L1595,1187 L1586,1187 L1583,1186 L1581,1183 L1580,1180 L1581,1177 L1582,1175 L1585,1173 L1588,1172 L1588,1172 Z M1651,1165 L1683,1162 L1686,1162 L1689,1163 L1691,1166 L1692,1169 L1692,1172 L1690,1175 L1688,1176 L1685,1177 L1653,1181 L1650,1181 L1647,1179 L1645,1177 L1644,1174 L1646,1168 L1648,1166 L1651,1165 L1651,1165 Z M1779,1152 L1811,1149 L1817,1151 L1819,1157 L1819,1160 L1817,1163 L1815,1164 L1812,1165 L1780,1168 L1777,1168 L1774,1166 L1772,1164 L1771,1161 L1773,1155 L1779,1152 L1779,1152 Z M1842,1147 L1874,1144 L1878,1145 L1880,1146 L1882,1148 L1883,1151 L1883,1154 L1881,1157 L1876,1160 L1844,1163 L1838,1161 L1835,1155 L1836,1152 L1837,1150 L1839,1148 L1842,1147 L1842,1147 Z M762,1266 L793,1263 L797,1263 L801,1267 L802,1270 L802,1273 L800,1276 L798,1278 L795,1279 L763,1282 L757,1280 L755,1277 L754,1274 L755,1271 L756,1269 L759,1267 L762,1266 L762,1266 Z M507,1289 L531,1287 L538,1286 L542,1287 L544,1288 L546,1291 L547,1294 L547,1297 L545,1300 L543,1301 L540,1302 L533,1303 L508,1305 L505,1305 L502,1304 L500,1301 L499,1298 L501,1292 L504,1290 L507,1289 L507,1289 Z M379,1302 L411,1299 L414,1299 L417,1301 L419,1303 L420,1306 L420,1309 L418,1312 L416,1314 L413,1315 L381,1318 L378,1318 L375,1316 L373,1314 L372,1311 L374,1305 L376,1303 L379,1302 L379,1302 Z M570,1283 L602,1280 L608,1282 L611,1288 L611,1291 L609,1294 L607,1295 L604,1296 L572,1299 L569,1299 L566,1297 L563,1292 L565,1286 L567,1284 L570,1283 L570,1283 Z M2287,1089 L2318,1086 L2322,1087 L2324,1088 L2326,1091 L2327,1094 L2327,1097 L2325,1100 L2323,1101 L2320,1102 L2288,1105 L2285,1105 L2282,1104 L2280,1101 L2279,1098 L2281,1092 L2284,1090 L2287,1089 L2287,1089 Z M2668,1049 L2700,1046 L2704,1047 L2706,1048 L2708,1051 L2709,1054 L2709,1057 L2707,1060 L2705,1061 L2702,1062 L2670,1065 L2667,1065 L2664,1063 L2662,1061 L2661,1058 L2663,1052 L2665,1050 L2668,1049 L2668,1049 Z M2732,1044 L2764,1041 L2770,1043 L2772,1046 L2773,1049 L2771,1055 L2765,1057 L2733,1060 L2730,1060 L2726,1056 L2725,1053 L2725,1050 L2727,1047 L2729,1045 L2732,1044 L2732,1044 Z M443,1296 L475,1293 L478,1293 L481,1294 L483,1300 L483,1303 L482,1306 L479,1308 L476,1309 L444,1312 L441,1311 L439,1310 L437,1307 L436,1304 L436,1301 L437,1299 L440,1297 L443,1296 L443,1296 Z M2223,1096 L2255,1093 L2258,1093 L2261,1094 L2263,1100 L2263,1103 L2262,1106 L2259,1108 L2256,1109 L2224,1112 L2221,1112 L2217,1108 L2216,1105 L2216,1102 L2217,1099 L2220,1097 L2223,1096 L2223,1096 Z M2478,1073 L2503,1071 L2509,1070 L2513,1071 L2515,1072 L2517,1074 L2518,1077 L2518,1080 L2517,1083 L2515,1085 L2512,1086 L2505,1087 L2479,1089 L2476,1089 L2472,1085 L2471,1082 L2471,1079 L2473,1076 L2475,1074 L2478,1073 L2478,1073 Z M698,1272 L730,1269 L733,1269 L736,1270 L738,1276 L738,1279 L737,1282 L734,1284 L731,1285 L699,1288 L696,1287 L694,1286 L692,1283 L691,1280 L691,1277 L692,1275 L695,1273 L698,1272 L698,1272 Z M1715,1158 L1745,1155 L1750,1155 L1753,1157 L1754,1159 L1755,1162 L1755,1165 L1754,1168 L1751,1170 L1748,1171 L1747,1171 L1716,1174 L1713,1174 L1709,1170 L1708,1167 L1708,1164 L1709,1161 L1712,1159 L1715,1158 L1715,1158 Z M1524,1178 L1556,1175 L1559,1175 L1562,1176 L1564,1182 L1564,1185 L1563,1188 L1560,1190 L1557,1191 L1525,1194 L1522,1194 L1518,1190 L1517,1187 L1517,1184 L1518,1181 L1521,1179 L1524,1178 L1524,1178 Z M1397,1189 L1429,1187 L1432,1187 L1435,1189 L1436,1191 L1437,1194 L1437,1197 L1435,1200 L1430,1203 L1398,1205 L1392,1203 L1390,1200 L1389,1197 L1390,1194 L1391,1192 L1394,1190 L1397,1189 L1397,1189 Z M634,1277 L666,1275 L669,1275 L672,1276 L674,1279 L675,1282 L673,1288 L667,1290 L636,1293 L633,1293 L630,1292 L628,1289 L627,1286 L627,1283 L629,1280 L631,1278 L634,1277 L634,1277 Z M2350,1083 L2352,1083 L2382,1081 L2386,1081 L2390,1085 L2391,1088 L2391,1091 L2389,1094 L2387,1096 L2384,1097 L2354,1099 L2349,1099 L2346,1097 L2344,1095 L2343,1092 L2345,1086 L2347,1084 L2350,1083 L2350,1083 Z M2414,1078 L2446,1076 L2449,1076 L2452,1077 L2454,1080 L2455,1083 L2453,1089 L2447,1091 L2415,1094 L2412,1094 L2408,1090 L2407,1087 L2407,1084 L2409,1081 L2411,1079 L2414,1078 L2414,1078 Z M1333,1192 L1365,1191 L1368,1191 L1371,1193 L1372,1195 L1373,1198 L1373,1201 L1371,1204 L1369,1206 L1366,1207 L1334,1208 L1331,1208 L1328,1206 L1326,1204 L1325,1201 L1327,1195 L1333,1192 L1333,1192 Z M2796,1039 L2807,1038 L2811,1039 L2813,1040 L2815,1042 L2816,1045 L2816,1049 L2812,1053 L2809,1054 L2797,1055 L2794,1054 L2792,1053 L2790,1050 L2789,1047 L2789,1044 L2793,1040 L2796,1039 L2796,1039 Z" id="Shape" fill="#C00000" sketch:type="MSShapeGroup"></path>
                            <path d="M377,1153 L529,1080 L679,992 L832,930 L984,871 L1136,807 L1287,744 L1439,685 L1591,628 L1743,560 L1893,477 L2045,385 L2046,385 L2046,384 L2198,333 L2351,284 L2502,236 L2653,172 L2805,108 L2808,107 L2814,109 L2816,115 L2814,121 L2811,122 L2659,186 L2506,252 L2355,300 L2204,349 L2052,400 L2053,399 L1901,491 L1749,574 L1597,643 L1445,699 L1293,758 L1142,821 L990,886 L838,944 L687,1006 L535,1094 L383,1167 L380,1168 L377,1167 L375,1166 L373,1163 L372,1160 L373,1157 L374,1155 L377,1153 L377,1153 Z" id="Shape" fill="#376092" sketch:type="MSShapeGroup"></path>
                            <path d="M569,1256 L601,1251 L607,1253 L609,1255 L610,1258 L610,1261 L609,1264 L606,1266 L603,1267 L572,1272 L569,1272 L566,1271 L563,1268 L562,1265 L564,1259 L566,1257 L569,1256 L569,1256 Z M1014,1202 L1045,1197 L1049,1198 L1052,1199 L1054,1201 L1055,1204 L1055,1208 L1051,1212 L1048,1213 L1016,1218 L1013,1218 L1010,1216 L1008,1214 L1007,1211 L1007,1208 L1008,1205 L1011,1203 L1014,1202 L1014,1202 Z M1077,1193 L1109,1188 L1115,1190 L1117,1192 L1118,1195 L1118,1198 L1116,1201 L1114,1203 L1111,1204 L1079,1209 L1076,1209 L1073,1207 L1071,1205 L1070,1202 L1072,1196 L1074,1194 L1077,1193 L1077,1193 Z M1903,1092 L1934,1087 L1938,1088 L1941,1089 L1943,1091 L1944,1094 L1944,1098 L1940,1102 L1937,1103 L1905,1108 L1902,1108 L1899,1106 L1897,1104 L1896,1101 L1896,1098 L1897,1095 L1900,1093 L1903,1092 L1903,1092 Z M1966,1083 L1998,1078 L2004,1080 L2006,1082 L2007,1085 L2007,1088 L2005,1091 L2003,1093 L2000,1094 L1968,1099 L1965,1099 L1962,1097 L1960,1095 L1959,1092 L1961,1086 L1963,1084 L1966,1083 L1966,1083 Z M1776,1112 L1808,1107 L1811,1107 L1814,1108 L1816,1111 L1817,1114 L1817,1117 L1816,1120 L1813,1122 L1810,1123 L1779,1128 L1776,1128 L1773,1127 L1771,1124 L1770,1121 L1770,1118 L1771,1115 L1773,1113 L1776,1112 L1776,1112 Z M1839,1102 L1871,1097 L1874,1097 L1877,1098 L1879,1101 L1880,1104 L1880,1107 L1879,1110 L1877,1112 L1874,1113 L1842,1118 L1839,1118 L1836,1117 L1834,1114 L1833,1111 L1833,1108 L1834,1105 L1836,1103 L1839,1102 L1839,1102 Z M506,1265 L531,1262 L538,1261 L541,1261 L544,1262 L546,1265 L547,1268 L547,1271 L545,1274 L543,1276 L540,1277 L533,1278 L508,1281 L505,1281 L502,1279 L500,1277 L499,1274 L499,1271 L501,1268 L503,1266 L506,1265 L506,1265 Z M1587,1139 L1593,1138 L1618,1135 L1621,1135 L1624,1136 L1626,1138 L1627,1141 L1627,1145 L1626,1147 L1623,1149 L1620,1150 L1595,1154 L1588,1155 L1585,1155 L1582,1153 L1580,1151 L1579,1148 L1581,1142 L1584,1140 L1587,1139 L1587,1139 Z M1713,1121 L1745,1117 L1748,1117 L1751,1119 L1753,1121 L1754,1124 L1754,1127 L1752,1130 L1750,1132 L1747,1133 L1715,1137 L1712,1137 L1709,1136 L1707,1133 L1706,1130 L1708,1124 L1710,1122 L1713,1121 L1713,1121 Z M379,1281 L411,1277 L417,1279 L419,1281 L420,1284 L420,1287 L418,1290 L416,1292 L413,1293 L381,1297 L378,1297 L375,1295 L373,1293 L372,1290 L372,1287 L374,1284 L376,1282 L379,1281 L379,1281 Z M2540,1032 L2572,1028 L2578,1030 L2580,1032 L2581,1035 L2581,1039 L2577,1043 L2574,1044 L2542,1048 L2539,1048 L2536,1047 L2534,1044 L2533,1041 L2533,1038 L2534,1035 L2537,1033 L2540,1032 L2540,1032 Z M1141,1184 L1173,1180 L1179,1182 L1180,1184 L1181,1187 L1181,1191 L1180,1193 L1177,1195 L1174,1196 L1142,1200 L1139,1200 L1135,1196 L1134,1193 L1134,1190 L1135,1187 L1138,1185 L1141,1184 L1141,1184 Z M1650,1130 L1681,1126 L1685,1126 L1687,1127 L1689,1130 L1690,1133 L1690,1136 L1689,1139 L1687,1141 L1684,1142 L1652,1146 L1649,1146 L1646,1145 L1644,1142 L1643,1139 L1643,1136 L1644,1133 L1647,1131 L1650,1130 L1650,1130 Z M760,1230 L791,1226 L795,1227 L797,1228 L799,1230 L800,1233 L800,1236 L799,1239 L796,1241 L793,1242 L761,1246 L758,1246 L754,1242 L753,1239 L753,1236 L754,1233 L757,1231 L760,1230 L760,1230 Z M442,1273 L474,1269 L478,1270 L480,1271 L482,1273 L483,1276 L483,1279 L482,1282 L479,1284 L476,1285 L444,1289 L441,1289 L437,1285 L436,1282 L436,1279 L437,1276 L439,1274 L442,1273 L442,1273 Z M632,1247 L664,1242 L667,1242 L670,1243 L672,1245 L673,1248 L673,1252 L672,1255 L669,1257 L666,1258 L635,1262 L632,1262 L629,1261 L627,1259 L626,1256 L626,1253 L627,1250 L629,1248 L632,1247 L632,1247 Z M2029,1074 L2048,1071 L2062,1070 L2068,1072 L2070,1078 L2070,1081 L2068,1084 L2066,1085 L2063,1086 L2050,1087 L2032,1090 L2029,1090 L2026,1088 L2024,1086 L2023,1083 L2023,1080 L2024,1077 L2026,1075 L2029,1074 L2029,1074 Z M887,1216 L919,1213 L922,1213 L925,1214 L927,1217 L928,1220 L926,1226 L923,1228 L920,1229 L889,1232 L886,1232 L883,1230 L881,1228 L880,1225 L880,1222 L882,1219 L884,1217 L887,1216 L887,1216 Z M1204,1177 L1236,1174 L1240,1174 L1242,1175 L1244,1178 L1245,1181 L1245,1184 L1243,1187 L1241,1189 L1238,1190 L1206,1193 L1203,1193 L1200,1191 L1198,1189 L1197,1186 L1199,1180 L1201,1178 L1204,1177 L1204,1177 Z M951,1210 L982,1206 L986,1207 L988,1208 L990,1211 L991,1214 L991,1217 L989,1220 L987,1221 L984,1222 L952,1225 L949,1225 L946,1224 L944,1221 L943,1218 L944,1215 L945,1213 L948,1211 L951,1210 L951,1210 Z M696,1237 L728,1234 L731,1234 L734,1235 L736,1238 L737,1241 L737,1244 L735,1247 L733,1248 L730,1249 L698,1253 L695,1253 L692,1252 L690,1249 L689,1246 L689,1243 L691,1240 L693,1238 L696,1237 L696,1237 Z M1268,1170 L1289,1168 L1300,1167 L1306,1169 L1308,1171 L1309,1174 L1309,1178 L1305,1182 L1302,1183 L1291,1184 L1270,1186 L1267,1186 L1264,1184 L1262,1182 L1261,1179 L1263,1173 L1265,1171 L1268,1170 L1268,1170 Z M1396,1158 L1427,1155 L1431,1156 L1433,1157 L1435,1159 L1436,1162 L1436,1166 L1432,1170 L1429,1171 L1397,1174 L1394,1174 L1391,1172 L1389,1170 L1388,1167 L1390,1161 L1393,1159 L1396,1158 L1396,1158 Z M1459,1152 L1491,1149 L1494,1149 L1497,1150 L1499,1153 L1500,1156 L1500,1159 L1498,1162 L1496,1164 L1493,1165 L1461,1168 L1458,1168 L1455,1166 L1453,1164 L1452,1161 L1454,1155 L1456,1153 L1459,1152 L1459,1152 Z M2221,1059 L2253,1056 L2259,1058 L2262,1064 L2262,1067 L2260,1070 L2258,1071 L2255,1072 L2223,1075 L2220,1075 L2217,1073 L2215,1071 L2214,1068 L2216,1062 L2221,1059 L2221,1059 Z M2285,1054 L2317,1051 L2323,1053 L2325,1055 L2326,1058 L2325,1062 L2324,1064 L2321,1066 L2318,1067 L2286,1070 L2283,1069 L2281,1068 L2279,1065 L2278,1062 L2278,1059 L2282,1055 L2285,1054 L2285,1054 Z M2413,1044 L2445,1041 L2451,1043 L2453,1049 L2453,1052 L2451,1055 L2449,1056 L2446,1057 L2414,1060 L2408,1058 L2406,1055 L2405,1052 L2406,1049 L2407,1047 L2410,1045 L2413,1044 L2413,1044 Z M2477,1039 L2503,1037 L2508,1036 L2514,1038 L2516,1040 L2517,1043 L2517,1047 L2513,1051 L2510,1052 L2505,1053 L2478,1055 L2472,1053 L2469,1047 L2470,1044 L2471,1042 L2474,1040 L2477,1039 L2477,1039 Z M823,1222 L834,1221 L855,1219 L861,1221 L863,1223 L864,1226 L864,1229 L862,1232 L857,1235 L836,1237 L825,1238 L822,1238 L819,1237 L817,1234 L816,1231 L818,1225 L820,1223 L823,1222 L823,1222 Z M2603,1024 L2635,1021 L2638,1021 L2641,1022 L2643,1024 L2644,1027 L2644,1031 L2640,1035 L2637,1036 L2605,1040 L2602,1040 L2599,1039 L2597,1036 L2596,1033 L2598,1027 L2600,1025 L2603,1024 L2603,1024 Z M1523,1145 L1555,1142 L1561,1144 L1562,1146 L1563,1149 L1563,1153 L1562,1155 L1559,1157 L1556,1158 L1525,1161 L1522,1161 L1519,1160 L1517,1157 L1516,1154 L1516,1151 L1517,1148 L1520,1146 L1523,1145 L1523,1145 Z M1332,1164 L1364,1161 L1370,1163 L1371,1165 L1372,1168 L1372,1172 L1371,1174 L1368,1176 L1365,1177 L1333,1180 L1330,1180 L1326,1176 L1325,1173 L1325,1170 L1327,1167 L1329,1165 L1332,1164 L1332,1164 Z M2158,1064 L2190,1062 L2193,1062 L2196,1064 L2197,1066 L2198,1069 L2198,1072 L2196,1075 L2191,1078 L2159,1080 L2153,1078 L2151,1075 L2150,1072 L2151,1069 L2152,1067 L2155,1065 L2158,1064 L2158,1064 Z M2094,1068 L2126,1066 L2132,1068 L2133,1070 L2134,1073 L2134,1077 L2130,1081 L2127,1082 L2095,1084 L2092,1084 L2089,1082 L2086,1077 L2088,1071 L2091,1069 L2094,1068 L2094,1068 Z M2667,1017 L2699,1015 L2703,1016 L2705,1017 L2707,1020 L2708,1023 L2706,1029 L2700,1031 L2668,1033 L2665,1033 L2661,1029 L2660,1026 L2662,1020 L2664,1018 L2667,1017 L2667,1017 Z M2731,1013 L2763,1011 L2769,1013 L2772,1018 L2771,1022 L2770,1024 L2767,1026 L2764,1027 L2732,1029 L2729,1029 L2725,1025 L2724,1022 L2726,1016 L2728,1014 L2731,1013 L2731,1013 Z M2349,1048 L2352,1048 L2381,1046 L2387,1048 L2388,1050 L2389,1053 L2389,1057 L2385,1061 L2382,1062 L2354,1064 L2347,1064 L2343,1060 L2342,1057 L2342,1054 L2343,1051 L2346,1049 L2349,1048 L2349,1048 Z M2795,1009 L2807,1008 L2811,1009 L2813,1010 L2815,1012 L2816,1015 L2815,1019 L2814,1021 L2811,1023 L2808,1024 L2796,1025 L2793,1024 L2791,1023 L2789,1020 L2788,1017 L2788,1014 L2792,1010 L2795,1009 L2795,1009 Z" id="Shape" fill="#376092" sketch:type="MSShapeGroup"></path>
                            <text id="0" fill="#000000" sketch:type="MSTextLayer" font-family="Calibri" font-size="48.9894707" font-weight="normal">
                                <tspan x="200" y="1347">0</tspan>
                            </text>
                            <text id="500" fill="#000000" sketch:type="MSTextLayer" font-family="Calibri" font-size="48.9894707" font-weight="normal">
                                <tspan x="126" y="1130">500</tspan>
                            </text>
                            <text id="1000" fill="#000000" sketch:type="MSTextLayer" font-family="Calibri" font-size="48.9894707" font-weight="normal">
                                <tspan x="89" y="913">1000</tspan>
                            </text>
                            <text id="1500" fill="#000000" sketch:type="MSTextLayer" font-family="Calibri" font-size="48.9894707" font-weight="normal">
                                <tspan x="89" y="697">1500</tspan>
                            </text>
                            <text id="2000" fill="#000000" sketch:type="MSTextLayer" font-family="Calibri" font-size="48.9894707" font-weight="normal">
                                <tspan x="89" y="480">2000</tspan>
                            </text>
                            <text id="2500" fill="#000000" sketch:type="MSTextLayer" font-family="Calibri" font-size="48.9894707" font-weight="normal">
                                <tspan x="89" y="264">2500</tspan>
                            </text>
                            <text id="3000" fill="#000000" sketch:type="MSTextLayer" font-family="Calibri" font-size="48.9894707" font-weight="normal">
                                <tspan x="89" y="47">3000</tspan>
                            </text>
                            <path d="M258,1557 L259,1558 L260,1558 L260,1559 L258,1561 L258,1562 L257,1562 L257,1563 L255,1563 L244,1558 L231,1571 L236,1582 L236,1583 L234,1585 L234,1586 L231,1586 L231,1585 L211,1544 L211,1542 L212,1542 L212,1541 L213,1541 L213,1540 L214,1540 L215,1539 L215,1538 L217,1538 L258,1557 L258,1557 Z M218,1545 L228,1567 L240,1555 L218,1545 L218,1545 Z M367,1448 L368,1449 L368,1451 L351,1468 L349,1468 L348,1467 L348,1466 L347,1466 L347,1465 L354,1458 L329,1433 L327,1443 L327,1444 L325,1444 L323,1442 L323,1441 L326,1428 L326,1427 L327,1427 L327,1426 L328,1426 L328,1425 L329,1425 L329,1424 L330,1425 L359,1453 L364,1447 L366,1447 L366,1448 L367,1448 L367,1448 Z M386,1415 L388,1417 L389,1419 L390,1422 L390,1425 L389,1428 L388,1430 L384,1436 L380,1440 L378,1441 L377,1441 L375,1442 L372,1442 L371,1441 L371,1440 L370,1440 L369,1439 L370,1438 L371,1438 L373,1437 L374,1437 L376,1436 L377,1435 L379,1434 L382,1431 L384,1427 L384,1422 L383,1421 L382,1419 L381,1418 L379,1417 L375,1417 L369,1420 L364,1425 L362,1425 L360,1423 L360,1422 L365,1417 L366,1415 L367,1414 L367,1411 L365,1407 L362,1404 L361,1404 L359,1403 L358,1404 L357,1404 L356,1405 L354,1406 L353,1408 L352,1409 L351,1411 L351,1412 L350,1414 L350,1416 L348,1416 L346,1414 L346,1410 L347,1408 L348,1407 L351,1401 L354,1400 L356,1398 L358,1397 L363,1397 L367,1399 L370,1402 L372,1406 L372,1411 L371,1413 L370,1414 L374,1412 L376,1412 L378,1411 L380,1412 L382,1412 L384,1414 L386,1415 L386,1415 Z M276,1524 L278,1527 L280,1533 L280,1538 L276,1544 L275,1545 L274,1545 L273,1546 L272,1546 L271,1547 L266,1547 L278,1559 L277,1560 L277,1561 L276,1561 L276,1562 L275,1562 L275,1563 L273,1563 L273,1562 L241,1531 L241,1530 L243,1528 L243,1527 L245,1527 L248,1530 L248,1526 L249,1525 L249,1523 L250,1522 L250,1520 L252,1518 L255,1516 L257,1515 L260,1514 L263,1514 L266,1516 L268,1517 L271,1519 L276,1524 L276,1524 Z M270,1526 L268,1525 L266,1523 L260,1520 L258,1520 L257,1521 L255,1522 L254,1523 L254,1524 L253,1526 L253,1527 L252,1528 L252,1532 L253,1534 L262,1543 L265,1543 L268,1542 L272,1540 L273,1539 L275,1535 L272,1529 L271,1528 L270,1526 L270,1526 Z M326,1492 L326,1493 L323,1496 L322,1496 L288,1462 L288,1461 L289,1460 L289,1459 L290,1459 L291,1458 L292,1458 L326,1492 L326,1492 Z M284,1493 L285,1493 L285,1495 L283,1495 L283,1496 L282,1496 L281,1497 L281,1498 L280,1498 L280,1505 L281,1507 L295,1522 L296,1523 L296,1524 L295,1524 L295,1525 L294,1525 L294,1526 L293,1526 L292,1527 L269,1504 L268,1504 L268,1503 L271,1500 L272,1500 L276,1503 L275,1501 L275,1496 L276,1495 L276,1494 L277,1494 L277,1493 L278,1492 L279,1492 L279,1491 L280,1491 L281,1490 L282,1490 L282,1491 L284,1493 L284,1493 Z M314,1504 L314,1506 L313,1506 L313,1507 L312,1507 L312,1508 L310,1508 L310,1509 L287,1486 L287,1485 L286,1485 L287,1485 L287,1484 L288,1484 L288,1483 L289,1482 L290,1482 L290,1481 L291,1481 L314,1504 L314,1504 Z M332,1463 L332,1465 L321,1476 L319,1474 L318,1474 L318,1472 L329,1461 L330,1461 L332,1463 L332,1463 Z M284,1473 L285,1475 L285,1477 L283,1479 L281,1480 L280,1480 L278,1478 L277,1476 L278,1475 L279,1473 L280,1472 L283,1472 L284,1473 L284,1473 Z" id="Shape" fill="#000000" sketch:type="MSShapeGroup"></path>
                            <path d="M429,1541 L429,1542 L426,1545 L424,1545 L396,1517 L413,1557 L413,1558 L411,1560 L410,1560 L410,1561 L409,1561 L369,1543 L397,1572 L398,1572 L398,1573 L396,1575 L396,1576 L393,1576 L362,1545 L362,1544 L363,1543 L363,1542 L366,1540 L367,1539 L367,1538 L371,1538 L372,1539 L405,1553 L391,1520 L391,1515 L392,1514 L392,1513 L395,1511 L395,1510 L398,1510 L429,1541 L429,1541 Z M541,1419 L542,1422 L542,1425 L541,1428 L540,1430 L536,1436 L534,1438 L532,1439 L531,1440 L529,1441 L528,1441 L527,1442 L524,1442 L521,1439 L521,1438 L523,1438 L524,1437 L525,1437 L529,1435 L535,1429 L536,1427 L536,1424 L535,1422 L534,1421 L533,1419 L532,1418 L530,1417 L527,1417 L521,1420 L516,1425 L514,1425 L512,1423 L512,1422 L517,1417 L518,1415 L519,1414 L519,1411 L517,1407 L514,1404 L513,1404 L511,1403 L510,1404 L508,1404 L506,1406 L505,1408 L504,1409 L503,1411 L502,1412 L502,1415 L501,1416 L499,1416 L499,1415 L498,1415 L498,1413 L497,1413 L497,1412 L498,1411 L498,1410 L499,1408 L500,1407 L500,1405 L502,1403 L503,1401 L506,1400 L508,1398 L510,1397 L514,1397 L520,1400 L522,1402 L524,1406 L524,1411 L523,1413 L522,1414 L526,1412 L528,1412 L530,1411 L532,1412 L534,1412 L541,1419 L541,1419 Z M473,1498 L478,1509 L478,1511 L476,1513 L476,1514 L473,1514 L473,1513 L468,1502 L467,1502 L437,1489 L437,1488 L436,1488 L436,1486 L437,1486 L437,1485 L438,1485 L439,1484 L439,1483 L440,1483 L441,1484 L465,1495 L466,1495 L454,1471 L453,1470 L457,1466 L458,1466 L458,1467 L473,1498 L473,1498 Z M519,1448 L519,1449 L520,1449 L520,1451 L503,1468 L501,1468 L499,1466 L499,1465 L506,1458 L481,1433 L479,1443 L479,1444 L477,1444 L475,1442 L475,1441 L477,1428 L478,1428 L478,1427 L479,1427 L479,1426 L480,1426 L480,1425 L481,1425 L481,1424 L481,1425 L482,1425 L510,1453 L516,1447 L518,1447 L518,1448 L519,1448 L519,1448 Z M454,1516 L454,1517 L451,1520 L448,1517 L448,1520 L446,1526 L444,1528 L440,1530 L439,1531 L437,1532 L435,1532 L429,1529 L428,1527 L427,1524 L426,1522 L428,1518 L429,1515 L431,1512 L436,1507 L431,1502 L428,1502 L426,1504 L424,1505 L423,1507 L422,1508 L421,1510 L420,1511 L420,1512 L419,1513 L419,1515 L418,1515 L418,1514 L416,1514 L416,1512 L415,1512 L415,1510 L416,1509 L416,1508 L418,1506 L419,1504 L420,1503 L421,1501 L424,1499 L426,1497 L428,1496 L432,1496 L434,1497 L436,1499 L438,1500 L454,1516 L454,1516 Z M439,1510 L433,1516 L432,1518 L432,1522 L433,1523 L433,1524 L437,1526 L441,1524 L443,1522 L444,1520 L444,1514 L439,1510 L439,1510 Z M484,1463 L484,1465 L473,1475 L473,1476 L472,1476 L472,1475 L471,1474 L470,1474 L470,1472 L481,1461 L482,1461 L484,1463 L484,1463 Z" id="Shape" fill="#000000" sketch:type="MSShapeGroup"></path>
                            <path d="M672,1449 L672,1451 L655,1468 L653,1468 L653,1467 L652,1467 L651,1466 L651,1464 L658,1457 L633,1433 L631,1443 L630,1444 L629,1444 L627,1442 L627,1440 L629,1428 L630,1428 L630,1426 L631,1426 L633,1424 L634,1424 L662,1453 L668,1447 L670,1447 L672,1449 L672,1449 Z M689,1415 L691,1417 L692,1420 L693,1422 L693,1425 L691,1431 L689,1434 L683,1440 L681,1441 L680,1442 L675,1442 L675,1441 L674,1441 L673,1440 L673,1438 L676,1438 L677,1437 L679,1436 L680,1435 L682,1434 L685,1431 L686,1429 L687,1428 L687,1423 L686,1422 L685,1420 L684,1419 L680,1417 L678,1418 L676,1418 L674,1419 L672,1421 L670,1422 L667,1425 L667,1426 L666,1426 L665,1425 L664,1425 L664,1424 L663,1423 L663,1422 L664,1422 L666,1419 L668,1418 L670,1414 L670,1409 L669,1408 L668,1406 L667,1405 L665,1404 L660,1404 L659,1405 L657,1406 L656,1408 L655,1409 L654,1411 L654,1412 L653,1414 L653,1417 L652,1417 L652,1416 L651,1416 L649,1414 L649,1411 L650,1410 L650,1408 L651,1407 L652,1405 L653,1404 L654,1402 L657,1400 L659,1398 L662,1398 L664,1397 L666,1397 L670,1399 L672,1401 L673,1403 L674,1404 L675,1406 L675,1411 L673,1415 L679,1412 L683,1412 L689,1415 L689,1415 Z M604,1517 L604,1519 L603,1519 L603,1520 L602,1520 L602,1521 L601,1521 L601,1522 L600,1522 L585,1507 L583,1506 L582,1505 L580,1504 L579,1504 L577,1505 L576,1505 L573,1508 L572,1510 L572,1517 L588,1533 L589,1533 L589,1534 L588,1534 L588,1535 L586,1537 L584,1537 L561,1514 L561,1513 L562,1513 L562,1512 L563,1512 L563,1511 L564,1511 L564,1510 L565,1510 L565,1511 L568,1514 L568,1510 L570,1504 L574,1500 L576,1499 L579,1498 L581,1498 L585,1500 L588,1502 L590,1504 L604,1517 L604,1517 Z M576,1545 L577,1545 L577,1546 L576,1546 L576,1547 L575,1547 L575,1548 L574,1548 L574,1549 L573,1549 L573,1548 L570,1545 L570,1549 L568,1555 L564,1559 L560,1561 L557,1561 L553,1559 L551,1557 L548,1555 L534,1542 L534,1540 L535,1540 L535,1539 L536,1539 L536,1538 L537,1538 L537,1537 L538,1537 L552,1551 L554,1552 L555,1553 L557,1554 L558,1555 L560,1555 L561,1554 L562,1554 L563,1553 L565,1549 L566,1546 L565,1542 L550,1526 L549,1526 L549,1525 L550,1525 L550,1524 L551,1524 L551,1523 L552,1523 L552,1522 L554,1522 L576,1545 L576,1545 Z M543,1567 L546,1573 L546,1575 L544,1579 L542,1581 L542,1582 L541,1582 L540,1583 L539,1583 L539,1584 L536,1584 L533,1581 L533,1580 L534,1580 L535,1579 L537,1579 L538,1578 L538,1577 L539,1577 L540,1576 L540,1573 L513,1546 L513,1544 L516,1541 L517,1541 L543,1567 L543,1567 Z M618,1478 L619,1479 L619,1481 L618,1482 L604,1497 L607,1500 L609,1501 L613,1501 L617,1499 L623,1493 L623,1491 L624,1490 L624,1489 L625,1489 L625,1488 L626,1488 L628,1490 L628,1494 L627,1495 L626,1497 L622,1501 L619,1503 L617,1505 L611,1507 L605,1505 L602,1503 L596,1497 L594,1494 L592,1488 L592,1485 L593,1482 L595,1479 L597,1477 L600,1475 L602,1473 L605,1472 L608,1472 L610,1473 L613,1474 L615,1476 L618,1477 L618,1478 L618,1478 Z M613,1481 L610,1479 L606,1477 L603,1478 L600,1480 L599,1482 L598,1483 L597,1485 L597,1487 L598,1489 L598,1490 L600,1492 L601,1494 L613,1481 L613,1481 Z M635,1462 L636,1463 L636,1465 L635,1465 L625,1476 L623,1476 L622,1475 L622,1474 L621,1473 L621,1472 L632,1462 L632,1461 L633,1461 L633,1462 L635,1462 L635,1462 Z" id="Shape" fill="#000000" sketch:type="MSShapeGroup"></path>
                            <path d="M776,1498 L781,1509 L782,1510 L781,1511 L781,1512 L779,1514 L777,1514 L777,1513 L772,1502 L772,1503 L771,1503 L770,1502 L740,1489 L739,1488 L739,1487 L740,1487 L740,1486 L741,1485 L742,1485 L742,1484 L743,1484 L743,1483 L744,1484 L769,1495 L757,1471 L757,1469 L758,1469 L758,1468 L760,1466 L761,1466 L761,1467 L762,1467 L776,1498 L776,1498 Z M823,1448 L824,1448 L824,1450 L807,1467 L807,1468 L805,1468 L805,1467 L804,1467 L804,1466 L803,1466 L803,1464 L810,1457 L785,1432 L783,1442 L783,1443 L782,1444 L781,1444 L781,1443 L780,1443 L780,1442 L779,1442 L779,1440 L781,1428 L781,1427 L782,1427 L782,1426 L783,1426 L785,1424 L786,1424 L814,1453 L820,1447 L822,1447 L823,1448 L823,1448 Z M841,1415 L843,1417 L844,1420 L845,1422 L845,1425 L844,1428 L843,1430 L839,1436 L835,1440 L833,1441 L832,1442 L827,1442 L827,1441 L826,1441 L826,1440 L825,1440 L825,1438 L826,1438 L828,1437 L829,1437 L831,1436 L832,1435 L834,1434 L837,1431 L838,1429 L839,1428 L839,1422 L836,1419 L832,1417 L830,1417 L826,1419 L824,1421 L822,1422 L818,1426 L818,1425 L817,1425 L815,1423 L815,1422 L816,1422 L818,1419 L820,1417 L821,1415 L822,1414 L822,1411 L821,1409 L820,1408 L819,1406 L817,1404 L816,1404 L815,1403 L814,1404 L812,1404 L811,1405 L809,1406 L808,1408 L807,1409 L806,1411 L806,1412 L805,1414 L805,1416 L803,1416 L801,1414 L801,1411 L802,1410 L802,1408 L803,1407 L804,1405 L805,1404 L806,1402 L809,1400 L811,1398 L813,1397 L818,1397 L824,1400 L827,1406 L827,1411 L825,1415 L827,1414 L829,1412 L837,1412 L839,1414 L841,1415 L841,1415 Z M746,1527 L746,1529 L745,1529 L745,1530 L744,1530 L744,1531 L742,1531 L739,1528 L739,1532 L737,1538 L736,1540 L733,1542 L731,1543 L726,1543 L720,1540 L717,1538 L704,1524 L703,1524 L703,1523 L704,1523 L704,1522 L705,1522 L705,1521 L706,1521 L706,1520 L708,1520 L724,1536 L726,1537 L730,1537 L732,1536 L733,1535 L735,1531 L735,1524 L719,1509 L719,1507 L722,1504 L723,1504 L746,1527 L746,1527 Z M758,1515 L758,1517 L757,1517 L757,1518 L756,1518 L756,1519 L755,1519 L755,1520 L754,1520 L754,1519 L720,1486 L720,1484 L721,1484 L721,1483 L722,1482 L723,1482 L723,1481 L724,1481 L724,1482 L758,1515 L758,1515 Z M714,1551 L715,1553 L715,1559 L714,1561 L709,1566 L705,1566 L703,1564 L703,1563 L702,1563 L703,1563 L703,1562 L705,1562 L706,1561 L707,1561 L709,1559 L709,1555 L707,1553 L706,1551 L682,1528 L682,1527 L686,1523 L714,1551 L714,1551 Z M788,1464 L788,1465 L787,1465 L776,1476 L775,1476 L774,1475 L774,1474 L773,1473 L773,1472 L784,1461 L785,1461 L788,1464 L788,1464 Z" id="Shape" fill="#000000" sketch:type="MSShapeGroup"></path>
                            <path d="M818,1605 L819,1605 L820,1606 L820,1607 L819,1607 L819,1608 L818,1608 L818,1609 L817,1609 L816,1610 L815,1610 L804,1605 L790,1618 L796,1629 L796,1631 L795,1631 L795,1632 L794,1632 L794,1633 L793,1633 L793,1634 L792,1634 L791,1633 L791,1632 L771,1591 L771,1589 L772,1589 L773,1588 L773,1587 L774,1587 L776,1585 L777,1585 L818,1605 L818,1605 Z M777,1592 L788,1614 L799,1602 L777,1592 L777,1592 Z M848,1533 L849,1534 L849,1536 L846,1539 L848,1539 L849,1540 L851,1541 L852,1541 L854,1544 L855,1546 L855,1552 L853,1556 L847,1562 L845,1562 L845,1563 L846,1564 L846,1565 L847,1565 L848,1566 L849,1566 L851,1565 L852,1564 L858,1559 L860,1557 L864,1555 L869,1555 L871,1556 L872,1557 L875,1563 L875,1565 L874,1568 L873,1570 L869,1576 L863,1580 L859,1582 L855,1582 L854,1581 L852,1580 L852,1579 L850,1577 L850,1571 L845,1571 L844,1570 L842,1566 L841,1565 L841,1563 L840,1562 L838,1562 L836,1561 L834,1559 L831,1553 L831,1549 L832,1546 L834,1544 L835,1542 L837,1540 L838,1540 L846,1532 L848,1532 L848,1533 L848,1533 Z M868,1561 L866,1560 L864,1560 L862,1561 L860,1563 L854,1568 L854,1573 L856,1575 L858,1576 L860,1576 L863,1575 L867,1571 L868,1569 L869,1568 L869,1566 L870,1565 L869,1563 L869,1562 L868,1561 L868,1561 Z M975,1448 L975,1449 L976,1449 L976,1450 L958,1467 L958,1468 L957,1468 L957,1467 L956,1467 L956,1466 L955,1466 L955,1464 L962,1457 L937,1432 L934,1442 L934,1444 L933,1444 L931,1442 L931,1441 L930,1441 L930,1440 L933,1428 L933,1427 L934,1427 L934,1426 L935,1425 L936,1425 L936,1424 L937,1424 L966,1453 L972,1447 L974,1447 L975,1448 L975,1448 Z M993,1415 L995,1417 L996,1420 L997,1422 L997,1425 L996,1428 L995,1430 L991,1436 L988,1439 L984,1441 L983,1442 L979,1442 L976,1439 L977,1438 L978,1438 L979,1437 L980,1437 L984,1435 L987,1432 L989,1431 L991,1427 L991,1424 L990,1422 L990,1421 L988,1419 L984,1417 L982,1417 L978,1419 L976,1421 L974,1422 L971,1425 L969,1425 L968,1424 L967,1424 L967,1422 L972,1417 L973,1415 L974,1414 L974,1411 L973,1409 L972,1408 L971,1406 L969,1404 L968,1404 L966,1403 L965,1404 L964,1404 L963,1405 L961,1406 L960,1408 L959,1409 L958,1411 L957,1412 L957,1416 L955,1416 L953,1414 L953,1410 L954,1408 L955,1407 L955,1405 L958,1402 L961,1400 L963,1398 L965,1397 L969,1397 L975,1400 L977,1402 L979,1406 L979,1411 L977,1415 L979,1414 L981,1412 L989,1412 L991,1414 L993,1415 L993,1415 Z M844,1582 L844,1583 L843,1583 L843,1584 L842,1584 L842,1585 L840,1585 L837,1582 L837,1586 L835,1592 L831,1596 L828,1597 L822,1597 L820,1596 L818,1594 L815,1592 L801,1578 L801,1576 L802,1576 L802,1575 L803,1575 L804,1574 L805,1574 L819,1587 L822,1590 L824,1591 L828,1591 L830,1589 L832,1585 L833,1582 L832,1579 L817,1563 L816,1563 L816,1562 L820,1558 L821,1558 L821,1559 L844,1582 L844,1582 Z M895,1530 L895,1532 L894,1532 L894,1533 L893,1533 L893,1534 L892,1534 L888,1530 L888,1537 L887,1540 L883,1544 L880,1545 L878,1546 L876,1546 L874,1545 L871,1544 L867,1540 L853,1527 L853,1525 L856,1522 L857,1522 L870,1536 L876,1539 L877,1540 L878,1540 L879,1539 L881,1539 L882,1538 L884,1534 L884,1527 L868,1511 L868,1509 L869,1509 L869,1508 L870,1508 L871,1507 L872,1507 L895,1530 L895,1530 Z M933,1488 L934,1489 L934,1492 L933,1493 L933,1494 L932,1494 L932,1495 L931,1495 L930,1497 L926,1499 L924,1499 L923,1498 L919,1496 L904,1481 L900,1485 L900,1484 L899,1484 L898,1483 L897,1483 L897,1481 L900,1478 L895,1472 L895,1470 L896,1470 L896,1469 L897,1469 L897,1468 L899,1468 L905,1473 L910,1468 L911,1468 L911,1467 L912,1468 L913,1468 L913,1469 L914,1470 L914,1471 L908,1477 L921,1490 L925,1492 L927,1492 L929,1491 L929,1490 L930,1490 L930,1488 L931,1488 L931,1487 L932,1488 L933,1488 L933,1488 Z M911,1502 L912,1504 L913,1505 L914,1507 L914,1509 L913,1512 L911,1516 L906,1521 L904,1521 L903,1522 L902,1522 L902,1523 L900,1523 L900,1522 L899,1522 L897,1520 L897,1519 L898,1519 L898,1518 L900,1518 L902,1517 L903,1516 L905,1515 L908,1512 L908,1510 L909,1509 L908,1508 L908,1507 L906,1505 L902,1505 L901,1506 L900,1506 L899,1507 L897,1507 L896,1508 L894,1508 L893,1509 L889,1509 L887,1508 L886,1507 L884,1506 L883,1505 L882,1503 L882,1497 L884,1493 L888,1489 L889,1489 L890,1488 L891,1488 L892,1487 L894,1487 L894,1488 L895,1488 L896,1489 L896,1491 L895,1491 L894,1492 L893,1492 L891,1493 L890,1494 L889,1494 L888,1496 L887,1497 L887,1500 L888,1501 L888,1502 L889,1503 L895,1503 L896,1502 L897,1502 L898,1501 L900,1500 L902,1500 L904,1499 L907,1499 L908,1500 L910,1501 L911,1502 L911,1502 Z M848,1545 L846,1544 L843,1543 L841,1544 L838,1545 L837,1547 L836,1548 L836,1552 L838,1554 L838,1555 L841,1557 L843,1558 L846,1557 L850,1553 L850,1549 L849,1548 L849,1547 L848,1545 L848,1545 Z M939,1463 L939,1465 L928,1476 L927,1476 L925,1474 L925,1472 L936,1461 L937,1461 L939,1463 L939,1463 Z" id="Shape" fill="#000000" sketch:type="MSShapeGroup"></path>
                            <path d="M1013,1563 L1014,1563 L1014,1564 L1012,1566 L1012,1567 L1009,1567 L992,1550 L987,1550 L986,1551 L985,1551 L983,1555 L983,1562 L999,1578 L999,1579 L996,1582 L995,1582 L980,1567 L978,1566 L977,1565 L975,1565 L974,1564 L972,1565 L971,1565 L970,1566 L968,1570 L968,1577 L984,1593 L984,1594 L981,1597 L980,1597 L957,1574 L957,1572 L958,1572 L958,1571 L959,1571 L959,1570 L961,1570 L964,1573 L964,1566 L966,1564 L967,1562 L969,1561 L970,1560 L972,1559 L973,1558 L976,1558 L978,1559 L979,1559 L978,1557 L979,1555 L979,1552 L980,1551 L980,1549 L982,1547 L984,1546 L986,1544 L991,1544 L993,1545 L995,1545 L1013,1563 L1013,1563 Z M1148,1419 L1149,1422 L1149,1425 L1148,1428 L1147,1430 L1143,1436 L1140,1439 L1136,1441 L1135,1441 L1134,1442 L1131,1442 L1128,1439 L1128,1438 L1129,1438 L1130,1437 L1132,1437 L1136,1435 L1142,1429 L1143,1427 L1143,1424 L1142,1422 L1141,1421 L1140,1419 L1139,1418 L1137,1417 L1134,1417 L1128,1420 L1123,1425 L1121,1425 L1119,1423 L1119,1422 L1124,1417 L1125,1415 L1126,1414 L1126,1410 L1125,1408 L1124,1407 L1123,1405 L1122,1405 L1120,1403 L1117,1403 L1115,1405 L1113,1406 L1112,1408 L1111,1409 L1110,1411 L1109,1412 L1109,1416 L1106,1416 L1106,1415 L1105,1414 L1105,1413 L1104,1413 L1104,1412 L1105,1412 L1105,1410 L1106,1408 L1107,1407 L1107,1405 L1109,1403 L1110,1401 L1113,1400 L1115,1398 L1117,1397 L1121,1397 L1127,1400 L1129,1402 L1131,1406 L1131,1411 L1130,1413 L1129,1414 L1133,1412 L1135,1412 L1137,1411 L1139,1412 L1141,1412 L1148,1419 L1148,1419 Z M1033,1526 L1035,1529 L1037,1535 L1037,1540 L1035,1543 L1030,1548 L1029,1548 L1028,1549 L1022,1549 L1025,1552 L1025,1553 L1024,1553 L1024,1554 L1023,1555 L1022,1555 L1022,1556 L1021,1556 L1021,1555 L987,1522 L987,1520 L988,1520 L989,1519 L989,1518 L990,1518 L991,1517 L1005,1531 L1005,1527 L1006,1526 L1006,1524 L1007,1523 L1007,1522 L1009,1520 L1012,1518 L1014,1517 L1017,1516 L1020,1516 L1022,1518 L1025,1519 L1028,1521 L1033,1526 L1033,1526 Z M1026,1528 L1025,1526 L1017,1522 L1015,1522 L1014,1523 L1012,1524 L1010,1526 L1010,1528 L1009,1530 L1009,1535 L1018,1544 L1022,1545 L1025,1544 L1029,1542 L1030,1541 L1031,1539 L1031,1535 L1029,1531 L1026,1528 L1026,1528 Z M1126,1448 L1127,1449 L1127,1451 L1110,1468 L1108,1468 L1106,1466 L1106,1464 L1113,1458 L1088,1433 L1086,1443 L1086,1444 L1084,1444 L1082,1442 L1082,1441 L1084,1428 L1085,1428 L1085,1427 L1086,1427 L1086,1426 L1087,1426 L1087,1425 L1088,1425 L1088,1424 L1117,1453 L1123,1447 L1125,1447 L1125,1448 L1126,1448 L1126,1448 Z M872,1692 L873,1694 L874,1697 L874,1700 L873,1703 L872,1705 L870,1708 L864,1714 L862,1715 L861,1716 L856,1716 L854,1714 L854,1713 L853,1713 L853,1712 L854,1712 L855,1711 L858,1711 L860,1710 L861,1709 L863,1708 L866,1705 L867,1703 L868,1702 L868,1697 L865,1694 L863,1693 L858,1693 L854,1695 L852,1695 L850,1696 L848,1696 L846,1697 L841,1697 L837,1695 L835,1693 L834,1691 L832,1689 L832,1682 L833,1679 L841,1671 L843,1671 L844,1670 L847,1670 L847,1671 L848,1671 L848,1672 L849,1672 L849,1674 L848,1675 L846,1675 L845,1676 L843,1676 L838,1681 L838,1683 L837,1684 L837,1686 L839,1688 L839,1689 L841,1690 L842,1690 L844,1691 L846,1690 L848,1690 L849,1689 L851,1689 L855,1687 L857,1687 L860,1686 L864,1686 L868,1688 L872,1692 L872,1692 Z M922,1637 L924,1640 L926,1646 L926,1651 L924,1654 L919,1659 L918,1659 L917,1660 L912,1660 L923,1671 L923,1674 L922,1674 L922,1675 L921,1675 L920,1676 L919,1676 L919,1675 L887,1644 L887,1642 L888,1642 L888,1641 L889,1641 L889,1640 L891,1640 L894,1643 L894,1639 L895,1638 L895,1636 L896,1635 L896,1633 L898,1631 L901,1629 L903,1628 L906,1627 L909,1627 L911,1629 L914,1630 L917,1632 L922,1637 L922,1637 Z M915,1639 L914,1637 L906,1633 L904,1633 L903,1634 L901,1635 L899,1637 L899,1639 L898,1641 L898,1646 L907,1655 L911,1656 L914,1655 L918,1653 L919,1652 L920,1650 L920,1646 L918,1642 L915,1639 L915,1639 Z M949,1628 L949,1629 L948,1629 L948,1631 L947,1631 L947,1632 L946,1633 L942,1635 L941,1636 L937,1636 L935,1635 L918,1618 L915,1622 L914,1622 L911,1619 L915,1615 L909,1610 L909,1608 L910,1608 L910,1607 L911,1607 L911,1606 L912,1606 L912,1605 L914,1605 L919,1611 L925,1605 L926,1605 L928,1607 L928,1608 L922,1614 L937,1629 L939,1630 L941,1630 L943,1628 L944,1628 L944,1626 L945,1626 L945,1625 L946,1625 L949,1628 L949,1628 Z M1056,1498 L1056,1499 L1040,1515 L1042,1517 L1046,1519 L1052,1519 L1054,1518 L1060,1512 L1060,1510 L1061,1509 L1061,1508 L1062,1507 L1062,1506 L1063,1506 L1063,1507 L1064,1507 L1065,1508 L1065,1512 L1064,1513 L1063,1515 L1062,1516 L1061,1518 L1059,1520 L1053,1524 L1051,1525 L1048,1525 L1042,1523 L1039,1521 L1035,1519 L1031,1513 L1030,1509 L1029,1506 L1029,1503 L1030,1500 L1032,1498 L1034,1495 L1037,1493 L1039,1491 L1047,1491 L1050,1492 L1056,1498 L1056,1498 Z M1050,1500 L1047,1497 L1043,1496 L1040,1497 L1037,1499 L1036,1501 L1035,1502 L1034,1504 L1034,1505 L1035,1507 L1035,1509 L1036,1511 L1037,1512 L1050,1500 L1050,1500 Z M962,1592 L962,1594 L961,1594 L946,1609 L948,1611 L954,1614 L956,1614 L960,1612 L966,1606 L966,1604 L967,1603 L967,1601 L970,1601 L970,1602 L971,1602 L971,1606 L970,1607 L969,1609 L968,1610 L967,1612 L965,1614 L959,1618 L956,1619 L953,1619 L947,1617 L941,1613 L937,1607 L935,1601 L935,1598 L936,1595 L939,1589 L942,1587 L948,1585 L950,1585 L953,1586 L955,1586 L958,1588 L962,1592 L962,1592 Z M956,1594 L952,1591 L949,1590 L946,1591 L943,1593 L940,1596 L940,1602 L941,1603 L942,1605 L943,1606 L956,1594 L956,1594 Z M891,1661 L892,1662 L892,1663 L891,1664 L877,1679 L880,1682 L882,1683 L888,1683 L890,1682 L896,1676 L896,1674 L897,1673 L897,1672 L898,1671 L898,1670 L899,1670 L899,1671 L900,1671 L901,1672 L901,1676 L900,1677 L899,1679 L892,1686 L889,1688 L887,1689 L884,1689 L878,1687 L875,1685 L871,1682 L869,1680 L867,1676 L865,1670 L865,1667 L866,1664 L868,1662 L870,1659 L873,1657 L875,1655 L883,1655 L886,1656 L888,1658 L891,1660 L891,1661 L891,1661 Z M886,1663 L883,1661 L879,1660 L876,1660 L873,1662 L870,1668 L870,1669 L871,1671 L871,1673 L872,1675 L873,1676 L886,1663 L886,1663 Z M1067,1469 L1067,1470 L1068,1470 L1067,1471 L1066,1471 L1066,1472 L1065,1472 L1063,1474 L1063,1475 L1062,1476 L1062,1479 L1063,1481 L1063,1483 L1078,1498 L1078,1501 L1077,1501 L1075,1503 L1074,1503 L1074,1502 L1051,1480 L1051,1479 L1052,1478 L1052,1477 L1053,1477 L1053,1476 L1055,1476 L1058,1479 L1058,1472 L1059,1471 L1059,1470 L1060,1470 L1060,1469 L1061,1468 L1062,1468 L1062,1467 L1063,1467 L1064,1466 L1064,1467 L1065,1467 L1067,1469 L1067,1469 Z M1091,1463 L1091,1465 L1080,1475 L1080,1476 L1079,1476 L1079,1475 L1078,1474 L1077,1474 L1077,1472 L1088,1461 L1089,1461 L1091,1463 L1091,1463 Z" id="Shape" fill="#000000" sketch:type="MSShapeGroup"></path>
                            <path d="M1088,1616 L1092,1624 L1093,1628 L1093,1632 L1092,1636 L1090,1640 L1083,1647 L1079,1649 L1071,1651 L1067,1650 L1063,1648 L1055,1642 L1049,1634 L1047,1626 L1047,1622 L1048,1618 L1050,1614 L1053,1610 L1057,1607 L1061,1605 L1065,1604 L1068,1603 L1072,1604 L1080,1608 L1088,1616 L1088,1616 Z M1080,1617 L1077,1614 L1074,1612 L1068,1610 L1066,1609 L1063,1610 L1057,1614 L1053,1620 L1053,1626 L1054,1628 L1055,1631 L1058,1634 L1060,1637 L1063,1640 L1066,1642 L1068,1643 L1074,1645 L1077,1644 L1083,1640 L1087,1634 L1087,1628 L1086,1625 L1084,1622 L1082,1620 L1080,1617 L1080,1617 Z M1296,1414 L1298,1417 L1300,1419 L1301,1422 L1301,1424 L1299,1430 L1295,1436 L1291,1438 L1290,1439 L1288,1440 L1287,1441 L1286,1441 L1285,1442 L1283,1442 L1283,1441 L1282,1441 L1281,1440 L1281,1439 L1280,1439 L1280,1438 L1281,1438 L1282,1437 L1283,1437 L1284,1436 L1286,1436 L1288,1435 L1294,1429 L1295,1427 L1295,1424 L1294,1422 L1293,1421 L1292,1419 L1291,1418 L1289,1417 L1286,1417 L1284,1418 L1282,1418 L1275,1425 L1273,1425 L1271,1423 L1271,1421 L1274,1419 L1276,1417 L1277,1415 L1278,1414 L1278,1410 L1277,1408 L1276,1407 L1275,1405 L1274,1405 L1272,1403 L1269,1403 L1267,1405 L1265,1406 L1264,1408 L1263,1409 L1262,1411 L1261,1412 L1261,1415 L1260,1416 L1259,1416 L1258,1415 L1258,1414 L1257,1414 L1257,1413 L1256,1413 L1256,1412 L1257,1411 L1257,1409 L1259,1407 L1259,1405 L1261,1403 L1262,1401 L1265,1400 L1267,1398 L1269,1397 L1275,1397 L1277,1399 L1279,1400 L1282,1403 L1283,1405 L1283,1411 L1282,1413 L1281,1414 L1287,1411 L1291,1411 L1295,1413 L1296,1414 L1296,1414 Z M1278,1448 L1278,1449 L1279,1449 L1279,1451 L1262,1468 L1260,1468 L1258,1466 L1258,1464 L1265,1457 L1240,1433 L1238,1443 L1238,1444 L1236,1444 L1234,1442 L1234,1440 L1236,1428 L1239,1425 L1240,1425 L1240,1424 L1241,1424 L1269,1453 L1275,1447 L1277,1447 L1278,1448 L1278,1448 Z M1185,1526 L1187,1529 L1189,1535 L1189,1540 L1187,1543 L1182,1548 L1181,1548 L1180,1549 L1174,1549 L1177,1551 L1177,1553 L1176,1553 L1176,1554 L1175,1555 L1173,1555 L1139,1521 L1139,1520 L1140,1520 L1140,1519 L1141,1519 L1141,1518 L1142,1518 L1142,1517 L1143,1517 L1157,1531 L1157,1527 L1158,1526 L1158,1524 L1159,1523 L1159,1522 L1161,1520 L1164,1518 L1166,1516 L1172,1516 L1174,1517 L1177,1518 L1185,1526 L1185,1526 Z M1175,1524 L1171,1522 L1167,1522 L1166,1523 L1164,1524 L1162,1526 L1162,1527 L1161,1528 L1161,1535 L1170,1544 L1177,1544 L1181,1542 L1182,1541 L1183,1539 L1183,1535 L1180,1529 L1175,1524 L1175,1524 Z M1155,1550 L1158,1552 L1160,1555 L1161,1559 L1162,1562 L1162,1565 L1161,1568 L1157,1574 L1151,1578 L1148,1579 L1145,1579 L1139,1577 L1133,1573 L1129,1567 L1127,1561 L1127,1558 L1128,1554 L1132,1548 L1138,1544 L1141,1544 L1144,1543 L1150,1545 L1153,1547 L1155,1550 L1155,1550 Z M1148,1551 L1144,1549 L1139,1549 L1137,1551 L1135,1552 L1132,1558 L1133,1560 L1133,1562 L1134,1564 L1136,1566 L1137,1568 L1139,1570 L1145,1573 L1149,1573 L1151,1572 L1155,1568 L1156,1566 L1156,1560 L1155,1558 L1148,1551 L1148,1551 Z M1207,1496 L1208,1497 L1208,1499 L1192,1515 L1194,1517 L1198,1519 L1202,1519 L1208,1516 L1210,1514 L1211,1512 L1212,1511 L1212,1510 L1213,1509 L1213,1508 L1214,1507 L1214,1506 L1215,1506 L1215,1507 L1216,1507 L1217,1508 L1217,1512 L1216,1513 L1215,1515 L1208,1522 L1205,1523 L1203,1524 L1200,1525 L1197,1524 L1193,1523 L1190,1521 L1187,1518 L1183,1512 L1181,1506 L1181,1503 L1182,1500 L1184,1498 L1186,1495 L1188,1493 L1191,1491 L1194,1490 L1196,1490 L1202,1492 L1206,1496 L1207,1496 L1207,1496 Z M1202,1499 L1199,1497 L1195,1496 L1192,1496 L1189,1498 L1186,1504 L1186,1505 L1187,1507 L1187,1509 L1188,1511 L1189,1512 L1202,1499 L1202,1499 Z M1139,1586 L1139,1587 L1140,1587 L1140,1590 L1138,1592 L1138,1593 L1137,1593 L1134,1596 L1129,1596 L1125,1594 L1110,1579 L1106,1582 L1105,1582 L1103,1580 L1103,1579 L1106,1575 L1101,1570 L1100,1570 L1100,1569 L1101,1569 L1101,1568 L1102,1568 L1102,1567 L1103,1567 L1103,1566 L1105,1566 L1110,1571 L1116,1565 L1118,1565 L1118,1566 L1119,1566 L1120,1567 L1120,1569 L1114,1575 L1126,1587 L1129,1589 L1131,1590 L1133,1590 L1136,1587 L1136,1586 L1137,1585 L1138,1585 L1138,1586 L1139,1586 L1139,1586 Z M1119,1602 L1120,1602 L1120,1603 L1121,1603 L1121,1607 L1120,1608 L1120,1609 L1119,1611 L1114,1616 L1111,1618 L1108,1619 L1106,1619 L1100,1617 L1097,1615 L1091,1609 L1089,1606 L1088,1602 L1087,1599 L1088,1597 L1088,1594 L1090,1591 L1095,1586 L1096,1586 L1098,1585 L1103,1585 L1103,1586 L1105,1588 L1104,1589 L1101,1589 L1100,1590 L1098,1590 L1097,1591 L1095,1592 L1093,1596 L1093,1599 L1094,1604 L1100,1610 L1106,1613 L1108,1613 L1112,1611 L1114,1609 L1115,1607 L1116,1606 L1116,1602 L1117,1601 L1117,1600 L1118,1600 L1118,1601 L1119,1602 L1119,1602 Z M1218,1468 L1219,1468 L1219,1469 L1220,1470 L1219,1470 L1219,1471 L1218,1471 L1218,1472 L1216,1472 L1216,1473 L1215,1474 L1215,1475 L1214,1476 L1214,1479 L1215,1481 L1215,1483 L1230,1498 L1230,1501 L1229,1501 L1228,1502 L1226,1502 L1203,1480 L1203,1478 L1204,1478 L1204,1477 L1205,1477 L1205,1476 L1207,1476 L1210,1479 L1210,1471 L1212,1469 L1212,1468 L1213,1468 L1213,1467 L1215,1467 L1215,1466 L1217,1466 L1217,1467 L1218,1467 L1218,1468 L1218,1468 Z M1243,1463 L1243,1464 L1232,1475 L1231,1475 L1230,1474 L1229,1474 L1229,1472 L1240,1461 L1241,1461 L1243,1463 L1243,1463 Z" id="Shape" fill="#000000" sketch:type="MSShapeGroup"></path>
                            <path d="M1198,1680 L1198,1681 L1199,1682 L1199,1683 L1198,1683 L1198,1684 L1196,1685 L1196,1686 L1195,1686 L1194,1687 L1193,1687 L1192,1686 L1189,1686 L1161,1677 L1159,1677 L1156,1676 L1154,1675 L1151,1674 L1159,1682 L1179,1701 L1179,1703 L1178,1703 L1178,1704 L1177,1704 L1177,1705 L1176,1705 L1176,1706 L1174,1706 L1143,1675 L1143,1673 L1144,1673 L1144,1672 L1147,1669 L1148,1669 L1149,1668 L1152,1668 L1153,1669 L1175,1675 L1177,1676 L1179,1676 L1181,1677 L1182,1678 L1184,1678 L1188,1680 L1189,1680 L1163,1654 L1163,1653 L1165,1651 L1166,1651 L1166,1650 L1167,1650 L1167,1649 L1198,1680 L1198,1680 Z M1317,1563 L1317,1565 L1316,1566 L1315,1566 L1315,1567 L1313,1567 L1298,1552 L1296,1551 L1295,1550 L1293,1550 L1292,1549 L1291,1550 L1290,1550 L1288,1551 L1287,1553 L1287,1555 L1286,1558 L1287,1562 L1303,1578 L1303,1579 L1302,1579 L1302,1580 L1301,1580 L1301,1581 L1300,1581 L1300,1582 L1298,1582 L1281,1565 L1279,1564 L1276,1564 L1274,1566 L1272,1570 L1272,1576 L1288,1592 L1288,1594 L1287,1594 L1287,1595 L1286,1595 L1286,1596 L1285,1596 L1285,1597 L1284,1597 L1284,1596 L1261,1574 L1261,1572 L1262,1572 L1262,1571 L1263,1571 L1263,1570 L1265,1570 L1268,1573 L1268,1566 L1270,1564 L1271,1561 L1273,1560 L1274,1559 L1276,1559 L1277,1558 L1279,1558 L1281,1559 L1282,1559 L1282,1555 L1283,1553 L1283,1551 L1284,1550 L1284,1549 L1288,1545 L1292,1543 L1294,1543 L1297,1544 L1299,1545 L1301,1547 L1303,1548 L1317,1563 L1317,1563 Z M1430,1448 L1430,1449 L1431,1449 L1431,1451 L1414,1468 L1412,1468 L1412,1467 L1411,1467 L1410,1466 L1410,1464 L1417,1457 L1392,1433 L1390,1443 L1389,1443 L1389,1444 L1387,1444 L1387,1443 L1386,1443 L1386,1441 L1385,1441 L1385,1440 L1388,1428 L1388,1427 L1389,1427 L1389,1426 L1390,1426 L1391,1425 L1391,1424 L1393,1424 L1421,1453 L1427,1447 L1429,1447 L1429,1448 L1430,1448 L1430,1448 Z M1448,1415 L1450,1417 L1451,1420 L1452,1422 L1452,1425 L1450,1431 L1448,1434 L1443,1439 L1439,1441 L1438,1442 L1434,1442 L1433,1441 L1432,1441 L1432,1440 L1431,1439 L1432,1438 L1434,1438 L1438,1436 L1439,1435 L1441,1434 L1442,1432 L1444,1431 L1445,1429 L1446,1428 L1446,1425 L1445,1423 L1445,1422 L1444,1420 L1443,1419 L1439,1417 L1437,1418 L1435,1418 L1433,1419 L1431,1421 L1429,1422 L1426,1425 L1426,1426 L1425,1426 L1424,1425 L1423,1425 L1423,1424 L1422,1424 L1422,1422 L1428,1416 L1429,1414 L1429,1411 L1428,1409 L1427,1408 L1426,1406 L1424,1404 L1419,1404 L1418,1405 L1416,1406 L1415,1408 L1414,1409 L1413,1411 L1412,1412 L1412,1416 L1411,1416 L1411,1417 L1409,1415 L1408,1415 L1408,1410 L1409,1408 L1410,1407 L1411,1405 L1412,1404 L1413,1402 L1416,1400 L1418,1398 L1420,1398 L1422,1397 L1425,1397 L1429,1399 L1430,1401 L1433,1404 L1434,1406 L1434,1411 L1432,1415 L1438,1412 L1442,1412 L1448,1415 L1448,1415 Z M1337,1526 L1339,1529 L1340,1532 L1341,1534 L1341,1537 L1339,1543 L1334,1548 L1331,1548 L1329,1549 L1326,1549 L1329,1551 L1329,1553 L1328,1553 L1328,1554 L1327,1554 L1327,1555 L1325,1555 L1291,1521 L1291,1520 L1293,1518 L1294,1518 L1294,1517 L1295,1517 L1309,1531 L1309,1527 L1310,1526 L1310,1524 L1311,1523 L1311,1522 L1315,1518 L1318,1516 L1323,1516 L1329,1518 L1337,1526 L1337,1526 Z M1327,1524 L1323,1522 L1319,1522 L1318,1523 L1316,1524 L1314,1526 L1314,1527 L1313,1528 L1313,1535 L1322,1544 L1329,1544 L1333,1542 L1335,1538 L1335,1535 L1332,1529 L1327,1524 L1327,1524 Z M1231,1604 L1231,1605 L1245,1635 L1245,1637 L1244,1637 L1244,1638 L1243,1638 L1243,1639 L1242,1640 L1241,1640 L1241,1641 L1240,1641 L1239,1640 L1210,1627 L1210,1626 L1209,1626 L1208,1625 L1209,1625 L1209,1624 L1210,1624 L1210,1623 L1211,1622 L1212,1622 L1212,1621 L1213,1621 L1238,1634 L1239,1634 L1239,1633 L1226,1608 L1226,1607 L1229,1604 L1231,1604 L1231,1604 Z M1359,1496 L1360,1497 L1360,1499 L1344,1515 L1346,1517 L1350,1519 L1354,1519 L1358,1517 L1364,1511 L1364,1510 L1365,1509 L1365,1507 L1366,1506 L1367,1506 L1368,1507 L1368,1508 L1369,1508 L1369,1512 L1368,1513 L1367,1515 L1363,1519 L1357,1523 L1351,1525 L1345,1523 L1342,1521 L1339,1518 L1335,1512 L1333,1506 L1333,1503 L1334,1500 L1336,1497 L1340,1493 L1343,1491 L1346,1490 L1348,1490 L1351,1491 L1353,1492 L1356,1494 L1358,1496 L1359,1496 L1359,1496 Z M1354,1499 L1350,1497 L1347,1496 L1344,1496 L1341,1498 L1340,1500 L1338,1502 L1338,1507 L1339,1508 L1341,1512 L1354,1499 L1354,1499 Z M1217,1640 L1221,1646 L1223,1652 L1223,1655 L1222,1658 L1218,1664 L1212,1668 L1209,1669 L1203,1669 L1200,1667 L1198,1665 L1195,1663 L1192,1660 L1190,1657 L1188,1651 L1189,1648 L1189,1645 L1191,1642 L1196,1637 L1199,1635 L1202,1634 L1208,1634 L1211,1635 L1214,1637 L1217,1640 L1217,1640 Z M1213,1644 L1211,1643 L1209,1641 L1207,1640 L1205,1640 L1203,1639 L1197,1642 L1196,1644 L1194,1646 L1194,1650 L1197,1656 L1203,1662 L1205,1663 L1207,1663 L1209,1664 L1213,1662 L1216,1659 L1218,1655 L1218,1653 L1217,1651 L1216,1648 L1215,1646 L1213,1644 L1213,1644 Z M1266,1592 L1266,1593 L1250,1609 L1252,1611 L1256,1613 L1262,1613 L1264,1612 L1267,1609 L1268,1607 L1269,1606 L1270,1604 L1271,1603 L1271,1601 L1272,1600 L1273,1601 L1274,1601 L1274,1602 L1275,1602 L1275,1605 L1273,1607 L1272,1609 L1271,1610 L1270,1612 L1266,1616 L1263,1618 L1260,1619 L1257,1619 L1251,1617 L1248,1615 L1243,1610 L1240,1606 L1239,1603 L1239,1597 L1240,1594 L1241,1592 L1243,1589 L1249,1585 L1257,1585 L1259,1586 L1262,1588 L1266,1592 L1266,1592 Z M1259,1593 L1256,1591 L1253,1590 L1249,1590 L1246,1592 L1244,1596 L1244,1601 L1246,1605 L1247,1606 L1259,1593 L1259,1593 Z M1370,1468 L1371,1468 L1371,1471 L1369,1471 L1369,1472 L1368,1472 L1368,1473 L1366,1475 L1366,1479 L1367,1481 L1367,1483 L1382,1498 L1382,1500 L1381,1500 L1381,1501 L1380,1502 L1378,1502 L1355,1479 L1355,1478 L1356,1478 L1356,1477 L1357,1476 L1358,1476 L1358,1475 L1362,1479 L1362,1471 L1363,1470 L1363,1469 L1364,1468 L1365,1468 L1365,1467 L1366,1467 L1367,1466 L1368,1466 L1370,1468 L1370,1468 Z M1393,1462 L1394,1463 L1394,1465 L1384,1476 L1382,1476 L1380,1474 L1380,1472 L1391,1462 L1391,1461 L1392,1461 L1392,1462 L1393,1462 L1393,1462 Z" id="Shape" fill="#000000" sketch:type="MSShapeGroup"></path>
                            <path d="M1469,1563 L1469,1564 L1468,1565 L1468,1566 L1467,1566 L1466,1567 L1465,1567 L1450,1552 L1448,1551 L1447,1550 L1445,1549 L1444,1549 L1443,1550 L1442,1550 L1440,1551 L1438,1555 L1438,1562 L1454,1577 L1454,1578 L1455,1578 L1454,1578 L1454,1580 L1453,1580 L1453,1581 L1452,1581 L1452,1582 L1450,1582 L1433,1565 L1432,1565 L1431,1564 L1428,1564 L1427,1565 L1425,1566 L1424,1568 L1424,1570 L1423,1573 L1424,1576 L1440,1592 L1440,1594 L1439,1594 L1439,1595 L1438,1595 L1438,1596 L1436,1596 L1436,1597 L1413,1574 L1413,1573 L1412,1573 L1415,1570 L1416,1570 L1419,1573 L1419,1569 L1420,1566 L1421,1564 L1423,1561 L1425,1560 L1426,1559 L1427,1559 L1428,1558 L1433,1558 L1434,1559 L1434,1555 L1435,1553 L1435,1550 L1437,1548 L1437,1547 L1440,1545 L1444,1543 L1446,1543 L1449,1544 L1451,1545 L1453,1547 L1455,1548 L1469,1563 L1469,1563 Z M1340,1660 L1346,1668 L1347,1673 L1348,1677 L1346,1685 L1344,1689 L1332,1701 L1331,1701 L1330,1700 L1300,1671 L1300,1667 L1308,1660 L1312,1656 L1316,1654 L1324,1652 L1332,1654 L1336,1656 L1340,1660 L1340,1660 Z M1335,1665 L1333,1662 L1330,1660 L1324,1658 L1321,1659 L1317,1659 L1314,1661 L1307,1668 L1332,1694 L1336,1689 L1339,1686 L1341,1683 L1342,1680 L1342,1677 L1340,1671 L1338,1668 L1335,1665 L1335,1665 Z M1601,1417 L1603,1420 L1604,1422 L1604,1425 L1602,1431 L1600,1433 L1598,1436 L1596,1438 L1594,1439 L1593,1440 L1591,1441 L1590,1442 L1586,1442 L1585,1441 L1584,1441 L1584,1440 L1583,1439 L1583,1438 L1586,1438 L1587,1437 L1593,1434 L1594,1432 L1598,1428 L1598,1424 L1597,1422 L1594,1419 L1592,1418 L1591,1417 L1589,1417 L1585,1419 L1583,1421 L1581,1422 L1577,1426 L1576,1426 L1576,1425 L1575,1425 L1575,1424 L1574,1424 L1574,1422 L1580,1416 L1581,1414 L1581,1411 L1580,1409 L1579,1408 L1578,1406 L1576,1404 L1571,1404 L1570,1405 L1568,1406 L1567,1408 L1566,1409 L1565,1411 L1564,1412 L1564,1416 L1563,1416 L1563,1417 L1562,1416 L1561,1416 L1561,1415 L1560,1415 L1560,1413 L1559,1413 L1560,1412 L1560,1410 L1561,1408 L1562,1407 L1562,1405 L1565,1402 L1568,1400 L1570,1398 L1572,1398 L1574,1397 L1576,1397 L1580,1399 L1585,1404 L1586,1406 L1586,1411 L1584,1415 L1586,1414 L1588,1412 L1594,1412 L1598,1414 L1601,1417 L1601,1417 Z M1582,1448 L1582,1449 L1583,1449 L1583,1450 L1565,1468 L1564,1468 L1562,1466 L1562,1464 L1569,1457 L1544,1432 L1541,1443 L1541,1444 L1540,1444 L1539,1443 L1538,1443 L1538,1442 L1537,1441 L1537,1440 L1540,1428 L1540,1427 L1541,1427 L1541,1426 L1542,1426 L1542,1425 L1543,1425 L1543,1424 L1544,1424 L1573,1453 L1579,1447 L1581,1447 L1581,1448 L1582,1448 L1582,1448 Z M1489,1525 L1491,1528 L1493,1534 L1493,1537 L1491,1543 L1486,1548 L1481,1548 L1480,1549 L1478,1549 L1481,1552 L1480,1553 L1480,1554 L1479,1554 L1479,1555 L1477,1555 L1443,1521 L1443,1520 L1444,1519 L1444,1518 L1445,1518 L1445,1517 L1447,1517 L1461,1531 L1461,1526 L1462,1524 L1462,1523 L1464,1521 L1465,1519 L1467,1518 L1470,1516 L1475,1516 L1481,1518 L1484,1520 L1489,1525 L1489,1525 Z M1482,1527 L1480,1526 L1477,1523 L1475,1522 L1471,1522 L1467,1524 L1467,1525 L1466,1526 L1466,1527 L1465,1528 L1465,1535 L1474,1544 L1481,1544 L1485,1542 L1487,1538 L1487,1535 L1484,1529 L1482,1527 L1482,1527 Z M1417,1590 L1417,1594 L1402,1609 L1404,1611 L1408,1613 L1413,1613 L1416,1612 L1418,1610 L1420,1606 L1422,1604 L1422,1603 L1423,1602 L1423,1600 L1425,1600 L1425,1601 L1426,1601 L1426,1602 L1427,1603 L1427,1604 L1426,1605 L1426,1606 L1425,1607 L1424,1609 L1423,1610 L1422,1612 L1420,1613 L1418,1616 L1415,1618 L1412,1619 L1409,1619 L1403,1617 L1400,1615 L1394,1609 L1392,1606 L1391,1603 L1391,1594 L1393,1592 L1395,1589 L1401,1585 L1403,1585 L1406,1584 L1409,1585 L1411,1586 L1414,1588 L1416,1590 L1417,1590 L1417,1590 Z M1411,1593 L1408,1591 L1405,1590 L1401,1590 L1398,1592 L1396,1596 L1396,1601 L1398,1605 L1399,1606 L1411,1593 L1411,1593 Z M1512,1497 L1512,1499 L1496,1515 L1498,1517 L1502,1519 L1506,1519 L1510,1517 L1513,1514 L1514,1512 L1515,1511 L1516,1509 L1517,1508 L1517,1507 L1518,1506 L1519,1506 L1520,1507 L1520,1508 L1521,1508 L1521,1510 L1520,1512 L1519,1513 L1519,1515 L1515,1519 L1509,1523 L1503,1525 L1497,1523 L1494,1521 L1491,1518 L1485,1509 L1485,1503 L1487,1497 L1489,1495 L1495,1491 L1498,1490 L1500,1490 L1503,1491 L1505,1492 L1508,1494 L1510,1495 L1512,1497 L1512,1497 Z M1505,1499 L1499,1495 L1496,1496 L1492,1498 L1491,1500 L1490,1501 L1490,1507 L1491,1508 L1493,1512 L1505,1499 L1505,1499 Z M1370,1639 L1370,1641 L1354,1657 L1356,1659 L1360,1661 L1364,1661 L1368,1659 L1371,1656 L1372,1654 L1373,1653 L1374,1651 L1375,1650 L1375,1649 L1376,1648 L1377,1648 L1378,1649 L1378,1650 L1379,1650 L1379,1652 L1378,1654 L1377,1655 L1377,1657 L1373,1661 L1367,1665 L1361,1667 L1355,1665 L1352,1663 L1349,1660 L1343,1651 L1343,1645 L1345,1639 L1347,1637 L1353,1633 L1356,1632 L1358,1632 L1361,1633 L1363,1634 L1366,1636 L1368,1637 L1370,1639 L1370,1639 Z M1363,1641 L1357,1637 L1354,1638 L1350,1640 L1349,1642 L1348,1643 L1348,1649 L1349,1650 L1351,1654 L1363,1641 L1363,1641 Z M1400,1624 L1402,1626 L1402,1629 L1401,1630 L1401,1631 L1400,1633 L1399,1634 L1398,1636 L1395,1639 L1389,1641 L1387,1641 L1381,1639 L1375,1635 L1372,1631 L1370,1628 L1368,1622 L1369,1619 L1369,1616 L1371,1614 L1373,1611 L1375,1609 L1377,1609 L1378,1608 L1379,1608 L1380,1607 L1383,1607 L1383,1608 L1384,1608 L1386,1610 L1386,1611 L1384,1611 L1383,1612 L1381,1612 L1379,1613 L1378,1614 L1376,1615 L1374,1618 L1374,1622 L1375,1626 L1381,1632 L1387,1635 L1391,1635 L1393,1634 L1395,1632 L1396,1630 L1397,1629 L1397,1624 L1398,1624 L1398,1623 L1400,1623 L1400,1624 L1400,1624 Z M1522,1469 L1522,1470 L1523,1470 L1523,1471 L1522,1471 L1521,1472 L1520,1472 L1518,1474 L1518,1476 L1517,1477 L1517,1480 L1518,1482 L1518,1484 L1533,1499 L1533,1501 L1532,1501 L1530,1503 L1529,1503 L1506,1480 L1506,1478 L1507,1478 L1507,1477 L1508,1477 L1508,1476 L1510,1476 L1513,1480 L1513,1472 L1515,1470 L1515,1469 L1516,1469 L1516,1468 L1517,1468 L1518,1467 L1520,1467 L1522,1469 L1522,1469 Z M1545,1462 L1546,1463 L1546,1465 L1535,1476 L1534,1476 L1532,1474 L1532,1472 L1543,1462 L1543,1461 L1544,1461 L1544,1462 L1545,1462 L1545,1462 Z" id="Shape" fill="#000000" sketch:type="MSShapeGroup"></path>
                            <path d="M1686,1498 L1692,1510 L1692,1511 L1690,1513 L1690,1514 L1687,1514 L1682,1503 L1681,1503 L1681,1502 L1651,1489 L1650,1489 L1650,1487 L1651,1486 L1651,1485 L1652,1485 L1652,1484 L1655,1484 L1679,1496 L1667,1471 L1667,1469 L1668,1469 L1670,1467 L1671,1467 L1671,1466 L1671,1467 L1672,1467 L1672,1468 L1686,1498 L1686,1498 Z M1734,1449 L1734,1451 L1717,1468 L1715,1468 L1715,1467 L1714,1467 L1714,1466 L1713,1465 L1713,1464 L1714,1464 L1720,1457 L1696,1433 L1693,1443 L1693,1444 L1691,1444 L1691,1443 L1690,1443 L1690,1442 L1689,1442 L1689,1440 L1692,1428 L1692,1427 L1695,1424 L1696,1424 L1725,1453 L1731,1447 L1732,1447 L1734,1449 L1734,1449 Z M1625,1558 L1626,1559 L1625,1559 L1625,1561 L1624,1561 L1624,1562 L1621,1562 L1618,1559 L1618,1566 L1617,1569 L1613,1573 L1610,1574 L1604,1574 L1601,1573 L1583,1555 L1583,1553 L1584,1553 L1584,1552 L1585,1552 L1585,1551 L1587,1551 L1602,1566 L1606,1568 L1610,1568 L1612,1566 L1614,1562 L1614,1556 L1598,1540 L1598,1538 L1599,1538 L1600,1537 L1600,1536 L1601,1536 L1602,1535 L1603,1535 L1625,1558 L1625,1558 Z M1598,1585 L1598,1588 L1597,1588 L1597,1589 L1596,1589 L1595,1590 L1594,1590 L1594,1589 L1581,1576 L1579,1575 L1577,1573 L1576,1573 L1574,1572 L1572,1572 L1571,1573 L1569,1574 L1567,1578 L1567,1585 L1583,1601 L1583,1602 L1581,1604 L1580,1604 L1580,1605 L1579,1605 L1556,1582 L1556,1580 L1557,1580 L1557,1579 L1558,1579 L1558,1578 L1560,1578 L1563,1581 L1563,1574 L1565,1572 L1566,1569 L1569,1568 L1571,1566 L1575,1566 L1578,1567 L1582,1569 L1598,1585 L1598,1585 Z M1753,1413 L1754,1414 L1754,1416 L1750,1420 L1757,1427 L1757,1428 L1756,1428 L1756,1429 L1754,1431 L1753,1431 L1746,1424 L1732,1437 L1732,1438 L1730,1438 L1730,1437 L1729,1437 L1729,1436 L1728,1436 L1728,1435 L1727,1434 L1727,1433 L1719,1402 L1719,1400 L1720,1400 L1720,1399 L1721,1399 L1721,1398 L1723,1396 L1724,1396 L1724,1395 L1726,1395 L1746,1416 L1750,1412 L1751,1412 L1752,1413 L1753,1413 L1753,1413 Z M1724,1403 L1732,1431 L1742,1420 L1724,1403 L1724,1403 Z M1540,1632 L1543,1638 L1543,1640 L1540,1646 L1539,1647 L1538,1647 L1537,1648 L1536,1648 L1536,1649 L1533,1649 L1531,1647 L1531,1646 L1530,1646 L1530,1645 L1532,1645 L1532,1644 L1534,1644 L1537,1641 L1537,1638 L1510,1611 L1510,1609 L1511,1609 L1511,1608 L1512,1607 L1513,1607 L1513,1606 L1514,1606 L1540,1632 L1540,1632 Z M1572,1613 L1569,1616 L1568,1616 L1565,1614 L1565,1619 L1564,1622 L1560,1626 L1556,1628 L1552,1628 L1550,1627 L1549,1626 L1547,1625 L1546,1623 L1544,1621 L1544,1616 L1545,1614 L1546,1611 L1554,1603 L1551,1600 L1549,1599 L1548,1599 L1547,1598 L1546,1599 L1544,1599 L1543,1600 L1541,1601 L1540,1603 L1539,1604 L1539,1606 L1537,1608 L1537,1610 L1536,1611 L1535,1611 L1535,1610 L1534,1610 L1533,1609 L1533,1606 L1534,1605 L1534,1603 L1535,1602 L1536,1600 L1537,1599 L1538,1597 L1541,1595 L1543,1594 L1546,1593 L1550,1593 L1554,1595 L1572,1613 L1572,1613 Z M1557,1606 L1553,1610 L1552,1612 L1551,1613 L1550,1615 L1549,1616 L1549,1618 L1550,1620 L1551,1621 L1553,1622 L1555,1622 L1559,1620 L1562,1614 L1562,1611 L1557,1606 L1557,1606 Z M1650,1533 L1650,1536 L1649,1536 L1649,1537 L1646,1537 L1644,1535 L1644,1538 L1643,1541 L1642,1543 L1637,1548 L1635,1549 L1629,1549 L1624,1544 L1623,1542 L1623,1538 L1624,1535 L1625,1533 L1629,1527 L1633,1524 L1630,1521 L1628,1520 L1623,1520 L1622,1521 L1620,1522 L1619,1524 L1618,1525 L1617,1527 L1617,1528 L1616,1530 L1616,1532 L1613,1532 L1613,1531 L1612,1531 L1612,1527 L1613,1526 L1613,1524 L1614,1523 L1615,1521 L1617,1519 L1620,1517 L1622,1515 L1624,1514 L1629,1514 L1631,1515 L1633,1517 L1635,1518 L1650,1533 L1650,1533 Z M1636,1527 L1629,1534 L1629,1536 L1628,1537 L1628,1540 L1630,1542 L1632,1543 L1636,1543 L1639,1540 L1640,1538 L1640,1532 L1636,1527 L1636,1527 Z M1651,1493 L1651,1494 L1650,1495 L1649,1495 L1648,1496 L1647,1496 L1647,1497 L1646,1498 L1646,1505 L1647,1507 L1662,1522 L1662,1523 L1659,1526 L1657,1526 L1635,1503 L1634,1503 L1635,1502 L1635,1501 L1636,1501 L1638,1499 L1642,1503 L1642,1501 L1641,1499 L1641,1498 L1642,1496 L1642,1494 L1645,1491 L1646,1491 L1646,1490 L1648,1490 L1651,1493 L1651,1493 Z M1697,1462 L1698,1463 L1698,1465 L1687,1476 L1686,1476 L1683,1473 L1695,1461 L1696,1461 L1696,1462 L1697,1462 L1697,1462 Z" id="Shape" fill="#000000" sketch:type="MSShapeGroup"></path>
                            <path d="M1885,1448 L1885,1449 L1886,1450 L1886,1451 L1885,1451 L1868,1468 L1866,1468 L1866,1467 L1865,1466 L1865,1465 L1872,1458 L1847,1433 L1844,1443 L1844,1444 L1842,1444 L1842,1443 L1841,1443 L1841,1442 L1840,1442 L1840,1441 L1843,1428 L1846,1425 L1847,1425 L1847,1424 L1847,1425 L1876,1453 L1882,1447 L1884,1447 L1884,1448 L1885,1448 L1885,1448 Z M1838,1498 L1844,1509 L1844,1511 L1842,1513 L1842,1514 L1839,1514 L1839,1513 L1834,1502 L1833,1502 L1803,1489 L1802,1488 L1802,1486 L1803,1486 L1803,1485 L1804,1485 L1804,1484 L1805,1484 L1805,1483 L1806,1483 L1806,1484 L1807,1484 L1831,1495 L1819,1471 L1819,1469 L1820,1469 L1823,1466 L1824,1467 L1838,1498 L1838,1498 Z M1722,1590 L1725,1593 L1727,1596 L1729,1602 L1729,1605 L1728,1607 L1727,1610 L1725,1613 L1724,1614 L1723,1614 L1722,1615 L1720,1615 L1719,1616 L1714,1616 L1716,1619 L1717,1619 L1717,1620 L1716,1620 L1716,1621 L1715,1622 L1714,1622 L1714,1623 L1713,1623 L1679,1589 L1679,1587 L1680,1587 L1680,1586 L1681,1586 L1681,1585 L1682,1585 L1682,1584 L1683,1584 L1683,1585 L1697,1598 L1697,1593 L1698,1592 L1698,1591 L1699,1589 L1703,1585 L1709,1583 L1711,1584 L1717,1586 L1719,1588 L1722,1590 L1722,1590 Z M1718,1595 L1716,1594 L1713,1591 L1709,1589 L1707,1589 L1703,1591 L1703,1592 L1702,1593 L1702,1595 L1701,1596 L1701,1603 L1710,1612 L1717,1612 L1719,1611 L1722,1608 L1723,1606 L1723,1602 L1721,1598 L1718,1595 L1718,1595 Z M1652,1626 L1652,1627 L1651,1627 L1639,1639 L1651,1650 L1662,1639 L1664,1639 L1664,1640 L1665,1640 L1665,1641 L1666,1641 L1666,1642 L1654,1654 L1668,1667 L1668,1669 L1667,1669 L1667,1670 L1666,1670 L1666,1671 L1665,1671 L1665,1672 L1663,1672 L1633,1642 L1633,1641 L1632,1640 L1633,1639 L1633,1638 L1648,1623 L1649,1623 L1652,1626 L1652,1626 Z M1777,1559 L1777,1560 L1776,1560 L1776,1561 L1775,1562 L1774,1562 L1774,1563 L1773,1563 L1773,1562 L1770,1559 L1770,1563 L1768,1569 L1764,1573 L1760,1575 L1757,1575 L1753,1573 L1751,1571 L1748,1569 L1734,1555 L1734,1554 L1735,1554 L1735,1553 L1736,1553 L1736,1552 L1737,1552 L1737,1551 L1739,1551 L1755,1567 L1757,1568 L1758,1569 L1760,1569 L1761,1568 L1763,1568 L1764,1567 L1765,1565 L1766,1562 L1766,1556 L1750,1540 L1749,1540 L1749,1539 L1750,1539 L1750,1538 L1751,1538 L1751,1537 L1752,1537 L1752,1536 L1754,1536 L1777,1559 L1777,1559 Z M1906,1414 L1906,1416 L1902,1419 L1909,1426 L1909,1428 L1908,1428 L1908,1429 L1907,1429 L1907,1430 L1906,1430 L1906,1431 L1905,1431 L1898,1424 L1884,1437 L1884,1438 L1883,1438 L1880,1435 L1880,1434 L1879,1434 L1879,1433 L1871,1402 L1871,1400 L1872,1400 L1872,1399 L1873,1398 L1873,1397 L1874,1397 L1875,1396 L1876,1396 L1876,1395 L1878,1395 L1898,1416 L1902,1412 L1904,1412 L1906,1414 L1906,1414 Z M1876,1402 L1884,1431 L1894,1420 L1876,1402 L1876,1402 Z M1802,1533 L1802,1535 L1800,1537 L1798,1537 L1796,1535 L1796,1538 L1795,1540 L1794,1543 L1789,1548 L1787,1549 L1783,1549 L1781,1548 L1780,1547 L1778,1546 L1776,1544 L1775,1542 L1775,1537 L1776,1535 L1777,1532 L1779,1530 L1781,1527 L1785,1524 L1782,1521 L1780,1520 L1779,1520 L1778,1519 L1777,1520 L1775,1520 L1774,1521 L1772,1522 L1771,1524 L1770,1525 L1769,1527 L1769,1528 L1768,1529 L1768,1531 L1767,1532 L1766,1532 L1765,1531 L1764,1531 L1764,1527 L1765,1526 L1765,1524 L1766,1523 L1767,1521 L1768,1520 L1769,1518 L1772,1516 L1776,1514 L1781,1514 L1785,1516 L1802,1533 L1802,1533 Z M1788,1527 L1781,1534 L1781,1536 L1780,1537 L1780,1539 L1781,1541 L1782,1542 L1784,1543 L1786,1543 L1790,1541 L1792,1537 L1792,1532 L1788,1527 L1788,1527 Z M1695,1618 L1695,1620 L1694,1620 L1679,1635 L1681,1637 L1685,1639 L1691,1639 L1693,1638 L1696,1635 L1697,1633 L1698,1632 L1699,1630 L1700,1629 L1700,1627 L1701,1627 L1701,1626 L1702,1627 L1703,1627 L1703,1628 L1704,1629 L1704,1631 L1703,1632 L1703,1633 L1702,1635 L1701,1636 L1700,1638 L1698,1640 L1692,1644 L1689,1645 L1686,1645 L1680,1643 L1674,1639 L1670,1633 L1669,1630 L1668,1626 L1668,1623 L1672,1615 L1678,1611 L1686,1611 L1688,1612 L1691,1614 L1695,1618 L1695,1618 Z M1688,1620 L1685,1617 L1682,1616 L1679,1617 L1675,1619 L1674,1621 L1673,1622 L1673,1627 L1675,1631 L1676,1632 L1688,1620 L1688,1620 Z M1802,1491 L1802,1492 L1803,1493 L1803,1494 L1802,1494 L1802,1495 L1800,1495 L1800,1496 L1799,1496 L1799,1497 L1798,1498 L1798,1505 L1799,1507 L1814,1522 L1814,1523 L1813,1523 L1813,1524 L1812,1524 L1812,1525 L1811,1525 L1811,1526 L1809,1526 L1787,1503 L1786,1502 L1787,1502 L1787,1501 L1788,1500 L1789,1500 L1789,1499 L1791,1499 L1794,1503 L1794,1501 L1793,1499 L1793,1498 L1794,1496 L1794,1494 L1796,1492 L1796,1491 L1797,1491 L1798,1490 L1801,1490 L1801,1491 L1802,1491 L1802,1491 Z M1732,1561 L1732,1562 L1733,1562 L1733,1564 L1732,1564 L1728,1568 L1728,1572 L1729,1574 L1729,1576 L1744,1591 L1744,1593 L1741,1596 L1740,1596 L1740,1595 L1717,1573 L1717,1571 L1718,1571 L1718,1570 L1719,1570 L1719,1569 L1721,1569 L1724,1572 L1724,1564 L1726,1562 L1726,1561 L1727,1561 L1728,1560 L1729,1560 L1729,1559 L1730,1559 L1730,1560 L1731,1560 L1731,1561 L1732,1561 L1732,1561 Z M1850,1463 L1850,1465 L1839,1475 L1839,1476 L1838,1476 L1838,1475 L1837,1474 L1836,1474 L1835,1473 L1835,1472 L1836,1472 L1846,1461 L1848,1461 L1850,1463 L1850,1463 Z" id="Shape" fill="#000000" sketch:type="MSShapeGroup"></path>
                            <path d="M1903,1584 L1903,1586 L1902,1586 L1902,1587 L1901,1587 L1901,1588 L1900,1588 L1900,1589 L1898,1589 L1870,1560 L1887,1600 L1887,1602 L1886,1602 L1886,1603 L1885,1603 L1885,1604 L1884,1604 L1884,1605 L1883,1605 L1843,1587 L1872,1616 L1872,1617 L1871,1617 L1871,1618 L1870,1619 L1869,1619 L1869,1620 L1867,1620 L1836,1589 L1836,1587 L1840,1583 L1841,1583 L1841,1582 L1842,1582 L1843,1581 L1844,1581 L1844,1582 L1846,1582 L1879,1597 L1879,1596 L1865,1563 L1865,1561 L1864,1561 L1864,1560 L1865,1559 L1865,1558 L1869,1554 L1870,1554 L1870,1553 L1871,1553 L1871,1554 L1873,1554 L1903,1584 L1903,1584 Z M1995,1492 L1995,1494 L1994,1494 L1994,1495 L1993,1495 L1993,1496 L1992,1496 L1992,1497 L1990,1497 L1977,1483 L1974,1480 L1973,1480 L1971,1479 L1968,1479 L1967,1480 L1965,1481 L1963,1485 L1963,1492 L1979,1508 L1979,1510 L1978,1511 L1977,1511 L1977,1512 L1975,1512 L1941,1478 L1941,1477 L1944,1474 L1946,1474 L1959,1488 L1959,1484 L1960,1481 L1961,1479 L1965,1475 L1967,1474 L1970,1473 L1972,1473 L1976,1475 L1979,1477 L1981,1479 L1995,1492 L1995,1492 Z M2037,1448 L2037,1449 L2038,1449 L2038,1451 L2020,1468 L2019,1468 L2017,1466 L2017,1464 L2024,1457 L1999,1433 L1996,1443 L1996,1444 L1994,1444 L1994,1443 L1993,1443 L1993,1442 L1992,1441 L1992,1440 L1995,1428 L1995,1427 L1996,1427 L1996,1426 L1997,1426 L1999,1424 L2028,1453 L2034,1447 L2036,1447 L2036,1448 L2037,1448 L2037,1448 Z M2058,1414 L2058,1415 L2054,1419 L2061,1426 L2061,1428 L2059,1430 L2058,1430 L2057,1431 L2057,1430 L2050,1423 L2036,1437 L2034,1437 L2033,1436 L2033,1435 L2032,1435 L2032,1434 L2031,1433 L2023,1401 L2023,1400 L2026,1397 L2027,1397 L2027,1396 L2028,1395 L2030,1395 L2051,1416 L2054,1412 L2056,1412 L2058,1414 L2058,1414 Z M2028,1402 L2036,1430 L2046,1420 L2028,1402 L2028,1402 Z M1928,1559 L1928,1561 L1927,1561 L1927,1562 L1926,1563 L1924,1563 L1922,1561 L1922,1564 L1921,1566 L1920,1569 L1916,1573 L1912,1575 L1907,1575 L1905,1574 L1903,1572 L1900,1566 L1901,1563 L1902,1561 L1903,1558 L1905,1556 L1907,1553 L1910,1550 L1906,1546 L1901,1546 L1900,1547 L1898,1548 L1895,1551 L1895,1553 L1894,1554 L1894,1556 L1893,1557 L1893,1558 L1891,1558 L1889,1556 L1889,1554 L1890,1553 L1890,1552 L1891,1550 L1892,1549 L1892,1547 L1895,1544 L1897,1543 L1900,1541 L1902,1540 L1906,1540 L1908,1541 L1910,1543 L1912,1544 L1928,1559 L1928,1559 Z M1913,1553 L1910,1557 L1907,1560 L1906,1562 L1906,1565 L1907,1567 L1907,1568 L1909,1569 L1913,1569 L1917,1565 L1918,1563 L1918,1558 L1913,1553 L1913,1553 Z M1967,1513 L1967,1514 L1968,1515 L1968,1520 L1965,1523 L1964,1525 L1961,1528 L1958,1529 L1956,1530 L1953,1530 L1947,1528 L1941,1524 L1938,1520 L1936,1517 L1934,1511 L1936,1505 L1937,1503 L1939,1500 L1941,1498 L1943,1498 L1944,1497 L1945,1497 L1946,1496 L1949,1496 L1952,1499 L1952,1500 L1951,1501 L1947,1501 L1945,1502 L1944,1503 L1942,1504 L1940,1507 L1940,1511 L1942,1515 L1945,1519 L1949,1523 L1951,1524 L1957,1524 L1959,1523 L1961,1521 L1962,1519 L1963,1518 L1963,1516 L1964,1515 L1964,1512 L1965,1512 L1966,1513 L1967,1513 L1967,1513 Z M1929,1518 L1929,1520 L1928,1520 L1927,1521 L1926,1521 L1925,1522 L1925,1523 L1924,1523 L1924,1528 L1925,1530 L1925,1532 L1940,1547 L1940,1549 L1938,1551 L1937,1551 L1936,1552 L1936,1551 L1913,1529 L1913,1527 L1914,1527 L1914,1526 L1915,1526 L1915,1525 L1917,1525 L1920,1528 L1920,1520 L1921,1519 L1921,1518 L1922,1517 L1923,1517 L1925,1515 L1926,1515 L1929,1518 L1929,1518 Z M2000,1462 L2001,1463 L2001,1465 L1991,1476 L1989,1476 L1987,1474 L1987,1472 L1998,1462 L1998,1461 L1999,1461 L1999,1462 L2000,1462 L2000,1462 Z" id="Shape" fill="#000000" sketch:type="MSShapeGroup"></path>
                            <path d="M2080,1557 L2080,1558 L2081,1558 L2081,1560 L2080,1560 L2079,1561 L2079,1562 L2078,1562 L2078,1563 L2076,1563 L2065,1558 L2052,1571 L2057,1582 L2057,1583 L2055,1585 L2055,1586 L2052,1586 L2052,1585 L2032,1544 L2032,1542 L2033,1542 L2033,1541 L2034,1541 L2034,1540 L2035,1540 L2036,1539 L2036,1538 L2038,1538 L2080,1557 L2080,1557 Z M2039,1545 L2049,1567 L2061,1555 L2039,1545 L2039,1545 Z M2188,1448 L2189,1449 L2189,1451 L2172,1468 L2170,1468 L2169,1467 L2169,1466 L2168,1466 L2168,1465 L2175,1458 L2150,1433 L2148,1443 L2148,1444 L2146,1444 L2144,1442 L2144,1441 L2147,1428 L2147,1427 L2148,1427 L2148,1426 L2149,1426 L2149,1425 L2150,1425 L2150,1424 L2151,1425 L2180,1453 L2186,1447 L2187,1447 L2187,1448 L2188,1448 L2188,1448 Z M2097,1524 L2099,1527 L2101,1533 L2101,1538 L2097,1544 L2096,1545 L2095,1545 L2094,1546 L2093,1546 L2092,1547 L2087,1547 L2099,1559 L2098,1560 L2098,1561 L2097,1561 L2097,1562 L2096,1562 L2096,1563 L2094,1563 L2094,1562 L2063,1531 L2062,1531 L2062,1530 L2063,1530 L2063,1529 L2064,1528 L2064,1527 L2066,1527 L2069,1530 L2069,1526 L2070,1525 L2070,1523 L2071,1522 L2071,1520 L2073,1518 L2076,1516 L2078,1515 L2081,1514 L2084,1514 L2087,1516 L2089,1517 L2092,1519 L2097,1524 L2097,1524 Z M2091,1526 L2089,1525 L2087,1523 L2081,1520 L2079,1520 L2078,1521 L2076,1522 L2075,1523 L2075,1524 L2074,1526 L2074,1527 L2073,1528 L2073,1532 L2074,1534 L2083,1543 L2086,1543 L2089,1542 L2093,1540 L2094,1539 L2096,1535 L2093,1529 L2092,1528 L2091,1526 L2091,1526 Z M2208,1413 L2209,1414 L2209,1415 L2210,1415 L2206,1419 L2212,1426 L2213,1427 L2212,1428 L2212,1429 L2211,1429 L2211,1430 L2210,1430 L2210,1431 L2208,1431 L2201,1424 L2187,1438 L2186,1438 L2186,1437 L2185,1436 L2184,1436 L2184,1435 L2183,1435 L2183,1433 L2174,1402 L2174,1401 L2175,1401 L2175,1400 L2176,1399 L2176,1398 L2177,1397 L2178,1397 L2180,1395 L2181,1395 L2202,1416 L2206,1412 L2208,1412 L2208,1413 L2208,1413 Z M2180,1402 L2187,1431 L2198,1420 L2180,1402 L2180,1402 Z M2147,1492 L2147,1493 L2144,1496 L2143,1496 L2109,1462 L2109,1461 L2110,1460 L2110,1459 L2111,1459 L2112,1458 L2113,1458 L2147,1492 L2147,1492 Z M2105,1493 L2106,1493 L2106,1495 L2104,1495 L2104,1496 L2103,1496 L2102,1497 L2102,1498 L2101,1498 L2101,1505 L2102,1507 L2116,1522 L2117,1523 L2117,1524 L2116,1524 L2116,1525 L2115,1525 L2115,1526 L2114,1526 L2113,1527 L2090,1504 L2089,1504 L2089,1503 L2092,1500 L2093,1500 L2097,1503 L2096,1501 L2096,1496 L2097,1495 L2097,1494 L2098,1494 L2098,1493 L2099,1492 L2100,1492 L2100,1491 L2101,1491 L2102,1490 L2103,1490 L2103,1491 L2105,1493 L2105,1493 Z M2135,1504 L2135,1506 L2134,1506 L2134,1507 L2133,1507 L2133,1508 L2131,1508 L2131,1509 L2108,1486 L2108,1485 L2107,1485 L2108,1485 L2108,1484 L2109,1484 L2109,1483 L2110,1482 L2111,1482 L2111,1481 L2112,1481 L2135,1504 L2135,1504 Z M2152,1462 L2154,1464 L2142,1476 L2140,1474 L2139,1474 L2139,1472 L2150,1461 L2152,1461 L2152,1462 L2152,1462 Z M2105,1473 L2106,1475 L2106,1477 L2104,1479 L2102,1480 L2101,1480 L2099,1478 L2098,1476 L2099,1475 L2100,1473 L2101,1472 L2104,1472 L2105,1473 L2105,1473 Z" id="Shape" fill="#000000" sketch:type="MSShapeGroup"></path>
                            <path d="M2250,1541 L2250,1542 L2247,1545 L2245,1545 L2217,1517 L2234,1557 L2234,1558 L2232,1560 L2231,1560 L2231,1561 L2230,1561 L2190,1543 L2219,1572 L2219,1573 L2217,1575 L2217,1576 L2214,1576 L2183,1545 L2183,1544 L2184,1543 L2184,1542 L2187,1540 L2188,1539 L2188,1538 L2192,1538 L2193,1539 L2226,1553 L2212,1520 L2212,1515 L2213,1514 L2213,1513 L2216,1511 L2216,1510 L2219,1510 L2250,1541 L2250,1541 Z M2294,1498 L2299,1509 L2299,1511 L2297,1513 L2297,1514 L2294,1514 L2294,1513 L2289,1502 L2288,1502 L2258,1489 L2258,1488 L2257,1488 L2257,1486 L2258,1486 L2258,1485 L2259,1485 L2260,1484 L2260,1483 L2261,1483 L2262,1484 L2287,1495 L2275,1471 L2274,1470 L2278,1466 L2279,1466 L2279,1467 L2294,1498 L2294,1498 Z M2340,1448 L2341,1449 L2341,1451 L2324,1468 L2322,1468 L2320,1466 L2320,1465 L2327,1458 L2302,1433 L2300,1443 L2300,1444 L2298,1444 L2296,1442 L2296,1441 L2298,1428 L2299,1428 L2299,1427 L2300,1427 L2300,1426 L2301,1426 L2301,1425 L2302,1425 L2302,1424 L2302,1425 L2303,1425 L2331,1453 L2337,1447 L2339,1447 L2339,1448 L2340,1448 L2340,1448 Z M2360,1413 L2361,1414 L2361,1416 L2357,1419 L2364,1426 L2364,1429 L2363,1429 L2361,1431 L2360,1431 L2353,1424 L2340,1437 L2339,1437 L2339,1438 L2338,1438 L2338,1437 L2337,1437 L2337,1436 L2336,1436 L2336,1435 L2335,1435 L2335,1434 L2334,1433 L2326,1402 L2326,1401 L2327,1400 L2327,1399 L2329,1397 L2330,1397 L2330,1396 L2331,1396 L2331,1395 L2333,1395 L2354,1416 L2357,1412 L2360,1412 L2360,1413 L2360,1413 Z M2331,1402 L2339,1431 L2349,1420 L2331,1402 L2331,1402 Z M2275,1516 L2275,1517 L2272,1520 L2269,1517 L2269,1520 L2267,1526 L2265,1528 L2261,1530 L2260,1531 L2258,1532 L2256,1532 L2250,1529 L2249,1527 L2248,1524 L2247,1522 L2249,1518 L2250,1515 L2252,1512 L2257,1507 L2252,1502 L2249,1502 L2247,1504 L2245,1505 L2244,1507 L2243,1508 L2242,1510 L2241,1511 L2241,1512 L2240,1513 L2240,1515 L2239,1515 L2239,1514 L2237,1514 L2237,1512 L2236,1512 L2236,1510 L2237,1509 L2237,1508 L2239,1506 L2240,1504 L2241,1503 L2242,1501 L2245,1499 L2247,1497 L2249,1496 L2253,1496 L2255,1497 L2257,1499 L2259,1500 L2275,1516 L2275,1516 Z M2260,1510 L2254,1516 L2253,1518 L2253,1522 L2254,1523 L2254,1524 L2258,1526 L2262,1524 L2264,1522 L2265,1520 L2265,1514 L2260,1510 L2260,1510 Z M2305,1463 L2305,1465 L2294,1475 L2294,1476 L2293,1476 L2293,1475 L2292,1474 L2291,1474 L2291,1472 L2302,1461 L2303,1461 L2305,1463 L2305,1463 Z" id="Shape" fill="#000000" sketch:type="MSShapeGroup"></path>
                            <path d="M2493,1449 L2493,1451 L2476,1468 L2474,1468 L2474,1467 L2473,1467 L2472,1466 L2472,1464 L2479,1457 L2454,1433 L2452,1443 L2451,1444 L2450,1444 L2448,1442 L2448,1440 L2450,1428 L2451,1428 L2451,1426 L2452,1426 L2454,1424 L2455,1424 L2483,1453 L2489,1447 L2491,1447 L2493,1449 L2493,1449 Z M2398,1545 L2398,1546 L2397,1546 L2397,1547 L2396,1547 L2396,1548 L2395,1548 L2395,1549 L2394,1549 L2394,1548 L2391,1545 L2391,1549 L2389,1555 L2385,1559 L2381,1561 L2378,1561 L2374,1559 L2372,1557 L2369,1555 L2355,1542 L2355,1540 L2356,1540 L2356,1539 L2357,1539 L2357,1538 L2358,1538 L2358,1537 L2359,1537 L2373,1551 L2375,1552 L2376,1553 L2378,1554 L2379,1555 L2381,1555 L2382,1554 L2383,1554 L2384,1553 L2386,1549 L2387,1546 L2386,1542 L2371,1526 L2370,1526 L2370,1525 L2371,1525 L2371,1524 L2372,1524 L2372,1523 L2373,1523 L2373,1522 L2375,1522 L2398,1545 L2398,1545 Z M2425,1517 L2425,1519 L2424,1519 L2424,1520 L2423,1520 L2423,1521 L2422,1521 L2422,1522 L2421,1522 L2406,1507 L2404,1506 L2403,1505 L2401,1504 L2400,1504 L2398,1505 L2397,1505 L2394,1508 L2394,1510 L2393,1513 L2393,1517 L2409,1533 L2410,1533 L2410,1534 L2409,1534 L2409,1535 L2407,1537 L2405,1537 L2382,1514 L2382,1513 L2383,1513 L2383,1512 L2384,1512 L2384,1511 L2385,1511 L2385,1510 L2386,1510 L2386,1511 L2389,1514 L2389,1510 L2391,1504 L2395,1500 L2397,1499 L2400,1498 L2402,1498 L2406,1500 L2409,1502 L2411,1504 L2425,1517 L2425,1517 Z M2512,1413 L2512,1414 L2513,1415 L2513,1416 L2512,1416 L2509,1420 L2516,1427 L2516,1428 L2515,1428 L2515,1429 L2513,1431 L2511,1431 L2504,1424 L2491,1437 L2491,1438 L2489,1438 L2489,1437 L2488,1437 L2488,1436 L2487,1436 L2487,1435 L2486,1435 L2486,1433 L2478,1402 L2478,1400 L2479,1400 L2479,1399 L2480,1399 L2480,1398 L2482,1396 L2483,1396 L2483,1395 L2484,1395 L2505,1416 L2509,1412 L2510,1412 L2511,1413 L2512,1413 L2512,1413 Z M2483,1403 L2490,1431 L2501,1420 L2483,1403 L2483,1403 Z M2364,1567 L2367,1573 L2367,1575 L2365,1579 L2363,1581 L2363,1582 L2362,1582 L2361,1583 L2360,1583 L2360,1584 L2357,1584 L2354,1581 L2354,1580 L2355,1580 L2356,1579 L2358,1579 L2359,1578 L2359,1577 L2360,1577 L2361,1576 L2361,1573 L2334,1546 L2334,1544 L2337,1541 L2338,1541 L2364,1567 L2364,1567 Z M2439,1478 L2440,1479 L2440,1482 L2425,1497 L2428,1500 L2430,1501 L2434,1501 L2438,1499 L2444,1493 L2444,1491 L2445,1490 L2445,1489 L2446,1489 L2446,1488 L2448,1488 L2448,1489 L2449,1490 L2449,1491 L2450,1491 L2450,1492 L2449,1492 L2449,1494 L2448,1495 L2447,1497 L2443,1501 L2440,1503 L2438,1505 L2432,1507 L2426,1505 L2423,1503 L2417,1497 L2415,1494 L2413,1488 L2413,1485 L2414,1482 L2416,1479 L2418,1477 L2421,1475 L2423,1473 L2426,1472 L2429,1472 L2431,1473 L2434,1474 L2437,1476 L2439,1477 L2439,1478 L2439,1478 Z M2434,1481 L2431,1479 L2427,1477 L2424,1478 L2421,1480 L2420,1482 L2419,1483 L2418,1485 L2418,1487 L2419,1489 L2419,1490 L2421,1492 L2422,1494 L2434,1481 L2434,1481 Z M2456,1462 L2457,1463 L2457,1465 L2456,1465 L2446,1476 L2444,1476 L2443,1475 L2443,1474 L2442,1473 L2442,1472 L2453,1462 L2453,1461 L2454,1461 L2454,1462 L2456,1462 L2456,1462 Z" id="Shape" fill="#000000" sketch:type="MSShapeGroup"></path>
                            <path d="M2597,1498 L2602,1509 L2603,1510 L2602,1511 L2602,1512 L2600,1514 L2598,1514 L2598,1513 L2593,1502 L2593,1503 L2592,1503 L2591,1502 L2562,1489 L2561,1489 L2560,1488 L2560,1487 L2561,1487 L2561,1486 L2562,1485 L2563,1485 L2563,1484 L2564,1484 L2564,1483 L2565,1484 L2590,1495 L2578,1471 L2578,1469 L2579,1469 L2579,1468 L2581,1466 L2582,1466 L2583,1467 L2597,1498 L2597,1498 Z M2644,1448 L2645,1448 L2645,1450 L2628,1467 L2628,1468 L2627,1468 L2626,1467 L2625,1467 L2625,1466 L2624,1466 L2624,1464 L2631,1457 L2606,1432 L2604,1442 L2604,1443 L2603,1444 L2602,1444 L2602,1443 L2601,1443 L2601,1442 L2600,1442 L2600,1440 L2602,1428 L2603,1427 L2603,1426 L2604,1426 L2606,1424 L2607,1424 L2635,1453 L2641,1447 L2643,1447 L2644,1448 L2644,1448 Z M2567,1527 L2567,1529 L2566,1529 L2566,1530 L2565,1530 L2565,1531 L2563,1531 L2560,1528 L2560,1532 L2558,1538 L2557,1540 L2554,1542 L2552,1543 L2547,1543 L2541,1540 L2538,1538 L2525,1524 L2524,1524 L2524,1523 L2525,1523 L2525,1522 L2526,1522 L2526,1521 L2527,1521 L2527,1520 L2529,1520 L2545,1536 L2547,1537 L2551,1537 L2553,1536 L2554,1535 L2556,1531 L2556,1524 L2540,1509 L2540,1507 L2543,1504 L2544,1504 L2567,1527 L2567,1527 Z M2664,1413 L2664,1414 L2665,1415 L2665,1416 L2664,1416 L2661,1420 L2668,1426 L2668,1428 L2667,1428 L2667,1429 L2666,1429 L2666,1430 L2665,1430 L2665,1431 L2663,1431 L2656,1424 L2643,1437 L2643,1438 L2642,1438 L2640,1436 L2639,1436 L2639,1435 L2638,1435 L2638,1433 L2630,1402 L2630,1400 L2631,1399 L2632,1399 L2632,1398 L2635,1395 L2636,1395 L2657,1416 L2661,1412 L2662,1412 L2663,1413 L2664,1413 L2664,1413 Z M2635,1402 L2642,1431 L2653,1420 L2635,1402 L2635,1402 Z M2579,1515 L2579,1517 L2578,1517 L2578,1518 L2577,1518 L2577,1519 L2576,1519 L2576,1520 L2575,1520 L2575,1519 L2541,1486 L2541,1484 L2542,1484 L2542,1483 L2543,1482 L2544,1482 L2544,1481 L2545,1481 L2545,1482 L2579,1515 L2579,1515 Z M2535,1551 L2536,1553 L2536,1559 L2535,1561 L2530,1566 L2526,1566 L2524,1564 L2524,1562 L2526,1562 L2527,1561 L2528,1561 L2530,1559 L2530,1555 L2528,1553 L2527,1551 L2503,1528 L2503,1527 L2507,1523 L2508,1523 L2508,1524 L2535,1551 L2535,1551 Z M2608,1462 L2609,1463 L2609,1465 L2608,1465 L2598,1475 L2598,1476 L2596,1476 L2595,1475 L2595,1474 L2594,1473 L2594,1472 L2605,1461 L2606,1461 L2607,1462 L2608,1462 L2608,1462 Z" id="Shape" fill="#000000" sketch:type="MSShapeGroup"></path>
                            <path d="M2639,1605 L2640,1605 L2641,1606 L2641,1607 L2640,1607 L2640,1608 L2639,1608 L2639,1609 L2638,1609 L2637,1610 L2636,1610 L2625,1605 L2612,1618 L2617,1629 L2617,1631 L2616,1631 L2616,1632 L2615,1632 L2615,1633 L2614,1633 L2614,1634 L2613,1634 L2612,1633 L2612,1632 L2592,1591 L2592,1589 L2593,1589 L2594,1588 L2594,1587 L2595,1587 L2597,1585 L2598,1585 L2639,1605 L2639,1605 Z M2599,1592 L2598,1592 L2609,1614 L2620,1602 L2599,1592 L2599,1592 Z M2669,1533 L2670,1534 L2670,1536 L2667,1539 L2669,1539 L2670,1540 L2672,1541 L2673,1541 L2675,1544 L2676,1546 L2676,1552 L2674,1556 L2668,1562 L2666,1562 L2666,1563 L2667,1564 L2667,1565 L2668,1565 L2669,1566 L2670,1566 L2672,1565 L2673,1564 L2679,1559 L2681,1557 L2685,1555 L2690,1555 L2692,1556 L2693,1557 L2696,1563 L2696,1565 L2695,1568 L2694,1570 L2690,1576 L2684,1580 L2680,1582 L2676,1582 L2675,1581 L2673,1580 L2673,1579 L2672,1578 L2672,1577 L2671,1576 L2671,1571 L2666,1571 L2665,1570 L2663,1566 L2662,1565 L2662,1563 L2661,1562 L2659,1562 L2657,1561 L2655,1559 L2652,1553 L2652,1549 L2653,1546 L2655,1544 L2656,1542 L2658,1540 L2659,1540 L2667,1532 L2669,1532 L2669,1533 L2669,1533 Z M2689,1561 L2687,1560 L2685,1560 L2683,1561 L2681,1563 L2675,1568 L2675,1573 L2677,1575 L2679,1576 L2681,1576 L2684,1575 L2688,1571 L2689,1569 L2690,1568 L2691,1566 L2691,1565 L2690,1563 L2690,1562 L2689,1561 L2689,1561 Z M2796,1448 L2796,1449 L2797,1449 L2797,1450 L2779,1468 L2778,1468 L2778,1467 L2777,1467 L2777,1466 L2776,1466 L2776,1464 L2783,1457 L2758,1432 L2755,1442 L2755,1444 L2754,1444 L2752,1442 L2752,1441 L2751,1441 L2751,1440 L2754,1428 L2754,1427 L2755,1427 L2755,1426 L2756,1425 L2757,1425 L2757,1424 L2759,1424 L2787,1453 L2793,1447 L2795,1447 L2796,1448 L2796,1448 Z M2665,1582 L2665,1583 L2664,1583 L2664,1584 L2663,1584 L2663,1585 L2661,1585 L2658,1582 L2658,1586 L2656,1592 L2652,1596 L2650,1597 L2643,1597 L2641,1596 L2639,1594 L2636,1592 L2622,1578 L2622,1577 L2623,1576 L2623,1575 L2624,1575 L2625,1574 L2626,1574 L2640,1587 L2643,1590 L2645,1591 L2649,1591 L2651,1589 L2653,1585 L2654,1582 L2653,1579 L2638,1563 L2637,1563 L2637,1562 L2641,1558 L2642,1558 L2642,1559 L2665,1582 L2665,1582 Z M2816,1414 L2816,1416 L2812,1420 L2819,1426 L2820,1427 L2819,1427 L2819,1429 L2818,1429 L2816,1431 L2815,1431 L2808,1424 L2795,1437 L2795,1438 L2793,1438 L2793,1437 L2792,1437 L2792,1436 L2791,1436 L2791,1435 L2790,1435 L2790,1433 L2781,1402 L2781,1401 L2782,1401 L2782,1400 L2785,1397 L2785,1396 L2786,1396 L2787,1395 L2788,1395 L2809,1416 L2813,1412 L2814,1412 L2816,1414 L2816,1414 Z M2787,1402 L2794,1431 L2805,1420 L2787,1402 L2787,1402 Z M2716,1530 L2716,1532 L2715,1532 L2715,1533 L2714,1533 L2714,1534 L2713,1534 L2709,1530 L2709,1537 L2708,1540 L2704,1544 L2701,1545 L2699,1546 L2697,1546 L2695,1545 L2692,1544 L2688,1540 L2674,1527 L2674,1525 L2677,1522 L2678,1522 L2691,1536 L2697,1539 L2698,1540 L2699,1540 L2700,1539 L2702,1539 L2703,1538 L2705,1534 L2705,1527 L2689,1511 L2689,1510 L2692,1507 L2693,1507 L2716,1530 L2716,1530 Z M2754,1488 L2755,1489 L2755,1492 L2754,1493 L2754,1494 L2753,1495 L2752,1495 L2751,1497 L2747,1499 L2745,1499 L2744,1498 L2740,1496 L2725,1481 L2721,1485 L2721,1484 L2720,1484 L2719,1483 L2718,1483 L2718,1481 L2721,1478 L2716,1472 L2716,1470 L2717,1470 L2717,1469 L2718,1469 L2718,1468 L2720,1468 L2726,1473 L2731,1468 L2732,1468 L2732,1467 L2733,1468 L2734,1468 L2734,1469 L2735,1470 L2735,1471 L2729,1477 L2742,1490 L2746,1492 L2748,1492 L2750,1491 L2750,1490 L2751,1490 L2751,1488 L2752,1488 L2752,1487 L2753,1488 L2754,1488 L2754,1488 Z M2732,1502 L2733,1504 L2734,1505 L2735,1507 L2735,1509 L2734,1512 L2732,1516 L2727,1521 L2725,1521 L2724,1522 L2723,1522 L2723,1523 L2721,1523 L2721,1522 L2720,1522 L2718,1520 L2718,1519 L2719,1519 L2719,1518 L2721,1518 L2723,1517 L2724,1516 L2726,1515 L2729,1512 L2729,1510 L2730,1509 L2729,1508 L2729,1507 L2727,1505 L2723,1505 L2722,1506 L2721,1506 L2720,1507 L2718,1507 L2717,1508 L2715,1508 L2714,1509 L2710,1509 L2708,1508 L2707,1507 L2705,1506 L2704,1505 L2703,1503 L2703,1497 L2704,1495 L2706,1493 L2707,1491 L2709,1489 L2710,1489 L2711,1488 L2712,1488 L2713,1487 L2715,1487 L2715,1488 L2716,1488 L2717,1489 L2717,1491 L2716,1491 L2715,1492 L2714,1492 L2712,1493 L2711,1494 L2710,1494 L2709,1496 L2708,1497 L2708,1500 L2709,1501 L2709,1502 L2710,1503 L2716,1503 L2717,1502 L2718,1502 L2719,1501 L2721,1500 L2723,1500 L2725,1499 L2728,1499 L2729,1500 L2731,1501 L2732,1502 L2732,1502 Z M2669,1545 L2667,1544 L2664,1543 L2662,1544 L2659,1545 L2658,1547 L2657,1548 L2657,1552 L2659,1554 L2659,1555 L2662,1557 L2664,1558 L2667,1557 L2671,1553 L2671,1549 L2670,1548 L2670,1547 L2669,1545 L2669,1545 Z M2760,1463 L2760,1465 L2749,1476 L2748,1476 L2746,1474 L2746,1472 L2757,1461 L2758,1461 L2760,1463 L2760,1463 Z" id="Shape" fill="#000000" sketch:type="MSShapeGroup"></path>
                            <g id="Group" transform="translate(31.000000, 706.000000) rotate(-90.000000) translate(-31.000000, -706.000000) translate(-30.000000, 676.000000)" font-size="48.9894707" font-family="Calibri" fill="#000000" sketch:type="MSTextLayer" font-weight="bold">
                                <g id="Count">
                                    <text>
                                        <tspan x="0" y="47">Count</tspan>
                                    </text>
                                </g>
                            </g>
                            <text id="Month" fill="#000000" sketch:type="MSTextLayer" font-family="Calibri" font-size="48.9894707" font-weight="bold">
                                <tspan x="1491" y="1826">Month</tspan>
                            </text>
                            <path d="M3003,734 L3188,734 L3191,735 L3194,737 L3195,739 L3196,742 L3194,748 L3188,750 L3003,750 L3000,749 L2998,748 L2996,745 L2995,742 L2996,739 L3000,735 L3003,734 L3003,734 Z" id="Shape" fill="#C00000" sketch:type="MSShapeGroup"></path>
                            <text id="Total" fill="#000000" sketch:type="MSTextLayer" font-family="Calibri" font-size="48.9894707" font-weight="normal">
                                <tspan x="3209" y="764">Total</tspan>
                            </text>
                            <text id="Posts" fill="#000000" sketch:type="MSTextLayer" font-family="Calibri" font-size="48.9894707" font-weight="normal">
                                <tspan x="3376" y="764">Posts</tspan>
                            </text>
                            <text id="(Helpdesk)" fill="#000000" sketch:type="MSTextLayer" font-family="Calibri" font-size="48.9894707" font-weight="normal">
                                <tspan x="3550" y="764">(Helpdesk)</tspan>
                            </text>
                            <path d="M3003,866 L3035,866 L3038,867 L3041,869 L3042,871 L3043,874 L3041,880 L3035,882 L3003,882 L3000,881 L2998,880 L2996,877 L2995,874 L2996,871 L3000,867 L3003,866 L3003,866 Z M3067,866 L3099,866 L3102,867 L3105,869 L3106,871 L3107,874 L3105,880 L3099,882 L3067,882 L3064,881 L3062,880 L3060,877 L3059,874 L3060,871 L3064,867 L3067,866 L3067,866 Z M3131,866 L3163,866 L3166,867 L3169,869 L3170,871 L3171,874 L3169,880 L3163,882 L3131,882 L3128,881 L3126,880 L3124,877 L3123,874 L3124,871 L3128,867 L3131,866 L3131,866 Z" id="Shape" fill="#C00000" sketch:type="MSShapeGroup"></path>
                            <text id="Total" fill="#000000" sketch:type="MSTextLayer" font-family="Calibri" font-size="48.9894707" font-weight="normal">
                                <tspan x="3209" y="896">Total</tspan>
                            </text>
                            <text id="Topics" fill="#000000" sketch:type="MSTextLayer" font-family="Calibri" font-size="48.9894707" font-weight="normal">
                                <tspan x="3376" y="896">Topics</tspan>
                            </text>
                            <text id="(Helpdesk)" fill="#000000" sketch:type="MSTextLayer" font-family="Calibri" font-size="48.9894707" font-weight="normal">
                                <tspan x="3581" y="896">(Helpdesk)</tspan>
                            </text>
                            <path d="M3003,999 L3188,999 L3191,1000 L3194,1002 L3195,1004 L3196,1007 L3194,1013 L3188,1015 L3003,1015 L3000,1014 L2998,1013 L2996,1010 L2995,1007 L2996,1004 L3000,1000 L3003,999 L3003,999 Z" id="Shape" fill="#376092" sketch:type="MSShapeGroup"></path>
                            <text id="Total" fill="#000000" sketch:type="MSTextLayer" font-family="Calibri" font-size="48.9894707" font-weight="normal">
                                <tspan x="3209" y="1028">Total</tspan>
                            </text>
                            <text id="Posts" fill="#000000" sketch:type="MSTextLayer" font-family="Calibri" font-size="48.9894707" font-weight="normal">
                                <tspan x="3376" y="1028">Posts</tspan>
                            </text>
                            <text id="(Discuss)" fill="#000000" sketch:type="MSTextLayer" font-family="Calibri" font-size="48.9894707" font-weight="normal">
                                <tspan x="3550" y="1028">(Discuss)</tspan>
                            </text>
                            <path d="M3003,1131 L3035,1131 L3038,1132 L3041,1134 L3042,1136 L3043,1139 L3041,1145 L3035,1147 L3003,1147 L3000,1146 L2998,1145 L2996,1142 L2995,1139 L2996,1136 L3000,1132 L3003,1131 L3003,1131 Z M3067,1131 L3099,1131 L3102,1132 L3105,1134 L3106,1136 L3107,1139 L3105,1145 L3099,1147 L3067,1147 L3064,1146 L3062,1145 L3060,1142 L3059,1139 L3060,1136 L3064,1132 L3067,1131 L3067,1131 Z M3131,1131 L3163,1131 L3166,1132 L3169,1134 L3170,1136 L3171,1139 L3169,1145 L3163,1147 L3131,1147 L3128,1146 L3126,1145 L3124,1142 L3123,1139 L3124,1136 L3128,1132 L3131,1131 L3131,1131 Z" id="Shape" fill="#376092" sketch:type="MSShapeGroup"></path>
                            <text id="Total" fill="#000000" sketch:type="MSTextLayer" font-family="Calibri" font-size="48.9894707" font-weight="normal">
                                <tspan x="3209" y="1160">Total</tspan>
                            </text>
                            <text id="Topics" fill="#000000" sketch:type="MSTextLayer" font-family="Calibri" font-size="48.9894707" font-weight="normal">
                                <tspan x="3376" y="1160">Topics</tspan>
                            </text>
                            <text id="(Discuss)" fill="#000000" sketch:type="MSTextLayer" font-family="Calibri" font-size="48.9894707" font-weight="normal">
                                <tspan x="3581" y="1160">(Discuss)</tspan>
                            </text>
                        </g>
                    </g>
                </g>
            </g>
        </g>
    </g>
</svg>