<?xml version="1.0" encoding="UTF-8" standalone="no"?>
<svg width="2667px" height="1539px" viewBox="0 0 2667 1539" version="1.1" xmlns="http://www.w3.org/2000/svg" xmlns:xlink="http://www.w3.org/1999/xlink" xmlns:sketch="http://www.bohemiancoding.com/sketch/ns">
    <!-- Generator: Sketch 3.2.2 (9983) - http://www.bohemiancoding.com/sketch -->
    <title>web_site_visits_by_referrals</title>
    <desc>Created with Sketch.</desc>
    <defs></defs>
    <g id="Page-1" stroke="none" stroke-width="1" fill="none" fill-rule="evenodd" sketch:type="MSPage">
        <g id="web_site_visits_by_referrals" sketch:type="MSLayerGroup" transform="translate(-2.000000, 0.000000)">
            <g id="Page-1">
                <g id="Web-Site-Referrals-Jan-2012-to-Feb-2015-by-Source.001">
                    <g id="Page_1-Clipped">
                        <g id="Page_1">
                            <path d="M1533,692 L1827,1320 L1859,1304 L1890,1287 L1919,1268 L1947,1248 L1974,1227 L2000,1204 L2025,1181 L2048,1156 L2070,1130 L2090,1104 L2109,1076 L2127,1048 L2144,1019 L2172,959 L2184,928 L2195,897 L2204,864 L2211,832 L2217,799 L2221,766 L2224,733 L2225,699 L2225,666 L2223,632 L2219,598 L2214,564 L2206,531 L2197,497 L2187,464 L2174,431 L2160,398 L2137,354 L2111,311 L2083,271 L2052,233 L2018,198 L1982,165 L1944,135 L1904,108 L1863,83 L1819,62 L1774,43 L1728,28 L1681,16 L1632,7 L1583,2 L1533,0 L1533,692 L1533,692 Z" id="Shape" fill="#4572A7" sketch:type="MSShapeGroup"></path>
                            <path d="M1533,692 L1162,1278 L1200,1300 L1239,1320 L1279,1337 L1320,1352 L1362,1364 L1404,1373 L1446,1380 L1489,1384 L1532,1385 L1575,1384 L1618,1380 L1661,1373 L1703,1364 L1745,1352 L1786,1337 L1827,1320 L1533,692 L1533,692 Z" id="Shape" fill="#AA4643" sketch:type="MSShapeGroup"></path>
                            <path d="M1533,692 L970,1097 L990,1124 L1011,1149 L1057,1197 L1082,1219 L1108,1240 L1134,1259 L1162,1278 L1533,692 L1533,692 Z" id="Shape" fill="#89A54E" sketch:type="MSShapeGroup"></path>
                            <path d="M1533,692 L869,890 L878,918 L888,945 L899,971 L911,998 L924,1023 L938,1049 L970,1097 L1533,692 L1533,692 Z" id="Shape" fill="#71588F" sketch:type="MSShapeGroup"></path>
                            <path d="M1533,692 L840,709 L843,755 L849,800 L857,845 L869,890 L1533,692 L1533,692 Z" id="Shape" fill="#4198AF" sketch:type="MSShapeGroup"></path>
                            <path d="M1533,692 L841,648 L840,678 L840,709 L1533,692 L1533,692 Z" id="Shape" fill="#DB843D" sketch:type="MSShapeGroup"></path>
                            <path d="M1533,692 L845,607 L843,628 L841,648 L1533,692 L1533,692 Z" id="Shape" fill="#93A9CF" sketch:type="MSShapeGroup"></path>
                            <path d="M1533,692 L850,572 L845,607 L1533,692 L1533,692 Z" id="Shape" fill="#D19392" sketch:type="MSShapeGroup"></path>
                            <path d="M1533,692 L857,539 L850,572 L1533,692 L1533,692 Z" id="Shape" fill="#B9CD96" sketch:type="MSShapeGroup"></path>
                            <path d="M1533,692 L865,508 L857,539 L1533,692 L1533,692 Z" id="Shape" fill="#A99BBD" sketch:type="MSShapeGroup"></path>
                            <path d="M1533,692 L1533,0 L1475,2 L1446,5 L1390,15 L1363,21 L1335,29 L1309,37 L1282,47 L1257,57 L1231,69 L1206,82 L1159,110 L1113,142 L1070,177 L1031,215 L994,257 L961,302 L931,350 L917,375 L905,400 L893,426 L873,480 L865,508 L1533,692 L1533,692 Z" id="Shape" fill="#91C3D5" sketch:type="MSShapeGroup"></path>
                            <path d="M860,525 L355,145 L356,145 L328,145 L328,141 L357,141 L862,521 L860,525 L860,525 Z M853,558 L473,336 L474,336 L446,336 L446,332 L475,332 L855,554 L853,558 L853,558 Z M850,801 L627,1091 L625,1092 L596,1092 L596,1088 L625,1088 L623,1089 L846,799 L850,801 L850,801 Z M1060,1198 L912,1447 L910,1448 L882,1448 L882,1444 L910,1444 L908,1445 L1056,1196 L1060,1198 L1060,1198 Z M841,679 L669,855 L668,856 L640,856 L640,852 L668,852 L667,853 L839,677 L841,679 L841,679 Z M913,999 L824,1253 L822,1254 L794,1254 L794,1250 L822,1250 L820,1251 L909,997 L913,999 L913,999 Z M2208,541 L2341,401 L2342,400 L2371,400 L2371,404 L2342,404 L2343,403 L2210,543 L2208,541 L2208,541 Z M843,629 L543,695 L515,695 L515,691 L543,691 L843,625 L843,629 L843,629 Z M848,592 L489,540 L460,540 L460,536 L489,536 L848,588 L848,592 L848,592 Z M1112,143 L906,84 L907,84 L878,84 L878,80 L908,80 L1114,139 L1112,143 L1112,143 Z" id="Shape" fill="#000000" sketch:type="MSShapeGroup"></path>
                            <text id="google-/" fill="#000000" sketch:type="MSTextLayer" font-family="Calibri" font-size="42.2785843" font-weight="normal">
                                <tspan x="2381" y="403">google /</tspan>
                            </text>
                            <text id="organic" fill="#000000" sketch:type="MSTextLayer" font-family="Calibri" font-size="42.2785843" font-weight="normal">
                                <tspan x="2545" y="403">organic</tspan>
                            </text>
                            <text id="43%" fill="#000000" sketch:type="MSTextLayer" font-family="Calibri" font-size="42.2785843" font-weight="normal">
                                <tspan x="2534" y="480">43%</tspan>
                            </text>
                            <text id="(direct)-/" fill="#000000" sketch:type="MSTextLayer" font-family="Calibri" font-size="42.2785843" font-weight="normal">
                                <tspan x="1960" y="1410">(direct) /</tspan>
                            </text>
                            <text id="(none)" fill="#000000" sketch:type="MSTextLayer" font-family="Calibri" font-size="42.2785843" font-weight="normal">
                                <tspan x="2200" y="1410">(none)</tspan>
                            </text>
                            <text id="16%" fill="#000000" sketch:type="MSTextLayer" font-family="Calibri" font-size="42.2785843" font-weight="normal">
                                <tspan x="2109" y="1488">16%</tspan>
                            </text>
                            <text id="cytoscape.org" fill="#000000" sketch:type="MSTextLayer" font-family="Calibri" font-size="42.2785843" font-weight="normal">
                                <tspan x="515" y="1460">cytoscape.org</tspan>
                            </text>
                            <text id="6%" fill="#000000" sketch:type="MSTextLayer" font-family="Calibri" font-size="42.2785843" font-weight="normal">
                                <tspan x="656" y="1538">6%</tspan>
                            </text>
                            <text id="google.com" fill="#000000" sketch:type="MSTextLayer" font-family="Calibri" font-size="42.2785843" font-weight="normal">
                                <tspan x="486" y="1252">google.com</tspan>
                            </text>
                            <text id="5%" fill="#000000" sketch:type="MSTextLayer" font-family="Calibri" font-size="42.2785843" font-weight="normal">
                                <tspan x="597" y="1329">5%</tspan>
                            </text>
                            <text id="google-/" fill="#000000" sketch:type="MSTextLayer" font-family="Calibri" font-size="42.2785843" font-weight="normal">
                                <tspan x="275" y="1090">google /</tspan>
                            </text>
                            <text id="cpc" fill="#000000" sketch:type="MSTextLayer" font-family="Calibri" font-size="42.2785843" font-weight="normal">
                                <tspan x="500" y="1090">cpc</tspan>
                            </text>
                            <text id="4%" fill="#000000" sketch:type="MSTextLayer" font-family="Calibri" font-size="42.2785843" font-weight="normal">
                                <tspan x="393" y="1168">4%</tspan>
                            </text>
                            <text id="apps.cytoscape.org" fill="#000000" sketch:type="MSTextLayer" font-family="Calibri" font-size="42.2785843" font-weight="normal">
                                <tspan x="136" y="854">apps.cytoscape.org</tspan>
                            </text>
                            <text id="1%" fill="#000000" sketch:type="MSTextLayer" font-family="Calibri" font-size="42.2785843" font-weight="normal">
                                <tspan x="344" y="932">1%</tspan>
                            </text>
                            <text id="google.co.in" fill="#000000" sketch:type="MSTextLayer" font-family="Calibri" font-size="42.2785843" font-weight="normal">
                                <tspan x="194" y="693">google.co.in</tspan>
                            </text>
                            <text id="1%" fill="#000000" sketch:type="MSTextLayer" font-family="Calibri" font-size="42.2785843" font-weight="normal">
                                <tspan x="311" y="770">1%</tspan>
                            </text>
                            <text id="en.wikipedia.org" fill="#000000" sketch:type="MSTextLayer" font-family="Calibri" font-size="42.2785843" font-weight="normal">
                                <tspan x="24" y="538">en.wikipedia.org</tspan>
                            </text>
                            <text id="1%" fill="#000000" sketch:type="MSTextLayer" font-family="Calibri" font-size="42.2785843" font-weight="normal">
                                <tspan x="199" y="616">1%</tspan>
                            </text>
                            <text id="google.co.uk" fill="#000000" sketch:type="MSTextLayer" font-family="Calibri" font-size="42.2785843" font-weight="normal">
                                <tspan x="111" y="334">google.co.uk</tspan>
                            </text>
                            <text id="1%" fill="#000000" sketch:type="MSTextLayer" font-family="Calibri" font-size="42.2785843" font-weight="normal">
                                <tspan x="235" y="412">1%</tspan>
                            </text>
                            <text id="baidu-/" fill="#000000" sketch:type="MSTextLayer" font-family="Calibri" font-size="42.2785843" font-weight="normal">
                                <tspan x="0" y="144">baidu /</tspan>
                            </text>
                            <text id="organic" fill="#000000" sketch:type="MSTextLayer" font-family="Calibri" font-size="42.2785843" font-weight="normal">
                                <tspan x="129" y="144">organic</tspan>
                            </text>
                            <text id="1%" fill="#000000" sketch:type="MSTextLayer" font-family="Calibri" font-size="42.2785843" font-weight="normal">
                                <tspan x="87" y="221">1%</tspan>
                            </text>
                            <text id="other" fill="#000000" sketch:type="MSTextLayer" font-family="Calibri" font-size="42.2785843" font-weight="normal">
                                <tspan x="728" y="82">other</tspan>
                            </text>
                            <text id="21%" fill="#000000" sketch:type="MSTextLayer" font-family="Calibri" font-size="42.2785843" font-weight="normal">
                                <tspan x="743" y="160">21%</tspan>
                            </text>
                        </g>
                    </g>
                </g>
            </g>
        </g>
    </g>
</svg>