<?xml version="1.0" encoding="UTF-8" standalone="no"?>
<svg width="4086px" height="2047px" viewBox="0 0 4086 2047" version="1.1" xmlns="http://www.w3.org/2000/svg" xmlns:xlink="http://www.w3.org/1999/xlink" xmlns:sketch="http://www.bohemiancoding.com/sketch/ns">
    <!-- Generator: Sketch 3.2.2 (9983) - http://www.bohemiancoding.com/sketch -->
    <title>Web Site Referrals Jan 2012 to Feb 2015 by Source.001</title>
    <desc>Created with Sketch.</desc>
    <defs></defs>
    <g id="Page-1" stroke="none" stroke-width="1" fill="none" fill-rule="evenodd" sketch:type="MSPage">
        <g id="Web-Site-Referrals-Jan-2012-to-Feb-2015-by-Source.001" sketch:type="MSLayerGroup">
            <g id="Page_1-Clipped">
                <g id="Page_1">
                    <rect id="Rectangle-path" fill="#FFFFFF" sketch:type="MSShapeGroup" x="0" y="0" width="4086" height="2047"></rect>
                    <path d="M2043,1175 L2337,1803 L2369,1787 L2400,1770 L2429,1751 L2457,1731 L2484,1710 L2510,1687 L2535,1664 L2558,1639 L2580,1613 L2600,1587 L2619,1559 L2637,1531 L2654,1502 L2682,1442 L2694,1411 L2705,1380 L2714,1347 L2721,1315 L2727,1282 L2731,1249 L2734,1216 L2735,1182 L2735,1149 L2733,1115 L2729,1081 L2724,1047 L2716,1014 L2707,980 L2697,947 L2684,914 L2670,881 L2647,837 L2621,794 L2593,754 L2562,716 L2528,681 L2492,648 L2454,618 L2414,591 L2373,566 L2329,545 L2284,526 L2238,511 L2191,499 L2142,490 L2093,485 L2043,483 L2043,1175 L2043,1175 Z" id="Shape" fill="#4572A7" sketch:type="MSShapeGroup"></path>
                    <path d="M2043,1175 L1672,1761 L1710,1783 L1749,1803 L1789,1820 L1830,1835 L1872,1847 L1914,1856 L1956,1863 L1999,1867 L2042,1868 L2085,1867 L2128,1863 L2171,1856 L2213,1847 L2255,1835 L2296,1820 L2337,1803 L2043,1175 L2043,1175 Z" id="Shape" fill="#AA4643" sketch:type="MSShapeGroup"></path>
                    <path d="M2043,1175 L1480,1580 L1500,1607 L1521,1632 L1567,1680 L1592,1702 L1618,1723 L1644,1742 L1672,1761 L2043,1175 L2043,1175 Z" id="Shape" fill="#89A54E" sketch:type="MSShapeGroup"></path>
                    <path d="M2043,1175 L1379,1373 L1388,1401 L1398,1428 L1409,1454 L1421,1481 L1434,1506 L1448,1532 L1480,1580 L2043,1175 L2043,1175 Z" id="Shape" fill="#71588F" sketch:type="MSShapeGroup"></path>
                    <path d="M2043,1175 L1350,1192 L1353,1238 L1359,1283 L1367,1328 L1379,1373 L2043,1175 L2043,1175 Z" id="Shape" fill="#4198AF" sketch:type="MSShapeGroup"></path>
                    <path d="M2043,1175 L1351,1131 L1350,1161 L1350,1192 L2043,1175 L2043,1175 Z" id="Shape" fill="#DB843D" sketch:type="MSShapeGroup"></path>
                    <path d="M2043,1175 L1355,1090 L1353,1111 L1351,1131 L2043,1175 L2043,1175 Z" id="Shape" fill="#93A9CF" sketch:type="MSShapeGroup"></path>
                    <path d="M2043,1175 L1360,1055 L1355,1090 L2043,1175 L2043,1175 Z" id="Shape" fill="#D19392" sketch:type="MSShapeGroup"></path>
                    <path d="M2043,1175 L1367,1022 L1360,1055 L2043,1175 L2043,1175 Z" id="Shape" fill="#B9CD96" sketch:type="MSShapeGroup"></path>
                    <path d="M2043,1175 L1375,991 L1367,1022 L2043,1175 L2043,1175 Z" id="Shape" fill="#A99BBD" sketch:type="MSShapeGroup"></path>
                    <path d="M2043,1175 L2043,483 L1985,485 L1956,488 L1900,498 L1873,504 L1845,512 L1819,520 L1792,530 L1767,540 L1741,552 L1716,565 L1669,593 L1623,625 L1580,660 L1541,698 L1504,740 L1471,785 L1441,833 L1427,858 L1415,883 L1403,909 L1383,963 L1375,991 L2043,1175 L2043,1175 Z" id="Shape" fill="#91C3D5" sketch:type="MSShapeGroup"></path>
                    <path d="M1370,1008 L865,628 L866,628 L838,628 L838,624 L867,624 L1372,1004 L1370,1008 L1370,1008 Z M1363,1041 L983,819 L984,819 L956,819 L956,815 L985,815 L1365,1037 L1363,1041 L1363,1041 Z M1360,1284 L1137,1574 L1135,1575 L1106,1575 L1106,1571 L1135,1571 L1133,1572 L1356,1282 L1360,1284 L1360,1284 Z M1570,1681 L1422,1930 L1420,1931 L1392,1931 L1392,1927 L1420,1927 L1418,1928 L1566,1679 L1570,1681 L1570,1681 Z M1351,1162 L1179,1338 L1178,1339 L1150,1339 L1150,1335 L1178,1335 L1177,1336 L1349,1160 L1351,1162 L1351,1162 Z M1423,1482 L1334,1736 L1332,1737 L1304,1737 L1304,1733 L1332,1733 L1330,1734 L1419,1480 L1423,1482 L1423,1482 Z M2718,1024 L2851,884 L2852,883 L2881,883 L2881,887 L2852,887 L2853,886 L2720,1026 L2718,1024 L2718,1024 Z M1353,1112 L1053,1178 L1025,1178 L1025,1174 L1053,1174 L1353,1108 L1353,1112 L1353,1112 Z M1358,1075 L999,1023 L970,1023 L970,1019 L999,1019 L1358,1071 L1358,1075 L1358,1075 Z M1622,626 L1416,567 L1417,567 L1388,567 L1388,563 L1418,563 L1624,622 L1622,626 L1622,626 Z" id="Shape" fill="#000000" sketch:type="MSShapeGroup"></path>
                    <text id="google-/" fill="#000000" sketch:type="MSTextLayer" font-family="Calibri" font-size="51.6096" font-weight="normal">
                        <tspan x="2891" y="886">google /</tspan>
                    </text>
                    <text id="organic" fill="#000000" sketch:type="MSTextLayer" font-family="Calibri" font-size="51.6096" font-weight="normal">
                        <tspan x="3116" y="886">organic</tspan>
                    </text>
                    <text id="43%" fill="#000000" sketch:type="MSTextLayer" font-family="Calibri" font-size="51.6096" font-weight="normal">
                        <tspan x="3044" y="963">43%</tspan>
                    </text>
                    <text id="(direct)-/" fill="#000000" sketch:type="MSTextLayer" font-family="Calibri" font-size="51.6096" font-weight="normal">
                        <tspan x="2470" y="1893">(direct) /</tspan>
                    </text>
                    <text id="(none)" fill="#000000" sketch:type="MSTextLayer" font-family="Calibri" font-size="51.6096" font-weight="normal">
                        <tspan x="2710" y="1893">(none)</tspan>
                    </text>
                    <text id="16%" fill="#000000" sketch:type="MSTextLayer" font-family="Calibri" font-size="51.6096" font-weight="normal">
                        <tspan x="2619" y="1971">16%</tspan>
                    </text>
                    <text id="cytoscape.org" fill="#000000" sketch:type="MSTextLayer" font-family="Calibri" font-size="51.6096" font-weight="normal">
                        <tspan x="1025" y="1943">cytoscape.org</tspan>
                    </text>
                    <text id="6%" fill="#000000" sketch:type="MSTextLayer" font-family="Calibri" font-size="51.6096" font-weight="normal">
                        <tspan x="1166" y="2021">6%</tspan>
                    </text>
                    <text id="google.com" fill="#000000" sketch:type="MSTextLayer" font-family="Calibri" font-size="51.6096" font-weight="normal">
                        <tspan x="996" y="1735">google.com</tspan>
                    </text>
                    <text id="5%" fill="#000000" sketch:type="MSTextLayer" font-family="Calibri" font-size="51.6096" font-weight="normal">
                        <tspan x="1107" y="1812">5%</tspan>
                    </text>
                    <text id="google-/" fill="#000000" sketch:type="MSTextLayer" font-family="Calibri" font-size="51.6096" font-weight="normal">
                        <tspan x="785" y="1573">google /</tspan>
                    </text>
                    <text id="cpc" fill="#000000" sketch:type="MSTextLayer" font-family="Calibri" font-size="51.6096" font-weight="normal">
                        <tspan x="1010" y="1573">cpc</tspan>
                    </text>
                    <text id="4%" fill="#000000" sketch:type="MSTextLayer" font-family="Calibri" font-size="51.6096" font-weight="normal">
                        <tspan x="903" y="1651">4%</tspan>
                    </text>
                    <text id="apps.cytoscape.org" fill="#000000" sketch:type="MSTextLayer" font-family="Calibri" font-size="51.6096" font-weight="normal">
                        <tspan x="646" y="1337">apps.cytoscape.org</tspan>
                    </text>
                    <text id="1%" fill="#000000" sketch:type="MSTextLayer" font-family="Calibri" font-size="51.6096" font-weight="normal">
                        <tspan x="854" y="1415">1%</tspan>
                    </text>
                    <text id="google.co.in" fill="#000000" sketch:type="MSTextLayer" font-family="Calibri" font-size="51.6096" font-weight="normal">
                        <tspan x="704" y="1176">google.co.in</tspan>
                    </text>
                    <text id="1%" fill="#000000" sketch:type="MSTextLayer" font-family="Calibri" font-size="51.6096" font-weight="normal">
                        <tspan x="821" y="1253">1%</tspan>
                    </text>
                    <text id="en.wikipedia.org" fill="#000000" sketch:type="MSTextLayer" font-family="Calibri" font-size="51.6096" font-weight="normal">
                        <tspan x="534" y="1021">en.wikipedia.org</tspan>
                    </text>
                    <text id="1%" fill="#000000" sketch:type="MSTextLayer" font-family="Calibri" font-size="51.6096" font-weight="normal">
                        <tspan x="709" y="1099">1%</tspan>
                    </text>
                    <text id="google.co.uk" fill="#000000" sketch:type="MSTextLayer" font-family="Calibri" font-size="51.6096" font-weight="normal">
                        <tspan x="621" y="817">google.co.uk</tspan>
                    </text>
                    <text id="1%" fill="#000000" sketch:type="MSTextLayer" font-family="Calibri" font-size="51.6096" font-weight="normal">
                        <tspan x="745" y="895">1%</tspan>
                    </text>
                    <text id="baidu-/" fill="#000000" sketch:type="MSTextLayer" font-family="Calibri" font-size="51.6096" font-weight="normal">
                        <tspan x="441" y="627">baidu /</tspan>
                    </text>
                    <text id="organic" fill="#000000" sketch:type="MSTextLayer" font-family="Calibri" font-size="51.6096" font-weight="normal">
                        <tspan x="639" y="627">organic</tspan>
                    </text>
                    <text id="1%" fill="#000000" sketch:type="MSTextLayer" font-family="Calibri" font-size="51.6096" font-weight="normal">
                        <tspan x="597" y="704">1%</tspan>
                    </text>
                    <text id="other" fill="#000000" sketch:type="MSTextLayer" font-family="Calibri" font-size="51.6096" font-weight="normal">
                        <tspan x="1238" y="565">other</tspan>
                    </text>
                    <text id="21%" fill="#000000" sketch:type="MSTextLayer" font-family="Calibri" font-size="51.6096" font-weight="normal">
                        <tspan x="1253" y="643">21%</tspan>
                    </text>
                    <text id="Web" fill="#000000" sketch:type="MSTextLayer" font-family="Calibri" font-size="83.5584" font-weight="bold">
                        <tspan x="1264" y="107">Web</tspan>
                    </text>
                    <text id="Site" fill="#000000" sketch:type="MSTextLayer" font-family="Calibri" font-size="83.5584" font-weight="bold">
                        <tspan x="1480" y="107">Site</tspan>
                    </text>
                    <text id="Referral" fill="#000000" sketch:type="MSTextLayer" font-family="Calibri" font-size="83.5584" font-weight="bold">
                        <tspan x="1661" y="107">Referral</tspan>
                    </text>
                    <text id="Sources" fill="#000000" sketch:type="MSTextLayer" font-family="Calibri" font-size="83.5584" font-weight="bold">
                        <tspan x="2016" y="107">Sources</tspan>
                    </text>
                    <text id="(1,071,150)" fill="#000000" sketch:type="MSTextLayer" font-family="Calibri" font-size="83.5584" font-weight="bold">
                        <tspan x="2364" y="107">(1,071,150)</tspan>
                    </text>
                    <text id="(1/" fill="#000000" sketch:type="MSTextLayer" font-family="Calibri" font-size="83.5584" font-weight="bold">
                        <tspan x="1409" y="230">(1/</tspan>
                    </text>
                    <text id="1/" fill="#000000" sketch:type="MSTextLayer" font-family="Calibri" font-size="83.5584" font-weight="bold">
                        <tspan x="1535" y="230">1/</tspan>
                    </text>
                    <text id="2012" fill="#000000" sketch:type="MSTextLayer" font-family="Calibri" font-size="83.5584" font-weight="bold">
                        <tspan x="1630" y="230">2012</tspan>
                    </text>
                    <text id="through" fill="#000000" sketch:type="MSTextLayer" font-family="Calibri" font-size="83.5584" font-weight="bold">
                        <tspan x="1858" y="230">through</tspan>
                    </text>
                    <text id="2/" fill="#000000" sketch:type="MSTextLayer" font-family="Calibri" font-size="83.5584" font-weight="bold">
                        <tspan x="2217" y="230">2/</tspan>
                    </text>
                    <text id="22/" fill="#000000" sketch:type="MSTextLayer" font-family="Calibri" font-size="83.5584" font-weight="bold">
                        <tspan x="2312" y="230">22/</tspan>
                    </text>
                    <text id="1015)" fill="#000000" sketch:type="MSTextLayer" font-family="Calibri" font-size="83.5584" font-weight="bold">
                        <tspan x="2458" y="230">1015)</tspan>
                    </text>
                </g>
            </g>
        </g>
    </g>
</svg>